<?xml version="1.0" encoding="UTF-8" standalone="no"?>
<!DOCTYPE svg PUBLIC "-//W3C//DTD SVG 1.1//EN"
 "http://www.w3.org/Graphics/SVG/1.1/DTD/svg11.dtd">
<!-- Generated by graphviz version 2.50.0 (20220203.2022)
 -->
<!-- Title: altintegration::btc::LimitedString&lt; Limit &gt; Pages: 1 -->
<svg width="125pt" height="310pt"
 viewBox="0.00 0.00 125.00 310.00" xmlns="http://www.w3.org/2000/svg" xmlns:xlink="http://www.w3.org/1999/xlink">
<g id="graph0" class="graph" transform="scale(1 1) rotate(0) translate(4 306)">
<title>altintegration::btc::LimitedString&lt; Limit &gt;</title>
<polygon fill="white" stroke="transparent" points="-4,4 -4,-306 121,-306 121,4 -4,4"/>
<!-- Node1 -->
<g id="node1" class="node">
<title>Node1</title>
<g id="a_node1"><a xlink:title=" ">
<polygon fill="#bfbfbf" stroke="black" points="0,-0.5 0,-90.5 117,-90.5 117,-0.5 0,-0.5"/>
<text text-anchor="start" x="8" y="-78.5" font-family="Helvetica,sans-Serif" font-size="10.00">altintegration::btc</text>
<text text-anchor="middle" x="58.5" y="-67.5" font-family="Helvetica,sans-Serif" font-size="10.00">::LimitedString&lt; Limit &gt;</text>
<polyline fill="none" stroke="black" points="0,-60.5 117,-60.5 "/>
<text text-anchor="middle" x="58.5" y="-48.5" font-family="Helvetica,sans-Serif" font-size="10.00"> </text>
<polyline fill="none" stroke="black" points="0,-41.5 117,-41.5 "/>
<text text-anchor="start" x="8" y="-29.5" font-family="Helvetica,sans-Serif" font-size="10.00">+ LimitedString()</text>
<text text-anchor="start" x="8" y="-18.5" font-family="Helvetica,sans-Serif" font-size="10.00">+ Unserialize()</text>
<text text-anchor="start" x="8" y="-7.5" font-family="Helvetica,sans-Serif" font-size="10.00">+ Serialize()</text>
</a>
</g>
</g>
<!-- Node2 -->
<g id="node2" class="node">
<title>Node2</title>
<g id="a_node2"><a xlink:title=" ">
<polygon fill="white" stroke="black" points="29,-138.5 29,-195.5 88,-195.5 88,-138.5 29,-138.5"/>
<text text-anchor="middle" x="58.5" y="-183.5" font-family="Helvetica,sans-Serif" font-size="10.00">std::string</text>
<polyline fill="none" stroke="black" points="29,-176.5 88,-176.5 "/>
<text text-anchor="middle" x="58.5" y="-164.5" font-family="Helvetica,sans-Serif" font-size="10.00"> </text>
<polyline fill="none" stroke="black" points="29,-157.5 88,-157.5 "/>
<text text-anchor="middle" x="58.5" y="-145.5" font-family="Helvetica,sans-Serif" font-size="10.00"> </text>
</a>
</g>
</g>
<!-- Node2&#45;&gt;Node1 -->
<g id="edge1" class="edge">
<title>Node2&#45;&gt;Node1</title>
<path fill="none" stroke="#404040" d="M58.5,-138.28C58.5,-127.73 58.5,-115.29 58.5,-103.03"/>
<polygon fill="none" stroke="#404040" points="58.5,-102.91 54.5,-96.91 58.5,-90.91 62.5,-96.91 58.5,-102.91"/>
<text text-anchor="middle" x="74.5" y="-112" font-family="Helvetica,sans-Serif" font-size="10.00"> #string</text>
</g>
<!-- Node3 -->
<g id="node3" class="node">
<title>Node3</title>
<g id="a_node3"><a xlink:title=" ">
<polygon fill="white" stroke="black" points="12,-233.5 12,-301.5 105,-301.5 105,-233.5 12,-233.5"/>
<text text-anchor="start" x="20" y="-289.5" font-family="Helvetica,sans-Serif" font-size="10.00">std::basic_string&lt;</text>
<text text-anchor="middle" x="58.5" y="-278.5" font-family="Helvetica,sans-Serif" font-size="10.00"> Char &gt;</text>
<polyline fill="none" stroke="black" points="12,-271.5 105,-271.5 "/>
<text text-anchor="middle" x="58.5" y="-259.5" font-family="Helvetica,sans-Serif" font-size="10.00"> </text>
<polyline fill="none" stroke="black" points="12,-252.5 105,-252.5 "/>
<text text-anchor="middle" x="58.5" y="-240.5" font-family="Helvetica,sans-Serif" font-size="10.00"> </text>
</a>
</g>
</g>
<!-- Node3&#45;&gt;Node2 -->
<g id="edge2" class="edge">
<title>Node3&#45;&gt;Node2</title>
<path fill="none" stroke="midnightblue" d="M58.5,-223.38C58.5,-213.94 58.5,-204.2 58.5,-195.57"/>
<polygon fill="none" stroke="midnightblue" points="55,-223.43 58.5,-233.43 62,-223.43 55,-223.43"/>
</g>
</g>
</svg>
