<?xml version="1.0" encoding="UTF-8" standalone="no"?>
<!DOCTYPE svg PUBLIC "-//W3C//DTD SVG 1.1//EN"
 "http://www.w3.org/Graphics/SVG/1.1/DTD/svg11.dtd">
<!-- Generated by graphviz version 2.44.0 ()
 -->
<!-- Title: altintegration::ArithUint256 Pages: 1 -->
<svg width="191pt" height="1032pt"
 viewBox="0.00 0.00 190.50 1032.00" xmlns="http://www.w3.org/2000/svg" xmlns:xlink="http://www.w3.org/1999/xlink">
<g id="graph0" class="graph" transform="scale(1 1) rotate(0) translate(4 1028)">
<title>altintegration::ArithUint256</title>
<polygon fill="white" stroke="transparent" points="-4,4 -4,-1028 186.5,-1028 186.5,4 -4,4"/>
<!-- Node1 -->
<g id="node1" class="node">
<title>Node1</title>
<g id="a_node1"><a xlink:title="256&#45;bit unsigned big integer.">
<polygon fill="#bfbfbf" stroke="black" points="0,-0.5 0,-211.5 131,-211.5 131,-0.5 0,-0.5"/>
<text text-anchor="middle" x="65.5" y="-199.5" font-family="Helvetica,sans-Serif" font-size="10.00">altintegration::ArithUint256</text>
<polyline fill="none" stroke="black" points="0,-192.5 131,-192.5 "/>
<text text-anchor="middle" x="65.5" y="-180.5" font-family="Helvetica,sans-Serif" font-size="10.00"> </text>
<polyline fill="none" stroke="black" points="0,-173.5 131,-173.5 "/>
<text text-anchor="start" x="8" y="-161.5" font-family="Helvetica,sans-Serif" font-size="10.00">+ ArithUint256()</text>
<text text-anchor="start" x="8" y="-150.5" font-family="Helvetica,sans-Serif" font-size="10.00">+ ArithUint256()</text>
<text text-anchor="start" x="8" y="-139.5" font-family="Helvetica,sans-Serif" font-size="10.00">+ ArithUint256()</text>
<text text-anchor="start" x="8" y="-128.5" font-family="Helvetica,sans-Serif" font-size="10.00">+ ArithUint256()</text>
<text text-anchor="start" x="8" y="-117.5" font-family="Helvetica,sans-Serif" font-size="10.00">+ operator~()</text>
<text text-anchor="start" x="8" y="-106.5" font-family="Helvetica,sans-Serif" font-size="10.00">+ operator&#45;()</text>
<text text-anchor="start" x="8" y="-95.5" font-family="Helvetica,sans-Serif" font-size="10.00">+ operator=()</text>
<text text-anchor="start" x="8" y="-84.5" font-family="Helvetica,sans-Serif" font-size="10.00">+ operator^=()</text>
<text text-anchor="start" x="8" y="-73.5" font-family="Helvetica,sans-Serif" font-size="10.00">+ operator&amp;=()</text>
<text text-anchor="start" x="8" y="-62.5" font-family="Helvetica,sans-Serif" font-size="10.00">+ operator|=()</text>
<text text-anchor="start" x="8" y="-51.5" font-family="Helvetica,sans-Serif" font-size="10.00">and 22 more...</text>
<text text-anchor="start" x="8" y="-40.5" font-family="Helvetica,sans-Serif" font-size="10.00">+ fromString()</text>
<text text-anchor="start" x="8" y="-29.5" font-family="Helvetica,sans-Serif" font-size="10.00">+ fromHex()</text>
<text text-anchor="start" x="8" y="-18.5" font-family="Helvetica,sans-Serif" font-size="10.00">+ fromLEBytes()</text>
<text text-anchor="start" x="8" y="-7.5" font-family="Helvetica,sans-Serif" font-size="10.00">+ fromBits()</text>
</a>
</g>
</g>
<!-- Node2 -->
<g id="node2" class="node">
<title>Node2</title>
<g id="a_node2"><a xlink:href="structaltintegration_1_1Blob.html" target="_top" xlink:title=" ">
<polygon fill="white" stroke="black" points="0,-249.5 0,-471.5 131,-471.5 131,-249.5 0,-249.5"/>
<text text-anchor="start" x="8" y="-459.5" font-family="Helvetica,sans-Serif" font-size="10.00">altintegration::Blob</text>
<text text-anchor="middle" x="65.5" y="-448.5" font-family="Helvetica,sans-Serif" font-size="10.00">&lt; SHA256_HASH_SIZE &gt;</text>
<polyline fill="none" stroke="black" points="0,-441.5 131,-441.5 "/>
<text text-anchor="start" x="8" y="-429.5" font-family="Helvetica,sans-Serif" font-size="10.00">+ data_</text>
<text text-anchor="start" x="8" y="-418.5" font-family="Helvetica,sans-Serif" font-size="10.00">+ this</text>
<text text-anchor="start" x="8" y="-407.5" font-family="Helvetica,sans-Serif" font-size="10.00"># data_</text>
<polyline fill="none" stroke="black" points="0,-400.5 131,-400.5 "/>
<text text-anchor="start" x="8" y="-388.5" font-family="Helvetica,sans-Serif" font-size="10.00">+ Blob()</text>
<text text-anchor="start" x="8" y="-377.5" font-family="Helvetica,sans-Serif" font-size="10.00">+ Blob()</text>
<text text-anchor="start" x="8" y="-366.5" font-family="Helvetica,sans-Serif" font-size="10.00">+ Blob()</text>
<text text-anchor="start" x="8" y="-355.5" font-family="Helvetica,sans-Serif" font-size="10.00">+ Blob()</text>
<text text-anchor="start" x="8" y="-344.5" font-family="Helvetica,sans-Serif" font-size="10.00">+ Blob()</text>
<text text-anchor="start" x="8" y="-333.5" font-family="Helvetica,sans-Serif" font-size="10.00">+ operator=()</text>
<text text-anchor="start" x="8" y="-322.5" font-family="Helvetica,sans-Serif" font-size="10.00">+ operator=()</text>
<text text-anchor="start" x="8" y="-311.5" font-family="Helvetica,sans-Serif" font-size="10.00">+ reverse()</text>
<text text-anchor="start" x="8" y="-300.5" font-family="Helvetica,sans-Serif" font-size="10.00">+ operator~()</text>
<text text-anchor="start" x="8" y="-289.5" font-family="Helvetica,sans-Serif" font-size="10.00">+ asVector()</text>
<text text-anchor="start" x="8" y="-278.5" font-family="Helvetica,sans-Serif" font-size="10.00">and 9 more...</text>
<text text-anchor="start" x="8" y="-267.5" font-family="Helvetica,sans-Serif" font-size="10.00"># assign()</text>
<text text-anchor="start" x="8" y="-256.5" font-family="Helvetica,sans-Serif" font-size="10.00"># assign()</text>
</a>
</g>
</g>
<!-- Node2&#45;&gt;Node1 -->
<g id="edge1" class="edge">
<title>Node2&#45;&gt;Node1</title>
<path fill="none" stroke="midnightblue" d="M65.5,-239.2C65.5,-230.06 65.5,-220.89 65.5,-211.86"/>
<polygon fill="none" stroke="midnightblue" points="62,-239.48 65.5,-249.48 69,-239.48 62,-239.48"/>
</g>
<!-- Node3 -->
<g id="node3" class="node">
<title>Node3</title>
<g id="a_node3"><a xlink:href="structaltintegration_1_1Blob.html" target="_top" xlink:title="Contiguous byte array of fixed size.">
<polygon fill="white" stroke="black" points="5.5,-519.5 5.5,-708.5 125.5,-708.5 125.5,-519.5 5.5,-519.5"/>
<text text-anchor="middle" x="65.5" y="-696.5" font-family="Helvetica,sans-Serif" font-size="10.00">altintegration::Blob&lt; N &gt;</text>
<polyline fill="none" stroke="black" points="5.5,-689.5 125.5,-689.5 "/>
<text text-anchor="start" x="13.5" y="-677.5" font-family="Helvetica,sans-Serif" font-size="10.00">+ this</text>
<polyline fill="none" stroke="black" points="5.5,-670.5 125.5,-670.5 "/>
<text text-anchor="start" x="13.5" y="-658.5" font-family="Helvetica,sans-Serif" font-size="10.00">+ Blob()</text>
<text text-anchor="start" x="13.5" y="-647.5" font-family="Helvetica,sans-Serif" font-size="10.00">+ Blob()</text>
<text text-anchor="start" x="13.5" y="-636.5" font-family="Helvetica,sans-Serif" font-size="10.00">+ Blob()</text>
<text text-anchor="start" x="13.5" y="-625.5" font-family="Helvetica,sans-Serif" font-size="10.00">+ Blob()</text>
<text text-anchor="start" x="13.5" y="-614.5" font-family="Helvetica,sans-Serif" font-size="10.00">+ Blob()</text>
<text text-anchor="start" x="13.5" y="-603.5" font-family="Helvetica,sans-Serif" font-size="10.00">+ operator=()</text>
<text text-anchor="start" x="13.5" y="-592.5" font-family="Helvetica,sans-Serif" font-size="10.00">+ operator=()</text>
<text text-anchor="start" x="13.5" y="-581.5" font-family="Helvetica,sans-Serif" font-size="10.00">+ reverse()</text>
<text text-anchor="start" x="13.5" y="-570.5" font-family="Helvetica,sans-Serif" font-size="10.00">+ operator~()</text>
<text text-anchor="start" x="13.5" y="-559.5" font-family="Helvetica,sans-Serif" font-size="10.00">+ asVector()</text>
<text text-anchor="start" x="13.5" y="-548.5" font-family="Helvetica,sans-Serif" font-size="10.00">and 9 more...</text>
<text text-anchor="start" x="13.5" y="-537.5" font-family="Helvetica,sans-Serif" font-size="10.00"># assign()</text>
<text text-anchor="start" x="13.5" y="-526.5" font-family="Helvetica,sans-Serif" font-size="10.00"># assign()</text>
</a>
</g>
</g>
<!-- Node3&#45;&gt;Node2 -->
<g id="edge2" class="edge">
<title>Node3&#45;&gt;Node2</title>
<path fill="none" stroke="orange" d="M65.5,-509.09C65.5,-496.78 65.5,-484.18 65.5,-471.78"/>
<polygon fill="orange" stroke="orange" points="62,-509.35 65.5,-519.35 69,-509.35 62,-509.35"/>
<text text-anchor="middle" x="124" y="-493" font-family="Helvetica,sans-Serif" font-size="10.00"> &lt; SHA256_HASH_SIZE &gt;</text>
</g>
<!-- Node4 -->
<g id="node4" class="node">
<title>Node4</title>
<g id="a_node4"><a xlink:title=" ">
<polygon fill="white" stroke="#bfbfbf" points="0,-756.5 0,-813.5 131,-813.5 131,-756.5 0,-756.5"/>
<text text-anchor="middle" x="65.5" y="-801.5" font-family="Helvetica,sans-Serif" font-size="10.00">std::array&lt; value_type, N &gt;</text>
<polyline fill="none" stroke="#bfbfbf" points="0,-794.5 131,-794.5 "/>
<text text-anchor="start" x="8" y="-782.5" font-family="Helvetica,sans-Serif" font-size="10.00">+ elements</text>
<polyline fill="none" stroke="#bfbfbf" points="0,-775.5 131,-775.5 "/>
<text text-anchor="middle" x="65.5" y="-763.5" font-family="Helvetica,sans-Serif" font-size="10.00"> </text>
</a>
</g>
</g>
<!-- Node4&#45;&gt;Node3 -->
<g id="edge3" class="edge">
<title>Node4&#45;&gt;Node3</title>
<path fill="none" stroke="#404040" d="M65.5,-756.47C65.5,-746.23 65.5,-733.9 65.5,-720.84"/>
<polygon fill="none" stroke="#404040" points="65.5,-720.69 61.5,-714.69 65.5,-708.69 69.5,-714.69 65.5,-720.69"/>
<text text-anchor="middle" x="81.5" y="-730" font-family="Helvetica,sans-Serif" font-size="10.00"> #data_</text>
</g>
<!-- Node5 -->
<g id="node5" class="node">
<title>Node5</title>
<g id="a_node5"><a xlink:title=" ">
<polygon fill="white" stroke="#bfbfbf" points="26.5,-861.5 26.5,-918.5 104.5,-918.5 104.5,-861.5 26.5,-861.5"/>
<text text-anchor="middle" x="65.5" y="-906.5" font-family="Helvetica,sans-Serif" font-size="10.00">std::array&lt; T &gt;</text>
<polyline fill="none" stroke="#bfbfbf" points="26.5,-899.5 104.5,-899.5 "/>
<text text-anchor="middle" x="65.5" y="-887.5" font-family="Helvetica,sans-Serif" font-size="10.00"> </text>
<polyline fill="none" stroke="#bfbfbf" points="26.5,-880.5 104.5,-880.5 "/>
<text text-anchor="middle" x="65.5" y="-868.5" font-family="Helvetica,sans-Serif" font-size="10.00"> </text>
</a>
</g>
</g>
<!-- Node5&#45;&gt;Node4 -->
<g id="edge4" class="edge">
<title>Node5&#45;&gt;Node4</title>
<path fill="none" stroke="orange" d="M65.5,-851.29C65.5,-838.84 65.5,-825.23 65.5,-813.68"/>
<polygon fill="orange" stroke="orange" points="62,-851.4 65.5,-861.4 69,-851.4 62,-851.4"/>
<text text-anchor="middle" x="105" y="-835" font-family="Helvetica,sans-Serif" font-size="10.00"> &lt; value_type, N &gt;</text>
</g>
<!-- Node6 -->
<g id="node6" class="node">
<title>Node6</title>
<g id="a_node6"><a xlink:title=" ">
<polygon fill="white" stroke="#bfbfbf" points="51,-966.5 51,-1023.5 80,-1023.5 80,-966.5 51,-966.5"/>
<text text-anchor="middle" x="65.5" y="-1011.5" font-family="Helvetica,sans-Serif" font-size="10.00">T</text>
<polyline fill="none" stroke="#bfbfbf" points="51,-1004.5 80,-1004.5 "/>
<text text-anchor="middle" x="65.5" y="-992.5" font-family="Helvetica,sans-Serif" font-size="10.00"> </text>
<polyline fill="none" stroke="#bfbfbf" points="51,-985.5 80,-985.5 "/>
<text text-anchor="middle" x="65.5" y="-973.5" font-family="Helvetica,sans-Serif" font-size="10.00"> </text>
</a>
</g>
</g>
<!-- Node6&#45;&gt;Node5 -->
<g id="edge5" class="edge">
<title>Node6&#45;&gt;Node5</title>
<path fill="none" stroke="#404040" d="M65.5,-966.4C65.5,-955.55 65.5,-942.87 65.5,-931.05"/>
<polygon fill="none" stroke="#404040" points="65.5,-930.68 61.5,-924.68 65.5,-918.68 69.5,-924.68 65.5,-930.68"/>
<text text-anchor="middle" x="90" y="-940" font-family="Helvetica,sans-Serif" font-size="10.00"> +elements</text>
</g>
</g>
</svg>
