<?xml version="1.0" encoding="UTF-8" standalone="no"?>
<!DOCTYPE svg PUBLIC "-//W3C//DTD SVG 1.1//EN"
 "http://www.w3.org/Graphics/SVG/1.1/DTD/svg11.dtd">
<!-- Generated by graphviz version 2.44.0 ()
 -->
<!-- Title: btc::LimitedString&lt; Limit &gt; Pages: 1 -->
<svg width="101pt" height="310pt"
 viewBox="0.00 0.00 101.00 310.00" xmlns="http://www.w3.org/2000/svg" xmlns:xlink="http://www.w3.org/1999/xlink">
<g id="graph0" class="graph" transform="scale(1 1) rotate(0) translate(4 306)">
<title>btc::LimitedString&lt; Limit &gt;</title>
<polygon fill="white" stroke="transparent" points="-4,4 -4,-306 97,-306 97,4 -4,4"/>
<!-- Node1 -->
<g id="node1" class="node">
<title>Node1</title>
<g id="a_node1"><a xlink:title=" ">
<polygon fill="#bfbfbf" stroke="black" points="0.5,-0.5 0.5,-90.5 92.5,-90.5 92.5,-0.5 0.5,-0.5"/>
<text text-anchor="start" x="8.5" y="-78.5" font-family="Helvetica,sans-Serif" font-size="10.00">btc::LimitedString</text>
<text text-anchor="middle" x="46.5" y="-67.5" font-family="Helvetica,sans-Serif" font-size="10.00">&lt; Limit &gt;</text>
<polyline fill="none" stroke="black" points="0.5,-60.5 92.5,-60.5 "/>
<text text-anchor="middle" x="46.5" y="-48.5" font-family="Helvetica,sans-Serif" font-size="10.00"> </text>
<polyline fill="none" stroke="black" points="0.5,-41.5 92.5,-41.5 "/>
<text text-anchor="start" x="8.5" y="-29.5" font-family="Helvetica,sans-Serif" font-size="10.00">+ LimitedString()</text>
<text text-anchor="start" x="8.5" y="-18.5" font-family="Helvetica,sans-Serif" font-size="10.00">+ Unserialize()</text>
<text text-anchor="start" x="8.5" y="-7.5" font-family="Helvetica,sans-Serif" font-size="10.00">+ Serialize()</text>
</a>
</g>
</g>
<!-- Node2 -->
<g id="node2" class="node">
<title>Node2</title>
<g id="a_node2"><a xlink:title=" ">
<polygon fill="white" stroke="#bfbfbf" points="17,-138.5 17,-195.5 76,-195.5 76,-138.5 17,-138.5"/>
<text text-anchor="middle" x="46.5" y="-183.5" font-family="Helvetica,sans-Serif" font-size="10.00">std::string</text>
<polyline fill="none" stroke="#bfbfbf" points="17,-176.5 76,-176.5 "/>
<text text-anchor="middle" x="46.5" y="-164.5" font-family="Helvetica,sans-Serif" font-size="10.00"> </text>
<polyline fill="none" stroke="#bfbfbf" points="17,-157.5 76,-157.5 "/>
<text text-anchor="middle" x="46.5" y="-145.5" font-family="Helvetica,sans-Serif" font-size="10.00"> </text>
</a>
</g>
</g>
<!-- Node2&#45;&gt;Node1 -->
<g id="edge1" class="edge">
<title>Node2&#45;&gt;Node1</title>
<path fill="none" stroke="#404040" d="M46.5,-138.28C46.5,-127.73 46.5,-115.29 46.5,-103.03"/>
<polygon fill="none" stroke="#404040" points="46.5,-102.91 42.5,-96.91 46.5,-90.91 50.5,-96.91 46.5,-102.91"/>
<text text-anchor="middle" x="62.5" y="-112" font-family="Helvetica,sans-Serif" font-size="10.00"> #string</text>
</g>
<!-- Node3 -->
<g id="node3" class="node">
<title>Node3</title>
<g id="a_node3"><a xlink:title=" ">
<polygon fill="white" stroke="#bfbfbf" points="0,-233.5 0,-301.5 93,-301.5 93,-233.5 0,-233.5"/>
<text text-anchor="start" x="8" y="-289.5" font-family="Helvetica,sans-Serif" font-size="10.00">std::basic_string&lt;</text>
<text text-anchor="middle" x="46.5" y="-278.5" font-family="Helvetica,sans-Serif" font-size="10.00"> Char &gt;</text>
<polyline fill="none" stroke="#bfbfbf" points="0,-271.5 93,-271.5 "/>
<text text-anchor="middle" x="46.5" y="-259.5" font-family="Helvetica,sans-Serif" font-size="10.00"> </text>
<polyline fill="none" stroke="#bfbfbf" points="0,-252.5 93,-252.5 "/>
<text text-anchor="middle" x="46.5" y="-240.5" font-family="Helvetica,sans-Serif" font-size="10.00"> </text>
</a>
</g>
</g>
<!-- Node3&#45;&gt;Node2 -->
<g id="edge2" class="edge">
<title>Node3&#45;&gt;Node2</title>
<path fill="none" stroke="midnightblue" d="M46.5,-223.38C46.5,-213.94 46.5,-204.2 46.5,-195.57"/>
<polygon fill="none" stroke="midnightblue" points="43,-223.43 46.5,-233.43 50,-223.43 43,-223.43"/>
</g>
</g>
</svg>
