<?xml version="1.0" encoding="UTF-8" standalone="no"?>
<!DOCTYPE svg PUBLIC "-//W3C//DTD SVG 1.1//EN"
 "http://www.w3.org/Graphics/SVG/1.1/DTD/svg11.dtd">
<!-- Generated by graphviz version 3.0.0 (20220413.0242)
 -->
<!-- Title: include/veriblock/pop/config.hpp Pages: 1 -->
<svg width="3180pt" height="799pt"
 viewBox="0.00 0.00 3180.34 799.00" xmlns="http://www.w3.org/2000/svg" xmlns:xlink="http://www.w3.org/1999/xlink">
<g id="graph0" class="graph" transform="scale(1 1) rotate(0) translate(4 795)">
<title>include/veriblock/pop/config.hpp</title>
<polygon fill="white" stroke="transparent" points="-4,4 -4,-795 3176.34,-795 3176.34,4 -4,4"/>
<!-- Node1 -->
<g id="node1" class="node">
<title>Node1</title>
<g id="a_node1"><a xlink:title="Altchains must configure AltBlockTree prior any usage by providing bootstrapping Config.">
<polygon fill="#bfbfbf" stroke="black" points="977.14,-760.5 977.14,-790.5 1085.14,-790.5 1085.14,-760.5 977.14,-760.5"/>
<text text-anchor="start" x="985.14" y="-778.5" font-family="Helvetica,sans-Serif" font-size="10.00">include/veriblock/pop</text>
<text text-anchor="middle" x="1031.14" y="-767.5" font-family="Helvetica,sans-Serif" font-size="10.00">/config.hpp</text>
</a>
</g>
</g>
<!-- Node2 -->
<g id="node2" class="node">
<title>Node2</title>
<g id="a_node2"><a xlink:title=" ">
<polygon fill="white" stroke="#bfbfbf" points="1176.64,-252 1176.64,-271 1215.64,-271 1215.64,-252 1176.64,-252"/>
<text text-anchor="middle" x="1196.14" y="-259" font-family="Helvetica,sans-Serif" font-size="10.00">utility</text>
</a>
</g>
</g>
<!-- Node1&#45;&gt;Node2 -->
<g id="edge1" class="edge">
<title>Node1&#45;&gt;Node2</title>
<path fill="none" stroke="midnightblue" d="M976.75,-772.68C927.2,-768.81 853.65,-757.33 799.14,-724 717.7,-674.21 699.04,-591.94 754.14,-514 859.98,-364.28 1084.97,-291.96 1166.15,-270"/>
<polygon fill="midnightblue" stroke="midnightblue" points="1167.41,-273.28 1176.19,-267.34 1165.62,-266.51 1167.41,-273.28"/>
</g>
<!-- Node3 -->
<g id="node3" class="node">
<title>Node3</title>
<g id="a_node3"><a xlink:title=" ">
<polygon fill="white" stroke="#bfbfbf" points="1798.14,-56.5 1798.14,-75.5 1842.14,-75.5 1842.14,-56.5 1798.14,-56.5"/>
<text text-anchor="middle" x="1820.14" y="-63.5" font-family="Helvetica,sans-Serif" font-size="10.00">vector</text>
</a>
</g>
</g>
<!-- Node1&#45;&gt;Node3 -->
<g id="edge2" class="edge">
<title>Node1&#45;&gt;Node3</title>
<path fill="none" stroke="midnightblue" d="M1085.35,-774.41C1413.33,-773.54 3118.14,-763.95 3118.14,-659 3118.14,-659 3118.14,-659 3118.14,-595.5 3118.14,-428.98 3103.59,-360.97 2983.14,-246 2868.92,-136.99 2808.2,-146.51 2654.14,-112 2497.25,-76.86 1986.41,-68.83 1852.51,-67.31"/>
<polygon fill="midnightblue" stroke="midnightblue" points="1852.51,-63.81 1842.48,-67.2 1852.44,-70.81 1852.51,-63.81"/>
</g>
<!-- Node4 -->
<g id="node4" class="node">
<title>Node4</title>
<g id="a_node4"><a xlink:href="alt__chain__params_8hpp_source.html" target="_top" xlink:title=" ">
<polygon fill="white" stroke="black" points="1647.64,-581.5 1647.64,-611.5 1752.64,-611.5 1752.64,-581.5 1647.64,-581.5"/>
<text text-anchor="start" x="1655.64" y="-599.5" font-family="Helvetica,sans-Serif" font-size="10.00">blockchain/alt_chain</text>
<text text-anchor="middle" x="1700.14" y="-588.5" font-family="Helvetica,sans-Serif" font-size="10.00">_params.hpp</text>
</a>
</g>
</g>
<!-- Node1&#45;&gt;Node4 -->
<g id="edge3" class="edge">
<title>Node1&#45;&gt;Node4</title>
<path fill="none" stroke="midnightblue" d="M1085.19,-771.37C1157.22,-766.22 1288.12,-753.42 1396.14,-724 1496.5,-696.66 1607.79,-644.27 1663.75,-616.26"/>
<polygon fill="midnightblue" stroke="midnightblue" points="1665.54,-619.28 1672.9,-611.65 1662.39,-613.02 1665.54,-619.28"/>
</g>
<!-- Node35 -->
<g id="node21" class="node">
<title>Node35</title>
<g id="a_node21"><a xlink:href="serde_8hpp_source.html" target="_top" xlink:title=" ">
<polygon fill="white" stroke="black" points="1000.64,-252 1000.64,-271 1119.64,-271 1119.64,-252 1000.64,-252"/>
<text text-anchor="middle" x="1060.14" y="-259" font-family="Helvetica,sans-Serif" font-size="10.00">veriblock/pop/serde.hpp</text>
</a>
</g>
</g>
<!-- Node1&#45;&gt;Node35 -->
<g id="edge139" class="edge">
<title>Node1&#45;&gt;Node35</title>
<path fill="none" stroke="midnightblue" d="M977.05,-769.92C914.67,-761.41 814.73,-737.14 768.14,-668 729.88,-611.24 747.1,-579.13 768.14,-514 802,-409.18 824.68,-378.64 913.14,-313 939.4,-293.51 973.75,-281.15 1002.64,-273.55"/>
<polygon fill="midnightblue" stroke="midnightblue" points="1003.76,-276.88 1012.61,-271.05 1002.05,-270.09 1003.76,-276.88"/>
</g>
<!-- Node68 -->
<g id="node42" class="node">
<title>Node68</title>
<g id="a_node42"><a xlink:href="btc__chain__params_8hpp_source.html" target="_top" xlink:title=" ">
<polygon fill="white" stroke="black" points="544.14,-380.5 544.14,-410.5 652.14,-410.5 652.14,-380.5 544.14,-380.5"/>
<text text-anchor="start" x="552.14" y="-398.5" font-family="Helvetica,sans-Serif" font-size="10.00">blockchain/btc_chain</text>
<text text-anchor="middle" x="598.14" y="-387.5" font-family="Helvetica,sans-Serif" font-size="10.00">_params.hpp</text>
</a>
</g>
</g>
<!-- Node1&#45;&gt;Node68 -->
<g id="edge128" class="edge">
<title>Node1&#45;&gt;Node68</title>
<path fill="none" stroke="midnightblue" d="M976.91,-773.21C837.59,-769.45 474.95,-756.59 432.14,-724 407.63,-705.35 408.14,-689.8 408.14,-659 408.14,-659 408.14,-659 408.14,-528.5 408.14,-465.7 479.02,-430.37 534.19,-412.38"/>
<polygon fill="midnightblue" stroke="midnightblue" points="535.45,-415.66 543.94,-409.33 533.35,-408.98 535.45,-415.66"/>
</g>
<!-- Node69 -->
<g id="node43" class="node">
<title>Node69</title>
<g id="a_node43"><a xlink:href="vbk__chain__params_8hpp_source.html" target="_top" xlink:title=" ">
<polygon fill="white" stroke="black" points="1314.14,-447.5 1314.14,-477.5 1424.14,-477.5 1424.14,-447.5 1314.14,-447.5"/>
<text text-anchor="start" x="1322.14" y="-465.5" font-family="Helvetica,sans-Serif" font-size="10.00">blockchain/vbk_chain</text>
<text text-anchor="middle" x="1369.14" y="-454.5" font-family="Helvetica,sans-Serif" font-size="10.00">_params.hpp</text>
</a>
</g>
</g>
<!-- Node1&#45;&gt;Node69 -->
<g id="edge134" class="edge">
<title>Node1&#45;&gt;Node69</title>
<path fill="none" stroke="midnightblue" d="M1085.21,-768.1C1183.67,-754.94 1382.14,-720.75 1382.14,-659 1382.14,-659 1382.14,-659 1382.14,-595.5 1382.14,-557.82 1376.82,-514.38 1372.99,-487.94"/>
<polygon fill="midnightblue" stroke="midnightblue" points="1376.4,-487.08 1371.46,-477.71 1369.48,-488.12 1376.4,-487.08"/>
</g>
<!-- Node70 -->
<g id="node44" class="node">
<title>Node70</title>
<g id="a_node44"><a xlink:href="stateless__validation_8hpp_source.html" target="_top" xlink:title=" ">
<polygon fill="white" stroke="black" points="970.64,-704.5 970.64,-723.5 1091.64,-723.5 1091.64,-704.5 970.64,-704.5"/>
<text text-anchor="middle" x="1031.14" y="-711.5" font-family="Helvetica,sans-Serif" font-size="10.00">stateless_validation.hpp</text>
</a>
</g>
</g>
<!-- Node1&#45;&gt;Node70 -->
<g id="edge140" class="edge">
<title>Node1&#45;&gt;Node70</title>
<path fill="none" stroke="midnightblue" d="M1031.14,-760.4C1031.14,-752.47 1031.14,-742.46 1031.14,-733.86"/>
<polygon fill="midnightblue" stroke="midnightblue" points="1034.64,-733.66 1031.14,-723.66 1027.64,-733.66 1034.64,-733.66"/>
</g>
<!-- Node4&#45;&gt;Node3 -->
<g id="edge6" class="edge">
<title>Node4&#45;&gt;Node3</title>
<path fill="none" stroke="midnightblue" d="M1752.86,-595.26C1934,-594.08 2529.97,-587.02 2716.14,-545 2844.1,-516.11 2915.98,-525.98 2979.14,-411 3014.78,-346.1 3010.63,-296.13 2956.14,-246 2910.43,-203.96 2879.73,-230.55 2821.14,-210 2718.98,-174.17 2703.4,-137.3 2598.14,-112 2453.22,-77.16 1981.46,-68.96 1852.8,-67.35"/>
<polygon fill="midnightblue" stroke="midnightblue" points="1852.48,-63.84 1842.44,-67.22 1852.4,-70.84 1852.48,-63.84"/>
</g>
<!-- Node5 -->
<g id="node5" class="node">
<title>Node5</title>
<g id="a_node5"><a xlink:title=" ">
<polygon fill="white" stroke="#bfbfbf" points="2505.14,-185 2505.14,-204 2545.14,-204 2545.14,-185 2505.14,-185"/>
<text text-anchor="middle" x="2525.14" y="-192" font-family="Helvetica,sans-Serif" font-size="10.00">limits</text>
</a>
</g>
</g>
<!-- Node4&#45;&gt;Node5 -->
<g id="edge4" class="edge">
<title>Node4&#45;&gt;Node5</title>
<path fill="none" stroke="midnightblue" d="M1753.01,-595.08C1978.97,-592.58 2852.14,-575.67 2852.14,-463.5 2852.14,-463.5 2852.14,-463.5 2852.14,-394.5 2852.14,-327.96 2915.45,-295.63 2871.14,-246 2823.92,-193.12 2622.11,-230.16 2554.14,-210 2552.47,-209.5 2550.78,-208.92 2549.1,-208.27"/>
<polygon fill="midnightblue" stroke="midnightblue" points="2550.33,-204.99 2539.78,-204.07 2547.45,-211.37 2550.33,-204.99"/>
</g>
<!-- Node6 -->
<g id="node6" class="node">
<title>Node6</title>
<g id="a_node6"><a xlink:title=" ">
<polygon fill="white" stroke="#bfbfbf" points="2096.64,-0.5 2096.64,-19.5 2137.64,-19.5 2137.64,-0.5 2096.64,-0.5"/>
<text text-anchor="middle" x="2117.14" y="-7.5" font-family="Helvetica,sans-Serif" font-size="10.00">string</text>
</a>
</g>
</g>
<!-- Node4&#45;&gt;Node6 -->
<g id="edge5" class="edge">
<title>Node4&#45;&gt;Node6</title>
<path fill="none" stroke="midnightblue" d="M1752.94,-595.61C1943.92,-595.61 2598.2,-592.11 2801.14,-545 2997.55,-499.4 3156.14,-464.14 3156.14,-262.5 3156.14,-262.5 3156.14,-262.5 3156.14,-126.5 3156.14,-102.82 3244.16,-112.71 3005.14,-56 2837.15,-16.14 2284.73,-11.58 2147.97,-11.06"/>
<polygon fill="midnightblue" stroke="midnightblue" points="2147.8,-7.56 2137.79,-11.03 2147.78,-14.56 2147.8,-7.56"/>
</g>
<!-- Node7 -->
<g id="node7" class="node">
<title>Node7</title>
<g id="a_node7"><a xlink:href="block__index_8hpp_source.html" target="_top" xlink:title=" ">
<polygon fill="white" stroke="black" points="2216.14,-447.5 2216.14,-477.5 2340.14,-477.5 2340.14,-447.5 2216.14,-447.5"/>
<text text-anchor="start" x="2224.14" y="-465.5" font-family="Helvetica,sans-Serif" font-size="10.00">veriblock/pop/blockchain</text>
<text text-anchor="middle" x="2278.14" y="-454.5" font-family="Helvetica,sans-Serif" font-size="10.00">/block_index.hpp</text>
</a>
</g>
</g>
<!-- Node4&#45;&gt;Node7 -->
<g id="edge7" class="edge">
<title>Node4&#45;&gt;Node7</title>
<path fill="none" stroke="midnightblue" d="M1752.84,-591.99C1824.46,-586.38 1956.09,-573.01 2065.14,-545 2127.4,-529.01 2196.35,-500.52 2238.47,-481.82"/>
<polygon fill="midnightblue" stroke="midnightblue" points="2240.12,-484.92 2247.81,-477.64 2237.26,-478.53 2240.12,-484.92"/>
</g>
<!-- Node4&#45;&gt;Node35 -->
<g id="edge126" class="edge">
<title>Node4&#45;&gt;Node35</title>
<path fill="none" stroke="midnightblue" d="M1647.38,-596.4C1543.08,-595.73 1306.7,-581.87 1146.14,-478 1088.28,-440.57 1085.4,-410.71 1068.14,-344 1062.7,-322.98 1060.9,-298.02 1060.34,-281.32"/>
<polygon fill="midnightblue" stroke="midnightblue" points="1063.83,-281.14 1060.11,-271.22 1056.83,-281.29 1063.83,-281.14"/>
</g>
<!-- Node29 -->
<g id="node27" class="node">
<title>Node29</title>
<g id="a_node27"><a xlink:href="validation__state_8hpp_source.html" target="_top" xlink:title=" ">
<polygon fill="white" stroke="black" points="554.64,-112.5 554.64,-142.5 673.64,-142.5 673.64,-112.5 554.64,-112.5"/>
<text text-anchor="start" x="562.64" y="-130.5" font-family="Helvetica,sans-Serif" font-size="10.00">veriblock/pop/validation</text>
<text text-anchor="middle" x="614.14" y="-119.5" font-family="Helvetica,sans-Serif" font-size="10.00">_state.hpp</text>
</a>
</g>
</g>
<!-- Node4&#45;&gt;Node29 -->
<g id="edge127" class="edge">
<title>Node4&#45;&gt;Node29</title>
<path fill="none" stroke="midnightblue" d="M1647.47,-593.43C1491.94,-587.11 1041.62,-567.08 979.14,-545 930.08,-527.67 908.28,-523.55 883.14,-478 833.25,-387.63 940.71,-323.16 872.14,-246 807.49,-173.25 734.77,-267.34 656.14,-210 637.04,-196.07 625.96,-170.88 620.03,-152.18"/>
<polygon fill="midnightblue" stroke="midnightblue" points="623.39,-151.2 617.25,-142.57 616.67,-153.15 623.39,-151.2"/>
</g>
<!-- Node64 -->
<g id="node38" class="node">
<title>Node64</title>
<g id="a_node38"><a xlink:href="altblock_8hpp_source.html" target="_top" xlink:title=" ">
<polygon fill="white" stroke="black" points="1946.64,-514.5 1946.64,-544.5 2055.64,-544.5 2055.64,-514.5 1946.64,-514.5"/>
<text text-anchor="start" x="1954.64" y="-532.5" font-family="Helvetica,sans-Serif" font-size="10.00">veriblock/pop/entities</text>
<text text-anchor="middle" x="2001.14" y="-521.5" font-family="Helvetica,sans-Serif" font-size="10.00">/altblock.hpp</text>
</a>
</g>
</g>
<!-- Node4&#45;&gt;Node64 -->
<g id="edge103" class="edge">
<title>Node4&#45;&gt;Node64</title>
<path fill="none" stroke="midnightblue" d="M1752.91,-584.1C1804.02,-573.07 1881.62,-556.31 1936.43,-544.47"/>
<polygon fill="midnightblue" stroke="midnightblue" points="1937.35,-547.86 1946.39,-542.32 1935.87,-541.01 1937.35,-547.86"/>
</g>
<!-- Node7&#45;&gt;Node3 -->
<g id="edge10" class="edge">
<title>Node7&#45;&gt;Node3</title>
<path fill="none" stroke="midnightblue" d="M2340.19,-449.71C2367.74,-442.13 2399.27,-430.03 2423.14,-411 2450.62,-389.09 2455.42,-377.78 2465.14,-344 2468.94,-330.76 2471.83,-325.04 2465.14,-313 2450.39,-286.49 2425.07,-301.47 2407.14,-277 2380.56,-240.75 2406.75,-216.62 2382.14,-179 2355.61,-138.45 2341.17,-129.88 2296.14,-112 2215.06,-79.8 1946.26,-70.14 1852.63,-67.71"/>
<polygon fill="midnightblue" stroke="midnightblue" points="1852.44,-64.21 1842.36,-67.46 1852.27,-71.21 1852.44,-64.21"/>
</g>
<!-- Node8 -->
<g id="node8" class="node">
<title>Node8</title>
<g id="a_node8"><a xlink:title=" ">
<polygon fill="white" stroke="#bfbfbf" points="1810.64,-319 1810.64,-338 1861.64,-338 1861.64,-319 1810.64,-319"/>
<text text-anchor="middle" x="1836.14" y="-326" font-family="Helvetica,sans-Serif" font-size="10.00">memory</text>
</a>
</g>
</g>
<!-- Node7&#45;&gt;Node8 -->
<g id="edge8" class="edge">
<title>Node7&#45;&gt;Node8</title>
<path fill="none" stroke="midnightblue" d="M2215.82,-462.35C2111.85,-462.45 1909.2,-456.58 1857.14,-411 1839.39,-395.47 1835.67,-367.12 1835.35,-348.29"/>
<polygon fill="midnightblue" stroke="midnightblue" points="1838.85,-348.29 1835.48,-338.24 1831.85,-348.19 1838.85,-348.29"/>
</g>
<!-- Node9 -->
<g id="node9" class="node">
<title>Node9</title>
<g id="a_node9"><a xlink:title=" ">
<polygon fill="white" stroke="#bfbfbf" points="2157.14,-185 2157.14,-204 2187.14,-204 2187.14,-185 2157.14,-185"/>
<text text-anchor="middle" x="2172.14" y="-192" font-family="Helvetica,sans-Serif" font-size="10.00">set</text>
</a>
</g>
</g>
<!-- Node7&#45;&gt;Node9 -->
<g id="edge9" class="edge">
<title>Node7&#45;&gt;Node9</title>
<path fill="none" stroke="midnightblue" d="M2286.01,-447.21C2294,-430.81 2304.25,-403.2 2297.14,-380 2275.45,-309.34 2216.52,-241.39 2188.01,-211.46"/>
<polygon fill="midnightblue" stroke="midnightblue" points="2190.3,-208.8 2180.83,-204.06 2185.28,-213.67 2190.3,-208.8"/>
</g>
<!-- Node10 -->
<g id="node10" class="node">
<title>Node10</title>
<g id="a_node10"><a xlink:href="algorithm_8hpp_source.html" target="_top" xlink:title=" ">
<polygon fill="white" stroke="red" points="2034.64,-252 2034.64,-271 2169.64,-271 2169.64,-252 2034.64,-252"/>
<text text-anchor="middle" x="2102.14" y="-259" font-family="Helvetica,sans-Serif" font-size="10.00">veriblock/pop/algorithm.hpp</text>
</a>
</g>
</g>
<!-- Node7&#45;&gt;Node10 -->
<g id="edge11" class="edge">
<title>Node7&#45;&gt;Node10</title>
<path fill="none" stroke="midnightblue" d="M2282.22,-447.42C2286.31,-430.48 2290.64,-401.65 2280.14,-380 2277.51,-374.59 2200.16,-316.31 2195.14,-313 2173.74,-298.91 2148.06,-285.18 2129.11,-275.61"/>
<polygon fill="midnightblue" stroke="midnightblue" points="2130.65,-272.46 2120.14,-271.13 2127.52,-278.73 2130.65,-272.46"/>
</g>
<!-- Node33 -->
<g id="node14" class="node">
<title>Node33</title>
<g id="a_node14"><a xlink:href="endorsements_8hpp_source.html" target="_top" xlink:title=" ">
<polygon fill="white" stroke="red" points="2752.64,-246.5 2752.64,-276.5 2861.64,-276.5 2861.64,-246.5 2752.64,-246.5"/>
<text text-anchor="start" x="2760.64" y="-264.5" font-family="Helvetica,sans-Serif" font-size="10.00">veriblock/pop/entities</text>
<text text-anchor="middle" x="2807.14" y="-253.5" font-family="Helvetica,sans-Serif" font-size="10.00">/endorsements.hpp</text>
</a>
</g>
</g>
<!-- Node7&#45;&gt;Node33 -->
<g id="edge17" class="edge">
<title>Node7&#45;&gt;Node33</title>
<path fill="none" stroke="midnightblue" d="M2340.15,-458.89C2433.96,-452.22 2614.16,-428.46 2738.14,-344 2760.84,-328.53 2780.38,-303.67 2792.81,-285.47"/>
<polygon fill="midnightblue" stroke="midnightblue" points="2796.05,-286.91 2798.64,-276.64 2790.21,-283.05 2796.05,-286.91"/>
</g>
<!-- Node43 -->
<g id="node15" class="node">
<title>Node43</title>
<g id="a_node15"><a xlink:href="vbkblock_8hpp_source.html" target="_top" xlink:title=" ">
<polygon fill="white" stroke="red" points="1302.64,-380.5 1302.64,-410.5 1411.64,-410.5 1411.64,-380.5 1302.64,-380.5"/>
<text text-anchor="start" x="1310.64" y="-398.5" font-family="Helvetica,sans-Serif" font-size="10.00">veriblock/pop/entities</text>
<text text-anchor="middle" x="1357.14" y="-387.5" font-family="Helvetica,sans-Serif" font-size="10.00">/vbkblock.hpp</text>
</a>
</g>
</g>
<!-- Node7&#45;&gt;Node43 -->
<g id="edge18" class="edge">
<title>Node7&#45;&gt;Node43</title>
<path fill="none" stroke="midnightblue" d="M2215.92,-457.11C2048.9,-445.32 1591.92,-413.07 1421.94,-401.07"/>
<polygon fill="midnightblue" stroke="midnightblue" points="1422.11,-397.58 1411.89,-400.36 1421.62,-404.56 1422.11,-397.58"/>
</g>
<!-- Node7&#45;&gt;Node29 -->
<g id="edge91" class="edge">
<title>Node7&#45;&gt;Node29</title>
<path fill="none" stroke="midnightblue" d="M2215.85,-461.18C2028.08,-459.78 1469.69,-452.15 1293.14,-411 1202.88,-389.96 998.94,-272.49 910.14,-246 821.07,-219.43 787.65,-250.8 704.14,-210 675.1,-195.81 648.56,-169.39 631.94,-150.47"/>
<polygon fill="midnightblue" stroke="midnightblue" points="634.4,-147.96 625.24,-142.63 629.08,-152.51 634.4,-147.96"/>
</g>
<!-- Node41 -->
<g id="node29" class="node">
<title>Node41</title>
<g id="a_node29"><a xlink:href="write__stream_8hpp_source.html" target="_top" xlink:title=" ">
<polygon fill="white" stroke="red" points="2281.64,-185 2281.64,-204 2372.64,-204 2372.64,-185 2281.64,-185"/>
<text text-anchor="middle" x="2327.14" y="-192" font-family="Helvetica,sans-Serif" font-size="10.00">write_stream.hpp</text>
</a>
</g>
</g>
<!-- Node7&#45;&gt;Node41 -->
<g id="edge92" class="edge">
<title>Node7&#45;&gt;Node41</title>
<path fill="none" stroke="midnightblue" d="M2322.16,-447.43C2365.42,-430.75 2427.92,-398.17 2449.14,-344 2454.16,-331.17 2456.47,-324.66 2449.14,-313 2429.44,-281.71 2401.25,-302.14 2374.14,-277 2354.91,-259.18 2341.32,-231.67 2333.85,-213.62"/>
<polygon fill="midnightblue" stroke="midnightblue" points="2337.08,-212.27 2330.17,-204.24 2330.56,-214.82 2337.08,-212.27"/>
</g>
<!-- Node16 -->
<g id="node33" class="node">
<title>Node16</title>
<g id="a_node33"><a xlink:href="logger_8hpp_source.html" target="_top" xlink:title=" ">
<polygon fill="white" stroke="red" points="2188.64,-386 2188.64,-405 2249.64,-405 2249.64,-386 2188.64,-386"/>
<text text-anchor="middle" x="2219.14" y="-393" font-family="Helvetica,sans-Serif" font-size="10.00">logger.hpp</text>
</a>
</g>
</g>
<!-- Node7&#45;&gt;Node16 -->
<g id="edge84" class="edge">
<title>Node7&#45;&gt;Node16</title>
<path fill="none" stroke="midnightblue" d="M2265.33,-447.4C2256.04,-437.16 2243.46,-423.3 2233.77,-412.62"/>
<polygon fill="midnightblue" stroke="midnightblue" points="2236.34,-410.25 2227.03,-405.19 2231.16,-414.95 2236.34,-410.25"/>
</g>
<!-- Node60 -->
<g id="node34" class="node">
<title>Node60</title>
<g id="a_node34"><a xlink:href="stored__block__index_8hpp_source.html" target="_top" xlink:title=" ">
<polygon fill="white" stroke="black" points="2318.64,-313.5 2318.64,-343.5 2439.64,-343.5 2439.64,-313.5 2318.64,-313.5"/>
<text text-anchor="start" x="2326.64" y="-331.5" font-family="Helvetica,sans-Serif" font-size="10.00">veriblock/pop/storage</text>
<text text-anchor="middle" x="2379.14" y="-320.5" font-family="Helvetica,sans-Serif" font-size="10.00">/stored_block_index.hpp</text>
</a>
</g>
</g>
<!-- Node7&#45;&gt;Node60 -->
<g id="edge87" class="edge">
<title>Node7&#45;&gt;Node60</title>
<path fill="none" stroke="midnightblue" d="M2320.82,-447.3C2338.22,-439.34 2356.86,-427.6 2368.14,-411 2379.46,-394.34 2381.64,-371.29 2381.32,-353.95"/>
<polygon fill="midnightblue" stroke="midnightblue" points="2384.79,-353.33 2380.82,-343.51 2377.8,-353.66 2384.79,-353.33"/>
</g>
<!-- Node47 -->
<g id="node35" class="node">
<title>Node47</title>
<g id="a_node35"><a xlink:href="block__status_8hpp_source.html" target="_top" xlink:title=" ">
<polygon fill="white" stroke="red" points="2416.14,-252 2416.14,-271 2506.14,-271 2506.14,-252 2416.14,-252"/>
<text text-anchor="middle" x="2461.14" y="-259" font-family="Helvetica,sans-Serif" font-size="10.00">block_status.hpp</text>
</a>
</g>
</g>
<!-- Node7&#45;&gt;Node47 -->
<g id="edge93" class="edge">
<title>Node7&#45;&gt;Node47</title>
<path fill="none" stroke="midnightblue" d="M2340.25,-457.26C2404.3,-451.43 2497.87,-438.39 2520.14,-411 2547.61,-377.2 2538.35,-352.56 2520.14,-313 2513.03,-297.58 2498.64,-285.11 2485.85,-276.42"/>
<polygon fill="midnightblue" stroke="midnightblue" points="2487.68,-273.43 2477.36,-271.01 2483.92,-279.34 2487.68,-273.43"/>
</g>
<!-- Node61 -->
<g id="node36" class="node">
<title>Node61</title>
<g id="a_node36"><a xlink:href="command_8hpp_source.html" target="_top" xlink:title=" ">
<polygon fill="white" stroke="black" points="2108.64,-319 2108.64,-338 2185.64,-338 2185.64,-319 2108.64,-319"/>
<text text-anchor="middle" x="2147.14" y="-326" font-family="Helvetica,sans-Serif" font-size="10.00">command.hpp</text>
</a>
</g>
</g>
<!-- Node7&#45;&gt;Node61 -->
<g id="edge94" class="edge">
<title>Node7&#45;&gt;Node61</title>
<path fill="none" stroke="midnightblue" d="M2278.47,-447.48C2278.16,-429.81 2275.1,-399.42 2259.14,-380 2248.84,-367.47 2211.25,-352.01 2182.43,-341.52"/>
<polygon fill="midnightblue" stroke="midnightblue" points="2183.26,-338.1 2172.66,-338.03 2180.9,-344.69 2183.26,-338.1"/>
</g>
<!-- Node62 -->
<g id="node37" class="node">
<title>Node62</title>
<g id="a_node37"><a xlink:href="command__group_8hpp_source.html" target="_top" xlink:title=" ">
<polygon fill="white" stroke="red" points="2024.64,-386 2024.64,-405 2131.64,-405 2131.64,-386 2024.64,-386"/>
<text text-anchor="middle" x="2078.14" y="-393" font-family="Helvetica,sans-Serif" font-size="10.00">command_group.hpp</text>
</a>
</g>
</g>
<!-- Node7&#45;&gt;Node62 -->
<g id="edge98" class="edge">
<title>Node7&#45;&gt;Node62</title>
<path fill="none" stroke="midnightblue" d="M2234.74,-447.4C2198.71,-435.69 2148.08,-419.23 2114.24,-408.23"/>
<polygon fill="midnightblue" stroke="midnightblue" points="2114.9,-404.77 2104.31,-405.01 2112.74,-411.43 2114.9,-404.77"/>
</g>
<!-- Node10&#45;&gt;Node3 -->
<g id="edge16" class="edge">
<title>Node10&#45;&gt;Node3</title>
<path fill="none" stroke="midnightblue" d="M2105.8,-251.83C2115.76,-226.72 2140.31,-153.17 2105.14,-112 2072.93,-74.31 1920.18,-68 1852.52,-67.08"/>
<polygon fill="midnightblue" stroke="midnightblue" points="1852.46,-63.58 1842.43,-66.97 1852.39,-70.58 1852.46,-63.58"/>
</g>
<!-- Node10&#45;&gt;Node9 -->
<g id="edge15" class="edge">
<title>Node10&#45;&gt;Node9</title>
<path fill="none" stroke="midnightblue" d="M2111.58,-251.73C2122.81,-241.31 2141.76,-223.71 2155.47,-210.97"/>
<polygon fill="midnightblue" stroke="midnightblue" points="2157.9,-213.5 2162.84,-204.13 2153.14,-208.37 2157.9,-213.5"/>
</g>
<!-- Node11 -->
<g id="node11" class="node">
<title>Node11</title>
<g id="a_node11"><a xlink:title=" ">
<polygon fill="white" stroke="#bfbfbf" points="673.14,-56.5 673.14,-75.5 729.14,-75.5 729.14,-56.5 673.14,-56.5"/>
<text text-anchor="middle" x="701.14" y="-63.5" font-family="Helvetica,sans-Serif" font-size="10.00">algorithm</text>
</a>
</g>
</g>
<!-- Node10&#45;&gt;Node11 -->
<g id="edge12" class="edge">
<title>Node10&#45;&gt;Node11</title>
<path fill="none" stroke="midnightblue" d="M2096.94,-251.78C2086.41,-234.9 2060.84,-197.79 2029.14,-179 1968.67,-143.16 1937.09,-176.2 1875.14,-143 1857.4,-133.5 1860.7,-119.75 1842.14,-112 1742.1,-70.23 975.43,-80.93 867.14,-76 823.43,-74.01 773.28,-71.22 739.64,-69.28"/>
<polygon fill="midnightblue" stroke="midnightblue" points="739.51,-65.76 729.33,-68.68 739.11,-72.75 739.51,-65.76"/>
</g>
<!-- Node12 -->
<g id="node12" class="node">
<title>Node12</title>
<g id="a_node12"><a xlink:title=" ">
<polygon fill="white" stroke="#bfbfbf" points="1927.64,-185 1927.64,-204 1986.64,-204 1986.64,-185 1927.64,-185"/>
<text text-anchor="middle" x="1957.14" y="-192" font-family="Helvetica,sans-Serif" font-size="10.00">functional</text>
</a>
</g>
</g>
<!-- Node10&#45;&gt;Node12 -->
<g id="edge13" class="edge">
<title>Node10&#45;&gt;Node12</title>
<path fill="none" stroke="midnightblue" d="M2082.88,-251.87C2057.96,-240.7 2014.35,-221.15 1985.6,-208.26"/>
<polygon fill="midnightblue" stroke="midnightblue" points="1987.03,-205.06 1976.47,-204.17 1984.16,-211.45 1987.03,-205.06"/>
</g>
<!-- Node13 -->
<g id="node13" class="node">
<title>Node13</title>
<g id="a_node13"><a xlink:title=" ">
<polygon fill="white" stroke="#bfbfbf" points="876.64,-56.5 876.64,-75.5 923.64,-75.5 923.64,-56.5 876.64,-56.5"/>
<text text-anchor="middle" x="900.14" y="-63.5" font-family="Helvetica,sans-Serif" font-size="10.00">iterator</text>
</a>
</g>
</g>
<!-- Node10&#45;&gt;Node13 -->
<g id="edge14" class="edge">
<title>Node10&#45;&gt;Node13</title>
<path fill="none" stroke="midnightblue" d="M2100.77,-251.8C2097.73,-235.3 2088.87,-199.27 2067.14,-179 2001.03,-117.36 1963.87,-129.15 1875.14,-112 1689.1,-76.04 1084.06,-68.57 934.03,-67.25"/>
<polygon fill="midnightblue" stroke="midnightblue" points="934.06,-63.75 924.03,-67.17 934,-70.75 934.06,-63.75"/>
</g>
<!-- Node43&#45;&gt;Node2 -->
<g id="edge21" class="edge">
<title>Node43&#45;&gt;Node2</title>
<path fill="none" stroke="midnightblue" d="M1341.67,-380.26C1323.48,-363.67 1292.2,-335.66 1264.14,-313 1248.56,-300.42 1230.31,-286.94 1216.64,-277.07"/>
<polygon fill="midnightblue" stroke="midnightblue" points="1218.56,-274.14 1208.4,-271.15 1214.48,-279.82 1218.56,-274.14"/>
</g>
<!-- Node43&#45;&gt;Node3 -->
<g id="edge22" class="edge">
<title>Node43&#45;&gt;Node3</title>
<path fill="none" stroke="midnightblue" d="M1411.8,-389.53C1526.89,-377.81 1787.99,-344.25 1841.14,-277 1886.61,-219.46 1858.67,-183.45 1842.14,-112 1839.91,-102.36 1835.31,-92.41 1830.9,-84.31"/>
<polygon fill="midnightblue" stroke="midnightblue" points="1833.83,-82.4 1825.77,-75.52 1827.78,-85.92 1833.83,-82.4"/>
</g>
<!-- Node43&#45;&gt;Node6 -->
<g id="edge20" class="edge">
<title>Node43&#45;&gt;Node6</title>
<path fill="none" stroke="midnightblue" d="M1365.62,-380.43C1382.63,-352.86 1422.96,-290.56 1466.14,-246 1567.74,-141.14 1595.55,-101.97 1734.14,-56 1859.94,-14.27 2020.23,-10.17 2086.42,-10.46"/>
<polygon fill="midnightblue" stroke="midnightblue" points="2086.55,-13.96 2096.58,-10.54 2086.61,-6.96 2086.55,-13.96"/>
</g>
<!-- Node38 -->
<g id="node16" class="node">
<title>Node38</title>
<g id="a_node16"><a xlink:title=" ">
<polygon fill="white" stroke="#bfbfbf" points="1787.14,-118 1787.14,-137 1833.14,-137 1833.14,-118 1787.14,-118"/>
<text text-anchor="middle" x="1810.14" y="-125" font-family="Helvetica,sans-Serif" font-size="10.00">cstdint</text>
</a>
</g>
</g>
<!-- Node43&#45;&gt;Node38 -->
<g id="edge19" class="edge">
<title>Node43&#45;&gt;Node38</title>
<path fill="none" stroke="midnightblue" d="M1384.69,-380.49C1448.73,-348.03 1606.32,-268.68 1661.14,-246 1706.72,-227.14 1728.5,-241.9 1766.14,-210 1785.93,-193.23 1798.25,-165.23 1804.65,-146.81"/>
<polygon fill="midnightblue" stroke="midnightblue" points="1808,-147.82 1807.75,-137.23 1801.34,-145.67 1808,-147.82"/>
</g>
<!-- Node44 -->
<g id="node17" class="node">
<title>Node44</title>
<g id="a_node17"><a xlink:href="arith__uint256_8hpp_source.html" target="_top" xlink:title=" ">
<polygon fill="white" stroke="red" points="1475.14,-246.5 1475.14,-276.5 1571.14,-276.5 1571.14,-246.5 1475.14,-246.5"/>
<text text-anchor="start" x="1483.14" y="-264.5" font-family="Helvetica,sans-Serif" font-size="10.00">veriblock/pop/arith</text>
<text text-anchor="middle" x="1523.14" y="-253.5" font-family="Helvetica,sans-Serif" font-size="10.00">_uint256.hpp</text>
</a>
</g>
</g>
<!-- Node43&#45;&gt;Node44 -->
<g id="edge23" class="edge">
<title>Node43&#45;&gt;Node44</title>
<path fill="none" stroke="midnightblue" d="M1374.9,-380.37C1404.35,-356.95 1463.42,-309.99 1497.43,-282.94"/>
<polygon fill="midnightblue" stroke="midnightblue" points="1499.85,-285.49 1505.5,-276.52 1495.49,-280.01 1499.85,-285.49"/>
</g>
<!-- Node43&#45;&gt;Node35 -->
<g id="edge35" class="edge">
<title>Node43&#45;&gt;Node35</title>
<path fill="none" stroke="midnightblue" d="M1329.61,-380.46C1296.4,-363.69 1238.72,-335.14 1188.14,-313 1156.12,-298.99 1118.89,-284.5 1092.86,-274.65"/>
<polygon fill="midnightblue" stroke="midnightblue" points="1094.06,-271.36 1083.47,-271.12 1091.6,-277.91 1094.06,-271.36"/>
</g>
<!-- Node42 -->
<g id="node30" class="node">
<title>Node42</title>
<g id="a_node30"><a xlink:href="uint_8hpp_source.html" target="_top" xlink:title=" ">
<polygon fill="white" stroke="red" points="1703.64,-252 1703.64,-271 1814.64,-271 1814.64,-252 1703.64,-252"/>
<text text-anchor="middle" x="1759.14" y="-259" font-family="Helvetica,sans-Serif" font-size="10.00">veriblock/pop/uint.hpp</text>
</a>
</g>
</g>
<!-- Node43&#45;&gt;Node42 -->
<g id="edge66" class="edge">
<title>Node43&#45;&gt;Node42</title>
<path fill="none" stroke="midnightblue" d="M1411.97,-382.8C1446.73,-374.35 1492.15,-361.36 1530.14,-344 1553.23,-333.44 1554.98,-323.42 1578.14,-313 1618.79,-294.71 1667.62,-281.56 1704.31,-273.27"/>
<polygon fill="midnightblue" stroke="midnightblue" points="1705.31,-276.63 1714.32,-271.06 1703.8,-269.8 1705.31,-276.63"/>
</g>
<!-- Node53 -->
<g id="node31" class="node">
<title>Node53</title>
<g id="a_node31"><a xlink:href="btcblock_8hpp_source.html" target="_top" xlink:title=" ">
<polygon fill="white" stroke="red" points="618.64,-319 618.64,-338 689.64,-338 689.64,-319 618.64,-319"/>
<text text-anchor="middle" x="654.14" y="-326" font-family="Helvetica,sans-Serif" font-size="10.00">btcblock.hpp</text>
</a>
</g>
</g>
<!-- Node43&#45;&gt;Node53 -->
<g id="edge69" class="edge">
<title>Node43&#45;&gt;Node53</title>
<path fill="none" stroke="midnightblue" d="M1302.56,-389.45C1168.42,-377.05 824.48,-345.25 699.99,-333.74"/>
<polygon fill="midnightblue" stroke="midnightblue" points="700.3,-330.25 690.02,-332.82 699.66,-337.22 700.3,-330.25"/>
</g>
<!-- Node44&#45;&gt;Node3 -->
<g id="edge28" class="edge">
<title>Node44&#45;&gt;Node3</title>
<path fill="none" stroke="midnightblue" d="M1547.08,-246.43C1563.24,-236.68 1584.87,-223.14 1603.14,-210 1620.83,-197.27 1623.42,-191.69 1641.14,-179 1694.52,-140.75 1760.85,-101.18 1795.86,-80.88"/>
<polygon fill="midnightblue" stroke="midnightblue" points="1797.96,-83.71 1804.87,-75.68 1794.46,-77.65 1797.96,-83.71"/>
</g>
<!-- Node44&#45;&gt;Node5 -->
<g id="edge25" class="edge">
<title>Node44&#45;&gt;Node5</title>
<path fill="none" stroke="midnightblue" d="M1571.38,-255.99C1605.62,-252.89 1652.67,-248.84 1694.14,-246 1999.61,-225.06 2076.84,-233.45 2382.14,-210 2420.96,-207.02 2465.6,-202.28 2494.52,-199.04"/>
<polygon fill="midnightblue" stroke="midnightblue" points="2495.26,-202.48 2504.8,-197.88 2494.47,-195.52 2495.26,-202.48"/>
</g>
<!-- Node44&#45;&gt;Node6 -->
<g id="edge27" class="edge">
<title>Node44&#45;&gt;Node6</title>
<path fill="none" stroke="midnightblue" d="M1534.75,-246.45C1549.04,-229.55 1574.46,-200.74 1599.14,-179 1674.61,-112.5 1693.97,-88.59 1789.14,-56 1894.08,-20.06 2027.2,-12.73 2086.38,-11.3"/>
<polygon fill="midnightblue" stroke="midnightblue" points="2086.61,-14.8 2096.54,-11.1 2086.47,-7.8 2086.61,-14.8"/>
</g>
<!-- Node44&#45;&gt;Node38 -->
<g id="edge24" class="edge">
<title>Node44&#45;&gt;Node38</title>
<path fill="none" stroke="midnightblue" d="M1561.89,-246.41C1585.42,-237.25 1615.72,-224.37 1641.14,-210 1661.65,-198.41 1663.49,-190.36 1684.14,-179 1714.4,-162.35 1751.3,-148.22 1777.33,-139.17"/>
<polygon fill="midnightblue" stroke="midnightblue" points="1778.74,-142.39 1787.08,-135.84 1776.48,-135.76 1778.74,-142.39"/>
</g>
<!-- Node36 -->
<g id="node18" class="node">
<title>Node36</title>
<g id="a_node18"><a xlink:title=" ">
<polygon fill="white" stroke="#bfbfbf" points="1058.64,-118 1058.64,-137 1117.64,-137 1117.64,-118 1058.64,-118"/>
<text text-anchor="middle" x="1088.14" y="-125" font-family="Helvetica,sans-Serif" font-size="10.00">stdexcept</text>
</a>
</g>
</g>
<!-- Node44&#45;&gt;Node36 -->
<g id="edge26" class="edge">
<title>Node44&#45;&gt;Node36</title>
<path fill="none" stroke="midnightblue" d="M1489.29,-246.46C1446.47,-229.06 1370.21,-199.22 1303.14,-179 1242.64,-160.77 1170.94,-145.08 1127.53,-136.22"/>
<polygon fill="midnightblue" stroke="midnightblue" points="1128.15,-132.77 1117.65,-134.22 1126.76,-139.64 1128.15,-132.77"/>
</g>
<!-- Node37 -->
<g id="node19" class="node">
<title>Node37</title>
<g id="a_node19"><a xlink:href="consts_8hpp.html" target="_top" xlink:title="All constants in alt&#45;cpp.">
<polygon fill="white" stroke="black" points="1693.14,-185 1693.14,-204 1757.14,-204 1757.14,-185 1693.14,-185"/>
<text text-anchor="middle" x="1725.14" y="-192" font-family="Helvetica,sans-Serif" font-size="10.00">consts.hpp</text>
</a>
</g>
</g>
<!-- Node44&#45;&gt;Node37 -->
<g id="edge29" class="edge">
<title>Node44&#45;&gt;Node37</title>
<path fill="none" stroke="midnightblue" d="M1566.97,-246.4C1603.51,-234.64 1654.93,-218.09 1689.11,-207.09"/>
<polygon fill="midnightblue" stroke="midnightblue" points="1690.25,-210.4 1698.7,-204.01 1688.11,-203.74 1690.25,-210.4"/>
</g>
<!-- Node27 -->
<g id="node20" class="node">
<title>Node27</title>
<g id="a_node20"><a xlink:href="strutil_8hpp_source.html" target="_top" xlink:title=" ">
<polygon fill="white" stroke="red" points="756.64,-185 756.64,-204 815.64,-204 815.64,-185 756.64,-185"/>
<text text-anchor="middle" x="786.14" y="-192" font-family="Helvetica,sans-Serif" font-size="10.00">strutil.hpp</text>
</a>
</g>
</g>
<!-- Node44&#45;&gt;Node27 -->
<g id="edge32" class="edge">
<title>Node44&#45;&gt;Node27</title>
<path fill="none" stroke="midnightblue" d="M1475.07,-257.33C1370.55,-250.27 1114.78,-232.13 901.14,-210 876.08,-207.4 848.03,-203.88 825.91,-200.96"/>
<polygon fill="midnightblue" stroke="midnightblue" points="826.25,-197.47 815.88,-199.62 825.33,-204.41 826.25,-197.47"/>
</g>
<!-- Node37&#45;&gt;Node3 -->
<g id="edge31" class="edge">
<title>Node37&#45;&gt;Node3</title>
<path fill="none" stroke="midnightblue" d="M1730.23,-184.59C1739.17,-169.23 1758.59,-136.99 1778.14,-112 1786.12,-101.79 1795.96,-91.16 1804.11,-82.79"/>
<polygon fill="midnightblue" stroke="midnightblue" points="1806.73,-85.12 1811.29,-75.56 1801.76,-80.19 1806.73,-85.12"/>
</g>
<!-- Node37&#45;&gt;Node38 -->
<g id="edge30" class="edge">
<title>Node37&#45;&gt;Node38</title>
<path fill="none" stroke="midnightblue" d="M1736.6,-184.73C1750.49,-174.11 1774.11,-156.05 1790.83,-143.26"/>
<polygon fill="midnightblue" stroke="midnightblue" points="1793.04,-145.98 1798.85,-137.13 1788.78,-140.42 1793.04,-145.98"/>
</g>
<!-- Node27&#45;&gt;Node3 -->
<g id="edge34" class="edge">
<title>Node27&#45;&gt;Node3</title>
<path fill="none" stroke="midnightblue" d="M814.37,-184.95C844.75,-175.53 894.35,-159.51 936.14,-143 967.03,-130.8 971.88,-119.94 1004.14,-112 1156.56,-74.47 1655.15,-68.2 1787.59,-67.19"/>
<polygon fill="midnightblue" stroke="midnightblue" points="1787.9,-70.69 1797.87,-67.11 1787.85,-63.69 1787.9,-70.69"/>
</g>
<!-- Node27&#45;&gt;Node6 -->
<g id="edge33" class="edge">
<title>Node27&#45;&gt;Node6</title>
<path fill="none" stroke="midnightblue" d="M788.2,-184.66C794.67,-159.23 817.15,-85.77 867.14,-56 921.1,-23.86 1898.74,-13.06 2086.2,-11.28"/>
<polygon fill="midnightblue" stroke="midnightblue" points="2086.48,-14.77 2096.45,-11.18 2086.41,-7.77 2086.48,-14.77"/>
</g>
<!-- Node35&#45;&gt;Node3 -->
<g id="edge39" class="edge">
<title>Node35&#45;&gt;Node3</title>
<path fill="none" stroke="midnightblue" d="M1103.15,-251.94C1113.31,-249.95 1124.1,-247.87 1134.14,-246 1224.21,-229.19 1251.86,-243.52 1337.14,-210 1360.77,-200.71 1362.78,-191.05 1385.14,-179 1450.13,-143.97 1466.32,-132.86 1537.14,-112 1625.76,-85.9 1734.73,-73.99 1787.89,-69.41"/>
<polygon fill="midnightblue" stroke="midnightblue" points="1788.38,-72.88 1798.05,-68.57 1787.8,-65.91 1788.38,-72.88"/>
</g>
<!-- Node35&#45;&gt;Node12 -->
<g id="edge36" class="edge">
<title>Node35&#45;&gt;Node12</title>
<path fill="none" stroke="midnightblue" d="M1116.96,-252C1133.14,-249.79 1150.81,-247.59 1167.14,-246 1432.58,-220.07 1500.05,-228.1 1766.14,-210 1818.3,-206.45 1878.43,-201.79 1917.07,-198.73"/>
<polygon fill="midnightblue" stroke="midnightblue" points="1917.68,-202.19 1927.37,-197.91 1917.12,-195.21 1917.68,-202.19"/>
</g>
<!-- Node35&#45;&gt;Node13 -->
<g id="edge37" class="edge">
<title>Node35&#45;&gt;Node13</title>
<path fill="none" stroke="midnightblue" d="M1014.65,-251.94C970.17,-242.74 906.53,-227.12 888.14,-210 855.23,-179.37 847.97,-154.32 863.14,-112 867.08,-101 874.99,-90.77 882.5,-82.85"/>
<polygon fill="midnightblue" stroke="midnightblue" points="885.03,-85.27 889.7,-75.76 880.12,-80.28 885.03,-85.27"/>
</g>
<!-- Node35&#45;&gt;Node36 -->
<g id="edge38" class="edge">
<title>Node35&#45;&gt;Node36</title>
<path fill="none" stroke="midnightblue" d="M1084.42,-251.92C1102.56,-244.07 1126.04,-230.54 1137.14,-210 1143.68,-197.88 1142.31,-191.77 1137.14,-179 1131.41,-164.89 1119.64,-152.54 1109.07,-143.59"/>
<polygon fill="midnightblue" stroke="midnightblue" points="1111,-140.65 1100.99,-137.17 1106.64,-146.13 1111,-140.65"/>
</g>
<!-- Node35&#45;&gt;Node37 -->
<g id="edge40" class="edge">
<title>Node35&#45;&gt;Node37</title>
<path fill="none" stroke="midnightblue" d="M1119.5,-251.98C1134.99,-249.88 1151.67,-247.75 1167.14,-246 1359.32,-224.29 1589.59,-205.84 1682.84,-198.68"/>
<polygon fill="midnightblue" stroke="midnightblue" points="1683.3,-202.16 1693,-197.91 1682.77,-195.18 1683.3,-202.16"/>
</g>
<!-- Node35&#45;&gt;Node27 -->
<g id="edge61" class="edge">
<title>Node35&#45;&gt;Node27</title>
<path fill="none" stroke="midnightblue" d="M1018.86,-251.97C962.72,-240.27 865.23,-219.61 830.14,-210 826.95,-209.13 823.66,-208.17 820.38,-207.16"/>
<polygon fill="midnightblue" stroke="midnightblue" points="821.26,-203.77 810.67,-204.08 819.14,-210.44 821.26,-203.77"/>
</g>
<!-- Node39 -->
<g id="node22" class="node">
<title>Node39</title>
<g id="a_node22"><a xlink:href="network__byte__pair_8hpp_source.html" target="_top" xlink:title=" ">
<polygon fill="white" stroke="black" points="1185.64,-179.5 1185.64,-209.5 1294.64,-209.5 1294.64,-179.5 1185.64,-179.5"/>
<text text-anchor="start" x="1193.64" y="-197.5" font-family="Helvetica,sans-Serif" font-size="10.00">entities/network_byte</text>
<text text-anchor="middle" x="1240.14" y="-186.5" font-family="Helvetica,sans-Serif" font-size="10.00">_pair.hpp</text>
</a>
</g>
</g>
<!-- Node35&#45;&gt;Node39 -->
<g id="edge41" class="edge">
<title>Node35&#45;&gt;Node39</title>
<path fill="none" stroke="midnightblue" d="M1084.04,-251.87C1111.4,-241.99 1156.92,-225.55 1191.77,-212.97"/>
<polygon fill="midnightblue" stroke="midnightblue" points="1193.07,-216.22 1201.29,-209.53 1190.69,-209.63 1193.07,-216.22"/>
</g>
<!-- Node40 -->
<g id="node24" class="node">
<title>Node40</title>
<g id="a_node24"><a xlink:href="read__stream_8hpp_source.html" target="_top" xlink:title=" ">
<polygon fill="white" stroke="red" points="1039.64,-185 1039.64,-204 1128.64,-204 1128.64,-185 1039.64,-185"/>
<text text-anchor="middle" x="1084.14" y="-192" font-family="Helvetica,sans-Serif" font-size="10.00">read_stream.hpp</text>
</a>
</g>
</g>
<!-- Node35&#45;&gt;Node40 -->
<g id="edge46" class="edge">
<title>Node35&#45;&gt;Node40</title>
<path fill="none" stroke="midnightblue" d="M1063.37,-251.73C1066.97,-241.99 1072.88,-225.98 1077.48,-213.53"/>
<polygon fill="midnightblue" stroke="midnightblue" points="1080.77,-214.72 1080.95,-204.13 1074.2,-212.3 1080.77,-214.72"/>
</g>
<!-- Node23 -->
<g id="node25" class="node">
<title>Node23</title>
<g id="a_node25"><a xlink:href="slice_8hpp_source.html" target="_top" xlink:title=" ">
<polygon fill="white" stroke="red" points="872.64,-118 872.64,-137 927.64,-137 927.64,-118 872.64,-118"/>
<text text-anchor="middle" x="900.14" y="-125" font-family="Helvetica,sans-Serif" font-size="10.00">slice.hpp</text>
</a>
</g>
</g>
<!-- Node35&#45;&gt;Node23 -->
<g id="edge60" class="edge">
<title>Node35&#45;&gt;Node23</title>
<path fill="none" stroke="midnightblue" d="M1013.66,-251.96C971.77,-243.22 914.72,-228.32 901.14,-210 887.74,-191.92 890.6,-164.86 894.69,-146.95"/>
<polygon fill="midnightblue" stroke="midnightblue" points="898.11,-147.7 897.26,-137.14 891.34,-145.93 898.11,-147.7"/>
</g>
<!-- Node35&#45;&gt;Node41 -->
<g id="edge62" class="edge">
<title>Node35&#45;&gt;Node41</title>
<path fill="none" stroke="midnightblue" d="M1115,-252C1131.7,-249.7 1150.14,-247.45 1167.14,-246 1623.1,-207.23 1739.73,-243.2 2196.14,-210 2220.89,-208.2 2248.18,-205.32 2271.41,-202.6"/>
<polygon fill="midnightblue" stroke="midnightblue" points="2271.92,-206.07 2281.44,-201.41 2271.1,-199.12 2271.92,-206.07"/>
</g>
<!-- Node39&#45;&gt;Node6 -->
<g id="edge43" class="edge">
<title>Node39&#45;&gt;Node6</title>
<path fill="none" stroke="midnightblue" d="M1238.41,-179.48C1235.78,-151.1 1234.49,-86.94 1271.14,-56 1302.86,-29.22 1937.06,-14.67 2086.01,-11.61"/>
<polygon fill="midnightblue" stroke="midnightblue" points="2086.34,-15.11 2096.27,-11.4 2086.2,-8.11 2086.34,-15.11"/>
</g>
<!-- Node39&#45;&gt;Node38 -->
<g id="edge42" class="edge">
<title>Node39&#45;&gt;Node38</title>
<path fill="none" stroke="midnightblue" d="M1294.79,-187.27C1411.5,-173.96 1682.15,-143.09 1776.76,-132.31"/>
<polygon fill="midnightblue" stroke="midnightblue" points="1777.36,-135.76 1786.9,-131.15 1776.57,-128.81 1777.36,-135.76"/>
</g>
<!-- Node31 -->
<g id="node23" class="node">
<title>Node31</title>
<g id="a_node23"><a xlink:href="json_8hpp_source.html" target="_top" xlink:title=" ">
<polygon fill="white" stroke="black" points="397.64,-56.5 397.64,-75.5 450.64,-75.5 450.64,-56.5 397.64,-56.5"/>
<text text-anchor="middle" x="424.14" y="-63.5" font-family="Helvetica,sans-Serif" font-size="10.00">json.hpp</text>
</a>
</g>
</g>
<!-- Node39&#45;&gt;Node31 -->
<g id="edge44" class="edge">
<title>Node39&#45;&gt;Node31</title>
<path fill="none" stroke="midnightblue" d="M1226.21,-179.42C1206.14,-160.18 1166.98,-126.4 1126.14,-112 994.09,-65.45 636.58,-88.57 497.14,-76 485.35,-74.94 472.54,-73.47 460.98,-72.02"/>
<polygon fill="midnightblue" stroke="midnightblue" points="461.15,-68.51 450.79,-70.71 460.26,-75.46 461.15,-68.51"/>
</g>
<!-- Node31&#45;&gt;Node6 -->
<g id="edge45" class="edge">
<title>Node31&#45;&gt;Node6</title>
<path fill="none" stroke="midnightblue" d="M450.77,-61.1C464.58,-59.24 481.73,-57.16 497.14,-56 1136.85,-7.79 1922.15,-9.76 2086.22,-10.77"/>
<polygon fill="midnightblue" stroke="midnightblue" points="2086.51,-14.27 2096.53,-10.83 2086.56,-7.27 2086.51,-14.27"/>
</g>
<!-- Node40&#45;&gt;Node3 -->
<g id="edge48" class="edge">
<title>Node40&#45;&gt;Node3</title>
<path fill="none" stroke="midnightblue" d="M1102.61,-184.93C1140.43,-167.82 1229.83,-129.54 1309.14,-112 1486.81,-72.7 1706.39,-67.47 1787.8,-66.96"/>
<polygon fill="midnightblue" stroke="midnightblue" points="1787.93,-70.46 1797.91,-66.91 1787.9,-63.46 1787.93,-70.46"/>
</g>
<!-- Node40&#45;&gt;Node36 -->
<g id="edge47" class="edge">
<title>Node40&#45;&gt;Node36</title>
<path fill="none" stroke="midnightblue" d="M1084.67,-184.73C1085.26,-175.18 1086.22,-159.62 1086.98,-147.28"/>
<polygon fill="midnightblue" stroke="midnightblue" points="1090.48,-147.32 1087.6,-137.13 1083.5,-146.89 1090.48,-147.32"/>
</g>
<!-- Node40&#45;&gt;Node23 -->
<g id="edge49" class="edge">
<title>Node40&#45;&gt;Node23</title>
<path fill="none" stroke="midnightblue" d="M1059.7,-184.87C1027.44,-173.47 970.49,-153.35 934.07,-140.49"/>
<polygon fill="midnightblue" stroke="midnightblue" points="934.97,-137.09 924.38,-137.06 932.64,-143.69 934.97,-137.09"/>
</g>
<!-- Node40&#45;&gt;Node29 -->
<g id="edge54" class="edge">
<title>Node40&#45;&gt;Node29</title>
<path fill="none" stroke="midnightblue" d="M1055.45,-184.99C1047.32,-182.8 1038.43,-180.61 1030.14,-179 909.47,-155.6 766.88,-141.09 683.86,-133.93"/>
<polygon fill="midnightblue" stroke="midnightblue" points="684.05,-130.43 673.79,-133.07 683.46,-137.41 684.05,-130.43"/>
</g>
<!-- Node23&#45;&gt;Node3 -->
<g id="edge53" class="edge">
<title>Node23&#45;&gt;Node3</title>
<path fill="none" stroke="midnightblue" d="M927.65,-118.47C937.22,-115.98 948.08,-113.51 958.14,-112 1122.82,-87.35 1651.17,-71.59 1787.69,-67.86"/>
<polygon fill="midnightblue" stroke="midnightblue" points="1788.01,-71.35 1797.91,-67.58 1787.82,-64.35 1788.01,-71.35"/>
</g>
<!-- Node23&#45;&gt;Node11 -->
<g id="edge50" class="edge">
<title>Node23&#45;&gt;Node11</title>
<path fill="none" stroke="midnightblue" d="M872.47,-118.23C837.76,-107.85 778.09,-90.01 739.13,-78.36"/>
<polygon fill="midnightblue" stroke="midnightblue" points="739.8,-74.91 729.21,-75.39 737.79,-81.61 739.8,-74.91"/>
</g>
<!-- Node23&#45;&gt;Node13 -->
<g id="edge52" class="edge">
<title>Node23&#45;&gt;Node13</title>
<path fill="none" stroke="midnightblue" d="M900.14,-117.98C900.14,-109.58 900.14,-96.48 900.14,-85.66"/>
<polygon fill="midnightblue" stroke="midnightblue" points="903.64,-85.51 900.14,-75.51 896.64,-85.51 903.64,-85.51"/>
</g>
<!-- Node24 -->
<g id="node26" class="node">
<title>Node24</title>
<g id="a_node26"><a xlink:title=" ">
<polygon fill="white" stroke="#bfbfbf" points="144.64,-56.5 144.64,-75.5 193.64,-75.5 193.64,-56.5 144.64,-56.5"/>
<text text-anchor="middle" x="169.14" y="-63.5" font-family="Helvetica,sans-Serif" font-size="10.00">cstddef</text>
</a>
</g>
</g>
<!-- Node23&#45;&gt;Node24 -->
<g id="edge51" class="edge">
<title>Node23&#45;&gt;Node24</title>
<path fill="none" stroke="midnightblue" d="M872.48,-120.71C857.13,-117.69 837.64,-114.19 820.14,-112 585.81,-82.76 301.5,-71.3 203.94,-68.05"/>
<polygon fill="midnightblue" stroke="midnightblue" points="203.87,-64.55 193.76,-67.72 203.65,-71.55 203.87,-64.55"/>
</g>
<!-- Node29&#45;&gt;Node3 -->
<g id="edge58" class="edge">
<title>Node29&#45;&gt;Node3</title>
<path fill="none" stroke="midnightblue" d="M673.74,-122.84C724.18,-119.79 798.38,-115.41 863.14,-112 1225.91,-92.91 1666.26,-73.64 1787.76,-68.39"/>
<polygon fill="midnightblue" stroke="midnightblue" points="1788.04,-71.88 1797.88,-67.95 1787.73,-64.89 1788.04,-71.88"/>
</g>
<!-- Node29&#45;&gt;Node6 -->
<g id="edge57" class="edge">
<title>Node29&#45;&gt;Node6</title>
<path fill="none" stroke="midnightblue" d="M619.53,-112.36C626.81,-95.51 641.53,-68.13 664.14,-56 729,-21.2 1882.63,-12.45 2086.48,-11.18"/>
<polygon fill="midnightblue" stroke="midnightblue" points="2086.52,-14.68 2096.5,-11.12 2086.48,-7.68 2086.52,-14.68"/>
</g>
<!-- Node29&#45;&gt;Node11 -->
<g id="edge55" class="edge">
<title>Node29&#45;&gt;Node11</title>
<path fill="none" stroke="midnightblue" d="M634.75,-112.4C648.44,-103.04 666.35,-90.79 680.11,-81.38"/>
<polygon fill="midnightblue" stroke="midnightblue" points="682.2,-84.19 688.48,-75.66 678.25,-78.41 682.2,-84.19"/>
</g>
<!-- Node29&#45;&gt;Node31 -->
<g id="edge59" class="edge">
<title>Node29&#45;&gt;Node31</title>
<path fill="none" stroke="midnightblue" d="M569.11,-112.4C535.98,-102.03 491.52,-88.1 460.61,-78.42"/>
<polygon fill="midnightblue" stroke="midnightblue" points="461.27,-74.96 450.68,-75.31 459.18,-81.64 461.27,-74.96"/>
</g>
<!-- Node30 -->
<g id="node28" class="node">
<title>Node30</title>
<g id="a_node28"><a xlink:title=" ">
<polygon fill="white" stroke="#bfbfbf" points="506.14,-56.5 506.14,-75.5 558.14,-75.5 558.14,-56.5 506.14,-56.5"/>
<text text-anchor="middle" x="532.14" y="-63.5" font-family="Helvetica,sans-Serif" font-size="10.00">sstream</text>
</a>
</g>
</g>
<!-- Node29&#45;&gt;Node30 -->
<g id="edge56" class="edge">
<title>Node29&#45;&gt;Node30</title>
<path fill="none" stroke="midnightblue" d="M594.7,-112.4C581.93,-103.13 565.25,-91.03 552.32,-81.65"/>
<polygon fill="midnightblue" stroke="midnightblue" points="554.22,-78.7 544.07,-75.66 550.11,-84.36 554.22,-78.7"/>
</g>
<!-- Node41&#45;&gt;Node3 -->
<g id="edge65" class="edge">
<title>Node41&#45;&gt;Node3</title>
<path fill="none" stroke="midnightblue" d="M2323.72,-184.98C2316.33,-167.77 2297.05,-129.06 2267.14,-112 2196.25,-71.58 1942.61,-67.17 1852.33,-66.91"/>
<polygon fill="midnightblue" stroke="midnightblue" points="1852.15,-63.41 1842.15,-66.9 1852.15,-70.41 1852.15,-63.41"/>
</g>
<!-- Node41&#45;&gt;Node6 -->
<g id="edge64" class="edge">
<title>Node41&#45;&gt;Node6</title>
<path fill="none" stroke="midnightblue" d="M2325.85,-184.9C2323.05,-168.86 2315.09,-134.04 2296.14,-112 2255.47,-64.71 2186.89,-34.92 2147.47,-20.77"/>
<polygon fill="midnightblue" stroke="midnightblue" points="2148.47,-17.41 2137.88,-17.43 2146.17,-24.02 2148.47,-17.41"/>
</g>
<!-- Node41&#45;&gt;Node38 -->
<g id="edge63" class="edge">
<title>Node41&#45;&gt;Node38</title>
<path fill="none" stroke="midnightblue" d="M2281.26,-187.73C2178.67,-174.83 1932.73,-143.91 1843.33,-132.67"/>
<polygon fill="midnightblue" stroke="midnightblue" points="1843.59,-129.18 1833.23,-131.4 1842.71,-136.12 1843.59,-129.18"/>
</g>
<!-- Node42&#45;&gt;Node37 -->
<g id="edge67" class="edge">
<title>Node42&#45;&gt;Node37</title>
<path fill="none" stroke="midnightblue" d="M1754.55,-251.73C1749.4,-241.89 1740.91,-225.66 1734.37,-213.16"/>
<polygon fill="midnightblue" stroke="midnightblue" points="1737.38,-211.37 1729.65,-204.13 1731.18,-214.61 1737.38,-211.37"/>
</g>
<!-- Node42&#45;&gt;Node42 -->
<g id="edge68" class="edge">
<title>Node42&#45;&gt;Node42</title>
<path fill="none" stroke="midnightblue" d="M1782.09,-271.06C1805.93,-276.87 1832.64,-273.68 1832.64,-261.5 1832.64,-250.98 1812.73,-247.17 1791.95,-250.06"/>
<polygon fill="midnightblue" stroke="midnightblue" points="1791.26,-246.63 1782.09,-251.94 1792.57,-253.5 1791.26,-246.63"/>
</g>
<!-- Node53&#45;&gt;Node2 -->
<g id="edge76" class="edge">
<title>Node53&#45;&gt;Node2</title>
<path fill="none" stroke="midnightblue" d="M689.68,-324.98C768.8,-319.1 965.3,-302.96 1128.14,-277 1140.86,-274.97 1154.79,-272.11 1166.72,-269.47"/>
<polygon fill="midnightblue" stroke="midnightblue" points="1167.62,-272.86 1176.6,-267.23 1166.07,-266.03 1167.62,-272.86"/>
</g>
<!-- Node53&#45;&gt;Node3 -->
<g id="edge77" class="edge">
<title>Node53&#45;&gt;Node3</title>
<path fill="none" stroke="midnightblue" d="M669.04,-318.94C699.95,-301.65 773.79,-262.8 841.14,-246 1040.97,-196.17 1114.13,-291.82 1303.14,-210 1321.9,-201.88 1320.7,-191.17 1337.14,-179 1384.06,-144.26 1394.86,-130.82 1450.14,-112 1569.67,-71.31 1721.95,-66.5 1787.61,-66.52"/>
<polygon fill="midnightblue" stroke="midnightblue" points="1787.73,-70.02 1797.75,-66.56 1787.76,-63.02 1787.73,-70.02"/>
</g>
<!-- Node53&#45;&gt;Node6 -->
<g id="edge74" class="edge">
<title>Node53&#45;&gt;Node6</title>
<path fill="none" stroke="midnightblue" d="M618.47,-321.68C587.27,-315.13 542.07,-301.96 510.14,-277 421.74,-207.9 309.84,-136.36 388.14,-56 418.98,-24.34 1856.47,-12.85 2086.3,-11.21"/>
<polygon fill="midnightblue" stroke="midnightblue" points="2086.63,-14.71 2096.6,-11.14 2086.58,-7.71 2086.63,-14.71"/>
</g>
<!-- Node53&#45;&gt;Node11 -->
<g id="edge70" class="edge">
<title>Node53&#45;&gt;Node11</title>
<path fill="none" stroke="midnightblue" d="M643.25,-318.87C606.25,-288.51 490.57,-184.54 545.14,-112 559.31,-93.16 621.6,-79.72 663.05,-72.67"/>
<polygon fill="midnightblue" stroke="midnightblue" points="663.8,-76.1 673.1,-71.02 662.66,-69.19 663.8,-76.1"/>
</g>
<!-- Node53&#45;&gt;Node38 -->
<g id="edge72" class="edge">
<title>Node53&#45;&gt;Node38</title>
<path fill="none" stroke="midnightblue" d="M683.61,-318.96C741.86,-302.4 876.05,-265.81 991.14,-246 1143.5,-219.77 1183.98,-231.14 1337.14,-210 1503.09,-187.1 1700.1,-149.9 1777.04,-134.99"/>
<polygon fill="midnightblue" stroke="midnightblue" points="1777.94,-138.38 1787.09,-133.04 1776.6,-131.51 1777.94,-138.38"/>
</g>
<!-- Node53&#45;&gt;Node44 -->
<g id="edge78" class="edge">
<title>Node53&#45;&gt;Node44</title>
<path fill="none" stroke="midnightblue" d="M689.82,-324.83C823.95,-314.8 1298.68,-279.29 1465.03,-266.85"/>
<polygon fill="midnightblue" stroke="midnightblue" points="1465.36,-270.33 1475.07,-266.1 1464.83,-263.35 1465.36,-270.33"/>
</g>
<!-- Node53&#45;&gt;Node27 -->
<g id="edge81" class="edge">
<title>Node53&#45;&gt;Node27</title>
<path fill="none" stroke="midnightblue" d="M647.6,-318.78C636.52,-302.85 616.78,-268.62 633.14,-246 658.79,-210.51 710.28,-199.54 746.42,-196.38"/>
<polygon fill="midnightblue" stroke="midnightblue" points="746.91,-199.85 756.63,-195.65 746.41,-192.87 746.91,-199.85"/>
</g>
<!-- Node53&#45;&gt;Node35 -->
<g id="edge80" class="edge">
<title>Node53&#45;&gt;Node35</title>
<path fill="none" stroke="midnightblue" d="M689.67,-321.6C705.69,-318.95 724.86,-315.79 742.14,-313 830,-298.78 931.59,-282.72 995.84,-272.6"/>
<polygon fill="midnightblue" stroke="midnightblue" points="996.49,-276.04 1005.82,-271.03 995.4,-269.12 996.49,-276.04"/>
</g>
<!-- Node53&#45;&gt;Node31 -->
<g id="edge79" class="edge">
<title>Node53&#45;&gt;Node31</title>
<path fill="none" stroke="midnightblue" d="M620.71,-318.97C596.09,-311.31 563.04,-297.98 540.14,-277 479.21,-221.2 443.06,-125.8 429.87,-85.66"/>
<polygon fill="midnightblue" stroke="midnightblue" points="433.12,-84.35 426.75,-75.89 426.45,-86.48 433.12,-84.35"/>
</g>
<!-- Node53&#45;&gt;Node24 -->
<g id="edge71" class="edge">
<title>Node53&#45;&gt;Node24</title>
<path fill="none" stroke="midnightblue" d="M623.88,-318.96C594.21,-310.12 548.04,-295.06 510.14,-277 381.65,-215.78 240.6,-118.19 189.24,-81.54"/>
<polygon fill="midnightblue" stroke="midnightblue" points="191.15,-78.6 180.98,-75.62 187.07,-84.29 191.15,-78.6"/>
</g>
<!-- Node53&#45;&gt;Node29 -->
<g id="edge83" class="edge">
<title>Node53&#45;&gt;Node29</title>
<path fill="none" stroke="midnightblue" d="M671.41,-318.86C698.55,-304.15 745.96,-273.21 724.14,-246 677.98,-188.47 608.29,-267.53 562.14,-210 546.54,-190.55 566.54,-166.24 586.09,-149.25"/>
<polygon fill="midnightblue" stroke="midnightblue" points="588.57,-151.74 594.05,-142.67 584.11,-146.34 588.57,-151.74"/>
</g>
<!-- Node53&#45;&gt;Node30 -->
<g id="edge73" class="edge">
<title>Node53&#45;&gt;Node30</title>
<path fill="none" stroke="midnightblue" d="M632.24,-318.88C613.16,-310.49 585.72,-296.2 567.14,-277 543.63,-252.71 540.12,-242.59 531.14,-210 519.25,-166.86 524.6,-113.57 528.8,-85.82"/>
<polygon fill="midnightblue" stroke="midnightblue" points="532.31,-86.03 530.48,-75.59 525.41,-84.89 532.31,-86.03"/>
</g>
<!-- Node53&#45;&gt;Node42 -->
<g id="edge82" class="edge">
<title>Node53&#45;&gt;Node42</title>
<path fill="none" stroke="midnightblue" d="M689.91,-325.89C813.45,-320.25 1233.57,-300.48 1580.14,-277 1617.63,-274.46 1659.5,-271.1 1693.31,-268.25"/>
<polygon fill="midnightblue" stroke="midnightblue" points="1693.86,-271.72 1703.53,-267.38 1693.27,-264.74 1693.86,-271.72"/>
</g>
<!-- Node54 -->
<g id="node32" class="node">
<title>Node54</title>
<g id="a_node32"><a xlink:title=" ">
<polygon fill="white" stroke="#bfbfbf" points="642.64,-252 642.64,-271 715.64,-271 715.64,-252 642.64,-252"/>
<text text-anchor="middle" x="679.14" y="-259" font-family="Helvetica,sans-Serif" font-size="10.00">system_error</text>
</a>
</g>
</g>
<!-- Node53&#45;&gt;Node54 -->
<g id="edge75" class="edge">
<title>Node53&#45;&gt;Node54</title>
<path fill="none" stroke="midnightblue" d="M657.51,-318.73C661.26,-308.99 667.41,-292.98 672.2,-280.53"/>
<polygon fill="midnightblue" stroke="midnightblue" points="675.49,-281.72 675.82,-271.13 668.96,-279.2 675.49,-281.72"/>
</g>
<!-- Node16&#45;&gt;Node6 -->
<g id="edge86" class="edge">
<title>Node16&#45;&gt;Node6</title>
<path fill="none" stroke="midnightblue" d="M2249.97,-391.54C2356.22,-381.3 2700.86,-347.83 2705.14,-344 2732.86,-319.16 2746.68,-214.05 2734.14,-179 2699.61,-82.52 2638.58,-80.69 2539.14,-56 2395.92,-20.44 2218.49,-12.98 2148.05,-11.41"/>
<polygon fill="midnightblue" stroke="midnightblue" points="2147.75,-7.91 2137.68,-11.21 2147.61,-14.91 2147.75,-7.91"/>
</g>
<!-- Node16&#45;&gt;Node8 -->
<g id="edge85" class="edge">
<title>Node16&#45;&gt;Node8</title>
<path fill="none" stroke="midnightblue" d="M2188.41,-388.64C2174.06,-385.95 2156.74,-382.74 2141.14,-380 2043.84,-362.9 1928.8,-344.29 1871.82,-335.17"/>
<polygon fill="midnightblue" stroke="midnightblue" points="1872.3,-331.71 1861.87,-333.59 1871.19,-338.62 1872.3,-331.71"/>
</g>
<!-- Node60&#45;&gt;Node40 -->
<g id="edge89" class="edge">
<title>Node60&#45;&gt;Node40</title>
<path fill="none" stroke="midnightblue" d="M2318.25,-322.25C2282.43,-319.28 2236.23,-315.63 2195.14,-313 1871.4,-292.26 1787.8,-318.98 1466.14,-277 1340.68,-260.63 1195.19,-224.83 1125.5,-206.62"/>
<polygon fill="midnightblue" stroke="midnightblue" points="1126.34,-203.22 1115.78,-204.06 1124.56,-209.99 1126.34,-203.22"/>
</g>
<!-- Node60&#45;&gt;Node41 -->
<g id="edge90" class="edge">
<title>Node60&#45;&gt;Node41</title>
<path fill="none" stroke="midnightblue" d="M2362.88,-313.25C2353.41,-303.94 2342.16,-290.95 2336.14,-277 2327.42,-256.83 2325.95,-231.35 2326.15,-214.3"/>
<polygon fill="midnightblue" stroke="midnightblue" points="2329.65,-214.12 2326.48,-204.01 2322.66,-213.89 2329.65,-214.12"/>
</g>
<!-- Node60&#45;&gt;Node47 -->
<g id="edge88" class="edge">
<title>Node60&#45;&gt;Node47</title>
<path fill="none" stroke="midnightblue" d="M2396.93,-313.4C2410.22,-302.86 2428.36,-288.48 2441.97,-277.69"/>
<polygon fill="midnightblue" stroke="midnightblue" points="2444.5,-280.15 2450.17,-271.19 2440.16,-274.66 2444.5,-280.15"/>
</g>
<!-- Node61&#45;&gt;Node6 -->
<g id="edge95" class="edge">
<title>Node61&#45;&gt;Node6</title>
<path fill="none" stroke="midnightblue" d="M2185.88,-324.3C2322,-312.27 2766.75,-265.97 2702.14,-179 2633.52,-86.65 2258.39,-29.86 2147.82,-14.95"/>
<polygon fill="midnightblue" stroke="midnightblue" points="2148.05,-11.45 2137.67,-13.6 2147.12,-18.38 2148.05,-11.45"/>
</g>
<!-- Node61&#45;&gt;Node29 -->
<g id="edge97" class="edge">
<title>Node61&#45;&gt;Node29</title>
<path fill="none" stroke="midnightblue" d="M2108.5,-324.38C2069.36,-321.28 2007.06,-316.49 1953.14,-313 1806.78,-303.53 1436.74,-311.25 1294.14,-277 1261.05,-269.05 1257.14,-254.29 1224.14,-246 1017.94,-194.2 946.85,-282.9 747.14,-210 725,-201.92 724,-191.67 704.14,-179 686.68,-167.86 666.63,-156.48 649.9,-147.36"/>
<polygon fill="midnightblue" stroke="midnightblue" points="651.44,-144.21 640.98,-142.53 648.11,-150.37 651.44,-144.21"/>
</g>
<!-- Node61&#45;&gt;Node42 -->
<g id="edge96" class="edge">
<title>Node61&#45;&gt;Node42</title>
<path fill="none" stroke="midnightblue" d="M2108.51,-321.03C2040.96,-309.71 1900.87,-286.24 1820.11,-272.71"/>
<polygon fill="midnightblue" stroke="midnightblue" points="1820.52,-269.24 1810.08,-271.03 1819.37,-276.14 1820.52,-269.24"/>
</g>
<!-- Node62&#45;&gt;Node2 -->
<g id="edge99" class="edge">
<title>Node62&#45;&gt;Node2</title>
<path fill="none" stroke="midnightblue" d="M2061.61,-385.96C2024.12,-366.75 1933.3,-321.17 1900.14,-313 1610.58,-241.67 1520.6,-344.52 1230.14,-277 1227.62,-276.42 1225.05,-275.66 1222.52,-274.79"/>
<polygon fill="midnightblue" stroke="midnightblue" points="1223.63,-271.47 1213.04,-271.08 1221.08,-277.99 1223.63,-271.47"/>
</g>
<!-- Node62&#45;&gt;Node3 -->
<g id="edge100" class="edge">
<title>Node62&#45;&gt;Node3</title>
<path fill="none" stroke="midnightblue" d="M2078.16,-385.79C2078.66,-369.57 2081.93,-334.46 2100.14,-313 2125.09,-283.57 2154.4,-306.61 2179.14,-277 2207.47,-243.07 2213.5,-219.65 2196.14,-179 2179.22,-139.4 2164.82,-130.92 2126.14,-112 2078.29,-88.6 1920.83,-74.45 1852.38,-69.26"/>
<polygon fill="midnightblue" stroke="midnightblue" points="1852.43,-65.75 1842.19,-68.5 1851.91,-72.73 1852.43,-65.75"/>
</g>
<!-- Node62&#45;&gt;Node42 -->
<g id="edge101" class="edge">
<title>Node62&#45;&gt;Node42</title>
<path fill="none" stroke="midnightblue" d="M2070.45,-385.82C2055.05,-369.02 2018.62,-332.03 1980.14,-313 1931.1,-288.75 1870.17,-275.95 1824.71,-269.31"/>
<polygon fill="midnightblue" stroke="midnightblue" points="1825.06,-265.83 1814.67,-267.91 1824.09,-272.76 1825.06,-265.83"/>
</g>
<!-- Node62&#45;&gt;Node61 -->
<g id="edge102" class="edge">
<title>Node62&#45;&gt;Node61</title>
<path fill="none" stroke="midnightblue" d="M2087.44,-385.73C2098.41,-375.4 2116.84,-358.04 2130.33,-345.33"/>
<polygon fill="midnightblue" stroke="midnightblue" points="2133.1,-347.53 2137.98,-338.13 2128.3,-342.44 2133.1,-347.53"/>
</g>
<!-- Node64&#45;&gt;Node3 -->
<g id="edge106" class="edge">
<title>Node64&#45;&gt;Node3</title>
<path fill="none" stroke="midnightblue" d="M2055.85,-527.34C2209.55,-523.71 2642.99,-510.76 2781.14,-478 2868.56,-457.27 2966.14,-486.35 2966.14,-396.5 2966.14,-396.5 2966.14,-396.5 2966.14,-327.5 2966.14,-287.53 2959.6,-270.64 2928.14,-246 2862.87,-194.89 2821.18,-243 2745.14,-210 2723.52,-200.62 2722.76,-190.38 2702.14,-179 2632.47,-140.57 2613.72,-129.61 2536.14,-112 2403.2,-81.83 1974.12,-70.35 1852.52,-67.66"/>
<polygon fill="midnightblue" stroke="midnightblue" points="1852.45,-64.16 1842.37,-67.44 1852.29,-71.16 1852.45,-64.16"/>
</g>
<!-- Node64&#45;&gt;Node6 -->
<g id="edge105" class="edge">
<title>Node64&#45;&gt;Node6</title>
<path fill="none" stroke="midnightblue" d="M2055.7,-529.03C2222.5,-530.06 2723.64,-528.76 2877.14,-478 3013.56,-432.88 3118.14,-406.19 3118.14,-262.5 3118.14,-262.5 3118.14,-262.5 3118.14,-126.5 3118.14,-26.36 2317.34,-12.96 2148.25,-11.24"/>
<polygon fill="midnightblue" stroke="midnightblue" points="2148.08,-7.74 2138.04,-11.14 2148.01,-14.74 2148.08,-7.74"/>
</g>
<!-- Node64&#45;&gt;Node7 -->
<g id="edge115" class="edge">
<title>Node64&#45;&gt;Node7</title>
<path fill="none" stroke="midnightblue" d="M2055.86,-515.66C2099.58,-505.4 2161.14,-490.95 2208.39,-479.87"/>
<polygon fill="midnightblue" stroke="midnightblue" points="2209.31,-483.25 2218.24,-477.55 2207.71,-476.43 2209.31,-483.25"/>
</g>
<!-- Node64&#45;&gt;Node38 -->
<g id="edge104" class="edge">
<title>Node64&#45;&gt;Node38</title>
<path fill="none" stroke="midnightblue" d="M1967.7,-514.45C1918.58,-491.45 1834.99,-442.07 1857.14,-380 1893.63,-277.7 2063.87,-263.9 1996.14,-179 1951.22,-122.7 1905.77,-167.76 1838.14,-143 1836.89,-142.54 1835.63,-142.05 1834.37,-141.52"/>
<polygon fill="midnightblue" stroke="midnightblue" points="1835.47,-138.16 1824.93,-137.05 1832.47,-144.49 1835.47,-138.16"/>
</g>
<!-- Node64&#45;&gt;Node35 -->
<g id="edge121" class="edge">
<title>Node64&#45;&gt;Node35</title>
<path fill="none" stroke="midnightblue" d="M1946.63,-527.11C1777.89,-522.52 1271.29,-506.51 1203.14,-478 1129.38,-447.15 1116.7,-416.56 1083.14,-344 1073.71,-323.62 1067.34,-298.54 1063.74,-281.63"/>
<polygon fill="midnightblue" stroke="midnightblue" points="1067.08,-280.5 1061.69,-271.39 1060.22,-281.88 1067.08,-280.5"/>
</g>
<!-- Node64&#45;&gt;Node31 -->
<g id="edge120" class="edge">
<title>Node64&#45;&gt;Node31</title>
<path fill="none" stroke="midnightblue" d="M1946.47,-527.11C1810.7,-523.26 1447.35,-510.52 1146.14,-478 1058.01,-468.49 1037.12,-457.73 949.14,-447 765.8,-424.63 709.56,-471.73 535.14,-411 421.98,-371.6 310.14,-382.32 310.14,-262.5 310.14,-262.5 310.14,-262.5 310.14,-193.5 310.14,-141.07 364.83,-100.58 398.45,-80.64"/>
<polygon fill="midnightblue" stroke="midnightblue" points="400.37,-83.58 407.31,-75.57 396.9,-77.5 400.37,-83.58"/>
</g>
<!-- Node65 -->
<g id="node39" class="node">
<title>Node65</title>
<g id="a_node39"><a xlink:href="alt__block__addon_8hpp_source.html" target="_top" xlink:title=" ">
<polygon fill="white" stroke="red" points="2572.14,-313.5 2572.14,-343.5 2696.14,-343.5 2696.14,-313.5 2572.14,-313.5"/>
<text text-anchor="start" x="2580.14" y="-331.5" font-family="Helvetica,sans-Serif" font-size="10.00">veriblock/pop/blockchain</text>
<text text-anchor="middle" x="2634.14" y="-320.5" font-family="Helvetica,sans-Serif" font-size="10.00">/alt_block_addon.hpp</text>
</a>
</g>
</g>
<!-- Node64&#45;&gt;Node65 -->
<g id="edge107" class="edge">
<title>Node64&#45;&gt;Node65</title>
<path fill="none" stroke="midnightblue" d="M2055.67,-527.53C2157.81,-523.47 2381.98,-503.75 2541.14,-411 2569.21,-394.64 2596.6,-369.13 2614.3,-351.01"/>
<polygon fill="midnightblue" stroke="midnightblue" points="2616.87,-353.39 2621.27,-343.75 2611.82,-348.54 2616.87,-353.39"/>
</g>
<!-- Node66 -->
<g id="node40" class="node">
<title>Node66</title>
<g id="a_node40"><a xlink:href="hashers_8hpp_source.html" target="_top" xlink:title=" ">
<polygon fill="white" stroke="black" points="2563.14,-185 2563.14,-204 2693.14,-204 2693.14,-185 2563.14,-185"/>
<text text-anchor="middle" x="2628.14" y="-192" font-family="Helvetica,sans-Serif" font-size="10.00">veriblock/pop/hashers.hpp</text>
</a>
</g>
</g>
<!-- Node64&#45;&gt;Node66 -->
<g id="edge116" class="edge">
<title>Node64&#45;&gt;Node66</title>
<path fill="none" stroke="midnightblue" d="M2055.66,-526.52C2254.37,-518.6 2928.14,-485.2 2928.14,-396.5 2928.14,-396.5 2928.14,-396.5 2928.14,-327.5 2928.14,-289.74 2932.21,-271.25 2904.14,-246 2837.96,-186.47 2794.68,-226.03 2707.14,-210 2699.79,-208.66 2692.06,-207.24 2684.44,-205.84"/>
<polygon fill="midnightblue" stroke="midnightblue" points="2684.97,-202.38 2674.5,-204.02 2683.71,-209.26 2684.97,-202.38"/>
</g>
<!-- Node67 -->
<g id="node41" class="node">
<title>Node67</title>
<g id="a_node41"><a xlink:href="stored__alt__block__addon_8hpp_source.html" target="_top" xlink:title=" ">
<polygon fill="white" stroke="black" points="1866.14,-380.5 1866.14,-410.5 2006.14,-410.5 2006.14,-380.5 1866.14,-380.5"/>
<text text-anchor="start" x="1874.14" y="-398.5" font-family="Helvetica,sans-Serif" font-size="10.00">veriblock/pop/storage</text>
<text text-anchor="middle" x="1936.14" y="-387.5" font-family="Helvetica,sans-Serif" font-size="10.00">/stored_alt_block_addon.hpp</text>
</a>
</g>
</g>
<!-- Node64&#45;&gt;Node67 -->
<g id="edge122" class="edge">
<title>Node64&#45;&gt;Node67</title>
<path fill="none" stroke="midnightblue" d="M1994.18,-514.37C1983.04,-491.75 1961.07,-447.14 1947.59,-419.76"/>
<polygon fill="midnightblue" stroke="midnightblue" points="1950.6,-417.95 1943.04,-410.52 1944.32,-421.04 1950.6,-417.95"/>
</g>
<!-- Node65&#45;&gt;Node3 -->
<g id="edge111" class="edge">
<title>Node65&#45;&gt;Node3</title>
<path fill="none" stroke="midnightblue" d="M2623.32,-313.29C2609.67,-295.97 2584.85,-266.5 2559.14,-246 2533.92,-225.9 2520.81,-230.77 2496.14,-210 2452.9,-173.61 2465.31,-137.98 2415.14,-112 2365.01,-86.05 1968.98,-71.67 1852.35,-67.97"/>
<polygon fill="midnightblue" stroke="midnightblue" points="1852.36,-64.47 1842.26,-67.65 1852.14,-71.46 1852.36,-64.47"/>
</g>
<!-- Node65&#45;&gt;Node5 -->
<g id="edge109" class="edge">
<title>Node65&#45;&gt;Node5</title>
<path fill="none" stroke="midnightblue" d="M2636.15,-313.42C2637.88,-295.97 2638.19,-266.09 2624.14,-246 2623.55,-245.17 2580.64,-223.45 2551.51,-208.77"/>
<polygon fill="midnightblue" stroke="midnightblue" points="2552.75,-205.47 2542.24,-204.1 2549.6,-211.72 2552.75,-205.47"/>
</g>
<!-- Node65&#45;&gt;Node6 -->
<g id="edge110" class="edge">
<title>Node65&#45;&gt;Node6</title>
<path fill="none" stroke="midnightblue" d="M2649.16,-313.3C2669.63,-292.79 2705.33,-252.64 2719.14,-210 2736.54,-156.24 2688.08,-138.43 2638.14,-112 2469.04,-22.51 2231.48,-11.75 2147.78,-10.87"/>
<polygon fill="midnightblue" stroke="midnightblue" points="2147.7,-7.37 2137.67,-10.81 2147.65,-14.37 2147.7,-7.37"/>
</g>
<!-- Node65&#45;&gt;Node33 -->
<g id="edge113" class="edge">
<title>Node65&#45;&gt;Node33</title>
<path fill="none" stroke="midnightblue" d="M2671.67,-313.4C2697.63,-303.64 2732.36,-290.59 2760.15,-280.15"/>
<polygon fill="midnightblue" stroke="midnightblue" points="2761.54,-283.37 2769.67,-276.58 2759.08,-276.82 2761.54,-283.37"/>
</g>
<!-- Node65&#45;&gt;Node38 -->
<g id="edge108" class="edge">
<title>Node65&#45;&gt;Node38</title>
<path fill="none" stroke="midnightblue" d="M2617.26,-313.28C2578.68,-281.8 2479.82,-206.81 2382.14,-179 2279.7,-149.84 1949.81,-134.18 1843.49,-129.79"/>
<polygon fill="midnightblue" stroke="midnightblue" points="1843.48,-126.29 1833.35,-129.38 1843.2,-133.29 1843.48,-126.29"/>
</g>
<!-- Node65&#45;&gt;Node42 -->
<g id="edge114" class="edge">
<title>Node65&#45;&gt;Node42</title>
<path fill="none" stroke="midnightblue" d="M2572.05,-322.55C2536.14,-319.71 2490.09,-316.1 2449.14,-313 2219.93,-295.63 1947.82,-276.01 1825.04,-267.21"/>
<polygon fill="midnightblue" stroke="midnightblue" points="1825.27,-263.72 1815.04,-266.49 1824.77,-270.7 1825.27,-263.72"/>
</g>
<!-- Node65&#45;&gt;Node47 -->
<g id="edge112" class="edge">
<title>Node65&#45;&gt;Node47</title>
<path fill="none" stroke="midnightblue" d="M2596.6,-313.4C2565.84,-301.84 2522.77,-285.66 2493.51,-274.66"/>
<polygon fill="midnightblue" stroke="midnightblue" points="2494.37,-271.25 2483.78,-271.01 2491.91,-277.8 2494.37,-271.25"/>
</g>
<!-- Node66&#45;&gt;Node3 -->
<g id="edge119" class="edge">
<title>Node66&#45;&gt;Node3</title>
<path fill="none" stroke="midnightblue" d="M2617.62,-184.82C2595.72,-167.33 2542.93,-128.12 2491.14,-112 2369.79,-74.22 1969.57,-68.15 1852.54,-67.18"/>
<polygon fill="midnightblue" stroke="midnightblue" points="1852.46,-63.68 1842.43,-67.11 1852.4,-70.68 1852.46,-63.68"/>
</g>
<!-- Node66&#45;&gt;Node6 -->
<g id="edge118" class="edge">
<title>Node66&#45;&gt;Node6</title>
<path fill="none" stroke="midnightblue" d="M2605.96,-184.99C2548.35,-162.96 2389.12,-102.52 2255.14,-56 2218.24,-43.19 2175.45,-29.4 2147.41,-20.51"/>
<polygon fill="midnightblue" stroke="midnightblue" points="2148.38,-17.14 2137.79,-17.47 2146.27,-23.82 2148.38,-17.14"/>
</g>
<!-- Node66&#45;&gt;Node38 -->
<g id="edge117" class="edge">
<title>Node66&#45;&gt;Node38</title>
<path fill="none" stroke="midnightblue" d="M2589.5,-184.98C2578.15,-182.73 2565.69,-180.52 2554.14,-179 2281.39,-143.17 1948.86,-132.03 1843.68,-129.28"/>
<polygon fill="midnightblue" stroke="midnightblue" points="1843.47,-125.77 1833.38,-129.01 1843.29,-132.77 1843.47,-125.77"/>
</g>
<!-- Node67&#45;&gt;Node35 -->
<g id="edge124" class="edge">
<title>Node67&#45;&gt;Node35</title>
<path fill="none" stroke="midnightblue" d="M1926.72,-380.24C1912.33,-358.95 1884.98,-320.55 1870.14,-313 1800.43,-277.53 1245.01,-284.26 1167.14,-277 1153.97,-275.77 1139.94,-274.12 1126.52,-272.37"/>
<polygon fill="midnightblue" stroke="midnightblue" points="1126.77,-268.88 1116.4,-271.02 1125.85,-275.81 1126.77,-268.88"/>
</g>
<!-- Node67&#45;&gt;Node42 -->
<g id="edge125" class="edge">
<title>Node67&#45;&gt;Node42</title>
<path fill="none" stroke="midnightblue" d="M1934.26,-380.41C1931.13,-362.4 1923.2,-331.33 1904.14,-313 1882.66,-292.35 1852.3,-280.1 1824.9,-272.86"/>
<polygon fill="midnightblue" stroke="midnightblue" points="1825.51,-269.4 1814.96,-270.41 1823.83,-276.2 1825.51,-269.4"/>
</g>
<!-- Node67&#45;&gt;Node65 -->
<g id="edge123" class="edge">
<title>Node67&#45;&gt;Node65</title>
<path fill="none" stroke="midnightblue" d="M2006.31,-381.38C2009.63,-380.89 2012.92,-380.42 2016.14,-380 2042.8,-376.5 2404.51,-347.69 2561.86,-335.22"/>
<polygon fill="midnightblue" stroke="midnightblue" points="2562.23,-338.7 2571.92,-334.42 2561.68,-331.72 2562.23,-338.7"/>
</g>
<!-- Node68&#45;&gt;Node27 -->
<g id="edge131" class="edge">
<title>Node68&#45;&gt;Node27</title>
<path fill="none" stroke="midnightblue" d="M595.93,-380.1C592.32,-350.82 588.65,-283.9 623.14,-246 654.57,-211.45 709.12,-200.3 746.38,-196.83"/>
<polygon fill="midnightblue" stroke="midnightblue" points="746.71,-200.32 756.4,-196.05 746.16,-193.34 746.71,-200.32"/>
</g>
<!-- Node68&#45;&gt;Node35 -->
<g id="edge130" class="edge">
<title>Node68&#45;&gt;Node35</title>
<path fill="none" stroke="midnightblue" d="M639.9,-380.41C690.72,-363.47 779.27,-334.63 856.14,-313 909.51,-297.98 971.4,-283 1012.89,-273.3"/>
<polygon fill="midnightblue" stroke="midnightblue" points="1013.78,-276.69 1022.72,-271.01 1012.19,-269.87 1013.78,-276.69"/>
</g>
<!-- Node68&#45;&gt;Node29 -->
<g id="edge133" class="edge">
<title>Node68&#45;&gt;Node29</title>
<path fill="none" stroke="midnightblue" d="M589.37,-380.43C568.47,-344.97 519.87,-249.73 553.14,-179 558.86,-166.83 569.12,-156.58 579.61,-148.57"/>
<polygon fill="midnightblue" stroke="midnightblue" points="581.86,-151.27 587.99,-142.63 577.81,-145.56 581.86,-151.27"/>
</g>
<!-- Node68&#45;&gt;Node42 -->
<g id="edge132" class="edge">
<title>Node68&#45;&gt;Node42</title>
<path fill="none" stroke="midnightblue" d="M652.19,-388.35C843.03,-366.66 1484.88,-293.68 1693.23,-269.99"/>
<polygon fill="midnightblue" stroke="midnightblue" points="1693.86,-273.44 1703.4,-268.84 1693.07,-266.49 1693.86,-273.44"/>
</g>
<!-- Node68&#45;&gt;Node53 -->
<g id="edge129" class="edge">
<title>Node68&#45;&gt;Node53</title>
<path fill="none" stroke="midnightblue" d="M610.29,-380.4C619.02,-370.26 630.82,-356.57 639.97,-345.94"/>
<polygon fill="midnightblue" stroke="midnightblue" points="642.77,-348.06 646.64,-338.19 637.47,-343.49 642.77,-348.06"/>
</g>
<!-- Node69&#45;&gt;Node8 -->
<g id="edge135" class="edge">
<title>Node69&#45;&gt;Node8</title>
<path fill="none" stroke="midnightblue" d="M1424.17,-456.45C1483.84,-449.96 1581.37,-436.37 1662.14,-411 1718.33,-393.35 1779.78,-361.28 1812.51,-343.07"/>
<polygon fill="midnightblue" stroke="midnightblue" points="1814.32,-346.06 1821.33,-338.11 1810.89,-339.96 1814.32,-346.06"/>
</g>
<!-- Node69&#45;&gt;Node43 -->
<g id="edge136" class="edge">
<title>Node69&#45;&gt;Node43</title>
<path fill="none" stroke="midnightblue" d="M1366.53,-447.4C1365.08,-439.56 1363.25,-429.6 1361.58,-420.57"/>
<polygon fill="midnightblue" stroke="midnightblue" points="1364.99,-419.77 1359.73,-410.58 1358.11,-421.05 1364.99,-419.77"/>
</g>
<!-- Node69&#45;&gt;Node35 -->
<g id="edge137" class="edge">
<title>Node69&#45;&gt;Node35</title>
<path fill="none" stroke="midnightblue" d="M1346.91,-447.19C1289.89,-410.47 1138.9,-313.23 1082.13,-276.67"/>
<polygon fill="midnightblue" stroke="midnightblue" points="1083.86,-273.62 1073.56,-271.14 1080.07,-279.5 1083.86,-273.62"/>
</g>
<!-- Node69&#45;&gt;Node42 -->
<g id="edge138" class="edge">
<title>Node69&#45;&gt;Node42</title>
<path fill="none" stroke="midnightblue" d="M1424.29,-457.19C1477.29,-451.54 1558.73,-438.84 1624.14,-411 1630.12,-408.45 1715.93,-348.96 1720.14,-344 1736.19,-325.09 1747.3,-298.43 1753.44,-280.82"/>
<polygon fill="midnightblue" stroke="midnightblue" points="1756.81,-281.77 1756.62,-271.18 1750.16,-279.58 1756.81,-281.77"/>
</g>
<!-- Node70&#45;&gt;Node4 -->
<g id="edge141" class="edge">
<title>Node70&#45;&gt;Node4</title>
<path fill="none" stroke="midnightblue" d="M1089.06,-704.48C1147.47,-695.78 1240.17,-681.64 1320.14,-668 1431.95,-648.93 1561.79,-624.3 1637.1,-609.77"/>
<polygon fill="midnightblue" stroke="midnightblue" points="1638.2,-613.13 1647.35,-607.79 1636.87,-606.25 1638.2,-613.13"/>
</g>
<!-- Node70&#45;&gt;Node43 -->
<g id="edge173" class="edge">
<title>Node70&#45;&gt;Node43</title>
<path fill="none" stroke="midnightblue" d="M1044.65,-704.33C1069.55,-687.19 1120.14,-646.36 1120.14,-597.5 1120.14,-597.5 1120.14,-597.5 1120.14,-528.5 1120.14,-476.8 1158.97,-473.87 1203.14,-447 1230.44,-430.39 1263.84,-418.57 1292.55,-410.57"/>
<polygon fill="midnightblue" stroke="midnightblue" points="1293.74,-413.87 1302.49,-407.9 1291.92,-407.11 1293.74,-413.87"/>
</g>
<!-- Node70&#45;&gt;Node29 -->
<g id="edge184" class="edge">
<title>Node70&#45;&gt;Node29</title>
<path fill="none" stroke="midnightblue" d="M970.31,-709.8C870,-703.96 674.47,-690.13 609.14,-668 401.15,-597.54 294.7,-602.45 187.14,-411 101.03,-257.75 402.75,-172.69 544.51,-141.92"/>
<polygon fill="midnightblue" stroke="midnightblue" points="545.38,-145.31 554.43,-139.8 543.92,-138.47 545.38,-145.31"/>
</g>
<!-- Node70&#45;&gt;Node53 -->
<g id="edge159" class="edge">
<title>Node70&#45;&gt;Node53</title>
<path fill="none" stroke="midnightblue" d="M970.38,-710.82C877.04,-706.64 703.32,-695.36 648.14,-668 524.94,-606.92 459.24,-494.66 535.14,-380 551.45,-355.36 582.46,-342.7 608.74,-336.23"/>
<polygon fill="midnightblue" stroke="midnightblue" points="609.54,-339.63 618.54,-334.03 608.02,-332.8 609.54,-339.63"/>
</g>
<!-- Node70&#45;&gt;Node68 -->
<g id="edge142" class="edge">
<title>Node70&#45;&gt;Node68</title>
<path fill="none" stroke="midnightblue" d="M970.47,-709.47C851.31,-700.87 598.14,-673.65 598.14,-597.5 598.14,-597.5 598.14,-597.5 598.14,-528.5 598.14,-491 598.14,-447.51 598.14,-421.01"/>
<polygon fill="midnightblue" stroke="midnightblue" points="601.64,-420.76 598.14,-410.76 594.64,-420.76 601.64,-420.76"/>
</g>
<!-- Node70&#45;&gt;Node69 -->
<g id="edge143" class="edge">
<title>Node70&#45;&gt;Node69</title>
<path fill="none" stroke="midnightblue" d="M1091.72,-711.11C1160.45,-705.36 1269.98,-684.54 1324.14,-612 1352.24,-574.34 1362.94,-519.06 1366.9,-487.65"/>
<polygon fill="midnightblue" stroke="midnightblue" points="1370.39,-487.94 1368.04,-477.61 1363.44,-487.15 1370.39,-487.94"/>
</g>
<!-- Node71 -->
<g id="node45" class="node">
<title>Node71</title>
<g id="a_node45"><a xlink:href="secp256k1_8hpp_source.html" target="_top" xlink:title=" ">
<polygon fill="white" stroke="red" points="910.64,-185 910.64,-204 1021.64,-204 1021.64,-185 910.64,-185"/>
<text text-anchor="middle" x="966.14" y="-192" font-family="Helvetica,sans-Serif" font-size="10.00">crypto/secp256k1.hpp</text>
</a>
</g>
</g>
<!-- Node70&#45;&gt;Node71 -->
<g id="edge144" class="edge">
<title>Node70&#45;&gt;Node71</title>
<path fill="none" stroke="midnightblue" d="M970.47,-709.63C909.69,-704.84 822.21,-693.6 801.14,-668 739.56,-593.21 910.44,-290.21 955.54,-213.31"/>
<polygon fill="midnightblue" stroke="midnightblue" points="958.75,-214.76 960.82,-204.36 952.72,-211.2 958.75,-214.76"/>
</g>
<!-- Node72 -->
<g id="node46" class="node">
<title>Node72</title>
<g id="a_node46"><a xlink:href="atv_8hpp_source.html" target="_top" xlink:title=" ">
<polygon fill="white" stroke="red" points="1212.64,-453 1212.64,-472 1295.64,-472 1295.64,-453 1212.64,-453"/>
<text text-anchor="middle" x="1254.14" y="-460" font-family="Helvetica,sans-Serif" font-size="10.00">entities/atv.hpp</text>
</a>
</g>
</g>
<!-- Node70&#45;&gt;Node72 -->
<g id="edge149" class="edge">
<title>Node70&#45;&gt;Node72</title>
<path fill="none" stroke="midnightblue" d="M1064.25,-704.37C1086.05,-697.39 1114.14,-685.75 1134.14,-668 1195.2,-613.79 1233.68,-520.82 1247.91,-481.69"/>
<polygon fill="midnightblue" stroke="midnightblue" points="1251.25,-482.76 1251.28,-472.16 1244.65,-480.42 1251.25,-482.76"/>
</g>
<!-- Node81 -->
<g id="node47" class="node">
<title>Node81</title>
<g id="a_node47"><a xlink:href="popdata_8hpp_source.html" target="_top" xlink:title=" ">
<polygon fill="white" stroke="red" points="988.14,-520 988.14,-539 1092.14,-539 1092.14,-520 988.14,-520"/>
<text text-anchor="middle" x="1040.14" y="-527" font-family="Helvetica,sans-Serif" font-size="10.00">entities/popdata.hpp</text>
</a>
</g>
</g>
<!-- Node70&#45;&gt;Node81 -->
<g id="edge160" class="edge">
<title>Node70&#45;&gt;Node81</title>
<path fill="none" stroke="midnightblue" d="M1031.57,-704.2C1032.95,-676.19 1037.26,-588.71 1039.19,-549.66"/>
<polygon fill="midnightblue" stroke="midnightblue" points="1042.71,-549.37 1039.71,-539.21 1035.72,-549.03 1042.71,-549.37"/>
</g>
<!-- Node82 -->
<g id="node48" class="node">
<title>Node82</title>
<g id="a_node48"><a xlink:href="vtb_8hpp_source.html" target="_top" xlink:title=" ">
<polygon fill="white" stroke="red" points="892.14,-453 892.14,-472 940.14,-472 940.14,-453 892.14,-453"/>
<text text-anchor="middle" x="916.14" y="-460" font-family="Helvetica,sans-Serif" font-size="10.00">vtb.hpp</text>
</a>
</g>
</g>
<!-- Node70&#45;&gt;Node82 -->
<g id="edge174" class="edge">
<title>Node70&#45;&gt;Node82</title>
<path fill="none" stroke="midnightblue" d="M1027.18,-704.41C1010.66,-668.57 947.03,-530.52 924.28,-481.17"/>
<polygon fill="midnightblue" stroke="midnightblue" points="927.44,-479.67 920.08,-472.05 921.08,-482.6 927.44,-479.67"/>
</g>
<!-- Node86 -->
<g id="node49" class="node">
<title>Node86</title>
<g id="a_node49"><a xlink:href="pop__stateless__validator_8hpp_source.html" target="_top" xlink:title=" ">
<polygon fill="white" stroke="red" points="810.64,-648.5 810.64,-667.5 947.64,-667.5 947.64,-648.5 810.64,-648.5"/>
<text text-anchor="middle" x="879.14" y="-655.5" font-family="Helvetica,sans-Serif" font-size="10.00">pop_stateless_validator.hpp</text>
</a>
</g>
</g>
<!-- Node70&#45;&gt;Node86 -->
<g id="edge175" class="edge">
<title>Node70&#45;&gt;Node86</title>
<path fill="none" stroke="midnightblue" d="M1007.05,-704.44C981.59,-695.4 941.24,-681.06 912.68,-670.92"/>
<polygon fill="midnightblue" stroke="midnightblue" points="913.7,-667.57 903.11,-667.52 911.36,-674.16 913.7,-667.57"/>
</g>
<!-- Node91 -->
<g id="node50" class="node">
<title>Node91</title>
<g id="a_node50"><a xlink:href="time_8hpp_source.html" target="_top" xlink:title=" ">
<polygon fill="white" stroke="red" points="1262.64,-587 1262.64,-606 1315.64,-606 1315.64,-587 1262.64,-587"/>
<text text-anchor="middle" x="1289.14" y="-594" font-family="Helvetica,sans-Serif" font-size="10.00">time.hpp</text>
</a>
</g>
</g>
<!-- Node70&#45;&gt;Node91 -->
<g id="edge182" class="edge">
<title>Node70&#45;&gt;Node91</title>
<path fill="none" stroke="midnightblue" d="M1091.79,-705.21C1127.75,-698.81 1173.33,-687.51 1210.14,-668 1236.14,-654.22 1260.51,-630.1 1275.13,-613.97"/>
<polygon fill="midnightblue" stroke="midnightblue" points="1277.85,-616.17 1281.84,-606.35 1272.6,-611.54 1277.85,-616.17"/>
</g>
<!-- Node71&#45;&gt;Node3 -->
<g id="edge148" class="edge">
<title>Node71&#45;&gt;Node3</title>
<path fill="none" stroke="midnightblue" d="M971.71,-184.81C983.52,-167.29 1012.95,-128.04 1049.14,-112 1117.31,-81.78 1649.28,-70.1 1787.44,-67.56"/>
<polygon fill="midnightblue" stroke="midnightblue" points="1787.84,-71.05 1797.78,-67.37 1787.72,-64.05 1787.84,-71.05"/>
</g>
<!-- Node71&#45;&gt;Node36 -->
<g id="edge147" class="edge">
<title>Node71&#45;&gt;Node36</title>
<path fill="none" stroke="midnightblue" d="M982.34,-184.87C1002.94,-173.89 1038.73,-154.82 1062.91,-141.94"/>
<polygon fill="midnightblue" stroke="midnightblue" points="1064.69,-144.96 1071.87,-137.17 1061.4,-138.78 1064.69,-144.96"/>
</g>
<!-- Node71&#45;&gt;Node23 -->
<g id="edge145" class="edge">
<title>Node71&#45;&gt;Node23</title>
<path fill="none" stroke="midnightblue" d="M957.23,-184.73C946.74,-174.4 929.11,-157.04 916.21,-144.33"/>
<polygon fill="midnightblue" stroke="midnightblue" points="918.48,-141.65 908.9,-137.13 913.56,-146.64 918.48,-141.65"/>
</g>
<!-- Node71&#45;&gt;Node24 -->
<g id="edge146" class="edge">
<title>Node71&#45;&gt;Node24</title>
<path fill="none" stroke="midnightblue" d="M942.2,-184.93C893.79,-167.98 780.48,-130.25 682.14,-112 504.24,-78.99 287.01,-70.05 203.81,-67.75"/>
<polygon fill="midnightblue" stroke="midnightblue" points="203.75,-64.25 193.66,-67.49 203.56,-71.25 203.75,-64.25"/>
</g>
<!-- Node72&#45;&gt;Node3 -->
<g id="edge153" class="edge">
<title>Node72&#45;&gt;Node3</title>
<path fill="none" stroke="midnightblue" d="M1279.82,-452.93C1287.84,-450.6 1296.78,-448.35 1305.14,-447 1396.92,-432.19 2058.15,-452.92 2141.14,-411 2175.27,-393.76 2179.9,-379.08 2195.14,-344 2224.53,-276.29 2237.4,-249.06 2214.14,-179 2202.43,-143.74 2196.2,-130.78 2164.14,-112 2111.63,-81.24 1927.7,-71 1852.52,-68.06"/>
<polygon fill="midnightblue" stroke="midnightblue" points="1852.37,-64.55 1842.25,-67.67 1852.11,-71.54 1852.37,-64.55"/>
</g>
<!-- Node72&#45;&gt;Node6 -->
<g id="edge152" class="edge">
<title>Node72&#45;&gt;Node6</title>
<path fill="none" stroke="midnightblue" d="M1279.55,-452.98C1287.64,-450.62 1296.68,-448.34 1305.14,-447 1930.96,-347.7 2119.73,-524.49 2727.14,-344 2750.88,-336.94 3042.14,-196.96 3042.14,-195.5 3042.14,-195.5 3042.14,-195.5 3042.14,-126.5 3042.14,-34.25 2308.34,-14.7 2147.89,-11.53"/>
<polygon fill="midnightblue" stroke="midnightblue" points="2147.82,-8.03 2137.75,-11.34 2147.68,-15.03 2147.82,-8.03"/>
</g>
<!-- Node72&#45;&gt;Node43 -->
<g id="edge154" class="edge">
<title>Node72&#45;&gt;Node43</title>
<path fill="none" stroke="midnightblue" d="M1268.03,-452.73C1282.88,-443.36 1306.92,-428.19 1326.29,-415.97"/>
<polygon fill="midnightblue" stroke="midnightblue" points="1328.22,-418.89 1334.81,-410.59 1324.49,-412.97 1328.22,-418.89"/>
</g>
<!-- Node72&#45;&gt;Node38 -->
<g id="edge151" class="edge">
<title>Node72&#45;&gt;Node38</title>
<path fill="none" stroke="midnightblue" d="M1283.2,-452.98C1290.35,-450.95 1298.01,-448.85 1305.14,-447 1373.18,-429.38 1394.98,-439.72 1459.14,-411 1575.62,-358.86 1580.97,-304.98 1694.14,-246 1735.65,-224.36 1762.48,-245.39 1793.14,-210 1808.11,-192.71 1811.07,-165.65 1811.14,-147.51"/>
<polygon fill="midnightblue" stroke="midnightblue" points="1814.64,-147.21 1810.89,-137.3 1807.64,-147.39 1814.64,-147.21"/>
</g>
<!-- Node72&#45;&gt;Node37 -->
<g id="edge155" class="edge">
<title>Node72&#45;&gt;Node37</title>
<path fill="none" stroke="midnightblue" d="M1284.28,-452.9C1328.68,-440.13 1407.79,-417.04 1420.14,-411 1481.49,-380.97 1648.5,-254.36 1705.65,-210.52"/>
<polygon fill="midnightblue" stroke="midnightblue" points="1708.05,-213.09 1713.85,-204.22 1703.78,-207.54 1708.05,-213.09"/>
</g>
<!-- Node72&#45;&gt;Node35 -->
<g id="edge157" class="edge">
<title>Node72&#45;&gt;Node35</title>
<path fill="none" stroke="midnightblue" d="M1231.33,-452.95C1211.01,-444.53 1181.29,-430.14 1160.14,-411 1117.05,-372.01 1083.56,-310.77 1068.63,-280.57"/>
<polygon fill="midnightblue" stroke="midnightblue" points="1071.64,-278.75 1064.14,-271.27 1065.34,-281.8 1071.64,-278.75"/>
</g>
<!-- Node72&#45;&gt;Node31 -->
<g id="edge156" class="edge">
<title>Node72&#45;&gt;Node31</title>
<path fill="none" stroke="midnightblue" d="M1212.38,-459.28C1063.62,-451.29 566.67,-423.77 535.14,-411 406.49,-358.92 354.72,-335.82 296.14,-210 277.75,-170.51 270.96,-147.54 296.14,-112 316.66,-83.03 357.39,-72.57 387.41,-68.87"/>
<polygon fill="midnightblue" stroke="midnightblue" points="387.95,-72.34 397.54,-67.83 387.23,-65.37 387.95,-72.34"/>
</g>
<!-- Node72&#45;&gt;Node24 -->
<g id="edge150" class="edge">
<title>Node72&#45;&gt;Node24</title>
<path fill="none" stroke="midnightblue" d="M1212.4,-459.46C1053.59,-451.63 494.09,-423.28 458.14,-411 298.35,-356.42 202.14,-148.17 176.25,-85.16"/>
<polygon fill="midnightblue" stroke="midnightblue" points="179.44,-83.72 172.46,-75.75 172.94,-86.33 179.44,-83.72"/>
</g>
<!-- Node72&#45;&gt;Node42 -->
<g id="edge158" class="edge">
<title>Node72&#45;&gt;Node42</title>
<path fill="none" stroke="midnightblue" d="M1281.21,-452.99C1288.89,-450.8 1297.29,-448.61 1305.14,-447 1428.48,-421.71 1471.09,-462.15 1586.14,-411 1590.76,-408.95 1698.26,-315.53 1741.43,-277.93"/>
<polygon fill="midnightblue" stroke="midnightblue" points="1743.92,-280.41 1749.16,-271.2 1739.32,-275.13 1743.92,-280.41"/>
</g>
<!-- Node81&#45;&gt;Node3 -->
<g id="edge161" class="edge">
<title>Node81&#45;&gt;Node3</title>
<path fill="none" stroke="midnightblue" d="M1050.36,-519.77C1068.54,-504.4 1107.89,-471.8 1143.14,-447 1376.93,-282.55 1433.11,-232.88 1692.14,-112 1723.79,-97.23 1761.73,-84.47 1788.05,-76.35"/>
<polygon fill="midnightblue" stroke="midnightblue" points="1789.32,-79.62 1797.87,-73.36 1787.29,-72.92 1789.32,-79.62"/>
</g>
<!-- Node81&#45;&gt;Node35 -->
<g id="edge162" class="edge">
<title>Node81&#45;&gt;Node35</title>
<path fill="none" stroke="midnightblue" d="M1032.4,-519.73C1006.55,-489.33 927.2,-386.32 970.14,-313 980.85,-294.7 1000.9,-282.53 1019.36,-274.73"/>
<polygon fill="midnightblue" stroke="midnightblue" points="1020.77,-277.93 1028.81,-271.04 1018.22,-271.41 1020.77,-277.93"/>
</g>
<!-- Node81&#45;&gt;Node23 -->
<g id="edge163" class="edge">
<title>Node81&#45;&gt;Node23</title>
<path fill="none" stroke="midnightblue" d="M995.83,-519.98C910.71,-503.85 718.29,-468.55 555.14,-447 513.86,-441.55 210.13,-441.82 182.14,-411 -20.52,-187.84 687.94,-138.72 862.28,-130.1"/>
<polygon fill="midnightblue" stroke="midnightblue" points="862.69,-133.59 872.51,-129.62 862.35,-126.6 862.69,-133.59"/>
</g>
<!-- Node81&#45;&gt;Node72 -->
<g id="edge164" class="edge">
<title>Node81&#45;&gt;Node72</title>
<path fill="none" stroke="midnightblue" d="M1068.55,-519.87C1106.55,-508.33 1174.02,-487.84 1216.29,-475"/>
<polygon fill="midnightblue" stroke="midnightblue" points="1217.39,-478.32 1225.94,-472.06 1215.36,-471.62 1217.39,-478.32"/>
</g>
<!-- Node81&#45;&gt;Node82 -->
<g id="edge165" class="edge">
<title>Node81&#45;&gt;Node82</title>
<path fill="none" stroke="midnightblue" d="M1023.67,-519.87C1002.73,-508.89 966.35,-489.82 941.77,-476.94"/>
<polygon fill="midnightblue" stroke="midnightblue" points="943.15,-473.71 932.67,-472.17 939.9,-479.91 943.15,-473.71"/>
</g>
<!-- Node82&#45;&gt;Node3 -->
<g id="edge170" class="edge">
<title>Node82&#45;&gt;Node3</title>
<path fill="none" stroke="midnightblue" d="M925.96,-452.94C971.47,-413.3 1159.83,-249.44 1167.14,-246 1252,-206 1285.89,-238.93 1375.14,-210 1398.68,-202.37 1551.63,-119.75 1575.14,-112 1649.21,-87.57 1740.52,-75.22 1788.01,-70.06"/>
<polygon fill="midnightblue" stroke="midnightblue" points="1788.42,-73.54 1798,-69.02 1787.69,-66.58 1788.42,-73.54"/>
</g>
<!-- Node82&#45;&gt;Node6 -->
<g id="edge171" class="edge">
<title>Node82&#45;&gt;Node6</title>
<path fill="none" stroke="midnightblue" d="M891.86,-461.48C776.64,-461.17 284.41,-457.11 139.14,-411 73.06,-390.03 6.14,-398.83 6.14,-329.5 6.14,-329.5 6.14,-329.5 6.14,-126.5 6.14,-109.72 -41.79,-102.37 135.14,-56 331.57,-4.51 1850.29,-9.71 2086.34,-10.84"/>
<polygon fill="midnightblue" stroke="midnightblue" points="2086.59,-14.34 2096.6,-10.89 2086.62,-7.34 2086.59,-14.34"/>
</g>
<!-- Node82&#45;&gt;Node43 -->
<g id="edge172" class="edge">
<title>Node82&#45;&gt;Node43</title>
<path fill="none" stroke="midnightblue" d="M940.16,-457.96C1006.28,-448.21 1192.64,-420.75 1292.33,-406.05"/>
<polygon fill="midnightblue" stroke="midnightblue" points="1292.9,-409.51 1302.28,-404.59 1291.88,-402.58 1292.9,-409.51"/>
</g>
<!-- Node82&#45;&gt;Node35 -->
<g id="edge167" class="edge">
<title>Node82&#45;&gt;Node35</title>
<path fill="none" stroke="midnightblue" d="M914.23,-452.68C909.41,-427.81 899.29,-356.11 932.14,-313 947.15,-293.3 971,-281.27 994.06,-273.94"/>
<polygon fill="midnightblue" stroke="midnightblue" points="995.26,-277.23 1003.87,-271.07 993.29,-270.51 995.26,-277.23"/>
</g>
<!-- Node82&#45;&gt;Node31 -->
<g id="edge166" class="edge">
<title>Node82&#45;&gt;Node31</title>
<path fill="none" stroke="midnightblue" d="M892.02,-459.95C770.03,-452.08 226.56,-416.73 220.14,-411 120.15,-321.85 96.51,-215.02 182.14,-112 207.83,-81.09 326.44,-71.31 387.53,-68.29"/>
<polygon fill="midnightblue" stroke="midnightblue" points="387.7,-71.79 397.53,-67.84 387.38,-64.8 387.7,-71.79"/>
</g>
<!-- Node82&#45;&gt;Node24 -->
<g id="edge169" class="edge">
<title>Node82&#45;&gt;Node24</title>
<path fill="none" stroke="midnightblue" d="M892.03,-460.12C767.57,-452.96 202.77,-420.04 187.14,-411 67.95,-342.08 43.14,-234.42 106.14,-112 113.21,-98.25 126.66,-87.77 139.31,-80.39"/>
<polygon fill="midnightblue" stroke="midnightblue" points="141.13,-83.39 148.29,-75.57 137.82,-77.22 141.13,-83.39"/>
</g>
<!-- Node82&#45;&gt;Node42 -->
<g id="edge168" class="edge">
<title>Node82&#45;&gt;Node42</title>
<path fill="none" stroke="midnightblue" d="M940.33,-460.08C1027.82,-454.79 1327.52,-435.28 1420.14,-411 1483.97,-394.27 1663.6,-308.79 1732.12,-275.65"/>
<polygon fill="midnightblue" stroke="midnightblue" points="1733.92,-278.67 1741.39,-271.16 1730.87,-272.37 1733.92,-278.67"/>
</g>
<!-- Node86&#45;&gt;Node4 -->
<g id="edge176" class="edge">
<title>Node86&#45;&gt;Node4</title>
<path fill="none" stroke="midnightblue" d="M947.72,-652.03C1104.44,-640.67 1486.86,-612.96 1637.59,-602.03"/>
<polygon fill="midnightblue" stroke="midnightblue" points="1637.89,-605.52 1647.61,-601.31 1637.38,-598.54 1637.89,-605.52"/>
</g>
<!-- Node86&#45;&gt;Node8 -->
<g id="edge181" class="edge">
<title>Node86&#45;&gt;Node8</title>
<path fill="none" stroke="midnightblue" d="M910.75,-648.49C943.63,-639.59 996.57,-625.11 1042.14,-612 1341.31,-525.9 1431.22,-543.07 1713.14,-411 1752.83,-392.4 1794.42,-362.25 1817.63,-344.3"/>
<polygon fill="midnightblue" stroke="midnightblue" points="1819.88,-346.99 1825.59,-338.07 1815.56,-341.48 1819.88,-346.99"/>
</g>
<!-- Node86&#45;&gt;Node24 -->
<g id="edge180" class="edge">
<title>Node86&#45;&gt;Node24</title>
<path fill="none" stroke="midnightblue" d="M846.05,-648.49C720.54,-615.81 274.92,-495.86 157.14,-411 89.85,-362.52 44.14,-345.44 44.14,-262.5 44.14,-262.5 44.14,-262.5 44.14,-193.5 44.14,-152.34 59.2,-141.28 88.14,-112 101.81,-98.16 120.63,-87.36 136.69,-79.81"/>
<polygon fill="midnightblue" stroke="midnightblue" points="138.56,-82.81 146.27,-75.53 135.71,-76.42 138.56,-82.81"/>
</g>
<!-- Node86&#45;&gt;Node29 -->
<g id="edge179" class="edge">
<title>Node86&#45;&gt;Node29</title>
<path fill="none" stroke="midnightblue" d="M878.95,-648.28C877.47,-600.39 863.96,-366.93 741.14,-246 703.58,-209.02 662.74,-249.76 628.14,-210 614.63,-194.49 611.86,-170.81 612.03,-152.97"/>
<polygon fill="midnightblue" stroke="midnightblue" points="615.54,-152.87 612.45,-142.74 608.55,-152.59 615.54,-152.87"/>
</g>
<!-- Node86&#45;&gt;Node68 -->
<g id="edge177" class="edge">
<title>Node86&#45;&gt;Node68</title>
<path fill="none" stroke="midnightblue" d="M862.7,-648.43C847.38,-640.09 824.23,-626.56 806.14,-612 728.26,-549.31 650.04,-459.24 615.92,-418.27"/>
<polygon fill="midnightblue" stroke="midnightblue" points="618.58,-416 609.51,-410.53 613.19,-420.46 618.58,-416"/>
</g>
<!-- Node86&#45;&gt;Node69 -->
<g id="edge178" class="edge">
<title>Node86&#45;&gt;Node69</title>
<path fill="none" stroke="midnightblue" d="M900.82,-648.44C975.28,-619.03 1221.55,-521.78 1323.91,-481.36"/>
<polygon fill="midnightblue" stroke="midnightblue" points="1325.34,-484.56 1333.35,-477.63 1322.77,-478.05 1325.34,-484.56"/>
</g>
<!-- Node91&#45;&gt;Node38 -->
<g id="edge183" class="edge">
<title>Node91&#45;&gt;Node38</title>
<path fill="none" stroke="midnightblue" d="M1309.57,-586.92C1366.83,-562.55 1533.01,-489.59 1661.14,-411 1671.76,-404.48 1835.54,-288.14 1841.14,-277 1863.13,-233.21 1836.78,-174.63 1820.74,-145.89"/>
<polygon fill="midnightblue" stroke="midnightblue" points="1823.64,-143.92 1815.59,-137.04 1817.59,-147.44 1823.64,-143.92"/>
</g>
</g>
</svg>
