<?xml version="1.0" encoding="UTF-8" standalone="no"?>
<!DOCTYPE svg PUBLIC "-//W3C//DTD SVG 1.1//EN"
 "http://www.w3.org/Graphics/SVG/1.1/DTD/svg11.dtd">
<!-- Generated by graphviz version 3.0.0 (20220413.0242)
 -->
<!-- Title: include/veriblock/pop/config.hpp Pages: 1 -->
<svg width="3260pt" height="799pt"
 viewBox="0.00 0.00 3260.49 799.00" xmlns="http://www.w3.org/2000/svg" xmlns:xlink="http://www.w3.org/1999/xlink">
<g id="graph0" class="graph" transform="scale(1 1) rotate(0) translate(4 795)">
<title>include/veriblock/pop/config.hpp</title>
<polygon fill="white" stroke="transparent" points="-4,4 -4,-795 3256.49,-795 3256.49,4 -4,4"/>
<!-- Node1 -->
<g id="node1" class="node">
<title>Node1</title>
<g id="a_node1"><a xlink:title="Altchains must configure AltBlockTree prior any usage by providing bootstrapping Config.">
<polygon fill="#bfbfbf" stroke="black" points="1693.49,-760.5 1693.49,-790.5 1801.49,-790.5 1801.49,-760.5 1693.49,-760.5"/>
<text text-anchor="start" x="1701.49" y="-778.5" font-family="Helvetica,sans-Serif" font-size="10.00">include/veriblock/pop</text>
<text text-anchor="middle" x="1747.49" y="-767.5" font-family="Helvetica,sans-Serif" font-size="10.00">/config.hpp</text>
</a>
</g>
</g>
<!-- Node2 -->
<g id="node2" class="node">
<title>Node2</title>
<g id="a_node2"><a xlink:title=" ">
<polygon fill="white" stroke="#bfbfbf" points="2110.99,-252 2110.99,-271 2149.99,-271 2149.99,-252 2110.99,-252"/>
<text text-anchor="middle" x="2130.49" y="-259" font-family="Helvetica,sans-Serif" font-size="10.00">utility</text>
</a>
</g>
</g>
<!-- Node1&#45;&gt;Node2 -->
<g id="edge1" class="edge">
<title>Node1&#45;&gt;Node2</title>
<path fill="none" stroke="midnightblue" d="M1801.55,-772.49C2044.61,-763.11 3024.49,-721.4 3024.49,-659 3024.49,-659 3024.49,-659 3024.49,-595.5 3024.49,-344.92 2739.67,-463.73 2503.49,-380 2450.61,-361.25 2432.98,-368.48 2382.49,-344 2360.97,-333.56 2360.47,-322.45 2338.49,-313 2263.95,-280.94 2236.24,-303.38 2159.49,-277 2158.06,-276.51 2156.61,-275.96 2155.16,-275.37"/>
<polygon fill="midnightblue" stroke="midnightblue" points="2156.37,-272.08 2145.82,-271.11 2153.46,-278.44 2156.37,-272.08"/>
</g>
<!-- Node3 -->
<g id="node3" class="node">
<title>Node3</title>
<g id="a_node3"><a xlink:title=" ">
<polygon fill="white" stroke="#bfbfbf" points="2018.49,-56.5 2018.49,-75.5 2062.49,-75.5 2062.49,-56.5 2018.49,-56.5"/>
<text text-anchor="middle" x="2040.49" y="-63.5" font-family="Helvetica,sans-Serif" font-size="10.00">vector</text>
</a>
</g>
</g>
<!-- Node1&#45;&gt;Node3 -->
<g id="edge2" class="edge">
<title>Node1&#45;&gt;Node3</title>
<path fill="none" stroke="midnightblue" d="M1801.88,-773.12C2067.38,-766.05 3214.49,-731.29 3214.49,-659 3214.49,-659 3214.49,-659 3214.49,-327.5 3214.49,-129.85 3015.36,-166.92 2825.49,-112 2680.73,-70.12 2201.75,-67.01 2072.74,-66.94"/>
<polygon fill="midnightblue" stroke="midnightblue" points="2072.7,-63.44 2062.7,-66.94 2072.7,-70.44 2072.7,-63.44"/>
</g>
<!-- Node4 -->
<g id="node4" class="node">
<title>Node4</title>
<g id="a_node4"><a xlink:href="alt__chain__params_8hpp_source.html" target="_top" xlink:title=" ">
<polygon fill="white" stroke="black" points="1975.99,-581.5 1975.99,-611.5 2080.99,-611.5 2080.99,-581.5 1975.99,-581.5"/>
<text text-anchor="start" x="1983.99" y="-599.5" font-family="Helvetica,sans-Serif" font-size="10.00">blockchain/alt_chain</text>
<text text-anchor="middle" x="2028.49" y="-588.5" font-family="Helvetica,sans-Serif" font-size="10.00">_params.hpp</text>
</a>
</g>
</g>
<!-- Node1&#45;&gt;Node4 -->
<g id="edge3" class="edge">
<title>Node1&#45;&gt;Node4</title>
<path fill="none" stroke="midnightblue" d="M1770.01,-760.31C1820.08,-728.78 1940.69,-652.81 1997.68,-616.91"/>
<polygon fill="midnightblue" stroke="midnightblue" points="1999.66,-619.8 2006.26,-611.51 1995.93,-613.88 1999.66,-619.8"/>
</g>
<!-- Node35 -->
<g id="node21" class="node">
<title>Node35</title>
<g id="a_node21"><a xlink:href="serde_8hpp_source.html" target="_top" xlink:title=" ">
<polygon fill="white" stroke="black" points="1680.99,-252 1680.99,-271 1799.99,-271 1799.99,-252 1680.99,-252"/>
<text text-anchor="middle" x="1740.49" y="-259" font-family="Helvetica,sans-Serif" font-size="10.00">veriblock/pop/serde.hpp</text>
</a>
</g>
</g>
<!-- Node1&#45;&gt;Node35 -->
<g id="edge140" class="edge">
<title>Node1&#45;&gt;Node35</title>
<path fill="none" stroke="midnightblue" d="M1747.49,-760.28C1747.49,-738.48 1747.49,-695.49 1747.49,-659 1747.49,-659 1747.49,-659 1747.49,-528.5 1747.49,-435.83 1743.2,-325.05 1741.34,-281.46"/>
<polygon fill="midnightblue" stroke="midnightblue" points="1744.82,-281.06 1740.89,-271.22 1737.83,-281.37 1744.82,-281.06"/>
</g>
<!-- Node67 -->
<g id="node42" class="node">
<title>Node67</title>
<g id="a_node42"><a xlink:href="btc__chain__params_8hpp_source.html" target="_top" xlink:title=" ">
<polygon fill="white" stroke="black" points="704.49,-380.5 704.49,-410.5 812.49,-410.5 812.49,-380.5 704.49,-380.5"/>
<text text-anchor="start" x="712.49" y="-398.5" font-family="Helvetica,sans-Serif" font-size="10.00">blockchain/btc_chain</text>
<text text-anchor="middle" x="758.49" y="-387.5" font-family="Helvetica,sans-Serif" font-size="10.00">_params.hpp</text>
</a>
</g>
</g>
<!-- Node1&#45;&gt;Node67 -->
<g id="edge129" class="edge">
<title>Node1&#45;&gt;Node67</title>
<path fill="none" stroke="midnightblue" d="M1693.29,-775.32C1567.55,-776.27 1246.76,-773.2 984.49,-724 902.98,-708.71 877.78,-710.38 806.49,-668 775.69,-649.69 764.9,-643.86 748.49,-612 728.45,-573.08 734.81,-557.63 738.49,-514 741.26,-481.28 748.28,-443.97 753.22,-420.34"/>
<polygon fill="midnightblue" stroke="midnightblue" points="756.65,-421.02 755.32,-410.51 749.81,-419.56 756.65,-421.02"/>
</g>
<!-- Node68 -->
<g id="node43" class="node">
<title>Node68</title>
<g id="a_node43"><a xlink:href="vbk__chain__params_8hpp_source.html" target="_top" xlink:title=" ">
<polygon fill="white" stroke="black" points="1609.49,-447.5 1609.49,-477.5 1719.49,-477.5 1719.49,-447.5 1609.49,-447.5"/>
<text text-anchor="start" x="1617.49" y="-465.5" font-family="Helvetica,sans-Serif" font-size="10.00">blockchain/vbk_chain</text>
<text text-anchor="middle" x="1664.49" y="-454.5" font-family="Helvetica,sans-Serif" font-size="10.00">_params.hpp</text>
</a>
</g>
</g>
<!-- Node1&#45;&gt;Node68 -->
<g id="edge135" class="edge">
<title>Node1&#45;&gt;Node68</title>
<path fill="none" stroke="midnightblue" d="M1730.25,-760.43C1707.83,-740.44 1671.49,-701.49 1671.49,-659 1671.49,-659 1671.49,-659 1671.49,-595.5 1671.49,-557.95 1668.63,-514.48 1666.57,-487.99"/>
<polygon fill="midnightblue" stroke="midnightblue" points="1670.04,-487.43 1665.75,-477.75 1663.06,-487.99 1670.04,-487.43"/>
</g>
<!-- Node69 -->
<g id="node44" class="node">
<title>Node69</title>
<g id="a_node44"><a xlink:href="stateless__validation_8hpp_source.html" target="_top" xlink:title=" ">
<polygon fill="white" stroke="black" points="993.99,-704.5 993.99,-723.5 1114.99,-723.5 1114.99,-704.5 993.99,-704.5"/>
<text text-anchor="middle" x="1054.49" y="-711.5" font-family="Helvetica,sans-Serif" font-size="10.00">stateless_validation.hpp</text>
</a>
</g>
</g>
<!-- Node1&#45;&gt;Node69 -->
<g id="edge141" class="edge">
<title>Node1&#45;&gt;Node69</title>
<path fill="none" stroke="midnightblue" d="M1693.4,-769.86C1569.25,-759.2 1263.89,-732.98 1125.14,-721.07"/>
<polygon fill="midnightblue" stroke="midnightblue" points="1125.31,-717.57 1115.05,-720.2 1124.71,-724.54 1125.31,-717.57"/>
</g>
<!-- Node4&#45;&gt;Node3 -->
<g id="edge6" class="edge">
<title>Node4&#45;&gt;Node3</title>
<path fill="none" stroke="midnightblue" d="M2081.27,-590.86C2155.17,-583.83 2293.46,-568.73 2409.49,-545 2626.91,-500.53 2718.84,-551.65 2890.49,-411 2926.15,-381.78 2925.53,-359.09 2924.49,-313 2923.16,-253.18 2948.29,-226.18 2911.49,-179 2863.83,-117.88 2825.98,-129.58 2750.49,-112 2618.84,-81.34 2193.24,-70.21 2072.62,-67.63"/>
<polygon fill="midnightblue" stroke="midnightblue" points="2072.62,-64.13 2062.55,-67.42 2072.48,-71.13 2072.62,-64.13"/>
</g>
<!-- Node5 -->
<g id="node5" class="node">
<title>Node5</title>
<g id="a_node5"><a xlink:title=" ">
<polygon fill="white" stroke="#bfbfbf" points="2421.49,-185 2421.49,-204 2461.49,-204 2461.49,-185 2421.49,-185"/>
<text text-anchor="middle" x="2441.49" y="-192" font-family="Helvetica,sans-Serif" font-size="10.00">limits</text>
</a>
</g>
</g>
<!-- Node4&#45;&gt;Node5 -->
<g id="edge4" class="edge">
<title>Node4&#45;&gt;Node5</title>
<path fill="none" stroke="midnightblue" d="M2081.1,-588.39C2222.79,-568.13 2607.11,-505.36 2686.49,-411 2736.26,-351.85 2698.03,-285.35 2631.49,-246 2617.68,-237.83 2521.57,-214.4 2471.57,-202.55"/>
<polygon fill="midnightblue" stroke="midnightblue" points="2472.19,-199.09 2461.65,-200.2 2470.58,-205.91 2472.19,-199.09"/>
</g>
<!-- Node6 -->
<g id="node6" class="node">
<title>Node6</title>
<g id="a_node6"><a xlink:title=" ">
<polygon fill="white" stroke="#bfbfbf" points="1591.99,-0.5 1591.99,-19.5 1632.99,-19.5 1632.99,-0.5 1591.99,-0.5"/>
<text text-anchor="middle" x="1612.49" y="-7.5" font-family="Helvetica,sans-Serif" font-size="10.00">string</text>
</a>
</g>
</g>
<!-- Node4&#45;&gt;Node6 -->
<g id="edge5" class="edge">
<title>Node4&#45;&gt;Node6</title>
<path fill="none" stroke="midnightblue" d="M2081.09,-595.44C2315.37,-594.48 3252.49,-583.19 3252.49,-463.5 3252.49,-463.5 3252.49,-463.5 3252.49,-126.5 3252.49,-52.43 3173.55,-73.14 3101.49,-56 2955.03,-21.16 1843.21,-12.47 1643.25,-11.18"/>
<polygon fill="midnightblue" stroke="midnightblue" points="1643.17,-7.68 1633.15,-11.12 1643.13,-14.68 1643.17,-7.68"/>
</g>
<!-- Node7 -->
<g id="node7" class="node">
<title>Node7</title>
<g id="a_node7"><a xlink:href="block__index_8hpp_source.html" target="_top" xlink:title=" ">
<polygon fill="white" stroke="black" points="2296.49,-447.5 2296.49,-477.5 2420.49,-477.5 2420.49,-447.5 2296.49,-447.5"/>
<text text-anchor="start" x="2304.49" y="-465.5" font-family="Helvetica,sans-Serif" font-size="10.00">veriblock/pop/blockchain</text>
<text text-anchor="middle" x="2358.49" y="-454.5" font-family="Helvetica,sans-Serif" font-size="10.00">/block_index.hpp</text>
</a>
</g>
</g>
<!-- Node4&#45;&gt;Node7 -->
<g id="edge7" class="edge">
<title>Node4&#45;&gt;Node7</title>
<path fill="none" stroke="midnightblue" d="M2081.15,-585.19C2119.52,-576.76 2172.3,-563.26 2216.49,-545 2257.51,-528.06 2301.3,-501.47 2329.24,-483.31"/>
<polygon fill="midnightblue" stroke="midnightblue" points="2331.29,-486.14 2337.73,-477.73 2327.45,-480.29 2331.29,-486.14"/>
</g>
<!-- Node4&#45;&gt;Node35 -->
<g id="edge127" class="edge">
<title>Node4&#45;&gt;Node35</title>
<path fill="none" stroke="midnightblue" d="M1979.1,-581.37C1927.66,-563.26 1854.49,-526.44 1854.49,-463.5 1854.49,-463.5 1854.49,-463.5 1854.49,-394.5 1854.49,-340.25 1798.66,-297.28 1765.14,-276.38"/>
<polygon fill="midnightblue" stroke="midnightblue" points="1766.72,-273.24 1756.35,-271.07 1763.1,-279.23 1766.72,-273.24"/>
</g>
<!-- Node29 -->
<g id="node27" class="node">
<title>Node29</title>
<g id="a_node27"><a xlink:href="validation__state_8hpp_source.html" target="_top" xlink:title=" ">
<polygon fill="white" stroke="black" points="600.99,-112.5 600.99,-142.5 719.99,-142.5 719.99,-112.5 600.99,-112.5"/>
<text text-anchor="start" x="608.99" y="-130.5" font-family="Helvetica,sans-Serif" font-size="10.00">veriblock/pop/validation</text>
<text text-anchor="middle" x="660.49" y="-119.5" font-family="Helvetica,sans-Serif" font-size="10.00">_state.hpp</text>
</a>
</g>
</g>
<!-- Node4&#45;&gt;Node29 -->
<g id="edge128" class="edge">
<title>Node4&#45;&gt;Node29</title>
<path fill="none" stroke="midnightblue" d="M1975.72,-594.7C1801.87,-591.77 1248.33,-579.85 1073.49,-545 986.09,-527.58 776.06,-449.11 695.49,-411 643.41,-386.36 614.67,-393.09 584.49,-344 545.91,-281.23 559.66,-240.33 600.49,-179 608.18,-167.46 619.23,-157.12 629.77,-148.84"/>
<polygon fill="midnightblue" stroke="midnightblue" points="632.12,-151.45 638.03,-142.66 627.93,-145.85 632.12,-151.45"/>
</g>
<!-- Node63 -->
<g id="node38" class="node">
<title>Node63</title>
<g id="a_node38"><a xlink:href="altblock_8hpp_source.html" target="_top" xlink:title=" ">
<polygon fill="white" stroke="black" points="2098.99,-514.5 2098.99,-544.5 2207.99,-544.5 2207.99,-514.5 2098.99,-514.5"/>
<text text-anchor="start" x="2106.99" y="-532.5" font-family="Helvetica,sans-Serif" font-size="10.00">veriblock/pop/entities</text>
<text text-anchor="middle" x="2153.49" y="-521.5" font-family="Helvetica,sans-Serif" font-size="10.00">/altblock.hpp</text>
</a>
</g>
</g>
<!-- Node4&#45;&gt;Node63 -->
<g id="edge104" class="edge">
<title>Node4&#45;&gt;Node63</title>
<path fill="none" stroke="midnightblue" d="M2055.62,-581.4C2073.72,-571.98 2097.72,-559.5 2117.43,-549.26"/>
<polygon fill="midnightblue" stroke="midnightblue" points="2119.17,-552.3 2126.42,-544.58 2115.94,-546.08 2119.17,-552.3"/>
</g>
<!-- Node7&#45;&gt;Node3 -->
<g id="edge10" class="edge">
<title>Node7&#45;&gt;Node3</title>
<path fill="none" stroke="midnightblue" d="M2420.72,-457.14C2496.56,-450.78 2619.23,-436.81 2656.49,-411 2695.03,-384.31 2708.08,-358.16 2695.49,-313 2658.68,-180.93 2594,-147.2 2461.49,-112 2320.26,-74.49 2144.51,-68.1 2073.01,-67.12"/>
<polygon fill="midnightblue" stroke="midnightblue" points="2072.88,-63.62 2062.84,-67.01 2072.8,-70.62 2072.88,-63.62"/>
</g>
<!-- Node8 -->
<g id="node8" class="node">
<title>Node8</title>
<g id="a_node8"><a xlink:title=" ">
<polygon fill="white" stroke="#bfbfbf" points="1920.99,-319 1920.99,-338 1971.99,-338 1971.99,-319 1920.99,-319"/>
<text text-anchor="middle" x="1946.49" y="-326" font-family="Helvetica,sans-Serif" font-size="10.00">memory</text>
</a>
</g>
</g>
<!-- Node7&#45;&gt;Node8 -->
<g id="edge8" class="edge">
<title>Node7&#45;&gt;Node8</title>
<path fill="none" stroke="midnightblue" d="M2296.43,-456.84C2213.47,-449.81 2071.56,-434.73 2025.49,-411 1996.14,-395.88 1971.36,-365.63 1957.75,-346.54"/>
<polygon fill="midnightblue" stroke="midnightblue" points="1960.55,-344.43 1951.99,-338.18 1954.78,-348.4 1960.55,-344.43"/>
</g>
<!-- Node9 -->
<g id="node9" class="node">
<title>Node9</title>
<g id="a_node9"><a xlink:title=" ">
<polygon fill="white" stroke="#bfbfbf" points="2852.49,-185 2852.49,-204 2882.49,-204 2882.49,-185 2852.49,-185"/>
<text text-anchor="middle" x="2867.49" y="-192" font-family="Helvetica,sans-Serif" font-size="10.00">set</text>
</a>
</g>
</g>
<!-- Node7&#45;&gt;Node9 -->
<g id="edge9" class="edge">
<title>Node7&#45;&gt;Node9</title>
<path fill="none" stroke="midnightblue" d="M2420.53,-462.4C2533.8,-462.84 2768.35,-457.88 2832.49,-411 2885.03,-372.61 2878.1,-340.68 2891.49,-277 2894.33,-263.52 2894.53,-259.44 2891.49,-246 2888.86,-234.33 2883.21,-222.2 2878.04,-212.75"/>
<polygon fill="midnightblue" stroke="midnightblue" points="2881.03,-210.92 2872.99,-204.01 2874.97,-214.42 2881.03,-210.92"/>
</g>
<!-- Node10 -->
<g id="node10" class="node">
<title>Node10</title>
<g id="a_node10"><a xlink:href="algorithm_8hpp_source.html" target="_top" xlink:title=" ">
<polygon fill="white" stroke="red" points="2746.99,-252 2746.99,-271 2881.99,-271 2881.99,-252 2746.99,-252"/>
<text text-anchor="middle" x="2814.49" y="-259" font-family="Helvetica,sans-Serif" font-size="10.00">veriblock/pop/algorithm.hpp</text>
</a>
</g>
</g>
<!-- Node7&#45;&gt;Node10 -->
<g id="edge11" class="edge">
<title>Node7&#45;&gt;Node10</title>
<path fill="none" stroke="midnightblue" d="M2420.63,-459.01C2538.37,-453.66 2784.58,-439.2 2810.49,-411 2843.28,-375.33 2830.1,-312.05 2820.76,-280.88"/>
<polygon fill="midnightblue" stroke="midnightblue" points="2824.08,-279.76 2817.7,-271.3 2817.41,-281.89 2824.08,-279.76"/>
</g>
<!-- Node33 -->
<g id="node14" class="node">
<title>Node33</title>
<g id="a_node14"><a xlink:href="endorsements_8hpp_source.html" target="_top" xlink:title=" ">
<polygon fill="white" stroke="red" points="2466.99,-246.5 2466.99,-276.5 2575.99,-276.5 2575.99,-246.5 2466.99,-246.5"/>
<text text-anchor="start" x="2474.99" y="-264.5" font-family="Helvetica,sans-Serif" font-size="10.00">veriblock/pop/entities</text>
<text text-anchor="middle" x="2521.49" y="-253.5" font-family="Helvetica,sans-Serif" font-size="10.00">/endorsements.hpp</text>
</a>
</g>
</g>
<!-- Node7&#45;&gt;Node33 -->
<g id="edge17" class="edge">
<title>Node7&#45;&gt;Node33</title>
<path fill="none" stroke="midnightblue" d="M2420.75,-458.2C2493.8,-450.54 2611.55,-425.46 2663.49,-344 2686.44,-308.01 2633.62,-286.2 2586.01,-274.32"/>
<polygon fill="midnightblue" stroke="midnightblue" points="2586.81,-270.91 2576.28,-272 2585.19,-277.72 2586.81,-270.91"/>
</g>
<!-- Node43 -->
<g id="node15" class="node">
<title>Node43</title>
<g id="a_node15"><a xlink:href="vbkblock_8hpp_source.html" target="_top" xlink:title=" ">
<polygon fill="white" stroke="red" points="1355.99,-380.5 1355.99,-410.5 1464.99,-410.5 1464.99,-380.5 1355.99,-380.5"/>
<text text-anchor="start" x="1363.99" y="-398.5" font-family="Helvetica,sans-Serif" font-size="10.00">veriblock/pop/entities</text>
<text text-anchor="middle" x="1410.49" y="-387.5" font-family="Helvetica,sans-Serif" font-size="10.00">/vbkblock.hpp</text>
</a>
</g>
</g>
<!-- Node7&#45;&gt;Node43 -->
<g id="edge18" class="edge">
<title>Node7&#45;&gt;Node43</title>
<path fill="none" stroke="midnightblue" d="M2296.29,-457.24C2125.25,-445.51 1649.04,-412.86 1475.13,-400.93"/>
<polygon fill="midnightblue" stroke="midnightblue" points="1475.32,-397.44 1465.11,-400.24 1474.84,-404.42 1475.32,-397.44"/>
</g>
<!-- Node7&#45;&gt;Node29 -->
<g id="edge92" class="edge">
<title>Node7&#45;&gt;Node29</title>
<path fill="none" stroke="midnightblue" d="M2296.43,-453.29C2222.04,-443.42 2093.62,-426.27 1983.49,-411 1565.93,-353.09 1459.54,-350.81 1044.49,-277 904,-252.02 853.2,-282.84 730.49,-210 706.37,-195.68 686.43,-170.06 674.09,-151.36"/>
<polygon fill="midnightblue" stroke="midnightblue" points="676.97,-149.37 668.65,-142.81 671.07,-153.13 676.97,-149.37"/>
</g>
<!-- Node41 -->
<g id="node29" class="node">
<title>Node41</title>
<g id="a_node29"><a xlink:href="write__stream_8hpp_source.html" target="_top" xlink:title=" ">
<polygon fill="white" stroke="red" points="2311.99,-185 2311.99,-204 2402.99,-204 2402.99,-185 2311.99,-185"/>
<text text-anchor="middle" x="2357.49" y="-192" font-family="Helvetica,sans-Serif" font-size="10.00">write_stream.hpp</text>
</a>
</g>
</g>
<!-- Node7&#45;&gt;Node41 -->
<g id="edge93" class="edge">
<title>Node7&#45;&gt;Node41</title>
<path fill="none" stroke="midnightblue" d="M2420.5,-461.49C2477.27,-458.88 2561.74,-448.24 2624.49,-411 2657.63,-391.34 2666.51,-380.27 2679.49,-344 2699.83,-287.18 2640.79,-270.18 2585.49,-246 2513.54,-214.54 2488.94,-228.02 2412.49,-210 2408.05,-208.95 2403.41,-207.81 2398.8,-206.64"/>
<polygon fill="midnightblue" stroke="midnightblue" points="2399.39,-203.18 2388.83,-204.07 2397.64,-209.96 2399.39,-203.18"/>
</g>
<!-- Node16 -->
<g id="node33" class="node">
<title>Node16</title>
<g id="a_node33"><a xlink:href="logger_8hpp_source.html" target="_top" xlink:title=" ">
<polygon fill="white" stroke="red" points="2268.99,-386 2268.99,-405 2329.99,-405 2329.99,-386 2268.99,-386"/>
<text text-anchor="middle" x="2299.49" y="-393" font-family="Helvetica,sans-Serif" font-size="10.00">logger.hpp</text>
</a>
</g>
</g>
<!-- Node7&#45;&gt;Node16 -->
<g id="edge84" class="edge">
<title>Node7&#45;&gt;Node16</title>
<path fill="none" stroke="midnightblue" d="M2345.69,-447.4C2336.4,-437.16 2323.82,-423.3 2314.13,-412.62"/>
<polygon fill="midnightblue" stroke="midnightblue" points="2316.7,-410.25 2307.39,-405.19 2311.52,-414.95 2316.7,-410.25"/>
</g>
<!-- Node59 -->
<g id="node34" class="node">
<title>Node59</title>
<g id="a_node34"><a xlink:href="stored__block__index_8hpp_source.html" target="_top" xlink:title=" ">
<polygon fill="white" stroke="black" points="2390.99,-313.5 2390.99,-343.5 2511.99,-343.5 2511.99,-313.5 2390.99,-313.5"/>
<text text-anchor="start" x="2398.99" y="-331.5" font-family="Helvetica,sans-Serif" font-size="10.00">veriblock/pop/storage</text>
<text text-anchor="middle" x="2451.49" y="-320.5" font-family="Helvetica,sans-Serif" font-size="10.00">/stored_block_index.hpp</text>
</a>
</g>
</g>
<!-- Node7&#45;&gt;Node59 -->
<g id="edge87" class="edge">
<title>Node7&#45;&gt;Node59</title>
<path fill="none" stroke="midnightblue" d="M2420.6,-456.27C2450.84,-450.22 2484.66,-437.51 2503.49,-411 2517.85,-390.8 2498.35,-366.79 2479.27,-350.08"/>
<polygon fill="midnightblue" stroke="midnightblue" points="2481.42,-347.32 2471.49,-343.62 2476.95,-352.71 2481.42,-347.32"/>
</g>
<!-- Node47 -->
<g id="node35" class="node">
<title>Node47</title>
<g id="a_node35"><a xlink:href="block__status_8hpp_source.html" target="_top" xlink:title=" ">
<polygon fill="white" stroke="black" points="2168.49,-252 2168.49,-271 2258.49,-271 2258.49,-252 2168.49,-252"/>
<text text-anchor="middle" x="2213.49" y="-259" font-family="Helvetica,sans-Serif" font-size="10.00">block_status.hpp</text>
</a>
</g>
</g>
<!-- Node7&#45;&gt;Node47 -->
<g id="edge94" class="edge">
<title>Node7&#45;&gt;Node47</title>
<path fill="none" stroke="midnightblue" d="M2327.39,-447.4C2307.48,-437.95 2281.38,-424.76 2259.49,-411 2254.29,-407.73 2174.22,-349.51 2171.49,-344 2160.08,-320.96 2179.8,-294.54 2195.9,-278.18"/>
<polygon fill="midnightblue" stroke="midnightblue" points="2198.57,-280.47 2203.37,-271.02 2193.73,-275.42 2198.57,-280.47"/>
</g>
<!-- Node60 -->
<g id="node36" class="node">
<title>Node60</title>
<g id="a_node36"><a xlink:href="command_8hpp_source.html" target="_top" xlink:title=" ">
<polygon fill="white" stroke="black" points="2180.99,-319 2180.99,-338 2257.99,-338 2257.99,-319 2180.99,-319"/>
<text text-anchor="middle" x="2219.49" y="-326" font-family="Helvetica,sans-Serif" font-size="10.00">command.hpp</text>
</a>
</g>
</g>
<!-- Node7&#45;&gt;Node60 -->
<g id="edge95" class="edge">
<title>Node7&#45;&gt;Node60</title>
<path fill="none" stroke="midnightblue" d="M2358.7,-447.41C2358.22,-429.67 2354.83,-399.2 2338.49,-380 2327.4,-366.97 2287.3,-351.54 2256.68,-341.2"/>
<polygon fill="midnightblue" stroke="midnightblue" points="2257.72,-337.85 2247.13,-338.03 2255.52,-344.5 2257.72,-337.85"/>
</g>
<!-- Node61 -->
<g id="node37" class="node">
<title>Node61</title>
<g id="a_node37"><a xlink:href="command__group_8hpp_source.html" target="_top" xlink:title=" ">
<polygon fill="white" stroke="red" points="2386.99,-386 2386.99,-405 2493.99,-405 2493.99,-386 2386.99,-386"/>
<text text-anchor="middle" x="2440.49" y="-393" font-family="Helvetica,sans-Serif" font-size="10.00">command_group.hpp</text>
</a>
</g>
</g>
<!-- Node7&#45;&gt;Node61 -->
<g id="edge99" class="edge">
<title>Node7&#45;&gt;Node61</title>
<path fill="none" stroke="midnightblue" d="M2376.29,-447.4C2389.58,-436.86 2407.72,-422.48 2421.33,-411.69"/>
<polygon fill="midnightblue" stroke="midnightblue" points="2423.86,-414.15 2429.53,-405.19 2419.52,-408.66 2423.86,-414.15"/>
</g>
<!-- Node10&#45;&gt;Node3 -->
<g id="edge16" class="edge">
<title>Node10&#45;&gt;Node3</title>
<path fill="none" stroke="midnightblue" d="M2806.91,-251.95C2780.85,-222.83 2694.57,-128.34 2657.49,-112 2551.33,-65.2 2184.89,-65.34 2073.12,-66.53"/>
<polygon fill="midnightblue" stroke="midnightblue" points="2072.78,-63.03 2062.82,-66.65 2072.86,-70.03 2072.78,-63.03"/>
</g>
<!-- Node10&#45;&gt;Node9 -->
<g id="edge15" class="edge">
<title>Node10&#45;&gt;Node9</title>
<path fill="none" stroke="midnightblue" d="M2821.64,-251.73C2829.91,-241.6 2843.69,-224.69 2854,-212.06"/>
<polygon fill="midnightblue" stroke="midnightblue" points="2856.85,-214.09 2860.46,-204.13 2851.43,-209.67 2856.85,-214.09"/>
</g>
<!-- Node11 -->
<g id="node11" class="node">
<title>Node11</title>
<g id="a_node11"><a xlink:title=" ">
<polygon fill="white" stroke="#bfbfbf" points="1261.49,-56.5 1261.49,-75.5 1317.49,-75.5 1317.49,-56.5 1261.49,-56.5"/>
<text text-anchor="middle" x="1289.49" y="-63.5" font-family="Helvetica,sans-Serif" font-size="10.00">algorithm</text>
</a>
</g>
</g>
<!-- Node10&#45;&gt;Node11 -->
<g id="edge12" class="edge">
<title>Node10&#45;&gt;Node11</title>
<path fill="none" stroke="midnightblue" d="M2795.76,-251.93C2757.41,-234.81 2666.79,-196.51 2586.49,-179 2098.11,-72.49 1485.53,-66.42 1327.87,-66.74"/>
<polygon fill="midnightblue" stroke="midnightblue" points="1327.72,-63.24 1317.73,-66.77 1327.74,-70.24 1327.72,-63.24"/>
</g>
<!-- Node12 -->
<g id="node12" class="node">
<title>Node12</title>
<g id="a_node12"><a xlink:title=" ">
<polygon fill="white" stroke="#bfbfbf" points="2517.99,-185 2517.99,-204 2576.99,-204 2576.99,-185 2517.99,-185"/>
<text text-anchor="middle" x="2547.49" y="-192" font-family="Helvetica,sans-Serif" font-size="10.00">functional</text>
</a>
</g>
</g>
<!-- Node10&#45;&gt;Node12 -->
<g id="edge13" class="edge">
<title>Node10&#45;&gt;Node12</title>
<path fill="none" stroke="midnightblue" d="M2779.31,-251.94C2729.53,-239.82 2638.82,-217.73 2586.85,-205.08"/>
<polygon fill="midnightblue" stroke="midnightblue" points="2587.54,-201.65 2577,-202.68 2585.89,-208.45 2587.54,-201.65"/>
</g>
<!-- Node13 -->
<g id="node13" class="node">
<title>Node13</title>
<g id="a_node13"><a xlink:title=" ">
<polygon fill="white" stroke="#bfbfbf" points="2733.99,-56.5 2733.99,-75.5 2780.99,-75.5 2780.99,-56.5 2733.99,-56.5"/>
<text text-anchor="middle" x="2757.49" y="-63.5" font-family="Helvetica,sans-Serif" font-size="10.00">iterator</text>
</a>
</g>
</g>
<!-- Node10&#45;&gt;Node13 -->
<g id="edge14" class="edge">
<title>Node10&#45;&gt;Node13</title>
<path fill="none" stroke="midnightblue" d="M2812.03,-251.78C2805.55,-228.84 2787.4,-164.95 2771.49,-112 2768.84,-103.17 2765.82,-93.4 2763.25,-85.23"/>
<polygon fill="midnightblue" stroke="midnightblue" points="2766.57,-84.1 2760.23,-75.61 2759.89,-86.2 2766.57,-84.1"/>
</g>
<!-- Node43&#45;&gt;Node2 -->
<g id="edge21" class="edge">
<title>Node43&#45;&gt;Node2</title>
<path fill="none" stroke="midnightblue" d="M1465.2,-384.47C1608.44,-358.21 1990.94,-288.09 2100.68,-267.97"/>
<polygon fill="midnightblue" stroke="midnightblue" points="2101.51,-271.37 2110.72,-266.13 2100.25,-264.49 2101.51,-271.37"/>
</g>
<!-- Node43&#45;&gt;Node3 -->
<g id="edge22" class="edge">
<title>Node43&#45;&gt;Node3</title>
<path fill="none" stroke="midnightblue" d="M1458.37,-380.46C1560.42,-350.52 1791.49,-282.65 1808.49,-277 1889.9,-249.95 1929.2,-271.02 1989.49,-210 2023.83,-175.25 2035.18,-115.87 2038.83,-85.73"/>
<polygon fill="midnightblue" stroke="midnightblue" points="2042.32,-86.04 2039.88,-75.73 2035.36,-85.31 2042.32,-86.04"/>
</g>
<!-- Node43&#45;&gt;Node6 -->
<g id="edge20" class="edge">
<title>Node43&#45;&gt;Node6</title>
<path fill="none" stroke="midnightblue" d="M1355.62,-394.48C1100.86,-392.78 58.44,-367.02 358.49,-56 402.29,-10.61 1393.43,-10.52 1581.75,-10.91"/>
<polygon fill="midnightblue" stroke="midnightblue" points="1581.79,-14.41 1591.8,-10.93 1581.81,-7.41 1581.79,-14.41"/>
</g>
<!-- Node38 -->
<g id="node16" class="node">
<title>Node38</title>
<g id="a_node16"><a xlink:title=" ">
<polygon fill="white" stroke="#bfbfbf" points="1260.49,-118 1260.49,-137 1306.49,-137 1306.49,-118 1260.49,-118"/>
<text text-anchor="middle" x="1283.49" y="-125" font-family="Helvetica,sans-Serif" font-size="10.00">cstdint</text>
</a>
</g>
</g>
<!-- Node43&#45;&gt;Node38 -->
<g id="edge19" class="edge">
<title>Node43&#45;&gt;Node38</title>
<path fill="none" stroke="midnightblue" d="M1381.39,-380.49C1366.48,-371.91 1349.25,-359.58 1338.49,-344 1316.04,-311.49 1294.34,-193.23 1286.53,-147.11"/>
<polygon fill="midnightblue" stroke="midnightblue" points="1289.95,-146.32 1284.86,-137.03 1283.05,-147.47 1289.95,-146.32"/>
</g>
<!-- Node44 -->
<g id="node17" class="node">
<title>Node44</title>
<g id="a_node17"><a xlink:href="arith__uint256_8hpp_source.html" target="_top" xlink:title=" ">
<polygon fill="white" stroke="red" points="1350.49,-246.5 1350.49,-276.5 1446.49,-276.5 1446.49,-246.5 1350.49,-246.5"/>
<text text-anchor="start" x="1358.49" y="-264.5" font-family="Helvetica,sans-Serif" font-size="10.00">veriblock/pop/arith</text>
<text text-anchor="middle" x="1398.49" y="-253.5" font-family="Helvetica,sans-Serif" font-size="10.00">_uint256.hpp</text>
</a>
</g>
</g>
<!-- Node43&#45;&gt;Node44 -->
<g id="edge23" class="edge">
<title>Node43&#45;&gt;Node44</title>
<path fill="none" stroke="midnightblue" d="M1382.77,-380.46C1369.16,-371.94 1354.09,-359.67 1346.49,-344 1340.48,-331.6 1341.13,-325.69 1346.49,-313 1351.35,-301.52 1360.22,-291.37 1369.28,-283.24"/>
<polygon fill="midnightblue" stroke="midnightblue" points="1371.77,-285.72 1377.2,-276.62 1367.28,-280.35 1371.77,-285.72"/>
</g>
<!-- Node43&#45;&gt;Node35 -->
<g id="edge35" class="edge">
<title>Node43&#45;&gt;Node35</title>
<path fill="none" stroke="midnightblue" d="M1428.19,-380.31C1451.63,-362.18 1494.89,-331 1536.49,-313 1581.04,-293.72 1634.38,-280.84 1675.34,-272.92"/>
<polygon fill="midnightblue" stroke="midnightblue" points="1676.03,-276.35 1685.21,-271.06 1674.73,-269.47 1676.03,-276.35"/>
</g>
<!-- Node42 -->
<g id="node30" class="node">
<title>Node42</title>
<g id="a_node30"><a xlink:href="uint_8hpp_source.html" target="_top" xlink:title=" ">
<polygon fill="white" stroke="red" points="1502.99,-252 1502.99,-271 1613.99,-271 1613.99,-252 1502.99,-252"/>
<text text-anchor="middle" x="1558.49" y="-259" font-family="Helvetica,sans-Serif" font-size="10.00">veriblock/pop/uint.hpp</text>
</a>
</g>
</g>
<!-- Node43&#45;&gt;Node42 -->
<g id="edge66" class="edge">
<title>Node43&#45;&gt;Node42</title>
<path fill="none" stroke="midnightblue" d="M1416.35,-380.21C1424.19,-362.54 1439.57,-332.42 1460.49,-313 1478.7,-296.1 1503.63,-283.36 1523.79,-274.9"/>
<polygon fill="midnightblue" stroke="midnightblue" points="1525.28,-278.07 1533.25,-271.09 1522.67,-271.58 1525.28,-278.07"/>
</g>
<!-- Node52 -->
<g id="node31" class="node">
<title>Node52</title>
<g id="a_node31"><a xlink:href="btcblock_8hpp_source.html" target="_top" xlink:title=" ">
<polygon fill="white" stroke="red" points="728.99,-319 728.99,-338 799.99,-338 799.99,-319 728.99,-319"/>
<text text-anchor="middle" x="764.49" y="-326" font-family="Helvetica,sans-Serif" font-size="10.00">btcblock.hpp</text>
</a>
</g>
</g>
<!-- Node43&#45;&gt;Node52 -->
<g id="edge69" class="edge">
<title>Node43&#45;&gt;Node52</title>
<path fill="none" stroke="midnightblue" d="M1355.97,-389.01C1231.07,-376.45 926.09,-345.76 810.2,-334.1"/>
<polygon fill="midnightblue" stroke="midnightblue" points="810.53,-330.61 800.23,-333.1 809.83,-337.58 810.53,-330.61"/>
</g>
<!-- Node44&#45;&gt;Node3 -->
<g id="edge28" class="edge">
<title>Node44&#45;&gt;Node3</title>
<path fill="none" stroke="midnightblue" d="M1446.78,-248.14C1496.26,-235.3 1567.61,-216.23 1579.49,-210 1594.59,-202.09 1681.88,-118.82 1697.49,-112 1752.97,-87.77 1933.76,-73.8 2008.11,-68.95"/>
<polygon fill="midnightblue" stroke="midnightblue" points="2008.52,-72.43 2018.28,-68.3 2008.08,-65.45 2008.52,-72.43"/>
</g>
<!-- Node44&#45;&gt;Node5 -->
<g id="edge25" class="edge">
<title>Node44&#45;&gt;Node5</title>
<path fill="none" stroke="midnightblue" d="M1446.69,-252.07C1461.65,-249.74 1478.21,-247.46 1493.49,-246 1696.72,-226.57 2213.42,-259.46 2411.49,-210 2413.43,-209.52 2415.39,-208.9 2417.33,-208.2"/>
<polygon fill="midnightblue" stroke="midnightblue" points="2418.91,-211.33 2426.69,-204.14 2416.12,-204.9 2418.91,-211.33"/>
</g>
<!-- Node44&#45;&gt;Node6 -->
<g id="edge27" class="edge">
<title>Node44&#45;&gt;Node6</title>
<path fill="none" stroke="midnightblue" d="M1350.09,-256.62C1213.71,-245.63 835.87,-214.78 831.49,-210 822.19,-199.83 823.98,-190.55 831.49,-179 871.52,-117.45 914.55,-139.82 982.49,-112 1047.97,-85.2 1062.55,-71.88 1131.49,-56 1297.81,-17.69 1503.64,-11.85 1581.08,-11.07"/>
<polygon fill="midnightblue" stroke="midnightblue" points="1581.58,-14.56 1591.55,-10.99 1581.53,-7.56 1581.58,-14.56"/>
</g>
<!-- Node44&#45;&gt;Node38 -->
<g id="edge24" class="edge">
<title>Node44&#45;&gt;Node38</title>
<path fill="none" stroke="midnightblue" d="M1382.07,-246.1C1371.26,-236.33 1357.02,-222.88 1345.49,-210 1326.69,-188.98 1307.38,-162.72 1295.42,-145.78"/>
<polygon fill="midnightblue" stroke="midnightblue" points="1298.17,-143.62 1289.58,-137.42 1292.44,-147.63 1298.17,-143.62"/>
</g>
<!-- Node36 -->
<g id="node18" class="node">
<title>Node36</title>
<g id="a_node18"><a xlink:title=" ">
<polygon fill="white" stroke="#bfbfbf" points="1706.99,-118 1706.99,-137 1765.99,-137 1765.99,-118 1706.99,-118"/>
<text text-anchor="middle" x="1736.49" y="-125" font-family="Helvetica,sans-Serif" font-size="10.00">stdexcept</text>
</a>
</g>
</g>
<!-- Node44&#45;&gt;Node36 -->
<g id="edge26" class="edge">
<title>Node44&#45;&gt;Node36</title>
<path fill="none" stroke="midnightblue" d="M1446.55,-249.24C1451.26,-248.14 1455.97,-247.05 1460.49,-246 1530.24,-229.85 1552.27,-239.52 1617.49,-210 1638.96,-200.29 1641.12,-192.41 1660.49,-179 1678.51,-166.53 1699.24,-152.79 1714.49,-142.8"/>
<polygon fill="midnightblue" stroke="midnightblue" points="1716.75,-145.51 1723.21,-137.11 1712.92,-139.64 1716.75,-145.51"/>
</g>
<!-- Node37 -->
<g id="node19" class="node">
<title>Node37</title>
<g id="a_node19"><a xlink:href="consts_8hpp.html" target="_top" xlink:title="All constants in alt&#45;cpp.">
<polygon fill="white" stroke="black" points="1669.49,-185 1669.49,-204 1733.49,-204 1733.49,-185 1669.49,-185"/>
<text text-anchor="middle" x="1701.49" y="-192" font-family="Helvetica,sans-Serif" font-size="10.00">consts.hpp</text>
</a>
</g>
</g>
<!-- Node44&#45;&gt;Node37 -->
<g id="edge29" class="edge">
<title>Node44&#45;&gt;Node37</title>
<path fill="none" stroke="midnightblue" d="M1446.51,-249.04C1451.23,-247.98 1455.95,-246.95 1460.49,-246 1546.76,-227.96 1569.97,-231.29 1655.49,-210 1659.12,-209.1 1662.88,-208.07 1666.62,-206.99"/>
<polygon fill="midnightblue" stroke="midnightblue" points="1667.79,-210.29 1676.35,-204.04 1665.76,-203.59 1667.79,-210.29"/>
</g>
<!-- Node27 -->
<g id="node20" class="node">
<title>Node27</title>
<g id="a_node20"><a xlink:href="strutil_8hpp_source.html" target="_top" xlink:title=" ">
<polygon fill="white" stroke="red" points="840.99,-185 840.99,-204 899.99,-204 899.99,-185 840.99,-185"/>
<text text-anchor="middle" x="870.49" y="-192" font-family="Helvetica,sans-Serif" font-size="10.00">strutil.hpp</text>
</a>
</g>
</g>
<!-- Node44&#45;&gt;Node27 -->
<g id="edge32" class="edge">
<title>Node44&#45;&gt;Node27</title>
<path fill="none" stroke="midnightblue" d="M1350.35,-257.15C1243.97,-249.48 991.69,-229.8 908.49,-210 905.5,-209.29 902.42,-208.4 899.38,-207.41"/>
<polygon fill="midnightblue" stroke="midnightblue" points="900.5,-204.09 889.91,-204.03 898.15,-210.69 900.5,-204.09"/>
</g>
<!-- Node37&#45;&gt;Node3 -->
<g id="edge31" class="edge">
<title>Node37&#45;&gt;Node3</title>
<path fill="none" stroke="midnightblue" d="M1724.53,-184.9C1783.64,-162.85 1940.79,-104.21 2008.6,-78.9"/>
<polygon fill="midnightblue" stroke="midnightblue" points="2010.17,-82.05 2018.32,-75.28 2007.72,-75.49 2010.17,-82.05"/>
</g>
<!-- Node37&#45;&gt;Node38 -->
<g id="edge30" class="edge">
<title>Node37&#45;&gt;Node38</title>
<path fill="none" stroke="midnightblue" d="M1669.39,-188.51C1591.97,-176.47 1395.62,-145.94 1316.89,-133.69"/>
<polygon fill="midnightblue" stroke="midnightblue" points="1317.01,-130.17 1306.59,-132.09 1315.93,-137.09 1317.01,-130.17"/>
</g>
<!-- Node27&#45;&gt;Node3 -->
<g id="edge34" class="edge">
<title>Node27&#45;&gt;Node3</title>
<path fill="none" stroke="midnightblue" d="M891.18,-184.87C896.74,-182.75 902.79,-180.63 908.49,-179 1057.83,-136.27 1097.38,-131.36 1251.49,-112 1543.67,-75.3 1900.52,-68.51 2008.23,-67.27"/>
<polygon fill="midnightblue" stroke="midnightblue" points="2008.47,-70.77 2018.43,-67.16 2008.39,-63.77 2008.47,-70.77"/>
</g>
<!-- Node27&#45;&gt;Node6 -->
<g id="edge33" class="edge">
<title>Node27&#45;&gt;Node6</title>
<path fill="none" stroke="midnightblue" d="M889.18,-184.9C922.3,-169.73 993.55,-137.42 1054.49,-112 1117.49,-85.73 1131.21,-72.27 1197.49,-56 1338.13,-21.49 1512.05,-13.44 1581.62,-11.56"/>
<polygon fill="midnightblue" stroke="midnightblue" points="1581.95,-15.06 1591.87,-11.31 1581.78,-8.06 1581.95,-15.06"/>
</g>
<!-- Node35&#45;&gt;Node3 -->
<g id="edge39" class="edge">
<title>Node35&#45;&gt;Node3</title>
<path fill="none" stroke="midnightblue" d="M1788.52,-251.98C1849.93,-240.73 1950,-221.04 1963.49,-210 2000.45,-179.77 1983.47,-153.26 2007.49,-112 2013.22,-102.16 2020.65,-91.88 2027,-83.62"/>
<polygon fill="midnightblue" stroke="midnightblue" points="2029.9,-85.61 2033.34,-75.59 2024.4,-81.27 2029.9,-85.61"/>
</g>
<!-- Node35&#45;&gt;Node12 -->
<g id="edge36" class="edge">
<title>Node35&#45;&gt;Node12</title>
<path fill="none" stroke="midnightblue" d="M1800.34,-258.73C1925.3,-254.52 2222.89,-241.77 2470.49,-210 2482.6,-208.45 2495.68,-206.2 2507.56,-203.94"/>
<polygon fill="midnightblue" stroke="midnightblue" points="2508.5,-207.32 2517.64,-201.96 2507.15,-200.45 2508.5,-207.32"/>
</g>
<!-- Node35&#45;&gt;Node13 -->
<g id="edge37" class="edge">
<title>Node35&#45;&gt;Node13</title>
<path fill="none" stroke="midnightblue" d="M1800.16,-259.08C1919.18,-255.54 2181.77,-244.02 2264.49,-210 2284.65,-201.71 2282.99,-188.73 2302.49,-179 2448.49,-106.15 2645.01,-78.7 2723.27,-70.23"/>
<polygon fill="midnightblue" stroke="midnightblue" points="2723.93,-73.68 2733.51,-69.16 2723.2,-66.72 2723.93,-73.68"/>
</g>
<!-- Node35&#45;&gt;Node36 -->
<g id="edge38" class="edge">
<title>Node35&#45;&gt;Node36</title>
<path fill="none" stroke="midnightblue" d="M1762.86,-251.91C1780.16,-243.92 1802.91,-230.2 1813.49,-210 1819.89,-197.8 1820.04,-191.12 1813.49,-179 1804.22,-161.83 1786.29,-149.56 1770.06,-141.41"/>
<polygon fill="midnightblue" stroke="midnightblue" points="1771.33,-138.14 1760.78,-137.08 1768.37,-144.48 1771.33,-138.14"/>
</g>
<!-- Node35&#45;&gt;Node37 -->
<g id="edge40" class="edge">
<title>Node35&#45;&gt;Node37</title>
<path fill="none" stroke="midnightblue" d="M1735.23,-251.73C1729.27,-241.79 1719.4,-225.34 1711.87,-212.79"/>
<polygon fill="midnightblue" stroke="midnightblue" points="1714.82,-210.9 1706.67,-204.13 1708.81,-214.5 1714.82,-210.9"/>
</g>
<!-- Node35&#45;&gt;Node27 -->
<g id="edge61" class="edge">
<title>Node35&#45;&gt;Node27</title>
<path fill="none" stroke="midnightblue" d="M1688.45,-252C1673.05,-249.74 1656.12,-247.51 1640.49,-246 1316.29,-214.59 1227.28,-276.89 908.49,-210 905.41,-209.35 902.26,-208.49 899.14,-207.51"/>
<polygon fill="midnightblue" stroke="midnightblue" points="900.07,-204.13 889.47,-204.09 897.73,-210.73 900.07,-204.13"/>
</g>
<!-- Node39 -->
<g id="node22" class="node">
<title>Node39</title>
<g id="a_node22"><a xlink:href="network__byte__pair_8hpp_source.html" target="_top" xlink:title=" ">
<polygon fill="white" stroke="black" points="917.99,-179.5 917.99,-209.5 1026.99,-209.5 1026.99,-179.5 917.99,-179.5"/>
<text text-anchor="start" x="925.99" y="-197.5" font-family="Helvetica,sans-Serif" font-size="10.00">entities/network_byte</text>
<text text-anchor="middle" x="972.49" y="-186.5" font-family="Helvetica,sans-Serif" font-size="10.00">_pair.hpp</text>
</a>
</g>
</g>
<!-- Node35&#45;&gt;Node39 -->
<g id="edge41" class="edge">
<title>Node35&#45;&gt;Node39</title>
<path fill="none" stroke="midnightblue" d="M1686.61,-252C1671.7,-249.83 1655.49,-247.65 1640.49,-246 1419.77,-221.68 1156.7,-205.55 1037.24,-198.92"/>
<polygon fill="midnightblue" stroke="midnightblue" points="1037.34,-195.42 1027.16,-198.36 1036.95,-202.41 1037.34,-195.42"/>
</g>
<!-- Node40 -->
<g id="node24" class="node">
<title>Node40</title>
<g id="a_node24"><a xlink:href="read__stream_8hpp_source.html" target="_top" xlink:title=" ">
<polygon fill="white" stroke="red" points="1865.99,-185 1865.99,-204 1954.99,-204 1954.99,-185 1865.99,-185"/>
<text text-anchor="middle" x="1910.49" y="-192" font-family="Helvetica,sans-Serif" font-size="10.00">read_stream.hpp</text>
</a>
</g>
</g>
<!-- Node35&#45;&gt;Node40 -->
<g id="edge46" class="edge">
<title>Node35&#45;&gt;Node40</title>
<path fill="none" stroke="midnightblue" d="M1763.07,-251.87C1792.74,-240.52 1845.05,-220.52 1878.71,-207.65"/>
<polygon fill="midnightblue" stroke="midnightblue" points="1880.01,-210.9 1888.1,-204.06 1877.51,-204.37 1880.01,-210.9"/>
</g>
<!-- Node23 -->
<g id="node25" class="node">
<title>Node23</title>
<g id="a_node25"><a xlink:href="slice_8hpp_source.html" target="_top" xlink:title=" ">
<polygon fill="white" stroke="red" points="1481.99,-118 1481.99,-137 1536.99,-137 1536.99,-118 1481.99,-118"/>
<text text-anchor="middle" x="1509.49" y="-125" font-family="Helvetica,sans-Serif" font-size="10.00">slice.hpp</text>
</a>
</g>
</g>
<!-- Node35&#45;&gt;Node23 -->
<g id="edge60" class="edge">
<title>Node35&#45;&gt;Node23</title>
<path fill="none" stroke="midnightblue" d="M1744.01,-251.73C1749.9,-235.42 1759.55,-200.15 1742.49,-179 1718.41,-149.14 1607.04,-136.04 1547.42,-131.09"/>
<polygon fill="midnightblue" stroke="midnightblue" points="1547.51,-127.59 1537.27,-130.29 1546.96,-134.57 1547.51,-127.59"/>
</g>
<!-- Node35&#45;&gt;Node41 -->
<g id="edge62" class="edge">
<title>Node35&#45;&gt;Node41</title>
<path fill="none" stroke="midnightblue" d="M1800.21,-257.96C1902.57,-252.98 2117.87,-239.68 2297.49,-210 2303.46,-209.02 2309.7,-207.76 2315.82,-206.4"/>
<polygon fill="midnightblue" stroke="midnightblue" points="2316.97,-209.73 2325.91,-204.05 2315.38,-202.91 2316.97,-209.73"/>
</g>
<!-- Node39&#45;&gt;Node6 -->
<g id="edge43" class="edge">
<title>Node39&#45;&gt;Node6</title>
<path fill="none" stroke="midnightblue" d="M994.67,-179.39C1040.69,-150.85 1150.79,-86.4 1252.49,-56 1370.58,-20.71 1518.48,-13.08 1581.62,-11.44"/>
<polygon fill="midnightblue" stroke="midnightblue" points="1581.79,-14.94 1591.71,-11.21 1581.63,-7.94 1581.79,-14.94"/>
</g>
<!-- Node39&#45;&gt;Node38 -->
<g id="edge42" class="edge">
<title>Node39&#45;&gt;Node38</title>
<path fill="none" stroke="midnightblue" d="M1027.11,-182.02C1031.97,-181 1036.82,-179.98 1041.49,-179 1116.28,-163.34 1204.09,-145.04 1250.64,-135.34"/>
<polygon fill="midnightblue" stroke="midnightblue" points="1251.39,-138.76 1260.47,-133.29 1249.97,-131.91 1251.39,-138.76"/>
</g>
<!-- Node31 -->
<g id="node23" class="node">
<title>Node31</title>
<g id="a_node23"><a xlink:href="json_8hpp_source.html" target="_top" xlink:title=" ">
<polygon fill="white" stroke="black" points="367.99,-56.5 367.99,-75.5 420.99,-75.5 420.99,-56.5 367.99,-56.5"/>
<text text-anchor="middle" x="394.49" y="-63.5" font-family="Helvetica,sans-Serif" font-size="10.00">json.hpp</text>
</a>
</g>
</g>
<!-- Node39&#45;&gt;Node31 -->
<g id="edge44" class="edge">
<title>Node39&#45;&gt;Node31</title>
<path fill="none" stroke="midnightblue" d="M937.54,-179.49C890.69,-161.27 804.63,-129.68 728.49,-112 622.09,-87.29 493.24,-74.69 431.28,-69.68"/>
<polygon fill="midnightblue" stroke="midnightblue" points="431.46,-66.18 421.21,-68.88 430.91,-73.16 431.46,-66.18"/>
</g>
<!-- Node31&#45;&gt;Node6 -->
<g id="edge45" class="edge">
<title>Node31&#45;&gt;Node6</title>
<path fill="none" stroke="midnightblue" d="M421.21,-62.23C441.33,-60.24 469.62,-57.62 494.49,-56 925.32,-27.96 1450.74,-14.69 1581.79,-11.68"/>
<polygon fill="midnightblue" stroke="midnightblue" points="1581.98,-15.17 1591.9,-11.45 1581.82,-8.18 1581.98,-15.17"/>
</g>
<!-- Node40&#45;&gt;Node3 -->
<g id="edge48" class="edge">
<title>Node40&#45;&gt;Node3</title>
<path fill="none" stroke="midnightblue" d="M1915.27,-184.83C1924.31,-168.97 1945.19,-134.85 1969.49,-112 1982.84,-99.45 2000.16,-88.39 2014.36,-80.38"/>
<polygon fill="midnightblue" stroke="midnightblue" points="2016.07,-83.43 2023.16,-75.56 2012.71,-77.29 2016.07,-83.43"/>
</g>
<!-- Node40&#45;&gt;Node36 -->
<g id="edge47" class="edge">
<title>Node40&#45;&gt;Node36</title>
<path fill="none" stroke="midnightblue" d="M1887.39,-184.87C1857.01,-173.52 1803.48,-153.52 1769.02,-140.65"/>
<polygon fill="midnightblue" stroke="midnightblue" points="1770.01,-137.28 1759.42,-137.06 1767.56,-143.84 1770.01,-137.28"/>
</g>
<!-- Node40&#45;&gt;Node23 -->
<g id="edge49" class="edge">
<title>Node40&#45;&gt;Node23</title>
<path fill="none" stroke="midnightblue" d="M1865.66,-186.23C1786.19,-173.35 1621.97,-146.73 1547.59,-134.68"/>
<polygon fill="midnightblue" stroke="midnightblue" points="1547.72,-131.15 1537.29,-133.01 1546.6,-138.06 1547.72,-131.15"/>
</g>
<!-- Node40&#45;&gt;Node29 -->
<g id="edge54" class="edge">
<title>Node40&#45;&gt;Node29</title>
<path fill="none" stroke="midnightblue" d="M1865.96,-189.17C1832.12,-186 1784.41,-181.79 1742.49,-179 1360.71,-153.62 902.3,-136.68 730.25,-130.8"/>
<polygon fill="midnightblue" stroke="midnightblue" points="730.18,-127.3 720.07,-130.45 729.94,-134.29 730.18,-127.3"/>
</g>
<!-- Node23&#45;&gt;Node3 -->
<g id="edge53" class="edge">
<title>Node23&#45;&gt;Node3</title>
<path fill="none" stroke="midnightblue" d="M1531.01,-117.96C1537.5,-115.69 1544.71,-113.46 1551.49,-112 1720.64,-75.58 1928.94,-68.62 2008,-67.3"/>
<polygon fill="midnightblue" stroke="midnightblue" points="2008.33,-70.8 2018.28,-67.15 2008.23,-63.8 2008.33,-70.8"/>
</g>
<!-- Node23&#45;&gt;Node11 -->
<g id="edge50" class="edge">
<title>Node23&#45;&gt;Node11</title>
<path fill="none" stroke="midnightblue" d="M1481.63,-118.96C1442.59,-108.4 1371.46,-89.17 1327.56,-77.3"/>
<polygon fill="midnightblue" stroke="midnightblue" points="1328.39,-73.89 1317.83,-74.66 1326.57,-80.65 1328.39,-73.89"/>
</g>
<!-- Node23&#45;&gt;Node13 -->
<g id="edge52" class="edge">
<title>Node23&#45;&gt;Node13</title>
<path fill="none" stroke="midnightblue" d="M1537.19,-124.06C1573.84,-120.91 1640.47,-115.41 1697.49,-112 2101.22,-87.87 2592.21,-72.03 2723.75,-68.01"/>
<polygon fill="midnightblue" stroke="midnightblue" points="2724.09,-71.5 2733.98,-67.7 2723.88,-64.5 2724.09,-71.5"/>
</g>
<!-- Node24 -->
<g id="node26" class="node">
<title>Node24</title>
<g id="a_node26"><a xlink:title=" ">
<polygon fill="white" stroke="#bfbfbf" points="171.99,-56.5 171.99,-75.5 220.99,-75.5 220.99,-56.5 171.99,-56.5"/>
<text text-anchor="middle" x="196.49" y="-63.5" font-family="Helvetica,sans-Serif" font-size="10.00">cstddef</text>
</a>
</g>
</g>
<!-- Node23&#45;&gt;Node24 -->
<g id="edge51" class="edge">
<title>Node23&#45;&gt;Node24</title>
<path fill="none" stroke="midnightblue" d="M1481.71,-122.56C1456.83,-119.19 1419.3,-114.5 1386.49,-112 930.65,-77.21 815.2,-96.68 358.49,-76 314.57,-74.01 263.97,-71.1 231.18,-69.13"/>
<polygon fill="midnightblue" stroke="midnightblue" points="231.38,-65.64 221.19,-68.53 230.96,-72.63 231.38,-65.64"/>
</g>
<!-- Node29&#45;&gt;Node3 -->
<g id="edge58" class="edge">
<title>Node29&#45;&gt;Node3</title>
<path fill="none" stroke="midnightblue" d="M720.42,-121.97C763.31,-118.84 822.43,-114.77 874.49,-112 1323.57,-88.13 1870.58,-71.82 2008,-67.91"/>
<polygon fill="midnightblue" stroke="midnightblue" points="2008.36,-71.4 2018.25,-67.62 2008.16,-64.4 2008.36,-71.4"/>
</g>
<!-- Node29&#45;&gt;Node6 -->
<g id="edge57" class="edge">
<title>Node29&#45;&gt;Node6</title>
<path fill="none" stroke="midnightblue" d="M681.34,-112.31C707.43,-95.42 754.08,-67.99 798.49,-56 950.34,-14.99 1452.06,-11.27 1581.7,-11"/>
<polygon fill="midnightblue" stroke="midnightblue" points="1581.74,-14.5 1591.74,-10.99 1581.73,-7.5 1581.74,-14.5"/>
</g>
<!-- Node29&#45;&gt;Node11 -->
<g id="edge55" class="edge">
<title>Node29&#45;&gt;Node11</title>
<path fill="none" stroke="midnightblue" d="M720.17,-114.21C725.01,-113.39 729.83,-112.64 734.49,-112 927.71,-85.32 1161.1,-72.74 1251.33,-68.61"/>
<polygon fill="midnightblue" stroke="midnightblue" points="1251.53,-72.11 1261.36,-68.16 1251.22,-65.11 1251.53,-72.11"/>
</g>
<!-- Node29&#45;&gt;Node31 -->
<g id="edge59" class="edge">
<title>Node29&#45;&gt;Node31</title>
<path fill="none" stroke="midnightblue" d="M600.8,-113.15C548.76,-101.51 474.94,-84.99 431.16,-75.2"/>
<polygon fill="midnightblue" stroke="midnightblue" points="431.76,-71.75 421.24,-72.98 430.23,-78.58 431.76,-71.75"/>
</g>
<!-- Node30 -->
<g id="node28" class="node">
<title>Node30</title>
<g id="a_node28"><a xlink:title=" ">
<polygon fill="white" stroke="#bfbfbf" points="590.49,-56.5 590.49,-75.5 642.49,-75.5 642.49,-56.5 590.49,-56.5"/>
<text text-anchor="middle" x="616.49" y="-63.5" font-family="Helvetica,sans-Serif" font-size="10.00">sstream</text>
</a>
</g>
</g>
<!-- Node29&#45;&gt;Node30 -->
<g id="edge56" class="edge">
<title>Node29&#45;&gt;Node30</title>
<path fill="none" stroke="midnightblue" d="M650.07,-112.4C643.74,-103.84 635.63,-92.87 628.96,-83.86"/>
<polygon fill="midnightblue" stroke="midnightblue" points="631.66,-81.62 622.9,-75.66 626.03,-85.78 631.66,-81.62"/>
</g>
<!-- Node41&#45;&gt;Node3 -->
<g id="edge65" class="edge">
<title>Node41&#45;&gt;Node3</title>
<path fill="none" stroke="midnightblue" d="M2335.71,-184.81C2280.6,-162.82 2135.54,-104.93 2071.56,-79.4"/>
<polygon fill="midnightblue" stroke="midnightblue" points="2072.6,-76.04 2062.02,-75.59 2070.01,-82.55 2072.6,-76.04"/>
</g>
<!-- Node41&#45;&gt;Node6 -->
<g id="edge64" class="edge">
<title>Node41&#45;&gt;Node6</title>
<path fill="none" stroke="midnightblue" d="M2386.42,-184.96C2394.77,-182.74 2403.94,-180.55 2412.49,-179 2491.39,-164.74 2710.03,-194.48 2771.49,-143 2801.84,-117.59 2817.94,-84.52 2790.49,-56 2749.55,-13.46 1825.05,-11.05 1643.34,-10.99"/>
<polygon fill="midnightblue" stroke="midnightblue" points="1643.14,-7.49 1633.14,-10.98 1643.14,-14.49 1643.14,-7.49"/>
</g>
<!-- Node41&#45;&gt;Node38 -->
<g id="edge63" class="edge">
<title>Node41&#45;&gt;Node38</title>
<path fill="none" stroke="midnightblue" d="M2311.74,-185.35C2296.73,-182.95 2279.94,-180.55 2264.49,-179 1913.89,-143.81 1824.2,-164.48 1472.49,-143 1418.08,-139.68 1354.95,-134.58 1317.17,-131.4"/>
<polygon fill="midnightblue" stroke="midnightblue" points="1317.02,-127.88 1306.76,-130.52 1316.42,-134.85 1317.02,-127.88"/>
</g>
<!-- Node42&#45;&gt;Node37 -->
<g id="edge67" class="edge">
<title>Node42&#45;&gt;Node37</title>
<path fill="none" stroke="midnightblue" d="M1577.48,-251.87C1601.95,-240.75 1644.7,-221.32 1673.05,-208.43"/>
<polygon fill="midnightblue" stroke="midnightblue" points="1674.77,-211.49 1682.43,-204.17 1671.87,-205.12 1674.77,-211.49"/>
</g>
<!-- Node42&#45;&gt;Node42 -->
<g id="edge68" class="edge">
<title>Node42&#45;&gt;Node42</title>
<path fill="none" stroke="midnightblue" d="M1581.45,-271.06C1605.29,-276.87 1631.99,-273.68 1631.99,-261.5 1631.99,-250.98 1612.09,-247.17 1591.31,-250.06"/>
<polygon fill="midnightblue" stroke="midnightblue" points="1590.62,-246.63 1581.45,-251.94 1591.93,-253.5 1590.62,-246.63"/>
</g>
<!-- Node52&#45;&gt;Node2 -->
<g id="edge76" class="edge">
<title>Node52&#45;&gt;Node2</title>
<path fill="none" stroke="midnightblue" d="M800.33,-325.79C994.83,-316.54 1921.61,-272.44 2100.55,-263.92"/>
<polygon fill="midnightblue" stroke="midnightblue" points="2100.75,-267.42 2110.57,-263.45 2100.41,-260.43 2100.75,-267.42"/>
</g>
<!-- Node52&#45;&gt;Node3 -->
<g id="edge77" class="edge">
<title>Node52&#45;&gt;Node3</title>
<path fill="none" stroke="midnightblue" d="M765.9,-318.65C770.43,-293.09 787.04,-218.4 831.49,-179 906.08,-112.9 947.34,-129.28 1045.49,-112 1236.77,-78.32 1858.45,-69.1 2007.95,-67.34"/>
<polygon fill="midnightblue" stroke="midnightblue" points="2008.31,-70.84 2018.27,-67.23 2008.23,-63.84 2008.31,-70.84"/>
</g>
<!-- Node52&#45;&gt;Node6 -->
<g id="edge74" class="edge">
<title>Node52&#45;&gt;Node6</title>
<path fill="none" stroke="midnightblue" d="M728.75,-322.33C681.01,-314.68 600.16,-298.85 580.49,-277 514.79,-203.99 510.2,-123.57 581.49,-56 618.71,-20.73 1414.15,-12.55 1581.69,-11.22"/>
<polygon fill="midnightblue" stroke="midnightblue" points="1581.83,-14.72 1591.8,-11.14 1581.78,-7.72 1581.83,-14.72"/>
</g>
<!-- Node52&#45;&gt;Node11 -->
<g id="edge70" class="edge">
<title>Node52&#45;&gt;Node11</title>
<path fill="none" stroke="midnightblue" d="M763.1,-318.75C758.79,-290.63 746.79,-202.95 760.49,-179 789.68,-127.99 818.7,-130.47 874.49,-112 943.99,-88.99 1162.28,-74.27 1251.21,-69.09"/>
<polygon fill="midnightblue" stroke="midnightblue" points="1251.62,-72.57 1261.4,-68.5 1251.21,-65.58 1251.62,-72.57"/>
</g>
<!-- Node52&#45;&gt;Node38 -->
<g id="edge72" class="edge">
<title>Node52&#45;&gt;Node38</title>
<path fill="none" stroke="midnightblue" d="M781.58,-318.97C822.83,-298.38 924.75,-247.55 928.49,-246 974.85,-226.79 990.74,-232.69 1035.49,-210 1056.83,-199.18 1057.73,-188.93 1079.49,-179 1136.44,-153.01 1208.68,-139.17 1250.14,-132.87"/>
<polygon fill="midnightblue" stroke="midnightblue" points="1250.85,-136.31 1260.24,-131.4 1249.84,-129.38 1250.85,-136.31"/>
</g>
<!-- Node52&#45;&gt;Node44 -->
<g id="edge78" class="edge">
<title>Node52&#45;&gt;Node44</title>
<path fill="none" stroke="midnightblue" d="M790.21,-319C797.94,-316.72 806.5,-314.49 814.49,-313 1004.75,-277.54 1234.6,-266.9 1340.24,-263.77"/>
<polygon fill="midnightblue" stroke="midnightblue" points="1340.48,-267.26 1350.38,-263.48 1340.28,-260.26 1340.48,-267.26"/>
</g>
<!-- Node52&#45;&gt;Node27 -->
<g id="edge81" class="edge">
<title>Node52&#45;&gt;Node27</title>
<path fill="none" stroke="midnightblue" d="M784.83,-319C802.4,-310.68 827.29,-296.44 842.49,-277 857,-258.45 864.25,-231.89 867.69,-214.19"/>
<polygon fill="midnightblue" stroke="midnightblue" points="871.16,-214.69 869.4,-204.24 864.26,-213.5 871.16,-214.69"/>
</g>
<!-- Node52&#45;&gt;Node35 -->
<g id="edge80" class="edge">
<title>Node52&#45;&gt;Node35</title>
<path fill="none" stroke="midnightblue" d="M800.05,-326.55C919.16,-323.14 1315.01,-309.92 1640.49,-277 1652.49,-275.79 1665.26,-274.18 1677.52,-272.48"/>
<polygon fill="midnightblue" stroke="midnightblue" points="1678.26,-275.91 1687.66,-271.03 1677.27,-268.98 1678.26,-275.91"/>
</g>
<!-- Node52&#45;&gt;Node31 -->
<g id="edge79" class="edge">
<title>Node52&#45;&gt;Node31</title>
<path fill="none" stroke="midnightblue" d="M758.52,-318.84C747.3,-303.02 721.75,-268.94 694.49,-246 688.36,-240.84 487.5,-121.97 417.93,-80.85"/>
<polygon fill="midnightblue" stroke="midnightblue" points="419.41,-77.66 409.02,-75.58 415.85,-83.68 419.41,-77.66"/>
</g>
<!-- Node52&#45;&gt;Node24 -->
<g id="edge71" class="edge">
<title>Node52&#45;&gt;Node24</title>
<path fill="none" stroke="midnightblue" d="M728.78,-323.6C682.23,-317.65 598.93,-304.03 532.49,-277 401.43,-223.67 264.06,-120.46 215.13,-81.96"/>
<polygon fill="midnightblue" stroke="midnightblue" points="217.06,-79.02 207.05,-75.55 212.71,-84.51 217.06,-79.02"/>
</g>
<!-- Node52&#45;&gt;Node29 -->
<g id="edge83" class="edge">
<title>Node52&#45;&gt;Node29</title>
<path fill="none" stroke="midnightblue" d="M762.81,-318.7C759.26,-302.33 749.52,-266.98 728.49,-246 700.32,-217.89 668.26,-243.32 646.49,-210 635.27,-192.82 640.95,-169.41 648.15,-152.09"/>
<polygon fill="midnightblue" stroke="midnightblue" points="651.47,-153.24 652.45,-142.69 645.11,-150.33 651.47,-153.24"/>
</g>
<!-- Node52&#45;&gt;Node30 -->
<g id="edge73" class="edge">
<title>Node52&#45;&gt;Node30</title>
<path fill="none" stroke="midnightblue" d="M728.74,-327.12C691.23,-324.62 633.63,-314.41 603.49,-277 557.37,-219.74 573.05,-183.18 591.49,-112 594.04,-102.18 599.25,-92.21 604.25,-84.17"/>
<polygon fill="midnightblue" stroke="midnightblue" points="607.24,-85.99 609.87,-75.73 601.41,-82.11 607.24,-85.99"/>
</g>
<!-- Node52&#45;&gt;Node42 -->
<g id="edge82" class="edge">
<title>Node52&#45;&gt;Node42</title>
<path fill="none" stroke="midnightblue" d="M789.67,-319C797.54,-316.67 806.3,-314.4 814.49,-313 1095.76,-264.96 1171.53,-304.91 1455.49,-277 1467.97,-275.77 1481.26,-274.15 1494,-272.42"/>
<polygon fill="midnightblue" stroke="midnightblue" points="1494.65,-275.87 1504.07,-271.03 1493.69,-268.93 1494.65,-275.87"/>
</g>
<!-- Node53 -->
<g id="node32" class="node">
<title>Node53</title>
<g id="a_node32"><a xlink:title=" ">
<polygon fill="white" stroke="#bfbfbf" points="612.99,-252 612.99,-271 685.99,-271 685.99,-252 612.99,-252"/>
<text text-anchor="middle" x="649.49" y="-259" font-family="Helvetica,sans-Serif" font-size="10.00">system_error</text>
</a>
</g>
</g>
<!-- Node52&#45;&gt;Node53 -->
<g id="edge75" class="edge">
<title>Node52&#45;&gt;Node53</title>
<path fill="none" stroke="midnightblue" d="M748.98,-318.73C729.59,-307.77 696.17,-288.88 673.47,-276.05"/>
<polygon fill="midnightblue" stroke="midnightblue" points="675.19,-273 664.76,-271.13 671.74,-279.09 675.19,-273"/>
</g>
<!-- Node16&#45;&gt;Node6 -->
<g id="edge86" class="edge">
<title>Node16&#45;&gt;Node6</title>
<path fill="none" stroke="midnightblue" d="M2330.19,-388.45C2344.79,-385.68 2362.51,-382.47 2378.49,-380 2539.14,-355.13 3100.49,-425.06 3100.49,-262.5 3100.49,-262.5 3100.49,-262.5 3100.49,-126.5 3100.49,-39.34 3002.9,-73.41 2917.49,-56 2789.13,-29.83 1828.67,-14.23 1643.38,-11.45"/>
<polygon fill="midnightblue" stroke="midnightblue" points="1643.29,-7.95 1633.24,-11.3 1643.19,-14.95 1643.29,-7.95"/>
</g>
<!-- Node16&#45;&gt;Node8 -->
<g id="edge85" class="edge">
<title>Node16&#45;&gt;Node8</title>
<path fill="none" stroke="midnightblue" d="M2268.79,-388.85C2203.53,-376.83 2051.37,-348.81 1982.05,-336.05"/>
<polygon fill="midnightblue" stroke="midnightblue" points="1982.52,-332.57 1972.05,-334.21 1981.25,-339.46 1982.52,-332.57"/>
</g>
<!-- Node59&#45;&gt;Node40 -->
<g id="edge90" class="edge">
<title>Node59&#45;&gt;Node40</title>
<path fill="none" stroke="midnightblue" d="M2425.84,-313.4C2391.04,-294.91 2326.44,-262.87 2267.49,-246 2162.96,-216.08 2035.92,-203.51 1965.04,-198.53"/>
<polygon fill="midnightblue" stroke="midnightblue" points="1965.22,-195.03 1955,-197.84 1964.74,-202.01 1965.22,-195.03"/>
</g>
<!-- Node59&#45;&gt;Node41 -->
<g id="edge91" class="edge">
<title>Node59&#45;&gt;Node41</title>
<path fill="none" stroke="midnightblue" d="M2427.03,-313.37C2413.46,-304.45 2397.21,-291.82 2386.49,-277 2372.71,-257.93 2364.93,-231.68 2360.98,-214.17"/>
<polygon fill="midnightblue" stroke="midnightblue" points="2364.35,-213.19 2358.9,-204.1 2357.49,-214.6 2364.35,-213.19"/>
</g>
<!-- Node59&#45;&gt;Node47 -->
<g id="edge88" class="edge">
<title>Node59&#45;&gt;Node47</title>
<path fill="none" stroke="midnightblue" d="M2400.14,-313.48C2356.56,-301.57 2294.84,-284.72 2254.49,-273.7"/>
<polygon fill="midnightblue" stroke="midnightblue" points="2255.29,-270.29 2244.72,-271.03 2253.45,-277.04 2255.29,-270.29"/>
</g>
<!-- Node47&#45;&gt;Node38 -->
<g id="edge89" class="edge">
<title>Node47&#45;&gt;Node38</title>
<path fill="none" stroke="midnightblue" d="M2185.76,-251.97C2177.1,-249.63 2167.47,-247.38 2158.49,-246 1986.98,-219.74 1538.31,-277.59 1378.49,-210 1359.96,-202.16 1360.64,-192.25 1345.49,-179 1331.4,-166.67 1314.95,-153.31 1302.54,-143.44"/>
<polygon fill="midnightblue" stroke="midnightblue" points="1304.68,-140.67 1294.66,-137.21 1300.34,-146.16 1304.68,-140.67"/>
</g>
<!-- Node60&#45;&gt;Node6 -->
<g id="edge96" class="edge">
<title>Node60&#45;&gt;Node6</title>
<path fill="none" stroke="midnightblue" d="M2258.01,-323.88C2291.03,-320.82 2339.87,-316.4 2382.49,-313 2495.53,-303.98 2792.84,-332.9 2891.49,-277 2929.95,-255.21 2948.49,-239.7 2948.49,-195.5 2948.49,-195.5 2948.49,-195.5 2948.49,-126.5 2948.49,-57.23 2876.55,-73.37 2809.49,-56 2693.77,-26.02 1820.26,-13.59 1643.59,-11.37"/>
<polygon fill="midnightblue" stroke="midnightblue" points="1643.47,-7.87 1633.43,-11.25 1643.38,-14.87 1643.47,-7.87"/>
</g>
<!-- Node60&#45;&gt;Node29 -->
<g id="edge98" class="edge">
<title>Node60&#45;&gt;Node29</title>
<path fill="none" stroke="midnightblue" d="M2180.58,-325.09C2133.29,-322.17 2051.04,-317.13 1980.49,-313 1696.53,-296.39 1624.81,-302.43 1341.49,-277 1280.95,-271.57 856.04,-229.59 798.49,-210 756.84,-195.82 714,-168.06 687.32,-148.91"/>
<polygon fill="midnightblue" stroke="midnightblue" points="689.06,-145.85 678.92,-142.78 684.93,-151.5 689.06,-145.85"/>
</g>
<!-- Node60&#45;&gt;Node42 -->
<g id="edge97" class="edge">
<title>Node60&#45;&gt;Node42</title>
<path fill="none" stroke="midnightblue" d="M2180.9,-324.12C2073.19,-314.67 1770.74,-287.94 1671.49,-277 1656.17,-275.31 1639.71,-273.31 1624.22,-271.34"/>
<polygon fill="midnightblue" stroke="midnightblue" points="1624.56,-267.85 1614.2,-270.05 1623.67,-274.8 1624.56,-267.85"/>
</g>
<!-- Node61&#45;&gt;Node2 -->
<g id="edge100" class="edge">
<title>Node61&#45;&gt;Node2</title>
<path fill="none" stroke="midnightblue" d="M2424.01,-385.91C2405.44,-376.13 2374.47,-359.49 2348.49,-344 2326.68,-330.99 2323.77,-323.16 2300.49,-313 2241.22,-287.12 2220.1,-299.59 2159.49,-277 2158.11,-276.48 2156.7,-275.92 2155.3,-275.33"/>
<polygon fill="midnightblue" stroke="midnightblue" points="2156.72,-272.13 2146.18,-271.1 2153.78,-278.48 2156.72,-272.13"/>
</g>
<!-- Node61&#45;&gt;Node3 -->
<g id="edge101" class="edge">
<title>Node61&#45;&gt;Node3</title>
<path fill="none" stroke="midnightblue" d="M2494.05,-389.94C2553.15,-383.66 2642.68,-370.05 2663.49,-344 2685.19,-316.84 2639.9,-222.54 2586.49,-179 2506.1,-113.45 2177.44,-79.14 2072.71,-69.72"/>
<polygon fill="midnightblue" stroke="midnightblue" points="2073,-66.23 2062.73,-68.84 2072.39,-73.21 2073,-66.23"/>
</g>
<!-- Node61&#45;&gt;Node42 -->
<g id="edge102" class="edge">
<title>Node61&#45;&gt;Node42</title>
<path fill="none" stroke="midnightblue" d="M2405.43,-385.99C2376.04,-377.91 2333.68,-364.02 2300.49,-344 2282.98,-333.44 2285.33,-320.96 2266.49,-313 2144.48,-261.43 1803.37,-289.44 1671.49,-277 1656.15,-275.55 1639.67,-273.64 1624.18,-271.69"/>
<polygon fill="midnightblue" stroke="midnightblue" points="1624.53,-268.2 1614.16,-270.4 1623.63,-275.15 1624.53,-268.2"/>
</g>
<!-- Node61&#45;&gt;Node60 -->
<g id="edge103" class="edge">
<title>Node61&#45;&gt;Node60</title>
<path fill="none" stroke="midnightblue" d="M2411.15,-385.87C2371.82,-374.3 2301.94,-353.75 2258.3,-340.91"/>
<polygon fill="midnightblue" stroke="midnightblue" points="2259.19,-337.53 2248.61,-338.06 2257.22,-344.24 2259.19,-337.53"/>
</g>
<!-- Node63&#45;&gt;Node3 -->
<g id="edge107" class="edge">
<title>Node63&#45;&gt;Node3</title>
<path fill="none" stroke="midnightblue" d="M2208.1,-525.75C2355.47,-517.36 2757.24,-487.82 2861.49,-411 2922.69,-365.91 2914.85,-321.55 2906.49,-246 2903.14,-215.67 2912.01,-201.59 2891.49,-179 2856.91,-140.92 2830.26,-159.38 2781.49,-143 2741.39,-129.53 2732.95,-120.42 2691.49,-112 2571.03,-87.54 2187.03,-72.21 2072.83,-68.11"/>
<polygon fill="midnightblue" stroke="midnightblue" points="2072.76,-64.61 2062.64,-67.75 2072.51,-71.6 2072.76,-64.61"/>
</g>
<!-- Node63&#45;&gt;Node6 -->
<g id="edge106" class="edge">
<title>Node63&#45;&gt;Node6</title>
<path fill="none" stroke="midnightblue" d="M2208.37,-527.85C2311.89,-525.72 2542.65,-516.63 2732.49,-478 2921.18,-439.61 3004.34,-476.03 3144.49,-344 3172.82,-317.32 3176.49,-301.41 3176.49,-262.5 3176.49,-262.5 3176.49,-262.5 3176.49,-126.5 3176.49,-113.71 3210.92,-100.43 3057.49,-56 2917.38,-15.42 1840.07,-11.43 1643.3,-11.04"/>
<polygon fill="midnightblue" stroke="midnightblue" points="1643.1,-7.54 1633.09,-11.02 1643.09,-14.54 1643.1,-7.54"/>
</g>
<!-- Node63&#45;&gt;Node7 -->
<g id="edge116" class="edge">
<title>Node63&#45;&gt;Node7</title>
<path fill="none" stroke="midnightblue" d="M2197.72,-514.48C2229.01,-504.56 2271.13,-491.2 2304.41,-480.65"/>
<polygon fill="midnightblue" stroke="midnightblue" points="2305.52,-483.97 2313.99,-477.61 2303.4,-477.3 2305.52,-483.97"/>
</g>
<!-- Node63&#45;&gt;Node38 -->
<g id="edge105" class="edge">
<title>Node63&#45;&gt;Node38</title>
<path fill="none" stroke="midnightblue" d="M2098.84,-527.69C1899.43,-524.49 1220.97,-511.16 1189.49,-478 1096.69,-380.21 1225.48,-200.84 1269.6,-145.33"/>
<polygon fill="midnightblue" stroke="midnightblue" points="1272.57,-147.22 1276.13,-137.24 1267.13,-142.82 1272.57,-147.22"/>
</g>
<!-- Node63&#45;&gt;Node35 -->
<g id="edge122" class="edge">
<title>Node63&#45;&gt;Node35</title>
<path fill="none" stroke="midnightblue" d="M2131.53,-514.34C2098.65,-492.92 2034.98,-450.57 1983.49,-411 1930.25,-370.08 1926.06,-347.57 1868.49,-313 1840.44,-296.15 1805.75,-282.87 1779.57,-274.17"/>
<polygon fill="midnightblue" stroke="midnightblue" points="1780.57,-270.82 1769.98,-271.06 1778.41,-277.47 1780.57,-270.82"/>
</g>
<!-- Node63&#45;&gt;Node31 -->
<g id="edge121" class="edge">
<title>Node63&#45;&gt;Node31</title>
<path fill="none" stroke="midnightblue" d="M2098.97,-527.16C1930.31,-522.79 1402.14,-507.55 965.49,-478 885.22,-472.57 315.39,-449.05 244.49,-411 210.8,-392.91 203.22,-380.07 190.49,-344 171.78,-290.95 216.76,-221.53 236.49,-179 251.09,-147.54 249.93,-134.3 276.49,-112 299.81,-92.42 332.55,-80.84 357.63,-74.35"/>
<polygon fill="midnightblue" stroke="midnightblue" points="358.63,-77.71 367.52,-71.94 356.98,-70.9 358.63,-77.71"/>
</g>
<!-- Node64 -->
<g id="node39" class="node">
<title>Node64</title>
<g id="a_node39"><a xlink:href="alt__block__addon_8hpp_source.html" target="_top" xlink:title=" ">
<polygon fill="white" stroke="red" points="2530.49,-313.5 2530.49,-343.5 2654.49,-343.5 2654.49,-313.5 2530.49,-313.5"/>
<text text-anchor="start" x="2538.49" y="-331.5" font-family="Helvetica,sans-Serif" font-size="10.00">veriblock/pop/blockchain</text>
<text text-anchor="middle" x="2592.49" y="-320.5" font-family="Helvetica,sans-Serif" font-size="10.00">/alt_block_addon.hpp</text>
</a>
</g>
</g>
<!-- Node63&#45;&gt;Node64 -->
<g id="edge108" class="edge">
<title>Node63&#45;&gt;Node64</title>
<path fill="none" stroke="midnightblue" d="M2208.01,-525.85C2265.27,-521.42 2356.91,-509.59 2429.49,-478 2493.89,-449.98 2549.7,-385.86 2576.16,-351.77"/>
<polygon fill="midnightblue" stroke="midnightblue" points="2578.96,-353.86 2582.24,-343.79 2573.39,-349.62 2578.96,-353.86"/>
</g>
<!-- Node65 -->
<g id="node40" class="node">
<title>Node65</title>
<g id="a_node40"><a xlink:href="hashers_8hpp_source.html" target="_top" xlink:title=" ">
<polygon fill="white" stroke="black" points="2125.49,-185 2125.49,-204 2255.49,-204 2255.49,-185 2125.49,-185"/>
<text text-anchor="middle" x="2190.49" y="-192" font-family="Helvetica,sans-Serif" font-size="10.00">veriblock/pop/hashers.hpp</text>
</a>
</g>
</g>
<!-- Node63&#45;&gt;Node65 -->
<g id="edge117" class="edge">
<title>Node63&#45;&gt;Node65</title>
<path fill="none" stroke="midnightblue" d="M2161.31,-514.24C2174.95,-487.37 2200.15,-427.67 2183.49,-380 2160.46,-314.09 2066.36,-306.34 2101.49,-246 2112.08,-227.83 2131.9,-215.66 2150.16,-207.84"/>
<polygon fill="midnightblue" stroke="midnightblue" points="2151.5,-211.07 2159.5,-204.13 2148.92,-204.56 2151.5,-211.07"/>
</g>
<!-- Node66 -->
<g id="node41" class="node">
<title>Node66</title>
<g id="a_node41"><a xlink:href="stored__alt__block__addon_8hpp_source.html" target="_top" xlink:title=" ">
<polygon fill="white" stroke="black" points="2034.49,-380.5 2034.49,-410.5 2174.49,-410.5 2174.49,-380.5 2034.49,-380.5"/>
<text text-anchor="start" x="2042.49" y="-398.5" font-family="Helvetica,sans-Serif" font-size="10.00">veriblock/pop/storage</text>
<text text-anchor="middle" x="2104.49" y="-387.5" font-family="Helvetica,sans-Serif" font-size="10.00">/stored_alt_block_addon.hpp</text>
</a>
</g>
</g>
<!-- Node63&#45;&gt;Node66 -->
<g id="edge123" class="edge">
<title>Node63&#45;&gt;Node66</title>
<path fill="none" stroke="midnightblue" d="M2148.25,-514.37C2139.89,-491.85 2123.44,-447.53 2113.26,-420.12"/>
<polygon fill="midnightblue" stroke="midnightblue" points="2116.46,-418.68 2109.7,-410.52 2109.9,-421.12 2116.46,-418.68"/>
</g>
<!-- Node64&#45;&gt;Node3 -->
<g id="edge112" class="edge">
<title>Node64&#45;&gt;Node3</title>
<path fill="none" stroke="midnightblue" d="M2537.02,-313.46C2504.51,-303.99 2468.01,-290.75 2458.49,-277 2433.53,-240.91 2497.33,-213.72 2470.49,-179 2421.03,-115 2164.08,-80.7 2072.75,-70.39"/>
<polygon fill="midnightblue" stroke="midnightblue" points="2073.03,-66.9 2062.71,-69.27 2072.26,-73.85 2073.03,-66.9"/>
</g>
<!-- Node64&#45;&gt;Node5 -->
<g id="edge110" class="edge">
<title>Node64&#45;&gt;Node5</title>
<path fill="none" stroke="midnightblue" d="M2533.44,-313.41C2487.82,-301.93 2431.31,-286.16 2424.49,-277 2410.52,-258.21 2421.04,-230.56 2430.65,-212.8"/>
<polygon fill="midnightblue" stroke="midnightblue" points="2433.73,-214.46 2435.73,-204.06 2427.68,-210.94 2433.73,-214.46"/>
</g>
<!-- Node64&#45;&gt;Node6 -->
<g id="edge111" class="edge">
<title>Node64&#45;&gt;Node6</title>
<path fill="none" stroke="midnightblue" d="M2654.55,-324.64C2738.58,-319.69 2882.96,-306.99 2925.49,-277 2986.92,-233.69 2998.31,-178.07 2962.49,-112 2940.76,-71.9 2919.98,-69.76 2876.49,-56 2755.7,-17.79 1825.43,-11.9 1643.35,-11.11"/>
<polygon fill="midnightblue" stroke="midnightblue" points="1643.16,-7.61 1633.14,-11.07 1643.13,-14.61 1643.16,-7.61"/>
</g>
<!-- Node64&#45;&gt;Node33 -->
<g id="edge114" class="edge">
<title>Node64&#45;&gt;Node33</title>
<path fill="none" stroke="midnightblue" d="M2577.09,-313.4C2567.51,-304.62 2555.01,-293.18 2544.29,-283.37"/>
<polygon fill="midnightblue" stroke="midnightblue" points="2546.61,-280.75 2536.87,-276.58 2541.88,-285.91 2546.61,-280.75"/>
</g>
<!-- Node64&#45;&gt;Node38 -->
<g id="edge109" class="edge">
<title>Node64&#45;&gt;Node38</title>
<path fill="none" stroke="midnightblue" d="M2546.43,-313.49C2483.88,-295.04 2368.31,-262.95 2267.49,-246 2086.67,-215.6 2037.01,-242.19 1856.49,-210 1804.8,-200.78 1794.08,-188.79 1742.49,-179 1660.39,-163.42 1407.57,-139.72 1316.56,-131.46"/>
<polygon fill="midnightblue" stroke="midnightblue" points="1316.81,-127.97 1306.54,-130.55 1316.18,-134.94 1316.81,-127.97"/>
</g>
<!-- Node64&#45;&gt;Node42 -->
<g id="edge115" class="edge">
<title>Node64&#45;&gt;Node42</title>
<path fill="none" stroke="midnightblue" d="M2530.25,-314.2C2527.3,-313.76 2524.37,-313.35 2521.49,-313 2146.18,-267.02 2048.25,-309.09 1671.49,-277 1656.14,-275.69 1639.66,-273.84 1624.16,-271.89"/>
<polygon fill="midnightblue" stroke="midnightblue" points="1624.51,-268.4 1614.14,-270.6 1623.62,-275.35 1624.51,-268.4"/>
</g>
<!-- Node64&#45;&gt;Node47 -->
<g id="edge113" class="edge">
<title>Node64&#45;&gt;Node47</title>
<path fill="none" stroke="midnightblue" d="M2530.2,-314.56C2527.26,-314.02 2524.35,-313.5 2521.49,-313 2411.34,-293.8 2382.25,-298.37 2272.49,-277 2267.06,-275.94 2261.37,-274.71 2255.76,-273.41"/>
<polygon fill="midnightblue" stroke="midnightblue" points="2256.37,-269.96 2245.83,-271.05 2254.75,-276.77 2256.37,-269.96"/>
</g>
<!-- Node65&#45;&gt;Node3 -->
<g id="edge120" class="edge">
<title>Node65&#45;&gt;Node3</title>
<path fill="none" stroke="midnightblue" d="M2183.45,-185C2170.3,-169.43 2140.69,-135.75 2111.49,-112 2097.01,-100.21 2079.26,-88.97 2065.14,-80.66"/>
<polygon fill="midnightblue" stroke="midnightblue" points="2066.86,-77.62 2056.45,-75.66 2063.36,-83.68 2066.86,-77.62"/>
</g>
<!-- Node65&#45;&gt;Node6 -->
<g id="edge119" class="edge">
<title>Node65&#45;&gt;Node6</title>
<path fill="none" stroke="midnightblue" d="M2186.77,-184.98C2179.69,-169.37 2163.12,-135.63 2142.49,-112 2116.07,-81.72 2108.78,-71.01 2071.49,-56 1993.25,-24.5 1732.91,-14.37 1643.19,-11.77"/>
<polygon fill="midnightblue" stroke="midnightblue" points="1643.22,-8.27 1633.12,-11.49 1643.02,-15.27 1643.22,-8.27"/>
</g>
<!-- Node65&#45;&gt;Node38 -->
<g id="edge118" class="edge">
<title>Node65&#45;&gt;Node38</title>
<path fill="none" stroke="midnightblue" d="M2125.15,-189.04C1998.97,-180.41 1713.02,-160.68 1472.49,-143 1418.13,-139 1354.99,-134.11 1317.19,-131.15"/>
<polygon fill="midnightblue" stroke="midnightblue" points="1317.01,-127.63 1306.77,-130.33 1316.46,-134.6 1317.01,-127.63"/>
</g>
<!-- Node66&#45;&gt;Node35 -->
<g id="edge125" class="edge">
<title>Node66&#45;&gt;Node35</title>
<path fill="none" stroke="midnightblue" d="M2099.66,-380.35C2092.5,-361.67 2077.18,-329.23 2052.49,-313 2013.72,-287.5 1889.96,-273.65 1810.46,-267.19"/>
<polygon fill="midnightblue" stroke="midnightblue" points="1810.28,-263.66 1800.03,-266.36 1809.73,-270.64 1810.28,-263.66"/>
</g>
<!-- Node66&#45;&gt;Node42 -->
<g id="edge126" class="edge">
<title>Node66&#45;&gt;Node42</title>
<path fill="none" stroke="midnightblue" d="M2088.6,-380.46C2066.22,-361.58 2023.35,-328.58 1980.49,-313 1850.55,-265.76 1808.73,-293.8 1671.49,-277 1656.19,-275.13 1639.74,-273.05 1624.25,-271.07"/>
<polygon fill="midnightblue" stroke="midnightblue" points="1624.59,-267.58 1614.23,-269.78 1623.7,-274.53 1624.59,-267.58"/>
</g>
<!-- Node66&#45;&gt;Node64 -->
<g id="edge124" class="edge">
<title>Node66&#45;&gt;Node64</title>
<path fill="none" stroke="midnightblue" d="M2174.83,-387.74C2255.81,-379.56 2393.02,-364.49 2520.28,-344.12"/>
<polygon fill="midnightblue" stroke="midnightblue" points="2520.89,-347.57 2530.21,-342.52 2519.78,-340.66 2520.89,-347.57"/>
</g>
<!-- Node67&#45;&gt;Node27 -->
<g id="edge132" class="edge">
<title>Node67&#45;&gt;Node27</title>
<path fill="none" stroke="midnightblue" d="M722.97,-380.45C664.46,-355.33 558.56,-300.24 603.49,-246 631.85,-211.78 763.1,-200.57 830.43,-197.04"/>
<polygon fill="midnightblue" stroke="midnightblue" points="830.84,-200.53 840.66,-196.54 830.5,-193.54 830.84,-200.53"/>
</g>
<!-- Node67&#45;&gt;Node35 -->
<g id="edge131" class="edge">
<title>Node67&#45;&gt;Node35</title>
<path fill="none" stroke="midnightblue" d="M812.72,-387.5C950.86,-369.61 1327.22,-320.58 1640.49,-277 1650.83,-275.56 1661.76,-274.01 1672.46,-272.47"/>
<polygon fill="midnightblue" stroke="midnightblue" points="1673.21,-275.9 1682.61,-271.01 1672.21,-268.97 1673.21,-275.9"/>
</g>
<!-- Node67&#45;&gt;Node29 -->
<g id="edge134" class="edge">
<title>Node67&#45;&gt;Node29</title>
<path fill="none" stroke="midnightblue" d="M704.37,-388.56C672.76,-382.38 634.33,-369.76 609.49,-344 578.64,-312 577.56,-288.82 589.49,-246 599.65,-209.56 624.51,-173.14 641.93,-150.72"/>
<polygon fill="midnightblue" stroke="midnightblue" points="644.71,-152.85 648.2,-142.84 639.23,-148.49 644.71,-152.85"/>
</g>
<!-- Node67&#45;&gt;Node42 -->
<g id="edge133" class="edge">
<title>Node67&#45;&gt;Node42</title>
<path fill="none" stroke="midnightblue" d="M812.63,-381.94C888.97,-364.57 1032.74,-333.09 1156.49,-313 1288.61,-291.56 1322.77,-294.33 1455.49,-277 1467.53,-275.43 1480.34,-273.68 1492.69,-271.96"/>
<polygon fill="midnightblue" stroke="midnightblue" points="1493.51,-275.38 1502.93,-270.53 1492.54,-268.45 1493.51,-275.38"/>
</g>
<!-- Node67&#45;&gt;Node52 -->
<g id="edge130" class="edge">
<title>Node67&#45;&gt;Node52</title>
<path fill="none" stroke="midnightblue" d="M759.8,-380.4C760.67,-370.96 761.82,-358.45 762.77,-348.19"/>
<polygon fill="midnightblue" stroke="midnightblue" points="766.26,-348.47 763.69,-338.19 759.29,-347.83 766.26,-348.47"/>
</g>
<!-- Node68&#45;&gt;Node8 -->
<g id="edge136" class="edge">
<title>Node68&#45;&gt;Node8</title>
<path fill="none" stroke="midnightblue" d="M1694.41,-447.5C1749.39,-421.76 1865.73,-367.3 1918.92,-342.41"/>
<polygon fill="midnightblue" stroke="midnightblue" points="1920.51,-345.53 1928.09,-338.12 1917.54,-339.19 1920.51,-345.53"/>
</g>
<!-- Node68&#45;&gt;Node43 -->
<g id="edge137" class="edge">
<title>Node68&#45;&gt;Node43</title>
<path fill="none" stroke="midnightblue" d="M1609.69,-447.48C1570.13,-437.35 1516.58,-423.65 1474.96,-413"/>
<polygon fill="midnightblue" stroke="midnightblue" points="1475.75,-409.59 1465.2,-410.5 1474.02,-416.37 1475.75,-409.59"/>
</g>
<!-- Node68&#45;&gt;Node35 -->
<g id="edge138" class="edge">
<title>Node68&#45;&gt;Node35</title>
<path fill="none" stroke="midnightblue" d="M1669.96,-447.19C1683.49,-411.76 1718.53,-320 1733.53,-280.75"/>
<polygon fill="midnightblue" stroke="midnightblue" points="1736.81,-281.95 1737.11,-271.36 1730.27,-279.45 1736.81,-281.95"/>
</g>
<!-- Node68&#45;&gt;Node42 -->
<g id="edge139" class="edge">
<title>Node68&#45;&gt;Node42</title>
<path fill="none" stroke="midnightblue" d="M1656.87,-447.19C1637.92,-411.61 1588.71,-319.22 1567.95,-280.25"/>
<polygon fill="midnightblue" stroke="midnightblue" points="1571,-278.54 1563.21,-271.36 1564.83,-281.83 1571,-278.54"/>
</g>
<!-- Node69&#45;&gt;Node4 -->
<g id="edge142" class="edge">
<title>Node69&#45;&gt;Node4</title>
<path fill="none" stroke="midnightblue" d="M1115.32,-710.54C1222.99,-705.7 1453.99,-693.17 1647.49,-668 1760.49,-653.3 1890.77,-627.19 1965.98,-611.2"/>
<polygon fill="midnightblue" stroke="midnightblue" points="1966.72,-614.62 1975.77,-609.11 1965.26,-607.77 1966.72,-614.62"/>
</g>
<!-- Node69&#45;&gt;Node43 -->
<g id="edge177" class="edge">
<title>Node69&#45;&gt;Node43</title>
<path fill="none" stroke="midnightblue" d="M1064.39,-704.2C1111.86,-662 1316.86,-479.75 1386.92,-417.46"/>
<polygon fill="midnightblue" stroke="midnightblue" points="1389.25,-420.07 1394.4,-410.81 1384.6,-414.84 1389.25,-420.07"/>
</g>
<!-- Node69&#45;&gt;Node29 -->
<g id="edge188" class="edge">
<title>Node69&#45;&gt;Node29</title>
<path fill="none" stroke="midnightblue" d="M993.99,-707.59C979.42,-706.35 963.91,-705.08 949.49,-704 798.97,-692.71 365.95,-733.59 276.49,-612 214.81,-528.16 194.46,-471.27 244.49,-380 318.52,-244.95 498.39,-174.64 595.59,-145.4"/>
<polygon fill="midnightblue" stroke="midnightblue" points="596.71,-148.72 605.31,-142.53 594.72,-142.01 596.71,-148.72"/>
</g>
<!-- Node69&#45;&gt;Node52 -->
<g id="edge161" class="edge">
<title>Node69&#45;&gt;Node52</title>
<path fill="none" stroke="midnightblue" d="M993.76,-710.32C811.3,-701.46 280.49,-669.51 280.49,-597.5 280.49,-597.5 280.49,-597.5 280.49,-461.5 280.49,-371.16 598.33,-340.55 718.88,-332.19"/>
<polygon fill="midnightblue" stroke="midnightblue" points="719.16,-335.68 728.9,-331.52 718.69,-328.7 719.16,-335.68"/>
</g>
<!-- Node69&#45;&gt;Node67 -->
<g id="edge143" class="edge">
<title>Node69&#45;&gt;Node67</title>
<path fill="none" stroke="midnightblue" d="M1004.29,-704.5C918.41,-688.52 752.49,-650.76 752.49,-597.5 752.49,-597.5 752.49,-597.5 752.49,-528.5 752.49,-490.96 754.95,-447.49 756.71,-421"/>
<polygon fill="midnightblue" stroke="midnightblue" points="760.22,-420.97 757.42,-410.75 753.24,-420.48 760.22,-420.97"/>
</g>
<!-- Node69&#45;&gt;Node68 -->
<g id="edge144" class="edge">
<title>Node69&#45;&gt;Node68</title>
<path fill="none" stroke="midnightblue" d="M1115.25,-710.46C1174.77,-706.38 1267.23,-695.74 1342.49,-668 1464.63,-622.98 1589.04,-526.53 1640.23,-484.17"/>
<polygon fill="midnightblue" stroke="midnightblue" points="1642.65,-486.71 1648.08,-477.62 1638.16,-481.34 1642.65,-486.71"/>
</g>
<!-- Node70 -->
<g id="node45" class="node">
<title>Node70</title>
<g id="a_node45"><a xlink:href="secp256k1_8hpp_source.html" target="_top" xlink:title=" ">
<polygon fill="white" stroke="red" points="1387.99,-185 1387.99,-204 1498.99,-204 1498.99,-185 1387.99,-185"/>
<text text-anchor="middle" x="1443.49" y="-192" font-family="Helvetica,sans-Serif" font-size="10.00">crypto/secp256k1.hpp</text>
</a>
</g>
</g>
<!-- Node69&#45;&gt;Node70 -->
<g id="edge145" class="edge">
<title>Node69&#45;&gt;Node70</title>
<path fill="none" stroke="midnightblue" d="M1049.88,-704.37C1034.09,-674.28 982.25,-570.73 965.49,-478 957.35,-432.91 972.91,-418.66 997.49,-380 1018.17,-347.49 1020.43,-334.36 1052.49,-313 1154.14,-245.28 1296.1,-215.49 1378.05,-203.25"/>
<polygon fill="midnightblue" stroke="midnightblue" points="1378.59,-206.71 1387.98,-201.81 1377.58,-199.78 1378.59,-206.71"/>
</g>
<!-- Node71 -->
<g id="node46" class="node">
<title>Node71</title>
<g id="a_node46"><a xlink:href="atv_8hpp_source.html" target="_top" xlink:title=" ">
<polygon fill="white" stroke="red" points="1198.99,-453 1198.99,-472 1281.99,-472 1281.99,-453 1198.99,-453"/>
<text text-anchor="middle" x="1240.49" y="-460" font-family="Helvetica,sans-Serif" font-size="10.00">entities/atv.hpp</text>
</a>
</g>
</g>
<!-- Node69&#45;&gt;Node71 -->
<g id="edge151" class="edge">
<title>Node69&#45;&gt;Node71</title>
<path fill="none" stroke="midnightblue" d="M1062.78,-704.38C1085.61,-680.4 1150.68,-610.31 1195.49,-545 1209.73,-524.25 1223.29,-498.6 1231.74,-481.68"/>
<polygon fill="midnightblue" stroke="midnightblue" points="1235.03,-482.91 1236.29,-472.39 1228.75,-479.83 1235.03,-482.91"/>
</g>
<!-- Node80 -->
<g id="node47" class="node">
<title>Node80</title>
<g id="a_node47"><a xlink:href="popdata_8hpp_source.html" target="_top" xlink:title=" ">
<polygon fill="white" stroke="black" points="1082.49,-520 1082.49,-539 1186.49,-539 1186.49,-520 1082.49,-520"/>
<text text-anchor="middle" x="1134.49" y="-527" font-family="Helvetica,sans-Serif" font-size="10.00">entities/popdata.hpp</text>
</a>
</g>
</g>
<!-- Node69&#45;&gt;Node80 -->
<g id="edge162" class="edge">
<title>Node69&#45;&gt;Node80</title>
<path fill="none" stroke="midnightblue" d="M1054.2,-704.34C1053.84,-682.26 1055.25,-622.71 1078.49,-581 1086.6,-566.46 1100.46,-553.91 1112.37,-544.95"/>
<polygon fill="midnightblue" stroke="midnightblue" points="1114.48,-547.75 1120.58,-539.09 1110.41,-542.05 1114.48,-547.75"/>
</g>
<!-- Node81 -->
<g id="node48" class="node">
<title>Node81</title>
<g id="a_node48"><a xlink:href="vtb_8hpp_source.html" target="_top" xlink:title=" ">
<polygon fill="white" stroke="red" points="974.49,-453 974.49,-472 1022.49,-472 1022.49,-453 974.49,-453"/>
<text text-anchor="middle" x="998.49" y="-460" font-family="Helvetica,sans-Serif" font-size="10.00">vtb.hpp</text>
</a>
</g>
</g>
<!-- Node69&#45;&gt;Node81 -->
<g id="edge178" class="edge">
<title>Node69&#45;&gt;Node81</title>
<path fill="none" stroke="midnightblue" d="M1052.57,-704.41C1044.57,-668.8 1013.93,-532.25 1002.67,-482.11"/>
<polygon fill="midnightblue" stroke="midnightblue" points="1006.02,-481.04 1000.41,-472.05 999.19,-482.58 1006.02,-481.04"/>
</g>
<!-- Node85 -->
<g id="node49" class="node">
<title>Node85</title>
<g id="a_node49"><a xlink:href="pop__stateless__validator_8hpp_source.html" target="_top" xlink:title=" ">
<polygon fill="white" stroke="red" points="1196.99,-648.5 1196.99,-667.5 1333.99,-667.5 1333.99,-648.5 1196.99,-648.5"/>
<text text-anchor="middle" x="1265.49" y="-655.5" font-family="Helvetica,sans-Serif" font-size="10.00">pop_stateless_validator.hpp</text>
</a>
</g>
</g>
<!-- Node69&#45;&gt;Node85 -->
<g id="edge179" class="edge">
<title>Node69&#45;&gt;Node85</title>
<path fill="none" stroke="midnightblue" d="M1087.93,-704.44C1124.35,-695.12 1182.72,-680.18 1222.52,-670"/>
<polygon fill="midnightblue" stroke="midnightblue" points="1223.4,-673.39 1232.22,-667.52 1221.66,-666.61 1223.4,-673.39"/>
</g>
<!-- Node90 -->
<g id="node50" class="node">
<title>Node90</title>
<g id="a_node50"><a xlink:href="time_8hpp_source.html" target="_top" xlink:title=" ">
<polygon fill="white" stroke="red" points="820.99,-587 820.99,-606 873.99,-606 873.99,-587 820.99,-587"/>
<text text-anchor="middle" x="847.49" y="-594" font-family="Helvetica,sans-Serif" font-size="10.00">time.hpp</text>
</a>
</g>
</g>
<!-- Node69&#45;&gt;Node90 -->
<g id="edge186" class="edge">
<title>Node69&#45;&gt;Node90</title>
<path fill="none" stroke="midnightblue" d="M993.84,-707.88C960,-702.43 918.7,-691.17 888.49,-668 871.17,-654.71 859.84,-631.85 853.57,-615.77"/>
<polygon fill="midnightblue" stroke="midnightblue" points="856.86,-614.57 850.17,-606.35 850.27,-616.94 856.86,-614.57"/>
</g>
<!-- Node70&#45;&gt;Node3 -->
<g id="edge150" class="edge">
<title>Node70&#45;&gt;Node3</title>
<path fill="none" stroke="midnightblue" d="M1443.69,-184.86C1444.59,-167.78 1449.25,-129.82 1472.49,-112 1515.13,-79.32 1894.44,-69.7 2008.31,-67.53"/>
<polygon fill="midnightblue" stroke="midnightblue" points="2008.55,-71.03 2018.48,-67.35 2008.42,-64.03 2008.55,-71.03"/>
</g>
<!-- Node70&#45;&gt;Node38 -->
<g id="edge148" class="edge">
<title>Node70&#45;&gt;Node38</title>
<path fill="none" stroke="midnightblue" d="M1422.25,-184.87C1394.56,-173.62 1345.94,-153.87 1314.23,-140.99"/>
<polygon fill="midnightblue" stroke="midnightblue" points="1315.16,-137.58 1304.57,-137.06 1312.52,-144.07 1315.16,-137.58"/>
</g>
<!-- Node70&#45;&gt;Node36 -->
<g id="edge149" class="edge">
<title>Node70&#45;&gt;Node36</title>
<path fill="none" stroke="midnightblue" d="M1482.1,-184.94C1537.84,-172.57 1640.33,-149.83 1696.71,-137.33"/>
<polygon fill="midnightblue" stroke="midnightblue" points="1697.68,-140.7 1706.68,-135.11 1696.16,-133.86 1697.68,-140.7"/>
</g>
<!-- Node70&#45;&gt;Node23 -->
<g id="edge146" class="edge">
<title>Node70&#45;&gt;Node23</title>
<path fill="none" stroke="midnightblue" d="M1452.4,-184.73C1462.89,-174.4 1480.52,-157.04 1493.42,-144.33"/>
<polygon fill="midnightblue" stroke="midnightblue" points="1496.07,-146.64 1500.73,-137.13 1491.15,-141.65 1496.07,-146.64"/>
</g>
<!-- Node70&#45;&gt;Node24 -->
<g id="edge147" class="edge">
<title>Node70&#45;&gt;Node24</title>
<path fill="none" stroke="midnightblue" d="M1434.13,-184.97C1414.13,-167.38 1365.04,-127.45 1315.49,-112 1213.91,-80.32 464.79,-80.95 358.49,-76 314.57,-73.95 263.98,-71.06 231.18,-69.11"/>
<polygon fill="midnightblue" stroke="midnightblue" points="231.38,-65.61 221.19,-68.51 230.96,-72.6 231.38,-65.61"/>
</g>
<!-- Node71&#45;&gt;Node3 -->
<g id="edge155" class="edge">
<title>Node71&#45;&gt;Node3</title>
<path fill="none" stroke="midnightblue" d="M1282.12,-455.92C1336.05,-448.21 1432.74,-432.75 1513.49,-411 1684.39,-364.98 1726.6,-348.51 1888.49,-277 1946.51,-251.37 1970.9,-256.07 2014.49,-210 2045.89,-176.82 2048.02,-157.61 2045.49,-112 2045.02,-103.36 2044.02,-93.83 2043.05,-85.77"/>
<polygon fill="midnightblue" stroke="midnightblue" points="2046.49,-85.07 2041.74,-75.6 2039.55,-85.97 2046.49,-85.07"/>
</g>
<!-- Node71&#45;&gt;Node6 -->
<g id="edge154" class="edge">
<title>Node71&#45;&gt;Node6</title>
<path fill="none" stroke="midnightblue" d="M1282.07,-459.82C1349.09,-457.11 1485.18,-451.62 1600.49,-447 2001.82,-430.92 2103.13,-443.18 2503.49,-411 2792.4,-387.78 3138.49,-552.34 3138.49,-262.5 3138.49,-262.5 3138.49,-262.5 3138.49,-126.5 3138.49,-109.93 3186.42,-103.27 3009.49,-56 2873.52,-19.67 1836.69,-12.23 1643.45,-11.15"/>
<polygon fill="midnightblue" stroke="midnightblue" points="1643.18,-7.65 1633.16,-11.1 1643.14,-14.65 1643.18,-7.65"/>
</g>
<!-- Node71&#45;&gt;Node43 -->
<g id="edge156" class="edge">
<title>Node71&#45;&gt;Node43</title>
<path fill="none" stroke="midnightblue" d="M1263.07,-452.87C1288.8,-443.03 1331.54,-426.69 1364.39,-414.13"/>
<polygon fill="midnightblue" stroke="midnightblue" points="1365.72,-417.37 1373.81,-410.53 1363.22,-410.83 1365.72,-417.37"/>
</g>
<!-- Node71&#45;&gt;Node38 -->
<g id="edge153" class="edge">
<title>Node71&#45;&gt;Node38</title>
<path fill="none" stroke="midnightblue" d="M1241.6,-452.93C1247.26,-409.13 1272.99,-209.83 1281.07,-147.31"/>
<polygon fill="midnightblue" stroke="midnightblue" points="1284.59,-147.38 1282.4,-137.01 1277.64,-146.48 1284.59,-147.38"/>
</g>
<!-- Node71&#45;&gt;Node37 -->
<g id="edge157" class="edge">
<title>Node71&#45;&gt;Node37</title>
<path fill="none" stroke="midnightblue" d="M1245.44,-452.88C1254.76,-437.12 1276.2,-403.15 1300.49,-380 1360.37,-322.94 1388.93,-326.09 1455.49,-277 1473.04,-264.06 1473.9,-255.54 1493.49,-246 1559.04,-214.11 1583.01,-228.55 1653.49,-210 1657.12,-209.05 1660.88,-208 1664.63,-206.93"/>
<polygon fill="midnightblue" stroke="midnightblue" points="1665.82,-210.23 1674.43,-204.05 1663.85,-203.51 1665.82,-210.23"/>
</g>
<!-- Node71&#45;&gt;Node35 -->
<g id="edge159" class="edge">
<title>Node71&#45;&gt;Node35</title>
<path fill="none" stroke="midnightblue" d="M1282.02,-457.56C1329.86,-451.89 1410.02,-438.87 1473.49,-411 1542.7,-380.61 1545.98,-348.9 1612.49,-313 1642.04,-297.05 1677.72,-283.39 1703.9,-274.32"/>
<polygon fill="midnightblue" stroke="midnightblue" points="1705.1,-277.61 1713.44,-271.07 1702.84,-270.98 1705.1,-277.61"/>
</g>
<!-- Node71&#45;&gt;Node31 -->
<g id="edge158" class="edge">
<title>Node71&#45;&gt;Node31</title>
<path fill="none" stroke="midnightblue" d="M1198.62,-458.7C1079.26,-450.58 742.88,-426.59 695.49,-411 532.3,-357.33 429.87,-148.45 402.13,-85.23"/>
<polygon fill="midnightblue" stroke="midnightblue" points="405.24,-83.58 398.07,-75.78 398.8,-86.35 405.24,-83.58"/>
</g>
<!-- Node71&#45;&gt;Node24 -->
<g id="edge152" class="edge">
<title>Node71&#45;&gt;Node24</title>
<path fill="none" stroke="midnightblue" d="M1198.67,-458.59C1065.04,-449.22 655.58,-419.94 628.49,-411 467.57,-357.89 429.68,-324.21 304.49,-210 261.73,-170.98 224.08,-113.14 206.7,-84.45"/>
<polygon fill="midnightblue" stroke="midnightblue" points="209.55,-82.39 201.42,-75.6 203.53,-85.98 209.55,-82.39"/>
</g>
<!-- Node71&#45;&gt;Node42 -->
<g id="edge160" class="edge">
<title>Node71&#45;&gt;Node42</title>
<path fill="none" stroke="midnightblue" d="M1250.65,-452.87C1269.09,-437.37 1309.62,-404.2 1346.49,-380 1410.66,-337.89 1491,-296.14 1531.9,-275.62"/>
<polygon fill="midnightblue" stroke="midnightblue" points="1533.56,-278.7 1540.95,-271.1 1530.44,-272.43 1533.56,-278.7"/>
</g>
<!-- Node80&#45;&gt;Node3 -->
<g id="edge164" class="edge">
<title>Node80&#45;&gt;Node3</title>
<path fill="none" stroke="midnightblue" d="M1186.91,-526.74C1312.49,-522.09 1627.61,-507.75 1728.49,-478 1850.16,-442.12 1893.89,-436.68 1980.49,-344 2046.14,-273.75 2046.6,-238.14 2060.49,-143 2062.49,-129.37 2063.35,-125.48 2060.49,-112 2058.5,-102.59 2054.39,-92.76 2050.42,-84.7"/>
<polygon fill="midnightblue" stroke="midnightblue" points="2053.38,-82.81 2045.62,-75.59 2047.19,-86.07 2053.38,-82.81"/>
</g>
<!-- Node80&#45;&gt;Node38 -->
<g id="edge163" class="edge">
<title>Node80&#45;&gt;Node38</title>
<path fill="none" stroke="midnightblue" d="M1131.75,-519.66C1121.11,-485.37 1083.1,-362.17 1080.49,-344 1078.54,-330.36 1075.77,-325.94 1080.49,-313 1107.23,-239.83 1133.45,-228.64 1193.49,-179 1212.07,-163.64 1235.98,-150.48 1254.49,-141.44"/>
<polygon fill="midnightblue" stroke="midnightblue" points="1256.09,-144.56 1263.62,-137.11 1253.08,-138.24 1256.09,-144.56"/>
</g>
<!-- Node80&#45;&gt;Node35 -->
<g id="edge165" class="edge">
<title>Node80&#45;&gt;Node35</title>
<path fill="none" stroke="midnightblue" d="M1174.58,-519.96C1245.26,-504.07 1395.7,-466.45 1513.49,-411 1596.33,-372 1684.27,-306.59 1721.79,-277.38"/>
<polygon fill="midnightblue" stroke="midnightblue" points="1724.1,-280.01 1729.81,-271.08 1719.78,-274.5 1724.1,-280.01"/>
</g>
<!-- Node80&#45;&gt;Node23 -->
<g id="edge166" class="edge">
<title>Node80&#45;&gt;Node23</title>
<path fill="none" stroke="midnightblue" d="M1128.16,-519.93C1117.98,-505.08 1099.95,-473.58 1108.49,-447 1119.7,-412.12 1130.66,-405.97 1156.49,-380 1228.1,-308.02 1248.8,-287.42 1341.49,-246 1410.42,-215.2 1459.39,-268.18 1507.49,-210 1521.9,-192.57 1519.11,-165.16 1514.97,-147.01"/>
<polygon fill="midnightblue" stroke="midnightblue" points="1518.35,-146.09 1512.43,-137.31 1511.58,-147.87 1518.35,-146.09"/>
</g>
<!-- Node80&#45;&gt;Node71 -->
<g id="edge167" class="edge">
<title>Node80&#45;&gt;Node71</title>
<path fill="none" stroke="midnightblue" d="M1148.79,-519.73C1166.51,-508.87 1196.93,-490.22 1217.84,-477.39"/>
<polygon fill="midnightblue" stroke="midnightblue" points="1219.73,-480.34 1226.43,-472.13 1216.07,-474.37 1219.73,-480.34"/>
</g>
<!-- Node80&#45;&gt;Node81 -->
<g id="edge168" class="edge">
<title>Node80&#45;&gt;Node81</title>
<path fill="none" stroke="midnightblue" d="M1116.43,-519.87C1093.27,-508.8 1052.87,-489.49 1025.9,-476.6"/>
<polygon fill="midnightblue" stroke="midnightblue" points="1027.16,-473.32 1016.63,-472.17 1024.14,-479.64 1027.16,-473.32"/>
</g>
<!-- Node81&#45;&gt;Node3 -->
<g id="edge174" class="edge">
<title>Node81&#45;&gt;Node3</title>
<path fill="none" stroke="midnightblue" d="M997.83,-452.88C997.05,-436.81 997.6,-401.93 1014.49,-380 1056.1,-325.99 1089.6,-339.32 1152.49,-313 1234.71,-278.6 1255.77,-270.38 1341.49,-246 1414.11,-225.35 1437.89,-239.24 1507.49,-210 1580.57,-179.3 1582.02,-139.12 1656.49,-112 1721.08,-88.48 1928.1,-73.79 2008.31,-68.86"/>
<polygon fill="midnightblue" stroke="midnightblue" points="2008.56,-72.35 2018.33,-68.25 2008.13,-65.36 2008.56,-72.35"/>
</g>
<!-- Node81&#45;&gt;Node6 -->
<g id="edge175" class="edge">
<title>Node81&#45;&gt;Node6</title>
<path fill="none" stroke="midnightblue" d="M974.17,-461.5C860.87,-461.26 384.59,-457.44 244.49,-411 129,-372.71 14.49,-384.18 14.49,-262.5 14.49,-262.5 14.49,-262.5 14.49,-126.5 14.49,-103.31 -67.23,-109.21 162.49,-56 305.1,-22.97 1384.5,-12.82 1581.64,-11.23"/>
<polygon fill="midnightblue" stroke="midnightblue" points="1581.89,-14.73 1591.86,-11.15 1581.83,-7.73 1581.89,-14.73"/>
</g>
<!-- Node81&#45;&gt;Node43 -->
<g id="edge176" class="edge">
<title>Node81&#45;&gt;Node43</title>
<path fill="none" stroke="midnightblue" d="M1022.73,-457.68C1085.08,-447.84 1252.65,-421.4 1345.8,-406.71"/>
<polygon fill="midnightblue" stroke="midnightblue" points="1346.62,-410.12 1355.96,-405.1 1345.53,-403.21 1346.62,-410.12"/>
</g>
<!-- Node81&#45;&gt;Node38 -->
<g id="edge173" class="edge">
<title>Node81&#45;&gt;Node38</title>
<path fill="none" stroke="midnightblue" d="M990.9,-452.96C983.04,-443.48 971.24,-427.35 966.49,-411 954.36,-369.17 948.57,-352.7 966.49,-313 998.43,-242.27 1040.92,-249.87 1107.49,-210 1129.28,-196.95 1132.91,-190.61 1155.49,-179 1186.77,-162.93 1224.4,-148.64 1250.73,-139.4"/>
<polygon fill="midnightblue" stroke="midnightblue" points="1251.93,-142.69 1260.24,-136.12 1249.64,-136.08 1251.93,-142.69"/>
</g>
<!-- Node81&#45;&gt;Node35 -->
<g id="edge170" class="edge">
<title>Node81&#45;&gt;Node35</title>
<path fill="none" stroke="midnightblue" d="M1022.7,-452.97C1092.63,-428.57 1301.21,-357.37 1478.49,-313 1545.72,-296.17 1623.86,-281.77 1677.19,-272.7"/>
<polygon fill="midnightblue" stroke="midnightblue" points="1677.9,-276.13 1687.18,-271.01 1676.74,-269.23 1677.9,-276.13"/>
</g>
<!-- Node81&#45;&gt;Node31 -->
<g id="edge169" class="edge">
<title>Node81&#45;&gt;Node31</title>
<path fill="none" stroke="midnightblue" d="M974.45,-459.2C943.81,-456.29 889.23,-451.16 842.49,-447 711.01,-435.31 330.74,-453.81 257.49,-344 199.12,-256.48 237.39,-193.02 304.49,-112 318.29,-95.35 339.78,-84.28 358.3,-77.29"/>
<polygon fill="midnightblue" stroke="midnightblue" points="359.66,-80.52 367.94,-73.91 357.34,-73.92 359.66,-80.52"/>
</g>
<!-- Node81&#45;&gt;Node24 -->
<g id="edge172" class="edge">
<title>Node81&#45;&gt;Node24</title>
<path fill="none" stroke="midnightblue" d="M974.46,-459.07C943.84,-456.01 889.27,-450.72 842.49,-447 721.5,-437.38 406.62,-464.14 297.49,-411 175.74,-351.7 179.4,-275.73 152.49,-143 149.76,-129.5 147.29,-124.76 152.49,-112 157.29,-100.23 166.82,-89.86 175.79,-82.05"/>
<polygon fill="midnightblue" stroke="midnightblue" points="178.14,-84.64 183.71,-75.63 173.74,-79.2 178.14,-84.64"/>
</g>
<!-- Node81&#45;&gt;Node42 -->
<g id="edge171" class="edge">
<title>Node81&#45;&gt;Node42</title>
<path fill="none" stroke="midnightblue" d="M1000.62,-452.8C1005.2,-435.95 1017.66,-398.87 1042.49,-380 1079.08,-352.19 1373.68,-296.08 1500.63,-272.89"/>
<polygon fill="midnightblue" stroke="midnightblue" points="1501.35,-276.31 1510.57,-271.08 1500.1,-269.43 1501.35,-276.31"/>
</g>
<!-- Node85&#45;&gt;Node4 -->
<g id="edge180" class="edge">
<title>Node85&#45;&gt;Node4</title>
<path fill="none" stroke="midnightblue" d="M1334.21,-651.64C1481.09,-640.19 1823.72,-613.47 1965.42,-602.42"/>
<polygon fill="midnightblue" stroke="midnightblue" points="1965.98,-605.89 1975.68,-601.62 1965.44,-598.91 1965.98,-605.89"/>
</g>
<!-- Node85&#45;&gt;Node8 -->
<g id="edge185" class="edge">
<title>Node85&#45;&gt;Node8</title>
<path fill="none" stroke="midnightblue" d="M1293.3,-648.42C1320.93,-639.75 1364.41,-625.72 1401.49,-612 1613.43,-533.62 1685.49,-543.55 1868.49,-411 1894.43,-392.22 1919.05,-364.18 1933.46,-346.37"/>
<polygon fill="midnightblue" stroke="midnightblue" points="1936.55,-348.11 1940.02,-338.1 1931.06,-343.76 1936.55,-348.11"/>
</g>
<!-- Node85&#45;&gt;Node24 -->
<g id="edge184" class="edge">
<title>Node85&#45;&gt;Node24</title>
<path fill="none" stroke="midnightblue" d="M1222.34,-648.45C1034.84,-611.1 296.07,-461.86 203.49,-411 121,-365.68 52.49,-356.63 52.49,-262.5 52.49,-262.5 52.49,-262.5 52.49,-193.5 52.49,-135.15 120.05,-97.39 162.62,-79.38"/>
<polygon fill="midnightblue" stroke="midnightblue" points="164.13,-82.55 172.07,-75.54 161.49,-76.07 164.13,-82.55"/>
</g>
<!-- Node85&#45;&gt;Node29 -->
<g id="edge183" class="edge">
<title>Node85&#45;&gt;Node29</title>
<path fill="none" stroke="midnightblue" d="M1254.89,-648.42C1234.69,-632.54 1188.76,-598.58 1144.49,-581 1067.86,-550.56 1041.95,-567.03 962.49,-545 803.18,-500.82 745.89,-512.63 615.49,-411 554.3,-363.31 547.28,-322.77 558.49,-246 562.99,-215.25 559.58,-203.66 578.49,-179 588.51,-165.94 602.95,-155.46 616.93,-147.5"/>
<polygon fill="midnightblue" stroke="midnightblue" points="618.84,-150.45 626,-142.64 615.53,-144.28 618.84,-150.45"/>
</g>
<!-- Node85&#45;&gt;Node67 -->
<g id="edge181" class="edge">
<title>Node85&#45;&gt;Node67</title>
<path fill="none" stroke="midnightblue" d="M1262.9,-648.41C1257.63,-632.52 1244.14,-598.54 1220.49,-581 1166.47,-540.93 1136.9,-567.45 1073.49,-545 967.68,-507.53 849.66,-446.3 792.8,-415.48"/>
<polygon fill="midnightblue" stroke="midnightblue" points="794.34,-412.34 783.89,-410.63 790.99,-418.49 794.34,-412.34"/>
</g>
<!-- Node85&#45;&gt;Node68 -->
<g id="edge182" class="edge">
<title>Node85&#45;&gt;Node68</title>
<path fill="none" stroke="midnightblue" d="M1283.15,-648.44C1343.42,-619.21 1541.9,-522.95 1626.14,-482.1"/>
<polygon fill="midnightblue" stroke="midnightblue" points="1627.89,-485.14 1635.36,-477.63 1624.83,-478.84 1627.89,-485.14"/>
</g>
<!-- Node90&#45;&gt;Node38 -->
<g id="edge187" class="edge">
<title>Node90&#45;&gt;Node38</title>
<path fill="none" stroke="midnightblue" d="M846.5,-586.83C842.77,-550.33 832.57,-406.67 890.49,-313 939.17,-234.28 992.77,-258.67 1071.49,-210 1089.45,-198.9 1088.92,-189.03 1107.49,-179 1153.7,-154.05 1213.56,-140.27 1250.21,-133.64"/>
<polygon fill="midnightblue" stroke="midnightblue" points="1251.1,-137.03 1260.35,-131.88 1249.9,-130.14 1251.1,-137.03"/>
</g>
</g>
</svg>
