<?xml version="1.0" encoding="UTF-8" standalone="no"?>
<!DOCTYPE svg PUBLIC "-//W3C//DTD SVG 1.1//EN"
 "http://www.w3.org/Graphics/SVG/1.1/DTD/svg11.dtd">
<!-- Generated by graphviz version 3.0.0 (20220413.0106)
 -->
<!-- Title: include/veriblock Pages: 1 -->
<svg width="256pt" height="111pt"
 viewBox="0.00 0.00 256.00 111.00" xmlns="http://www.w3.org/2000/svg" xmlns:xlink="http://www.w3.org/1999/xlink">
<g id="graph0" class="graph" transform="scale(1 1) rotate(0) translate(4 107)">
<title>include/veriblock</title>
<polygon fill="white" stroke="transparent" points="-4,4 -4,-107 252,-107 252,4 -4,4"/>
<g id="clust1" class="cluster">
<title>clusterdir_d44c64559bbebec7f509842c48db8b23</title>
<g id="a_clust1"><a xlink:href="dir_d44c64559bbebec7f509842c48db8b23.html" target="_top" xlink:title="include">
<polygon fill="#eef1f5" stroke="#404040" stroke-dasharray="5,2" points="8,-8 8,-95 240,-95 240,-8 8,-8"/>
<text text-anchor="middle" x="124" y="-83" font-family="Helvetica,sans-Serif" font-size="10.00">include</text>
</a>
</g>
</g>
<g id="clust2" class="cluster">
<title>clusterdir_9c7d25ce294a018fe75625311e66edb4</title>
<g id="a_clust2"><a xlink:href="dir_9c7d25ce294a018fe75625311e66edb4.html" target="_top">
<polygon fill="#eef1f5" stroke="#404040" stroke-width="2" points="16,-16 16,-68 232,-68 232,-16 16,-16"/>
</a>
</g>
</g>
<!-- dir_9c7d25ce294a018fe75625311e66edb4 -->
<g id="node1" class="node">
<title>dir_9c7d25ce294a018fe75625311e66edb4</title>
<text text-anchor="middle" x="196" y="-39.5" font-family="Helvetica,sans-Serif" font-size="10.00">veriblock</text>
</g>
<!-- dir_1af3246fbcf2bae97a76405cbcf38e96 -->
<g id="node2" class="node">
<title>dir_1af3246fbcf2bae97a76405cbcf38e96</title>
<g id="a_node2"><a xlink:href="dir_1af3246fbcf2bae97a76405cbcf38e96.html" target="_top" xlink:title="bfi">
<polygon fill="#abbbcd" stroke="#404040" points="150,-60 96,-60 96,-24 150,-24 150,-60"/>
<text text-anchor="middle" x="123" y="-39.5" font-family="Helvetica,sans-Serif" font-size="10.00">bfi</text>
</a>
</g>
</g>
<!-- dir_0252a7abd2d5cee5cf1dc5c94a7052df -->
<g id="node3" class="node">
<title>dir_0252a7abd2d5cee5cf1dc5c94a7052df</title>
<g id="a_node3"><a xlink:href="dir_0252a7abd2d5cee5cf1dc5c94a7052df.html" target="_top" xlink:title="pop">
<polygon fill="#abbbcd" stroke="#404040" points="78,-60 24,-60 24,-24 78,-24 78,-60"/>
<text text-anchor="middle" x="51" y="-39.5" font-family="Helvetica,sans-Serif" font-size="10.00">pop</text>
</a>
</g>
</g>
</g>
</svg>
