<?xml version="1.0" encoding="UTF-8" standalone="no"?>
<!DOCTYPE svg PUBLIC "-//W3C//DTD SVG 1.1//EN"
 "http://www.w3.org/Graphics/SVG/1.1/DTD/svg11.dtd">
<!-- Generated by graphviz version 3.0.0 (20220413.0106)
 -->
<!-- Title: include/veriblock/pop Pages: 1 -->
<svg width="778pt" height="111pt"
 viewBox="0.00 0.00 778.00 111.00" xmlns="http://www.w3.org/2000/svg" xmlns:xlink="http://www.w3.org/1999/xlink">
<g id="graph0" class="graph" transform="scale(1 1) rotate(0) translate(4 107)">
<title>include/veriblock/pop</title>
<polygon fill="white" stroke="transparent" points="-4,4 -4,-107 774,-107 774,4 -4,4"/>
<g id="clust1" class="cluster">
<title>clusterdir_9c7d25ce294a018fe75625311e66edb4</title>
<g id="a_clust1"><a xlink:href="dir_9c7d25ce294a018fe75625311e66edb4.html" target="_top" xlink:title="veriblock">
<polygon fill="#eef1f5" stroke="#7f7f7f" stroke-dasharray="5,2" points="8,-8 8,-95 762,-95 762,-8 8,-8"/>
<text text-anchor="middle" x="385" y="-83" font-family="Helvetica,sans-Serif" font-size="10.00">veriblock</text>
</a>
</g>
</g>
<g id="clust2" class="cluster">
<title>clusterdir_0252a7abd2d5cee5cf1dc5c94a7052df</title>
<g id="a_clust2"><a xlink:href="dir_0252a7abd2d5cee5cf1dc5c94a7052df.html" target="_top">
<polygon fill="#eef1f5" stroke="#404040" stroke-width="2" points="16,-16 16,-68 754,-68 754,-16 16,-16"/>
</a>
</g>
</g>
<!-- dir_0252a7abd2d5cee5cf1dc5c94a7052df -->
<g id="node1" class="node">
<title>dir_0252a7abd2d5cee5cf1dc5c94a7052df</title>
<text text-anchor="middle" x="719" y="-39.5" font-family="Helvetica,sans-Serif" font-size="10.00">pop</text>
</g>
<!-- dir_c8fca49c6f641d5a8a52635c698d8470 -->
<g id="node2" class="node">
<title>dir_c8fca49c6f641d5a8a52635c698d8470</title>
<g id="a_node2"><a xlink:href="dir_c8fca49c6f641d5a8a52635c698d8470.html" target="_top" xlink:title="adaptors">
<polygon fill="#abbbcd" stroke="#404040" points="674,-60 620,-60 620,-24 674,-24 674,-60"/>
<text text-anchor="middle" x="647" y="-39.5" font-family="Helvetica,sans-Serif" font-size="10.00">adaptors</text>
</a>
</g>
</g>
<!-- dir_93c268aa47f4f847c999021b7dc26af0 -->
<g id="node3" class="node">
<title>dir_93c268aa47f4f847c999021b7dc26af0</title>
<g id="a_node3"><a xlink:href="dir_93c268aa47f4f847c999021b7dc26af0.html" target="_top" xlink:title="blockchain">
<polygon fill="#abbbcd" stroke="#404040" points="601.5,-60 538.5,-60 538.5,-24 601.5,-24 601.5,-60"/>
<text text-anchor="middle" x="570" y="-39.5" font-family="Helvetica,sans-Serif" font-size="10.00">blockchain</text>
</a>
</g>
</g>
<!-- dir_2082450efbbb2404a3968a022866e0e9 -->
<g id="node4" class="node">
<title>dir_2082450efbbb2404a3968a022866e0e9</title>
<g id="a_node4"><a xlink:href="dir_2082450efbbb2404a3968a022866e0e9.html" target="_top" xlink:title="c">
<polygon fill="#abbbcd" stroke="#404040" points="520,-60 466,-60 466,-24 520,-24 520,-60"/>
<text text-anchor="middle" x="493" y="-39.5" font-family="Helvetica,sans-Serif" font-size="10.00">c</text>
</a>
</g>
</g>
<!-- dir_b19a281bc7dc259eb6568822b5184d17 -->
<g id="node5" class="node">
<title>dir_b19a281bc7dc259eb6568822b5184d17</title>
<g id="a_node5"><a xlink:href="dir_b19a281bc7dc259eb6568822b5184d17.html" target="_top" xlink:title="cache">
<polygon fill="#abbbcd" stroke="#404040" points="448,-60 394,-60 394,-24 448,-24 448,-60"/>
<text text-anchor="middle" x="421" y="-39.5" font-family="Helvetica,sans-Serif" font-size="10.00">cache</text>
</a>
</g>
</g>
<!-- dir_1711fe0e23484e2ba0777070d0a2b746 -->
<g id="node6" class="node">
<title>dir_1711fe0e23484e2ba0777070d0a2b746</title>
<g id="a_node6"><a xlink:href="dir_1711fe0e23484e2ba0777070d0a2b746.html" target="_top" xlink:title="crypto">
<polygon fill="#abbbcd" stroke="#404040" points="376,-60 322,-60 322,-24 376,-24 376,-60"/>
<text text-anchor="middle" x="349" y="-39.5" font-family="Helvetica,sans-Serif" font-size="10.00">crypto</text>
</a>
</g>
</g>
<!-- dir_cb1c4f602a0ca49e0a2f72a8a98b9d33 -->
<g id="node7" class="node">
<title>dir_cb1c4f602a0ca49e0a2f72a8a98b9d33</title>
<g id="a_node7"><a xlink:href="dir_cb1c4f602a0ca49e0a2f72a8a98b9d33.html" target="_top" xlink:title="entities">
<polygon fill="#abbbcd" stroke="#404040" points="304,-60 250,-60 250,-24 304,-24 304,-60"/>
<text text-anchor="middle" x="277" y="-39.5" font-family="Helvetica,sans-Serif" font-size="10.00">entities</text>
</a>
</g>
</g>
<!-- dir_562bd995d86c744323c81790bc4cc00a -->
<g id="node8" class="node">
<title>dir_562bd995d86c744323c81790bc4cc00a</title>
<g id="a_node8"><a xlink:href="dir_562bd995d86c744323c81790bc4cc00a.html" target="_top" xlink:title="exceptions">
<polygon fill="#abbbcd" stroke="#404040" points="231.5,-60 168.5,-60 168.5,-24 231.5,-24 231.5,-60"/>
<text text-anchor="middle" x="200" y="-39.5" font-family="Helvetica,sans-Serif" font-size="10.00">exceptions</text>
</a>
</g>
</g>
<!-- dir_3cfd5bfbb4d3cc2984c7066d993fd609 -->
<g id="node9" class="node">
<title>dir_3cfd5bfbb4d3cc2984c7066d993fd609</title>
<g id="a_node9"><a xlink:href="dir_3cfd5bfbb4d3cc2984c7066d993fd609.html" target="_top" xlink:title="rewards">
<polygon fill="#abbbcd" stroke="#404040" points="150,-60 96,-60 96,-24 150,-24 150,-60"/>
<text text-anchor="middle" x="123" y="-39.5" font-family="Helvetica,sans-Serif" font-size="10.00">rewards</text>
</a>
</g>
</g>
<!-- dir_2147af00f9f685658bd28d9b0a2db18c -->
<g id="node10" class="node">
<title>dir_2147af00f9f685658bd28d9b0a2db18c</title>
<g id="a_node10"><a xlink:href="dir_2147af00f9f685658bd28d9b0a2db18c.html" target="_top" xlink:title="storage">
<polygon fill="#abbbcd" stroke="#404040" points="78,-60 24,-60 24,-24 78,-24 78,-60"/>
<text text-anchor="middle" x="51" y="-39.5" font-family="Helvetica,sans-Serif" font-size="10.00">storage</text>
</a>
</g>
</g>
</g>
</svg>
