<?xml version="1.0" encoding="UTF-8" standalone="no"?>
<!DOCTYPE svg PUBLIC "-//W3C//DTD SVG 1.1//EN"
 "http://www.w3.org/Graphics/SVG/1.1/DTD/svg11.dtd">
<!-- Generated by graphviz version 3.0.0 (20220413.0106)
 -->
<!-- Title: include/veriblock/pop/blockchain Pages: 1 -->
<svg width="275pt" height="111pt"
 viewBox="0.00 0.00 275.00 111.00" xmlns="http://www.w3.org/2000/svg" xmlns:xlink="http://www.w3.org/1999/xlink">
<g id="graph0" class="graph" transform="scale(1 1) rotate(0) translate(4 107)">
<title>include/veriblock/pop/blockchain</title>
<polygon fill="white" stroke="transparent" points="-4,4 -4,-107 271,-107 271,4 -4,4"/>
<g id="clust1" class="cluster">
<title>clusterdir_0252a7abd2d5cee5cf1dc5c94a7052df</title>
<g id="a_clust1"><a xlink:href="dir_0252a7abd2d5cee5cf1dc5c94a7052df.html" target="_top" xlink:title="pop">
<polygon fill="#eef1f5" stroke="#7f7f7f" stroke-dasharray="5,2" points="8,-8 8,-95 259,-95 259,-8 8,-8"/>
<text text-anchor="middle" x="133.5" y="-83" font-family="Helvetica,sans-Serif" font-size="10.00">pop</text>
</a>
</g>
</g>
<g id="clust2" class="cluster">
<title>clusterdir_93c268aa47f4f847c999021b7dc26af0</title>
<g id="a_clust2"><a xlink:href="dir_93c268aa47f4f847c999021b7dc26af0.html" target="_top">
<polygon fill="#eef1f5" stroke="#404040" stroke-width="2" points="16,-16 16,-68 251,-68 251,-16 16,-16"/>
</a>
</g>
</g>
<!-- dir_93c268aa47f4f847c999021b7dc26af0 -->
<g id="node1" class="node">
<title>dir_93c268aa47f4f847c999021b7dc26af0</title>
<text text-anchor="middle" x="211" y="-39.5" font-family="Helvetica,sans-Serif" font-size="10.00">blockchain</text>
</g>
<!-- dir_eb5702a87cc507d615ac0abef1a611f6 -->
<g id="node2" class="node">
<title>dir_eb5702a87cc507d615ac0abef1a611f6</title>
<g id="a_node2"><a xlink:href="dir_eb5702a87cc507d615ac0abef1a611f6.html" target="_top" xlink:title="commands">
<polygon fill="#abbbcd" stroke="#404040" points="161.5,-60 96.5,-60 96.5,-24 161.5,-24 161.5,-60"/>
<text text-anchor="middle" x="129" y="-39.5" font-family="Helvetica,sans-Serif" font-size="10.00">commands</text>
</a>
</g>
</g>
<!-- dir_15edb939ead1335fa04d191893c40fb2 -->
<g id="node3" class="node">
<title>dir_15edb939ead1335fa04d191893c40fb2</title>
<g id="a_node3"><a xlink:href="dir_15edb939ead1335fa04d191893c40fb2.html" target="_top" xlink:title="pop">
<polygon fill="#abbbcd" stroke="#404040" points="78,-60 24,-60 24,-24 78,-24 78,-60"/>
<text text-anchor="middle" x="51" y="-39.5" font-family="Helvetica,sans-Serif" font-size="10.00">pop</text>
</a>
</g>
</g>
</g>
</svg>
