<?xml version="1.0" encoding="UTF-8" standalone="no"?>
<!DOCTYPE svg PUBLIC "-//W3C//DTD SVG 1.1//EN"
 "http://www.w3.org/Graphics/SVG/1.1/DTD/svg11.dtd">
<!-- Generated by graphviz version 2.44.0 ()
 -->
<!-- Title: Graphical Class Hierarchy Pages: 1 -->
<svg width="526pt" height="78pt"
 viewBox="0.00 0.00 526.00 77.50" xmlns="http://www.w3.org/2000/svg" xmlns:xlink="http://www.w3.org/1999/xlink">
<g id="graph0" class="graph" transform="scale(1 1) rotate(0) translate(4 73.5)">
<title>Graphical Class Hierarchy</title>
<polygon fill="white" stroke="transparent" points="-4,4 -4,-73.5 522,-73.5 522,4 -4,4"/>
<!-- Node61 -->
<g id="node1" class="node">
<title>Node61</title>
<g id="a_node1"><a xlink:title=" ">
<polygon fill="white" stroke="#bfbfbf" points="0,-22.5 0,-41.5 76,-41.5 76,-22.5 0,-22.5"/>
<text text-anchor="middle" x="38" y="-29.5" font-family="Helvetica,sans-Serif" font-size="10.00">std::exception</text>
</a>
</g>
</g>
<!-- Node62 -->
<g id="node2" class="node">
<title>Node62</title>
<g id="a_node2"><a xlink:title=" ">
<polygon fill="white" stroke="#bfbfbf" points="112,-22.5 112,-41.5 192,-41.5 192,-22.5 112,-22.5"/>
<text text-anchor="middle" x="152" y="-29.5" font-family="Helvetica,sans-Serif" font-size="10.00">std::logic_error</text>
</a>
</g>
</g>
<!-- Node61&#45;&gt;Node62 -->
<g id="edge1" class="edge">
<title>Node61&#45;&gt;Node62</title>
<path fill="none" stroke="midnightblue" d="M86.47,-32C94.96,-32 103.73,-32 111.95,-32"/>
<polygon fill="midnightblue" stroke="midnightblue" points="86.29,-28.5 76.29,-32 86.29,-35.5 86.29,-28.5"/>
</g>
<!-- Node63 -->
<g id="node3" class="node">
<title>Node63</title>
<g id="a_node3"><a xlink:title=" ">
<polygon fill="white" stroke="#bfbfbf" points="228,-22.5 228,-41.5 319,-41.5 319,-22.5 228,-22.5"/>
<text text-anchor="middle" x="273.5" y="-29.5" font-family="Helvetica,sans-Serif" font-size="10.00">std::domain_error</text>
</a>
</g>
</g>
<!-- Node62&#45;&gt;Node63 -->
<g id="edge2" class="edge">
<title>Node62&#45;&gt;Node63</title>
<path fill="none" stroke="midnightblue" d="M202.29,-32C210.77,-32 219.54,-32 227.9,-32"/>
<polygon fill="midnightblue" stroke="midnightblue" points="202.13,-28.5 192.13,-32 202.13,-35.5 202.13,-28.5"/>
</g>
<!-- Node0 -->
<g id="node4" class="node">
<title>Node0</title>
<g id="a_node4"><a xlink:href="structaltintegration_1_1StateCorruptedException.html" target="_top" xlink:title="Is thrown only when this library detects POP&#45;related state corruption, and can&#39;t recover.">
<polygon fill="white" stroke="black" points="365.5,-39 365.5,-69 507.5,-69 507.5,-39 365.5,-39"/>
<text text-anchor="start" x="373.5" y="-57" font-family="Helvetica,sans-Serif" font-size="10.00">altintegration::StateCorrupted</text>
<text text-anchor="middle" x="436.5" y="-46" font-family="Helvetica,sans-Serif" font-size="10.00">Exception</text>
</a>
</g>
</g>
<!-- Node63&#45;&gt;Node0 -->
<g id="edge3" class="edge">
<title>Node63&#45;&gt;Node0</title>
<path fill="none" stroke="midnightblue" d="M329.28,-39.49C340.85,-41.07 353.21,-42.76 365.26,-44.4"/>
<polygon fill="midnightblue" stroke="midnightblue" points="329.73,-36.01 319.35,-38.13 328.78,-42.95 329.73,-36.01"/>
</g>
<!-- Node65 -->
<g id="node5" class="node">
<title>Node65</title>
<g id="a_node5"><a xlink:href="structaltintegration_1_1StorageIOException.html" target="_top" xlink:title="exception which is thrown on any IO errors.">
<polygon fill="white" stroke="black" points="355,-0.5 355,-19.5 518,-19.5 518,-0.5 355,-0.5"/>
<text text-anchor="middle" x="436.5" y="-7.5" font-family="Helvetica,sans-Serif" font-size="10.00">altintegration::StorageIOException</text>
</a>
</g>
</g>
<!-- Node63&#45;&gt;Node65 -->
<g id="edge4" class="edge">
<title>Node63&#45;&gt;Node65</title>
<path fill="none" stroke="midnightblue" d="M329.42,-24.5C341.14,-22.89 353.68,-21.18 365.87,-19.51"/>
<polygon fill="midnightblue" stroke="midnightblue" points="328.78,-21.05 319.35,-25.87 329.73,-27.99 328.78,-21.05"/>
</g>
</g>
</svg>
