<?xml version="1.0" encoding="UTF-8" standalone="no"?>
<!DOCTYPE svg PUBLIC "-//W3C//DTD SVG 1.1//EN"
 "http://www.w3.org/Graphics/SVG/1.1/DTD/svg11.dtd">
<!-- Generated by graphviz version 2.50.0 (20220203.2022)
 -->
<!-- Title: Graphical Class Hierarchy Pages: 1 -->
<svg width="274pt" height="39pt"
 viewBox="0.00 0.00 274.00 39.00" xmlns="http://www.w3.org/2000/svg" xmlns:xlink="http://www.w3.org/1999/xlink">
<g id="graph0" class="graph" transform="scale(1 1) rotate(0) translate(4 35)">
<title>Graphical Class Hierarchy</title>
<polygon fill="white" stroke="transparent" points="-4,4 -4,-35 270,-35 270,4 -4,4"/>
<!-- Node0 -->
<g id="node1" class="node">
<title>Node0</title>
<g id="a_node1"><a xlink:href="structaltintegration_1_1PayloadsStorage.html" target="_top" xlink:title="Accessor for ATV/VTB/VbkBlock bodies given hash.">
<polygon fill="white" stroke="black" points="0,-0.5 0,-30.5 116,-30.5 116,-0.5 0,-0.5"/>
<text text-anchor="start" x="8" y="-18.5" font-family="Helvetica,sans-Serif" font-size="10.00">altintegration::Payloads</text>
<text text-anchor="middle" x="58" y="-7.5" font-family="Helvetica,sans-Serif" font-size="10.00">Storage</text>
</a>
</g>
</g>
<!-- Node1 -->
<g id="node2" class="node">
<title>Node1</title>
<g id="a_node2"><a xlink:href="structaltintegration_1_1adaptors_1_1PayloadsStorageImpl.html" target="_top" xlink:title=" ">
<polygon fill="white" stroke="black" points="152,-0.5 152,-30.5 266,-30.5 266,-0.5 152,-0.5"/>
<text text-anchor="start" x="160" y="-18.5" font-family="Helvetica,sans-Serif" font-size="10.00">altintegration::adaptors</text>
<text text-anchor="middle" x="209" y="-7.5" font-family="Helvetica,sans-Serif" font-size="10.00">::PayloadsStorageImpl</text>
</a>
</g>
</g>
<!-- Node0&#45;&gt;Node1 -->
<g id="edge1" class="edge">
<title>Node0&#45;&gt;Node1</title>
<path fill="none" stroke="midnightblue" d="M126.41,-15.5C134.87,-15.5 143.45,-15.5 151.71,-15.5"/>
<polygon fill="midnightblue" stroke="midnightblue" points="126.18,-12 116.18,-15.5 126.18,-19 126.18,-12"/>
</g>
</g>
</svg>
