<?xml version="1.0" encoding="UTF-8" standalone="no"?>
<!DOCTYPE svg PUBLIC "-//W3C//DTD SVG 1.1//EN"
 "http://www.w3.org/Graphics/SVG/1.1/DTD/svg11.dtd">
<!-- Generated by graphviz version 2.44.0 ()
 -->
<!-- Title: Graphical Class Hierarchy Pages: 1 -->
<svg width="498pt" height="88pt"
 viewBox="0.00 0.00 498.00 88.00" xmlns="http://www.w3.org/2000/svg" xmlns:xlink="http://www.w3.org/1999/xlink">
<g id="graph0" class="graph" transform="scale(1 1) rotate(0) translate(4 84)">
<title>Graphical Class Hierarchy</title>
<polygon fill="white" stroke="transparent" points="-4,4 -4,-84 494,-84 494,4 -4,4"/>
<!-- Node0 -->
<g id="node1" class="node">
<title>Node0</title>
<g id="a_node1"><a xlink:href="structaltintegration_1_1BaseBlockTree.html" target="_top" xlink:title="Base block tree that stores all blocks, maintains tree tips, maintains active chain.">
<polygon fill="white" stroke="black" points="0,-24.5 0,-54.5 124,-54.5 124,-24.5 0,-24.5"/>
<text text-anchor="start" x="8" y="-42.5" font-family="Helvetica,sans-Serif" font-size="10.00">altintegration::BaseBlock</text>
<text text-anchor="middle" x="62" y="-31.5" font-family="Helvetica,sans-Serif" font-size="10.00">Tree&lt; Block &gt;</text>
</a>
</g>
</g>
<!-- Node1 -->
<g id="node2" class="node">
<title>Node1</title>
<g id="a_node2"><a xlink:href="structaltintegration_1_1BlockTree.html" target="_top" xlink:title=" ">
<polygon fill="white" stroke="black" points="160,-49.5 160,-79.5 316,-79.5 316,-49.5 160,-49.5"/>
<text text-anchor="start" x="168" y="-67.5" font-family="Helvetica,sans-Serif" font-size="10.00">altintegration::BlockTree</text>
<text text-anchor="middle" x="238" y="-56.5" font-family="Helvetica,sans-Serif" font-size="10.00">&lt; VbkBlock, VbkChainParams &gt;</text>
</a>
</g>
</g>
<!-- Node0&#45;&gt;Node1 -->
<g id="edge1" class="edge">
<title>Node0&#45;&gt;Node1</title>
<path fill="none" stroke="midnightblue" d="M134.41,-49.76C142.77,-50.96 151.32,-52.19 159.75,-53.4"/>
<polygon fill="midnightblue" stroke="midnightblue" points="134.74,-46.27 124.35,-48.31 133.75,-53.2 134.74,-46.27"/>
</g>
<!-- Node3 -->
<g id="node4" class="node">
<title>Node3</title>
<g id="a_node4"><a xlink:href="structaltintegration_1_1BlockTree.html" target="_top" xlink:title="BlockTree is a tree of blocks with single &quot;bootstrap&quot; block as root.">
<polygon fill="white" stroke="black" points="177,-0.5 177,-30.5 299,-30.5 299,-0.5 177,-0.5"/>
<text text-anchor="start" x="185" y="-18.5" font-family="Helvetica,sans-Serif" font-size="10.00">altintegration::BlockTree</text>
<text text-anchor="middle" x="238" y="-7.5" font-family="Helvetica,sans-Serif" font-size="10.00">&lt; Block, ChainParams &gt;</text>
</a>
</g>
</g>
<!-- Node0&#45;&gt;Node3 -->
<g id="edge3" class="edge">
<title>Node0&#45;&gt;Node3</title>
<path fill="none" stroke="midnightblue" d="M134.46,-29.64C148.53,-27.7 163.15,-25.69 176.79,-23.8"/>
<polygon fill="midnightblue" stroke="midnightblue" points="133.77,-26.2 124.35,-31.04 134.73,-33.14 133.77,-26.2"/>
</g>
<!-- Node2 -->
<g id="node3" class="node">
<title>Node2</title>
<g id="a_node3"><a xlink:href="structaltintegration_1_1VbkBlockTree.html" target="_top" xlink:title="Veriblock block tree.">
<polygon fill="white" stroke="black" points="352,-55 352,-74 490,-74 490,-55 352,-55"/>
<text text-anchor="middle" x="421" y="-62" font-family="Helvetica,sans-Serif" font-size="10.00">altintegration::VbkBlockTree</text>
</a>
</g>
</g>
<!-- Node1&#45;&gt;Node2 -->
<g id="edge2" class="edge">
<title>Node1&#45;&gt;Node2</title>
<path fill="none" stroke="midnightblue" d="M326.15,-64.5C334.8,-64.5 343.5,-64.5 351.92,-64.5"/>
<polygon fill="midnightblue" stroke="midnightblue" points="326.02,-61 316.02,-64.5 326.02,-68 326.02,-61"/>
</g>
</g>
</svg>
