<?xml version="1.0" encoding="UTF-8" standalone="no"?>
<!DOCTYPE svg PUBLIC "-//W3C//DTD SVG 1.1//EN"
 "http://www.w3.org/Graphics/SVG/1.1/DTD/svg11.dtd">
<!-- Generated by graphviz version 2.49.3 (20211027.1534)
 -->
<!-- Title: altintegration::VbkTx Pages: 1 -->
<svg width="593pt" height="529pt"
 viewBox="0.00 0.00 592.50 529.00" xmlns="http://www.w3.org/2000/svg" xmlns:xlink="http://www.w3.org/1999/xlink">
<g id="graph0" class="graph" transform="scale(1 1) rotate(0) translate(4 525)">
<title>altintegration::VbkTx</title>
<polygon fill="white" stroke="transparent" points="-4,4 -4,-525 588.5,-525 588.5,4 -4,4"/>
<!-- Node1 -->
<g id="node1" class="node">
<title>Node1</title>
<g id="a_node1"><a xlink:title="Veriblock transaction, which endorses ALT block in VBK blockchain.">
<polygon fill="#bfbfbf" stroke="black" points="253,-0.5 253,-134.5 357,-134.5 357,-0.5 253,-0.5"/>
<text text-anchor="middle" x="305" y="-122.5" font-family="Helvetica,sans-Serif" font-size="10.00">altintegration::VbkTx</text>
<polyline fill="none" stroke="black" points="253,-115.5 357,-115.5 "/>
<text text-anchor="start" x="261" y="-103.5" font-family="Helvetica,sans-Serif" font-size="10.00">+ outputs</text>
<text text-anchor="start" x="261" y="-92.5" font-family="Helvetica,sans-Serif" font-size="10.00">+ signatureIndex</text>
<text text-anchor="start" x="261" y="-81.5" font-family="Helvetica,sans-Serif" font-size="10.00">+ signature</text>
<text text-anchor="start" x="261" y="-70.5" font-family="Helvetica,sans-Serif" font-size="10.00">+ publicKey</text>
<polyline fill="none" stroke="black" points="253,-63.5 357,-63.5 "/>
<text text-anchor="start" x="261" y="-51.5" font-family="Helvetica,sans-Serif" font-size="10.00">+ toVbkEncoding()</text>
<text text-anchor="start" x="261" y="-40.5" font-family="Helvetica,sans-Serif" font-size="10.00">+ toVbkEncoding()</text>
<text text-anchor="start" x="261" y="-29.5" font-family="Helvetica,sans-Serif" font-size="10.00">+ estimateSize()</text>
<text text-anchor="start" x="261" y="-18.5" font-family="Helvetica,sans-Serif" font-size="10.00">+ getHash()</text>
<text text-anchor="start" x="261" y="-7.5" font-family="Helvetica,sans-Serif" font-size="10.00">+ calculateTxFee()</text>
</a>
</g>
</g>
<!-- Node2 -->
<g id="node2" class="node">
<title>Node2</title>
<g id="a_node2"><a xlink:href="namespacealtintegration.html#structaltintegration_1_1NetworkBytePair" target="_top" xlink:title="Stores pair of TxType and VBK network byte.">
<polygon fill="white" stroke="black" points="1,-248.5 1,-305.5 151,-305.5 151,-248.5 1,-248.5"/>
<text text-anchor="middle" x="76" y="-293.5" font-family="Helvetica,sans-Serif" font-size="10.00">altintegration::NetworkBytePair</text>
<polyline fill="none" stroke="black" points="1,-286.5 151,-286.5 "/>
<text text-anchor="start" x="9" y="-274.5" font-family="Helvetica,sans-Serif" font-size="10.00">+ typeId</text>
<polyline fill="none" stroke="black" points="1,-267.5 151,-267.5 "/>
<text text-anchor="middle" x="76" y="-255.5" font-family="Helvetica,sans-Serif" font-size="10.00"> </text>
</a>
</g>
</g>
<!-- Node2&#45;&gt;Node1 -->
<g id="edge1" class="edge">
<title>Node2&#45;&gt;Node1</title>
<path fill="none" stroke="#404040" d="M98.96,-248.37C115.35,-229.15 138.24,-203.26 160,-182 185.44,-157.14 216.17,-132.44 242.77,-112.47"/>
<polygon fill="none" stroke="#404040" points="243.12,-112.21 245.54,-105.42 252.75,-105.05 250.32,-111.84 243.12,-112.21"/>
<text text-anchor="middle" x="227.5" y="-156" font-family="Helvetica,sans-Serif" font-size="10.00"> +networkOrType</text>
</g>
<!-- Node3 -->
<g id="node3" class="node">
<title>Node3</title>
<g id="a_node3"><a xlink:href="structaltintegration_1_1VbkNetworkType.html" target="_top" xlink:title="works as optional&lt;uint8_t&gt;">
<polygon fill="white" stroke="black" points="0,-419.5 0,-520.5 152,-520.5 152,-419.5 0,-419.5"/>
<text text-anchor="middle" x="76" y="-508.5" font-family="Helvetica,sans-Serif" font-size="10.00">altintegration::VbkNetworkType</text>
<polyline fill="none" stroke="black" points="0,-501.5 152,-501.5 "/>
<text text-anchor="start" x="8" y="-489.5" font-family="Helvetica,sans-Serif" font-size="10.00">+ hasValue</text>
<text text-anchor="start" x="8" y="-478.5" font-family="Helvetica,sans-Serif" font-size="10.00">+ value</text>
<polyline fill="none" stroke="black" points="0,-471.5 152,-471.5 "/>
<text text-anchor="start" x="8" y="-459.5" font-family="Helvetica,sans-Serif" font-size="10.00">+ operator bool()</text>
<text text-anchor="start" x="8" y="-448.5" font-family="Helvetica,sans-Serif" font-size="10.00">+ operator==()</text>
<text text-anchor="start" x="8" y="-437.5" font-family="Helvetica,sans-Serif" font-size="10.00">+ toPrettyString()</text>
<text text-anchor="start" x="8" y="-426.5" font-family="Helvetica,sans-Serif" font-size="10.00">+ putJson()</text>
</a>
</g>
</g>
<!-- Node3&#45;&gt;Node2 -->
<g id="edge2" class="edge">
<title>Node3&#45;&gt;Node2</title>
<path fill="none" stroke="#404040" d="M76,-419.32C76,-387.73 76,-347.39 76,-317.9"/>
<polygon fill="none" stroke="#404040" points="76,-317.59 72,-311.59 76,-305.59 80,-311.59 76,-317.59"/>
<text text-anchor="middle" x="108" y="-393" font-family="Helvetica,sans-Serif" font-size="10.00"> +networkType</text>
</g>
<!-- Node4 -->
<g id="node4" class="node">
<title>Node4</title>
<g id="a_node4"><a xlink:href="structaltintegration_1_1Address.html" target="_top" xlink:title="Represents address on VBK chain.">
<polygon fill="white" stroke="black" points="169.5,-182.5 169.5,-371.5 306.5,-371.5 306.5,-182.5 169.5,-182.5"/>
<text text-anchor="middle" x="238" y="-359.5" font-family="Helvetica,sans-Serif" font-size="10.00">altintegration::Address</text>
<polyline fill="none" stroke="black" points="169.5,-352.5 306.5,-352.5 "/>
<text text-anchor="middle" x="238" y="-340.5" font-family="Helvetica,sans-Serif" font-size="10.00"> </text>
<polyline fill="none" stroke="black" points="169.5,-333.5 306.5,-333.5 "/>
<text text-anchor="start" x="177.5" y="-321.5" font-family="Helvetica,sans-Serif" font-size="10.00">+ Address()</text>
<text text-anchor="start" x="177.5" y="-310.5" font-family="Helvetica,sans-Serif" font-size="10.00">+ operator==()</text>
<text text-anchor="start" x="177.5" y="-299.5" font-family="Helvetica,sans-Serif" font-size="10.00">+ operator!=()</text>
<text text-anchor="start" x="177.5" y="-288.5" font-family="Helvetica,sans-Serif" font-size="10.00">+ operator==()</text>
<text text-anchor="start" x="177.5" y="-277.5" font-family="Helvetica,sans-Serif" font-size="10.00">+ getType()</text>
<text text-anchor="start" x="177.5" y="-266.5" font-family="Helvetica,sans-Serif" font-size="10.00">+ getPopBytes()</text>
<text text-anchor="start" x="177.5" y="-255.5" font-family="Helvetica,sans-Serif" font-size="10.00">+ isDerivedFromPublicKey()</text>
<text text-anchor="start" x="177.5" y="-244.5" font-family="Helvetica,sans-Serif" font-size="10.00">+ fromString()</text>
<text text-anchor="start" x="177.5" y="-233.5" font-family="Helvetica,sans-Serif" font-size="10.00">+ toString()</text>
<text text-anchor="start" x="177.5" y="-222.5" font-family="Helvetica,sans-Serif" font-size="10.00">+ toVbkEncoding()</text>
<text text-anchor="start" x="177.5" y="-211.5" font-family="Helvetica,sans-Serif" font-size="10.00">+ estimateSize()</text>
<text text-anchor="start" x="177.5" y="-200.5" font-family="Helvetica,sans-Serif" font-size="10.00">+ fromPublicKey()</text>
<text text-anchor="start" x="177.5" y="-189.5" font-family="Helvetica,sans-Serif" font-size="10.00">+ assertFromString()</text>
</a>
</g>
</g>
<!-- Node4&#45;&gt;Node1 -->
<g id="edge3" class="edge">
<title>Node4&#45;&gt;Node1</title>
<path fill="none" stroke="#404040" d="M267.58,-182.28C270.74,-172.39 273.93,-162.48 277,-153 277.69,-150.89 278.38,-148.74 279.09,-146.58"/>
<polygon fill="none" stroke="#404040" points="279.18,-146.3 277.24,-139.36 282.91,-134.9 284.85,-141.84 279.18,-146.3"/>
<text text-anchor="middle" x="314" y="-156" font-family="Helvetica,sans-Serif" font-size="10.00"> +sourceAddress</text>
</g>
<!-- Node5 -->
<g id="node5" class="node">
<title>Node5</title>
<g id="a_node5"><a xlink:href="structaltintegration_1_1Coin.html" target="_top" xlink:title="represents VBK atomic units">
<polygon fill="white" stroke="black" points="325,-221 325,-333 421,-333 421,-221 325,-221"/>
<text text-anchor="middle" x="373" y="-321" font-family="Helvetica,sans-Serif" font-size="10.00">altintegration::Coin</text>
<polyline fill="none" stroke="black" points="325,-314 421,-314 "/>
<text text-anchor="start" x="333" y="-302" font-family="Helvetica,sans-Serif" font-size="10.00">+ units</text>
<polyline fill="none" stroke="black" points="325,-295 421,-295 "/>
<text text-anchor="start" x="333" y="-283" font-family="Helvetica,sans-Serif" font-size="10.00">+ Coin()</text>
<text text-anchor="start" x="333" y="-272" font-family="Helvetica,sans-Serif" font-size="10.00">+ toPrettyString()</text>
<text text-anchor="start" x="333" y="-261" font-family="Helvetica,sans-Serif" font-size="10.00">+ Coin()</text>
<text text-anchor="start" x="333" y="-250" font-family="Helvetica,sans-Serif" font-size="10.00">+ toVbkEncoding()</text>
<text text-anchor="start" x="333" y="-239" font-family="Helvetica,sans-Serif" font-size="10.00">+ estimateSize()</text>
<text text-anchor="start" x="333" y="-228" font-family="Helvetica,sans-Serif" font-size="10.00">+ operator==()</text>
</a>
</g>
</g>
<!-- Node5&#45;&gt;Node1 -->
<g id="edge4" class="edge">
<title>Node5&#45;&gt;Node1</title>
<path fill="none" stroke="#404040" d="M366.99,-220.84C363.65,-199.28 358.58,-174.59 351,-153 350.21,-150.75 349.37,-148.5 348.48,-146.24"/>
<polygon fill="none" stroke="#404040" points="348.37,-145.99 342.35,-142.03 343.68,-134.94 349.71,-138.9 348.37,-145.99"/>
<text text-anchor="middle" x="390" y="-156" font-family="Helvetica,sans-Serif" font-size="10.00"> +sourceAmount</text>
</g>
<!-- Node6 -->
<g id="node6" class="node">
<title>Node6</title>
<g id="a_node6"><a xlink:href="structaltintegration_1_1PublicationData.html" target="_top" xlink:title="Publication data about ALT block inside VBK blockchain.">
<polygon fill="white" stroke="black" points="439.5,-221 439.5,-333 584.5,-333 584.5,-221 439.5,-221"/>
<text text-anchor="middle" x="512" y="-321" font-family="Helvetica,sans-Serif" font-size="10.00">altintegration::PublicationData</text>
<polyline fill="none" stroke="black" points="439.5,-314 584.5,-314 "/>
<text text-anchor="start" x="447.5" y="-302" font-family="Helvetica,sans-Serif" font-size="10.00">+ identifier</text>
<text text-anchor="start" x="447.5" y="-291" font-family="Helvetica,sans-Serif" font-size="10.00">+ header</text>
<text text-anchor="start" x="447.5" y="-280" font-family="Helvetica,sans-Serif" font-size="10.00">+ payoutInfo</text>
<text text-anchor="start" x="447.5" y="-269" font-family="Helvetica,sans-Serif" font-size="10.00">+ contextInfo</text>
<polyline fill="none" stroke="black" points="439.5,-262 584.5,-262 "/>
<text text-anchor="start" x="447.5" y="-250" font-family="Helvetica,sans-Serif" font-size="10.00">+ toPrettyString()</text>
<text text-anchor="start" x="447.5" y="-239" font-family="Helvetica,sans-Serif" font-size="10.00">+ toVbkEncoding()</text>
<text text-anchor="start" x="447.5" y="-228" font-family="Helvetica,sans-Serif" font-size="10.00">+ estimateSize()</text>
</a>
</g>
</g>
<!-- Node6&#45;&gt;Node1 -->
<g id="edge5" class="edge">
<title>Node6&#45;&gt;Node1</title>
<path fill="none" stroke="#404040" d="M481.63,-220.85C467.67,-198.32 449.81,-172.94 430,-153 411.59,-134.48 388.57,-117.57 367.31,-103.82"/>
<polygon fill="none" stroke="#404040" points="367.19,-103.74 359.98,-103.92 357.05,-97.33 364.26,-97.16 367.19,-103.74"/>
<text text-anchor="middle" x="476" y="-156" font-family="Helvetica,sans-Serif" font-size="10.00"> +publicationData</text>
</g>
</g>
</svg>
