<?xml version="1.0" encoding="UTF-8" standalone="no"?>
<!DOCTYPE svg PUBLIC "-//W3C//DTD SVG 1.1//EN"
 "http://www.w3.org/Graphics/SVG/1.1/DTD/svg11.dtd">
<!-- Generated by graphviz version 3.0.0 (20220413.0242)
 -->
<!-- Title: altintegration::btc::BlockTransactions Pages: 1 -->
<svg width="860pt" height="1379pt"
 viewBox="0.00 0.00 860.00 1379.00" xmlns="http://www.w3.org/2000/svg" xmlns:xlink="http://www.w3.org/1999/xlink">
<g id="graph0" class="graph" transform="scale(1 1) rotate(0) translate(4 1375)">
<title>altintegration::btc::BlockTransactions</title>
<polygon fill="white" stroke="transparent" points="-4,4 -4,-1375 856,-1375 856,4 -4,4"/>
<!-- Node1 -->
<g id="node1" class="node">
<title>Node1</title>
<g id="a_node1"><a xlink:title=" ">
<polygon fill="#bfbfbf" stroke="black" points="433.5,-0.5 433.5,-68.5 588.5,-68.5 588.5,-0.5 433.5,-0.5"/>
<text text-anchor="start" x="441.5" y="-56.5" font-family="Helvetica,sans-Serif" font-size="10.00">altintegration::btc</text>
<text text-anchor="middle" x="511" y="-45.5" font-family="Helvetica,sans-Serif" font-size="10.00">::BlockTransactions</text>
<polyline fill="none" stroke="black" points="433.5,-38.5 588.5,-38.5 "/>
<text text-anchor="start" x="441.5" y="-26.5" font-family="Helvetica,sans-Serif" font-size="10.00">+ ADD_SERIALIZE_METHODS</text>
<polyline fill="none" stroke="black" points="433.5,-19.5 588.5,-19.5 "/>
<text text-anchor="start" x="441.5" y="-7.5" font-family="Helvetica,sans-Serif" font-size="10.00">+ SerializationOp()</text>
</a>
</g>
</g>
<!-- Node2 -->
<g id="node2" class="node">
<title>Node2</title>
<g id="a_node2"><a xlink:href="structaltintegration_1_1Blob.html" target="_top" xlink:title=" ">
<polygon fill="white" stroke="black" points="669.5,-762.5 669.5,-995.5 800.5,-995.5 800.5,-762.5 669.5,-762.5"/>
<text text-anchor="start" x="677.5" y="-983.5" font-family="Helvetica,sans-Serif" font-size="10.00">altintegration::Blob</text>
<text text-anchor="middle" x="735" y="-972.5" font-family="Helvetica,sans-Serif" font-size="10.00">&lt; SHA256_HASH_SIZE &gt;</text>
<polyline fill="none" stroke="black" points="669.5,-965.5 800.5,-965.5 "/>
<text text-anchor="start" x="677.5" y="-953.5" font-family="Helvetica,sans-Serif" font-size="10.00">+ data_</text>
<text text-anchor="start" x="677.5" y="-942.5" font-family="Helvetica,sans-Serif" font-size="10.00">+ this</text>
<polyline fill="none" stroke="black" points="669.5,-935.5 800.5,-935.5 "/>
<text text-anchor="start" x="677.5" y="-923.5" font-family="Helvetica,sans-Serif" font-size="10.00">+ Blob()</text>
<text text-anchor="start" x="677.5" y="-912.5" font-family="Helvetica,sans-Serif" font-size="10.00">+ Blob()</text>
<text text-anchor="start" x="677.5" y="-901.5" font-family="Helvetica,sans-Serif" font-size="10.00">+ Blob()</text>
<text text-anchor="start" x="677.5" y="-890.5" font-family="Helvetica,sans-Serif" font-size="10.00">+ Blob()</text>
<text text-anchor="start" x="677.5" y="-879.5" font-family="Helvetica,sans-Serif" font-size="10.00">+ Blob()</text>
<text text-anchor="start" x="677.5" y="-868.5" font-family="Helvetica,sans-Serif" font-size="10.00">+ operator std::vector</text>
<text text-anchor="start" x="677.5" y="-857.5" font-family="Helvetica,sans-Serif" font-size="10.00">&lt; uint8_t &gt;()</text>
<text text-anchor="start" x="677.5" y="-846.5" font-family="Helvetica,sans-Serif" font-size="10.00">+ fill()</text>
<text text-anchor="start" x="677.5" y="-835.5" font-family="Helvetica,sans-Serif" font-size="10.00">+ begin()</text>
<text text-anchor="start" x="677.5" y="-824.5" font-family="Helvetica,sans-Serif" font-size="10.00">+ begin()</text>
<text text-anchor="start" x="677.5" y="-813.5" font-family="Helvetica,sans-Serif" font-size="10.00">+ end()</text>
<text text-anchor="start" x="677.5" y="-802.5" font-family="Helvetica,sans-Serif" font-size="10.00">and 20 more...</text>
<text text-anchor="start" x="677.5" y="-791.5" font-family="Helvetica,sans-Serif" font-size="10.00">+ size()</text>
<text text-anchor="start" x="677.5" y="-780.5" font-family="Helvetica,sans-Serif" font-size="10.00">+ fromHex()</text>
<text text-anchor="start" x="677.5" y="-769.5" font-family="Helvetica,sans-Serif" font-size="10.00">+ assertFromHex()</text>
</a>
</g>
</g>
<!-- Node2&#45;&gt;Node1 -->
<g id="edge1" class="edge">
<title>Node2&#45;&gt;Node1</title>
<path fill="none" stroke="#404040" d="M755.05,-762.26C759.02,-730.81 762,-696.68 762,-665 762,-665 762,-665 762,-149.5 762,-76.55 673.01,-50.05 601,-40.56"/>
<polygon fill="none" stroke="#404040" points="600.61,-40.51 594.18,-43.76 588.7,-39.07 595.13,-35.82 600.61,-40.51"/>
<text text-anchor="middle" x="788.5" y="-413" font-family="Helvetica,sans-Serif" font-size="10.00"> +blockhash</text>
</g>
<!-- Node8 -->
<g id="node8" class="node">
<title>Node8</title>
<g id="a_node8"><a xlink:href="structaltintegration_1_1btc_1_1OutPoint.html" target="_top" xlink:title="An outpoint &#45; a combination of a transaction hash and an index n into its vout.">
<polygon fill="white" stroke="black" points="578.5,-624.5 578.5,-703.5 733.5,-703.5 733.5,-624.5 578.5,-624.5"/>
<text text-anchor="start" x="586.5" y="-691.5" font-family="Helvetica,sans-Serif" font-size="10.00">altintegration::btc</text>
<text text-anchor="middle" x="656" y="-680.5" font-family="Helvetica,sans-Serif" font-size="10.00">::OutPoint</text>
<polyline fill="none" stroke="black" points="578.5,-673.5 733.5,-673.5 "/>
<text text-anchor="start" x="586.5" y="-661.5" font-family="Helvetica,sans-Serif" font-size="10.00">+ n</text>
<text text-anchor="start" x="586.5" y="-650.5" font-family="Helvetica,sans-Serif" font-size="10.00">+ ADD_SERIALIZE_METHODS</text>
<polyline fill="none" stroke="black" points="578.5,-643.5 733.5,-643.5 "/>
<text text-anchor="start" x="586.5" y="-631.5" font-family="Helvetica,sans-Serif" font-size="10.00">+ SerializationOp()</text>
</a>
</g>
</g>
<!-- Node2&#45;&gt;Node8 -->
<g id="edge8" class="edge">
<title>Node2&#45;&gt;Node8</title>
<path fill="none" stroke="#404040" d="M692.15,-762.46C686.03,-745.96 680.01,-729.75 674.7,-715.43"/>
<polygon fill="none" stroke="#404040" points="674.59,-715.13 668.76,-710.89 670.42,-703.88 676.26,-708.11 674.59,-715.13"/>
<text text-anchor="middle" x="699" y="-730.5" font-family="Helvetica,sans-Serif" font-size="10.00"> +hash</text>
</g>
<!-- Node3 -->
<g id="node3" class="node">
<title>Node3</title>
<g id="a_node3"><a xlink:href="structaltintegration_1_1Blob.html" target="_top" xlink:title="Contiguous byte array of fixed size.">
<polygon fill="white" stroke="black" points="675,-1043.5 675,-1265.5 795,-1265.5 795,-1043.5 675,-1043.5"/>
<text text-anchor="middle" x="735" y="-1253.5" font-family="Helvetica,sans-Serif" font-size="10.00">altintegration::Blob&lt; N &gt;</text>
<polyline fill="none" stroke="black" points="675,-1246.5 795,-1246.5 "/>
<text text-anchor="start" x="683" y="-1234.5" font-family="Helvetica,sans-Serif" font-size="10.00">+ data_</text>
<text text-anchor="start" x="683" y="-1223.5" font-family="Helvetica,sans-Serif" font-size="10.00">+ this</text>
<polyline fill="none" stroke="black" points="675,-1216.5 795,-1216.5 "/>
<text text-anchor="start" x="683" y="-1204.5" font-family="Helvetica,sans-Serif" font-size="10.00">+ Blob()</text>
<text text-anchor="start" x="683" y="-1193.5" font-family="Helvetica,sans-Serif" font-size="10.00">+ Blob()</text>
<text text-anchor="start" x="683" y="-1182.5" font-family="Helvetica,sans-Serif" font-size="10.00">+ Blob()</text>
<text text-anchor="start" x="683" y="-1171.5" font-family="Helvetica,sans-Serif" font-size="10.00">+ Blob()</text>
<text text-anchor="start" x="683" y="-1160.5" font-family="Helvetica,sans-Serif" font-size="10.00">+ Blob()</text>
<text text-anchor="start" x="683" y="-1149.5" font-family="Helvetica,sans-Serif" font-size="10.00">+ operator std::vector</text>
<text text-anchor="start" x="683" y="-1138.5" font-family="Helvetica,sans-Serif" font-size="10.00">&lt; uint8_t &gt;()</text>
<text text-anchor="start" x="683" y="-1127.5" font-family="Helvetica,sans-Serif" font-size="10.00">+ fill()</text>
<text text-anchor="start" x="683" y="-1116.5" font-family="Helvetica,sans-Serif" font-size="10.00">+ begin()</text>
<text text-anchor="start" x="683" y="-1105.5" font-family="Helvetica,sans-Serif" font-size="10.00">+ begin()</text>
<text text-anchor="start" x="683" y="-1094.5" font-family="Helvetica,sans-Serif" font-size="10.00">+ end()</text>
<text text-anchor="start" x="683" y="-1083.5" font-family="Helvetica,sans-Serif" font-size="10.00">and 20 more...</text>
<text text-anchor="start" x="683" y="-1072.5" font-family="Helvetica,sans-Serif" font-size="10.00">+ size()</text>
<text text-anchor="start" x="683" y="-1061.5" font-family="Helvetica,sans-Serif" font-size="10.00">+ fromHex()</text>
<text text-anchor="start" x="683" y="-1050.5" font-family="Helvetica,sans-Serif" font-size="10.00">+ assertFromHex()</text>
</a>
</g>
</g>
<!-- Node3&#45;&gt;Node2 -->
<g id="edge2" class="edge">
<title>Node3&#45;&gt;Node2</title>
<path fill="none" stroke="orange" d="M735,-1033.43C735,-1020.88 735,-1008.14 735,-995.64"/>
<polygon fill="orange" stroke="orange" points="731.5,-1033.44 735,-1043.44 738.5,-1033.44 731.5,-1033.44"/>
<text text-anchor="middle" x="793.5" y="-1017" font-family="Helvetica,sans-Serif" font-size="10.00"> &lt; SHA256_HASH_SIZE &gt;</text>
</g>
<!-- Node4 -->
<g id="node4" class="node">
<title>Node4</title>
<g id="a_node4"><a xlink:title=" ">
<polygon fill="white" stroke="black" points="185.5,-116.5 185.5,-184.5 310.5,-184.5 310.5,-116.5 185.5,-116.5"/>
<text text-anchor="start" x="193.5" y="-172.5" font-family="Helvetica,sans-Serif" font-size="10.00">std::vector&lt; altintegration</text>
<text text-anchor="middle" x="248" y="-161.5" font-family="Helvetica,sans-Serif" font-size="10.00">::btc::Transaction &gt;</text>
<polyline fill="none" stroke="black" points="185.5,-154.5 310.5,-154.5 "/>
<text text-anchor="middle" x="248" y="-142.5" font-family="Helvetica,sans-Serif" font-size="10.00"> </text>
<polyline fill="none" stroke="black" points="185.5,-135.5 310.5,-135.5 "/>
<text text-anchor="middle" x="248" y="-123.5" font-family="Helvetica,sans-Serif" font-size="10.00"> </text>
</a>
</g>
</g>
<!-- Node4&#45;&gt;Node1 -->
<g id="edge3" class="edge">
<title>Node4&#45;&gt;Node1</title>
<path fill="none" stroke="#404040" d="M310.66,-122.34C344.39,-107.72 386.55,-89.45 423.47,-73.44"/>
<polygon fill="none" stroke="#404040" points="423.74,-73.33 427.65,-67.27 434.75,-68.55 430.83,-74.61 423.74,-73.33"/>
<text text-anchor="middle" x="399" y="-90" font-family="Helvetica,sans-Serif" font-size="10.00"> +txn</text>
</g>
<!-- Node5 -->
<g id="node5" class="node">
<title>Node5</title>
<g id="a_node5"><a xlink:href="structaltintegration_1_1btc_1_1Transaction.html" target="_top" xlink:title="The basic transaction that is broadcasted on the network and contained in blocks.">
<polygon fill="white" stroke="black" points="203,-232.5 203,-333.5 293,-333.5 293,-232.5 203,-232.5"/>
<text text-anchor="start" x="211" y="-321.5" font-family="Helvetica,sans-Serif" font-size="10.00">altintegration::btc</text>
<text text-anchor="middle" x="248" y="-310.5" font-family="Helvetica,sans-Serif" font-size="10.00">::Transaction</text>
<polyline fill="none" stroke="black" points="203,-303.5 293,-303.5 "/>
<text text-anchor="start" x="211" y="-291.5" font-family="Helvetica,sans-Serif" font-size="10.00">+ nVersion</text>
<text text-anchor="start" x="211" y="-280.5" font-family="Helvetica,sans-Serif" font-size="10.00">+ nLockTime</text>
<polyline fill="none" stroke="black" points="203,-273.5 293,-273.5 "/>
<text text-anchor="start" x="211" y="-261.5" font-family="Helvetica,sans-Serif" font-size="10.00">+ Serialize()</text>
<text text-anchor="start" x="211" y="-250.5" font-family="Helvetica,sans-Serif" font-size="10.00">+ Unserialize()</text>
<text text-anchor="start" x="211" y="-239.5" font-family="Helvetica,sans-Serif" font-size="10.00">+ HasWitness()</text>
</a>
</g>
</g>
<!-- Node5&#45;&gt;Node4 -->
<g id="edge4" class="edge">
<title>Node5&#45;&gt;Node4</title>
<path fill="none" stroke="#404040" d="M248,-232.29C248,-220.55 248,-208.09 248,-196.57"/>
<polygon fill="none" stroke="#404040" points="248,-196.51 244,-190.51 248,-184.51 252,-190.51 248,-196.51"/>
<text text-anchor="middle" x="272.5" y="-206" font-family="Helvetica,sans-Serif" font-size="10.00"> +elements</text>
</g>
<!-- Node6 -->
<g id="node6" class="node">
<title>Node6</title>
<g id="a_node6"><a xlink:title=" ">
<polygon fill="white" stroke="black" points="306.5,-381.5 306.5,-449.5 431.5,-449.5 431.5,-381.5 306.5,-381.5"/>
<text text-anchor="start" x="314.5" y="-437.5" font-family="Helvetica,sans-Serif" font-size="10.00">std::vector&lt; altintegration</text>
<text text-anchor="middle" x="369" y="-426.5" font-family="Helvetica,sans-Serif" font-size="10.00">::btc::TxIn &gt;</text>
<polyline fill="none" stroke="black" points="306.5,-419.5 431.5,-419.5 "/>
<text text-anchor="middle" x="369" y="-407.5" font-family="Helvetica,sans-Serif" font-size="10.00"> </text>
<polyline fill="none" stroke="black" points="306.5,-400.5 431.5,-400.5 "/>
<text text-anchor="middle" x="369" y="-388.5" font-family="Helvetica,sans-Serif" font-size="10.00"> </text>
</a>
</g>
</g>
<!-- Node6&#45;&gt;Node5 -->
<g id="edge5" class="edge">
<title>Node6&#45;&gt;Node5</title>
<path fill="none" stroke="#404040" d="M338.15,-381.23C327.12,-369.33 314.33,-355.54 301.92,-342.15"/>
<polygon fill="none" stroke="#404040" points="301.57,-341.78 294.56,-340.1 293.41,-332.98 300.42,-334.66 301.57,-341.78"/>
<text text-anchor="middle" x="331" y="-355" font-family="Helvetica,sans-Serif" font-size="10.00"> +vin</text>
</g>
<!-- Node7 -->
<g id="node7" class="node">
<title>Node7</title>
<g id="a_node7"><a xlink:href="structaltintegration_1_1btc_1_1TxIn.html" target="_top" xlink:title="An input of a transaction.">
<polygon fill="white" stroke="black" points="291.5,-497.5 291.5,-576.5 446.5,-576.5 446.5,-497.5 291.5,-497.5"/>
<text text-anchor="start" x="299.5" y="-564.5" font-family="Helvetica,sans-Serif" font-size="10.00">altintegration::btc</text>
<text text-anchor="middle" x="369" y="-553.5" font-family="Helvetica,sans-Serif" font-size="10.00">::TxIn</text>
<polyline fill="none" stroke="black" points="291.5,-546.5 446.5,-546.5 "/>
<text text-anchor="start" x="299.5" y="-534.5" font-family="Helvetica,sans-Serif" font-size="10.00">+ nSequence</text>
<text text-anchor="start" x="299.5" y="-523.5" font-family="Helvetica,sans-Serif" font-size="10.00">+ ADD_SERIALIZE_METHODS</text>
<polyline fill="none" stroke="black" points="291.5,-516.5 446.5,-516.5 "/>
<text text-anchor="start" x="299.5" y="-504.5" font-family="Helvetica,sans-Serif" font-size="10.00">+ SerializationOp()</text>
</a>
</g>
</g>
<!-- Node7&#45;&gt;Node6 -->
<g id="edge6" class="edge">
<title>Node7&#45;&gt;Node6</title>
<path fill="none" stroke="#404040" d="M369,-497.2C369,-485.99 369,-473.65 369,-462.07"/>
<polygon fill="none" stroke="#404040" points="369,-461.89 365,-455.89 369,-449.89 373,-455.89 369,-461.89"/>
<text text-anchor="middle" x="393.5" y="-471" font-family="Helvetica,sans-Serif" font-size="10.00"> +elements</text>
</g>
<!-- Node8&#45;&gt;Node7 -->
<g id="edge7" class="edge">
<title>Node8&#45;&gt;Node7</title>
<path fill="none" stroke="#404040" d="M578.33,-629.17C541.16,-612.98 496.47,-593.52 457.94,-576.74"/>
<polygon fill="none" stroke="#404040" points="457.73,-576.65 450.63,-577.92 446.73,-571.85 453.83,-570.58 457.73,-576.65"/>
<text text-anchor="middle" x="542.5" y="-598" font-family="Helvetica,sans-Serif" font-size="10.00"> +prevout</text>
</g>
<!-- Node9 -->
<g id="node9" class="node">
<title>Node9</title>
<g id="a_node9"><a xlink:title=" ">
<polygon fill="white" stroke="black" points="204.5,-850.5 204.5,-907.5 311.5,-907.5 311.5,-850.5 204.5,-850.5"/>
<text text-anchor="middle" x="258" y="-895.5" font-family="Helvetica,sans-Serif" font-size="10.00">std::vector&lt; uint8_t &gt;</text>
<polyline fill="none" stroke="black" points="204.5,-888.5 311.5,-888.5 "/>
<text text-anchor="start" x="212.5" y="-876.5" font-family="Helvetica,sans-Serif" font-size="10.00">+ elements</text>
<polyline fill="none" stroke="black" points="204.5,-869.5 311.5,-869.5 "/>
<text text-anchor="middle" x="258" y="-857.5" font-family="Helvetica,sans-Serif" font-size="10.00"> </text>
</a>
</g>
</g>
<!-- Node9&#45;&gt;Node7 -->
<g id="edge9" class="edge">
<title>Node9&#45;&gt;Node7</title>
<path fill="none" stroke="#404040" d="M256.21,-850.41C252.93,-793.08 247.94,-663.18 267,-624 274.22,-609.17 285.31,-595.93 297.57,-584.55"/>
<polygon fill="none" stroke="#404040" points="297.63,-584.5 299.51,-577.54 306.66,-576.6 304.78,-583.56 297.63,-584.5"/>
<text text-anchor="middle" x="290.5" y="-661.5" font-family="Helvetica,sans-Serif" font-size="10.00"> +scriptSig</text>
</g>
<!-- Node12 -->
<g id="node12" class="node">
<title>Node12</title>
<g id="a_node12"><a xlink:title=" ">
<polygon fill="white" stroke="black" points="323.5,-630 323.5,-698 438.5,-698 438.5,-630 323.5,-630"/>
<text text-anchor="start" x="331.5" y="-686" font-family="Helvetica,sans-Serif" font-size="10.00">std::vector&lt; std::vector</text>
<text text-anchor="middle" x="381" y="-675" font-family="Helvetica,sans-Serif" font-size="10.00">&lt; uint8_t &gt; &gt;</text>
<polyline fill="none" stroke="black" points="323.5,-668 438.5,-668 "/>
<text text-anchor="middle" x="381" y="-656" font-family="Helvetica,sans-Serif" font-size="10.00"> </text>
<polyline fill="none" stroke="black" points="323.5,-649 438.5,-649 "/>
<text text-anchor="middle" x="381" y="-637" font-family="Helvetica,sans-Serif" font-size="10.00"> </text>
</a>
</g>
</g>
<!-- Node9&#45;&gt;Node12 -->
<g id="edge13" class="edge">
<title>Node9&#45;&gt;Node12</title>
<path fill="none" stroke="#404040" d="M259.02,-850.48C261.49,-817.26 269.74,-761.02 297,-722 301.68,-715.3 307.42,-709.16 313.68,-703.59"/>
<polygon fill="none" stroke="#404040" points="313.87,-703.44 315.99,-696.55 323.17,-695.85 321.05,-702.74 313.87,-703.44"/>
<text text-anchor="middle" x="321.5" y="-730.5" font-family="Helvetica,sans-Serif" font-size="10.00"> +elements</text>
</g>
<!-- Node14 -->
<g id="node14" class="node">
<title>Node14</title>
<g id="a_node14"><a xlink:href="structaltintegration_1_1btc_1_1TxOut.html" target="_top" xlink:title="An output of a transaction.">
<polygon fill="white" stroke="black" points="66.5,-624.5 66.5,-703.5 221.5,-703.5 221.5,-624.5 66.5,-624.5"/>
<text text-anchor="start" x="74.5" y="-691.5" font-family="Helvetica,sans-Serif" font-size="10.00">altintegration::btc</text>
<text text-anchor="middle" x="144" y="-680.5" font-family="Helvetica,sans-Serif" font-size="10.00">::TxOut</text>
<polyline fill="none" stroke="black" points="66.5,-673.5 221.5,-673.5 "/>
<text text-anchor="start" x="74.5" y="-661.5" font-family="Helvetica,sans-Serif" font-size="10.00">+ nValue</text>
<text text-anchor="start" x="74.5" y="-650.5" font-family="Helvetica,sans-Serif" font-size="10.00">+ ADD_SERIALIZE_METHODS</text>
<polyline fill="none" stroke="black" points="66.5,-643.5 221.5,-643.5 "/>
<text text-anchor="start" x="74.5" y="-631.5" font-family="Helvetica,sans-Serif" font-size="10.00">+ SerializationOp()</text>
</a>
</g>
</g>
<!-- Node9&#45;&gt;Node14 -->
<g id="edge18" class="edge">
<title>Node9&#45;&gt;Node14</title>
<path fill="none" stroke="#404040" d="M239.69,-850.45C222.41,-823.83 196.32,-782.06 177,-744 172.31,-734.76 167.73,-724.69 163.54,-714.94"/>
<polygon fill="none" stroke="#404040" points="163.47,-714.76 157.46,-710.77 158.82,-703.69 164.83,-707.68 163.47,-714.76"/>
<text text-anchor="middle" x="210.5" y="-730.5" font-family="Helvetica,sans-Serif" font-size="10.00"> +scriptPubKey</text>
</g>
<!-- Node10 -->
<g id="node10" class="node">
<title>Node10</title>
<g id="a_node10"><a xlink:title=" ">
<polygon fill="white" stroke="black" points="216,-1126 216,-1183 300,-1183 300,-1126 216,-1126"/>
<text text-anchor="middle" x="258" y="-1171" font-family="Helvetica,sans-Serif" font-size="10.00">std::vector&lt; T &gt;</text>
<polyline fill="none" stroke="black" points="216,-1164 300,-1164 "/>
<text text-anchor="middle" x="258" y="-1152" font-family="Helvetica,sans-Serif" font-size="10.00"> </text>
<polyline fill="none" stroke="black" points="216,-1145 300,-1145 "/>
<text text-anchor="middle" x="258" y="-1133" font-family="Helvetica,sans-Serif" font-size="10.00"> </text>
</a>
</g>
</g>
<!-- Node10&#45;&gt;Node4 -->
<g id="edge20" class="edge">
<title>Node10&#45;&gt;Node4</title>
<path fill="none" stroke="orange" d="M207.1,-1128.64C131.92,-1087.94 0,-999.49 0,-880 0,-880 0,-880 0,-282 0,-198.32 111.95,-168.17 185.42,-157.4"/>
<polygon fill="orange" stroke="orange" points="205.5,-1131.76 215.97,-1133.37 208.79,-1125.58 205.5,-1131.76"/>
<text text-anchor="start" x="0" y="-540" font-family="Helvetica,sans-Serif" font-size="10.00"> &lt; altintegration::btc</text>
<text text-anchor="middle" x="42.5" y="-529" font-family="Helvetica,sans-Serif" font-size="10.00">::Transaction &gt;</text>
</g>
<!-- Node10&#45;&gt;Node6 -->
<g id="edge15" class="edge">
<title>Node10&#45;&gt;Node6</title>
<path fill="none" stroke="orange" d="M308.99,-1128.67C356.54,-1102.62 425.21,-1056.96 460,-996 485.77,-950.85 475,-931.98 475,-880 475,-880 475,-880 475,-536 475,-500.5 448.5,-470.63 422,-449.63"/>
<polygon fill="orange" stroke="orange" points="307.22,-1125.65 300.07,-1133.46 310.54,-1131.81 307.22,-1125.65"/>
<text text-anchor="start" x="475" y="-667" font-family="Helvetica,sans-Serif" font-size="10.00"> &lt; altintegration::btc</text>
<text text-anchor="middle" x="517.5" y="-656" font-family="Helvetica,sans-Serif" font-size="10.00">::TxIn &gt;</text>
</g>
<!-- Node10&#45;&gt;Node9 -->
<g id="edge10" class="edge">
<title>Node10&#45;&gt;Node9</title>
<path fill="none" stroke="orange" d="M258,-1115.61C258,-1059.88 258,-957.1 258,-907.8"/>
<polygon fill="orange" stroke="orange" points="254.5,-1115.77 258,-1125.77 261.5,-1115.77 254.5,-1115.77"/>
<text text-anchor="middle" x="282.5" y="-1017" font-family="Helvetica,sans-Serif" font-size="10.00"> &lt; uint8_t &gt;</text>
</g>
<!-- Node10&#45;&gt;Node12 -->
<g id="edge14" class="edge">
<title>Node10&#45;&gt;Node12</title>
<path fill="none" stroke="orange" d="M274.23,-1116.67C285.21,-1091.16 299.71,-1056.3 311,-1025 352.79,-909.1 371.4,-762.73 377.99,-698.17"/>
<polygon fill="orange" stroke="orange" points="270.97,-1115.39 270.21,-1125.96 277.39,-1118.17 270.97,-1115.39"/>
<text text-anchor="start" x="371" y="-882" font-family="Helvetica,sans-Serif" font-size="10.00"> &lt; std::vector&lt; uint8</text>
<text text-anchor="middle" x="413.5" y="-871" font-family="Helvetica,sans-Serif" font-size="10.00">_t &gt; &gt;</text>
</g>
<!-- Node13 -->
<g id="node13" class="node">
<title>Node13</title>
<g id="a_node13"><a xlink:title=" ">
<polygon fill="white" stroke="black" points="103.5,-503 103.5,-571 228.5,-571 228.5,-503 103.5,-503"/>
<text text-anchor="start" x="111.5" y="-559" font-family="Helvetica,sans-Serif" font-size="10.00">std::vector&lt; altintegration</text>
<text text-anchor="middle" x="166" y="-548" font-family="Helvetica,sans-Serif" font-size="10.00">::btc::TxOut &gt;</text>
<polyline fill="none" stroke="black" points="103.5,-541 228.5,-541 "/>
<text text-anchor="middle" x="166" y="-529" font-family="Helvetica,sans-Serif" font-size="10.00"> </text>
<polyline fill="none" stroke="black" points="103.5,-522 228.5,-522 "/>
<text text-anchor="middle" x="166" y="-510" font-family="Helvetica,sans-Serif" font-size="10.00"> </text>
</a>
</g>
</g>
<!-- Node10&#45;&gt;Node13 -->
<g id="edge19" class="edge">
<title>Node10&#45;&gt;Node13</title>
<path fill="none" stroke="orange" d="M235.07,-1116.77C190.12,-1042.34 91.77,-866.95 57,-704 49.58,-669.23 41.49,-655.99 57,-624 67.41,-602.53 86.07,-584.8 105.04,-571.13"/>
<polygon fill="orange" stroke="orange" points="232.35,-1119.03 240.53,-1125.75 238.33,-1115.39 232.35,-1119.03"/>
<text text-anchor="start" x="67" y="-736" font-family="Helvetica,sans-Serif" font-size="10.00"> &lt; altintegration::btc</text>
<text text-anchor="middle" x="109.5" y="-725" font-family="Helvetica,sans-Serif" font-size="10.00">::TxOut &gt;</text>
</g>
<!-- Node11 -->
<g id="node11" class="node">
<title>Node11</title>
<g id="a_node11"><a xlink:title=" ">
<polygon fill="white" stroke="#bfbfbf" points="243.5,-1313.5 243.5,-1370.5 272.5,-1370.5 272.5,-1313.5 243.5,-1313.5"/>
<text text-anchor="middle" x="258" y="-1358.5" font-family="Helvetica,sans-Serif" font-size="10.00">T</text>
<polyline fill="none" stroke="#bfbfbf" points="243.5,-1351.5 272.5,-1351.5 "/>
<text text-anchor="middle" x="258" y="-1339.5" font-family="Helvetica,sans-Serif" font-size="10.00"> </text>
<polyline fill="none" stroke="#bfbfbf" points="243.5,-1332.5 272.5,-1332.5 "/>
<text text-anchor="middle" x="258" y="-1320.5" font-family="Helvetica,sans-Serif" font-size="10.00"> </text>
</a>
</g>
</g>
<!-- Node11&#45;&gt;Node10 -->
<g id="edge11" class="edge">
<title>Node11&#45;&gt;Node10</title>
<path fill="none" stroke="#404040" d="M258,-1313.23C258,-1281.99 258,-1231 258,-1195.48"/>
<polygon fill="none" stroke="#404040" points="258,-1195.16 254,-1189.16 258,-1183.16 262,-1189.16 258,-1195.16"/>
<text text-anchor="middle" x="282.5" y="-1287" font-family="Helvetica,sans-Serif" font-size="10.00"> +elements</text>
</g>
<!-- Node12&#45;&gt;Node7 -->
<g id="edge12" class="edge">
<title>Node12&#45;&gt;Node7</title>
<path fill="none" stroke="#404040" d="M377.82,-629.83C376.61,-617.32 375.22,-602.77 373.9,-589"/>
<polygon fill="none" stroke="#404040" points="373.86,-588.59 369.3,-583 372.71,-576.65 377.27,-582.24 373.86,-588.59"/>
<text text-anchor="middle" x="410" y="-598" font-family="Helvetica,sans-Serif" font-size="10.00"> +scriptWitness</text>
</g>
<!-- Node13&#45;&gt;Node5 -->
<g id="edge16" class="edge">
<title>Node13&#45;&gt;Node5</title>
<path fill="none" stroke="#404040" d="M176.8,-502.8C189.81,-462.83 211.91,-394.92 228.04,-345.33"/>
<polygon fill="none" stroke="#404040" points="228.09,-345.2 226.14,-338.25 231.8,-333.78 233.75,-340.73 228.09,-345.2"/>
<text text-anchor="middle" x="230" y="-413" font-family="Helvetica,sans-Serif" font-size="10.00"> +vout</text>
</g>
<!-- Node14&#45;&gt;Node13 -->
<g id="edge17" class="edge">
<title>Node14&#45;&gt;Node13</title>
<path fill="none" stroke="#404040" d="M150.78,-624.48C153.08,-611.4 155.67,-596.68 158.05,-583.14"/>
<polygon fill="none" stroke="#404040" points="158.09,-582.94 155.19,-576.34 160.17,-571.12 163.07,-577.72 158.09,-582.94"/>
<text text-anchor="middle" x="180.5" y="-598" font-family="Helvetica,sans-Serif" font-size="10.00"> +elements</text>
</g>
</g>
</svg>
