<?xml version="1.0" encoding="UTF-8" standalone="no"?>
<!DOCTYPE svg PUBLIC "-//W3C//DTD SVG 1.1//EN"
 "http://www.w3.org/Graphics/SVG/1.1/DTD/svg11.dtd">
<!-- Generated by graphviz version 2.50.0 (20220203.2022)
 -->
<!-- Title: altintegration::DefaultPopRewardsCalculator Pages: 1 -->
<svg width="861pt" height="2013pt"
 viewBox="0.00 0.00 860.50 2013.00" xmlns="http://www.w3.org/2000/svg" xmlns:xlink="http://www.w3.org/1999/xlink">
<g id="graph0" class="graph" transform="scale(1 1) rotate(0) translate(4 2009)">
<title>altintegration::DefaultPopRewardsCalculator</title>
<polygon fill="white" stroke="transparent" points="-4,4 -4,-2009 856.5,-2009 856.5,4 -4,4"/>
<!-- Node1 -->
<g id="node1" class="node">
<title>Node1</title>
<g id="a_node1"><a xlink:title=" ">
<polygon fill="#bfbfbf" stroke="black" points="225.5,-0.5 225.5,-189.5 391.5,-189.5 391.5,-0.5 225.5,-0.5"/>
<text text-anchor="start" x="233.5" y="-177.5" font-family="Helvetica,sans-Serif" font-size="10.00">altintegration::DefaultPop</text>
<text text-anchor="middle" x="308.5" y="-166.5" font-family="Helvetica,sans-Serif" font-size="10.00">RewardsCalculator</text>
<polyline fill="none" stroke="black" points="225.5,-159.5 391.5,-159.5 "/>
<text text-anchor="middle" x="308.5" y="-147.5" font-family="Helvetica,sans-Serif" font-size="10.00"> </text>
<polyline fill="none" stroke="black" points="225.5,-140.5 391.5,-140.5 "/>
<text text-anchor="start" x="233.5" y="-128.5" font-family="Helvetica,sans-Serif" font-size="10.00">+ DefaultPopRewardsCalculator()</text>
<text text-anchor="start" x="233.5" y="-117.5" font-family="Helvetica,sans-Serif" font-size="10.00">+ ~DefaultPopRewardsCalculator()</text>
<text text-anchor="start" x="233.5" y="-106.5" font-family="Helvetica,sans-Serif" font-size="10.00">+ getPopPayout()</text>
<text text-anchor="start" x="233.5" y="-95.5" font-family="Helvetica,sans-Serif" font-size="10.00">+ calculatePayouts()</text>
<text text-anchor="start" x="233.5" y="-84.5" font-family="Helvetica,sans-Serif" font-size="10.00">+ scoreFromEndorsements()</text>
<text text-anchor="start" x="233.5" y="-73.5" font-family="Helvetica,sans-Serif" font-size="10.00">+ getRoundForBlockNumber()</text>
<text text-anchor="start" x="233.5" y="-62.5" font-family="Helvetica,sans-Serif" font-size="10.00">+ calculateBlockReward()</text>
<text text-anchor="start" x="233.5" y="-51.5" font-family="Helvetica,sans-Serif" font-size="10.00">+ calculateMinerReward()</text>
<text text-anchor="start" x="233.5" y="-40.5" font-family="Helvetica,sans-Serif" font-size="10.00"># getScoreMultiplierFromRelative</text>
<text text-anchor="start" x="233.5" y="-29.5" font-family="Helvetica,sans-Serif" font-size="10.00">Block()</text>
<text text-anchor="start" x="233.5" y="-18.5" font-family="Helvetica,sans-Serif" font-size="10.00"># calculateDifficulty()</text>
<text text-anchor="start" x="233.5" y="-7.5" font-family="Helvetica,sans-Serif" font-size="10.00"># calculatePayoutsInner()</text>
</a>
</g>
</g>
<!-- Node2 -->
<g id="node2" class="node">
<title>Node2</title>
<g id="a_node2"><a xlink:href="structaltintegration_1_1PopRewardsCalculator.html" target="_top" xlink:title=" ">
<polygon fill="white" stroke="black" points="225,-320 225,-399 360,-399 360,-320 225,-320"/>
<text text-anchor="start" x="233" y="-387" font-family="Helvetica,sans-Serif" font-size="10.00">altintegration::PopRewards</text>
<text text-anchor="middle" x="292.5" y="-376" font-family="Helvetica,sans-Serif" font-size="10.00">Calculator</text>
<polyline fill="none" stroke="black" points="225,-369 360,-369 "/>
<text text-anchor="middle" x="292.5" y="-357" font-family="Helvetica,sans-Serif" font-size="10.00"> </text>
<polyline fill="none" stroke="black" points="225,-350 360,-350 "/>
<text text-anchor="start" x="233" y="-338" font-family="Helvetica,sans-Serif" font-size="10.00">+ ~PopRewardsCalculator()</text>
<text text-anchor="start" x="233" y="-327" font-family="Helvetica,sans-Serif" font-size="10.00">+ getPopPayout()</text>
</a>
</g>
</g>
<!-- Node2&#45;&gt;Node1 -->
<g id="edge1" class="edge">
<title>Node2&#45;&gt;Node1</title>
<path fill="none" stroke="midnightblue" d="M295.47,-309.73C297.52,-276.07 300.32,-230.25 302.79,-189.66"/>
<polygon fill="none" stroke="midnightblue" points="291.98,-309.57 294.86,-319.77 298.96,-310 291.98,-309.57"/>
</g>
<!-- Node3 -->
<g id="node3" class="node">
<title>Node3</title>
<g id="a_node3"><a xlink:href="structaltintegration_1_1AltBlockTree.html" target="_top" xlink:title="Represents simplified view on Altchain&#39;s block tree, maintains VBK tree and BTC tree.">
<polygon fill="white" stroke="black" points="378,-237.5 378,-481.5 527,-481.5 527,-237.5 378,-237.5"/>
<text text-anchor="middle" x="452.5" y="-469.5" font-family="Helvetica,sans-Serif" font-size="10.00">altintegration::AltBlockTree</text>
<polyline fill="none" stroke="black" points="378,-462.5 527,-462.5 "/>
<text text-anchor="start" x="386" y="-450.5" font-family="Helvetica,sans-Serif" font-size="10.00">+ onInvalidBlockConnected</text>
<text text-anchor="start" x="386" y="-439.5" font-family="Helvetica,sans-Serif" font-size="10.00">+ onBlockConnected</text>
<text text-anchor="start" x="386" y="-428.5" font-family="Helvetica,sans-Serif" font-size="10.00">+ onBeforeOverrideTip</text>
<polyline fill="none" stroke="black" points="378,-421.5 527,-421.5 "/>
<text text-anchor="start" x="386" y="-409.5" font-family="Helvetica,sans-Serif" font-size="10.00">+ ~AltBlockTree()</text>
<text text-anchor="start" x="386" y="-398.5" font-family="Helvetica,sans-Serif" font-size="10.00">+ AltBlockTree()</text>
<text text-anchor="start" x="386" y="-387.5" font-family="Helvetica,sans-Serif" font-size="10.00">+ acceptBlockHeader()</text>
<text text-anchor="start" x="386" y="-376.5" font-family="Helvetica,sans-Serif" font-size="10.00">+ acceptBlock()</text>
<text text-anchor="start" x="386" y="-365.5" font-family="Helvetica,sans-Serif" font-size="10.00">+ acceptBlock()</text>
<text text-anchor="start" x="386" y="-354.5" font-family="Helvetica,sans-Serif" font-size="10.00">+ acceptBlock()</text>
<text text-anchor="start" x="386" y="-343.5" font-family="Helvetica,sans-Serif" font-size="10.00">+ makeConnectedLeafPayload</text>
<text text-anchor="start" x="386" y="-332.5" font-family="Helvetica,sans-Serif" font-size="10.00">Mutator()</text>
<text text-anchor="start" x="386" y="-321.5" font-family="Helvetica,sans-Serif" font-size="10.00">+ getConnectedTipsAfter()</text>
<text text-anchor="start" x="386" y="-310.5" font-family="Helvetica,sans-Serif" font-size="10.00">+ loadBlockForward()</text>
<text text-anchor="start" x="386" y="-299.5" font-family="Helvetica,sans-Serif" font-size="10.00">+ loadTip()</text>
<text text-anchor="start" x="386" y="-288.5" font-family="Helvetica,sans-Serif" font-size="10.00">+ comparePopScore()</text>
<text text-anchor="start" x="386" y="-277.5" font-family="Helvetica,sans-Serif" font-size="10.00">+ setState()</text>
<text text-anchor="start" x="386" y="-266.5" font-family="Helvetica,sans-Serif" font-size="10.00">+ vbk()</text>
<text text-anchor="start" x="386" y="-255.5" font-family="Helvetica,sans-Serif" font-size="10.00">+ btc()</text>
<text text-anchor="start" x="386" y="-244.5" font-family="Helvetica,sans-Serif" font-size="10.00">+ getParams()</text>
</a>
</g>
</g>
<!-- Node3&#45;&gt;Node1 -->
<g id="edge2" class="edge">
<title>Node3&#45;&gt;Node1</title>
<path fill="none" stroke="#404040" d="M385.98,-237.24C379.2,-224.87 372.35,-212.39 365.68,-200.23"/>
<polygon fill="none" stroke="#404040" points="365.64,-200.16 359.25,-196.83 359.87,-189.64 366.26,-192.98 365.64,-200.16"/>
<text text-anchor="middle" x="387.5" y="-211" font-family="Helvetica,sans-Serif" font-size="10.00"> #tree_</text>
</g>
<!-- Node4 -->
<g id="node4" class="node">
<title>Node4</title>
<g id="a_node4"><a xlink:href="structaltintegration_1_1BaseBlockTree.html" target="_top" xlink:title=" ">
<polygon fill="white" stroke="black" points="376.5,-519.5 376.5,-785.5 528.5,-785.5 528.5,-519.5 376.5,-519.5"/>
<text text-anchor="start" x="384.5" y="-773.5" font-family="Helvetica,sans-Serif" font-size="10.00">altintegration::BaseBlock</text>
<text text-anchor="middle" x="452.5" y="-762.5" font-family="Helvetica,sans-Serif" font-size="10.00">Tree&lt; AltBlock &gt;</text>
<polyline fill="none" stroke="black" points="376.5,-755.5 528.5,-755.5 "/>
<text text-anchor="start" x="384.5" y="-743.5" font-family="Helvetica,sans-Serif" font-size="10.00"># isLoadingBlocks_</text>
<text text-anchor="start" x="384.5" y="-732.5" font-family="Helvetica,sans-Serif" font-size="10.00"># isLoaded_</text>
<text text-anchor="start" x="384.5" y="-721.5" font-family="Helvetica,sans-Serif" font-size="10.00"># validity_sig_</text>
<polyline fill="none" stroke="black" points="376.5,-714.5 528.5,-714.5 "/>
<text text-anchor="start" x="384.5" y="-702.5" font-family="Helvetica,sans-Serif" font-size="10.00">+ getTips()</text>
<text text-anchor="start" x="384.5" y="-691.5" font-family="Helvetica,sans-Serif" font-size="10.00">+ getBlocks()</text>
<text text-anchor="start" x="384.5" y="-680.5" font-family="Helvetica,sans-Serif" font-size="10.00">+ getAllBlocks()</text>
<text text-anchor="start" x="384.5" y="-669.5" font-family="Helvetica,sans-Serif" font-size="10.00">+ getBlockProvider()</text>
<text text-anchor="start" x="384.5" y="-658.5" font-family="Helvetica,sans-Serif" font-size="10.00">+ ~BaseBlockTree()</text>
<text text-anchor="start" x="384.5" y="-647.5" font-family="Helvetica,sans-Serif" font-size="10.00">+ BaseBlockTree()</text>
<text text-anchor="start" x="384.5" y="-636.5" font-family="Helvetica,sans-Serif" font-size="10.00">+ BaseBlockTree()</text>
<text text-anchor="start" x="384.5" y="-625.5" font-family="Helvetica,sans-Serif" font-size="10.00">+ BaseBlockTree()</text>
<text text-anchor="start" x="384.5" y="-614.5" font-family="Helvetica,sans-Serif" font-size="10.00">+ operator=()</text>
<text text-anchor="start" x="384.5" y="-603.5" font-family="Helvetica,sans-Serif" font-size="10.00">+ operator=()</text>
<text text-anchor="start" x="384.5" y="-592.5" font-family="Helvetica,sans-Serif" font-size="10.00">and 25 more...</text>
<text text-anchor="start" x="384.5" y="-581.5" font-family="Helvetica,sans-Serif" font-size="10.00"># eraseBlock()</text>
<text text-anchor="start" x="384.5" y="-570.5" font-family="Helvetica,sans-Serif" font-size="10.00"># toPrettyString()</text>
<text text-anchor="start" x="384.5" y="-559.5" font-family="Helvetica,sans-Serif" font-size="10.00"># decreaseAppliedBlockCount()</text>
<text text-anchor="start" x="384.5" y="-548.5" font-family="Helvetica,sans-Serif" font-size="10.00"># decreaseAppliedBlockCount()</text>
<text text-anchor="start" x="384.5" y="-537.5" font-family="Helvetica,sans-Serif" font-size="10.00"># increaseAppliedBlockCount()</text>
<text text-anchor="start" x="384.5" y="-526.5" font-family="Helvetica,sans-Serif" font-size="10.00"># increaseAppliedBlockCount()</text>
</a>
</g>
</g>
<!-- Node4&#45;&gt;Node3 -->
<g id="edge3" class="edge">
<title>Node4&#45;&gt;Node3</title>
<path fill="none" stroke="midnightblue" d="M452.5,-508.95C452.5,-499.87 452.5,-490.77 452.5,-481.79"/>
<polygon fill="none" stroke="midnightblue" points="449,-509.2 452.5,-519.2 456,-509.2 449,-509.2"/>
</g>
<!-- Node5 -->
<g id="node5" class="node">
<title>Node5</title>
<g id="a_node5"><a xlink:title=" ">
<polygon fill="white" stroke="black" points="35,-1197 35,-1276 172,-1276 172,-1197 35,-1197"/>
<text text-anchor="start" x="43" y="-1264" font-family="Helvetica,sans-Serif" font-size="10.00">std::unordered_map</text>
<text text-anchor="start" x="43" y="-1253" font-family="Helvetica,sans-Serif" font-size="10.00">&lt; prev_block_hash_t,</text>
<text text-anchor="middle" x="103.5" y="-1242" font-family="Helvetica,sans-Serif" font-size="10.00"> std::unique_ptr&lt; index_t &gt; &gt;</text>
<polyline fill="none" stroke="black" points="35,-1235 172,-1235 "/>
<text text-anchor="start" x="43" y="-1223" font-family="Helvetica,sans-Serif" font-size="10.00">+ keys</text>
<polyline fill="none" stroke="black" points="35,-1216 172,-1216 "/>
<text text-anchor="middle" x="103.5" y="-1204" font-family="Helvetica,sans-Serif" font-size="10.00"> </text>
</a>
</g>
</g>
<!-- Node5&#45;&gt;Node4 -->
<g id="edge4" class="edge">
<title>Node5&#45;&gt;Node4</title>
<path fill="none" stroke="#404040" d="M113.3,-1196.86C133.51,-1121.99 184.86,-953.89 266.5,-833 294.17,-792.03 332.46,-753.09 367.12,-722.01"/>
<polygon fill="none" stroke="#404040" points="367.33,-721.82 369.17,-714.85 376.31,-713.87 374.47,-720.84 367.33,-721.82"/>
<text text-anchor="middle" x="287.5" y="-964" font-family="Helvetica,sans-Serif" font-size="10.00"> #blocks_</text>
</g>
<!-- Node22 -->
<g id="node22" class="node">
<title>Node22</title>
<g id="a_node22"><a xlink:href="structaltintegration_1_1BaseBlockTree.html" target="_top" xlink:title="Base block tree that stores all blocks, maintains tree tips, maintains active chain.">
<polygon fill="white" stroke="black" points="376.5,-833.5 376.5,-1099.5 528.5,-1099.5 528.5,-833.5 376.5,-833.5"/>
<text text-anchor="start" x="384.5" y="-1087.5" font-family="Helvetica,sans-Serif" font-size="10.00">altintegration::BaseBlock</text>
<text text-anchor="middle" x="452.5" y="-1076.5" font-family="Helvetica,sans-Serif" font-size="10.00">Tree&lt; Block &gt;</text>
<polyline fill="none" stroke="black" points="376.5,-1069.5 528.5,-1069.5 "/>
<text text-anchor="start" x="384.5" y="-1057.5" font-family="Helvetica,sans-Serif" font-size="10.00"># isLoadingBlocks_</text>
<text text-anchor="start" x="384.5" y="-1046.5" font-family="Helvetica,sans-Serif" font-size="10.00"># isLoaded_</text>
<text text-anchor="start" x="384.5" y="-1035.5" font-family="Helvetica,sans-Serif" font-size="10.00"># validity_sig_</text>
<polyline fill="none" stroke="black" points="376.5,-1028.5 528.5,-1028.5 "/>
<text text-anchor="start" x="384.5" y="-1016.5" font-family="Helvetica,sans-Serif" font-size="10.00">+ getTips()</text>
<text text-anchor="start" x="384.5" y="-1005.5" font-family="Helvetica,sans-Serif" font-size="10.00">+ getBlocks()</text>
<text text-anchor="start" x="384.5" y="-994.5" font-family="Helvetica,sans-Serif" font-size="10.00">+ getAllBlocks()</text>
<text text-anchor="start" x="384.5" y="-983.5" font-family="Helvetica,sans-Serif" font-size="10.00">+ getBlockProvider()</text>
<text text-anchor="start" x="384.5" y="-972.5" font-family="Helvetica,sans-Serif" font-size="10.00">+ ~BaseBlockTree()</text>
<text text-anchor="start" x="384.5" y="-961.5" font-family="Helvetica,sans-Serif" font-size="10.00">+ BaseBlockTree()</text>
<text text-anchor="start" x="384.5" y="-950.5" font-family="Helvetica,sans-Serif" font-size="10.00">+ BaseBlockTree()</text>
<text text-anchor="start" x="384.5" y="-939.5" font-family="Helvetica,sans-Serif" font-size="10.00">+ operator=()</text>
<text text-anchor="start" x="384.5" y="-928.5" font-family="Helvetica,sans-Serif" font-size="10.00">+ BaseBlockTree()</text>
<text text-anchor="start" x="384.5" y="-917.5" font-family="Helvetica,sans-Serif" font-size="10.00">+ operator=()</text>
<text text-anchor="start" x="384.5" y="-906.5" font-family="Helvetica,sans-Serif" font-size="10.00">and 25 more...</text>
<text text-anchor="start" x="384.5" y="-895.5" font-family="Helvetica,sans-Serif" font-size="10.00"># eraseBlock()</text>
<text text-anchor="start" x="384.5" y="-884.5" font-family="Helvetica,sans-Serif" font-size="10.00"># toPrettyString()</text>
<text text-anchor="start" x="384.5" y="-873.5" font-family="Helvetica,sans-Serif" font-size="10.00"># decreaseAppliedBlockCount()</text>
<text text-anchor="start" x="384.5" y="-862.5" font-family="Helvetica,sans-Serif" font-size="10.00"># increaseAppliedBlockCount()</text>
<text text-anchor="start" x="384.5" y="-851.5" font-family="Helvetica,sans-Serif" font-size="10.00"># decreaseAppliedBlockCount()</text>
<text text-anchor="start" x="384.5" y="-840.5" font-family="Helvetica,sans-Serif" font-size="10.00"># increaseAppliedBlockCount()</text>
</a>
</g>
</g>
<!-- Node5&#45;&gt;Node22 -->
<g id="edge28" class="edge">
<title>Node5&#45;&gt;Node22</title>
<path fill="none" stroke="#404040" d="M161.07,-1196.82C186.21,-1180.6 216.33,-1162.05 244.5,-1147 289.6,-1122.91 309.28,-1131.57 349.5,-1100 355.81,-1095.04 361.96,-1089.62 367.91,-1083.89"/>
<polygon fill="none" stroke="#404040" points="368,-1083.79 369.4,-1076.72 376.46,-1075.29 375.07,-1082.36 368,-1083.79"/>
<text text-anchor="middle" x="341.5" y="-1121" font-family="Helvetica,sans-Serif" font-size="10.00"> #blocks_</text>
</g>
<!-- Node6 -->
<g id="node6" class="node">
<title>Node6</title>
<g id="a_node6"><a xlink:title=" ">
<polygon fill="white" stroke="black" points="0,-1614.5 0,-1671.5 127,-1671.5 127,-1614.5 0,-1614.5"/>
<text text-anchor="middle" x="63.5" y="-1659.5" font-family="Helvetica,sans-Serif" font-size="10.00">std::unique_ptr&lt; index_t &gt;</text>
<polyline fill="none" stroke="black" points="0,-1652.5 127,-1652.5 "/>
<text text-anchor="start" x="8" y="-1640.5" font-family="Helvetica,sans-Serif" font-size="10.00">+ ptr</text>
<polyline fill="none" stroke="black" points="0,-1633.5 127,-1633.5 "/>
<text text-anchor="start" x="8" y="-1621.5" font-family="Helvetica,sans-Serif" font-size="10.00">+ operator&#45;&gt;()</text>
</a>
</g>
</g>
<!-- Node6&#45;&gt;Node5 -->
<g id="edge5" class="edge">
<title>Node6&#45;&gt;Node5</title>
<path fill="none" stroke="#404040" d="M55.8,-1614.46C54.43,-1608.42 53.21,-1602.03 52.5,-1596 41.47,-1502.43 36.79,-1476.9 52.5,-1384 58.1,-1350.89 70.34,-1315.28 81.43,-1287.46"/>
<polygon fill="none" stroke="#404040" points="81.55,-1287.15 80.12,-1280.09 86.09,-1276.04 87.52,-1283.11 81.55,-1287.15"/>
<text text-anchor="middle" x="77" y="-1487.5" font-family="Helvetica,sans-Serif" font-size="10.00"> +elements</text>
</g>
<!-- Node7 -->
<g id="node7" class="node">
<title>Node7</title>
<g id="a_node7"><a xlink:title=" ">
<polygon fill="white" stroke="black" points="34.5,-1766.5 34.5,-1823.5 136.5,-1823.5 136.5,-1766.5 34.5,-1766.5"/>
<text text-anchor="middle" x="85.5" y="-1811.5" font-family="Helvetica,sans-Serif" font-size="10.00">std::unique_ptr&lt; T &gt;</text>
<polyline fill="none" stroke="black" points="34.5,-1804.5 136.5,-1804.5 "/>
<text text-anchor="middle" x="85.5" y="-1792.5" font-family="Helvetica,sans-Serif" font-size="10.00"> </text>
<polyline fill="none" stroke="black" points="34.5,-1785.5 136.5,-1785.5 "/>
<text text-anchor="start" x="42.5" y="-1773.5" font-family="Helvetica,sans-Serif" font-size="10.00">+ operator&#45;&gt;()</text>
</a>
</g>
</g>
<!-- Node7&#45;&gt;Node6 -->
<g id="edge6" class="edge">
<title>Node7&#45;&gt;Node6</title>
<path fill="none" stroke="orange" d="M80,-1756.47C76.13,-1730.11 71.04,-1695.43 67.55,-1671.59"/>
<polygon fill="orange" stroke="orange" points="76.55,-1757.1 81.46,-1766.49 83.48,-1756.09 76.55,-1757.1"/>
<text text-anchor="middle" x="103.5" y="-1716.5" font-family="Helvetica,sans-Serif" font-size="10.00"> &lt; index_t &gt;</text>
</g>
<!-- Node8 -->
<g id="node8" class="node">
<title>Node8</title>
<g id="a_node8"><a xlink:title=" ">
<polygon fill="white" stroke="#bfbfbf" points="147,-1947.5 147,-2004.5 176,-2004.5 176,-1947.5 147,-1947.5"/>
<text text-anchor="middle" x="161.5" y="-1992.5" font-family="Helvetica,sans-Serif" font-size="10.00">T</text>
<polyline fill="none" stroke="#bfbfbf" points="147,-1985.5 176,-1985.5 "/>
<text text-anchor="middle" x="161.5" y="-1973.5" font-family="Helvetica,sans-Serif" font-size="10.00"> </text>
<polyline fill="none" stroke="#bfbfbf" points="147,-1966.5 176,-1966.5 "/>
<text text-anchor="middle" x="161.5" y="-1954.5" font-family="Helvetica,sans-Serif" font-size="10.00"> </text>
</a>
</g>
</g>
<!-- Node8&#45;&gt;Node7 -->
<g id="edge7" class="edge">
<title>Node8&#45;&gt;Node7</title>
<path fill="none" stroke="#404040" d="M146.81,-1957.98C140.2,-1949.67 132.73,-1939.26 127.5,-1929 112.25,-1899.06 101.19,-1862.51 94.26,-1835.3"/>
<polygon fill="none" stroke="#404040" points="94.23,-1835.17 88.92,-1830.3 91.37,-1823.52 96.68,-1828.39 94.23,-1835.17"/>
<text text-anchor="middle" x="137.5" y="-1921" font-family="Helvetica,sans-Serif" font-size="10.00"> +ptr</text>
</g>
<!-- Node9 -->
<g id="node9" class="node">
<title>Node9</title>
<g id="a_node9"><a xlink:title=" ">
<polygon fill="white" stroke="black" points="111,-1456 111,-1524 212,-1524 212,-1456 111,-1456"/>
<text text-anchor="start" x="119" y="-1512" font-family="Helvetica,sans-Serif" font-size="10.00">std::unordered_map</text>
<text text-anchor="middle" x="161.5" y="-1501" font-family="Helvetica,sans-Serif" font-size="10.00">&lt; K, T &gt;</text>
<polyline fill="none" stroke="black" points="111,-1494 212,-1494 "/>
<text text-anchor="middle" x="161.5" y="-1482" font-family="Helvetica,sans-Serif" font-size="10.00"> </text>
<polyline fill="none" stroke="black" points="111,-1475 212,-1475 "/>
<text text-anchor="middle" x="161.5" y="-1463" font-family="Helvetica,sans-Serif" font-size="10.00"> </text>
</a>
</g>
</g>
<!-- Node8&#45;&gt;Node9 -->
<g id="edge10" class="edge">
<title>Node8&#45;&gt;Node9</title>
<path fill="none" stroke="#404040" d="M161.5,-1947.24C161.5,-1867.19 161.5,-1635.33 161.5,-1536.5"/>
<polygon fill="none" stroke="#404040" points="161.5,-1536.29 157.5,-1530.29 161.5,-1524.29 165.5,-1530.29 161.5,-1536.29"/>
<text text-anchor="middle" x="186" y="-1792.5" font-family="Helvetica,sans-Serif" font-size="10.00"> +elements</text>
</g>
<!-- Node17 -->
<g id="node17" class="node">
<title>Node17</title>
<g id="a_node17"><a xlink:title=" ">
<polygon fill="white" stroke="black" points="229,-1842.5 229,-1899.5 332,-1899.5 332,-1842.5 229,-1842.5"/>
<text text-anchor="middle" x="280.5" y="-1887.5" font-family="Helvetica,sans-Serif" font-size="10.00">std::shared_ptr&lt; T &gt;</text>
<polyline fill="none" stroke="black" points="229,-1880.5 332,-1880.5 "/>
<text text-anchor="middle" x="280.5" y="-1868.5" font-family="Helvetica,sans-Serif" font-size="10.00"> </text>
<polyline fill="none" stroke="black" points="229,-1861.5 332,-1861.5 "/>
<text text-anchor="start" x="237" y="-1849.5" font-family="Helvetica,sans-Serif" font-size="10.00">+ operator&#45;&gt;()</text>
</a>
</g>
</g>
<!-- Node8&#45;&gt;Node17 -->
<g id="edge21" class="edge">
<title>Node8&#45;&gt;Node17</title>
<path fill="none" stroke="#404040" d="M176.09,-1962.37C191.73,-1948.83 217.27,-1926.73 239.17,-1907.77"/>
<polygon fill="none" stroke="#404040" points="239.22,-1907.73 241.14,-1900.78 248.3,-1899.87 246.38,-1906.82 239.22,-1907.73"/>
<text text-anchor="middle" x="235.5" y="-1921" font-family="Helvetica,sans-Serif" font-size="10.00"> +ptr</text>
</g>
<!-- Node9&#45;&gt;Node5 -->
<g id="edge8" class="edge">
<title>Node9&#45;&gt;Node5</title>
<path fill="none" stroke="orange" d="M133.23,-1447.03C119.51,-1424.14 104.52,-1394.69 97.5,-1366 90.26,-1336.39 92.44,-1301.82 96.06,-1276"/>
<polygon fill="orange" stroke="orange" points="130.38,-1449.08 138.6,-1455.77 136.35,-1445.42 130.38,-1449.08"/>
<text text-anchor="start" x="97.5" y="-1358" font-family="Helvetica,sans-Serif" font-size="10.00"> &lt; prev_block_hash_t,</text>
<text text-anchor="middle" x="158" y="-1347" font-family="Helvetica,sans-Serif" font-size="10.00"> std::unique_ptr&lt; index_t &gt; &gt;</text>
</g>
<!-- Node10 -->
<g id="node10" class="node">
<title>Node10</title>
<g id="a_node10"><a xlink:title=" ">
<polygon fill="white" stroke="#bfbfbf" points="275,-1690.5 275,-1747.5 304,-1747.5 304,-1690.5 275,-1690.5"/>
<text text-anchor="middle" x="289.5" y="-1735.5" font-family="Helvetica,sans-Serif" font-size="10.00">K</text>
<polyline fill="none" stroke="#bfbfbf" points="275,-1728.5 304,-1728.5 "/>
<text text-anchor="middle" x="289.5" y="-1716.5" font-family="Helvetica,sans-Serif" font-size="10.00"> </text>
<polyline fill="none" stroke="#bfbfbf" points="275,-1709.5 304,-1709.5 "/>
<text text-anchor="middle" x="289.5" y="-1697.5" font-family="Helvetica,sans-Serif" font-size="10.00"> </text>
</a>
</g>
</g>
<!-- Node10&#45;&gt;Node9 -->
<g id="edge9" class="edge">
<title>Node10&#45;&gt;Node9</title>
<path fill="none" stroke="#404040" d="M274.75,-1698.71C268.82,-1690.63 262.07,-1681.03 256.5,-1672 228.55,-1626.7 200.74,-1572.35 182.5,-1535.11"/>
<polygon fill="none" stroke="#404040" points="182.41,-1534.92 176.19,-1531.27 177.16,-1524.13 183.38,-1527.77 182.41,-1534.92"/>
<text text-anchor="middle" x="271" y="-1640.5" font-family="Helvetica,sans-Serif" font-size="10.00"> +keys</text>
</g>
<!-- Node15 -->
<g id="node15" class="node">
<title>Node15</title>
<g id="a_node15"><a xlink:title=" ">
<polygon fill="white" stroke="black" points="367,-1461.5 367,-1518.5 438,-1518.5 438,-1461.5 367,-1461.5"/>
<text text-anchor="middle" x="402.5" y="-1506.5" font-family="Helvetica,sans-Serif" font-size="10.00">std::set&lt; K &gt;</text>
<polyline fill="none" stroke="black" points="367,-1499.5 438,-1499.5 "/>
<text text-anchor="middle" x="402.5" y="-1487.5" font-family="Helvetica,sans-Serif" font-size="10.00"> </text>
<polyline fill="none" stroke="black" points="367,-1480.5 438,-1480.5 "/>
<text text-anchor="middle" x="402.5" y="-1468.5" font-family="Helvetica,sans-Serif" font-size="10.00"> </text>
</a>
</g>
</g>
<!-- Node10&#45;&gt;Node15 -->
<g id="edge18" class="edge">
<title>Node10&#45;&gt;Node15</title>
<path fill="none" stroke="#404040" d="M304.15,-1699.3C310.21,-1691.15 317.06,-1681.34 322.5,-1672 349.7,-1625.24 373.71,-1567.53 388.16,-1530.02"/>
<polygon fill="none" stroke="#404040" points="388.24,-1529.81 386.63,-1522.78 392.51,-1518.6 394.11,-1525.63 388.24,-1529.81"/>
<text text-anchor="middle" x="368" y="-1640.5" font-family="Helvetica,sans-Serif" font-size="10.00"> +keys</text>
</g>
<!-- Node18 -->
<g id="node18" class="node">
<title>Node18</title>
<g id="a_node18"><a xlink:title=" ">
<polygon fill="white" stroke="black" points="230,-1461.5 230,-1518.5 349,-1518.5 349,-1461.5 230,-1461.5"/>
<text text-anchor="middle" x="289.5" y="-1506.5" font-family="Helvetica,sans-Serif" font-size="10.00">std::unordered_set&lt; K &gt;</text>
<polyline fill="none" stroke="black" points="230,-1499.5 349,-1499.5 "/>
<text text-anchor="middle" x="289.5" y="-1487.5" font-family="Helvetica,sans-Serif" font-size="10.00"> </text>
<polyline fill="none" stroke="black" points="230,-1480.5 349,-1480.5 "/>
<text text-anchor="middle" x="289.5" y="-1468.5" font-family="Helvetica,sans-Serif" font-size="10.00"> </text>
</a>
</g>
</g>
<!-- Node10&#45;&gt;Node18 -->
<g id="edge23" class="edge">
<title>Node10&#45;&gt;Node18</title>
<path fill="none" stroke="#404040" d="M289.5,-1690.17C289.5,-1650.23 289.5,-1576.48 289.5,-1530.8"/>
<polygon fill="none" stroke="#404040" points="289.5,-1530.71 285.5,-1524.71 289.5,-1518.71 293.5,-1524.71 289.5,-1530.71"/>
<text text-anchor="middle" x="304" y="-1640.5" font-family="Helvetica,sans-Serif" font-size="10.00"> +keys</text>
</g>
<!-- Node11 -->
<g id="node11" class="node">
<title>Node11</title>
<g id="a_node11"><a xlink:title=" ">
<polygon fill="white" stroke="black" points="254,-1202.5 254,-1270.5 401,-1270.5 401,-1202.5 254,-1202.5"/>
<text text-anchor="start" x="262" y="-1258.5" font-family="Helvetica,sans-Serif" font-size="10.00">std::unordered_set</text>
<text text-anchor="middle" x="327.5" y="-1247.5" font-family="Helvetica,sans-Serif" font-size="10.00">&lt; altintegration::BlockIndex * &gt;</text>
<polyline fill="none" stroke="black" points="254,-1240.5 401,-1240.5 "/>
<text text-anchor="middle" x="327.5" y="-1228.5" font-family="Helvetica,sans-Serif" font-size="10.00"> </text>
<polyline fill="none" stroke="black" points="254,-1221.5 401,-1221.5 "/>
<text text-anchor="middle" x="327.5" y="-1209.5" font-family="Helvetica,sans-Serif" font-size="10.00"> </text>
</a>
</g>
</g>
<!-- Node11&#45;&gt;Node4 -->
<g id="edge11" class="edge">
<title>Node11&#45;&gt;Node4</title>
<path fill="none" stroke="#404040" d="M322.6,-1202.47C313.45,-1132.48 298.15,-964.85 338.5,-833 345.82,-809.08 357.25,-785.24 370.11,-763.12"/>
<polygon fill="none" stroke="#404040" points="370.15,-763.05 369.8,-755.85 376.31,-752.75 376.67,-759.95 370.15,-763.05"/>
<text text-anchor="middle" x="353" y="-964" font-family="Helvetica,sans-Serif" font-size="10.00"> #tips_</text>
</g>
<!-- Node11&#45;&gt;Node22 -->
<g id="edge29" class="edge">
<title>Node11&#45;&gt;Node22</title>
<path fill="none" stroke="#404040" d="M350,-1202.38C363.38,-1181.82 380.11,-1154.53 392.5,-1129 395.36,-1123.11 398.16,-1117.05 400.91,-1110.89"/>
<polygon fill="none" stroke="#404040" points="400.99,-1110.71 399.71,-1103.62 405.78,-1099.71 407.05,-1106.81 400.99,-1110.71"/>
<text text-anchor="middle" x="411" y="-1121" font-family="Helvetica,sans-Serif" font-size="10.00"> #tips_</text>
</g>
<!-- Node12 -->
<g id="node12" class="node">
<title>Node12</title>
<g id="a_node12"><a xlink:href="structaltintegration_1_1BlockIndex.html" target="_top" xlink:title="A node in a block tree.">
<polygon fill="white" stroke="black" points="456,-1384.5 456,-1595.5 581,-1595.5 581,-1384.5 456,-1384.5"/>
<text text-anchor="start" x="464" y="-1583.5" font-family="Helvetica,sans-Serif" font-size="10.00">altintegration::BlockIndex</text>
<text text-anchor="middle" x="518.5" y="-1572.5" font-family="Helvetica,sans-Serif" font-size="10.00">&lt; Block &gt;</text>
<polyline fill="none" stroke="black" points="456,-1565.5 581,-1565.5 "/>
<text text-anchor="start" x="464" y="-1553.5" font-family="Helvetica,sans-Serif" font-size="10.00">+ finalized</text>
<text text-anchor="start" x="464" y="-1542.5" font-family="Helvetica,sans-Serif" font-size="10.00"># height</text>
<text text-anchor="start" x="464" y="-1531.5" font-family="Helvetica,sans-Serif" font-size="10.00"># status</text>
<text text-anchor="start" x="464" y="-1520.5" font-family="Helvetica,sans-Serif" font-size="10.00"># dirty</text>
<polyline fill="none" stroke="black" points="456,-1513.5 581,-1513.5 "/>
<text text-anchor="start" x="464" y="-1501.5" font-family="Helvetica,sans-Serif" font-size="10.00">+ BlockIndex()</text>
<text text-anchor="start" x="464" y="-1490.5" font-family="Helvetica,sans-Serif" font-size="10.00">+ BlockIndex()</text>
<text text-anchor="start" x="464" y="-1479.5" font-family="Helvetica,sans-Serif" font-size="10.00">+ ~BlockIndex()</text>
<text text-anchor="start" x="464" y="-1468.5" font-family="Helvetica,sans-Serif" font-size="10.00">+ BlockIndex()</text>
<text text-anchor="start" x="464" y="-1457.5" font-family="Helvetica,sans-Serif" font-size="10.00">+ operator=()</text>
<text text-anchor="start" x="464" y="-1446.5" font-family="Helvetica,sans-Serif" font-size="10.00">+ isDeleted()</text>
<text text-anchor="start" x="464" y="-1435.5" font-family="Helvetica,sans-Serif" font-size="10.00">+ isRoot()</text>
<text text-anchor="start" x="464" y="-1424.5" font-family="Helvetica,sans-Serif" font-size="10.00">+ restore()</text>
<text text-anchor="start" x="464" y="-1413.5" font-family="Helvetica,sans-Serif" font-size="10.00">+ deleteTemporarily()</text>
<text text-anchor="start" x="464" y="-1402.5" font-family="Helvetica,sans-Serif" font-size="10.00">+ mergeFrom()</text>
<text text-anchor="start" x="464" y="-1391.5" font-family="Helvetica,sans-Serif" font-size="10.00">and 40 more...</text>
</a>
</g>
</g>
<!-- Node12&#45;&gt;Node11 -->
<g id="edge12" class="edge">
<title>Node12&#45;&gt;Node11</title>
<path fill="none" stroke="#404040" d="M455.77,-1391.67C452.78,-1388.95 449.68,-1386.39 446.5,-1384 425.92,-1368.58 410.96,-1382.81 391.5,-1366 366.17,-1344.12 349.8,-1309.82 339.96,-1282.17"/>
<polygon fill="none" stroke="#404040" points="339.96,-1282.15 334.26,-1277.74 336.14,-1270.78 341.84,-1275.19 339.96,-1282.15"/>
<text text-anchor="middle" x="406" y="-1352.5" font-family="Helvetica,sans-Serif" font-size="10.00"> +keys</text>
</g>
<!-- Node12&#45;&gt;Node12 -->
<g id="edge14" class="edge">
<title>Node12&#45;&gt;Node12</title>
<path fill="none" stroke="#404040" d="M581.28,-1513.35C591.76,-1510.08 599,-1502.3 599,-1490 599,-1482.5 596.31,-1476.69 591.84,-1472.54"/>
<polygon fill="none" stroke="#404040" points="591.76,-1472.5 584.57,-1473.06 581.28,-1466.65 588.47,-1466.08 591.76,-1472.5"/>
<text text-anchor="middle" x="615.5" y="-1487.5" font-family="Helvetica,sans-Serif" font-size="10.00"> +pprev</text>
</g>
<!-- Node14 -->
<g id="node14" class="node">
<title>Node14</title>
<g id="a_node14"><a xlink:title=" ">
<polygon fill="white" stroke="black" points="430.5,-1202.5 430.5,-1270.5 542.5,-1270.5 542.5,-1202.5 430.5,-1202.5"/>
<text text-anchor="start" x="438.5" y="-1258.5" font-family="Helvetica,sans-Serif" font-size="10.00">std::set&lt; altintegration</text>
<text text-anchor="middle" x="486.5" y="-1247.5" font-family="Helvetica,sans-Serif" font-size="10.00">::BlockIndex * &gt;</text>
<polyline fill="none" stroke="black" points="430.5,-1240.5 542.5,-1240.5 "/>
<text text-anchor="middle" x="486.5" y="-1228.5" font-family="Helvetica,sans-Serif" font-size="10.00"> </text>
<polyline fill="none" stroke="black" points="430.5,-1221.5 542.5,-1221.5 "/>
<text text-anchor="middle" x="486.5" y="-1209.5" font-family="Helvetica,sans-Serif" font-size="10.00"> </text>
</a>
</g>
</g>
<!-- Node12&#45;&gt;Node14 -->
<g id="edge16" class="edge">
<title>Node12&#45;&gt;Node14</title>
<path fill="none" stroke="#404040" d="M581.3,-1438.43C608.94,-1409.99 630.66,-1374.23 608.5,-1344 592.8,-1322.57 573.1,-1341.47 551.5,-1326 535.1,-1314.25 521.15,-1297.1 510.43,-1281.01"/>
<polygon fill="none" stroke="#404040" points="510.29,-1280.79 503.7,-1277.87 503.86,-1270.66 510.45,-1273.58 510.29,-1280.79"/>
<text text-anchor="middle" x="631" y="-1352.5" font-family="Helvetica,sans-Serif" font-size="10.00"> +keys</text>
</g>
<!-- Node13 -->
<g id="node13" class="node">
<title>Node13</title>
<g id="a_node13"><a xlink:title=" ">
<polygon fill="white" stroke="#bfbfbf" points="478.5,-1690.5 478.5,-1747.5 558.5,-1747.5 558.5,-1690.5 478.5,-1690.5"/>
<text text-anchor="middle" x="518.5" y="-1735.5" font-family="Helvetica,sans-Serif" font-size="10.00">Block::addon_t</text>
<polyline fill="none" stroke="#bfbfbf" points="478.5,-1728.5 558.5,-1728.5 "/>
<text text-anchor="middle" x="518.5" y="-1716.5" font-family="Helvetica,sans-Serif" font-size="10.00"> </text>
<polyline fill="none" stroke="#bfbfbf" points="478.5,-1709.5 558.5,-1709.5 "/>
<text text-anchor="middle" x="518.5" y="-1697.5" font-family="Helvetica,sans-Serif" font-size="10.00"> </text>
</a>
</g>
</g>
<!-- Node13&#45;&gt;Node12 -->
<g id="edge13" class="edge">
<title>Node13&#45;&gt;Node12</title>
<path fill="none" stroke="midnightblue" d="M518.5,-1680.05C518.5,-1656.79 518.5,-1625.76 518.5,-1595.58"/>
<polygon fill="none" stroke="midnightblue" points="515,-1680.17 518.5,-1690.17 522,-1680.17 515,-1680.17"/>
</g>
<!-- Node14&#45;&gt;Node12 -->
<g id="edge15" class="edge">
<title>Node14&#45;&gt;Node12</title>
<path fill="none" stroke="#404040" d="M509.86,-1270.83C521.93,-1287.66 537.11,-1308.21 551.5,-1326 558.23,-1334.32 563.7,-1334 567.5,-1344 570.95,-1353.08 572.42,-1362.53 572.4,-1372.05"/>
<polygon fill="none" stroke="#404040" points="572.39,-1372.15 575.99,-1378.39 571.61,-1384.12 568.01,-1377.87 572.39,-1372.15"/>
<text text-anchor="middle" x="588.5" y="-1352.5" font-family="Helvetica,sans-Serif" font-size="10.00"> +pnext</text>
</g>
<!-- Node15&#45;&gt;Node14 -->
<g id="edge17" class="edge">
<title>Node15&#45;&gt;Node14</title>
<path fill="none" stroke="orange" d="M406.68,-1451.41C410.72,-1421.66 418.09,-1379.38 430.5,-1344 439.49,-1318.37 453.79,-1291.31 465.69,-1270.88"/>
<polygon fill="orange" stroke="orange" points="403.2,-1451.01 405.39,-1461.38 410.15,-1451.91 403.2,-1451.01"/>
<text text-anchor="middle" x="497" y="-1352.5" font-family="Helvetica,sans-Serif" font-size="10.00"> &lt; altintegration::BlockIndex * &gt;</text>
</g>
<!-- Node16 -->
<g id="node16" class="node">
<title>Node16</title>
<g id="a_node16"><a xlink:title=" ">
<polygon fill="white" stroke="black" points="327.5,-1690.5 327.5,-1747.5 455.5,-1747.5 455.5,-1690.5 327.5,-1690.5"/>
<text text-anchor="middle" x="391.5" y="-1735.5" font-family="Helvetica,sans-Serif" font-size="10.00">std::shared_ptr&lt; block_t &gt;</text>
<polyline fill="none" stroke="black" points="327.5,-1728.5 455.5,-1728.5 "/>
<text text-anchor="start" x="335.5" y="-1716.5" font-family="Helvetica,sans-Serif" font-size="10.00">+ ptr</text>
<polyline fill="none" stroke="black" points="327.5,-1709.5 455.5,-1709.5 "/>
<text text-anchor="start" x="335.5" y="-1697.5" font-family="Helvetica,sans-Serif" font-size="10.00">+ operator&#45;&gt;()</text>
</a>
</g>
</g>
<!-- Node16&#45;&gt;Node12 -->
<g id="edge19" class="edge">
<title>Node16&#45;&gt;Node12</title>
<path fill="none" stroke="#404040" d="M407.07,-1690.17C419.06,-1668.73 436.51,-1637.56 454.05,-1606.21"/>
<polygon fill="none" stroke="#404040" points="454.13,-1606.05 453.57,-1598.87 459.99,-1595.58 460.55,-1602.77 454.13,-1606.05"/>
<text text-anchor="middle" x="466" y="-1640.5" font-family="Helvetica,sans-Serif" font-size="10.00"> #header</text>
</g>
<!-- Node17&#45;&gt;Node16 -->
<g id="edge20" class="edge">
<title>Node17&#45;&gt;Node16</title>
<path fill="none" stroke="orange" d="M306.98,-1834.21C326.64,-1807.65 353.05,-1771.96 371.08,-1747.59"/>
<polygon fill="orange" stroke="orange" points="303.99,-1832.37 300.86,-1842.49 309.62,-1836.53 303.99,-1832.37"/>
<text text-anchor="middle" x="382" y="-1792.5" font-family="Helvetica,sans-Serif" font-size="10.00"> &lt; block_t &gt;</text>
</g>
<!-- Node18&#45;&gt;Node11 -->
<g id="edge22" class="edge">
<title>Node18&#45;&gt;Node11</title>
<path fill="none" stroke="orange" d="M257.32,-1453.55C234.89,-1424.34 211.45,-1381.75 226.5,-1344 238.06,-1315 261.69,-1289.37 283.18,-1270.52"/>
<polygon fill="orange" stroke="orange" points="254.62,-1455.77 263.59,-1461.41 260.1,-1451.41 254.62,-1455.77"/>
<text text-anchor="middle" x="293" y="-1352.5" font-family="Helvetica,sans-Serif" font-size="10.00"> &lt; altintegration::BlockIndex * &gt;</text>
</g>
<!-- Node19 -->
<g id="node19" class="node">
<title>Node19</title>
<g id="a_node19"><a xlink:href="structaltintegration_1_1Chain.html" target="_top" xlink:title=" ">
<polygon fill="white" stroke="black" points="561,-1147.5 561,-1325.5 702,-1325.5 702,-1147.5 561,-1147.5"/>
<text text-anchor="start" x="569" y="-1313.5" font-family="Helvetica,sans-Serif" font-size="10.00">altintegration::Chain</text>
<text text-anchor="middle" x="631.5" y="-1302.5" font-family="Helvetica,sans-Serif" font-size="10.00">&lt; altintegration::BlockIndex &gt;</text>
<polyline fill="none" stroke="black" points="561,-1295.5 702,-1295.5 "/>
<text text-anchor="middle" x="631.5" y="-1283.5" font-family="Helvetica,sans-Serif" font-size="10.00"> </text>
<polyline fill="none" stroke="black" points="561,-1276.5 702,-1276.5 "/>
<text text-anchor="start" x="569" y="-1264.5" font-family="Helvetica,sans-Serif" font-size="10.00">+ Chain()</text>
<text text-anchor="start" x="569" y="-1253.5" font-family="Helvetica,sans-Serif" font-size="10.00">+ Chain()</text>
<text text-anchor="start" x="569" y="-1242.5" font-family="Helvetica,sans-Serif" font-size="10.00">+ Chain()</text>
<text text-anchor="start" x="569" y="-1231.5" font-family="Helvetica,sans-Serif" font-size="10.00">+ getStartHeight()</text>
<text text-anchor="start" x="569" y="-1220.5" font-family="Helvetica,sans-Serif" font-size="10.00">+ firstHeight()</text>
<text text-anchor="start" x="569" y="-1209.5" font-family="Helvetica,sans-Serif" font-size="10.00">+ contains()</text>
<text text-anchor="start" x="569" y="-1198.5" font-family="Helvetica,sans-Serif" font-size="10.00">+ operator[]()</text>
<text text-anchor="start" x="569" y="-1187.5" font-family="Helvetica,sans-Serif" font-size="10.00">+ next()</text>
<text text-anchor="start" x="569" y="-1176.5" font-family="Helvetica,sans-Serif" font-size="10.00">+ chainHeight()</text>
<text text-anchor="start" x="569" y="-1165.5" font-family="Helvetica,sans-Serif" font-size="10.00">+ empty()</text>
<text text-anchor="start" x="569" y="-1154.5" font-family="Helvetica,sans-Serif" font-size="10.00">and 15 more...</text>
</a>
</g>
</g>
<!-- Node19&#45;&gt;Node4 -->
<g id="edge24" class="edge">
<title>Node19&#45;&gt;Node4</title>
<path fill="none" stroke="#404040" d="M631.1,-1147.33C630.28,-1137.4 629.12,-1127.46 627.5,-1118 608.33,-1006.3 562.67,-886.78 522.8,-796.95"/>
<polygon fill="none" stroke="#404040" points="522.74,-796.82 516.64,-792.98 517.84,-785.87 523.94,-789.71 522.74,-796.82"/>
<text text-anchor="middle" x="654.5" y="-964" font-family="Helvetica,sans-Serif" font-size="10.00"> #activeChain_</text>
</g>
<!-- Node19&#45;&gt;Node22 -->
<g id="edge30" class="edge">
<title>Node19&#45;&gt;Node22</title>
<path fill="none" stroke="#404040" d="M560.74,-1152.9C557.72,-1150.79 554.64,-1148.81 551.5,-1147 518.43,-1127.91 492.85,-1157.55 467.5,-1129 462.59,-1123.47 458.53,-1117.37 455.19,-1110.89"/>
<polygon fill="none" stroke="#404040" points="455.08,-1110.62 449,-1106.73 450.25,-1099.63 456.32,-1103.52 455.08,-1110.62"/>
<text text-anchor="middle" x="499.5" y="-1121" font-family="Helvetica,sans-Serif" font-size="10.00"> #activeChain_</text>
</g>
<!-- Node20 -->
<g id="node20" class="node">
<title>Node20</title>
<g id="a_node20"><a xlink:href="structaltintegration_1_1Chain.html" target="_top" xlink:title="Fully in&#45;memory chain representation.">
<polygon fill="white" stroke="black" points="650,-1401 650,-1579 751,-1579 751,-1401 650,-1401"/>
<text text-anchor="start" x="658" y="-1567" font-family="Helvetica,sans-Serif" font-size="10.00">altintegration::Chain</text>
<text text-anchor="middle" x="700.5" y="-1556" font-family="Helvetica,sans-Serif" font-size="10.00">&lt; BlockIndexT &gt;</text>
<polyline fill="none" stroke="black" points="650,-1549 751,-1549 "/>
<text text-anchor="middle" x="700.5" y="-1537" font-family="Helvetica,sans-Serif" font-size="10.00"> </text>
<polyline fill="none" stroke="black" points="650,-1530 751,-1530 "/>
<text text-anchor="start" x="658" y="-1518" font-family="Helvetica,sans-Serif" font-size="10.00">+ Chain()</text>
<text text-anchor="start" x="658" y="-1507" font-family="Helvetica,sans-Serif" font-size="10.00">+ Chain()</text>
<text text-anchor="start" x="658" y="-1496" font-family="Helvetica,sans-Serif" font-size="10.00">+ Chain()</text>
<text text-anchor="start" x="658" y="-1485" font-family="Helvetica,sans-Serif" font-size="10.00">+ getStartHeight()</text>
<text text-anchor="start" x="658" y="-1474" font-family="Helvetica,sans-Serif" font-size="10.00">+ firstHeight()</text>
<text text-anchor="start" x="658" y="-1463" font-family="Helvetica,sans-Serif" font-size="10.00">+ contains()</text>
<text text-anchor="start" x="658" y="-1452" font-family="Helvetica,sans-Serif" font-size="10.00">+ operator[]()</text>
<text text-anchor="start" x="658" y="-1441" font-family="Helvetica,sans-Serif" font-size="10.00">+ next()</text>
<text text-anchor="start" x="658" y="-1430" font-family="Helvetica,sans-Serif" font-size="10.00">+ chainHeight()</text>
<text text-anchor="start" x="658" y="-1419" font-family="Helvetica,sans-Serif" font-size="10.00">+ empty()</text>
<text text-anchor="start" x="658" y="-1408" font-family="Helvetica,sans-Serif" font-size="10.00">and 15 more...</text>
</a>
</g>
</g>
<!-- Node20&#45;&gt;Node19 -->
<g id="edge25" class="edge">
<title>Node20&#45;&gt;Node19</title>
<path fill="none" stroke="orange" d="M673.58,-1390.89C667.68,-1369.36 661.46,-1346.7 655.67,-1325.6"/>
<polygon fill="orange" stroke="orange" points="670.25,-1391.97 676.27,-1400.68 677,-1390.11 670.25,-1391.97"/>
<text text-anchor="middle" x="729" y="-1352.5" font-family="Helvetica,sans-Serif" font-size="10.00"> &lt; altintegration::BlockIndex &gt;</text>
</g>
<!-- Node21 -->
<g id="node21" class="node">
<title>Node21</title>
<g id="a_node21"><a xlink:href="structaltintegration_1_1BlockReader.html" target="_top" xlink:title="An abstraction over on&#45;disk storage iterator.">
<polygon fill="white" stroke="black" points="720.5,-1153 720.5,-1320 852.5,-1320 852.5,-1153 720.5,-1153"/>
<text text-anchor="middle" x="786.5" y="-1308" font-family="Helvetica,sans-Serif" font-size="10.00">altintegration::BlockReader</text>
<polyline fill="none" stroke="black" points="720.5,-1301 852.5,-1301 "/>
<text text-anchor="middle" x="786.5" y="-1289" font-family="Helvetica,sans-Serif" font-size="10.00"> </text>
<polyline fill="none" stroke="black" points="720.5,-1282 852.5,-1282 "/>
<text text-anchor="start" x="728.5" y="-1270" font-family="Helvetica,sans-Serif" font-size="10.00">+ ~BlockReader()</text>
<text text-anchor="start" x="728.5" y="-1259" font-family="Helvetica,sans-Serif" font-size="10.00">+ getAltTip()</text>
<text text-anchor="start" x="728.5" y="-1248" font-family="Helvetica,sans-Serif" font-size="10.00">+ getVbkTip()</text>
<text text-anchor="start" x="728.5" y="-1237" font-family="Helvetica,sans-Serif" font-size="10.00">+ getBtcTip()</text>
<text text-anchor="start" x="728.5" y="-1226" font-family="Helvetica,sans-Serif" font-size="10.00">+ getBlock()</text>
<text text-anchor="start" x="728.5" y="-1215" font-family="Helvetica,sans-Serif" font-size="10.00">+ getBlock()</text>
<text text-anchor="start" x="728.5" y="-1204" font-family="Helvetica,sans-Serif" font-size="10.00">+ getBlock()</text>
<text text-anchor="start" x="728.5" y="-1193" font-family="Helvetica,sans-Serif" font-size="10.00">+ getAltBlockIterator()</text>
<text text-anchor="start" x="728.5" y="-1182" font-family="Helvetica,sans-Serif" font-size="10.00">+ getVbkBlockIterator()</text>
<text text-anchor="start" x="728.5" y="-1171" font-family="Helvetica,sans-Serif" font-size="10.00">+ getBtcBlockIterator()</text>
<text text-anchor="start" x="728.5" y="-1160" font-family="Helvetica,sans-Serif" font-size="10.00">and 6 more...</text>
</a>
</g>
</g>
<!-- Node21&#45;&gt;Node4 -->
<g id="edge26" class="edge">
<title>Node21&#45;&gt;Node4</title>
<path fill="none" stroke="#404040" d="M783.01,-1152.74C775.87,-1066.54 754.41,-930.69 690.5,-833 652.99,-775.67 590.63,-729.63 539.15,-698.54"/>
<polygon fill="none" stroke="#404040" points="539,-698.45 531.8,-698.83 528.68,-692.33 535.88,-691.95 539,-698.45"/>
<text text-anchor="middle" x="813" y="-964" font-family="Helvetica,sans-Serif" font-size="10.00"> #blockProvider_</text>
</g>
<!-- Node21&#45;&gt;Node22 -->
<g id="edge31" class="edge">
<title>Node21&#45;&gt;Node22</title>
<path fill="none" stroke="#404040" d="M720.39,-1154.5C717.47,-1151.89 714.5,-1149.38 711.5,-1147 693.51,-1132.74 638.81,-1112.42 619.5,-1100 592.04,-1082.34 563.67,-1061.11 538.28,-1040.88"/>
<polygon fill="none" stroke="#404040" points="538.05,-1040.7 530.87,-1040.06 528.7,-1033.18 535.88,-1033.82 538.05,-1040.7"/>
<text text-anchor="middle" x="715" y="-1121" font-family="Helvetica,sans-Serif" font-size="10.00"> #blockProvider_</text>
</g>
<!-- Node22&#45;&gt;Node4 -->
<g id="edge27" class="edge">
<title>Node22&#45;&gt;Node4</title>
<path fill="none" stroke="orange" d="M452.5,-823.16C452.5,-810.62 452.5,-797.97 452.5,-785.52"/>
<polygon fill="orange" stroke="orange" points="449,-823.18 452.5,-833.18 456,-823.18 449,-823.18"/>
<text text-anchor="middle" x="480.5" y="-807" font-family="Helvetica,sans-Serif" font-size="10.00"> &lt; AltBlock &gt;</text>
</g>
</g>
</svg>
