<?xml version="1.0" encoding="UTF-8" standalone="no"?>
<!DOCTYPE svg PUBLIC "-//W3C//DTD SVG 1.1//EN"
 "http://www.w3.org/Graphics/SVG/1.1/DTD/svg11.dtd">
<!-- Generated by graphviz version 2.50.0 (20220203.2022)
 -->
<!-- Title: altintegration::BlockIndex&lt; Block &gt; Pages: 1 -->
<svg width="417pt" height="910pt"
 viewBox="0.00 0.00 417.00 910.00" xmlns="http://www.w3.org/2000/svg" xmlns:xlink="http://www.w3.org/1999/xlink">
<g id="graph0" class="graph" transform="scale(1 1) rotate(0) translate(4 906)">
<title>altintegration::BlockIndex&lt; Block &gt;</title>
<polygon fill="white" stroke="transparent" points="-4,4 -4,-906 413,-906 413,4 -4,4"/>
<!-- Node1 -->
<g id="node1" class="node">
<title>Node1</title>
<g id="a_node1"><a xlink:title="A node in a block tree.">
<polygon fill="#bfbfbf" stroke="black" points="11.5,-0.5 11.5,-211.5 136.5,-211.5 136.5,-0.5 11.5,-0.5"/>
<text text-anchor="start" x="19.5" y="-199.5" font-family="Helvetica,sans-Serif" font-size="10.00">altintegration::BlockIndex</text>
<text text-anchor="middle" x="74" y="-188.5" font-family="Helvetica,sans-Serif" font-size="10.00">&lt; Block &gt;</text>
<polyline fill="none" stroke="black" points="11.5,-181.5 136.5,-181.5 "/>
<text text-anchor="start" x="19.5" y="-169.5" font-family="Helvetica,sans-Serif" font-size="10.00">+ finalized</text>
<text text-anchor="start" x="19.5" y="-158.5" font-family="Helvetica,sans-Serif" font-size="10.00"># height</text>
<text text-anchor="start" x="19.5" y="-147.5" font-family="Helvetica,sans-Serif" font-size="10.00"># status</text>
<text text-anchor="start" x="19.5" y="-136.5" font-family="Helvetica,sans-Serif" font-size="10.00"># dirty</text>
<polyline fill="none" stroke="black" points="11.5,-129.5 136.5,-129.5 "/>
<text text-anchor="start" x="19.5" y="-117.5" font-family="Helvetica,sans-Serif" font-size="10.00">+ BlockIndex()</text>
<text text-anchor="start" x="19.5" y="-106.5" font-family="Helvetica,sans-Serif" font-size="10.00">+ BlockIndex()</text>
<text text-anchor="start" x="19.5" y="-95.5" font-family="Helvetica,sans-Serif" font-size="10.00">+ ~BlockIndex()</text>
<text text-anchor="start" x="19.5" y="-84.5" font-family="Helvetica,sans-Serif" font-size="10.00">+ disconnectFromPrev()</text>
<text text-anchor="start" x="19.5" y="-73.5" font-family="Helvetica,sans-Serif" font-size="10.00">+ isTip()</text>
<text text-anchor="start" x="19.5" y="-62.5" font-family="Helvetica,sans-Serif" font-size="10.00">+ BlockIndex()</text>
<text text-anchor="start" x="19.5" y="-51.5" font-family="Helvetica,sans-Serif" font-size="10.00">+ operator=()</text>
<text text-anchor="start" x="19.5" y="-40.5" font-family="Helvetica,sans-Serif" font-size="10.00">+ isDeleted()</text>
<text text-anchor="start" x="19.5" y="-29.5" font-family="Helvetica,sans-Serif" font-size="10.00">+ isRoot()</text>
<text text-anchor="start" x="19.5" y="-18.5" font-family="Helvetica,sans-Serif" font-size="10.00">+ restore()</text>
<text text-anchor="start" x="19.5" y="-7.5" font-family="Helvetica,sans-Serif" font-size="10.00">and 42 more...</text>
</a>
</g>
</g>
<!-- Node2 -->
<g id="node2" class="node">
<title>Node2</title>
<g id="a_node2"><a xlink:title=" ">
<polygon fill="white" stroke="#bfbfbf" points="0,-634.5 0,-691.5 80,-691.5 80,-634.5 0,-634.5"/>
<text text-anchor="middle" x="40" y="-679.5" font-family="Helvetica,sans-Serif" font-size="10.00">Block::addon_t</text>
<polyline fill="none" stroke="#bfbfbf" points="0,-672.5 80,-672.5 "/>
<text text-anchor="middle" x="40" y="-660.5" font-family="Helvetica,sans-Serif" font-size="10.00"> </text>
<polyline fill="none" stroke="#bfbfbf" points="0,-653.5 80,-653.5 "/>
<text text-anchor="middle" x="40" y="-641.5" font-family="Helvetica,sans-Serif" font-size="10.00"> </text>
</a>
</g>
</g>
<!-- Node2&#45;&gt;Node1 -->
<g id="edge1" class="edge">
<title>Node2&#45;&gt;Node1</title>
<path fill="none" stroke="midnightblue" d="M26.18,-624.73C22.42,-612.84 18.88,-599.52 17,-587 -6.59,-429.64 10.57,-385.57 44,-230 45.29,-223.98 46.66,-217.81 48.07,-211.59"/>
<polygon fill="none" stroke="midnightblue" points="22.89,-625.93 29.35,-634.32 29.54,-623.73 22.89,-625.93"/>
</g>
<!-- Node3 -->
<g id="node3" class="node">
<title>Node3</title>
<g id="a_node3"><a xlink:href="structaltintegration_1_1BlockIndex.html" target="_top" xlink:title="A node in a block tree.">
<polygon fill="white" stroke="black" points="25.5,-375.5 25.5,-586.5 150.5,-586.5 150.5,-375.5 25.5,-375.5"/>
<text text-anchor="start" x="33.5" y="-574.5" font-family="Helvetica,sans-Serif" font-size="10.00">altintegration::BlockIndex</text>
<text text-anchor="middle" x="88" y="-563.5" font-family="Helvetica,sans-Serif" font-size="10.00">&lt; Block &gt;</text>
<polyline fill="none" stroke="black" points="25.5,-556.5 150.5,-556.5 "/>
<text text-anchor="start" x="33.5" y="-544.5" font-family="Helvetica,sans-Serif" font-size="10.00">+ finalized</text>
<text text-anchor="start" x="33.5" y="-533.5" font-family="Helvetica,sans-Serif" font-size="10.00"># height</text>
<text text-anchor="start" x="33.5" y="-522.5" font-family="Helvetica,sans-Serif" font-size="10.00"># status</text>
<text text-anchor="start" x="33.5" y="-511.5" font-family="Helvetica,sans-Serif" font-size="10.00"># dirty</text>
<polyline fill="none" stroke="black" points="25.5,-504.5 150.5,-504.5 "/>
<text text-anchor="start" x="33.5" y="-492.5" font-family="Helvetica,sans-Serif" font-size="10.00">+ BlockIndex()</text>
<text text-anchor="start" x="33.5" y="-481.5" font-family="Helvetica,sans-Serif" font-size="10.00">+ BlockIndex()</text>
<text text-anchor="start" x="33.5" y="-470.5" font-family="Helvetica,sans-Serif" font-size="10.00">+ ~BlockIndex()</text>
<text text-anchor="start" x="33.5" y="-459.5" font-family="Helvetica,sans-Serif" font-size="10.00">+ disconnectFromPrev()</text>
<text text-anchor="start" x="33.5" y="-448.5" font-family="Helvetica,sans-Serif" font-size="10.00">+ isTip()</text>
<text text-anchor="start" x="33.5" y="-437.5" font-family="Helvetica,sans-Serif" font-size="10.00">+ BlockIndex()</text>
<text text-anchor="start" x="33.5" y="-426.5" font-family="Helvetica,sans-Serif" font-size="10.00">+ operator=()</text>
<text text-anchor="start" x="33.5" y="-415.5" font-family="Helvetica,sans-Serif" font-size="10.00">+ isDeleted()</text>
<text text-anchor="start" x="33.5" y="-404.5" font-family="Helvetica,sans-Serif" font-size="10.00">+ isRoot()</text>
<text text-anchor="start" x="33.5" y="-393.5" font-family="Helvetica,sans-Serif" font-size="10.00">+ restore()</text>
<text text-anchor="start" x="33.5" y="-382.5" font-family="Helvetica,sans-Serif" font-size="10.00">and 42 more...</text>
</a>
</g>
</g>
<!-- Node2&#45;&gt;Node3 -->
<g id="edge3" class="edge">
<title>Node2&#45;&gt;Node3</title>
<path fill="none" stroke="midnightblue" d="M50.02,-624.43C53.02,-613.17 56.47,-600.23 60.05,-586.83"/>
<polygon fill="none" stroke="midnightblue" points="46.59,-623.71 47.39,-634.27 53.35,-625.51 46.59,-623.71"/>
</g>
<!-- Node3&#45;&gt;Node1 -->
<g id="edge2" class="edge">
<title>Node3&#45;&gt;Node1</title>
<path fill="none" stroke="#404040" d="M56.68,-375.21C53.09,-359.52 50,-343.43 48,-328 43.63,-294.22 45.35,-257.49 49.49,-223.85"/>
<polygon fill="none" stroke="#404040" points="49.54,-223.51 46.36,-217.03 51.12,-211.61 54.29,-218.09 49.54,-223.51"/>
<text text-anchor="middle" x="64.5" y="-291" font-family="Helvetica,sans-Serif" font-size="10.00"> +pprev</text>
</g>
<!-- Node3&#45;&gt;Node3 -->
<g id="edge4" class="edge">
<title>Node3&#45;&gt;Node3</title>
<path fill="none" stroke="#404040" d="M150.78,-503.31C161.26,-500.19 168.5,-492.75 168.5,-481 168.5,-474.02 165.95,-468.57 161.68,-464.63"/>
<polygon fill="none" stroke="#404040" points="161.32,-464.43 154.13,-465.08 150.78,-458.69 157.96,-458.05 161.32,-464.43"/>
<text text-anchor="middle" x="185" y="-478.5" font-family="Helvetica,sans-Serif" font-size="10.00"> +pprev</text>
</g>
<!-- Node4 -->
<g id="node4" class="node">
<title>Node4</title>
<g id="a_node4"><a xlink:title=" ">
<polygon fill="white" stroke="black" points="90,-259.5 90,-327.5 202,-327.5 202,-259.5 90,-259.5"/>
<text text-anchor="start" x="98" y="-315.5" font-family="Helvetica,sans-Serif" font-size="10.00">std::set&lt; altintegration</text>
<text text-anchor="middle" x="146" y="-304.5" font-family="Helvetica,sans-Serif" font-size="10.00">::BlockIndex * &gt;</text>
<polyline fill="none" stroke="black" points="90,-297.5 202,-297.5 "/>
<text text-anchor="middle" x="146" y="-285.5" font-family="Helvetica,sans-Serif" font-size="10.00"> </text>
<polyline fill="none" stroke="black" points="90,-278.5 202,-278.5 "/>
<text text-anchor="middle" x="146" y="-266.5" font-family="Helvetica,sans-Serif" font-size="10.00"> </text>
</a>
</g>
</g>
<!-- Node3&#45;&gt;Node4 -->
<g id="edge6" class="edge">
<title>Node3&#45;&gt;Node4</title>
<path fill="none" stroke="#404040" d="M85.05,-375.43C87.01,-365.24 89.89,-355.26 94,-346 95.26,-343.15 96.76,-340.38 98.43,-337.69"/>
<polygon fill="none" stroke="#404040" points="98.59,-337.48 98.89,-330.27 105.66,-327.78 105.36,-334.98 98.59,-337.48"/>
<text text-anchor="middle" x="108.5" y="-349" font-family="Helvetica,sans-Serif" font-size="10.00"> +keys</text>
</g>
<!-- Node4&#45;&gt;Node1 -->
<g id="edge12" class="edge">
<title>Node4&#45;&gt;Node1</title>
<path fill="none" stroke="#404040" d="M133.13,-259.34C129.03,-248.78 124.24,-236.43 119.19,-223.42"/>
<polygon fill="none" stroke="#404040" points="119.04,-223.03 113.14,-218.88 114.69,-211.84 120.59,-215.99 119.04,-223.03"/>
<text text-anchor="middle" x="140" y="-233" font-family="Helvetica,sans-Serif" font-size="10.00"> +pnext</text>
</g>
<!-- Node4&#45;&gt;Node3 -->
<g id="edge5" class="edge">
<title>Node4&#45;&gt;Node3</title>
<path fill="none" stroke="#404040" d="M135.63,-327.67C132.32,-338.27 128.44,-350.65 124.36,-363.71"/>
<polygon fill="none" stroke="#404040" points="124.31,-363.87 126.34,-370.79 120.73,-375.32 118.7,-368.4 124.31,-363.87"/>
<text text-anchor="middle" x="144" y="-349" font-family="Helvetica,sans-Serif" font-size="10.00"> +pnext</text>
</g>
<!-- Node5 -->
<g id="node5" class="node">
<title>Node5</title>
<g id="a_node5"><a xlink:title=" ">
<polygon fill="white" stroke="black" points="258.5,-452.5 258.5,-509.5 329.5,-509.5 329.5,-452.5 258.5,-452.5"/>
<text text-anchor="middle" x="294" y="-497.5" font-family="Helvetica,sans-Serif" font-size="10.00">std::set&lt; K &gt;</text>
<polyline fill="none" stroke="black" points="258.5,-490.5 329.5,-490.5 "/>
<text text-anchor="middle" x="294" y="-478.5" font-family="Helvetica,sans-Serif" font-size="10.00"> </text>
<polyline fill="none" stroke="black" points="258.5,-471.5 329.5,-471.5 "/>
<text text-anchor="middle" x="294" y="-459.5" font-family="Helvetica,sans-Serif" font-size="10.00"> </text>
</a>
</g>
</g>
<!-- Node5&#45;&gt;Node4 -->
<g id="edge7" class="edge">
<title>Node5&#45;&gt;Node4</title>
<path fill="none" stroke="orange" d="M296.49,-442.24C296.42,-412.97 291.7,-372.99 270,-346 253.2,-325.11 226.47,-312.59 202.13,-305.15"/>
<polygon fill="orange" stroke="orange" points="292.99,-442.44 296.33,-452.49 299.99,-442.55 292.99,-442.44"/>
<text text-anchor="middle" x="342.5" y="-349" font-family="Helvetica,sans-Serif" font-size="10.00"> &lt; altintegration::BlockIndex * &gt;</text>
</g>
<!-- Node6 -->
<g id="node6" class="node">
<title>Node6</title>
<g id="a_node6"><a xlink:title=" ">
<polygon fill="white" stroke="#bfbfbf" points="279.5,-634.5 279.5,-691.5 308.5,-691.5 308.5,-634.5 279.5,-634.5"/>
<text text-anchor="middle" x="294" y="-679.5" font-family="Helvetica,sans-Serif" font-size="10.00">K</text>
<polyline fill="none" stroke="#bfbfbf" points="279.5,-672.5 308.5,-672.5 "/>
<text text-anchor="middle" x="294" y="-660.5" font-family="Helvetica,sans-Serif" font-size="10.00"> </text>
<polyline fill="none" stroke="#bfbfbf" points="279.5,-653.5 308.5,-653.5 "/>
<text text-anchor="middle" x="294" y="-641.5" font-family="Helvetica,sans-Serif" font-size="10.00"> </text>
</a>
</g>
</g>
<!-- Node6&#45;&gt;Node5 -->
<g id="edge8" class="edge">
<title>Node6&#45;&gt;Node5</title>
<path fill="none" stroke="#404040" d="M294,-634.27C294,-604.28 294,-556.18 294,-522.08"/>
<polygon fill="none" stroke="#404040" points="294,-521.76 290,-515.76 294,-509.76 298,-515.76 294,-521.76"/>
<text text-anchor="middle" x="308.5" y="-608" font-family="Helvetica,sans-Serif" font-size="10.00"> +keys</text>
</g>
<!-- Node7 -->
<g id="node7" class="node">
<title>Node7</title>
<g id="a_node7"><a xlink:title=" ">
<polygon fill="white" stroke="black" points="123,-634.5 123,-691.5 251,-691.5 251,-634.5 123,-634.5"/>
<text text-anchor="middle" x="187" y="-679.5" font-family="Helvetica,sans-Serif" font-size="10.00">std::shared_ptr&lt; block_t &gt;</text>
<polyline fill="none" stroke="black" points="123,-672.5 251,-672.5 "/>
<text text-anchor="start" x="131" y="-660.5" font-family="Helvetica,sans-Serif" font-size="10.00">+ ptr</text>
<polyline fill="none" stroke="black" points="123,-653.5 251,-653.5 "/>
<text text-anchor="start" x="131" y="-641.5" font-family="Helvetica,sans-Serif" font-size="10.00">+ operator&#45;&gt;()</text>
</a>
</g>
</g>
<!-- Node7&#45;&gt;Node1 -->
<g id="edge13" class="edge">
<title>Node7&#45;&gt;Node1</title>
<path fill="none" stroke="#404040" d="M198.11,-634.36C203.13,-620.41 208.49,-603.07 211,-587 222.24,-514.98 237.14,-327.04 211,-259 197.38,-223.54 171.24,-191.19 145.42,-165.53"/>
<polygon fill="none" stroke="#404040" points="145.31,-165.44 138.22,-164.14 136.69,-157.1 143.78,-158.39 145.31,-165.44"/>
<text text-anchor="middle" x="242.5" y="-349" font-family="Helvetica,sans-Serif" font-size="10.00"> #header</text>
</g>
<!-- Node7&#45;&gt;Node3 -->
<g id="edge9" class="edge">
<title>Node7&#45;&gt;Node3</title>
<path fill="none" stroke="#404040" d="M171.75,-634.27C165.96,-623.74 158.94,-610.98 151.46,-597.37"/>
<polygon fill="none" stroke="#404040" points="151.44,-597.35 145.04,-594.02 145.66,-586.83 152.05,-590.16 151.44,-597.35"/>
<text text-anchor="middle" x="178.5" y="-608" font-family="Helvetica,sans-Serif" font-size="10.00"> #header</text>
</g>
<!-- Node8 -->
<g id="node8" class="node">
<title>Node8</title>
<g id="a_node8"><a xlink:title=" ">
<polygon fill="white" stroke="black" points="135.5,-739.5 135.5,-796.5 238.5,-796.5 238.5,-739.5 135.5,-739.5"/>
<text text-anchor="middle" x="187" y="-784.5" font-family="Helvetica,sans-Serif" font-size="10.00">std::shared_ptr&lt; T &gt;</text>
<polyline fill="none" stroke="black" points="135.5,-777.5 238.5,-777.5 "/>
<text text-anchor="middle" x="187" y="-765.5" font-family="Helvetica,sans-Serif" font-size="10.00"> </text>
<polyline fill="none" stroke="black" points="135.5,-758.5 238.5,-758.5 "/>
<text text-anchor="start" x="143.5" y="-746.5" font-family="Helvetica,sans-Serif" font-size="10.00">+ operator&#45;&gt;()</text>
</a>
</g>
</g>
<!-- Node8&#45;&gt;Node7 -->
<g id="edge10" class="edge">
<title>Node8&#45;&gt;Node7</title>
<path fill="none" stroke="orange" d="M187,-729.29C187,-716.84 187,-703.23 187,-691.68"/>
<polygon fill="orange" stroke="orange" points="183.5,-729.4 187,-739.4 190.5,-729.4 183.5,-729.4"/>
<text text-anchor="middle" x="212.5" y="-713" font-family="Helvetica,sans-Serif" font-size="10.00"> &lt; block_t &gt;</text>
</g>
<!-- Node9 -->
<g id="node9" class="node">
<title>Node9</title>
<g id="a_node9"><a xlink:title=" ">
<polygon fill="white" stroke="#bfbfbf" points="172.5,-844.5 172.5,-901.5 201.5,-901.5 201.5,-844.5 172.5,-844.5"/>
<text text-anchor="middle" x="187" y="-889.5" font-family="Helvetica,sans-Serif" font-size="10.00">T</text>
<polyline fill="none" stroke="#bfbfbf" points="172.5,-882.5 201.5,-882.5 "/>
<text text-anchor="middle" x="187" y="-870.5" font-family="Helvetica,sans-Serif" font-size="10.00"> </text>
<polyline fill="none" stroke="#bfbfbf" points="172.5,-863.5 201.5,-863.5 "/>
<text text-anchor="middle" x="187" y="-851.5" font-family="Helvetica,sans-Serif" font-size="10.00"> </text>
</a>
</g>
</g>
<!-- Node9&#45;&gt;Node8 -->
<g id="edge11" class="edge">
<title>Node9&#45;&gt;Node8</title>
<path fill="none" stroke="#404040" d="M187,-844.4C187,-833.55 187,-820.87 187,-809.05"/>
<polygon fill="none" stroke="#404040" points="187,-808.68 183,-802.68 187,-796.68 191,-802.68 187,-808.68"/>
<text text-anchor="middle" x="197" y="-818" font-family="Helvetica,sans-Serif" font-size="10.00"> +ptr</text>
</g>
</g>
</svg>
