<?xml version="1.0" encoding="UTF-8" standalone="no"?>
<!DOCTYPE svg PUBLIC "-//W3C//DTD SVG 1.1//EN"
 "http://www.w3.org/Graphics/SVG/1.1/DTD/svg11.dtd">
<!-- Generated by graphviz version 2.44.0 ()
 -->
<!-- Title: altintegration::AltChainParamsRegTest Pages: 1 -->
<!--zoomable 806 -->
<svg id="main" version="1.1" xmlns="http://www.w3.org/2000/svg" xmlns:xlink="http://www.w3.org/1999/xlink" xml:space="preserve" onload="init(evt)">
<style type="text/css"><![CDATA[
.edge:hover path { stroke: red; }
.edge:hover polygon { stroke: red; fill: red; }
]]></style>
<script type="text/javascript"><![CDATA[
var edges = document.getElementsByTagName('g');
if (edges && edges.length) {
  for (var i=0;i<edges.length;i++) {
    if (edges[i].id.substr(0,4)=='edge') {
      edges[i].setAttribute('class','edge');
    }
  }
}
]]></script>
        <defs>
                <circle id="rim" cx="0" cy="0" r="7"/>
                <circle id="rim2" cx="0" cy="0" r="3.5"/>
                <g id="zoomPlus">
                        <use xlink:href="#rim" fill="#404040">
                                <set attributeName="fill" to="#808080" begin="zoomplus.mouseover" end="zoomplus.mouseout"/>
                        </use>
                        <path d="M-4,0h8M0,-4v8" fill="none" stroke="white" stroke-width="1.5" pointer-events="none"/>
                </g>
                <g id="zoomMin">
                        <use xlink:href="#rim" fill="#404040">
                                <set attributeName="fill" to="#808080" begin="zoomminus.mouseover" end="zoomminus.mouseout"/>
                        </use>
                        <path d="M-4,0h8" fill="none" stroke="white" stroke-width="1.5" pointer-events="none"/>
                </g>
                <g id="dirArrow">
                        <path fill="none" stroke="white" stroke-width="1.5" d="M0,-3.0v7 M-2.5,-0.5L0,-3.0L2.5,-0.5"/>
                </g>
               <g id="resetDef">
                       <use xlink:href="#rim2" fill="#404040">
                               <set attributeName="fill" to="#808080" begin="reset.mouseover" end="reset.mouseout"/>
                       </use>
               </g>
        </defs>

<script type="text/javascript">
var viewWidth = 337;
var viewHeight = 806;
var sectionId = 'dynsection-1';
</script>
<script xlink:href="svgpan.js"/>
<svg id="graph" class="graph">
<g id="viewport">
<title>altintegration::AltChainParamsRegTest</title>
<polygon fill="white" stroke="transparent" points="-4,4 -4,-802 332.5,-802 332.5,4 -4,4"/>
<!-- Node1 -->
<g id="node1" class="node">
<title>Node1</title>
<g id="a_node1"><a xlink:title=" ">
<polygon fill="#bfbfbf" stroke="black" points="59,-0.5 59,-123.5 202,-123.5 202,-0.5 59,-0.5"/>
<text text-anchor="start" x="67" y="-111.5" font-family="Helvetica,sans-Serif" font-size="10.00">altintegration::AltChain</text>
<text text-anchor="middle" x="130.5" y="-100.5" font-family="Helvetica,sans-Serif" font-size="10.00">ParamsRegTest</text>
<polyline fill="none" stroke="black" points="59,-93.5 202,-93.5 "/>
<text text-anchor="start" x="67" y="-81.5" font-family="Helvetica,sans-Serif" font-size="10.00">+ id</text>
<polyline fill="none" stroke="black" points="59,-74.5 202,-74.5 "/>
<text text-anchor="start" x="67" y="-62.5" font-family="Helvetica,sans-Serif" font-size="10.00">+ AltChainParamsRegTest()</text>
<text text-anchor="start" x="67" y="-51.5" font-family="Helvetica,sans-Serif" font-size="10.00">+ ~AltChainParamsRegTest()</text>
<text text-anchor="start" x="67" y="-40.5" font-family="Helvetica,sans-Serif" font-size="10.00">+ getBootstrapBlock()</text>
<text text-anchor="start" x="67" y="-29.5" font-family="Helvetica,sans-Serif" font-size="10.00">+ getIdentifier()</text>
<text text-anchor="start" x="67" y="-18.5" font-family="Helvetica,sans-Serif" font-size="10.00">+ getHash()</text>
<text text-anchor="start" x="67" y="-7.5" font-family="Helvetica,sans-Serif" font-size="10.00">+ checkBlockHeader()</text>
</a>
</g>
</g>
<!-- Node2 -->
<g id="node2" class="node">
<title>Node2</title>
<g id="a_node2"><a xlink:href="structaltintegration_1_1AltChainParams.html" target="_top" xlink:title="Base class for all Altchain&#45;related configs.">
<polygon fill="white" stroke="black" points="45.5,-161.5 45.5,-460.5 215.5,-460.5 215.5,-161.5 45.5,-161.5"/>
<text text-anchor="start" x="53.5" y="-448.5" font-family="Helvetica,sans-Serif" font-size="10.00">altintegration::AltChain</text>
<text text-anchor="middle" x="130.5" y="-437.5" font-family="Helvetica,sans-Serif" font-size="10.00">Params</text>
<polyline fill="none" stroke="black" points="45.5,-430.5 215.5,-430.5 "/>
<text text-anchor="start" x="53.5" y="-418.5" font-family="Helvetica,sans-Serif" font-size="10.00">+ mMaxReorgDistance</text>
<text text-anchor="start" x="53.5" y="-407.5" font-family="Helvetica,sans-Serif" font-size="10.00">+ mMaxAltchainFutureBlockTime</text>
<text text-anchor="start" x="53.5" y="-396.5" font-family="Helvetica,sans-Serif" font-size="10.00">+ mKeystoneInterval</text>
<text text-anchor="start" x="53.5" y="-385.5" font-family="Helvetica,sans-Serif" font-size="10.00">+ mFinalityDelay</text>
<text text-anchor="start" x="53.5" y="-374.5" font-family="Helvetica,sans-Serif" font-size="10.00">+ mEndorsementSettlementInterval</text>
<text text-anchor="start" x="53.5" y="-363.5" font-family="Helvetica,sans-Serif" font-size="10.00">+ mPreserveBlocksBehindFinal</text>
<text text-anchor="start" x="53.5" y="-352.5" font-family="Helvetica,sans-Serif" font-size="10.00">+ mMaxPopDataSize</text>
<text text-anchor="start" x="53.5" y="-341.5" font-family="Helvetica,sans-Serif" font-size="10.00">+ mMaxVbkBlocksInAltBlock</text>
<text text-anchor="start" x="53.5" y="-330.5" font-family="Helvetica,sans-Serif" font-size="10.00">+ mMaxVTBsInAltBlock</text>
<text text-anchor="start" x="53.5" y="-319.5" font-family="Helvetica,sans-Serif" font-size="10.00">+ mMaxATVsInAltBlock</text>
<text text-anchor="start" x="53.5" y="-308.5" font-family="Helvetica,sans-Serif" font-size="10.00">+ mAltBlockHashSize</text>
<polyline fill="none" stroke="black" points="45.5,-301.5 215.5,-301.5 "/>
<text text-anchor="start" x="53.5" y="-289.5" font-family="Helvetica,sans-Serif" font-size="10.00">+ ~AltChainParams()</text>
<text text-anchor="start" x="53.5" y="-278.5" font-family="Helvetica,sans-Serif" font-size="10.00">+ maxWorkerQueueSize()</text>
<text text-anchor="start" x="53.5" y="-267.5" font-family="Helvetica,sans-Serif" font-size="10.00">+ getKeystoneInterval()</text>
<text text-anchor="start" x="53.5" y="-256.5" font-family="Helvetica,sans-Serif" font-size="10.00">+ getFinalityDelay()</text>
<text text-anchor="start" x="53.5" y="-245.5" font-family="Helvetica,sans-Serif" font-size="10.00">+ getForkResolutionLookUpTable()</text>
<text text-anchor="start" x="53.5" y="-234.5" font-family="Helvetica,sans-Serif" font-size="10.00">+ getEndorsementSettlement</text>
<text text-anchor="start" x="53.5" y="-223.5" font-family="Helvetica,sans-Serif" font-size="10.00">Interval()</text>
<text text-anchor="start" x="53.5" y="-212.5" font-family="Helvetica,sans-Serif" font-size="10.00">+ getPayoutParams()</text>
<text text-anchor="start" x="53.5" y="-201.5" font-family="Helvetica,sans-Serif" font-size="10.00">+ getMaxVbkBlocksInAltBlock()</text>
<text text-anchor="start" x="53.5" y="-190.5" font-family="Helvetica,sans-Serif" font-size="10.00">+ getMaxVTBsInAltBlock()</text>
<text text-anchor="start" x="53.5" y="-179.5" font-family="Helvetica,sans-Serif" font-size="10.00">+ getMaxATVsInAltBlock()</text>
<text text-anchor="start" x="53.5" y="-168.5" font-family="Helvetica,sans-Serif" font-size="10.00">and 8 more...</text>
</a>
</g>
</g>
<!-- Node2&#45;&gt;Node1 -->
<g id="edge1" class="edge">
<title>Node2&#45;&gt;Node1</title>
<path fill="none" stroke="midnightblue" d="M130.5,-151.23C130.5,-141.63 130.5,-132.34 130.5,-123.62"/>
<polygon fill="none" stroke="midnightblue" points="127,-151.33 130.5,-161.33 134,-151.33 127,-151.33"/>
</g>
<!-- Node3 -->
<g id="node3" class="node">
<title>Node3</title>
<g id="a_node3"><a xlink:title=" ">
<polygon fill="white" stroke="#bfbfbf" points="0,-514 0,-571 113,-571 113,-514 0,-514"/>
<text text-anchor="middle" x="56.5" y="-559" font-family="Helvetica,sans-Serif" font-size="10.00">std::vector&lt; uint32_t &gt;</text>
<polyline fill="none" stroke="#bfbfbf" points="0,-552 113,-552 "/>
<text text-anchor="start" x="8" y="-540" font-family="Helvetica,sans-Serif" font-size="10.00">+ elements</text>
<polyline fill="none" stroke="#bfbfbf" points="0,-533 113,-533 "/>
<text text-anchor="middle" x="56.5" y="-521" font-family="Helvetica,sans-Serif" font-size="10.00"> </text>
</a>
</g>
</g>
<!-- Node3&#45;&gt;Node2 -->
<g id="edge2" class="edge">
<title>Node3&#45;&gt;Node2</title>
<path fill="none" stroke="#404040" d="M49.44,-513.89C47.66,-502.93 46.91,-490.28 49.5,-479 50.01,-476.8 50.54,-474.59 51.11,-472.39"/>
<polygon fill="none" stroke="#404040" points="51.19,-472.11 48.96,-465.25 54.44,-460.56 56.67,-467.42 51.19,-472.11"/>
<text text-anchor="middle" x="120" y="-482" font-family="Helvetica,sans-Serif" font-size="10.00"> +mForkResolutionLookUpTable</text>
</g>
<!-- Node4 -->
<g id="node4" class="node">
<title>Node4</title>
<g id="a_node4"><a xlink:title=" ">
<polygon fill="white" stroke="#bfbfbf" points="40.5,-635.5 40.5,-692.5 124.5,-692.5 124.5,-635.5 40.5,-635.5"/>
<text text-anchor="middle" x="82.5" y="-680.5" font-family="Helvetica,sans-Serif" font-size="10.00">std::vector&lt; T &gt;</text>
<polyline fill="none" stroke="#bfbfbf" points="40.5,-673.5 124.5,-673.5 "/>
<text text-anchor="middle" x="82.5" y="-661.5" font-family="Helvetica,sans-Serif" font-size="10.00"> </text>
<polyline fill="none" stroke="#bfbfbf" points="40.5,-654.5 124.5,-654.5 "/>
<text text-anchor="middle" x="82.5" y="-642.5" font-family="Helvetica,sans-Serif" font-size="10.00"> </text>
</a>
</g>
</g>
<!-- Node4&#45;&gt;Node3 -->
<g id="edge3" class="edge">
<title>Node4&#45;&gt;Node3</title>
<path fill="none" stroke="orange" d="M74.3,-625.33C70.48,-607.74 66,-587.18 62.5,-571.07"/>
<polygon fill="orange" stroke="orange" points="70.92,-626.26 76.47,-635.28 77.76,-624.77 70.92,-626.26"/>
<text text-anchor="middle" x="99.5" y="-603.5" font-family="Helvetica,sans-Serif" font-size="10.00"> &lt; uint32_t &gt;</text>
</g>
<!-- Node5 -->
<g id="node5" class="node">
<title>Node5</title>
<g id="a_node5"><a xlink:title=" ">
<polygon fill="white" stroke="#bfbfbf" points="124,-740.5 124,-797.5 153,-797.5 153,-740.5 124,-740.5"/>
<text text-anchor="middle" x="138.5" y="-785.5" font-family="Helvetica,sans-Serif" font-size="10.00">T</text>
<polyline fill="none" stroke="#bfbfbf" points="124,-778.5 153,-778.5 "/>
<text text-anchor="middle" x="138.5" y="-766.5" font-family="Helvetica,sans-Serif" font-size="10.00"> </text>
<polyline fill="none" stroke="#bfbfbf" points="124,-759.5 153,-759.5 "/>
<text text-anchor="middle" x="138.5" y="-747.5" font-family="Helvetica,sans-Serif" font-size="10.00"> </text>
</a>
</g>
</g>
<!-- Node5&#45;&gt;Node4 -->
<g id="edge4" class="edge">
<title>Node5&#45;&gt;Node4</title>
<path fill="none" stroke="#404040" d="M123.93,-741.21C117.67,-729.68 110.22,-715.99 103.39,-703.42"/>
<polygon fill="none" stroke="#404040" points="103.31,-703.28 96.93,-699.92 97.58,-692.74 103.96,-696.1 103.31,-703.28"/>
<text text-anchor="middle" x="137" y="-714" font-family="Helvetica,sans-Serif" font-size="10.00"> +elements</text>
</g>
<!-- Node7 -->
<g id="node7" class="node">
<title>Node7</title>
<g id="a_node7"><a xlink:title=" ">
<polygon fill="white" stroke="#bfbfbf" points="147,-635.5 147,-692.5 250,-692.5 250,-635.5 147,-635.5"/>
<text text-anchor="middle" x="198.5" y="-680.5" font-family="Helvetica,sans-Serif" font-size="10.00">std::shared_ptr&lt; T &gt;</text>
<polyline fill="none" stroke="#bfbfbf" points="147,-673.5 250,-673.5 "/>
<text text-anchor="middle" x="198.5" y="-661.5" font-family="Helvetica,sans-Serif" font-size="10.00"> </text>
<polyline fill="none" stroke="#bfbfbf" points="147,-654.5 250,-654.5 "/>
<text text-anchor="start" x="155" y="-642.5" font-family="Helvetica,sans-Serif" font-size="10.00">+ operator&#45;&gt;()</text>
</a>
</g>
</g>
<!-- Node5&#45;&gt;Node7 -->
<g id="edge7" class="edge">
<title>Node5&#45;&gt;Node7</title>
<path fill="none" stroke="#404040" d="M153.02,-743.07C160.03,-731.04 168.59,-716.35 176.38,-702.97"/>
<polygon fill="none" stroke="#404040" points="176.38,-702.97 175.94,-695.77 182.42,-692.6 182.86,-699.8 176.38,-702.97"/>
<text text-anchor="middle" x="180.5" y="-714" font-family="Helvetica,sans-Serif" font-size="10.00"> +ptr</text>
</g>
<!-- Node6 -->
<g id="node6" class="node">
<title>Node6</title>
<g id="a_node6"><a xlink:title=" ">
<polygon fill="white" stroke="#bfbfbf" points="135.5,-508.5 135.5,-576.5 279.5,-576.5 279.5,-508.5 135.5,-508.5"/>
<text text-anchor="start" x="143.5" y="-564.5" font-family="Helvetica,sans-Serif" font-size="10.00">std::shared_ptr&lt; altintegration</text>
<text text-anchor="middle" x="207.5" y="-553.5" font-family="Helvetica,sans-Serif" font-size="10.00">::PopPayoutsParams &gt;</text>
<polyline fill="none" stroke="#bfbfbf" points="135.5,-546.5 279.5,-546.5 "/>
<text text-anchor="start" x="143.5" y="-534.5" font-family="Helvetica,sans-Serif" font-size="10.00">+ ptr</text>
<polyline fill="none" stroke="#bfbfbf" points="135.5,-527.5 279.5,-527.5 "/>
<text text-anchor="start" x="143.5" y="-515.5" font-family="Helvetica,sans-Serif" font-size="10.00">+ operator&#45;&gt;()</text>
</a>
</g>
</g>
<!-- Node6&#45;&gt;Node2 -->
<g id="edge5" class="edge">
<title>Node6&#45;&gt;Node2</title>
<path fill="none" stroke="#404040" d="M198.99,-508.27C196.41,-498.77 193.47,-488.44 190.5,-479 189.79,-476.74 189.07,-474.47 188.33,-472.18"/>
<polygon fill="none" stroke="#404040" points="188.3,-472.08 182.64,-467.61 184.59,-460.67 190.25,-465.14 188.3,-472.08"/>
<text text-anchor="middle" x="246" y="-482" font-family="Helvetica,sans-Serif" font-size="10.00"> +mPopPayoutsParams</text>
</g>
<!-- Node7&#45;&gt;Node6 -->
<g id="edge6" class="edge">
<title>Node7&#45;&gt;Node6</title>
<path fill="none" stroke="orange" d="M201.37,-624.95C202.54,-609.4 203.88,-591.58 205.01,-576.59"/>
<polygon fill="orange" stroke="orange" points="197.85,-625.05 200.59,-635.28 204.83,-625.58 197.85,-625.05"/>
<text text-anchor="start" x="204.5" y="-609" font-family="Helvetica,sans-Serif" font-size="10.00"> &lt; altintegration::PopPayouts</text>
<text text-anchor="middle" x="266.5" y="-598" font-family="Helvetica,sans-Serif" font-size="10.00">Params &gt;</text>
</g>
</g>
</svg>
        <g id="navigator" transform="translate(0 0)" fill="#404254">
                <rect fill="#f2f5e9" fill-opacity="0.5" stroke="#606060" stroke-width=".5" x="0" y="0" width="60" height="60"/>
                <use id="zoomplus" xlink:href="#zoomPlus" x="17" y="9" onmousedown="handleZoom(evt,'in')"/>
                <use id="zoomminus" xlink:href="#zoomMin" x="42" y="9" onmousedown="handleZoom(evt,'out')"/>
                <use id="reset" xlink:href="#resetDef" x="30" y="36" onmousedown="handleReset()"/>
                <g id="arrowUp" xlink:href="#dirArrow" transform="translate(30 24)" onmousedown="handlePan(0,-1)">
                  <use xlink:href="#rim" fill="#404040">
                        <set attributeName="fill" to="#808080" begin="arrowUp.mouseover" end="arrowUp.mouseout"/>
                  </use>
                  <path fill="none" stroke="white" stroke-width="1.5" d="M0,-3.0v7 M-2.5,-0.5L0,-3.0L2.5,-0.5"/>
                </g>
                <g id="arrowRight" xlink:href="#dirArrow" transform="rotate(90) translate(36 -43)" onmousedown="handlePan(1,0)">
                  <use xlink:href="#rim" fill="#404040">
                        <set attributeName="fill" to="#808080" begin="arrowRight.mouseover" end="arrowRight.mouseout"/>
                  </use>
                  <path fill="none" stroke="white" stroke-width="1.5" d="M0,-3.0v7 M-2.5,-0.5L0,-3.0L2.5,-0.5"/>
                </g>
                <g id="arrowDown" xlink:href="#dirArrow" transform="rotate(180) translate(-30 -48)" onmousedown="handlePan(0,1)">
                  <use xlink:href="#rim" fill="#404040">
                        <set attributeName="fill" to="#808080" begin="arrowDown.mouseover" end="arrowDown.mouseout"/>
                  </use>
                  <path fill="none" stroke="white" stroke-width="1.5" d="M0,-3.0v7 M-2.5,-0.5L0,-3.0L2.5,-0.5"/>
                </g>
                <g id="arrowLeft" xlink:href="#dirArrow" transform="rotate(270) translate(-36 17)" onmousedown="handlePan(-1,0)">
                  <use xlink:href="#rim" fill="#404040">
                        <set attributeName="fill" to="#808080" begin="arrowLeft.mouseover" end="arrowLeft.mouseout"/>
                  </use>
                  <path fill="none" stroke="white" stroke-width="1.5" d="M0,-3.0v7 M-2.5,-0.5L0,-3.0L2.5,-0.5"/>
                </g>
        </g>
        <svg viewBox="0 0 15 15" width="100%" height="30px" preserveAspectRatio="xMaxYMin meet">
         <g id="arrow_out" transform="scale(0.3 0.3)">
          <a xlink:href="structaltintegration_1_1AltChainParamsRegTest__coll__graph_org.svg" target="_base">
           <rect id="button" ry="5" rx="5" y="6" x="6" height="38" width="38"
                fill="#f2f5e9" fill-opacity="0.5" stroke="#606060" stroke-width="1.0"/>
           <path id="arrow"
             d="M 11.500037,31.436501 C 11.940474,20.09759 22.043105,11.32322 32.158766,21.979434 L 37.068811,17.246167 C 37.068811,17.246167 37.088388,32 37.088388,32 L 22.160133,31.978069 C 22.160133,31.978069 26.997745,27.140456 26.997745,27.140456 C 18.528582,18.264221 13.291696,25.230495 11.500037,31.436501 z"
             style="fill:#404040;"/>
          </a>
         </g>
        </svg>
</svg>
