<?xml version="1.0" encoding="UTF-8" standalone="no"?>
<!DOCTYPE svg PUBLIC "-//W3C//DTD SVG 1.1//EN"
 "http://www.w3.org/Graphics/SVG/1.1/DTD/svg11.dtd">
<!-- Generated by graphviz version 2.49.3 (20211027.1534)
 -->
<!-- Title: altintegration::BlockTree&lt; Block, ChainParams &gt; Pages: 1 -->
<svg width="344pt" height="1153pt"
 viewBox="0.00 0.00 344.00 1153.00" xmlns="http://www.w3.org/2000/svg" xmlns:xlink="http://www.w3.org/1999/xlink">
<g id="graph0" class="graph" transform="scale(1 1) rotate(0) translate(4 1149)">
<title>altintegration::BlockTree&lt; Block, ChainParams &gt;</title>
<polygon fill="white" stroke="transparent" points="-4,4 -4,-1149 340,-1149 340,4 -4,4"/>
<!-- Node1 -->
<g id="node1" class="node">
<title>Node1</title>
<g id="a_node1"><a xlink:title="BlockTree is a tree of blocks with single &quot;bootstrap&quot; block as root.">
<polygon fill="#bfbfbf" stroke="black" points="126,-0.5 126,-255.5 260,-255.5 260,-0.5 126,-0.5"/>
<text text-anchor="start" x="134" y="-243.5" font-family="Helvetica,sans-Serif" font-size="10.00">altintegration::BlockTree</text>
<text text-anchor="middle" x="193" y="-232.5" font-family="Helvetica,sans-Serif" font-size="10.00">&lt; Block, ChainParams &gt;</text>
<polyline fill="none" stroke="black" points="126,-225.5 260,-225.5 "/>
<text text-anchor="start" x="134" y="-213.5" font-family="Helvetica,sans-Serif" font-size="10.00"># param_</text>
<polyline fill="none" stroke="black" points="126,-206.5 260,-206.5 "/>
<text text-anchor="start" x="134" y="-194.5" font-family="Helvetica,sans-Serif" font-size="10.00">+ ~BlockTree()</text>
<text text-anchor="start" x="134" y="-183.5" font-family="Helvetica,sans-Serif" font-size="10.00">+ BlockTree()</text>
<text text-anchor="start" x="134" y="-172.5" font-family="Helvetica,sans-Serif" font-size="10.00">+ getParams()</text>
<text text-anchor="start" x="134" y="-161.5" font-family="Helvetica,sans-Serif" font-size="10.00">+ bootstrapWithGenesis()</text>
<text text-anchor="start" x="134" y="-150.5" font-family="Helvetica,sans-Serif" font-size="10.00">+ bootstrapWithChain()</text>
<text text-anchor="start" x="134" y="-139.5" font-family="Helvetica,sans-Serif" font-size="10.00">+ acceptBlockHeader()</text>
<text text-anchor="start" x="134" y="-128.5" font-family="Helvetica,sans-Serif" font-size="10.00">+ acceptBlockHeader()</text>
<text text-anchor="start" x="134" y="-117.5" font-family="Helvetica,sans-Serif" font-size="10.00">+ toPrettyString()</text>
<text text-anchor="start" x="134" y="-106.5" font-family="Helvetica,sans-Serif" font-size="10.00">+ loadBlockForward()</text>
<text text-anchor="start" x="134" y="-95.5" font-family="Helvetica,sans-Serif" font-size="10.00">+ isBlockOld()</text>
<text text-anchor="start" x="134" y="-84.5" font-family="Helvetica,sans-Serif" font-size="10.00">+ isBlockOld()</text>
<text text-anchor="start" x="134" y="-73.5" font-family="Helvetica,sans-Serif" font-size="10.00">+ finalizeBlocks()</text>
<text text-anchor="start" x="134" y="-62.5" font-family="Helvetica,sans-Serif" font-size="10.00"># acceptBlockHeaderImpl()</text>
<text text-anchor="start" x="134" y="-51.5" font-family="Helvetica,sans-Serif" font-size="10.00"># bootstrap()</text>
<text text-anchor="start" x="134" y="-40.5" font-family="Helvetica,sans-Serif" font-size="10.00"># bootstrap()</text>
<text text-anchor="start" x="134" y="-29.5" font-family="Helvetica,sans-Serif" font-size="10.00"># validateAndAddBlock()</text>
<text text-anchor="start" x="134" y="-18.5" font-family="Helvetica,sans-Serif" font-size="10.00"># determineBestChain()</text>
<text text-anchor="start" x="134" y="-7.5" font-family="Helvetica,sans-Serif" font-size="10.00"># onBlockInserted()</text>
</a>
</g>
</g>
<!-- Node2 -->
<g id="node2" class="node">
<title>Node2</title>
<g id="a_node2"><a xlink:href="structaltintegration_1_1BaseBlockTree.html" target="_top" xlink:title="Base block tree that stores all blocks, maintains tree tips, maintains active chain.">
<polygon fill="white" stroke="black" points="117,-293.5 117,-603.5 269,-603.5 269,-293.5 117,-293.5"/>
<text text-anchor="start" x="125" y="-591.5" font-family="Helvetica,sans-Serif" font-size="10.00">altintegration::BaseBlock</text>
<text text-anchor="middle" x="193" y="-580.5" font-family="Helvetica,sans-Serif" font-size="10.00">Tree&lt; Block &gt;</text>
<polyline fill="none" stroke="black" points="117,-573.5 269,-573.5 "/>
<text text-anchor="start" x="125" y="-561.5" font-family="Helvetica,sans-Serif" font-size="10.00">+ onBlockBeforeDeallocated</text>
<text text-anchor="start" x="125" y="-550.5" font-family="Helvetica,sans-Serif" font-size="10.00">+ onBlockValidityChanged</text>
<text text-anchor="start" x="125" y="-539.5" font-family="Helvetica,sans-Serif" font-size="10.00">+ onBeforeOverrideTip</text>
<text text-anchor="start" x="125" y="-528.5" font-family="Helvetica,sans-Serif" font-size="10.00"># isLoadingBlocks_</text>
<text text-anchor="start" x="125" y="-517.5" font-family="Helvetica,sans-Serif" font-size="10.00"># isLoaded_</text>
<text text-anchor="start" x="125" y="-506.5" font-family="Helvetica,sans-Serif" font-size="10.00"># tips_</text>
<text text-anchor="start" x="125" y="-495.5" font-family="Helvetica,sans-Serif" font-size="10.00"># activeChain_</text>
<text text-anchor="start" x="125" y="-484.5" font-family="Helvetica,sans-Serif" font-size="10.00"># finalizedPayloadsIndex_</text>
<text text-anchor="start" x="125" y="-473.5" font-family="Helvetica,sans-Serif" font-size="10.00"># payloadsIndex_</text>
<polyline fill="none" stroke="black" points="117,-466.5 269,-466.5 "/>
<text text-anchor="start" x="125" y="-454.5" font-family="Helvetica,sans-Serif" font-size="10.00">+ getTips()</text>
<text text-anchor="start" x="125" y="-443.5" font-family="Helvetica,sans-Serif" font-size="10.00">+ getBlocks()</text>
<text text-anchor="start" x="125" y="-432.5" font-family="Helvetica,sans-Serif" font-size="10.00">+ getAllBlocks()</text>
<text text-anchor="start" x="125" y="-421.5" font-family="Helvetica,sans-Serif" font-size="10.00">+ getBlockProvider()</text>
<text text-anchor="start" x="125" y="-410.5" font-family="Helvetica,sans-Serif" font-size="10.00">+ ~BaseBlockTree()</text>
<text text-anchor="start" x="125" y="-399.5" font-family="Helvetica,sans-Serif" font-size="10.00">+ BaseBlockTree()</text>
<text text-anchor="start" x="125" y="-388.5" font-family="Helvetica,sans-Serif" font-size="10.00">+ BaseBlockTree()</text>
<text text-anchor="start" x="125" y="-377.5" font-family="Helvetica,sans-Serif" font-size="10.00">+ operator=()</text>
<text text-anchor="start" x="125" y="-366.5" font-family="Helvetica,sans-Serif" font-size="10.00">+ BaseBlockTree()</text>
<text text-anchor="start" x="125" y="-355.5" font-family="Helvetica,sans-Serif" font-size="10.00">+ operator=()</text>
<text text-anchor="start" x="125" y="-344.5" font-family="Helvetica,sans-Serif" font-size="10.00">and 25 more...</text>
<text text-anchor="start" x="125" y="-333.5" font-family="Helvetica,sans-Serif" font-size="10.00"># deallocateBlock()</text>
<text text-anchor="start" x="125" y="-322.5" font-family="Helvetica,sans-Serif" font-size="10.00"># toPrettyString()</text>
<text text-anchor="start" x="125" y="-311.5" font-family="Helvetica,sans-Serif" font-size="10.00"># decreaseAppliedBlockCount()</text>
<text text-anchor="start" x="125" y="-300.5" font-family="Helvetica,sans-Serif" font-size="10.00"># decreaseAppliedBlockCount()</text>
</a>
</g>
</g>
<!-- Node2&#45;&gt;Node1 -->
<g id="edge1" class="edge">
<title>Node2&#45;&gt;Node1</title>
<path fill="none" stroke="midnightblue" d="M193,-283.09C193,-273.97 193,-264.88 193,-255.93"/>
<polygon fill="none" stroke="midnightblue" points="189.5,-283.38 193,-293.38 196.5,-283.38 189.5,-283.38"/>
</g>
<!-- Node3 -->
<g id="node3" class="node">
<title>Node3</title>
<g id="a_node3"><a xlink:title=" ">
<polygon fill="white" stroke="#bfbfbf" points="48.5,-695.5 48.5,-774.5 185.5,-774.5 185.5,-695.5 48.5,-695.5"/>
<text text-anchor="start" x="56.5" y="-762.5" font-family="Helvetica,sans-Serif" font-size="10.00">std::unordered_map</text>
<text text-anchor="start" x="56.5" y="-751.5" font-family="Helvetica,sans-Serif" font-size="10.00">&lt; prev_block_hash_t,</text>
<text text-anchor="middle" x="117" y="-740.5" font-family="Helvetica,sans-Serif" font-size="10.00"> std::unique_ptr&lt; index_t &gt; &gt;</text>
<polyline fill="none" stroke="#bfbfbf" points="48.5,-733.5 185.5,-733.5 "/>
<text text-anchor="start" x="56.5" y="-721.5" font-family="Helvetica,sans-Serif" font-size="10.00">+ keys</text>
<polyline fill="none" stroke="#bfbfbf" points="48.5,-714.5 185.5,-714.5 "/>
<text text-anchor="middle" x="117" y="-702.5" font-family="Helvetica,sans-Serif" font-size="10.00"> </text>
</a>
</g>
</g>
<!-- Node3&#45;&gt;Node2 -->
<g id="edge2" class="edge">
<title>Node3&#45;&gt;Node2</title>
<path fill="none" stroke="#404040" d="M127.33,-695.33C133.08,-673.81 140.68,-645.37 148.66,-615.49"/>
<polygon fill="none" stroke="#404040" points="148.76,-615.12 146.44,-608.29 151.85,-603.53 154.17,-610.36 148.76,-615.12"/>
<text text-anchor="middle" x="167" y="-625" font-family="Helvetica,sans-Serif" font-size="10.00"> #blocks_</text>
</g>
<!-- Node4 -->
<g id="node4" class="node">
<title>Node4</title>
<g id="a_node4"><a xlink:title=" ">
<polygon fill="white" stroke="#bfbfbf" points="2.5,-866.5 2.5,-923.5 129.5,-923.5 129.5,-866.5 2.5,-866.5"/>
<text text-anchor="middle" x="66" y="-911.5" font-family="Helvetica,sans-Serif" font-size="10.00">std::unique_ptr&lt; index_t &gt;</text>
<polyline fill="none" stroke="#bfbfbf" points="2.5,-904.5 129.5,-904.5 "/>
<text text-anchor="start" x="10.5" y="-892.5" font-family="Helvetica,sans-Serif" font-size="10.00">+ ptr</text>
<polyline fill="none" stroke="#bfbfbf" points="2.5,-885.5 129.5,-885.5 "/>
<text text-anchor="start" x="10.5" y="-873.5" font-family="Helvetica,sans-Serif" font-size="10.00">+ operator&#45;&gt;()</text>
</a>
</g>
</g>
<!-- Node4&#45;&gt;Node3 -->
<g id="edge3" class="edge">
<title>Node4&#45;&gt;Node3</title>
<path fill="none" stroke="#404040" d="M74.88,-866.48C82.02,-844.37 92.23,-812.75 100.81,-786.17"/>
<polygon fill="none" stroke="#404040" points="100.81,-786.17 98.84,-779.23 104.49,-774.75 106.46,-781.68 100.81,-786.17"/>
<text text-anchor="middle" x="108.5" y="-840" font-family="Helvetica,sans-Serif" font-size="10.00"> +elements</text>
</g>
<!-- Node5 -->
<g id="node5" class="node">
<title>Node5</title>
<g id="a_node5"><a xlink:title=" ">
<polygon fill="white" stroke="#bfbfbf" points="0,-977 0,-1034 102,-1034 102,-977 0,-977"/>
<text text-anchor="middle" x="51" y="-1022" font-family="Helvetica,sans-Serif" font-size="10.00">std::unique_ptr&lt; T &gt;</text>
<polyline fill="none" stroke="#bfbfbf" points="0,-1015 102,-1015 "/>
<text text-anchor="middle" x="51" y="-1003" font-family="Helvetica,sans-Serif" font-size="10.00"> </text>
<polyline fill="none" stroke="#bfbfbf" points="0,-996 102,-996 "/>
<text text-anchor="start" x="8" y="-984" font-family="Helvetica,sans-Serif" font-size="10.00">+ operator&#45;&gt;()</text>
</a>
</g>
</g>
<!-- Node5&#45;&gt;Node4 -->
<g id="edge4" class="edge">
<title>Node5&#45;&gt;Node4</title>
<path fill="none" stroke="orange" d="M56.2,-966.85C58.17,-952.64 60.37,-936.74 62.18,-923.61"/>
<polygon fill="orange" stroke="orange" points="52.73,-966.46 54.82,-976.84 59.66,-967.41 52.73,-966.46"/>
<text text-anchor="middle" x="85" y="-945" font-family="Helvetica,sans-Serif" font-size="10.00"> &lt; index_t &gt;</text>
</g>
<!-- Node6 -->
<g id="node6" class="node">
<title>Node6</title>
<g id="a_node6"><a xlink:title=" ">
<polygon fill="white" stroke="#bfbfbf" points="62.5,-1087.5 62.5,-1144.5 91.5,-1144.5 91.5,-1087.5 62.5,-1087.5"/>
<text text-anchor="middle" x="77" y="-1132.5" font-family="Helvetica,sans-Serif" font-size="10.00">T</text>
<polyline fill="none" stroke="#bfbfbf" points="62.5,-1125.5 91.5,-1125.5 "/>
<text text-anchor="middle" x="77" y="-1113.5" font-family="Helvetica,sans-Serif" font-size="10.00"> </text>
<polyline fill="none" stroke="#bfbfbf" points="62.5,-1106.5 91.5,-1106.5 "/>
<text text-anchor="middle" x="77" y="-1094.5" font-family="Helvetica,sans-Serif" font-size="10.00"> </text>
</a>
</g>
</g>
<!-- Node6&#45;&gt;Node5 -->
<g id="edge5" class="edge">
<title>Node6&#45;&gt;Node5</title>
<path fill="none" stroke="#404040" d="M62.51,-1087.35C59.94,-1081.43 57.59,-1075.12 56,-1069 54.12,-1061.76 52.89,-1053.9 52.09,-1046.28"/>
<polygon fill="none" stroke="#404040" points="52.09,-1046.19 47.63,-1040.52 51.15,-1034.22 55.61,-1039.89 52.09,-1046.19"/>
<text text-anchor="middle" x="66" y="-1061" font-family="Helvetica,sans-Serif" font-size="10.00"> +ptr</text>
</g>
<!-- Node7 -->
<g id="node7" class="node">
<title>Node7</title>
<g id="a_node7"><a xlink:title=" ">
<polygon fill="white" stroke="#bfbfbf" points="120.5,-971.5 120.5,-1039.5 221.5,-1039.5 221.5,-971.5 120.5,-971.5"/>
<text text-anchor="start" x="128.5" y="-1027.5" font-family="Helvetica,sans-Serif" font-size="10.00">std::unordered_map</text>
<text text-anchor="middle" x="171" y="-1016.5" font-family="Helvetica,sans-Serif" font-size="10.00">&lt; K, T &gt;</text>
<polyline fill="none" stroke="#bfbfbf" points="120.5,-1009.5 221.5,-1009.5 "/>
<text text-anchor="middle" x="171" y="-997.5" font-family="Helvetica,sans-Serif" font-size="10.00"> </text>
<polyline fill="none" stroke="#bfbfbf" points="120.5,-990.5 221.5,-990.5 "/>
<text text-anchor="middle" x="171" y="-978.5" font-family="Helvetica,sans-Serif" font-size="10.00"> </text>
</a>
</g>
</g>
<!-- Node6&#45;&gt;Node7 -->
<g id="edge8" class="edge">
<title>Node6&#45;&gt;Node7</title>
<path fill="none" stroke="#404040" d="M91.52,-1092.94C99,-1082.07 108.53,-1068.99 118,-1058 120.72,-1054.84 123.61,-1051.66 126.57,-1048.5"/>
<polygon fill="none" stroke="#404040" points="126.7,-1048.36 128,-1041.27 135.05,-1039.74 133.75,-1046.83 126.7,-1048.36"/>
<text text-anchor="middle" x="142.5" y="-1061" font-family="Helvetica,sans-Serif" font-size="10.00"> +elements</text>
</g>
<!-- Node7&#45;&gt;Node3 -->
<g id="edge6" class="edge">
<title>Node7&#45;&gt;Node3</title>
<path fill="none" stroke="orange" d="M162.35,-961.47C151.98,-909.93 134.77,-824.33 124.79,-774.76"/>
<polygon fill="orange" stroke="orange" points="158.92,-962.19 164.32,-971.31 165.78,-960.81 158.92,-962.19"/>
<text text-anchor="start" x="155" y="-898" font-family="Helvetica,sans-Serif" font-size="10.00"> &lt; prev_block_hash_t,</text>
<text text-anchor="middle" x="215.5" y="-887" font-family="Helvetica,sans-Serif" font-size="10.00"> std::unique_ptr&lt; index_t &gt; &gt;</text>
</g>
<!-- Node8 -->
<g id="node8" class="node">
<title>Node8</title>
<g id="a_node8"><a xlink:title=" ">
<polygon fill="white" stroke="#bfbfbf" points="156.5,-1087.5 156.5,-1144.5 185.5,-1144.5 185.5,-1087.5 156.5,-1087.5"/>
<text text-anchor="middle" x="171" y="-1132.5" font-family="Helvetica,sans-Serif" font-size="10.00">K</text>
<polyline fill="none" stroke="#bfbfbf" points="156.5,-1125.5 185.5,-1125.5 "/>
<text text-anchor="middle" x="171" y="-1113.5" font-family="Helvetica,sans-Serif" font-size="10.00"> </text>
<polyline fill="none" stroke="#bfbfbf" points="156.5,-1106.5 185.5,-1106.5 "/>
<text text-anchor="middle" x="171" y="-1094.5" font-family="Helvetica,sans-Serif" font-size="10.00"> </text>
</a>
</g>
</g>
<!-- Node8&#45;&gt;Node7 -->
<g id="edge7" class="edge">
<title>Node8&#45;&gt;Node7</title>
<path fill="none" stroke="#404040" d="M171,-1087.34C171,-1076.53 171,-1063.85 171,-1051.77"/>
<polygon fill="none" stroke="#404040" points="171,-1051.52 167,-1045.52 171,-1039.52 175,-1045.52 171,-1051.52"/>
<text text-anchor="middle" x="185.5" y="-1061" font-family="Helvetica,sans-Serif" font-size="10.00"> +keys</text>
</g>
<!-- Node9 -->
<g id="node9" class="node">
<title>Node9</title>
<g id="a_node9"><a xlink:href="structaltintegration_1_1BlockReader.html" target="_top" xlink:title="An abstraction over on&#45;disk storage iterator.">
<polygon fill="white" stroke="black" points="204,-651.5 204,-818.5 336,-818.5 336,-651.5 204,-651.5"/>
<text text-anchor="middle" x="270" y="-806.5" font-family="Helvetica,sans-Serif" font-size="10.00">altintegration::BlockReader</text>
<polyline fill="none" stroke="black" points="204,-799.5 336,-799.5 "/>
<text text-anchor="middle" x="270" y="-787.5" font-family="Helvetica,sans-Serif" font-size="10.00"> </text>
<polyline fill="none" stroke="black" points="204,-780.5 336,-780.5 "/>
<text text-anchor="start" x="212" y="-768.5" font-family="Helvetica,sans-Serif" font-size="10.00">+ ~BlockReader()</text>
<text text-anchor="start" x="212" y="-757.5" font-family="Helvetica,sans-Serif" font-size="10.00">+ getAltTip()</text>
<text text-anchor="start" x="212" y="-746.5" font-family="Helvetica,sans-Serif" font-size="10.00">+ getVbkTip()</text>
<text text-anchor="start" x="212" y="-735.5" font-family="Helvetica,sans-Serif" font-size="10.00">+ getBtcTip()</text>
<text text-anchor="start" x="212" y="-724.5" font-family="Helvetica,sans-Serif" font-size="10.00">+ getBlock()</text>
<text text-anchor="start" x="212" y="-713.5" font-family="Helvetica,sans-Serif" font-size="10.00">+ getBlock()</text>
<text text-anchor="start" x="212" y="-702.5" font-family="Helvetica,sans-Serif" font-size="10.00">+ getBlock()</text>
<text text-anchor="start" x="212" y="-691.5" font-family="Helvetica,sans-Serif" font-size="10.00">+ getAltBlockIterator()</text>
<text text-anchor="start" x="212" y="-680.5" font-family="Helvetica,sans-Serif" font-size="10.00">+ getVbkBlockIterator()</text>
<text text-anchor="start" x="212" y="-669.5" font-family="Helvetica,sans-Serif" font-size="10.00">+ getBtcBlockIterator()</text>
<text text-anchor="start" x="212" y="-658.5" font-family="Helvetica,sans-Serif" font-size="10.00">and 6 more...</text>
</a>
</g>
</g>
<!-- Node9&#45;&gt;Node2 -->
<g id="edge9" class="edge">
<title>Node9&#45;&gt;Node2</title>
<path fill="none" stroke="#404040" d="M247.62,-651.33C244.53,-639.89 241.26,-627.83 237.93,-615.52"/>
<polygon fill="none" stroke="#404040" points="237.86,-615.23 232.43,-610.49 234.72,-603.65 240.15,-608.4 237.86,-615.23"/>
<text text-anchor="middle" x="276.5" y="-625" font-family="Helvetica,sans-Serif" font-size="10.00"> #blockProvider_</text>
</g>
</g>
</svg>
