<?xml version="1.0" encoding="UTF-8" standalone="no"?>
<!DOCTYPE svg PUBLIC "-//W3C//DTD SVG 1.1//EN"
 "http://www.w3.org/Graphics/SVG/1.1/DTD/svg11.dtd">
<!-- Generated by graphviz version 2.44.0 ()
 -->
<!-- Title: altintegration::btc::TxMsg Pages: 1 -->
<!--zoomable 1241 -->
<svg id="main" version="1.1" xmlns="http://www.w3.org/2000/svg" xmlns:xlink="http://www.w3.org/1999/xlink" xml:space="preserve" onload="init(evt)">
<style type="text/css"><![CDATA[
.edge:hover path { stroke: red; }
.edge:hover polygon { stroke: red; fill: red; }
]]></style>
<script type="text/javascript"><![CDATA[
var edges = document.getElementsByTagName('g');
if (edges && edges.length) {
  for (var i=0;i<edges.length;i++) {
    if (edges[i].id.substr(0,4)=='edge') {
      edges[i].setAttribute('class','edge');
    }
  }
}
]]></script>
        <defs>
                <circle id="rim" cx="0" cy="0" r="7"/>
                <circle id="rim2" cx="0" cy="0" r="3.5"/>
                <g id="zoomPlus">
                        <use xlink:href="#rim" fill="#404040">
                                <set attributeName="fill" to="#808080" begin="zoomplus.mouseover" end="zoomplus.mouseout"/>
                        </use>
                        <path d="M-4,0h8M0,-4v8" fill="none" stroke="white" stroke-width="1.5" pointer-events="none"/>
                </g>
                <g id="zoomMin">
                        <use xlink:href="#rim" fill="#404040">
                                <set attributeName="fill" to="#808080" begin="zoomminus.mouseover" end="zoomminus.mouseout"/>
                        </use>
                        <path d="M-4,0h8" fill="none" stroke="white" stroke-width="1.5" pointer-events="none"/>
                </g>
                <g id="dirArrow">
                        <path fill="none" stroke="white" stroke-width="1.5" d="M0,-3.0v7 M-2.5,-0.5L0,-3.0L2.5,-0.5"/>
                </g>
               <g id="resetDef">
                       <use xlink:href="#rim2" fill="#404040">
                               <set attributeName="fill" to="#808080" begin="reset.mouseover" end="reset.mouseout"/>
                       </use>
               </g>
        </defs>

<script type="text/javascript">
var viewWidth = 854;
var viewHeight = 1241;
var sectionId = 'dynsection-0';
</script>
<script xlink:href="svgpan.js"/>
<svg id="graph" class="graph">
<g id="viewport">
<title>altintegration::btc::TxMsg</title>
<polygon fill="white" stroke="transparent" points="-4,4 -4,-1237 849.5,-1237 849.5,4 -4,4"/>
<!-- Node1 -->
<g id="node1" class="node">
<title>Node1</title>
<g id="a_node1"><a xlink:title=" ">
<polygon fill="#bfbfbf" stroke="black" points="1,-0.5 1,-68.5 156,-68.5 156,-0.5 1,-0.5"/>
<text text-anchor="start" x="9" y="-56.5" font-family="Helvetica,sans-Serif" font-size="10.00">altintegration::btc</text>
<text text-anchor="middle" x="78.5" y="-45.5" font-family="Helvetica,sans-Serif" font-size="10.00">::TxMsg</text>
<polyline fill="none" stroke="black" points="1,-38.5 156,-38.5 "/>
<text text-anchor="start" x="9" y="-26.5" font-family="Helvetica,sans-Serif" font-size="10.00">+ ADD_SERIALIZE_METHODS</text>
<polyline fill="none" stroke="black" points="1,-19.5 156,-19.5 "/>
<text text-anchor="start" x="9" y="-7.5" font-family="Helvetica,sans-Serif" font-size="10.00">+ SerializationOp()</text>
</a>
</g>
</g>
<!-- Node2 -->
<g id="node2" class="node">
<title>Node2</title>
<g id="a_node2"><a xlink:href="structaltintegration_1_1btc_1_1Transaction.html" target="_top" xlink:title="The basic transaction that is broadcasted on the network and contained in blocks.">
<polygon fill="white" stroke="black" points="33.5,-116.5 33.5,-217.5 123.5,-217.5 123.5,-116.5 33.5,-116.5"/>
<text text-anchor="start" x="41.5" y="-205.5" font-family="Helvetica,sans-Serif" font-size="10.00">altintegration::btc</text>
<text text-anchor="middle" x="78.5" y="-194.5" font-family="Helvetica,sans-Serif" font-size="10.00">::Transaction</text>
<polyline fill="none" stroke="black" points="33.5,-187.5 123.5,-187.5 "/>
<text text-anchor="start" x="41.5" y="-175.5" font-family="Helvetica,sans-Serif" font-size="10.00">+ nVersion</text>
<text text-anchor="start" x="41.5" y="-164.5" font-family="Helvetica,sans-Serif" font-size="10.00">+ nLockTime</text>
<polyline fill="none" stroke="black" points="33.5,-157.5 123.5,-157.5 "/>
<text text-anchor="start" x="41.5" y="-145.5" font-family="Helvetica,sans-Serif" font-size="10.00">+ Serialize()</text>
<text text-anchor="start" x="41.5" y="-134.5" font-family="Helvetica,sans-Serif" font-size="10.00">+ Unserialize()</text>
<text text-anchor="start" x="41.5" y="-123.5" font-family="Helvetica,sans-Serif" font-size="10.00">+ HasWitness()</text>
</a>
</g>
</g>
<!-- Node2&#45;&gt;Node1 -->
<g id="edge1" class="edge">
<title>Node2&#45;&gt;Node1</title>
<path fill="none" stroke="#404040" d="M78.5,-116.29C78.5,-104.55 78.5,-92.09 78.5,-80.57"/>
<polygon fill="none" stroke="#404040" points="78.5,-80.51 74.5,-74.51 78.5,-68.51 82.5,-74.51 78.5,-80.51"/>
<text text-anchor="middle" x="86.5" y="-90" font-family="Helvetica,sans-Serif" font-size="10.00"> +tx</text>
</g>
<!-- Node3 -->
<g id="node3" class="node">
<title>Node3</title>
<g id="a_node3"><a xlink:title=" ">
<polygon fill="white" stroke="#bfbfbf" points="0,-387 0,-455 125,-455 125,-387 0,-387"/>
<text text-anchor="start" x="8" y="-443" font-family="Helvetica,sans-Serif" font-size="10.00">std::vector&lt; altintegration</text>
<text text-anchor="middle" x="62.5" y="-432" font-family="Helvetica,sans-Serif" font-size="10.00">::btc::TxOut &gt;</text>
<polyline fill="none" stroke="#bfbfbf" points="0,-425 125,-425 "/>
<text text-anchor="middle" x="62.5" y="-413" font-family="Helvetica,sans-Serif" font-size="10.00"> </text>
<polyline fill="none" stroke="#bfbfbf" points="0,-406 125,-406 "/>
<text text-anchor="middle" x="62.5" y="-394" font-family="Helvetica,sans-Serif" font-size="10.00"> </text>
</a>
</g>
</g>
<!-- Node3&#45;&gt;Node2 -->
<g id="edge2" class="edge">
<title>Node3&#45;&gt;Node2</title>
<path fill="none" stroke="#404040" d="M64.3,-386.73C66.02,-355.34 68.77,-306.96 71.5,-265 72.24,-253.62 73.08,-241.49 73.91,-229.81"/>
<polygon fill="none" stroke="#404040" points="73.91,-229.81 70.35,-223.53 74.77,-217.84 78.33,-224.11 73.91,-229.81"/>
<text text-anchor="middle" x="85.5" y="-297" font-family="Helvetica,sans-Serif" font-size="10.00"> +vout</text>
</g>
<!-- Node4 -->
<g id="node4" class="node">
<title>Node4</title>
<g id="a_node4"><a xlink:href="structaltintegration_1_1btc_1_1TxOut.html" target="_top" xlink:title="An output of a transaction.">
<polygon fill="white" stroke="black" points="261,-508.5 261,-587.5 416,-587.5 416,-508.5 261,-508.5"/>
<text text-anchor="start" x="269" y="-575.5" font-family="Helvetica,sans-Serif" font-size="10.00">altintegration::btc</text>
<text text-anchor="middle" x="338.5" y="-564.5" font-family="Helvetica,sans-Serif" font-size="10.00">::TxOut</text>
<polyline fill="none" stroke="black" points="261,-557.5 416,-557.5 "/>
<text text-anchor="start" x="269" y="-545.5" font-family="Helvetica,sans-Serif" font-size="10.00">+ nValue</text>
<text text-anchor="start" x="269" y="-534.5" font-family="Helvetica,sans-Serif" font-size="10.00">+ ADD_SERIALIZE_METHODS</text>
<polyline fill="none" stroke="black" points="261,-527.5 416,-527.5 "/>
<text text-anchor="start" x="269" y="-515.5" font-family="Helvetica,sans-Serif" font-size="10.00">+ SerializationOp()</text>
</a>
</g>
</g>
<!-- Node4&#45;&gt;Node3 -->
<g id="edge3" class="edge">
<title>Node4&#45;&gt;Node3</title>
<path fill="none" stroke="#404040" d="M260.88,-511.85C221.85,-494.17 174.78,-472.85 136.29,-455.42"/>
<polygon fill="none" stroke="#404040" points="136.09,-455.33 128.98,-456.5 125.16,-450.38 132.28,-449.21 136.09,-455.33"/>
<text text-anchor="middle" x="234" y="-482" font-family="Helvetica,sans-Serif" font-size="10.00"> +elements</text>
</g>
<!-- Node5 -->
<g id="node5" class="node">
<title>Node5</title>
<g id="a_node5"><a xlink:title=" ">
<polygon fill="white" stroke="#bfbfbf" points="350,-729 350,-786 457,-786 457,-729 350,-729"/>
<text text-anchor="middle" x="403.5" y="-774" font-family="Helvetica,sans-Serif" font-size="10.00">std::vector&lt; uint8_t &gt;</text>
<polyline fill="none" stroke="#bfbfbf" points="350,-767 457,-767 "/>
<text text-anchor="start" x="358" y="-755" font-family="Helvetica,sans-Serif" font-size="10.00">+ elements</text>
<polyline fill="none" stroke="#bfbfbf" points="350,-748 457,-748 "/>
<text text-anchor="middle" x="403.5" y="-736" font-family="Helvetica,sans-Serif" font-size="10.00"> </text>
</a>
</g>
</g>
<!-- Node5&#45;&gt;Node4 -->
<g id="edge4" class="edge">
<title>Node5&#45;&gt;Node4</title>
<path fill="none" stroke="#404040" d="M394.87,-728.95C384.53,-695.93 367,-639.99 354.23,-599.22"/>
<polygon fill="none" stroke="#404040" points="354.19,-599.08 348.58,-594.55 350.6,-587.63 356.21,-592.16 354.19,-599.08"/>
<text text-anchor="middle" x="395" y="-614.5" font-family="Helvetica,sans-Serif" font-size="10.00"> +scriptPubKey</text>
</g>
<!-- Node9 -->
<g id="node9" class="node">
<title>Node9</title>
<g id="a_node9"><a xlink:href="structaltintegration_1_1btc_1_1TxIn.html" target="_top" xlink:title="An input of a transaction.">
<polygon fill="white" stroke="black" points="414,-381.5 414,-460.5 569,-460.5 569,-381.5 414,-381.5"/>
<text text-anchor="start" x="422" y="-448.5" font-family="Helvetica,sans-Serif" font-size="10.00">altintegration::btc</text>
<text text-anchor="middle" x="491.5" y="-437.5" font-family="Helvetica,sans-Serif" font-size="10.00">::TxIn</text>
<polyline fill="none" stroke="black" points="414,-430.5 569,-430.5 "/>
<text text-anchor="start" x="422" y="-418.5" font-family="Helvetica,sans-Serif" font-size="10.00">+ nSequence</text>
<text text-anchor="start" x="422" y="-407.5" font-family="Helvetica,sans-Serif" font-size="10.00">+ ADD_SERIALIZE_METHODS</text>
<polyline fill="none" stroke="black" points="414,-400.5 569,-400.5 "/>
<text text-anchor="start" x="422" y="-388.5" font-family="Helvetica,sans-Serif" font-size="10.00">+ SerializationOp()</text>
</a>
</g>
</g>
<!-- Node5&#45;&gt;Node9 -->
<g id="edge10" class="edge">
<title>Node5&#45;&gt;Node9</title>
<path fill="none" stroke="#404040" d="M409.83,-728.63C423.56,-668.28 455.34,-529.22 461.5,-508 464.9,-496.27 468.99,-483.79 473.03,-472.07"/>
<polygon fill="none" stroke="#404040" points="473.05,-472 471.27,-465.01 477.03,-460.68 478.81,-467.66 473.05,-472"/>
<text text-anchor="middle" x="485" y="-545.5" font-family="Helvetica,sans-Serif" font-size="10.00"> +scriptSig</text>
</g>
<!-- Node10 -->
<g id="node10" class="node">
<title>Node10</title>
<g id="a_node10"><a xlink:title=" ">
<polygon fill="white" stroke="#bfbfbf" points="518,-514 518,-582 633,-582 633,-514 518,-514"/>
<text text-anchor="start" x="526" y="-570" font-family="Helvetica,sans-Serif" font-size="10.00">std::vector&lt; std::vector</text>
<text text-anchor="middle" x="575.5" y="-559" font-family="Helvetica,sans-Serif" font-size="10.00">&lt; uint8_t &gt; &gt;</text>
<polyline fill="none" stroke="#bfbfbf" points="518,-552 633,-552 "/>
<text text-anchor="middle" x="575.5" y="-540" font-family="Helvetica,sans-Serif" font-size="10.00"> </text>
<polyline fill="none" stroke="#bfbfbf" points="518,-533 633,-533 "/>
<text text-anchor="middle" x="575.5" y="-521" font-family="Helvetica,sans-Serif" font-size="10.00"> </text>
</a>
</g>
</g>
<!-- Node5&#45;&gt;Node10 -->
<g id="edge12" class="edge">
<title>Node5&#45;&gt;Node10</title>
<path fill="none" stroke="#404040" d="M415.83,-728.96C431.08,-696.92 459.4,-643.62 494.5,-606 499.73,-600.39 505.61,-595 511.73,-589.93"/>
<polygon fill="none" stroke="#404040" points="512.08,-589.66 514.33,-582.8 521.51,-582.24 519.27,-589.09 512.08,-589.66"/>
<text text-anchor="middle" x="519" y="-614.5" font-family="Helvetica,sans-Serif" font-size="10.00"> +elements</text>
</g>
<!-- Node6 -->
<g id="node6" class="node">
<title>Node6</title>
<g id="a_node6"><a xlink:title=" ">
<polygon fill="white" stroke="#bfbfbf" points="234.5,-993.5 234.5,-1050.5 318.5,-1050.5 318.5,-993.5 234.5,-993.5"/>
<text text-anchor="middle" x="276.5" y="-1038.5" font-family="Helvetica,sans-Serif" font-size="10.00">std::vector&lt; T &gt;</text>
<polyline fill="none" stroke="#bfbfbf" points="234.5,-1031.5 318.5,-1031.5 "/>
<text text-anchor="middle" x="276.5" y="-1019.5" font-family="Helvetica,sans-Serif" font-size="10.00"> </text>
<polyline fill="none" stroke="#bfbfbf" points="234.5,-1012.5 318.5,-1012.5 "/>
<text text-anchor="middle" x="276.5" y="-1000.5" font-family="Helvetica,sans-Serif" font-size="10.00"> </text>
</a>
</g>
</g>
<!-- Node6&#45;&gt;Node3 -->
<g id="edge7" class="edge">
<title>Node6&#45;&gt;Node3</title>
<path fill="none" stroke="orange" d="M228.74,-987.05C200.37,-964.66 165.71,-933.06 143.5,-898 71.16,-783.82 57.03,-741.16 58.5,-606 59.07,-553.28 60.57,-492.08 61.56,-455.24"/>
<polygon fill="orange" stroke="orange" points="226.89,-990.05 236.94,-993.41 231.18,-984.51 226.89,-990.05"/>
<text text-anchor="start" x="58.5" y="-620" font-family="Helvetica,sans-Serif" font-size="10.00"> &lt; altintegration::btc</text>
<text text-anchor="middle" x="101" y="-609" font-family="Helvetica,sans-Serif" font-size="10.00">::TxOut &gt;</text>
</g>
<!-- Node6&#45;&gt;Node5 -->
<g id="edge5" class="edge">
<title>Node6&#45;&gt;Node5</title>
<path fill="none" stroke="orange" d="M294.25,-984.32C319.99,-931.11 367.12,-833.7 390.14,-786.12"/>
<polygon fill="orange" stroke="orange" points="291.06,-982.88 289.85,-993.4 297.36,-985.93 291.06,-982.88"/>
<text text-anchor="middle" x="365" y="-890" font-family="Helvetica,sans-Serif" font-size="10.00"> &lt; uint8_t &gt;</text>
</g>
<!-- Node8 -->
<g id="node8" class="node">
<title>Node8</title>
<g id="a_node8"><a xlink:title=" ">
<polygon fill="white" stroke="#bfbfbf" points="109,-265.5 109,-333.5 234,-333.5 234,-265.5 109,-265.5"/>
<text text-anchor="start" x="117" y="-321.5" font-family="Helvetica,sans-Serif" font-size="10.00">std::vector&lt; altintegration</text>
<text text-anchor="middle" x="171.5" y="-310.5" font-family="Helvetica,sans-Serif" font-size="10.00">::btc::TxIn &gt;</text>
<polyline fill="none" stroke="#bfbfbf" points="109,-303.5 234,-303.5 "/>
<text text-anchor="middle" x="171.5" y="-291.5" font-family="Helvetica,sans-Serif" font-size="10.00"> </text>
<polyline fill="none" stroke="#bfbfbf" points="109,-284.5 234,-284.5 "/>
<text text-anchor="middle" x="171.5" y="-272.5" font-family="Helvetica,sans-Serif" font-size="10.00"> </text>
</a>
</g>
</g>
<!-- Node6&#45;&gt;Node8 -->
<g id="edge17" class="edge">
<title>Node6&#45;&gt;Node8</title>
<path fill="none" stroke="orange" d="M248.29,-985.08C213.1,-936.57 157.5,-846.06 157.5,-758.5 157.5,-758.5 157.5,-758.5 157.5,-420 157.5,-390.65 161.72,-357.52 165.52,-333.6"/>
<polygon fill="orange" stroke="orange" points="245.64,-987.39 254.4,-993.36 251.28,-983.23 245.64,-987.39"/>
<text text-anchor="start" x="157.5" y="-551" font-family="Helvetica,sans-Serif" font-size="10.00"> &lt; altintegration::btc</text>
<text text-anchor="middle" x="200" y="-540" font-family="Helvetica,sans-Serif" font-size="10.00">::TxIn &gt;</text>
</g>
<!-- Node6&#45;&gt;Node10 -->
<g id="edge13" class="edge">
<title>Node6&#45;&gt;Node10</title>
<path fill="none" stroke="orange" d="M327.28,-991.57C369.7,-964.62 428.93,-921.06 465.5,-869 530.16,-776.94 559.63,-643.55 570.38,-582.17"/>
<polygon fill="orange" stroke="orange" points="325.39,-988.63 318.77,-996.9 329.1,-994.56 325.39,-988.63"/>
<text text-anchor="start" x="557.5" y="-760.5" font-family="Helvetica,sans-Serif" font-size="10.00"> &lt; std::vector&lt; uint8</text>
<text text-anchor="middle" x="600" y="-749.5" font-family="Helvetica,sans-Serif" font-size="10.00">_t &gt; &gt;</text>
</g>
<!-- Node7 -->
<g id="node7" class="node">
<title>Node7</title>
<g id="a_node7"><a xlink:title=" ">
<polygon fill="white" stroke="#bfbfbf" points="262,-1175.5 262,-1232.5 291,-1232.5 291,-1175.5 262,-1175.5"/>
<text text-anchor="middle" x="276.5" y="-1220.5" font-family="Helvetica,sans-Serif" font-size="10.00">T</text>
<polyline fill="none" stroke="#bfbfbf" points="262,-1213.5 291,-1213.5 "/>
<text text-anchor="middle" x="276.5" y="-1201.5" font-family="Helvetica,sans-Serif" font-size="10.00"> </text>
<polyline fill="none" stroke="#bfbfbf" points="262,-1194.5 291,-1194.5 "/>
<text text-anchor="middle" x="276.5" y="-1182.5" font-family="Helvetica,sans-Serif" font-size="10.00"> </text>
</a>
</g>
</g>
<!-- Node7&#45;&gt;Node6 -->
<g id="edge6" class="edge">
<title>Node7&#45;&gt;Node6</title>
<path fill="none" stroke="#404040" d="M276.5,-1175.27C276.5,-1145.28 276.5,-1097.18 276.5,-1063.08"/>
<polygon fill="none" stroke="#404040" points="276.5,-1062.76 272.5,-1056.76 276.5,-1050.76 280.5,-1056.76 276.5,-1062.76"/>
<text text-anchor="middle" x="301" y="-1149" font-family="Helvetica,sans-Serif" font-size="10.00"> +elements</text>
</g>
<!-- Node8&#45;&gt;Node2 -->
<g id="edge8" class="edge">
<title>Node8&#45;&gt;Node2</title>
<path fill="none" stroke="#404040" d="M147.79,-265.23C139.72,-253.91 130.44,-240.88 121.34,-228.12"/>
<polygon fill="none" stroke="#404040" points="121.08,-227.75 114.34,-225.18 114.11,-217.98 120.85,-220.54 121.08,-227.75"/>
<text text-anchor="middle" x="144.5" y="-239" font-family="Helvetica,sans-Serif" font-size="10.00"> +vin</text>
</g>
<!-- Node9&#45;&gt;Node8 -->
<g id="edge9" class="edge">
<title>Node9&#45;&gt;Node8</title>
<path fill="none" stroke="#404040" d="M413.63,-390.92C362.48,-371.82 295.97,-346.98 245.61,-328.17"/>
<polygon fill="none" stroke="#404040" points="245.39,-328.09 238.37,-329.74 234.14,-323.89 241.17,-322.25 245.39,-328.09"/>
<text text-anchor="middle" x="356" y="-355" font-family="Helvetica,sans-Serif" font-size="10.00"> +elements</text>
</g>
<!-- Node10&#45;&gt;Node9 -->
<g id="edge11" class="edge">
<title>Node10&#45;&gt;Node9</title>
<path fill="none" stroke="#404040" d="M553.21,-513.83C544.37,-500.68 534.03,-485.28 524.36,-470.9"/>
<polygon fill="none" stroke="#404040" points="524.16,-470.61 517.5,-467.86 517.47,-460.65 524.14,-463.4 524.16,-470.61"/>
<text text-anchor="middle" x="570.5" y="-482" font-family="Helvetica,sans-Serif" font-size="10.00"> +scriptWitness</text>
</g>
<!-- Node11 -->
<g id="node11" class="node">
<title>Node11</title>
<g id="a_node11"><a xlink:href="structaltintegration_1_1btc_1_1OutPoint.html" target="_top" xlink:title="An outpoint &#45; a combination of a transaction hash and an index n into its vout.">
<polygon fill="white" stroke="black" points="651,-508.5 651,-587.5 806,-587.5 806,-508.5 651,-508.5"/>
<text text-anchor="start" x="659" y="-575.5" font-family="Helvetica,sans-Serif" font-size="10.00">altintegration::btc</text>
<text text-anchor="middle" x="728.5" y="-564.5" font-family="Helvetica,sans-Serif" font-size="10.00">::OutPoint</text>
<polyline fill="none" stroke="black" points="651,-557.5 806,-557.5 "/>
<text text-anchor="start" x="659" y="-545.5" font-family="Helvetica,sans-Serif" font-size="10.00">+ n</text>
<text text-anchor="start" x="659" y="-534.5" font-family="Helvetica,sans-Serif" font-size="10.00">+ ADD_SERIALIZE_METHODS</text>
<polyline fill="none" stroke="black" points="651,-527.5 806,-527.5 "/>
<text text-anchor="start" x="659" y="-515.5" font-family="Helvetica,sans-Serif" font-size="10.00">+ SerializationOp()</text>
</a>
</g>
</g>
<!-- Node11&#45;&gt;Node9 -->
<g id="edge14" class="edge">
<title>Node11&#45;&gt;Node9</title>
<path fill="none" stroke="#404040" d="M662.26,-508.49C644.89,-498.66 626.09,-488.26 608.5,-479 599.35,-474.18 589.73,-469.27 580.1,-464.44"/>
<polygon fill="none" stroke="#404040" points="579.99,-464.39 572.84,-465.29 569.25,-459.04 576.41,-458.13 579.99,-464.39"/>
<text text-anchor="middle" x="649" y="-482" font-family="Helvetica,sans-Serif" font-size="10.00"> +prevout</text>
</g>
<!-- Node12 -->
<g id="node12" class="node">
<title>Node12</title>
<g id="a_node12"><a xlink:href="structaltintegration_1_1Blob.html" target="_top" xlink:title=" ">
<polygon fill="white" stroke="black" points="663,-646.5 663,-868.5 794,-868.5 794,-646.5 663,-646.5"/>
<text text-anchor="start" x="671" y="-856.5" font-family="Helvetica,sans-Serif" font-size="10.00">altintegration::Blob</text>
<text text-anchor="middle" x="728.5" y="-845.5" font-family="Helvetica,sans-Serif" font-size="10.00">&lt; SHA256_HASH_SIZE &gt;</text>
<polyline fill="none" stroke="black" points="663,-838.5 794,-838.5 "/>
<text text-anchor="start" x="671" y="-826.5" font-family="Helvetica,sans-Serif" font-size="10.00">+ data_</text>
<text text-anchor="start" x="671" y="-815.5" font-family="Helvetica,sans-Serif" font-size="10.00">+ this</text>
<polyline fill="none" stroke="black" points="663,-808.5 794,-808.5 "/>
<text text-anchor="start" x="671" y="-796.5" font-family="Helvetica,sans-Serif" font-size="10.00">+ Blob()</text>
<text text-anchor="start" x="671" y="-785.5" font-family="Helvetica,sans-Serif" font-size="10.00">+ Blob()</text>
<text text-anchor="start" x="671" y="-774.5" font-family="Helvetica,sans-Serif" font-size="10.00">+ Blob()</text>
<text text-anchor="start" x="671" y="-763.5" font-family="Helvetica,sans-Serif" font-size="10.00">+ Blob()</text>
<text text-anchor="start" x="671" y="-752.5" font-family="Helvetica,sans-Serif" font-size="10.00">+ Blob()</text>
<text text-anchor="start" x="671" y="-741.5" font-family="Helvetica,sans-Serif" font-size="10.00">+ operator=()</text>
<text text-anchor="start" x="671" y="-730.5" font-family="Helvetica,sans-Serif" font-size="10.00">+ operator=()</text>
<text text-anchor="start" x="671" y="-719.5" font-family="Helvetica,sans-Serif" font-size="10.00">+ reverse()</text>
<text text-anchor="start" x="671" y="-708.5" font-family="Helvetica,sans-Serif" font-size="10.00">+ operator~()</text>
<text text-anchor="start" x="671" y="-697.5" font-family="Helvetica,sans-Serif" font-size="10.00">+ asVector()</text>
<text text-anchor="start" x="671" y="-686.5" font-family="Helvetica,sans-Serif" font-size="10.00">+ asString()</text>
<text text-anchor="start" x="671" y="-675.5" font-family="Helvetica,sans-Serif" font-size="10.00">+ operator[]()</text>
<text text-anchor="start" x="671" y="-664.5" font-family="Helvetica,sans-Serif" font-size="10.00">+ operator[]()</text>
<text text-anchor="start" x="671" y="-653.5" font-family="Helvetica,sans-Serif" font-size="10.00">+ compareTo()</text>
</a>
</g>
</g>
<!-- Node12&#45;&gt;Node11 -->
<g id="edge15" class="edge">
<title>Node12&#45;&gt;Node11</title>
<path fill="none" stroke="#404040" d="M728.5,-646.37C728.5,-630.02 728.5,-613.87 728.5,-599.58"/>
<polygon fill="none" stroke="#404040" points="728.5,-599.53 724.5,-593.53 728.5,-587.53 732.5,-593.53 728.5,-599.53"/>
<text text-anchor="middle" x="743.5" y="-614.5" font-family="Helvetica,sans-Serif" font-size="10.00"> +hash</text>
</g>
<!-- Node13 -->
<g id="node13" class="node">
<title>Node13</title>
<g id="a_node13"><a xlink:href="structaltintegration_1_1Blob.html" target="_top" xlink:title="Contiguous byte array of fixed size.">
<polygon fill="white" stroke="black" points="668.5,-916.5 668.5,-1127.5 788.5,-1127.5 788.5,-916.5 668.5,-916.5"/>
<text text-anchor="middle" x="728.5" y="-1115.5" font-family="Helvetica,sans-Serif" font-size="10.00">altintegration::Blob&lt; N &gt;</text>
<polyline fill="none" stroke="black" points="668.5,-1108.5 788.5,-1108.5 "/>
<text text-anchor="start" x="676.5" y="-1096.5" font-family="Helvetica,sans-Serif" font-size="10.00">+ data_</text>
<text text-anchor="start" x="676.5" y="-1085.5" font-family="Helvetica,sans-Serif" font-size="10.00">+ this</text>
<polyline fill="none" stroke="black" points="668.5,-1078.5 788.5,-1078.5 "/>
<text text-anchor="start" x="676.5" y="-1066.5" font-family="Helvetica,sans-Serif" font-size="10.00">+ Blob()</text>
<text text-anchor="start" x="676.5" y="-1055.5" font-family="Helvetica,sans-Serif" font-size="10.00">+ Blob()</text>
<text text-anchor="start" x="676.5" y="-1044.5" font-family="Helvetica,sans-Serif" font-size="10.00">+ Blob()</text>
<text text-anchor="start" x="676.5" y="-1033.5" font-family="Helvetica,sans-Serif" font-size="10.00">+ Blob()</text>
<text text-anchor="start" x="676.5" y="-1022.5" font-family="Helvetica,sans-Serif" font-size="10.00">+ Blob()</text>
<text text-anchor="start" x="676.5" y="-1011.5" font-family="Helvetica,sans-Serif" font-size="10.00">+ operator=()</text>
<text text-anchor="start" x="676.5" y="-1000.5" font-family="Helvetica,sans-Serif" font-size="10.00">+ operator=()</text>
<text text-anchor="start" x="676.5" y="-989.5" font-family="Helvetica,sans-Serif" font-size="10.00">+ reverse()</text>
<text text-anchor="start" x="676.5" y="-978.5" font-family="Helvetica,sans-Serif" font-size="10.00">+ operator~()</text>
<text text-anchor="start" x="676.5" y="-967.5" font-family="Helvetica,sans-Serif" font-size="10.00">+ asVector()</text>
<text text-anchor="start" x="676.5" y="-956.5" font-family="Helvetica,sans-Serif" font-size="10.00">+ asString()</text>
<text text-anchor="start" x="676.5" y="-945.5" font-family="Helvetica,sans-Serif" font-size="10.00">+ operator[]()</text>
<text text-anchor="start" x="676.5" y="-934.5" font-family="Helvetica,sans-Serif" font-size="10.00">+ operator[]()</text>
<text text-anchor="start" x="676.5" y="-923.5" font-family="Helvetica,sans-Serif" font-size="10.00">+ compareTo()</text>
</a>
</g>
</g>
<!-- Node13&#45;&gt;Node12 -->
<g id="edge16" class="edge">
<title>Node13&#45;&gt;Node12</title>
<path fill="none" stroke="orange" d="M728.5,-906.48C728.5,-893.93 728.5,-881.17 728.5,-868.67"/>
<polygon fill="orange" stroke="orange" points="725,-906.5 728.5,-916.5 732,-906.5 725,-906.5"/>
<text text-anchor="middle" x="787" y="-890" font-family="Helvetica,sans-Serif" font-size="10.00"> &lt; SHA256_HASH_SIZE &gt;</text>
</g>
</g>
</svg>
        <g id="navigator" transform="translate(0 0)" fill="#404254">
                <rect fill="#f2f5e9" fill-opacity="0.5" stroke="#606060" stroke-width=".5" x="0" y="0" width="60" height="60"/>
                <use id="zoomplus" xlink:href="#zoomPlus" x="17" y="9" onmousedown="handleZoom(evt,'in')"/>
                <use id="zoomminus" xlink:href="#zoomMin" x="42" y="9" onmousedown="handleZoom(evt,'out')"/>
                <use id="reset" xlink:href="#resetDef" x="30" y="36" onmousedown="handleReset()"/>
                <g id="arrowUp" xlink:href="#dirArrow" transform="translate(30 24)" onmousedown="handlePan(0,-1)">
                  <use xlink:href="#rim" fill="#404040">
                        <set attributeName="fill" to="#808080" begin="arrowUp.mouseover" end="arrowUp.mouseout"/>
                  </use>
                  <path fill="none" stroke="white" stroke-width="1.5" d="M0,-3.0v7 M-2.5,-0.5L0,-3.0L2.5,-0.5"/>
                </g>
                <g id="arrowRight" xlink:href="#dirArrow" transform="rotate(90) translate(36 -43)" onmousedown="handlePan(1,0)">
                  <use xlink:href="#rim" fill="#404040">
                        <set attributeName="fill" to="#808080" begin="arrowRight.mouseover" end="arrowRight.mouseout"/>
                  </use>
                  <path fill="none" stroke="white" stroke-width="1.5" d="M0,-3.0v7 M-2.5,-0.5L0,-3.0L2.5,-0.5"/>
                </g>
                <g id="arrowDown" xlink:href="#dirArrow" transform="rotate(180) translate(-30 -48)" onmousedown="handlePan(0,1)">
                  <use xlink:href="#rim" fill="#404040">
                        <set attributeName="fill" to="#808080" begin="arrowDown.mouseover" end="arrowDown.mouseout"/>
                  </use>
                  <path fill="none" stroke="white" stroke-width="1.5" d="M0,-3.0v7 M-2.5,-0.5L0,-3.0L2.5,-0.5"/>
                </g>
                <g id="arrowLeft" xlink:href="#dirArrow" transform="rotate(270) translate(-36 17)" onmousedown="handlePan(-1,0)">
                  <use xlink:href="#rim" fill="#404040">
                        <set attributeName="fill" to="#808080" begin="arrowLeft.mouseover" end="arrowLeft.mouseout"/>
                  </use>
                  <path fill="none" stroke="white" stroke-width="1.5" d="M0,-3.0v7 M-2.5,-0.5L0,-3.0L2.5,-0.5"/>
                </g>
        </g>
        <svg viewBox="0 0 15 15" width="100%" height="30px" preserveAspectRatio="xMaxYMin meet">
         <g id="arrow_out" transform="scale(0.3 0.3)">
          <a xlink:href="structaltintegration_1_1btc_1_1TxMsg__coll__graph_org.svg" target="_base">
           <rect id="button" ry="5" rx="5" y="6" x="6" height="38" width="38"
                fill="#f2f5e9" fill-opacity="0.5" stroke="#606060" stroke-width="1.0"/>
           <path id="arrow"
             d="M 11.500037,31.436501 C 11.940474,20.09759 22.043105,11.32322 32.158766,21.979434 L 37.068811,17.246167 C 37.068811,17.246167 37.088388,32 37.088388,32 L 22.160133,31.978069 C 22.160133,31.978069 26.997745,27.140456 26.997745,27.140456 C 18.528582,18.264221 13.291696,25.230495 11.500037,31.436501 z"
             style="fill:#404040;"/>
          </a>
         </g>
        </svg>
</svg>
