<?xml version="1.0" encoding="UTF-8" standalone="no"?>
<!DOCTYPE svg PUBLIC "-//W3C//DTD SVG 1.1//EN"
 "http://www.w3.org/Graphics/SVG/1.1/DTD/svg11.dtd">
<!-- Generated by graphviz version 2.50.0 (20220203.2022)
 -->
<!-- Title: altintegration::BlockTree&lt; Block, ChainParams &gt; Pages: 1 -->
<svg width="869pt" height="1473pt"
 viewBox="0.00 0.00 868.50 1473.00" xmlns="http://www.w3.org/2000/svg" xmlns:xlink="http://www.w3.org/1999/xlink">
<g id="graph0" class="graph" transform="scale(1 1) rotate(0) translate(4 1469)">
<title>altintegration::BlockTree&lt; Block, ChainParams &gt;</title>
<polygon fill="white" stroke="transparent" points="-4,4 -4,-1469 864.5,-1469 864.5,4 -4,4"/>
<!-- Node1 -->
<g id="node1" class="node">
<title>Node1</title>
<g id="a_node1"><a xlink:title="BlockTree is a tree of blocks with single &quot;bootstrap&quot; block as root.">
<polygon fill="#bfbfbf" stroke="black" points="439.5,-0.5 439.5,-255.5 573.5,-255.5 573.5,-0.5 439.5,-0.5"/>
<text text-anchor="start" x="447.5" y="-243.5" font-family="Helvetica,sans-Serif" font-size="10.00">altintegration::BlockTree</text>
<text text-anchor="middle" x="506.5" y="-232.5" font-family="Helvetica,sans-Serif" font-size="10.00">&lt; Block, ChainParams &gt;</text>
<polyline fill="none" stroke="black" points="439.5,-225.5 573.5,-225.5 "/>
<text text-anchor="start" x="447.5" y="-213.5" font-family="Helvetica,sans-Serif" font-size="10.00"># param_</text>
<polyline fill="none" stroke="black" points="439.5,-206.5 573.5,-206.5 "/>
<text text-anchor="start" x="447.5" y="-194.5" font-family="Helvetica,sans-Serif" font-size="10.00">+ ~BlockTree()</text>
<text text-anchor="start" x="447.5" y="-183.5" font-family="Helvetica,sans-Serif" font-size="10.00">+ BlockTree()</text>
<text text-anchor="start" x="447.5" y="-172.5" font-family="Helvetica,sans-Serif" font-size="10.00">+ getParams()</text>
<text text-anchor="start" x="447.5" y="-161.5" font-family="Helvetica,sans-Serif" font-size="10.00">+ bootstrapWithGenesis()</text>
<text text-anchor="start" x="447.5" y="-150.5" font-family="Helvetica,sans-Serif" font-size="10.00">+ bootstrapWithChain()</text>
<text text-anchor="start" x="447.5" y="-139.5" font-family="Helvetica,sans-Serif" font-size="10.00">+ acceptBlockHeader()</text>
<text text-anchor="start" x="447.5" y="-128.5" font-family="Helvetica,sans-Serif" font-size="10.00">+ acceptBlockHeader()</text>
<text text-anchor="start" x="447.5" y="-117.5" font-family="Helvetica,sans-Serif" font-size="10.00">+ toPrettyString()</text>
<text text-anchor="start" x="447.5" y="-106.5" font-family="Helvetica,sans-Serif" font-size="10.00">+ loadBlockForward()</text>
<text text-anchor="start" x="447.5" y="-95.5" font-family="Helvetica,sans-Serif" font-size="10.00">+ isBlockOld()</text>
<text text-anchor="start" x="447.5" y="-84.5" font-family="Helvetica,sans-Serif" font-size="10.00">+ isBlockOld()</text>
<text text-anchor="start" x="447.5" y="-73.5" font-family="Helvetica,sans-Serif" font-size="10.00">+ finalizeBlock()</text>
<text text-anchor="start" x="447.5" y="-62.5" font-family="Helvetica,sans-Serif" font-size="10.00"># acceptBlockHeaderImpl()</text>
<text text-anchor="start" x="447.5" y="-51.5" font-family="Helvetica,sans-Serif" font-size="10.00"># bootstrap()</text>
<text text-anchor="start" x="447.5" y="-40.5" font-family="Helvetica,sans-Serif" font-size="10.00"># bootstrap()</text>
<text text-anchor="start" x="447.5" y="-29.5" font-family="Helvetica,sans-Serif" font-size="10.00"># validateAndAddBlock()</text>
<text text-anchor="start" x="447.5" y="-18.5" font-family="Helvetica,sans-Serif" font-size="10.00"># determineBestChain()</text>
<text text-anchor="start" x="447.5" y="-7.5" font-family="Helvetica,sans-Serif" font-size="10.00"># onBlockInserted()</text>
</a>
</g>
</g>
<!-- Node2 -->
<g id="node2" class="node">
<title>Node2</title>
<g id="a_node2"><a xlink:href="structaltintegration_1_1BaseBlockTree.html" target="_top" xlink:title="Base block tree that stores all blocks, maintains tree tips, maintains active chain.">
<polygon fill="white" stroke="black" points="430.5,-293.5 430.5,-559.5 582.5,-559.5 582.5,-293.5 430.5,-293.5"/>
<text text-anchor="start" x="438.5" y="-547.5" font-family="Helvetica,sans-Serif" font-size="10.00">altintegration::BaseBlock</text>
<text text-anchor="middle" x="506.5" y="-536.5" font-family="Helvetica,sans-Serif" font-size="10.00">Tree&lt; Block &gt;</text>
<polyline fill="none" stroke="black" points="430.5,-529.5 582.5,-529.5 "/>
<text text-anchor="start" x="438.5" y="-517.5" font-family="Helvetica,sans-Serif" font-size="10.00"># isLoadingBlocks_</text>
<text text-anchor="start" x="438.5" y="-506.5" font-family="Helvetica,sans-Serif" font-size="10.00"># isLoaded_</text>
<text text-anchor="start" x="438.5" y="-495.5" font-family="Helvetica,sans-Serif" font-size="10.00"># validity_sig_</text>
<polyline fill="none" stroke="black" points="430.5,-488.5 582.5,-488.5 "/>
<text text-anchor="start" x="438.5" y="-476.5" font-family="Helvetica,sans-Serif" font-size="10.00">+ getTips()</text>
<text text-anchor="start" x="438.5" y="-465.5" font-family="Helvetica,sans-Serif" font-size="10.00">+ getBlocks()</text>
<text text-anchor="start" x="438.5" y="-454.5" font-family="Helvetica,sans-Serif" font-size="10.00">+ getAllBlocks()</text>
<text text-anchor="start" x="438.5" y="-443.5" font-family="Helvetica,sans-Serif" font-size="10.00">+ getBlockProvider()</text>
<text text-anchor="start" x="438.5" y="-432.5" font-family="Helvetica,sans-Serif" font-size="10.00">+ ~BaseBlockTree()</text>
<text text-anchor="start" x="438.5" y="-421.5" font-family="Helvetica,sans-Serif" font-size="10.00">+ BaseBlockTree()</text>
<text text-anchor="start" x="438.5" y="-410.5" font-family="Helvetica,sans-Serif" font-size="10.00">+ BaseBlockTree()</text>
<text text-anchor="start" x="438.5" y="-399.5" font-family="Helvetica,sans-Serif" font-size="10.00">+ operator=()</text>
<text text-anchor="start" x="438.5" y="-388.5" font-family="Helvetica,sans-Serif" font-size="10.00">+ BaseBlockTree()</text>
<text text-anchor="start" x="438.5" y="-377.5" font-family="Helvetica,sans-Serif" font-size="10.00">+ operator=()</text>
<text text-anchor="start" x="438.5" y="-366.5" font-family="Helvetica,sans-Serif" font-size="10.00">and 25 more...</text>
<text text-anchor="start" x="438.5" y="-355.5" font-family="Helvetica,sans-Serif" font-size="10.00"># eraseBlock()</text>
<text text-anchor="start" x="438.5" y="-344.5" font-family="Helvetica,sans-Serif" font-size="10.00"># toPrettyString()</text>
<text text-anchor="start" x="438.5" y="-333.5" font-family="Helvetica,sans-Serif" font-size="10.00"># decreaseAppliedBlockCount()</text>
<text text-anchor="start" x="438.5" y="-322.5" font-family="Helvetica,sans-Serif" font-size="10.00"># increaseAppliedBlockCount()</text>
<text text-anchor="start" x="438.5" y="-311.5" font-family="Helvetica,sans-Serif" font-size="10.00"># decreaseAppliedBlockCount()</text>
<text text-anchor="start" x="438.5" y="-300.5" font-family="Helvetica,sans-Serif" font-size="10.00"># increaseAppliedBlockCount()</text>
</a>
</g>
</g>
<!-- Node2&#45;&gt;Node1 -->
<g id="edge1" class="edge">
<title>Node2&#45;&gt;Node1</title>
<path fill="none" stroke="midnightblue" d="M506.5,-283C506.5,-273.87 506.5,-264.72 506.5,-255.67"/>
<polygon fill="none" stroke="midnightblue" points="503,-283.29 506.5,-293.29 510,-283.29 503,-283.29"/>
</g>
<!-- Node3 -->
<g id="node3" class="node">
<title>Node3</title>
<g id="a_node3"><a xlink:title=" ">
<polygon fill="white" stroke="black" points="8,-657 8,-736 145,-736 145,-657 8,-657"/>
<text text-anchor="start" x="16" y="-724" font-family="Helvetica,sans-Serif" font-size="10.00">std::unordered_map</text>
<text text-anchor="start" x="16" y="-713" font-family="Helvetica,sans-Serif" font-size="10.00">&lt; prev_block_hash_t,</text>
<text text-anchor="middle" x="76.5" y="-702" font-family="Helvetica,sans-Serif" font-size="10.00"> std::unique_ptr&lt; index_t &gt; &gt;</text>
<polyline fill="none" stroke="black" points="8,-695 145,-695 "/>
<text text-anchor="start" x="16" y="-683" font-family="Helvetica,sans-Serif" font-size="10.00">+ keys</text>
<polyline fill="none" stroke="black" points="8,-676 145,-676 "/>
<text text-anchor="middle" x="76.5" y="-664" font-family="Helvetica,sans-Serif" font-size="10.00"> </text>
</a>
</g>
</g>
<!-- Node3&#45;&gt;Node2 -->
<g id="edge2" class="edge">
<title>Node3&#45;&gt;Node2</title>
<path fill="none" stroke="#404040" d="M132.16,-656.94C155.28,-641.17 182.5,-622.93 207.5,-607 278.06,-562.03 359.58,-513.3 419.66,-477.98"/>
<polygon fill="none" stroke="#404040" points="419.89,-477.84 423.04,-471.35 430.24,-471.76 427.09,-478.25 419.89,-477.84"/>
<text text-anchor="middle" x="269.5" y="-581" font-family="Helvetica,sans-Serif" font-size="10.00"> #blocks_</text>
</g>
<!-- Node4 -->
<g id="node4" class="node">
<title>Node4</title>
<g id="a_node4"><a xlink:title=" ">
<polygon fill="white" stroke="black" points="0,-1074.5 0,-1131.5 127,-1131.5 127,-1074.5 0,-1074.5"/>
<text text-anchor="middle" x="63.5" y="-1119.5" font-family="Helvetica,sans-Serif" font-size="10.00">std::unique_ptr&lt; index_t &gt;</text>
<polyline fill="none" stroke="black" points="0,-1112.5 127,-1112.5 "/>
<text text-anchor="start" x="8" y="-1100.5" font-family="Helvetica,sans-Serif" font-size="10.00">+ ptr</text>
<polyline fill="none" stroke="black" points="0,-1093.5 127,-1093.5 "/>
<text text-anchor="start" x="8" y="-1081.5" font-family="Helvetica,sans-Serif" font-size="10.00">+ operator&#45;&gt;()</text>
</a>
</g>
</g>
<!-- Node4&#45;&gt;Node3 -->
<g id="edge3" class="edge">
<title>Node4&#45;&gt;Node3</title>
<path fill="none" stroke="#404040" d="M55.8,-1074.46C54.43,-1068.42 53.21,-1062.03 52.5,-1056 41.47,-962.43 44.86,-937.91 52.5,-844 55.11,-811.89 60.9,-776.21 66.13,-748.1"/>
<polygon fill="none" stroke="#404040" points="66.16,-747.94 63.35,-741.3 68.41,-736.15 71.21,-742.8 66.16,-747.94"/>
<text text-anchor="middle" x="77" y="-947.5" font-family="Helvetica,sans-Serif" font-size="10.00"> +elements</text>
</g>
<!-- Node5 -->
<g id="node5" class="node">
<title>Node5</title>
<g id="a_node5"><a xlink:title=" ">
<polygon fill="white" stroke="black" points="34.5,-1226.5 34.5,-1283.5 136.5,-1283.5 136.5,-1226.5 34.5,-1226.5"/>
<text text-anchor="middle" x="85.5" y="-1271.5" font-family="Helvetica,sans-Serif" font-size="10.00">std::unique_ptr&lt; T &gt;</text>
<polyline fill="none" stroke="black" points="34.5,-1264.5 136.5,-1264.5 "/>
<text text-anchor="middle" x="85.5" y="-1252.5" font-family="Helvetica,sans-Serif" font-size="10.00"> </text>
<polyline fill="none" stroke="black" points="34.5,-1245.5 136.5,-1245.5 "/>
<text text-anchor="start" x="42.5" y="-1233.5" font-family="Helvetica,sans-Serif" font-size="10.00">+ operator&#45;&gt;()</text>
</a>
</g>
</g>
<!-- Node5&#45;&gt;Node4 -->
<g id="edge4" class="edge">
<title>Node5&#45;&gt;Node4</title>
<path fill="none" stroke="orange" d="M80,-1216.47C76.13,-1190.11 71.04,-1155.43 67.55,-1131.59"/>
<polygon fill="orange" stroke="orange" points="76.55,-1217.1 81.46,-1226.49 83.48,-1216.09 76.55,-1217.1"/>
<text text-anchor="middle" x="103.5" y="-1176.5" font-family="Helvetica,sans-Serif" font-size="10.00"> &lt; index_t &gt;</text>
</g>
<!-- Node6 -->
<g id="node6" class="node">
<title>Node6</title>
<g id="a_node6"><a xlink:title=" ">
<polygon fill="white" stroke="#bfbfbf" points="147,-1407.5 147,-1464.5 176,-1464.5 176,-1407.5 147,-1407.5"/>
<text text-anchor="middle" x="161.5" y="-1452.5" font-family="Helvetica,sans-Serif" font-size="10.00">T</text>
<polyline fill="none" stroke="#bfbfbf" points="147,-1445.5 176,-1445.5 "/>
<text text-anchor="middle" x="161.5" y="-1433.5" font-family="Helvetica,sans-Serif" font-size="10.00"> </text>
<polyline fill="none" stroke="#bfbfbf" points="147,-1426.5 176,-1426.5 "/>
<text text-anchor="middle" x="161.5" y="-1414.5" font-family="Helvetica,sans-Serif" font-size="10.00"> </text>
</a>
</g>
</g>
<!-- Node6&#45;&gt;Node5 -->
<g id="edge5" class="edge">
<title>Node6&#45;&gt;Node5</title>
<path fill="none" stroke="#404040" d="M146.81,-1417.98C140.2,-1409.67 132.73,-1399.26 127.5,-1389 112.25,-1359.06 101.19,-1322.51 94.26,-1295.3"/>
<polygon fill="none" stroke="#404040" points="94.23,-1295.17 88.92,-1290.3 91.37,-1283.52 96.68,-1288.39 94.23,-1295.17"/>
<text text-anchor="middle" x="137.5" y="-1381" font-family="Helvetica,sans-Serif" font-size="10.00"> +ptr</text>
</g>
<!-- Node7 -->
<g id="node7" class="node">
<title>Node7</title>
<g id="a_node7"><a xlink:title=" ">
<polygon fill="white" stroke="black" points="111,-916 111,-984 212,-984 212,-916 111,-916"/>
<text text-anchor="start" x="119" y="-972" font-family="Helvetica,sans-Serif" font-size="10.00">std::unordered_map</text>
<text text-anchor="middle" x="161.5" y="-961" font-family="Helvetica,sans-Serif" font-size="10.00">&lt; K, T &gt;</text>
<polyline fill="none" stroke="black" points="111,-954 212,-954 "/>
<text text-anchor="middle" x="161.5" y="-942" font-family="Helvetica,sans-Serif" font-size="10.00"> </text>
<polyline fill="none" stroke="black" points="111,-935 212,-935 "/>
<text text-anchor="middle" x="161.5" y="-923" font-family="Helvetica,sans-Serif" font-size="10.00"> </text>
</a>
</g>
</g>
<!-- Node6&#45;&gt;Node7 -->
<g id="edge8" class="edge">
<title>Node6&#45;&gt;Node7</title>
<path fill="none" stroke="#404040" d="M161.5,-1407.24C161.5,-1327.19 161.5,-1095.33 161.5,-996.5"/>
<polygon fill="none" stroke="#404040" points="161.5,-996.29 157.5,-990.29 161.5,-984.29 165.5,-990.29 161.5,-996.29"/>
<text text-anchor="middle" x="186" y="-1252.5" font-family="Helvetica,sans-Serif" font-size="10.00"> +elements</text>
</g>
<!-- Node15 -->
<g id="node15" class="node">
<title>Node15</title>
<g id="a_node15"><a xlink:title=" ">
<polygon fill="white" stroke="black" points="234,-1302.5 234,-1359.5 337,-1359.5 337,-1302.5 234,-1302.5"/>
<text text-anchor="middle" x="285.5" y="-1347.5" font-family="Helvetica,sans-Serif" font-size="10.00">std::shared_ptr&lt; T &gt;</text>
<polyline fill="none" stroke="black" points="234,-1340.5 337,-1340.5 "/>
<text text-anchor="middle" x="285.5" y="-1328.5" font-family="Helvetica,sans-Serif" font-size="10.00"> </text>
<polyline fill="none" stroke="black" points="234,-1321.5 337,-1321.5 "/>
<text text-anchor="start" x="242" y="-1309.5" font-family="Helvetica,sans-Serif" font-size="10.00">+ operator&#45;&gt;()</text>
</a>
</g>
</g>
<!-- Node6&#45;&gt;Node15 -->
<g id="edge19" class="edge">
<title>Node6&#45;&gt;Node15</title>
<path fill="none" stroke="#404040" d="M176.21,-1422.78C192.56,-1409.2 219.72,-1386.64 242.87,-1367.41"/>
<polygon fill="none" stroke="#404040" points="242.94,-1367.35 245,-1360.44 252.17,-1359.68 250.11,-1366.6 242.94,-1367.35"/>
<text text-anchor="middle" x="237.5" y="-1381" font-family="Helvetica,sans-Serif" font-size="10.00"> +ptr</text>
</g>
<!-- Node7&#45;&gt;Node3 -->
<g id="edge6" class="edge">
<title>Node7&#45;&gt;Node3</title>
<path fill="none" stroke="orange" d="M133.68,-906.98C119.75,-883.98 103.89,-854.44 94.5,-826 84.86,-796.8 80.38,-762.21 78.3,-736.27"/>
<polygon fill="orange" stroke="orange" points="130.88,-909.1 139.11,-915.78 136.84,-905.43 130.88,-909.1"/>
<text text-anchor="start" x="94.5" y="-818" font-family="Helvetica,sans-Serif" font-size="10.00"> &lt; prev_block_hash_t,</text>
<text text-anchor="middle" x="155" y="-807" font-family="Helvetica,sans-Serif" font-size="10.00"> std::unique_ptr&lt; index_t &gt; &gt;</text>
</g>
<!-- Node8 -->
<g id="node8" class="node">
<title>Node8</title>
<g id="a_node8"><a xlink:title=" ">
<polygon fill="white" stroke="#bfbfbf" points="275,-1150.5 275,-1207.5 304,-1207.5 304,-1150.5 275,-1150.5"/>
<text text-anchor="middle" x="289.5" y="-1195.5" font-family="Helvetica,sans-Serif" font-size="10.00">K</text>
<polyline fill="none" stroke="#bfbfbf" points="275,-1188.5 304,-1188.5 "/>
<text text-anchor="middle" x="289.5" y="-1176.5" font-family="Helvetica,sans-Serif" font-size="10.00"> </text>
<polyline fill="none" stroke="#bfbfbf" points="275,-1169.5 304,-1169.5 "/>
<text text-anchor="middle" x="289.5" y="-1157.5" font-family="Helvetica,sans-Serif" font-size="10.00"> </text>
</a>
</g>
</g>
<!-- Node8&#45;&gt;Node7 -->
<g id="edge7" class="edge">
<title>Node8&#45;&gt;Node7</title>
<path fill="none" stroke="#404040" d="M274.75,-1158.71C268.82,-1150.63 262.07,-1141.03 256.5,-1132 228.55,-1086.7 200.74,-1032.35 182.5,-995.11"/>
<polygon fill="none" stroke="#404040" points="182.41,-994.92 176.19,-991.27 177.16,-984.13 183.38,-987.77 182.41,-994.92"/>
<text text-anchor="middle" x="271" y="-1100.5" font-family="Helvetica,sans-Serif" font-size="10.00"> +keys</text>
</g>
<!-- Node13 -->
<g id="node13" class="node">
<title>Node13</title>
<g id="a_node13"><a xlink:title=" ">
<polygon fill="white" stroke="black" points="383,-921.5 383,-978.5 454,-978.5 454,-921.5 383,-921.5"/>
<text text-anchor="middle" x="418.5" y="-966.5" font-family="Helvetica,sans-Serif" font-size="10.00">std::set&lt; K &gt;</text>
<polyline fill="none" stroke="black" points="383,-959.5 454,-959.5 "/>
<text text-anchor="middle" x="418.5" y="-947.5" font-family="Helvetica,sans-Serif" font-size="10.00"> </text>
<polyline fill="none" stroke="black" points="383,-940.5 454,-940.5 "/>
<text text-anchor="middle" x="418.5" y="-928.5" font-family="Helvetica,sans-Serif" font-size="10.00"> </text>
</a>
</g>
</g>
<!-- Node8&#45;&gt;Node13 -->
<g id="edge16" class="edge">
<title>Node8&#45;&gt;Node13</title>
<path fill="none" stroke="#404040" d="M304.23,-1158.7C310.16,-1150.62 316.91,-1141.02 322.5,-1132 352.06,-1084.33 381.62,-1026.71 399.98,-989.49"/>
<polygon fill="none" stroke="#404040" points="400.02,-989.4 399.07,-982.25 405.3,-978.62 406.25,-985.77 400.02,-989.4"/>
<text text-anchor="middle" x="369" y="-1100.5" font-family="Helvetica,sans-Serif" font-size="10.00"> +keys</text>
</g>
<!-- Node16 -->
<g id="node16" class="node">
<title>Node16</title>
<g id="a_node16"><a xlink:title=" ">
<polygon fill="white" stroke="black" points="230,-921.5 230,-978.5 349,-978.5 349,-921.5 230,-921.5"/>
<text text-anchor="middle" x="289.5" y="-966.5" font-family="Helvetica,sans-Serif" font-size="10.00">std::unordered_set&lt; K &gt;</text>
<polyline fill="none" stroke="black" points="230,-959.5 349,-959.5 "/>
<text text-anchor="middle" x="289.5" y="-947.5" font-family="Helvetica,sans-Serif" font-size="10.00"> </text>
<polyline fill="none" stroke="black" points="230,-940.5 349,-940.5 "/>
<text text-anchor="middle" x="289.5" y="-928.5" font-family="Helvetica,sans-Serif" font-size="10.00"> </text>
</a>
</g>
</g>
<!-- Node8&#45;&gt;Node16 -->
<g id="edge21" class="edge">
<title>Node8&#45;&gt;Node16</title>
<path fill="none" stroke="#404040" d="M289.5,-1150.17C289.5,-1110.23 289.5,-1036.48 289.5,-990.8"/>
<polygon fill="none" stroke="#404040" points="289.5,-990.71 285.5,-984.71 289.5,-978.71 293.5,-984.71 289.5,-990.71"/>
<text text-anchor="middle" x="304" y="-1100.5" font-family="Helvetica,sans-Serif" font-size="10.00"> +keys</text>
</g>
<!-- Node9 -->
<g id="node9" class="node">
<title>Node9</title>
<g id="a_node9"><a xlink:title=" ">
<polygon fill="white" stroke="black" points="217,-662.5 217,-730.5 364,-730.5 364,-662.5 217,-662.5"/>
<text text-anchor="start" x="225" y="-718.5" font-family="Helvetica,sans-Serif" font-size="10.00">std::unordered_set</text>
<text text-anchor="middle" x="290.5" y="-707.5" font-family="Helvetica,sans-Serif" font-size="10.00">&lt; altintegration::BlockIndex * &gt;</text>
<polyline fill="none" stroke="black" points="217,-700.5 364,-700.5 "/>
<text text-anchor="middle" x="290.5" y="-688.5" font-family="Helvetica,sans-Serif" font-size="10.00"> </text>
<polyline fill="none" stroke="black" points="217,-681.5 364,-681.5 "/>
<text text-anchor="middle" x="290.5" y="-669.5" font-family="Helvetica,sans-Serif" font-size="10.00"> </text>
</a>
</g>
</g>
<!-- Node9&#45;&gt;Node2 -->
<g id="edge9" class="edge">
<title>Node9&#45;&gt;Node2</title>
<path fill="none" stroke="#404040" d="M317.2,-662.37C343.55,-629.68 385.22,-577.98 422.76,-531.4"/>
<polygon fill="none" stroke="#404040" points="422.92,-531.2 423.58,-524.01 430.45,-521.85 429.8,-529.03 422.92,-531.2"/>
<text text-anchor="middle" x="394" y="-581" font-family="Helvetica,sans-Serif" font-size="10.00"> #tips_</text>
</g>
<!-- Node10 -->
<g id="node10" class="node">
<title>Node10</title>
<g id="a_node10"><a xlink:href="structaltintegration_1_1BlockIndex.html" target="_top" xlink:title="A node in a block tree.">
<polygon fill="white" stroke="black" points="483,-844.5 483,-1055.5 608,-1055.5 608,-844.5 483,-844.5"/>
<text text-anchor="start" x="491" y="-1043.5" font-family="Helvetica,sans-Serif" font-size="10.00">altintegration::BlockIndex</text>
<text text-anchor="middle" x="545.5" y="-1032.5" font-family="Helvetica,sans-Serif" font-size="10.00">&lt; Block &gt;</text>
<polyline fill="none" stroke="black" points="483,-1025.5 608,-1025.5 "/>
<text text-anchor="start" x="491" y="-1013.5" font-family="Helvetica,sans-Serif" font-size="10.00">+ finalized</text>
<text text-anchor="start" x="491" y="-1002.5" font-family="Helvetica,sans-Serif" font-size="10.00"># height</text>
<text text-anchor="start" x="491" y="-991.5" font-family="Helvetica,sans-Serif" font-size="10.00"># status</text>
<text text-anchor="start" x="491" y="-980.5" font-family="Helvetica,sans-Serif" font-size="10.00"># dirty</text>
<polyline fill="none" stroke="black" points="483,-973.5 608,-973.5 "/>
<text text-anchor="start" x="491" y="-961.5" font-family="Helvetica,sans-Serif" font-size="10.00">+ BlockIndex()</text>
<text text-anchor="start" x="491" y="-950.5" font-family="Helvetica,sans-Serif" font-size="10.00">+ BlockIndex()</text>
<text text-anchor="start" x="491" y="-939.5" font-family="Helvetica,sans-Serif" font-size="10.00">+ ~BlockIndex()</text>
<text text-anchor="start" x="491" y="-928.5" font-family="Helvetica,sans-Serif" font-size="10.00">+ BlockIndex()</text>
<text text-anchor="start" x="491" y="-917.5" font-family="Helvetica,sans-Serif" font-size="10.00">+ operator=()</text>
<text text-anchor="start" x="491" y="-906.5" font-family="Helvetica,sans-Serif" font-size="10.00">+ isDeleted()</text>
<text text-anchor="start" x="491" y="-895.5" font-family="Helvetica,sans-Serif" font-size="10.00">+ isRoot()</text>
<text text-anchor="start" x="491" y="-884.5" font-family="Helvetica,sans-Serif" font-size="10.00">+ restore()</text>
<text text-anchor="start" x="491" y="-873.5" font-family="Helvetica,sans-Serif" font-size="10.00">+ deleteTemporarily()</text>
<text text-anchor="start" x="491" y="-862.5" font-family="Helvetica,sans-Serif" font-size="10.00">+ mergeFrom()</text>
<text text-anchor="start" x="491" y="-851.5" font-family="Helvetica,sans-Serif" font-size="10.00">and 40 more...</text>
</a>
</g>
</g>
<!-- Node10&#45;&gt;Node9 -->
<g id="edge10" class="edge">
<title>Node10&#45;&gt;Node9</title>
<path fill="none" stroke="#404040" d="M482.79,-859.32C476.7,-853.66 470.26,-848.46 463.5,-844 437.41,-826.78 421.78,-842.93 395.5,-826 362.32,-804.63 334.58,-769.33 315.96,-741.13"/>
<polygon fill="none" stroke="#404040" points="315.76,-740.82 309.15,-737.93 309.28,-730.72 315.89,-733.61 315.76,-740.82"/>
<text text-anchor="middle" x="410" y="-812.5" font-family="Helvetica,sans-Serif" font-size="10.00"> +keys</text>
</g>
<!-- Node10&#45;&gt;Node10 -->
<g id="edge12" class="edge">
<title>Node10&#45;&gt;Node10</title>
<path fill="none" stroke="#404040" d="M608.28,-973.35C618.76,-970.08 626,-962.3 626,-950 626,-942.5 623.31,-936.69 618.84,-932.54"/>
<polygon fill="none" stroke="#404040" points="618.76,-932.5 611.57,-933.06 608.28,-926.65 615.47,-926.08 618.76,-932.5"/>
<text text-anchor="middle" x="642.5" y="-947.5" font-family="Helvetica,sans-Serif" font-size="10.00"> +pprev</text>
</g>
<!-- Node12 -->
<g id="node12" class="node">
<title>Node12</title>
<g id="a_node12"><a xlink:title=" ">
<polygon fill="white" stroke="black" points="382.5,-662.5 382.5,-730.5 494.5,-730.5 494.5,-662.5 382.5,-662.5"/>
<text text-anchor="start" x="390.5" y="-718.5" font-family="Helvetica,sans-Serif" font-size="10.00">std::set&lt; altintegration</text>
<text text-anchor="middle" x="438.5" y="-707.5" font-family="Helvetica,sans-Serif" font-size="10.00">::BlockIndex * &gt;</text>
<polyline fill="none" stroke="black" points="382.5,-700.5 494.5,-700.5 "/>
<text text-anchor="middle" x="438.5" y="-688.5" font-family="Helvetica,sans-Serif" font-size="10.00"> </text>
<polyline fill="none" stroke="black" points="382.5,-681.5 494.5,-681.5 "/>
<text text-anchor="middle" x="438.5" y="-669.5" font-family="Helvetica,sans-Serif" font-size="10.00"> </text>
</a>
</g>
</g>
<!-- Node10&#45;&gt;Node12 -->
<g id="edge14" class="edge">
<title>Node10&#45;&gt;Node12</title>
<path fill="none" stroke="#404040" d="M608.08,-874.23C620.77,-850.1 625.66,-824.35 608.5,-804 577.98,-767.8 543.78,-810.89 503.5,-786 486.07,-775.23 471.82,-757.91 461.15,-741.43"/>
<polygon fill="none" stroke="#404040" points="460.92,-741.05 454.38,-738.01 454.66,-730.8 461.2,-733.84 460.92,-741.05"/>
<text text-anchor="middle" x="633" y="-812.5" font-family="Helvetica,sans-Serif" font-size="10.00"> +keys</text>
</g>
<!-- Node11 -->
<g id="node11" class="node">
<title>Node11</title>
<g id="a_node11"><a xlink:title=" ">
<polygon fill="white" stroke="#bfbfbf" points="505.5,-1150.5 505.5,-1207.5 585.5,-1207.5 585.5,-1150.5 505.5,-1150.5"/>
<text text-anchor="middle" x="545.5" y="-1195.5" font-family="Helvetica,sans-Serif" font-size="10.00">Block::addon_t</text>
<polyline fill="none" stroke="#bfbfbf" points="505.5,-1188.5 585.5,-1188.5 "/>
<text text-anchor="middle" x="545.5" y="-1176.5" font-family="Helvetica,sans-Serif" font-size="10.00"> </text>
<polyline fill="none" stroke="#bfbfbf" points="505.5,-1169.5 585.5,-1169.5 "/>
<text text-anchor="middle" x="545.5" y="-1157.5" font-family="Helvetica,sans-Serif" font-size="10.00"> </text>
</a>
</g>
</g>
<!-- Node11&#45;&gt;Node10 -->
<g id="edge11" class="edge">
<title>Node11&#45;&gt;Node10</title>
<path fill="none" stroke="midnightblue" d="M545.5,-1140.05C545.5,-1116.79 545.5,-1085.76 545.5,-1055.58"/>
<polygon fill="none" stroke="midnightblue" points="542,-1140.17 545.5,-1150.17 549,-1140.17 542,-1140.17"/>
</g>
<!-- Node12&#45;&gt;Node10 -->
<g id="edge13" class="edge">
<title>Node12&#45;&gt;Node10</title>
<path fill="none" stroke="#404040" d="M455.81,-730.73C467.09,-749.42 483.44,-771.78 503.5,-786 525.87,-801.86 546.19,-781.97 562.5,-804 568.79,-812.49 572.58,-822.06 574.51,-832.14"/>
<polygon fill="none" stroke="#404040" points="574.53,-832.25 579.22,-837.72 575.98,-844.16 571.28,-838.69 574.53,-832.25"/>
<text text-anchor="middle" x="588.5" y="-812.5" font-family="Helvetica,sans-Serif" font-size="10.00"> +pnext</text>
</g>
<!-- Node13&#45;&gt;Node12 -->
<g id="edge15" class="edge">
<title>Node13&#45;&gt;Node12</title>
<path fill="none" stroke="orange" d="M421.27,-911.27C423.45,-882 426.58,-840.42 429.5,-804 431.47,-779.4 433.82,-751.62 435.63,-730.59"/>
<polygon fill="orange" stroke="orange" points="417.77,-911.24 420.52,-921.47 424.75,-911.75 417.77,-911.24"/>
<text text-anchor="middle" x="496" y="-812.5" font-family="Helvetica,sans-Serif" font-size="10.00"> &lt; altintegration::BlockIndex * &gt;</text>
</g>
<!-- Node14 -->
<g id="node14" class="node">
<title>Node14</title>
<g id="a_node14"><a xlink:title=" ">
<polygon fill="white" stroke="black" points="343.5,-1150.5 343.5,-1207.5 471.5,-1207.5 471.5,-1150.5 343.5,-1150.5"/>
<text text-anchor="middle" x="407.5" y="-1195.5" font-family="Helvetica,sans-Serif" font-size="10.00">std::shared_ptr&lt; block_t &gt;</text>
<polyline fill="none" stroke="black" points="343.5,-1188.5 471.5,-1188.5 "/>
<text text-anchor="start" x="351.5" y="-1176.5" font-family="Helvetica,sans-Serif" font-size="10.00">+ ptr</text>
<polyline fill="none" stroke="black" points="343.5,-1169.5 471.5,-1169.5 "/>
<text text-anchor="start" x="351.5" y="-1157.5" font-family="Helvetica,sans-Serif" font-size="10.00">+ operator&#45;&gt;()</text>
</a>
</g>
</g>
<!-- Node14&#45;&gt;Node10 -->
<g id="edge17" class="edge">
<title>Node14&#45;&gt;Node10</title>
<path fill="none" stroke="#404040" d="M424.42,-1150.17C437.7,-1128.32 457.14,-1096.35 476.57,-1064.39"/>
<polygon fill="none" stroke="#404040" points="476.63,-1064.28 476.33,-1057.08 482.87,-1054.03 483.17,-1061.23 476.63,-1064.28"/>
<text text-anchor="middle" x="486" y="-1100.5" font-family="Helvetica,sans-Serif" font-size="10.00"> #header</text>
</g>
<!-- Node15&#45;&gt;Node14 -->
<g id="edge18" class="edge">
<title>Node15&#45;&gt;Node14</title>
<path fill="none" stroke="orange" d="M314.33,-1294.56C335.96,-1267.96 365.15,-1232.07 385.06,-1207.59"/>
<polygon fill="orange" stroke="orange" points="311.47,-1292.52 307.88,-1302.49 316.9,-1296.94 311.47,-1292.52"/>
<text text-anchor="middle" x="394" y="-1252.5" font-family="Helvetica,sans-Serif" font-size="10.00"> &lt; block_t &gt;</text>
</g>
<!-- Node16&#45;&gt;Node9 -->
<g id="edge20" class="edge">
<title>Node16&#45;&gt;Node9</title>
<path fill="none" stroke="orange" d="M256.29,-913.3C233.75,-884.66 209.99,-842.95 221.5,-804 229.43,-777.17 246.48,-750.75 261.64,-730.93"/>
<polygon fill="orange" stroke="orange" points="253.85,-915.85 262.89,-921.39 259.27,-911.43 253.85,-915.85"/>
<text text-anchor="middle" x="288" y="-812.5" font-family="Helvetica,sans-Serif" font-size="10.00"> &lt; altintegration::BlockIndex * &gt;</text>
</g>
<!-- Node17 -->
<g id="node17" class="node">
<title>Node17</title>
<g id="a_node17"><a xlink:href="structaltintegration_1_1Chain.html" target="_top" xlink:title=" ">
<polygon fill="white" stroke="black" points="663,-607.5 663,-785.5 804,-785.5 804,-607.5 663,-607.5"/>
<text text-anchor="start" x="671" y="-773.5" font-family="Helvetica,sans-Serif" font-size="10.00">altintegration::Chain</text>
<text text-anchor="middle" x="733.5" y="-762.5" font-family="Helvetica,sans-Serif" font-size="10.00">&lt; altintegration::BlockIndex &gt;</text>
<polyline fill="none" stroke="black" points="663,-755.5 804,-755.5 "/>
<text text-anchor="middle" x="733.5" y="-743.5" font-family="Helvetica,sans-Serif" font-size="10.00"> </text>
<polyline fill="none" stroke="black" points="663,-736.5 804,-736.5 "/>
<text text-anchor="start" x="671" y="-724.5" font-family="Helvetica,sans-Serif" font-size="10.00">+ Chain()</text>
<text text-anchor="start" x="671" y="-713.5" font-family="Helvetica,sans-Serif" font-size="10.00">+ Chain()</text>
<text text-anchor="start" x="671" y="-702.5" font-family="Helvetica,sans-Serif" font-size="10.00">+ Chain()</text>
<text text-anchor="start" x="671" y="-691.5" font-family="Helvetica,sans-Serif" font-size="10.00">+ getStartHeight()</text>
<text text-anchor="start" x="671" y="-680.5" font-family="Helvetica,sans-Serif" font-size="10.00">+ firstHeight()</text>
<text text-anchor="start" x="671" y="-669.5" font-family="Helvetica,sans-Serif" font-size="10.00">+ contains()</text>
<text text-anchor="start" x="671" y="-658.5" font-family="Helvetica,sans-Serif" font-size="10.00">+ operator[]()</text>
<text text-anchor="start" x="671" y="-647.5" font-family="Helvetica,sans-Serif" font-size="10.00">+ next()</text>
<text text-anchor="start" x="671" y="-636.5" font-family="Helvetica,sans-Serif" font-size="10.00">+ chainHeight()</text>
<text text-anchor="start" x="671" y="-625.5" font-family="Helvetica,sans-Serif" font-size="10.00">+ empty()</text>
<text text-anchor="start" x="671" y="-614.5" font-family="Helvetica,sans-Serif" font-size="10.00">and 15 more...</text>
</a>
</g>
</g>
<!-- Node17&#45;&gt;Node2 -->
<g id="edge22" class="edge">
<title>Node17&#45;&gt;Node2</title>
<path fill="none" stroke="#404040" d="M662.92,-612.17C640,-585.11 614.35,-554.82 590.54,-526.72"/>
<polygon fill="none" stroke="#404040" points="590.31,-526.44 583.38,-524.45 582.55,-517.29 589.48,-519.28 590.31,-526.44"/>
<text text-anchor="middle" x="671.5" y="-581" font-family="Helvetica,sans-Serif" font-size="10.00"> #activeChain_</text>
</g>
<!-- Node18 -->
<g id="node18" class="node">
<title>Node18</title>
<g id="a_node18"><a xlink:href="structaltintegration_1_1Chain.html" target="_top" xlink:title="Fully in&#45;memory chain representation.">
<polygon fill="white" stroke="black" points="683,-861 683,-1039 784,-1039 784,-861 683,-861"/>
<text text-anchor="start" x="691" y="-1027" font-family="Helvetica,sans-Serif" font-size="10.00">altintegration::Chain</text>
<text text-anchor="middle" x="733.5" y="-1016" font-family="Helvetica,sans-Serif" font-size="10.00">&lt; BlockIndexT &gt;</text>
<polyline fill="none" stroke="black" points="683,-1009 784,-1009 "/>
<text text-anchor="middle" x="733.5" y="-997" font-family="Helvetica,sans-Serif" font-size="10.00"> </text>
<polyline fill="none" stroke="black" points="683,-990 784,-990 "/>
<text text-anchor="start" x="691" y="-978" font-family="Helvetica,sans-Serif" font-size="10.00">+ Chain()</text>
<text text-anchor="start" x="691" y="-967" font-family="Helvetica,sans-Serif" font-size="10.00">+ Chain()</text>
<text text-anchor="start" x="691" y="-956" font-family="Helvetica,sans-Serif" font-size="10.00">+ Chain()</text>
<text text-anchor="start" x="691" y="-945" font-family="Helvetica,sans-Serif" font-size="10.00">+ getStartHeight()</text>
<text text-anchor="start" x="691" y="-934" font-family="Helvetica,sans-Serif" font-size="10.00">+ firstHeight()</text>
<text text-anchor="start" x="691" y="-923" font-family="Helvetica,sans-Serif" font-size="10.00">+ contains()</text>
<text text-anchor="start" x="691" y="-912" font-family="Helvetica,sans-Serif" font-size="10.00">+ operator[]()</text>
<text text-anchor="start" x="691" y="-901" font-family="Helvetica,sans-Serif" font-size="10.00">+ next()</text>
<text text-anchor="start" x="691" y="-890" font-family="Helvetica,sans-Serif" font-size="10.00">+ chainHeight()</text>
<text text-anchor="start" x="691" y="-879" font-family="Helvetica,sans-Serif" font-size="10.00">+ empty()</text>
<text text-anchor="start" x="691" y="-868" font-family="Helvetica,sans-Serif" font-size="10.00">and 15 more...</text>
</a>
</g>
</g>
<!-- Node18&#45;&gt;Node17 -->
<g id="edge23" class="edge">
<title>Node18&#45;&gt;Node17</title>
<path fill="none" stroke="orange" d="M733.5,-850.59C733.5,-829.16 733.5,-806.61 733.5,-785.6"/>
<polygon fill="orange" stroke="orange" points="730,-850.68 733.5,-860.68 737,-850.68 730,-850.68"/>
<text text-anchor="middle" x="797" y="-812.5" font-family="Helvetica,sans-Serif" font-size="10.00"> &lt; altintegration::BlockIndex &gt;</text>
</g>
<!-- Node19 -->
<g id="node19" class="node">
<title>Node19</title>
<g id="a_node19"><a xlink:href="structaltintegration_1_1BlockReader.html" target="_top" xlink:title="An abstraction over on&#45;disk storage iterator.">
<polygon fill="white" stroke="black" points="512.5,-613 512.5,-780 644.5,-780 644.5,-613 512.5,-613"/>
<text text-anchor="middle" x="578.5" y="-768" font-family="Helvetica,sans-Serif" font-size="10.00">altintegration::BlockReader</text>
<polyline fill="none" stroke="black" points="512.5,-761 644.5,-761 "/>
<text text-anchor="middle" x="578.5" y="-749" font-family="Helvetica,sans-Serif" font-size="10.00"> </text>
<polyline fill="none" stroke="black" points="512.5,-742 644.5,-742 "/>
<text text-anchor="start" x="520.5" y="-730" font-family="Helvetica,sans-Serif" font-size="10.00">+ ~BlockReader()</text>
<text text-anchor="start" x="520.5" y="-719" font-family="Helvetica,sans-Serif" font-size="10.00">+ getAltTip()</text>
<text text-anchor="start" x="520.5" y="-708" font-family="Helvetica,sans-Serif" font-size="10.00">+ getVbkTip()</text>
<text text-anchor="start" x="520.5" y="-697" font-family="Helvetica,sans-Serif" font-size="10.00">+ getBtcTip()</text>
<text text-anchor="start" x="520.5" y="-686" font-family="Helvetica,sans-Serif" font-size="10.00">+ getBlock()</text>
<text text-anchor="start" x="520.5" y="-675" font-family="Helvetica,sans-Serif" font-size="10.00">+ getBlock()</text>
<text text-anchor="start" x="520.5" y="-664" font-family="Helvetica,sans-Serif" font-size="10.00">+ getBlock()</text>
<text text-anchor="start" x="520.5" y="-653" font-family="Helvetica,sans-Serif" font-size="10.00">+ getAltBlockIterator()</text>
<text text-anchor="start" x="520.5" y="-642" font-family="Helvetica,sans-Serif" font-size="10.00">+ getVbkBlockIterator()</text>
<text text-anchor="start" x="520.5" y="-631" font-family="Helvetica,sans-Serif" font-size="10.00">+ getBtcBlockIterator()</text>
<text text-anchor="start" x="520.5" y="-620" font-family="Helvetica,sans-Serif" font-size="10.00">and 6 more...</text>
</a>
</g>
</g>
<!-- Node19&#45;&gt;Node2 -->
<g id="edge24" class="edge">
<title>Node19&#45;&gt;Node2</title>
<path fill="none" stroke="#404040" d="M556.31,-612.9C552.76,-599.69 549,-585.68 545.19,-571.53"/>
<polygon fill="none" stroke="#404040" points="545.11,-571.21 539.69,-566.45 541.99,-559.62 547.41,-564.38 545.11,-571.21"/>
<text text-anchor="middle" x="585" y="-581" font-family="Helvetica,sans-Serif" font-size="10.00"> #blockProvider_</text>
</g>
</g>
</svg>
