<?xml version="1.0" encoding="UTF-8" standalone="no"?>
<!DOCTYPE svg PUBLIC "-//W3C//DTD SVG 1.1//EN"
 "http://www.w3.org/Graphics/SVG/1.1/DTD/svg11.dtd">
<!-- Generated by graphviz version 2.44.0 ()
 -->
<!-- Title: altintegration::BaseBlockTree&lt; Block &gt; Pages: 1 -->
<!--zoomable 1125 -->
<svg id="main" version="1.1" xmlns="http://www.w3.org/2000/svg" xmlns:xlink="http://www.w3.org/1999/xlink" xml:space="preserve" onload="init(evt)">
<style type="text/css"><![CDATA[
.edge:hover path { stroke: red; }
.edge:hover polygon { stroke: red; fill: red; }
]]></style>
<script type="text/javascript"><![CDATA[
var edges = document.getElementsByTagName('g');
if (edges && edges.length) {
  for (var i=0;i<edges.length;i++) {
    if (edges[i].id.substr(0,4)=='edge') {
      edges[i].setAttribute('class','edge');
    }
  }
}
]]></script>
        <defs>
                <circle id="rim" cx="0" cy="0" r="7"/>
                <circle id="rim2" cx="0" cy="0" r="3.5"/>
                <g id="zoomPlus">
                        <use xlink:href="#rim" fill="#404040">
                                <set attributeName="fill" to="#808080" begin="zoomplus.mouseover" end="zoomplus.mouseout"/>
                        </use>
                        <path d="M-4,0h8M0,-4v8" fill="none" stroke="white" stroke-width="1.5" pointer-events="none"/>
                </g>
                <g id="zoomMin">
                        <use xlink:href="#rim" fill="#404040">
                                <set attributeName="fill" to="#808080" begin="zoomminus.mouseover" end="zoomminus.mouseout"/>
                        </use>
                        <path d="M-4,0h8" fill="none" stroke="white" stroke-width="1.5" pointer-events="none"/>
                </g>
                <g id="dirArrow">
                        <path fill="none" stroke="white" stroke-width="1.5" d="M0,-3.0v7 M-2.5,-0.5L0,-3.0L2.5,-0.5"/>
                </g>
               <g id="resetDef">
                       <use xlink:href="#rim2" fill="#404040">
                               <set attributeName="fill" to="#808080" begin="reset.mouseover" end="reset.mouseout"/>
                       </use>
               </g>
        </defs>

<script type="text/javascript">
var viewWidth = 847;
var viewHeight = 1125;
var sectionId = 'dynsection-1';
</script>
<script xlink:href="svgpan.js"/>
<svg id="graph" class="graph">
<g id="viewport">
<title>altintegration::BaseBlockTree&lt; Block &gt;</title>
<polygon fill="white" stroke="transparent" points="-4,4 -4,-1121 843,-1121 843,4 -4,4"/>
<!-- Node1 -->
<g id="node1" class="node">
<title>Node1</title>
<g id="a_node1"><a xlink:title="Base block tree that stores all blocks, maintains tree tips, maintains active chain.">
<polygon fill="#bfbfbf" stroke="black" points="166.5,-0.5 166.5,-211.5 290.5,-211.5 290.5,-0.5 166.5,-0.5"/>
<text text-anchor="start" x="174.5" y="-199.5" font-family="Helvetica,sans-Serif" font-size="10.00">altintegration::BaseBlock</text>
<text text-anchor="middle" x="228.5" y="-188.5" font-family="Helvetica,sans-Serif" font-size="10.00">Tree&lt; Block &gt;</text>
<polyline fill="none" stroke="black" points="166.5,-181.5 290.5,-181.5 "/>
<text text-anchor="start" x="174.5" y="-169.5" font-family="Helvetica,sans-Serif" font-size="10.00"># validity_sig_</text>
<polyline fill="none" stroke="black" points="166.5,-162.5 290.5,-162.5 "/>
<text text-anchor="start" x="174.5" y="-150.5" font-family="Helvetica,sans-Serif" font-size="10.00">+ getTips()</text>
<text text-anchor="start" x="174.5" y="-139.5" font-family="Helvetica,sans-Serif" font-size="10.00">+ getBlocks()</text>
<text text-anchor="start" x="174.5" y="-128.5" font-family="Helvetica,sans-Serif" font-size="10.00">+ ~BaseBlockTree()</text>
<text text-anchor="start" x="174.5" y="-117.5" font-family="Helvetica,sans-Serif" font-size="10.00">+ BaseBlockTree()</text>
<text text-anchor="start" x="174.5" y="-106.5" font-family="Helvetica,sans-Serif" font-size="10.00">+ BaseBlockTree()</text>
<text text-anchor="start" x="174.5" y="-95.5" font-family="Helvetica,sans-Serif" font-size="10.00">+ operator=()</text>
<text text-anchor="start" x="174.5" y="-84.5" font-family="Helvetica,sans-Serif" font-size="10.00">+ BaseBlockTree()</text>
<text text-anchor="start" x="174.5" y="-73.5" font-family="Helvetica,sans-Serif" font-size="10.00">+ operator=()</text>
<text text-anchor="start" x="174.5" y="-62.5" font-family="Helvetica,sans-Serif" font-size="10.00">+ getBestChain()</text>
<text text-anchor="start" x="174.5" y="-51.5" font-family="Helvetica,sans-Serif" font-size="10.00">+ makePrevHash()</text>
<text text-anchor="start" x="174.5" y="-40.5" font-family="Helvetica,sans-Serif" font-size="10.00">and 22 more...</text>
<text text-anchor="start" x="174.5" y="-29.5" font-family="Helvetica,sans-Serif" font-size="10.00"># eraseBlock()</text>
<text text-anchor="start" x="174.5" y="-18.5" font-family="Helvetica,sans-Serif" font-size="10.00"># toPrettyString()</text>
<text text-anchor="start" x="174.5" y="-7.5" font-family="Helvetica,sans-Serif" font-size="10.00"># finalizeBlockImpl()</text>
</a>
</g>
</g>
<!-- Node2 -->
<g id="node2" class="node">
<title>Node2</title>
<g id="a_node2"><a xlink:href="structaltintegration_1_1Chain.html" target="_top" xlink:title=" ">
<polygon fill="white" stroke="black" points="0,-259.5 0,-437.5 141,-437.5 141,-259.5 0,-259.5"/>
<text text-anchor="start" x="8" y="-425.5" font-family="Helvetica,sans-Serif" font-size="10.00">altintegration::Chain</text>
<text text-anchor="middle" x="70.5" y="-414.5" font-family="Helvetica,sans-Serif" font-size="10.00">&lt; altintegration::BlockIndex &gt;</text>
<polyline fill="none" stroke="black" points="0,-407.5 141,-407.5 "/>
<text text-anchor="middle" x="70.5" y="-395.5" font-family="Helvetica,sans-Serif" font-size="10.00"> </text>
<polyline fill="none" stroke="black" points="0,-388.5 141,-388.5 "/>
<text text-anchor="start" x="8" y="-376.5" font-family="Helvetica,sans-Serif" font-size="10.00">+ Chain()</text>
<text text-anchor="start" x="8" y="-365.5" font-family="Helvetica,sans-Serif" font-size="10.00">+ Chain()</text>
<text text-anchor="start" x="8" y="-354.5" font-family="Helvetica,sans-Serif" font-size="10.00">+ Chain()</text>
<text text-anchor="start" x="8" y="-343.5" font-family="Helvetica,sans-Serif" font-size="10.00">+ getStartHeight()</text>
<text text-anchor="start" x="8" y="-332.5" font-family="Helvetica,sans-Serif" font-size="10.00">+ firstHeight()</text>
<text text-anchor="start" x="8" y="-321.5" font-family="Helvetica,sans-Serif" font-size="10.00">+ contains()</text>
<text text-anchor="start" x="8" y="-310.5" font-family="Helvetica,sans-Serif" font-size="10.00">+ operator[]()</text>
<text text-anchor="start" x="8" y="-299.5" font-family="Helvetica,sans-Serif" font-size="10.00">+ next()</text>
<text text-anchor="start" x="8" y="-288.5" font-family="Helvetica,sans-Serif" font-size="10.00">+ chainHeight()</text>
<text text-anchor="start" x="8" y="-277.5" font-family="Helvetica,sans-Serif" font-size="10.00">+ empty()</text>
<text text-anchor="start" x="8" y="-266.5" font-family="Helvetica,sans-Serif" font-size="10.00">and 14 more...</text>
</a>
</g>
</g>
<!-- Node2&#45;&gt;Node1 -->
<g id="edge1" class="edge">
<title>Node2&#45;&gt;Node1</title>
<path fill="none" stroke="#404040" d="M128.44,-259.31C138.55,-243.92 149.16,-227.76 159.54,-211.97"/>
<polygon fill="none" stroke="#404040" points="159.73,-211.68 159.68,-204.47 166.32,-201.65 166.37,-208.86 159.73,-211.68"/>
<text text-anchor="middle" x="177.5" y="-233" font-family="Helvetica,sans-Serif" font-size="10.00"> #activeChain_</text>
</g>
<!-- Node3 -->
<g id="node3" class="node">
<title>Node3</title>
<g id="a_node3"><a xlink:href="structaltintegration_1_1Chain.html" target="_top" xlink:title="Fully in&#45;memory chain representation.">
<polygon fill="white" stroke="black" points="19,-513 19,-691 120,-691 120,-513 19,-513"/>
<text text-anchor="start" x="27" y="-679" font-family="Helvetica,sans-Serif" font-size="10.00">altintegration::Chain</text>
<text text-anchor="middle" x="69.5" y="-668" font-family="Helvetica,sans-Serif" font-size="10.00">&lt; BlockIndexT &gt;</text>
<polyline fill="none" stroke="black" points="19,-661 120,-661 "/>
<text text-anchor="middle" x="69.5" y="-649" font-family="Helvetica,sans-Serif" font-size="10.00"> </text>
<polyline fill="none" stroke="black" points="19,-642 120,-642 "/>
<text text-anchor="start" x="27" y="-630" font-family="Helvetica,sans-Serif" font-size="10.00">+ Chain()</text>
<text text-anchor="start" x="27" y="-619" font-family="Helvetica,sans-Serif" font-size="10.00">+ Chain()</text>
<text text-anchor="start" x="27" y="-608" font-family="Helvetica,sans-Serif" font-size="10.00">+ Chain()</text>
<text text-anchor="start" x="27" y="-597" font-family="Helvetica,sans-Serif" font-size="10.00">+ getStartHeight()</text>
<text text-anchor="start" x="27" y="-586" font-family="Helvetica,sans-Serif" font-size="10.00">+ firstHeight()</text>
<text text-anchor="start" x="27" y="-575" font-family="Helvetica,sans-Serif" font-size="10.00">+ contains()</text>
<text text-anchor="start" x="27" y="-564" font-family="Helvetica,sans-Serif" font-size="10.00">+ operator[]()</text>
<text text-anchor="start" x="27" y="-553" font-family="Helvetica,sans-Serif" font-size="10.00">+ next()</text>
<text text-anchor="start" x="27" y="-542" font-family="Helvetica,sans-Serif" font-size="10.00">+ chainHeight()</text>
<text text-anchor="start" x="27" y="-531" font-family="Helvetica,sans-Serif" font-size="10.00">+ empty()</text>
<text text-anchor="start" x="27" y="-520" font-family="Helvetica,sans-Serif" font-size="10.00">and 14 more...</text>
</a>
</g>
</g>
<!-- Node3&#45;&gt;Node2 -->
<g id="edge2" class="edge">
<title>Node3&#45;&gt;Node2</title>
<path fill="none" stroke="orange" d="M69.89,-502.59C69.98,-481.16 70.07,-458.61 70.15,-437.6"/>
<polygon fill="orange" stroke="orange" points="66.39,-502.67 69.85,-512.68 73.39,-502.7 66.39,-502.67"/>
<text text-anchor="middle" x="134" y="-464.5" font-family="Helvetica,sans-Serif" font-size="10.00"> &lt; altintegration::BlockIndex &gt;</text>
</g>
<!-- Node4 -->
<g id="node4" class="node">
<title>Node4</title>
<g id="a_node4"><a xlink:title=" ">
<polygon fill="white" stroke="#bfbfbf" points="160,-309 160,-388 297,-388 297,-309 160,-309"/>
<text text-anchor="start" x="168" y="-376" font-family="Helvetica,sans-Serif" font-size="10.00">std::unordered_map</text>
<text text-anchor="start" x="168" y="-365" font-family="Helvetica,sans-Serif" font-size="10.00">&lt; prev_block_hash_t,</text>
<text text-anchor="middle" x="228.5" y="-354" font-family="Helvetica,sans-Serif" font-size="10.00"> std::unique_ptr&lt; index_t &gt; &gt;</text>
<polyline fill="none" stroke="#bfbfbf" points="160,-347 297,-347 "/>
<text text-anchor="start" x="168" y="-335" font-family="Helvetica,sans-Serif" font-size="10.00">+ keys</text>
<polyline fill="none" stroke="#bfbfbf" points="160,-328 297,-328 "/>
<text text-anchor="middle" x="228.5" y="-316" font-family="Helvetica,sans-Serif" font-size="10.00"> </text>
</a>
</g>
</g>
<!-- Node4&#45;&gt;Node1 -->
<g id="edge3" class="edge">
<title>Node4&#45;&gt;Node1</title>
<path fill="none" stroke="#404040" d="M228.5,-308.86C228.5,-285.59 228.5,-254.6 228.5,-223.91"/>
<polygon fill="none" stroke="#404040" points="228.5,-223.72 224.5,-217.72 228.5,-211.72 232.5,-217.72 228.5,-223.72"/>
<text text-anchor="middle" x="249.5" y="-233" font-family="Helvetica,sans-Serif" font-size="10.00"> #blocks_</text>
</g>
<!-- Node5 -->
<g id="node5" class="node">
<title>Node5</title>
<g id="a_node5"><a xlink:title=" ">
<polygon fill="white" stroke="#bfbfbf" points="168,-726.5 168,-783.5 295,-783.5 295,-726.5 168,-726.5"/>
<text text-anchor="middle" x="231.5" y="-771.5" font-family="Helvetica,sans-Serif" font-size="10.00">std::unique_ptr&lt; index_t &gt;</text>
<polyline fill="none" stroke="#bfbfbf" points="168,-764.5 295,-764.5 "/>
<text text-anchor="start" x="176" y="-752.5" font-family="Helvetica,sans-Serif" font-size="10.00">+ ptr</text>
<polyline fill="none" stroke="#bfbfbf" points="168,-745.5 295,-745.5 "/>
<text text-anchor="start" x="176" y="-733.5" font-family="Helvetica,sans-Serif" font-size="10.00">+ operator&#45;&gt;()</text>
</a>
</g>
</g>
<!-- Node5&#45;&gt;Node4 -->
<g id="edge4" class="edge">
<title>Node5&#45;&gt;Node4</title>
<path fill="none" stroke="#404040" d="M223.8,-726.46C222.43,-720.42 221.21,-714.03 220.5,-708 207.65,-599.01 216.29,-470.14 222.92,-400.44"/>
<polygon fill="none" stroke="#404040" points="222.95,-400.07 219.56,-393.71 224.13,-388.13 227.52,-394.49 222.95,-400.07"/>
<text text-anchor="middle" x="245" y="-599.5" font-family="Helvetica,sans-Serif" font-size="10.00"> +elements</text>
</g>
<!-- Node6 -->
<g id="node6" class="node">
<title>Node6</title>
<g id="a_node6"><a xlink:title=" ">
<polygon fill="white" stroke="#bfbfbf" points="197.5,-878.5 197.5,-935.5 299.5,-935.5 299.5,-878.5 197.5,-878.5"/>
<text text-anchor="middle" x="248.5" y="-923.5" font-family="Helvetica,sans-Serif" font-size="10.00">std::unique_ptr&lt; T &gt;</text>
<polyline fill="none" stroke="#bfbfbf" points="197.5,-916.5 299.5,-916.5 "/>
<text text-anchor="middle" x="248.5" y="-904.5" font-family="Helvetica,sans-Serif" font-size="10.00"> </text>
<polyline fill="none" stroke="#bfbfbf" points="197.5,-897.5 299.5,-897.5 "/>
<text text-anchor="start" x="205.5" y="-885.5" font-family="Helvetica,sans-Serif" font-size="10.00">+ operator&#45;&gt;()</text>
</a>
</g>
</g>
<!-- Node6&#45;&gt;Node5 -->
<g id="edge5" class="edge">
<title>Node6&#45;&gt;Node5</title>
<path fill="none" stroke="orange" d="M244.25,-868.47C241.26,-842.11 237.33,-807.43 234.63,-783.59"/>
<polygon fill="orange" stroke="orange" points="240.78,-868.95 245.38,-878.49 247.73,-868.16 240.78,-868.95"/>
<text text-anchor="middle" x="268.5" y="-828.5" font-family="Helvetica,sans-Serif" font-size="10.00"> &lt; index_t &gt;</text>
</g>
<!-- Node7 -->
<g id="node7" class="node">
<title>Node7</title>
<g id="a_node7"><a xlink:title=" ">
<polygon fill="white" stroke="#bfbfbf" points="315,-1059.5 315,-1116.5 344,-1116.5 344,-1059.5 315,-1059.5"/>
<text text-anchor="middle" x="329.5" y="-1104.5" font-family="Helvetica,sans-Serif" font-size="10.00">T</text>
<polyline fill="none" stroke="#bfbfbf" points="315,-1097.5 344,-1097.5 "/>
<text text-anchor="middle" x="329.5" y="-1085.5" font-family="Helvetica,sans-Serif" font-size="10.00"> </text>
<polyline fill="none" stroke="#bfbfbf" points="315,-1078.5 344,-1078.5 "/>
<text text-anchor="middle" x="329.5" y="-1066.5" font-family="Helvetica,sans-Serif" font-size="10.00"> </text>
</a>
</g>
</g>
<!-- Node7&#45;&gt;Node6 -->
<g id="edge6" class="edge">
<title>Node7&#45;&gt;Node6</title>
<path fill="none" stroke="#404040" d="M314.96,-1069.9C308.39,-1061.57 300.9,-1051.17 295.5,-1041 279.62,-1011.08 267.18,-974.67 259.09,-947.51"/>
<polygon fill="none" stroke="#404040" points="259.02,-947.27 253.52,-942.62 255.69,-935.74 261.2,-940.39 259.02,-947.27"/>
<text text-anchor="middle" x="305.5" y="-1033" font-family="Helvetica,sans-Serif" font-size="10.00"> +ptr</text>
</g>
<!-- Node8 -->
<g id="node8" class="node">
<title>Node8</title>
<g id="a_node8"><a xlink:title=" ">
<polygon fill="white" stroke="#bfbfbf" points="279,-568 279,-636 380,-636 380,-568 279,-568"/>
<text text-anchor="start" x="287" y="-624" font-family="Helvetica,sans-Serif" font-size="10.00">std::unordered_map</text>
<text text-anchor="middle" x="329.5" y="-613" font-family="Helvetica,sans-Serif" font-size="10.00">&lt; K, T &gt;</text>
<polyline fill="none" stroke="#bfbfbf" points="279,-606 380,-606 "/>
<text text-anchor="middle" x="329.5" y="-594" font-family="Helvetica,sans-Serif" font-size="10.00"> </text>
<polyline fill="none" stroke="#bfbfbf" points="279,-587 380,-587 "/>
<text text-anchor="middle" x="329.5" y="-575" font-family="Helvetica,sans-Serif" font-size="10.00"> </text>
</a>
</g>
</g>
<!-- Node7&#45;&gt;Node8 -->
<g id="edge9" class="edge">
<title>Node7&#45;&gt;Node8</title>
<path fill="none" stroke="#404040" d="M329.5,-1059.24C329.5,-979.19 329.5,-747.33 329.5,-648.5"/>
<polygon fill="none" stroke="#404040" points="329.5,-648.29 325.5,-642.29 329.5,-636.29 333.5,-642.29 329.5,-648.29"/>
<text text-anchor="middle" x="354" y="-904.5" font-family="Helvetica,sans-Serif" font-size="10.00"> +elements</text>
</g>
<!-- Node14 -->
<g id="node14" class="node">
<title>Node14</title>
<g id="a_node14"><a xlink:title=" ">
<polygon fill="white" stroke="#bfbfbf" points="394,-954.5 394,-1011.5 497,-1011.5 497,-954.5 394,-954.5"/>
<text text-anchor="middle" x="445.5" y="-999.5" font-family="Helvetica,sans-Serif" font-size="10.00">std::shared_ptr&lt; T &gt;</text>
<polyline fill="none" stroke="#bfbfbf" points="394,-992.5 497,-992.5 "/>
<text text-anchor="middle" x="445.5" y="-980.5" font-family="Helvetica,sans-Serif" font-size="10.00"> </text>
<polyline fill="none" stroke="#bfbfbf" points="394,-973.5 497,-973.5 "/>
<text text-anchor="start" x="402" y="-961.5" font-family="Helvetica,sans-Serif" font-size="10.00">+ operator&#45;&gt;()</text>
</a>
</g>
</g>
<!-- Node7&#45;&gt;Node14 -->
<g id="edge15" class="edge">
<title>Node7&#45;&gt;Node14</title>
<path fill="none" stroke="#404040" d="M344.19,-1073.95C359.49,-1060.37 384.12,-1038.51 405.26,-1019.73"/>
<polygon fill="none" stroke="#404040" points="405.4,-1019.6 407.23,-1012.63 414.38,-1011.64 412.55,-1018.61 405.4,-1019.6"/>
<text text-anchor="middle" x="401.5" y="-1033" font-family="Helvetica,sans-Serif" font-size="10.00"> +ptr</text>
</g>
<!-- Node8&#45;&gt;Node4 -->
<g id="edge7" class="edge">
<title>Node8&#45;&gt;Node4</title>
<path fill="none" stroke="orange" d="M302.36,-559.21C288.27,-536.03 271.71,-506.25 260.5,-478 248.89,-448.72 240.54,-413.98 235.29,-388.01"/>
<polygon fill="orange" stroke="orange" points="299.4,-561.07 307.62,-567.75 305.36,-557.4 299.4,-561.07"/>
<text text-anchor="start" x="260.5" y="-470" font-family="Helvetica,sans-Serif" font-size="10.00"> &lt; prev_block_hash_t,</text>
<text text-anchor="middle" x="321" y="-459" font-family="Helvetica,sans-Serif" font-size="10.00"> std::unique_ptr&lt; index_t &gt; &gt;</text>
</g>
<!-- Node9 -->
<g id="node9" class="node">
<title>Node9</title>
<g id="a_node9"><a xlink:title=" ">
<polygon fill="white" stroke="#bfbfbf" points="443,-802.5 443,-859.5 472,-859.5 472,-802.5 443,-802.5"/>
<text text-anchor="middle" x="457.5" y="-847.5" font-family="Helvetica,sans-Serif" font-size="10.00">K</text>
<polyline fill="none" stroke="#bfbfbf" points="443,-840.5 472,-840.5 "/>
<text text-anchor="middle" x="457.5" y="-828.5" font-family="Helvetica,sans-Serif" font-size="10.00"> </text>
<polyline fill="none" stroke="#bfbfbf" points="443,-821.5 472,-821.5 "/>
<text text-anchor="middle" x="457.5" y="-809.5" font-family="Helvetica,sans-Serif" font-size="10.00"> </text>
</a>
</g>
</g>
<!-- Node9&#45;&gt;Node8 -->
<g id="edge8" class="edge">
<title>Node9&#45;&gt;Node8</title>
<path fill="none" stroke="#404040" d="M442.75,-810.71C436.82,-802.63 430.07,-793.03 424.5,-784 396.55,-738.7 368.74,-684.35 350.5,-647.11"/>
<polygon fill="none" stroke="#404040" points="350.41,-646.92 344.19,-643.27 345.16,-636.13 351.38,-639.77 350.41,-646.92"/>
<text text-anchor="middle" x="439" y="-752.5" font-family="Helvetica,sans-Serif" font-size="10.00"> +keys</text>
</g>
<!-- Node16 -->
<g id="node16" class="node">
<title>Node16</title>
<g id="a_node16"><a xlink:title=" ">
<polygon fill="white" stroke="#bfbfbf" points="548,-573.5 548,-630.5 619,-630.5 619,-573.5 548,-573.5"/>
<text text-anchor="middle" x="583.5" y="-618.5" font-family="Helvetica,sans-Serif" font-size="10.00">std::set&lt; K &gt;</text>
<polyline fill="none" stroke="#bfbfbf" points="548,-611.5 619,-611.5 "/>
<text text-anchor="middle" x="583.5" y="-599.5" font-family="Helvetica,sans-Serif" font-size="10.00"> </text>
<polyline fill="none" stroke="#bfbfbf" points="548,-592.5 619,-592.5 "/>
<text text-anchor="middle" x="583.5" y="-580.5" font-family="Helvetica,sans-Serif" font-size="10.00"> </text>
</a>
</g>
</g>
<!-- Node9&#45;&gt;Node16 -->
<g id="edge20" class="edge">
<title>Node9&#45;&gt;Node16</title>
<path fill="none" stroke="#404040" d="M472.29,-810.74C478.23,-802.66 484.97,-793.06 490.5,-784 519.55,-736.46 548.09,-678.81 565.74,-641.55"/>
<polygon fill="none" stroke="#404040" points="565.75,-641.53 564.68,-634.4 570.85,-630.67 571.92,-637.8 565.75,-641.53"/>
<text text-anchor="middle" x="535" y="-752.5" font-family="Helvetica,sans-Serif" font-size="10.00"> +keys</text>
</g>
<!-- Node17 -->
<g id="node17" class="node">
<title>Node17</title>
<g id="a_node17"><a xlink:title=" ">
<polygon fill="white" stroke="#bfbfbf" points="398,-573.5 398,-630.5 517,-630.5 517,-573.5 398,-573.5"/>
<text text-anchor="middle" x="457.5" y="-618.5" font-family="Helvetica,sans-Serif" font-size="10.00">std::unordered_set&lt; K &gt;</text>
<polyline fill="none" stroke="#bfbfbf" points="398,-611.5 517,-611.5 "/>
<text text-anchor="middle" x="457.5" y="-599.5" font-family="Helvetica,sans-Serif" font-size="10.00"> </text>
<polyline fill="none" stroke="#bfbfbf" points="398,-592.5 517,-592.5 "/>
<text text-anchor="middle" x="457.5" y="-580.5" font-family="Helvetica,sans-Serif" font-size="10.00"> </text>
</a>
</g>
</g>
<!-- Node9&#45;&gt;Node17 -->
<g id="edge22" class="edge">
<title>Node9&#45;&gt;Node17</title>
<path fill="none" stroke="#404040" d="M457.5,-802.17C457.5,-762.23 457.5,-688.48 457.5,-642.8"/>
<polygon fill="none" stroke="#404040" points="457.5,-642.71 453.5,-636.71 457.5,-630.71 461.5,-636.71 457.5,-642.71"/>
<text text-anchor="middle" x="472" y="-752.5" font-family="Helvetica,sans-Serif" font-size="10.00"> +keys</text>
</g>
<!-- Node10 -->
<g id="node10" class="node">
<title>Node10</title>
<g id="a_node10"><a xlink:title=" ">
<polygon fill="white" stroke="#bfbfbf" points="315,-314.5 315,-382.5 462,-382.5 462,-314.5 315,-314.5"/>
<text text-anchor="start" x="323" y="-370.5" font-family="Helvetica,sans-Serif" font-size="10.00">std::unordered_set</text>
<text text-anchor="middle" x="388.5" y="-359.5" font-family="Helvetica,sans-Serif" font-size="10.00">&lt; altintegration::BlockIndex * &gt;</text>
<polyline fill="none" stroke="#bfbfbf" points="315,-352.5 462,-352.5 "/>
<text text-anchor="middle" x="388.5" y="-340.5" font-family="Helvetica,sans-Serif" font-size="10.00"> </text>
<polyline fill="none" stroke="#bfbfbf" points="315,-333.5 462,-333.5 "/>
<text text-anchor="middle" x="388.5" y="-321.5" font-family="Helvetica,sans-Serif" font-size="10.00"> </text>
</a>
</g>
</g>
<!-- Node10&#45;&gt;Node1 -->
<g id="edge10" class="edge">
<title>Node10&#45;&gt;Node1</title>
<path fill="none" stroke="#404040" d="M366.42,-314.31C348.52,-287.4 322.27,-247.94 297.46,-210.66"/>
<polygon fill="none" stroke="#404040" points="297.16,-210.2 290.51,-207.42 290.51,-200.21 297.17,-202.99 297.16,-210.2"/>
<text text-anchor="middle" x="328" y="-233" font-family="Helvetica,sans-Serif" font-size="10.00"> #tips_</text>
</g>
<!-- Node11 -->
<g id="node11" class="node">
<title>Node11</title>
<g id="a_node11"><a xlink:href="structaltintegration_1_1BlockIndex.html" target="_top" xlink:title="A node in a block tree.">
<polygon fill="white" stroke="black" points="663,-496.5 663,-707.5 788,-707.5 788,-496.5 663,-496.5"/>
<text text-anchor="start" x="671" y="-695.5" font-family="Helvetica,sans-Serif" font-size="10.00">altintegration::BlockIndex</text>
<text text-anchor="middle" x="725.5" y="-684.5" font-family="Helvetica,sans-Serif" font-size="10.00">&lt; Block &gt;</text>
<polyline fill="none" stroke="black" points="663,-677.5 788,-677.5 "/>
<text text-anchor="start" x="671" y="-665.5" font-family="Helvetica,sans-Serif" font-size="10.00">+ finalized</text>
<text text-anchor="start" x="671" y="-654.5" font-family="Helvetica,sans-Serif" font-size="10.00"># height</text>
<text text-anchor="start" x="671" y="-643.5" font-family="Helvetica,sans-Serif" font-size="10.00"># status</text>
<text text-anchor="start" x="671" y="-632.5" font-family="Helvetica,sans-Serif" font-size="10.00"># dirty</text>
<polyline fill="none" stroke="black" points="663,-625.5 788,-625.5 "/>
<text text-anchor="start" x="671" y="-613.5" font-family="Helvetica,sans-Serif" font-size="10.00">+ BlockIndex()</text>
<text text-anchor="start" x="671" y="-602.5" font-family="Helvetica,sans-Serif" font-size="10.00">+ BlockIndex()</text>
<text text-anchor="start" x="671" y="-591.5" font-family="Helvetica,sans-Serif" font-size="10.00">+ ~BlockIndex()</text>
<text text-anchor="start" x="671" y="-580.5" font-family="Helvetica,sans-Serif" font-size="10.00">+ BlockIndex()</text>
<text text-anchor="start" x="671" y="-569.5" font-family="Helvetica,sans-Serif" font-size="10.00">+ operator=()</text>
<text text-anchor="start" x="671" y="-558.5" font-family="Helvetica,sans-Serif" font-size="10.00">+ isDeleted()</text>
<text text-anchor="start" x="671" y="-547.5" font-family="Helvetica,sans-Serif" font-size="10.00">+ restore()</text>
<text text-anchor="start" x="671" y="-536.5" font-family="Helvetica,sans-Serif" font-size="10.00">+ deleteTemporarily()</text>
<text text-anchor="start" x="671" y="-525.5" font-family="Helvetica,sans-Serif" font-size="10.00">+ mergeFrom()</text>
<text text-anchor="start" x="671" y="-514.5" font-family="Helvetica,sans-Serif" font-size="10.00">+ toStoredBlockIndex()</text>
<text text-anchor="start" x="671" y="-503.5" font-family="Helvetica,sans-Serif" font-size="10.00">and 39 more...</text>
</a>
</g>
</g>
<!-- Node11&#45;&gt;Node10 -->
<g id="edge11" class="edge">
<title>Node11&#45;&gt;Node10</title>
<path fill="none" stroke="#404040" d="M662.82,-522.41C652.21,-512.45 640.66,-503.23 628.5,-496 600.52,-479.36 586.82,-492.14 557.5,-478 532.37,-465.89 477.88,-423.17 437.53,-390.28"/>
<polygon fill="none" stroke="#404040" points="437.4,-390.18 430.23,-389.48 428.12,-382.58 435.29,-383.29 437.4,-390.18"/>
<text text-anchor="middle" x="572" y="-464.5" font-family="Helvetica,sans-Serif" font-size="10.00"> +keys</text>
</g>
<!-- Node11&#45;&gt;Node11 -->
<g id="edge16" class="edge">
<title>Node11&#45;&gt;Node11</title>
<path fill="none" stroke="#404040" d="M788.28,-625.35C798.76,-622.08 806,-614.3 806,-602 806,-594.5 803.31,-588.69 798.84,-584.54"/>
<polygon fill="none" stroke="#404040" points="798.76,-584.5 791.57,-585.06 788.28,-578.65 795.47,-578.08 798.76,-584.5"/>
<text text-anchor="middle" x="822.5" y="-599.5" font-family="Helvetica,sans-Serif" font-size="10.00"> +pprev</text>
</g>
<!-- Node15 -->
<g id="node15" class="node">
<title>Node15</title>
<g id="a_node15"><a xlink:title=" ">
<polygon fill="white" stroke="#bfbfbf" points="696.5,-314.5 696.5,-382.5 808.5,-382.5 808.5,-314.5 696.5,-314.5"/>
<text text-anchor="start" x="704.5" y="-370.5" font-family="Helvetica,sans-Serif" font-size="10.00">std::set&lt; altintegration</text>
<text text-anchor="middle" x="752.5" y="-359.5" font-family="Helvetica,sans-Serif" font-size="10.00">::BlockIndex * &gt;</text>
<polyline fill="none" stroke="#bfbfbf" points="696.5,-352.5 808.5,-352.5 "/>
<text text-anchor="middle" x="752.5" y="-340.5" font-family="Helvetica,sans-Serif" font-size="10.00"> </text>
<polyline fill="none" stroke="#bfbfbf" points="696.5,-333.5 808.5,-333.5 "/>
<text text-anchor="middle" x="752.5" y="-321.5" font-family="Helvetica,sans-Serif" font-size="10.00"> </text>
</a>
</g>
</g>
<!-- Node11&#45;&gt;Node15 -->
<g id="edge18" class="edge">
<title>Node11&#45;&gt;Node15</title>
<path fill="none" stroke="#404040" d="M736.75,-496.16C740.54,-460.86 744.58,-423.3 747.61,-395.03"/>
<polygon fill="none" stroke="#404040" points="747.65,-394.67 744.31,-388.27 748.93,-382.74 752.27,-389.13 747.65,-394.67"/>
<text text-anchor="middle" x="755" y="-464.5" font-family="Helvetica,sans-Serif" font-size="10.00"> +keys</text>
</g>
<!-- Node12 -->
<g id="node12" class="node">
<title>Node12</title>
<g id="a_node12"><a xlink:title=" ">
<polygon fill="white" stroke="#bfbfbf" points="685.5,-802.5 685.5,-859.5 765.5,-859.5 765.5,-802.5 685.5,-802.5"/>
<text text-anchor="middle" x="725.5" y="-847.5" font-family="Helvetica,sans-Serif" font-size="10.00">Block::addon_t</text>
<polyline fill="none" stroke="#bfbfbf" points="685.5,-840.5 765.5,-840.5 "/>
<text text-anchor="middle" x="725.5" y="-828.5" font-family="Helvetica,sans-Serif" font-size="10.00"> </text>
<polyline fill="none" stroke="#bfbfbf" points="685.5,-821.5 765.5,-821.5 "/>
<text text-anchor="middle" x="725.5" y="-809.5" font-family="Helvetica,sans-Serif" font-size="10.00"> </text>
</a>
</g>
</g>
<!-- Node12&#45;&gt;Node11 -->
<g id="edge12" class="edge">
<title>Node12&#45;&gt;Node11</title>
<path fill="none" stroke="midnightblue" d="M725.5,-792.05C725.5,-768.79 725.5,-737.76 725.5,-707.58"/>
<polygon fill="none" stroke="midnightblue" points="722,-792.17 725.5,-802.17 729,-792.17 722,-792.17"/>
</g>
<!-- Node13 -->
<g id="node13" class="node">
<title>Node13</title>
<g id="a_node13"><a xlink:title=" ">
<polygon fill="white" stroke="#bfbfbf" points="515.5,-802.5 515.5,-859.5 643.5,-859.5 643.5,-802.5 515.5,-802.5"/>
<text text-anchor="middle" x="579.5" y="-847.5" font-family="Helvetica,sans-Serif" font-size="10.00">std::shared_ptr&lt; block_t &gt;</text>
<polyline fill="none" stroke="#bfbfbf" points="515.5,-840.5 643.5,-840.5 "/>
<text text-anchor="start" x="523.5" y="-828.5" font-family="Helvetica,sans-Serif" font-size="10.00">+ ptr</text>
<polyline fill="none" stroke="#bfbfbf" points="515.5,-821.5 643.5,-821.5 "/>
<text text-anchor="start" x="523.5" y="-809.5" font-family="Helvetica,sans-Serif" font-size="10.00">+ operator&#45;&gt;()</text>
</a>
</g>
</g>
<!-- Node13&#45;&gt;Node11 -->
<g id="edge13" class="edge">
<title>Node13&#45;&gt;Node11</title>
<path fill="none" stroke="#404040" d="M597.4,-802.17C612.27,-779.04 634.44,-744.58 656.17,-710.8"/>
<polygon fill="none" stroke="#404040" points="656.4,-710.44 656.28,-703.23 662.89,-700.35 663.01,-707.56 656.4,-710.44"/>
<text text-anchor="middle" x="662" y="-752.5" font-family="Helvetica,sans-Serif" font-size="10.00"> #header</text>
</g>
<!-- Node14&#45;&gt;Node13 -->
<g id="edge14" class="edge">
<title>Node14&#45;&gt;Node13</title>
<path fill="none" stroke="orange" d="M476.86,-946.9C500.65,-920.27 532.89,-884.17 554.85,-859.59"/>
<polygon fill="orange" stroke="orange" points="474.13,-944.7 470.08,-954.49 479.35,-949.36 474.13,-944.7"/>
<text text-anchor="middle" x="561" y="-904.5" font-family="Helvetica,sans-Serif" font-size="10.00"> &lt; block_t &gt;</text>
</g>
<!-- Node15&#45;&gt;Node11 -->
<g id="edge17" class="edge">
<title>Node15&#45;&gt;Node11</title>
<path fill="none" stroke="#404040" d="M768.56,-382.73C779.08,-408.64 789.65,-445.56 782.5,-478 782.02,-480.19 781.49,-482.39 780.93,-484.59"/>
<polygon fill="none" stroke="#404040" points="780.86,-484.83 783.05,-491.7 777.56,-496.37 775.36,-489.5 780.86,-484.83"/>
<text text-anchor="middle" x="800.5" y="-464.5" font-family="Helvetica,sans-Serif" font-size="10.00"> +pnext</text>
</g>
<!-- Node16&#45;&gt;Node15 -->
<g id="edge19" class="edge">
<title>Node16&#45;&gt;Node15</title>
<path fill="none" stroke="orange" d="M580.11,-562.85C579.18,-531.92 582.13,-488.31 601.5,-456 623.35,-419.54 663.04,-392.29 696.24,-374.49"/>
<polygon fill="orange" stroke="orange" points="576.63,-563.4 580.58,-573.23 583.62,-563.08 576.63,-563.4"/>
<text text-anchor="middle" x="668" y="-464.5" font-family="Helvetica,sans-Serif" font-size="10.00"> &lt; altintegration::BlockIndex * &gt;</text>
</g>
<!-- Node17&#45;&gt;Node10 -->
<g id="edge21" class="edge">
<title>Node17&#45;&gt;Node10</title>
<path fill="none" stroke="orange" d="M431.19,-564.85C415.76,-541.37 397.73,-509.39 389.5,-478 381.21,-446.38 382.08,-408.87 384.34,-382.57"/>
<polygon fill="orange" stroke="orange" points="428.47,-567.06 436.95,-573.41 434.28,-563.16 428.47,-567.06"/>
<text text-anchor="middle" x="456" y="-464.5" font-family="Helvetica,sans-Serif" font-size="10.00"> &lt; altintegration::BlockIndex * &gt;</text>
</g>
</g>
</svg>
        <g id="navigator" transform="translate(0 0)" fill="#404254">
                <rect fill="#f2f5e9" fill-opacity="0.5" stroke="#606060" stroke-width=".5" x="0" y="0" width="60" height="60"/>
                <use id="zoomplus" xlink:href="#zoomPlus" x="17" y="9" onmousedown="handleZoom(evt,'in')"/>
                <use id="zoomminus" xlink:href="#zoomMin" x="42" y="9" onmousedown="handleZoom(evt,'out')"/>
                <use id="reset" xlink:href="#resetDef" x="30" y="36" onmousedown="handleReset()"/>
                <g id="arrowUp" xlink:href="#dirArrow" transform="translate(30 24)" onmousedown="handlePan(0,-1)">
                  <use xlink:href="#rim" fill="#404040">
                        <set attributeName="fill" to="#808080" begin="arrowUp.mouseover" end="arrowUp.mouseout"/>
                  </use>
                  <path fill="none" stroke="white" stroke-width="1.5" d="M0,-3.0v7 M-2.5,-0.5L0,-3.0L2.5,-0.5"/>
                </g>
                <g id="arrowRight" xlink:href="#dirArrow" transform="rotate(90) translate(36 -43)" onmousedown="handlePan(1,0)">
                  <use xlink:href="#rim" fill="#404040">
                        <set attributeName="fill" to="#808080" begin="arrowRight.mouseover" end="arrowRight.mouseout"/>
                  </use>
                  <path fill="none" stroke="white" stroke-width="1.5" d="M0,-3.0v7 M-2.5,-0.5L0,-3.0L2.5,-0.5"/>
                </g>
                <g id="arrowDown" xlink:href="#dirArrow" transform="rotate(180) translate(-30 -48)" onmousedown="handlePan(0,1)">
                  <use xlink:href="#rim" fill="#404040">
                        <set attributeName="fill" to="#808080" begin="arrowDown.mouseover" end="arrowDown.mouseout"/>
                  </use>
                  <path fill="none" stroke="white" stroke-width="1.5" d="M0,-3.0v7 M-2.5,-0.5L0,-3.0L2.5,-0.5"/>
                </g>
                <g id="arrowLeft" xlink:href="#dirArrow" transform="rotate(270) translate(-36 17)" onmousedown="handlePan(-1,0)">
                  <use xlink:href="#rim" fill="#404040">
                        <set attributeName="fill" to="#808080" begin="arrowLeft.mouseover" end="arrowLeft.mouseout"/>
                  </use>
                  <path fill="none" stroke="white" stroke-width="1.5" d="M0,-3.0v7 M-2.5,-0.5L0,-3.0L2.5,-0.5"/>
                </g>
        </g>
        <svg viewBox="0 0 15 15" width="100%" height="30px" preserveAspectRatio="xMaxYMin meet">
         <g id="arrow_out" transform="scale(0.3 0.3)">
          <a xlink:href="structaltintegration_1_1BaseBlockTree__coll__graph_org.svg" target="_base">
           <rect id="button" ry="5" rx="5" y="6" x="6" height="38" width="38"
                fill="#f2f5e9" fill-opacity="0.5" stroke="#606060" stroke-width="1.0"/>
           <path id="arrow"
             d="M 11.500037,31.436501 C 11.940474,20.09759 22.043105,11.32322 32.158766,21.979434 L 37.068811,17.246167 C 37.068811,17.246167 37.088388,32 37.088388,32 L 22.160133,31.978069 C 22.160133,31.978069 26.997745,27.140456 26.997745,27.140456 C 18.528582,18.264221 13.291696,25.230495 11.500037,31.436501 z"
             style="fill:#404040;"/>
          </a>
         </g>
        </svg>
</svg>
