<?xml version="1.0" encoding="UTF-8" standalone="no"?>
<!DOCTYPE svg PUBLIC "-//W3C//DTD SVG 1.1//EN"
 "http://www.w3.org/Graphics/SVG/1.1/DTD/svg11.dtd">
<!-- Generated by graphviz version 2.44.0 ()
 -->
<!-- Title: altintegration::DefaultPopRewardsCalculator Pages: 1 -->
<svg width="866pt" height="1969pt"
 viewBox="0.00 0.00 865.50 1969.00" xmlns="http://www.w3.org/2000/svg" xmlns:xlink="http://www.w3.org/1999/xlink">
<g id="graph0" class="graph" transform="scale(1 1) rotate(0) translate(4 1965)">
<title>altintegration::DefaultPopRewardsCalculator</title>
<polygon fill="white" stroke="transparent" points="-4,4 -4,-1965 861.5,-1965 861.5,4 -4,4"/>
<!-- Node1 -->
<g id="node1" class="node">
<title>Node1</title>
<g id="a_node1"><a xlink:title=" ">
<polygon fill="#bfbfbf" stroke="black" points="185.5,-0.5 185.5,-189.5 351.5,-189.5 351.5,-0.5 185.5,-0.5"/>
<text text-anchor="start" x="193.5" y="-177.5" font-family="Helvetica,sans-Serif" font-size="10.00">altintegration::DefaultPop</text>
<text text-anchor="middle" x="268.5" y="-166.5" font-family="Helvetica,sans-Serif" font-size="10.00">RewardsCalculator</text>
<polyline fill="none" stroke="black" points="185.5,-159.5 351.5,-159.5 "/>
<text text-anchor="middle" x="268.5" y="-147.5" font-family="Helvetica,sans-Serif" font-size="10.00"> </text>
<polyline fill="none" stroke="black" points="185.5,-140.5 351.5,-140.5 "/>
<text text-anchor="start" x="193.5" y="-128.5" font-family="Helvetica,sans-Serif" font-size="10.00">+ DefaultPopRewardsCalculator()</text>
<text text-anchor="start" x="193.5" y="-117.5" font-family="Helvetica,sans-Serif" font-size="10.00">+ ~DefaultPopRewardsCalculator()</text>
<text text-anchor="start" x="193.5" y="-106.5" font-family="Helvetica,sans-Serif" font-size="10.00">+ getPopPayout()</text>
<text text-anchor="start" x="193.5" y="-95.5" font-family="Helvetica,sans-Serif" font-size="10.00">+ calculatePayouts()</text>
<text text-anchor="start" x="193.5" y="-84.5" font-family="Helvetica,sans-Serif" font-size="10.00">+ scoreFromEndorsements()</text>
<text text-anchor="start" x="193.5" y="-73.5" font-family="Helvetica,sans-Serif" font-size="10.00">+ getRoundForBlockNumber()</text>
<text text-anchor="start" x="193.5" y="-62.5" font-family="Helvetica,sans-Serif" font-size="10.00">+ calculateBlockReward()</text>
<text text-anchor="start" x="193.5" y="-51.5" font-family="Helvetica,sans-Serif" font-size="10.00">+ calculateMinerReward()</text>
<text text-anchor="start" x="193.5" y="-40.5" font-family="Helvetica,sans-Serif" font-size="10.00"># getScoreMultiplierFromRelative</text>
<text text-anchor="start" x="193.5" y="-29.5" font-family="Helvetica,sans-Serif" font-size="10.00">Block()</text>
<text text-anchor="start" x="193.5" y="-18.5" font-family="Helvetica,sans-Serif" font-size="10.00"># calculateDifficulty()</text>
<text text-anchor="start" x="193.5" y="-7.5" font-family="Helvetica,sans-Serif" font-size="10.00"># calculatePayoutsInner()</text>
</a>
</g>
</g>
<!-- Node2 -->
<g id="node2" class="node">
<title>Node2</title>
<g id="a_node2"><a xlink:href="structaltintegration_1_1PopRewardsCalculator.html" target="_top" xlink:title=" ">
<polygon fill="white" stroke="black" points="185,-320 185,-399 320,-399 320,-320 185,-320"/>
<text text-anchor="start" x="193" y="-387" font-family="Helvetica,sans-Serif" font-size="10.00">altintegration::PopRewards</text>
<text text-anchor="middle" x="252.5" y="-376" font-family="Helvetica,sans-Serif" font-size="10.00">Calculator</text>
<polyline fill="none" stroke="black" points="185,-369 320,-369 "/>
<text text-anchor="middle" x="252.5" y="-357" font-family="Helvetica,sans-Serif" font-size="10.00"> </text>
<polyline fill="none" stroke="black" points="185,-350 320,-350 "/>
<text text-anchor="start" x="193" y="-338" font-family="Helvetica,sans-Serif" font-size="10.00">+ ~PopRewardsCalculator()</text>
<text text-anchor="start" x="193" y="-327" font-family="Helvetica,sans-Serif" font-size="10.00">+ getPopPayout()</text>
</a>
</g>
</g>
<!-- Node2&#45;&gt;Node1 -->
<g id="edge1" class="edge">
<title>Node2&#45;&gt;Node1</title>
<path fill="none" stroke="midnightblue" d="M255.47,-309.73C257.52,-276.07 260.32,-230.25 262.79,-189.66"/>
<polygon fill="none" stroke="midnightblue" points="251.98,-309.57 254.86,-319.77 258.96,-310 251.98,-309.57"/>
</g>
<!-- Node3 -->
<g id="node3" class="node">
<title>Node3</title>
<g id="a_node3"><a xlink:href="structaltintegration_1_1AltBlockTree.html" target="_top" xlink:title="Represents simplified view on Altchain&#39;s block tree, maintains VBK tree and BTC tree.">
<polygon fill="white" stroke="black" points="338,-237.5 338,-481.5 487,-481.5 487,-237.5 338,-237.5"/>
<text text-anchor="middle" x="412.5" y="-469.5" font-family="Helvetica,sans-Serif" font-size="10.00">altintegration::AltBlockTree</text>
<polyline fill="none" stroke="black" points="338,-462.5 487,-462.5 "/>
<text text-anchor="start" x="346" y="-450.5" font-family="Helvetica,sans-Serif" font-size="10.00">+ onInvalidBlockConnected</text>
<text text-anchor="start" x="346" y="-439.5" font-family="Helvetica,sans-Serif" font-size="10.00">+ onBlockConnected</text>
<text text-anchor="start" x="346" y="-428.5" font-family="Helvetica,sans-Serif" font-size="10.00">+ onBeforeOverrideTip</text>
<polyline fill="none" stroke="black" points="338,-421.5 487,-421.5 "/>
<text text-anchor="start" x="346" y="-409.5" font-family="Helvetica,sans-Serif" font-size="10.00">+ ~AltBlockTree()</text>
<text text-anchor="start" x="346" y="-398.5" font-family="Helvetica,sans-Serif" font-size="10.00">+ AltBlockTree()</text>
<text text-anchor="start" x="346" y="-387.5" font-family="Helvetica,sans-Serif" font-size="10.00">+ acceptBlockHeader()</text>
<text text-anchor="start" x="346" y="-376.5" font-family="Helvetica,sans-Serif" font-size="10.00">+ acceptBlock()</text>
<text text-anchor="start" x="346" y="-365.5" font-family="Helvetica,sans-Serif" font-size="10.00">+ acceptBlock()</text>
<text text-anchor="start" x="346" y="-354.5" font-family="Helvetica,sans-Serif" font-size="10.00">+ acceptBlock()</text>
<text text-anchor="start" x="346" y="-343.5" font-family="Helvetica,sans-Serif" font-size="10.00">+ makeConnectedLeafPayload</text>
<text text-anchor="start" x="346" y="-332.5" font-family="Helvetica,sans-Serif" font-size="10.00">Mutator()</text>
<text text-anchor="start" x="346" y="-321.5" font-family="Helvetica,sans-Serif" font-size="10.00">+ getConnectedTipsAfter()</text>
<text text-anchor="start" x="346" y="-310.5" font-family="Helvetica,sans-Serif" font-size="10.00">+ loadBlockForward()</text>
<text text-anchor="start" x="346" y="-299.5" font-family="Helvetica,sans-Serif" font-size="10.00">+ loadTip()</text>
<text text-anchor="start" x="346" y="-288.5" font-family="Helvetica,sans-Serif" font-size="10.00">+ comparePopScore()</text>
<text text-anchor="start" x="346" y="-277.5" font-family="Helvetica,sans-Serif" font-size="10.00">+ setState()</text>
<text text-anchor="start" x="346" y="-266.5" font-family="Helvetica,sans-Serif" font-size="10.00">+ vbk()</text>
<text text-anchor="start" x="346" y="-255.5" font-family="Helvetica,sans-Serif" font-size="10.00">+ btc()</text>
<text text-anchor="start" x="346" y="-244.5" font-family="Helvetica,sans-Serif" font-size="10.00">+ getParams()</text>
</a>
</g>
</g>
<!-- Node3&#45;&gt;Node1 -->
<g id="edge2" class="edge">
<title>Node3&#45;&gt;Node1</title>
<path fill="none" stroke="#404040" d="M345.98,-237.24C339.2,-224.87 332.35,-212.39 325.68,-200.23"/>
<polygon fill="none" stroke="#404040" points="325.64,-200.16 319.25,-196.83 319.87,-189.64 326.26,-192.98 325.64,-200.16"/>
<text text-anchor="middle" x="347.5" y="-211" font-family="Helvetica,sans-Serif" font-size="10.00"> #tree_</text>
</g>
<!-- Node4 -->
<g id="node4" class="node">
<title>Node4</title>
<g id="a_node4"><a xlink:href="structaltintegration_1_1BaseBlockTree.html" target="_top" xlink:title=" ">
<polygon fill="white" stroke="black" points="336.5,-519.5 336.5,-763.5 488.5,-763.5 488.5,-519.5 336.5,-519.5"/>
<text text-anchor="start" x="344.5" y="-751.5" font-family="Helvetica,sans-Serif" font-size="10.00">altintegration::BaseBlock</text>
<text text-anchor="middle" x="412.5" y="-740.5" font-family="Helvetica,sans-Serif" font-size="10.00">Tree&lt; AltBlock &gt;</text>
<polyline fill="none" stroke="black" points="336.5,-733.5 488.5,-733.5 "/>
<text text-anchor="start" x="344.5" y="-721.5" font-family="Helvetica,sans-Serif" font-size="10.00"># validity_sig_</text>
<polyline fill="none" stroke="black" points="336.5,-714.5 488.5,-714.5 "/>
<text text-anchor="start" x="344.5" y="-702.5" font-family="Helvetica,sans-Serif" font-size="10.00">+ getTips()</text>
<text text-anchor="start" x="344.5" y="-691.5" font-family="Helvetica,sans-Serif" font-size="10.00">+ getBlocks()</text>
<text text-anchor="start" x="344.5" y="-680.5" font-family="Helvetica,sans-Serif" font-size="10.00">+ getAllBlocks()</text>
<text text-anchor="start" x="344.5" y="-669.5" font-family="Helvetica,sans-Serif" font-size="10.00">+ getBlockProvider()</text>
<text text-anchor="start" x="344.5" y="-658.5" font-family="Helvetica,sans-Serif" font-size="10.00">+ ~BaseBlockTree()</text>
<text text-anchor="start" x="344.5" y="-647.5" font-family="Helvetica,sans-Serif" font-size="10.00">+ BaseBlockTree()</text>
<text text-anchor="start" x="344.5" y="-636.5" font-family="Helvetica,sans-Serif" font-size="10.00">+ BaseBlockTree()</text>
<text text-anchor="start" x="344.5" y="-625.5" font-family="Helvetica,sans-Serif" font-size="10.00">+ BaseBlockTree()</text>
<text text-anchor="start" x="344.5" y="-614.5" font-family="Helvetica,sans-Serif" font-size="10.00">+ operator=()</text>
<text text-anchor="start" x="344.5" y="-603.5" font-family="Helvetica,sans-Serif" font-size="10.00">+ operator=()</text>
<text text-anchor="start" x="344.5" y="-592.5" font-family="Helvetica,sans-Serif" font-size="10.00">and 26 more...</text>
<text text-anchor="start" x="344.5" y="-581.5" font-family="Helvetica,sans-Serif" font-size="10.00"># eraseBlock()</text>
<text text-anchor="start" x="344.5" y="-570.5" font-family="Helvetica,sans-Serif" font-size="10.00"># toPrettyString()</text>
<text text-anchor="start" x="344.5" y="-559.5" font-family="Helvetica,sans-Serif" font-size="10.00"># decreaseAppliedBlockCount()</text>
<text text-anchor="start" x="344.5" y="-548.5" font-family="Helvetica,sans-Serif" font-size="10.00"># decreaseAppliedBlockCount()</text>
<text text-anchor="start" x="344.5" y="-537.5" font-family="Helvetica,sans-Serif" font-size="10.00"># increaseAppliedBlockCount()</text>
<text text-anchor="start" x="344.5" y="-526.5" font-family="Helvetica,sans-Serif" font-size="10.00"># increaseAppliedBlockCount()</text>
</a>
</g>
</g>
<!-- Node4&#45;&gt;Node3 -->
<g id="edge3" class="edge">
<title>Node4&#45;&gt;Node3</title>
<path fill="none" stroke="midnightblue" d="M412.5,-509.1C412.5,-500.02 412.5,-490.89 412.5,-481.87"/>
<polygon fill="none" stroke="midnightblue" points="409,-509.32 412.5,-519.32 416,-509.32 409,-509.32"/>
</g>
<!-- Node5 -->
<g id="node5" class="node">
<title>Node5</title>
<g id="a_node5"><a xlink:href="structaltintegration_1_1BlockReader.html" target="_top" xlink:title="An abstraction over on&#45;disk storage iterator.">
<polygon fill="white" stroke="black" points="159.5,-1109 159.5,-1276 291.5,-1276 291.5,-1109 159.5,-1109"/>
<text text-anchor="middle" x="225.5" y="-1264" font-family="Helvetica,sans-Serif" font-size="10.00">altintegration::BlockReader</text>
<polyline fill="none" stroke="black" points="159.5,-1257 291.5,-1257 "/>
<text text-anchor="middle" x="225.5" y="-1245" font-family="Helvetica,sans-Serif" font-size="10.00"> </text>
<polyline fill="none" stroke="black" points="159.5,-1238 291.5,-1238 "/>
<text text-anchor="start" x="167.5" y="-1226" font-family="Helvetica,sans-Serif" font-size="10.00">+ ~BlockReader()</text>
<text text-anchor="start" x="167.5" y="-1215" font-family="Helvetica,sans-Serif" font-size="10.00">+ getAltTip()</text>
<text text-anchor="start" x="167.5" y="-1204" font-family="Helvetica,sans-Serif" font-size="10.00">+ getVbkTip()</text>
<text text-anchor="start" x="167.5" y="-1193" font-family="Helvetica,sans-Serif" font-size="10.00">+ getBtcTip()</text>
<text text-anchor="start" x="167.5" y="-1182" font-family="Helvetica,sans-Serif" font-size="10.00">+ getBlock()</text>
<text text-anchor="start" x="167.5" y="-1171" font-family="Helvetica,sans-Serif" font-size="10.00">+ getBlock()</text>
<text text-anchor="start" x="167.5" y="-1160" font-family="Helvetica,sans-Serif" font-size="10.00">+ getBlock()</text>
<text text-anchor="start" x="167.5" y="-1149" font-family="Helvetica,sans-Serif" font-size="10.00">+ getAltBlockIterator()</text>
<text text-anchor="start" x="167.5" y="-1138" font-family="Helvetica,sans-Serif" font-size="10.00">+ getVbkBlockIterator()</text>
<text text-anchor="start" x="167.5" y="-1127" font-family="Helvetica,sans-Serif" font-size="10.00">+ getBtcBlockIterator()</text>
<text text-anchor="start" x="167.5" y="-1116" font-family="Helvetica,sans-Serif" font-size="10.00">and 6 more...</text>
</a>
</g>
</g>
<!-- Node5&#45;&gt;Node4 -->
<g id="edge4" class="edge">
<title>Node5&#45;&gt;Node4</title>
<path fill="none" stroke="#404040" d="M215.61,-1108.71C215.65,-1097 216.47,-1085.16 218.5,-1074 237.8,-967.94 288.3,-857.21 332.94,-774.48"/>
<polygon fill="none" stroke="#404040" points="333.04,-774.31 332.39,-767.12 338.77,-763.77 339.42,-770.95 333.04,-774.31"/>
<text text-anchor="middle" x="349" y="-931" font-family="Helvetica,sans-Serif" font-size="10.00"> #blockProvider_</text>
</g>
<!-- Node22 -->
<g id="node22" class="node">
<title>Node22</title>
<g id="a_node22"><a xlink:href="structaltintegration_1_1BaseBlockTree.html" target="_top" xlink:title="Base block tree that stores all blocks, maintains tree tips, maintains active chain.">
<polygon fill="white" stroke="black" points="459.5,-811.5 459.5,-1055.5 611.5,-1055.5 611.5,-811.5 459.5,-811.5"/>
<text text-anchor="start" x="467.5" y="-1043.5" font-family="Helvetica,sans-Serif" font-size="10.00">altintegration::BaseBlock</text>
<text text-anchor="middle" x="535.5" y="-1032.5" font-family="Helvetica,sans-Serif" font-size="10.00">Tree&lt; Block &gt;</text>
<polyline fill="none" stroke="black" points="459.5,-1025.5 611.5,-1025.5 "/>
<text text-anchor="start" x="467.5" y="-1013.5" font-family="Helvetica,sans-Serif" font-size="10.00"># validity_sig_</text>
<polyline fill="none" stroke="black" points="459.5,-1006.5 611.5,-1006.5 "/>
<text text-anchor="start" x="467.5" y="-994.5" font-family="Helvetica,sans-Serif" font-size="10.00">+ getTips()</text>
<text text-anchor="start" x="467.5" y="-983.5" font-family="Helvetica,sans-Serif" font-size="10.00">+ getBlocks()</text>
<text text-anchor="start" x="467.5" y="-972.5" font-family="Helvetica,sans-Serif" font-size="10.00">+ getAllBlocks()</text>
<text text-anchor="start" x="467.5" y="-961.5" font-family="Helvetica,sans-Serif" font-size="10.00">+ getBlockProvider()</text>
<text text-anchor="start" x="467.5" y="-950.5" font-family="Helvetica,sans-Serif" font-size="10.00">+ ~BaseBlockTree()</text>
<text text-anchor="start" x="467.5" y="-939.5" font-family="Helvetica,sans-Serif" font-size="10.00">+ BaseBlockTree()</text>
<text text-anchor="start" x="467.5" y="-928.5" font-family="Helvetica,sans-Serif" font-size="10.00">+ BaseBlockTree()</text>
<text text-anchor="start" x="467.5" y="-917.5" font-family="Helvetica,sans-Serif" font-size="10.00">+ operator=()</text>
<text text-anchor="start" x="467.5" y="-906.5" font-family="Helvetica,sans-Serif" font-size="10.00">+ BaseBlockTree()</text>
<text text-anchor="start" x="467.5" y="-895.5" font-family="Helvetica,sans-Serif" font-size="10.00">+ operator=()</text>
<text text-anchor="start" x="467.5" y="-884.5" font-family="Helvetica,sans-Serif" font-size="10.00">and 26 more...</text>
<text text-anchor="start" x="467.5" y="-873.5" font-family="Helvetica,sans-Serif" font-size="10.00"># eraseBlock()</text>
<text text-anchor="start" x="467.5" y="-862.5" font-family="Helvetica,sans-Serif" font-size="10.00"># toPrettyString()</text>
<text text-anchor="start" x="467.5" y="-851.5" font-family="Helvetica,sans-Serif" font-size="10.00"># decreaseAppliedBlockCount()</text>
<text text-anchor="start" x="467.5" y="-840.5" font-family="Helvetica,sans-Serif" font-size="10.00"># increaseAppliedBlockCount()</text>
<text text-anchor="start" x="467.5" y="-829.5" font-family="Helvetica,sans-Serif" font-size="10.00"># decreaseAppliedBlockCount()</text>
<text text-anchor="start" x="467.5" y="-818.5" font-family="Helvetica,sans-Serif" font-size="10.00"># increaseAppliedBlockCount()</text>
</a>
</g>
</g>
<!-- Node5&#45;&gt;Node22 -->
<g id="edge28" class="edge">
<title>Node5&#45;&gt;Node22</title>
<path fill="none" stroke="#404040" d="M291.63,-1109.49C294.53,-1107.19 297.49,-1105.02 300.5,-1103 356.77,-1065.27 390.5,-1095.55 445.5,-1056 447,-1054.92 448.48,-1053.81 449.95,-1052.67"/>
<polygon fill="none" stroke="#404040" points="450.23,-1052.44 452.26,-1045.53 459.43,-1044.74 457.4,-1051.66 450.23,-1052.44"/>
<text text-anchor="middle" x="446" y="-1077" font-family="Helvetica,sans-Serif" font-size="10.00"> #blockProvider_</text>
</g>
<!-- Node6 -->
<g id="node6" class="node">
<title>Node6</title>
<g id="a_node6"><a xlink:href="structaltintegration_1_1Chain.html" target="_top" xlink:title=" ">
<polygon fill="white" stroke="black" points="0,-1103.5 0,-1281.5 141,-1281.5 141,-1103.5 0,-1103.5"/>
<text text-anchor="start" x="8" y="-1269.5" font-family="Helvetica,sans-Serif" font-size="10.00">altintegration::Chain</text>
<text text-anchor="middle" x="70.5" y="-1258.5" font-family="Helvetica,sans-Serif" font-size="10.00">&lt; altintegration::BlockIndex &gt;</text>
<polyline fill="none" stroke="black" points="0,-1251.5 141,-1251.5 "/>
<text text-anchor="middle" x="70.5" y="-1239.5" font-family="Helvetica,sans-Serif" font-size="10.00"> </text>
<polyline fill="none" stroke="black" points="0,-1232.5 141,-1232.5 "/>
<text text-anchor="start" x="8" y="-1220.5" font-family="Helvetica,sans-Serif" font-size="10.00">+ Chain()</text>
<text text-anchor="start" x="8" y="-1209.5" font-family="Helvetica,sans-Serif" font-size="10.00">+ Chain()</text>
<text text-anchor="start" x="8" y="-1198.5" font-family="Helvetica,sans-Serif" font-size="10.00">+ Chain()</text>
<text text-anchor="start" x="8" y="-1187.5" font-family="Helvetica,sans-Serif" font-size="10.00">+ getStartHeight()</text>
<text text-anchor="start" x="8" y="-1176.5" font-family="Helvetica,sans-Serif" font-size="10.00">+ firstHeight()</text>
<text text-anchor="start" x="8" y="-1165.5" font-family="Helvetica,sans-Serif" font-size="10.00">+ contains()</text>
<text text-anchor="start" x="8" y="-1154.5" font-family="Helvetica,sans-Serif" font-size="10.00">+ operator[]()</text>
<text text-anchor="start" x="8" y="-1143.5" font-family="Helvetica,sans-Serif" font-size="10.00">+ next()</text>
<text text-anchor="start" x="8" y="-1132.5" font-family="Helvetica,sans-Serif" font-size="10.00">+ chainHeight()</text>
<text text-anchor="start" x="8" y="-1121.5" font-family="Helvetica,sans-Serif" font-size="10.00">+ empty()</text>
<text text-anchor="start" x="8" y="-1110.5" font-family="Helvetica,sans-Serif" font-size="10.00">and 15 more...</text>
</a>
</g>
</g>
<!-- Node6&#45;&gt;Node4 -->
<g id="edge5" class="edge">
<title>Node6&#45;&gt;Node4</title>
<path fill="none" stroke="#404040" d="M71.73,-1103.22C76.89,-1020.92 95.24,-898.12 155.5,-811 197.26,-750.63 268.36,-706.48 325.2,-678.56"/>
<polygon fill="none" stroke="#404040" points="325.55,-678.39 329.23,-672.18 336.37,-673.19 332.69,-679.39 325.55,-678.39"/>
<text text-anchor="middle" x="187.5" y="-931" font-family="Helvetica,sans-Serif" font-size="10.00"> #activeChain_</text>
</g>
<!-- Node6&#45;&gt;Node22 -->
<g id="edge29" class="edge">
<title>Node6&#45;&gt;Node22</title>
<path fill="none" stroke="#404040" d="M141.05,-1109.17C144.14,-1106.96 147.29,-1104.9 150.5,-1103 198.86,-1074.43 218.12,-1083.39 273.5,-1074 311.39,-1067.58 412.13,-1075.05 445.5,-1056 446.7,-1055.32 447.88,-1054.61 449.06,-1053.88"/>
<polygon fill="none" stroke="#404040" points="449.46,-1053.61 452.11,-1046.9 459.32,-1046.77 456.67,-1053.48 449.46,-1053.61"/>
<text text-anchor="middle" x="305.5" y="-1077" font-family="Helvetica,sans-Serif" font-size="10.00"> #activeChain_</text>
</g>
<!-- Node7 -->
<g id="node7" class="node">
<title>Node7</title>
<g id="a_node7"><a xlink:href="structaltintegration_1_1Chain.html" target="_top" xlink:title="Fully in&#45;memory chain representation.">
<polygon fill="white" stroke="black" points="15,-1357 15,-1535 116,-1535 116,-1357 15,-1357"/>
<text text-anchor="start" x="23" y="-1523" font-family="Helvetica,sans-Serif" font-size="10.00">altintegration::Chain</text>
<text text-anchor="middle" x="65.5" y="-1512" font-family="Helvetica,sans-Serif" font-size="10.00">&lt; BlockIndexT &gt;</text>
<polyline fill="none" stroke="black" points="15,-1505 116,-1505 "/>
<text text-anchor="middle" x="65.5" y="-1493" font-family="Helvetica,sans-Serif" font-size="10.00"> </text>
<polyline fill="none" stroke="black" points="15,-1486 116,-1486 "/>
<text text-anchor="start" x="23" y="-1474" font-family="Helvetica,sans-Serif" font-size="10.00">+ Chain()</text>
<text text-anchor="start" x="23" y="-1463" font-family="Helvetica,sans-Serif" font-size="10.00">+ Chain()</text>
<text text-anchor="start" x="23" y="-1452" font-family="Helvetica,sans-Serif" font-size="10.00">+ Chain()</text>
<text text-anchor="start" x="23" y="-1441" font-family="Helvetica,sans-Serif" font-size="10.00">+ getStartHeight()</text>
<text text-anchor="start" x="23" y="-1430" font-family="Helvetica,sans-Serif" font-size="10.00">+ firstHeight()</text>
<text text-anchor="start" x="23" y="-1419" font-family="Helvetica,sans-Serif" font-size="10.00">+ contains()</text>
<text text-anchor="start" x="23" y="-1408" font-family="Helvetica,sans-Serif" font-size="10.00">+ operator[]()</text>
<text text-anchor="start" x="23" y="-1397" font-family="Helvetica,sans-Serif" font-size="10.00">+ next()</text>
<text text-anchor="start" x="23" y="-1386" font-family="Helvetica,sans-Serif" font-size="10.00">+ chainHeight()</text>
<text text-anchor="start" x="23" y="-1375" font-family="Helvetica,sans-Serif" font-size="10.00">+ empty()</text>
<text text-anchor="start" x="23" y="-1364" font-family="Helvetica,sans-Serif" font-size="10.00">and 15 more...</text>
</a>
</g>
</g>
<!-- Node7&#45;&gt;Node6 -->
<g id="edge6" class="edge">
<title>Node7&#45;&gt;Node6</title>
<path fill="none" stroke="orange" d="M65.77,-1346.63C65.93,-1331.03 66.17,-1315.07 66.5,-1300 66.63,-1293.99 66.8,-1287.79 66.98,-1281.54"/>
<polygon fill="orange" stroke="orange" points="62.27,-1346.78 65.68,-1356.81 69.27,-1346.85 62.27,-1346.78"/>
<text text-anchor="middle" x="130" y="-1308.5" font-family="Helvetica,sans-Serif" font-size="10.00"> &lt; altintegration::BlockIndex &gt;</text>
</g>
<!-- Node8 -->
<g id="node8" class="node">
<title>Node8</title>
<g id="a_node8"><a xlink:title=" ">
<polygon fill="white" stroke="#bfbfbf" points="608,-1153 608,-1232 745,-1232 745,-1153 608,-1153"/>
<text text-anchor="start" x="616" y="-1220" font-family="Helvetica,sans-Serif" font-size="10.00">std::unordered_map</text>
<text text-anchor="start" x="616" y="-1209" font-family="Helvetica,sans-Serif" font-size="10.00">&lt; prev_block_hash_t,</text>
<text text-anchor="middle" x="676.5" y="-1198" font-family="Helvetica,sans-Serif" font-size="10.00"> std::unique_ptr&lt; index_t &gt; &gt;</text>
<polyline fill="none" stroke="#bfbfbf" points="608,-1191 745,-1191 "/>
<text text-anchor="start" x="616" y="-1179" font-family="Helvetica,sans-Serif" font-size="10.00">+ keys</text>
<polyline fill="none" stroke="#bfbfbf" points="608,-1172 745,-1172 "/>
<text text-anchor="middle" x="676.5" y="-1160" font-family="Helvetica,sans-Serif" font-size="10.00"> </text>
</a>
</g>
</g>
<!-- Node8&#45;&gt;Node4 -->
<g id="edge7" class="edge">
<title>Node8&#45;&gt;Node4</title>
<path fill="none" stroke="#404040" d="M679.65,-1152.93C683.74,-1080.72 683.98,-922.38 620.5,-811 592,-760.99 542.39,-719.93 498.77,-690.87"/>
<polygon fill="none" stroke="#404040" points="498.75,-690.85 491.54,-690.93 488.7,-684.3 495.91,-684.23 498.75,-690.85"/>
<text text-anchor="middle" x="700.5" y="-931" font-family="Helvetica,sans-Serif" font-size="10.00"> #blocks_</text>
</g>
<!-- Node8&#45;&gt;Node22 -->
<g id="edge30" class="edge">
<title>Node8&#45;&gt;Node22</title>
<path fill="none" stroke="#404040" d="M648.73,-1152.95C634.97,-1133.1 618.56,-1108.25 605.5,-1085 602.11,-1078.96 598.74,-1072.74 595.42,-1066.4"/>
<polygon fill="none" stroke="#404040" points="595.38,-1066.33 589.07,-1062.83 589.87,-1055.67 596.18,-1059.16 595.38,-1066.33"/>
<text text-anchor="middle" x="626.5" y="-1077" font-family="Helvetica,sans-Serif" font-size="10.00"> #blocks_</text>
</g>
<!-- Node9 -->
<g id="node9" class="node">
<title>Node9</title>
<g id="a_node9"><a xlink:title=" ">
<polygon fill="white" stroke="#bfbfbf" points="624,-1570.5 624,-1627.5 751,-1627.5 751,-1570.5 624,-1570.5"/>
<text text-anchor="middle" x="687.5" y="-1615.5" font-family="Helvetica,sans-Serif" font-size="10.00">std::unique_ptr&lt; index_t &gt;</text>
<polyline fill="none" stroke="#bfbfbf" points="624,-1608.5 751,-1608.5 "/>
<text text-anchor="start" x="632" y="-1596.5" font-family="Helvetica,sans-Serif" font-size="10.00">+ ptr</text>
<polyline fill="none" stroke="#bfbfbf" points="624,-1589.5 751,-1589.5 "/>
<text text-anchor="start" x="632" y="-1577.5" font-family="Helvetica,sans-Serif" font-size="10.00">+ operator&#45;&gt;()</text>
</a>
</g>
</g>
<!-- Node9&#45;&gt;Node8 -->
<g id="edge8" class="edge">
<title>Node9&#45;&gt;Node8</title>
<path fill="none" stroke="#404040" d="M686.74,-1570.2C684.91,-1502.91 680.23,-1330.51 677.88,-1244.25"/>
<polygon fill="none" stroke="#404040" points="677.88,-1244.16 673.72,-1238.28 677.55,-1232.17 681.71,-1238.06 677.88,-1244.16"/>
<text text-anchor="middle" x="710" y="-1443.5" font-family="Helvetica,sans-Serif" font-size="10.00"> +elements</text>
</g>
<!-- Node10 -->
<g id="node10" class="node">
<title>Node10</title>
<g id="a_node10"><a xlink:title=" ">
<polygon fill="white" stroke="#bfbfbf" points="636.5,-1722.5 636.5,-1779.5 738.5,-1779.5 738.5,-1722.5 636.5,-1722.5"/>
<text text-anchor="middle" x="687.5" y="-1767.5" font-family="Helvetica,sans-Serif" font-size="10.00">std::unique_ptr&lt; T &gt;</text>
<polyline fill="none" stroke="#bfbfbf" points="636.5,-1760.5 738.5,-1760.5 "/>
<text text-anchor="middle" x="687.5" y="-1748.5" font-family="Helvetica,sans-Serif" font-size="10.00"> </text>
<polyline fill="none" stroke="#bfbfbf" points="636.5,-1741.5 738.5,-1741.5 "/>
<text text-anchor="start" x="644.5" y="-1729.5" font-family="Helvetica,sans-Serif" font-size="10.00">+ operator&#45;&gt;()</text>
</a>
</g>
</g>
<!-- Node10&#45;&gt;Node9 -->
<g id="edge9" class="edge">
<title>Node10&#45;&gt;Node9</title>
<path fill="none" stroke="orange" d="M687.5,-1712.47C687.5,-1686.11 687.5,-1651.43 687.5,-1627.59"/>
<polygon fill="orange" stroke="orange" points="684,-1712.49 687.5,-1722.49 691,-1712.49 684,-1712.49"/>
<text text-anchor="middle" x="712.5" y="-1672.5" font-family="Helvetica,sans-Serif" font-size="10.00"> &lt; index_t &gt;</text>
</g>
<!-- Node11 -->
<g id="node11" class="node">
<title>Node11</title>
<g id="a_node11"><a xlink:title=" ">
<polygon fill="white" stroke="#bfbfbf" points="673,-1903.5 673,-1960.5 702,-1960.5 702,-1903.5 673,-1903.5"/>
<text text-anchor="middle" x="687.5" y="-1948.5" font-family="Helvetica,sans-Serif" font-size="10.00">T</text>
<polyline fill="none" stroke="#bfbfbf" points="673,-1941.5 702,-1941.5 "/>
<text text-anchor="middle" x="687.5" y="-1929.5" font-family="Helvetica,sans-Serif" font-size="10.00"> </text>
<polyline fill="none" stroke="#bfbfbf" points="673,-1922.5 702,-1922.5 "/>
<text text-anchor="middle" x="687.5" y="-1910.5" font-family="Helvetica,sans-Serif" font-size="10.00"> </text>
</a>
</g>
</g>
<!-- Node11&#45;&gt;Node10 -->
<g id="edge10" class="edge">
<title>Node11&#45;&gt;Node10</title>
<path fill="none" stroke="#404040" d="M687.5,-1903.42C687.5,-1873.6 687.5,-1825.77 687.5,-1791.86"/>
<polygon fill="none" stroke="#404040" points="687.5,-1791.61 683.5,-1785.61 687.5,-1779.61 691.5,-1785.61 687.5,-1791.61"/>
<text text-anchor="middle" x="697.5" y="-1877" font-family="Helvetica,sans-Serif" font-size="10.00"> +ptr</text>
</g>
<!-- Node12 -->
<g id="node12" class="node">
<title>Node12</title>
<g id="a_node12"><a xlink:title=" ">
<polygon fill="white" stroke="#bfbfbf" points="746,-1412 746,-1480 847,-1480 847,-1412 746,-1412"/>
<text text-anchor="start" x="754" y="-1468" font-family="Helvetica,sans-Serif" font-size="10.00">std::unordered_map</text>
<text text-anchor="middle" x="796.5" y="-1457" font-family="Helvetica,sans-Serif" font-size="10.00">&lt; K, T &gt;</text>
<polyline fill="none" stroke="#bfbfbf" points="746,-1450 847,-1450 "/>
<text text-anchor="middle" x="796.5" y="-1438" font-family="Helvetica,sans-Serif" font-size="10.00"> </text>
<polyline fill="none" stroke="#bfbfbf" points="746,-1431 847,-1431 "/>
<text text-anchor="middle" x="796.5" y="-1419" font-family="Helvetica,sans-Serif" font-size="10.00"> </text>
</a>
</g>
</g>
<!-- Node11&#45;&gt;Node12 -->
<g id="edge13" class="edge">
<title>Node11&#45;&gt;Node12</title>
<path fill="none" stroke="#404040" d="M702.15,-1904.57C705.42,-1898.25 708.73,-1891.46 711.5,-1885 730.97,-1839.67 735.86,-1827.94 747.5,-1780 772.06,-1678.85 786.16,-1557.24 792.47,-1492.62"/>
<polygon fill="none" stroke="#404040" points="792.49,-1492.42 789.08,-1486.07 793.63,-1480.47 797.04,-1486.83 792.49,-1492.42"/>
<text text-anchor="middle" x="784" y="-1748.5" font-family="Helvetica,sans-Serif" font-size="10.00"> +elements</text>
</g>
<!-- Node18 -->
<g id="node18" class="node">
<title>Node18</title>
<g id="a_node18"><a xlink:title=" ">
<polygon fill="white" stroke="#bfbfbf" points="508,-1798.5 508,-1855.5 611,-1855.5 611,-1798.5 508,-1798.5"/>
<text text-anchor="middle" x="559.5" y="-1843.5" font-family="Helvetica,sans-Serif" font-size="10.00">std::shared_ptr&lt; T &gt;</text>
<polyline fill="none" stroke="#bfbfbf" points="508,-1836.5 611,-1836.5 "/>
<text text-anchor="middle" x="559.5" y="-1824.5" font-family="Helvetica,sans-Serif" font-size="10.00"> </text>
<polyline fill="none" stroke="#bfbfbf" points="508,-1817.5 611,-1817.5 "/>
<text text-anchor="start" x="516" y="-1805.5" font-family="Helvetica,sans-Serif" font-size="10.00">+ operator&#45;&gt;()</text>
</a>
</g>
</g>
<!-- Node11&#45;&gt;Node18 -->
<g id="edge19" class="edge">
<title>Node11&#45;&gt;Node18</title>
<path fill="none" stroke="#404040" d="M672.82,-1919.18C655.95,-1905.61 627.48,-1882.7 603.3,-1863.24"/>
<polygon fill="none" stroke="#404040" points="603.28,-1863.23 596.1,-1862.58 593.93,-1855.71 601.11,-1856.35 603.28,-1863.23"/>
<text text-anchor="middle" x="636.5" y="-1877" font-family="Helvetica,sans-Serif" font-size="10.00"> +ptr</text>
</g>
<!-- Node12&#45;&gt;Node8 -->
<g id="edge11" class="edge">
<title>Node12&#45;&gt;Node8</title>
<path fill="none" stroke="orange" d="M776.33,-1402.73C753.58,-1355.06 716.9,-1278.17 694.9,-1232.07"/>
<polygon fill="orange" stroke="orange" points="773.22,-1404.34 780.69,-1411.86 779.54,-1401.33 773.22,-1404.34"/>
<text text-anchor="start" x="736.5" y="-1314" font-family="Helvetica,sans-Serif" font-size="10.00"> &lt; prev_block_hash_t,</text>
<text text-anchor="middle" x="797" y="-1303" font-family="Helvetica,sans-Serif" font-size="10.00"> std::unique_ptr&lt; index_t &gt; &gt;</text>
</g>
<!-- Node13 -->
<g id="node13" class="node">
<title>Node13</title>
<g id="a_node13"><a xlink:title=" ">
<polygon fill="white" stroke="#bfbfbf" points="523,-1646.5 523,-1703.5 552,-1703.5 552,-1646.5 523,-1646.5"/>
<text text-anchor="middle" x="537.5" y="-1691.5" font-family="Helvetica,sans-Serif" font-size="10.00">K</text>
<polyline fill="none" stroke="#bfbfbf" points="523,-1684.5 552,-1684.5 "/>
<text text-anchor="middle" x="537.5" y="-1672.5" font-family="Helvetica,sans-Serif" font-size="10.00"> </text>
<polyline fill="none" stroke="#bfbfbf" points="523,-1665.5 552,-1665.5 "/>
<text text-anchor="middle" x="537.5" y="-1653.5" font-family="Helvetica,sans-Serif" font-size="10.00"> </text>
</a>
</g>
</g>
<!-- Node13&#45;&gt;Node12 -->
<g id="edge12" class="edge">
<title>Node13&#45;&gt;Node12</title>
<path fill="none" stroke="#404040" d="M552.13,-1654.06C557.46,-1646.21 563.21,-1636.94 567.5,-1628 579.23,-1603.54 565.56,-1587.24 586.5,-1570 636.63,-1528.72 676.83,-1587.04 731.5,-1552 753.63,-1537.81 769.48,-1513.13 779.98,-1491.25"/>
<polygon fill="none" stroke="#404040" points="780.06,-1491.08 778.87,-1483.97 784.99,-1480.14 786.17,-1487.25 780.06,-1491.08"/>
<text text-anchor="middle" x="601" y="-1596.5" font-family="Helvetica,sans-Serif" font-size="10.00"> +keys</text>
</g>
<!-- Node20 -->
<g id="node20" class="node">
<title>Node20</title>
<g id="a_node20"><a xlink:title=" ">
<polygon fill="white" stroke="#bfbfbf" points="394,-1417.5 394,-1474.5 465,-1474.5 465,-1417.5 394,-1417.5"/>
<text text-anchor="middle" x="429.5" y="-1462.5" font-family="Helvetica,sans-Serif" font-size="10.00">std::set&lt; K &gt;</text>
<polyline fill="none" stroke="#bfbfbf" points="394,-1455.5 465,-1455.5 "/>
<text text-anchor="middle" x="429.5" y="-1443.5" font-family="Helvetica,sans-Serif" font-size="10.00"> </text>
<polyline fill="none" stroke="#bfbfbf" points="394,-1436.5 465,-1436.5 "/>
<text text-anchor="middle" x="429.5" y="-1424.5" font-family="Helvetica,sans-Serif" font-size="10.00"> </text>
</a>
</g>
</g>
<!-- Node13&#45;&gt;Node20 -->
<g id="edge24" class="edge">
<title>Node13&#45;&gt;Node20</title>
<path fill="none" stroke="#404040" d="M522.67,-1655.4C516.59,-1647.27 509.75,-1637.45 504.5,-1628 478.47,-1581.19 456.09,-1523.49 442.71,-1486"/>
<polygon fill="none" stroke="#404040" points="442.68,-1485.9 436.91,-1481.57 438.69,-1474.58 444.46,-1478.91 442.68,-1485.9"/>
<text text-anchor="middle" x="519" y="-1596.5" font-family="Helvetica,sans-Serif" font-size="10.00"> +keys</text>
</g>
<!-- Node21 -->
<g id="node21" class="node">
<title>Node21</title>
<g id="a_node21"><a xlink:title=" ">
<polygon fill="white" stroke="#bfbfbf" points="483,-1417.5 483,-1474.5 602,-1474.5 602,-1417.5 483,-1417.5"/>
<text text-anchor="middle" x="542.5" y="-1462.5" font-family="Helvetica,sans-Serif" font-size="10.00">std::unordered_set&lt; K &gt;</text>
<polyline fill="none" stroke="#bfbfbf" points="483,-1455.5 602,-1455.5 "/>
<text text-anchor="middle" x="542.5" y="-1443.5" font-family="Helvetica,sans-Serif" font-size="10.00"> </text>
<polyline fill="none" stroke="#bfbfbf" points="483,-1436.5 602,-1436.5 "/>
<text text-anchor="middle" x="542.5" y="-1424.5" font-family="Helvetica,sans-Serif" font-size="10.00"> </text>
</a>
</g>
</g>
<!-- Node13&#45;&gt;Node21 -->
<g id="edge26" class="edge">
<title>Node13&#45;&gt;Node21</title>
<path fill="none" stroke="#404040" d="M537.59,-1646.19C537.71,-1625.24 537.96,-1595.81 538.5,-1570 539.08,-1542.3 540.1,-1511.1 540.97,-1487.05"/>
<polygon fill="none" stroke="#404040" points="540.97,-1486.83 537.2,-1480.69 541.41,-1474.84 545.19,-1480.98 540.97,-1486.83"/>
<text text-anchor="middle" x="553" y="-1596.5" font-family="Helvetica,sans-Serif" font-size="10.00"> +keys</text>
</g>
<!-- Node14 -->
<g id="node14" class="node">
<title>Node14</title>
<g id="a_node14"><a xlink:title=" ">
<polygon fill="white" stroke="#bfbfbf" points="442,-1158.5 442,-1226.5 589,-1226.5 589,-1158.5 442,-1158.5"/>
<text text-anchor="start" x="450" y="-1214.5" font-family="Helvetica,sans-Serif" font-size="10.00">std::unordered_set</text>
<text text-anchor="middle" x="515.5" y="-1203.5" font-family="Helvetica,sans-Serif" font-size="10.00">&lt; altintegration::BlockIndex * &gt;</text>
<polyline fill="none" stroke="#bfbfbf" points="442,-1196.5 589,-1196.5 "/>
<text text-anchor="middle" x="515.5" y="-1184.5" font-family="Helvetica,sans-Serif" font-size="10.00"> </text>
<polyline fill="none" stroke="#bfbfbf" points="442,-1177.5 589,-1177.5 "/>
<text text-anchor="middle" x="515.5" y="-1165.5" font-family="Helvetica,sans-Serif" font-size="10.00"> </text>
</a>
</g>
</g>
<!-- Node14&#45;&gt;Node4 -->
<g id="edge14" class="edge">
<title>Node14&#45;&gt;Node4</title>
<path fill="none" stroke="#404040" d="M484.12,-1158.36C462,-1132.65 434.15,-1094.94 421.5,-1056 392.16,-965.69 390.73,-858.34 396.21,-775.65"/>
<polygon fill="none" stroke="#404040" points="396.21,-775.61 392.65,-769.34 397.06,-763.64 400.62,-769.9 396.21,-775.61"/>
<text text-anchor="middle" x="436" y="-931" font-family="Helvetica,sans-Serif" font-size="10.00"> #tips_</text>
</g>
<!-- Node14&#45;&gt;Node22 -->
<g id="edge31" class="edge">
<title>Node14&#45;&gt;Node22</title>
<path fill="none" stroke="#404040" d="M518.07,-1158.43C519.91,-1134.84 522.51,-1101.43 525.14,-1067.59"/>
<polygon fill="none" stroke="#404040" points="525.14,-1067.58 521.62,-1061.29 526.07,-1055.61 529.6,-1061.91 525.14,-1067.58"/>
<text text-anchor="middle" x="538" y="-1077" font-family="Helvetica,sans-Serif" font-size="10.00"> #tips_</text>
</g>
<!-- Node15 -->
<g id="node15" class="node">
<title>Node15</title>
<g id="a_node15"><a xlink:href="structaltintegration_1_1BlockIndex.html" target="_top" xlink:title="A node in a block tree.">
<polygon fill="white" stroke="black" points="200,-1340.5 200,-1551.5 325,-1551.5 325,-1340.5 200,-1340.5"/>
<text text-anchor="start" x="208" y="-1539.5" font-family="Helvetica,sans-Serif" font-size="10.00">altintegration::BlockIndex</text>
<text text-anchor="middle" x="262.5" y="-1528.5" font-family="Helvetica,sans-Serif" font-size="10.00">&lt; Block &gt;</text>
<polyline fill="none" stroke="black" points="200,-1521.5 325,-1521.5 "/>
<text text-anchor="start" x="208" y="-1509.5" font-family="Helvetica,sans-Serif" font-size="10.00">+ finalized</text>
<text text-anchor="start" x="208" y="-1498.5" font-family="Helvetica,sans-Serif" font-size="10.00"># height</text>
<text text-anchor="start" x="208" y="-1487.5" font-family="Helvetica,sans-Serif" font-size="10.00"># status</text>
<text text-anchor="start" x="208" y="-1476.5" font-family="Helvetica,sans-Serif" font-size="10.00"># dirty</text>
<polyline fill="none" stroke="black" points="200,-1469.5 325,-1469.5 "/>
<text text-anchor="start" x="208" y="-1457.5" font-family="Helvetica,sans-Serif" font-size="10.00">+ BlockIndex()</text>
<text text-anchor="start" x="208" y="-1446.5" font-family="Helvetica,sans-Serif" font-size="10.00">+ BlockIndex()</text>
<text text-anchor="start" x="208" y="-1435.5" font-family="Helvetica,sans-Serif" font-size="10.00">+ ~BlockIndex()</text>
<text text-anchor="start" x="208" y="-1424.5" font-family="Helvetica,sans-Serif" font-size="10.00">+ BlockIndex()</text>
<text text-anchor="start" x="208" y="-1413.5" font-family="Helvetica,sans-Serif" font-size="10.00">+ operator=()</text>
<text text-anchor="start" x="208" y="-1402.5" font-family="Helvetica,sans-Serif" font-size="10.00">+ isDeleted()</text>
<text text-anchor="start" x="208" y="-1391.5" font-family="Helvetica,sans-Serif" font-size="10.00">+ isRoot()</text>
<text text-anchor="start" x="208" y="-1380.5" font-family="Helvetica,sans-Serif" font-size="10.00">+ restore()</text>
<text text-anchor="start" x="208" y="-1369.5" font-family="Helvetica,sans-Serif" font-size="10.00">+ deleteTemporarily()</text>
<text text-anchor="start" x="208" y="-1358.5" font-family="Helvetica,sans-Serif" font-size="10.00">+ mergeFrom()</text>
<text text-anchor="start" x="208" y="-1347.5" font-family="Helvetica,sans-Serif" font-size="10.00">and 40 more...</text>
</a>
</g>
</g>
<!-- Node15&#45;&gt;Node14 -->
<g id="edge15" class="edge">
<title>Node15&#45;&gt;Node14</title>
<path fill="none" stroke="#404040" d="M313.21,-1340.18C324.37,-1324.93 337.44,-1310.78 352.5,-1300 381.43,-1279.3 399.56,-1299.56 430.5,-1282 450.63,-1270.57 468.99,-1252.9 483.45,-1236.34"/>
<polygon fill="none" stroke="#404040" points="483.77,-1235.96 484.58,-1228.79 491.5,-1226.78 490.7,-1233.95 483.77,-1235.96"/>
<text text-anchor="middle" x="367" y="-1308.5" font-family="Helvetica,sans-Serif" font-size="10.00"> +keys</text>
</g>
<!-- Node15&#45;&gt;Node15 -->
<g id="edge20" class="edge">
<title>Node15&#45;&gt;Node15</title>
<path fill="none" stroke="#404040" d="M325.28,-1469.35C335.76,-1466.08 343,-1458.3 343,-1446 343,-1438.5 340.31,-1432.69 335.84,-1428.54"/>
<polygon fill="none" stroke="#404040" points="335.76,-1428.5 328.57,-1429.06 325.28,-1422.65 332.47,-1422.08 335.76,-1428.5"/>
<text text-anchor="middle" x="359.5" y="-1443.5" font-family="Helvetica,sans-Serif" font-size="10.00"> +pprev</text>
</g>
<!-- Node19 -->
<g id="node19" class="node">
<title>Node19</title>
<g id="a_node19"><a xlink:title=" ">
<polygon fill="white" stroke="#bfbfbf" points="309.5,-1158.5 309.5,-1226.5 421.5,-1226.5 421.5,-1158.5 309.5,-1158.5"/>
<text text-anchor="start" x="317.5" y="-1214.5" font-family="Helvetica,sans-Serif" font-size="10.00">std::set&lt; altintegration</text>
<text text-anchor="middle" x="365.5" y="-1203.5" font-family="Helvetica,sans-Serif" font-size="10.00">::BlockIndex * &gt;</text>
<polyline fill="none" stroke="#bfbfbf" points="309.5,-1196.5 421.5,-1196.5 "/>
<text text-anchor="middle" x="365.5" y="-1184.5" font-family="Helvetica,sans-Serif" font-size="10.00"> </text>
<polyline fill="none" stroke="#bfbfbf" points="309.5,-1177.5 421.5,-1177.5 "/>
<text text-anchor="middle" x="365.5" y="-1165.5" font-family="Helvetica,sans-Serif" font-size="10.00"> </text>
</a>
</g>
</g>
<!-- Node15&#45;&gt;Node19 -->
<g id="edge22" class="edge">
<title>Node15&#45;&gt;Node19</title>
<path fill="none" stroke="#404040" d="M214.52,-1340.18C213.97,-1325.74 217.2,-1311.83 226.5,-1300 247.42,-1273.39 272.34,-1300.77 300.5,-1282 317.42,-1270.72 331.52,-1253.49 342.21,-1237.21"/>
<polygon fill="none" stroke="#404040" points="342.4,-1236.91 342.18,-1229.7 348.75,-1226.72 348.97,-1233.93 342.4,-1236.91"/>
<text text-anchor="middle" x="241" y="-1308.5" font-family="Helvetica,sans-Serif" font-size="10.00"> +keys</text>
</g>
<!-- Node16 -->
<g id="node16" class="node">
<title>Node16</title>
<g id="a_node16"><a xlink:title=" ">
<polygon fill="white" stroke="#bfbfbf" points="222.5,-1646.5 222.5,-1703.5 302.5,-1703.5 302.5,-1646.5 222.5,-1646.5"/>
<text text-anchor="middle" x="262.5" y="-1691.5" font-family="Helvetica,sans-Serif" font-size="10.00">Block::addon_t</text>
<polyline fill="none" stroke="#bfbfbf" points="222.5,-1684.5 302.5,-1684.5 "/>
<text text-anchor="middle" x="262.5" y="-1672.5" font-family="Helvetica,sans-Serif" font-size="10.00"> </text>
<polyline fill="none" stroke="#bfbfbf" points="222.5,-1665.5 302.5,-1665.5 "/>
<text text-anchor="middle" x="262.5" y="-1653.5" font-family="Helvetica,sans-Serif" font-size="10.00"> </text>
</a>
</g>
</g>
<!-- Node16&#45;&gt;Node15 -->
<g id="edge16" class="edge">
<title>Node16&#45;&gt;Node15</title>
<path fill="none" stroke="midnightblue" d="M262.5,-1636.05C262.5,-1612.79 262.5,-1581.76 262.5,-1551.58"/>
<polygon fill="none" stroke="midnightblue" points="259,-1636.17 262.5,-1646.17 266,-1636.17 259,-1636.17"/>
</g>
<!-- Node17 -->
<g id="node17" class="node">
<title>Node17</title>
<g id="a_node17"><a xlink:title=" ">
<polygon fill="white" stroke="#bfbfbf" points="369.5,-1646.5 369.5,-1703.5 497.5,-1703.5 497.5,-1646.5 369.5,-1646.5"/>
<text text-anchor="middle" x="433.5" y="-1691.5" font-family="Helvetica,sans-Serif" font-size="10.00">std::shared_ptr&lt; block_t &gt;</text>
<polyline fill="none" stroke="#bfbfbf" points="369.5,-1684.5 497.5,-1684.5 "/>
<text text-anchor="start" x="377.5" y="-1672.5" font-family="Helvetica,sans-Serif" font-size="10.00">+ ptr</text>
<polyline fill="none" stroke="#bfbfbf" points="369.5,-1665.5 497.5,-1665.5 "/>
<text text-anchor="start" x="377.5" y="-1653.5" font-family="Helvetica,sans-Serif" font-size="10.00">+ operator&#45;&gt;()</text>
</a>
</g>
</g>
<!-- Node17&#45;&gt;Node15 -->
<g id="edge17" class="edge">
<title>Node17&#45;&gt;Node15</title>
<path fill="none" stroke="#404040" d="M412.53,-1646.17C392.51,-1619.59 361.21,-1578.03 332.36,-1539.74"/>
<polygon fill="none" stroke="#404040" points="332.31,-1539.67 325.5,-1537.29 325.09,-1530.09 331.89,-1532.47 332.31,-1539.67"/>
<text text-anchor="middle" x="416" y="-1596.5" font-family="Helvetica,sans-Serif" font-size="10.00"> #header</text>
</g>
<!-- Node18&#45;&gt;Node17 -->
<g id="edge18" class="edge">
<title>Node18&#45;&gt;Node17</title>
<path fill="none" stroke="orange" d="M529.73,-1790.56C507.39,-1763.96 477.24,-1728.07 456.68,-1703.59"/>
<polygon fill="orange" stroke="orange" points="527.28,-1793.08 536.39,-1798.49 532.64,-1788.58 527.28,-1793.08"/>
<text text-anchor="middle" x="544" y="-1748.5" font-family="Helvetica,sans-Serif" font-size="10.00"> &lt; block_t &gt;</text>
</g>
<!-- Node19&#45;&gt;Node15 -->
<g id="edge21" class="edge">
<title>Node19&#45;&gt;Node15</title>
<path fill="none" stroke="#404040" d="M345.87,-1226.89C334.25,-1244.73 318.34,-1266.2 300.5,-1282 288.28,-1292.82 277.03,-1286.09 268.5,-1300 263.15,-1308.72 259.35,-1318.33 256.74,-1328.31"/>
<polygon fill="none" stroke="#404040" points="256.71,-1328.45 259.37,-1335.15 254.2,-1340.18 251.54,-1333.48 256.71,-1328.45"/>
<text text-anchor="middle" x="284.5" y="-1308.5" font-family="Helvetica,sans-Serif" font-size="10.00"> +pnext</text>
</g>
<!-- Node20&#45;&gt;Node19 -->
<g id="edge23" class="edge">
<title>Node20&#45;&gt;Node19</title>
<path fill="none" stroke="orange" d="M416.06,-1407.94C407.62,-1383.72 396.96,-1351.26 389.5,-1322 381.32,-1289.89 374.66,-1252.61 370.45,-1226.5"/>
<polygon fill="orange" stroke="orange" points="412.78,-1409.19 419.41,-1417.46 419.39,-1406.86 412.78,-1409.19"/>
<text text-anchor="middle" x="456" y="-1308.5" font-family="Helvetica,sans-Serif" font-size="10.00"> &lt; altintegration::BlockIndex * &gt;</text>
</g>
<!-- Node21&#45;&gt;Node14 -->
<g id="edge25" class="edge">
<title>Node21&#45;&gt;Node14</title>
<path fill="none" stroke="orange" d="M538.41,-1406.92C533.14,-1357.83 524.06,-1273.25 519.06,-1226.67"/>
<polygon fill="orange" stroke="orange" points="534.96,-1407.55 539.51,-1417.12 541.92,-1406.81 534.96,-1407.55"/>
<text text-anchor="middle" x="595" y="-1308.5" font-family="Helvetica,sans-Serif" font-size="10.00"> &lt; altintegration::BlockIndex * &gt;</text>
</g>
<!-- Node22&#45;&gt;Node4 -->
<g id="edge27" class="edge">
<title>Node22&#45;&gt;Node4</title>
<path fill="none" stroke="orange" d="M480.14,-801.97C474.75,-789.26 469.29,-776.4 463.94,-763.79"/>
<polygon fill="orange" stroke="orange" points="476.92,-803.35 484.05,-811.19 483.37,-800.62 476.92,-803.35"/>
<text text-anchor="middle" x="501.5" y="-785" font-family="Helvetica,sans-Serif" font-size="10.00"> &lt; AltBlock &gt;</text>
</g>
</g>
</svg>
