<?xml version="1.0" encoding="UTF-8" standalone="no"?>
<!DOCTYPE svg PUBLIC "-//W3C//DTD SVG 1.1//EN"
 "http://www.w3.org/Graphics/SVG/1.1/DTD/svg11.dtd">
<!-- Generated by graphviz version 3.0.0 (20220413.0242)
 -->
<!-- Title: altintegration::adaptors::Storage Pages: 1 -->
<svg width="396pt" height="281pt"
 viewBox="0.00 0.00 395.50 281.00" xmlns="http://www.w3.org/2000/svg" xmlns:xlink="http://www.w3.org/1999/xlink">
<g id="graph0" class="graph" transform="scale(1 1) rotate(0) translate(4 277)">
<title>altintegration::adaptors::Storage</title>
<polygon fill="white" stroke="transparent" points="-4,4 -4,-277 391.5,-277 391.5,4 -4,4"/>
<!-- Node1 -->
<g id="node1" class="node">
<title>Node1</title>
<g id="a_node1"><a xlink:title=" ">
<polygon fill="#bfbfbf" stroke="black" points="137.5,-160.5 137.5,-272.5 253.5,-272.5 253.5,-160.5 137.5,-160.5"/>
<text text-anchor="start" x="145.5" y="-260.5" font-family="Helvetica,sans-Serif" font-size="10.00">altintegration::adaptors</text>
<text text-anchor="middle" x="195.5" y="-249.5" font-family="Helvetica,sans-Serif" font-size="10.00">::Storage</text>
<polyline fill="none" stroke="black" points="137.5,-242.5 253.5,-242.5 "/>
<text text-anchor="middle" x="195.5" y="-230.5" font-family="Helvetica,sans-Serif" font-size="10.00"> </text>
<polyline fill="none" stroke="black" points="137.5,-223.5 253.5,-223.5 "/>
<text text-anchor="start" x="145.5" y="-211.5" font-family="Helvetica,sans-Serif" font-size="10.00">+ ~Storage()</text>
<text text-anchor="start" x="145.5" y="-200.5" font-family="Helvetica,sans-Serif" font-size="10.00">+ write()</text>
<text text-anchor="start" x="145.5" y="-189.5" font-family="Helvetica,sans-Serif" font-size="10.00">+ read()</text>
<text text-anchor="start" x="145.5" y="-178.5" font-family="Helvetica,sans-Serif" font-size="10.00">+ generateWriteBatch()</text>
<text text-anchor="start" x="145.5" y="-167.5" font-family="Helvetica,sans-Serif" font-size="10.00">+ generateIterator()</text>
</a>
</g>
</g>
<!-- Node2 -->
<g id="node2" class="node">
<title>Node2</title>
<g id="a_node2"><a xlink:href="structaltintegration_1_1adaptors_1_1InmemStorageImpl.html" target="_top" xlink:title=" ">
<polygon fill="white" stroke="#bfbfbf" points="0,-6 0,-118 119,-118 119,-6 0,-6"/>
<text text-anchor="start" x="8" y="-106" font-family="Helvetica,sans-Serif" font-size="10.00">altintegration::adaptors</text>
<text text-anchor="middle" x="59.5" y="-95" font-family="Helvetica,sans-Serif" font-size="10.00">::InmemStorageImpl</text>
<polyline fill="none" stroke="#bfbfbf" points="0,-88 119,-88 "/>
<text text-anchor="middle" x="59.5" y="-76" font-family="Helvetica,sans-Serif" font-size="10.00"> </text>
<polyline fill="none" stroke="#bfbfbf" points="0,-69 119,-69 "/>
<text text-anchor="start" x="8" y="-57" font-family="Helvetica,sans-Serif" font-size="10.00">+ ~InmemStorageImpl()</text>
<text text-anchor="start" x="8" y="-46" font-family="Helvetica,sans-Serif" font-size="10.00">+ write()</text>
<text text-anchor="start" x="8" y="-35" font-family="Helvetica,sans-Serif" font-size="10.00">+ read()</text>
<text text-anchor="start" x="8" y="-24" font-family="Helvetica,sans-Serif" font-size="10.00">+ generateWriteBatch()</text>
<text text-anchor="start" x="8" y="-13" font-family="Helvetica,sans-Serif" font-size="10.00">+ generateIterator()</text>
</a>
</g>
</g>
<!-- Node1&#45;&gt;Node2 -->
<g id="edge1" class="edge">
<title>Node1&#45;&gt;Node2</title>
<path fill="none" stroke="midnightblue" d="M139.72,-152.95C129.46,-141.45 118.81,-129.51 108.76,-118.23"/>
<polygon fill="none" stroke="midnightblue" points="137.13,-155.31 146.4,-160.44 142.36,-150.65 137.13,-155.31"/>
</g>
<!-- Node3 -->
<g id="node3" class="node">
<title>Node3</title>
<g id="a_node3"><a xlink:href="structaltintegration_1_1adaptors_1_1LevelDBStorage.html" target="_top" xlink:title=" ">
<polygon fill="white" stroke="#bfbfbf" points="137.5,-0.5 137.5,-123.5 253.5,-123.5 253.5,-0.5 137.5,-0.5"/>
<text text-anchor="start" x="145.5" y="-111.5" font-family="Helvetica,sans-Serif" font-size="10.00">altintegration::adaptors</text>
<text text-anchor="middle" x="195.5" y="-100.5" font-family="Helvetica,sans-Serif" font-size="10.00">::LevelDBStorage</text>
<polyline fill="none" stroke="#bfbfbf" points="137.5,-93.5 253.5,-93.5 "/>
<text text-anchor="middle" x="195.5" y="-81.5" font-family="Helvetica,sans-Serif" font-size="10.00"> </text>
<polyline fill="none" stroke="#bfbfbf" points="137.5,-74.5 253.5,-74.5 "/>
<text text-anchor="start" x="145.5" y="-62.5" font-family="Helvetica,sans-Serif" font-size="10.00">+ ~LevelDBStorage()</text>
<text text-anchor="start" x="145.5" y="-51.5" font-family="Helvetica,sans-Serif" font-size="10.00">+ LevelDBStorage()</text>
<text text-anchor="start" x="145.5" y="-40.5" font-family="Helvetica,sans-Serif" font-size="10.00">+ write()</text>
<text text-anchor="start" x="145.5" y="-29.5" font-family="Helvetica,sans-Serif" font-size="10.00">+ read()</text>
<text text-anchor="start" x="145.5" y="-18.5" font-family="Helvetica,sans-Serif" font-size="10.00">+ generateWriteBatch()</text>
<text text-anchor="start" x="145.5" y="-7.5" font-family="Helvetica,sans-Serif" font-size="10.00">+ generateIterator()</text>
</a>
</g>
</g>
<!-- Node1&#45;&gt;Node3 -->
<g id="edge2" class="edge">
<title>Node1&#45;&gt;Node3</title>
<path fill="none" stroke="midnightblue" d="M195.5,-150.22C195.5,-141.4 195.5,-132.39 195.5,-123.66"/>
<polygon fill="none" stroke="midnightblue" points="192,-150.44 195.5,-160.44 199,-150.44 192,-150.44"/>
</g>
<!-- Node4 -->
<g id="node4" class="node">
<title>Node4</title>
<g id="a_node4"><a xlink:href="structaltintegration_1_1adaptors_1_1RocksDBStorage.html" target="_top" xlink:title=" ">
<polygon fill="white" stroke="#bfbfbf" points="271.5,-0.5 271.5,-123.5 387.5,-123.5 387.5,-0.5 271.5,-0.5"/>
<text text-anchor="start" x="279.5" y="-111.5" font-family="Helvetica,sans-Serif" font-size="10.00">altintegration::adaptors</text>
<text text-anchor="middle" x="329.5" y="-100.5" font-family="Helvetica,sans-Serif" font-size="10.00">::RocksDBStorage</text>
<polyline fill="none" stroke="#bfbfbf" points="271.5,-93.5 387.5,-93.5 "/>
<text text-anchor="middle" x="329.5" y="-81.5" font-family="Helvetica,sans-Serif" font-size="10.00"> </text>
<polyline fill="none" stroke="#bfbfbf" points="271.5,-74.5 387.5,-74.5 "/>
<text text-anchor="start" x="279.5" y="-62.5" font-family="Helvetica,sans-Serif" font-size="10.00">+ ~RocksDBStorage()</text>
<text text-anchor="start" x="279.5" y="-51.5" font-family="Helvetica,sans-Serif" font-size="10.00">+ RocksDBStorage()</text>
<text text-anchor="start" x="279.5" y="-40.5" font-family="Helvetica,sans-Serif" font-size="10.00">+ write()</text>
<text text-anchor="start" x="279.5" y="-29.5" font-family="Helvetica,sans-Serif" font-size="10.00">+ read()</text>
<text text-anchor="start" x="279.5" y="-18.5" font-family="Helvetica,sans-Serif" font-size="10.00">+ generateWriteBatch()</text>
<text text-anchor="start" x="279.5" y="-7.5" font-family="Helvetica,sans-Serif" font-size="10.00">+ generateIterator()</text>
</a>
</g>
</g>
<!-- Node1&#45;&gt;Node4 -->
<g id="edge3" class="edge">
<title>Node1&#45;&gt;Node4</title>
<path fill="none" stroke="midnightblue" d="M250.6,-152.8C259.06,-143.17 267.78,-133.24 276.2,-123.66"/>
<polygon fill="none" stroke="midnightblue" points="247.85,-150.62 243.88,-160.44 253.11,-155.24 247.85,-150.62"/>
</g>
</g>
</svg>
