<?xml version="1.0" encoding="UTF-8" standalone="no"?>
<!DOCTYPE svg PUBLIC "-//W3C//DTD SVG 1.1//EN"
 "http://www.w3.org/Graphics/SVG/1.1/DTD/svg11.dtd">
<!-- Generated by graphviz version 2.50.0 (20220203.2022)
 -->
<!-- Title: altintegration::AltChainParams Pages: 1 -->
<svg width="425pt" height="1202pt"
 viewBox="0.00 0.00 425.00 1202.00" xmlns="http://www.w3.org/2000/svg" xmlns:xlink="http://www.w3.org/1999/xlink">
<g id="graph0" class="graph" transform="scale(1 1) rotate(0) translate(4 1198)">
<title>altintegration::AltChainParams</title>
<polygon fill="white" stroke="transparent" points="-4,4 -4,-1198 421,-1198 421,4 -4,4"/>
<!-- Node1 -->
<g id="node1" class="node">
<title>Node1</title>
<g id="a_node1"><a xlink:title="Base class for all Altchain&#45;related configs.">
<polygon fill="#bfbfbf" stroke="black" points="0,-0.5 0,-310.5 170,-310.5 170,-0.5 0,-0.5"/>
<text text-anchor="start" x="8" y="-298.5" font-family="Helvetica,sans-Serif" font-size="10.00">altintegration::AltChain</text>
<text text-anchor="middle" x="85" y="-287.5" font-family="Helvetica,sans-Serif" font-size="10.00">Params</text>
<polyline fill="none" stroke="black" points="0,-280.5 170,-280.5 "/>
<text text-anchor="start" x="8" y="-268.5" font-family="Helvetica,sans-Serif" font-size="10.00">+ mMaxReorgBlocks</text>
<text text-anchor="start" x="8" y="-257.5" font-family="Helvetica,sans-Serif" font-size="10.00">+ mMaxAltchainFutureBlockTime</text>
<text text-anchor="start" x="8" y="-246.5" font-family="Helvetica,sans-Serif" font-size="10.00">+ mKeystoneInterval</text>
<text text-anchor="start" x="8" y="-235.5" font-family="Helvetica,sans-Serif" font-size="10.00">+ mFinalityDelay</text>
<text text-anchor="start" x="8" y="-224.5" font-family="Helvetica,sans-Serif" font-size="10.00">+ mEndorsementSettlementInterval</text>
<text text-anchor="start" x="8" y="-213.5" font-family="Helvetica,sans-Serif" font-size="10.00">+ mPreserveBlocksBehindFinal</text>
<text text-anchor="start" x="8" y="-202.5" font-family="Helvetica,sans-Serif" font-size="10.00">+ mMaxPopDataSize</text>
<text text-anchor="start" x="8" y="-191.5" font-family="Helvetica,sans-Serif" font-size="10.00">+ mMaxVbkBlocksInAltBlock</text>
<text text-anchor="start" x="8" y="-180.5" font-family="Helvetica,sans-Serif" font-size="10.00">+ mMaxVTBsInAltBlock</text>
<text text-anchor="start" x="8" y="-169.5" font-family="Helvetica,sans-Serif" font-size="10.00">+ mMaxATVsInAltBlock</text>
<text text-anchor="start" x="8" y="-158.5" font-family="Helvetica,sans-Serif" font-size="10.00">+ MAX_REORG_BLOCKS_MIN</text>
<text text-anchor="start" x="8" y="-147.5" font-family="Helvetica,sans-Serif" font-size="10.00">_VALUE</text>
<polyline fill="none" stroke="black" points="0,-140.5 170,-140.5 "/>
<text text-anchor="start" x="8" y="-128.5" font-family="Helvetica,sans-Serif" font-size="10.00">+ ~AltChainParams()</text>
<text text-anchor="start" x="8" y="-117.5" font-family="Helvetica,sans-Serif" font-size="10.00">+ maxWorkerQueueSize()</text>
<text text-anchor="start" x="8" y="-106.5" font-family="Helvetica,sans-Serif" font-size="10.00">+ getKeystoneInterval()</text>
<text text-anchor="start" x="8" y="-95.5" font-family="Helvetica,sans-Serif" font-size="10.00">+ getFinalityDelay()</text>
<text text-anchor="start" x="8" y="-84.5" font-family="Helvetica,sans-Serif" font-size="10.00">+ getForkResolutionLookUpTable()</text>
<text text-anchor="start" x="8" y="-73.5" font-family="Helvetica,sans-Serif" font-size="10.00">+ getEndorsementSettlement</text>
<text text-anchor="start" x="8" y="-62.5" font-family="Helvetica,sans-Serif" font-size="10.00">Interval()</text>
<text text-anchor="start" x="8" y="-51.5" font-family="Helvetica,sans-Serif" font-size="10.00">+ getPayoutParams()</text>
<text text-anchor="start" x="8" y="-40.5" font-family="Helvetica,sans-Serif" font-size="10.00">+ getMaxVbkBlocksInAltBlock()</text>
<text text-anchor="start" x="8" y="-29.5" font-family="Helvetica,sans-Serif" font-size="10.00">+ getMaxVTBsInAltBlock()</text>
<text text-anchor="start" x="8" y="-18.5" font-family="Helvetica,sans-Serif" font-size="10.00">+ getMaxATVsInAltBlock()</text>
<text text-anchor="start" x="8" y="-7.5" font-family="Helvetica,sans-Serif" font-size="10.00">and 8 more...</text>
</a>
</g>
</g>
<!-- Node2 -->
<g id="node2" class="node">
<title>Node2</title>
<g id="a_node2"><a xlink:title=" ">
<polygon fill="white" stroke="black" points="161,-358.5 161,-426.5 305,-426.5 305,-358.5 161,-358.5"/>
<text text-anchor="start" x="169" y="-414.5" font-family="Helvetica,sans-Serif" font-size="10.00">std::shared_ptr&lt; altintegration</text>
<text text-anchor="middle" x="233" y="-403.5" font-family="Helvetica,sans-Serif" font-size="10.00">::PopPayoutsParams &gt;</text>
<polyline fill="none" stroke="black" points="161,-396.5 305,-396.5 "/>
<text text-anchor="middle" x="233" y="-384.5" font-family="Helvetica,sans-Serif" font-size="10.00"> </text>
<polyline fill="none" stroke="black" points="161,-377.5 305,-377.5 "/>
<text text-anchor="start" x="169" y="-365.5" font-family="Helvetica,sans-Serif" font-size="10.00">+ operator&#45;&gt;()</text>
</a>
</g>
</g>
<!-- Node2&#45;&gt;Node1 -->
<g id="edge1" class="edge">
<title>Node2&#45;&gt;Node1</title>
<path fill="none" stroke="#404040" d="M212.11,-358.33C202.32,-342.78 189.9,-323.07 176.69,-302.09"/>
<polygon fill="none" stroke="#404040" points="176.54,-301.85 169.96,-298.91 170.15,-291.7 176.73,-294.64 176.54,-301.85"/>
<text text-anchor="middle" x="249.5" y="-332" font-family="Helvetica,sans-Serif" font-size="10.00"> +mPopPayoutsParams</text>
</g>
<!-- Node3 -->
<g id="node3" class="node">
<title>Node3</title>
<g id="a_node3"><a xlink:href="structaltintegration_1_1PopPayoutsParams.html" target="_top" xlink:title="Defines config for POP payouts.">
<polygon fill="white" stroke="black" points="97,-474.5 97,-784.5 257,-784.5 257,-474.5 97,-474.5"/>
<text text-anchor="start" x="105" y="-772.5" font-family="Helvetica,sans-Serif" font-size="10.00">altintegration::PopPayouts</text>
<text text-anchor="middle" x="177" y="-761.5" font-family="Helvetica,sans-Serif" font-size="10.00">Params</text>
<polyline fill="none" stroke="black" points="97,-754.5 257,-754.5 "/>
<text text-anchor="start" x="105" y="-742.5" font-family="Helvetica,sans-Serif" font-size="10.00">+ mStartOfSlope</text>
<text text-anchor="start" x="105" y="-731.5" font-family="Helvetica,sans-Serif" font-size="10.00">+ mSlopeNormal</text>
<text text-anchor="start" x="105" y="-720.5" font-family="Helvetica,sans-Serif" font-size="10.00">+ mSlopeKeystone</text>
<text text-anchor="start" x="105" y="-709.5" font-family="Helvetica,sans-Serif" font-size="10.00">+ mKeystoneRound</text>
<text text-anchor="start" x="105" y="-698.5" font-family="Helvetica,sans-Serif" font-size="10.00">+ mPayoutRounds</text>
<text text-anchor="start" x="105" y="-687.5" font-family="Helvetica,sans-Serif" font-size="10.00">+ mFlatScoreRound</text>
<text text-anchor="start" x="105" y="-676.5" font-family="Helvetica,sans-Serif" font-size="10.00">+ mUseFlatScoreRound</text>
<text text-anchor="start" x="105" y="-665.5" font-family="Helvetica,sans-Serif" font-size="10.00">+ mMaxScoreThresholdNormal</text>
<text text-anchor="start" x="105" y="-654.5" font-family="Helvetica,sans-Serif" font-size="10.00">+ mMaxScoreThresholdKeystone</text>
<text text-anchor="start" x="105" y="-643.5" font-family="Helvetica,sans-Serif" font-size="10.00">+ mDifficultyAveragingInterval</text>
<text text-anchor="start" x="105" y="-632.5" font-family="Helvetica,sans-Serif" font-size="10.00">+ mPopPayoutDelay</text>
<polyline fill="none" stroke="black" points="97,-625.5 257,-625.5 "/>
<text text-anchor="start" x="105" y="-613.5" font-family="Helvetica,sans-Serif" font-size="10.00">+ startOfSlope()</text>
<text text-anchor="start" x="105" y="-602.5" font-family="Helvetica,sans-Serif" font-size="10.00">+ slopeNormal()</text>
<text text-anchor="start" x="105" y="-591.5" font-family="Helvetica,sans-Serif" font-size="10.00">+ slopeKeystone()</text>
<text text-anchor="start" x="105" y="-580.5" font-family="Helvetica,sans-Serif" font-size="10.00">+ keystoneRound()</text>
<text text-anchor="start" x="105" y="-569.5" font-family="Helvetica,sans-Serif" font-size="10.00">+ payoutRounds()</text>
<text text-anchor="start" x="105" y="-558.5" font-family="Helvetica,sans-Serif" font-size="10.00">+ flatScoreRound()</text>
<text text-anchor="start" x="105" y="-547.5" font-family="Helvetica,sans-Serif" font-size="10.00">+ useFlatScoreRound()</text>
<text text-anchor="start" x="105" y="-536.5" font-family="Helvetica,sans-Serif" font-size="10.00">+ roundRatios()</text>
<text text-anchor="start" x="105" y="-525.5" font-family="Helvetica,sans-Serif" font-size="10.00">+ maxScoreThresholdNormal()</text>
<text text-anchor="start" x="105" y="-514.5" font-family="Helvetica,sans-Serif" font-size="10.00">+ maxScoreThresholdKeystone()</text>
<text text-anchor="start" x="105" y="-503.5" font-family="Helvetica,sans-Serif" font-size="10.00">+ difficultyAveragingInterval()</text>
<text text-anchor="start" x="105" y="-492.5" font-family="Helvetica,sans-Serif" font-size="10.00">+ relativeScoreLookupTable()</text>
<text text-anchor="start" x="105" y="-481.5" font-family="Helvetica,sans-Serif" font-size="10.00">+ getPopPayoutDelay()</text>
</a>
</g>
</g>
<!-- Node3&#45;&gt;Node2 -->
<g id="edge2" class="edge">
<title>Node3&#45;&gt;Node2</title>
<path fill="none" stroke="#404040" d="M213.73,-474.37C216.81,-461.43 219.74,-449.14 222.34,-438.23"/>
<polygon fill="none" stroke="#404040" points="222.35,-438.21 219.85,-431.44 225.13,-426.54 227.63,-433.3 222.35,-438.21"/>
<text text-anchor="middle" x="230" y="-448" font-family="Helvetica,sans-Serif" font-size="10.00"> +ptr</text>
</g>
<!-- Node4 -->
<g id="node4" class="node">
<title>Node4</title>
<g id="a_node4"><a xlink:title=" ">
<polygon fill="white" stroke="black" points="123.5,-879.5 123.5,-936.5 230.5,-936.5 230.5,-879.5 123.5,-879.5"/>
<text text-anchor="middle" x="177" y="-924.5" font-family="Helvetica,sans-Serif" font-size="10.00">std::vector&lt; double &gt;</text>
<polyline fill="none" stroke="black" points="123.5,-917.5 230.5,-917.5 "/>
<text text-anchor="start" x="131.5" y="-905.5" font-family="Helvetica,sans-Serif" font-size="10.00">+ elements</text>
<polyline fill="none" stroke="black" points="123.5,-898.5 230.5,-898.5 "/>
<text text-anchor="middle" x="177" y="-886.5" font-family="Helvetica,sans-Serif" font-size="10.00"> </text>
</a>
</g>
</g>
<!-- Node4&#45;&gt;Node3 -->
<g id="edge3" class="edge">
<title>Node4&#45;&gt;Node3</title>
<path fill="none" stroke="#404040" d="M177,-879.48C177,-858.95 177,-829.01 177,-796.97"/>
<polygon fill="none" stroke="#404040" points="177,-796.6 173,-790.6 177,-784.6 181,-790.6 177,-796.6"/>
<text text-anchor="middle" x="213.5" y="-835" font-family="Helvetica,sans-Serif" font-size="10.00"> +mLookupTable</text>
<text text-anchor="middle" x="213.5" y="-824" font-family="Helvetica,sans-Serif" font-size="10.00">+mRoundRatios</text>
</g>
<!-- Node5 -->
<g id="node5" class="node">
<title>Node5</title>
<g id="a_node5"><a xlink:title=" ">
<polygon fill="white" stroke="black" points="135,-1031.5 135,-1088.5 219,-1088.5 219,-1031.5 135,-1031.5"/>
<text text-anchor="middle" x="177" y="-1076.5" font-family="Helvetica,sans-Serif" font-size="10.00">std::vector&lt; T &gt;</text>
<polyline fill="none" stroke="black" points="135,-1069.5 219,-1069.5 "/>
<text text-anchor="middle" x="177" y="-1057.5" font-family="Helvetica,sans-Serif" font-size="10.00"> </text>
<polyline fill="none" stroke="black" points="135,-1050.5 219,-1050.5 "/>
<text text-anchor="middle" x="177" y="-1038.5" font-family="Helvetica,sans-Serif" font-size="10.00"> </text>
</a>
</g>
</g>
<!-- Node5&#45;&gt;Node4 -->
<g id="edge4" class="edge">
<title>Node5&#45;&gt;Node4</title>
<path fill="none" stroke="orange" d="M175.23,-1021.23C175.14,-1018.45 175.06,-1015.68 175,-1013 174.44,-987.23 174.44,-980.77 175,-955 175.13,-949.09 175.35,-942.75 175.6,-936.72"/>
<polygon fill="orange" stroke="orange" points="171.73,-1021.41 175.6,-1031.28 178.73,-1021.15 171.73,-1021.41"/>
<text text-anchor="middle" x="199" y="-981.5" font-family="Helvetica,sans-Serif" font-size="10.00"> &lt; double &gt;</text>
</g>
<!-- Node8 -->
<g id="node8" class="node">
<title>Node8</title>
<g id="a_node8"><a xlink:title=" ">
<polygon fill="white" stroke="black" points="25.5,-803.5 25.5,-860.5 138.5,-860.5 138.5,-803.5 25.5,-803.5"/>
<text text-anchor="middle" x="82" y="-848.5" font-family="Helvetica,sans-Serif" font-size="10.00">std::vector&lt; uint32_t &gt;</text>
<polyline fill="none" stroke="black" points="25.5,-841.5 138.5,-841.5 "/>
<text text-anchor="start" x="33.5" y="-829.5" font-family="Helvetica,sans-Serif" font-size="10.00">+ elements</text>
<polyline fill="none" stroke="black" points="25.5,-822.5 138.5,-822.5 "/>
<text text-anchor="middle" x="82" y="-810.5" font-family="Helvetica,sans-Serif" font-size="10.00"> </text>
</a>
</g>
</g>
<!-- Node5&#45;&gt;Node8 -->
<g id="edge9" class="edge">
<title>Node5&#45;&gt;Node8</title>
<path fill="none" stroke="orange" d="M127.36,-1026.1C123.45,-1022.05 119.89,-1017.67 117,-1013 87.5,-965.36 82.02,-898.15 81.48,-860.79"/>
<polygon fill="orange" stroke="orange" points="125.06,-1028.74 134.75,-1033.03 129.85,-1023.63 125.06,-1028.74"/>
<text text-anchor="middle" x="144" y="-981.5" font-family="Helvetica,sans-Serif" font-size="10.00"> &lt; uint32_t &gt;</text>
</g>
<!-- Node6 -->
<g id="node6" class="node">
<title>Node6</title>
<g id="a_node6"><a xlink:title=" ">
<polygon fill="white" stroke="#bfbfbf" points="216.5,-1136.5 216.5,-1193.5 245.5,-1193.5 245.5,-1136.5 216.5,-1136.5"/>
<text text-anchor="middle" x="231" y="-1181.5" font-family="Helvetica,sans-Serif" font-size="10.00">T</text>
<polyline fill="none" stroke="#bfbfbf" points="216.5,-1174.5 245.5,-1174.5 "/>
<text text-anchor="middle" x="231" y="-1162.5" font-family="Helvetica,sans-Serif" font-size="10.00"> </text>
<polyline fill="none" stroke="#bfbfbf" points="216.5,-1155.5 245.5,-1155.5 "/>
<text text-anchor="middle" x="231" y="-1143.5" font-family="Helvetica,sans-Serif" font-size="10.00"> </text>
</a>
</g>
</g>
<!-- Node6&#45;&gt;Node5 -->
<g id="edge5" class="edge">
<title>Node6&#45;&gt;Node5</title>
<path fill="none" stroke="#404040" d="M216.43,-1138.84C212.63,-1132.11 208.6,-1124.82 205,-1118 201.88,-1112.09 198.67,-1105.78 195.58,-1099.59"/>
<polygon fill="none" stroke="#404040" points="195.52,-1099.47 189.28,-1095.86 190.21,-1088.7 196.45,-1092.32 195.52,-1099.47"/>
<text text-anchor="middle" x="229.5" y="-1110" font-family="Helvetica,sans-Serif" font-size="10.00"> +elements</text>
</g>
<!-- Node7 -->
<g id="node7" class="node">
<title>Node7</title>
<g id="a_node7"><a xlink:title=" ">
<polygon fill="white" stroke="black" points="232.5,-955.5 232.5,-1012.5 335.5,-1012.5 335.5,-955.5 232.5,-955.5"/>
<text text-anchor="middle" x="284" y="-1000.5" font-family="Helvetica,sans-Serif" font-size="10.00">std::shared_ptr&lt; T &gt;</text>
<polyline fill="none" stroke="black" points="232.5,-993.5 335.5,-993.5 "/>
<text text-anchor="middle" x="284" y="-981.5" font-family="Helvetica,sans-Serif" font-size="10.00"> </text>
<polyline fill="none" stroke="black" points="232.5,-974.5 335.5,-974.5 "/>
<text text-anchor="start" x="240.5" y="-962.5" font-family="Helvetica,sans-Serif" font-size="10.00">+ operator&#45;&gt;()</text>
</a>
</g>
</g>
<!-- Node6&#45;&gt;Node7 -->
<g id="edge7" class="edge">
<title>Node6&#45;&gt;Node7</title>
<path fill="none" stroke="#404040" d="M245.5,-1137.72C248.61,-1131.39 251.66,-1124.56 254,-1118 264.92,-1087.4 272.75,-1051.38 277.67,-1024.55"/>
<polygon fill="none" stroke="#404040" points="277.7,-1024.36 274.81,-1017.76 279.79,-1012.55 282.69,-1019.15 277.7,-1024.36"/>
<text text-anchor="middle" x="268" y="-1110" font-family="Helvetica,sans-Serif" font-size="10.00"> +ptr</text>
</g>
<!-- Node7&#45;&gt;Node2 -->
<g id="edge6" class="edge">
<title>Node7&#45;&gt;Node2</title>
<path fill="none" stroke="orange" d="M287.15,-945.29C293.29,-860.12 303.23,-646.8 266,-474 262.53,-457.91 256.04,-440.92 249.72,-426.73"/>
<polygon fill="orange" stroke="orange" points="283.66,-945.04 286.4,-955.27 290.64,-945.56 283.66,-945.04"/>
<text text-anchor="start" x="293" y="-835" font-family="Helvetica,sans-Serif" font-size="10.00"> &lt; altintegration::PopPayouts</text>
<text text-anchor="middle" x="355" y="-824" font-family="Helvetica,sans-Serif" font-size="10.00">Params &gt;</text>
</g>
<!-- Node8&#45;&gt;Node1 -->
<g id="edge8" class="edge">
<title>Node8&#45;&gt;Node1</title>
<path fill="none" stroke="#404040" d="M80.83,-803.39C78.28,-740.03 72.67,-579.36 75,-445 75.69,-405.41 76.9,-362.77 78.25,-322.74"/>
<polygon fill="none" stroke="#404040" points="78.26,-322.68 74.46,-316.55 78.67,-310.69 82.46,-316.82 78.26,-322.68"/>
<text text-anchor="middle" x="145.5" y="-448" font-family="Helvetica,sans-Serif" font-size="10.00"> +mForkResolutionLookUpTable</text>
</g>
</g>
</svg>
