<?xml version="1.0" encoding="UTF-8" standalone="no"?>
<!DOCTYPE svg PUBLIC "-//W3C//DTD SVG 1.1//EN"
 "http://www.w3.org/Graphics/SVG/1.1/DTD/svg11.dtd">
<!-- Generated by graphviz version 2.49.3 (20211027.1534)
 -->
<!-- Title: altintegration::DefaultPopRewardsCalculator Pages: 1 -->
<!--zoomable 1682 -->
<svg id="main" version="1.1" xmlns="http://www.w3.org/2000/svg" xmlns:xlink="http://www.w3.org/1999/xlink" xml:space="preserve" onload="init(evt)">
<style type="text/css"><![CDATA[
.edge:hover path { stroke: red; }
.edge:hover polygon { stroke: red; fill: red; }
]]></style>
<script type="text/javascript"><![CDATA[
var edges = document.getElementsByTagName('g');
if (edges && edges.length) {
  for (var i=0;i<edges.length;i++) {
    if (edges[i].id.substr(0,4)=='edge') {
      edges[i].setAttribute('class','edge');
    }
  }
}
]]></script>
        <defs>
                <circle id="rim" cx="0" cy="0" r="7"/>
                <circle id="rim2" cx="0" cy="0" r="3.5"/>
                <g id="zoomPlus">
                        <use xlink:href="#rim" fill="#404040">
                                <set attributeName="fill" to="#808080" begin="zoomplus.mouseover" end="zoomplus.mouseout"/>
                        </use>
                        <path d="M-4,0h8M0,-4v8" fill="none" stroke="white" stroke-width="1.5" pointer-events="none"/>
                </g>
                <g id="zoomMin">
                        <use xlink:href="#rim" fill="#404040">
                                <set attributeName="fill" to="#808080" begin="zoomminus.mouseover" end="zoomminus.mouseout"/>
                        </use>
                        <path d="M-4,0h8" fill="none" stroke="white" stroke-width="1.5" pointer-events="none"/>
                </g>
                <g id="dirArrow">
                        <path fill="none" stroke="white" stroke-width="1.5" d="M0,-3.0v7 M-2.5,-0.5L0,-3.0L2.5,-0.5"/>
                </g>
               <g id="resetDef">
                       <use xlink:href="#rim2" fill="#404040">
                               <set attributeName="fill" to="#808080" begin="reset.mouseover" end="reset.mouseout"/>
                       </use>
               </g>
        </defs>

<script type="text/javascript">
var viewWidth = 447;
var viewHeight = 1682;
var sectionId = 'dynsection-1';
</script>
<script xlink:href="svgpan.js"/>
<svg id="graph" class="graph">
<g id="viewport">
<title>altintegration::DefaultPopRewardsCalculator</title>
<polygon fill="white" stroke="transparent" points="-4,4 -4,-1678 442.5,-1678 442.5,4 -4,4"/>
<!-- Node1 -->
<g id="node1" class="node">
<title>Node1</title>
<g id="a_node1"><a xlink:title=" ">
<polygon fill="#bfbfbf" stroke="black" points="0.5,-0.5 0.5,-189.5 166.5,-189.5 166.5,-0.5 0.5,-0.5"/>
<text text-anchor="start" x="8.5" y="-177.5" font-family="Helvetica,sans-Serif" font-size="10.00">altintegration::DefaultPop</text>
<text text-anchor="middle" x="83.5" y="-166.5" font-family="Helvetica,sans-Serif" font-size="10.00">RewardsCalculator</text>
<polyline fill="none" stroke="black" points="0.5,-159.5 166.5,-159.5 "/>
<text text-anchor="middle" x="83.5" y="-147.5" font-family="Helvetica,sans-Serif" font-size="10.00"> </text>
<polyline fill="none" stroke="black" points="0.5,-140.5 166.5,-140.5 "/>
<text text-anchor="start" x="8.5" y="-128.5" font-family="Helvetica,sans-Serif" font-size="10.00">+ DefaultPopRewardsCalculator()</text>
<text text-anchor="start" x="8.5" y="-117.5" font-family="Helvetica,sans-Serif" font-size="10.00">+ ~DefaultPopRewardsCalculator()</text>
<text text-anchor="start" x="8.5" y="-106.5" font-family="Helvetica,sans-Serif" font-size="10.00">+ getPopPayout()</text>
<text text-anchor="start" x="8.5" y="-95.5" font-family="Helvetica,sans-Serif" font-size="10.00">+ calculatePayouts()</text>
<text text-anchor="start" x="8.5" y="-84.5" font-family="Helvetica,sans-Serif" font-size="10.00">+ scoreFromEndorsements()</text>
<text text-anchor="start" x="8.5" y="-73.5" font-family="Helvetica,sans-Serif" font-size="10.00">+ getRoundForBlockNumber()</text>
<text text-anchor="start" x="8.5" y="-62.5" font-family="Helvetica,sans-Serif" font-size="10.00">+ calculateBlockReward()</text>
<text text-anchor="start" x="8.5" y="-51.5" font-family="Helvetica,sans-Serif" font-size="10.00">+ calculateMinerReward()</text>
<text text-anchor="start" x="8.5" y="-40.5" font-family="Helvetica,sans-Serif" font-size="10.00"># getScoreMultiplierFromRelative</text>
<text text-anchor="start" x="8.5" y="-29.5" font-family="Helvetica,sans-Serif" font-size="10.00">Block()</text>
<text text-anchor="start" x="8.5" y="-18.5" font-family="Helvetica,sans-Serif" font-size="10.00"># calculateDifficulty()</text>
<text text-anchor="start" x="8.5" y="-7.5" font-family="Helvetica,sans-Serif" font-size="10.00"># calculatePayoutsInner()</text>
</a>
</g>
</g>
<!-- Node2 -->
<g id="node2" class="node">
<title>Node2</title>
<g id="a_node2"><a xlink:href="structaltintegration_1_1PopRewardsCalculator.html" target="_top" xlink:title=" ">
<polygon fill="white" stroke="black" points="0,-292.5 0,-371.5 135,-371.5 135,-292.5 0,-292.5"/>
<text text-anchor="start" x="8" y="-359.5" font-family="Helvetica,sans-Serif" font-size="10.00">altintegration::PopRewards</text>
<text text-anchor="middle" x="67.5" y="-348.5" font-family="Helvetica,sans-Serif" font-size="10.00">Calculator</text>
<polyline fill="none" stroke="black" points="0,-341.5 135,-341.5 "/>
<text text-anchor="middle" x="67.5" y="-329.5" font-family="Helvetica,sans-Serif" font-size="10.00"> </text>
<polyline fill="none" stroke="black" points="0,-322.5 135,-322.5 "/>
<text text-anchor="start" x="8" y="-310.5" font-family="Helvetica,sans-Serif" font-size="10.00">+ ~PopRewardsCalculator()</text>
<text text-anchor="start" x="8" y="-299.5" font-family="Helvetica,sans-Serif" font-size="10.00">+ getPopPayout()</text>
</a>
</g>
</g>
<!-- Node2&#45;&gt;Node1 -->
<g id="edge1" class="edge">
<title>Node2&#45;&gt;Node1</title>
<path fill="none" stroke="midnightblue" d="M70.82,-282.2C72.65,-255.43 74.97,-221.31 77.13,-189.62"/>
<polygon fill="none" stroke="midnightblue" points="67.31,-282.24 70.12,-292.46 74.3,-282.72 67.31,-282.24"/>
</g>
<!-- Node3 -->
<g id="node3" class="node">
<title>Node3</title>
<g id="a_node3"><a xlink:href="structaltintegration_1_1AltBlockTree.html" target="_top" xlink:title="Represents simplified view on Altchain&#39;s block tree, maintains VBK tree and BTC tree.">
<polygon fill="white" stroke="black" points="153,-237.5 153,-426.5 302,-426.5 302,-237.5 153,-237.5"/>
<text text-anchor="middle" x="227.5" y="-414.5" font-family="Helvetica,sans-Serif" font-size="10.00">altintegration::AltBlockTree</text>
<polyline fill="none" stroke="black" points="153,-407.5 302,-407.5 "/>
<text text-anchor="start" x="161" y="-395.5" font-family="Helvetica,sans-Serif" font-size="10.00">+ onInvalidBlockConnected</text>
<text text-anchor="start" x="161" y="-384.5" font-family="Helvetica,sans-Serif" font-size="10.00">+ onBlockConnected</text>
<polyline fill="none" stroke="black" points="153,-377.5 302,-377.5 "/>
<text text-anchor="start" x="161" y="-365.5" font-family="Helvetica,sans-Serif" font-size="10.00">+ ~AltBlockTree()</text>
<text text-anchor="start" x="161" y="-354.5" font-family="Helvetica,sans-Serif" font-size="10.00">+ AltBlockTree()</text>
<text text-anchor="start" x="161" y="-343.5" font-family="Helvetica,sans-Serif" font-size="10.00">+ bootstrap()</text>
<text text-anchor="start" x="161" y="-332.5" font-family="Helvetica,sans-Serif" font-size="10.00">+ acceptBlockHeader()</text>
<text text-anchor="start" x="161" y="-321.5" font-family="Helvetica,sans-Serif" font-size="10.00">+ acceptBlock()</text>
<text text-anchor="start" x="161" y="-310.5" font-family="Helvetica,sans-Serif" font-size="10.00">+ acceptBlock()</text>
<text text-anchor="start" x="161" y="-299.5" font-family="Helvetica,sans-Serif" font-size="10.00">+ acceptBlock()</text>
<text text-anchor="start" x="161" y="-288.5" font-family="Helvetica,sans-Serif" font-size="10.00">+ makeConnectedLeafPayload</text>
<text text-anchor="start" x="161" y="-277.5" font-family="Helvetica,sans-Serif" font-size="10.00">Mutator()</text>
<text text-anchor="start" x="161" y="-266.5" font-family="Helvetica,sans-Serif" font-size="10.00">+ getConnectedTipsAfter()</text>
<text text-anchor="start" x="161" y="-255.5" font-family="Helvetica,sans-Serif" font-size="10.00">+ loadBlockForward()</text>
<text text-anchor="start" x="161" y="-244.5" font-family="Helvetica,sans-Serif" font-size="10.00">and 6 more...</text>
</a>
</g>
</g>
<!-- Node3&#45;&gt;Node1 -->
<g id="edge2" class="edge">
<title>Node3&#45;&gt;Node1</title>
<path fill="none" stroke="#404040" d="M170.17,-237.45C162.64,-225.15 154.88,-212.48 147.24,-200.02"/>
<polygon fill="none" stroke="#404040" points="147.13,-199.85 140.59,-196.82 140.86,-189.62 147.41,-192.64 147.13,-199.85"/>
<text text-anchor="middle" x="170.5" y="-211" font-family="Helvetica,sans-Serif" font-size="10.00"> #tree_</text>
</g>
<!-- Node4 -->
<g id="node4" class="node">
<title>Node4</title>
<g id="a_node4"><a xlink:href="structaltintegration_1_1BaseBlockTree.html" target="_top" xlink:title=" ">
<polygon fill="white" stroke="black" points="151.5,-464.5 151.5,-774.5 303.5,-774.5 303.5,-464.5 151.5,-464.5"/>
<text text-anchor="start" x="159.5" y="-762.5" font-family="Helvetica,sans-Serif" font-size="10.00">altintegration::BaseBlock</text>
<text text-anchor="middle" x="227.5" y="-751.5" font-family="Helvetica,sans-Serif" font-size="10.00">Tree&lt; AltBlock &gt;</text>
<polyline fill="none" stroke="black" points="151.5,-744.5 303.5,-744.5 "/>
<text text-anchor="start" x="159.5" y="-732.5" font-family="Helvetica,sans-Serif" font-size="10.00">+ onBlockBeforeDeallocated</text>
<text text-anchor="start" x="159.5" y="-721.5" font-family="Helvetica,sans-Serif" font-size="10.00">+ onBlockValidityChanged</text>
<text text-anchor="start" x="159.5" y="-710.5" font-family="Helvetica,sans-Serif" font-size="10.00">+ onBeforeOverrideTip</text>
<text text-anchor="start" x="159.5" y="-699.5" font-family="Helvetica,sans-Serif" font-size="10.00"># isLoadingBlocks_</text>
<text text-anchor="start" x="159.5" y="-688.5" font-family="Helvetica,sans-Serif" font-size="10.00"># isLoaded_</text>
<text text-anchor="start" x="159.5" y="-677.5" font-family="Helvetica,sans-Serif" font-size="10.00"># tips_</text>
<text text-anchor="start" x="159.5" y="-666.5" font-family="Helvetica,sans-Serif" font-size="10.00"># activeChain_</text>
<text text-anchor="start" x="159.5" y="-655.5" font-family="Helvetica,sans-Serif" font-size="10.00"># finalizedPayloadsIndex_</text>
<text text-anchor="start" x="159.5" y="-644.5" font-family="Helvetica,sans-Serif" font-size="10.00"># payloadsIndex_</text>
<polyline fill="none" stroke="black" points="151.5,-637.5 303.5,-637.5 "/>
<text text-anchor="start" x="159.5" y="-625.5" font-family="Helvetica,sans-Serif" font-size="10.00">+ getTips()</text>
<text text-anchor="start" x="159.5" y="-614.5" font-family="Helvetica,sans-Serif" font-size="10.00">+ getBlocks()</text>
<text text-anchor="start" x="159.5" y="-603.5" font-family="Helvetica,sans-Serif" font-size="10.00">+ getAllBlocks()</text>
<text text-anchor="start" x="159.5" y="-592.5" font-family="Helvetica,sans-Serif" font-size="10.00">+ getBlockProvider()</text>
<text text-anchor="start" x="159.5" y="-581.5" font-family="Helvetica,sans-Serif" font-size="10.00">+ ~BaseBlockTree()</text>
<text text-anchor="start" x="159.5" y="-570.5" font-family="Helvetica,sans-Serif" font-size="10.00">+ BaseBlockTree()</text>
<text text-anchor="start" x="159.5" y="-559.5" font-family="Helvetica,sans-Serif" font-size="10.00">+ BaseBlockTree()</text>
<text text-anchor="start" x="159.5" y="-548.5" font-family="Helvetica,sans-Serif" font-size="10.00">+ BaseBlockTree()</text>
<text text-anchor="start" x="159.5" y="-537.5" font-family="Helvetica,sans-Serif" font-size="10.00">+ operator=()</text>
<text text-anchor="start" x="159.5" y="-526.5" font-family="Helvetica,sans-Serif" font-size="10.00">+ operator=()</text>
<text text-anchor="start" x="159.5" y="-515.5" font-family="Helvetica,sans-Serif" font-size="10.00">and 25 more...</text>
<text text-anchor="start" x="159.5" y="-504.5" font-family="Helvetica,sans-Serif" font-size="10.00"># deallocateBlock()</text>
<text text-anchor="start" x="159.5" y="-493.5" font-family="Helvetica,sans-Serif" font-size="10.00"># toPrettyString()</text>
<text text-anchor="start" x="159.5" y="-482.5" font-family="Helvetica,sans-Serif" font-size="10.00"># decreaseAppliedBlockCount()</text>
<text text-anchor="start" x="159.5" y="-471.5" font-family="Helvetica,sans-Serif" font-size="10.00"># decreaseAppliedBlockCount()</text>
</a>
</g>
</g>
<!-- Node4&#45;&gt;Node3 -->
<g id="edge3" class="edge">
<title>Node4&#45;&gt;Node3</title>
<path fill="none" stroke="midnightblue" d="M227.5,-454.22C227.5,-444.81 227.5,-435.53 227.5,-426.55"/>
<polygon fill="none" stroke="midnightblue" points="224,-454.47 227.5,-464.47 231,-454.47 224,-454.47"/>
</g>
<!-- Node5 -->
<g id="node5" class="node">
<title>Node5</title>
<g id="a_node5"><a xlink:title=" ">
<polygon fill="white" stroke="#bfbfbf" points="218,-1224.5 218,-1303.5 355,-1303.5 355,-1224.5 218,-1224.5"/>
<text text-anchor="start" x="226" y="-1291.5" font-family="Helvetica,sans-Serif" font-size="10.00">std::unordered_map</text>
<text text-anchor="start" x="226" y="-1280.5" font-family="Helvetica,sans-Serif" font-size="10.00">&lt; prev_block_hash_t,</text>
<text text-anchor="middle" x="286.5" y="-1269.5" font-family="Helvetica,sans-Serif" font-size="10.00"> std::unique_ptr&lt; index_t &gt; &gt;</text>
<polyline fill="none" stroke="#bfbfbf" points="218,-1262.5 355,-1262.5 "/>
<text text-anchor="start" x="226" y="-1250.5" font-family="Helvetica,sans-Serif" font-size="10.00">+ keys</text>
<polyline fill="none" stroke="#bfbfbf" points="218,-1243.5 355,-1243.5 "/>
<text text-anchor="middle" x="286.5" y="-1231.5" font-family="Helvetica,sans-Serif" font-size="10.00"> </text>
</a>
</g>
</g>
<!-- Node5&#45;&gt;Node4 -->
<g id="edge4" class="edge">
<title>Node5&#45;&gt;Node4</title>
<path fill="none" stroke="#404040" d="M297.24,-1224.44C302.04,-1205.73 307.33,-1182.85 310.5,-1162 327.59,-1049.71 365.11,-1082.08 312.5,-822 310.13,-810.28 307.05,-798.39 303.48,-786.55"/>
<polygon fill="none" stroke="#404040" points="303.37,-786.19 297.75,-781.67 299.76,-774.74 305.38,-779.26 303.37,-786.19"/>
<text text-anchor="middle" x="360.5" y="-975" font-family="Helvetica,sans-Serif" font-size="10.00"> #blocks_</text>
</g>
<!-- Node12 -->
<g id="node12" class="node">
<title>Node12</title>
<g id="a_node12"><a xlink:href="structaltintegration_1_1BaseBlockTree.html" target="_top" xlink:title="Base block tree that stores all blocks, maintains tree tips, maintains active chain.">
<polygon fill="white" stroke="black" points="151.5,-822.5 151.5,-1132.5 303.5,-1132.5 303.5,-822.5 151.5,-822.5"/>
<text text-anchor="start" x="159.5" y="-1120.5" font-family="Helvetica,sans-Serif" font-size="10.00">altintegration::BaseBlock</text>
<text text-anchor="middle" x="227.5" y="-1109.5" font-family="Helvetica,sans-Serif" font-size="10.00">Tree&lt; Block &gt;</text>
<polyline fill="none" stroke="black" points="151.5,-1102.5 303.5,-1102.5 "/>
<text text-anchor="start" x="159.5" y="-1090.5" font-family="Helvetica,sans-Serif" font-size="10.00">+ onBlockBeforeDeallocated</text>
<text text-anchor="start" x="159.5" y="-1079.5" font-family="Helvetica,sans-Serif" font-size="10.00">+ onBlockValidityChanged</text>
<text text-anchor="start" x="159.5" y="-1068.5" font-family="Helvetica,sans-Serif" font-size="10.00">+ onBeforeOverrideTip</text>
<text text-anchor="start" x="159.5" y="-1057.5" font-family="Helvetica,sans-Serif" font-size="10.00"># isLoadingBlocks_</text>
<text text-anchor="start" x="159.5" y="-1046.5" font-family="Helvetica,sans-Serif" font-size="10.00"># isLoaded_</text>
<text text-anchor="start" x="159.5" y="-1035.5" font-family="Helvetica,sans-Serif" font-size="10.00"># tips_</text>
<text text-anchor="start" x="159.5" y="-1024.5" font-family="Helvetica,sans-Serif" font-size="10.00"># activeChain_</text>
<text text-anchor="start" x="159.5" y="-1013.5" font-family="Helvetica,sans-Serif" font-size="10.00"># finalizedPayloadsIndex_</text>
<text text-anchor="start" x="159.5" y="-1002.5" font-family="Helvetica,sans-Serif" font-size="10.00"># payloadsIndex_</text>
<polyline fill="none" stroke="black" points="151.5,-995.5 303.5,-995.5 "/>
<text text-anchor="start" x="159.5" y="-983.5" font-family="Helvetica,sans-Serif" font-size="10.00">+ getTips()</text>
<text text-anchor="start" x="159.5" y="-972.5" font-family="Helvetica,sans-Serif" font-size="10.00">+ getBlocks()</text>
<text text-anchor="start" x="159.5" y="-961.5" font-family="Helvetica,sans-Serif" font-size="10.00">+ getAllBlocks()</text>
<text text-anchor="start" x="159.5" y="-950.5" font-family="Helvetica,sans-Serif" font-size="10.00">+ getBlockProvider()</text>
<text text-anchor="start" x="159.5" y="-939.5" font-family="Helvetica,sans-Serif" font-size="10.00">+ ~BaseBlockTree()</text>
<text text-anchor="start" x="159.5" y="-928.5" font-family="Helvetica,sans-Serif" font-size="10.00">+ BaseBlockTree()</text>
<text text-anchor="start" x="159.5" y="-917.5" font-family="Helvetica,sans-Serif" font-size="10.00">+ BaseBlockTree()</text>
<text text-anchor="start" x="159.5" y="-906.5" font-family="Helvetica,sans-Serif" font-size="10.00">+ operator=()</text>
<text text-anchor="start" x="159.5" y="-895.5" font-family="Helvetica,sans-Serif" font-size="10.00">+ BaseBlockTree()</text>
<text text-anchor="start" x="159.5" y="-884.5" font-family="Helvetica,sans-Serif" font-size="10.00">+ operator=()</text>
<text text-anchor="start" x="159.5" y="-873.5" font-family="Helvetica,sans-Serif" font-size="10.00">and 25 more...</text>
<text text-anchor="start" x="159.5" y="-862.5" font-family="Helvetica,sans-Serif" font-size="10.00"># deallocateBlock()</text>
<text text-anchor="start" x="159.5" y="-851.5" font-family="Helvetica,sans-Serif" font-size="10.00"># toPrettyString()</text>
<text text-anchor="start" x="159.5" y="-840.5" font-family="Helvetica,sans-Serif" font-size="10.00"># decreaseAppliedBlockCount()</text>
<text text-anchor="start" x="159.5" y="-829.5" font-family="Helvetica,sans-Serif" font-size="10.00"># decreaseAppliedBlockCount()</text>
</a>
</g>
</g>
<!-- Node5&#45;&gt;Node12 -->
<g id="edge13" class="edge">
<title>Node5&#45;&gt;Node12</title>
<path fill="none" stroke="#404040" d="M278.48,-1224.33C274.02,-1202.81 268.12,-1174.37 261.92,-1144.49"/>
<polygon fill="none" stroke="#404040" points="261.88,-1144.28 256.74,-1139.22 259.44,-1132.53 264.58,-1137.59 261.88,-1144.28"/>
<text text-anchor="middle" x="285.5" y="-1154" font-family="Helvetica,sans-Serif" font-size="10.00"> #blocks_</text>
</g>
<!-- Node6 -->
<g id="node6" class="node">
<title>Node6</title>
<g id="a_node6"><a xlink:title=" ">
<polygon fill="white" stroke="#bfbfbf" points="162,-1395.5 162,-1452.5 289,-1452.5 289,-1395.5 162,-1395.5"/>
<text text-anchor="middle" x="225.5" y="-1440.5" font-family="Helvetica,sans-Serif" font-size="10.00">std::unique_ptr&lt; index_t &gt;</text>
<polyline fill="none" stroke="#bfbfbf" points="162,-1433.5 289,-1433.5 "/>
<text text-anchor="start" x="170" y="-1421.5" font-family="Helvetica,sans-Serif" font-size="10.00">+ ptr</text>
<polyline fill="none" stroke="#bfbfbf" points="162,-1414.5 289,-1414.5 "/>
<text text-anchor="start" x="170" y="-1402.5" font-family="Helvetica,sans-Serif" font-size="10.00">+ operator&#45;&gt;()</text>
</a>
</g>
</g>
<!-- Node6&#45;&gt;Node5 -->
<g id="edge5" class="edge">
<title>Node6&#45;&gt;Node5</title>
<path fill="none" stroke="#404040" d="M236.13,-1395.48C244.66,-1373.37 256.87,-1341.75 267.13,-1315.17"/>
<polygon fill="none" stroke="#404040" points="267.22,-1314.94 265.65,-1307.9 271.54,-1303.75 273.11,-1310.78 267.22,-1314.94"/>
<text text-anchor="middle" x="272" y="-1369" font-family="Helvetica,sans-Serif" font-size="10.00"> +elements</text>
</g>
<!-- Node7 -->
<g id="node7" class="node">
<title>Node7</title>
<g id="a_node7"><a xlink:title=" ">
<polygon fill="white" stroke="#bfbfbf" points="159.5,-1506 159.5,-1563 261.5,-1563 261.5,-1506 159.5,-1506"/>
<text text-anchor="middle" x="210.5" y="-1551" font-family="Helvetica,sans-Serif" font-size="10.00">std::unique_ptr&lt; T &gt;</text>
<polyline fill="none" stroke="#bfbfbf" points="159.5,-1544 261.5,-1544 "/>
<text text-anchor="middle" x="210.5" y="-1532" font-family="Helvetica,sans-Serif" font-size="10.00"> </text>
<polyline fill="none" stroke="#bfbfbf" points="159.5,-1525 261.5,-1525 "/>
<text text-anchor="start" x="167.5" y="-1513" font-family="Helvetica,sans-Serif" font-size="10.00">+ operator&#45;&gt;()</text>
</a>
</g>
</g>
<!-- Node7&#45;&gt;Node6 -->
<g id="edge6" class="edge">
<title>Node7&#45;&gt;Node6</title>
<path fill="none" stroke="orange" d="M215.7,-1495.85C217.67,-1481.64 219.87,-1465.74 221.68,-1452.61"/>
<polygon fill="orange" stroke="orange" points="212.23,-1495.46 214.32,-1505.84 219.16,-1496.41 212.23,-1495.46"/>
<text text-anchor="middle" x="244.5" y="-1474" font-family="Helvetica,sans-Serif" font-size="10.00"> &lt; index_t &gt;</text>
</g>
<!-- Node8 -->
<g id="node8" class="node">
<title>Node8</title>
<g id="a_node8"><a xlink:title=" ">
<polygon fill="white" stroke="#bfbfbf" points="222,-1616.5 222,-1673.5 251,-1673.5 251,-1616.5 222,-1616.5"/>
<text text-anchor="middle" x="236.5" y="-1661.5" font-family="Helvetica,sans-Serif" font-size="10.00">T</text>
<polyline fill="none" stroke="#bfbfbf" points="222,-1654.5 251,-1654.5 "/>
<text text-anchor="middle" x="236.5" y="-1642.5" font-family="Helvetica,sans-Serif" font-size="10.00"> </text>
<polyline fill="none" stroke="#bfbfbf" points="222,-1635.5 251,-1635.5 "/>
<text text-anchor="middle" x="236.5" y="-1623.5" font-family="Helvetica,sans-Serif" font-size="10.00"> </text>
</a>
</g>
</g>
<!-- Node8&#45;&gt;Node7 -->
<g id="edge7" class="edge">
<title>Node8&#45;&gt;Node7</title>
<path fill="none" stroke="#404040" d="M222.01,-1616.35C219.44,-1610.43 217.09,-1604.12 215.5,-1598 213.62,-1590.76 212.39,-1582.9 211.59,-1575.28"/>
<polygon fill="none" stroke="#404040" points="211.59,-1575.19 207.13,-1569.52 210.65,-1563.22 215.11,-1568.89 211.59,-1575.19"/>
<text text-anchor="middle" x="225.5" y="-1590" font-family="Helvetica,sans-Serif" font-size="10.00"> +ptr</text>
</g>
<!-- Node9 -->
<g id="node9" class="node">
<title>Node9</title>
<g id="a_node9"><a xlink:title=" ">
<polygon fill="white" stroke="#bfbfbf" points="280,-1500.5 280,-1568.5 381,-1568.5 381,-1500.5 280,-1500.5"/>
<text text-anchor="start" x="288" y="-1556.5" font-family="Helvetica,sans-Serif" font-size="10.00">std::unordered_map</text>
<text text-anchor="middle" x="330.5" y="-1545.5" font-family="Helvetica,sans-Serif" font-size="10.00">&lt; K, T &gt;</text>
<polyline fill="none" stroke="#bfbfbf" points="280,-1538.5 381,-1538.5 "/>
<text text-anchor="middle" x="330.5" y="-1526.5" font-family="Helvetica,sans-Serif" font-size="10.00"> </text>
<polyline fill="none" stroke="#bfbfbf" points="280,-1519.5 381,-1519.5 "/>
<text text-anchor="middle" x="330.5" y="-1507.5" font-family="Helvetica,sans-Serif" font-size="10.00"> </text>
</a>
</g>
</g>
<!-- Node8&#45;&gt;Node9 -->
<g id="edge10" class="edge">
<title>Node8&#45;&gt;Node9</title>
<path fill="none" stroke="#404040" d="M251.02,-1621.94C258.5,-1611.07 268.03,-1597.99 277.5,-1587 280.22,-1583.84 283.11,-1580.66 286.07,-1577.5"/>
<polygon fill="none" stroke="#404040" points="286.2,-1577.36 287.5,-1570.27 294.55,-1568.74 293.25,-1575.83 286.2,-1577.36"/>
<text text-anchor="middle" x="302" y="-1590" font-family="Helvetica,sans-Serif" font-size="10.00"> +elements</text>
</g>
<!-- Node9&#45;&gt;Node5 -->
<g id="edge8" class="edge">
<title>Node9&#45;&gt;Node5</title>
<path fill="none" stroke="orange" d="M323.4,-1490.15C314.94,-1438.57 300.96,-1353.23 292.85,-1303.76"/>
<polygon fill="orange" stroke="orange" points="319.99,-1491 325.06,-1500.31 326.9,-1489.87 319.99,-1491"/>
<text text-anchor="start" x="317.5" y="-1427" font-family="Helvetica,sans-Serif" font-size="10.00"> &lt; prev_block_hash_t,</text>
<text text-anchor="middle" x="378" y="-1416" font-family="Helvetica,sans-Serif" font-size="10.00"> std::unique_ptr&lt; index_t &gt; &gt;</text>
</g>
<!-- Node10 -->
<g id="node10" class="node">
<title>Node10</title>
<g id="a_node10"><a xlink:title=" ">
<polygon fill="white" stroke="#bfbfbf" points="316,-1616.5 316,-1673.5 345,-1673.5 345,-1616.5 316,-1616.5"/>
<text text-anchor="middle" x="330.5" y="-1661.5" font-family="Helvetica,sans-Serif" font-size="10.00">K</text>
<polyline fill="none" stroke="#bfbfbf" points="316,-1654.5 345,-1654.5 "/>
<text text-anchor="middle" x="330.5" y="-1642.5" font-family="Helvetica,sans-Serif" font-size="10.00"> </text>
<polyline fill="none" stroke="#bfbfbf" points="316,-1635.5 345,-1635.5 "/>
<text text-anchor="middle" x="330.5" y="-1623.5" font-family="Helvetica,sans-Serif" font-size="10.00"> </text>
</a>
</g>
</g>
<!-- Node10&#45;&gt;Node9 -->
<g id="edge9" class="edge">
<title>Node10&#45;&gt;Node9</title>
<path fill="none" stroke="#404040" d="M330.5,-1616.34C330.5,-1605.53 330.5,-1592.85 330.5,-1580.77"/>
<polygon fill="none" stroke="#404040" points="330.5,-1580.52 326.5,-1574.52 330.5,-1568.52 334.5,-1574.52 330.5,-1580.52"/>
<text text-anchor="middle" x="345" y="-1590" font-family="Helvetica,sans-Serif" font-size="10.00"> +keys</text>
</g>
<!-- Node11 -->
<g id="node11" class="node">
<title>Node11</title>
<g id="a_node11"><a xlink:href="structaltintegration_1_1BlockReader.html" target="_top" xlink:title="An abstraction over on&#45;disk storage iterator.">
<polygon fill="white" stroke="black" points="60.5,-1180.5 60.5,-1347.5 192.5,-1347.5 192.5,-1180.5 60.5,-1180.5"/>
<text text-anchor="middle" x="126.5" y="-1335.5" font-family="Helvetica,sans-Serif" font-size="10.00">altintegration::BlockReader</text>
<polyline fill="none" stroke="black" points="60.5,-1328.5 192.5,-1328.5 "/>
<text text-anchor="middle" x="126.5" y="-1316.5" font-family="Helvetica,sans-Serif" font-size="10.00"> </text>
<polyline fill="none" stroke="black" points="60.5,-1309.5 192.5,-1309.5 "/>
<text text-anchor="start" x="68.5" y="-1297.5" font-family="Helvetica,sans-Serif" font-size="10.00">+ ~BlockReader()</text>
<text text-anchor="start" x="68.5" y="-1286.5" font-family="Helvetica,sans-Serif" font-size="10.00">+ getAltTip()</text>
<text text-anchor="start" x="68.5" y="-1275.5" font-family="Helvetica,sans-Serif" font-size="10.00">+ getVbkTip()</text>
<text text-anchor="start" x="68.5" y="-1264.5" font-family="Helvetica,sans-Serif" font-size="10.00">+ getBtcTip()</text>
<text text-anchor="start" x="68.5" y="-1253.5" font-family="Helvetica,sans-Serif" font-size="10.00">+ getBlock()</text>
<text text-anchor="start" x="68.5" y="-1242.5" font-family="Helvetica,sans-Serif" font-size="10.00">+ getBlock()</text>
<text text-anchor="start" x="68.5" y="-1231.5" font-family="Helvetica,sans-Serif" font-size="10.00">+ getBlock()</text>
<text text-anchor="start" x="68.5" y="-1220.5" font-family="Helvetica,sans-Serif" font-size="10.00">+ getAltBlockIterator()</text>
<text text-anchor="start" x="68.5" y="-1209.5" font-family="Helvetica,sans-Serif" font-size="10.00">+ getVbkBlockIterator()</text>
<text text-anchor="start" x="68.5" y="-1198.5" font-family="Helvetica,sans-Serif" font-size="10.00">+ getBtcBlockIterator()</text>
<text text-anchor="start" x="68.5" y="-1187.5" font-family="Helvetica,sans-Serif" font-size="10.00">and 6 more...</text>
</a>
</g>
</g>
<!-- Node11&#45;&gt;Node4 -->
<g id="edge11" class="edge">
<title>Node11&#45;&gt;Node4</title>
<path fill="none" stroke="#404040" d="M84.29,-1180.42C78.16,-1165.02 72.81,-1148.8 69.5,-1133 41.14,-997.72 24.38,-952.65 69.5,-822 84.69,-778.02 113.86,-736.32 143.05,-702.39"/>
<polygon fill="none" stroke="#404040" points="143.36,-702.05 144.31,-694.9 151.28,-693.03 150.32,-700.18 143.36,-702.05"/>
<text text-anchor="middle" x="106" y="-975" font-family="Helvetica,sans-Serif" font-size="10.00"> #blockProvider_</text>
</g>
<!-- Node11&#45;&gt;Node12 -->
<g id="edge14" class="edge">
<title>Node11&#45;&gt;Node12</title>
<path fill="none" stroke="#404040" d="M155.85,-1180.33C159.95,-1168.77 164.28,-1156.58 168.7,-1144.13"/>
<polygon fill="none" stroke="#404040" points="168.76,-1143.96 167,-1136.97 172.78,-1132.65 174.54,-1139.64 168.76,-1143.96"/>
<text text-anchor="middle" x="202" y="-1154" font-family="Helvetica,sans-Serif" font-size="10.00"> #blockProvider_</text>
</g>
<!-- Node12&#45;&gt;Node4 -->
<g id="edge12" class="edge">
<title>Node12&#45;&gt;Node4</title>
<path fill="none" stroke="orange" d="M227.5,-812.35C227.5,-799.75 227.5,-787.06 227.5,-774.53"/>
<polygon fill="orange" stroke="orange" points="224,-812.42 227.5,-822.42 231,-812.42 224,-812.42"/>
<text text-anchor="middle" x="255.5" y="-796" font-family="Helvetica,sans-Serif" font-size="10.00"> &lt; AltBlock &gt;</text>
</g>
</g>
</svg>
        <g id="navigator" transform="translate(0 0)" fill="#404254">
                <rect fill="#f2f5e9" fill-opacity="0.5" stroke="#606060" stroke-width=".5" x="0" y="0" width="60" height="60"/>
                <use id="zoomplus" xlink:href="#zoomPlus" x="17" y="9" onmousedown="handleZoom(evt,'in')"/>
                <use id="zoomminus" xlink:href="#zoomMin" x="42" y="9" onmousedown="handleZoom(evt,'out')"/>
                <use id="reset" xlink:href="#resetDef" x="30" y="36" onmousedown="handleReset()"/>
                <g id="arrowUp" xlink:href="#dirArrow" transform="translate(30 24)" onmousedown="handlePan(0,-1)">
                  <use xlink:href="#rim" fill="#404040">
                        <set attributeName="fill" to="#808080" begin="arrowUp.mouseover" end="arrowUp.mouseout"/>
                  </use>
                  <path fill="none" stroke="white" stroke-width="1.5" d="M0,-3.0v7 M-2.5,-0.5L0,-3.0L2.5,-0.5"/>
                </g>
                <g id="arrowRight" xlink:href="#dirArrow" transform="rotate(90) translate(36 -43)" onmousedown="handlePan(1,0)">
                  <use xlink:href="#rim" fill="#404040">
                        <set attributeName="fill" to="#808080" begin="arrowRight.mouseover" end="arrowRight.mouseout"/>
                  </use>
                  <path fill="none" stroke="white" stroke-width="1.5" d="M0,-3.0v7 M-2.5,-0.5L0,-3.0L2.5,-0.5"/>
                </g>
                <g id="arrowDown" xlink:href="#dirArrow" transform="rotate(180) translate(-30 -48)" onmousedown="handlePan(0,1)">
                  <use xlink:href="#rim" fill="#404040">
                        <set attributeName="fill" to="#808080" begin="arrowDown.mouseover" end="arrowDown.mouseout"/>
                  </use>
                  <path fill="none" stroke="white" stroke-width="1.5" d="M0,-3.0v7 M-2.5,-0.5L0,-3.0L2.5,-0.5"/>
                </g>
                <g id="arrowLeft" xlink:href="#dirArrow" transform="rotate(270) translate(-36 17)" onmousedown="handlePan(-1,0)">
                  <use xlink:href="#rim" fill="#404040">
                        <set attributeName="fill" to="#808080" begin="arrowLeft.mouseover" end="arrowLeft.mouseout"/>
                  </use>
                  <path fill="none" stroke="white" stroke-width="1.5" d="M0,-3.0v7 M-2.5,-0.5L0,-3.0L2.5,-0.5"/>
                </g>
        </g>
        <svg viewBox="0 0 15 15" width="100%" height="30px" preserveAspectRatio="xMaxYMin meet">
         <g id="arrow_out" transform="scale(0.3 0.3)">
          <a xlink:href="structaltintegration_1_1DefaultPopRewardsCalculator__coll__graph_org.svg" target="_base">
           <rect id="button" ry="5" rx="5" y="6" x="6" height="38" width="38"
                fill="#f2f5e9" fill-opacity="0.5" stroke="#606060" stroke-width="1.0"/>
           <path id="arrow"
             d="M 11.500037,31.436501 C 11.940474,20.09759 22.043105,11.32322 32.158766,21.979434 L 37.068811,17.246167 C 37.068811,17.246167 37.088388,32 37.088388,32 L 22.160133,31.978069 C 22.160133,31.978069 26.997745,27.140456 26.997745,27.140456 C 18.528582,18.264221 13.291696,25.230495 11.500037,31.436501 z"
             style="fill:#404040;"/>
          </a>
         </g>
        </svg>
</svg>
