<?xml version="1.0" encoding="UTF-8" standalone="no"?>
<!DOCTYPE svg PUBLIC "-//W3C//DTD SVG 1.1//EN"
 "http://www.w3.org/Graphics/SVG/1.1/DTD/svg11.dtd">
<!-- Generated by graphviz version 2.44.0 ()
 -->
<!-- Title: altintegration::AuthenticatedContextInfoContainer Pages: 1 -->
<svg width="338pt" height="987pt"
 viewBox="0.00 0.00 337.50 987.00" xmlns="http://www.w3.org/2000/svg" xmlns:xlink="http://www.w3.org/1999/xlink">
<g id="graph0" class="graph" transform="scale(1 1) rotate(0) translate(4 983)">
<title>altintegration::AuthenticatedContextInfoContainer</title>
<polygon fill="white" stroke="transparent" points="-4,4 -4,-983 333.5,-983 333.5,4 -4,4"/>
<!-- Node1 -->
<g id="node1" class="node">
<title>Node1</title>
<g id="a_node1"><a xlink:title="Contains ContextInfoContainer and merkle path which authenticates hash of ContextInfoContainer to a b...">
<polygon fill="#bfbfbf" stroke="black" points="70,-0.5 70,-123.5 207,-123.5 207,-0.5 70,-0.5"/>
<text text-anchor="start" x="78" y="-111.5" font-family="Helvetica,sans-Serif" font-size="10.00">altintegration::Authenticated</text>
<text text-anchor="middle" x="138.5" y="-100.5" font-family="Helvetica,sans-Serif" font-size="10.00">ContextInfoContainer</text>
<polyline fill="none" stroke="black" points="70,-93.5 207,-93.5 "/>
<text text-anchor="middle" x="138.5" y="-81.5" font-family="Helvetica,sans-Serif" font-size="10.00"> </text>
<polyline fill="none" stroke="black" points="70,-74.5 207,-74.5 "/>
<text text-anchor="start" x="78" y="-62.5" font-family="Helvetica,sans-Serif" font-size="10.00">+ operator==()</text>
<text text-anchor="start" x="78" y="-51.5" font-family="Helvetica,sans-Serif" font-size="10.00">+ toVbkEncoding()</text>
<text text-anchor="start" x="78" y="-40.5" font-family="Helvetica,sans-Serif" font-size="10.00">+ estimateSize()</text>
<text text-anchor="start" x="78" y="-29.5" font-family="Helvetica,sans-Serif" font-size="10.00">+ getTopLevelMerkleRoot()</text>
<text text-anchor="start" x="78" y="-18.5" font-family="Helvetica,sans-Serif" font-size="10.00">+ createFromPrevious()</text>
<text text-anchor="start" x="78" y="-7.5" font-family="Helvetica,sans-Serif" font-size="10.00">+ createFromPrevious()</text>
</a>
</g>
</g>
<!-- Node2 -->
<g id="node2" class="node">
<title>Node2</title>
<g id="a_node2"><a xlink:href="structaltintegration_1_1Blob.html" target="_top" xlink:title=" ">
<polygon fill="white" stroke="black" points="0,-171.5 0,-393.5 131,-393.5 131,-171.5 0,-171.5"/>
<text text-anchor="start" x="8" y="-381.5" font-family="Helvetica,sans-Serif" font-size="10.00">altintegration::Blob</text>
<text text-anchor="middle" x="65.5" y="-370.5" font-family="Helvetica,sans-Serif" font-size="10.00">&lt; SHA256_HASH_SIZE &gt;</text>
<polyline fill="none" stroke="black" points="0,-363.5 131,-363.5 "/>
<text text-anchor="start" x="8" y="-351.5" font-family="Helvetica,sans-Serif" font-size="10.00">+ data_</text>
<text text-anchor="start" x="8" y="-340.5" font-family="Helvetica,sans-Serif" font-size="10.00">+ this</text>
<polyline fill="none" stroke="black" points="0,-333.5 131,-333.5 "/>
<text text-anchor="start" x="8" y="-321.5" font-family="Helvetica,sans-Serif" font-size="10.00">+ Blob()</text>
<text text-anchor="start" x="8" y="-310.5" font-family="Helvetica,sans-Serif" font-size="10.00">+ Blob()</text>
<text text-anchor="start" x="8" y="-299.5" font-family="Helvetica,sans-Serif" font-size="10.00">+ Blob()</text>
<text text-anchor="start" x="8" y="-288.5" font-family="Helvetica,sans-Serif" font-size="10.00">+ Blob()</text>
<text text-anchor="start" x="8" y="-277.5" font-family="Helvetica,sans-Serif" font-size="10.00">+ Blob()</text>
<text text-anchor="start" x="8" y="-266.5" font-family="Helvetica,sans-Serif" font-size="10.00">+ operator=()</text>
<text text-anchor="start" x="8" y="-255.5" font-family="Helvetica,sans-Serif" font-size="10.00">+ operator=()</text>
<text text-anchor="start" x="8" y="-244.5" font-family="Helvetica,sans-Serif" font-size="10.00">+ reverse()</text>
<text text-anchor="start" x="8" y="-233.5" font-family="Helvetica,sans-Serif" font-size="10.00">+ operator~()</text>
<text text-anchor="start" x="8" y="-222.5" font-family="Helvetica,sans-Serif" font-size="10.00">+ asVector()</text>
<text text-anchor="start" x="8" y="-211.5" font-family="Helvetica,sans-Serif" font-size="10.00">+ asString()</text>
<text text-anchor="start" x="8" y="-200.5" font-family="Helvetica,sans-Serif" font-size="10.00">+ operator[]()</text>
<text text-anchor="start" x="8" y="-189.5" font-family="Helvetica,sans-Serif" font-size="10.00">+ operator[]()</text>
<text text-anchor="start" x="8" y="-178.5" font-family="Helvetica,sans-Serif" font-size="10.00">+ compareTo()</text>
</a>
</g>
</g>
<!-- Node2&#45;&gt;Node1 -->
<g id="edge1" class="edge">
<title>Node2&#45;&gt;Node1</title>
<path fill="none" stroke="#404040" d="M102.32,-171.29C106.44,-158.96 110.55,-146.65 114.45,-134.98"/>
<polygon fill="none" stroke="#404040" points="114.47,-134.93 112.58,-127.97 118.27,-123.55 120.16,-130.51 114.47,-134.93"/>
<text text-anchor="middle" x="137" y="-145" font-family="Helvetica,sans-Serif" font-size="10.00"> +stateRoot</text>
</g>
<!-- Node3 -->
<g id="node3" class="node">
<title>Node3</title>
<g id="a_node3"><a xlink:href="structaltintegration_1_1Blob.html" target="_top" xlink:title="Contiguous byte array of fixed size.">
<polygon fill="white" stroke="black" points="5.5,-441.5 5.5,-652.5 125.5,-652.5 125.5,-441.5 5.5,-441.5"/>
<text text-anchor="middle" x="65.5" y="-640.5" font-family="Helvetica,sans-Serif" font-size="10.00">altintegration::Blob&lt; N &gt;</text>
<polyline fill="none" stroke="black" points="5.5,-633.5 125.5,-633.5 "/>
<text text-anchor="start" x="13.5" y="-621.5" font-family="Helvetica,sans-Serif" font-size="10.00">+ data_</text>
<text text-anchor="start" x="13.5" y="-610.5" font-family="Helvetica,sans-Serif" font-size="10.00">+ this</text>
<polyline fill="none" stroke="black" points="5.5,-603.5 125.5,-603.5 "/>
<text text-anchor="start" x="13.5" y="-591.5" font-family="Helvetica,sans-Serif" font-size="10.00">+ Blob()</text>
<text text-anchor="start" x="13.5" y="-580.5" font-family="Helvetica,sans-Serif" font-size="10.00">+ Blob()</text>
<text text-anchor="start" x="13.5" y="-569.5" font-family="Helvetica,sans-Serif" font-size="10.00">+ Blob()</text>
<text text-anchor="start" x="13.5" y="-558.5" font-family="Helvetica,sans-Serif" font-size="10.00">+ Blob()</text>
<text text-anchor="start" x="13.5" y="-547.5" font-family="Helvetica,sans-Serif" font-size="10.00">+ Blob()</text>
<text text-anchor="start" x="13.5" y="-536.5" font-family="Helvetica,sans-Serif" font-size="10.00">+ operator=()</text>
<text text-anchor="start" x="13.5" y="-525.5" font-family="Helvetica,sans-Serif" font-size="10.00">+ operator=()</text>
<text text-anchor="start" x="13.5" y="-514.5" font-family="Helvetica,sans-Serif" font-size="10.00">+ reverse()</text>
<text text-anchor="start" x="13.5" y="-503.5" font-family="Helvetica,sans-Serif" font-size="10.00">+ operator~()</text>
<text text-anchor="start" x="13.5" y="-492.5" font-family="Helvetica,sans-Serif" font-size="10.00">+ asVector()</text>
<text text-anchor="start" x="13.5" y="-481.5" font-family="Helvetica,sans-Serif" font-size="10.00">+ asString()</text>
<text text-anchor="start" x="13.5" y="-470.5" font-family="Helvetica,sans-Serif" font-size="10.00">+ operator[]()</text>
<text text-anchor="start" x="13.5" y="-459.5" font-family="Helvetica,sans-Serif" font-size="10.00">+ operator[]()</text>
<text text-anchor="start" x="13.5" y="-448.5" font-family="Helvetica,sans-Serif" font-size="10.00">+ compareTo()</text>
</a>
</g>
</g>
<!-- Node3&#45;&gt;Node2 -->
<g id="edge2" class="edge">
<title>Node3&#45;&gt;Node2</title>
<path fill="none" stroke="orange" d="M65.5,-431.48C65.5,-418.93 65.5,-406.17 65.5,-393.67"/>
<polygon fill="orange" stroke="orange" points="62,-431.5 65.5,-441.5 69,-431.5 62,-431.5"/>
<text text-anchor="middle" x="124" y="-415" font-family="Helvetica,sans-Serif" font-size="10.00"> &lt; SHA256_HASH_SIZE &gt;</text>
</g>
<!-- Node4 -->
<g id="node4" class="node">
<title>Node4</title>
<g id="a_node4"><a xlink:href="structaltintegration_1_1ContextInfoContainer.html" target="_top" xlink:title="Container of context info for endorsed block.">
<polygon fill="white" stroke="black" points="149.5,-215.5 149.5,-349.5 275.5,-349.5 275.5,-215.5 149.5,-215.5"/>
<text text-anchor="start" x="157.5" y="-337.5" font-family="Helvetica,sans-Serif" font-size="10.00">altintegration::ContextInfo</text>
<text text-anchor="middle" x="212.5" y="-326.5" font-family="Helvetica,sans-Serif" font-size="10.00">Container</text>
<polyline fill="none" stroke="black" points="149.5,-319.5 275.5,-319.5 "/>
<text text-anchor="start" x="157.5" y="-307.5" font-family="Helvetica,sans-Serif" font-size="10.00">+ height</text>
<polyline fill="none" stroke="black" points="149.5,-300.5 275.5,-300.5 "/>
<text text-anchor="start" x="157.5" y="-288.5" font-family="Helvetica,sans-Serif" font-size="10.00">+ getHash()</text>
<text text-anchor="start" x="157.5" y="-277.5" font-family="Helvetica,sans-Serif" font-size="10.00">+ toVbkEncoding()</text>
<text text-anchor="start" x="157.5" y="-266.5" font-family="Helvetica,sans-Serif" font-size="10.00">+ estimateSize()</text>
<text text-anchor="start" x="157.5" y="-255.5" font-family="Helvetica,sans-Serif" font-size="10.00">+ operator==()</text>
<text text-anchor="start" x="157.5" y="-244.5" font-family="Helvetica,sans-Serif" font-size="10.00">+ operator!=()</text>
<text text-anchor="start" x="157.5" y="-233.5" font-family="Helvetica,sans-Serif" font-size="10.00">+ toPrettyString()</text>
<text text-anchor="start" x="157.5" y="-222.5" font-family="Helvetica,sans-Serif" font-size="10.00">+ createFromPrevious()</text>
</a>
</g>
</g>
<!-- Node4&#45;&gt;Node1 -->
<g id="edge3" class="edge">
<title>Node4&#45;&gt;Node1</title>
<path fill="none" stroke="#404040" d="M191.04,-215.41C183.4,-192.16 174.67,-165.89 166.5,-142 165.74,-139.78 164.97,-137.53 164.18,-135.25"/>
<polygon fill="none" stroke="#404040" points="164.13,-135.1 158.38,-130.75 160.19,-123.77 165.94,-128.12 164.13,-135.1"/>
<text text-anchor="middle" x="180.5" y="-145" font-family="Helvetica,sans-Serif" font-size="10.00"> +ctx</text>
</g>
<!-- Node5 -->
<g id="node5" class="node">
<title>Node5</title>
<g id="a_node5"><a xlink:href="structaltintegration_1_1KeystoneContainer.html" target="_top" xlink:title="A container for two previous keystones of endorsed block.">
<polygon fill="white" stroke="black" points="153,-496.5 153,-597.5 272,-597.5 272,-496.5 153,-496.5"/>
<text text-anchor="start" x="161" y="-585.5" font-family="Helvetica,sans-Serif" font-size="10.00">altintegration::Keystone</text>
<text text-anchor="middle" x="212.5" y="-574.5" font-family="Helvetica,sans-Serif" font-size="10.00">Container</text>
<polyline fill="none" stroke="black" points="153,-567.5 272,-567.5 "/>
<text text-anchor="middle" x="212.5" y="-555.5" font-family="Helvetica,sans-Serif" font-size="10.00"> </text>
<polyline fill="none" stroke="black" points="153,-548.5 272,-548.5 "/>
<text text-anchor="start" x="161" y="-536.5" font-family="Helvetica,sans-Serif" font-size="10.00">+ toVbkEncoding()</text>
<text text-anchor="start" x="161" y="-525.5" font-family="Helvetica,sans-Serif" font-size="10.00">+ estimateSize()</text>
<text text-anchor="start" x="161" y="-514.5" font-family="Helvetica,sans-Serif" font-size="10.00">+ operator==()</text>
<text text-anchor="start" x="161" y="-503.5" font-family="Helvetica,sans-Serif" font-size="10.00">+ createFromPrevious()</text>
</a>
</g>
</g>
<!-- Node5&#45;&gt;Node4 -->
<g id="edge4" class="edge">
<title>Node5&#45;&gt;Node4</title>
<path fill="none" stroke="#404040" d="M212.5,-496.32C212.5,-458.41 212.5,-405.47 212.5,-361.87"/>
<polygon fill="none" stroke="#404040" points="212.5,-361.84 208.5,-355.84 212.5,-349.84 216.5,-355.84 212.5,-361.84"/>
<text text-anchor="middle" x="239" y="-415" font-family="Helvetica,sans-Serif" font-size="10.00"> +keystones</text>
</g>
<!-- Node6 -->
<g id="node6" class="node">
<title>Node6</title>
<g id="a_node6"><a xlink:title=" ">
<polygon fill="white" stroke="#bfbfbf" points="159,-711.5 159,-768.5 266,-768.5 266,-711.5 159,-711.5"/>
<text text-anchor="middle" x="212.5" y="-756.5" font-family="Helvetica,sans-Serif" font-size="10.00">std::vector&lt; uint8_t &gt;</text>
<polyline fill="none" stroke="#bfbfbf" points="159,-749.5 266,-749.5 "/>
<text text-anchor="start" x="167" y="-737.5" font-family="Helvetica,sans-Serif" font-size="10.00">+ elements</text>
<polyline fill="none" stroke="#bfbfbf" points="159,-730.5 266,-730.5 "/>
<text text-anchor="middle" x="212.5" y="-718.5" font-family="Helvetica,sans-Serif" font-size="10.00"> </text>
</a>
</g>
</g>
<!-- Node6&#45;&gt;Node5 -->
<g id="edge5" class="edge">
<title>Node6&#45;&gt;Node5</title>
<path fill="none" stroke="#404040" d="M212.5,-711.23C212.5,-684.78 212.5,-644.06 212.5,-609.9"/>
<polygon fill="none" stroke="#404040" points="212.5,-609.66 208.5,-603.66 212.5,-597.66 216.5,-603.66 212.5,-609.66"/>
<text text-anchor="middle" x="271" y="-685" font-family="Helvetica,sans-Serif" font-size="10.00"> +firstPreviousKeystone</text>
<text text-anchor="middle" x="271" y="-674" font-family="Helvetica,sans-Serif" font-size="10.00">+secondPreviousKeystone</text>
</g>
<!-- Node7 -->
<g id="node7" class="node">
<title>Node7</title>
<g id="a_node7"><a xlink:title=" ">
<polygon fill="white" stroke="#bfbfbf" points="170.5,-816.5 170.5,-873.5 254.5,-873.5 254.5,-816.5 170.5,-816.5"/>
<text text-anchor="middle" x="212.5" y="-861.5" font-family="Helvetica,sans-Serif" font-size="10.00">std::vector&lt; T &gt;</text>
<polyline fill="none" stroke="#bfbfbf" points="170.5,-854.5 254.5,-854.5 "/>
<text text-anchor="middle" x="212.5" y="-842.5" font-family="Helvetica,sans-Serif" font-size="10.00"> </text>
<polyline fill="none" stroke="#bfbfbf" points="170.5,-835.5 254.5,-835.5 "/>
<text text-anchor="middle" x="212.5" y="-823.5" font-family="Helvetica,sans-Serif" font-size="10.00"> </text>
</a>
</g>
</g>
<!-- Node7&#45;&gt;Node6 -->
<g id="edge6" class="edge">
<title>Node7&#45;&gt;Node6</title>
<path fill="none" stroke="orange" d="M212.5,-806.29C212.5,-793.84 212.5,-780.23 212.5,-768.68"/>
<polygon fill="orange" stroke="orange" points="209,-806.4 212.5,-816.4 216,-806.4 209,-806.4"/>
<text text-anchor="middle" x="237" y="-790" font-family="Helvetica,sans-Serif" font-size="10.00"> &lt; uint8_t &gt;</text>
</g>
<!-- Node8 -->
<g id="node8" class="node">
<title>Node8</title>
<g id="a_node8"><a xlink:title=" ">
<polygon fill="white" stroke="#bfbfbf" points="198,-921.5 198,-978.5 227,-978.5 227,-921.5 198,-921.5"/>
<text text-anchor="middle" x="212.5" y="-966.5" font-family="Helvetica,sans-Serif" font-size="10.00">T</text>
<polyline fill="none" stroke="#bfbfbf" points="198,-959.5 227,-959.5 "/>
<text text-anchor="middle" x="212.5" y="-947.5" font-family="Helvetica,sans-Serif" font-size="10.00"> </text>
<polyline fill="none" stroke="#bfbfbf" points="198,-940.5 227,-940.5 "/>
<text text-anchor="middle" x="212.5" y="-928.5" font-family="Helvetica,sans-Serif" font-size="10.00"> </text>
</a>
</g>
</g>
<!-- Node8&#45;&gt;Node7 -->
<g id="edge7" class="edge">
<title>Node8&#45;&gt;Node7</title>
<path fill="none" stroke="#404040" d="M212.5,-921.4C212.5,-910.55 212.5,-897.87 212.5,-886.05"/>
<polygon fill="none" stroke="#404040" points="212.5,-885.68 208.5,-879.68 212.5,-873.68 216.5,-879.68 212.5,-885.68"/>
<text text-anchor="middle" x="237" y="-895" font-family="Helvetica,sans-Serif" font-size="10.00"> +elements</text>
</g>
</g>
</svg>
