<?xml version="1.0" encoding="UTF-8" standalone="no"?>
<!DOCTYPE svg PUBLIC "-//W3C//DTD SVG 1.1//EN"
 "http://www.w3.org/Graphics/SVG/1.1/DTD/svg11.dtd">
<!-- Generated by graphviz version 2.49.3 (20211027.1534)
 -->
<!-- Title: altintegration::AltBlock Pages: 1 -->
<svg width="133pt" height="513pt"
 viewBox="0.00 0.00 132.50 513.00" xmlns="http://www.w3.org/2000/svg" xmlns:xlink="http://www.w3.org/1999/xlink">
<g id="graph0" class="graph" transform="scale(1 1) rotate(0) translate(4 509)">
<title>altintegration::AltBlock</title>
<polygon fill="white" stroke="transparent" points="-4,4 -4,-509 128.5,-509 128.5,4 -4,4"/>
<!-- Node1 -->
<g id="node1" class="node">
<title>Node1</title>
<g id="a_node1"><a xlink:title="Represents a view on Altchain block &#45; i.e.">
<polygon fill="#bfbfbf" stroke="black" points="0,-0.5 0,-178.5 113,-178.5 113,-0.5 0,-0.5"/>
<text text-anchor="middle" x="56.5" y="-166.5" font-family="Helvetica,sans-Serif" font-size="10.00">altintegration::AltBlock</text>
<polyline fill="none" stroke="black" points="0,-159.5 113,-159.5 "/>
<text text-anchor="start" x="8" y="-147.5" font-family="Helvetica,sans-Serif" font-size="10.00">+ timestamp</text>
<text text-anchor="start" x="8" y="-136.5" font-family="Helvetica,sans-Serif" font-size="10.00">+ height</text>
<polyline fill="none" stroke="black" points="0,-129.5 113,-129.5 "/>
<text text-anchor="start" x="8" y="-117.5" font-family="Helvetica,sans-Serif" font-size="10.00">+ toRaw()</text>
<text text-anchor="start" x="8" y="-106.5" font-family="Helvetica,sans-Serif" font-size="10.00">+ toVbkEncoding()</text>
<text text-anchor="start" x="8" y="-95.5" font-family="Helvetica,sans-Serif" font-size="10.00">+ toRaw()</text>
<text text-anchor="start" x="8" y="-84.5" font-family="Helvetica,sans-Serif" font-size="10.00">+ estimateSize()</text>
<text text-anchor="start" x="8" y="-73.5" font-family="Helvetica,sans-Serif" font-size="10.00">+ getBlockTime()</text>
<text text-anchor="start" x="8" y="-62.5" font-family="Helvetica,sans-Serif" font-size="10.00">+ getHash()</text>
<text text-anchor="start" x="8" y="-51.5" font-family="Helvetica,sans-Serif" font-size="10.00">+ getDifficulty()</text>
<text text-anchor="start" x="8" y="-40.5" font-family="Helvetica,sans-Serif" font-size="10.00">+ toPrettyString()</text>
<text text-anchor="start" x="8" y="-29.5" font-family="Helvetica,sans-Serif" font-size="10.00">+ getPreviousBlock()</text>
<text text-anchor="start" x="8" y="-18.5" font-family="Helvetica,sans-Serif" font-size="10.00">+ getTimestamp()</text>
<text text-anchor="start" x="8" y="-7.5" font-family="Helvetica,sans-Serif" font-size="10.00">+ getHeight()</text>
</a>
</g>
</g>
<!-- Node2 -->
<g id="node2" class="node">
<title>Node2</title>
<g id="a_node2"><a xlink:title=" ">
<polygon fill="white" stroke="#bfbfbf" points="3,-237.5 3,-294.5 110,-294.5 110,-237.5 3,-237.5"/>
<text text-anchor="middle" x="56.5" y="-282.5" font-family="Helvetica,sans-Serif" font-size="10.00">std::vector&lt; uint8_t &gt;</text>
<polyline fill="none" stroke="#bfbfbf" points="3,-275.5 110,-275.5 "/>
<text text-anchor="start" x="11" y="-263.5" font-family="Helvetica,sans-Serif" font-size="10.00">+ elements</text>
<polyline fill="none" stroke="#bfbfbf" points="3,-256.5 110,-256.5 "/>
<text text-anchor="middle" x="56.5" y="-244.5" font-family="Helvetica,sans-Serif" font-size="10.00"> </text>
</a>
</g>
</g>
<!-- Node2&#45;&gt;Node1 -->
<g id="edge1" class="edge">
<title>Node2&#45;&gt;Node1</title>
<path fill="none" stroke="#404040" d="M56.5,-237.35C56.5,-224.44 56.5,-208.18 56.5,-191.24"/>
<polygon fill="none" stroke="#404040" points="56.5,-190.81 52.5,-184.81 56.5,-178.81 60.5,-184.81 56.5,-190.81"/>
<text text-anchor="middle" x="90.5" y="-211" font-family="Helvetica,sans-Serif" font-size="10.00"> +hash</text>
<text text-anchor="middle" x="90.5" y="-200" font-family="Helvetica,sans-Serif" font-size="10.00">+previousBlock</text>
</g>
<!-- Node3 -->
<g id="node3" class="node">
<title>Node3</title>
<g id="a_node3"><a xlink:title=" ">
<polygon fill="white" stroke="#bfbfbf" points="14.5,-342.5 14.5,-399.5 98.5,-399.5 98.5,-342.5 14.5,-342.5"/>
<text text-anchor="middle" x="56.5" y="-387.5" font-family="Helvetica,sans-Serif" font-size="10.00">std::vector&lt; T &gt;</text>
<polyline fill="none" stroke="#bfbfbf" points="14.5,-380.5 98.5,-380.5 "/>
<text text-anchor="middle" x="56.5" y="-368.5" font-family="Helvetica,sans-Serif" font-size="10.00"> </text>
<polyline fill="none" stroke="#bfbfbf" points="14.5,-361.5 98.5,-361.5 "/>
<text text-anchor="middle" x="56.5" y="-349.5" font-family="Helvetica,sans-Serif" font-size="10.00"> </text>
</a>
</g>
</g>
<!-- Node3&#45;&gt;Node2 -->
<g id="edge2" class="edge">
<title>Node3&#45;&gt;Node2</title>
<path fill="none" stroke="orange" d="M56.5,-332.29C56.5,-319.84 56.5,-306.23 56.5,-294.68"/>
<polygon fill="orange" stroke="orange" points="53,-332.4 56.5,-342.4 60,-332.4 53,-332.4"/>
<text text-anchor="middle" x="81" y="-316" font-family="Helvetica,sans-Serif" font-size="10.00"> &lt; uint8_t &gt;</text>
</g>
<!-- Node4 -->
<g id="node4" class="node">
<title>Node4</title>
<g id="a_node4"><a xlink:title=" ">
<polygon fill="white" stroke="#bfbfbf" points="42,-447.5 42,-504.5 71,-504.5 71,-447.5 42,-447.5"/>
<text text-anchor="middle" x="56.5" y="-492.5" font-family="Helvetica,sans-Serif" font-size="10.00">T</text>
<polyline fill="none" stroke="#bfbfbf" points="42,-485.5 71,-485.5 "/>
<text text-anchor="middle" x="56.5" y="-473.5" font-family="Helvetica,sans-Serif" font-size="10.00"> </text>
<polyline fill="none" stroke="#bfbfbf" points="42,-466.5 71,-466.5 "/>
<text text-anchor="middle" x="56.5" y="-454.5" font-family="Helvetica,sans-Serif" font-size="10.00"> </text>
</a>
</g>
</g>
<!-- Node4&#45;&gt;Node3 -->
<g id="edge3" class="edge">
<title>Node4&#45;&gt;Node3</title>
<path fill="none" stroke="#404040" d="M56.5,-447.4C56.5,-436.55 56.5,-423.87 56.5,-412.05"/>
<polygon fill="none" stroke="#404040" points="56.5,-411.68 52.5,-405.68 56.5,-399.68 60.5,-405.68 56.5,-411.68"/>
<text text-anchor="middle" x="81" y="-421" font-family="Helvetica,sans-Serif" font-size="10.00"> +elements</text>
</g>
</g>
</svg>
