<?xml version="1.0" encoding="UTF-8" standalone="no"?>
<!DOCTYPE svg PUBLIC "-//W3C//DTD SVG 1.1//EN"
 "http://www.w3.org/Graphics/SVG/1.1/DTD/svg11.dtd">
<!-- Generated by graphviz version 3.0.0 (20220413.0106)
 -->
<!-- Title: altintegration::Config::Bootstrap&lt; Block, ChainParams &gt; Pages: 1 -->
<svg width="373pt" height="270pt"
 viewBox="0.00 0.00 372.50 270.00" xmlns="http://www.w3.org/2000/svg" xmlns:xlink="http://www.w3.org/1999/xlink">
<g id="graph0" class="graph" transform="scale(1 1) rotate(0) translate(4 266)">
<title>altintegration::Config::Bootstrap&lt; Block, ChainParams &gt;</title>
<polygon fill="white" stroke="transparent" points="-4,4 -4,-266 368.5,-266 368.5,4 -4,4"/>
<!-- Node1 -->
<g id="node1" class="node">
<title>Node1</title>
<g id="a_node1"><a xlink:title="per&#45;chain bootstrap config">
<polygon fill="#bfbfbf" stroke="black" points="63.5,-171.5 63.5,-261.5 231.5,-261.5 231.5,-171.5 63.5,-171.5"/>
<text text-anchor="start" x="71.5" y="-249.5" font-family="Helvetica,sans-Serif" font-size="10.00">altintegration::Config</text>
<text text-anchor="middle" x="147.5" y="-238.5" font-family="Helvetica,sans-Serif" font-size="10.00">::Bootstrap&lt; Block, ChainParams &gt;</text>
<polyline fill="none" stroke="black" points="63.5,-231.5 231.5,-231.5 "/>
<text text-anchor="start" x="71.5" y="-219.5" font-family="Helvetica,sans-Serif" font-size="10.00">+ startHeight</text>
<text text-anchor="start" x="71.5" y="-208.5" font-family="Helvetica,sans-Serif" font-size="10.00">+ blocks</text>
<text text-anchor="start" x="71.5" y="-197.5" font-family="Helvetica,sans-Serif" font-size="10.00">+ params</text>
<polyline fill="none" stroke="black" points="63.5,-190.5 231.5,-190.5 "/>
<text text-anchor="start" x="71.5" y="-178.5" font-family="Helvetica,sans-Serif" font-size="10.00">+ create()</text>
</a>
</g>
</g>
<!-- Node2 -->
<g id="node2" class="node">
<title>Node2</title>
<g id="a_node2"><a xlink:href="structaltintegration_1_1Config_1_1Bootstrap.html" target="_top" xlink:title=" ">
<polygon fill="white" stroke="black" points="0,-0.5 0,-112.5 127,-112.5 127,-0.5 0,-0.5"/>
<text text-anchor="start" x="8" y="-100.5" font-family="Helvetica,sans-Serif" font-size="10.00">altintegration::Config</text>
<text text-anchor="start" x="8" y="-89.5" font-family="Helvetica,sans-Serif" font-size="10.00">::Bootstrap&lt; altintegration</text>
<text text-anchor="start" x="8" y="-78.5" font-family="Helvetica,sans-Serif" font-size="10.00">::BtcBlock, altintegration</text>
<text text-anchor="middle" x="63.5" y="-67.5" font-family="Helvetica,sans-Serif" font-size="10.00">::BtcChainParams &gt;</text>
<polyline fill="none" stroke="black" points="0,-60.5 127,-60.5 "/>
<text text-anchor="start" x="8" y="-48.5" font-family="Helvetica,sans-Serif" font-size="10.00">+ startHeight</text>
<text text-anchor="start" x="8" y="-37.5" font-family="Helvetica,sans-Serif" font-size="10.00">+ blocks</text>
<text text-anchor="start" x="8" y="-26.5" font-family="Helvetica,sans-Serif" font-size="10.00">+ params</text>
<polyline fill="none" stroke="black" points="0,-19.5 127,-19.5 "/>
<text text-anchor="start" x="8" y="-7.5" font-family="Helvetica,sans-Serif" font-size="10.00">+ create()</text>
</a>
</g>
</g>
<!-- Node1&#45;&gt;Node2 -->
<g id="edge1" class="edge">
<title>Node1&#45;&gt;Node2</title>
<path fill="none" stroke="orange" d="M70.85,-163.37C68.47,-160.07 66.32,-156.61 64.5,-153 58.29,-140.72 56.01,-126.36 55.75,-112.57"/>
<polygon fill="orange" stroke="orange" points="68.24,-165.71 77.26,-171.26 73.68,-161.29 68.24,-165.71"/>
<text text-anchor="start" x="64.5" y="-145" font-family="Helvetica,sans-Serif" font-size="10.00"> &lt; altintegration::BtcBlock,</text>
<text text-anchor="middle" x="137" y="-134" font-family="Helvetica,sans-Serif" font-size="10.00"> altintegration::BtcChainParams &gt;</text>
</g>
<!-- Node3 -->
<g id="node3" class="node">
<title>Node3</title>
<g id="a_node3"><a xlink:href="structaltintegration_1_1Config_1_1Bootstrap.html" target="_top" xlink:title=" ">
<polygon fill="white" stroke="black" points="168,-0.5 168,-112.5 295,-112.5 295,-0.5 168,-0.5"/>
<text text-anchor="start" x="176" y="-100.5" font-family="Helvetica,sans-Serif" font-size="10.00">altintegration::Config</text>
<text text-anchor="start" x="176" y="-89.5" font-family="Helvetica,sans-Serif" font-size="10.00">::Bootstrap&lt; altintegration</text>
<text text-anchor="start" x="176" y="-78.5" font-family="Helvetica,sans-Serif" font-size="10.00">::VbkBlock, altintegration</text>
<text text-anchor="middle" x="231.5" y="-67.5" font-family="Helvetica,sans-Serif" font-size="10.00">::VbkChainParams &gt;</text>
<polyline fill="none" stroke="black" points="168,-60.5 295,-60.5 "/>
<text text-anchor="start" x="176" y="-48.5" font-family="Helvetica,sans-Serif" font-size="10.00">+ startHeight</text>
<text text-anchor="start" x="176" y="-37.5" font-family="Helvetica,sans-Serif" font-size="10.00">+ blocks</text>
<text text-anchor="start" x="176" y="-26.5" font-family="Helvetica,sans-Serif" font-size="10.00">+ params</text>
<polyline fill="none" stroke="black" points="168,-19.5 295,-19.5 "/>
<text text-anchor="start" x="176" y="-7.5" font-family="Helvetica,sans-Serif" font-size="10.00">+ create()</text>
</a>
</g>
</g>
<!-- Node1&#45;&gt;Node3 -->
<g id="edge2" class="edge">
<title>Node1&#45;&gt;Node3</title>
<path fill="none" stroke="orange" d="M203,-163.33C205.37,-159.96 207.56,-156.51 209.5,-153 216.24,-140.78 220.91,-126.59 224.16,-112.95"/>
<polygon fill="orange" stroke="orange" points="200.05,-161.42 196.76,-171.49 205.61,-165.67 200.05,-161.42"/>
<text text-anchor="start" x="217.5" y="-145" font-family="Helvetica,sans-Serif" font-size="10.00"> &lt; altintegration::VbkBlock,</text>
<text text-anchor="middle" x="291" y="-134" font-family="Helvetica,sans-Serif" font-size="10.00"> altintegration::VbkChainParams &gt;</text>
</g>
</g>
</svg>
