<?xml version="1.0" encoding="UTF-8" standalone="no"?>
<!DOCTYPE svg PUBLIC "-//W3C//DTD SVG 1.1//EN"
 "http://www.w3.org/Graphics/SVG/1.1/DTD/svg11.dtd">
<!-- Generated by graphviz version 2.44.0 ()
 -->
<!-- Title: altintegration::ATV Pages: 1 -->
<svg width="1087pt" height="1345pt"
 viewBox="0.00 0.00 1086.50 1345.00" xmlns="http://www.w3.org/2000/svg" xmlns:xlink="http://www.w3.org/1999/xlink">
<g id="graph0" class="graph" transform="scale(1 1) rotate(0) translate(4 1341)">
<title>altintegration::ATV</title>
<polygon fill="white" stroke="transparent" points="-4,4 -4,-1341 1082.5,-1341 1082.5,4 -4,4"/>
<!-- Node1 -->
<g id="node1" class="node">
<title>Node1</title>
<g id="a_node1"><a xlink:title="Atlchain endorsement.">
<polygon fill="#bfbfbf" stroke="black" points="800,-0.5 800,-134.5 913,-134.5 913,-0.5 800,-0.5"/>
<text text-anchor="middle" x="856.5" y="-122.5" font-family="Helvetica,sans-Serif" font-size="10.00">altintegration::ATV</text>
<polyline fill="none" stroke="black" points="800,-115.5 913,-115.5 "/>
<text text-anchor="start" x="808" y="-103.5" font-family="Helvetica,sans-Serif" font-size="10.00">+ version</text>
<text text-anchor="start" x="808" y="-92.5" font-family="Helvetica,sans-Serif" font-size="10.00">+ checked</text>
<polyline fill="none" stroke="black" points="800,-85.5 913,-85.5 "/>
<text text-anchor="start" x="808" y="-73.5" font-family="Helvetica,sans-Serif" font-size="10.00">+ toPrettyString()</text>
<text text-anchor="start" x="808" y="-62.5" font-family="Helvetica,sans-Serif" font-size="10.00">+ toShortPrettyString()</text>
<text text-anchor="start" x="808" y="-51.5" font-family="Helvetica,sans-Serif" font-size="10.00">+ toVbkEncoding()</text>
<text text-anchor="start" x="808" y="-40.5" font-family="Helvetica,sans-Serif" font-size="10.00">+ toVbkEncoding()</text>
<text text-anchor="start" x="808" y="-29.5" font-family="Helvetica,sans-Serif" font-size="10.00">+ estimateSize()</text>
<text text-anchor="start" x="808" y="-18.5" font-family="Helvetica,sans-Serif" font-size="10.00">+ getId()</text>
<text text-anchor="start" x="808" y="-7.5" font-family="Helvetica,sans-Serif" font-size="10.00">+ name()</text>
</a>
</g>
</g>
<!-- Node2 -->
<g id="node2" class="node">
<title>Node2</title>
<g id="a_node2"><a xlink:href="structaltintegration_1_1VbkTx.html" target="_top" xlink:title="Veriblock transaction, which endorses ALT block in VBK blockchain.">
<polygon fill="white" stroke="black" points="463.5,-221 463.5,-322 567.5,-322 567.5,-221 463.5,-221"/>
<text text-anchor="middle" x="515.5" y="-310" font-family="Helvetica,sans-Serif" font-size="10.00">altintegration::VbkTx</text>
<polyline fill="none" stroke="black" points="463.5,-303 567.5,-303 "/>
<text text-anchor="start" x="471.5" y="-291" font-family="Helvetica,sans-Serif" font-size="10.00">+ signatureIndex</text>
<polyline fill="none" stroke="black" points="463.5,-284 567.5,-284 "/>
<text text-anchor="start" x="471.5" y="-272" font-family="Helvetica,sans-Serif" font-size="10.00">+ toVbkEncoding()</text>
<text text-anchor="start" x="471.5" y="-261" font-family="Helvetica,sans-Serif" font-size="10.00">+ toVbkEncoding()</text>
<text text-anchor="start" x="471.5" y="-250" font-family="Helvetica,sans-Serif" font-size="10.00">+ estimateSize()</text>
<text text-anchor="start" x="471.5" y="-239" font-family="Helvetica,sans-Serif" font-size="10.00">+ getHash()</text>
<text text-anchor="start" x="471.5" y="-228" font-family="Helvetica,sans-Serif" font-size="10.00">+ calculateTxFee()</text>
</a>
</g>
</g>
<!-- Node2&#45;&gt;Node1 -->
<g id="edge1" class="edge">
<title>Node2&#45;&gt;Node1</title>
<path fill="none" stroke="#404040" d="M567.66,-239.6C627.04,-204.42 724.22,-146.86 789.25,-108.34"/>
<polygon fill="none" stroke="#404040" points="789.47,-108.21 792.6,-101.71 799.8,-102.09 796.67,-108.59 789.47,-108.21"/>
<text text-anchor="middle" x="735" y="-156" font-family="Helvetica,sans-Serif" font-size="10.00"> +transaction</text>
</g>
<!-- Node3 -->
<g id="node3" class="node">
<title>Node3</title>
<g id="a_node3"><a xlink:href="namespacealtintegration.html#structaltintegration_1_1NetworkBytePair" target="_top" xlink:title="Stores pair of TxType and VBK network byte.">
<polygon fill="white" stroke="black" points="337.5,-491 337.5,-548 487.5,-548 487.5,-491 337.5,-491"/>
<text text-anchor="middle" x="412.5" y="-536" font-family="Helvetica,sans-Serif" font-size="10.00">altintegration::NetworkBytePair</text>
<polyline fill="none" stroke="black" points="337.5,-529 487.5,-529 "/>
<text text-anchor="start" x="345.5" y="-517" font-family="Helvetica,sans-Serif" font-size="10.00">+ typeId</text>
<polyline fill="none" stroke="black" points="337.5,-510 487.5,-510 "/>
<text text-anchor="middle" x="412.5" y="-498" font-family="Helvetica,sans-Serif" font-size="10.00"> </text>
</a>
</g>
</g>
<!-- Node3&#45;&gt;Node2 -->
<g id="edge2" class="edge">
<title>Node3&#45;&gt;Node2</title>
<path fill="none" stroke="#404040" d="M410.6,-490.86C409.66,-461.84 411.17,-415.46 426.5,-379 433.59,-362.15 444.29,-345.93 455.85,-331.45"/>
<polygon fill="none" stroke="#404040" points="455.87,-331.42 456.62,-324.25 463.53,-322.19 462.78,-329.36 455.87,-331.42"/>
<text text-anchor="middle" x="464" y="-382" font-family="Helvetica,sans-Serif" font-size="10.00"> +networkOrType</text>
</g>
<!-- Node4 -->
<g id="node4" class="node">
<title>Node4</title>
<g id="a_node4"><a xlink:href="structaltintegration_1_1VbkNetworkType.html" target="_top" xlink:title="works as optional&lt;uint8_t&gt;">
<polygon fill="white" stroke="black" points="336.5,-744.5 336.5,-845.5 488.5,-845.5 488.5,-744.5 336.5,-744.5"/>
<text text-anchor="middle" x="412.5" y="-833.5" font-family="Helvetica,sans-Serif" font-size="10.00">altintegration::VbkNetworkType</text>
<polyline fill="none" stroke="black" points="336.5,-826.5 488.5,-826.5 "/>
<text text-anchor="start" x="344.5" y="-814.5" font-family="Helvetica,sans-Serif" font-size="10.00">+ hasValue</text>
<text text-anchor="start" x="344.5" y="-803.5" font-family="Helvetica,sans-Serif" font-size="10.00">+ value</text>
<polyline fill="none" stroke="black" points="336.5,-796.5 488.5,-796.5 "/>
<text text-anchor="start" x="344.5" y="-784.5" font-family="Helvetica,sans-Serif" font-size="10.00">+ operator bool()</text>
<text text-anchor="start" x="344.5" y="-773.5" font-family="Helvetica,sans-Serif" font-size="10.00">+ operator==()</text>
<text text-anchor="start" x="344.5" y="-762.5" font-family="Helvetica,sans-Serif" font-size="10.00">+ toPrettyString()</text>
<text text-anchor="start" x="344.5" y="-751.5" font-family="Helvetica,sans-Serif" font-size="10.00">+ putJson()</text>
</a>
</g>
</g>
<!-- Node4&#45;&gt;Node3 -->
<g id="edge3" class="edge">
<title>Node4&#45;&gt;Node3</title>
<path fill="none" stroke="#404040" d="M412.5,-744.47C412.5,-691.76 412.5,-609.39 412.5,-560.59"/>
<polygon fill="none" stroke="#404040" points="412.5,-560.36 408.5,-554.36 412.5,-548.36 416.5,-554.36 412.5,-560.36"/>
<text text-anchor="middle" x="444.5" y="-663" font-family="Helvetica,sans-Serif" font-size="10.00"> +networkType</text>
</g>
<!-- Node5 -->
<g id="node5" class="node">
<title>Node5</title>
<g id="a_node5"><a xlink:title=" ">
<polygon fill="white" stroke="#bfbfbf" points="595,-766.5 595,-823.5 702,-823.5 702,-766.5 595,-766.5"/>
<text text-anchor="middle" x="648.5" y="-811.5" font-family="Helvetica,sans-Serif" font-size="10.00">std::vector&lt; uint8_t &gt;</text>
<polyline fill="none" stroke="#bfbfbf" points="595,-804.5 702,-804.5 "/>
<text text-anchor="start" x="603" y="-792.5" font-family="Helvetica,sans-Serif" font-size="10.00">+ elements</text>
<polyline fill="none" stroke="#bfbfbf" points="595,-785.5 702,-785.5 "/>
<text text-anchor="middle" x="648.5" y="-773.5" font-family="Helvetica,sans-Serif" font-size="10.00"> </text>
</a>
</g>
</g>
<!-- Node5&#45;&gt;Node2 -->
<g id="edge4" class="edge">
<title>Node5&#45;&gt;Node2</title>
<path fill="none" stroke="#404040" d="M640.61,-766.23C631.18,-735.81 613.47,-686.38 588.5,-649 582.22,-639.59 575.61,-641.09 570.5,-631 563.86,-617.89 537.65,-433.2 523.95,-334.19"/>
<polygon fill="none" stroke="#404040" points="523.94,-334.15 519.16,-328.76 522.3,-322.26 527.08,-327.66 523.94,-334.15"/>
<text text-anchor="middle" x="596" y="-522.5" font-family="Helvetica,sans-Serif" font-size="10.00"> +publicKey</text>
<text text-anchor="middle" x="596" y="-511.5" font-family="Helvetica,sans-Serif" font-size="10.00">+signature</text>
</g>
<!-- Node12 -->
<g id="node12" class="node">
<title>Node12</title>
<g id="a_node12"><a xlink:href="structaltintegration_1_1PublicationData.html" target="_top" xlink:title="Publication data about ALT block inside VBK blockchain.">
<polygon fill="white" stroke="black" points="631,-480 631,-559 776,-559 776,-480 631,-480"/>
<text text-anchor="middle" x="703.5" y="-547" font-family="Helvetica,sans-Serif" font-size="10.00">altintegration::PublicationData</text>
<polyline fill="none" stroke="black" points="631,-540 776,-540 "/>
<text text-anchor="start" x="639" y="-528" font-family="Helvetica,sans-Serif" font-size="10.00">+ identifier</text>
<polyline fill="none" stroke="black" points="631,-521 776,-521 "/>
<text text-anchor="start" x="639" y="-509" font-family="Helvetica,sans-Serif" font-size="10.00">+ toPrettyString()</text>
<text text-anchor="start" x="639" y="-498" font-family="Helvetica,sans-Serif" font-size="10.00">+ toVbkEncoding()</text>
<text text-anchor="start" x="639" y="-487" font-family="Helvetica,sans-Serif" font-size="10.00">+ estimateSize()</text>
</a>
</g>
</g>
<!-- Node5&#45;&gt;Node12 -->
<g id="edge15" class="edge">
<title>Node5&#45;&gt;Node12</title>
<path fill="none" stroke="#404040" d="M650.94,-766.28C653.81,-736.95 659.23,-689.42 667.5,-649 672.82,-623 680.58,-594.55 687.54,-571.03"/>
<polygon fill="none" stroke="#404040" points="687.63,-570.72 685.53,-563.82 691.09,-559.23 693.19,-566.13 687.63,-570.72"/>
<text text-anchor="middle" x="696" y="-674" font-family="Helvetica,sans-Serif" font-size="10.00"> +contextInfo</text>
<text text-anchor="middle" x="696" y="-663" font-family="Helvetica,sans-Serif" font-size="10.00">+header</text>
<text text-anchor="middle" x="696" y="-652" font-family="Helvetica,sans-Serif" font-size="10.00">+payoutInfo</text>
</g>
<!-- Node6 -->
<g id="node6" class="node">
<title>Node6</title>
<g id="a_node6"><a xlink:title=" ">
<polygon fill="white" stroke="#bfbfbf" points="654.5,-1003.5 654.5,-1060.5 738.5,-1060.5 738.5,-1003.5 654.5,-1003.5"/>
<text text-anchor="middle" x="696.5" y="-1048.5" font-family="Helvetica,sans-Serif" font-size="10.00">std::vector&lt; T &gt;</text>
<polyline fill="none" stroke="#bfbfbf" points="654.5,-1041.5 738.5,-1041.5 "/>
<text text-anchor="middle" x="696.5" y="-1029.5" font-family="Helvetica,sans-Serif" font-size="10.00"> </text>
<polyline fill="none" stroke="#bfbfbf" points="654.5,-1022.5 738.5,-1022.5 "/>
<text text-anchor="middle" x="696.5" y="-1010.5" font-family="Helvetica,sans-Serif" font-size="10.00"> </text>
</a>
</g>
</g>
<!-- Node6&#45;&gt;Node5 -->
<g id="edge5" class="edge">
<title>Node6&#45;&gt;Node5</title>
<path fill="none" stroke="orange" d="M688.79,-993.26C679.13,-945.95 662.79,-865.96 654.19,-823.84"/>
<polygon fill="orange" stroke="orange" points="685.37,-994.02 690.81,-1003.12 692.23,-992.62 685.37,-994.02"/>
<text text-anchor="middle" x="697" y="-911" font-family="Helvetica,sans-Serif" font-size="10.00"> &lt; uint8_t &gt;</text>
</g>
<!-- Node9 -->
<g id="node9" class="node">
<title>Node9</title>
<g id="a_node9"><a xlink:title=" ">
<polygon fill="white" stroke="#bfbfbf" points="147,-485.5 147,-553.5 272,-553.5 272,-485.5 147,-485.5"/>
<text text-anchor="start" x="155" y="-541.5" font-family="Helvetica,sans-Serif" font-size="10.00">std::vector&lt; altintegration</text>
<text text-anchor="middle" x="209.5" y="-530.5" font-family="Helvetica,sans-Serif" font-size="10.00">::Output &gt;</text>
<polyline fill="none" stroke="#bfbfbf" points="147,-523.5 272,-523.5 "/>
<text text-anchor="middle" x="209.5" y="-511.5" font-family="Helvetica,sans-Serif" font-size="10.00"> </text>
<polyline fill="none" stroke="#bfbfbf" points="147,-504.5 272,-504.5 "/>
<text text-anchor="middle" x="209.5" y="-492.5" font-family="Helvetica,sans-Serif" font-size="10.00"> </text>
</a>
</g>
</g>
<!-- Node6&#45;&gt;Node9 -->
<g id="edge12" class="edge">
<title>Node6&#45;&gt;Node9</title>
<path fill="none" stroke="orange" d="M645.14,-1000.35C607.88,-979.43 555.6,-952.76 506.5,-937 475.63,-927.09 239.8,-914.45 218.5,-890 196.74,-865.02 204.23,-639.92 207.94,-553.8"/>
<polygon fill="orange" stroke="orange" points="643.85,-1003.64 654.28,-1005.53 647.31,-997.55 643.85,-1003.64"/>
<text text-anchor="middle" x="273" y="-792.5" font-family="Helvetica,sans-Serif" font-size="10.00"> &lt; altintegration::Output &gt;</text>
</g>
<!-- Node14 -->
<g id="node14" class="node">
<title>Node14</title>
<g id="a_node14"><a xlink:title=" ">
<polygon fill="white" stroke="#bfbfbf" points="794,-485.5 794,-553.5 919,-553.5 919,-485.5 794,-485.5"/>
<text text-anchor="start" x="802" y="-541.5" font-family="Helvetica,sans-Serif" font-size="10.00">std::vector&lt; altintegration</text>
<text text-anchor="middle" x="856.5" y="-530.5" font-family="Helvetica,sans-Serif" font-size="10.00">::Blob &gt;</text>
<polyline fill="none" stroke="#bfbfbf" points="794,-523.5 919,-523.5 "/>
<text text-anchor="middle" x="856.5" y="-511.5" font-family="Helvetica,sans-Serif" font-size="10.00"> </text>
<polyline fill="none" stroke="#bfbfbf" points="794,-504.5 919,-504.5 "/>
<text text-anchor="middle" x="856.5" y="-492.5" font-family="Helvetica,sans-Serif" font-size="10.00"> </text>
</a>
</g>
</g>
<!-- Node6&#45;&gt;Node14 -->
<g id="edge22" class="edge">
<title>Node6&#45;&gt;Node14</title>
<path fill="none" stroke="orange" d="M707.31,-993.39C713.16,-971.78 720.08,-944.05 724.5,-919 741.52,-822.62 716.23,-792.74 747.5,-700 752.77,-684.37 805.08,-601.11 835.27,-553.67"/>
<polygon fill="orange" stroke="orange" points="703.9,-992.59 704.62,-1003.16 710.65,-994.44 703.9,-992.59"/>
<text text-anchor="middle" x="797" y="-792.5" font-family="Helvetica,sans-Serif" font-size="10.00"> &lt; altintegration::Blob &gt;</text>
</g>
<!-- Node7 -->
<g id="node7" class="node">
<title>Node7</title>
<g id="a_node7"><a xlink:title=" ">
<polygon fill="white" stroke="#bfbfbf" points="743,-1279.5 743,-1336.5 772,-1336.5 772,-1279.5 743,-1279.5"/>
<text text-anchor="middle" x="757.5" y="-1324.5" font-family="Helvetica,sans-Serif" font-size="10.00">T</text>
<polyline fill="none" stroke="#bfbfbf" points="743,-1317.5 772,-1317.5 "/>
<text text-anchor="middle" x="757.5" y="-1305.5" font-family="Helvetica,sans-Serif" font-size="10.00"> </text>
<polyline fill="none" stroke="#bfbfbf" points="743,-1298.5 772,-1298.5 "/>
<text text-anchor="middle" x="757.5" y="-1286.5" font-family="Helvetica,sans-Serif" font-size="10.00"> </text>
</a>
</g>
</g>
<!-- Node7&#45;&gt;Node6 -->
<g id="edge6" class="edge">
<title>Node7&#45;&gt;Node6</title>
<path fill="none" stroke="#404040" d="M751.37,-1279.47C740.5,-1230.65 717.81,-1128.73 705.28,-1072.45"/>
<polygon fill="none" stroke="#404040" points="705.23,-1072.22 700.02,-1067.23 702.62,-1060.51 707.83,-1065.5 705.23,-1072.22"/>
<text text-anchor="middle" x="766" y="-1200.5" font-family="Helvetica,sans-Serif" font-size="10.00"> +elements</text>
</g>
<!-- Node17 -->
<g id="node17" class="node">
<title>Node17</title>
<g id="a_node17"><a xlink:title=" ">
<polygon fill="white" stroke="#bfbfbf" points="830.5,-1174.5 830.5,-1231.5 908.5,-1231.5 908.5,-1174.5 830.5,-1174.5"/>
<text text-anchor="middle" x="869.5" y="-1219.5" font-family="Helvetica,sans-Serif" font-size="10.00">std::array&lt; T &gt;</text>
<polyline fill="none" stroke="#bfbfbf" points="830.5,-1212.5 908.5,-1212.5 "/>
<text text-anchor="middle" x="869.5" y="-1200.5" font-family="Helvetica,sans-Serif" font-size="10.00"> </text>
<polyline fill="none" stroke="#bfbfbf" points="830.5,-1193.5 908.5,-1193.5 "/>
<text text-anchor="middle" x="869.5" y="-1181.5" font-family="Helvetica,sans-Serif" font-size="10.00"> </text>
</a>
</g>
</g>
<!-- Node7&#45;&gt;Node17 -->
<g id="edge21" class="edge">
<title>Node7&#45;&gt;Node17</title>
<path fill="none" stroke="#404040" d="M772.14,-1293.53C786.85,-1280.01 810.15,-1258.58 830.27,-1240.08"/>
<polygon fill="none" stroke="#404040" points="830.42,-1239.94 832.13,-1232.94 839.25,-1231.82 837.54,-1238.82 830.42,-1239.94"/>
<text text-anchor="middle" x="842" y="-1253" font-family="Helvetica,sans-Serif" font-size="10.00"> +elements</text>
</g>
<!-- Node8 -->
<g id="node8" class="node">
<title>Node8</title>
<g id="a_node8"><a xlink:href="structaltintegration_1_1Coin.html" target="_top" xlink:title="represents VBK atomic units">
<polygon fill="white" stroke="black" points="401.5,-976 401.5,-1088 497.5,-1088 497.5,-976 401.5,-976"/>
<text text-anchor="middle" x="449.5" y="-1076" font-family="Helvetica,sans-Serif" font-size="10.00">altintegration::Coin</text>
<polyline fill="none" stroke="black" points="401.5,-1069 497.5,-1069 "/>
<text text-anchor="start" x="409.5" y="-1057" font-family="Helvetica,sans-Serif" font-size="10.00">+ units</text>
<polyline fill="none" stroke="black" points="401.5,-1050 497.5,-1050 "/>
<text text-anchor="start" x="409.5" y="-1038" font-family="Helvetica,sans-Serif" font-size="10.00">+ Coin()</text>
<text text-anchor="start" x="409.5" y="-1027" font-family="Helvetica,sans-Serif" font-size="10.00">+ toPrettyString()</text>
<text text-anchor="start" x="409.5" y="-1016" font-family="Helvetica,sans-Serif" font-size="10.00">+ Coin()</text>
<text text-anchor="start" x="409.5" y="-1005" font-family="Helvetica,sans-Serif" font-size="10.00">+ toVbkEncoding()</text>
<text text-anchor="start" x="409.5" y="-994" font-family="Helvetica,sans-Serif" font-size="10.00">+ estimateSize()</text>
<text text-anchor="start" x="409.5" y="-983" font-family="Helvetica,sans-Serif" font-size="10.00">+ operator==()</text>
</a>
</g>
</g>
<!-- Node8&#45;&gt;Node2 -->
<g id="edge7" class="edge">
<title>Node8&#45;&gt;Node2</title>
<path fill="none" stroke="#404040" d="M472.59,-975.76C482.17,-950.14 492.26,-919.01 497.5,-890 507.16,-836.48 512.81,-480.11 514.74,-334.4"/>
<polygon fill="none" stroke="#404040" points="514.75,-334.21 510.83,-328.16 514.9,-322.21 518.82,-328.27 514.75,-334.21"/>
<text text-anchor="middle" x="545.5" y="-663" font-family="Helvetica,sans-Serif" font-size="10.00"> +sourceAmount</text>
</g>
<!-- Node10 -->
<g id="node10" class="node">
<title>Node10</title>
<g id="a_node10"><a xlink:href="structaltintegration_1_1Output.html" target="_top" xlink:title="Single spending output.">
<polygon fill="white" stroke="black" points="67.5,-739 67.5,-851 173.5,-851 173.5,-739 67.5,-739"/>
<text text-anchor="middle" x="120.5" y="-839" font-family="Helvetica,sans-Serif" font-size="10.00">altintegration::Output</text>
<polyline fill="none" stroke="black" points="67.5,-832 173.5,-832 "/>
<text text-anchor="middle" x="120.5" y="-820" font-family="Helvetica,sans-Serif" font-size="10.00"> </text>
<polyline fill="none" stroke="black" points="67.5,-813 173.5,-813 "/>
<text text-anchor="start" x="75.5" y="-801" font-family="Helvetica,sans-Serif" font-size="10.00">+ Output()</text>
<text text-anchor="start" x="75.5" y="-790" font-family="Helvetica,sans-Serif" font-size="10.00">+ Output()</text>
<text text-anchor="start" x="75.5" y="-779" font-family="Helvetica,sans-Serif" font-size="10.00">+ operator==()</text>
<text text-anchor="start" x="75.5" y="-768" font-family="Helvetica,sans-Serif" font-size="10.00">+ toVbkEncoding()</text>
<text text-anchor="start" x="75.5" y="-757" font-family="Helvetica,sans-Serif" font-size="10.00">+ estimateSize()</text>
<text text-anchor="start" x="75.5" y="-746" font-family="Helvetica,sans-Serif" font-size="10.00">+ toPrettyString()</text>
</a>
</g>
</g>
<!-- Node8&#45;&gt;Node10 -->
<g id="edge10" class="edge">
<title>Node8&#45;&gt;Node10</title>
<path fill="none" stroke="#404040" d="M401.48,-1013.02C345.63,-990.44 252.78,-947.56 187.5,-890 177.83,-881.48 168.79,-871.3 160.68,-860.85"/>
<polygon fill="none" stroke="#404040" points="160.66,-860.82 153.87,-858.4 153.49,-851.2 160.29,-853.62 160.66,-860.82"/>
<text text-anchor="middle" x="233" y="-911" font-family="Helvetica,sans-Serif" font-size="10.00"> +coin</text>
</g>
<!-- Node9&#45;&gt;Node2 -->
<g id="edge8" class="edge">
<title>Node9&#45;&gt;Node2</title>
<path fill="none" stroke="#404040" d="M242.88,-485.45C266.21,-462.88 298.44,-432.7 328.5,-408 368.71,-374.97 416.22,-340.6 453.29,-314.74"/>
<polygon fill="none" stroke="#404040" points="453.59,-314.53 456.24,-307.82 463.45,-307.68 460.8,-314.39 453.59,-314.53"/>
<text text-anchor="middle" x="384" y="-382" font-family="Helvetica,sans-Serif" font-size="10.00"> +outputs</text>
</g>
<!-- Node10&#45;&gt;Node9 -->
<g id="edge9" class="edge">
<title>Node10&#45;&gt;Node9</title>
<path fill="none" stroke="#404040" d="M126.73,-738.71C130.74,-711.29 137.02,-677.92 146.5,-649 156.13,-619.62 171.28,-588.44 184.31,-564.15"/>
<polygon fill="none" stroke="#404040" points="184.37,-564.04 183.74,-556.86 190.13,-553.51 190.76,-560.69 184.37,-564.04"/>
<text text-anchor="middle" x="171" y="-663" font-family="Helvetica,sans-Serif" font-size="10.00"> +elements</text>
</g>
<!-- Node11 -->
<g id="node11" class="node">
<title>Node11</title>
<g id="a_node11"><a xlink:href="structaltintegration_1_1Address.html" target="_top" xlink:title="Represents address on VBK chain.">
<polygon fill="white" stroke="black" points="0,-937.5 0,-1126.5 137,-1126.5 137,-937.5 0,-937.5"/>
<text text-anchor="middle" x="68.5" y="-1114.5" font-family="Helvetica,sans-Serif" font-size="10.00">altintegration::Address</text>
<polyline fill="none" stroke="black" points="0,-1107.5 137,-1107.5 "/>
<text text-anchor="middle" x="68.5" y="-1095.5" font-family="Helvetica,sans-Serif" font-size="10.00"> </text>
<polyline fill="none" stroke="black" points="0,-1088.5 137,-1088.5 "/>
<text text-anchor="start" x="8" y="-1076.5" font-family="Helvetica,sans-Serif" font-size="10.00">+ Address()</text>
<text text-anchor="start" x="8" y="-1065.5" font-family="Helvetica,sans-Serif" font-size="10.00">+ operator==()</text>
<text text-anchor="start" x="8" y="-1054.5" font-family="Helvetica,sans-Serif" font-size="10.00">+ operator!=()</text>
<text text-anchor="start" x="8" y="-1043.5" font-family="Helvetica,sans-Serif" font-size="10.00">+ operator==()</text>
<text text-anchor="start" x="8" y="-1032.5" font-family="Helvetica,sans-Serif" font-size="10.00">+ getType()</text>
<text text-anchor="start" x="8" y="-1021.5" font-family="Helvetica,sans-Serif" font-size="10.00">+ getPopBytes()</text>
<text text-anchor="start" x="8" y="-1010.5" font-family="Helvetica,sans-Serif" font-size="10.00">+ isDerivedFromPublicKey()</text>
<text text-anchor="start" x="8" y="-999.5" font-family="Helvetica,sans-Serif" font-size="10.00">+ fromString()</text>
<text text-anchor="start" x="8" y="-988.5" font-family="Helvetica,sans-Serif" font-size="10.00">+ toString()</text>
<text text-anchor="start" x="8" y="-977.5" font-family="Helvetica,sans-Serif" font-size="10.00">+ toVbkEncoding()</text>
<text text-anchor="start" x="8" y="-966.5" font-family="Helvetica,sans-Serif" font-size="10.00">+ estimateSize()</text>
<text text-anchor="start" x="8" y="-955.5" font-family="Helvetica,sans-Serif" font-size="10.00">+ fromPublicKey()</text>
<text text-anchor="start" x="8" y="-944.5" font-family="Helvetica,sans-Serif" font-size="10.00">+ assertFromString()</text>
</a>
</g>
</g>
<!-- Node11&#45;&gt;Node2 -->
<g id="edge13" class="edge">
<title>Node11&#45;&gt;Node2</title>
<path fill="none" stroke="#404040" d="M47.36,-937.27C22.72,-801.06 1.06,-549.3 137.5,-408 222.23,-320.26 367.7,-289.16 451.31,-278.26"/>
<polygon fill="none" stroke="#404040" points="451.52,-278.24 456.99,-273.53 463.43,-276.77 457.97,-281.47 451.52,-278.24"/>
<text text-anchor="middle" x="72.5" y="-663" font-family="Helvetica,sans-Serif" font-size="10.00"> +sourceAddress</text>
</g>
<!-- Node11&#45;&gt;Node10 -->
<g id="edge11" class="edge">
<title>Node11&#45;&gt;Node10</title>
<path fill="none" stroke="#404040" d="M89.2,-937.45C94.72,-912.49 100.58,-886.02 105.71,-862.82"/>
<polygon fill="none" stroke="#404040" points="105.74,-862.72 103.13,-856 108.33,-851.01 110.94,-857.73 105.74,-862.72"/>
<text text-anchor="middle" x="116" y="-911" font-family="Helvetica,sans-Serif" font-size="10.00"> +address</text>
</g>
<!-- Node12&#45;&gt;Node2 -->
<g id="edge14" class="edge">
<title>Node12&#45;&gt;Node2</title>
<path fill="none" stroke="#404040" d="M673.92,-479.79C643.51,-440 595.77,-377.53 560.64,-331.56"/>
<polygon fill="none" stroke="#404040" points="560.63,-331.55 553.81,-329.22 553.34,-322.02 560.17,-324.36 560.63,-331.55"/>
<text text-anchor="middle" x="642.5" y="-382" font-family="Helvetica,sans-Serif" font-size="10.00"> +publicationData</text>
</g>
<!-- Node13 -->
<g id="node13" class="node">
<title>Node13</title>
<g id="a_node13"><a xlink:href="structaltintegration_1_1VbkMerklePath.html" target="_top" xlink:title="Path in Merkle tree, which proves that subject exists in the tree.">
<polygon fill="white" stroke="black" points="785,-226.5 785,-316.5 928,-316.5 928,-226.5 785,-226.5"/>
<text text-anchor="middle" x="856.5" y="-304.5" font-family="Helvetica,sans-Serif" font-size="10.00">altintegration::VbkMerklePath</text>
<polyline fill="none" stroke="black" points="785,-297.5 928,-297.5 "/>
<text text-anchor="start" x="793" y="-285.5" font-family="Helvetica,sans-Serif" font-size="10.00">+ treeIndex</text>
<text text-anchor="start" x="793" y="-274.5" font-family="Helvetica,sans-Serif" font-size="10.00">+ index</text>
<polyline fill="none" stroke="black" points="785,-267.5 928,-267.5 "/>
<text text-anchor="start" x="793" y="-255.5" font-family="Helvetica,sans-Serif" font-size="10.00">+ toVbkEncoding()</text>
<text text-anchor="start" x="793" y="-244.5" font-family="Helvetica,sans-Serif" font-size="10.00">+ estimateSize()</text>
<text text-anchor="start" x="793" y="-233.5" font-family="Helvetica,sans-Serif" font-size="10.00">+ calculateMerkleRoot()</text>
</a>
</g>
</g>
<!-- Node13&#45;&gt;Node1 -->
<g id="edge16" class="edge">
<title>Node13&#45;&gt;Node1</title>
<path fill="none" stroke="#404040" d="M856.5,-226.17C856.5,-202.91 856.5,-173.71 856.5,-146.79"/>
<polygon fill="none" stroke="#404040" points="856.5,-146.6 852.5,-140.6 856.5,-134.6 860.5,-140.6 856.5,-146.6"/>
<text text-anchor="middle" x="885.5" y="-156" font-family="Helvetica,sans-Serif" font-size="10.00"> +merklePath</text>
</g>
<!-- Node14&#45;&gt;Node13 -->
<g id="edge17" class="edge">
<title>Node14&#45;&gt;Node13</title>
<path fill="none" stroke="#404040" d="M856.5,-485.32C856.5,-445.27 856.5,-377.27 856.5,-328.92"/>
<polygon fill="none" stroke="#404040" points="856.5,-328.77 852.5,-322.77 856.5,-316.77 860.5,-322.77 856.5,-328.77"/>
<text text-anchor="middle" x="873.5" y="-382" font-family="Helvetica,sans-Serif" font-size="10.00"> +layers</text>
</g>
<!-- Node15 -->
<g id="node15" class="node">
<title>Node15</title>
<g id="a_node15"><a xlink:href="structaltintegration_1_1Blob.html" target="_top" xlink:title="Contiguous byte array of fixed size.">
<polygon fill="white" stroke="black" points="855.5,-700.5 855.5,-889.5 975.5,-889.5 975.5,-700.5 855.5,-700.5"/>
<text text-anchor="middle" x="915.5" y="-877.5" font-family="Helvetica,sans-Serif" font-size="10.00">altintegration::Blob&lt; N &gt;</text>
<polyline fill="none" stroke="black" points="855.5,-870.5 975.5,-870.5 "/>
<text text-anchor="start" x="863.5" y="-858.5" font-family="Helvetica,sans-Serif" font-size="10.00">+ this</text>
<polyline fill="none" stroke="black" points="855.5,-851.5 975.5,-851.5 "/>
<text text-anchor="start" x="863.5" y="-839.5" font-family="Helvetica,sans-Serif" font-size="10.00">+ Blob()</text>
<text text-anchor="start" x="863.5" y="-828.5" font-family="Helvetica,sans-Serif" font-size="10.00">+ Blob()</text>
<text text-anchor="start" x="863.5" y="-817.5" font-family="Helvetica,sans-Serif" font-size="10.00">+ Blob()</text>
<text text-anchor="start" x="863.5" y="-806.5" font-family="Helvetica,sans-Serif" font-size="10.00">+ Blob()</text>
<text text-anchor="start" x="863.5" y="-795.5" font-family="Helvetica,sans-Serif" font-size="10.00">+ Blob()</text>
<text text-anchor="start" x="863.5" y="-784.5" font-family="Helvetica,sans-Serif" font-size="10.00">+ operator=()</text>
<text text-anchor="start" x="863.5" y="-773.5" font-family="Helvetica,sans-Serif" font-size="10.00">+ operator=()</text>
<text text-anchor="start" x="863.5" y="-762.5" font-family="Helvetica,sans-Serif" font-size="10.00">+ reverse()</text>
<text text-anchor="start" x="863.5" y="-751.5" font-family="Helvetica,sans-Serif" font-size="10.00">+ operator~()</text>
<text text-anchor="start" x="863.5" y="-740.5" font-family="Helvetica,sans-Serif" font-size="10.00">+ asVector()</text>
<text text-anchor="start" x="863.5" y="-729.5" font-family="Helvetica,sans-Serif" font-size="10.00">and 9 more...</text>
<text text-anchor="start" x="863.5" y="-718.5" font-family="Helvetica,sans-Serif" font-size="10.00"># assign()</text>
<text text-anchor="start" x="863.5" y="-707.5" font-family="Helvetica,sans-Serif" font-size="10.00"># assign()</text>
</a>
</g>
</g>
<!-- Node15&#45;&gt;Node14 -->
<g id="edge18" class="edge">
<title>Node15&#45;&gt;Node14</title>
<path fill="none" stroke="#404040" d="M895.28,-700.26C885.49,-654.89 874.19,-602.49 866.32,-566.01"/>
<polygon fill="none" stroke="#404040" points="866.22,-565.54 861.04,-560.52 863.69,-553.81 868.86,-558.83 866.22,-565.54"/>
<text text-anchor="middle" x="915" y="-663" font-family="Helvetica,sans-Serif" font-size="10.00"> +elements</text>
</g>
<!-- Node18 -->
<g id="node18" class="node">
<title>Node18</title>
<g id="a_node18"><a xlink:href="structaltintegration_1_1Blob.html" target="_top" xlink:title=" ">
<polygon fill="white" stroke="black" points="937,-408.5 937,-630.5 1068,-630.5 1068,-408.5 937,-408.5"/>
<text text-anchor="start" x="945" y="-618.5" font-family="Helvetica,sans-Serif" font-size="10.00">altintegration::Blob</text>
<text text-anchor="middle" x="1002.5" y="-607.5" font-family="Helvetica,sans-Serif" font-size="10.00">&lt; SHA256_HASH_SIZE &gt;</text>
<polyline fill="none" stroke="black" points="937,-600.5 1068,-600.5 "/>
<text text-anchor="start" x="945" y="-588.5" font-family="Helvetica,sans-Serif" font-size="10.00">+ data_</text>
<text text-anchor="start" x="945" y="-577.5" font-family="Helvetica,sans-Serif" font-size="10.00">+ this</text>
<text text-anchor="start" x="945" y="-566.5" font-family="Helvetica,sans-Serif" font-size="10.00"># data_</text>
<polyline fill="none" stroke="black" points="937,-559.5 1068,-559.5 "/>
<text text-anchor="start" x="945" y="-547.5" font-family="Helvetica,sans-Serif" font-size="10.00">+ Blob()</text>
<text text-anchor="start" x="945" y="-536.5" font-family="Helvetica,sans-Serif" font-size="10.00">+ Blob()</text>
<text text-anchor="start" x="945" y="-525.5" font-family="Helvetica,sans-Serif" font-size="10.00">+ Blob()</text>
<text text-anchor="start" x="945" y="-514.5" font-family="Helvetica,sans-Serif" font-size="10.00">+ Blob()</text>
<text text-anchor="start" x="945" y="-503.5" font-family="Helvetica,sans-Serif" font-size="10.00">+ Blob()</text>
<text text-anchor="start" x="945" y="-492.5" font-family="Helvetica,sans-Serif" font-size="10.00">+ operator=()</text>
<text text-anchor="start" x="945" y="-481.5" font-family="Helvetica,sans-Serif" font-size="10.00">+ operator=()</text>
<text text-anchor="start" x="945" y="-470.5" font-family="Helvetica,sans-Serif" font-size="10.00">+ reverse()</text>
<text text-anchor="start" x="945" y="-459.5" font-family="Helvetica,sans-Serif" font-size="10.00">+ operator~()</text>
<text text-anchor="start" x="945" y="-448.5" font-family="Helvetica,sans-Serif" font-size="10.00">+ asVector()</text>
<text text-anchor="start" x="945" y="-437.5" font-family="Helvetica,sans-Serif" font-size="10.00">and 9 more...</text>
<text text-anchor="start" x="945" y="-426.5" font-family="Helvetica,sans-Serif" font-size="10.00"># assign()</text>
<text text-anchor="start" x="945" y="-415.5" font-family="Helvetica,sans-Serif" font-size="10.00"># assign()</text>
</a>
</g>
</g>
<!-- Node15&#45;&gt;Node18 -->
<g id="edge24" class="edge">
<title>Node15&#45;&gt;Node18</title>
<path fill="none" stroke="orange" d="M948.36,-690.71C954.6,-671.07 961.16,-650.45 967.47,-630.61"/>
<polygon fill="orange" stroke="orange" points="945.01,-689.67 945.32,-700.26 951.69,-691.79 945.01,-689.67"/>
<text text-anchor="middle" x="1020" y="-663" font-family="Helvetica,sans-Serif" font-size="10.00"> &lt; SHA256_HASH_SIZE &gt;</text>
</g>
<!-- Node16 -->
<g id="node16" class="node">
<title>Node16</title>
<g id="a_node16"><a xlink:title=" ">
<polygon fill="white" stroke="#bfbfbf" points="827,-1003.5 827,-1060.5 958,-1060.5 958,-1003.5 827,-1003.5"/>
<text text-anchor="middle" x="892.5" y="-1048.5" font-family="Helvetica,sans-Serif" font-size="10.00">std::array&lt; value_type, N &gt;</text>
<polyline fill="none" stroke="#bfbfbf" points="827,-1041.5 958,-1041.5 "/>
<text text-anchor="start" x="835" y="-1029.5" font-family="Helvetica,sans-Serif" font-size="10.00">+ elements</text>
<polyline fill="none" stroke="#bfbfbf" points="827,-1022.5 958,-1022.5 "/>
<text text-anchor="middle" x="892.5" y="-1010.5" font-family="Helvetica,sans-Serif" font-size="10.00"> </text>
</a>
</g>
</g>
<!-- Node16&#45;&gt;Node15 -->
<g id="edge19" class="edge">
<title>Node16&#45;&gt;Node15</title>
<path fill="none" stroke="#404040" d="M895.23,-1003.12C897.7,-977.83 901.51,-938.91 905.16,-901.6"/>
<polygon fill="none" stroke="#404040" points="905.17,-901.51 901.78,-895.15 906.34,-889.57 909.74,-895.93 905.17,-901.51"/>
<text text-anchor="middle" x="919.5" y="-911" font-family="Helvetica,sans-Serif" font-size="10.00"> #data_</text>
</g>
<!-- Node17&#45;&gt;Node16 -->
<g id="edge20" class="edge">
<title>Node17&#45;&gt;Node16</title>
<path fill="none" stroke="orange" d="M874.63,-1164.33C878.91,-1132.87 884.91,-1088.75 888.76,-1060.52"/>
<polygon fill="orange" stroke="orange" points="871.13,-1164.09 873.25,-1174.47 878.06,-1165.03 871.13,-1164.09"/>
<text text-anchor="middle" x="916" y="-1148" font-family="Helvetica,sans-Serif" font-size="10.00"> &lt; value_type, N &gt;</text>
</g>
<!-- Node18&#45;&gt;Node13 -->
<g id="edge23" class="edge">
<title>Node18&#45;&gt;Node13</title>
<path fill="none" stroke="#404040" d="M937.19,-408.45C920.39,-380.15 903.04,-350.92 888.75,-326.85"/>
<polygon fill="none" stroke="#404040" points="888.75,-326.84 882.25,-323.72 882.63,-316.52 889.13,-319.64 888.75,-326.84"/>
<text text-anchor="middle" x="944.5" y="-382" font-family="Helvetica,sans-Serif" font-size="10.00"> +subject</text>
</g>
<!-- Node19 -->
<g id="node19" class="node">
<title>Node19</title>
<g id="a_node19"><a xlink:href="structaltintegration_1_1VbkBlock.html" target="_top" xlink:title="Veriblock block.">
<polygon fill="white" stroke="black" points="946,-182.5 946,-360.5 1065,-360.5 1065,-182.5 946,-182.5"/>
<text text-anchor="middle" x="1005.5" y="-348.5" font-family="Helvetica,sans-Serif" font-size="10.00">altintegration::VbkBlock</text>
<polyline fill="none" stroke="black" points="946,-341.5 1065,-341.5 "/>
<text text-anchor="middle" x="1005.5" y="-329.5" font-family="Helvetica,sans-Serif" font-size="10.00"> </text>
<polyline fill="none" stroke="black" points="946,-322.5 1065,-322.5 "/>
<text text-anchor="start" x="954" y="-310.5" font-family="Helvetica,sans-Serif" font-size="10.00">+ toPrettyString()</text>
<text text-anchor="start" x="954" y="-299.5" font-family="Helvetica,sans-Serif" font-size="10.00">+ toShortPrettyString()</text>
<text text-anchor="start" x="954" y="-288.5" font-family="Helvetica,sans-Serif" font-size="10.00">+ toRaw()</text>
<text text-anchor="start" x="954" y="-277.5" font-family="Helvetica,sans-Serif" font-size="10.00">+ toVbkEncoding()</text>
<text text-anchor="start" x="954" y="-266.5" font-family="Helvetica,sans-Serif" font-size="10.00">+ toRaw()</text>
<text text-anchor="start" x="954" y="-255.5" font-family="Helvetica,sans-Serif" font-size="10.00">+ toVbkEncoding()</text>
<text text-anchor="start" x="954" y="-244.5" font-family="Helvetica,sans-Serif" font-size="10.00">+ estimateSize()</text>
<text text-anchor="start" x="954" y="-233.5" font-family="Helvetica,sans-Serif" font-size="10.00">+ getBlockTime()</text>
<text text-anchor="start" x="954" y="-222.5" font-family="Helvetica,sans-Serif" font-size="10.00">+ calculateHash()</text>
<text text-anchor="start" x="954" y="-211.5" font-family="Helvetica,sans-Serif" font-size="10.00">+ getHash()</text>
<text text-anchor="start" x="954" y="-200.5" font-family="Helvetica,sans-Serif" font-size="10.00">and 22 more...</text>
<text text-anchor="start" x="954" y="-189.5" font-family="Helvetica,sans-Serif" font-size="10.00">+ name()</text>
</a>
</g>
</g>
<!-- Node19&#45;&gt;Node1 -->
<g id="edge25" class="edge">
<title>Node19&#45;&gt;Node1</title>
<path fill="none" stroke="#404040" d="M945.97,-189.79C934.86,-174.74 923.3,-159.06 912.31,-144.16"/>
<polygon fill="none" stroke="#404040" points="912.31,-144.16 905.53,-141.7 905.18,-134.5 911.96,-136.96 912.31,-144.16"/>
<text text-anchor="middle" x="959.5" y="-156" font-family="Helvetica,sans-Serif" font-size="10.00"> +blockOfProof</text>
</g>
</g>
</svg>
