<?xml version="1.0" encoding="UTF-8" standalone="no"?>
<!DOCTYPE svg PUBLIC "-//W3C//DTD SVG 1.1//EN"
 "http://www.w3.org/Graphics/SVG/1.1/DTD/svg11.dtd">
<!-- Generated by graphviz version 2.44.0 ()
 -->
<!-- Title: altintegration::AltBlockTree Pages: 1 -->
<!--zoomable 1677 -->
<svg id="main" version="1.1" xmlns="http://www.w3.org/2000/svg" xmlns:xlink="http://www.w3.org/1999/xlink" xml:space="preserve" onload="init(evt)">
<style type="text/css"><![CDATA[
.edge:hover path { stroke: red; }
.edge:hover polygon { stroke: red; fill: red; }
]]></style>
<script type="text/javascript"><![CDATA[
var edges = document.getElementsByTagName('g');
if (edges && edges.length) {
  for (var i=0;i<edges.length;i++) {
    if (edges[i].id.substr(0,4)=='edge') {
      edges[i].setAttribute('class','edge');
    }
  }
}
]]></script>
        <defs>
                <circle id="rim" cx="0" cy="0" r="7"/>
                <circle id="rim2" cx="0" cy="0" r="3.5"/>
                <g id="zoomPlus">
                        <use xlink:href="#rim" fill="#404040">
                                <set attributeName="fill" to="#808080" begin="zoomplus.mouseover" end="zoomplus.mouseout"/>
                        </use>
                        <path d="M-4,0h8M0,-4v8" fill="none" stroke="white" stroke-width="1.5" pointer-events="none"/>
                </g>
                <g id="zoomMin">
                        <use xlink:href="#rim" fill="#404040">
                                <set attributeName="fill" to="#808080" begin="zoomminus.mouseover" end="zoomminus.mouseout"/>
                        </use>
                        <path d="M-4,0h8" fill="none" stroke="white" stroke-width="1.5" pointer-events="none"/>
                </g>
                <g id="dirArrow">
                        <path fill="none" stroke="white" stroke-width="1.5" d="M0,-3.0v7 M-2.5,-0.5L0,-3.0L2.5,-0.5"/>
                </g>
               <g id="resetDef">
                       <use xlink:href="#rim2" fill="#404040">
                               <set attributeName="fill" to="#808080" begin="reset.mouseover" end="reset.mouseout"/>
                       </use>
               </g>
        </defs>

<script type="text/javascript">
var viewWidth = 849;
var viewHeight = 1677;
var sectionId = 'dynsection-1';
</script>
<script xlink:href="svgpan.js"/>
<svg id="graph" class="graph">
<g id="viewport">
<title>altintegration::AltBlockTree</title>
<polygon fill="white" stroke="transparent" points="-4,4 -4,-1673 845,-1673 845,4 -4,4"/>
<!-- Node1 -->
<g id="node1" class="node">
<title>Node1</title>
<g id="a_node1"><a xlink:title="Represents simplified view on Altchain&#39;s block tree, maintains VBK tree and BTC tree.">
<polygon fill="#bfbfbf" stroke="black" points="226,-0.5 226,-233.5 361,-233.5 361,-0.5 226,-0.5"/>
<text text-anchor="middle" x="293.5" y="-221.5" font-family="Helvetica,sans-Serif" font-size="10.00">altintegration::AltBlockTree</text>
<polyline fill="none" stroke="black" points="226,-214.5 361,-214.5 "/>
<text text-anchor="start" x="234" y="-202.5" font-family="Helvetica,sans-Serif" font-size="10.00">+ onInvalidBlockConnected</text>
<text text-anchor="start" x="234" y="-191.5" font-family="Helvetica,sans-Serif" font-size="10.00">+ onBlockConnected</text>
<text text-anchor="start" x="234" y="-180.5" font-family="Helvetica,sans-Serif" font-size="10.00">+ onBeforeOverrideTip</text>
<polyline fill="none" stroke="black" points="226,-173.5 361,-173.5 "/>
<text text-anchor="start" x="234" y="-161.5" font-family="Helvetica,sans-Serif" font-size="10.00">+ ~AltBlockTree()</text>
<text text-anchor="start" x="234" y="-150.5" font-family="Helvetica,sans-Serif" font-size="10.00">+ AltBlockTree()</text>
<text text-anchor="start" x="234" y="-139.5" font-family="Helvetica,sans-Serif" font-size="10.00">+ acceptBlockHeader()</text>
<text text-anchor="start" x="234" y="-128.5" font-family="Helvetica,sans-Serif" font-size="10.00">+ acceptBlock()</text>
<text text-anchor="start" x="234" y="-117.5" font-family="Helvetica,sans-Serif" font-size="10.00">+ acceptBlock()</text>
<text text-anchor="start" x="234" y="-106.5" font-family="Helvetica,sans-Serif" font-size="10.00">+ acceptBlock()</text>
<text text-anchor="start" x="234" y="-95.5" font-family="Helvetica,sans-Serif" font-size="10.00">+ getConnectedTipsAfter()</text>
<text text-anchor="start" x="234" y="-84.5" font-family="Helvetica,sans-Serif" font-size="10.00">+ loadBlock()</text>
<text text-anchor="start" x="234" y="-73.5" font-family="Helvetica,sans-Serif" font-size="10.00">+ loadTip()</text>
<text text-anchor="start" x="234" y="-62.5" font-family="Helvetica,sans-Serif" font-size="10.00">+ comparePopScore()</text>
<text text-anchor="start" x="234" y="-51.5" font-family="Helvetica,sans-Serif" font-size="10.00">+ setState()</text>
<text text-anchor="start" x="234" y="-40.5" font-family="Helvetica,sans-Serif" font-size="10.00">+ removeSubtree()</text>
<text text-anchor="start" x="234" y="-29.5" font-family="Helvetica,sans-Serif" font-size="10.00">+ vbk()</text>
<text text-anchor="start" x="234" y="-18.5" font-family="Helvetica,sans-Serif" font-size="10.00">+ btc()</text>
<text text-anchor="start" x="234" y="-7.5" font-family="Helvetica,sans-Serif" font-size="10.00">+ getParams()</text>
</a>
</g>
</g>
<!-- Node2 -->
<g id="node2" class="node">
<title>Node2</title>
<g id="a_node2"><a xlink:href="structaltintegration_1_1BaseBlockTree.html" target="_top" xlink:title=" ">
<polygon fill="white" stroke="black" points="222.5,-271.5 222.5,-493.5 364.5,-493.5 364.5,-271.5 222.5,-271.5"/>
<text text-anchor="start" x="230.5" y="-481.5" font-family="Helvetica,sans-Serif" font-size="10.00">altintegration::BaseBlock</text>
<text text-anchor="middle" x="293.5" y="-470.5" font-family="Helvetica,sans-Serif" font-size="10.00">Tree&lt; AltBlock &gt;</text>
<polyline fill="none" stroke="black" points="222.5,-463.5 364.5,-463.5 "/>
<text text-anchor="start" x="230.5" y="-451.5" font-family="Helvetica,sans-Serif" font-size="10.00"># validity_sig_</text>
<polyline fill="none" stroke="black" points="222.5,-444.5 364.5,-444.5 "/>
<text text-anchor="start" x="230.5" y="-432.5" font-family="Helvetica,sans-Serif" font-size="10.00">+ getTips()</text>
<text text-anchor="start" x="230.5" y="-421.5" font-family="Helvetica,sans-Serif" font-size="10.00">+ getBlocks()</text>
<text text-anchor="start" x="230.5" y="-410.5" font-family="Helvetica,sans-Serif" font-size="10.00">+ ~BaseBlockTree()</text>
<text text-anchor="start" x="230.5" y="-399.5" font-family="Helvetica,sans-Serif" font-size="10.00">+ BaseBlockTree()</text>
<text text-anchor="start" x="230.5" y="-388.5" font-family="Helvetica,sans-Serif" font-size="10.00">+ BaseBlockTree()</text>
<text text-anchor="start" x="230.5" y="-377.5" font-family="Helvetica,sans-Serif" font-size="10.00">+ BaseBlockTree()</text>
<text text-anchor="start" x="230.5" y="-366.5" font-family="Helvetica,sans-Serif" font-size="10.00">+ operator=()</text>
<text text-anchor="start" x="230.5" y="-355.5" font-family="Helvetica,sans-Serif" font-size="10.00">+ operator=()</text>
<text text-anchor="start" x="230.5" y="-344.5" font-family="Helvetica,sans-Serif" font-size="10.00">+ getBestChain()</text>
<text text-anchor="start" x="230.5" y="-333.5" font-family="Helvetica,sans-Serif" font-size="10.00">+ makePrevHash()</text>
<text text-anchor="start" x="230.5" y="-322.5" font-family="Helvetica,sans-Serif" font-size="10.00">and 22 more...</text>
<text text-anchor="start" x="230.5" y="-311.5" font-family="Helvetica,sans-Serif" font-size="10.00"># eraseBlock()</text>
<text text-anchor="start" x="230.5" y="-300.5" font-family="Helvetica,sans-Serif" font-size="10.00"># toPrettyString()</text>
<text text-anchor="start" x="230.5" y="-289.5" font-family="Helvetica,sans-Serif" font-size="10.00"># reduceAppliedBlockCount()</text>
<text text-anchor="start" x="230.5" y="-278.5" font-family="Helvetica,sans-Serif" font-size="10.00"># reduceAppliedBlockCount()</text>
</a>
</g>
</g>
<!-- Node2&#45;&gt;Node1 -->
<g id="edge1" class="edge">
<title>Node2&#45;&gt;Node1</title>
<path fill="none" stroke="midnightblue" d="M293.5,-261.05C293.5,-251.95 293.5,-242.78 293.5,-233.72"/>
<polygon fill="none" stroke="midnightblue" points="290,-261.28 293.5,-271.28 297,-261.28 290,-261.28"/>
</g>
<!-- Node3 -->
<g id="node3" class="node">
<title>Node3</title>
<g id="a_node3"><a xlink:href="structaltintegration_1_1Chain.html" target="_top" xlink:title=" ">
<polygon fill="white" stroke="black" points="0,-811.5 0,-989.5 141,-989.5 141,-811.5 0,-811.5"/>
<text text-anchor="start" x="8" y="-977.5" font-family="Helvetica,sans-Serif" font-size="10.00">altintegration::Chain</text>
<text text-anchor="middle" x="70.5" y="-966.5" font-family="Helvetica,sans-Serif" font-size="10.00">&lt; altintegration::BlockIndex &gt;</text>
<polyline fill="none" stroke="black" points="0,-959.5 141,-959.5 "/>
<text text-anchor="middle" x="70.5" y="-947.5" font-family="Helvetica,sans-Serif" font-size="10.00"> </text>
<polyline fill="none" stroke="black" points="0,-940.5 141,-940.5 "/>
<text text-anchor="start" x="8" y="-928.5" font-family="Helvetica,sans-Serif" font-size="10.00">+ Chain()</text>
<text text-anchor="start" x="8" y="-917.5" font-family="Helvetica,sans-Serif" font-size="10.00">+ Chain()</text>
<text text-anchor="start" x="8" y="-906.5" font-family="Helvetica,sans-Serif" font-size="10.00">+ Chain()</text>
<text text-anchor="start" x="8" y="-895.5" font-family="Helvetica,sans-Serif" font-size="10.00">+ getStartHeight()</text>
<text text-anchor="start" x="8" y="-884.5" font-family="Helvetica,sans-Serif" font-size="10.00">+ firstHeight()</text>
<text text-anchor="start" x="8" y="-873.5" font-family="Helvetica,sans-Serif" font-size="10.00">+ contains()</text>
<text text-anchor="start" x="8" y="-862.5" font-family="Helvetica,sans-Serif" font-size="10.00">+ operator[]()</text>
<text text-anchor="start" x="8" y="-851.5" font-family="Helvetica,sans-Serif" font-size="10.00">+ next()</text>
<text text-anchor="start" x="8" y="-840.5" font-family="Helvetica,sans-Serif" font-size="10.00">+ chainHeight()</text>
<text text-anchor="start" x="8" y="-829.5" font-family="Helvetica,sans-Serif" font-size="10.00">+ empty()</text>
<text text-anchor="start" x="8" y="-818.5" font-family="Helvetica,sans-Serif" font-size="10.00">and 14 more...</text>
</a>
</g>
</g>
<!-- Node3&#45;&gt;Node2 -->
<g id="edge2" class="edge">
<title>Node3&#45;&gt;Node2</title>
<path fill="none" stroke="#404040" d="M51.68,-811.25C40.13,-735.2 34.84,-624.78 78.5,-541 106.88,-486.54 163.62,-446.22 211.68,-420.01"/>
<polygon fill="none" stroke="#404040" points="211.82,-419.94 215.25,-413.59 222.42,-414.31 219,-420.66 211.82,-419.94"/>
<text text-anchor="middle" x="110.5" y="-650" font-family="Helvetica,sans-Serif" font-size="10.00"> #activeChain_</text>
</g>
<!-- Node19 -->
<g id="node19" class="node">
<title>Node19</title>
<g id="a_node19"><a xlink:href="structaltintegration_1_1BaseBlockTree.html" target="_top" xlink:title="Base block tree that stores all blocks, maintains tree tips, maintains active chain.">
<polygon fill="white" stroke="black" points="151.5,-541.5 151.5,-763.5 293.5,-763.5 293.5,-541.5 151.5,-541.5"/>
<text text-anchor="start" x="159.5" y="-751.5" font-family="Helvetica,sans-Serif" font-size="10.00">altintegration::BaseBlock</text>
<text text-anchor="middle" x="222.5" y="-740.5" font-family="Helvetica,sans-Serif" font-size="10.00">Tree&lt; Block &gt;</text>
<polyline fill="none" stroke="black" points="151.5,-733.5 293.5,-733.5 "/>
<text text-anchor="start" x="159.5" y="-721.5" font-family="Helvetica,sans-Serif" font-size="10.00"># validity_sig_</text>
<polyline fill="none" stroke="black" points="151.5,-714.5 293.5,-714.5 "/>
<text text-anchor="start" x="159.5" y="-702.5" font-family="Helvetica,sans-Serif" font-size="10.00">+ getTips()</text>
<text text-anchor="start" x="159.5" y="-691.5" font-family="Helvetica,sans-Serif" font-size="10.00">+ getBlocks()</text>
<text text-anchor="start" x="159.5" y="-680.5" font-family="Helvetica,sans-Serif" font-size="10.00">+ ~BaseBlockTree()</text>
<text text-anchor="start" x="159.5" y="-669.5" font-family="Helvetica,sans-Serif" font-size="10.00">+ BaseBlockTree()</text>
<text text-anchor="start" x="159.5" y="-658.5" font-family="Helvetica,sans-Serif" font-size="10.00">+ BaseBlockTree()</text>
<text text-anchor="start" x="159.5" y="-647.5" font-family="Helvetica,sans-Serif" font-size="10.00">+ operator=()</text>
<text text-anchor="start" x="159.5" y="-636.5" font-family="Helvetica,sans-Serif" font-size="10.00">+ BaseBlockTree()</text>
<text text-anchor="start" x="159.5" y="-625.5" font-family="Helvetica,sans-Serif" font-size="10.00">+ operator=()</text>
<text text-anchor="start" x="159.5" y="-614.5" font-family="Helvetica,sans-Serif" font-size="10.00">+ getBestChain()</text>
<text text-anchor="start" x="159.5" y="-603.5" font-family="Helvetica,sans-Serif" font-size="10.00">+ makePrevHash()</text>
<text text-anchor="start" x="159.5" y="-592.5" font-family="Helvetica,sans-Serif" font-size="10.00">and 22 more...</text>
<text text-anchor="start" x="159.5" y="-581.5" font-family="Helvetica,sans-Serif" font-size="10.00"># eraseBlock()</text>
<text text-anchor="start" x="159.5" y="-570.5" font-family="Helvetica,sans-Serif" font-size="10.00"># toPrettyString()</text>
<text text-anchor="start" x="159.5" y="-559.5" font-family="Helvetica,sans-Serif" font-size="10.00"># reduceAppliedBlockCount()</text>
<text text-anchor="start" x="159.5" y="-548.5" font-family="Helvetica,sans-Serif" font-size="10.00"># reduceAppliedBlockCount()</text>
</a>
</g>
</g>
<!-- Node3&#45;&gt;Node19 -->
<g id="edge25" class="edge">
<title>Node3&#45;&gt;Node19</title>
<path fill="none" stroke="#404040" d="M124.95,-811.38C132.4,-799.32 140.16,-786.77 147.89,-774.25"/>
<polygon fill="none" stroke="#404040" points="148.07,-773.96 147.82,-766.75 154.38,-763.75 154.63,-770.96 148.07,-773.96"/>
<text text-anchor="middle" x="174.5" y="-785" font-family="Helvetica,sans-Serif" font-size="10.00"> #activeChain_</text>
</g>
<!-- Node4 -->
<g id="node4" class="node">
<title>Node4</title>
<g id="a_node4"><a xlink:href="structaltintegration_1_1Chain.html" target="_top" xlink:title="Fully in&#45;memory chain representation.">
<polygon fill="white" stroke="black" points="20,-1065 20,-1243 121,-1243 121,-1065 20,-1065"/>
<text text-anchor="start" x="28" y="-1231" font-family="Helvetica,sans-Serif" font-size="10.00">altintegration::Chain</text>
<text text-anchor="middle" x="70.5" y="-1220" font-family="Helvetica,sans-Serif" font-size="10.00">&lt; BlockIndexT &gt;</text>
<polyline fill="none" stroke="black" points="20,-1213 121,-1213 "/>
<text text-anchor="middle" x="70.5" y="-1201" font-family="Helvetica,sans-Serif" font-size="10.00"> </text>
<polyline fill="none" stroke="black" points="20,-1194 121,-1194 "/>
<text text-anchor="start" x="28" y="-1182" font-family="Helvetica,sans-Serif" font-size="10.00">+ Chain()</text>
<text text-anchor="start" x="28" y="-1171" font-family="Helvetica,sans-Serif" font-size="10.00">+ Chain()</text>
<text text-anchor="start" x="28" y="-1160" font-family="Helvetica,sans-Serif" font-size="10.00">+ Chain()</text>
<text text-anchor="start" x="28" y="-1149" font-family="Helvetica,sans-Serif" font-size="10.00">+ getStartHeight()</text>
<text text-anchor="start" x="28" y="-1138" font-family="Helvetica,sans-Serif" font-size="10.00">+ firstHeight()</text>
<text text-anchor="start" x="28" y="-1127" font-family="Helvetica,sans-Serif" font-size="10.00">+ contains()</text>
<text text-anchor="start" x="28" y="-1116" font-family="Helvetica,sans-Serif" font-size="10.00">+ operator[]()</text>
<text text-anchor="start" x="28" y="-1105" font-family="Helvetica,sans-Serif" font-size="10.00">+ next()</text>
<text text-anchor="start" x="28" y="-1094" font-family="Helvetica,sans-Serif" font-size="10.00">+ chainHeight()</text>
<text text-anchor="start" x="28" y="-1083" font-family="Helvetica,sans-Serif" font-size="10.00">+ empty()</text>
<text text-anchor="start" x="28" y="-1072" font-family="Helvetica,sans-Serif" font-size="10.00">and 14 more...</text>
</a>
</g>
</g>
<!-- Node4&#45;&gt;Node3 -->
<g id="edge3" class="edge">
<title>Node4&#45;&gt;Node3</title>
<path fill="none" stroke="orange" d="M70.5,-1054.59C70.5,-1033.16 70.5,-1010.61 70.5,-989.6"/>
<polygon fill="orange" stroke="orange" points="67,-1054.68 70.5,-1064.68 74,-1054.68 67,-1054.68"/>
<text text-anchor="middle" x="134" y="-1016.5" font-family="Helvetica,sans-Serif" font-size="10.00"> &lt; altintegration::BlockIndex &gt;</text>
</g>
<!-- Node5 -->
<g id="node5" class="node">
<title>Node5</title>
<g id="a_node5"><a xlink:title=" ">
<polygon fill="white" stroke="#bfbfbf" points="169,-861 169,-940 306,-940 306,-861 169,-861"/>
<text text-anchor="start" x="177" y="-928" font-family="Helvetica,sans-Serif" font-size="10.00">std::unordered_map</text>
<text text-anchor="start" x="177" y="-917" font-family="Helvetica,sans-Serif" font-size="10.00">&lt; prev_block_hash_t,</text>
<text text-anchor="middle" x="237.5" y="-906" font-family="Helvetica,sans-Serif" font-size="10.00"> std::unique_ptr&lt; index_t &gt; &gt;</text>
<polyline fill="none" stroke="#bfbfbf" points="169,-899 306,-899 "/>
<text text-anchor="start" x="177" y="-887" font-family="Helvetica,sans-Serif" font-size="10.00">+ keys</text>
<polyline fill="none" stroke="#bfbfbf" points="169,-880 306,-880 "/>
<text text-anchor="middle" x="237.5" y="-868" font-family="Helvetica,sans-Serif" font-size="10.00"> </text>
</a>
</g>
</g>
<!-- Node5&#45;&gt;Node2 -->
<g id="edge4" class="edge">
<title>Node5&#45;&gt;Node2</title>
<path fill="none" stroke="#404040" d="M274.97,-860.96C290.74,-842.09 307.31,-818.05 315.5,-793 345.93,-699.96 337.33,-588.74 322.84,-505.71"/>
<polygon fill="none" stroke="#404040" points="322.8,-505.48 317.8,-500.28 320.67,-493.67 325.67,-498.86 322.8,-505.48"/>
<text text-anchor="middle" x="356.5" y="-650" font-family="Helvetica,sans-Serif" font-size="10.00"> #blocks_</text>
</g>
<!-- Node5&#45;&gt;Node19 -->
<g id="edge26" class="edge">
<title>Node5&#45;&gt;Node19</title>
<path fill="none" stroke="#404040" d="M230.25,-860.71C226.85,-840.59 223.19,-815.56 221.5,-793 221.08,-787.34 220.74,-781.54 220.48,-775.68"/>
<polygon fill="none" stroke="#404040" points="220.47,-775.58 216.26,-769.73 220.04,-763.59 224.25,-769.44 220.47,-775.58"/>
<text text-anchor="middle" x="242.5" y="-785" font-family="Helvetica,sans-Serif" font-size="10.00"> #blocks_</text>
</g>
<!-- Node6 -->
<g id="node6" class="node">
<title>Node6</title>
<g id="a_node6"><a xlink:title=" ">
<polygon fill="white" stroke="#bfbfbf" points="170,-1278.5 170,-1335.5 297,-1335.5 297,-1278.5 170,-1278.5"/>
<text text-anchor="middle" x="233.5" y="-1323.5" font-family="Helvetica,sans-Serif" font-size="10.00">std::unique_ptr&lt; index_t &gt;</text>
<polyline fill="none" stroke="#bfbfbf" points="170,-1316.5 297,-1316.5 "/>
<text text-anchor="start" x="178" y="-1304.5" font-family="Helvetica,sans-Serif" font-size="10.00">+ ptr</text>
<polyline fill="none" stroke="#bfbfbf" points="170,-1297.5 297,-1297.5 "/>
<text text-anchor="start" x="178" y="-1285.5" font-family="Helvetica,sans-Serif" font-size="10.00">+ operator&#45;&gt;()</text>
</a>
</g>
</g>
<!-- Node6&#45;&gt;Node5 -->
<g id="edge5" class="edge">
<title>Node6&#45;&gt;Node5</title>
<path fill="none" stroke="#404040" d="M226.5,-1278.43C225.25,-1272.39 224.15,-1266.01 223.5,-1260 211.77,-1150.83 222.83,-1022.02 230.86,-952.38"/>
<polygon fill="none" stroke="#404040" points="230.9,-952.01 227.64,-945.58 232.32,-940.09 235.58,-946.52 230.9,-952.01"/>
<text text-anchor="middle" x="248" y="-1151.5" font-family="Helvetica,sans-Serif" font-size="10.00"> +elements</text>
</g>
<!-- Node7 -->
<g id="node7" class="node">
<title>Node7</title>
<g id="a_node7"><a xlink:title=" ">
<polygon fill="white" stroke="#bfbfbf" points="199.5,-1430.5 199.5,-1487.5 301.5,-1487.5 301.5,-1430.5 199.5,-1430.5"/>
<text text-anchor="middle" x="250.5" y="-1475.5" font-family="Helvetica,sans-Serif" font-size="10.00">std::unique_ptr&lt; T &gt;</text>
<polyline fill="none" stroke="#bfbfbf" points="199.5,-1468.5 301.5,-1468.5 "/>
<text text-anchor="middle" x="250.5" y="-1456.5" font-family="Helvetica,sans-Serif" font-size="10.00"> </text>
<polyline fill="none" stroke="#bfbfbf" points="199.5,-1449.5 301.5,-1449.5 "/>
<text text-anchor="start" x="207.5" y="-1437.5" font-family="Helvetica,sans-Serif" font-size="10.00">+ operator&#45;&gt;()</text>
</a>
</g>
</g>
<!-- Node7&#45;&gt;Node6 -->
<g id="edge6" class="edge">
<title>Node7&#45;&gt;Node6</title>
<path fill="none" stroke="orange" d="M246.25,-1420.47C243.26,-1394.11 239.33,-1359.43 236.63,-1335.59"/>
<polygon fill="orange" stroke="orange" points="242.78,-1420.95 247.38,-1430.49 249.73,-1420.16 242.78,-1420.95"/>
<text text-anchor="middle" x="269.5" y="-1380.5" font-family="Helvetica,sans-Serif" font-size="10.00"> &lt; index_t &gt;</text>
</g>
<!-- Node8 -->
<g id="node8" class="node">
<title>Node8</title>
<g id="a_node8"><a xlink:title=" ">
<polygon fill="white" stroke="#bfbfbf" points="317,-1611.5 317,-1668.5 346,-1668.5 346,-1611.5 317,-1611.5"/>
<text text-anchor="middle" x="331.5" y="-1656.5" font-family="Helvetica,sans-Serif" font-size="10.00">T</text>
<polyline fill="none" stroke="#bfbfbf" points="317,-1649.5 346,-1649.5 "/>
<text text-anchor="middle" x="331.5" y="-1637.5" font-family="Helvetica,sans-Serif" font-size="10.00"> </text>
<polyline fill="none" stroke="#bfbfbf" points="317,-1630.5 346,-1630.5 "/>
<text text-anchor="middle" x="331.5" y="-1618.5" font-family="Helvetica,sans-Serif" font-size="10.00"> </text>
</a>
</g>
</g>
<!-- Node8&#45;&gt;Node7 -->
<g id="edge7" class="edge">
<title>Node8&#45;&gt;Node7</title>
<path fill="none" stroke="#404040" d="M316.96,-1621.9C310.39,-1613.57 302.9,-1603.17 297.5,-1593 281.62,-1563.08 269.18,-1526.67 261.09,-1499.51"/>
<polygon fill="none" stroke="#404040" points="261.02,-1499.27 255.52,-1494.62 257.69,-1487.74 263.2,-1492.39 261.02,-1499.27"/>
<text text-anchor="middle" x="307.5" y="-1585" font-family="Helvetica,sans-Serif" font-size="10.00"> +ptr</text>
</g>
<!-- Node9 -->
<g id="node9" class="node">
<title>Node9</title>
<g id="a_node9"><a xlink:title=" ">
<polygon fill="white" stroke="#bfbfbf" points="281,-1120 281,-1188 382,-1188 382,-1120 281,-1120"/>
<text text-anchor="start" x="289" y="-1176" font-family="Helvetica,sans-Serif" font-size="10.00">std::unordered_map</text>
<text text-anchor="middle" x="331.5" y="-1165" font-family="Helvetica,sans-Serif" font-size="10.00">&lt; K, T &gt;</text>
<polyline fill="none" stroke="#bfbfbf" points="281,-1158 382,-1158 "/>
<text text-anchor="middle" x="331.5" y="-1146" font-family="Helvetica,sans-Serif" font-size="10.00"> </text>
<polyline fill="none" stroke="#bfbfbf" points="281,-1139 382,-1139 "/>
<text text-anchor="middle" x="331.5" y="-1127" font-family="Helvetica,sans-Serif" font-size="10.00"> </text>
</a>
</g>
</g>
<!-- Node8&#45;&gt;Node9 -->
<g id="edge10" class="edge">
<title>Node8&#45;&gt;Node9</title>
<path fill="none" stroke="#404040" d="M331.5,-1611.24C331.5,-1531.19 331.5,-1299.33 331.5,-1200.5"/>
<polygon fill="none" stroke="#404040" points="331.5,-1200.29 327.5,-1194.29 331.5,-1188.29 335.5,-1194.29 331.5,-1200.29"/>
<text text-anchor="middle" x="356" y="-1456.5" font-family="Helvetica,sans-Serif" font-size="10.00"> +elements</text>
</g>
<!-- Node15 -->
<g id="node15" class="node">
<title>Node15</title>
<g id="a_node15"><a xlink:title=" ">
<polygon fill="white" stroke="#bfbfbf" points="396,-1506.5 396,-1563.5 499,-1563.5 499,-1506.5 396,-1506.5"/>
<text text-anchor="middle" x="447.5" y="-1551.5" font-family="Helvetica,sans-Serif" font-size="10.00">std::shared_ptr&lt; T &gt;</text>
<polyline fill="none" stroke="#bfbfbf" points="396,-1544.5 499,-1544.5 "/>
<text text-anchor="middle" x="447.5" y="-1532.5" font-family="Helvetica,sans-Serif" font-size="10.00"> </text>
<polyline fill="none" stroke="#bfbfbf" points="396,-1525.5 499,-1525.5 "/>
<text text-anchor="start" x="404" y="-1513.5" font-family="Helvetica,sans-Serif" font-size="10.00">+ operator&#45;&gt;()</text>
</a>
</g>
</g>
<!-- Node8&#45;&gt;Node15 -->
<g id="edge16" class="edge">
<title>Node8&#45;&gt;Node15</title>
<path fill="none" stroke="#404040" d="M346.19,-1625.95C361.49,-1612.37 386.12,-1590.51 407.26,-1571.73"/>
<polygon fill="none" stroke="#404040" points="407.4,-1571.6 409.23,-1564.63 416.38,-1563.64 414.55,-1570.61 407.4,-1571.6"/>
<text text-anchor="middle" x="402.5" y="-1585" font-family="Helvetica,sans-Serif" font-size="10.00"> +ptr</text>
</g>
<!-- Node9&#45;&gt;Node5 -->
<g id="edge8" class="edge">
<title>Node9&#45;&gt;Node5</title>
<path fill="none" stroke="orange" d="M303.77,-1111.43C289.51,-1088.32 272.97,-1058.54 262.5,-1030 251.77,-1000.77 245.37,-966.02 241.73,-940.04"/>
<polygon fill="orange" stroke="orange" points="300.83,-1113.33 309.11,-1119.95 306.77,-1109.61 300.83,-1113.33"/>
<text text-anchor="start" x="262.5" y="-1022" font-family="Helvetica,sans-Serif" font-size="10.00"> &lt; prev_block_hash_t,</text>
<text text-anchor="middle" x="323" y="-1011" font-family="Helvetica,sans-Serif" font-size="10.00"> std::unique_ptr&lt; index_t &gt; &gt;</text>
</g>
<!-- Node10 -->
<g id="node10" class="node">
<title>Node10</title>
<g id="a_node10"><a xlink:title=" ">
<polygon fill="white" stroke="#bfbfbf" points="445,-1354.5 445,-1411.5 474,-1411.5 474,-1354.5 445,-1354.5"/>
<text text-anchor="middle" x="459.5" y="-1399.5" font-family="Helvetica,sans-Serif" font-size="10.00">K</text>
<polyline fill="none" stroke="#bfbfbf" points="445,-1392.5 474,-1392.5 "/>
<text text-anchor="middle" x="459.5" y="-1380.5" font-family="Helvetica,sans-Serif" font-size="10.00"> </text>
<polyline fill="none" stroke="#bfbfbf" points="445,-1373.5 474,-1373.5 "/>
<text text-anchor="middle" x="459.5" y="-1361.5" font-family="Helvetica,sans-Serif" font-size="10.00"> </text>
</a>
</g>
</g>
<!-- Node10&#45;&gt;Node9 -->
<g id="edge9" class="edge">
<title>Node10&#45;&gt;Node9</title>
<path fill="none" stroke="#404040" d="M444.75,-1362.71C438.82,-1354.63 432.07,-1345.03 426.5,-1336 398.55,-1290.7 370.74,-1236.35 352.5,-1199.11"/>
<polygon fill="none" stroke="#404040" points="352.41,-1198.92 346.19,-1195.27 347.16,-1188.13 353.38,-1191.77 352.41,-1198.92"/>
<text text-anchor="middle" x="441" y="-1304.5" font-family="Helvetica,sans-Serif" font-size="10.00"> +keys</text>
</g>
<!-- Node17 -->
<g id="node17" class="node">
<title>Node17</title>
<g id="a_node17"><a xlink:title=" ">
<polygon fill="white" stroke="#bfbfbf" points="550,-1125.5 550,-1182.5 621,-1182.5 621,-1125.5 550,-1125.5"/>
<text text-anchor="middle" x="585.5" y="-1170.5" font-family="Helvetica,sans-Serif" font-size="10.00">std::set&lt; K &gt;</text>
<polyline fill="none" stroke="#bfbfbf" points="550,-1163.5 621,-1163.5 "/>
<text text-anchor="middle" x="585.5" y="-1151.5" font-family="Helvetica,sans-Serif" font-size="10.00"> </text>
<polyline fill="none" stroke="#bfbfbf" points="550,-1144.5 621,-1144.5 "/>
<text text-anchor="middle" x="585.5" y="-1132.5" font-family="Helvetica,sans-Serif" font-size="10.00"> </text>
</a>
</g>
</g>
<!-- Node10&#45;&gt;Node17 -->
<g id="edge21" class="edge">
<title>Node10&#45;&gt;Node17</title>
<path fill="none" stroke="#404040" d="M474.29,-1362.74C480.23,-1354.66 486.97,-1345.06 492.5,-1336 521.55,-1288.46 550.09,-1230.81 567.74,-1193.55"/>
<polygon fill="none" stroke="#404040" points="567.75,-1193.53 566.68,-1186.4 572.85,-1182.67 573.92,-1189.8 567.75,-1193.53"/>
<text text-anchor="middle" x="537" y="-1304.5" font-family="Helvetica,sans-Serif" font-size="10.00"> +keys</text>
</g>
<!-- Node18 -->
<g id="node18" class="node">
<title>Node18</title>
<g id="a_node18"><a xlink:title=" ">
<polygon fill="white" stroke="#bfbfbf" points="400,-1125.5 400,-1182.5 519,-1182.5 519,-1125.5 400,-1125.5"/>
<text text-anchor="middle" x="459.5" y="-1170.5" font-family="Helvetica,sans-Serif" font-size="10.00">std::unordered_set&lt; K &gt;</text>
<polyline fill="none" stroke="#bfbfbf" points="400,-1163.5 519,-1163.5 "/>
<text text-anchor="middle" x="459.5" y="-1151.5" font-family="Helvetica,sans-Serif" font-size="10.00"> </text>
<polyline fill="none" stroke="#bfbfbf" points="400,-1144.5 519,-1144.5 "/>
<text text-anchor="middle" x="459.5" y="-1132.5" font-family="Helvetica,sans-Serif" font-size="10.00"> </text>
</a>
</g>
</g>
<!-- Node10&#45;&gt;Node18 -->
<g id="edge23" class="edge">
<title>Node10&#45;&gt;Node18</title>
<path fill="none" stroke="#404040" d="M459.5,-1354.17C459.5,-1314.23 459.5,-1240.48 459.5,-1194.8"/>
<polygon fill="none" stroke="#404040" points="459.5,-1194.71 455.5,-1188.71 459.5,-1182.71 463.5,-1188.71 459.5,-1194.71"/>
<text text-anchor="middle" x="474" y="-1304.5" font-family="Helvetica,sans-Serif" font-size="10.00"> +keys</text>
</g>
<!-- Node11 -->
<g id="node11" class="node">
<title>Node11</title>
<g id="a_node11"><a xlink:title=" ">
<polygon fill="white" stroke="#bfbfbf" points="334,-866.5 334,-934.5 481,-934.5 481,-866.5 334,-866.5"/>
<text text-anchor="start" x="342" y="-922.5" font-family="Helvetica,sans-Serif" font-size="10.00">std::unordered_set</text>
<text text-anchor="middle" x="407.5" y="-911.5" font-family="Helvetica,sans-Serif" font-size="10.00">&lt; altintegration::BlockIndex * &gt;</text>
<polyline fill="none" stroke="#bfbfbf" points="334,-904.5 481,-904.5 "/>
<text text-anchor="middle" x="407.5" y="-892.5" font-family="Helvetica,sans-Serif" font-size="10.00"> </text>
<polyline fill="none" stroke="#bfbfbf" points="334,-885.5 481,-885.5 "/>
<text text-anchor="middle" x="407.5" y="-873.5" font-family="Helvetica,sans-Serif" font-size="10.00"> </text>
</a>
</g>
</g>
<!-- Node11&#45;&gt;Node2 -->
<g id="edge11" class="edge">
<title>Node11&#45;&gt;Node2</title>
<path fill="none" stroke="#404040" d="M409.83,-866.01C413.28,-801.55 416.05,-656.38 381.5,-541 377.85,-528.82 373.15,-516.55 367.82,-504.52"/>
<polygon fill="none" stroke="#404040" points="367.79,-504.44 361.64,-500.67 362.76,-493.54 368.91,-497.32 367.79,-504.44"/>
<text text-anchor="middle" x="425" y="-650" font-family="Helvetica,sans-Serif" font-size="10.00"> #tips_</text>
</g>
<!-- Node11&#45;&gt;Node19 -->
<g id="edge27" class="edge">
<title>Node11&#45;&gt;Node19</title>
<path fill="none" stroke="#404040" d="M382.55,-866.32C361.55,-838.4 330.33,-796.88 301.02,-757.92"/>
<polygon fill="none" stroke="#404040" points="300.84,-757.66 294.03,-755.27 293.62,-748.07 300.43,-750.47 300.84,-757.66"/>
<text text-anchor="middle" x="340" y="-785" font-family="Helvetica,sans-Serif" font-size="10.00"> #tips_</text>
</g>
<!-- Node12 -->
<g id="node12" class="node">
<title>Node12</title>
<g id="a_node12"><a xlink:href="structaltintegration_1_1BlockIndex.html" target="_top" xlink:title="A node in a block tree.">
<polygon fill="white" stroke="black" points="665,-1048.5 665,-1259.5 790,-1259.5 790,-1048.5 665,-1048.5"/>
<text text-anchor="start" x="673" y="-1247.5" font-family="Helvetica,sans-Serif" font-size="10.00">altintegration::BlockIndex</text>
<text text-anchor="middle" x="727.5" y="-1236.5" font-family="Helvetica,sans-Serif" font-size="10.00">&lt; Block &gt;</text>
<polyline fill="none" stroke="black" points="665,-1229.5 790,-1229.5 "/>
<text text-anchor="start" x="673" y="-1217.5" font-family="Helvetica,sans-Serif" font-size="10.00">+ finalized</text>
<text text-anchor="start" x="673" y="-1206.5" font-family="Helvetica,sans-Serif" font-size="10.00"># height</text>
<text text-anchor="start" x="673" y="-1195.5" font-family="Helvetica,sans-Serif" font-size="10.00"># status</text>
<text text-anchor="start" x="673" y="-1184.5" font-family="Helvetica,sans-Serif" font-size="10.00"># dirty</text>
<polyline fill="none" stroke="black" points="665,-1177.5 790,-1177.5 "/>
<text text-anchor="start" x="673" y="-1165.5" font-family="Helvetica,sans-Serif" font-size="10.00">+ BlockIndex()</text>
<text text-anchor="start" x="673" y="-1154.5" font-family="Helvetica,sans-Serif" font-size="10.00">+ BlockIndex()</text>
<text text-anchor="start" x="673" y="-1143.5" font-family="Helvetica,sans-Serif" font-size="10.00">+ ~BlockIndex()</text>
<text text-anchor="start" x="673" y="-1132.5" font-family="Helvetica,sans-Serif" font-size="10.00">+ BlockIndex()</text>
<text text-anchor="start" x="673" y="-1121.5" font-family="Helvetica,sans-Serif" font-size="10.00">+ operator=()</text>
<text text-anchor="start" x="673" y="-1110.5" font-family="Helvetica,sans-Serif" font-size="10.00">+ isDeleted()</text>
<text text-anchor="start" x="673" y="-1099.5" font-family="Helvetica,sans-Serif" font-size="10.00">+ restore()</text>
<text text-anchor="start" x="673" y="-1088.5" font-family="Helvetica,sans-Serif" font-size="10.00">+ deleteTemporarily()</text>
<text text-anchor="start" x="673" y="-1077.5" font-family="Helvetica,sans-Serif" font-size="10.00">+ mergeFrom()</text>
<text text-anchor="start" x="673" y="-1066.5" font-family="Helvetica,sans-Serif" font-size="10.00">+ toStoredBlockIndex()</text>
<text text-anchor="start" x="673" y="-1055.5" font-family="Helvetica,sans-Serif" font-size="10.00">and 39 more...</text>
</a>
</g>
</g>
<!-- Node12&#45;&gt;Node11 -->
<g id="edge12" class="edge">
<title>Node12&#45;&gt;Node11</title>
<path fill="none" stroke="#404040" d="M664.82,-1074.41C654.21,-1064.45 642.66,-1055.23 630.5,-1048 602.52,-1031.36 588.45,-1044.89 559.5,-1030 536.34,-1018.09 487.76,-975.66 451.72,-942.78"/>
<polygon fill="none" stroke="#404040" points="451.7,-942.75 444.57,-941.65 442.85,-934.65 449.98,-935.75 451.7,-942.75"/>
<text text-anchor="middle" x="574" y="-1016.5" font-family="Helvetica,sans-Serif" font-size="10.00"> +keys</text>
</g>
<!-- Node12&#45;&gt;Node12 -->
<g id="edge17" class="edge">
<title>Node12&#45;&gt;Node12</title>
<path fill="none" stroke="#404040" d="M790.28,-1177.35C800.76,-1174.08 808,-1166.3 808,-1154 808,-1146.5 805.31,-1140.69 800.84,-1136.54"/>
<polygon fill="none" stroke="#404040" points="800.76,-1136.5 793.57,-1137.06 790.28,-1130.65 797.47,-1130.08 800.76,-1136.5"/>
<text text-anchor="middle" x="824.5" y="-1151.5" font-family="Helvetica,sans-Serif" font-size="10.00"> +pprev</text>
</g>
<!-- Node16 -->
<g id="node16" class="node">
<title>Node16</title>
<g id="a_node16"><a xlink:title=" ">
<polygon fill="white" stroke="#bfbfbf" points="698.5,-866.5 698.5,-934.5 810.5,-934.5 810.5,-866.5 698.5,-866.5"/>
<text text-anchor="start" x="706.5" y="-922.5" font-family="Helvetica,sans-Serif" font-size="10.00">std::set&lt; altintegration</text>
<text text-anchor="middle" x="754.5" y="-911.5" font-family="Helvetica,sans-Serif" font-size="10.00">::BlockIndex * &gt;</text>
<polyline fill="none" stroke="#bfbfbf" points="698.5,-904.5 810.5,-904.5 "/>
<text text-anchor="middle" x="754.5" y="-892.5" font-family="Helvetica,sans-Serif" font-size="10.00"> </text>
<polyline fill="none" stroke="#bfbfbf" points="698.5,-885.5 810.5,-885.5 "/>
<text text-anchor="middle" x="754.5" y="-873.5" font-family="Helvetica,sans-Serif" font-size="10.00"> </text>
</a>
</g>
</g>
<!-- Node12&#45;&gt;Node16 -->
<g id="edge19" class="edge">
<title>Node12&#45;&gt;Node16</title>
<path fill="none" stroke="#404040" d="M738.75,-1048.16C742.54,-1012.86 746.58,-975.3 749.61,-947.03"/>
<polygon fill="none" stroke="#404040" points="749.65,-946.67 746.31,-940.27 750.93,-934.74 754.27,-941.13 749.65,-946.67"/>
<text text-anchor="middle" x="757" y="-1016.5" font-family="Helvetica,sans-Serif" font-size="10.00"> +keys</text>
</g>
<!-- Node13 -->
<g id="node13" class="node">
<title>Node13</title>
<g id="a_node13"><a xlink:title=" ">
<polygon fill="white" stroke="#bfbfbf" points="687.5,-1354.5 687.5,-1411.5 767.5,-1411.5 767.5,-1354.5 687.5,-1354.5"/>
<text text-anchor="middle" x="727.5" y="-1399.5" font-family="Helvetica,sans-Serif" font-size="10.00">Block::addon_t</text>
<polyline fill="none" stroke="#bfbfbf" points="687.5,-1392.5 767.5,-1392.5 "/>
<text text-anchor="middle" x="727.5" y="-1380.5" font-family="Helvetica,sans-Serif" font-size="10.00"> </text>
<polyline fill="none" stroke="#bfbfbf" points="687.5,-1373.5 767.5,-1373.5 "/>
<text text-anchor="middle" x="727.5" y="-1361.5" font-family="Helvetica,sans-Serif" font-size="10.00"> </text>
</a>
</g>
</g>
<!-- Node13&#45;&gt;Node12 -->
<g id="edge13" class="edge">
<title>Node13&#45;&gt;Node12</title>
<path fill="none" stroke="midnightblue" d="M727.5,-1344.05C727.5,-1320.79 727.5,-1289.76 727.5,-1259.58"/>
<polygon fill="none" stroke="midnightblue" points="724,-1344.17 727.5,-1354.17 731,-1344.17 724,-1344.17"/>
</g>
<!-- Node14 -->
<g id="node14" class="node">
<title>Node14</title>
<g id="a_node14"><a xlink:title=" ">
<polygon fill="white" stroke="#bfbfbf" points="517.5,-1354.5 517.5,-1411.5 645.5,-1411.5 645.5,-1354.5 517.5,-1354.5"/>
<text text-anchor="middle" x="581.5" y="-1399.5" font-family="Helvetica,sans-Serif" font-size="10.00">std::shared_ptr&lt; block_t &gt;</text>
<polyline fill="none" stroke="#bfbfbf" points="517.5,-1392.5 645.5,-1392.5 "/>
<text text-anchor="start" x="525.5" y="-1380.5" font-family="Helvetica,sans-Serif" font-size="10.00">+ ptr</text>
<polyline fill="none" stroke="#bfbfbf" points="517.5,-1373.5 645.5,-1373.5 "/>
<text text-anchor="start" x="525.5" y="-1361.5" font-family="Helvetica,sans-Serif" font-size="10.00">+ operator&#45;&gt;()</text>
</a>
</g>
</g>
<!-- Node14&#45;&gt;Node12 -->
<g id="edge14" class="edge">
<title>Node14&#45;&gt;Node12</title>
<path fill="none" stroke="#404040" d="M599.4,-1354.17C614.27,-1331.04 636.44,-1296.58 658.17,-1262.8"/>
<polygon fill="none" stroke="#404040" points="658.4,-1262.44 658.28,-1255.23 664.89,-1252.35 665.01,-1259.56 658.4,-1262.44"/>
<text text-anchor="middle" x="664" y="-1304.5" font-family="Helvetica,sans-Serif" font-size="10.00"> #header</text>
</g>
<!-- Node15&#45;&gt;Node14 -->
<g id="edge15" class="edge">
<title>Node15&#45;&gt;Node14</title>
<path fill="none" stroke="orange" d="M478.86,-1498.9C502.65,-1472.27 534.89,-1436.17 556.85,-1411.59"/>
<polygon fill="orange" stroke="orange" points="476.13,-1496.7 472.08,-1506.49 481.35,-1501.36 476.13,-1496.7"/>
<text text-anchor="middle" x="563" y="-1456.5" font-family="Helvetica,sans-Serif" font-size="10.00"> &lt; block_t &gt;</text>
</g>
<!-- Node16&#45;&gt;Node12 -->
<g id="edge18" class="edge">
<title>Node16&#45;&gt;Node12</title>
<path fill="none" stroke="#404040" d="M770.56,-934.73C781.08,-960.64 791.65,-997.56 784.5,-1030 784.02,-1032.19 783.49,-1034.39 782.93,-1036.59"/>
<polygon fill="none" stroke="#404040" points="782.86,-1036.83 785.05,-1043.7 779.56,-1048.37 777.36,-1041.5 782.86,-1036.83"/>
<text text-anchor="middle" x="802.5" y="-1016.5" font-family="Helvetica,sans-Serif" font-size="10.00"> +pnext</text>
</g>
<!-- Node17&#45;&gt;Node16 -->
<g id="edge20" class="edge">
<title>Node17&#45;&gt;Node16</title>
<path fill="none" stroke="orange" d="M582.11,-1114.85C581.18,-1083.92 584.13,-1040.31 603.5,-1008 625.35,-971.54 665.04,-944.29 698.24,-926.49"/>
<polygon fill="orange" stroke="orange" points="578.63,-1115.4 582.58,-1125.23 585.62,-1115.08 578.63,-1115.4"/>
<text text-anchor="middle" x="670" y="-1016.5" font-family="Helvetica,sans-Serif" font-size="10.00"> &lt; altintegration::BlockIndex * &gt;</text>
</g>
<!-- Node18&#45;&gt;Node11 -->
<g id="edge22" class="edge">
<title>Node18&#45;&gt;Node11</title>
<path fill="none" stroke="orange" d="M433.11,-1116.87C417.65,-1093.4 399.61,-1061.43 391.5,-1030 383.3,-998.22 389.66,-960.89 396.63,-934.68"/>
<polygon fill="orange" stroke="orange" points="430.39,-1119.09 438.88,-1125.43 436.19,-1115.18 430.39,-1119.09"/>
<text text-anchor="middle" x="458" y="-1016.5" font-family="Helvetica,sans-Serif" font-size="10.00"> &lt; altintegration::BlockIndex * &gt;</text>
</g>
<!-- Node19&#45;&gt;Node2 -->
<g id="edge24" class="edge">
<title>Node19&#45;&gt;Node2</title>
<path fill="none" stroke="orange" d="M254.34,-531.32C257.66,-518.79 261.02,-506.09 264.31,-493.67"/>
<polygon fill="orange" stroke="orange" points="250.86,-530.77 251.69,-541.33 257.63,-532.56 250.86,-530.77"/>
<text text-anchor="middle" x="285.5" y="-515" font-family="Helvetica,sans-Serif" font-size="10.00"> &lt; AltBlock &gt;</text>
</g>
</g>
</svg>
        <g id="navigator" transform="translate(0 0)" fill="#404254">
                <rect fill="#f2f5e9" fill-opacity="0.5" stroke="#606060" stroke-width=".5" x="0" y="0" width="60" height="60"/>
                <use id="zoomplus" xlink:href="#zoomPlus" x="17" y="9" onmousedown="handleZoom(evt,'in')"/>
                <use id="zoomminus" xlink:href="#zoomMin" x="42" y="9" onmousedown="handleZoom(evt,'out')"/>
                <use id="reset" xlink:href="#resetDef" x="30" y="36" onmousedown="handleReset()"/>
                <g id="arrowUp" xlink:href="#dirArrow" transform="translate(30 24)" onmousedown="handlePan(0,-1)">
                  <use xlink:href="#rim" fill="#404040">
                        <set attributeName="fill" to="#808080" begin="arrowUp.mouseover" end="arrowUp.mouseout"/>
                  </use>
                  <path fill="none" stroke="white" stroke-width="1.5" d="M0,-3.0v7 M-2.5,-0.5L0,-3.0L2.5,-0.5"/>
                </g>
                <g id="arrowRight" xlink:href="#dirArrow" transform="rotate(90) translate(36 -43)" onmousedown="handlePan(1,0)">
                  <use xlink:href="#rim" fill="#404040">
                        <set attributeName="fill" to="#808080" begin="arrowRight.mouseover" end="arrowRight.mouseout"/>
                  </use>
                  <path fill="none" stroke="white" stroke-width="1.5" d="M0,-3.0v7 M-2.5,-0.5L0,-3.0L2.5,-0.5"/>
                </g>
                <g id="arrowDown" xlink:href="#dirArrow" transform="rotate(180) translate(-30 -48)" onmousedown="handlePan(0,1)">
                  <use xlink:href="#rim" fill="#404040">
                        <set attributeName="fill" to="#808080" begin="arrowDown.mouseover" end="arrowDown.mouseout"/>
                  </use>
                  <path fill="none" stroke="white" stroke-width="1.5" d="M0,-3.0v7 M-2.5,-0.5L0,-3.0L2.5,-0.5"/>
                </g>
                <g id="arrowLeft" xlink:href="#dirArrow" transform="rotate(270) translate(-36 17)" onmousedown="handlePan(-1,0)">
                  <use xlink:href="#rim" fill="#404040">
                        <set attributeName="fill" to="#808080" begin="arrowLeft.mouseover" end="arrowLeft.mouseout"/>
                  </use>
                  <path fill="none" stroke="white" stroke-width="1.5" d="M0,-3.0v7 M-2.5,-0.5L0,-3.0L2.5,-0.5"/>
                </g>
        </g>
        <svg viewBox="0 0 15 15" width="100%" height="30px" preserveAspectRatio="xMaxYMin meet">
         <g id="arrow_out" transform="scale(0.3 0.3)">
          <a xlink:href="structaltintegration_1_1AltBlockTree__coll__graph_org.svg" target="_base">
           <rect id="button" ry="5" rx="5" y="6" x="6" height="38" width="38"
                fill="#f2f5e9" fill-opacity="0.5" stroke="#606060" stroke-width="1.0"/>
           <path id="arrow"
             d="M 11.500037,31.436501 C 11.940474,20.09759 22.043105,11.32322 32.158766,21.979434 L 37.068811,17.246167 C 37.068811,17.246167 37.088388,32 37.088388,32 L 22.160133,31.978069 C 22.160133,31.978069 26.997745,27.140456 26.997745,27.140456 C 18.528582,18.264221 13.291696,25.230495 11.500037,31.436501 z"
             style="fill:#404040;"/>
          </a>
         </g>
        </svg>
</svg>
