<?xml version="1.0" encoding="UTF-8" standalone="no"?>
<!DOCTYPE svg PUBLIC "-//W3C//DTD SVG 1.1//EN"
 "http://www.w3.org/Graphics/SVG/1.1/DTD/svg11.dtd">
<!-- Generated by graphviz version 2.44.0 ()
 -->
<!-- Title: altintegration::VbkBlockTree Pages: 1 -->
<svg width="998pt" height="1959pt"
 viewBox="0.00 0.00 997.50 1959.00" xmlns="http://www.w3.org/2000/svg" xmlns:xlink="http://www.w3.org/1999/xlink">
<g id="graph0" class="graph" transform="scale(1 1) rotate(0) translate(4 1955)">
<title>altintegration::VbkBlockTree</title>
<polygon fill="white" stroke="transparent" points="-4,4 -4,-1955 993.5,-1955 993.5,4 -4,4"/>
<!-- Node1 -->
<g id="node1" class="node">
<title>Node1</title>
<g id="a_node1"><a xlink:title="Veriblock block tree.">
<polygon fill="#bfbfbf" stroke="black" points="234,-0.5 234,-167.5 372,-167.5 372,-0.5 234,-0.5"/>
<text text-anchor="middle" x="303" y="-155.5" font-family="Helvetica,sans-Serif" font-size="10.00">altintegration::VbkBlockTree</text>
<polyline fill="none" stroke="black" points="234,-148.5 372,-148.5 "/>
<text text-anchor="middle" x="303" y="-136.5" font-family="Helvetica,sans-Serif" font-size="10.00"> </text>
<polyline fill="none" stroke="black" points="234,-129.5 372,-129.5 "/>
<text text-anchor="start" x="242" y="-117.5" font-family="Helvetica,sans-Serif" font-size="10.00">+ ~VbkBlockTree()</text>
<text text-anchor="start" x="242" y="-106.5" font-family="Helvetica,sans-Serif" font-size="10.00">+ VbkBlockTree()</text>
<text text-anchor="start" x="242" y="-95.5" font-family="Helvetica,sans-Serif" font-size="10.00">+ loadBlockForward()</text>
<text text-anchor="start" x="242" y="-84.5" font-family="Helvetica,sans-Serif" font-size="10.00">+ btc()</text>
<text text-anchor="start" x="242" y="-73.5" font-family="Helvetica,sans-Serif" font-size="10.00">+ btc()</text>
<text text-anchor="start" x="242" y="-62.5" font-family="Helvetica,sans-Serif" font-size="10.00">+ getComparator()</text>
<text text-anchor="start" x="242" y="-51.5" font-family="Helvetica,sans-Serif" font-size="10.00">+ getComparator()</text>
<text text-anchor="start" x="242" y="-40.5" font-family="Helvetica,sans-Serif" font-size="10.00">+ getPayloadsIndex()</text>
<text text-anchor="start" x="242" y="-29.5" font-family="Helvetica,sans-Serif" font-size="10.00">+ loadTip()</text>
<text text-anchor="start" x="242" y="-18.5" font-family="Helvetica,sans-Serif" font-size="10.00">+ addPayloads()</text>
<text text-anchor="start" x="242" y="-7.5" font-family="Helvetica,sans-Serif" font-size="10.00">and 9 more...</text>
</a>
</g>
</g>
<!-- Node2 -->
<g id="node2" class="node">
<title>Node2</title>
<g id="a_node2"><a xlink:href="structaltintegration_1_1BlockTree.html" target="_top" xlink:title=" ">
<polygon fill="white" stroke="black" points="225,-205.5 225,-460.5 381,-460.5 381,-205.5 225,-205.5"/>
<text text-anchor="start" x="233" y="-448.5" font-family="Helvetica,sans-Serif" font-size="10.00">altintegration::BlockTree</text>
<text text-anchor="middle" x="303" y="-437.5" font-family="Helvetica,sans-Serif" font-size="10.00">&lt; VbkBlock, VbkChainParams &gt;</text>
<polyline fill="none" stroke="black" points="225,-430.5 381,-430.5 "/>
<text text-anchor="start" x="233" y="-418.5" font-family="Helvetica,sans-Serif" font-size="10.00"># param_</text>
<polyline fill="none" stroke="black" points="225,-411.5 381,-411.5 "/>
<text text-anchor="start" x="233" y="-399.5" font-family="Helvetica,sans-Serif" font-size="10.00">+ ~BlockTree()</text>
<text text-anchor="start" x="233" y="-388.5" font-family="Helvetica,sans-Serif" font-size="10.00">+ BlockTree()</text>
<text text-anchor="start" x="233" y="-377.5" font-family="Helvetica,sans-Serif" font-size="10.00">+ getParams()</text>
<text text-anchor="start" x="233" y="-366.5" font-family="Helvetica,sans-Serif" font-size="10.00">+ bootstrapWithGenesis()</text>
<text text-anchor="start" x="233" y="-355.5" font-family="Helvetica,sans-Serif" font-size="10.00">+ bootstrapWithChain()</text>
<text text-anchor="start" x="233" y="-344.5" font-family="Helvetica,sans-Serif" font-size="10.00">+ acceptBlockHeader()</text>
<text text-anchor="start" x="233" y="-333.5" font-family="Helvetica,sans-Serif" font-size="10.00">+ acceptBlockHeader()</text>
<text text-anchor="start" x="233" y="-322.5" font-family="Helvetica,sans-Serif" font-size="10.00">+ toPrettyString()</text>
<text text-anchor="start" x="233" y="-311.5" font-family="Helvetica,sans-Serif" font-size="10.00">+ loadBlockForward()</text>
<text text-anchor="start" x="233" y="-300.5" font-family="Helvetica,sans-Serif" font-size="10.00">+ isBlockOld()</text>
<text text-anchor="start" x="233" y="-289.5" font-family="Helvetica,sans-Serif" font-size="10.00">+ isBlockOld()</text>
<text text-anchor="start" x="233" y="-278.5" font-family="Helvetica,sans-Serif" font-size="10.00">+ finalizeBlock()</text>
<text text-anchor="start" x="233" y="-267.5" font-family="Helvetica,sans-Serif" font-size="10.00"># acceptBlockHeaderImpl()</text>
<text text-anchor="start" x="233" y="-256.5" font-family="Helvetica,sans-Serif" font-size="10.00"># bootstrap()</text>
<text text-anchor="start" x="233" y="-245.5" font-family="Helvetica,sans-Serif" font-size="10.00"># bootstrap()</text>
<text text-anchor="start" x="233" y="-234.5" font-family="Helvetica,sans-Serif" font-size="10.00"># validateAndAddBlock()</text>
<text text-anchor="start" x="233" y="-223.5" font-family="Helvetica,sans-Serif" font-size="10.00"># determineBestChain()</text>
<text text-anchor="start" x="233" y="-212.5" font-family="Helvetica,sans-Serif" font-size="10.00"># onBlockInserted()</text>
</a>
</g>
</g>
<!-- Node2&#45;&gt;Node1 -->
<g id="edge1" class="edge">
<title>Node2&#45;&gt;Node1</title>
<path fill="none" stroke="midnightblue" d="M303,-195.07C303,-185.72 303,-176.48 303,-167.56"/>
<polygon fill="none" stroke="midnightblue" points="299.5,-195.24 303,-205.24 306.5,-195.24 299.5,-195.24"/>
</g>
<!-- Node3 -->
<g id="node3" class="node">
<title>Node3</title>
<g id="a_node3"><a xlink:href="structaltintegration_1_1BaseBlockTree.html" target="_top" xlink:title="Base block tree that stores all blocks, maintains tree tips, maintains active chain.">
<polygon fill="white" stroke="black" points="223,-801.5 223,-1045.5 375,-1045.5 375,-801.5 223,-801.5"/>
<text text-anchor="start" x="231" y="-1033.5" font-family="Helvetica,sans-Serif" font-size="10.00">altintegration::BaseBlock</text>
<text text-anchor="middle" x="299" y="-1022.5" font-family="Helvetica,sans-Serif" font-size="10.00">Tree&lt; Block &gt;</text>
<polyline fill="none" stroke="black" points="223,-1015.5 375,-1015.5 "/>
<text text-anchor="start" x="231" y="-1003.5" font-family="Helvetica,sans-Serif" font-size="10.00"># validity_sig_</text>
<polyline fill="none" stroke="black" points="223,-996.5 375,-996.5 "/>
<text text-anchor="start" x="231" y="-984.5" font-family="Helvetica,sans-Serif" font-size="10.00">+ getTips()</text>
<text text-anchor="start" x="231" y="-973.5" font-family="Helvetica,sans-Serif" font-size="10.00">+ getBlocks()</text>
<text text-anchor="start" x="231" y="-962.5" font-family="Helvetica,sans-Serif" font-size="10.00">+ getAllBlocks()</text>
<text text-anchor="start" x="231" y="-951.5" font-family="Helvetica,sans-Serif" font-size="10.00">+ getBlockProvider()</text>
<text text-anchor="start" x="231" y="-940.5" font-family="Helvetica,sans-Serif" font-size="10.00">+ ~BaseBlockTree()</text>
<text text-anchor="start" x="231" y="-929.5" font-family="Helvetica,sans-Serif" font-size="10.00">+ BaseBlockTree()</text>
<text text-anchor="start" x="231" y="-918.5" font-family="Helvetica,sans-Serif" font-size="10.00">+ BaseBlockTree()</text>
<text text-anchor="start" x="231" y="-907.5" font-family="Helvetica,sans-Serif" font-size="10.00">+ operator=()</text>
<text text-anchor="start" x="231" y="-896.5" font-family="Helvetica,sans-Serif" font-size="10.00">+ BaseBlockTree()</text>
<text text-anchor="start" x="231" y="-885.5" font-family="Helvetica,sans-Serif" font-size="10.00">+ operator=()</text>
<text text-anchor="start" x="231" y="-874.5" font-family="Helvetica,sans-Serif" font-size="10.00">and 26 more...</text>
<text text-anchor="start" x="231" y="-863.5" font-family="Helvetica,sans-Serif" font-size="10.00"># eraseBlock()</text>
<text text-anchor="start" x="231" y="-852.5" font-family="Helvetica,sans-Serif" font-size="10.00"># toPrettyString()</text>
<text text-anchor="start" x="231" y="-841.5" font-family="Helvetica,sans-Serif" font-size="10.00"># decreaseAppliedBlockCount()</text>
<text text-anchor="start" x="231" y="-830.5" font-family="Helvetica,sans-Serif" font-size="10.00"># increaseAppliedBlockCount()</text>
<text text-anchor="start" x="231" y="-819.5" font-family="Helvetica,sans-Serif" font-size="10.00"># decreaseAppliedBlockCount()</text>
<text text-anchor="start" x="231" y="-808.5" font-family="Helvetica,sans-Serif" font-size="10.00"># increaseAppliedBlockCount()</text>
</a>
</g>
</g>
<!-- Node3&#45;&gt;Node2 -->
<g id="edge2" class="edge">
<title>Node3&#45;&gt;Node2</title>
<path fill="none" stroke="midnightblue" d="M299.89,-791.24C300.56,-692.57 301.48,-558.19 302.14,-460.66"/>
<polygon fill="none" stroke="midnightblue" points="296.39,-791.25 299.82,-801.28 303.39,-791.3 296.39,-791.25"/>
</g>
<!-- Node21 -->
<g id="node21" class="node">
<title>Node21</title>
<g id="a_node21"><a xlink:href="structaltintegration_1_1BlockTree.html" target="_top" xlink:title="BlockTree is a tree of blocks with single &quot;bootstrap&quot; block as root.">
<polygon fill="white" stroke="black" points="315,-508.5 315,-763.5 449,-763.5 449,-508.5 315,-508.5"/>
<text text-anchor="start" x="323" y="-751.5" font-family="Helvetica,sans-Serif" font-size="10.00">altintegration::BlockTree</text>
<text text-anchor="middle" x="382" y="-740.5" font-family="Helvetica,sans-Serif" font-size="10.00">&lt; Block, ChainParams &gt;</text>
<polyline fill="none" stroke="black" points="315,-733.5 449,-733.5 "/>
<text text-anchor="start" x="323" y="-721.5" font-family="Helvetica,sans-Serif" font-size="10.00"># param_</text>
<polyline fill="none" stroke="black" points="315,-714.5 449,-714.5 "/>
<text text-anchor="start" x="323" y="-702.5" font-family="Helvetica,sans-Serif" font-size="10.00">+ ~BlockTree()</text>
<text text-anchor="start" x="323" y="-691.5" font-family="Helvetica,sans-Serif" font-size="10.00">+ BlockTree()</text>
<text text-anchor="start" x="323" y="-680.5" font-family="Helvetica,sans-Serif" font-size="10.00">+ getParams()</text>
<text text-anchor="start" x="323" y="-669.5" font-family="Helvetica,sans-Serif" font-size="10.00">+ bootstrapWithGenesis()</text>
<text text-anchor="start" x="323" y="-658.5" font-family="Helvetica,sans-Serif" font-size="10.00">+ bootstrapWithChain()</text>
<text text-anchor="start" x="323" y="-647.5" font-family="Helvetica,sans-Serif" font-size="10.00">+ acceptBlockHeader()</text>
<text text-anchor="start" x="323" y="-636.5" font-family="Helvetica,sans-Serif" font-size="10.00">+ acceptBlockHeader()</text>
<text text-anchor="start" x="323" y="-625.5" font-family="Helvetica,sans-Serif" font-size="10.00">+ toPrettyString()</text>
<text text-anchor="start" x="323" y="-614.5" font-family="Helvetica,sans-Serif" font-size="10.00">+ loadBlockForward()</text>
<text text-anchor="start" x="323" y="-603.5" font-family="Helvetica,sans-Serif" font-size="10.00">+ isBlockOld()</text>
<text text-anchor="start" x="323" y="-592.5" font-family="Helvetica,sans-Serif" font-size="10.00">+ isBlockOld()</text>
<text text-anchor="start" x="323" y="-581.5" font-family="Helvetica,sans-Serif" font-size="10.00">+ finalizeBlock()</text>
<text text-anchor="start" x="323" y="-570.5" font-family="Helvetica,sans-Serif" font-size="10.00"># acceptBlockHeaderImpl()</text>
<text text-anchor="start" x="323" y="-559.5" font-family="Helvetica,sans-Serif" font-size="10.00"># bootstrap()</text>
<text text-anchor="start" x="323" y="-548.5" font-family="Helvetica,sans-Serif" font-size="10.00"># bootstrap()</text>
<text text-anchor="start" x="323" y="-537.5" font-family="Helvetica,sans-Serif" font-size="10.00"># validateAndAddBlock()</text>
<text text-anchor="start" x="323" y="-526.5" font-family="Helvetica,sans-Serif" font-size="10.00"># determineBestChain()</text>
<text text-anchor="start" x="323" y="-515.5" font-family="Helvetica,sans-Serif" font-size="10.00"># onBlockInserted()</text>
</a>
</g>
</g>
<!-- Node3&#45;&gt;Node21 -->
<g id="edge27" class="edge">
<title>Node3&#45;&gt;Node21</title>
<path fill="none" stroke="midnightblue" d="M337.01,-791.75C339.72,-782.43 342.45,-773.04 345.15,-763.75"/>
<polygon fill="none" stroke="midnightblue" points="333.63,-790.84 334.2,-801.42 340.35,-792.8 333.63,-790.84"/>
</g>
<!-- Node4 -->
<g id="node4" class="node">
<title>Node4</title>
<g id="a_node4"><a xlink:href="structaltintegration_1_1BlockReader.html" target="_top" xlink:title="An abstraction over on&#45;disk storage iterator.">
<polygon fill="white" stroke="black" points="0,-1099 0,-1266 132,-1266 132,-1099 0,-1099"/>
<text text-anchor="middle" x="66" y="-1254" font-family="Helvetica,sans-Serif" font-size="10.00">altintegration::BlockReader</text>
<polyline fill="none" stroke="black" points="0,-1247 132,-1247 "/>
<text text-anchor="middle" x="66" y="-1235" font-family="Helvetica,sans-Serif" font-size="10.00"> </text>
<polyline fill="none" stroke="black" points="0,-1228 132,-1228 "/>
<text text-anchor="start" x="8" y="-1216" font-family="Helvetica,sans-Serif" font-size="10.00">+ ~BlockReader()</text>
<text text-anchor="start" x="8" y="-1205" font-family="Helvetica,sans-Serif" font-size="10.00">+ getAltTip()</text>
<text text-anchor="start" x="8" y="-1194" font-family="Helvetica,sans-Serif" font-size="10.00">+ getVbkTip()</text>
<text text-anchor="start" x="8" y="-1183" font-family="Helvetica,sans-Serif" font-size="10.00">+ getBtcTip()</text>
<text text-anchor="start" x="8" y="-1172" font-family="Helvetica,sans-Serif" font-size="10.00">+ getBlock()</text>
<text text-anchor="start" x="8" y="-1161" font-family="Helvetica,sans-Serif" font-size="10.00">+ getBlock()</text>
<text text-anchor="start" x="8" y="-1150" font-family="Helvetica,sans-Serif" font-size="10.00">+ getBlock()</text>
<text text-anchor="start" x="8" y="-1139" font-family="Helvetica,sans-Serif" font-size="10.00">+ getAltBlockIterator()</text>
<text text-anchor="start" x="8" y="-1128" font-family="Helvetica,sans-Serif" font-size="10.00">+ getVbkBlockIterator()</text>
<text text-anchor="start" x="8" y="-1117" font-family="Helvetica,sans-Serif" font-size="10.00">+ getBtcBlockIterator()</text>
<text text-anchor="start" x="8" y="-1106" font-family="Helvetica,sans-Serif" font-size="10.00">and 6 more...</text>
</a>
</g>
</g>
<!-- Node4&#45;&gt;Node3 -->
<g id="edge3" class="edge">
<title>Node4&#45;&gt;Node3</title>
<path fill="none" stroke="#404040" d="M132.04,-1103.14C135.06,-1099.7 138.05,-1096.31 141,-1093 164.4,-1066.76 190.3,-1038.73 214.24,-1013.22"/>
<polygon fill="none" stroke="#404040" points="214.4,-1013.05 215.6,-1005.94 222.62,-1004.3 221.43,-1011.42 214.4,-1013.05"/>
<text text-anchor="middle" x="203.5" y="-1067" font-family="Helvetica,sans-Serif" font-size="10.00"> #blockProvider_</text>
</g>
<!-- Node5 -->
<g id="node5" class="node">
<title>Node5</title>
<g id="a_node5"><a xlink:href="structaltintegration_1_1Chain.html" target="_top" xlink:title=" ">
<polygon fill="white" stroke="black" points="150.5,-1093.5 150.5,-1271.5 291.5,-1271.5 291.5,-1093.5 150.5,-1093.5"/>
<text text-anchor="start" x="158.5" y="-1259.5" font-family="Helvetica,sans-Serif" font-size="10.00">altintegration::Chain</text>
<text text-anchor="middle" x="221" y="-1248.5" font-family="Helvetica,sans-Serif" font-size="10.00">&lt; altintegration::BlockIndex &gt;</text>
<polyline fill="none" stroke="black" points="150.5,-1241.5 291.5,-1241.5 "/>
<text text-anchor="middle" x="221" y="-1229.5" font-family="Helvetica,sans-Serif" font-size="10.00"> </text>
<polyline fill="none" stroke="black" points="150.5,-1222.5 291.5,-1222.5 "/>
<text text-anchor="start" x="158.5" y="-1210.5" font-family="Helvetica,sans-Serif" font-size="10.00">+ Chain()</text>
<text text-anchor="start" x="158.5" y="-1199.5" font-family="Helvetica,sans-Serif" font-size="10.00">+ Chain()</text>
<text text-anchor="start" x="158.5" y="-1188.5" font-family="Helvetica,sans-Serif" font-size="10.00">+ Chain()</text>
<text text-anchor="start" x="158.5" y="-1177.5" font-family="Helvetica,sans-Serif" font-size="10.00">+ getStartHeight()</text>
<text text-anchor="start" x="158.5" y="-1166.5" font-family="Helvetica,sans-Serif" font-size="10.00">+ firstHeight()</text>
<text text-anchor="start" x="158.5" y="-1155.5" font-family="Helvetica,sans-Serif" font-size="10.00">+ contains()</text>
<text text-anchor="start" x="158.5" y="-1144.5" font-family="Helvetica,sans-Serif" font-size="10.00">+ operator[]()</text>
<text text-anchor="start" x="158.5" y="-1133.5" font-family="Helvetica,sans-Serif" font-size="10.00">+ next()</text>
<text text-anchor="start" x="158.5" y="-1122.5" font-family="Helvetica,sans-Serif" font-size="10.00">+ chainHeight()</text>
<text text-anchor="start" x="158.5" y="-1111.5" font-family="Helvetica,sans-Serif" font-size="10.00">+ empty()</text>
<text text-anchor="start" x="158.5" y="-1100.5" font-family="Helvetica,sans-Serif" font-size="10.00">and 15 more...</text>
</a>
</g>
</g>
<!-- Node5&#45;&gt;Node3 -->
<g id="edge4" class="edge">
<title>Node5&#45;&gt;Node3</title>
<path fill="none" stroke="#404040" d="M247.73,-1093.41C251.28,-1081.74 254.97,-1069.58 258.68,-1057.36"/>
<polygon fill="none" stroke="#404040" points="258.75,-1057.12 256.66,-1050.22 262.23,-1045.64 264.32,-1052.54 258.75,-1057.12"/>
<text text-anchor="middle" x="288" y="-1067" font-family="Helvetica,sans-Serif" font-size="10.00"> #activeChain_</text>
</g>
<!-- Node6 -->
<g id="node6" class="node">
<title>Node6</title>
<g id="a_node6"><a xlink:href="structaltintegration_1_1Chain.html" target="_top" xlink:title="Fully in&#45;memory chain representation.">
<polygon fill="white" stroke="black" points="169.5,-1347 169.5,-1525 270.5,-1525 270.5,-1347 169.5,-1347"/>
<text text-anchor="start" x="177.5" y="-1513" font-family="Helvetica,sans-Serif" font-size="10.00">altintegration::Chain</text>
<text text-anchor="middle" x="220" y="-1502" font-family="Helvetica,sans-Serif" font-size="10.00">&lt; BlockIndexT &gt;</text>
<polyline fill="none" stroke="black" points="169.5,-1495 270.5,-1495 "/>
<text text-anchor="middle" x="220" y="-1483" font-family="Helvetica,sans-Serif" font-size="10.00"> </text>
<polyline fill="none" stroke="black" points="169.5,-1476 270.5,-1476 "/>
<text text-anchor="start" x="177.5" y="-1464" font-family="Helvetica,sans-Serif" font-size="10.00">+ Chain()</text>
<text text-anchor="start" x="177.5" y="-1453" font-family="Helvetica,sans-Serif" font-size="10.00">+ Chain()</text>
<text text-anchor="start" x="177.5" y="-1442" font-family="Helvetica,sans-Serif" font-size="10.00">+ Chain()</text>
<text text-anchor="start" x="177.5" y="-1431" font-family="Helvetica,sans-Serif" font-size="10.00">+ getStartHeight()</text>
<text text-anchor="start" x="177.5" y="-1420" font-family="Helvetica,sans-Serif" font-size="10.00">+ firstHeight()</text>
<text text-anchor="start" x="177.5" y="-1409" font-family="Helvetica,sans-Serif" font-size="10.00">+ contains()</text>
<text text-anchor="start" x="177.5" y="-1398" font-family="Helvetica,sans-Serif" font-size="10.00">+ operator[]()</text>
<text text-anchor="start" x="177.5" y="-1387" font-family="Helvetica,sans-Serif" font-size="10.00">+ next()</text>
<text text-anchor="start" x="177.5" y="-1376" font-family="Helvetica,sans-Serif" font-size="10.00">+ chainHeight()</text>
<text text-anchor="start" x="177.5" y="-1365" font-family="Helvetica,sans-Serif" font-size="10.00">+ empty()</text>
<text text-anchor="start" x="177.5" y="-1354" font-family="Helvetica,sans-Serif" font-size="10.00">and 15 more...</text>
</a>
</g>
</g>
<!-- Node6&#45;&gt;Node5 -->
<g id="edge5" class="edge">
<title>Node6&#45;&gt;Node5</title>
<path fill="none" stroke="orange" d="M220.39,-1336.59C220.48,-1315.16 220.57,-1292.61 220.65,-1271.6"/>
<polygon fill="orange" stroke="orange" points="216.89,-1336.67 220.35,-1346.68 223.89,-1336.7 216.89,-1336.67"/>
<text text-anchor="middle" x="284.5" y="-1298.5" font-family="Helvetica,sans-Serif" font-size="10.00"> &lt; altintegration::BlockIndex &gt;</text>
</g>
<!-- Node7 -->
<g id="node7" class="node">
<title>Node7</title>
<g id="a_node7"><a xlink:title=" ">
<polygon fill="white" stroke="#bfbfbf" points="309.5,-1143 309.5,-1222 446.5,-1222 446.5,-1143 309.5,-1143"/>
<text text-anchor="start" x="317.5" y="-1210" font-family="Helvetica,sans-Serif" font-size="10.00">std::unordered_map</text>
<text text-anchor="start" x="317.5" y="-1199" font-family="Helvetica,sans-Serif" font-size="10.00">&lt; prev_block_hash_t,</text>
<text text-anchor="middle" x="378" y="-1188" font-family="Helvetica,sans-Serif" font-size="10.00"> std::unique_ptr&lt; index_t &gt; &gt;</text>
<polyline fill="none" stroke="#bfbfbf" points="309.5,-1181 446.5,-1181 "/>
<text text-anchor="start" x="317.5" y="-1169" font-family="Helvetica,sans-Serif" font-size="10.00">+ keys</text>
<polyline fill="none" stroke="#bfbfbf" points="309.5,-1162 446.5,-1162 "/>
<text text-anchor="middle" x="378" y="-1150" font-family="Helvetica,sans-Serif" font-size="10.00"> </text>
</a>
</g>
</g>
<!-- Node7&#45;&gt;Node3 -->
<g id="edge6" class="edge">
<title>Node7&#45;&gt;Node3</title>
<path fill="none" stroke="#404040" d="M366.09,-1142.75C358.95,-1119.52 349.4,-1088.47 339.76,-1057.1"/>
<polygon fill="none" stroke="#404040" points="339.73,-1057.01 334.15,-1052.45 336.21,-1045.54 341.79,-1050.1 339.73,-1057.01"/>
<text text-anchor="middle" x="365" y="-1067" font-family="Helvetica,sans-Serif" font-size="10.00"> #blocks_</text>
</g>
<!-- Node8 -->
<g id="node8" class="node">
<title>Node8</title>
<g id="a_node8"><a xlink:title=" ">
<polygon fill="white" stroke="#bfbfbf" points="318.5,-1560.5 318.5,-1617.5 445.5,-1617.5 445.5,-1560.5 318.5,-1560.5"/>
<text text-anchor="middle" x="382" y="-1605.5" font-family="Helvetica,sans-Serif" font-size="10.00">std::unique_ptr&lt; index_t &gt;</text>
<polyline fill="none" stroke="#bfbfbf" points="318.5,-1598.5 445.5,-1598.5 "/>
<text text-anchor="start" x="326.5" y="-1586.5" font-family="Helvetica,sans-Serif" font-size="10.00">+ ptr</text>
<polyline fill="none" stroke="#bfbfbf" points="318.5,-1579.5 445.5,-1579.5 "/>
<text text-anchor="start" x="326.5" y="-1567.5" font-family="Helvetica,sans-Serif" font-size="10.00">+ operator&#45;&gt;()</text>
</a>
</g>
</g>
<!-- Node8&#45;&gt;Node7 -->
<g id="edge7" class="edge">
<title>Node8&#45;&gt;Node7</title>
<path fill="none" stroke="#404040" d="M374.3,-1560.46C372.93,-1554.42 371.71,-1548.03 371,-1542 358.15,-1433.02 366.32,-1304.14 372.65,-1234.44"/>
<polygon fill="none" stroke="#404040" points="372.68,-1234.08 369.26,-1227.73 373.8,-1222.13 377.23,-1228.48 372.68,-1234.08"/>
<text text-anchor="middle" x="395.5" y="-1433.5" font-family="Helvetica,sans-Serif" font-size="10.00"> +elements</text>
</g>
<!-- Node9 -->
<g id="node9" class="node">
<title>Node9</title>
<g id="a_node9"><a xlink:title=" ">
<polygon fill="white" stroke="#bfbfbf" points="348,-1712.5 348,-1769.5 450,-1769.5 450,-1712.5 348,-1712.5"/>
<text text-anchor="middle" x="399" y="-1757.5" font-family="Helvetica,sans-Serif" font-size="10.00">std::unique_ptr&lt; T &gt;</text>
<polyline fill="none" stroke="#bfbfbf" points="348,-1750.5 450,-1750.5 "/>
<text text-anchor="middle" x="399" y="-1738.5" font-family="Helvetica,sans-Serif" font-size="10.00"> </text>
<polyline fill="none" stroke="#bfbfbf" points="348,-1731.5 450,-1731.5 "/>
<text text-anchor="start" x="356" y="-1719.5" font-family="Helvetica,sans-Serif" font-size="10.00">+ operator&#45;&gt;()</text>
</a>
</g>
</g>
<!-- Node9&#45;&gt;Node8 -->
<g id="edge8" class="edge">
<title>Node9&#45;&gt;Node8</title>
<path fill="none" stroke="orange" d="M394.75,-1702.47C391.76,-1676.11 387.83,-1641.43 385.13,-1617.59"/>
<polygon fill="orange" stroke="orange" points="391.28,-1702.95 395.88,-1712.49 398.23,-1702.16 391.28,-1702.95"/>
<text text-anchor="middle" x="419" y="-1662.5" font-family="Helvetica,sans-Serif" font-size="10.00"> &lt; index_t &gt;</text>
</g>
<!-- Node10 -->
<g id="node10" class="node">
<title>Node10</title>
<g id="a_node10"><a xlink:title=" ">
<polygon fill="white" stroke="#bfbfbf" points="465.5,-1893.5 465.5,-1950.5 494.5,-1950.5 494.5,-1893.5 465.5,-1893.5"/>
<text text-anchor="middle" x="480" y="-1938.5" font-family="Helvetica,sans-Serif" font-size="10.00">T</text>
<polyline fill="none" stroke="#bfbfbf" points="465.5,-1931.5 494.5,-1931.5 "/>
<text text-anchor="middle" x="480" y="-1919.5" font-family="Helvetica,sans-Serif" font-size="10.00"> </text>
<polyline fill="none" stroke="#bfbfbf" points="465.5,-1912.5 494.5,-1912.5 "/>
<text text-anchor="middle" x="480" y="-1900.5" font-family="Helvetica,sans-Serif" font-size="10.00"> </text>
</a>
</g>
</g>
<!-- Node10&#45;&gt;Node9 -->
<g id="edge9" class="edge">
<title>Node10&#45;&gt;Node9</title>
<path fill="none" stroke="#404040" d="M465.46,-1903.9C458.89,-1895.57 451.4,-1885.17 446,-1875 430.12,-1845.08 417.68,-1808.67 409.59,-1781.51"/>
<polygon fill="none" stroke="#404040" points="409.52,-1781.27 404.02,-1776.62 406.19,-1769.74 411.7,-1774.39 409.52,-1781.27"/>
<text text-anchor="middle" x="456" y="-1867" font-family="Helvetica,sans-Serif" font-size="10.00"> +ptr</text>
</g>
<!-- Node11 -->
<g id="node11" class="node">
<title>Node11</title>
<g id="a_node11"><a xlink:title=" ">
<polygon fill="white" stroke="#bfbfbf" points="429.5,-1402 429.5,-1470 530.5,-1470 530.5,-1402 429.5,-1402"/>
<text text-anchor="start" x="437.5" y="-1458" font-family="Helvetica,sans-Serif" font-size="10.00">std::unordered_map</text>
<text text-anchor="middle" x="480" y="-1447" font-family="Helvetica,sans-Serif" font-size="10.00">&lt; K, T &gt;</text>
<polyline fill="none" stroke="#bfbfbf" points="429.5,-1440 530.5,-1440 "/>
<text text-anchor="middle" x="480" y="-1428" font-family="Helvetica,sans-Serif" font-size="10.00"> </text>
<polyline fill="none" stroke="#bfbfbf" points="429.5,-1421 530.5,-1421 "/>
<text text-anchor="middle" x="480" y="-1409" font-family="Helvetica,sans-Serif" font-size="10.00"> </text>
</a>
</g>
</g>
<!-- Node10&#45;&gt;Node11 -->
<g id="edge12" class="edge">
<title>Node10&#45;&gt;Node11</title>
<path fill="none" stroke="#404040" d="M480,-1893.24C480,-1813.19 480,-1581.33 480,-1482.5"/>
<polygon fill="none" stroke="#404040" points="480,-1482.29 476,-1476.29 480,-1470.29 484,-1476.29 480,-1482.29"/>
<text text-anchor="middle" x="504.5" y="-1738.5" font-family="Helvetica,sans-Serif" font-size="10.00"> +elements</text>
</g>
<!-- Node17 -->
<g id="node17" class="node">
<title>Node17</title>
<g id="a_node17"><a xlink:title=" ">
<polygon fill="white" stroke="#bfbfbf" points="577.5,-1788.5 577.5,-1845.5 680.5,-1845.5 680.5,-1788.5 577.5,-1788.5"/>
<text text-anchor="middle" x="629" y="-1833.5" font-family="Helvetica,sans-Serif" font-size="10.00">std::shared_ptr&lt; T &gt;</text>
<polyline fill="none" stroke="#bfbfbf" points="577.5,-1826.5 680.5,-1826.5 "/>
<text text-anchor="middle" x="629" y="-1814.5" font-family="Helvetica,sans-Serif" font-size="10.00"> </text>
<polyline fill="none" stroke="#bfbfbf" points="577.5,-1807.5 680.5,-1807.5 "/>
<text text-anchor="start" x="585.5" y="-1795.5" font-family="Helvetica,sans-Serif" font-size="10.00">+ operator&#45;&gt;()</text>
</a>
</g>
</g>
<!-- Node10&#45;&gt;Node17 -->
<g id="edge18" class="edge">
<title>Node10&#45;&gt;Node17</title>
<path fill="none" stroke="#404040" d="M494.56,-1910.94C513.95,-1897.53 549.24,-1873.14 578.8,-1852.7"/>
<polygon fill="none" stroke="#404040" points="579.11,-1852.49 581.77,-1845.79 588.98,-1845.67 586.32,-1852.37 579.11,-1852.49"/>
<text text-anchor="middle" x="569" y="-1867" font-family="Helvetica,sans-Serif" font-size="10.00"> +ptr</text>
</g>
<!-- Node11&#45;&gt;Node7 -->
<g id="edge10" class="edge">
<title>Node11&#45;&gt;Node7</title>
<path fill="none" stroke="orange" d="M453.09,-1393.42C439,-1370.2 422.35,-1340.31 411,-1312 399.3,-1282.82 390.7,-1248.22 385.21,-1222.28"/>
<polygon fill="orange" stroke="orange" points="450.14,-1395.29 458.36,-1401.98 456.1,-1391.63 450.14,-1395.29"/>
<text text-anchor="start" x="411" y="-1304" font-family="Helvetica,sans-Serif" font-size="10.00"> &lt; prev_block_hash_t,</text>
<text text-anchor="middle" x="471.5" y="-1293" font-family="Helvetica,sans-Serif" font-size="10.00"> std::unique_ptr&lt; index_t &gt; &gt;</text>
</g>
<!-- Node12 -->
<g id="node12" class="node">
<title>Node12</title>
<g id="a_node12"><a xlink:title=" ">
<polygon fill="white" stroke="#bfbfbf" points="593.5,-1636.5 593.5,-1693.5 622.5,-1693.5 622.5,-1636.5 593.5,-1636.5"/>
<text text-anchor="middle" x="608" y="-1681.5" font-family="Helvetica,sans-Serif" font-size="10.00">K</text>
<polyline fill="none" stroke="#bfbfbf" points="593.5,-1674.5 622.5,-1674.5 "/>
<text text-anchor="middle" x="608" y="-1662.5" font-family="Helvetica,sans-Serif" font-size="10.00"> </text>
<polyline fill="none" stroke="#bfbfbf" points="593.5,-1655.5 622.5,-1655.5 "/>
<text text-anchor="middle" x="608" y="-1643.5" font-family="Helvetica,sans-Serif" font-size="10.00"> </text>
</a>
</g>
</g>
<!-- Node12&#45;&gt;Node11 -->
<g id="edge11" class="edge">
<title>Node12&#45;&gt;Node11</title>
<path fill="none" stroke="#404040" d="M593.25,-1644.71C587.32,-1636.63 580.57,-1627.03 575,-1618 547.05,-1572.7 519.24,-1518.35 501,-1481.11"/>
<polygon fill="none" stroke="#404040" points="500.91,-1480.92 494.69,-1477.27 495.66,-1470.13 501.88,-1473.77 500.91,-1480.92"/>
<text text-anchor="middle" x="589.5" y="-1586.5" font-family="Helvetica,sans-Serif" font-size="10.00"> +keys</text>
</g>
<!-- Node19 -->
<g id="node19" class="node">
<title>Node19</title>
<g id="a_node19"><a xlink:title=" ">
<polygon fill="white" stroke="#bfbfbf" points="698.5,-1407.5 698.5,-1464.5 769.5,-1464.5 769.5,-1407.5 698.5,-1407.5"/>
<text text-anchor="middle" x="734" y="-1452.5" font-family="Helvetica,sans-Serif" font-size="10.00">std::set&lt; K &gt;</text>
<polyline fill="none" stroke="#bfbfbf" points="698.5,-1445.5 769.5,-1445.5 "/>
<text text-anchor="middle" x="734" y="-1433.5" font-family="Helvetica,sans-Serif" font-size="10.00"> </text>
<polyline fill="none" stroke="#bfbfbf" points="698.5,-1426.5 769.5,-1426.5 "/>
<text text-anchor="middle" x="734" y="-1414.5" font-family="Helvetica,sans-Serif" font-size="10.00"> </text>
</a>
</g>
</g>
<!-- Node12&#45;&gt;Node19 -->
<g id="edge23" class="edge">
<title>Node12&#45;&gt;Node19</title>
<path fill="none" stroke="#404040" d="M622.79,-1644.74C628.73,-1636.66 635.47,-1627.06 641,-1618 670.05,-1570.46 698.59,-1512.81 716.24,-1475.55"/>
<polygon fill="none" stroke="#404040" points="716.25,-1475.53 715.18,-1468.4 721.35,-1464.67 722.42,-1471.8 716.25,-1475.53"/>
<text text-anchor="middle" x="685.5" y="-1586.5" font-family="Helvetica,sans-Serif" font-size="10.00"> +keys</text>
</g>
<!-- Node20 -->
<g id="node20" class="node">
<title>Node20</title>
<g id="a_node20"><a xlink:title=" ">
<polygon fill="white" stroke="#bfbfbf" points="548.5,-1407.5 548.5,-1464.5 667.5,-1464.5 667.5,-1407.5 548.5,-1407.5"/>
<text text-anchor="middle" x="608" y="-1452.5" font-family="Helvetica,sans-Serif" font-size="10.00">std::unordered_set&lt; K &gt;</text>
<polyline fill="none" stroke="#bfbfbf" points="548.5,-1445.5 667.5,-1445.5 "/>
<text text-anchor="middle" x="608" y="-1433.5" font-family="Helvetica,sans-Serif" font-size="10.00"> </text>
<polyline fill="none" stroke="#bfbfbf" points="548.5,-1426.5 667.5,-1426.5 "/>
<text text-anchor="middle" x="608" y="-1414.5" font-family="Helvetica,sans-Serif" font-size="10.00"> </text>
</a>
</g>
</g>
<!-- Node12&#45;&gt;Node20 -->
<g id="edge25" class="edge">
<title>Node12&#45;&gt;Node20</title>
<path fill="none" stroke="#404040" d="M608,-1636.17C608,-1596.23 608,-1522.48 608,-1476.8"/>
<polygon fill="none" stroke="#404040" points="608,-1476.71 604,-1470.71 608,-1464.71 612,-1470.71 608,-1476.71"/>
<text text-anchor="middle" x="622.5" y="-1586.5" font-family="Helvetica,sans-Serif" font-size="10.00"> +keys</text>
</g>
<!-- Node13 -->
<g id="node13" class="node">
<title>Node13</title>
<g id="a_node13"><a xlink:title=" ">
<polygon fill="white" stroke="#bfbfbf" points="465.5,-1148.5 465.5,-1216.5 612.5,-1216.5 612.5,-1148.5 465.5,-1148.5"/>
<text text-anchor="start" x="473.5" y="-1204.5" font-family="Helvetica,sans-Serif" font-size="10.00">std::unordered_set</text>
<text text-anchor="middle" x="539" y="-1193.5" font-family="Helvetica,sans-Serif" font-size="10.00">&lt; altintegration::BlockIndex * &gt;</text>
<polyline fill="none" stroke="#bfbfbf" points="465.5,-1186.5 612.5,-1186.5 "/>
<text text-anchor="middle" x="539" y="-1174.5" font-family="Helvetica,sans-Serif" font-size="10.00"> </text>
<polyline fill="none" stroke="#bfbfbf" points="465.5,-1167.5 612.5,-1167.5 "/>
<text text-anchor="middle" x="539" y="-1155.5" font-family="Helvetica,sans-Serif" font-size="10.00"> </text>
</a>
</g>
</g>
<!-- Node13&#45;&gt;Node3 -->
<g id="edge13" class="edge">
<title>Node13&#45;&gt;Node3</title>
<path fill="none" stroke="#404040" d="M508.12,-1148.43C476.72,-1114.8 426.67,-1061.21 383.41,-1014.89"/>
<polygon fill="none" stroke="#404040" points="383.32,-1014.8 376.3,-1013.14 375.13,-1006.03 382.15,-1007.68 383.32,-1014.8"/>
<text text-anchor="middle" x="448.5" y="-1067" font-family="Helvetica,sans-Serif" font-size="10.00"> #tips_</text>
</g>
<!-- Node14 -->
<g id="node14" class="node">
<title>Node14</title>
<g id="a_node14"><a xlink:href="structaltintegration_1_1BlockIndex.html" target="_top" xlink:title="A node in a block tree.">
<polygon fill="white" stroke="black" points="813.5,-1330.5 813.5,-1541.5 938.5,-1541.5 938.5,-1330.5 813.5,-1330.5"/>
<text text-anchor="start" x="821.5" y="-1529.5" font-family="Helvetica,sans-Serif" font-size="10.00">altintegration::BlockIndex</text>
<text text-anchor="middle" x="876" y="-1518.5" font-family="Helvetica,sans-Serif" font-size="10.00">&lt; Block &gt;</text>
<polyline fill="none" stroke="black" points="813.5,-1511.5 938.5,-1511.5 "/>
<text text-anchor="start" x="821.5" y="-1499.5" font-family="Helvetica,sans-Serif" font-size="10.00">+ finalized</text>
<text text-anchor="start" x="821.5" y="-1488.5" font-family="Helvetica,sans-Serif" font-size="10.00"># height</text>
<text text-anchor="start" x="821.5" y="-1477.5" font-family="Helvetica,sans-Serif" font-size="10.00"># status</text>
<text text-anchor="start" x="821.5" y="-1466.5" font-family="Helvetica,sans-Serif" font-size="10.00"># dirty</text>
<polyline fill="none" stroke="black" points="813.5,-1459.5 938.5,-1459.5 "/>
<text text-anchor="start" x="821.5" y="-1447.5" font-family="Helvetica,sans-Serif" font-size="10.00">+ BlockIndex()</text>
<text text-anchor="start" x="821.5" y="-1436.5" font-family="Helvetica,sans-Serif" font-size="10.00">+ BlockIndex()</text>
<text text-anchor="start" x="821.5" y="-1425.5" font-family="Helvetica,sans-Serif" font-size="10.00">+ ~BlockIndex()</text>
<text text-anchor="start" x="821.5" y="-1414.5" font-family="Helvetica,sans-Serif" font-size="10.00">+ BlockIndex()</text>
<text text-anchor="start" x="821.5" y="-1403.5" font-family="Helvetica,sans-Serif" font-size="10.00">+ operator=()</text>
<text text-anchor="start" x="821.5" y="-1392.5" font-family="Helvetica,sans-Serif" font-size="10.00">+ isDeleted()</text>
<text text-anchor="start" x="821.5" y="-1381.5" font-family="Helvetica,sans-Serif" font-size="10.00">+ isRoot()</text>
<text text-anchor="start" x="821.5" y="-1370.5" font-family="Helvetica,sans-Serif" font-size="10.00">+ restore()</text>
<text text-anchor="start" x="821.5" y="-1359.5" font-family="Helvetica,sans-Serif" font-size="10.00">+ deleteTemporarily()</text>
<text text-anchor="start" x="821.5" y="-1348.5" font-family="Helvetica,sans-Serif" font-size="10.00">+ mergeFrom()</text>
<text text-anchor="start" x="821.5" y="-1337.5" font-family="Helvetica,sans-Serif" font-size="10.00">and 40 more...</text>
</a>
</g>
</g>
<!-- Node14&#45;&gt;Node13 -->
<g id="edge14" class="edge">
<title>Node14&#45;&gt;Node13</title>
<path fill="none" stroke="#404040" d="M813.32,-1356.41C802.71,-1346.45 791.16,-1337.23 779,-1330 751.02,-1313.36 737.32,-1326.14 708,-1312 682.87,-1299.89 628.38,-1257.17 588.03,-1224.28"/>
<polygon fill="none" stroke="#404040" points="587.9,-1224.18 580.73,-1223.48 578.62,-1216.58 585.79,-1217.29 587.9,-1224.18"/>
<text text-anchor="middle" x="722.5" y="-1298.5" font-family="Helvetica,sans-Serif" font-size="10.00"> +keys</text>
</g>
<!-- Node14&#45;&gt;Node14 -->
<g id="edge19" class="edge">
<title>Node14&#45;&gt;Node14</title>
<path fill="none" stroke="#404040" d="M938.78,-1459.35C949.26,-1456.08 956.5,-1448.3 956.5,-1436 956.5,-1428.5 953.81,-1422.69 949.34,-1418.54"/>
<polygon fill="none" stroke="#404040" points="949.26,-1418.5 942.07,-1419.06 938.78,-1412.65 945.97,-1412.08 949.26,-1418.5"/>
<text text-anchor="middle" x="973" y="-1433.5" font-family="Helvetica,sans-Serif" font-size="10.00"> +pprev</text>
</g>
<!-- Node18 -->
<g id="node18" class="node">
<title>Node18</title>
<g id="a_node18"><a xlink:title=" ">
<polygon fill="white" stroke="#bfbfbf" points="847,-1148.5 847,-1216.5 959,-1216.5 959,-1148.5 847,-1148.5"/>
<text text-anchor="start" x="855" y="-1204.5" font-family="Helvetica,sans-Serif" font-size="10.00">std::set&lt; altintegration</text>
<text text-anchor="middle" x="903" y="-1193.5" font-family="Helvetica,sans-Serif" font-size="10.00">::BlockIndex * &gt;</text>
<polyline fill="none" stroke="#bfbfbf" points="847,-1186.5 959,-1186.5 "/>
<text text-anchor="middle" x="903" y="-1174.5" font-family="Helvetica,sans-Serif" font-size="10.00"> </text>
<polyline fill="none" stroke="#bfbfbf" points="847,-1167.5 959,-1167.5 "/>
<text text-anchor="middle" x="903" y="-1155.5" font-family="Helvetica,sans-Serif" font-size="10.00"> </text>
</a>
</g>
</g>
<!-- Node14&#45;&gt;Node18 -->
<g id="edge21" class="edge">
<title>Node14&#45;&gt;Node18</title>
<path fill="none" stroke="#404040" d="M887.25,-1330.16C891.04,-1294.86 895.08,-1257.3 898.11,-1229.03"/>
<polygon fill="none" stroke="#404040" points="898.15,-1228.67 894.81,-1222.27 899.43,-1216.74 902.77,-1223.13 898.15,-1228.67"/>
<text text-anchor="middle" x="905.5" y="-1298.5" font-family="Helvetica,sans-Serif" font-size="10.00"> +keys</text>
</g>
<!-- Node15 -->
<g id="node15" class="node">
<title>Node15</title>
<g id="a_node15"><a xlink:title=" ">
<polygon fill="white" stroke="#bfbfbf" points="714,-1636.5 714,-1693.5 794,-1693.5 794,-1636.5 714,-1636.5"/>
<text text-anchor="middle" x="754" y="-1681.5" font-family="Helvetica,sans-Serif" font-size="10.00">Block::addon_t</text>
<polyline fill="none" stroke="#bfbfbf" points="714,-1674.5 794,-1674.5 "/>
<text text-anchor="middle" x="754" y="-1662.5" font-family="Helvetica,sans-Serif" font-size="10.00"> </text>
<polyline fill="none" stroke="#bfbfbf" points="714,-1655.5 794,-1655.5 "/>
<text text-anchor="middle" x="754" y="-1643.5" font-family="Helvetica,sans-Serif" font-size="10.00"> </text>
</a>
</g>
</g>
<!-- Node15&#45;&gt;Node14 -->
<g id="edge15" class="edge">
<title>Node15&#45;&gt;Node14</title>
<path fill="none" stroke="midnightblue" d="M773.72,-1627.3C786.3,-1603.91 803.28,-1572.31 819.79,-1541.58"/>
<polygon fill="none" stroke="midnightblue" points="770.61,-1625.7 768.96,-1636.17 776.78,-1629.01 770.61,-1625.7"/>
</g>
<!-- Node16 -->
<g id="node16" class="node">
<title>Node16</title>
<g id="a_node16"><a xlink:title=" ">
<polygon fill="white" stroke="#bfbfbf" points="812,-1636.5 812,-1693.5 940,-1693.5 940,-1636.5 812,-1636.5"/>
<text text-anchor="middle" x="876" y="-1681.5" font-family="Helvetica,sans-Serif" font-size="10.00">std::shared_ptr&lt; block_t &gt;</text>
<polyline fill="none" stroke="#bfbfbf" points="812,-1674.5 940,-1674.5 "/>
<text text-anchor="start" x="820" y="-1662.5" font-family="Helvetica,sans-Serif" font-size="10.00">+ ptr</text>
<polyline fill="none" stroke="#bfbfbf" points="812,-1655.5 940,-1655.5 "/>
<text text-anchor="start" x="820" y="-1643.5" font-family="Helvetica,sans-Serif" font-size="10.00">+ operator&#45;&gt;()</text>
</a>
</g>
</g>
<!-- Node16&#45;&gt;Node14 -->
<g id="edge16" class="edge">
<title>Node16&#45;&gt;Node14</title>
<path fill="none" stroke="#404040" d="M876,-1636.17C876,-1615.11 876,-1584.64 876,-1553.84"/>
<polygon fill="none" stroke="#404040" points="876,-1553.58 872,-1547.58 876,-1541.58 880,-1547.58 876,-1553.58"/>
<text text-anchor="middle" x="894.5" y="-1586.5" font-family="Helvetica,sans-Serif" font-size="10.00"> #header</text>
</g>
<!-- Node17&#45;&gt;Node16 -->
<g id="edge17" class="edge">
<title>Node17&#45;&gt;Node16</title>
<path fill="none" stroke="orange" d="M682.89,-1783.27C727.06,-1756.45 788.87,-1718.91 830.57,-1693.59"/>
<polygon fill="orange" stroke="orange" points="681.03,-1780.31 674.3,-1788.49 684.67,-1786.29 681.03,-1780.31"/>
<text text-anchor="middle" x="821.5" y="-1738.5" font-family="Helvetica,sans-Serif" font-size="10.00"> &lt; block_t &gt;</text>
</g>
<!-- Node18&#45;&gt;Node14 -->
<g id="edge20" class="edge">
<title>Node18&#45;&gt;Node14</title>
<path fill="none" stroke="#404040" d="M919.06,-1216.73C929.58,-1242.64 940.15,-1279.56 933,-1312 932.52,-1314.19 931.99,-1316.39 931.43,-1318.59"/>
<polygon fill="none" stroke="#404040" points="931.36,-1318.83 933.55,-1325.7 928.06,-1330.37 925.86,-1323.5 931.36,-1318.83"/>
<text text-anchor="middle" x="951" y="-1298.5" font-family="Helvetica,sans-Serif" font-size="10.00"> +pnext</text>
</g>
<!-- Node19&#45;&gt;Node18 -->
<g id="edge22" class="edge">
<title>Node19&#45;&gt;Node18</title>
<path fill="none" stroke="orange" d="M730.61,-1396.85C729.68,-1365.92 732.63,-1322.31 752,-1290 773.85,-1253.54 813.54,-1226.29 846.74,-1208.49"/>
<polygon fill="orange" stroke="orange" points="727.13,-1397.4 731.08,-1407.23 734.12,-1397.08 727.13,-1397.4"/>
<text text-anchor="middle" x="818.5" y="-1298.5" font-family="Helvetica,sans-Serif" font-size="10.00"> &lt; altintegration::BlockIndex * &gt;</text>
</g>
<!-- Node20&#45;&gt;Node13 -->
<g id="edge24" class="edge">
<title>Node20&#45;&gt;Node13</title>
<path fill="none" stroke="orange" d="M581.69,-1398.85C566.26,-1375.37 548.23,-1343.39 540,-1312 531.71,-1280.38 532.58,-1242.87 534.84,-1216.57"/>
<polygon fill="orange" stroke="orange" points="578.97,-1401.06 587.45,-1407.41 584.78,-1397.16 578.97,-1401.06"/>
<text text-anchor="middle" x="606.5" y="-1298.5" font-family="Helvetica,sans-Serif" font-size="10.00"> &lt; altintegration::BlockIndex * &gt;</text>
</g>
<!-- Node21&#45;&gt;Node2 -->
<g id="edge26" class="edge">
<title>Node21&#45;&gt;Node2</title>
<path fill="none" stroke="orange" d="M346.1,-498.22C342.81,-485.7 339.5,-473.05 336.24,-460.63"/>
<polygon fill="orange" stroke="orange" points="342.8,-499.44 348.73,-508.22 349.57,-497.66 342.8,-499.44"/>
<text text-anchor="middle" x="414" y="-482" font-family="Helvetica,sans-Serif" font-size="10.00"> &lt; VbkBlock, VbkChainParams &gt;</text>
</g>
</g>
</svg>
