<?xml version="1.0" encoding="UTF-8" standalone="no"?>
<!DOCTYPE svg PUBLIC "-//W3C//DTD SVG 1.1//EN"
 "http://www.w3.org/Graphics/SVG/1.1/DTD/svg11.dtd">
<!-- Generated by graphviz version 2.44.0 ()
 -->
<!-- Title: altintegration::ATV Pages: 1 -->
<svg width="1087pt" height="1334pt"
 viewBox="0.00 0.00 1086.50 1334.00" xmlns="http://www.w3.org/2000/svg" xmlns:xlink="http://www.w3.org/1999/xlink">
<g id="graph0" class="graph" transform="scale(1 1) rotate(0) translate(4 1330)">
<title>altintegration::ATV</title>
<polygon fill="white" stroke="transparent" points="-4,4 -4,-1330 1082.5,-1330 1082.5,4 -4,4"/>
<!-- Node1 -->
<g id="node1" class="node">
<title>Node1</title>
<g id="a_node1"><a xlink:title="Atlchain endorsement.">
<polygon fill="#bfbfbf" stroke="black" points="808.5,-0.5 808.5,-123.5 904.5,-123.5 904.5,-0.5 808.5,-0.5"/>
<text text-anchor="middle" x="856.5" y="-111.5" font-family="Helvetica,sans-Serif" font-size="10.00">altintegration::ATV</text>
<polyline fill="none" stroke="black" points="808.5,-104.5 904.5,-104.5 "/>
<text text-anchor="start" x="816.5" y="-92.5" font-family="Helvetica,sans-Serif" font-size="10.00">+ version</text>
<text text-anchor="start" x="816.5" y="-81.5" font-family="Helvetica,sans-Serif" font-size="10.00">+ checked</text>
<polyline fill="none" stroke="black" points="808.5,-74.5 904.5,-74.5 "/>
<text text-anchor="start" x="816.5" y="-62.5" font-family="Helvetica,sans-Serif" font-size="10.00">+ toPrettyString()</text>
<text text-anchor="start" x="816.5" y="-51.5" font-family="Helvetica,sans-Serif" font-size="10.00">+ toVbkEncoding()</text>
<text text-anchor="start" x="816.5" y="-40.5" font-family="Helvetica,sans-Serif" font-size="10.00">+ toVbkEncoding()</text>
<text text-anchor="start" x="816.5" y="-29.5" font-family="Helvetica,sans-Serif" font-size="10.00">+ estimateSize()</text>
<text text-anchor="start" x="816.5" y="-18.5" font-family="Helvetica,sans-Serif" font-size="10.00">+ getId()</text>
<text text-anchor="start" x="816.5" y="-7.5" font-family="Helvetica,sans-Serif" font-size="10.00">+ name()</text>
</a>
</g>
</g>
<!-- Node2 -->
<g id="node2" class="node">
<title>Node2</title>
<g id="a_node2"><a xlink:href="structaltintegration_1_1VbkTx.html" target="_top" xlink:title="Veriblock transaction, which endorses ALT block in VBK blockchain.">
<polygon fill="white" stroke="black" points="463.5,-215.5 463.5,-305.5 567.5,-305.5 567.5,-215.5 463.5,-215.5"/>
<text text-anchor="middle" x="515.5" y="-293.5" font-family="Helvetica,sans-Serif" font-size="10.00">altintegration::VbkTx</text>
<polyline fill="none" stroke="black" points="463.5,-286.5 567.5,-286.5 "/>
<text text-anchor="start" x="471.5" y="-274.5" font-family="Helvetica,sans-Serif" font-size="10.00">+ signatureIndex</text>
<polyline fill="none" stroke="black" points="463.5,-267.5 567.5,-267.5 "/>
<text text-anchor="start" x="471.5" y="-255.5" font-family="Helvetica,sans-Serif" font-size="10.00">+ toVbkEncoding()</text>
<text text-anchor="start" x="471.5" y="-244.5" font-family="Helvetica,sans-Serif" font-size="10.00">+ toVbkEncoding()</text>
<text text-anchor="start" x="471.5" y="-233.5" font-family="Helvetica,sans-Serif" font-size="10.00">+ estimateSize()</text>
<text text-anchor="start" x="471.5" y="-222.5" font-family="Helvetica,sans-Serif" font-size="10.00">+ getHash()</text>
</a>
</g>
</g>
<!-- Node2&#45;&gt;Node1 -->
<g id="edge1" class="edge">
<title>Node2&#45;&gt;Node1</title>
<path fill="none" stroke="#404040" d="M567.66,-229.44C629.78,-193.64 733.26,-134.02 798.03,-96.69"/>
<polygon fill="none" stroke="#404040" points="798.08,-96.66 801.28,-90.2 808.48,-90.67 805.28,-97.13 798.08,-96.66"/>
<text text-anchor="middle" x="746" y="-145" font-family="Helvetica,sans-Serif" font-size="10.00"> +transaction</text>
</g>
<!-- Node3 -->
<g id="node3" class="node">
<title>Node3</title>
<g id="a_node3"><a xlink:href="namespacealtintegration.html#structaltintegration_1_1NetworkBytePair" target="_top" xlink:title="Stores pair of TxType and VBK network byte.">
<polygon fill="white" stroke="black" points="337.5,-480 337.5,-537 487.5,-537 487.5,-480 337.5,-480"/>
<text text-anchor="middle" x="412.5" y="-525" font-family="Helvetica,sans-Serif" font-size="10.00">altintegration::NetworkBytePair</text>
<polyline fill="none" stroke="black" points="337.5,-518 487.5,-518 "/>
<text text-anchor="start" x="345.5" y="-506" font-family="Helvetica,sans-Serif" font-size="10.00">+ typeId</text>
<polyline fill="none" stroke="black" points="337.5,-499 487.5,-499 "/>
<text text-anchor="middle" x="412.5" y="-487" font-family="Helvetica,sans-Serif" font-size="10.00"> </text>
</a>
</g>
</g>
<!-- Node3&#45;&gt;Node2 -->
<g id="edge2" class="edge">
<title>Node3&#45;&gt;Node2</title>
<path fill="none" stroke="#404040" d="M410.6,-479.86C409.66,-450.84 411.17,-404.46 426.5,-368 434.54,-348.88 447.24,-330.57 460.56,-314.69"/>
<polygon fill="none" stroke="#404040" points="460.56,-314.69 461.48,-307.54 468.44,-305.64 467.52,-312.79 460.56,-314.69"/>
<text text-anchor="middle" x="464" y="-371" font-family="Helvetica,sans-Serif" font-size="10.00"> +networkOrType</text>
</g>
<!-- Node4 -->
<g id="node4" class="node">
<title>Node4</title>
<g id="a_node4"><a xlink:href="structaltintegration_1_1VbkNetworkType.html" target="_top" xlink:title="works as optional&lt;uint8_t&gt;">
<polygon fill="white" stroke="black" points="336.5,-733.5 336.5,-834.5 488.5,-834.5 488.5,-733.5 336.5,-733.5"/>
<text text-anchor="middle" x="412.5" y="-822.5" font-family="Helvetica,sans-Serif" font-size="10.00">altintegration::VbkNetworkType</text>
<polyline fill="none" stroke="black" points="336.5,-815.5 488.5,-815.5 "/>
<text text-anchor="start" x="344.5" y="-803.5" font-family="Helvetica,sans-Serif" font-size="10.00">+ hasValue</text>
<text text-anchor="start" x="344.5" y="-792.5" font-family="Helvetica,sans-Serif" font-size="10.00">+ value</text>
<polyline fill="none" stroke="black" points="336.5,-785.5 488.5,-785.5 "/>
<text text-anchor="start" x="344.5" y="-773.5" font-family="Helvetica,sans-Serif" font-size="10.00">+ operator bool()</text>
<text text-anchor="start" x="344.5" y="-762.5" font-family="Helvetica,sans-Serif" font-size="10.00">+ operator==()</text>
<text text-anchor="start" x="344.5" y="-751.5" font-family="Helvetica,sans-Serif" font-size="10.00">+ toPrettyString()</text>
<text text-anchor="start" x="344.5" y="-740.5" font-family="Helvetica,sans-Serif" font-size="10.00">+ putJson()</text>
</a>
</g>
</g>
<!-- Node4&#45;&gt;Node3 -->
<g id="edge3" class="edge">
<title>Node4&#45;&gt;Node3</title>
<path fill="none" stroke="#404040" d="M412.5,-733.47C412.5,-680.76 412.5,-598.39 412.5,-549.59"/>
<polygon fill="none" stroke="#404040" points="412.5,-549.36 408.5,-543.36 412.5,-537.36 416.5,-543.36 412.5,-549.36"/>
<text text-anchor="middle" x="444.5" y="-652" font-family="Helvetica,sans-Serif" font-size="10.00"> +networkType</text>
</g>
<!-- Node5 -->
<g id="node5" class="node">
<title>Node5</title>
<g id="a_node5"><a xlink:title=" ">
<polygon fill="white" stroke="#bfbfbf" points="595,-755.5 595,-812.5 702,-812.5 702,-755.5 595,-755.5"/>
<text text-anchor="middle" x="648.5" y="-800.5" font-family="Helvetica,sans-Serif" font-size="10.00">std::vector&lt; uint8_t &gt;</text>
<polyline fill="none" stroke="#bfbfbf" points="595,-793.5 702,-793.5 "/>
<text text-anchor="start" x="603" y="-781.5" font-family="Helvetica,sans-Serif" font-size="10.00">+ elements</text>
<polyline fill="none" stroke="#bfbfbf" points="595,-774.5 702,-774.5 "/>
<text text-anchor="middle" x="648.5" y="-762.5" font-family="Helvetica,sans-Serif" font-size="10.00"> </text>
</a>
</g>
</g>
<!-- Node5&#45;&gt;Node2 -->
<g id="edge4" class="edge">
<title>Node5&#45;&gt;Node2</title>
<path fill="none" stroke="#404040" d="M640.61,-755.23C631.18,-724.81 613.47,-675.38 588.5,-638 582.22,-628.59 575.61,-630.09 570.5,-620 563.73,-606.63 536.62,-414.92 523.16,-317.49"/>
<polygon fill="none" stroke="#404040" points="523.15,-317.41 518.37,-312.01 521.51,-305.52 526.29,-310.92 523.15,-317.41"/>
<text text-anchor="middle" x="596" y="-511.5" font-family="Helvetica,sans-Serif" font-size="10.00"> +publicKey</text>
<text text-anchor="middle" x="596" y="-500.5" font-family="Helvetica,sans-Serif" font-size="10.00">+signature</text>
</g>
<!-- Node12 -->
<g id="node12" class="node">
<title>Node12</title>
<g id="a_node12"><a xlink:href="structaltintegration_1_1PublicationData.html" target="_top" xlink:title="Publication data about ALT block inside VBK blockchain.">
<polygon fill="white" stroke="black" points="631,-469 631,-548 776,-548 776,-469 631,-469"/>
<text text-anchor="middle" x="703.5" y="-536" font-family="Helvetica,sans-Serif" font-size="10.00">altintegration::PublicationData</text>
<polyline fill="none" stroke="black" points="631,-529 776,-529 "/>
<text text-anchor="start" x="639" y="-517" font-family="Helvetica,sans-Serif" font-size="10.00">+ identifier</text>
<polyline fill="none" stroke="black" points="631,-510 776,-510 "/>
<text text-anchor="start" x="639" y="-498" font-family="Helvetica,sans-Serif" font-size="10.00">+ toPrettyString()</text>
<text text-anchor="start" x="639" y="-487" font-family="Helvetica,sans-Serif" font-size="10.00">+ toVbkEncoding()</text>
<text text-anchor="start" x="639" y="-476" font-family="Helvetica,sans-Serif" font-size="10.00">+ estimateSize()</text>
</a>
</g>
</g>
<!-- Node5&#45;&gt;Node12 -->
<g id="edge15" class="edge">
<title>Node5&#45;&gt;Node12</title>
<path fill="none" stroke="#404040" d="M650.94,-755.28C653.81,-725.95 659.23,-678.42 667.5,-638 672.82,-612 680.58,-583.55 687.54,-560.03"/>
<polygon fill="none" stroke="#404040" points="687.63,-559.72 685.53,-552.82 691.09,-548.23 693.19,-555.13 687.63,-559.72"/>
<text text-anchor="middle" x="696" y="-663" font-family="Helvetica,sans-Serif" font-size="10.00"> +contextInfo</text>
<text text-anchor="middle" x="696" y="-652" font-family="Helvetica,sans-Serif" font-size="10.00">+header</text>
<text text-anchor="middle" x="696" y="-641" font-family="Helvetica,sans-Serif" font-size="10.00">+payoutInfo</text>
</g>
<!-- Node6 -->
<g id="node6" class="node">
<title>Node6</title>
<g id="a_node6"><a xlink:title=" ">
<polygon fill="white" stroke="#bfbfbf" points="654.5,-992.5 654.5,-1049.5 738.5,-1049.5 738.5,-992.5 654.5,-992.5"/>
<text text-anchor="middle" x="696.5" y="-1037.5" font-family="Helvetica,sans-Serif" font-size="10.00">std::vector&lt; T &gt;</text>
<polyline fill="none" stroke="#bfbfbf" points="654.5,-1030.5 738.5,-1030.5 "/>
<text text-anchor="middle" x="696.5" y="-1018.5" font-family="Helvetica,sans-Serif" font-size="10.00"> </text>
<polyline fill="none" stroke="#bfbfbf" points="654.5,-1011.5 738.5,-1011.5 "/>
<text text-anchor="middle" x="696.5" y="-999.5" font-family="Helvetica,sans-Serif" font-size="10.00"> </text>
</a>
</g>
</g>
<!-- Node6&#45;&gt;Node5 -->
<g id="edge5" class="edge">
<title>Node6&#45;&gt;Node5</title>
<path fill="none" stroke="orange" d="M688.79,-982.26C679.13,-934.95 662.79,-854.96 654.19,-812.84"/>
<polygon fill="orange" stroke="orange" points="685.37,-983.02 690.81,-992.12 692.23,-981.62 685.37,-983.02"/>
<text text-anchor="middle" x="697" y="-900" font-family="Helvetica,sans-Serif" font-size="10.00"> &lt; uint8_t &gt;</text>
</g>
<!-- Node9 -->
<g id="node9" class="node">
<title>Node9</title>
<g id="a_node9"><a xlink:title=" ">
<polygon fill="white" stroke="#bfbfbf" points="147,-474.5 147,-542.5 272,-542.5 272,-474.5 147,-474.5"/>
<text text-anchor="start" x="155" y="-530.5" font-family="Helvetica,sans-Serif" font-size="10.00">std::vector&lt; altintegration</text>
<text text-anchor="middle" x="209.5" y="-519.5" font-family="Helvetica,sans-Serif" font-size="10.00">::Output &gt;</text>
<polyline fill="none" stroke="#bfbfbf" points="147,-512.5 272,-512.5 "/>
<text text-anchor="middle" x="209.5" y="-500.5" font-family="Helvetica,sans-Serif" font-size="10.00"> </text>
<polyline fill="none" stroke="#bfbfbf" points="147,-493.5 272,-493.5 "/>
<text text-anchor="middle" x="209.5" y="-481.5" font-family="Helvetica,sans-Serif" font-size="10.00"> </text>
</a>
</g>
</g>
<!-- Node6&#45;&gt;Node9 -->
<g id="edge12" class="edge">
<title>Node6&#45;&gt;Node9</title>
<path fill="none" stroke="orange" d="M645.14,-989.35C607.88,-968.43 555.6,-941.76 506.5,-926 475.63,-916.09 239.8,-903.45 218.5,-879 196.74,-854.02 204.23,-628.92 207.94,-542.8"/>
<polygon fill="orange" stroke="orange" points="643.85,-992.64 654.28,-994.53 647.31,-986.55 643.85,-992.64"/>
<text text-anchor="middle" x="273" y="-781.5" font-family="Helvetica,sans-Serif" font-size="10.00"> &lt; altintegration::Output &gt;</text>
</g>
<!-- Node14 -->
<g id="node14" class="node">
<title>Node14</title>
<g id="a_node14"><a xlink:title=" ">
<polygon fill="white" stroke="#bfbfbf" points="794,-474.5 794,-542.5 919,-542.5 919,-474.5 794,-474.5"/>
<text text-anchor="start" x="802" y="-530.5" font-family="Helvetica,sans-Serif" font-size="10.00">std::vector&lt; altintegration</text>
<text text-anchor="middle" x="856.5" y="-519.5" font-family="Helvetica,sans-Serif" font-size="10.00">::Blob &gt;</text>
<polyline fill="none" stroke="#bfbfbf" points="794,-512.5 919,-512.5 "/>
<text text-anchor="middle" x="856.5" y="-500.5" font-family="Helvetica,sans-Serif" font-size="10.00"> </text>
<polyline fill="none" stroke="#bfbfbf" points="794,-493.5 919,-493.5 "/>
<text text-anchor="middle" x="856.5" y="-481.5" font-family="Helvetica,sans-Serif" font-size="10.00"> </text>
</a>
</g>
</g>
<!-- Node6&#45;&gt;Node14 -->
<g id="edge22" class="edge">
<title>Node6&#45;&gt;Node14</title>
<path fill="none" stroke="orange" d="M707.31,-982.39C713.16,-960.78 720.08,-933.05 724.5,-908 741.52,-811.62 716.23,-781.74 747.5,-689 752.77,-673.37 805.08,-590.11 835.27,-542.67"/>
<polygon fill="orange" stroke="orange" points="703.9,-981.59 704.62,-992.16 710.65,-983.44 703.9,-981.59"/>
<text text-anchor="middle" x="797" y="-781.5" font-family="Helvetica,sans-Serif" font-size="10.00"> &lt; altintegration::Blob &gt;</text>
</g>
<!-- Node7 -->
<g id="node7" class="node">
<title>Node7</title>
<g id="a_node7"><a xlink:title=" ">
<polygon fill="white" stroke="#bfbfbf" points="743,-1268.5 743,-1325.5 772,-1325.5 772,-1268.5 743,-1268.5"/>
<text text-anchor="middle" x="757.5" y="-1313.5" font-family="Helvetica,sans-Serif" font-size="10.00">T</text>
<polyline fill="none" stroke="#bfbfbf" points="743,-1306.5 772,-1306.5 "/>
<text text-anchor="middle" x="757.5" y="-1294.5" font-family="Helvetica,sans-Serif" font-size="10.00"> </text>
<polyline fill="none" stroke="#bfbfbf" points="743,-1287.5 772,-1287.5 "/>
<text text-anchor="middle" x="757.5" y="-1275.5" font-family="Helvetica,sans-Serif" font-size="10.00"> </text>
</a>
</g>
</g>
<!-- Node7&#45;&gt;Node6 -->
<g id="edge6" class="edge">
<title>Node7&#45;&gt;Node6</title>
<path fill="none" stroke="#404040" d="M751.37,-1268.47C740.5,-1219.65 717.81,-1117.73 705.28,-1061.45"/>
<polygon fill="none" stroke="#404040" points="705.23,-1061.22 700.02,-1056.23 702.62,-1049.51 707.83,-1054.5 705.23,-1061.22"/>
<text text-anchor="middle" x="766" y="-1189.5" font-family="Helvetica,sans-Serif" font-size="10.00"> +elements</text>
</g>
<!-- Node17 -->
<g id="node17" class="node">
<title>Node17</title>
<g id="a_node17"><a xlink:title=" ">
<polygon fill="white" stroke="#bfbfbf" points="830.5,-1163.5 830.5,-1220.5 908.5,-1220.5 908.5,-1163.5 830.5,-1163.5"/>
<text text-anchor="middle" x="869.5" y="-1208.5" font-family="Helvetica,sans-Serif" font-size="10.00">std::array&lt; T &gt;</text>
<polyline fill="none" stroke="#bfbfbf" points="830.5,-1201.5 908.5,-1201.5 "/>
<text text-anchor="middle" x="869.5" y="-1189.5" font-family="Helvetica,sans-Serif" font-size="10.00"> </text>
<polyline fill="none" stroke="#bfbfbf" points="830.5,-1182.5 908.5,-1182.5 "/>
<text text-anchor="middle" x="869.5" y="-1170.5" font-family="Helvetica,sans-Serif" font-size="10.00"> </text>
</a>
</g>
</g>
<!-- Node7&#45;&gt;Node17 -->
<g id="edge21" class="edge">
<title>Node7&#45;&gt;Node17</title>
<path fill="none" stroke="#404040" d="M772.14,-1282.53C786.85,-1269.01 810.15,-1247.58 830.27,-1229.08"/>
<polygon fill="none" stroke="#404040" points="830.42,-1228.94 832.13,-1221.94 839.25,-1220.82 837.54,-1227.82 830.42,-1228.94"/>
<text text-anchor="middle" x="842" y="-1242" font-family="Helvetica,sans-Serif" font-size="10.00"> +elements</text>
</g>
<!-- Node8 -->
<g id="node8" class="node">
<title>Node8</title>
<g id="a_node8"><a xlink:href="structaltintegration_1_1Coin.html" target="_top" xlink:title="represents VBK atomic units">
<polygon fill="white" stroke="black" points="401.5,-965 401.5,-1077 497.5,-1077 497.5,-965 401.5,-965"/>
<text text-anchor="middle" x="449.5" y="-1065" font-family="Helvetica,sans-Serif" font-size="10.00">altintegration::Coin</text>
<polyline fill="none" stroke="black" points="401.5,-1058 497.5,-1058 "/>
<text text-anchor="start" x="409.5" y="-1046" font-family="Helvetica,sans-Serif" font-size="10.00">+ units</text>
<polyline fill="none" stroke="black" points="401.5,-1039 497.5,-1039 "/>
<text text-anchor="start" x="409.5" y="-1027" font-family="Helvetica,sans-Serif" font-size="10.00">+ Coin()</text>
<text text-anchor="start" x="409.5" y="-1016" font-family="Helvetica,sans-Serif" font-size="10.00">+ toPrettyString()</text>
<text text-anchor="start" x="409.5" y="-1005" font-family="Helvetica,sans-Serif" font-size="10.00">+ Coin()</text>
<text text-anchor="start" x="409.5" y="-994" font-family="Helvetica,sans-Serif" font-size="10.00">+ toVbkEncoding()</text>
<text text-anchor="start" x="409.5" y="-983" font-family="Helvetica,sans-Serif" font-size="10.00">+ estimateSize()</text>
<text text-anchor="start" x="409.5" y="-972" font-family="Helvetica,sans-Serif" font-size="10.00">+ operator==()</text>
</a>
</g>
</g>
<!-- Node8&#45;&gt;Node2 -->
<g id="edge7" class="edge">
<title>Node8&#45;&gt;Node2</title>
<path fill="none" stroke="#404040" d="M472.59,-964.76C482.17,-939.14 492.26,-908.01 497.5,-879 507.28,-824.83 512.95,-460.4 514.81,-318.18"/>
<polygon fill="none" stroke="#404040" points="514.82,-317.93 510.89,-311.88 514.97,-305.93 518.89,-311.98 514.82,-317.93"/>
<text text-anchor="middle" x="545.5" y="-652" font-family="Helvetica,sans-Serif" font-size="10.00"> +sourceAmount</text>
</g>
<!-- Node10 -->
<g id="node10" class="node">
<title>Node10</title>
<g id="a_node10"><a xlink:href="structaltintegration_1_1Output.html" target="_top" xlink:title="Single spending output.">
<polygon fill="white" stroke="black" points="67.5,-728 67.5,-840 173.5,-840 173.5,-728 67.5,-728"/>
<text text-anchor="middle" x="120.5" y="-828" font-family="Helvetica,sans-Serif" font-size="10.00">altintegration::Output</text>
<polyline fill="none" stroke="black" points="67.5,-821 173.5,-821 "/>
<text text-anchor="middle" x="120.5" y="-809" font-family="Helvetica,sans-Serif" font-size="10.00"> </text>
<polyline fill="none" stroke="black" points="67.5,-802 173.5,-802 "/>
<text text-anchor="start" x="75.5" y="-790" font-family="Helvetica,sans-Serif" font-size="10.00">+ Output()</text>
<text text-anchor="start" x="75.5" y="-779" font-family="Helvetica,sans-Serif" font-size="10.00">+ Output()</text>
<text text-anchor="start" x="75.5" y="-768" font-family="Helvetica,sans-Serif" font-size="10.00">+ operator==()</text>
<text text-anchor="start" x="75.5" y="-757" font-family="Helvetica,sans-Serif" font-size="10.00">+ toVbkEncoding()</text>
<text text-anchor="start" x="75.5" y="-746" font-family="Helvetica,sans-Serif" font-size="10.00">+ estimateSize()</text>
<text text-anchor="start" x="75.5" y="-735" font-family="Helvetica,sans-Serif" font-size="10.00">+ toPrettyString()</text>
</a>
</g>
</g>
<!-- Node8&#45;&gt;Node10 -->
<g id="edge10" class="edge">
<title>Node8&#45;&gt;Node10</title>
<path fill="none" stroke="#404040" d="M401.48,-1002.02C345.63,-979.44 252.78,-936.56 187.5,-879 177.83,-870.48 168.79,-860.3 160.68,-849.85"/>
<polygon fill="none" stroke="#404040" points="160.66,-849.82 153.87,-847.4 153.49,-840.2 160.29,-842.62 160.66,-849.82"/>
<text text-anchor="middle" x="233" y="-900" font-family="Helvetica,sans-Serif" font-size="10.00"> +coin</text>
</g>
<!-- Node9&#45;&gt;Node2 -->
<g id="edge8" class="edge">
<title>Node9&#45;&gt;Node2</title>
<path fill="none" stroke="#404040" d="M242.88,-474.45C266.21,-451.88 298.44,-421.7 328.5,-397 368.71,-363.97 416.22,-329.6 453.29,-303.74"/>
<polygon fill="none" stroke="#404040" points="453.59,-303.53 456.24,-296.82 463.45,-296.68 460.8,-303.39 453.59,-303.53"/>
<text text-anchor="middle" x="384" y="-371" font-family="Helvetica,sans-Serif" font-size="10.00"> +outputs</text>
</g>
<!-- Node10&#45;&gt;Node9 -->
<g id="edge9" class="edge">
<title>Node10&#45;&gt;Node9</title>
<path fill="none" stroke="#404040" d="M126.73,-727.71C130.74,-700.29 137.02,-666.92 146.5,-638 156.13,-608.62 171.28,-577.44 184.31,-553.15"/>
<polygon fill="none" stroke="#404040" points="184.37,-553.04 183.74,-545.86 190.13,-542.51 190.76,-549.69 184.37,-553.04"/>
<text text-anchor="middle" x="171" y="-652" font-family="Helvetica,sans-Serif" font-size="10.00"> +elements</text>
</g>
<!-- Node11 -->
<g id="node11" class="node">
<title>Node11</title>
<g id="a_node11"><a xlink:href="structaltintegration_1_1Address.html" target="_top" xlink:title="Represents address on VBK chain.">
<polygon fill="white" stroke="black" points="0,-926.5 0,-1115.5 137,-1115.5 137,-926.5 0,-926.5"/>
<text text-anchor="middle" x="68.5" y="-1103.5" font-family="Helvetica,sans-Serif" font-size="10.00">altintegration::Address</text>
<polyline fill="none" stroke="black" points="0,-1096.5 137,-1096.5 "/>
<text text-anchor="middle" x="68.5" y="-1084.5" font-family="Helvetica,sans-Serif" font-size="10.00"> </text>
<polyline fill="none" stroke="black" points="0,-1077.5 137,-1077.5 "/>
<text text-anchor="start" x="8" y="-1065.5" font-family="Helvetica,sans-Serif" font-size="10.00">+ Address()</text>
<text text-anchor="start" x="8" y="-1054.5" font-family="Helvetica,sans-Serif" font-size="10.00">+ operator==()</text>
<text text-anchor="start" x="8" y="-1043.5" font-family="Helvetica,sans-Serif" font-size="10.00">+ operator!=()</text>
<text text-anchor="start" x="8" y="-1032.5" font-family="Helvetica,sans-Serif" font-size="10.00">+ operator==()</text>
<text text-anchor="start" x="8" y="-1021.5" font-family="Helvetica,sans-Serif" font-size="10.00">+ getType()</text>
<text text-anchor="start" x="8" y="-1010.5" font-family="Helvetica,sans-Serif" font-size="10.00">+ getPopBytes()</text>
<text text-anchor="start" x="8" y="-999.5" font-family="Helvetica,sans-Serif" font-size="10.00">+ isDerivedFromPublicKey()</text>
<text text-anchor="start" x="8" y="-988.5" font-family="Helvetica,sans-Serif" font-size="10.00">+ fromString()</text>
<text text-anchor="start" x="8" y="-977.5" font-family="Helvetica,sans-Serif" font-size="10.00">+ toString()</text>
<text text-anchor="start" x="8" y="-966.5" font-family="Helvetica,sans-Serif" font-size="10.00">+ toVbkEncoding()</text>
<text text-anchor="start" x="8" y="-955.5" font-family="Helvetica,sans-Serif" font-size="10.00">+ estimateSize()</text>
<text text-anchor="start" x="8" y="-944.5" font-family="Helvetica,sans-Serif" font-size="10.00">+ fromPublicKey()</text>
<text text-anchor="start" x="8" y="-933.5" font-family="Helvetica,sans-Serif" font-size="10.00">+ assertFromString()</text>
</a>
</g>
</g>
<!-- Node11&#45;&gt;Node2 -->
<g id="edge13" class="edge">
<title>Node11&#45;&gt;Node2</title>
<path fill="none" stroke="#404040" d="M47.36,-926.27C22.72,-790.06 1.06,-538.3 137.5,-397 222.23,-309.26 367.7,-278.16 451.31,-267.26"/>
<polygon fill="none" stroke="#404040" points="451.52,-267.24 456.99,-262.53 463.43,-265.77 457.97,-270.47 451.52,-267.24"/>
<text text-anchor="middle" x="72.5" y="-652" font-family="Helvetica,sans-Serif" font-size="10.00"> +sourceAddress</text>
</g>
<!-- Node11&#45;&gt;Node10 -->
<g id="edge11" class="edge">
<title>Node11&#45;&gt;Node10</title>
<path fill="none" stroke="#404040" d="M89.2,-926.45C94.72,-901.49 100.58,-875.02 105.71,-851.82"/>
<polygon fill="none" stroke="#404040" points="105.74,-851.72 103.13,-845 108.33,-840.01 110.94,-846.73 105.74,-851.72"/>
<text text-anchor="middle" x="116" y="-900" font-family="Helvetica,sans-Serif" font-size="10.00"> +address</text>
</g>
<!-- Node12&#45;&gt;Node2 -->
<g id="edge14" class="edge">
<title>Node12&#45;&gt;Node2</title>
<path fill="none" stroke="#404040" d="M673.92,-468.79C642.35,-427.48 592.11,-361.74 556.68,-315.38"/>
<polygon fill="none" stroke="#404040" points="556.64,-315.34 549.82,-313 549.36,-305.8 556.18,-308.14 556.64,-315.34"/>
<text text-anchor="middle" x="642.5" y="-371" font-family="Helvetica,sans-Serif" font-size="10.00"> +publicationData</text>
</g>
<!-- Node13 -->
<g id="node13" class="node">
<title>Node13</title>
<g id="a_node13"><a xlink:href="structaltintegration_1_1VbkMerklePath.html" target="_top" xlink:title="Path in Merkle tree, which proves that subject exists in the tree.">
<polygon fill="white" stroke="black" points="785,-215.5 785,-305.5 928,-305.5 928,-215.5 785,-215.5"/>
<text text-anchor="middle" x="856.5" y="-293.5" font-family="Helvetica,sans-Serif" font-size="10.00">altintegration::VbkMerklePath</text>
<polyline fill="none" stroke="black" points="785,-286.5 928,-286.5 "/>
<text text-anchor="start" x="793" y="-274.5" font-family="Helvetica,sans-Serif" font-size="10.00">+ treeIndex</text>
<text text-anchor="start" x="793" y="-263.5" font-family="Helvetica,sans-Serif" font-size="10.00">+ index</text>
<polyline fill="none" stroke="black" points="785,-256.5 928,-256.5 "/>
<text text-anchor="start" x="793" y="-244.5" font-family="Helvetica,sans-Serif" font-size="10.00">+ toVbkEncoding()</text>
<text text-anchor="start" x="793" y="-233.5" font-family="Helvetica,sans-Serif" font-size="10.00">+ estimateSize()</text>
<text text-anchor="start" x="793" y="-222.5" font-family="Helvetica,sans-Serif" font-size="10.00">+ calculateMerkleRoot()</text>
</a>
</g>
</g>
<!-- Node13&#45;&gt;Node1 -->
<g id="edge16" class="edge">
<title>Node13&#45;&gt;Node1</title>
<path fill="none" stroke="#404040" d="M856.5,-215.4C856.5,-191.95 856.5,-162.51 856.5,-135.78"/>
<polygon fill="none" stroke="#404040" points="856.5,-135.71 852.5,-129.71 856.5,-123.71 860.5,-129.71 856.5,-135.71"/>
<text text-anchor="middle" x="885.5" y="-145" font-family="Helvetica,sans-Serif" font-size="10.00"> +merklePath</text>
</g>
<!-- Node14&#45;&gt;Node13 -->
<g id="edge17" class="edge">
<title>Node14&#45;&gt;Node13</title>
<path fill="none" stroke="#404040" d="M856.5,-474.32C856.5,-434.27 856.5,-366.27 856.5,-317.92"/>
<polygon fill="none" stroke="#404040" points="856.5,-317.77 852.5,-311.77 856.5,-305.77 860.5,-311.77 856.5,-317.77"/>
<text text-anchor="middle" x="873.5" y="-371" font-family="Helvetica,sans-Serif" font-size="10.00"> +layers</text>
</g>
<!-- Node15 -->
<g id="node15" class="node">
<title>Node15</title>
<g id="a_node15"><a xlink:href="structaltintegration_1_1Blob.html" target="_top" xlink:title="Contiguous byte array of fixed size.">
<polygon fill="white" stroke="black" points="855.5,-689.5 855.5,-878.5 975.5,-878.5 975.5,-689.5 855.5,-689.5"/>
<text text-anchor="middle" x="915.5" y="-866.5" font-family="Helvetica,sans-Serif" font-size="10.00">altintegration::Blob&lt; N &gt;</text>
<polyline fill="none" stroke="black" points="855.5,-859.5 975.5,-859.5 "/>
<text text-anchor="start" x="863.5" y="-847.5" font-family="Helvetica,sans-Serif" font-size="10.00">+ this</text>
<polyline fill="none" stroke="black" points="855.5,-840.5 975.5,-840.5 "/>
<text text-anchor="start" x="863.5" y="-828.5" font-family="Helvetica,sans-Serif" font-size="10.00">+ Blob()</text>
<text text-anchor="start" x="863.5" y="-817.5" font-family="Helvetica,sans-Serif" font-size="10.00">+ Blob()</text>
<text text-anchor="start" x="863.5" y="-806.5" font-family="Helvetica,sans-Serif" font-size="10.00">+ Blob()</text>
<text text-anchor="start" x="863.5" y="-795.5" font-family="Helvetica,sans-Serif" font-size="10.00">+ Blob()</text>
<text text-anchor="start" x="863.5" y="-784.5" font-family="Helvetica,sans-Serif" font-size="10.00">+ Blob()</text>
<text text-anchor="start" x="863.5" y="-773.5" font-family="Helvetica,sans-Serif" font-size="10.00">+ operator=()</text>
<text text-anchor="start" x="863.5" y="-762.5" font-family="Helvetica,sans-Serif" font-size="10.00">+ operator=()</text>
<text text-anchor="start" x="863.5" y="-751.5" font-family="Helvetica,sans-Serif" font-size="10.00">+ reverse()</text>
<text text-anchor="start" x="863.5" y="-740.5" font-family="Helvetica,sans-Serif" font-size="10.00">+ operator~()</text>
<text text-anchor="start" x="863.5" y="-729.5" font-family="Helvetica,sans-Serif" font-size="10.00">+ asVector()</text>
<text text-anchor="start" x="863.5" y="-718.5" font-family="Helvetica,sans-Serif" font-size="10.00">and 9 more...</text>
<text text-anchor="start" x="863.5" y="-707.5" font-family="Helvetica,sans-Serif" font-size="10.00"># assign()</text>
<text text-anchor="start" x="863.5" y="-696.5" font-family="Helvetica,sans-Serif" font-size="10.00"># assign()</text>
</a>
</g>
</g>
<!-- Node15&#45;&gt;Node14 -->
<g id="edge18" class="edge">
<title>Node15&#45;&gt;Node14</title>
<path fill="none" stroke="#404040" d="M895.28,-689.26C885.49,-643.89 874.19,-591.49 866.32,-555.01"/>
<polygon fill="none" stroke="#404040" points="866.22,-554.54 861.04,-549.52 863.69,-542.81 868.86,-547.83 866.22,-554.54"/>
<text text-anchor="middle" x="915" y="-652" font-family="Helvetica,sans-Serif" font-size="10.00"> +elements</text>
</g>
<!-- Node18 -->
<g id="node18" class="node">
<title>Node18</title>
<g id="a_node18"><a xlink:href="structaltintegration_1_1Blob.html" target="_top" xlink:title=" ">
<polygon fill="white" stroke="black" points="937,-397.5 937,-619.5 1068,-619.5 1068,-397.5 937,-397.5"/>
<text text-anchor="start" x="945" y="-607.5" font-family="Helvetica,sans-Serif" font-size="10.00">altintegration::Blob</text>
<text text-anchor="middle" x="1002.5" y="-596.5" font-family="Helvetica,sans-Serif" font-size="10.00">&lt; SHA256_HASH_SIZE &gt;</text>
<polyline fill="none" stroke="black" points="937,-589.5 1068,-589.5 "/>
<text text-anchor="start" x="945" y="-577.5" font-family="Helvetica,sans-Serif" font-size="10.00">+ data_</text>
<text text-anchor="start" x="945" y="-566.5" font-family="Helvetica,sans-Serif" font-size="10.00">+ this</text>
<text text-anchor="start" x="945" y="-555.5" font-family="Helvetica,sans-Serif" font-size="10.00"># data_</text>
<polyline fill="none" stroke="black" points="937,-548.5 1068,-548.5 "/>
<text text-anchor="start" x="945" y="-536.5" font-family="Helvetica,sans-Serif" font-size="10.00">+ Blob()</text>
<text text-anchor="start" x="945" y="-525.5" font-family="Helvetica,sans-Serif" font-size="10.00">+ Blob()</text>
<text text-anchor="start" x="945" y="-514.5" font-family="Helvetica,sans-Serif" font-size="10.00">+ Blob()</text>
<text text-anchor="start" x="945" y="-503.5" font-family="Helvetica,sans-Serif" font-size="10.00">+ Blob()</text>
<text text-anchor="start" x="945" y="-492.5" font-family="Helvetica,sans-Serif" font-size="10.00">+ Blob()</text>
<text text-anchor="start" x="945" y="-481.5" font-family="Helvetica,sans-Serif" font-size="10.00">+ operator=()</text>
<text text-anchor="start" x="945" y="-470.5" font-family="Helvetica,sans-Serif" font-size="10.00">+ operator=()</text>
<text text-anchor="start" x="945" y="-459.5" font-family="Helvetica,sans-Serif" font-size="10.00">+ reverse()</text>
<text text-anchor="start" x="945" y="-448.5" font-family="Helvetica,sans-Serif" font-size="10.00">+ operator~()</text>
<text text-anchor="start" x="945" y="-437.5" font-family="Helvetica,sans-Serif" font-size="10.00">+ asVector()</text>
<text text-anchor="start" x="945" y="-426.5" font-family="Helvetica,sans-Serif" font-size="10.00">and 9 more...</text>
<text text-anchor="start" x="945" y="-415.5" font-family="Helvetica,sans-Serif" font-size="10.00"># assign()</text>
<text text-anchor="start" x="945" y="-404.5" font-family="Helvetica,sans-Serif" font-size="10.00"># assign()</text>
</a>
</g>
</g>
<!-- Node15&#45;&gt;Node18 -->
<g id="edge24" class="edge">
<title>Node15&#45;&gt;Node18</title>
<path fill="none" stroke="orange" d="M948.36,-679.71C954.6,-660.07 961.16,-639.45 967.47,-619.61"/>
<polygon fill="orange" stroke="orange" points="945.01,-678.67 945.32,-689.26 951.69,-680.79 945.01,-678.67"/>
<text text-anchor="middle" x="1020" y="-652" font-family="Helvetica,sans-Serif" font-size="10.00"> &lt; SHA256_HASH_SIZE &gt;</text>
</g>
<!-- Node16 -->
<g id="node16" class="node">
<title>Node16</title>
<g id="a_node16"><a xlink:title=" ">
<polygon fill="white" stroke="#bfbfbf" points="827,-992.5 827,-1049.5 958,-1049.5 958,-992.5 827,-992.5"/>
<text text-anchor="middle" x="892.5" y="-1037.5" font-family="Helvetica,sans-Serif" font-size="10.00">std::array&lt; value_type, N &gt;</text>
<polyline fill="none" stroke="#bfbfbf" points="827,-1030.5 958,-1030.5 "/>
<text text-anchor="start" x="835" y="-1018.5" font-family="Helvetica,sans-Serif" font-size="10.00">+ elements</text>
<polyline fill="none" stroke="#bfbfbf" points="827,-1011.5 958,-1011.5 "/>
<text text-anchor="middle" x="892.5" y="-999.5" font-family="Helvetica,sans-Serif" font-size="10.00"> </text>
</a>
</g>
</g>
<!-- Node16&#45;&gt;Node15 -->
<g id="edge19" class="edge">
<title>Node16&#45;&gt;Node15</title>
<path fill="none" stroke="#404040" d="M895.23,-992.12C897.7,-966.83 901.51,-927.91 905.16,-890.6"/>
<polygon fill="none" stroke="#404040" points="905.17,-890.51 901.78,-884.15 906.34,-878.57 909.74,-884.93 905.17,-890.51"/>
<text text-anchor="middle" x="919.5" y="-900" font-family="Helvetica,sans-Serif" font-size="10.00"> #data_</text>
</g>
<!-- Node17&#45;&gt;Node16 -->
<g id="edge20" class="edge">
<title>Node17&#45;&gt;Node16</title>
<path fill="none" stroke="orange" d="M874.63,-1153.33C878.91,-1121.87 884.91,-1077.75 888.76,-1049.52"/>
<polygon fill="orange" stroke="orange" points="871.13,-1153.09 873.25,-1163.47 878.06,-1154.03 871.13,-1153.09"/>
<text text-anchor="middle" x="916" y="-1137" font-family="Helvetica,sans-Serif" font-size="10.00"> &lt; value_type, N &gt;</text>
</g>
<!-- Node18&#45;&gt;Node13 -->
<g id="edge23" class="edge">
<title>Node18&#45;&gt;Node13</title>
<path fill="none" stroke="#404040" d="M937.19,-397.45C920.39,-369.15 903.04,-339.92 888.75,-315.85"/>
<polygon fill="none" stroke="#404040" points="888.75,-315.84 882.25,-312.72 882.63,-305.52 889.13,-308.64 888.75,-315.84"/>
<text text-anchor="middle" x="944.5" y="-371" font-family="Helvetica,sans-Serif" font-size="10.00"> +subject</text>
</g>
<!-- Node19 -->
<g id="node19" class="node">
<title>Node19</title>
<g id="a_node19"><a xlink:href="structaltintegration_1_1VbkBlock.html" target="_top" xlink:title="Veriblock block.">
<polygon fill="white" stroke="black" points="946,-171.5 946,-349.5 1065,-349.5 1065,-171.5 946,-171.5"/>
<text text-anchor="middle" x="1005.5" y="-337.5" font-family="Helvetica,sans-Serif" font-size="10.00">altintegration::VbkBlock</text>
<polyline fill="none" stroke="black" points="946,-330.5 1065,-330.5 "/>
<text text-anchor="middle" x="1005.5" y="-318.5" font-family="Helvetica,sans-Serif" font-size="10.00"> </text>
<polyline fill="none" stroke="black" points="946,-311.5 1065,-311.5 "/>
<text text-anchor="start" x="954" y="-299.5" font-family="Helvetica,sans-Serif" font-size="10.00">+ toPrettyString()</text>
<text text-anchor="start" x="954" y="-288.5" font-family="Helvetica,sans-Serif" font-size="10.00">+ toRaw()</text>
<text text-anchor="start" x="954" y="-277.5" font-family="Helvetica,sans-Serif" font-size="10.00">+ toVbkEncoding()</text>
<text text-anchor="start" x="954" y="-266.5" font-family="Helvetica,sans-Serif" font-size="10.00">+ toRaw()</text>
<text text-anchor="start" x="954" y="-255.5" font-family="Helvetica,sans-Serif" font-size="10.00">+ toVbkEncoding()</text>
<text text-anchor="start" x="954" y="-244.5" font-family="Helvetica,sans-Serif" font-size="10.00">+ estimateSize()</text>
<text text-anchor="start" x="954" y="-233.5" font-family="Helvetica,sans-Serif" font-size="10.00">+ getBlockTime()</text>
<text text-anchor="start" x="954" y="-222.5" font-family="Helvetica,sans-Serif" font-size="10.00">+ calculateHash()</text>
<text text-anchor="start" x="954" y="-211.5" font-family="Helvetica,sans-Serif" font-size="10.00">+ getHash()</text>
<text text-anchor="start" x="954" y="-200.5" font-family="Helvetica,sans-Serif" font-size="10.00">+ getShortHash()</text>
<text text-anchor="start" x="954" y="-189.5" font-family="Helvetica,sans-Serif" font-size="10.00">and 21 more...</text>
<text text-anchor="start" x="954" y="-178.5" font-family="Helvetica,sans-Serif" font-size="10.00">+ name()</text>
</a>
</g>
</g>
<!-- Node19&#45;&gt;Node1 -->
<g id="edge25" class="edge">
<title>Node19&#45;&gt;Node1</title>
<path fill="none" stroke="#404040" d="M945.89,-178.37C936.77,-166.14 927.43,-153.71 918.5,-142 916.3,-139.11 914.04,-136.17 911.76,-133.21"/>
<polygon fill="none" stroke="#404040" points="911.74,-133.18 904.9,-130.87 904.4,-123.68 911.23,-125.98 911.74,-133.18"/>
<text text-anchor="middle" x="958.5" y="-145" font-family="Helvetica,sans-Serif" font-size="10.00"> +blockOfProof</text>
</g>
</g>
</svg>
