<?xml version="1.0" encoding="UTF-8" standalone="no"?>
<!DOCTYPE svg PUBLIC "-//W3C//DTD SVG 1.1//EN"
 "http://www.w3.org/Graphics/SVG/1.1/DTD/svg11.dtd">
<!-- Generated by graphviz version 2.44.0 ()
 -->
<!-- Title: altintegration::VTB Pages: 1 -->
<svg width="1233pt" height="1340pt"
 viewBox="0.00 0.00 1233.00 1340.00" xmlns="http://www.w3.org/2000/svg" xmlns:xlink="http://www.w3.org/1999/xlink">
<g id="graph0" class="graph" transform="scale(1 1) rotate(0) translate(4 1336)">
<title>altintegration::VTB</title>
<polygon fill="white" stroke="transparent" points="-4,4 -4,-1336 1229,-1336 1229,4 -4,4"/>
<!-- Node1 -->
<g id="node1" class="node">
<title>Node1</title>
<g id="a_node1"><a xlink:title="Veriblock to Bitcoin publication, committed to Veriblock blockchain in containingBlock.">
<polygon fill="#bfbfbf" stroke="black" points="634,-0.5 634,-134.5 747,-134.5 747,-0.5 634,-0.5"/>
<text text-anchor="middle" x="690.5" y="-122.5" font-family="Helvetica,sans-Serif" font-size="10.00">altintegration::VTB</text>
<polyline fill="none" stroke="black" points="634,-115.5 747,-115.5 "/>
<text text-anchor="start" x="642" y="-103.5" font-family="Helvetica,sans-Serif" font-size="10.00">+ version</text>
<text text-anchor="start" x="642" y="-92.5" font-family="Helvetica,sans-Serif" font-size="10.00">+ checked</text>
<polyline fill="none" stroke="black" points="634,-85.5 747,-85.5 "/>
<text text-anchor="start" x="642" y="-73.5" font-family="Helvetica,sans-Serif" font-size="10.00">+ toPrettyString()</text>
<text text-anchor="start" x="642" y="-62.5" font-family="Helvetica,sans-Serif" font-size="10.00">+ toShortPrettyString()</text>
<text text-anchor="start" x="642" y="-51.5" font-family="Helvetica,sans-Serif" font-size="10.00">+ toVbkEncoding()</text>
<text text-anchor="start" x="642" y="-40.5" font-family="Helvetica,sans-Serif" font-size="10.00">+ toVbkEncoding()</text>
<text text-anchor="start" x="642" y="-29.5" font-family="Helvetica,sans-Serif" font-size="10.00">+ estimateSize()</text>
<text text-anchor="start" x="642" y="-18.5" font-family="Helvetica,sans-Serif" font-size="10.00">+ getId()</text>
<text text-anchor="start" x="642" y="-7.5" font-family="Helvetica,sans-Serif" font-size="10.00">+ name()</text>
</a>
</g>
</g>
<!-- Node2 -->
<g id="node2" class="node">
<title>Node2</title>
<g id="a_node2"><a xlink:href="structaltintegration_1_1VbkMerklePath.html" target="_top" xlink:title="Path in Merkle tree, which proves that subject exists in the tree.">
<polygon fill="white" stroke="black" points="23,-370 23,-460 166,-460 166,-370 23,-370"/>
<text text-anchor="middle" x="94.5" y="-448" font-family="Helvetica,sans-Serif" font-size="10.00">altintegration::VbkMerklePath</text>
<polyline fill="none" stroke="black" points="23,-441 166,-441 "/>
<text text-anchor="start" x="31" y="-429" font-family="Helvetica,sans-Serif" font-size="10.00">+ treeIndex</text>
<text text-anchor="start" x="31" y="-418" font-family="Helvetica,sans-Serif" font-size="10.00">+ index</text>
<polyline fill="none" stroke="black" points="23,-411 166,-411 "/>
<text text-anchor="start" x="31" y="-399" font-family="Helvetica,sans-Serif" font-size="10.00">+ toVbkEncoding()</text>
<text text-anchor="start" x="31" y="-388" font-family="Helvetica,sans-Serif" font-size="10.00">+ estimateSize()</text>
<text text-anchor="start" x="31" y="-377" font-family="Helvetica,sans-Serif" font-size="10.00">+ calculateMerkleRoot()</text>
</a>
</g>
</g>
<!-- Node2&#45;&gt;Node1 -->
<g id="edge1" class="edge">
<title>Node2&#45;&gt;Node1</title>
<path fill="none" stroke="#404040" d="M126.33,-369.84C140.1,-352.81 157.25,-334.08 175.5,-320 318.89,-209.42 518.67,-128.96 622.21,-91.68"/>
<polygon fill="none" stroke="#404040" points="622.44,-91.6 626.74,-85.81 633.74,-87.56 629.43,-93.35 622.44,-91.6"/>
<text text-anchor="middle" x="428.5" y="-225" font-family="Helvetica,sans-Serif" font-size="10.00"> +merklePath</text>
</g>
<!-- Node3 -->
<g id="node3" class="node">
<title>Node3</title>
<g id="a_node3"><a xlink:title=" ">
<polygon fill="white" stroke="#bfbfbf" points="168,-634.5 168,-702.5 293,-702.5 293,-634.5 168,-634.5"/>
<text text-anchor="start" x="176" y="-690.5" font-family="Helvetica,sans-Serif" font-size="10.00">std::vector&lt; altintegration</text>
<text text-anchor="middle" x="230.5" y="-679.5" font-family="Helvetica,sans-Serif" font-size="10.00">::Blob &gt;</text>
<polyline fill="none" stroke="#bfbfbf" points="168,-672.5 293,-672.5 "/>
<text text-anchor="middle" x="230.5" y="-660.5" font-family="Helvetica,sans-Serif" font-size="10.00"> </text>
<polyline fill="none" stroke="#bfbfbf" points="168,-653.5 293,-653.5 "/>
<text text-anchor="middle" x="230.5" y="-641.5" font-family="Helvetica,sans-Serif" font-size="10.00"> </text>
</a>
</g>
</g>
<!-- Node3&#45;&gt;Node2 -->
<g id="edge2" class="edge">
<title>Node3&#45;&gt;Node2</title>
<path fill="none" stroke="#404040" d="M217.92,-634.3C206.57,-605.53 188.74,-563.12 169.5,-528 158.83,-508.52 145.76,-488.09 133.55,-470.1"/>
<polygon fill="none" stroke="#404040" points="133.46,-469.98 126.77,-467.3 126.67,-460.09 133.36,-462.77 133.46,-469.98"/>
<text text-anchor="middle" x="192.5" y="-531" font-family="Helvetica,sans-Serif" font-size="10.00"> +layers</text>
</g>
<!-- Node14 -->
<g id="node14" class="node">
<title>Node14</title>
<g id="a_node14"><a xlink:href="structaltintegration_1_1MerklePath.html" target="_top" xlink:title="Path in Merkle tree which proves that subject is inside this tree.">
<polygon fill="white" stroke="black" points="184.5,-370 184.5,-460 310.5,-460 310.5,-370 184.5,-370"/>
<text text-anchor="middle" x="247.5" y="-448" font-family="Helvetica,sans-Serif" font-size="10.00">altintegration::MerklePath</text>
<polyline fill="none" stroke="black" points="184.5,-441 310.5,-441 "/>
<text text-anchor="start" x="192.5" y="-429" font-family="Helvetica,sans-Serif" font-size="10.00">+ index</text>
<polyline fill="none" stroke="black" points="184.5,-422 310.5,-422 "/>
<text text-anchor="start" x="192.5" y="-410" font-family="Helvetica,sans-Serif" font-size="10.00">+ toRaw()</text>
<text text-anchor="start" x="192.5" y="-399" font-family="Helvetica,sans-Serif" font-size="10.00">+ toVbkEncoding()</text>
<text text-anchor="start" x="192.5" y="-388" font-family="Helvetica,sans-Serif" font-size="10.00">+ estimateSize()</text>
<text text-anchor="start" x="192.5" y="-377" font-family="Helvetica,sans-Serif" font-size="10.00">+ calculateMerkleRoot()</text>
</a>
</g>
</g>
<!-- Node3&#45;&gt;Node14 -->
<g id="edge17" class="edge">
<title>Node3&#45;&gt;Node14</title>
<path fill="none" stroke="#404040" d="M232.74,-634.36C235.52,-593.17 240.32,-522.22 243.69,-472.41"/>
<polygon fill="none" stroke="#404040" points="243.7,-472.2 240.11,-465.94 244.51,-460.23 248.1,-466.48 243.7,-472.2"/>
<text text-anchor="middle" x="257.5" y="-531" font-family="Helvetica,sans-Serif" font-size="10.00"> +layers</text>
</g>
<!-- Node4 -->
<g id="node4" class="node">
<title>Node4</title>
<g id="a_node4"><a xlink:href="structaltintegration_1_1Blob.html" target="_top" xlink:title="Contiguous byte array of fixed size.">
<polygon fill="white" stroke="black" points="145.5,-827.5 145.5,-1016.5 265.5,-1016.5 265.5,-827.5 145.5,-827.5"/>
<text text-anchor="middle" x="205.5" y="-1004.5" font-family="Helvetica,sans-Serif" font-size="10.00">altintegration::Blob&lt; N &gt;</text>
<polyline fill="none" stroke="black" points="145.5,-997.5 265.5,-997.5 "/>
<text text-anchor="start" x="153.5" y="-985.5" font-family="Helvetica,sans-Serif" font-size="10.00">+ this</text>
<polyline fill="none" stroke="black" points="145.5,-978.5 265.5,-978.5 "/>
<text text-anchor="start" x="153.5" y="-966.5" font-family="Helvetica,sans-Serif" font-size="10.00">+ Blob()</text>
<text text-anchor="start" x="153.5" y="-955.5" font-family="Helvetica,sans-Serif" font-size="10.00">+ Blob()</text>
<text text-anchor="start" x="153.5" y="-944.5" font-family="Helvetica,sans-Serif" font-size="10.00">+ Blob()</text>
<text text-anchor="start" x="153.5" y="-933.5" font-family="Helvetica,sans-Serif" font-size="10.00">+ Blob()</text>
<text text-anchor="start" x="153.5" y="-922.5" font-family="Helvetica,sans-Serif" font-size="10.00">+ Blob()</text>
<text text-anchor="start" x="153.5" y="-911.5" font-family="Helvetica,sans-Serif" font-size="10.00">+ operator=()</text>
<text text-anchor="start" x="153.5" y="-900.5" font-family="Helvetica,sans-Serif" font-size="10.00">+ operator=()</text>
<text text-anchor="start" x="153.5" y="-889.5" font-family="Helvetica,sans-Serif" font-size="10.00">+ reverse()</text>
<text text-anchor="start" x="153.5" y="-878.5" font-family="Helvetica,sans-Serif" font-size="10.00">+ operator~()</text>
<text text-anchor="start" x="153.5" y="-867.5" font-family="Helvetica,sans-Serif" font-size="10.00">+ asVector()</text>
<text text-anchor="start" x="153.5" y="-856.5" font-family="Helvetica,sans-Serif" font-size="10.00">and 9 more...</text>
<text text-anchor="start" x="153.5" y="-845.5" font-family="Helvetica,sans-Serif" font-size="10.00"># assign()</text>
<text text-anchor="start" x="153.5" y="-834.5" font-family="Helvetica,sans-Serif" font-size="10.00"># assign()</text>
</a>
</g>
</g>
<!-- Node4&#45;&gt;Node3 -->
<g id="edge3" class="edge">
<title>Node4&#45;&gt;Node3</title>
<path fill="none" stroke="#404040" d="M204.55,-827.23C204.96,-817.35 205.59,-807.46 206.5,-798 209.21,-769.98 214.93,-738.94 220.1,-714.39"/>
<polygon fill="none" stroke="#404040" points="220.13,-714.28 217.49,-707.57 222.66,-702.55 225.3,-709.26 220.13,-714.28"/>
<text text-anchor="middle" x="231" y="-801" font-family="Helvetica,sans-Serif" font-size="10.00"> +elements</text>
</g>
<!-- Node9 -->
<g id="node9" class="node">
<title>Node9</title>
<g id="a_node9"><a xlink:href="structaltintegration_1_1Blob.html" target="_top" xlink:title=" ">
<polygon fill="white" stroke="black" points="0,-557.5 0,-779.5 131,-779.5 131,-557.5 0,-557.5"/>
<text text-anchor="start" x="8" y="-767.5" font-family="Helvetica,sans-Serif" font-size="10.00">altintegration::Blob</text>
<text text-anchor="middle" x="65.5" y="-756.5" font-family="Helvetica,sans-Serif" font-size="10.00">&lt; SHA256_HASH_SIZE &gt;</text>
<polyline fill="none" stroke="black" points="0,-749.5 131,-749.5 "/>
<text text-anchor="start" x="8" y="-737.5" font-family="Helvetica,sans-Serif" font-size="10.00">+ data_</text>
<text text-anchor="start" x="8" y="-726.5" font-family="Helvetica,sans-Serif" font-size="10.00">+ this</text>
<text text-anchor="start" x="8" y="-715.5" font-family="Helvetica,sans-Serif" font-size="10.00"># data_</text>
<polyline fill="none" stroke="black" points="0,-708.5 131,-708.5 "/>
<text text-anchor="start" x="8" y="-696.5" font-family="Helvetica,sans-Serif" font-size="10.00">+ Blob()</text>
<text text-anchor="start" x="8" y="-685.5" font-family="Helvetica,sans-Serif" font-size="10.00">+ Blob()</text>
<text text-anchor="start" x="8" y="-674.5" font-family="Helvetica,sans-Serif" font-size="10.00">+ Blob()</text>
<text text-anchor="start" x="8" y="-663.5" font-family="Helvetica,sans-Serif" font-size="10.00">+ Blob()</text>
<text text-anchor="start" x="8" y="-652.5" font-family="Helvetica,sans-Serif" font-size="10.00">+ Blob()</text>
<text text-anchor="start" x="8" y="-641.5" font-family="Helvetica,sans-Serif" font-size="10.00">+ operator=()</text>
<text text-anchor="start" x="8" y="-630.5" font-family="Helvetica,sans-Serif" font-size="10.00">+ operator=()</text>
<text text-anchor="start" x="8" y="-619.5" font-family="Helvetica,sans-Serif" font-size="10.00">+ reverse()</text>
<text text-anchor="start" x="8" y="-608.5" font-family="Helvetica,sans-Serif" font-size="10.00">+ operator~()</text>
<text text-anchor="start" x="8" y="-597.5" font-family="Helvetica,sans-Serif" font-size="10.00">+ asVector()</text>
<text text-anchor="start" x="8" y="-586.5" font-family="Helvetica,sans-Serif" font-size="10.00">and 9 more...</text>
<text text-anchor="start" x="8" y="-575.5" font-family="Helvetica,sans-Serif" font-size="10.00"># assign()</text>
<text text-anchor="start" x="8" y="-564.5" font-family="Helvetica,sans-Serif" font-size="10.00"># assign()</text>
</a>
</g>
</g>
<!-- Node4&#45;&gt;Node9 -->
<g id="edge10" class="edge">
<title>Node4&#45;&gt;Node9</title>
<path fill="none" stroke="orange" d="M137.6,-872.23C117.73,-854.55 98.01,-832.97 85.5,-809 80.69,-799.78 76.92,-789.78 73.99,-779.51"/>
<polygon fill="orange" stroke="orange" points="135.36,-874.92 145.21,-878.81 139.94,-869.62 135.36,-874.92"/>
<text text-anchor="middle" x="144" y="-801" font-family="Helvetica,sans-Serif" font-size="10.00"> &lt; SHA256_HASH_SIZE &gt;</text>
</g>
<!-- Node5 -->
<g id="node5" class="node">
<title>Node5</title>
<g id="a_node5"><a xlink:title=" ">
<polygon fill="white" stroke="#bfbfbf" points="153,-1064.5 153,-1121.5 284,-1121.5 284,-1064.5 153,-1064.5"/>
<text text-anchor="middle" x="218.5" y="-1109.5" font-family="Helvetica,sans-Serif" font-size="10.00">std::array&lt; value_type, N &gt;</text>
<polyline fill="none" stroke="#bfbfbf" points="153,-1102.5 284,-1102.5 "/>
<text text-anchor="start" x="161" y="-1090.5" font-family="Helvetica,sans-Serif" font-size="10.00">+ elements</text>
<polyline fill="none" stroke="#bfbfbf" points="153,-1083.5 284,-1083.5 "/>
<text text-anchor="middle" x="218.5" y="-1071.5" font-family="Helvetica,sans-Serif" font-size="10.00"> </text>
</a>
</g>
</g>
<!-- Node5&#45;&gt;Node4 -->
<g id="edge4" class="edge">
<title>Node5&#45;&gt;Node4</title>
<path fill="none" stroke="#404040" d="M216.38,-1064.47C215.59,-1054.23 214.65,-1041.9 213.64,-1028.84"/>
<polygon fill="none" stroke="#404040" points="213.63,-1028.65 209.18,-1022.98 212.71,-1016.69 217.16,-1022.36 213.63,-1028.65"/>
<text text-anchor="middle" x="231.5" y="-1038" font-family="Helvetica,sans-Serif" font-size="10.00"> #data_</text>
</g>
<!-- Node6 -->
<g id="node6" class="node">
<title>Node6</title>
<g id="a_node6"><a xlink:title=" ">
<polygon fill="white" stroke="#bfbfbf" points="200.5,-1169.5 200.5,-1226.5 278.5,-1226.5 278.5,-1169.5 200.5,-1169.5"/>
<text text-anchor="middle" x="239.5" y="-1214.5" font-family="Helvetica,sans-Serif" font-size="10.00">std::array&lt; T &gt;</text>
<polyline fill="none" stroke="#bfbfbf" points="200.5,-1207.5 278.5,-1207.5 "/>
<text text-anchor="middle" x="239.5" y="-1195.5" font-family="Helvetica,sans-Serif" font-size="10.00"> </text>
<polyline fill="none" stroke="#bfbfbf" points="200.5,-1188.5 278.5,-1188.5 "/>
<text text-anchor="middle" x="239.5" y="-1176.5" font-family="Helvetica,sans-Serif" font-size="10.00"> </text>
</a>
</g>
</g>
<!-- Node6&#45;&gt;Node5 -->
<g id="edge5" class="edge">
<title>Node6&#45;&gt;Node5</title>
<path fill="none" stroke="orange" d="M224.68,-1159.54C223.85,-1156.68 223.1,-1153.81 222.5,-1151 220.47,-1141.59 219.41,-1131.13 218.87,-1121.76"/>
<polygon fill="orange" stroke="orange" points="221.38,-1160.71 227.78,-1169.16 228.04,-1158.57 221.38,-1160.71"/>
<text text-anchor="middle" x="262" y="-1143" font-family="Helvetica,sans-Serif" font-size="10.00"> &lt; value_type, N &gt;</text>
</g>
<!-- Node7 -->
<g id="node7" class="node">
<title>Node7</title>
<g id="a_node7"><a xlink:title=" ">
<polygon fill="white" stroke="#bfbfbf" points="276,-1274.5 276,-1331.5 305,-1331.5 305,-1274.5 276,-1274.5"/>
<text text-anchor="middle" x="290.5" y="-1319.5" font-family="Helvetica,sans-Serif" font-size="10.00">T</text>
<polyline fill="none" stroke="#bfbfbf" points="276,-1312.5 305,-1312.5 "/>
<text text-anchor="middle" x="290.5" y="-1300.5" font-family="Helvetica,sans-Serif" font-size="10.00"> </text>
<polyline fill="none" stroke="#bfbfbf" points="276,-1293.5 305,-1293.5 "/>
<text text-anchor="middle" x="290.5" y="-1281.5" font-family="Helvetica,sans-Serif" font-size="10.00"> </text>
</a>
</g>
</g>
<!-- Node7&#45;&gt;Node6 -->
<g id="edge6" class="edge">
<title>Node7&#45;&gt;Node6</title>
<path fill="none" stroke="#404040" d="M275.73,-1281.52C270.51,-1273.76 264.86,-1264.69 260.5,-1256 257.67,-1250.37 255.02,-1244.27 252.62,-1238.22"/>
<polygon fill="none" stroke="#404040" points="252.54,-1238.01 246.69,-1233.81 248.32,-1226.78 254.18,-1230.99 252.54,-1238.01"/>
<text text-anchor="middle" x="285" y="-1248" font-family="Helvetica,sans-Serif" font-size="10.00"> +elements</text>
</g>
<!-- Node8 -->
<g id="node8" class="node">
<title>Node8</title>
<g id="a_node8"><a xlink:title=" ">
<polygon fill="white" stroke="#bfbfbf" points="316.5,-893.5 316.5,-950.5 400.5,-950.5 400.5,-893.5 316.5,-893.5"/>
<text text-anchor="middle" x="358.5" y="-938.5" font-family="Helvetica,sans-Serif" font-size="10.00">std::vector&lt; T &gt;</text>
<polyline fill="none" stroke="#bfbfbf" points="316.5,-931.5 400.5,-931.5 "/>
<text text-anchor="middle" x="358.5" y="-919.5" font-family="Helvetica,sans-Serif" font-size="10.00"> </text>
<polyline fill="none" stroke="#bfbfbf" points="316.5,-912.5 400.5,-912.5 "/>
<text text-anchor="middle" x="358.5" y="-900.5" font-family="Helvetica,sans-Serif" font-size="10.00"> </text>
</a>
</g>
</g>
<!-- Node7&#45;&gt;Node8 -->
<g id="edge8" class="edge">
<title>Node7&#45;&gt;Node8</title>
<path fill="none" stroke="#404040" d="M303.28,-1274.16C305.62,-1268.26 307.85,-1262 309.5,-1256 338.04,-1152.44 350.86,-1025.89 355.82,-962.78"/>
<polygon fill="none" stroke="#404040" points="355.83,-962.63 352.29,-956.35 356.73,-950.66 360.27,-956.95 355.83,-962.63"/>
<text text-anchor="middle" x="359" y="-1143" font-family="Helvetica,sans-Serif" font-size="10.00"> +elements</text>
</g>
<!-- Node8&#45;&gt;Node3 -->
<g id="edge7" class="edge">
<title>Node8&#45;&gt;Node3</title>
<path fill="none" stroke="orange" d="M329.01,-885.4C312.51,-864.19 292.51,-836.19 278.5,-809 260.67,-774.39 247.09,-731.7 239,-702.73"/>
<polygon fill="orange" stroke="orange" points="326.43,-887.78 335.37,-893.46 331.93,-883.44 326.43,-887.78"/>
<text text-anchor="middle" x="328" y="-801" font-family="Helvetica,sans-Serif" font-size="10.00"> &lt; altintegration::Blob &gt;</text>
</g>
<!-- Node13 -->
<g id="node13" class="node">
<title>Node13</title>
<g id="a_node13"><a xlink:title=" ">
<polygon fill="white" stroke="#bfbfbf" points="728,-640 728,-697 835,-697 835,-640 728,-640"/>
<text text-anchor="middle" x="781.5" y="-685" font-family="Helvetica,sans-Serif" font-size="10.00">std::vector&lt; uint8_t &gt;</text>
<polyline fill="none" stroke="#bfbfbf" points="728,-678 835,-678 "/>
<text text-anchor="start" x="736" y="-666" font-family="Helvetica,sans-Serif" font-size="10.00">+ elements</text>
<polyline fill="none" stroke="#bfbfbf" points="728,-659 835,-659 "/>
<text text-anchor="middle" x="781.5" y="-647" font-family="Helvetica,sans-Serif" font-size="10.00"> </text>
</a>
</g>
</g>
<!-- Node8&#45;&gt;Node13 -->
<g id="edge15" class="edge">
<title>Node8&#45;&gt;Node13</title>
<path fill="none" stroke="orange" d="M410.03,-901.28C470.7,-876.98 573.34,-832.41 653.5,-780 690.85,-755.58 728.97,-721.21 753.78,-697.3"/>
<polygon fill="orange" stroke="orange" points="408.66,-898.06 400.67,-905.01 411.25,-904.57 408.66,-898.06"/>
<text text-anchor="middle" x="648" y="-801" font-family="Helvetica,sans-Serif" font-size="10.00"> &lt; uint8_t &gt;</text>
</g>
<!-- Node16 -->
<g id="node16" class="node">
<title>Node16</title>
<g id="a_node16"><a xlink:title=" ">
<polygon fill="white" stroke="#bfbfbf" points="329,-381 329,-449 454,-449 454,-381 329,-381"/>
<text text-anchor="start" x="337" y="-437" font-family="Helvetica,sans-Serif" font-size="10.00">std::vector&lt; altintegration</text>
<text text-anchor="middle" x="391.5" y="-426" font-family="Helvetica,sans-Serif" font-size="10.00">::BtcBlock &gt;</text>
<polyline fill="none" stroke="#bfbfbf" points="329,-419 454,-419 "/>
<text text-anchor="middle" x="391.5" y="-407" font-family="Helvetica,sans-Serif" font-size="10.00"> </text>
<polyline fill="none" stroke="#bfbfbf" points="329,-400 454,-400 "/>
<text text-anchor="middle" x="391.5" y="-388" font-family="Helvetica,sans-Serif" font-size="10.00"> </text>
</a>
</g>
</g>
<!-- Node8&#45;&gt;Node16 -->
<g id="edge22" class="edge">
<title>Node8&#45;&gt;Node16</title>
<path fill="none" stroke="orange" d="M366.24,-882.98C370.31,-861.38 374.97,-833.79 377.5,-809 391.07,-676.22 392.08,-517.04 391.8,-449.23"/>
<polygon fill="orange" stroke="orange" points="362.75,-882.58 364.3,-893.06 369.62,-883.9 362.75,-882.58"/>
<text text-anchor="middle" x="451" y="-666" font-family="Helvetica,sans-Serif" font-size="10.00"> &lt; altintegration::BtcBlock &gt;</text>
</g>
<!-- Node9&#45;&gt;Node2 -->
<g id="edge9" class="edge">
<title>Node9&#45;&gt;Node2</title>
<path fill="none" stroke="#404040" d="M63.85,-557.3C64.44,-547.37 65.3,-537.49 66.5,-528 68.85,-509.49 73.19,-489.64 77.76,-471.87"/>
<polygon fill="none" stroke="#404040" points="77.77,-471.82 75.45,-465 80.86,-460.23 83.18,-467.06 77.77,-471.82"/>
<text text-anchor="middle" x="86.5" y="-531" font-family="Helvetica,sans-Serif" font-size="10.00"> +subject</text>
</g>
<!-- Node9&#45;&gt;Node14 -->
<g id="edge18" class="edge">
<title>Node9&#45;&gt;Node14</title>
<path fill="none" stroke="#404040" d="M102.19,-557.42C108.79,-546.62 116.5,-536.52 125.5,-528 142.34,-512.04 155.77,-523.69 174.5,-510 189.27,-499.2 202.56,-484.62 213.62,-470.17"/>
<polygon fill="none" stroke="#404040" points="213.82,-469.91 214.14,-462.71 220.92,-460.24 220.59,-467.44 213.82,-469.91"/>
<text text-anchor="middle" x="145.5" y="-531" font-family="Helvetica,sans-Serif" font-size="10.00"> +subject</text>
</g>
<!-- Node10 -->
<g id="node10" class="node">
<title>Node10</title>
<g id="a_node10"><a xlink:href="structaltintegration_1_1VbkPopTx.html" target="_top" xlink:title="Veriblock POP transaction, which endorses VBK block in BTC blockchain.">
<polygon fill="white" stroke="black" points="629.5,-182.5 629.5,-272.5 751.5,-272.5 751.5,-182.5 629.5,-182.5"/>
<text text-anchor="middle" x="690.5" y="-260.5" font-family="Helvetica,sans-Serif" font-size="10.00">altintegration::VbkPopTx</text>
<polyline fill="none" stroke="black" points="629.5,-253.5 751.5,-253.5 "/>
<text text-anchor="middle" x="690.5" y="-241.5" font-family="Helvetica,sans-Serif" font-size="10.00"> </text>
<polyline fill="none" stroke="black" points="629.5,-234.5 751.5,-234.5 "/>
<text text-anchor="start" x="637.5" y="-222.5" font-family="Helvetica,sans-Serif" font-size="10.00">+ toVbkEncoding()</text>
<text text-anchor="start" x="637.5" y="-211.5" font-family="Helvetica,sans-Serif" font-size="10.00">+ estimateSize()</text>
<text text-anchor="start" x="637.5" y="-200.5" font-family="Helvetica,sans-Serif" font-size="10.00">+ getHash()</text>
<text text-anchor="start" x="637.5" y="-189.5" font-family="Helvetica,sans-Serif" font-size="10.00">+ toPrettyString()</text>
</a>
</g>
</g>
<!-- Node10&#45;&gt;Node1 -->
<g id="edge11" class="edge">
<title>Node10&#45;&gt;Node1</title>
<path fill="none" stroke="#404040" d="M690.5,-182.49C690.5,-171.39 690.5,-159.15 690.5,-146.92"/>
<polygon fill="none" stroke="#404040" points="690.5,-146.74 686.5,-140.74 690.5,-134.74 694.5,-140.74 690.5,-146.74"/>
<text text-anchor="middle" x="719" y="-156" font-family="Helvetica,sans-Serif" font-size="10.00"> +transaction</text>
</g>
<!-- Node11 -->
<g id="node11" class="node">
<title>Node11</title>
<g id="a_node11"><a xlink:href="namespacealtintegration.html#structaltintegration_1_1NetworkBytePair" target="_top" xlink:title="Stores pair of TxType and VBK network byte.">
<polygon fill="white" stroke="black" points="937.5,-386.5 937.5,-443.5 1087.5,-443.5 1087.5,-386.5 937.5,-386.5"/>
<text text-anchor="middle" x="1012.5" y="-431.5" font-family="Helvetica,sans-Serif" font-size="10.00">altintegration::NetworkBytePair</text>
<polyline fill="none" stroke="black" points="937.5,-424.5 1087.5,-424.5 "/>
<text text-anchor="start" x="945.5" y="-412.5" font-family="Helvetica,sans-Serif" font-size="10.00">+ typeId</text>
<polyline fill="none" stroke="black" points="937.5,-405.5 1087.5,-405.5 "/>
<text text-anchor="middle" x="1012.5" y="-393.5" font-family="Helvetica,sans-Serif" font-size="10.00"> </text>
</a>
</g>
</g>
<!-- Node11&#45;&gt;Node10 -->
<g id="edge12" class="edge">
<title>Node11&#45;&gt;Node10</title>
<path fill="none" stroke="#404040" d="M988.88,-386.28C971.66,-366.79 947.27,-340.61 923.5,-320 906.63,-305.38 902.45,-301.01 882.5,-291 844.76,-272.06 800.02,-257.1 763.23,-246.58"/>
<polygon fill="none" stroke="#404040" points="763.14,-246.55 756.28,-248.79 751.58,-243.32 758.44,-241.08 763.14,-246.55"/>
<text text-anchor="middle" x="938" y="-294" font-family="Helvetica,sans-Serif" font-size="10.00"> +networkOrType</text>
</g>
<!-- Node12 -->
<g id="node12" class="node">
<title>Node12</title>
<g id="a_node12"><a xlink:href="structaltintegration_1_1VbkNetworkType.html" target="_top" xlink:title="works as optional&lt;uint8_t&gt;">
<polygon fill="white" stroke="black" points="936.5,-618 936.5,-719 1088.5,-719 1088.5,-618 936.5,-618"/>
<text text-anchor="middle" x="1012.5" y="-707" font-family="Helvetica,sans-Serif" font-size="10.00">altintegration::VbkNetworkType</text>
<polyline fill="none" stroke="black" points="936.5,-700 1088.5,-700 "/>
<text text-anchor="start" x="944.5" y="-688" font-family="Helvetica,sans-Serif" font-size="10.00">+ hasValue</text>
<text text-anchor="start" x="944.5" y="-677" font-family="Helvetica,sans-Serif" font-size="10.00">+ value</text>
<polyline fill="none" stroke="black" points="936.5,-670 1088.5,-670 "/>
<text text-anchor="start" x="944.5" y="-658" font-family="Helvetica,sans-Serif" font-size="10.00">+ operator bool()</text>
<text text-anchor="start" x="944.5" y="-647" font-family="Helvetica,sans-Serif" font-size="10.00">+ operator==()</text>
<text text-anchor="start" x="944.5" y="-636" font-family="Helvetica,sans-Serif" font-size="10.00">+ toPrettyString()</text>
<text text-anchor="start" x="944.5" y="-625" font-family="Helvetica,sans-Serif" font-size="10.00">+ putJson()</text>
</a>
</g>
</g>
<!-- Node12&#45;&gt;Node11 -->
<g id="edge13" class="edge">
<title>Node12&#45;&gt;Node11</title>
<path fill="none" stroke="#404040" d="M1012.5,-617.81C1012.5,-570.39 1012.5,-499.84 1012.5,-455.95"/>
<polygon fill="none" stroke="#404040" points="1012.5,-455.78 1008.5,-449.78 1012.5,-443.78 1016.5,-449.78 1012.5,-455.78"/>
<text text-anchor="middle" x="1044.5" y="-531" font-family="Helvetica,sans-Serif" font-size="10.00"> +networkType</text>
</g>
<!-- Node13&#45;&gt;Node10 -->
<g id="edge14" class="edge">
<title>Node13&#45;&gt;Node10</title>
<path fill="none" stroke="#404040" d="M795.67,-639.63C824.22,-579.56 882.57,-434.05 841.5,-320 829.1,-285.56 795.41,-263.34 762.99,-249.43"/>
<polygon fill="none" stroke="#404040" points="762.74,-249.34 755.69,-250.81 751.61,-244.86 758.67,-243.38 762.74,-249.34"/>
<text text-anchor="middle" x="881" y="-418" font-family="Helvetica,sans-Serif" font-size="10.00"> +publicKey</text>
<text text-anchor="middle" x="881" y="-407" font-family="Helvetica,sans-Serif" font-size="10.00">+signature</text>
</g>
<!-- Node18 -->
<g id="node18" class="node">
<title>Node18</title>
<g id="a_node18"><a xlink:href="structaltintegration_1_1BtcTx.html" target="_top" xlink:title="Bitcoin transaction representation.">
<polygon fill="white" stroke="black" points="730.5,-353.5 730.5,-476.5 832.5,-476.5 832.5,-353.5 730.5,-353.5"/>
<text text-anchor="middle" x="781.5" y="-464.5" font-family="Helvetica,sans-Serif" font-size="10.00">altintegration::BtcTx</text>
<polyline fill="none" stroke="black" points="730.5,-457.5 832.5,-457.5 "/>
<text text-anchor="middle" x="781.5" y="-445.5" font-family="Helvetica,sans-Serif" font-size="10.00"> </text>
<polyline fill="none" stroke="black" points="730.5,-438.5 832.5,-438.5 "/>
<text text-anchor="start" x="738.5" y="-426.5" font-family="Helvetica,sans-Serif" font-size="10.00">+ BtcTx()</text>
<text text-anchor="start" x="738.5" y="-415.5" font-family="Helvetica,sans-Serif" font-size="10.00">+ BtcTx()</text>
<text text-anchor="start" x="738.5" y="-404.5" font-family="Helvetica,sans-Serif" font-size="10.00">+ BtcTx()</text>
<text text-anchor="start" x="738.5" y="-393.5" font-family="Helvetica,sans-Serif" font-size="10.00">+ toVbkEncoding()</text>
<text text-anchor="start" x="738.5" y="-382.5" font-family="Helvetica,sans-Serif" font-size="10.00">+ toRaw()</text>
<text text-anchor="start" x="738.5" y="-371.5" font-family="Helvetica,sans-Serif" font-size="10.00">+ estimateSize()</text>
<text text-anchor="start" x="738.5" y="-360.5" font-family="Helvetica,sans-Serif" font-size="10.00">+ getHash()</text>
</a>
</g>
</g>
<!-- Node13&#45;&gt;Node18 -->
<g id="edge25" class="edge">
<title>Node13&#45;&gt;Node18</title>
<path fill="none" stroke="#404040" d="M781.5,-639.62C781.5,-603.53 781.5,-539.28 781.5,-488.88"/>
<polygon fill="none" stroke="#404040" points="781.5,-488.72 777.5,-482.72 781.5,-476.72 785.5,-482.72 781.5,-488.72"/>
<text text-anchor="middle" x="789.5" y="-531" font-family="Helvetica,sans-Serif" font-size="10.00"> +tx</text>
</g>
<!-- Node14&#45;&gt;Node10 -->
<g id="edge16" class="edge">
<title>Node14&#45;&gt;Node10</title>
<path fill="none" stroke="#404040" d="M258.72,-369.74C267.89,-342.77 283.67,-309.96 309.5,-291 357.24,-255.96 520.58,-239.51 617.2,-232.69"/>
<polygon fill="none" stroke="#404040" points="617.25,-232.69 622.96,-228.28 629.22,-231.87 623.51,-236.27 617.25,-232.69"/>
<text text-anchor="middle" x="338.5" y="-294" font-family="Helvetica,sans-Serif" font-size="10.00"> +merklePath</text>
</g>
<!-- Node15 -->
<g id="node15" class="node">
<title>Node15</title>
<g id="a_node15"><a xlink:href="structaltintegration_1_1BtcBlock.html" target="_top" xlink:title="Bitcoin block.">
<polygon fill="white" stroke="black" points="528.5,-579.5 528.5,-757.5 644.5,-757.5 644.5,-579.5 528.5,-579.5"/>
<text text-anchor="middle" x="586.5" y="-745.5" font-family="Helvetica,sans-Serif" font-size="10.00">altintegration::BtcBlock</text>
<polyline fill="none" stroke="black" points="528.5,-738.5 644.5,-738.5 "/>
<text text-anchor="middle" x="586.5" y="-726.5" font-family="Helvetica,sans-Serif" font-size="10.00"> </text>
<polyline fill="none" stroke="black" points="528.5,-719.5 644.5,-719.5 "/>
<text text-anchor="start" x="536.5" y="-707.5" font-family="Helvetica,sans-Serif" font-size="10.00">+ BtcBlock()</text>
<text text-anchor="start" x="536.5" y="-696.5" font-family="Helvetica,sans-Serif" font-size="10.00">+ BtcBlock()</text>
<text text-anchor="start" x="536.5" y="-685.5" font-family="Helvetica,sans-Serif" font-size="10.00">+ toRaw()</text>
<text text-anchor="start" x="536.5" y="-674.5" font-family="Helvetica,sans-Serif" font-size="10.00">+ toVbkEncoding()</text>
<text text-anchor="start" x="536.5" y="-663.5" font-family="Helvetica,sans-Serif" font-size="10.00">+ estimateSize()</text>
<text text-anchor="start" x="536.5" y="-652.5" font-family="Helvetica,sans-Serif" font-size="10.00">+ calculateHash()</text>
<text text-anchor="start" x="536.5" y="-641.5" font-family="Helvetica,sans-Serif" font-size="10.00">+ getHash()</text>
<text text-anchor="start" x="536.5" y="-630.5" font-family="Helvetica,sans-Serif" font-size="10.00">+ toPrettyString()</text>
<text text-anchor="start" x="536.5" y="-619.5" font-family="Helvetica,sans-Serif" font-size="10.00">+ getVersion()</text>
<text text-anchor="start" x="536.5" y="-608.5" font-family="Helvetica,sans-Serif" font-size="10.00">+ getPreviousBlock()</text>
<text text-anchor="start" x="536.5" y="-597.5" font-family="Helvetica,sans-Serif" font-size="10.00">and 10 more...</text>
<text text-anchor="start" x="536.5" y="-586.5" font-family="Helvetica,sans-Serif" font-size="10.00">+ name()</text>
</a>
</g>
</g>
<!-- Node15&#45;&gt;Node10 -->
<g id="edge19" class="edge">
<title>Node15&#45;&gt;Node10</title>
<path fill="none" stroke="#404040" d="M528.94,-579.44C488.46,-505.38 449.62,-399.2 499.5,-320 525.38,-278.91 575.4,-255.86 617.76,-243.18"/>
<polygon fill="none" stroke="#404040" points="617.93,-243.13 622.62,-237.65 629.48,-239.87 624.79,-245.35 617.93,-243.13"/>
<text text-anchor="middle" x="532.5" y="-412.5" font-family="Helvetica,sans-Serif" font-size="10.00"> +blockOfProof</text>
</g>
<!-- Node15&#45;&gt;Node16 -->
<g id="edge21" class="edge">
<title>Node15&#45;&gt;Node16</title>
<path fill="none" stroke="#404040" d="M539.13,-579.46C531.78,-570.95 523.58,-563.19 514.5,-557 481.88,-534.75 456.52,-565.77 427.5,-539 406.04,-519.2 397.12,-487.39 393.52,-461.07"/>
<polygon fill="none" stroke="#404040" points="393.51,-460.98 388.88,-455.46 392.19,-449.05 396.83,-454.57 393.51,-460.98"/>
<text text-anchor="middle" x="452" y="-531" font-family="Helvetica,sans-Serif" font-size="10.00"> +elements</text>
</g>
<!-- Node16&#45;&gt;Node10 -->
<g id="edge20" class="edge">
<title>Node16&#45;&gt;Node10</title>
<path fill="none" stroke="#404040" d="M375.67,-380.75C365.32,-353.62 357.13,-315.84 377.5,-291 407.23,-254.74 534.46,-239.11 617.27,-232.68"/>
<polygon fill="none" stroke="#404040" points="617.43,-232.66 623.12,-228.23 629.4,-231.77 623.71,-236.21 617.43,-232.66"/>
<text text-anchor="middle" x="427" y="-294" font-family="Helvetica,sans-Serif" font-size="10.00"> +blockOfProofContext</text>
</g>
<!-- Node17 -->
<g id="node17" class="node">
<title>Node17</title>
<g id="a_node17"><a xlink:href="structaltintegration_1_1Address.html" target="_top" xlink:title="Represents address on VBK chain.">
<polygon fill="white" stroke="black" points="575,-320.5 575,-509.5 712,-509.5 712,-320.5 575,-320.5"/>
<text text-anchor="middle" x="643.5" y="-497.5" font-family="Helvetica,sans-Serif" font-size="10.00">altintegration::Address</text>
<polyline fill="none" stroke="black" points="575,-490.5 712,-490.5 "/>
<text text-anchor="middle" x="643.5" y="-478.5" font-family="Helvetica,sans-Serif" font-size="10.00"> </text>
<polyline fill="none" stroke="black" points="575,-471.5 712,-471.5 "/>
<text text-anchor="start" x="583" y="-459.5" font-family="Helvetica,sans-Serif" font-size="10.00">+ Address()</text>
<text text-anchor="start" x="583" y="-448.5" font-family="Helvetica,sans-Serif" font-size="10.00">+ operator==()</text>
<text text-anchor="start" x="583" y="-437.5" font-family="Helvetica,sans-Serif" font-size="10.00">+ operator!=()</text>
<text text-anchor="start" x="583" y="-426.5" font-family="Helvetica,sans-Serif" font-size="10.00">+ operator==()</text>
<text text-anchor="start" x="583" y="-415.5" font-family="Helvetica,sans-Serif" font-size="10.00">+ getType()</text>
<text text-anchor="start" x="583" y="-404.5" font-family="Helvetica,sans-Serif" font-size="10.00">+ getPopBytes()</text>
<text text-anchor="start" x="583" y="-393.5" font-family="Helvetica,sans-Serif" font-size="10.00">+ isDerivedFromPublicKey()</text>
<text text-anchor="start" x="583" y="-382.5" font-family="Helvetica,sans-Serif" font-size="10.00">+ fromString()</text>
<text text-anchor="start" x="583" y="-371.5" font-family="Helvetica,sans-Serif" font-size="10.00">+ toString()</text>
<text text-anchor="start" x="583" y="-360.5" font-family="Helvetica,sans-Serif" font-size="10.00">+ toVbkEncoding()</text>
<text text-anchor="start" x="583" y="-349.5" font-family="Helvetica,sans-Serif" font-size="10.00">+ estimateSize()</text>
<text text-anchor="start" x="583" y="-338.5" font-family="Helvetica,sans-Serif" font-size="10.00">+ fromPublicKey()</text>
<text text-anchor="start" x="583" y="-327.5" font-family="Helvetica,sans-Serif" font-size="10.00">+ assertFromString()</text>
</a>
</g>
</g>
<!-- Node17&#45;&gt;Node10 -->
<g id="edge23" class="edge">
<title>Node17&#45;&gt;Node10</title>
<path fill="none" stroke="#404040" d="M665.11,-320.2C667.54,-310.32 670.03,-300.45 672.5,-291 673.05,-288.88 673.63,-286.72 674.22,-284.54"/>
<polygon fill="none" stroke="#404040" points="674.26,-284.38 672,-277.53 677.45,-272.81 679.71,-279.66 674.26,-284.38"/>
<text text-anchor="middle" x="694" y="-294" font-family="Helvetica,sans-Serif" font-size="10.00"> +address</text>
</g>
<!-- Node18&#45;&gt;Node10 -->
<g id="edge24" class="edge">
<title>Node18&#45;&gt;Node10</title>
<path fill="none" stroke="#404040" d="M751.7,-353.26C740.66,-330.75 728.21,-305.38 717.44,-283.42"/>
<polygon fill="none" stroke="#404040" points="717.42,-283.39 711.19,-279.76 712.14,-272.61 718.37,-276.24 717.42,-283.39"/>
<text text-anchor="middle" x="769.5" y="-294" font-family="Helvetica,sans-Serif" font-size="10.00"> +bitcoinTransaction</text>
</g>
<!-- Node19 -->
<g id="node19" class="node">
<title>Node19</title>
<g id="a_node19"><a xlink:href="structaltintegration_1_1VbkBlock.html" target="_top" xlink:title="Veriblock block.">
<polygon fill="white" stroke="black" points="1106,-326 1106,-504 1225,-504 1225,-326 1106,-326"/>
<text text-anchor="middle" x="1165.5" y="-492" font-family="Helvetica,sans-Serif" font-size="10.00">altintegration::VbkBlock</text>
<polyline fill="none" stroke="black" points="1106,-485 1225,-485 "/>
<text text-anchor="middle" x="1165.5" y="-473" font-family="Helvetica,sans-Serif" font-size="10.00"> </text>
<polyline fill="none" stroke="black" points="1106,-466 1225,-466 "/>
<text text-anchor="start" x="1114" y="-454" font-family="Helvetica,sans-Serif" font-size="10.00">+ toPrettyString()</text>
<text text-anchor="start" x="1114" y="-443" font-family="Helvetica,sans-Serif" font-size="10.00">+ toShortPrettyString()</text>
<text text-anchor="start" x="1114" y="-432" font-family="Helvetica,sans-Serif" font-size="10.00">+ toRaw()</text>
<text text-anchor="start" x="1114" y="-421" font-family="Helvetica,sans-Serif" font-size="10.00">+ toVbkEncoding()</text>
<text text-anchor="start" x="1114" y="-410" font-family="Helvetica,sans-Serif" font-size="10.00">+ toRaw()</text>
<text text-anchor="start" x="1114" y="-399" font-family="Helvetica,sans-Serif" font-size="10.00">+ toVbkEncoding()</text>
<text text-anchor="start" x="1114" y="-388" font-family="Helvetica,sans-Serif" font-size="10.00">+ estimateSize()</text>
<text text-anchor="start" x="1114" y="-377" font-family="Helvetica,sans-Serif" font-size="10.00">+ getBlockTime()</text>
<text text-anchor="start" x="1114" y="-366" font-family="Helvetica,sans-Serif" font-size="10.00">+ calculateHash()</text>
<text text-anchor="start" x="1114" y="-355" font-family="Helvetica,sans-Serif" font-size="10.00">+ getHash()</text>
<text text-anchor="start" x="1114" y="-344" font-family="Helvetica,sans-Serif" font-size="10.00">and 22 more...</text>
<text text-anchor="start" x="1114" y="-333" font-family="Helvetica,sans-Serif" font-size="10.00">+ name()</text>
</a>
</g>
</g>
<!-- Node19&#45;&gt;Node1 -->
<g id="edge27" class="edge">
<title>Node19&#45;&gt;Node1</title>
<path fill="none" stroke="#404040" d="M1149.38,-325.84C1144.43,-313.28 1137.96,-301.18 1129.5,-291 1031.62,-173.17 855.54,-111.26 758.79,-84.73"/>
<polygon fill="none" stroke="#404040" points="758.7,-84.7 751.86,-87.01 747.11,-81.59 753.94,-79.28 758.7,-84.7"/>
<text text-anchor="middle" x="1148.5" y="-225" font-family="Helvetica,sans-Serif" font-size="10.00"> +containingBlock</text>
</g>
<!-- Node19&#45;&gt;Node10 -->
<g id="edge26" class="edge">
<title>Node19&#45;&gt;Node10</title>
<path fill="none" stroke="#404040" d="M1105.8,-326.98C1102.8,-324.48 1099.7,-322.14 1096.5,-320 1042.71,-283.96 865.26,-253.54 763.65,-238.53"/>
<polygon fill="none" stroke="#404040" points="763.52,-238.51 757.01,-241.6 751.65,-236.78 758.16,-233.69 763.52,-238.51"/>
<text text-anchor="middle" x="1088" y="-294" font-family="Helvetica,sans-Serif" font-size="10.00"> +publishedBlock</text>
</g>
</g>
</svg>
