<?xml version="1.0" encoding="UTF-8" standalone="no"?>
<!DOCTYPE svg PUBLIC "-//W3C//DTD SVG 1.1//EN"
 "http://www.w3.org/Graphics/SVG/1.1/DTD/svg11.dtd">
<!-- Generated by graphviz version 2.44.0 ()
 -->
<!-- Title: altintegration::BaseBlockTree&lt; Block &gt; Pages: 1 -->
<svg width="998pt" height="1158pt"
 viewBox="0.00 0.00 997.50 1158.00" xmlns="http://www.w3.org/2000/svg" xmlns:xlink="http://www.w3.org/1999/xlink">
<g id="graph0" class="graph" transform="scale(1 1) rotate(0) translate(4 1154)">
<title>altintegration::BaseBlockTree&lt; Block &gt;</title>
<polygon fill="white" stroke="transparent" points="-4,4 -4,-1154 993.5,-1154 993.5,4 -4,4"/>
<!-- Node1 -->
<g id="node1" class="node">
<title>Node1</title>
<g id="a_node1"><a xlink:title="Base block tree that stores all blocks, maintains tree tips, maintains active chain.">
<polygon fill="#bfbfbf" stroke="black" points="223,-0.5 223,-244.5 375,-244.5 375,-0.5 223,-0.5"/>
<text text-anchor="start" x="231" y="-232.5" font-family="Helvetica,sans-Serif" font-size="10.00">altintegration::BaseBlock</text>
<text text-anchor="middle" x="299" y="-221.5" font-family="Helvetica,sans-Serif" font-size="10.00">Tree&lt; Block &gt;</text>
<polyline fill="none" stroke="black" points="223,-214.5 375,-214.5 "/>
<text text-anchor="start" x="231" y="-202.5" font-family="Helvetica,sans-Serif" font-size="10.00"># validity_sig_</text>
<polyline fill="none" stroke="black" points="223,-195.5 375,-195.5 "/>
<text text-anchor="start" x="231" y="-183.5" font-family="Helvetica,sans-Serif" font-size="10.00">+ getTips()</text>
<text text-anchor="start" x="231" y="-172.5" font-family="Helvetica,sans-Serif" font-size="10.00">+ getBlocks()</text>
<text text-anchor="start" x="231" y="-161.5" font-family="Helvetica,sans-Serif" font-size="10.00">+ getAllBlocks()</text>
<text text-anchor="start" x="231" y="-150.5" font-family="Helvetica,sans-Serif" font-size="10.00">+ getBlockProvider()</text>
<text text-anchor="start" x="231" y="-139.5" font-family="Helvetica,sans-Serif" font-size="10.00">+ ~BaseBlockTree()</text>
<text text-anchor="start" x="231" y="-128.5" font-family="Helvetica,sans-Serif" font-size="10.00">+ BaseBlockTree()</text>
<text text-anchor="start" x="231" y="-117.5" font-family="Helvetica,sans-Serif" font-size="10.00">+ BaseBlockTree()</text>
<text text-anchor="start" x="231" y="-106.5" font-family="Helvetica,sans-Serif" font-size="10.00">+ operator=()</text>
<text text-anchor="start" x="231" y="-95.5" font-family="Helvetica,sans-Serif" font-size="10.00">+ BaseBlockTree()</text>
<text text-anchor="start" x="231" y="-84.5" font-family="Helvetica,sans-Serif" font-size="10.00">+ operator=()</text>
<text text-anchor="start" x="231" y="-73.5" font-family="Helvetica,sans-Serif" font-size="10.00">and 26 more...</text>
<text text-anchor="start" x="231" y="-62.5" font-family="Helvetica,sans-Serif" font-size="10.00"># eraseBlock()</text>
<text text-anchor="start" x="231" y="-51.5" font-family="Helvetica,sans-Serif" font-size="10.00"># toPrettyString()</text>
<text text-anchor="start" x="231" y="-40.5" font-family="Helvetica,sans-Serif" font-size="10.00"># decreaseAppliedBlockCount()</text>
<text text-anchor="start" x="231" y="-29.5" font-family="Helvetica,sans-Serif" font-size="10.00"># increaseAppliedBlockCount()</text>
<text text-anchor="start" x="231" y="-18.5" font-family="Helvetica,sans-Serif" font-size="10.00"># decreaseAppliedBlockCount()</text>
<text text-anchor="start" x="231" y="-7.5" font-family="Helvetica,sans-Serif" font-size="10.00"># increaseAppliedBlockCount()</text>
</a>
</g>
</g>
<!-- Node2 -->
<g id="node2" class="node">
<title>Node2</title>
<g id="a_node2"><a xlink:href="structaltintegration_1_1BlockReader.html" target="_top" xlink:title="An abstraction over on&#45;disk storage iterator.">
<polygon fill="white" stroke="black" points="0,-298 0,-465 132,-465 132,-298 0,-298"/>
<text text-anchor="middle" x="66" y="-453" font-family="Helvetica,sans-Serif" font-size="10.00">altintegration::BlockReader</text>
<polyline fill="none" stroke="black" points="0,-446 132,-446 "/>
<text text-anchor="middle" x="66" y="-434" font-family="Helvetica,sans-Serif" font-size="10.00"> </text>
<polyline fill="none" stroke="black" points="0,-427 132,-427 "/>
<text text-anchor="start" x="8" y="-415" font-family="Helvetica,sans-Serif" font-size="10.00">+ ~BlockReader()</text>
<text text-anchor="start" x="8" y="-404" font-family="Helvetica,sans-Serif" font-size="10.00">+ getAltTip()</text>
<text text-anchor="start" x="8" y="-393" font-family="Helvetica,sans-Serif" font-size="10.00">+ getVbkTip()</text>
<text text-anchor="start" x="8" y="-382" font-family="Helvetica,sans-Serif" font-size="10.00">+ getBtcTip()</text>
<text text-anchor="start" x="8" y="-371" font-family="Helvetica,sans-Serif" font-size="10.00">+ getBlock()</text>
<text text-anchor="start" x="8" y="-360" font-family="Helvetica,sans-Serif" font-size="10.00">+ getBlock()</text>
<text text-anchor="start" x="8" y="-349" font-family="Helvetica,sans-Serif" font-size="10.00">+ getBlock()</text>
<text text-anchor="start" x="8" y="-338" font-family="Helvetica,sans-Serif" font-size="10.00">+ getAltBlockIterator()</text>
<text text-anchor="start" x="8" y="-327" font-family="Helvetica,sans-Serif" font-size="10.00">+ getVbkBlockIterator()</text>
<text text-anchor="start" x="8" y="-316" font-family="Helvetica,sans-Serif" font-size="10.00">+ getBtcBlockIterator()</text>
<text text-anchor="start" x="8" y="-305" font-family="Helvetica,sans-Serif" font-size="10.00">and 6 more...</text>
</a>
</g>
</g>
<!-- Node2&#45;&gt;Node1 -->
<g id="edge1" class="edge">
<title>Node2&#45;&gt;Node1</title>
<path fill="none" stroke="#404040" d="M132.04,-302.14C135.06,-298.7 138.05,-295.31 141,-292 164.4,-265.76 190.3,-237.73 214.24,-212.22"/>
<polygon fill="none" stroke="#404040" points="214.4,-212.05 215.6,-204.94 222.62,-203.3 221.43,-210.42 214.4,-212.05"/>
<text text-anchor="middle" x="203.5" y="-266" font-family="Helvetica,sans-Serif" font-size="10.00"> #blockProvider_</text>
</g>
<!-- Node3 -->
<g id="node3" class="node">
<title>Node3</title>
<g id="a_node3"><a xlink:href="structaltintegration_1_1Chain.html" target="_top" xlink:title=" ">
<polygon fill="white" stroke="black" points="150.5,-292.5 150.5,-470.5 291.5,-470.5 291.5,-292.5 150.5,-292.5"/>
<text text-anchor="start" x="158.5" y="-458.5" font-family="Helvetica,sans-Serif" font-size="10.00">altintegration::Chain</text>
<text text-anchor="middle" x="221" y="-447.5" font-family="Helvetica,sans-Serif" font-size="10.00">&lt; altintegration::BlockIndex &gt;</text>
<polyline fill="none" stroke="black" points="150.5,-440.5 291.5,-440.5 "/>
<text text-anchor="middle" x="221" y="-428.5" font-family="Helvetica,sans-Serif" font-size="10.00"> </text>
<polyline fill="none" stroke="black" points="150.5,-421.5 291.5,-421.5 "/>
<text text-anchor="start" x="158.5" y="-409.5" font-family="Helvetica,sans-Serif" font-size="10.00">+ Chain()</text>
<text text-anchor="start" x="158.5" y="-398.5" font-family="Helvetica,sans-Serif" font-size="10.00">+ Chain()</text>
<text text-anchor="start" x="158.5" y="-387.5" font-family="Helvetica,sans-Serif" font-size="10.00">+ Chain()</text>
<text text-anchor="start" x="158.5" y="-376.5" font-family="Helvetica,sans-Serif" font-size="10.00">+ getStartHeight()</text>
<text text-anchor="start" x="158.5" y="-365.5" font-family="Helvetica,sans-Serif" font-size="10.00">+ firstHeight()</text>
<text text-anchor="start" x="158.5" y="-354.5" font-family="Helvetica,sans-Serif" font-size="10.00">+ contains()</text>
<text text-anchor="start" x="158.5" y="-343.5" font-family="Helvetica,sans-Serif" font-size="10.00">+ operator[]()</text>
<text text-anchor="start" x="158.5" y="-332.5" font-family="Helvetica,sans-Serif" font-size="10.00">+ next()</text>
<text text-anchor="start" x="158.5" y="-321.5" font-family="Helvetica,sans-Serif" font-size="10.00">+ chainHeight()</text>
<text text-anchor="start" x="158.5" y="-310.5" font-family="Helvetica,sans-Serif" font-size="10.00">+ empty()</text>
<text text-anchor="start" x="158.5" y="-299.5" font-family="Helvetica,sans-Serif" font-size="10.00">and 15 more...</text>
</a>
</g>
</g>
<!-- Node3&#45;&gt;Node1 -->
<g id="edge2" class="edge">
<title>Node3&#45;&gt;Node1</title>
<path fill="none" stroke="#404040" d="M247.73,-292.41C251.28,-280.74 254.97,-268.58 258.68,-256.36"/>
<polygon fill="none" stroke="#404040" points="258.75,-256.12 256.66,-249.22 262.23,-244.64 264.32,-251.54 258.75,-256.12"/>
<text text-anchor="middle" x="288" y="-266" font-family="Helvetica,sans-Serif" font-size="10.00"> #activeChain_</text>
</g>
<!-- Node4 -->
<g id="node4" class="node">
<title>Node4</title>
<g id="a_node4"><a xlink:href="structaltintegration_1_1Chain.html" target="_top" xlink:title="Fully in&#45;memory chain representation.">
<polygon fill="white" stroke="black" points="169.5,-546 169.5,-724 270.5,-724 270.5,-546 169.5,-546"/>
<text text-anchor="start" x="177.5" y="-712" font-family="Helvetica,sans-Serif" font-size="10.00">altintegration::Chain</text>
<text text-anchor="middle" x="220" y="-701" font-family="Helvetica,sans-Serif" font-size="10.00">&lt; BlockIndexT &gt;</text>
<polyline fill="none" stroke="black" points="169.5,-694 270.5,-694 "/>
<text text-anchor="middle" x="220" y="-682" font-family="Helvetica,sans-Serif" font-size="10.00"> </text>
<polyline fill="none" stroke="black" points="169.5,-675 270.5,-675 "/>
<text text-anchor="start" x="177.5" y="-663" font-family="Helvetica,sans-Serif" font-size="10.00">+ Chain()</text>
<text text-anchor="start" x="177.5" y="-652" font-family="Helvetica,sans-Serif" font-size="10.00">+ Chain()</text>
<text text-anchor="start" x="177.5" y="-641" font-family="Helvetica,sans-Serif" font-size="10.00">+ Chain()</text>
<text text-anchor="start" x="177.5" y="-630" font-family="Helvetica,sans-Serif" font-size="10.00">+ getStartHeight()</text>
<text text-anchor="start" x="177.5" y="-619" font-family="Helvetica,sans-Serif" font-size="10.00">+ firstHeight()</text>
<text text-anchor="start" x="177.5" y="-608" font-family="Helvetica,sans-Serif" font-size="10.00">+ contains()</text>
<text text-anchor="start" x="177.5" y="-597" font-family="Helvetica,sans-Serif" font-size="10.00">+ operator[]()</text>
<text text-anchor="start" x="177.5" y="-586" font-family="Helvetica,sans-Serif" font-size="10.00">+ next()</text>
<text text-anchor="start" x="177.5" y="-575" font-family="Helvetica,sans-Serif" font-size="10.00">+ chainHeight()</text>
<text text-anchor="start" x="177.5" y="-564" font-family="Helvetica,sans-Serif" font-size="10.00">+ empty()</text>
<text text-anchor="start" x="177.5" y="-553" font-family="Helvetica,sans-Serif" font-size="10.00">and 15 more...</text>
</a>
</g>
</g>
<!-- Node4&#45;&gt;Node3 -->
<g id="edge3" class="edge">
<title>Node4&#45;&gt;Node3</title>
<path fill="none" stroke="orange" d="M220.39,-535.59C220.48,-514.16 220.57,-491.61 220.65,-470.6"/>
<polygon fill="orange" stroke="orange" points="216.89,-535.67 220.35,-545.68 223.89,-535.7 216.89,-535.67"/>
<text text-anchor="middle" x="284.5" y="-497.5" font-family="Helvetica,sans-Serif" font-size="10.00"> &lt; altintegration::BlockIndex &gt;</text>
</g>
<!-- Node5 -->
<g id="node5" class="node">
<title>Node5</title>
<g id="a_node5"><a xlink:title=" ">
<polygon fill="white" stroke="#bfbfbf" points="309.5,-342 309.5,-421 446.5,-421 446.5,-342 309.5,-342"/>
<text text-anchor="start" x="317.5" y="-409" font-family="Helvetica,sans-Serif" font-size="10.00">std::unordered_map</text>
<text text-anchor="start" x="317.5" y="-398" font-family="Helvetica,sans-Serif" font-size="10.00">&lt; prev_block_hash_t,</text>
<text text-anchor="middle" x="378" y="-387" font-family="Helvetica,sans-Serif" font-size="10.00"> std::unique_ptr&lt; index_t &gt; &gt;</text>
<polyline fill="none" stroke="#bfbfbf" points="309.5,-380 446.5,-380 "/>
<text text-anchor="start" x="317.5" y="-368" font-family="Helvetica,sans-Serif" font-size="10.00">+ keys</text>
<polyline fill="none" stroke="#bfbfbf" points="309.5,-361 446.5,-361 "/>
<text text-anchor="middle" x="378" y="-349" font-family="Helvetica,sans-Serif" font-size="10.00"> </text>
</a>
</g>
</g>
<!-- Node5&#45;&gt;Node1 -->
<g id="edge4" class="edge">
<title>Node5&#45;&gt;Node1</title>
<path fill="none" stroke="#404040" d="M366.09,-341.75C358.95,-318.52 349.4,-287.47 339.76,-256.1"/>
<polygon fill="none" stroke="#404040" points="339.73,-256.01 334.15,-251.45 336.21,-244.54 341.79,-249.1 339.73,-256.01"/>
<text text-anchor="middle" x="365" y="-266" font-family="Helvetica,sans-Serif" font-size="10.00"> #blocks_</text>
</g>
<!-- Node6 -->
<g id="node6" class="node">
<title>Node6</title>
<g id="a_node6"><a xlink:title=" ">
<polygon fill="white" stroke="#bfbfbf" points="318.5,-759.5 318.5,-816.5 445.5,-816.5 445.5,-759.5 318.5,-759.5"/>
<text text-anchor="middle" x="382" y="-804.5" font-family="Helvetica,sans-Serif" font-size="10.00">std::unique_ptr&lt; index_t &gt;</text>
<polyline fill="none" stroke="#bfbfbf" points="318.5,-797.5 445.5,-797.5 "/>
<text text-anchor="start" x="326.5" y="-785.5" font-family="Helvetica,sans-Serif" font-size="10.00">+ ptr</text>
<polyline fill="none" stroke="#bfbfbf" points="318.5,-778.5 445.5,-778.5 "/>
<text text-anchor="start" x="326.5" y="-766.5" font-family="Helvetica,sans-Serif" font-size="10.00">+ operator&#45;&gt;()</text>
</a>
</g>
</g>
<!-- Node6&#45;&gt;Node5 -->
<g id="edge5" class="edge">
<title>Node6&#45;&gt;Node5</title>
<path fill="none" stroke="#404040" d="M374.3,-759.46C372.93,-753.42 371.71,-747.03 371,-741 358.15,-632.02 366.32,-503.14 372.65,-433.44"/>
<polygon fill="none" stroke="#404040" points="372.68,-433.08 369.26,-426.73 373.8,-421.13 377.23,-427.48 372.68,-433.08"/>
<text text-anchor="middle" x="395.5" y="-632.5" font-family="Helvetica,sans-Serif" font-size="10.00"> +elements</text>
</g>
<!-- Node7 -->
<g id="node7" class="node">
<title>Node7</title>
<g id="a_node7"><a xlink:title=" ">
<polygon fill="white" stroke="#bfbfbf" points="348,-911.5 348,-968.5 450,-968.5 450,-911.5 348,-911.5"/>
<text text-anchor="middle" x="399" y="-956.5" font-family="Helvetica,sans-Serif" font-size="10.00">std::unique_ptr&lt; T &gt;</text>
<polyline fill="none" stroke="#bfbfbf" points="348,-949.5 450,-949.5 "/>
<text text-anchor="middle" x="399" y="-937.5" font-family="Helvetica,sans-Serif" font-size="10.00"> </text>
<polyline fill="none" stroke="#bfbfbf" points="348,-930.5 450,-930.5 "/>
<text text-anchor="start" x="356" y="-918.5" font-family="Helvetica,sans-Serif" font-size="10.00">+ operator&#45;&gt;()</text>
</a>
</g>
</g>
<!-- Node7&#45;&gt;Node6 -->
<g id="edge6" class="edge">
<title>Node7&#45;&gt;Node6</title>
<path fill="none" stroke="orange" d="M394.75,-901.47C391.76,-875.11 387.83,-840.43 385.13,-816.59"/>
<polygon fill="orange" stroke="orange" points="391.28,-901.95 395.88,-911.49 398.23,-901.16 391.28,-901.95"/>
<text text-anchor="middle" x="419" y="-861.5" font-family="Helvetica,sans-Serif" font-size="10.00"> &lt; index_t &gt;</text>
</g>
<!-- Node8 -->
<g id="node8" class="node">
<title>Node8</title>
<g id="a_node8"><a xlink:title=" ">
<polygon fill="white" stroke="#bfbfbf" points="465.5,-1092.5 465.5,-1149.5 494.5,-1149.5 494.5,-1092.5 465.5,-1092.5"/>
<text text-anchor="middle" x="480" y="-1137.5" font-family="Helvetica,sans-Serif" font-size="10.00">T</text>
<polyline fill="none" stroke="#bfbfbf" points="465.5,-1130.5 494.5,-1130.5 "/>
<text text-anchor="middle" x="480" y="-1118.5" font-family="Helvetica,sans-Serif" font-size="10.00"> </text>
<polyline fill="none" stroke="#bfbfbf" points="465.5,-1111.5 494.5,-1111.5 "/>
<text text-anchor="middle" x="480" y="-1099.5" font-family="Helvetica,sans-Serif" font-size="10.00"> </text>
</a>
</g>
</g>
<!-- Node8&#45;&gt;Node7 -->
<g id="edge7" class="edge">
<title>Node8&#45;&gt;Node7</title>
<path fill="none" stroke="#404040" d="M465.46,-1102.9C458.89,-1094.57 451.4,-1084.17 446,-1074 430.12,-1044.08 417.68,-1007.67 409.59,-980.51"/>
<polygon fill="none" stroke="#404040" points="409.52,-980.27 404.02,-975.62 406.19,-968.74 411.7,-973.39 409.52,-980.27"/>
<text text-anchor="middle" x="456" y="-1066" font-family="Helvetica,sans-Serif" font-size="10.00"> +ptr</text>
</g>
<!-- Node9 -->
<g id="node9" class="node">
<title>Node9</title>
<g id="a_node9"><a xlink:title=" ">
<polygon fill="white" stroke="#bfbfbf" points="429.5,-601 429.5,-669 530.5,-669 530.5,-601 429.5,-601"/>
<text text-anchor="start" x="437.5" y="-657" font-family="Helvetica,sans-Serif" font-size="10.00">std::unordered_map</text>
<text text-anchor="middle" x="480" y="-646" font-family="Helvetica,sans-Serif" font-size="10.00">&lt; K, T &gt;</text>
<polyline fill="none" stroke="#bfbfbf" points="429.5,-639 530.5,-639 "/>
<text text-anchor="middle" x="480" y="-627" font-family="Helvetica,sans-Serif" font-size="10.00"> </text>
<polyline fill="none" stroke="#bfbfbf" points="429.5,-620 530.5,-620 "/>
<text text-anchor="middle" x="480" y="-608" font-family="Helvetica,sans-Serif" font-size="10.00"> </text>
</a>
</g>
</g>
<!-- Node8&#45;&gt;Node9 -->
<g id="edge10" class="edge">
<title>Node8&#45;&gt;Node9</title>
<path fill="none" stroke="#404040" d="M480,-1092.24C480,-1012.19 480,-780.33 480,-681.5"/>
<polygon fill="none" stroke="#404040" points="480,-681.29 476,-675.29 480,-669.29 484,-675.29 480,-681.29"/>
<text text-anchor="middle" x="504.5" y="-937.5" font-family="Helvetica,sans-Serif" font-size="10.00"> +elements</text>
</g>
<!-- Node15 -->
<g id="node15" class="node">
<title>Node15</title>
<g id="a_node15"><a xlink:title=" ">
<polygon fill="white" stroke="#bfbfbf" points="577.5,-987.5 577.5,-1044.5 680.5,-1044.5 680.5,-987.5 577.5,-987.5"/>
<text text-anchor="middle" x="629" y="-1032.5" font-family="Helvetica,sans-Serif" font-size="10.00">std::shared_ptr&lt; T &gt;</text>
<polyline fill="none" stroke="#bfbfbf" points="577.5,-1025.5 680.5,-1025.5 "/>
<text text-anchor="middle" x="629" y="-1013.5" font-family="Helvetica,sans-Serif" font-size="10.00"> </text>
<polyline fill="none" stroke="#bfbfbf" points="577.5,-1006.5 680.5,-1006.5 "/>
<text text-anchor="start" x="585.5" y="-994.5" font-family="Helvetica,sans-Serif" font-size="10.00">+ operator&#45;&gt;()</text>
</a>
</g>
</g>
<!-- Node8&#45;&gt;Node15 -->
<g id="edge16" class="edge">
<title>Node8&#45;&gt;Node15</title>
<path fill="none" stroke="#404040" d="M494.56,-1109.94C513.95,-1096.53 549.24,-1072.14 578.8,-1051.7"/>
<polygon fill="none" stroke="#404040" points="579.11,-1051.49 581.77,-1044.79 588.98,-1044.67 586.32,-1051.37 579.11,-1051.49"/>
<text text-anchor="middle" x="569" y="-1066" font-family="Helvetica,sans-Serif" font-size="10.00"> +ptr</text>
</g>
<!-- Node9&#45;&gt;Node5 -->
<g id="edge8" class="edge">
<title>Node9&#45;&gt;Node5</title>
<path fill="none" stroke="orange" d="M453.09,-592.42C439,-569.2 422.35,-539.31 411,-511 399.3,-481.82 390.7,-447.22 385.21,-421.28"/>
<polygon fill="orange" stroke="orange" points="450.14,-594.29 458.36,-600.98 456.1,-590.63 450.14,-594.29"/>
<text text-anchor="start" x="411" y="-503" font-family="Helvetica,sans-Serif" font-size="10.00"> &lt; prev_block_hash_t,</text>
<text text-anchor="middle" x="471.5" y="-492" font-family="Helvetica,sans-Serif" font-size="10.00"> std::unique_ptr&lt; index_t &gt; &gt;</text>
</g>
<!-- Node10 -->
<g id="node10" class="node">
<title>Node10</title>
<g id="a_node10"><a xlink:title=" ">
<polygon fill="white" stroke="#bfbfbf" points="593.5,-835.5 593.5,-892.5 622.5,-892.5 622.5,-835.5 593.5,-835.5"/>
<text text-anchor="middle" x="608" y="-880.5" font-family="Helvetica,sans-Serif" font-size="10.00">K</text>
<polyline fill="none" stroke="#bfbfbf" points="593.5,-873.5 622.5,-873.5 "/>
<text text-anchor="middle" x="608" y="-861.5" font-family="Helvetica,sans-Serif" font-size="10.00"> </text>
<polyline fill="none" stroke="#bfbfbf" points="593.5,-854.5 622.5,-854.5 "/>
<text text-anchor="middle" x="608" y="-842.5" font-family="Helvetica,sans-Serif" font-size="10.00"> </text>
</a>
</g>
</g>
<!-- Node10&#45;&gt;Node9 -->
<g id="edge9" class="edge">
<title>Node10&#45;&gt;Node9</title>
<path fill="none" stroke="#404040" d="M593.25,-843.71C587.32,-835.63 580.57,-826.03 575,-817 547.05,-771.7 519.24,-717.35 501,-680.11"/>
<polygon fill="none" stroke="#404040" points="500.91,-679.92 494.69,-676.27 495.66,-669.13 501.88,-672.77 500.91,-679.92"/>
<text text-anchor="middle" x="589.5" y="-785.5" font-family="Helvetica,sans-Serif" font-size="10.00"> +keys</text>
</g>
<!-- Node17 -->
<g id="node17" class="node">
<title>Node17</title>
<g id="a_node17"><a xlink:title=" ">
<polygon fill="white" stroke="#bfbfbf" points="698.5,-606.5 698.5,-663.5 769.5,-663.5 769.5,-606.5 698.5,-606.5"/>
<text text-anchor="middle" x="734" y="-651.5" font-family="Helvetica,sans-Serif" font-size="10.00">std::set&lt; K &gt;</text>
<polyline fill="none" stroke="#bfbfbf" points="698.5,-644.5 769.5,-644.5 "/>
<text text-anchor="middle" x="734" y="-632.5" font-family="Helvetica,sans-Serif" font-size="10.00"> </text>
<polyline fill="none" stroke="#bfbfbf" points="698.5,-625.5 769.5,-625.5 "/>
<text text-anchor="middle" x="734" y="-613.5" font-family="Helvetica,sans-Serif" font-size="10.00"> </text>
</a>
</g>
</g>
<!-- Node10&#45;&gt;Node17 -->
<g id="edge21" class="edge">
<title>Node10&#45;&gt;Node17</title>
<path fill="none" stroke="#404040" d="M622.79,-843.74C628.73,-835.66 635.47,-826.06 641,-817 670.05,-769.46 698.59,-711.81 716.24,-674.55"/>
<polygon fill="none" stroke="#404040" points="716.25,-674.53 715.18,-667.4 721.35,-663.67 722.42,-670.8 716.25,-674.53"/>
<text text-anchor="middle" x="685.5" y="-785.5" font-family="Helvetica,sans-Serif" font-size="10.00"> +keys</text>
</g>
<!-- Node18 -->
<g id="node18" class="node">
<title>Node18</title>
<g id="a_node18"><a xlink:title=" ">
<polygon fill="white" stroke="#bfbfbf" points="548.5,-606.5 548.5,-663.5 667.5,-663.5 667.5,-606.5 548.5,-606.5"/>
<text text-anchor="middle" x="608" y="-651.5" font-family="Helvetica,sans-Serif" font-size="10.00">std::unordered_set&lt; K &gt;</text>
<polyline fill="none" stroke="#bfbfbf" points="548.5,-644.5 667.5,-644.5 "/>
<text text-anchor="middle" x="608" y="-632.5" font-family="Helvetica,sans-Serif" font-size="10.00"> </text>
<polyline fill="none" stroke="#bfbfbf" points="548.5,-625.5 667.5,-625.5 "/>
<text text-anchor="middle" x="608" y="-613.5" font-family="Helvetica,sans-Serif" font-size="10.00"> </text>
</a>
</g>
</g>
<!-- Node10&#45;&gt;Node18 -->
<g id="edge23" class="edge">
<title>Node10&#45;&gt;Node18</title>
<path fill="none" stroke="#404040" d="M608,-835.17C608,-795.23 608,-721.48 608,-675.8"/>
<polygon fill="none" stroke="#404040" points="608,-675.71 604,-669.71 608,-663.71 612,-669.71 608,-675.71"/>
<text text-anchor="middle" x="622.5" y="-785.5" font-family="Helvetica,sans-Serif" font-size="10.00"> +keys</text>
</g>
<!-- Node11 -->
<g id="node11" class="node">
<title>Node11</title>
<g id="a_node11"><a xlink:title=" ">
<polygon fill="white" stroke="#bfbfbf" points="465.5,-347.5 465.5,-415.5 612.5,-415.5 612.5,-347.5 465.5,-347.5"/>
<text text-anchor="start" x="473.5" y="-403.5" font-family="Helvetica,sans-Serif" font-size="10.00">std::unordered_set</text>
<text text-anchor="middle" x="539" y="-392.5" font-family="Helvetica,sans-Serif" font-size="10.00">&lt; altintegration::BlockIndex * &gt;</text>
<polyline fill="none" stroke="#bfbfbf" points="465.5,-385.5 612.5,-385.5 "/>
<text text-anchor="middle" x="539" y="-373.5" font-family="Helvetica,sans-Serif" font-size="10.00"> </text>
<polyline fill="none" stroke="#bfbfbf" points="465.5,-366.5 612.5,-366.5 "/>
<text text-anchor="middle" x="539" y="-354.5" font-family="Helvetica,sans-Serif" font-size="10.00"> </text>
</a>
</g>
</g>
<!-- Node11&#45;&gt;Node1 -->
<g id="edge11" class="edge">
<title>Node11&#45;&gt;Node1</title>
<path fill="none" stroke="#404040" d="M508.12,-347.43C476.72,-313.8 426.67,-260.21 383.41,-213.89"/>
<polygon fill="none" stroke="#404040" points="383.32,-213.8 376.3,-212.14 375.13,-205.03 382.15,-206.68 383.32,-213.8"/>
<text text-anchor="middle" x="448.5" y="-266" font-family="Helvetica,sans-Serif" font-size="10.00"> #tips_</text>
</g>
<!-- Node12 -->
<g id="node12" class="node">
<title>Node12</title>
<g id="a_node12"><a xlink:href="structaltintegration_1_1BlockIndex.html" target="_top" xlink:title="A node in a block tree.">
<polygon fill="white" stroke="black" points="813.5,-529.5 813.5,-740.5 938.5,-740.5 938.5,-529.5 813.5,-529.5"/>
<text text-anchor="start" x="821.5" y="-728.5" font-family="Helvetica,sans-Serif" font-size="10.00">altintegration::BlockIndex</text>
<text text-anchor="middle" x="876" y="-717.5" font-family="Helvetica,sans-Serif" font-size="10.00">&lt; Block &gt;</text>
<polyline fill="none" stroke="black" points="813.5,-710.5 938.5,-710.5 "/>
<text text-anchor="start" x="821.5" y="-698.5" font-family="Helvetica,sans-Serif" font-size="10.00">+ finalized</text>
<text text-anchor="start" x="821.5" y="-687.5" font-family="Helvetica,sans-Serif" font-size="10.00"># height</text>
<text text-anchor="start" x="821.5" y="-676.5" font-family="Helvetica,sans-Serif" font-size="10.00"># status</text>
<text text-anchor="start" x="821.5" y="-665.5" font-family="Helvetica,sans-Serif" font-size="10.00"># dirty</text>
<polyline fill="none" stroke="black" points="813.5,-658.5 938.5,-658.5 "/>
<text text-anchor="start" x="821.5" y="-646.5" font-family="Helvetica,sans-Serif" font-size="10.00">+ BlockIndex()</text>
<text text-anchor="start" x="821.5" y="-635.5" font-family="Helvetica,sans-Serif" font-size="10.00">+ BlockIndex()</text>
<text text-anchor="start" x="821.5" y="-624.5" font-family="Helvetica,sans-Serif" font-size="10.00">+ ~BlockIndex()</text>
<text text-anchor="start" x="821.5" y="-613.5" font-family="Helvetica,sans-Serif" font-size="10.00">+ BlockIndex()</text>
<text text-anchor="start" x="821.5" y="-602.5" font-family="Helvetica,sans-Serif" font-size="10.00">+ operator=()</text>
<text text-anchor="start" x="821.5" y="-591.5" font-family="Helvetica,sans-Serif" font-size="10.00">+ isDeleted()</text>
<text text-anchor="start" x="821.5" y="-580.5" font-family="Helvetica,sans-Serif" font-size="10.00">+ isRoot()</text>
<text text-anchor="start" x="821.5" y="-569.5" font-family="Helvetica,sans-Serif" font-size="10.00">+ restore()</text>
<text text-anchor="start" x="821.5" y="-558.5" font-family="Helvetica,sans-Serif" font-size="10.00">+ deleteTemporarily()</text>
<text text-anchor="start" x="821.5" y="-547.5" font-family="Helvetica,sans-Serif" font-size="10.00">+ mergeFrom()</text>
<text text-anchor="start" x="821.5" y="-536.5" font-family="Helvetica,sans-Serif" font-size="10.00">and 40 more...</text>
</a>
</g>
</g>
<!-- Node12&#45;&gt;Node11 -->
<g id="edge12" class="edge">
<title>Node12&#45;&gt;Node11</title>
<path fill="none" stroke="#404040" d="M813.32,-555.41C802.71,-545.45 791.16,-536.23 779,-529 751.02,-512.36 737.32,-525.14 708,-511 682.87,-498.89 628.38,-456.17 588.03,-423.28"/>
<polygon fill="none" stroke="#404040" points="587.9,-423.18 580.73,-422.48 578.62,-415.58 585.79,-416.29 587.9,-423.18"/>
<text text-anchor="middle" x="722.5" y="-497.5" font-family="Helvetica,sans-Serif" font-size="10.00"> +keys</text>
</g>
<!-- Node12&#45;&gt;Node12 -->
<g id="edge17" class="edge">
<title>Node12&#45;&gt;Node12</title>
<path fill="none" stroke="#404040" d="M938.78,-658.35C949.26,-655.08 956.5,-647.3 956.5,-635 956.5,-627.5 953.81,-621.69 949.34,-617.54"/>
<polygon fill="none" stroke="#404040" points="949.26,-617.5 942.07,-618.06 938.78,-611.65 945.97,-611.08 949.26,-617.5"/>
<text text-anchor="middle" x="973" y="-632.5" font-family="Helvetica,sans-Serif" font-size="10.00"> +pprev</text>
</g>
<!-- Node16 -->
<g id="node16" class="node">
<title>Node16</title>
<g id="a_node16"><a xlink:title=" ">
<polygon fill="white" stroke="#bfbfbf" points="847,-347.5 847,-415.5 959,-415.5 959,-347.5 847,-347.5"/>
<text text-anchor="start" x="855" y="-403.5" font-family="Helvetica,sans-Serif" font-size="10.00">std::set&lt; altintegration</text>
<text text-anchor="middle" x="903" y="-392.5" font-family="Helvetica,sans-Serif" font-size="10.00">::BlockIndex * &gt;</text>
<polyline fill="none" stroke="#bfbfbf" points="847,-385.5 959,-385.5 "/>
<text text-anchor="middle" x="903" y="-373.5" font-family="Helvetica,sans-Serif" font-size="10.00"> </text>
<polyline fill="none" stroke="#bfbfbf" points="847,-366.5 959,-366.5 "/>
<text text-anchor="middle" x="903" y="-354.5" font-family="Helvetica,sans-Serif" font-size="10.00"> </text>
</a>
</g>
</g>
<!-- Node12&#45;&gt;Node16 -->
<g id="edge19" class="edge">
<title>Node12&#45;&gt;Node16</title>
<path fill="none" stroke="#404040" d="M887.25,-529.16C891.04,-493.86 895.08,-456.3 898.11,-428.03"/>
<polygon fill="none" stroke="#404040" points="898.15,-427.67 894.81,-421.27 899.43,-415.74 902.77,-422.13 898.15,-427.67"/>
<text text-anchor="middle" x="905.5" y="-497.5" font-family="Helvetica,sans-Serif" font-size="10.00"> +keys</text>
</g>
<!-- Node13 -->
<g id="node13" class="node">
<title>Node13</title>
<g id="a_node13"><a xlink:title=" ">
<polygon fill="white" stroke="#bfbfbf" points="714,-835.5 714,-892.5 794,-892.5 794,-835.5 714,-835.5"/>
<text text-anchor="middle" x="754" y="-880.5" font-family="Helvetica,sans-Serif" font-size="10.00">Block::addon_t</text>
<polyline fill="none" stroke="#bfbfbf" points="714,-873.5 794,-873.5 "/>
<text text-anchor="middle" x="754" y="-861.5" font-family="Helvetica,sans-Serif" font-size="10.00"> </text>
<polyline fill="none" stroke="#bfbfbf" points="714,-854.5 794,-854.5 "/>
<text text-anchor="middle" x="754" y="-842.5" font-family="Helvetica,sans-Serif" font-size="10.00"> </text>
</a>
</g>
</g>
<!-- Node13&#45;&gt;Node12 -->
<g id="edge13" class="edge">
<title>Node13&#45;&gt;Node12</title>
<path fill="none" stroke="midnightblue" d="M773.72,-826.3C786.3,-802.91 803.28,-771.31 819.79,-740.58"/>
<polygon fill="none" stroke="midnightblue" points="770.61,-824.7 768.96,-835.17 776.78,-828.01 770.61,-824.7"/>
</g>
<!-- Node14 -->
<g id="node14" class="node">
<title>Node14</title>
<g id="a_node14"><a xlink:title=" ">
<polygon fill="white" stroke="#bfbfbf" points="812,-835.5 812,-892.5 940,-892.5 940,-835.5 812,-835.5"/>
<text text-anchor="middle" x="876" y="-880.5" font-family="Helvetica,sans-Serif" font-size="10.00">std::shared_ptr&lt; block_t &gt;</text>
<polyline fill="none" stroke="#bfbfbf" points="812,-873.5 940,-873.5 "/>
<text text-anchor="start" x="820" y="-861.5" font-family="Helvetica,sans-Serif" font-size="10.00">+ ptr</text>
<polyline fill="none" stroke="#bfbfbf" points="812,-854.5 940,-854.5 "/>
<text text-anchor="start" x="820" y="-842.5" font-family="Helvetica,sans-Serif" font-size="10.00">+ operator&#45;&gt;()</text>
</a>
</g>
</g>
<!-- Node14&#45;&gt;Node12 -->
<g id="edge14" class="edge">
<title>Node14&#45;&gt;Node12</title>
<path fill="none" stroke="#404040" d="M876,-835.17C876,-814.11 876,-783.64 876,-752.84"/>
<polygon fill="none" stroke="#404040" points="876,-752.58 872,-746.58 876,-740.58 880,-746.58 876,-752.58"/>
<text text-anchor="middle" x="894.5" y="-785.5" font-family="Helvetica,sans-Serif" font-size="10.00"> #header</text>
</g>
<!-- Node15&#45;&gt;Node14 -->
<g id="edge15" class="edge">
<title>Node15&#45;&gt;Node14</title>
<path fill="none" stroke="orange" d="M682.89,-982.27C727.06,-955.45 788.87,-917.91 830.57,-892.59"/>
<polygon fill="orange" stroke="orange" points="681.03,-979.31 674.3,-987.49 684.67,-985.29 681.03,-979.31"/>
<text text-anchor="middle" x="821.5" y="-937.5" font-family="Helvetica,sans-Serif" font-size="10.00"> &lt; block_t &gt;</text>
</g>
<!-- Node16&#45;&gt;Node12 -->
<g id="edge18" class="edge">
<title>Node16&#45;&gt;Node12</title>
<path fill="none" stroke="#404040" d="M919.06,-415.73C929.58,-441.64 940.15,-478.56 933,-511 932.52,-513.19 931.99,-515.39 931.43,-517.59"/>
<polygon fill="none" stroke="#404040" points="931.36,-517.83 933.55,-524.7 928.06,-529.37 925.86,-522.5 931.36,-517.83"/>
<text text-anchor="middle" x="951" y="-497.5" font-family="Helvetica,sans-Serif" font-size="10.00"> +pnext</text>
</g>
<!-- Node17&#45;&gt;Node16 -->
<g id="edge20" class="edge">
<title>Node17&#45;&gt;Node16</title>
<path fill="none" stroke="orange" d="M730.61,-595.85C729.68,-564.92 732.63,-521.31 752,-489 773.85,-452.54 813.54,-425.29 846.74,-407.49"/>
<polygon fill="orange" stroke="orange" points="727.13,-596.4 731.08,-606.23 734.12,-596.08 727.13,-596.4"/>
<text text-anchor="middle" x="818.5" y="-497.5" font-family="Helvetica,sans-Serif" font-size="10.00"> &lt; altintegration::BlockIndex * &gt;</text>
</g>
<!-- Node18&#45;&gt;Node11 -->
<g id="edge22" class="edge">
<title>Node18&#45;&gt;Node11</title>
<path fill="none" stroke="orange" d="M581.69,-597.85C566.26,-574.37 548.23,-542.39 540,-511 531.71,-479.38 532.58,-441.87 534.84,-415.57"/>
<polygon fill="orange" stroke="orange" points="578.97,-600.06 587.45,-606.41 584.78,-596.16 578.97,-600.06"/>
<text text-anchor="middle" x="606.5" y="-497.5" font-family="Helvetica,sans-Serif" font-size="10.00"> &lt; altintegration::BlockIndex * &gt;</text>
</g>
</g>
</svg>
