<?xml version="1.0" encoding="UTF-8" standalone="no"?>
<!DOCTYPE svg PUBLIC "-//W3C//DTD SVG 1.1//EN"
 "http://www.w3.org/Graphics/SVG/1.1/DTD/svg11.dtd">
<!-- Generated by graphviz version 2.44.0 ()
 -->
<!-- Title: altintegration::btc::BlockHeader Pages: 1 -->
<svg width="321pt" height="899pt"
 viewBox="0.00 0.00 320.50 899.00" xmlns="http://www.w3.org/2000/svg" xmlns:xlink="http://www.w3.org/1999/xlink">
<g id="graph0" class="graph" transform="scale(1 1) rotate(0) translate(4 895)">
<title>altintegration::btc::BlockHeader</title>
<polygon fill="white" stroke="transparent" points="-4,4 -4,-895 316.5,-895 316.5,4 -4,4"/>
<!-- Node1 -->
<g id="node1" class="node">
<title>Node1</title>
<g id="a_node1"><a xlink:title=" ">
<polygon fill="#bfbfbf" stroke="black" points="75.5,-0.5 75.5,-90.5 230.5,-90.5 230.5,-0.5 75.5,-0.5"/>
<text text-anchor="start" x="83.5" y="-78.5" font-family="Helvetica,sans-Serif" font-size="10.00">altintegration::btc</text>
<text text-anchor="middle" x="153" y="-67.5" font-family="Helvetica,sans-Serif" font-size="10.00">::BlockHeader</text>
<polyline fill="none" stroke="black" points="75.5,-60.5 230.5,-60.5 "/>
<text text-anchor="start" x="83.5" y="-48.5" font-family="Helvetica,sans-Serif" font-size="10.00">+ ADD_SERIALIZE_METHODS</text>
<polyline fill="none" stroke="black" points="75.5,-41.5 230.5,-41.5 "/>
<text text-anchor="start" x="83.5" y="-29.5" font-family="Helvetica,sans-Serif" font-size="10.00">+ BlockHeader()</text>
<text text-anchor="start" x="83.5" y="-18.5" font-family="Helvetica,sans-Serif" font-size="10.00">+ BlockHeader()</text>
<text text-anchor="start" x="83.5" y="-7.5" font-family="Helvetica,sans-Serif" font-size="10.00">+ SerializationOp()</text>
</a>
</g>
</g>
<!-- Node2 -->
<g id="node2" class="node">
<title>Node2</title>
<g id="a_node2"><a xlink:href="structaltintegration_1_1BtcBlock.html" target="_top" xlink:title="Bitcoin block.">
<polygon fill="white" stroke="black" points="95,-128.5 95,-350.5 211,-350.5 211,-128.5 95,-128.5"/>
<text text-anchor="middle" x="153" y="-338.5" font-family="Helvetica,sans-Serif" font-size="10.00">altintegration::BtcBlock</text>
<polyline fill="none" stroke="black" points="95,-331.5 211,-331.5 "/>
<text text-anchor="start" x="103" y="-319.5" font-family="Helvetica,sans-Serif" font-size="10.00"># version</text>
<text text-anchor="start" x="103" y="-308.5" font-family="Helvetica,sans-Serif" font-size="10.00"># timestamp</text>
<text text-anchor="start" x="103" y="-297.5" font-family="Helvetica,sans-Serif" font-size="10.00"># bits</text>
<text text-anchor="start" x="103" y="-286.5" font-family="Helvetica,sans-Serif" font-size="10.00"># nonce</text>
<polyline fill="none" stroke="black" points="95,-279.5 211,-279.5 "/>
<text text-anchor="start" x="103" y="-267.5" font-family="Helvetica,sans-Serif" font-size="10.00">+ BtcBlock()</text>
<text text-anchor="start" x="103" y="-256.5" font-family="Helvetica,sans-Serif" font-size="10.00">+ BtcBlock()</text>
<text text-anchor="start" x="103" y="-245.5" font-family="Helvetica,sans-Serif" font-size="10.00">+ toRaw()</text>
<text text-anchor="start" x="103" y="-234.5" font-family="Helvetica,sans-Serif" font-size="10.00">+ toVbkEncoding()</text>
<text text-anchor="start" x="103" y="-223.5" font-family="Helvetica,sans-Serif" font-size="10.00">+ estimateSize()</text>
<text text-anchor="start" x="103" y="-212.5" font-family="Helvetica,sans-Serif" font-size="10.00">+ calculateHash()</text>
<text text-anchor="start" x="103" y="-201.5" font-family="Helvetica,sans-Serif" font-size="10.00">+ getHash()</text>
<text text-anchor="start" x="103" y="-190.5" font-family="Helvetica,sans-Serif" font-size="10.00">+ toPrettyString()</text>
<text text-anchor="start" x="103" y="-179.5" font-family="Helvetica,sans-Serif" font-size="10.00">+ getVersion()</text>
<text text-anchor="start" x="103" y="-168.5" font-family="Helvetica,sans-Serif" font-size="10.00">+ getPreviousBlock()</text>
<text text-anchor="start" x="103" y="-157.5" font-family="Helvetica,sans-Serif" font-size="10.00">and 10 more...</text>
<text text-anchor="start" x="103" y="-146.5" font-family="Helvetica,sans-Serif" font-size="10.00">+ name()</text>
<text text-anchor="start" x="103" y="-135.5" font-family="Helvetica,sans-Serif" font-size="10.00"># invalidateHash()</text>
</a>
</g>
</g>
<!-- Node2&#45;&gt;Node1 -->
<g id="edge1" class="edge">
<title>Node2&#45;&gt;Node1</title>
<path fill="none" stroke="midnightblue" d="M153,-118.33C153,-108.7 153,-99.41 153,-90.89"/>
<polygon fill="none" stroke="midnightblue" points="149.5,-118.48 153,-128.48 156.5,-118.48 149.5,-118.48"/>
</g>
<!-- Node3 -->
<g id="node3" class="node">
<title>Node3</title>
<g id="a_node3"><a xlink:href="structaltintegration_1_1Blob.html" target="_top" xlink:title="Contiguous byte array of fixed size.">
<polygon fill="white" stroke="black" points="0,-679.5 0,-890.5 120,-890.5 120,-679.5 0,-679.5"/>
<text text-anchor="middle" x="60" y="-878.5" font-family="Helvetica,sans-Serif" font-size="10.00">altintegration::Blob&lt; N &gt;</text>
<polyline fill="none" stroke="black" points="0,-871.5 120,-871.5 "/>
<text text-anchor="start" x="8" y="-859.5" font-family="Helvetica,sans-Serif" font-size="10.00">+ data_</text>
<text text-anchor="start" x="8" y="-848.5" font-family="Helvetica,sans-Serif" font-size="10.00">+ this</text>
<polyline fill="none" stroke="black" points="0,-841.5 120,-841.5 "/>
<text text-anchor="start" x="8" y="-829.5" font-family="Helvetica,sans-Serif" font-size="10.00">+ Blob()</text>
<text text-anchor="start" x="8" y="-818.5" font-family="Helvetica,sans-Serif" font-size="10.00">+ Blob()</text>
<text text-anchor="start" x="8" y="-807.5" font-family="Helvetica,sans-Serif" font-size="10.00">+ Blob()</text>
<text text-anchor="start" x="8" y="-796.5" font-family="Helvetica,sans-Serif" font-size="10.00">+ Blob()</text>
<text text-anchor="start" x="8" y="-785.5" font-family="Helvetica,sans-Serif" font-size="10.00">+ Blob()</text>
<text text-anchor="start" x="8" y="-774.5" font-family="Helvetica,sans-Serif" font-size="10.00">+ operator=()</text>
<text text-anchor="start" x="8" y="-763.5" font-family="Helvetica,sans-Serif" font-size="10.00">+ operator=()</text>
<text text-anchor="start" x="8" y="-752.5" font-family="Helvetica,sans-Serif" font-size="10.00">+ reverse()</text>
<text text-anchor="start" x="8" y="-741.5" font-family="Helvetica,sans-Serif" font-size="10.00">+ operator~()</text>
<text text-anchor="start" x="8" y="-730.5" font-family="Helvetica,sans-Serif" font-size="10.00">+ asVector()</text>
<text text-anchor="start" x="8" y="-719.5" font-family="Helvetica,sans-Serif" font-size="10.00">+ asString()</text>
<text text-anchor="start" x="8" y="-708.5" font-family="Helvetica,sans-Serif" font-size="10.00">+ operator[]()</text>
<text text-anchor="start" x="8" y="-697.5" font-family="Helvetica,sans-Serif" font-size="10.00">+ operator[]()</text>
<text text-anchor="start" x="8" y="-686.5" font-family="Helvetica,sans-Serif" font-size="10.00">+ compareTo()</text>
</a>
</g>
</g>
<!-- Node3&#45;&gt;Node2 -->
<g id="edge2" class="edge">
<title>Node3&#45;&gt;Node2</title>
<path fill="none" stroke="#404040" d="M37.59,-679.12C25.53,-602.67 17.89,-497.43 44,-409 53.19,-377.89 70.11,-347.12 87.92,-320.56"/>
<polygon fill="none" stroke="#404040" points="87.98,-320.48 88.08,-313.27 94.78,-310.59 94.67,-317.8 87.98,-320.48"/>
<text text-anchor="middle" x="61" y="-518" font-family="Helvetica,sans-Serif" font-size="10.00"> #hash_</text>
</g>
<!-- Node4 -->
<g id="node4" class="node">
<title>Node4</title>
<g id="a_node4"><a xlink:href="structaltintegration_1_1Blob.html" target="_top" xlink:title=" ">
<polygon fill="white" stroke="black" points="87.5,-409.5 87.5,-631.5 218.5,-631.5 218.5,-409.5 87.5,-409.5"/>
<text text-anchor="start" x="95.5" y="-619.5" font-family="Helvetica,sans-Serif" font-size="10.00">altintegration::Blob</text>
<text text-anchor="middle" x="153" y="-608.5" font-family="Helvetica,sans-Serif" font-size="10.00">&lt; SHA256_HASH_SIZE &gt;</text>
<polyline fill="none" stroke="black" points="87.5,-601.5 218.5,-601.5 "/>
<text text-anchor="start" x="95.5" y="-589.5" font-family="Helvetica,sans-Serif" font-size="10.00">+ data_</text>
<text text-anchor="start" x="95.5" y="-578.5" font-family="Helvetica,sans-Serif" font-size="10.00">+ this</text>
<polyline fill="none" stroke="black" points="87.5,-571.5 218.5,-571.5 "/>
<text text-anchor="start" x="95.5" y="-559.5" font-family="Helvetica,sans-Serif" font-size="10.00">+ Blob()</text>
<text text-anchor="start" x="95.5" y="-548.5" font-family="Helvetica,sans-Serif" font-size="10.00">+ Blob()</text>
<text text-anchor="start" x="95.5" y="-537.5" font-family="Helvetica,sans-Serif" font-size="10.00">+ Blob()</text>
<text text-anchor="start" x="95.5" y="-526.5" font-family="Helvetica,sans-Serif" font-size="10.00">+ Blob()</text>
<text text-anchor="start" x="95.5" y="-515.5" font-family="Helvetica,sans-Serif" font-size="10.00">+ Blob()</text>
<text text-anchor="start" x="95.5" y="-504.5" font-family="Helvetica,sans-Serif" font-size="10.00">+ operator=()</text>
<text text-anchor="start" x="95.5" y="-493.5" font-family="Helvetica,sans-Serif" font-size="10.00">+ operator=()</text>
<text text-anchor="start" x="95.5" y="-482.5" font-family="Helvetica,sans-Serif" font-size="10.00">+ reverse()</text>
<text text-anchor="start" x="95.5" y="-471.5" font-family="Helvetica,sans-Serif" font-size="10.00">+ operator~()</text>
<text text-anchor="start" x="95.5" y="-460.5" font-family="Helvetica,sans-Serif" font-size="10.00">+ asVector()</text>
<text text-anchor="start" x="95.5" y="-449.5" font-family="Helvetica,sans-Serif" font-size="10.00">+ asString()</text>
<text text-anchor="start" x="95.5" y="-438.5" font-family="Helvetica,sans-Serif" font-size="10.00">+ operator[]()</text>
<text text-anchor="start" x="95.5" y="-427.5" font-family="Helvetica,sans-Serif" font-size="10.00">+ operator[]()</text>
<text text-anchor="start" x="95.5" y="-416.5" font-family="Helvetica,sans-Serif" font-size="10.00">+ compareTo()</text>
</a>
</g>
</g>
<!-- Node3&#45;&gt;Node4 -->
<g id="edge4" class="edge">
<title>Node3&#45;&gt;Node4</title>
<path fill="none" stroke="orange" d="M100.44,-669.86C104.93,-657.18 109.5,-644.29 113.97,-631.67"/>
<polygon fill="orange" stroke="orange" points="97.06,-668.9 97.02,-679.5 103.66,-671.24 97.06,-668.9"/>
<text text-anchor="middle" x="165.5" y="-653" font-family="Helvetica,sans-Serif" font-size="10.00"> &lt; SHA256_HASH_SIZE &gt;</text>
</g>
<!-- Node4&#45;&gt;Node2 -->
<g id="edge3" class="edge">
<title>Node4&#45;&gt;Node2</title>
<path fill="none" stroke="#404040" d="M153,-409.23C153,-394.09 153,-378.46 153,-363.12"/>
<polygon fill="none" stroke="#404040" points="153,-362.88 149,-356.88 153,-350.88 157,-356.88 153,-362.88"/>
<text text-anchor="middle" x="186.5" y="-383" font-family="Helvetica,sans-Serif" font-size="10.00"> #merkleRoot</text>
<text text-anchor="middle" x="186.5" y="-372" font-family="Helvetica,sans-Serif" font-size="10.00">#previousBlock</text>
</g>
<!-- Node5 -->
<g id="node5" class="node">
<title>Node5</title>
<g id="a_node5"><a xlink:title=" ">
<polygon fill="white" stroke="#bfbfbf" points="236.5,-492 236.5,-549 295.5,-549 295.5,-492 236.5,-492"/>
<text text-anchor="middle" x="266" y="-537" font-family="Helvetica,sans-Serif" font-size="10.00">std::string</text>
<polyline fill="none" stroke="#bfbfbf" points="236.5,-530 295.5,-530 "/>
<text text-anchor="middle" x="266" y="-518" font-family="Helvetica,sans-Serif" font-size="10.00"> </text>
<polyline fill="none" stroke="#bfbfbf" points="236.5,-511 295.5,-511 "/>
<text text-anchor="middle" x="266" y="-499" font-family="Helvetica,sans-Serif" font-size="10.00"> </text>
</a>
</g>
</g>
<!-- Node5&#45;&gt;Node2 -->
<g id="edge5" class="edge">
<title>Node5&#45;&gt;Node2</title>
<path fill="none" stroke="#404040" d="M260.34,-491.95C253.58,-461.28 241,-410.55 224,-369 221.65,-363.25 219.1,-357.43 216.41,-351.61"/>
<polygon fill="none" stroke="#404040" points="216.25,-351.25 210.06,-347.55 211.09,-340.42 217.28,-344.12 216.25,-351.25"/>
<text text-anchor="middle" x="250.5" y="-377.5" font-family="Helvetica,sans-Serif" font-size="10.00"> #_name</text>
</g>
<!-- Node6 -->
<g id="node6" class="node">
<title>Node6</title>
<g id="a_node6"><a xlink:title=" ">
<polygon fill="white" stroke="#bfbfbf" points="219.5,-751 219.5,-819 312.5,-819 312.5,-751 219.5,-751"/>
<text text-anchor="start" x="227.5" y="-807" font-family="Helvetica,sans-Serif" font-size="10.00">std::basic_string&lt;</text>
<text text-anchor="middle" x="266" y="-796" font-family="Helvetica,sans-Serif" font-size="10.00"> Char &gt;</text>
<polyline fill="none" stroke="#bfbfbf" points="219.5,-789 312.5,-789 "/>
<text text-anchor="middle" x="266" y="-777" font-family="Helvetica,sans-Serif" font-size="10.00"> </text>
<polyline fill="none" stroke="#bfbfbf" points="219.5,-770 312.5,-770 "/>
<text text-anchor="middle" x="266" y="-758" font-family="Helvetica,sans-Serif" font-size="10.00"> </text>
</a>
</g>
</g>
<!-- Node6&#45;&gt;Node5 -->
<g id="edge6" class="edge">
<title>Node6&#45;&gt;Node5</title>
<path fill="none" stroke="midnightblue" d="M266,-740.75C266,-686.49 266,-595.02 266,-549.29"/>
<polygon fill="none" stroke="midnightblue" points="262.5,-740.75 266,-750.75 269.5,-740.75 262.5,-740.75"/>
</g>
</g>
</svg>
