<?xml version="1.0" encoding="UTF-8" standalone="no"?>
<!DOCTYPE svg PUBLIC "-//W3C//DTD SVG 1.1//EN"
 "http://www.w3.org/Graphics/SVG/1.1/DTD/svg11.dtd">
<!-- Generated by graphviz version 2.44.0 ()
 -->
<!-- Title: altintegration::BlockIndex&lt; Block &gt; Pages: 1 -->
<svg width="383pt" height="651pt"
 viewBox="0.00 0.00 382.50 651.00" xmlns="http://www.w3.org/2000/svg" xmlns:xlink="http://www.w3.org/1999/xlink">
<g id="graph0" class="graph" transform="scale(1 1) rotate(0) translate(4 647)">
<title>altintegration::BlockIndex&lt; Block &gt;</title>
<polygon fill="white" stroke="transparent" points="-4,4 -4,-647 378.5,-647 378.5,4 -4,4"/>
<!-- Node1 -->
<g id="node1" class="node">
<title>Node1</title>
<g id="a_node1"><a xlink:title="A node in a block tree.">
<polygon fill="#bfbfbf" stroke="black" points="155,-116.5 155,-327.5 280,-327.5 280,-116.5 155,-116.5"/>
<text text-anchor="start" x="163" y="-315.5" font-family="Helvetica,sans-Serif" font-size="10.00">altintegration::BlockIndex</text>
<text text-anchor="middle" x="217.5" y="-304.5" font-family="Helvetica,sans-Serif" font-size="10.00">&lt; Block &gt;</text>
<polyline fill="none" stroke="black" points="155,-297.5 280,-297.5 "/>
<text text-anchor="start" x="163" y="-285.5" font-family="Helvetica,sans-Serif" font-size="10.00">+ finalized</text>
<text text-anchor="start" x="163" y="-274.5" font-family="Helvetica,sans-Serif" font-size="10.00"># height</text>
<text text-anchor="start" x="163" y="-263.5" font-family="Helvetica,sans-Serif" font-size="10.00"># status</text>
<text text-anchor="start" x="163" y="-252.5" font-family="Helvetica,sans-Serif" font-size="10.00"># dirty</text>
<polyline fill="none" stroke="black" points="155,-245.5 280,-245.5 "/>
<text text-anchor="start" x="163" y="-233.5" font-family="Helvetica,sans-Serif" font-size="10.00">+ BlockIndex()</text>
<text text-anchor="start" x="163" y="-222.5" font-family="Helvetica,sans-Serif" font-size="10.00">+ BlockIndex()</text>
<text text-anchor="start" x="163" y="-211.5" font-family="Helvetica,sans-Serif" font-size="10.00">+ ~BlockIndex()</text>
<text text-anchor="start" x="163" y="-200.5" font-family="Helvetica,sans-Serif" font-size="10.00">+ BlockIndex()</text>
<text text-anchor="start" x="163" y="-189.5" font-family="Helvetica,sans-Serif" font-size="10.00">+ operator=()</text>
<text text-anchor="start" x="163" y="-178.5" font-family="Helvetica,sans-Serif" font-size="10.00">+ isDeleted()</text>
<text text-anchor="start" x="163" y="-167.5" font-family="Helvetica,sans-Serif" font-size="10.00">+ isRoot()</text>
<text text-anchor="start" x="163" y="-156.5" font-family="Helvetica,sans-Serif" font-size="10.00">+ restore()</text>
<text text-anchor="start" x="163" y="-145.5" font-family="Helvetica,sans-Serif" font-size="10.00">+ deleteTemporarily()</text>
<text text-anchor="start" x="163" y="-134.5" font-family="Helvetica,sans-Serif" font-size="10.00">+ mergeFrom()</text>
<text text-anchor="start" x="163" y="-123.5" font-family="Helvetica,sans-Serif" font-size="10.00">and 38 more...</text>
</a>
</g>
</g>
<!-- Node1&#45;&gt;Node1 -->
<g id="edge5" class="edge">
<title>Node1&#45;&gt;Node1</title>
<path fill="none" stroke="#404040" d="M280.28,-244.31C290.76,-241.19 298,-233.75 298,-222 298,-215.02 295.45,-209.57 291.18,-205.63"/>
<polygon fill="none" stroke="#404040" points="290.82,-205.43 283.63,-206.08 280.28,-199.69 287.46,-199.05 290.82,-205.43"/>
<text text-anchor="middle" x="314.5" y="-219.5" font-family="Helvetica,sans-Serif" font-size="10.00"> +pprev</text>
</g>
<!-- Node6 -->
<g id="node6" class="node">
<title>Node6</title>
<g id="a_node6"><a xlink:title=" ">
<polygon fill="white" stroke="#bfbfbf" points="135.5,-0.5 135.5,-68.5 247.5,-68.5 247.5,-0.5 135.5,-0.5"/>
<text text-anchor="start" x="143.5" y="-56.5" font-family="Helvetica,sans-Serif" font-size="10.00">std::set&lt; altintegration</text>
<text text-anchor="middle" x="191.5" y="-45.5" font-family="Helvetica,sans-Serif" font-size="10.00">::BlockIndex * &gt;</text>
<polyline fill="none" stroke="#bfbfbf" points="135.5,-38.5 247.5,-38.5 "/>
<text text-anchor="middle" x="191.5" y="-26.5" font-family="Helvetica,sans-Serif" font-size="10.00"> </text>
<polyline fill="none" stroke="#bfbfbf" points="135.5,-19.5 247.5,-19.5 "/>
<text text-anchor="middle" x="191.5" y="-7.5" font-family="Helvetica,sans-Serif" font-size="10.00"> </text>
</a>
</g>
</g>
<!-- Node1&#45;&gt;Node6 -->
<g id="edge7" class="edge">
<title>Node1&#45;&gt;Node6</title>
<path fill="none" stroke="#404040" d="M191.1,-116.28C190.08,-110.12 189.2,-103.99 188.5,-98 187.94,-93.14 188.36,-91.89 188.5,-87 188.56,-84.97 188.63,-82.89 188.71,-80.8"/>
<polygon fill="none" stroke="#404040" points="188.72,-80.72 185,-74.54 189.28,-68.73 192.99,-74.91 188.72,-80.72"/>
<text text-anchor="middle" x="203" y="-90" font-family="Helvetica,sans-Serif" font-size="10.00"> +keys</text>
</g>
<!-- Node2 -->
<g id="node2" class="node">
<title>Node2</title>
<g id="a_node2"><a xlink:title=" ">
<polygon fill="white" stroke="#bfbfbf" points="148.5,-375.5 148.5,-432.5 228.5,-432.5 228.5,-375.5 148.5,-375.5"/>
<text text-anchor="middle" x="188.5" y="-420.5" font-family="Helvetica,sans-Serif" font-size="10.00">Block::addon_t</text>
<polyline fill="none" stroke="#bfbfbf" points="148.5,-413.5 228.5,-413.5 "/>
<text text-anchor="middle" x="188.5" y="-401.5" font-family="Helvetica,sans-Serif" font-size="10.00"> </text>
<polyline fill="none" stroke="#bfbfbf" points="148.5,-394.5 228.5,-394.5 "/>
<text text-anchor="middle" x="188.5" y="-382.5" font-family="Helvetica,sans-Serif" font-size="10.00"> </text>
</a>
</g>
</g>
<!-- Node2&#45;&gt;Node1 -->
<g id="edge1" class="edge">
<title>Node2&#45;&gt;Node1</title>
<path fill="none" stroke="midnightblue" d="M194.61,-365.09C196.41,-353.91 198.47,-341.09 200.61,-327.83"/>
<polygon fill="none" stroke="midnightblue" points="191.1,-364.84 192.97,-375.27 198.01,-365.95 191.1,-364.84"/>
</g>
<!-- Node3 -->
<g id="node3" class="node">
<title>Node3</title>
<g id="a_node3"><a xlink:title=" ">
<polygon fill="white" stroke="#bfbfbf" points="246.5,-375.5 246.5,-432.5 374.5,-432.5 374.5,-375.5 246.5,-375.5"/>
<text text-anchor="middle" x="310.5" y="-420.5" font-family="Helvetica,sans-Serif" font-size="10.00">std::shared_ptr&lt; block_t &gt;</text>
<polyline fill="none" stroke="#bfbfbf" points="246.5,-413.5 374.5,-413.5 "/>
<text text-anchor="start" x="254.5" y="-401.5" font-family="Helvetica,sans-Serif" font-size="10.00">+ ptr</text>
<polyline fill="none" stroke="#bfbfbf" points="246.5,-394.5 374.5,-394.5 "/>
<text text-anchor="start" x="254.5" y="-382.5" font-family="Helvetica,sans-Serif" font-size="10.00">+ operator&#45;&gt;()</text>
</a>
</g>
</g>
<!-- Node3&#45;&gt;Node1 -->
<g id="edge2" class="edge">
<title>Node3&#45;&gt;Node1</title>
<path fill="none" stroke="#404040" d="M296.17,-375.27C290.79,-364.84 284.27,-352.23 277.32,-338.77"/>
<polygon fill="none" stroke="#404040" points="277.17,-338.49 270.86,-335 271.66,-327.83 277.97,-331.33 277.17,-338.49"/>
<text text-anchor="middle" x="304" y="-349" font-family="Helvetica,sans-Serif" font-size="10.00"> #header</text>
</g>
<!-- Node4 -->
<g id="node4" class="node">
<title>Node4</title>
<g id="a_node4"><a xlink:title=" ">
<polygon fill="white" stroke="#bfbfbf" points="259,-480.5 259,-537.5 362,-537.5 362,-480.5 259,-480.5"/>
<text text-anchor="middle" x="310.5" y="-525.5" font-family="Helvetica,sans-Serif" font-size="10.00">std::shared_ptr&lt; T &gt;</text>
<polyline fill="none" stroke="#bfbfbf" points="259,-518.5 362,-518.5 "/>
<text text-anchor="middle" x="310.5" y="-506.5" font-family="Helvetica,sans-Serif" font-size="10.00"> </text>
<polyline fill="none" stroke="#bfbfbf" points="259,-499.5 362,-499.5 "/>
<text text-anchor="start" x="267" y="-487.5" font-family="Helvetica,sans-Serif" font-size="10.00">+ operator&#45;&gt;()</text>
</a>
</g>
</g>
<!-- Node4&#45;&gt;Node3 -->
<g id="edge3" class="edge">
<title>Node4&#45;&gt;Node3</title>
<path fill="none" stroke="orange" d="M310.5,-470.29C310.5,-457.84 310.5,-444.23 310.5,-432.68"/>
<polygon fill="orange" stroke="orange" points="307,-470.4 310.5,-480.4 314,-470.4 307,-470.4"/>
<text text-anchor="middle" x="336" y="-454" font-family="Helvetica,sans-Serif" font-size="10.00"> &lt; block_t &gt;</text>
</g>
<!-- Node5 -->
<g id="node5" class="node">
<title>Node5</title>
<g id="a_node5"><a xlink:title=" ">
<polygon fill="white" stroke="#bfbfbf" points="296,-585.5 296,-642.5 325,-642.5 325,-585.5 296,-585.5"/>
<text text-anchor="middle" x="310.5" y="-630.5" font-family="Helvetica,sans-Serif" font-size="10.00">T</text>
<polyline fill="none" stroke="#bfbfbf" points="296,-623.5 325,-623.5 "/>
<text text-anchor="middle" x="310.5" y="-611.5" font-family="Helvetica,sans-Serif" font-size="10.00"> </text>
<polyline fill="none" stroke="#bfbfbf" points="296,-604.5 325,-604.5 "/>
<text text-anchor="middle" x="310.5" y="-592.5" font-family="Helvetica,sans-Serif" font-size="10.00"> </text>
</a>
</g>
</g>
<!-- Node5&#45;&gt;Node4 -->
<g id="edge4" class="edge">
<title>Node5&#45;&gt;Node4</title>
<path fill="none" stroke="#404040" d="M310.5,-585.4C310.5,-574.55 310.5,-561.87 310.5,-550.05"/>
<polygon fill="none" stroke="#404040" points="310.5,-549.68 306.5,-543.68 310.5,-537.68 314.5,-543.68 310.5,-549.68"/>
<text text-anchor="middle" x="320.5" y="-559" font-family="Helvetica,sans-Serif" font-size="10.00"> +ptr</text>
</g>
<!-- Node6&#45;&gt;Node1 -->
<g id="edge6" class="edge">
<title>Node6&#45;&gt;Node1</title>
<path fill="none" stroke="#404040" d="M214.19,-68.73C217.21,-74.59 219.83,-80.81 221.5,-87 223.01,-92.6 224.19,-98.39 225.09,-104.26"/>
<polygon fill="none" stroke="#404040" points="225.12,-104.51 229.81,-109.99 226.55,-116.42 221.87,-110.94 225.12,-104.51"/>
<text text-anchor="middle" x="239.5" y="-90" font-family="Helvetica,sans-Serif" font-size="10.00"> +pnext</text>
</g>
<!-- Node7 -->
<g id="node7" class="node">
<title>Node7</title>
<g id="a_node7"><a xlink:title=" ">
<polygon fill="white" stroke="#bfbfbf" points="0,-193.5 0,-250.5 71,-250.5 71,-193.5 0,-193.5"/>
<text text-anchor="middle" x="35.5" y="-238.5" font-family="Helvetica,sans-Serif" font-size="10.00">std::set&lt; K &gt;</text>
<polyline fill="none" stroke="#bfbfbf" points="0,-231.5 71,-231.5 "/>
<text text-anchor="middle" x="35.5" y="-219.5" font-family="Helvetica,sans-Serif" font-size="10.00"> </text>
<polyline fill="none" stroke="#bfbfbf" points="0,-212.5 71,-212.5 "/>
<text text-anchor="middle" x="35.5" y="-200.5" font-family="Helvetica,sans-Serif" font-size="10.00"> </text>
</a>
</g>
</g>
<!-- Node7&#45;&gt;Node6 -->
<g id="edge8" class="edge">
<title>Node7&#45;&gt;Node6</title>
<path fill="none" stroke="orange" d="M30.1,-183.21C28.06,-153.93 30.22,-113.94 51.5,-87 71.65,-61.5 105.69,-48.62 135.16,-42.12"/>
<polygon fill="orange" stroke="orange" points="26.64,-183.82 31.01,-193.47 33.61,-183.2 26.64,-183.82"/>
<text text-anchor="middle" x="118" y="-90" font-family="Helvetica,sans-Serif" font-size="10.00"> &lt; altintegration::BlockIndex * &gt;</text>
</g>
<!-- Node8 -->
<g id="node8" class="node">
<title>Node8</title>
<g id="a_node8"><a xlink:title=" ">
<polygon fill="white" stroke="#bfbfbf" points="21,-375.5 21,-432.5 50,-432.5 50,-375.5 21,-375.5"/>
<text text-anchor="middle" x="35.5" y="-420.5" font-family="Helvetica,sans-Serif" font-size="10.00">K</text>
<polyline fill="none" stroke="#bfbfbf" points="21,-413.5 50,-413.5 "/>
<text text-anchor="middle" x="35.5" y="-401.5" font-family="Helvetica,sans-Serif" font-size="10.00"> </text>
<polyline fill="none" stroke="#bfbfbf" points="21,-394.5 50,-394.5 "/>
<text text-anchor="middle" x="35.5" y="-382.5" font-family="Helvetica,sans-Serif" font-size="10.00"> </text>
</a>
</g>
</g>
<!-- Node8&#45;&gt;Node7 -->
<g id="edge9" class="edge">
<title>Node8&#45;&gt;Node7</title>
<path fill="none" stroke="#404040" d="M35.5,-375.27C35.5,-345.28 35.5,-297.18 35.5,-263.08"/>
<polygon fill="none" stroke="#404040" points="35.5,-262.76 31.5,-256.76 35.5,-250.76 39.5,-256.76 35.5,-262.76"/>
<text text-anchor="middle" x="50" y="-349" font-family="Helvetica,sans-Serif" font-size="10.00"> +keys</text>
</g>
</g>
</svg>
