<?xml version="1.0" encoding="UTF-8" standalone="no"?>
<!DOCTYPE svg PUBLIC "-//W3C//DTD SVG 1.1//EN"
 "http://www.w3.org/Graphics/SVG/1.1/DTD/svg11.dtd">
<!-- Generated by graphviz version 2.49.3 (20211027.1534)
 -->
<!-- Title: altintegration::BaseBlockTree&lt; Block &gt; Pages: 1 -->
<svg width="344pt" height="860pt"
 viewBox="0.00 0.00 344.00 860.00" xmlns="http://www.w3.org/2000/svg" xmlns:xlink="http://www.w3.org/1999/xlink">
<g id="graph0" class="graph" transform="scale(1 1) rotate(0) translate(4 856)">
<title>altintegration::BaseBlockTree&lt; Block &gt;</title>
<polygon fill="white" stroke="transparent" points="-4,4 -4,-856 340,-856 340,4 -4,4"/>
<!-- Node1 -->
<g id="node1" class="node">
<title>Node1</title>
<g id="a_node1"><a xlink:title="Base block tree that stores all blocks, maintains tree tips, maintains active chain.">
<polygon fill="#bfbfbf" stroke="black" points="117,-0.5 117,-310.5 269,-310.5 269,-0.5 117,-0.5"/>
<text text-anchor="start" x="125" y="-298.5" font-family="Helvetica,sans-Serif" font-size="10.00">altintegration::BaseBlock</text>
<text text-anchor="middle" x="193" y="-287.5" font-family="Helvetica,sans-Serif" font-size="10.00">Tree&lt; Block &gt;</text>
<polyline fill="none" stroke="black" points="117,-280.5 269,-280.5 "/>
<text text-anchor="start" x="125" y="-268.5" font-family="Helvetica,sans-Serif" font-size="10.00">+ onBlockBeforeDeallocated</text>
<text text-anchor="start" x="125" y="-257.5" font-family="Helvetica,sans-Serif" font-size="10.00">+ onBlockValidityChanged</text>
<text text-anchor="start" x="125" y="-246.5" font-family="Helvetica,sans-Serif" font-size="10.00">+ onBeforeOverrideTip</text>
<text text-anchor="start" x="125" y="-235.5" font-family="Helvetica,sans-Serif" font-size="10.00"># isLoadingBlocks_</text>
<text text-anchor="start" x="125" y="-224.5" font-family="Helvetica,sans-Serif" font-size="10.00"># isLoaded_</text>
<text text-anchor="start" x="125" y="-213.5" font-family="Helvetica,sans-Serif" font-size="10.00"># tips_</text>
<text text-anchor="start" x="125" y="-202.5" font-family="Helvetica,sans-Serif" font-size="10.00"># activeChain_</text>
<text text-anchor="start" x="125" y="-191.5" font-family="Helvetica,sans-Serif" font-size="10.00"># finalizedPayloadsIndex_</text>
<text text-anchor="start" x="125" y="-180.5" font-family="Helvetica,sans-Serif" font-size="10.00"># payloadsIndex_</text>
<polyline fill="none" stroke="black" points="117,-173.5 269,-173.5 "/>
<text text-anchor="start" x="125" y="-161.5" font-family="Helvetica,sans-Serif" font-size="10.00">+ getTips()</text>
<text text-anchor="start" x="125" y="-150.5" font-family="Helvetica,sans-Serif" font-size="10.00">+ getBlocks()</text>
<text text-anchor="start" x="125" y="-139.5" font-family="Helvetica,sans-Serif" font-size="10.00">+ getAllBlocks()</text>
<text text-anchor="start" x="125" y="-128.5" font-family="Helvetica,sans-Serif" font-size="10.00">+ getBlockProvider()</text>
<text text-anchor="start" x="125" y="-117.5" font-family="Helvetica,sans-Serif" font-size="10.00">+ ~BaseBlockTree()</text>
<text text-anchor="start" x="125" y="-106.5" font-family="Helvetica,sans-Serif" font-size="10.00">+ BaseBlockTree()</text>
<text text-anchor="start" x="125" y="-95.5" font-family="Helvetica,sans-Serif" font-size="10.00">+ BaseBlockTree()</text>
<text text-anchor="start" x="125" y="-84.5" font-family="Helvetica,sans-Serif" font-size="10.00">+ operator=()</text>
<text text-anchor="start" x="125" y="-73.5" font-family="Helvetica,sans-Serif" font-size="10.00">+ BaseBlockTree()</text>
<text text-anchor="start" x="125" y="-62.5" font-family="Helvetica,sans-Serif" font-size="10.00">+ operator=()</text>
<text text-anchor="start" x="125" y="-51.5" font-family="Helvetica,sans-Serif" font-size="10.00">and 25 more...</text>
<text text-anchor="start" x="125" y="-40.5" font-family="Helvetica,sans-Serif" font-size="10.00"># deallocateBlock()</text>
<text text-anchor="start" x="125" y="-29.5" font-family="Helvetica,sans-Serif" font-size="10.00"># toPrettyString()</text>
<text text-anchor="start" x="125" y="-18.5" font-family="Helvetica,sans-Serif" font-size="10.00"># decreaseAppliedBlockCount()</text>
<text text-anchor="start" x="125" y="-7.5" font-family="Helvetica,sans-Serif" font-size="10.00"># decreaseAppliedBlockCount()</text>
</a>
</g>
</g>
<!-- Node2 -->
<g id="node2" class="node">
<title>Node2</title>
<g id="a_node2"><a xlink:title=" ">
<polygon fill="white" stroke="#bfbfbf" points="48.5,-402.5 48.5,-481.5 185.5,-481.5 185.5,-402.5 48.5,-402.5"/>
<text text-anchor="start" x="56.5" y="-469.5" font-family="Helvetica,sans-Serif" font-size="10.00">std::unordered_map</text>
<text text-anchor="start" x="56.5" y="-458.5" font-family="Helvetica,sans-Serif" font-size="10.00">&lt; prev_block_hash_t,</text>
<text text-anchor="middle" x="117" y="-447.5" font-family="Helvetica,sans-Serif" font-size="10.00"> std::unique_ptr&lt; index_t &gt; &gt;</text>
<polyline fill="none" stroke="#bfbfbf" points="48.5,-440.5 185.5,-440.5 "/>
<text text-anchor="start" x="56.5" y="-428.5" font-family="Helvetica,sans-Serif" font-size="10.00">+ keys</text>
<polyline fill="none" stroke="#bfbfbf" points="48.5,-421.5 185.5,-421.5 "/>
<text text-anchor="middle" x="117" y="-409.5" font-family="Helvetica,sans-Serif" font-size="10.00"> </text>
</a>
</g>
</g>
<!-- Node2&#45;&gt;Node1 -->
<g id="edge1" class="edge">
<title>Node2&#45;&gt;Node1</title>
<path fill="none" stroke="#404040" d="M127.33,-402.33C133.08,-380.81 140.68,-352.37 148.66,-322.49"/>
<polygon fill="none" stroke="#404040" points="148.76,-322.12 146.44,-315.29 151.85,-310.53 154.17,-317.36 148.76,-322.12"/>
<text text-anchor="middle" x="167" y="-332" font-family="Helvetica,sans-Serif" font-size="10.00"> #blocks_</text>
</g>
<!-- Node3 -->
<g id="node3" class="node">
<title>Node3</title>
<g id="a_node3"><a xlink:title=" ">
<polygon fill="white" stroke="#bfbfbf" points="2.5,-573.5 2.5,-630.5 129.5,-630.5 129.5,-573.5 2.5,-573.5"/>
<text text-anchor="middle" x="66" y="-618.5" font-family="Helvetica,sans-Serif" font-size="10.00">std::unique_ptr&lt; index_t &gt;</text>
<polyline fill="none" stroke="#bfbfbf" points="2.5,-611.5 129.5,-611.5 "/>
<text text-anchor="start" x="10.5" y="-599.5" font-family="Helvetica,sans-Serif" font-size="10.00">+ ptr</text>
<polyline fill="none" stroke="#bfbfbf" points="2.5,-592.5 129.5,-592.5 "/>
<text text-anchor="start" x="10.5" y="-580.5" font-family="Helvetica,sans-Serif" font-size="10.00">+ operator&#45;&gt;()</text>
</a>
</g>
</g>
<!-- Node3&#45;&gt;Node2 -->
<g id="edge2" class="edge">
<title>Node3&#45;&gt;Node2</title>
<path fill="none" stroke="#404040" d="M74.88,-573.48C82.02,-551.37 92.23,-519.75 100.81,-493.17"/>
<polygon fill="none" stroke="#404040" points="100.81,-493.17 98.84,-486.23 104.49,-481.75 106.46,-488.68 100.81,-493.17"/>
<text text-anchor="middle" x="108.5" y="-547" font-family="Helvetica,sans-Serif" font-size="10.00"> +elements</text>
</g>
<!-- Node4 -->
<g id="node4" class="node">
<title>Node4</title>
<g id="a_node4"><a xlink:title=" ">
<polygon fill="white" stroke="#bfbfbf" points="0,-684 0,-741 102,-741 102,-684 0,-684"/>
<text text-anchor="middle" x="51" y="-729" font-family="Helvetica,sans-Serif" font-size="10.00">std::unique_ptr&lt; T &gt;</text>
<polyline fill="none" stroke="#bfbfbf" points="0,-722 102,-722 "/>
<text text-anchor="middle" x="51" y="-710" font-family="Helvetica,sans-Serif" font-size="10.00"> </text>
<polyline fill="none" stroke="#bfbfbf" points="0,-703 102,-703 "/>
<text text-anchor="start" x="8" y="-691" font-family="Helvetica,sans-Serif" font-size="10.00">+ operator&#45;&gt;()</text>
</a>
</g>
</g>
<!-- Node4&#45;&gt;Node3 -->
<g id="edge3" class="edge">
<title>Node4&#45;&gt;Node3</title>
<path fill="none" stroke="orange" d="M56.2,-673.85C58.17,-659.64 60.37,-643.74 62.18,-630.61"/>
<polygon fill="orange" stroke="orange" points="52.73,-673.46 54.82,-683.84 59.66,-674.41 52.73,-673.46"/>
<text text-anchor="middle" x="85" y="-652" font-family="Helvetica,sans-Serif" font-size="10.00"> &lt; index_t &gt;</text>
</g>
<!-- Node5 -->
<g id="node5" class="node">
<title>Node5</title>
<g id="a_node5"><a xlink:title=" ">
<polygon fill="white" stroke="#bfbfbf" points="62.5,-794.5 62.5,-851.5 91.5,-851.5 91.5,-794.5 62.5,-794.5"/>
<text text-anchor="middle" x="77" y="-839.5" font-family="Helvetica,sans-Serif" font-size="10.00">T</text>
<polyline fill="none" stroke="#bfbfbf" points="62.5,-832.5 91.5,-832.5 "/>
<text text-anchor="middle" x="77" y="-820.5" font-family="Helvetica,sans-Serif" font-size="10.00"> </text>
<polyline fill="none" stroke="#bfbfbf" points="62.5,-813.5 91.5,-813.5 "/>
<text text-anchor="middle" x="77" y="-801.5" font-family="Helvetica,sans-Serif" font-size="10.00"> </text>
</a>
</g>
</g>
<!-- Node5&#45;&gt;Node4 -->
<g id="edge4" class="edge">
<title>Node5&#45;&gt;Node4</title>
<path fill="none" stroke="#404040" d="M62.51,-794.35C59.94,-788.43 57.59,-782.12 56,-776 54.12,-768.76 52.89,-760.9 52.09,-753.28"/>
<polygon fill="none" stroke="#404040" points="52.09,-753.19 47.63,-747.52 51.15,-741.22 55.61,-746.89 52.09,-753.19"/>
<text text-anchor="middle" x="66" y="-768" font-family="Helvetica,sans-Serif" font-size="10.00"> +ptr</text>
</g>
<!-- Node6 -->
<g id="node6" class="node">
<title>Node6</title>
<g id="a_node6"><a xlink:title=" ">
<polygon fill="white" stroke="#bfbfbf" points="120.5,-678.5 120.5,-746.5 221.5,-746.5 221.5,-678.5 120.5,-678.5"/>
<text text-anchor="start" x="128.5" y="-734.5" font-family="Helvetica,sans-Serif" font-size="10.00">std::unordered_map</text>
<text text-anchor="middle" x="171" y="-723.5" font-family="Helvetica,sans-Serif" font-size="10.00">&lt; K, T &gt;</text>
<polyline fill="none" stroke="#bfbfbf" points="120.5,-716.5 221.5,-716.5 "/>
<text text-anchor="middle" x="171" y="-704.5" font-family="Helvetica,sans-Serif" font-size="10.00"> </text>
<polyline fill="none" stroke="#bfbfbf" points="120.5,-697.5 221.5,-697.5 "/>
<text text-anchor="middle" x="171" y="-685.5" font-family="Helvetica,sans-Serif" font-size="10.00"> </text>
</a>
</g>
</g>
<!-- Node5&#45;&gt;Node6 -->
<g id="edge7" class="edge">
<title>Node5&#45;&gt;Node6</title>
<path fill="none" stroke="#404040" d="M91.52,-799.94C99,-789.07 108.53,-775.99 118,-765 120.72,-761.84 123.61,-758.66 126.57,-755.5"/>
<polygon fill="none" stroke="#404040" points="126.7,-755.36 128,-748.27 135.05,-746.74 133.75,-753.83 126.7,-755.36"/>
<text text-anchor="middle" x="142.5" y="-768" font-family="Helvetica,sans-Serif" font-size="10.00"> +elements</text>
</g>
<!-- Node6&#45;&gt;Node2 -->
<g id="edge5" class="edge">
<title>Node6&#45;&gt;Node2</title>
<path fill="none" stroke="orange" d="M162.35,-668.47C151.98,-616.93 134.77,-531.33 124.79,-481.76"/>
<polygon fill="orange" stroke="orange" points="158.92,-669.19 164.32,-678.31 165.78,-667.81 158.92,-669.19"/>
<text text-anchor="start" x="155" y="-605" font-family="Helvetica,sans-Serif" font-size="10.00"> &lt; prev_block_hash_t,</text>
<text text-anchor="middle" x="215.5" y="-594" font-family="Helvetica,sans-Serif" font-size="10.00"> std::unique_ptr&lt; index_t &gt; &gt;</text>
</g>
<!-- Node7 -->
<g id="node7" class="node">
<title>Node7</title>
<g id="a_node7"><a xlink:title=" ">
<polygon fill="white" stroke="#bfbfbf" points="156.5,-794.5 156.5,-851.5 185.5,-851.5 185.5,-794.5 156.5,-794.5"/>
<text text-anchor="middle" x="171" y="-839.5" font-family="Helvetica,sans-Serif" font-size="10.00">K</text>
<polyline fill="none" stroke="#bfbfbf" points="156.5,-832.5 185.5,-832.5 "/>
<text text-anchor="middle" x="171" y="-820.5" font-family="Helvetica,sans-Serif" font-size="10.00"> </text>
<polyline fill="none" stroke="#bfbfbf" points="156.5,-813.5 185.5,-813.5 "/>
<text text-anchor="middle" x="171" y="-801.5" font-family="Helvetica,sans-Serif" font-size="10.00"> </text>
</a>
</g>
</g>
<!-- Node7&#45;&gt;Node6 -->
<g id="edge6" class="edge">
<title>Node7&#45;&gt;Node6</title>
<path fill="none" stroke="#404040" d="M171,-794.34C171,-783.53 171,-770.85 171,-758.77"/>
<polygon fill="none" stroke="#404040" points="171,-758.52 167,-752.52 171,-746.52 175,-752.52 171,-758.52"/>
<text text-anchor="middle" x="185.5" y="-768" font-family="Helvetica,sans-Serif" font-size="10.00"> +keys</text>
</g>
<!-- Node8 -->
<g id="node8" class="node">
<title>Node8</title>
<g id="a_node8"><a xlink:href="structaltintegration_1_1BlockReader.html" target="_top" xlink:title="An abstraction over on&#45;disk storage iterator.">
<polygon fill="white" stroke="black" points="204,-358.5 204,-525.5 336,-525.5 336,-358.5 204,-358.5"/>
<text text-anchor="middle" x="270" y="-513.5" font-family="Helvetica,sans-Serif" font-size="10.00">altintegration::BlockReader</text>
<polyline fill="none" stroke="black" points="204,-506.5 336,-506.5 "/>
<text text-anchor="middle" x="270" y="-494.5" font-family="Helvetica,sans-Serif" font-size="10.00"> </text>
<polyline fill="none" stroke="black" points="204,-487.5 336,-487.5 "/>
<text text-anchor="start" x="212" y="-475.5" font-family="Helvetica,sans-Serif" font-size="10.00">+ ~BlockReader()</text>
<text text-anchor="start" x="212" y="-464.5" font-family="Helvetica,sans-Serif" font-size="10.00">+ getAltTip()</text>
<text text-anchor="start" x="212" y="-453.5" font-family="Helvetica,sans-Serif" font-size="10.00">+ getVbkTip()</text>
<text text-anchor="start" x="212" y="-442.5" font-family="Helvetica,sans-Serif" font-size="10.00">+ getBtcTip()</text>
<text text-anchor="start" x="212" y="-431.5" font-family="Helvetica,sans-Serif" font-size="10.00">+ getBlock()</text>
<text text-anchor="start" x="212" y="-420.5" font-family="Helvetica,sans-Serif" font-size="10.00">+ getBlock()</text>
<text text-anchor="start" x="212" y="-409.5" font-family="Helvetica,sans-Serif" font-size="10.00">+ getBlock()</text>
<text text-anchor="start" x="212" y="-398.5" font-family="Helvetica,sans-Serif" font-size="10.00">+ getAltBlockIterator()</text>
<text text-anchor="start" x="212" y="-387.5" font-family="Helvetica,sans-Serif" font-size="10.00">+ getVbkBlockIterator()</text>
<text text-anchor="start" x="212" y="-376.5" font-family="Helvetica,sans-Serif" font-size="10.00">+ getBtcBlockIterator()</text>
<text text-anchor="start" x="212" y="-365.5" font-family="Helvetica,sans-Serif" font-size="10.00">and 6 more...</text>
</a>
</g>
</g>
<!-- Node8&#45;&gt;Node1 -->
<g id="edge8" class="edge">
<title>Node8&#45;&gt;Node1</title>
<path fill="none" stroke="#404040" d="M247.62,-358.33C244.53,-346.89 241.26,-334.83 237.93,-322.52"/>
<polygon fill="none" stroke="#404040" points="237.86,-322.23 232.43,-317.49 234.72,-310.65 240.15,-315.4 237.86,-322.23"/>
<text text-anchor="middle" x="276.5" y="-332" font-family="Helvetica,sans-Serif" font-size="10.00"> #blockProvider_</text>
</g>
</g>
</svg>
