<?xml version="1.0" encoding="UTF-8" standalone="no"?>
<!DOCTYPE svg PUBLIC "-//W3C//DTD SVG 1.1//EN"
 "http://www.w3.org/Graphics/SVG/1.1/DTD/svg11.dtd">
<!-- Generated by graphviz version 2.47.0 (20210316.2052)
 -->
<!-- Title: altintegration::InmemBlockProvider Pages: 1 -->
<svg width="247pt" height="786pt"
 viewBox="0.00 0.00 246.50 786.00" xmlns="http://www.w3.org/2000/svg" xmlns:xlink="http://www.w3.org/1999/xlink">
<g id="graph0" class="graph" transform="scale(1 1) rotate(0) translate(4 782)">
<title>altintegration::InmemBlockProvider</title>
<polygon fill="white" stroke="transparent" points="-4,4 -4,-782 242.5,-782 242.5,4 -4,4"/>
<!-- Node1 -->
<g id="node1" class="node">
<title>Node1</title>
<g id="a_node1"><a xlink:title="In&#45;memory block storage, used in tests.">
<polygon fill="#bfbfbf" stroke="black" points="0,-0.5 0,-167.5 131,-167.5 131,-0.5 0,-0.5"/>
<text text-anchor="start" x="8" y="-155.5" font-family="Helvetica,sans-Serif" font-size="10.00">altintegration::InmemBlock</text>
<text text-anchor="middle" x="65.5" y="-144.5" font-family="Helvetica,sans-Serif" font-size="10.00">Provider</text>
<polyline fill="none" stroke="black" points="0,-137.5 131,-137.5 "/>
<text text-anchor="start" x="8" y="-125.5" font-family="Helvetica,sans-Serif" font-size="10.00">+ btc</text>
<text text-anchor="start" x="8" y="-114.5" font-family="Helvetica,sans-Serif" font-size="10.00">+ vbk</text>
<text text-anchor="start" x="8" y="-103.5" font-family="Helvetica,sans-Serif" font-size="10.00">+ alt</text>
<polyline fill="none" stroke="black" points="0,-96.5 131,-96.5 "/>
<text text-anchor="start" x="8" y="-84.5" font-family="Helvetica,sans-Serif" font-size="10.00">+ getBlocks()</text>
<text text-anchor="start" x="8" y="-73.5" font-family="Helvetica,sans-Serif" font-size="10.00">+ getTip()</text>
<text text-anchor="start" x="8" y="-62.5" font-family="Helvetica,sans-Serif" font-size="10.00">+ save()</text>
<text text-anchor="start" x="8" y="-51.5" font-family="Helvetica,sans-Serif" font-size="10.00">+ load()</text>
<text text-anchor="start" x="8" y="-40.5" font-family="Helvetica,sans-Serif" font-size="10.00">+ getBlocks()</text>
<text text-anchor="start" x="8" y="-29.5" font-family="Helvetica,sans-Serif" font-size="10.00">+ getTip()</text>
<text text-anchor="start" x="8" y="-18.5" font-family="Helvetica,sans-Serif" font-size="10.00">+ getTip()</text>
<text text-anchor="start" x="8" y="-7.5" font-family="Helvetica,sans-Serif" font-size="10.00">+ getTip()</text>
</a>
</g>
</g>
<!-- Node2 -->
<g id="node2" class="node">
<title>Node2</title>
<g id="a_node2"><a xlink:title=" ">
<polygon fill="white" stroke="#bfbfbf" points="2,-434.5 2,-491.5 109,-491.5 109,-434.5 2,-434.5"/>
<text text-anchor="middle" x="55.5" y="-479.5" font-family="Helvetica,sans-Serif" font-size="10.00">std::vector&lt; uint8_t &gt;</text>
<polyline fill="none" stroke="#bfbfbf" points="2,-472.5 109,-472.5 "/>
<text text-anchor="start" x="10" y="-460.5" font-family="Helvetica,sans-Serif" font-size="10.00">+ elements</text>
<polyline fill="none" stroke="#bfbfbf" points="2,-453.5 109,-453.5 "/>
<text text-anchor="middle" x="55.5" y="-441.5" font-family="Helvetica,sans-Serif" font-size="10.00"> </text>
</a>
</g>
</g>
<!-- Node2&#45;&gt;Node1 -->
<g id="edge1" class="edge">
<title>Node2&#45;&gt;Node1</title>
<path fill="none" stroke="#404040" d="M55.52,-434.38C55.63,-390.31 56.15,-301.36 58.5,-226 58.96,-211.12 59.6,-195.35 60.31,-179.97"/>
<polygon fill="none" stroke="#404040" points="60.32,-179.73 56.6,-173.54 60.88,-167.74 64.59,-173.92 60.32,-179.73"/>
<text text-anchor="middle" x="75" y="-318.5" font-family="Helvetica,sans-Serif" font-size="10.00"> +altTip</text>
</g>
<!-- Node3 -->
<g id="node3" class="node">
<title>Node3</title>
<g id="a_node3"><a xlink:title=" ">
<polygon fill="white" stroke="#bfbfbf" points="17.5,-615.5 17.5,-672.5 101.5,-672.5 101.5,-615.5 17.5,-615.5"/>
<text text-anchor="middle" x="59.5" y="-660.5" font-family="Helvetica,sans-Serif" font-size="10.00">std::vector&lt; T &gt;</text>
<polyline fill="none" stroke="#bfbfbf" points="17.5,-653.5 101.5,-653.5 "/>
<text text-anchor="middle" x="59.5" y="-641.5" font-family="Helvetica,sans-Serif" font-size="10.00"> </text>
<polyline fill="none" stroke="#bfbfbf" points="17.5,-634.5 101.5,-634.5 "/>
<text text-anchor="middle" x="59.5" y="-622.5" font-family="Helvetica,sans-Serif" font-size="10.00"> </text>
</a>
</g>
</g>
<!-- Node3&#45;&gt;Node2 -->
<g id="edge2" class="edge">
<title>Node3&#45;&gt;Node2</title>
<path fill="none" stroke="orange" d="M58.66,-605.4C57.9,-571.39 56.8,-522.1 56.12,-491.61"/>
<polygon fill="orange" stroke="orange" points="55.16,-605.5 58.88,-615.42 62.16,-605.35 55.16,-605.5"/>
<text text-anchor="middle" x="83" y="-589" font-family="Helvetica,sans-Serif" font-size="10.00"> &lt; uint8_t &gt;</text>
</g>
<!-- Node4 -->
<g id="node4" class="node">
<title>Node4</title>
<g id="a_node4"><a xlink:title=" ">
<polygon fill="white" stroke="#bfbfbf" points="94,-720.5 94,-777.5 123,-777.5 123,-720.5 94,-720.5"/>
<text text-anchor="middle" x="108.5" y="-765.5" font-family="Helvetica,sans-Serif" font-size="10.00">T</text>
<polyline fill="none" stroke="#bfbfbf" points="94,-758.5 123,-758.5 "/>
<text text-anchor="middle" x="108.5" y="-746.5" font-family="Helvetica,sans-Serif" font-size="10.00"> </text>
<polyline fill="none" stroke="#bfbfbf" points="94,-739.5 123,-739.5 "/>
<text text-anchor="middle" x="108.5" y="-727.5" font-family="Helvetica,sans-Serif" font-size="10.00"> </text>
</a>
</g>
</g>
<!-- Node4&#45;&gt;Node3 -->
<g id="edge3" class="edge">
<title>Node4&#45;&gt;Node3</title>
<path fill="none" stroke="#404040" d="M93.93,-726.03C89.32,-718.57 84.4,-710.08 80.5,-702 77.76,-696.33 75.16,-690.2 72.77,-684.14"/>
<polygon fill="none" stroke="#404040" points="72.7,-683.94 66.85,-679.72 68.49,-672.7 74.34,-676.92 72.7,-683.94"/>
<text text-anchor="middle" x="105" y="-694" font-family="Helvetica,sans-Serif" font-size="10.00"> +elements</text>
</g>
<!-- Node7 -->
<g id="node7" class="node">
<title>Node7</title>
<g id="a_node7"><a xlink:title=" ">
<polygon fill="white" stroke="#bfbfbf" points="120.5,-615.5 120.5,-672.5 198.5,-672.5 198.5,-615.5 120.5,-615.5"/>
<text text-anchor="middle" x="159.5" y="-660.5" font-family="Helvetica,sans-Serif" font-size="10.00">std::array&lt; T &gt;</text>
<polyline fill="none" stroke="#bfbfbf" points="120.5,-653.5 198.5,-653.5 "/>
<text text-anchor="middle" x="159.5" y="-641.5" font-family="Helvetica,sans-Serif" font-size="10.00"> </text>
<polyline fill="none" stroke="#bfbfbf" points="120.5,-634.5 198.5,-634.5 "/>
<text text-anchor="middle" x="159.5" y="-622.5" font-family="Helvetica,sans-Serif" font-size="10.00"> </text>
</a>
</g>
</g>
<!-- Node4&#45;&gt;Node7 -->
<g id="edge7" class="edge">
<title>Node4&#45;&gt;Node7</title>
<path fill="none" stroke="#404040" d="M122.17,-720.4C127.77,-709.08 134.35,-695.79 140.41,-683.54"/>
<polygon fill="none" stroke="#404040" points="140.47,-683.43 139.55,-676.28 145.8,-672.68 146.72,-679.83 140.47,-683.43"/>
<text text-anchor="middle" x="160" y="-694" font-family="Helvetica,sans-Serif" font-size="10.00"> +elements</text>
</g>
<!-- Node5 -->
<g id="node5" class="node">
<title>Node5</title>
<g id="a_node5"><a xlink:href="structaltintegration_1_1Blob.html" target="_top" xlink:title="Contiguous byte array of fixed size.">
<polygon fill="white" stroke="black" points="100.5,-226.5 100.5,-415.5 220.5,-415.5 220.5,-226.5 100.5,-226.5"/>
<text text-anchor="middle" x="160.5" y="-403.5" font-family="Helvetica,sans-Serif" font-size="10.00">altintegration::Blob&lt; N &gt;</text>
<polyline fill="none" stroke="black" points="100.5,-396.5 220.5,-396.5 "/>
<text text-anchor="start" x="108.5" y="-384.5" font-family="Helvetica,sans-Serif" font-size="10.00">+ this</text>
<polyline fill="none" stroke="black" points="100.5,-377.5 220.5,-377.5 "/>
<text text-anchor="start" x="108.5" y="-365.5" font-family="Helvetica,sans-Serif" font-size="10.00">+ Blob()</text>
<text text-anchor="start" x="108.5" y="-354.5" font-family="Helvetica,sans-Serif" font-size="10.00">+ Blob()</text>
<text text-anchor="start" x="108.5" y="-343.5" font-family="Helvetica,sans-Serif" font-size="10.00">+ Blob()</text>
<text text-anchor="start" x="108.5" y="-332.5" font-family="Helvetica,sans-Serif" font-size="10.00">+ Blob()</text>
<text text-anchor="start" x="108.5" y="-321.5" font-family="Helvetica,sans-Serif" font-size="10.00">+ Blob()</text>
<text text-anchor="start" x="108.5" y="-310.5" font-family="Helvetica,sans-Serif" font-size="10.00">+ operator=()</text>
<text text-anchor="start" x="108.5" y="-299.5" font-family="Helvetica,sans-Serif" font-size="10.00">+ operator=()</text>
<text text-anchor="start" x="108.5" y="-288.5" font-family="Helvetica,sans-Serif" font-size="10.00">+ reverse()</text>
<text text-anchor="start" x="108.5" y="-277.5" font-family="Helvetica,sans-Serif" font-size="10.00">+ operator~()</text>
<text text-anchor="start" x="108.5" y="-266.5" font-family="Helvetica,sans-Serif" font-size="10.00">+ asVector()</text>
<text text-anchor="start" x="108.5" y="-255.5" font-family="Helvetica,sans-Serif" font-size="10.00">and 9 more...</text>
<text text-anchor="start" x="108.5" y="-244.5" font-family="Helvetica,sans-Serif" font-size="10.00"># assign()</text>
<text text-anchor="start" x="108.5" y="-233.5" font-family="Helvetica,sans-Serif" font-size="10.00"># assign()</text>
</a>
</g>
</g>
<!-- Node5&#45;&gt;Node1 -->
<g id="edge4" class="edge">
<title>Node5&#45;&gt;Node1</title>
<path fill="none" stroke="#404040" d="M122.68,-226.45C116.35,-210.79 109.78,-194.54 103.45,-178.88"/>
<polygon fill="none" stroke="#404040" points="103.39,-178.72 97.43,-174.66 98.89,-167.59 104.85,-171.66 103.39,-178.72"/>
<text text-anchor="middle" x="130.5" y="-200" font-family="Helvetica,sans-Serif" font-size="10.00"> +btcTip</text>
<text text-anchor="middle" x="130.5" y="-189" font-family="Helvetica,sans-Serif" font-size="10.00">+vbkTip</text>
</g>
<!-- Node6 -->
<g id="node6" class="node">
<title>Node6</title>
<g id="a_node6"><a xlink:title=" ">
<polygon fill="white" stroke="#bfbfbf" points="94,-510.5 94,-567.5 225,-567.5 225,-510.5 94,-510.5"/>
<text text-anchor="middle" x="159.5" y="-555.5" font-family="Helvetica,sans-Serif" font-size="10.00">std::array&lt; value_type, N &gt;</text>
<polyline fill="none" stroke="#bfbfbf" points="94,-548.5 225,-548.5 "/>
<text text-anchor="start" x="102" y="-536.5" font-family="Helvetica,sans-Serif" font-size="10.00">+ elements</text>
<polyline fill="none" stroke="#bfbfbf" points="94,-529.5 225,-529.5 "/>
<text text-anchor="middle" x="159.5" y="-517.5" font-family="Helvetica,sans-Serif" font-size="10.00"> </text>
</a>
</g>
</g>
<!-- Node6&#45;&gt;Node5 -->
<g id="edge5" class="edge">
<title>Node6&#45;&gt;Node5</title>
<path fill="none" stroke="#404040" d="M159.63,-510.2C159.73,-488.98 159.87,-458.29 160.01,-427.83"/>
<polygon fill="none" stroke="#404040" points="160.01,-427.73 156.04,-421.71 160.07,-415.73 164.04,-421.75 160.01,-427.73"/>
<text text-anchor="middle" x="175.5" y="-460.5" font-family="Helvetica,sans-Serif" font-size="10.00"> #data_</text>
</g>
<!-- Node7&#45;&gt;Node6 -->
<g id="edge6" class="edge">
<title>Node7&#45;&gt;Node6</title>
<path fill="none" stroke="orange" d="M159.5,-605.29C159.5,-592.84 159.5,-579.23 159.5,-567.68"/>
<polygon fill="orange" stroke="orange" points="156,-605.4 159.5,-615.4 163,-605.4 156,-605.4"/>
<text text-anchor="middle" x="199" y="-589" font-family="Helvetica,sans-Serif" font-size="10.00"> &lt; value_type, N &gt;</text>
</g>
</g>
</svg>
