<?xml version="1.0" encoding="UTF-8" standalone="no"?>
<!DOCTYPE svg PUBLIC "-//W3C//DTD SVG 1.1//EN"
 "http://www.w3.org/Graphics/SVG/1.1/DTD/svg11.dtd">
<!-- Generated by graphviz version 3.0.0 (20220413.0242)
 -->
<!-- Title: altintegration::CacheEntry Pages: 1 -->
<svg width="355pt" height="425pt"
 viewBox="0.00 0.00 355.00 425.00" xmlns="http://www.w3.org/2000/svg" xmlns:xlink="http://www.w3.org/1999/xlink">
<g id="graph0" class="graph" transform="scale(1 1) rotate(0) translate(4 421)">
<title>altintegration::CacheEntry</title>
<polygon fill="white" stroke="transparent" points="-4,4 -4,-421 351,-421 351,4 -4,4"/>
<!-- Node1 -->
<g id="node1" class="node">
<title>Node1</title>
<g id="a_node1"><a xlink:title=" ">
<polygon fill="#bfbfbf" stroke="black" points="155.5,-0.5 155.5,-57.5 281.5,-57.5 281.5,-0.5 155.5,-0.5"/>
<text text-anchor="middle" x="218.5" y="-45.5" font-family="Helvetica,sans-Serif" font-size="10.00">altintegration::CacheEntry</text>
<polyline fill="none" stroke="black" points="155.5,-38.5 281.5,-38.5 "/>
<text text-anchor="middle" x="218.5" y="-26.5" font-family="Helvetica,sans-Serif" font-size="10.00"> </text>
<polyline fill="none" stroke="black" points="155.5,-19.5 281.5,-19.5 "/>
<text text-anchor="start" x="163.5" y="-7.5" font-family="Helvetica,sans-Serif" font-size="10.00">+ toVbkEncoding()</text>
</a>
</g>
</g>
<!-- Node2 -->
<g id="node2" class="node">
<title>Node2</title>
<g id="a_node2"><a xlink:title=" ">
<polygon fill="white" stroke="black" points="88,-105.5 88,-173.5 213,-173.5 213,-105.5 88,-105.5"/>
<text text-anchor="start" x="96" y="-161.5" font-family="Helvetica,sans-Serif" font-size="10.00">std::shared_ptr&lt; progpow</text>
<text text-anchor="middle" x="150.5" y="-150.5" font-family="Helvetica,sans-Serif" font-size="10.00">::ethash_cache &gt;</text>
<polyline fill="none" stroke="black" points="88,-143.5 213,-143.5 "/>
<text text-anchor="middle" x="150.5" y="-131.5" font-family="Helvetica,sans-Serif" font-size="10.00"> </text>
<polyline fill="none" stroke="black" points="88,-124.5 213,-124.5 "/>
<text text-anchor="start" x="96" y="-112.5" font-family="Helvetica,sans-Serif" font-size="10.00">+ operator&#45;&gt;()</text>
</a>
</g>
</g>
<!-- Node2&#45;&gt;Node1 -->
<g id="edge1" class="edge">
<title>Node2&#45;&gt;Node1</title>
<path fill="none" stroke="#404040" d="M171.27,-105.36C178.64,-93.6 187,-80.27 194.61,-68.12"/>
<polygon fill="none" stroke="#404040" points="194.69,-68 194.48,-60.79 201.06,-57.83 201.26,-65.04 194.69,-68"/>
<text text-anchor="middle" x="203" y="-79" font-family="Helvetica,sans-Serif" font-size="10.00"> +light</text>
</g>
<!-- Node3 -->
<g id="node3" class="node">
<title>Node3</title>
<g id="a_node3"><a xlink:title=" ">
<polygon fill="white" stroke="#bfbfbf" points="0,-221.5 0,-311.5 113,-311.5 113,-221.5 0,-221.5"/>
<text text-anchor="start" x="8" y="-299.5" font-family="Helvetica,sans-Serif" font-size="10.00">altintegration::progpow</text>
<text text-anchor="middle" x="56.5" y="-288.5" font-family="Helvetica,sans-Serif" font-size="10.00">::ethash_cache</text>
<polyline fill="none" stroke="#bfbfbf" points="0,-281.5 113,-281.5 "/>
<text text-anchor="start" x="8" y="-269.5" font-family="Helvetica,sans-Serif" font-size="10.00">+ cache</text>
<text text-anchor="start" x="8" y="-258.5" font-family="Helvetica,sans-Serif" font-size="10.00">+ cache_size</text>
<text text-anchor="start" x="8" y="-247.5" font-family="Helvetica,sans-Serif" font-size="10.00">+ epoch</text>
<polyline fill="none" stroke="#bfbfbf" points="0,-240.5 113,-240.5 "/>
<text text-anchor="middle" x="56.5" y="-228.5" font-family="Helvetica,sans-Serif" font-size="10.00"> </text>
</a>
</g>
</g>
<!-- Node3&#45;&gt;Node2 -->
<g id="edge2" class="edge">
<title>Node3&#45;&gt;Node2</title>
<path fill="none" stroke="#404040" d="M89.64,-221.43C98.98,-209.01 109.13,-195.52 118.41,-183.17"/>
<polygon fill="none" stroke="#404040" points="118.42,-183.16 118.83,-175.96 125.63,-173.57 125.22,-180.77 118.42,-183.16"/>
<text text-anchor="middle" x="119.5" y="-195" font-family="Helvetica,sans-Serif" font-size="10.00"> +ptr</text>
</g>
<!-- Node4 -->
<g id="node4" class="node">
<title>Node4</title>
<g id="a_node4"><a xlink:title=" ">
<polygon fill="white" stroke="black" points="131,-238 131,-295 234,-295 234,-238 131,-238"/>
<text text-anchor="middle" x="182.5" y="-283" font-family="Helvetica,sans-Serif" font-size="10.00">std::shared_ptr&lt; T &gt;</text>
<polyline fill="none" stroke="black" points="131,-276 234,-276 "/>
<text text-anchor="middle" x="182.5" y="-264" font-family="Helvetica,sans-Serif" font-size="10.00"> </text>
<polyline fill="none" stroke="black" points="131,-257 234,-257 "/>
<text text-anchor="start" x="139" y="-245" font-family="Helvetica,sans-Serif" font-size="10.00">+ operator&#45;&gt;()</text>
</a>
</g>
</g>
<!-- Node4&#45;&gt;Node2 -->
<g id="edge3" class="edge">
<title>Node4&#45;&gt;Node2</title>
<path fill="none" stroke="orange" d="M172.91,-228.03C168.51,-210.84 163.33,-190.62 159.06,-173.94"/>
<polygon fill="orange" stroke="orange" points="169.53,-228.94 175.4,-237.76 176.31,-227.2 169.53,-228.94"/>
<text text-anchor="middle" x="227" y="-195" font-family="Helvetica,sans-Serif" font-size="10.00"> &lt; progpow::ethash_cache &gt;</text>
</g>
<!-- Node5 -->
<g id="node5" class="node">
<title>Node5</title>
<g id="a_node5"><a xlink:title=" ">
<polygon fill="white" stroke="#bfbfbf" points="223,-359.5 223,-416.5 252,-416.5 252,-359.5 223,-359.5"/>
<text text-anchor="middle" x="237.5" y="-404.5" font-family="Helvetica,sans-Serif" font-size="10.00">T</text>
<polyline fill="none" stroke="#bfbfbf" points="223,-397.5 252,-397.5 "/>
<text text-anchor="middle" x="237.5" y="-385.5" font-family="Helvetica,sans-Serif" font-size="10.00"> </text>
<polyline fill="none" stroke="#bfbfbf" points="223,-378.5 252,-378.5 "/>
<text text-anchor="middle" x="237.5" y="-366.5" font-family="Helvetica,sans-Serif" font-size="10.00"> </text>
</a>
</g>
</g>
<!-- Node5&#45;&gt;Node4 -->
<g id="edge4" class="edge">
<title>Node5&#45;&gt;Node4</title>
<path fill="none" stroke="#404040" d="M224.74,-359.28C217.45,-343.45 208.2,-323.35 200.22,-306"/>
<polygon fill="none" stroke="#404040" points="200.2,-305.97 194.06,-302.19 195.19,-295.07 201.33,-298.84 200.2,-305.97"/>
<text text-anchor="middle" x="225.5" y="-333" font-family="Helvetica,sans-Serif" font-size="10.00"> +ptr</text>
</g>
<!-- Node7 -->
<g id="node7" class="node">
<title>Node7</title>
<g id="a_node7"><a xlink:title=" ">
<polygon fill="white" stroke="black" points="252.5,-238 252.5,-295 336.5,-295 336.5,-238 252.5,-238"/>
<text text-anchor="middle" x="294.5" y="-283" font-family="Helvetica,sans-Serif" font-size="10.00">std::vector&lt; T &gt;</text>
<polyline fill="none" stroke="black" points="252.5,-276 336.5,-276 "/>
<text text-anchor="middle" x="294.5" y="-264" font-family="Helvetica,sans-Serif" font-size="10.00"> </text>
<polyline fill="none" stroke="black" points="252.5,-257 336.5,-257 "/>
<text text-anchor="middle" x="294.5" y="-245" font-family="Helvetica,sans-Serif" font-size="10.00"> </text>
</a>
</g>
</g>
<!-- Node5&#45;&gt;Node7 -->
<g id="edge7" class="edge">
<title>Node5&#45;&gt;Node7</title>
<path fill="none" stroke="#404040" d="M250.72,-359.28C258.27,-343.45 267.86,-323.35 276.14,-306"/>
<polygon fill="none" stroke="#404040" points="276.19,-305.9 275.16,-298.76 281.35,-295.07 282.38,-302.2 276.19,-305.9"/>
<text text-anchor="middle" x="289" y="-333" font-family="Helvetica,sans-Serif" font-size="10.00"> +elements</text>
</g>
<!-- Node6 -->
<g id="node6" class="node">
<title>Node6</title>
<g id="a_node6"><a xlink:title=" ">
<polygon fill="white" stroke="black" points="234,-111 234,-168 347,-168 347,-111 234,-111"/>
<text text-anchor="middle" x="290.5" y="-156" font-family="Helvetica,sans-Serif" font-size="10.00">std::vector&lt; uint32_t &gt;</text>
<polyline fill="none" stroke="black" points="234,-149 347,-149 "/>
<text text-anchor="start" x="242" y="-137" font-family="Helvetica,sans-Serif" font-size="10.00">+ elements</text>
<polyline fill="none" stroke="black" points="234,-130 347,-130 "/>
<text text-anchor="middle" x="290.5" y="-118" font-family="Helvetica,sans-Serif" font-size="10.00"> </text>
</a>
</g>
</g>
<!-- Node6&#45;&gt;Node1 -->
<g id="edge5" class="edge">
<title>Node6&#45;&gt;Node1</title>
<path fill="none" stroke="#404040" d="M272.15,-110.84C263.51,-97.83 253.08,-82.11 243.72,-68.01"/>
<polygon fill="none" stroke="#404040" points="243.46,-67.61 236.81,-64.82 236.82,-57.61 243.47,-60.4 243.46,-67.61"/>
<text text-anchor="middle" x="267" y="-79" font-family="Helvetica,sans-Serif" font-size="10.00"> +dag</text>
</g>
<!-- Node7&#45;&gt;Node6 -->
<g id="edge6" class="edge">
<title>Node7&#45;&gt;Node6</title>
<path fill="none" stroke="orange" d="M293.29,-227.56C292.67,-208.42 291.94,-185.63 291.39,-168.16"/>
<polygon fill="orange" stroke="orange" points="289.79,-227.88 293.61,-237.76 296.79,-227.65 289.79,-227.88"/>
<text text-anchor="middle" x="319.5" y="-195" font-family="Helvetica,sans-Serif" font-size="10.00"> &lt; uint32_t &gt;</text>
</g>
</g>
</svg>
