<?xml version="1.0" encoding="UTF-8" standalone="no"?>
<!DOCTYPE svg PUBLIC "-//W3C//DTD SVG 1.1//EN"
 "http://www.w3.org/Graphics/SVG/1.1/DTD/svg11.dtd">
<!-- Generated by graphviz version 2.44.0 ()
 -->
<!-- Title: altintegration::btc::TxIn Pages: 1 -->
<svg width="438pt" height="849pt"
 viewBox="0.00 0.00 437.50 849.00" xmlns="http://www.w3.org/2000/svg" xmlns:xlink="http://www.w3.org/1999/xlink">
<g id="graph0" class="graph" transform="scale(1 1) rotate(0) translate(4 845)">
<title>altintegration::btc::TxIn</title>
<polygon fill="white" stroke="transparent" points="-4,4 -4,-845 433.5,-845 433.5,4 -4,4"/>
<!-- Node1 -->
<g id="node1" class="node">
<title>Node1</title>
<g id="a_node1"><a xlink:title="An input of a transaction.">
<polygon fill="#bfbfbf" stroke="black" points="74,-0.5 74,-79.5 229,-79.5 229,-0.5 74,-0.5"/>
<text text-anchor="start" x="82" y="-67.5" font-family="Helvetica,sans-Serif" font-size="10.00">altintegration::btc</text>
<text text-anchor="middle" x="151.5" y="-56.5" font-family="Helvetica,sans-Serif" font-size="10.00">::TxIn</text>
<polyline fill="none" stroke="black" points="74,-49.5 229,-49.5 "/>
<text text-anchor="start" x="82" y="-37.5" font-family="Helvetica,sans-Serif" font-size="10.00">+ nSequence</text>
<text text-anchor="start" x="82" y="-26.5" font-family="Helvetica,sans-Serif" font-size="10.00">+ ADD_SERIALIZE_METHODS</text>
<polyline fill="none" stroke="black" points="74,-19.5 229,-19.5 "/>
<text text-anchor="start" x="82" y="-7.5" font-family="Helvetica,sans-Serif" font-size="10.00">+ SerializationOp()</text>
</a>
</g>
</g>
<!-- Node2 -->
<g id="node2" class="node">
<title>Node2</title>
<g id="a_node2"><a xlink:title=" ">
<polygon fill="white" stroke="#bfbfbf" points="0,-337 0,-394 107,-394 107,-337 0,-337"/>
<text text-anchor="middle" x="53.5" y="-382" font-family="Helvetica,sans-Serif" font-size="10.00">std::vector&lt; uint8_t &gt;</text>
<polyline fill="none" stroke="#bfbfbf" points="0,-375 107,-375 "/>
<text text-anchor="start" x="8" y="-363" font-family="Helvetica,sans-Serif" font-size="10.00">+ elements</text>
<polyline fill="none" stroke="#bfbfbf" points="0,-356 107,-356 "/>
<text text-anchor="middle" x="53.5" y="-344" font-family="Helvetica,sans-Serif" font-size="10.00"> </text>
</a>
</g>
</g>
<!-- Node2&#45;&gt;Node1 -->
<g id="edge1" class="edge">
<title>Node2&#45;&gt;Node1</title>
<path fill="none" stroke="#404040" d="M43,-336.74C27.33,-290.51 3.13,-195.98 37.5,-127 45.06,-111.82 56.72,-98.62 69.75,-87.41"/>
<polygon fill="none" stroke="#404040" points="70.09,-87.13 72.26,-80.26 79.44,-79.61 77.27,-86.48 70.09,-87.13"/>
<text text-anchor="middle" x="61" y="-164.5" font-family="Helvetica,sans-Serif" font-size="10.00"> +scriptSig</text>
</g>
<!-- Node5 -->
<g id="node5" class="node">
<title>Node5</title>
<g id="a_node5"><a xlink:title=" ">
<polygon fill="white" stroke="#bfbfbf" points="94,-133 94,-201 209,-201 209,-133 94,-133"/>
<text text-anchor="start" x="102" y="-189" font-family="Helvetica,sans-Serif" font-size="10.00">std::vector&lt; std::vector</text>
<text text-anchor="middle" x="151.5" y="-178" font-family="Helvetica,sans-Serif" font-size="10.00">&lt; uint8_t &gt; &gt;</text>
<polyline fill="none" stroke="#bfbfbf" points="94,-171 209,-171 "/>
<text text-anchor="middle" x="151.5" y="-159" font-family="Helvetica,sans-Serif" font-size="10.00"> </text>
<polyline fill="none" stroke="#bfbfbf" points="94,-152 209,-152 "/>
<text text-anchor="middle" x="151.5" y="-140" font-family="Helvetica,sans-Serif" font-size="10.00"> </text>
</a>
</g>
</g>
<!-- Node2&#45;&gt;Node5 -->
<g id="edge5" class="edge">
<title>Node2&#45;&gt;Node5</title>
<path fill="none" stroke="#404040" d="M53.36,-336.82C54.4,-307.15 59.6,-259.64 80.5,-225 83.73,-219.64 87.67,-214.57 92,-209.84"/>
<polygon fill="none" stroke="#404040" points="92.25,-209.6 93.69,-202.53 100.77,-201.15 99.32,-208.21 92.25,-209.6"/>
<text text-anchor="middle" x="105" y="-228" font-family="Helvetica,sans-Serif" font-size="10.00"> +elements</text>
</g>
<!-- Node3 -->
<g id="node3" class="node">
<title>Node3</title>
<g id="a_node3"><a xlink:title=" ">
<polygon fill="white" stroke="#bfbfbf" points="69.5,-601.5 69.5,-658.5 153.5,-658.5 153.5,-601.5 69.5,-601.5"/>
<text text-anchor="middle" x="111.5" y="-646.5" font-family="Helvetica,sans-Serif" font-size="10.00">std::vector&lt; T &gt;</text>
<polyline fill="none" stroke="#bfbfbf" points="69.5,-639.5 153.5,-639.5 "/>
<text text-anchor="middle" x="111.5" y="-627.5" font-family="Helvetica,sans-Serif" font-size="10.00"> </text>
<polyline fill="none" stroke="#bfbfbf" points="69.5,-620.5 153.5,-620.5 "/>
<text text-anchor="middle" x="111.5" y="-608.5" font-family="Helvetica,sans-Serif" font-size="10.00"> </text>
</a>
</g>
</g>
<!-- Node3&#45;&gt;Node2 -->
<g id="edge2" class="edge">
<title>Node3&#45;&gt;Node2</title>
<path fill="none" stroke="orange" d="M101.44,-591.38C95.09,-567.09 86.91,-534.78 80.5,-506 71.9,-467.35 63.47,-422.33 58.38,-394.12"/>
<polygon fill="orange" stroke="orange" points="98.11,-592.48 104.04,-601.26 104.88,-590.7 98.11,-592.48"/>
<text text-anchor="middle" x="105" y="-498" font-family="Helvetica,sans-Serif" font-size="10.00"> &lt; uint8_t &gt;</text>
</g>
<!-- Node3&#45;&gt;Node5 -->
<g id="edge6" class="edge">
<title>Node3&#45;&gt;Node5</title>
<path fill="none" stroke="orange" d="M117.81,-591.35C121.68,-567.05 126.47,-534.73 129.5,-506 141.26,-394.6 147.7,-261.83 150.23,-201.18"/>
<polygon fill="orange" stroke="orange" points="114.35,-590.81 116.21,-601.24 121.26,-591.92 114.35,-590.81"/>
<text text-anchor="start" x="148.5" y="-368.5" font-family="Helvetica,sans-Serif" font-size="10.00"> &lt; std::vector&lt; uint8</text>
<text text-anchor="middle" x="191" y="-357.5" font-family="Helvetica,sans-Serif" font-size="10.00">_t &gt; &gt;</text>
</g>
<!-- Node4 -->
<g id="node4" class="node">
<title>Node4</title>
<g id="a_node4"><a xlink:title=" ">
<polygon fill="white" stroke="#bfbfbf" points="97,-783.5 97,-840.5 126,-840.5 126,-783.5 97,-783.5"/>
<text text-anchor="middle" x="111.5" y="-828.5" font-family="Helvetica,sans-Serif" font-size="10.00">T</text>
<polyline fill="none" stroke="#bfbfbf" points="97,-821.5 126,-821.5 "/>
<text text-anchor="middle" x="111.5" y="-809.5" font-family="Helvetica,sans-Serif" font-size="10.00"> </text>
<polyline fill="none" stroke="#bfbfbf" points="97,-802.5 126,-802.5 "/>
<text text-anchor="middle" x="111.5" y="-790.5" font-family="Helvetica,sans-Serif" font-size="10.00"> </text>
</a>
</g>
</g>
<!-- Node4&#45;&gt;Node3 -->
<g id="edge3" class="edge">
<title>Node4&#45;&gt;Node3</title>
<path fill="none" stroke="#404040" d="M111.5,-783.27C111.5,-753.28 111.5,-705.18 111.5,-671.08"/>
<polygon fill="none" stroke="#404040" points="111.5,-670.76 107.5,-664.76 111.5,-658.76 115.5,-664.76 111.5,-670.76"/>
<text text-anchor="middle" x="136" y="-757" font-family="Helvetica,sans-Serif" font-size="10.00"> +elements</text>
</g>
<!-- Node5&#45;&gt;Node1 -->
<g id="edge4" class="edge">
<title>Node5&#45;&gt;Node1</title>
<path fill="none" stroke="#404040" d="M151.5,-132.83C151.5,-120.32 151.5,-105.77 151.5,-92"/>
<polygon fill="none" stroke="#404040" points="151.5,-91.65 147.5,-85.65 151.5,-79.65 155.5,-85.65 151.5,-91.65"/>
<text text-anchor="middle" x="185.5" y="-101" font-family="Helvetica,sans-Serif" font-size="10.00"> +scriptWitness</text>
</g>
<!-- Node6 -->
<g id="node6" class="node">
<title>Node6</title>
<g id="a_node6"><a xlink:href="structaltintegration_1_1btc_1_1OutPoint.html" target="_top" xlink:title="An outpoint &#45; a combination of a transaction hash and an index n into its vout.">
<polygon fill="white" stroke="black" points="231,-127.5 231,-206.5 386,-206.5 386,-127.5 231,-127.5"/>
<text text-anchor="start" x="239" y="-194.5" font-family="Helvetica,sans-Serif" font-size="10.00">altintegration::btc</text>
<text text-anchor="middle" x="308.5" y="-183.5" font-family="Helvetica,sans-Serif" font-size="10.00">::OutPoint</text>
<polyline fill="none" stroke="black" points="231,-176.5 386,-176.5 "/>
<text text-anchor="start" x="239" y="-164.5" font-family="Helvetica,sans-Serif" font-size="10.00">+ n</text>
<text text-anchor="start" x="239" y="-153.5" font-family="Helvetica,sans-Serif" font-size="10.00">+ ADD_SERIALIZE_METHODS</text>
<polyline fill="none" stroke="black" points="231,-146.5 386,-146.5 "/>
<text text-anchor="start" x="239" y="-134.5" font-family="Helvetica,sans-Serif" font-size="10.00">+ SerializationOp()</text>
</a>
</g>
</g>
<!-- Node6&#45;&gt;Node1 -->
<g id="edge7" class="edge">
<title>Node6&#45;&gt;Node1</title>
<path fill="none" stroke="#404040" d="M260.44,-127.48C248.39,-117.84 235.48,-107.53 223.5,-98 219.06,-94.46 214.45,-90.81 209.83,-87.13"/>
<polygon fill="none" stroke="#404040" points="209.73,-87.06 202.54,-86.46 200.33,-79.6 207.51,-80.19 209.73,-87.06"/>
<text text-anchor="middle" x="256" y="-101" font-family="Helvetica,sans-Serif" font-size="10.00"> +prevout</text>
</g>
<!-- Node7 -->
<g id="node7" class="node">
<title>Node7</title>
<g id="a_node7"><a xlink:href="structaltintegration_1_1Blob.html" target="_top" xlink:title=" ">
<polygon fill="white" stroke="black" points="247,-254.5 247,-476.5 378,-476.5 378,-254.5 247,-254.5"/>
<text text-anchor="start" x="255" y="-464.5" font-family="Helvetica,sans-Serif" font-size="10.00">altintegration::Blob</text>
<text text-anchor="middle" x="312.5" y="-453.5" font-family="Helvetica,sans-Serif" font-size="10.00">&lt; SHA256_HASH_SIZE &gt;</text>
<polyline fill="none" stroke="black" points="247,-446.5 378,-446.5 "/>
<text text-anchor="start" x="255" y="-434.5" font-family="Helvetica,sans-Serif" font-size="10.00">+ data_</text>
<text text-anchor="start" x="255" y="-423.5" font-family="Helvetica,sans-Serif" font-size="10.00">+ this</text>
<polyline fill="none" stroke="black" points="247,-416.5 378,-416.5 "/>
<text text-anchor="start" x="255" y="-404.5" font-family="Helvetica,sans-Serif" font-size="10.00">+ Blob()</text>
<text text-anchor="start" x="255" y="-393.5" font-family="Helvetica,sans-Serif" font-size="10.00">+ Blob()</text>
<text text-anchor="start" x="255" y="-382.5" font-family="Helvetica,sans-Serif" font-size="10.00">+ Blob()</text>
<text text-anchor="start" x="255" y="-371.5" font-family="Helvetica,sans-Serif" font-size="10.00">+ Blob()</text>
<text text-anchor="start" x="255" y="-360.5" font-family="Helvetica,sans-Serif" font-size="10.00">+ Blob()</text>
<text text-anchor="start" x="255" y="-349.5" font-family="Helvetica,sans-Serif" font-size="10.00">+ operator=()</text>
<text text-anchor="start" x="255" y="-338.5" font-family="Helvetica,sans-Serif" font-size="10.00">+ operator=()</text>
<text text-anchor="start" x="255" y="-327.5" font-family="Helvetica,sans-Serif" font-size="10.00">+ reverse()</text>
<text text-anchor="start" x="255" y="-316.5" font-family="Helvetica,sans-Serif" font-size="10.00">+ operator~()</text>
<text text-anchor="start" x="255" y="-305.5" font-family="Helvetica,sans-Serif" font-size="10.00">+ asVector()</text>
<text text-anchor="start" x="255" y="-294.5" font-family="Helvetica,sans-Serif" font-size="10.00">+ asString()</text>
<text text-anchor="start" x="255" y="-283.5" font-family="Helvetica,sans-Serif" font-size="10.00">+ operator[]()</text>
<text text-anchor="start" x="255" y="-272.5" font-family="Helvetica,sans-Serif" font-size="10.00">+ operator[]()</text>
<text text-anchor="start" x="255" y="-261.5" font-family="Helvetica,sans-Serif" font-size="10.00">+ compareTo()</text>
</a>
</g>
</g>
<!-- Node7&#45;&gt;Node6 -->
<g id="edge8" class="edge">
<title>Node7&#45;&gt;Node6</title>
<path fill="none" stroke="#404040" d="M310.26,-254.47C310.01,-241.98 309.76,-229.75 309.53,-218.6"/>
<polygon fill="none" stroke="#404040" points="309.53,-218.51 305.41,-212.6 309.28,-206.52 313.41,-212.43 309.53,-218.51"/>
<text text-anchor="middle" x="325.5" y="-228" font-family="Helvetica,sans-Serif" font-size="10.00"> +hash</text>
</g>
<!-- Node8 -->
<g id="node8" class="node">
<title>Node8</title>
<g id="a_node8"><a xlink:href="structaltintegration_1_1Blob.html" target="_top" xlink:title="Contiguous byte array of fixed size.">
<polygon fill="white" stroke="black" points="252.5,-524.5 252.5,-735.5 372.5,-735.5 372.5,-524.5 252.5,-524.5"/>
<text text-anchor="middle" x="312.5" y="-723.5" font-family="Helvetica,sans-Serif" font-size="10.00">altintegration::Blob&lt; N &gt;</text>
<polyline fill="none" stroke="black" points="252.5,-716.5 372.5,-716.5 "/>
<text text-anchor="start" x="260.5" y="-704.5" font-family="Helvetica,sans-Serif" font-size="10.00">+ data_</text>
<text text-anchor="start" x="260.5" y="-693.5" font-family="Helvetica,sans-Serif" font-size="10.00">+ this</text>
<polyline fill="none" stroke="black" points="252.5,-686.5 372.5,-686.5 "/>
<text text-anchor="start" x="260.5" y="-674.5" font-family="Helvetica,sans-Serif" font-size="10.00">+ Blob()</text>
<text text-anchor="start" x="260.5" y="-663.5" font-family="Helvetica,sans-Serif" font-size="10.00">+ Blob()</text>
<text text-anchor="start" x="260.5" y="-652.5" font-family="Helvetica,sans-Serif" font-size="10.00">+ Blob()</text>
<text text-anchor="start" x="260.5" y="-641.5" font-family="Helvetica,sans-Serif" font-size="10.00">+ Blob()</text>
<text text-anchor="start" x="260.5" y="-630.5" font-family="Helvetica,sans-Serif" font-size="10.00">+ Blob()</text>
<text text-anchor="start" x="260.5" y="-619.5" font-family="Helvetica,sans-Serif" font-size="10.00">+ operator=()</text>
<text text-anchor="start" x="260.5" y="-608.5" font-family="Helvetica,sans-Serif" font-size="10.00">+ operator=()</text>
<text text-anchor="start" x="260.5" y="-597.5" font-family="Helvetica,sans-Serif" font-size="10.00">+ reverse()</text>
<text text-anchor="start" x="260.5" y="-586.5" font-family="Helvetica,sans-Serif" font-size="10.00">+ operator~()</text>
<text text-anchor="start" x="260.5" y="-575.5" font-family="Helvetica,sans-Serif" font-size="10.00">+ asVector()</text>
<text text-anchor="start" x="260.5" y="-564.5" font-family="Helvetica,sans-Serif" font-size="10.00">+ asString()</text>
<text text-anchor="start" x="260.5" y="-553.5" font-family="Helvetica,sans-Serif" font-size="10.00">+ operator[]()</text>
<text text-anchor="start" x="260.5" y="-542.5" font-family="Helvetica,sans-Serif" font-size="10.00">+ operator[]()</text>
<text text-anchor="start" x="260.5" y="-531.5" font-family="Helvetica,sans-Serif" font-size="10.00">+ compareTo()</text>
</a>
</g>
</g>
<!-- Node8&#45;&gt;Node7 -->
<g id="edge9" class="edge">
<title>Node8&#45;&gt;Node7</title>
<path fill="none" stroke="orange" d="M312.5,-514.48C312.5,-501.93 312.5,-489.17 312.5,-476.67"/>
<polygon fill="orange" stroke="orange" points="309,-514.5 312.5,-524.5 316,-514.5 309,-514.5"/>
<text text-anchor="middle" x="371" y="-498" font-family="Helvetica,sans-Serif" font-size="10.00"> &lt; SHA256_HASH_SIZE &gt;</text>
</g>
</g>
</svg>
