<?xml version="1.0" encoding="UTF-8" standalone="no"?>
<!DOCTYPE svg PUBLIC "-//W3C//DTD SVG 1.1//EN"
 "http://www.w3.org/Graphics/SVG/1.1/DTD/svg11.dtd">
<!-- Generated by graphviz version 2.44.0 ()
 -->
<!-- Title: altintegration::AltBlockTree Pages: 1 -->
<!--zoomable 1732 -->
<svg id="main" version="1.1" xmlns="http://www.w3.org/2000/svg" xmlns:xlink="http://www.w3.org/1999/xlink" xml:space="preserve" onload="init(evt)">
<style type="text/css"><![CDATA[
.edge:hover path { stroke: red; }
.edge:hover polygon { stroke: red; fill: red; }
]]></style>
<script type="text/javascript"><![CDATA[
var edges = document.getElementsByTagName('g');
if (edges && edges.length) {
  for (var i=0;i<edges.length;i++) {
    if (edges[i].id.substr(0,4)=='edge') {
      edges[i].setAttribute('class','edge');
    }
  }
}
]]></script>
        <defs>
                <circle id="rim" cx="0" cy="0" r="7"/>
                <circle id="rim2" cx="0" cy="0" r="3.5"/>
                <g id="zoomPlus">
                        <use xlink:href="#rim" fill="#404040">
                                <set attributeName="fill" to="#808080" begin="zoomplus.mouseover" end="zoomplus.mouseout"/>
                        </use>
                        <path d="M-4,0h8M0,-4v8" fill="none" stroke="white" stroke-width="1.5" pointer-events="none"/>
                </g>
                <g id="zoomMin">
                        <use xlink:href="#rim" fill="#404040">
                                <set attributeName="fill" to="#808080" begin="zoomminus.mouseover" end="zoomminus.mouseout"/>
                        </use>
                        <path d="M-4,0h8" fill="none" stroke="white" stroke-width="1.5" pointer-events="none"/>
                </g>
                <g id="dirArrow">
                        <path fill="none" stroke="white" stroke-width="1.5" d="M0,-3.0v7 M-2.5,-0.5L0,-3.0L2.5,-0.5"/>
                </g>
               <g id="resetDef">
                       <use xlink:href="#rim2" fill="#404040">
                               <set attributeName="fill" to="#808080" begin="reset.mouseover" end="reset.mouseout"/>
                       </use>
               </g>
        </defs>

<script type="text/javascript">
var viewWidth = 866;
var viewHeight = 1732;
var sectionId = 'dynsection-1';
</script>
<script xlink:href="svgpan.js"/>
<svg id="graph" class="graph">
<g id="viewport">
<title>altintegration::AltBlockTree</title>
<polygon fill="white" stroke="transparent" points="-4,4 -4,-1728 861.5,-1728 861.5,4 -4,4"/>
<!-- Node1 -->
<g id="node1" class="node">
<title>Node1</title>
<g id="a_node1"><a xlink:title="Represents simplified view on Altchain&#39;s block tree, maintains VBK tree and BTC tree.">
<polygon fill="#bfbfbf" stroke="black" points="338,-0.5 338,-244.5 487,-244.5 487,-0.5 338,-0.5"/>
<text text-anchor="middle" x="412.5" y="-232.5" font-family="Helvetica,sans-Serif" font-size="10.00">altintegration::AltBlockTree</text>
<polyline fill="none" stroke="black" points="338,-225.5 487,-225.5 "/>
<text text-anchor="start" x="346" y="-213.5" font-family="Helvetica,sans-Serif" font-size="10.00">+ onInvalidBlockConnected</text>
<text text-anchor="start" x="346" y="-202.5" font-family="Helvetica,sans-Serif" font-size="10.00">+ onBlockConnected</text>
<text text-anchor="start" x="346" y="-191.5" font-family="Helvetica,sans-Serif" font-size="10.00">+ onBeforeOverrideTip</text>
<polyline fill="none" stroke="black" points="338,-184.5 487,-184.5 "/>
<text text-anchor="start" x="346" y="-172.5" font-family="Helvetica,sans-Serif" font-size="10.00">+ ~AltBlockTree()</text>
<text text-anchor="start" x="346" y="-161.5" font-family="Helvetica,sans-Serif" font-size="10.00">+ AltBlockTree()</text>
<text text-anchor="start" x="346" y="-150.5" font-family="Helvetica,sans-Serif" font-size="10.00">+ acceptBlockHeader()</text>
<text text-anchor="start" x="346" y="-139.5" font-family="Helvetica,sans-Serif" font-size="10.00">+ acceptBlock()</text>
<text text-anchor="start" x="346" y="-128.5" font-family="Helvetica,sans-Serif" font-size="10.00">+ acceptBlock()</text>
<text text-anchor="start" x="346" y="-117.5" font-family="Helvetica,sans-Serif" font-size="10.00">+ acceptBlock()</text>
<text text-anchor="start" x="346" y="-106.5" font-family="Helvetica,sans-Serif" font-size="10.00">+ makeConnectedLeafPayload</text>
<text text-anchor="start" x="346" y="-95.5" font-family="Helvetica,sans-Serif" font-size="10.00">Mutator()</text>
<text text-anchor="start" x="346" y="-84.5" font-family="Helvetica,sans-Serif" font-size="10.00">+ getConnectedTipsAfter()</text>
<text text-anchor="start" x="346" y="-73.5" font-family="Helvetica,sans-Serif" font-size="10.00">+ loadBlockForward()</text>
<text text-anchor="start" x="346" y="-62.5" font-family="Helvetica,sans-Serif" font-size="10.00">+ loadTip()</text>
<text text-anchor="start" x="346" y="-51.5" font-family="Helvetica,sans-Serif" font-size="10.00">+ comparePopScore()</text>
<text text-anchor="start" x="346" y="-40.5" font-family="Helvetica,sans-Serif" font-size="10.00">+ setState()</text>
<text text-anchor="start" x="346" y="-29.5" font-family="Helvetica,sans-Serif" font-size="10.00">+ vbk()</text>
<text text-anchor="start" x="346" y="-18.5" font-family="Helvetica,sans-Serif" font-size="10.00">+ btc()</text>
<text text-anchor="start" x="346" y="-7.5" font-family="Helvetica,sans-Serif" font-size="10.00">+ getParams()</text>
</a>
</g>
</g>
<!-- Node2 -->
<g id="node2" class="node">
<title>Node2</title>
<g id="a_node2"><a xlink:href="structaltintegration_1_1BaseBlockTree.html" target="_top" xlink:title=" ">
<polygon fill="white" stroke="black" points="336.5,-282.5 336.5,-526.5 488.5,-526.5 488.5,-282.5 336.5,-282.5"/>
<text text-anchor="start" x="344.5" y="-514.5" font-family="Helvetica,sans-Serif" font-size="10.00">altintegration::BaseBlock</text>
<text text-anchor="middle" x="412.5" y="-503.5" font-family="Helvetica,sans-Serif" font-size="10.00">Tree&lt; AltBlock &gt;</text>
<polyline fill="none" stroke="black" points="336.5,-496.5 488.5,-496.5 "/>
<text text-anchor="start" x="344.5" y="-484.5" font-family="Helvetica,sans-Serif" font-size="10.00"># validity_sig_</text>
<polyline fill="none" stroke="black" points="336.5,-477.5 488.5,-477.5 "/>
<text text-anchor="start" x="344.5" y="-465.5" font-family="Helvetica,sans-Serif" font-size="10.00">+ getTips()</text>
<text text-anchor="start" x="344.5" y="-454.5" font-family="Helvetica,sans-Serif" font-size="10.00">+ getBlocks()</text>
<text text-anchor="start" x="344.5" y="-443.5" font-family="Helvetica,sans-Serif" font-size="10.00">+ getAllBlocks()</text>
<text text-anchor="start" x="344.5" y="-432.5" font-family="Helvetica,sans-Serif" font-size="10.00">+ getBlockProvider()</text>
<text text-anchor="start" x="344.5" y="-421.5" font-family="Helvetica,sans-Serif" font-size="10.00">+ ~BaseBlockTree()</text>
<text text-anchor="start" x="344.5" y="-410.5" font-family="Helvetica,sans-Serif" font-size="10.00">+ BaseBlockTree()</text>
<text text-anchor="start" x="344.5" y="-399.5" font-family="Helvetica,sans-Serif" font-size="10.00">+ BaseBlockTree()</text>
<text text-anchor="start" x="344.5" y="-388.5" font-family="Helvetica,sans-Serif" font-size="10.00">+ BaseBlockTree()</text>
<text text-anchor="start" x="344.5" y="-377.5" font-family="Helvetica,sans-Serif" font-size="10.00">+ operator=()</text>
<text text-anchor="start" x="344.5" y="-366.5" font-family="Helvetica,sans-Serif" font-size="10.00">+ operator=()</text>
<text text-anchor="start" x="344.5" y="-355.5" font-family="Helvetica,sans-Serif" font-size="10.00">and 26 more...</text>
<text text-anchor="start" x="344.5" y="-344.5" font-family="Helvetica,sans-Serif" font-size="10.00"># eraseBlock()</text>
<text text-anchor="start" x="344.5" y="-333.5" font-family="Helvetica,sans-Serif" font-size="10.00"># toPrettyString()</text>
<text text-anchor="start" x="344.5" y="-322.5" font-family="Helvetica,sans-Serif" font-size="10.00"># decreaseAppliedBlockCount()</text>
<text text-anchor="start" x="344.5" y="-311.5" font-family="Helvetica,sans-Serif" font-size="10.00"># decreaseAppliedBlockCount()</text>
<text text-anchor="start" x="344.5" y="-300.5" font-family="Helvetica,sans-Serif" font-size="10.00"># increaseAppliedBlockCount()</text>
<text text-anchor="start" x="344.5" y="-289.5" font-family="Helvetica,sans-Serif" font-size="10.00"># increaseAppliedBlockCount()</text>
</a>
</g>
</g>
<!-- Node2&#45;&gt;Node1 -->
<g id="edge1" class="edge">
<title>Node2&#45;&gt;Node1</title>
<path fill="none" stroke="midnightblue" d="M412.5,-272.1C412.5,-263.02 412.5,-253.89 412.5,-244.87"/>
<polygon fill="none" stroke="midnightblue" points="409,-272.32 412.5,-282.32 416,-272.32 409,-272.32"/>
</g>
<!-- Node3 -->
<g id="node3" class="node">
<title>Node3</title>
<g id="a_node3"><a xlink:href="structaltintegration_1_1BlockReader.html" target="_top" xlink:title="An abstraction over on&#45;disk storage iterator.">
<polygon fill="white" stroke="black" points="159.5,-872 159.5,-1039 291.5,-1039 291.5,-872 159.5,-872"/>
<text text-anchor="middle" x="225.5" y="-1027" font-family="Helvetica,sans-Serif" font-size="10.00">altintegration::BlockReader</text>
<polyline fill="none" stroke="black" points="159.5,-1020 291.5,-1020 "/>
<text text-anchor="middle" x="225.5" y="-1008" font-family="Helvetica,sans-Serif" font-size="10.00"> </text>
<polyline fill="none" stroke="black" points="159.5,-1001 291.5,-1001 "/>
<text text-anchor="start" x="167.5" y="-989" font-family="Helvetica,sans-Serif" font-size="10.00">+ ~BlockReader()</text>
<text text-anchor="start" x="167.5" y="-978" font-family="Helvetica,sans-Serif" font-size="10.00">+ getAltTip()</text>
<text text-anchor="start" x="167.5" y="-967" font-family="Helvetica,sans-Serif" font-size="10.00">+ getVbkTip()</text>
<text text-anchor="start" x="167.5" y="-956" font-family="Helvetica,sans-Serif" font-size="10.00">+ getBtcTip()</text>
<text text-anchor="start" x="167.5" y="-945" font-family="Helvetica,sans-Serif" font-size="10.00">+ getBlock()</text>
<text text-anchor="start" x="167.5" y="-934" font-family="Helvetica,sans-Serif" font-size="10.00">+ getBlock()</text>
<text text-anchor="start" x="167.5" y="-923" font-family="Helvetica,sans-Serif" font-size="10.00">+ getBlock()</text>
<text text-anchor="start" x="167.5" y="-912" font-family="Helvetica,sans-Serif" font-size="10.00">+ getAltBlockIterator()</text>
<text text-anchor="start" x="167.5" y="-901" font-family="Helvetica,sans-Serif" font-size="10.00">+ getVbkBlockIterator()</text>
<text text-anchor="start" x="167.5" y="-890" font-family="Helvetica,sans-Serif" font-size="10.00">+ getBtcBlockIterator()</text>
<text text-anchor="start" x="167.5" y="-879" font-family="Helvetica,sans-Serif" font-size="10.00">and 6 more...</text>
</a>
</g>
</g>
<!-- Node3&#45;&gt;Node2 -->
<g id="edge2" class="edge">
<title>Node3&#45;&gt;Node2</title>
<path fill="none" stroke="#404040" d="M215.61,-871.71C215.65,-860 216.47,-848.16 218.5,-837 237.8,-730.94 288.3,-620.21 332.94,-537.48"/>
<polygon fill="none" stroke="#404040" points="333.04,-537.31 332.39,-530.12 338.77,-526.77 339.42,-533.95 333.04,-537.31"/>
<text text-anchor="middle" x="349" y="-694" font-family="Helvetica,sans-Serif" font-size="10.00"> #blockProvider_</text>
</g>
<!-- Node20 -->
<g id="node20" class="node">
<title>Node20</title>
<g id="a_node20"><a xlink:href="structaltintegration_1_1BaseBlockTree.html" target="_top" xlink:title="Base block tree that stores all blocks, maintains tree tips, maintains active chain.">
<polygon fill="white" stroke="black" points="459.5,-574.5 459.5,-818.5 611.5,-818.5 611.5,-574.5 459.5,-574.5"/>
<text text-anchor="start" x="467.5" y="-806.5" font-family="Helvetica,sans-Serif" font-size="10.00">altintegration::BaseBlock</text>
<text text-anchor="middle" x="535.5" y="-795.5" font-family="Helvetica,sans-Serif" font-size="10.00">Tree&lt; Block &gt;</text>
<polyline fill="none" stroke="black" points="459.5,-788.5 611.5,-788.5 "/>
<text text-anchor="start" x="467.5" y="-776.5" font-family="Helvetica,sans-Serif" font-size="10.00"># validity_sig_</text>
<polyline fill="none" stroke="black" points="459.5,-769.5 611.5,-769.5 "/>
<text text-anchor="start" x="467.5" y="-757.5" font-family="Helvetica,sans-Serif" font-size="10.00">+ getTips()</text>
<text text-anchor="start" x="467.5" y="-746.5" font-family="Helvetica,sans-Serif" font-size="10.00">+ getBlocks()</text>
<text text-anchor="start" x="467.5" y="-735.5" font-family="Helvetica,sans-Serif" font-size="10.00">+ getAllBlocks()</text>
<text text-anchor="start" x="467.5" y="-724.5" font-family="Helvetica,sans-Serif" font-size="10.00">+ getBlockProvider()</text>
<text text-anchor="start" x="467.5" y="-713.5" font-family="Helvetica,sans-Serif" font-size="10.00">+ ~BaseBlockTree()</text>
<text text-anchor="start" x="467.5" y="-702.5" font-family="Helvetica,sans-Serif" font-size="10.00">+ BaseBlockTree()</text>
<text text-anchor="start" x="467.5" y="-691.5" font-family="Helvetica,sans-Serif" font-size="10.00">+ BaseBlockTree()</text>
<text text-anchor="start" x="467.5" y="-680.5" font-family="Helvetica,sans-Serif" font-size="10.00">+ operator=()</text>
<text text-anchor="start" x="467.5" y="-669.5" font-family="Helvetica,sans-Serif" font-size="10.00">+ BaseBlockTree()</text>
<text text-anchor="start" x="467.5" y="-658.5" font-family="Helvetica,sans-Serif" font-size="10.00">+ operator=()</text>
<text text-anchor="start" x="467.5" y="-647.5" font-family="Helvetica,sans-Serif" font-size="10.00">and 26 more...</text>
<text text-anchor="start" x="467.5" y="-636.5" font-family="Helvetica,sans-Serif" font-size="10.00"># eraseBlock()</text>
<text text-anchor="start" x="467.5" y="-625.5" font-family="Helvetica,sans-Serif" font-size="10.00"># toPrettyString()</text>
<text text-anchor="start" x="467.5" y="-614.5" font-family="Helvetica,sans-Serif" font-size="10.00"># decreaseAppliedBlockCount()</text>
<text text-anchor="start" x="467.5" y="-603.5" font-family="Helvetica,sans-Serif" font-size="10.00"># increaseAppliedBlockCount()</text>
<text text-anchor="start" x="467.5" y="-592.5" font-family="Helvetica,sans-Serif" font-size="10.00"># decreaseAppliedBlockCount()</text>
<text text-anchor="start" x="467.5" y="-581.5" font-family="Helvetica,sans-Serif" font-size="10.00"># increaseAppliedBlockCount()</text>
</a>
</g>
</g>
<!-- Node3&#45;&gt;Node20 -->
<g id="edge26" class="edge">
<title>Node3&#45;&gt;Node20</title>
<path fill="none" stroke="#404040" d="M291.63,-872.49C294.53,-870.19 297.49,-868.02 300.5,-866 356.77,-828.27 390.5,-858.55 445.5,-819 447,-817.92 448.48,-816.81 449.95,-815.67"/>
<polygon fill="none" stroke="#404040" points="450.23,-815.44 452.26,-808.53 459.43,-807.74 457.4,-814.66 450.23,-815.44"/>
<text text-anchor="middle" x="446" y="-840" font-family="Helvetica,sans-Serif" font-size="10.00"> #blockProvider_</text>
</g>
<!-- Node4 -->
<g id="node4" class="node">
<title>Node4</title>
<g id="a_node4"><a xlink:href="structaltintegration_1_1Chain.html" target="_top" xlink:title=" ">
<polygon fill="white" stroke="black" points="0,-866.5 0,-1044.5 141,-1044.5 141,-866.5 0,-866.5"/>
<text text-anchor="start" x="8" y="-1032.5" font-family="Helvetica,sans-Serif" font-size="10.00">altintegration::Chain</text>
<text text-anchor="middle" x="70.5" y="-1021.5" font-family="Helvetica,sans-Serif" font-size="10.00">&lt; altintegration::BlockIndex &gt;</text>
<polyline fill="none" stroke="black" points="0,-1014.5 141,-1014.5 "/>
<text text-anchor="middle" x="70.5" y="-1002.5" font-family="Helvetica,sans-Serif" font-size="10.00"> </text>
<polyline fill="none" stroke="black" points="0,-995.5 141,-995.5 "/>
<text text-anchor="start" x="8" y="-983.5" font-family="Helvetica,sans-Serif" font-size="10.00">+ Chain()</text>
<text text-anchor="start" x="8" y="-972.5" font-family="Helvetica,sans-Serif" font-size="10.00">+ Chain()</text>
<text text-anchor="start" x="8" y="-961.5" font-family="Helvetica,sans-Serif" font-size="10.00">+ Chain()</text>
<text text-anchor="start" x="8" y="-950.5" font-family="Helvetica,sans-Serif" font-size="10.00">+ getStartHeight()</text>
<text text-anchor="start" x="8" y="-939.5" font-family="Helvetica,sans-Serif" font-size="10.00">+ firstHeight()</text>
<text text-anchor="start" x="8" y="-928.5" font-family="Helvetica,sans-Serif" font-size="10.00">+ contains()</text>
<text text-anchor="start" x="8" y="-917.5" font-family="Helvetica,sans-Serif" font-size="10.00">+ operator[]()</text>
<text text-anchor="start" x="8" y="-906.5" font-family="Helvetica,sans-Serif" font-size="10.00">+ next()</text>
<text text-anchor="start" x="8" y="-895.5" font-family="Helvetica,sans-Serif" font-size="10.00">+ chainHeight()</text>
<text text-anchor="start" x="8" y="-884.5" font-family="Helvetica,sans-Serif" font-size="10.00">+ empty()</text>
<text text-anchor="start" x="8" y="-873.5" font-family="Helvetica,sans-Serif" font-size="10.00">and 15 more...</text>
</a>
</g>
</g>
<!-- Node4&#45;&gt;Node2 -->
<g id="edge3" class="edge">
<title>Node4&#45;&gt;Node2</title>
<path fill="none" stroke="#404040" d="M71.73,-866.22C76.89,-783.92 95.24,-661.12 155.5,-574 197.26,-513.63 268.36,-469.48 325.2,-441.56"/>
<polygon fill="none" stroke="#404040" points="325.55,-441.39 329.23,-435.18 336.37,-436.19 332.69,-442.39 325.55,-441.39"/>
<text text-anchor="middle" x="187.5" y="-694" font-family="Helvetica,sans-Serif" font-size="10.00"> #activeChain_</text>
</g>
<!-- Node4&#45;&gt;Node20 -->
<g id="edge27" class="edge">
<title>Node4&#45;&gt;Node20</title>
<path fill="none" stroke="#404040" d="M141.05,-872.17C144.14,-869.96 147.29,-867.9 150.5,-866 198.86,-837.43 218.12,-846.39 273.5,-837 311.39,-830.58 412.13,-838.05 445.5,-819 446.7,-818.32 447.88,-817.61 449.06,-816.88"/>
<polygon fill="none" stroke="#404040" points="449.46,-816.61 452.11,-809.9 459.32,-809.77 456.67,-816.48 449.46,-816.61"/>
<text text-anchor="middle" x="305.5" y="-840" font-family="Helvetica,sans-Serif" font-size="10.00"> #activeChain_</text>
</g>
<!-- Node5 -->
<g id="node5" class="node">
<title>Node5</title>
<g id="a_node5"><a xlink:href="structaltintegration_1_1Chain.html" target="_top" xlink:title="Fully in&#45;memory chain representation.">
<polygon fill="white" stroke="black" points="15,-1120 15,-1298 116,-1298 116,-1120 15,-1120"/>
<text text-anchor="start" x="23" y="-1286" font-family="Helvetica,sans-Serif" font-size="10.00">altintegration::Chain</text>
<text text-anchor="middle" x="65.5" y="-1275" font-family="Helvetica,sans-Serif" font-size="10.00">&lt; BlockIndexT &gt;</text>
<polyline fill="none" stroke="black" points="15,-1268 116,-1268 "/>
<text text-anchor="middle" x="65.5" y="-1256" font-family="Helvetica,sans-Serif" font-size="10.00"> </text>
<polyline fill="none" stroke="black" points="15,-1249 116,-1249 "/>
<text text-anchor="start" x="23" y="-1237" font-family="Helvetica,sans-Serif" font-size="10.00">+ Chain()</text>
<text text-anchor="start" x="23" y="-1226" font-family="Helvetica,sans-Serif" font-size="10.00">+ Chain()</text>
<text text-anchor="start" x="23" y="-1215" font-family="Helvetica,sans-Serif" font-size="10.00">+ Chain()</text>
<text text-anchor="start" x="23" y="-1204" font-family="Helvetica,sans-Serif" font-size="10.00">+ getStartHeight()</text>
<text text-anchor="start" x="23" y="-1193" font-family="Helvetica,sans-Serif" font-size="10.00">+ firstHeight()</text>
<text text-anchor="start" x="23" y="-1182" font-family="Helvetica,sans-Serif" font-size="10.00">+ contains()</text>
<text text-anchor="start" x="23" y="-1171" font-family="Helvetica,sans-Serif" font-size="10.00">+ operator[]()</text>
<text text-anchor="start" x="23" y="-1160" font-family="Helvetica,sans-Serif" font-size="10.00">+ next()</text>
<text text-anchor="start" x="23" y="-1149" font-family="Helvetica,sans-Serif" font-size="10.00">+ chainHeight()</text>
<text text-anchor="start" x="23" y="-1138" font-family="Helvetica,sans-Serif" font-size="10.00">+ empty()</text>
<text text-anchor="start" x="23" y="-1127" font-family="Helvetica,sans-Serif" font-size="10.00">and 15 more...</text>
</a>
</g>
</g>
<!-- Node5&#45;&gt;Node4 -->
<g id="edge4" class="edge">
<title>Node5&#45;&gt;Node4</title>
<path fill="none" stroke="orange" d="M65.77,-1109.63C65.93,-1094.03 66.17,-1078.07 66.5,-1063 66.63,-1056.99 66.8,-1050.79 66.98,-1044.54"/>
<polygon fill="orange" stroke="orange" points="62.27,-1109.78 65.68,-1119.81 69.27,-1109.85 62.27,-1109.78"/>
<text text-anchor="middle" x="130" y="-1071.5" font-family="Helvetica,sans-Serif" font-size="10.00"> &lt; altintegration::BlockIndex &gt;</text>
</g>
<!-- Node6 -->
<g id="node6" class="node">
<title>Node6</title>
<g id="a_node6"><a xlink:title=" ">
<polygon fill="white" stroke="#bfbfbf" points="608,-916 608,-995 745,-995 745,-916 608,-916"/>
<text text-anchor="start" x="616" y="-983" font-family="Helvetica,sans-Serif" font-size="10.00">std::unordered_map</text>
<text text-anchor="start" x="616" y="-972" font-family="Helvetica,sans-Serif" font-size="10.00">&lt; prev_block_hash_t,</text>
<text text-anchor="middle" x="676.5" y="-961" font-family="Helvetica,sans-Serif" font-size="10.00"> std::unique_ptr&lt; index_t &gt; &gt;</text>
<polyline fill="none" stroke="#bfbfbf" points="608,-954 745,-954 "/>
<text text-anchor="start" x="616" y="-942" font-family="Helvetica,sans-Serif" font-size="10.00">+ keys</text>
<polyline fill="none" stroke="#bfbfbf" points="608,-935 745,-935 "/>
<text text-anchor="middle" x="676.5" y="-923" font-family="Helvetica,sans-Serif" font-size="10.00"> </text>
</a>
</g>
</g>
<!-- Node6&#45;&gt;Node2 -->
<g id="edge5" class="edge">
<title>Node6&#45;&gt;Node2</title>
<path fill="none" stroke="#404040" d="M679.65,-915.93C683.74,-843.72 683.98,-685.38 620.5,-574 592,-523.99 542.39,-482.93 498.77,-453.87"/>
<polygon fill="none" stroke="#404040" points="498.75,-453.85 491.54,-453.93 488.7,-447.3 495.91,-447.23 498.75,-453.85"/>
<text text-anchor="middle" x="700.5" y="-694" font-family="Helvetica,sans-Serif" font-size="10.00"> #blocks_</text>
</g>
<!-- Node6&#45;&gt;Node20 -->
<g id="edge28" class="edge">
<title>Node6&#45;&gt;Node20</title>
<path fill="none" stroke="#404040" d="M648.73,-915.95C634.97,-896.1 618.56,-871.25 605.5,-848 602.11,-841.96 598.74,-835.74 595.42,-829.4"/>
<polygon fill="none" stroke="#404040" points="595.38,-829.33 589.07,-825.83 589.87,-818.67 596.18,-822.16 595.38,-829.33"/>
<text text-anchor="middle" x="626.5" y="-840" font-family="Helvetica,sans-Serif" font-size="10.00"> #blocks_</text>
</g>
<!-- Node7 -->
<g id="node7" class="node">
<title>Node7</title>
<g id="a_node7"><a xlink:title=" ">
<polygon fill="white" stroke="#bfbfbf" points="624,-1333.5 624,-1390.5 751,-1390.5 751,-1333.5 624,-1333.5"/>
<text text-anchor="middle" x="687.5" y="-1378.5" font-family="Helvetica,sans-Serif" font-size="10.00">std::unique_ptr&lt; index_t &gt;</text>
<polyline fill="none" stroke="#bfbfbf" points="624,-1371.5 751,-1371.5 "/>
<text text-anchor="start" x="632" y="-1359.5" font-family="Helvetica,sans-Serif" font-size="10.00">+ ptr</text>
<polyline fill="none" stroke="#bfbfbf" points="624,-1352.5 751,-1352.5 "/>
<text text-anchor="start" x="632" y="-1340.5" font-family="Helvetica,sans-Serif" font-size="10.00">+ operator&#45;&gt;()</text>
</a>
</g>
</g>
<!-- Node7&#45;&gt;Node6 -->
<g id="edge6" class="edge">
<title>Node7&#45;&gt;Node6</title>
<path fill="none" stroke="#404040" d="M686.74,-1333.2C684.91,-1265.91 680.23,-1093.51 677.88,-1007.25"/>
<polygon fill="none" stroke="#404040" points="677.88,-1007.16 673.72,-1001.28 677.55,-995.17 681.71,-1001.06 677.88,-1007.16"/>
<text text-anchor="middle" x="710" y="-1206.5" font-family="Helvetica,sans-Serif" font-size="10.00"> +elements</text>
</g>
<!-- Node8 -->
<g id="node8" class="node">
<title>Node8</title>
<g id="a_node8"><a xlink:title=" ">
<polygon fill="white" stroke="#bfbfbf" points="636.5,-1485.5 636.5,-1542.5 738.5,-1542.5 738.5,-1485.5 636.5,-1485.5"/>
<text text-anchor="middle" x="687.5" y="-1530.5" font-family="Helvetica,sans-Serif" font-size="10.00">std::unique_ptr&lt; T &gt;</text>
<polyline fill="none" stroke="#bfbfbf" points="636.5,-1523.5 738.5,-1523.5 "/>
<text text-anchor="middle" x="687.5" y="-1511.5" font-family="Helvetica,sans-Serif" font-size="10.00"> </text>
<polyline fill="none" stroke="#bfbfbf" points="636.5,-1504.5 738.5,-1504.5 "/>
<text text-anchor="start" x="644.5" y="-1492.5" font-family="Helvetica,sans-Serif" font-size="10.00">+ operator&#45;&gt;()</text>
</a>
</g>
</g>
<!-- Node8&#45;&gt;Node7 -->
<g id="edge7" class="edge">
<title>Node8&#45;&gt;Node7</title>
<path fill="none" stroke="orange" d="M687.5,-1475.47C687.5,-1449.11 687.5,-1414.43 687.5,-1390.59"/>
<polygon fill="orange" stroke="orange" points="684,-1475.49 687.5,-1485.49 691,-1475.49 684,-1475.49"/>
<text text-anchor="middle" x="712.5" y="-1435.5" font-family="Helvetica,sans-Serif" font-size="10.00"> &lt; index_t &gt;</text>
</g>
<!-- Node9 -->
<g id="node9" class="node">
<title>Node9</title>
<g id="a_node9"><a xlink:title=" ">
<polygon fill="white" stroke="#bfbfbf" points="673,-1666.5 673,-1723.5 702,-1723.5 702,-1666.5 673,-1666.5"/>
<text text-anchor="middle" x="687.5" y="-1711.5" font-family="Helvetica,sans-Serif" font-size="10.00">T</text>
<polyline fill="none" stroke="#bfbfbf" points="673,-1704.5 702,-1704.5 "/>
<text text-anchor="middle" x="687.5" y="-1692.5" font-family="Helvetica,sans-Serif" font-size="10.00"> </text>
<polyline fill="none" stroke="#bfbfbf" points="673,-1685.5 702,-1685.5 "/>
<text text-anchor="middle" x="687.5" y="-1673.5" font-family="Helvetica,sans-Serif" font-size="10.00"> </text>
</a>
</g>
</g>
<!-- Node9&#45;&gt;Node8 -->
<g id="edge8" class="edge">
<title>Node9&#45;&gt;Node8</title>
<path fill="none" stroke="#404040" d="M687.5,-1666.42C687.5,-1636.6 687.5,-1588.77 687.5,-1554.86"/>
<polygon fill="none" stroke="#404040" points="687.5,-1554.61 683.5,-1548.61 687.5,-1542.61 691.5,-1548.61 687.5,-1554.61"/>
<text text-anchor="middle" x="697.5" y="-1640" font-family="Helvetica,sans-Serif" font-size="10.00"> +ptr</text>
</g>
<!-- Node10 -->
<g id="node10" class="node">
<title>Node10</title>
<g id="a_node10"><a xlink:title=" ">
<polygon fill="white" stroke="#bfbfbf" points="746,-1175 746,-1243 847,-1243 847,-1175 746,-1175"/>
<text text-anchor="start" x="754" y="-1231" font-family="Helvetica,sans-Serif" font-size="10.00">std::unordered_map</text>
<text text-anchor="middle" x="796.5" y="-1220" font-family="Helvetica,sans-Serif" font-size="10.00">&lt; K, T &gt;</text>
<polyline fill="none" stroke="#bfbfbf" points="746,-1213 847,-1213 "/>
<text text-anchor="middle" x="796.5" y="-1201" font-family="Helvetica,sans-Serif" font-size="10.00"> </text>
<polyline fill="none" stroke="#bfbfbf" points="746,-1194 847,-1194 "/>
<text text-anchor="middle" x="796.5" y="-1182" font-family="Helvetica,sans-Serif" font-size="10.00"> </text>
</a>
</g>
</g>
<!-- Node9&#45;&gt;Node10 -->
<g id="edge11" class="edge">
<title>Node9&#45;&gt;Node10</title>
<path fill="none" stroke="#404040" d="M702.15,-1667.57C705.42,-1661.25 708.73,-1654.46 711.5,-1648 730.97,-1602.67 735.86,-1590.94 747.5,-1543 772.06,-1441.85 786.16,-1320.24 792.47,-1255.62"/>
<polygon fill="none" stroke="#404040" points="792.49,-1255.42 789.08,-1249.07 793.63,-1243.47 797.04,-1249.83 792.49,-1255.42"/>
<text text-anchor="middle" x="784" y="-1511.5" font-family="Helvetica,sans-Serif" font-size="10.00"> +elements</text>
</g>
<!-- Node16 -->
<g id="node16" class="node">
<title>Node16</title>
<g id="a_node16"><a xlink:title=" ">
<polygon fill="white" stroke="#bfbfbf" points="508,-1561.5 508,-1618.5 611,-1618.5 611,-1561.5 508,-1561.5"/>
<text text-anchor="middle" x="559.5" y="-1606.5" font-family="Helvetica,sans-Serif" font-size="10.00">std::shared_ptr&lt; T &gt;</text>
<polyline fill="none" stroke="#bfbfbf" points="508,-1599.5 611,-1599.5 "/>
<text text-anchor="middle" x="559.5" y="-1587.5" font-family="Helvetica,sans-Serif" font-size="10.00"> </text>
<polyline fill="none" stroke="#bfbfbf" points="508,-1580.5 611,-1580.5 "/>
<text text-anchor="start" x="516" y="-1568.5" font-family="Helvetica,sans-Serif" font-size="10.00">+ operator&#45;&gt;()</text>
</a>
</g>
</g>
<!-- Node9&#45;&gt;Node16 -->
<g id="edge17" class="edge">
<title>Node9&#45;&gt;Node16</title>
<path fill="none" stroke="#404040" d="M672.82,-1682.18C655.95,-1668.61 627.48,-1645.7 603.3,-1626.24"/>
<polygon fill="none" stroke="#404040" points="603.28,-1626.23 596.1,-1625.58 593.93,-1618.71 601.11,-1619.35 603.28,-1626.23"/>
<text text-anchor="middle" x="636.5" y="-1640" font-family="Helvetica,sans-Serif" font-size="10.00"> +ptr</text>
</g>
<!-- Node10&#45;&gt;Node6 -->
<g id="edge9" class="edge">
<title>Node10&#45;&gt;Node6</title>
<path fill="none" stroke="orange" d="M776.33,-1165.73C753.58,-1118.06 716.9,-1041.17 694.9,-995.07"/>
<polygon fill="orange" stroke="orange" points="773.22,-1167.34 780.69,-1174.86 779.54,-1164.33 773.22,-1167.34"/>
<text text-anchor="start" x="736.5" y="-1077" font-family="Helvetica,sans-Serif" font-size="10.00"> &lt; prev_block_hash_t,</text>
<text text-anchor="middle" x="797" y="-1066" font-family="Helvetica,sans-Serif" font-size="10.00"> std::unique_ptr&lt; index_t &gt; &gt;</text>
</g>
<!-- Node11 -->
<g id="node11" class="node">
<title>Node11</title>
<g id="a_node11"><a xlink:title=" ">
<polygon fill="white" stroke="#bfbfbf" points="523,-1409.5 523,-1466.5 552,-1466.5 552,-1409.5 523,-1409.5"/>
<text text-anchor="middle" x="537.5" y="-1454.5" font-family="Helvetica,sans-Serif" font-size="10.00">K</text>
<polyline fill="none" stroke="#bfbfbf" points="523,-1447.5 552,-1447.5 "/>
<text text-anchor="middle" x="537.5" y="-1435.5" font-family="Helvetica,sans-Serif" font-size="10.00"> </text>
<polyline fill="none" stroke="#bfbfbf" points="523,-1428.5 552,-1428.5 "/>
<text text-anchor="middle" x="537.5" y="-1416.5" font-family="Helvetica,sans-Serif" font-size="10.00"> </text>
</a>
</g>
</g>
<!-- Node11&#45;&gt;Node10 -->
<g id="edge10" class="edge">
<title>Node11&#45;&gt;Node10</title>
<path fill="none" stroke="#404040" d="M552.13,-1417.06C557.46,-1409.21 563.21,-1399.94 567.5,-1391 579.23,-1366.54 565.56,-1350.24 586.5,-1333 636.63,-1291.72 676.83,-1350.04 731.5,-1315 753.63,-1300.81 769.48,-1276.13 779.98,-1254.25"/>
<polygon fill="none" stroke="#404040" points="780.06,-1254.08 778.87,-1246.97 784.99,-1243.14 786.17,-1250.25 780.06,-1254.08"/>
<text text-anchor="middle" x="601" y="-1359.5" font-family="Helvetica,sans-Serif" font-size="10.00"> +keys</text>
</g>
<!-- Node18 -->
<g id="node18" class="node">
<title>Node18</title>
<g id="a_node18"><a xlink:title=" ">
<polygon fill="white" stroke="#bfbfbf" points="394,-1180.5 394,-1237.5 465,-1237.5 465,-1180.5 394,-1180.5"/>
<text text-anchor="middle" x="429.5" y="-1225.5" font-family="Helvetica,sans-Serif" font-size="10.00">std::set&lt; K &gt;</text>
<polyline fill="none" stroke="#bfbfbf" points="394,-1218.5 465,-1218.5 "/>
<text text-anchor="middle" x="429.5" y="-1206.5" font-family="Helvetica,sans-Serif" font-size="10.00"> </text>
<polyline fill="none" stroke="#bfbfbf" points="394,-1199.5 465,-1199.5 "/>
<text text-anchor="middle" x="429.5" y="-1187.5" font-family="Helvetica,sans-Serif" font-size="10.00"> </text>
</a>
</g>
</g>
<!-- Node11&#45;&gt;Node18 -->
<g id="edge22" class="edge">
<title>Node11&#45;&gt;Node18</title>
<path fill="none" stroke="#404040" d="M522.67,-1418.4C516.59,-1410.27 509.75,-1400.45 504.5,-1391 478.47,-1344.19 456.09,-1286.49 442.71,-1249"/>
<polygon fill="none" stroke="#404040" points="442.68,-1248.9 436.91,-1244.57 438.69,-1237.58 444.46,-1241.91 442.68,-1248.9"/>
<text text-anchor="middle" x="519" y="-1359.5" font-family="Helvetica,sans-Serif" font-size="10.00"> +keys</text>
</g>
<!-- Node19 -->
<g id="node19" class="node">
<title>Node19</title>
<g id="a_node19"><a xlink:title=" ">
<polygon fill="white" stroke="#bfbfbf" points="483,-1180.5 483,-1237.5 602,-1237.5 602,-1180.5 483,-1180.5"/>
<text text-anchor="middle" x="542.5" y="-1225.5" font-family="Helvetica,sans-Serif" font-size="10.00">std::unordered_set&lt; K &gt;</text>
<polyline fill="none" stroke="#bfbfbf" points="483,-1218.5 602,-1218.5 "/>
<text text-anchor="middle" x="542.5" y="-1206.5" font-family="Helvetica,sans-Serif" font-size="10.00"> </text>
<polyline fill="none" stroke="#bfbfbf" points="483,-1199.5 602,-1199.5 "/>
<text text-anchor="middle" x="542.5" y="-1187.5" font-family="Helvetica,sans-Serif" font-size="10.00"> </text>
</a>
</g>
</g>
<!-- Node11&#45;&gt;Node19 -->
<g id="edge24" class="edge">
<title>Node11&#45;&gt;Node19</title>
<path fill="none" stroke="#404040" d="M537.59,-1409.19C537.71,-1388.24 537.96,-1358.81 538.5,-1333 539.08,-1305.3 540.1,-1274.1 540.97,-1250.05"/>
<polygon fill="none" stroke="#404040" points="540.97,-1249.83 537.2,-1243.69 541.41,-1237.84 545.19,-1243.98 540.97,-1249.83"/>
<text text-anchor="middle" x="553" y="-1359.5" font-family="Helvetica,sans-Serif" font-size="10.00"> +keys</text>
</g>
<!-- Node12 -->
<g id="node12" class="node">
<title>Node12</title>
<g id="a_node12"><a xlink:title=" ">
<polygon fill="white" stroke="#bfbfbf" points="442,-921.5 442,-989.5 589,-989.5 589,-921.5 442,-921.5"/>
<text text-anchor="start" x="450" y="-977.5" font-family="Helvetica,sans-Serif" font-size="10.00">std::unordered_set</text>
<text text-anchor="middle" x="515.5" y="-966.5" font-family="Helvetica,sans-Serif" font-size="10.00">&lt; altintegration::BlockIndex * &gt;</text>
<polyline fill="none" stroke="#bfbfbf" points="442,-959.5 589,-959.5 "/>
<text text-anchor="middle" x="515.5" y="-947.5" font-family="Helvetica,sans-Serif" font-size="10.00"> </text>
<polyline fill="none" stroke="#bfbfbf" points="442,-940.5 589,-940.5 "/>
<text text-anchor="middle" x="515.5" y="-928.5" font-family="Helvetica,sans-Serif" font-size="10.00"> </text>
</a>
</g>
</g>
<!-- Node12&#45;&gt;Node2 -->
<g id="edge12" class="edge">
<title>Node12&#45;&gt;Node2</title>
<path fill="none" stroke="#404040" d="M484.12,-921.36C462,-895.65 434.15,-857.94 421.5,-819 392.16,-728.69 390.73,-621.34 396.21,-538.65"/>
<polygon fill="none" stroke="#404040" points="396.21,-538.61 392.65,-532.34 397.06,-526.64 400.62,-532.9 396.21,-538.61"/>
<text text-anchor="middle" x="436" y="-694" font-family="Helvetica,sans-Serif" font-size="10.00"> #tips_</text>
</g>
<!-- Node12&#45;&gt;Node20 -->
<g id="edge29" class="edge">
<title>Node12&#45;&gt;Node20</title>
<path fill="none" stroke="#404040" d="M518.07,-921.43C519.91,-897.84 522.51,-864.43 525.14,-830.59"/>
<polygon fill="none" stroke="#404040" points="525.14,-830.58 521.62,-824.29 526.07,-818.61 529.6,-824.91 525.14,-830.58"/>
<text text-anchor="middle" x="538" y="-840" font-family="Helvetica,sans-Serif" font-size="10.00"> #tips_</text>
</g>
<!-- Node13 -->
<g id="node13" class="node">
<title>Node13</title>
<g id="a_node13"><a xlink:href="structaltintegration_1_1BlockIndex.html" target="_top" xlink:title="A node in a block tree.">
<polygon fill="white" stroke="black" points="200,-1103.5 200,-1314.5 325,-1314.5 325,-1103.5 200,-1103.5"/>
<text text-anchor="start" x="208" y="-1302.5" font-family="Helvetica,sans-Serif" font-size="10.00">altintegration::BlockIndex</text>
<text text-anchor="middle" x="262.5" y="-1291.5" font-family="Helvetica,sans-Serif" font-size="10.00">&lt; Block &gt;</text>
<polyline fill="none" stroke="black" points="200,-1284.5 325,-1284.5 "/>
<text text-anchor="start" x="208" y="-1272.5" font-family="Helvetica,sans-Serif" font-size="10.00">+ finalized</text>
<text text-anchor="start" x="208" y="-1261.5" font-family="Helvetica,sans-Serif" font-size="10.00"># height</text>
<text text-anchor="start" x="208" y="-1250.5" font-family="Helvetica,sans-Serif" font-size="10.00"># status</text>
<text text-anchor="start" x="208" y="-1239.5" font-family="Helvetica,sans-Serif" font-size="10.00"># dirty</text>
<polyline fill="none" stroke="black" points="200,-1232.5 325,-1232.5 "/>
<text text-anchor="start" x="208" y="-1220.5" font-family="Helvetica,sans-Serif" font-size="10.00">+ BlockIndex()</text>
<text text-anchor="start" x="208" y="-1209.5" font-family="Helvetica,sans-Serif" font-size="10.00">+ BlockIndex()</text>
<text text-anchor="start" x="208" y="-1198.5" font-family="Helvetica,sans-Serif" font-size="10.00">+ ~BlockIndex()</text>
<text text-anchor="start" x="208" y="-1187.5" font-family="Helvetica,sans-Serif" font-size="10.00">+ BlockIndex()</text>
<text text-anchor="start" x="208" y="-1176.5" font-family="Helvetica,sans-Serif" font-size="10.00">+ operator=()</text>
<text text-anchor="start" x="208" y="-1165.5" font-family="Helvetica,sans-Serif" font-size="10.00">+ isDeleted()</text>
<text text-anchor="start" x="208" y="-1154.5" font-family="Helvetica,sans-Serif" font-size="10.00">+ isRoot()</text>
<text text-anchor="start" x="208" y="-1143.5" font-family="Helvetica,sans-Serif" font-size="10.00">+ restore()</text>
<text text-anchor="start" x="208" y="-1132.5" font-family="Helvetica,sans-Serif" font-size="10.00">+ deleteTemporarily()</text>
<text text-anchor="start" x="208" y="-1121.5" font-family="Helvetica,sans-Serif" font-size="10.00">+ mergeFrom()</text>
<text text-anchor="start" x="208" y="-1110.5" font-family="Helvetica,sans-Serif" font-size="10.00">and 40 more...</text>
</a>
</g>
</g>
<!-- Node13&#45;&gt;Node12 -->
<g id="edge13" class="edge">
<title>Node13&#45;&gt;Node12</title>
<path fill="none" stroke="#404040" d="M313.21,-1103.18C324.37,-1087.93 337.44,-1073.78 352.5,-1063 381.43,-1042.3 399.56,-1062.56 430.5,-1045 450.63,-1033.57 468.99,-1015.9 483.45,-999.34"/>
<polygon fill="none" stroke="#404040" points="483.77,-998.96 484.58,-991.79 491.5,-989.78 490.7,-996.95 483.77,-998.96"/>
<text text-anchor="middle" x="367" y="-1071.5" font-family="Helvetica,sans-Serif" font-size="10.00"> +keys</text>
</g>
<!-- Node13&#45;&gt;Node13 -->
<g id="edge18" class="edge">
<title>Node13&#45;&gt;Node13</title>
<path fill="none" stroke="#404040" d="M325.28,-1232.35C335.76,-1229.08 343,-1221.3 343,-1209 343,-1201.5 340.31,-1195.69 335.84,-1191.54"/>
<polygon fill="none" stroke="#404040" points="335.76,-1191.5 328.57,-1192.06 325.28,-1185.65 332.47,-1185.08 335.76,-1191.5"/>
<text text-anchor="middle" x="359.5" y="-1206.5" font-family="Helvetica,sans-Serif" font-size="10.00"> +pprev</text>
</g>
<!-- Node17 -->
<g id="node17" class="node">
<title>Node17</title>
<g id="a_node17"><a xlink:title=" ">
<polygon fill="white" stroke="#bfbfbf" points="309.5,-921.5 309.5,-989.5 421.5,-989.5 421.5,-921.5 309.5,-921.5"/>
<text text-anchor="start" x="317.5" y="-977.5" font-family="Helvetica,sans-Serif" font-size="10.00">std::set&lt; altintegration</text>
<text text-anchor="middle" x="365.5" y="-966.5" font-family="Helvetica,sans-Serif" font-size="10.00">::BlockIndex * &gt;</text>
<polyline fill="none" stroke="#bfbfbf" points="309.5,-959.5 421.5,-959.5 "/>
<text text-anchor="middle" x="365.5" y="-947.5" font-family="Helvetica,sans-Serif" font-size="10.00"> </text>
<polyline fill="none" stroke="#bfbfbf" points="309.5,-940.5 421.5,-940.5 "/>
<text text-anchor="middle" x="365.5" y="-928.5" font-family="Helvetica,sans-Serif" font-size="10.00"> </text>
</a>
</g>
</g>
<!-- Node13&#45;&gt;Node17 -->
<g id="edge20" class="edge">
<title>Node13&#45;&gt;Node17</title>
<path fill="none" stroke="#404040" d="M214.52,-1103.18C213.97,-1088.74 217.2,-1074.83 226.5,-1063 247.42,-1036.39 272.34,-1063.77 300.5,-1045 317.42,-1033.72 331.52,-1016.49 342.21,-1000.21"/>
<polygon fill="none" stroke="#404040" points="342.4,-999.91 342.18,-992.7 348.75,-989.72 348.97,-996.93 342.4,-999.91"/>
<text text-anchor="middle" x="241" y="-1071.5" font-family="Helvetica,sans-Serif" font-size="10.00"> +keys</text>
</g>
<!-- Node14 -->
<g id="node14" class="node">
<title>Node14</title>
<g id="a_node14"><a xlink:title=" ">
<polygon fill="white" stroke="#bfbfbf" points="222.5,-1409.5 222.5,-1466.5 302.5,-1466.5 302.5,-1409.5 222.5,-1409.5"/>
<text text-anchor="middle" x="262.5" y="-1454.5" font-family="Helvetica,sans-Serif" font-size="10.00">Block::addon_t</text>
<polyline fill="none" stroke="#bfbfbf" points="222.5,-1447.5 302.5,-1447.5 "/>
<text text-anchor="middle" x="262.5" y="-1435.5" font-family="Helvetica,sans-Serif" font-size="10.00"> </text>
<polyline fill="none" stroke="#bfbfbf" points="222.5,-1428.5 302.5,-1428.5 "/>
<text text-anchor="middle" x="262.5" y="-1416.5" font-family="Helvetica,sans-Serif" font-size="10.00"> </text>
</a>
</g>
</g>
<!-- Node14&#45;&gt;Node13 -->
<g id="edge14" class="edge">
<title>Node14&#45;&gt;Node13</title>
<path fill="none" stroke="midnightblue" d="M262.5,-1399.05C262.5,-1375.79 262.5,-1344.76 262.5,-1314.58"/>
<polygon fill="none" stroke="midnightblue" points="259,-1399.17 262.5,-1409.17 266,-1399.17 259,-1399.17"/>
</g>
<!-- Node15 -->
<g id="node15" class="node">
<title>Node15</title>
<g id="a_node15"><a xlink:title=" ">
<polygon fill="white" stroke="#bfbfbf" points="369.5,-1409.5 369.5,-1466.5 497.5,-1466.5 497.5,-1409.5 369.5,-1409.5"/>
<text text-anchor="middle" x="433.5" y="-1454.5" font-family="Helvetica,sans-Serif" font-size="10.00">std::shared_ptr&lt; block_t &gt;</text>
<polyline fill="none" stroke="#bfbfbf" points="369.5,-1447.5 497.5,-1447.5 "/>
<text text-anchor="start" x="377.5" y="-1435.5" font-family="Helvetica,sans-Serif" font-size="10.00">+ ptr</text>
<polyline fill="none" stroke="#bfbfbf" points="369.5,-1428.5 497.5,-1428.5 "/>
<text text-anchor="start" x="377.5" y="-1416.5" font-family="Helvetica,sans-Serif" font-size="10.00">+ operator&#45;&gt;()</text>
</a>
</g>
</g>
<!-- Node15&#45;&gt;Node13 -->
<g id="edge15" class="edge">
<title>Node15&#45;&gt;Node13</title>
<path fill="none" stroke="#404040" d="M412.53,-1409.17C392.51,-1382.59 361.21,-1341.03 332.36,-1302.74"/>
<polygon fill="none" stroke="#404040" points="332.31,-1302.67 325.5,-1300.29 325.09,-1293.09 331.89,-1295.47 332.31,-1302.67"/>
<text text-anchor="middle" x="416" y="-1359.5" font-family="Helvetica,sans-Serif" font-size="10.00"> #header</text>
</g>
<!-- Node16&#45;&gt;Node15 -->
<g id="edge16" class="edge">
<title>Node16&#45;&gt;Node15</title>
<path fill="none" stroke="orange" d="M529.73,-1553.56C507.39,-1526.96 477.24,-1491.07 456.68,-1466.59"/>
<polygon fill="orange" stroke="orange" points="527.28,-1556.08 536.39,-1561.49 532.64,-1551.58 527.28,-1556.08"/>
<text text-anchor="middle" x="544" y="-1511.5" font-family="Helvetica,sans-Serif" font-size="10.00"> &lt; block_t &gt;</text>
</g>
<!-- Node17&#45;&gt;Node13 -->
<g id="edge19" class="edge">
<title>Node17&#45;&gt;Node13</title>
<path fill="none" stroke="#404040" d="M345.87,-989.89C334.25,-1007.73 318.34,-1029.2 300.5,-1045 288.28,-1055.82 277.03,-1049.09 268.5,-1063 263.15,-1071.72 259.35,-1081.33 256.74,-1091.31"/>
<polygon fill="none" stroke="#404040" points="256.71,-1091.45 259.37,-1098.15 254.2,-1103.18 251.54,-1096.48 256.71,-1091.45"/>
<text text-anchor="middle" x="284.5" y="-1071.5" font-family="Helvetica,sans-Serif" font-size="10.00"> +pnext</text>
</g>
<!-- Node18&#45;&gt;Node17 -->
<g id="edge21" class="edge">
<title>Node18&#45;&gt;Node17</title>
<path fill="none" stroke="orange" d="M416.06,-1170.94C407.62,-1146.72 396.96,-1114.26 389.5,-1085 381.32,-1052.89 374.66,-1015.61 370.45,-989.5"/>
<polygon fill="orange" stroke="orange" points="412.78,-1172.19 419.41,-1180.46 419.39,-1169.86 412.78,-1172.19"/>
<text text-anchor="middle" x="456" y="-1071.5" font-family="Helvetica,sans-Serif" font-size="10.00"> &lt; altintegration::BlockIndex * &gt;</text>
</g>
<!-- Node19&#45;&gt;Node12 -->
<g id="edge23" class="edge">
<title>Node19&#45;&gt;Node12</title>
<path fill="none" stroke="orange" d="M538.41,-1169.92C533.14,-1120.83 524.06,-1036.25 519.06,-989.67"/>
<polygon fill="orange" stroke="orange" points="534.96,-1170.55 539.51,-1180.12 541.92,-1169.81 534.96,-1170.55"/>
<text text-anchor="middle" x="595" y="-1071.5" font-family="Helvetica,sans-Serif" font-size="10.00"> &lt; altintegration::BlockIndex * &gt;</text>
</g>
<!-- Node20&#45;&gt;Node2 -->
<g id="edge25" class="edge">
<title>Node20&#45;&gt;Node2</title>
<path fill="none" stroke="orange" d="M480.14,-564.97C474.75,-552.26 469.29,-539.4 463.94,-526.79"/>
<polygon fill="orange" stroke="orange" points="476.92,-566.35 484.05,-574.19 483.37,-563.62 476.92,-566.35"/>
<text text-anchor="middle" x="501.5" y="-548" font-family="Helvetica,sans-Serif" font-size="10.00"> &lt; AltBlock &gt;</text>
</g>
</g>
</svg>
        <g id="navigator" transform="translate(0 0)" fill="#404254">
                <rect fill="#f2f5e9" fill-opacity="0.5" stroke="#606060" stroke-width=".5" x="0" y="0" width="60" height="60"/>
                <use id="zoomplus" xlink:href="#zoomPlus" x="17" y="9" onmousedown="handleZoom(evt,'in')"/>
                <use id="zoomminus" xlink:href="#zoomMin" x="42" y="9" onmousedown="handleZoom(evt,'out')"/>
                <use id="reset" xlink:href="#resetDef" x="30" y="36" onmousedown="handleReset()"/>
                <g id="arrowUp" xlink:href="#dirArrow" transform="translate(30 24)" onmousedown="handlePan(0,-1)">
                  <use xlink:href="#rim" fill="#404040">
                        <set attributeName="fill" to="#808080" begin="arrowUp.mouseover" end="arrowUp.mouseout"/>
                  </use>
                  <path fill="none" stroke="white" stroke-width="1.5" d="M0,-3.0v7 M-2.5,-0.5L0,-3.0L2.5,-0.5"/>
                </g>
                <g id="arrowRight" xlink:href="#dirArrow" transform="rotate(90) translate(36 -43)" onmousedown="handlePan(1,0)">
                  <use xlink:href="#rim" fill="#404040">
                        <set attributeName="fill" to="#808080" begin="arrowRight.mouseover" end="arrowRight.mouseout"/>
                  </use>
                  <path fill="none" stroke="white" stroke-width="1.5" d="M0,-3.0v7 M-2.5,-0.5L0,-3.0L2.5,-0.5"/>
                </g>
                <g id="arrowDown" xlink:href="#dirArrow" transform="rotate(180) translate(-30 -48)" onmousedown="handlePan(0,1)">
                  <use xlink:href="#rim" fill="#404040">
                        <set attributeName="fill" to="#808080" begin="arrowDown.mouseover" end="arrowDown.mouseout"/>
                  </use>
                  <path fill="none" stroke="white" stroke-width="1.5" d="M0,-3.0v7 M-2.5,-0.5L0,-3.0L2.5,-0.5"/>
                </g>
                <g id="arrowLeft" xlink:href="#dirArrow" transform="rotate(270) translate(-36 17)" onmousedown="handlePan(-1,0)">
                  <use xlink:href="#rim" fill="#404040">
                        <set attributeName="fill" to="#808080" begin="arrowLeft.mouseover" end="arrowLeft.mouseout"/>
                  </use>
                  <path fill="none" stroke="white" stroke-width="1.5" d="M0,-3.0v7 M-2.5,-0.5L0,-3.0L2.5,-0.5"/>
                </g>
        </g>
        <svg viewBox="0 0 15 15" width="100%" height="30px" preserveAspectRatio="xMaxYMin meet">
         <g id="arrow_out" transform="scale(0.3 0.3)">
          <a xlink:href="structaltintegration_1_1AltBlockTree__coll__graph_org.svg" target="_base">
           <rect id="button" ry="5" rx="5" y="6" x="6" height="38" width="38"
                fill="#f2f5e9" fill-opacity="0.5" stroke="#606060" stroke-width="1.0"/>
           <path id="arrow"
             d="M 11.500037,31.436501 C 11.940474,20.09759 22.043105,11.32322 32.158766,21.979434 L 37.068811,17.246167 C 37.068811,17.246167 37.088388,32 37.088388,32 L 22.160133,31.978069 C 22.160133,31.978069 26.997745,27.140456 26.997745,27.140456 C 18.528582,18.264221 13.291696,25.230495 11.500037,31.436501 z"
             style="fill:#404040;"/>
          </a>
         </g>
        </svg>
</svg>
