<?xml version="1.0" encoding="UTF-8" standalone="no"?>
<!DOCTYPE svg PUBLIC "-//W3C//DTD SVG 1.1//EN"
 "http://www.w3.org/Graphics/SVG/1.1/DTD/svg11.dtd">
<!-- Generated by graphviz version 2.44.0 ()
 -->
<!-- Title: altintegration::DefaultPopRewardsCalculator Pages: 1 -->
<svg width="174pt" height="314pt"
 viewBox="0.00 0.00 174.00 314.00" xmlns="http://www.w3.org/2000/svg" xmlns:xlink="http://www.w3.org/1999/xlink">
<g id="graph0" class="graph" transform="scale(1 1) rotate(0) translate(4 310)">
<title>altintegration::DefaultPopRewardsCalculator</title>
<polygon fill="white" stroke="transparent" points="-4,4 -4,-310 170,-310 170,4 -4,4"/>
<!-- Node1 -->
<g id="node1" class="node">
<title>Node1</title>
<g id="a_node1"><a xlink:title=" ">
<polygon fill="#bfbfbf" stroke="black" points="0,-0.5 0,-189.5 166,-189.5 166,-0.5 0,-0.5"/>
<text text-anchor="start" x="8" y="-177.5" font-family="Helvetica,sans-Serif" font-size="10.00">altintegration::DefaultPop</text>
<text text-anchor="middle" x="83" y="-166.5" font-family="Helvetica,sans-Serif" font-size="10.00">RewardsCalculator</text>
<polyline fill="none" stroke="black" points="0,-159.5 166,-159.5 "/>
<text text-anchor="start" x="8" y="-147.5" font-family="Helvetica,sans-Serif" font-size="10.00"># tree_</text>
<polyline fill="none" stroke="black" points="0,-140.5 166,-140.5 "/>
<text text-anchor="start" x="8" y="-128.5" font-family="Helvetica,sans-Serif" font-size="10.00">+ DefaultPopRewardsCalculator()</text>
<text text-anchor="start" x="8" y="-117.5" font-family="Helvetica,sans-Serif" font-size="10.00">+ ~DefaultPopRewardsCalculator()</text>
<text text-anchor="start" x="8" y="-106.5" font-family="Helvetica,sans-Serif" font-size="10.00">+ getPopPayout()</text>
<text text-anchor="start" x="8" y="-95.5" font-family="Helvetica,sans-Serif" font-size="10.00">+ calculatePayouts()</text>
<text text-anchor="start" x="8" y="-84.5" font-family="Helvetica,sans-Serif" font-size="10.00">+ scoreFromEndorsements()</text>
<text text-anchor="start" x="8" y="-73.5" font-family="Helvetica,sans-Serif" font-size="10.00">+ getRoundForBlockNumber()</text>
<text text-anchor="start" x="8" y="-62.5" font-family="Helvetica,sans-Serif" font-size="10.00">+ calculateBlockReward()</text>
<text text-anchor="start" x="8" y="-51.5" font-family="Helvetica,sans-Serif" font-size="10.00">+ calculateMinerReward()</text>
<text text-anchor="start" x="8" y="-40.5" font-family="Helvetica,sans-Serif" font-size="10.00"># getScoreMultiplierFromRelative</text>
<text text-anchor="start" x="8" y="-29.5" font-family="Helvetica,sans-Serif" font-size="10.00">Block()</text>
<text text-anchor="start" x="8" y="-18.5" font-family="Helvetica,sans-Serif" font-size="10.00"># calculateDifficulty()</text>
<text text-anchor="start" x="8" y="-7.5" font-family="Helvetica,sans-Serif" font-size="10.00"># calculatePayoutsInner()</text>
</a>
</g>
</g>
<!-- Node2 -->
<g id="node2" class="node">
<title>Node2</title>
<g id="a_node2"><a xlink:href="structaltintegration_1_1PopRewardsCalculator.html" target="_top" xlink:title=" ">
<polygon fill="white" stroke="black" points="15.5,-226.5 15.5,-305.5 150.5,-305.5 150.5,-226.5 15.5,-226.5"/>
<text text-anchor="start" x="23.5" y="-293.5" font-family="Helvetica,sans-Serif" font-size="10.00">altintegration::PopRewards</text>
<text text-anchor="middle" x="83" y="-282.5" font-family="Helvetica,sans-Serif" font-size="10.00">Calculator</text>
<polyline fill="none" stroke="black" points="15.5,-275.5 150.5,-275.5 "/>
<text text-anchor="middle" x="83" y="-263.5" font-family="Helvetica,sans-Serif" font-size="10.00"> </text>
<polyline fill="none" stroke="black" points="15.5,-256.5 150.5,-256.5 "/>
<text text-anchor="start" x="23.5" y="-244.5" font-family="Helvetica,sans-Serif" font-size="10.00">+ ~PopRewardsCalculator()</text>
<text text-anchor="start" x="23.5" y="-233.5" font-family="Helvetica,sans-Serif" font-size="10.00">+ getPopPayout()</text>
</a>
</g>
</g>
<!-- Node2&#45;&gt;Node1 -->
<g id="edge1" class="edge">
<title>Node2&#45;&gt;Node1</title>
<path fill="none" stroke="midnightblue" d="M83,-215.97C83,-207.6 83,-198.67 83,-189.6"/>
<polygon fill="none" stroke="midnightblue" points="79.5,-216.23 83,-226.23 86.5,-216.23 79.5,-216.23"/>
</g>
</g>
</svg>
