<?xml version="1.0" encoding="UTF-8" standalone="no"?>
<!DOCTYPE svg PUBLIC "-//W3C//DTD SVG 1.1//EN"
 "http://www.w3.org/Graphics/SVG/1.1/DTD/svg11.dtd">
<!-- Generated by graphviz version 3.0.0 (20220413.0242)
 -->
<!-- Title: altintegration::adaptors::ProgpowHeaderCacheImpl Pages: 1 -->
<svg width="160pt" height="386pt"
 viewBox="0.00 0.00 160.00 386.00" xmlns="http://www.w3.org/2000/svg" xmlns:xlink="http://www.w3.org/1999/xlink">
<g id="graph0" class="graph" transform="scale(1 1) rotate(0) translate(4 382)">
<title>altintegration::adaptors::ProgpowHeaderCacheImpl</title>
<polygon fill="white" stroke="transparent" points="-4,4 -4,-382 156,-382 156,4 -4,4"/>
<!-- Node1 -->
<g id="node1" class="node">
<title>Node1</title>
<g id="a_node1"><a xlink:title=" ">
<polygon fill="#bfbfbf" stroke="black" points="0,-0.5 0,-101.5 152,-101.5 152,-0.5 0,-0.5"/>
<text text-anchor="start" x="8" y="-89.5" font-family="Helvetica,sans-Serif" font-size="10.00">altintegration::adaptors</text>
<text text-anchor="middle" x="76" y="-78.5" font-family="Helvetica,sans-Serif" font-size="10.00">::ProgpowHeaderCacheImpl</text>
<polyline fill="none" stroke="black" points="0,-71.5 152,-71.5 "/>
<text text-anchor="middle" x="76" y="-59.5" font-family="Helvetica,sans-Serif" font-size="10.00"> </text>
<polyline fill="none" stroke="black" points="0,-52.5 152,-52.5 "/>
<text text-anchor="start" x="8" y="-40.5" font-family="Helvetica,sans-Serif" font-size="10.00">+ ~ProgpowHeaderCacheImpl()</text>
<text text-anchor="start" x="8" y="-29.5" font-family="Helvetica,sans-Serif" font-size="10.00">+ ProgpowHeaderCacheImpl()</text>
<text text-anchor="start" x="8" y="-18.5" font-family="Helvetica,sans-Serif" font-size="10.00">+ get()</text>
<text text-anchor="start" x="8" y="-7.5" font-family="Helvetica,sans-Serif" font-size="10.00">+ insert()</text>
</a>
</g>
</g>
<!-- Node2 -->
<g id="node2" class="node">
<title>Node2</title>
<g id="a_node2"><a xlink:href="structaltintegration_1_1ProgpowHeaderCache.html" target="_top" xlink:title=" ">
<polygon fill="white" stroke="#bfbfbf" points="3,-138.5 3,-239.5 149,-239.5 149,-138.5 3,-138.5"/>
<text text-anchor="start" x="11" y="-227.5" font-family="Helvetica,sans-Serif" font-size="10.00">altintegration::ProgpowHeader</text>
<text text-anchor="middle" x="76" y="-216.5" font-family="Helvetica,sans-Serif" font-size="10.00">Cache</text>
<polyline fill="none" stroke="#bfbfbf" points="3,-209.5 149,-209.5 "/>
<text text-anchor="middle" x="76" y="-197.5" font-family="Helvetica,sans-Serif" font-size="10.00"> </text>
<polyline fill="none" stroke="#bfbfbf" points="3,-190.5 149,-190.5 "/>
<text text-anchor="start" x="11" y="-178.5" font-family="Helvetica,sans-Serif" font-size="10.00">+ ~ProgpowHeaderCache()</text>
<text text-anchor="start" x="11" y="-167.5" font-family="Helvetica,sans-Serif" font-size="10.00">+ get()</text>
<text text-anchor="start" x="11" y="-156.5" font-family="Helvetica,sans-Serif" font-size="10.00">+ tryGet()</text>
<text text-anchor="start" x="11" y="-145.5" font-family="Helvetica,sans-Serif" font-size="10.00">+ clear()</text>
</a>
</g>
</g>
<!-- Node2&#45;&gt;Node1 -->
<g id="edge1" class="edge">
<title>Node2&#45;&gt;Node1</title>
<path fill="none" stroke="midnightblue" d="M76,-128C76,-119.27 76,-110.36 76,-101.86"/>
<polygon fill="none" stroke="midnightblue" points="72.5,-128.13 76,-138.13 79.5,-128.13 72.5,-128.13"/>
</g>
<!-- Node3 -->
<g id="node3" class="node">
<title>Node3</title>
<g id="a_node3"><a xlink:href="structaltintegration_1_1ProgpowHeaderCacheI.html" target="_top" xlink:title=" ">
<polygon fill="white" stroke="#bfbfbf" points="3,-276.5 3,-377.5 149,-377.5 149,-276.5 3,-276.5"/>
<text text-anchor="start" x="11" y="-365.5" font-family="Helvetica,sans-Serif" font-size="10.00">altintegration::ProgpowHeader</text>
<text text-anchor="middle" x="76" y="-354.5" font-family="Helvetica,sans-Serif" font-size="10.00">CacheI</text>
<polyline fill="none" stroke="#bfbfbf" points="3,-347.5 149,-347.5 "/>
<text text-anchor="middle" x="76" y="-335.5" font-family="Helvetica,sans-Serif" font-size="10.00"> </text>
<polyline fill="none" stroke="#bfbfbf" points="3,-328.5 149,-328.5 "/>
<text text-anchor="start" x="11" y="-316.5" font-family="Helvetica,sans-Serif" font-size="10.00">+ ~ProgpowHeaderCacheI()</text>
<text text-anchor="start" x="11" y="-305.5" font-family="Helvetica,sans-Serif" font-size="10.00">+ insert()</text>
<text text-anchor="start" x="11" y="-294.5" font-family="Helvetica,sans-Serif" font-size="10.00">+ tryGet()</text>
<text text-anchor="start" x="11" y="-283.5" font-family="Helvetica,sans-Serif" font-size="10.00">+ clear()</text>
</a>
</g>
</g>
<!-- Node3&#45;&gt;Node2 -->
<g id="edge2" class="edge">
<title>Node3&#45;&gt;Node2</title>
<path fill="none" stroke="midnightblue" d="M76,-266C76,-257.27 76,-248.36 76,-239.86"/>
<polygon fill="none" stroke="midnightblue" points="72.5,-266.13 76,-276.13 79.5,-266.13 72.5,-266.13"/>
</g>
</g>
</svg>
