<?xml version="1.0" encoding="UTF-8" standalone="no"?>
<!DOCTYPE svg PUBLIC "-//W3C//DTD SVG 1.1//EN"
 "http://www.w3.org/Graphics/SVG/1.1/DTD/svg11.dtd">
<!-- Generated by graphviz version 2.50.0 (20220203.2022)
 -->
<!-- Title: altintegration::AltChainParamsRegTest Pages: 1 -->
<svg width="425pt" height="1341pt"
 viewBox="0.00 0.00 425.00 1341.00" xmlns="http://www.w3.org/2000/svg" xmlns:xlink="http://www.w3.org/1999/xlink">
<g id="graph0" class="graph" transform="scale(1 1) rotate(0) translate(4 1337)">
<title>altintegration::AltChainParamsRegTest</title>
<polygon fill="white" stroke="transparent" points="-4,4 -4,-1337 421,-1337 421,4 -4,4"/>
<!-- Node1 -->
<g id="node1" class="node">
<title>Node1</title>
<g id="a_node1"><a xlink:title=" ">
<polygon fill="#bfbfbf" stroke="black" points="13.5,-0.5 13.5,-123.5 156.5,-123.5 156.5,-0.5 13.5,-0.5"/>
<text text-anchor="start" x="21.5" y="-111.5" font-family="Helvetica,sans-Serif" font-size="10.00">altintegration::AltChain</text>
<text text-anchor="middle" x="85" y="-100.5" font-family="Helvetica,sans-Serif" font-size="10.00">ParamsRegTest</text>
<polyline fill="none" stroke="black" points="13.5,-93.5 156.5,-93.5 "/>
<text text-anchor="start" x="21.5" y="-81.5" font-family="Helvetica,sans-Serif" font-size="10.00">+ id</text>
<polyline fill="none" stroke="black" points="13.5,-74.5 156.5,-74.5 "/>
<text text-anchor="start" x="21.5" y="-62.5" font-family="Helvetica,sans-Serif" font-size="10.00">+ AltChainParamsRegTest()</text>
<text text-anchor="start" x="21.5" y="-51.5" font-family="Helvetica,sans-Serif" font-size="10.00">+ ~AltChainParamsRegTest()</text>
<text text-anchor="start" x="21.5" y="-40.5" font-family="Helvetica,sans-Serif" font-size="10.00">+ getBootstrapBlock()</text>
<text text-anchor="start" x="21.5" y="-29.5" font-family="Helvetica,sans-Serif" font-size="10.00">+ getIdentifier()</text>
<text text-anchor="start" x="21.5" y="-18.5" font-family="Helvetica,sans-Serif" font-size="10.00">+ getHash()</text>
<text text-anchor="start" x="21.5" y="-7.5" font-family="Helvetica,sans-Serif" font-size="10.00">+ checkBlockHeader()</text>
</a>
</g>
</g>
<!-- Node2 -->
<g id="node2" class="node">
<title>Node2</title>
<g id="a_node2"><a xlink:href="structaltintegration_1_1AltChainParams.html" target="_top" xlink:title="Base class for all Altchain&#45;related configs.">
<polygon fill="white" stroke="black" points="0,-161.5 0,-449.5 170,-449.5 170,-161.5 0,-161.5"/>
<text text-anchor="start" x="8" y="-437.5" font-family="Helvetica,sans-Serif" font-size="10.00">altintegration::AltChain</text>
<text text-anchor="middle" x="85" y="-426.5" font-family="Helvetica,sans-Serif" font-size="10.00">Params</text>
<polyline fill="none" stroke="black" points="0,-419.5 170,-419.5 "/>
<text text-anchor="start" x="8" y="-407.5" font-family="Helvetica,sans-Serif" font-size="10.00">+ mMaxReorgBlocks</text>
<text text-anchor="start" x="8" y="-396.5" font-family="Helvetica,sans-Serif" font-size="10.00">+ mMaxAltchainFutureBlockTime</text>
<text text-anchor="start" x="8" y="-385.5" font-family="Helvetica,sans-Serif" font-size="10.00">+ mKeystoneInterval</text>
<text text-anchor="start" x="8" y="-374.5" font-family="Helvetica,sans-Serif" font-size="10.00">+ mFinalityDelay</text>
<text text-anchor="start" x="8" y="-363.5" font-family="Helvetica,sans-Serif" font-size="10.00">+ mEndorsementSettlementInterval</text>
<text text-anchor="start" x="8" y="-352.5" font-family="Helvetica,sans-Serif" font-size="10.00">+ mPreserveBlocksBehindFinal</text>
<text text-anchor="start" x="8" y="-341.5" font-family="Helvetica,sans-Serif" font-size="10.00">+ mMaxPopDataSize</text>
<text text-anchor="start" x="8" y="-330.5" font-family="Helvetica,sans-Serif" font-size="10.00">+ mMaxVbkBlocksInAltBlock</text>
<text text-anchor="start" x="8" y="-319.5" font-family="Helvetica,sans-Serif" font-size="10.00">+ mMaxVTBsInAltBlock</text>
<text text-anchor="start" x="8" y="-308.5" font-family="Helvetica,sans-Serif" font-size="10.00">+ mMaxATVsInAltBlock</text>
<polyline fill="none" stroke="black" points="0,-301.5 170,-301.5 "/>
<text text-anchor="start" x="8" y="-289.5" font-family="Helvetica,sans-Serif" font-size="10.00">+ ~AltChainParams()</text>
<text text-anchor="start" x="8" y="-278.5" font-family="Helvetica,sans-Serif" font-size="10.00">+ maxWorkerQueueSize()</text>
<text text-anchor="start" x="8" y="-267.5" font-family="Helvetica,sans-Serif" font-size="10.00">+ getKeystoneInterval()</text>
<text text-anchor="start" x="8" y="-256.5" font-family="Helvetica,sans-Serif" font-size="10.00">+ getFinalityDelay()</text>
<text text-anchor="start" x="8" y="-245.5" font-family="Helvetica,sans-Serif" font-size="10.00">+ getForkResolutionLookUpTable()</text>
<text text-anchor="start" x="8" y="-234.5" font-family="Helvetica,sans-Serif" font-size="10.00">+ getEndorsementSettlement</text>
<text text-anchor="start" x="8" y="-223.5" font-family="Helvetica,sans-Serif" font-size="10.00">Interval()</text>
<text text-anchor="start" x="8" y="-212.5" font-family="Helvetica,sans-Serif" font-size="10.00">+ getPayoutParams()</text>
<text text-anchor="start" x="8" y="-201.5" font-family="Helvetica,sans-Serif" font-size="10.00">+ getMaxVbkBlocksInAltBlock()</text>
<text text-anchor="start" x="8" y="-190.5" font-family="Helvetica,sans-Serif" font-size="10.00">+ getMaxVTBsInAltBlock()</text>
<text text-anchor="start" x="8" y="-179.5" font-family="Helvetica,sans-Serif" font-size="10.00">+ getMaxATVsInAltBlock()</text>
<text text-anchor="start" x="8" y="-168.5" font-family="Helvetica,sans-Serif" font-size="10.00">and 8 more...</text>
</a>
</g>
</g>
<!-- Node2&#45;&gt;Node1 -->
<g id="edge1" class="edge">
<title>Node2&#45;&gt;Node1</title>
<path fill="none" stroke="midnightblue" d="M85,-151.18C85,-141.63 85,-132.37 85,-123.67"/>
<polygon fill="none" stroke="midnightblue" points="81.5,-151.23 85,-161.23 88.5,-151.23 81.5,-151.23"/>
</g>
<!-- Node3 -->
<g id="node3" class="node">
<title>Node3</title>
<g id="a_node3"><a xlink:title=" ">
<polygon fill="white" stroke="black" points="161,-497.5 161,-565.5 305,-565.5 305,-497.5 161,-497.5"/>
<text text-anchor="start" x="169" y="-553.5" font-family="Helvetica,sans-Serif" font-size="10.00">std::shared_ptr&lt; altintegration</text>
<text text-anchor="middle" x="233" y="-542.5" font-family="Helvetica,sans-Serif" font-size="10.00">::PopPayoutsParams &gt;</text>
<polyline fill="none" stroke="black" points="161,-535.5 305,-535.5 "/>
<text text-anchor="middle" x="233" y="-523.5" font-family="Helvetica,sans-Serif" font-size="10.00"> </text>
<polyline fill="none" stroke="black" points="161,-516.5 305,-516.5 "/>
<text text-anchor="start" x="169" y="-504.5" font-family="Helvetica,sans-Serif" font-size="10.00">+ operator&#45;&gt;()</text>
</a>
</g>
</g>
<!-- Node3&#45;&gt;Node2 -->
<g id="edge2" class="edge">
<title>Node3&#45;&gt;Node2</title>
<path fill="none" stroke="#404040" d="M211.16,-497.45C201.58,-482.94 189.61,-464.83 176.9,-445.59"/>
<polygon fill="none" stroke="#404040" points="176.81,-445.45 170.16,-442.65 170.19,-435.44 176.84,-438.24 176.81,-445.45"/>
<text text-anchor="middle" x="249.5" y="-471" font-family="Helvetica,sans-Serif" font-size="10.00"> +mPopPayoutsParams</text>
</g>
<!-- Node4 -->
<g id="node4" class="node">
<title>Node4</title>
<g id="a_node4"><a xlink:href="structaltintegration_1_1PopPayoutsParams.html" target="_top" xlink:title="Defines config for POP payouts.">
<polygon fill="white" stroke="black" points="97,-613.5 97,-923.5 257,-923.5 257,-613.5 97,-613.5"/>
<text text-anchor="start" x="105" y="-911.5" font-family="Helvetica,sans-Serif" font-size="10.00">altintegration::PopPayouts</text>
<text text-anchor="middle" x="177" y="-900.5" font-family="Helvetica,sans-Serif" font-size="10.00">Params</text>
<polyline fill="none" stroke="black" points="97,-893.5 257,-893.5 "/>
<text text-anchor="start" x="105" y="-881.5" font-family="Helvetica,sans-Serif" font-size="10.00">+ mStartOfSlope</text>
<text text-anchor="start" x="105" y="-870.5" font-family="Helvetica,sans-Serif" font-size="10.00">+ mSlopeNormal</text>
<text text-anchor="start" x="105" y="-859.5" font-family="Helvetica,sans-Serif" font-size="10.00">+ mSlopeKeystone</text>
<text text-anchor="start" x="105" y="-848.5" font-family="Helvetica,sans-Serif" font-size="10.00">+ mKeystoneRound</text>
<text text-anchor="start" x="105" y="-837.5" font-family="Helvetica,sans-Serif" font-size="10.00">+ mPayoutRounds</text>
<text text-anchor="start" x="105" y="-826.5" font-family="Helvetica,sans-Serif" font-size="10.00">+ mFlatScoreRound</text>
<text text-anchor="start" x="105" y="-815.5" font-family="Helvetica,sans-Serif" font-size="10.00">+ mUseFlatScoreRound</text>
<text text-anchor="start" x="105" y="-804.5" font-family="Helvetica,sans-Serif" font-size="10.00">+ mMaxScoreThresholdNormal</text>
<text text-anchor="start" x="105" y="-793.5" font-family="Helvetica,sans-Serif" font-size="10.00">+ mMaxScoreThresholdKeystone</text>
<text text-anchor="start" x="105" y="-782.5" font-family="Helvetica,sans-Serif" font-size="10.00">+ mDifficultyAveragingInterval</text>
<text text-anchor="start" x="105" y="-771.5" font-family="Helvetica,sans-Serif" font-size="10.00">+ mPopPayoutDelay</text>
<polyline fill="none" stroke="black" points="97,-764.5 257,-764.5 "/>
<text text-anchor="start" x="105" y="-752.5" font-family="Helvetica,sans-Serif" font-size="10.00">+ startOfSlope()</text>
<text text-anchor="start" x="105" y="-741.5" font-family="Helvetica,sans-Serif" font-size="10.00">+ slopeNormal()</text>
<text text-anchor="start" x="105" y="-730.5" font-family="Helvetica,sans-Serif" font-size="10.00">+ slopeKeystone()</text>
<text text-anchor="start" x="105" y="-719.5" font-family="Helvetica,sans-Serif" font-size="10.00">+ keystoneRound()</text>
<text text-anchor="start" x="105" y="-708.5" font-family="Helvetica,sans-Serif" font-size="10.00">+ payoutRounds()</text>
<text text-anchor="start" x="105" y="-697.5" font-family="Helvetica,sans-Serif" font-size="10.00">+ flatScoreRound()</text>
<text text-anchor="start" x="105" y="-686.5" font-family="Helvetica,sans-Serif" font-size="10.00">+ useFlatScoreRound()</text>
<text text-anchor="start" x="105" y="-675.5" font-family="Helvetica,sans-Serif" font-size="10.00">+ roundRatios()</text>
<text text-anchor="start" x="105" y="-664.5" font-family="Helvetica,sans-Serif" font-size="10.00">+ maxScoreThresholdNormal()</text>
<text text-anchor="start" x="105" y="-653.5" font-family="Helvetica,sans-Serif" font-size="10.00">+ maxScoreThresholdKeystone()</text>
<text text-anchor="start" x="105" y="-642.5" font-family="Helvetica,sans-Serif" font-size="10.00">+ difficultyAveragingInterval()</text>
<text text-anchor="start" x="105" y="-631.5" font-family="Helvetica,sans-Serif" font-size="10.00">+ relativeScoreLookupTable()</text>
<text text-anchor="start" x="105" y="-620.5" font-family="Helvetica,sans-Serif" font-size="10.00">+ getPopPayoutDelay()</text>
</a>
</g>
</g>
<!-- Node4&#45;&gt;Node3 -->
<g id="edge3" class="edge">
<title>Node4&#45;&gt;Node3</title>
<path fill="none" stroke="#404040" d="M213.73,-613.37C216.81,-600.43 219.74,-588.14 222.34,-577.23"/>
<polygon fill="none" stroke="#404040" points="222.35,-577.21 219.85,-570.44 225.13,-565.54 227.63,-572.3 222.35,-577.21"/>
<text text-anchor="middle" x="230" y="-587" font-family="Helvetica,sans-Serif" font-size="10.00"> +ptr</text>
</g>
<!-- Node5 -->
<g id="node5" class="node">
<title>Node5</title>
<g id="a_node5"><a xlink:title=" ">
<polygon fill="white" stroke="black" points="123.5,-1018.5 123.5,-1075.5 230.5,-1075.5 230.5,-1018.5 123.5,-1018.5"/>
<text text-anchor="middle" x="177" y="-1063.5" font-family="Helvetica,sans-Serif" font-size="10.00">std::vector&lt; double &gt;</text>
<polyline fill="none" stroke="black" points="123.5,-1056.5 230.5,-1056.5 "/>
<text text-anchor="start" x="131.5" y="-1044.5" font-family="Helvetica,sans-Serif" font-size="10.00">+ elements</text>
<polyline fill="none" stroke="black" points="123.5,-1037.5 230.5,-1037.5 "/>
<text text-anchor="middle" x="177" y="-1025.5" font-family="Helvetica,sans-Serif" font-size="10.00"> </text>
</a>
</g>
</g>
<!-- Node5&#45;&gt;Node4 -->
<g id="edge4" class="edge">
<title>Node5&#45;&gt;Node4</title>
<path fill="none" stroke="#404040" d="M177,-1018.48C177,-997.95 177,-968.01 177,-935.97"/>
<polygon fill="none" stroke="#404040" points="177,-935.6 173,-929.6 177,-923.6 181,-929.6 177,-935.6"/>
<text text-anchor="middle" x="213.5" y="-974" font-family="Helvetica,sans-Serif" font-size="10.00"> +mLookupTable</text>
<text text-anchor="middle" x="213.5" y="-963" font-family="Helvetica,sans-Serif" font-size="10.00">+mRoundRatios</text>
</g>
<!-- Node6 -->
<g id="node6" class="node">
<title>Node6</title>
<g id="a_node6"><a xlink:title=" ">
<polygon fill="white" stroke="black" points="135,-1170.5 135,-1227.5 219,-1227.5 219,-1170.5 135,-1170.5"/>
<text text-anchor="middle" x="177" y="-1215.5" font-family="Helvetica,sans-Serif" font-size="10.00">std::vector&lt; T &gt;</text>
<polyline fill="none" stroke="black" points="135,-1208.5 219,-1208.5 "/>
<text text-anchor="middle" x="177" y="-1196.5" font-family="Helvetica,sans-Serif" font-size="10.00"> </text>
<polyline fill="none" stroke="black" points="135,-1189.5 219,-1189.5 "/>
<text text-anchor="middle" x="177" y="-1177.5" font-family="Helvetica,sans-Serif" font-size="10.00"> </text>
</a>
</g>
</g>
<!-- Node6&#45;&gt;Node5 -->
<g id="edge5" class="edge">
<title>Node6&#45;&gt;Node5</title>
<path fill="none" stroke="orange" d="M175.23,-1160.23C175.14,-1157.45 175.06,-1154.68 175,-1152 174.44,-1126.23 174.44,-1119.77 175,-1094 175.13,-1088.09 175.35,-1081.75 175.6,-1075.72"/>
<polygon fill="orange" stroke="orange" points="171.73,-1160.41 175.6,-1170.28 178.73,-1160.15 171.73,-1160.41"/>
<text text-anchor="middle" x="199" y="-1120.5" font-family="Helvetica,sans-Serif" font-size="10.00"> &lt; double &gt;</text>
</g>
<!-- Node9 -->
<g id="node9" class="node">
<title>Node9</title>
<g id="a_node9"><a xlink:title=" ">
<polygon fill="white" stroke="black" points="25.5,-942.5 25.5,-999.5 138.5,-999.5 138.5,-942.5 25.5,-942.5"/>
<text text-anchor="middle" x="82" y="-987.5" font-family="Helvetica,sans-Serif" font-size="10.00">std::vector&lt; uint32_t &gt;</text>
<polyline fill="none" stroke="black" points="25.5,-980.5 138.5,-980.5 "/>
<text text-anchor="start" x="33.5" y="-968.5" font-family="Helvetica,sans-Serif" font-size="10.00">+ elements</text>
<polyline fill="none" stroke="black" points="25.5,-961.5 138.5,-961.5 "/>
<text text-anchor="middle" x="82" y="-949.5" font-family="Helvetica,sans-Serif" font-size="10.00"> </text>
</a>
</g>
</g>
<!-- Node6&#45;&gt;Node9 -->
<g id="edge10" class="edge">
<title>Node6&#45;&gt;Node9</title>
<path fill="none" stroke="orange" d="M127.36,-1165.1C123.45,-1161.05 119.89,-1156.67 117,-1152 87.5,-1104.36 82.02,-1037.15 81.48,-999.79"/>
<polygon fill="orange" stroke="orange" points="125.06,-1167.74 134.75,-1172.03 129.85,-1162.63 125.06,-1167.74"/>
<text text-anchor="middle" x="144" y="-1120.5" font-family="Helvetica,sans-Serif" font-size="10.00"> &lt; uint32_t &gt;</text>
</g>
<!-- Node7 -->
<g id="node7" class="node">
<title>Node7</title>
<g id="a_node7"><a xlink:title=" ">
<polygon fill="white" stroke="#bfbfbf" points="216.5,-1275.5 216.5,-1332.5 245.5,-1332.5 245.5,-1275.5 216.5,-1275.5"/>
<text text-anchor="middle" x="231" y="-1320.5" font-family="Helvetica,sans-Serif" font-size="10.00">T</text>
<polyline fill="none" stroke="#bfbfbf" points="216.5,-1313.5 245.5,-1313.5 "/>
<text text-anchor="middle" x="231" y="-1301.5" font-family="Helvetica,sans-Serif" font-size="10.00"> </text>
<polyline fill="none" stroke="#bfbfbf" points="216.5,-1294.5 245.5,-1294.5 "/>
<text text-anchor="middle" x="231" y="-1282.5" font-family="Helvetica,sans-Serif" font-size="10.00"> </text>
</a>
</g>
</g>
<!-- Node7&#45;&gt;Node6 -->
<g id="edge6" class="edge">
<title>Node7&#45;&gt;Node6</title>
<path fill="none" stroke="#404040" d="M216.43,-1277.84C212.63,-1271.11 208.6,-1263.82 205,-1257 201.88,-1251.09 198.67,-1244.78 195.58,-1238.59"/>
<polygon fill="none" stroke="#404040" points="195.52,-1238.47 189.28,-1234.86 190.21,-1227.7 196.45,-1231.32 195.52,-1238.47"/>
<text text-anchor="middle" x="229.5" y="-1249" font-family="Helvetica,sans-Serif" font-size="10.00"> +elements</text>
</g>
<!-- Node8 -->
<g id="node8" class="node">
<title>Node8</title>
<g id="a_node8"><a xlink:title=" ">
<polygon fill="white" stroke="black" points="232.5,-1094.5 232.5,-1151.5 335.5,-1151.5 335.5,-1094.5 232.5,-1094.5"/>
<text text-anchor="middle" x="284" y="-1139.5" font-family="Helvetica,sans-Serif" font-size="10.00">std::shared_ptr&lt; T &gt;</text>
<polyline fill="none" stroke="black" points="232.5,-1132.5 335.5,-1132.5 "/>
<text text-anchor="middle" x="284" y="-1120.5" font-family="Helvetica,sans-Serif" font-size="10.00"> </text>
<polyline fill="none" stroke="black" points="232.5,-1113.5 335.5,-1113.5 "/>
<text text-anchor="start" x="240.5" y="-1101.5" font-family="Helvetica,sans-Serif" font-size="10.00">+ operator&#45;&gt;()</text>
</a>
</g>
</g>
<!-- Node7&#45;&gt;Node8 -->
<g id="edge8" class="edge">
<title>Node7&#45;&gt;Node8</title>
<path fill="none" stroke="#404040" d="M245.5,-1276.72C248.61,-1270.39 251.66,-1263.56 254,-1257 264.92,-1226.4 272.75,-1190.38 277.67,-1163.55"/>
<polygon fill="none" stroke="#404040" points="277.7,-1163.36 274.81,-1156.76 279.79,-1151.55 282.69,-1158.15 277.7,-1163.36"/>
<text text-anchor="middle" x="268" y="-1249" font-family="Helvetica,sans-Serif" font-size="10.00"> +ptr</text>
</g>
<!-- Node8&#45;&gt;Node3 -->
<g id="edge7" class="edge">
<title>Node8&#45;&gt;Node3</title>
<path fill="none" stroke="orange" d="M287.15,-1084.29C293.29,-999.12 303.23,-785.8 266,-613 262.53,-596.91 256.04,-579.92 249.72,-565.73"/>
<polygon fill="orange" stroke="orange" points="283.66,-1084.04 286.4,-1094.27 290.64,-1084.56 283.66,-1084.04"/>
<text text-anchor="start" x="293" y="-974" font-family="Helvetica,sans-Serif" font-size="10.00"> &lt; altintegration::PopPayouts</text>
<text text-anchor="middle" x="355" y="-963" font-family="Helvetica,sans-Serif" font-size="10.00">Params &gt;</text>
</g>
<!-- Node9&#45;&gt;Node2 -->
<g id="edge9" class="edge">
<title>Node9&#45;&gt;Node2</title>
<path fill="none" stroke="#404040" d="M80.81,-942.38C78.24,-879.03 72.58,-718.36 75,-584 75.71,-544.47 76.99,-501.78 78.41,-462.02"/>
<polygon fill="none" stroke="#404040" points="78.42,-461.78 74.64,-455.64 78.85,-449.79 82.63,-455.93 78.42,-461.78"/>
<text text-anchor="middle" x="145.5" y="-587" font-family="Helvetica,sans-Serif" font-size="10.00"> +mForkResolutionLookUpTable</text>
</g>
</g>
</svg>
