<?xml version="1.0" encoding="UTF-8" standalone="no"?>
<!DOCTYPE svg PUBLIC "-//W3C//DTD SVG 1.1//EN"
 "http://www.w3.org/Graphics/SVG/1.1/DTD/svg11.dtd">
<!-- Generated by graphviz version 2.50.0 (20220203.2022)
 -->
<!-- Title: altintegration::Output Pages: 1 -->
<svg width="260pt" height="358pt"
 viewBox="0.00 0.00 259.50 358.00" xmlns="http://www.w3.org/2000/svg" xmlns:xlink="http://www.w3.org/1999/xlink">
<g id="graph0" class="graph" transform="scale(1 1) rotate(0) translate(4 354)">
<title>altintegration::Output</title>
<polygon fill="white" stroke="transparent" points="-4,4 -4,-354 255.5,-354 255.5,4 -4,4"/>
<!-- Node1 -->
<g id="node1" class="node">
<title>Node1</title>
<g id="a_node1"><a xlink:title="Single spending output.">
<polygon fill="#bfbfbf" stroke="black" points="82.5,-0.5 82.5,-112.5 188.5,-112.5 188.5,-0.5 82.5,-0.5"/>
<text text-anchor="middle" x="135.5" y="-100.5" font-family="Helvetica,sans-Serif" font-size="10.00">altintegration::Output</text>
<polyline fill="none" stroke="black" points="82.5,-93.5 188.5,-93.5 "/>
<text text-anchor="middle" x="135.5" y="-81.5" font-family="Helvetica,sans-Serif" font-size="10.00"> </text>
<polyline fill="none" stroke="black" points="82.5,-74.5 188.5,-74.5 "/>
<text text-anchor="start" x="90.5" y="-62.5" font-family="Helvetica,sans-Serif" font-size="10.00">+ Output()</text>
<text text-anchor="start" x="90.5" y="-51.5" font-family="Helvetica,sans-Serif" font-size="10.00">+ Output()</text>
<text text-anchor="start" x="90.5" y="-40.5" font-family="Helvetica,sans-Serif" font-size="10.00">+ operator==()</text>
<text text-anchor="start" x="90.5" y="-29.5" font-family="Helvetica,sans-Serif" font-size="10.00">+ toVbkEncoding()</text>
<text text-anchor="start" x="90.5" y="-18.5" font-family="Helvetica,sans-Serif" font-size="10.00">+ estimateSize()</text>
<text text-anchor="start" x="90.5" y="-7.5" font-family="Helvetica,sans-Serif" font-size="10.00">+ toPrettyString()</text>
</a>
</g>
</g>
<!-- Node2 -->
<g id="node2" class="node">
<title>Node2</title>
<g id="a_node2"><a xlink:href="structaltintegration_1_1Address.html" target="_top" xlink:title="Represents address on VBK chain.">
<polygon fill="white" stroke="black" points="0,-160.5 0,-349.5 137,-349.5 137,-160.5 0,-160.5"/>
<text text-anchor="middle" x="68.5" y="-337.5" font-family="Helvetica,sans-Serif" font-size="10.00">altintegration::Address</text>
<polyline fill="none" stroke="black" points="0,-330.5 137,-330.5 "/>
<text text-anchor="middle" x="68.5" y="-318.5" font-family="Helvetica,sans-Serif" font-size="10.00"> </text>
<polyline fill="none" stroke="black" points="0,-311.5 137,-311.5 "/>
<text text-anchor="start" x="8" y="-299.5" font-family="Helvetica,sans-Serif" font-size="10.00">+ Address()</text>
<text text-anchor="start" x="8" y="-288.5" font-family="Helvetica,sans-Serif" font-size="10.00">+ operator==()</text>
<text text-anchor="start" x="8" y="-277.5" font-family="Helvetica,sans-Serif" font-size="10.00">+ operator!=()</text>
<text text-anchor="start" x="8" y="-266.5" font-family="Helvetica,sans-Serif" font-size="10.00">+ operator==()</text>
<text text-anchor="start" x="8" y="-255.5" font-family="Helvetica,sans-Serif" font-size="10.00">+ getType()</text>
<text text-anchor="start" x="8" y="-244.5" font-family="Helvetica,sans-Serif" font-size="10.00">+ getPopBytes()</text>
<text text-anchor="start" x="8" y="-233.5" font-family="Helvetica,sans-Serif" font-size="10.00">+ isDerivedFromPublicKey()</text>
<text text-anchor="start" x="8" y="-222.5" font-family="Helvetica,sans-Serif" font-size="10.00">+ fromString()</text>
<text text-anchor="start" x="8" y="-211.5" font-family="Helvetica,sans-Serif" font-size="10.00">+ toString()</text>
<text text-anchor="start" x="8" y="-200.5" font-family="Helvetica,sans-Serif" font-size="10.00">+ toVbkEncoding()</text>
<text text-anchor="start" x="8" y="-189.5" font-family="Helvetica,sans-Serif" font-size="10.00">+ estimateSize()</text>
<text text-anchor="start" x="8" y="-178.5" font-family="Helvetica,sans-Serif" font-size="10.00">+ fromPublicKey()</text>
<text text-anchor="start" x="8" y="-167.5" font-family="Helvetica,sans-Serif" font-size="10.00">+ assertFromString()</text>
</a>
</g>
</g>
<!-- Node2&#45;&gt;Node1 -->
<g id="edge1" class="edge">
<title>Node2&#45;&gt;Node1</title>
<path fill="none" stroke="#404040" d="M100.43,-160.35C104.6,-148.12 108.8,-135.79 112.78,-124.13"/>
<polygon fill="none" stroke="#404040" points="112.8,-124.08 110.95,-117.11 116.67,-112.72 118.52,-119.69 112.8,-124.08"/>
<text text-anchor="middle" x="132" y="-134" font-family="Helvetica,sans-Serif" font-size="10.00"> +address</text>
</g>
<!-- Node3 -->
<g id="node3" class="node">
<title>Node3</title>
<g id="a_node3"><a xlink:href="structaltintegration_1_1Coin.html" target="_top" xlink:title="represents VBK atomic units">
<polygon fill="white" stroke="black" points="155.5,-199 155.5,-311 251.5,-311 251.5,-199 155.5,-199"/>
<text text-anchor="middle" x="203.5" y="-299" font-family="Helvetica,sans-Serif" font-size="10.00">altintegration::Coin</text>
<polyline fill="none" stroke="black" points="155.5,-292 251.5,-292 "/>
<text text-anchor="start" x="163.5" y="-280" font-family="Helvetica,sans-Serif" font-size="10.00">+ units</text>
<polyline fill="none" stroke="black" points="155.5,-273 251.5,-273 "/>
<text text-anchor="start" x="163.5" y="-261" font-family="Helvetica,sans-Serif" font-size="10.00">+ Coin()</text>
<text text-anchor="start" x="163.5" y="-250" font-family="Helvetica,sans-Serif" font-size="10.00">+ toPrettyString()</text>
<text text-anchor="start" x="163.5" y="-239" font-family="Helvetica,sans-Serif" font-size="10.00">+ Coin()</text>
<text text-anchor="start" x="163.5" y="-228" font-family="Helvetica,sans-Serif" font-size="10.00">+ toVbkEncoding()</text>
<text text-anchor="start" x="163.5" y="-217" font-family="Helvetica,sans-Serif" font-size="10.00">+ estimateSize()</text>
<text text-anchor="start" x="163.5" y="-206" font-family="Helvetica,sans-Serif" font-size="10.00">+ operator==()</text>
</a>
</g>
</g>
<!-- Node3&#45;&gt;Node1 -->
<g id="edge2" class="edge">
<title>Node3&#45;&gt;Node1</title>
<path fill="none" stroke="#404040" d="M184.38,-198.74C176.38,-175.62 167.01,-148.54 158.62,-124.32"/>
<polygon fill="none" stroke="#404040" points="158.52,-124.02 152.78,-119.66 154.6,-112.68 160.34,-117.05 158.52,-124.02"/>
<text text-anchor="middle" x="176" y="-134" font-family="Helvetica,sans-Serif" font-size="10.00"> +coin</text>
</g>
</g>
</svg>
