<?xml version="1.0" encoding="UTF-8" standalone="no"?>
<!DOCTYPE svg PUBLIC "-//W3C//DTD SVG 1.1//EN"
 "http://www.w3.org/Graphics/SVG/1.1/DTD/svg11.dtd">
<!-- Generated by graphviz version 2.44.0 ()
 -->
<!-- Title: altintegration::btc::CmpctBlockMsg Pages: 1 -->
<!--zoomable 1881 -->
<svg id="main" version="1.1" xmlns="http://www.w3.org/2000/svg" xmlns:xlink="http://www.w3.org/1999/xlink" xml:space="preserve" onload="init(evt)">
<style type="text/css"><![CDATA[
.edge:hover path { stroke: red; }
.edge:hover polygon { stroke: red; fill: red; }
]]></style>
<script type="text/javascript"><![CDATA[
var edges = document.getElementsByTagName('g');
if (edges && edges.length) {
  for (var i=0;i<edges.length;i++) {
    if (edges[i].id.substr(0,4)=='edge') {
      edges[i].setAttribute('class','edge');
    }
  }
}
]]></script>
        <defs>
                <circle id="rim" cx="0" cy="0" r="7"/>
                <circle id="rim2" cx="0" cy="0" r="3.5"/>
                <g id="zoomPlus">
                        <use xlink:href="#rim" fill="#404040">
                                <set attributeName="fill" to="#808080" begin="zoomplus.mouseover" end="zoomplus.mouseout"/>
                        </use>
                        <path d="M-4,0h8M0,-4v8" fill="none" stroke="white" stroke-width="1.5" pointer-events="none"/>
                </g>
                <g id="zoomMin">
                        <use xlink:href="#rim" fill="#404040">
                                <set attributeName="fill" to="#808080" begin="zoomminus.mouseover" end="zoomminus.mouseout"/>
                        </use>
                        <path d="M-4,0h8" fill="none" stroke="white" stroke-width="1.5" pointer-events="none"/>
                </g>
                <g id="dirArrow">
                        <path fill="none" stroke="white" stroke-width="1.5" d="M0,-3.0v7 M-2.5,-0.5L0,-3.0L2.5,-0.5"/>
                </g>
               <g id="resetDef">
                       <use xlink:href="#rim2" fill="#404040">
                               <set attributeName="fill" to="#808080" begin="reset.mouseover" end="reset.mouseout"/>
                       </use>
               </g>
        </defs>

<script type="text/javascript">
var viewWidth = 1080;
var viewHeight = 1881;
var sectionId = 'dynsection-0';
</script>
<script xlink:href="svgpan.js"/>
<svg id="graph" class="graph">
<g id="viewport">
<title>altintegration::btc::CmpctBlockMsg</title>
<polygon fill="white" stroke="transparent" points="-4,4 -4,-1877 1075.5,-1877 1075.5,4 -4,4"/>
<!-- Node1 -->
<g id="node1" class="node">
<title>Node1</title>
<g id="a_node1"><a xlink:title=" ">
<polygon fill="#bfbfbf" stroke="black" points="608.5,-0.5 608.5,-68.5 763.5,-68.5 763.5,-0.5 608.5,-0.5"/>
<text text-anchor="start" x="616.5" y="-56.5" font-family="Helvetica,sans-Serif" font-size="10.00">altintegration::btc</text>
<text text-anchor="middle" x="686" y="-45.5" font-family="Helvetica,sans-Serif" font-size="10.00">::CmpctBlockMsg</text>
<polyline fill="none" stroke="black" points="608.5,-38.5 763.5,-38.5 "/>
<text text-anchor="start" x="616.5" y="-26.5" font-family="Helvetica,sans-Serif" font-size="10.00">+ ADD_SERIALIZE_METHODS</text>
<polyline fill="none" stroke="black" points="608.5,-19.5 763.5,-19.5 "/>
<text text-anchor="start" x="616.5" y="-7.5" font-family="Helvetica,sans-Serif" font-size="10.00">+ SerializationOp()</text>
</a>
</g>
</g>
<!-- Node2 -->
<g id="node2" class="node">
<title>Node2</title>
<g id="a_node2"><a xlink:href="structaltintegration_1_1btc_1_1BlockHeaderAndShortTxIDs.html" target="_top" xlink:title=" ">
<polygon fill="white" stroke="black" points="608.5,-116.5 608.5,-206.5 763.5,-206.5 763.5,-116.5 608.5,-116.5"/>
<text text-anchor="start" x="616.5" y="-194.5" font-family="Helvetica,sans-Serif" font-size="10.00">altintegration::btc</text>
<text text-anchor="middle" x="686" y="-183.5" font-family="Helvetica,sans-Serif" font-size="10.00">::BlockHeaderAndShortTxIDs</text>
<polyline fill="none" stroke="black" points="608.5,-176.5 763.5,-176.5 "/>
<text text-anchor="start" x="616.5" y="-164.5" font-family="Helvetica,sans-Serif" font-size="10.00">+ nonce</text>
<text text-anchor="start" x="616.5" y="-153.5" font-family="Helvetica,sans-Serif" font-size="10.00">+ ADD_SERIALIZE_METHODS</text>
<text text-anchor="start" x="616.5" y="-142.5" font-family="Helvetica,sans-Serif" font-size="10.00">+ SHORTTXIDS_LENGTH</text>
<polyline fill="none" stroke="black" points="608.5,-135.5 763.5,-135.5 "/>
<text text-anchor="start" x="616.5" y="-123.5" font-family="Helvetica,sans-Serif" font-size="10.00">+ SerializationOp()</text>
</a>
</g>
</g>
<!-- Node2&#45;&gt;Node1 -->
<g id="edge1" class="edge">
<title>Node2&#45;&gt;Node1</title>
<path fill="none" stroke="#404040" d="M686,-116.43C686,-104.87 686,-92.38 686,-80.76"/>
<polygon fill="none" stroke="#404040" points="686,-80.57 682,-74.57 686,-68.57 690,-74.57 686,-80.57"/>
<text text-anchor="middle" x="719.5" y="-90" font-family="Helvetica,sans-Serif" font-size="10.00"> +block_header</text>
</g>
<!-- Node3 -->
<g id="node3" class="node">
<title>Node3</title>
<g id="a_node3"><a xlink:title=" ">
<polygon fill="white" stroke="#bfbfbf" points="75.5,-254.5 75.5,-322.5 208.5,-322.5 208.5,-254.5 75.5,-254.5"/>
<text text-anchor="start" x="83.5" y="-310.5" font-family="Helvetica,sans-Serif" font-size="10.00">std::vector&lt; altintegration</text>
<text text-anchor="middle" x="142" y="-299.5" font-family="Helvetica,sans-Serif" font-size="10.00">::btc::PrefilledTransaction &gt;</text>
<polyline fill="none" stroke="#bfbfbf" points="75.5,-292.5 208.5,-292.5 "/>
<text text-anchor="middle" x="142" y="-280.5" font-family="Helvetica,sans-Serif" font-size="10.00"> </text>
<polyline fill="none" stroke="#bfbfbf" points="75.5,-273.5 208.5,-273.5 "/>
<text text-anchor="middle" x="142" y="-261.5" font-family="Helvetica,sans-Serif" font-size="10.00"> </text>
</a>
</g>
</g>
<!-- Node3&#45;&gt;Node2 -->
<g id="edge2" class="edge">
<title>Node3&#45;&gt;Node2</title>
<path fill="none" stroke="#404040" d="M208.71,-272.17C306.06,-249.8 487.3,-208.16 596.26,-183.12"/>
<polygon fill="none" stroke="#404040" points="596.51,-183.06 601.46,-177.82 608.2,-180.38 603.25,-185.62 596.51,-183.06"/>
<text text-anchor="middle" x="441.5" y="-228" font-family="Helvetica,sans-Serif" font-size="10.00"> +prefilledtxn</text>
</g>
<!-- Node4 -->
<g id="node4" class="node">
<title>Node4</title>
<g id="a_node4"><a xlink:href="structaltintegration_1_1btc_1_1PrefilledTransaction.html" target="_top" xlink:title=" ">
<polygon fill="white" stroke="black" points="64.5,-370.5 64.5,-449.5 219.5,-449.5 219.5,-370.5 64.5,-370.5"/>
<text text-anchor="start" x="72.5" y="-437.5" font-family="Helvetica,sans-Serif" font-size="10.00">altintegration::btc</text>
<text text-anchor="middle" x="142" y="-426.5" font-family="Helvetica,sans-Serif" font-size="10.00">::PrefilledTransaction</text>
<polyline fill="none" stroke="black" points="64.5,-419.5 219.5,-419.5 "/>
<text text-anchor="start" x="72.5" y="-407.5" font-family="Helvetica,sans-Serif" font-size="10.00">+ index</text>
<text text-anchor="start" x="72.5" y="-396.5" font-family="Helvetica,sans-Serif" font-size="10.00">+ ADD_SERIALIZE_METHODS</text>
<polyline fill="none" stroke="black" points="64.5,-389.5 219.5,-389.5 "/>
<text text-anchor="start" x="72.5" y="-377.5" font-family="Helvetica,sans-Serif" font-size="10.00">+ SerializationOp()</text>
</a>
</g>
</g>
<!-- Node4&#45;&gt;Node3 -->
<g id="edge3" class="edge">
<title>Node4&#45;&gt;Node3</title>
<path fill="none" stroke="#404040" d="M142,-370.2C142,-358.99 142,-346.65 142,-335.07"/>
<polygon fill="none" stroke="#404040" points="142,-334.89 138,-328.89 142,-322.89 146,-328.89 142,-334.89"/>
<text text-anchor="middle" x="166.5" y="-344" font-family="Helvetica,sans-Serif" font-size="10.00"> +elements</text>
</g>
<!-- Node5 -->
<g id="node5" class="node">
<title>Node5</title>
<g id="a_node5"><a xlink:href="structaltintegration_1_1btc_1_1Transaction.html" target="_top" xlink:title="The basic transaction that is broadcasted on the network and contained in blocks.">
<polygon fill="white" stroke="black" points="97,-497.5 97,-598.5 187,-598.5 187,-497.5 97,-497.5"/>
<text text-anchor="start" x="105" y="-586.5" font-family="Helvetica,sans-Serif" font-size="10.00">altintegration::btc</text>
<text text-anchor="middle" x="142" y="-575.5" font-family="Helvetica,sans-Serif" font-size="10.00">::Transaction</text>
<polyline fill="none" stroke="black" points="97,-568.5 187,-568.5 "/>
<text text-anchor="start" x="105" y="-556.5" font-family="Helvetica,sans-Serif" font-size="10.00">+ nVersion</text>
<text text-anchor="start" x="105" y="-545.5" font-family="Helvetica,sans-Serif" font-size="10.00">+ nLockTime</text>
<polyline fill="none" stroke="black" points="97,-538.5 187,-538.5 "/>
<text text-anchor="start" x="105" y="-526.5" font-family="Helvetica,sans-Serif" font-size="10.00">+ Serialize()</text>
<text text-anchor="start" x="105" y="-515.5" font-family="Helvetica,sans-Serif" font-size="10.00">+ Unserialize()</text>
<text text-anchor="start" x="105" y="-504.5" font-family="Helvetica,sans-Serif" font-size="10.00">+ HasWitness()</text>
</a>
</g>
</g>
<!-- Node5&#45;&gt;Node4 -->
<g id="edge4" class="edge">
<title>Node5&#45;&gt;Node4</title>
<path fill="none" stroke="#404040" d="M142,-497.13C142,-485.66 142,-473.45 142,-461.94"/>
<polygon fill="none" stroke="#404040" points="142,-461.79 138,-455.79 142,-449.79 146,-455.79 142,-461.79"/>
<text text-anchor="middle" x="150" y="-471" font-family="Helvetica,sans-Serif" font-size="10.00"> +tx</text>
</g>
<!-- Node6 -->
<g id="node6" class="node">
<title>Node6</title>
<g id="a_node6"><a xlink:title=" ">
<polygon fill="white" stroke="#bfbfbf" points="28.5,-848 28.5,-916 153.5,-916 153.5,-848 28.5,-848"/>
<text text-anchor="start" x="36.5" y="-904" font-family="Helvetica,sans-Serif" font-size="10.00">std::vector&lt; altintegration</text>
<text text-anchor="middle" x="91" y="-893" font-family="Helvetica,sans-Serif" font-size="10.00">::btc::TxOut &gt;</text>
<polyline fill="none" stroke="#bfbfbf" points="28.5,-886 153.5,-886 "/>
<text text-anchor="middle" x="91" y="-874" font-family="Helvetica,sans-Serif" font-size="10.00"> </text>
<polyline fill="none" stroke="#bfbfbf" points="28.5,-867 153.5,-867 "/>
<text text-anchor="middle" x="91" y="-855" font-family="Helvetica,sans-Serif" font-size="10.00"> </text>
</a>
</g>
</g>
<!-- Node6&#45;&gt;Node5 -->
<g id="edge5" class="edge">
<title>Node6&#45;&gt;Node5</title>
<path fill="none" stroke="#404040" d="M96.39,-847.87C97.62,-840.05 98.89,-831.74 100,-824 111.33,-745.04 110.22,-724.74 123,-646 124.86,-634.56 127.06,-622.4 129.29,-610.71"/>
<polygon fill="none" stroke="#404040" points="129.33,-610.51 126.54,-603.86 131.61,-598.73 134.4,-605.39 129.33,-610.51"/>
<text text-anchor="middle" x="137" y="-678" font-family="Helvetica,sans-Serif" font-size="10.00"> +vout</text>
</g>
<!-- Node7 -->
<g id="node7" class="node">
<title>Node7</title>
<g id="a_node7"><a xlink:href="structaltintegration_1_1btc_1_1TxOut.html" target="_top" xlink:title="An output of a transaction.">
<polygon fill="white" stroke="black" points="285.5,-1041 285.5,-1120 440.5,-1120 440.5,-1041 285.5,-1041"/>
<text text-anchor="start" x="293.5" y="-1108" font-family="Helvetica,sans-Serif" font-size="10.00">altintegration::btc</text>
<text text-anchor="middle" x="363" y="-1097" font-family="Helvetica,sans-Serif" font-size="10.00">::TxOut</text>
<polyline fill="none" stroke="black" points="285.5,-1090 440.5,-1090 "/>
<text text-anchor="start" x="293.5" y="-1078" font-family="Helvetica,sans-Serif" font-size="10.00">+ nValue</text>
<text text-anchor="start" x="293.5" y="-1067" font-family="Helvetica,sans-Serif" font-size="10.00">+ ADD_SERIALIZE_METHODS</text>
<polyline fill="none" stroke="black" points="285.5,-1060 440.5,-1060 "/>
<text text-anchor="start" x="293.5" y="-1048" font-family="Helvetica,sans-Serif" font-size="10.00">+ SerializationOp()</text>
</a>
</g>
</g>
<!-- Node7&#45;&gt;Node6 -->
<g id="edge6" class="edge">
<title>Node7&#45;&gt;Node6</title>
<path fill="none" stroke="#404040" d="M337.27,-1040.82C320.48,-1017.76 296.91,-989.15 271,-969 239.32,-944.35 199.43,-924.4 165.26,-909.94"/>
<polygon fill="none" stroke="#404040" points="165,-909.83 157.92,-911.23 153.91,-905.24 160.98,-903.84 165,-909.83"/>
<text text-anchor="middle" x="269.5" y="-943" font-family="Helvetica,sans-Serif" font-size="10.00"> +elements</text>
</g>
<!-- Node8 -->
<g id="node8" class="node">
<title>Node8</title>
<g id="a_node8"><a xlink:title=" ">
<polygon fill="white" stroke="#bfbfbf" points="386.5,-1369 386.5,-1426 493.5,-1426 493.5,-1369 386.5,-1369"/>
<text text-anchor="middle" x="440" y="-1414" font-family="Helvetica,sans-Serif" font-size="10.00">std::vector&lt; uint8_t &gt;</text>
<polyline fill="none" stroke="#bfbfbf" points="386.5,-1407 493.5,-1407 "/>
<text text-anchor="start" x="394.5" y="-1395" font-family="Helvetica,sans-Serif" font-size="10.00">+ elements</text>
<polyline fill="none" stroke="#bfbfbf" points="386.5,-1388 493.5,-1388 "/>
<text text-anchor="middle" x="440" y="-1376" font-family="Helvetica,sans-Serif" font-size="10.00"> </text>
</a>
</g>
</g>
<!-- Node8&#45;&gt;Node7 -->
<g id="edge7" class="edge">
<title>Node8&#45;&gt;Node7</title>
<path fill="none" stroke="#404040" d="M429.12,-1368.8C419.34,-1343.03 405.13,-1303.39 396,-1268 384.3,-1222.66 375.41,-1170.05 369.82,-1132.3"/>
<polygon fill="none" stroke="#404040" points="369.77,-1131.97 364.95,-1126.6 368.05,-1120.09 372.87,-1125.46 369.77,-1131.97"/>
<text text-anchor="middle" x="429.5" y="-1236.5" font-family="Helvetica,sans-Serif" font-size="10.00"> +scriptPubKey</text>
</g>
<!-- Node12 -->
<g id="node12" class="node">
<title>Node12</title>
<g id="a_node12"><a xlink:href="structaltintegration_1_1btc_1_1TxIn.html" target="_top" xlink:title="An input of a transaction.">
<polygon fill="white" stroke="black" points="451.5,-842.5 451.5,-921.5 606.5,-921.5 606.5,-842.5 451.5,-842.5"/>
<text text-anchor="start" x="459.5" y="-909.5" font-family="Helvetica,sans-Serif" font-size="10.00">altintegration::btc</text>
<text text-anchor="middle" x="529" y="-898.5" font-family="Helvetica,sans-Serif" font-size="10.00">::TxIn</text>
<polyline fill="none" stroke="black" points="451.5,-891.5 606.5,-891.5 "/>
<text text-anchor="start" x="459.5" y="-879.5" font-family="Helvetica,sans-Serif" font-size="10.00">+ nSequence</text>
<text text-anchor="start" x="459.5" y="-868.5" font-family="Helvetica,sans-Serif" font-size="10.00">+ ADD_SERIALIZE_METHODS</text>
<polyline fill="none" stroke="black" points="451.5,-861.5 606.5,-861.5 "/>
<text text-anchor="start" x="459.5" y="-849.5" font-family="Helvetica,sans-Serif" font-size="10.00">+ SerializationOp()</text>
</a>
</g>
</g>
<!-- Node8&#45;&gt;Node12 -->
<g id="edge13" class="edge">
<title>Node8&#45;&gt;Node12</title>
<path fill="none" stroke="#404040" d="M445.79,-1368.8C451.01,-1342.86 458.54,-1302.96 463,-1268 479.87,-1135.79 450.42,-1097.45 486,-969 489.41,-956.69 494.63,-944.05 500.26,-932.38"/>
<polygon fill="none" stroke="#404040" points="500.33,-932.24 499.47,-925.08 505.75,-921.53 506.61,-928.69 500.33,-932.24"/>
<text text-anchor="middle" x="509.5" y="-1078" font-family="Helvetica,sans-Serif" font-size="10.00"> +scriptSig</text>
</g>
<!-- Node13 -->
<g id="node13" class="node">
<title>Node13</title>
<g id="a_node13"><a xlink:title=" ">
<polygon fill="white" stroke="#bfbfbf" points="542.5,-1046.5 542.5,-1114.5 657.5,-1114.5 657.5,-1046.5 542.5,-1046.5"/>
<text text-anchor="start" x="550.5" y="-1102.5" font-family="Helvetica,sans-Serif" font-size="10.00">std::vector&lt; std::vector</text>
<text text-anchor="middle" x="600" y="-1091.5" font-family="Helvetica,sans-Serif" font-size="10.00">&lt; uint8_t &gt; &gt;</text>
<polyline fill="none" stroke="#bfbfbf" points="542.5,-1084.5 657.5,-1084.5 "/>
<text text-anchor="middle" x="600" y="-1072.5" font-family="Helvetica,sans-Serif" font-size="10.00"> </text>
<polyline fill="none" stroke="#bfbfbf" points="542.5,-1065.5 657.5,-1065.5 "/>
<text text-anchor="middle" x="600" y="-1053.5" font-family="Helvetica,sans-Serif" font-size="10.00"> </text>
</a>
</g>
</g>
<!-- Node8&#45;&gt;Node13 -->
<g id="edge15" class="edge">
<title>Node8&#45;&gt;Node13</title>
<path fill="none" stroke="#404040" d="M450.38,-1368.82C469.55,-1317.74 508.78,-1213.54 511,-1210 516.85,-1200.68 521.19,-1200.64 528,-1192 544.53,-1171.02 560.95,-1146.21 573.92,-1125.42"/>
<polygon fill="none" stroke="#404040" points="574.07,-1125.17 573.82,-1117.96 580.37,-1114.96 580.63,-1122.16 574.07,-1125.17"/>
<text text-anchor="middle" x="535.5" y="-1236.5" font-family="Helvetica,sans-Serif" font-size="10.00"> +elements</text>
</g>
<!-- Node9 -->
<g id="node9" class="node">
<title>Node9</title>
<g id="a_node9"><a xlink:title=" ">
<polygon fill="white" stroke="#bfbfbf" points="177,-1633.5 177,-1690.5 261,-1690.5 261,-1633.5 177,-1633.5"/>
<text text-anchor="middle" x="219" y="-1678.5" font-family="Helvetica,sans-Serif" font-size="10.00">std::vector&lt; T &gt;</text>
<polyline fill="none" stroke="#bfbfbf" points="177,-1671.5 261,-1671.5 "/>
<text text-anchor="middle" x="219" y="-1659.5" font-family="Helvetica,sans-Serif" font-size="10.00"> </text>
<polyline fill="none" stroke="#bfbfbf" points="177,-1652.5 261,-1652.5 "/>
<text text-anchor="middle" x="219" y="-1640.5" font-family="Helvetica,sans-Serif" font-size="10.00"> </text>
</a>
</g>
</g>
<!-- Node9&#45;&gt;Node3 -->
<g id="edge21" class="edge">
<title>Node9&#45;&gt;Node3</title>
<path fill="none" stroke="orange" d="M168.31,-1630.79C103.62,-1587.95 0,-1503.01 0,-1398.5 0,-1398.5 0,-1398.5 0,-409 0,-366.15 38.33,-335.57 75.16,-316.07"/>
<polygon fill="orange" stroke="orange" points="166.49,-1633.78 176.77,-1636.3 170.31,-1627.91 166.49,-1633.78"/>
<text text-anchor="start" x="0" y="-781.5" font-family="Helvetica,sans-Serif" font-size="10.00"> &lt; altintegration::btc</text>
<text text-anchor="middle" x="49.5" y="-770.5" font-family="Helvetica,sans-Serif" font-size="10.00">::PrefilledTransaction &gt;</text>
</g>
<!-- Node9&#45;&gt;Node6 -->
<g id="edge10" class="edge">
<title>Node9&#45;&gt;Node6</title>
<path fill="none" stroke="orange" d="M202.76,-1624.23C192.29,-1599.96 178.68,-1567.34 168,-1538 124.98,-1419.78 102.11,-1392.35 83,-1268 79.08,-1242.52 82.68,-1235.78 83,-1210 84.31,-1102.68 88.05,-975.59 89.91,-916.42"/>
<polygon fill="orange" stroke="orange" points="199.56,-1625.65 206.75,-1633.43 205.98,-1622.86 199.56,-1625.65"/>
<text text-anchor="start" x="83" y="-1242" font-family="Helvetica,sans-Serif" font-size="10.00"> &lt; altintegration::btc</text>
<text text-anchor="middle" x="125.5" y="-1231" font-family="Helvetica,sans-Serif" font-size="10.00">::TxOut &gt;</text>
</g>
<!-- Node9&#45;&gt;Node8 -->
<g id="edge8" class="edge">
<title>Node9&#45;&gt;Node8</title>
<path fill="none" stroke="orange" d="M248.78,-1625.63C293.32,-1572.73 376.36,-1474.09 416.75,-1426.12"/>
<polygon fill="orange" stroke="orange" points="246,-1623.5 242.23,-1633.4 251.35,-1628.01 246,-1623.5"/>
<text text-anchor="middle" x="354.5" y="-1530" font-family="Helvetica,sans-Serif" font-size="10.00"> &lt; uint8_t &gt;</text>
</g>
<!-- Node11 -->
<g id="node11" class="node">
<title>Node11</title>
<g id="a_node11"><a xlink:title=" ">
<polygon fill="white" stroke="#bfbfbf" points="160.5,-646.5 160.5,-714.5 285.5,-714.5 285.5,-646.5 160.5,-646.5"/>
<text text-anchor="start" x="168.5" y="-702.5" font-family="Helvetica,sans-Serif" font-size="10.00">std::vector&lt; altintegration</text>
<text text-anchor="middle" x="223" y="-691.5" font-family="Helvetica,sans-Serif" font-size="10.00">::btc::TxIn &gt;</text>
<polyline fill="none" stroke="#bfbfbf" points="160.5,-684.5 285.5,-684.5 "/>
<text text-anchor="middle" x="223" y="-672.5" font-family="Helvetica,sans-Serif" font-size="10.00"> </text>
<polyline fill="none" stroke="#bfbfbf" points="160.5,-665.5 285.5,-665.5 "/>
<text text-anchor="middle" x="223" y="-653.5" font-family="Helvetica,sans-Serif" font-size="10.00"> </text>
</a>
</g>
</g>
<!-- Node9&#45;&gt;Node11 -->
<g id="edge20" class="edge">
<title>Node9&#45;&gt;Node11</title>
<path fill="none" stroke="orange" d="M210.31,-1623.34C199.37,-1572.58 182,-1479.23 182,-1398.5 182,-1398.5 182,-1398.5 182,-881 182,-821.42 199.76,-753.84 211.9,-714.61"/>
<polygon fill="orange" stroke="orange" points="206.91,-1624.19 212.47,-1633.21 213.75,-1622.69 206.91,-1624.19"/>
<text text-anchor="start" x="182" y="-1083.5" font-family="Helvetica,sans-Serif" font-size="10.00"> &lt; altintegration::btc</text>
<text text-anchor="middle" x="224.5" y="-1072.5" font-family="Helvetica,sans-Serif" font-size="10.00">::TxIn &gt;</text>
</g>
<!-- Node9&#45;&gt;Node13 -->
<g id="edge16" class="edge">
<title>Node9&#45;&gt;Node13</title>
<path fill="none" stroke="orange" d="M271.17,-1647.27C335.45,-1627.6 443.31,-1585.08 502,-1509 550.31,-1446.37 584.75,-1203.85 596.02,-1114.66"/>
<polygon fill="orange" stroke="orange" points="269.83,-1644.02 261.24,-1650.24 271.83,-1650.73 269.83,-1644.02"/>
<text text-anchor="start" x="569" y="-1400.5" font-family="Helvetica,sans-Serif" font-size="10.00"> &lt; std::vector&lt; uint8</text>
<text text-anchor="middle" x="611.5" y="-1389.5" font-family="Helvetica,sans-Serif" font-size="10.00">_t &gt; &gt;</text>
</g>
<!-- Node21 -->
<g id="node21" class="node">
<title>Node21</title>
<g id="a_node21"><a xlink:title=" ">
<polygon fill="white" stroke="#bfbfbf" points="629.5,-1210.5 629.5,-1267.5 742.5,-1267.5 742.5,-1210.5 629.5,-1210.5"/>
<text text-anchor="middle" x="686" y="-1255.5" font-family="Helvetica,sans-Serif" font-size="10.00">std::vector&lt; uint64_t &gt;</text>
<polyline fill="none" stroke="#bfbfbf" points="629.5,-1248.5 742.5,-1248.5 "/>
<text text-anchor="start" x="637.5" y="-1236.5" font-family="Helvetica,sans-Serif" font-size="10.00">+ elements</text>
<polyline fill="none" stroke="#bfbfbf" points="629.5,-1229.5 742.5,-1229.5 "/>
<text text-anchor="middle" x="686" y="-1217.5" font-family="Helvetica,sans-Serif" font-size="10.00"> </text>
</a>
</g>
</g>
<!-- Node9&#45;&gt;Node21 -->
<g id="edge29" class="edge">
<title>Node9&#45;&gt;Node21</title>
<path fill="none" stroke="orange" d="M271.13,-1660.7C366.82,-1657.01 569.25,-1633.99 663,-1509 717.28,-1436.63 702.79,-1320.49 692.37,-1267.71"/>
<polygon fill="orange" stroke="orange" points="270.98,-1657.2 261.11,-1661.03 271.22,-1664.2 270.98,-1657.2"/>
<text text-anchor="middle" x="673" y="-1530" font-family="Helvetica,sans-Serif" font-size="10.00"> &lt; uint64_t &gt;</text>
</g>
<!-- Node10 -->
<g id="node10" class="node">
<title>Node10</title>
<g id="a_node10"><a xlink:title=" ">
<polygon fill="white" stroke="#bfbfbf" points="204.5,-1815.5 204.5,-1872.5 233.5,-1872.5 233.5,-1815.5 204.5,-1815.5"/>
<text text-anchor="middle" x="219" y="-1860.5" font-family="Helvetica,sans-Serif" font-size="10.00">T</text>
<polyline fill="none" stroke="#bfbfbf" points="204.5,-1853.5 233.5,-1853.5 "/>
<text text-anchor="middle" x="219" y="-1841.5" font-family="Helvetica,sans-Serif" font-size="10.00"> </text>
<polyline fill="none" stroke="#bfbfbf" points="204.5,-1834.5 233.5,-1834.5 "/>
<text text-anchor="middle" x="219" y="-1822.5" font-family="Helvetica,sans-Serif" font-size="10.00"> </text>
</a>
</g>
</g>
<!-- Node10&#45;&gt;Node9 -->
<g id="edge9" class="edge">
<title>Node10&#45;&gt;Node9</title>
<path fill="none" stroke="#404040" d="M219,-1815.27C219,-1785.28 219,-1737.18 219,-1703.08"/>
<polygon fill="none" stroke="#404040" points="219,-1702.76 215,-1696.76 219,-1690.76 223,-1696.76 219,-1702.76"/>
<text text-anchor="middle" x="243.5" y="-1789" font-family="Helvetica,sans-Serif" font-size="10.00"> +elements</text>
</g>
<!-- Node11&#45;&gt;Node5 -->
<g id="edge11" class="edge">
<title>Node11&#45;&gt;Node5</title>
<path fill="none" stroke="#404040" d="M202.35,-646.23C195.39,-635.02 187.4,-622.14 179.55,-609.5"/>
<polygon fill="none" stroke="#404040" points="179.35,-609.17 172.78,-606.18 173.02,-598.98 179.58,-601.96 179.35,-609.17"/>
<text text-anchor="middle" x="201" y="-620" font-family="Helvetica,sans-Serif" font-size="10.00"> +vin</text>
</g>
<!-- Node12&#45;&gt;Node11 -->
<g id="edge12" class="edge">
<title>Node12&#45;&gt;Node11</title>
<path fill="none" stroke="#404040" d="M469.64,-842.3C416.25,-807.49 338.13,-756.56 284.19,-721.39"/>
<polygon fill="none" stroke="#404040" points="284.12,-721.35 276.91,-721.42 274.07,-714.8 281.28,-714.72 284.12,-721.35"/>
<text text-anchor="middle" x="463.5" y="-776" font-family="Helvetica,sans-Serif" font-size="10.00"> +elements</text>
</g>
<!-- Node13&#45;&gt;Node12 -->
<g id="edge14" class="edge">
<title>Node13&#45;&gt;Node12</title>
<path fill="none" stroke="#404040" d="M587.96,-1046.17C576.76,-1015.18 559.93,-968.59 547.11,-933.12"/>
<polygon fill="none" stroke="#404040" points="547.01,-932.85 541.21,-928.56 542.93,-921.56 548.73,-925.84 547.01,-932.85"/>
<text text-anchor="middle" x="586" y="-943" font-family="Helvetica,sans-Serif" font-size="10.00"> +scriptWitness</text>
</g>
<!-- Node14 -->
<g id="node14" class="node">
<title>Node14</title>
<g id="a_node14"><a xlink:href="structaltintegration_1_1btc_1_1OutPoint.html" target="_top" xlink:title="An outpoint &#45; a combination of a transaction hash and an index n into its vout.">
<polygon fill="white" stroke="black" points="714.5,-1041 714.5,-1120 869.5,-1120 869.5,-1041 714.5,-1041"/>
<text text-anchor="start" x="722.5" y="-1108" font-family="Helvetica,sans-Serif" font-size="10.00">altintegration::btc</text>
<text text-anchor="middle" x="792" y="-1097" font-family="Helvetica,sans-Serif" font-size="10.00">::OutPoint</text>
<polyline fill="none" stroke="black" points="714.5,-1090 869.5,-1090 "/>
<text text-anchor="start" x="722.5" y="-1078" font-family="Helvetica,sans-Serif" font-size="10.00">+ n</text>
<text text-anchor="start" x="722.5" y="-1067" font-family="Helvetica,sans-Serif" font-size="10.00">+ ADD_SERIALIZE_METHODS</text>
<polyline fill="none" stroke="black" points="714.5,-1060 869.5,-1060 "/>
<text text-anchor="start" x="722.5" y="-1048" font-family="Helvetica,sans-Serif" font-size="10.00">+ SerializationOp()</text>
</a>
</g>
</g>
<!-- Node14&#45;&gt;Node12 -->
<g id="edge17" class="edge">
<title>Node14&#45;&gt;Node12</title>
<path fill="none" stroke="#404040" d="M750.46,-1040.91C726.38,-1019.09 695.14,-991.72 666,-969 648.11,-955.05 643.07,-952.29 624,-940 617.79,-936 611.31,-931.92 604.78,-927.87"/>
<polygon fill="none" stroke="#404040" points="604.72,-927.83 597.51,-928.1 594.5,-921.55 601.7,-921.28 604.72,-927.83"/>
<text text-anchor="middle" x="661.5" y="-943" font-family="Helvetica,sans-Serif" font-size="10.00"> +prevout</text>
</g>
<!-- Node15 -->
<g id="node15" class="node">
<title>Node15</title>
<g id="a_node15"><a xlink:href="structaltintegration_1_1Blob.html" target="_top" xlink:title=" ">
<polygon fill="white" stroke="black" points="745.5,-1286.5 745.5,-1508.5 876.5,-1508.5 876.5,-1286.5 745.5,-1286.5"/>
<text text-anchor="start" x="753.5" y="-1496.5" font-family="Helvetica,sans-Serif" font-size="10.00">altintegration::Blob</text>
<text text-anchor="middle" x="811" y="-1485.5" font-family="Helvetica,sans-Serif" font-size="10.00">&lt; SHA256_HASH_SIZE &gt;</text>
<polyline fill="none" stroke="black" points="745.5,-1478.5 876.5,-1478.5 "/>
<text text-anchor="start" x="753.5" y="-1466.5" font-family="Helvetica,sans-Serif" font-size="10.00">+ data_</text>
<text text-anchor="start" x="753.5" y="-1455.5" font-family="Helvetica,sans-Serif" font-size="10.00">+ this</text>
<polyline fill="none" stroke="black" points="745.5,-1448.5 876.5,-1448.5 "/>
<text text-anchor="start" x="753.5" y="-1436.5" font-family="Helvetica,sans-Serif" font-size="10.00">+ Blob()</text>
<text text-anchor="start" x="753.5" y="-1425.5" font-family="Helvetica,sans-Serif" font-size="10.00">+ Blob()</text>
<text text-anchor="start" x="753.5" y="-1414.5" font-family="Helvetica,sans-Serif" font-size="10.00">+ Blob()</text>
<text text-anchor="start" x="753.5" y="-1403.5" font-family="Helvetica,sans-Serif" font-size="10.00">+ Blob()</text>
<text text-anchor="start" x="753.5" y="-1392.5" font-family="Helvetica,sans-Serif" font-size="10.00">+ Blob()</text>
<text text-anchor="start" x="753.5" y="-1381.5" font-family="Helvetica,sans-Serif" font-size="10.00">+ operator=()</text>
<text text-anchor="start" x="753.5" y="-1370.5" font-family="Helvetica,sans-Serif" font-size="10.00">+ operator=()</text>
<text text-anchor="start" x="753.5" y="-1359.5" font-family="Helvetica,sans-Serif" font-size="10.00">+ reverse()</text>
<text text-anchor="start" x="753.5" y="-1348.5" font-family="Helvetica,sans-Serif" font-size="10.00">+ operator~()</text>
<text text-anchor="start" x="753.5" y="-1337.5" font-family="Helvetica,sans-Serif" font-size="10.00">+ asVector()</text>
<text text-anchor="start" x="753.5" y="-1326.5" font-family="Helvetica,sans-Serif" font-size="10.00">+ asString()</text>
<text text-anchor="start" x="753.5" y="-1315.5" font-family="Helvetica,sans-Serif" font-size="10.00">+ operator[]()</text>
<text text-anchor="start" x="753.5" y="-1304.5" font-family="Helvetica,sans-Serif" font-size="10.00">+ operator[]()</text>
<text text-anchor="start" x="753.5" y="-1293.5" font-family="Helvetica,sans-Serif" font-size="10.00">+ compareTo()</text>
</a>
</g>
</g>
<!-- Node15&#45;&gt;Node14 -->
<g id="edge18" class="edge">
<title>Node15&#45;&gt;Node14</title>
<path fill="none" stroke="#404040" d="M804.35,-1286.33C801.19,-1233.8 797.55,-1173.53 795.05,-1132.04"/>
<polygon fill="none" stroke="#404040" points="795.05,-1132.03 790.69,-1126.29 794.33,-1120.06 798.68,-1125.8 795.05,-1132.03"/>
<text text-anchor="middle" x="819" y="-1236.5" font-family="Helvetica,sans-Serif" font-size="10.00"> +hash</text>
</g>
<!-- Node18 -->
<g id="node18" class="node">
<title>Node18</title>
<g id="a_node18"><a xlink:href="structaltintegration_1_1BtcBlock.html" target="_top" xlink:title="Bitcoin block.">
<polygon fill="white" stroke="black" points="888,-969.5 888,-1191.5 1004,-1191.5 1004,-969.5 888,-969.5"/>
<text text-anchor="middle" x="946" y="-1179.5" font-family="Helvetica,sans-Serif" font-size="10.00">altintegration::BtcBlock</text>
<polyline fill="none" stroke="black" points="888,-1172.5 1004,-1172.5 "/>
<text text-anchor="start" x="896" y="-1160.5" font-family="Helvetica,sans-Serif" font-size="10.00"># version</text>
<text text-anchor="start" x="896" y="-1149.5" font-family="Helvetica,sans-Serif" font-size="10.00"># timestamp</text>
<text text-anchor="start" x="896" y="-1138.5" font-family="Helvetica,sans-Serif" font-size="10.00"># bits</text>
<text text-anchor="start" x="896" y="-1127.5" font-family="Helvetica,sans-Serif" font-size="10.00"># nonce</text>
<polyline fill="none" stroke="black" points="888,-1120.5 1004,-1120.5 "/>
<text text-anchor="start" x="896" y="-1108.5" font-family="Helvetica,sans-Serif" font-size="10.00">+ BtcBlock()</text>
<text text-anchor="start" x="896" y="-1097.5" font-family="Helvetica,sans-Serif" font-size="10.00">+ BtcBlock()</text>
<text text-anchor="start" x="896" y="-1086.5" font-family="Helvetica,sans-Serif" font-size="10.00">+ toRaw()</text>
<text text-anchor="start" x="896" y="-1075.5" font-family="Helvetica,sans-Serif" font-size="10.00">+ toVbkEncoding()</text>
<text text-anchor="start" x="896" y="-1064.5" font-family="Helvetica,sans-Serif" font-size="10.00">+ estimateSize()</text>
<text text-anchor="start" x="896" y="-1053.5" font-family="Helvetica,sans-Serif" font-size="10.00">+ calculateHash()</text>
<text text-anchor="start" x="896" y="-1042.5" font-family="Helvetica,sans-Serif" font-size="10.00">+ getHash()</text>
<text text-anchor="start" x="896" y="-1031.5" font-family="Helvetica,sans-Serif" font-size="10.00">+ toPrettyString()</text>
<text text-anchor="start" x="896" y="-1020.5" font-family="Helvetica,sans-Serif" font-size="10.00">+ getVersion()</text>
<text text-anchor="start" x="896" y="-1009.5" font-family="Helvetica,sans-Serif" font-size="10.00">+ getPreviousBlock()</text>
<text text-anchor="start" x="896" y="-998.5" font-family="Helvetica,sans-Serif" font-size="10.00">and 10 more...</text>
<text text-anchor="start" x="896" y="-987.5" font-family="Helvetica,sans-Serif" font-size="10.00">+ name()</text>
<text text-anchor="start" x="896" y="-976.5" font-family="Helvetica,sans-Serif" font-size="10.00"># invalidateHash()</text>
</a>
</g>
</g>
<!-- Node15&#45;&gt;Node18 -->
<g id="edge25" class="edge">
<title>Node15&#45;&gt;Node18</title>
<path fill="none" stroke="#404040" d="M832.16,-1286.24C839.54,-1260.34 849.28,-1233.46 862,-1210 867.1,-1200.59 871.62,-1200.59 878,-1192 878.93,-1190.75 879.85,-1189.5 880.78,-1188.23"/>
<polygon fill="none" stroke="#404040" points="880.88,-1188.08 881.09,-1180.87 887.83,-1178.29 887.61,-1185.5 880.88,-1188.08"/>
<text text-anchor="middle" x="895.5" y="-1242" font-family="Helvetica,sans-Serif" font-size="10.00"> #merkleRoot</text>
<text text-anchor="middle" x="895.5" y="-1231" font-family="Helvetica,sans-Serif" font-size="10.00">#previousBlock</text>
</g>
<!-- Node16 -->
<g id="node16" class="node">
<title>Node16</title>
<g id="a_node16"><a xlink:href="structaltintegration_1_1Blob.html" target="_top" xlink:title="Contiguous byte array of fixed size.">
<polygon fill="white" stroke="black" points="796,-1556.5 796,-1767.5 916,-1767.5 916,-1556.5 796,-1556.5"/>
<text text-anchor="middle" x="856" y="-1755.5" font-family="Helvetica,sans-Serif" font-size="10.00">altintegration::Blob&lt; N &gt;</text>
<polyline fill="none" stroke="black" points="796,-1748.5 916,-1748.5 "/>
<text text-anchor="start" x="804" y="-1736.5" font-family="Helvetica,sans-Serif" font-size="10.00">+ data_</text>
<text text-anchor="start" x="804" y="-1725.5" font-family="Helvetica,sans-Serif" font-size="10.00">+ this</text>
<polyline fill="none" stroke="black" points="796,-1718.5 916,-1718.5 "/>
<text text-anchor="start" x="804" y="-1706.5" font-family="Helvetica,sans-Serif" font-size="10.00">+ Blob()</text>
<text text-anchor="start" x="804" y="-1695.5" font-family="Helvetica,sans-Serif" font-size="10.00">+ Blob()</text>
<text text-anchor="start" x="804" y="-1684.5" font-family="Helvetica,sans-Serif" font-size="10.00">+ Blob()</text>
<text text-anchor="start" x="804" y="-1673.5" font-family="Helvetica,sans-Serif" font-size="10.00">+ Blob()</text>
<text text-anchor="start" x="804" y="-1662.5" font-family="Helvetica,sans-Serif" font-size="10.00">+ Blob()</text>
<text text-anchor="start" x="804" y="-1651.5" font-family="Helvetica,sans-Serif" font-size="10.00">+ operator=()</text>
<text text-anchor="start" x="804" y="-1640.5" font-family="Helvetica,sans-Serif" font-size="10.00">+ operator=()</text>
<text text-anchor="start" x="804" y="-1629.5" font-family="Helvetica,sans-Serif" font-size="10.00">+ reverse()</text>
<text text-anchor="start" x="804" y="-1618.5" font-family="Helvetica,sans-Serif" font-size="10.00">+ operator~()</text>
<text text-anchor="start" x="804" y="-1607.5" font-family="Helvetica,sans-Serif" font-size="10.00">+ asVector()</text>
<text text-anchor="start" x="804" y="-1596.5" font-family="Helvetica,sans-Serif" font-size="10.00">+ asString()</text>
<text text-anchor="start" x="804" y="-1585.5" font-family="Helvetica,sans-Serif" font-size="10.00">+ operator[]()</text>
<text text-anchor="start" x="804" y="-1574.5" font-family="Helvetica,sans-Serif" font-size="10.00">+ operator[]()</text>
<text text-anchor="start" x="804" y="-1563.5" font-family="Helvetica,sans-Serif" font-size="10.00">+ compareTo()</text>
</a>
</g>
</g>
<!-- Node16&#45;&gt;Node15 -->
<g id="edge19" class="edge">
<title>Node16&#45;&gt;Node15</title>
<path fill="none" stroke="orange" d="M813.67,-1546.53C813.06,-1543.67 812.5,-1540.83 812,-1538 810.33,-1528.58 809.15,-1518.75 808.35,-1508.85"/>
<polygon fill="orange" stroke="orange" points="810.26,-1547.34 815.93,-1556.29 817.08,-1545.76 810.26,-1547.34"/>
<text text-anchor="middle" x="870.5" y="-1530" font-family="Helvetica,sans-Serif" font-size="10.00"> &lt; SHA256_HASH_SIZE &gt;</text>
</g>
<!-- Node16&#45;&gt;Node18 -->
<g id="edge24" class="edge">
<title>Node16&#45;&gt;Node18</title>
<path fill="none" stroke="#404040" d="M916.1,-1570.95C921.25,-1560.19 925.74,-1549.08 929,-1538 946.74,-1477.76 949.04,-1317.38 948.21,-1203.79"/>
<polygon fill="none" stroke="#404040" points="948.21,-1203.56 944.16,-1197.6 948.11,-1191.56 952.16,-1197.53 948.21,-1203.56"/>
<text text-anchor="middle" x="966" y="-1395" font-family="Helvetica,sans-Serif" font-size="10.00"> #hash_</text>
</g>
<!-- Node17 -->
<g id="node17" class="node">
<title>Node17</title>
<g id="a_node17"><a xlink:href="structaltintegration_1_1btc_1_1BlockHeader.html" target="_top" xlink:title=" ">
<polygon fill="white" stroke="black" points="719.5,-733.5 719.5,-823.5 874.5,-823.5 874.5,-733.5 719.5,-733.5"/>
<text text-anchor="start" x="727.5" y="-811.5" font-family="Helvetica,sans-Serif" font-size="10.00">altintegration::btc</text>
<text text-anchor="middle" x="797" y="-800.5" font-family="Helvetica,sans-Serif" font-size="10.00">::BlockHeader</text>
<polyline fill="none" stroke="black" points="719.5,-793.5 874.5,-793.5 "/>
<text text-anchor="start" x="727.5" y="-781.5" font-family="Helvetica,sans-Serif" font-size="10.00">+ ADD_SERIALIZE_METHODS</text>
<polyline fill="none" stroke="black" points="719.5,-774.5 874.5,-774.5 "/>
<text text-anchor="start" x="727.5" y="-762.5" font-family="Helvetica,sans-Serif" font-size="10.00">+ BlockHeader()</text>
<text text-anchor="start" x="727.5" y="-751.5" font-family="Helvetica,sans-Serif" font-size="10.00">+ BlockHeader()</text>
<text text-anchor="start" x="727.5" y="-740.5" font-family="Helvetica,sans-Serif" font-size="10.00">+ SerializationOp()</text>
</a>
</g>
</g>
<!-- Node17&#45;&gt;Node2 -->
<g id="edge22" class="edge">
<title>Node17&#45;&gt;Node2</title>
<path fill="none" stroke="#404040" d="M786.84,-733.28C780.68,-702.64 774,-660.81 774,-623.5 774,-623.5 774,-623.5 774,-287.5 774,-261.15 760.77,-236.44 744.56,-216.06"/>
<polygon fill="none" stroke="#404040" points="744.42,-215.89 737.49,-213.88 736.68,-206.71 743.61,-208.72 744.42,-215.89"/>
<text text-anchor="middle" x="793" y="-471" font-family="Helvetica,sans-Serif" font-size="10.00"> +header</text>
</g>
<!-- Node18&#45;&gt;Node17 -->
<g id="edge23" class="edge">
<title>Node18&#45;&gt;Node17</title>
<path fill="none" stroke="midnightblue" d="M886.78,-960.26C862.89,-912.16 836.81,-859.65 818.94,-823.68"/>
<polygon fill="none" stroke="midnightblue" points="883.78,-962.1 891.36,-969.49 890.05,-958.98 883.78,-962.1"/>
</g>
<!-- Node19 -->
<g id="node19" class="node">
<title>Node19</title>
<g id="a_node19"><a xlink:title=" ">
<polygon fill="white" stroke="#bfbfbf" points="995.5,-1369 995.5,-1426 1054.5,-1426 1054.5,-1369 995.5,-1369"/>
<text text-anchor="middle" x="1025" y="-1414" font-family="Helvetica,sans-Serif" font-size="10.00">std::string</text>
<polyline fill="none" stroke="#bfbfbf" points="995.5,-1407 1054.5,-1407 "/>
<text text-anchor="middle" x="1025" y="-1395" font-family="Helvetica,sans-Serif" font-size="10.00"> </text>
<polyline fill="none" stroke="#bfbfbf" points="995.5,-1388 1054.5,-1388 "/>
<text text-anchor="middle" x="1025" y="-1376" font-family="Helvetica,sans-Serif" font-size="10.00"> </text>
</a>
</g>
</g>
<!-- Node19&#45;&gt;Node18 -->
<g id="edge26" class="edge">
<title>Node19&#45;&gt;Node18</title>
<path fill="none" stroke="#404040" d="M1018.06,-1368.82C1008.79,-1331.88 991.79,-1264.07 976.62,-1203.6"/>
<polygon fill="none" stroke="#404040" points="976.54,-1203.26 971.2,-1198.41 973.62,-1191.62 978.96,-1196.46 976.54,-1203.26"/>
<text text-anchor="middle" x="1011.5" y="-1236.5" font-family="Helvetica,sans-Serif" font-size="10.00"> #_name</text>
</g>
<!-- Node20 -->
<g id="node20" class="node">
<title>Node20</title>
<g id="a_node20"><a xlink:title=" ">
<polygon fill="white" stroke="#bfbfbf" points="978.5,-1628 978.5,-1696 1071.5,-1696 1071.5,-1628 978.5,-1628"/>
<text text-anchor="start" x="986.5" y="-1684" font-family="Helvetica,sans-Serif" font-size="10.00">std::basic_string&lt;</text>
<text text-anchor="middle" x="1025" y="-1673" font-family="Helvetica,sans-Serif" font-size="10.00"> Char &gt;</text>
<polyline fill="none" stroke="#bfbfbf" points="978.5,-1666 1071.5,-1666 "/>
<text text-anchor="middle" x="1025" y="-1654" font-family="Helvetica,sans-Serif" font-size="10.00"> </text>
<polyline fill="none" stroke="#bfbfbf" points="978.5,-1647 1071.5,-1647 "/>
<text text-anchor="middle" x="1025" y="-1635" font-family="Helvetica,sans-Serif" font-size="10.00"> </text>
</a>
</g>
</g>
<!-- Node20&#45;&gt;Node19 -->
<g id="edge27" class="edge">
<title>Node20&#45;&gt;Node19</title>
<path fill="none" stroke="midnightblue" d="M1025,-1617.75C1025,-1563.49 1025,-1472.02 1025,-1426.29"/>
<polygon fill="none" stroke="midnightblue" points="1021.5,-1617.75 1025,-1627.75 1028.5,-1617.75 1021.5,-1617.75"/>
</g>
<!-- Node21&#45;&gt;Node2 -->
<g id="edge28" class="edge">
<title>Node21&#45;&gt;Node2</title>
<path fill="none" stroke="#404040" d="M686,-1210.27C686,-1158.45 686,-1043.41 686,-946.5 686,-946.5 686,-946.5 686,-287.5 686,-265.1 686,-240.43 686,-218.98"/>
<polygon fill="none" stroke="#404040" points="686,-218.76 682,-212.76 686,-206.76 690,-212.76 686,-218.76"/>
<text text-anchor="middle" x="711.5" y="-620" font-family="Helvetica,sans-Serif" font-size="10.00"> +shorttxids</text>
</g>
</g>
</svg>
        <g id="navigator" transform="translate(0 0)" fill="#404254">
                <rect fill="#f2f5e9" fill-opacity="0.5" stroke="#606060" stroke-width=".5" x="0" y="0" width="60" height="60"/>
                <use id="zoomplus" xlink:href="#zoomPlus" x="17" y="9" onmousedown="handleZoom(evt,'in')"/>
                <use id="zoomminus" xlink:href="#zoomMin" x="42" y="9" onmousedown="handleZoom(evt,'out')"/>
                <use id="reset" xlink:href="#resetDef" x="30" y="36" onmousedown="handleReset()"/>
                <g id="arrowUp" xlink:href="#dirArrow" transform="translate(30 24)" onmousedown="handlePan(0,-1)">
                  <use xlink:href="#rim" fill="#404040">
                        <set attributeName="fill" to="#808080" begin="arrowUp.mouseover" end="arrowUp.mouseout"/>
                  </use>
                  <path fill="none" stroke="white" stroke-width="1.5" d="M0,-3.0v7 M-2.5,-0.5L0,-3.0L2.5,-0.5"/>
                </g>
                <g id="arrowRight" xlink:href="#dirArrow" transform="rotate(90) translate(36 -43)" onmousedown="handlePan(1,0)">
                  <use xlink:href="#rim" fill="#404040">
                        <set attributeName="fill" to="#808080" begin="arrowRight.mouseover" end="arrowRight.mouseout"/>
                  </use>
                  <path fill="none" stroke="white" stroke-width="1.5" d="M0,-3.0v7 M-2.5,-0.5L0,-3.0L2.5,-0.5"/>
                </g>
                <g id="arrowDown" xlink:href="#dirArrow" transform="rotate(180) translate(-30 -48)" onmousedown="handlePan(0,1)">
                  <use xlink:href="#rim" fill="#404040">
                        <set attributeName="fill" to="#808080" begin="arrowDown.mouseover" end="arrowDown.mouseout"/>
                  </use>
                  <path fill="none" stroke="white" stroke-width="1.5" d="M0,-3.0v7 M-2.5,-0.5L0,-3.0L2.5,-0.5"/>
                </g>
                <g id="arrowLeft" xlink:href="#dirArrow" transform="rotate(270) translate(-36 17)" onmousedown="handlePan(-1,0)">
                  <use xlink:href="#rim" fill="#404040">
                        <set attributeName="fill" to="#808080" begin="arrowLeft.mouseover" end="arrowLeft.mouseout"/>
                  </use>
                  <path fill="none" stroke="white" stroke-width="1.5" d="M0,-3.0v7 M-2.5,-0.5L0,-3.0L2.5,-0.5"/>
                </g>
        </g>
        <svg viewBox="0 0 15 15" width="100%" height="30px" preserveAspectRatio="xMaxYMin meet">
         <g id="arrow_out" transform="scale(0.3 0.3)">
          <a xlink:href="structaltintegration_1_1btc_1_1CmpctBlockMsg__coll__graph_org.svg" target="_base">
           <rect id="button" ry="5" rx="5" y="6" x="6" height="38" width="38"
                fill="#f2f5e9" fill-opacity="0.5" stroke="#606060" stroke-width="1.0"/>
           <path id="arrow"
             d="M 11.500037,31.436501 C 11.940474,20.09759 22.043105,11.32322 32.158766,21.979434 L 37.068811,17.246167 C 37.068811,17.246167 37.088388,32 37.088388,32 L 22.160133,31.978069 C 22.160133,31.978069 26.997745,27.140456 26.997745,27.140456 C 18.528582,18.264221 13.291696,25.230495 11.500037,31.436501 z"
             style="fill:#404040;"/>
          </a>
         </g>
        </svg>
</svg>
