<?xml version="1.0" encoding="UTF-8" standalone="no"?>
<!DOCTYPE svg PUBLIC "-//W3C//DTD SVG 1.1//EN"
 "http://www.w3.org/Graphics/SVG/1.1/DTD/svg11.dtd">
<!-- Generated by graphviz version 2.44.0 ()
 -->
<!-- Title: altintegration::ContextInfoContainer Pages: 1 -->
<svg width="188pt" height="618pt"
 viewBox="0.00 0.00 188.00 618.00" xmlns="http://www.w3.org/2000/svg" xmlns:xlink="http://www.w3.org/1999/xlink">
<g id="graph0" class="graph" transform="scale(1 1) rotate(0) translate(4 614)">
<title>altintegration::ContextInfoContainer</title>
<polygon fill="white" stroke="transparent" points="-4,4 -4,-614 184,-614 184,4 -4,4"/>
<!-- Node1 -->
<g id="node1" class="node">
<title>Node1</title>
<g id="a_node1"><a xlink:title="Container of context info for endorsed block.">
<polygon fill="#bfbfbf" stroke="black" points="0,-0.5 0,-134.5 126,-134.5 126,-0.5 0,-0.5"/>
<text text-anchor="start" x="8" y="-122.5" font-family="Helvetica,sans-Serif" font-size="10.00">altintegration::ContextInfo</text>
<text text-anchor="middle" x="63" y="-111.5" font-family="Helvetica,sans-Serif" font-size="10.00">Container</text>
<polyline fill="none" stroke="black" points="0,-104.5 126,-104.5 "/>
<text text-anchor="start" x="8" y="-92.5" font-family="Helvetica,sans-Serif" font-size="10.00">+ height</text>
<polyline fill="none" stroke="black" points="0,-85.5 126,-85.5 "/>
<text text-anchor="start" x="8" y="-73.5" font-family="Helvetica,sans-Serif" font-size="10.00">+ getHash()</text>
<text text-anchor="start" x="8" y="-62.5" font-family="Helvetica,sans-Serif" font-size="10.00">+ toVbkEncoding()</text>
<text text-anchor="start" x="8" y="-51.5" font-family="Helvetica,sans-Serif" font-size="10.00">+ estimateSize()</text>
<text text-anchor="start" x="8" y="-40.5" font-family="Helvetica,sans-Serif" font-size="10.00">+ operator==()</text>
<text text-anchor="start" x="8" y="-29.5" font-family="Helvetica,sans-Serif" font-size="10.00">+ operator!=()</text>
<text text-anchor="start" x="8" y="-18.5" font-family="Helvetica,sans-Serif" font-size="10.00">+ toPrettyString()</text>
<text text-anchor="start" x="8" y="-7.5" font-family="Helvetica,sans-Serif" font-size="10.00">+ createFromPrevious()</text>
</a>
</g>
</g>
<!-- Node2 -->
<g id="node2" class="node">
<title>Node2</title>
<g id="a_node2"><a xlink:href="structaltintegration_1_1KeystoneContainer.html" target="_top" xlink:title="A container for two previous keystones of endorsed block.">
<polygon fill="white" stroke="black" points="3.5,-182.5 3.5,-283.5 122.5,-283.5 122.5,-182.5 3.5,-182.5"/>
<text text-anchor="start" x="11.5" y="-271.5" font-family="Helvetica,sans-Serif" font-size="10.00">altintegration::Keystone</text>
<text text-anchor="middle" x="63" y="-260.5" font-family="Helvetica,sans-Serif" font-size="10.00">Container</text>
<polyline fill="none" stroke="black" points="3.5,-253.5 122.5,-253.5 "/>
<text text-anchor="middle" x="63" y="-241.5" font-family="Helvetica,sans-Serif" font-size="10.00"> </text>
<polyline fill="none" stroke="black" points="3.5,-234.5 122.5,-234.5 "/>
<text text-anchor="start" x="11.5" y="-222.5" font-family="Helvetica,sans-Serif" font-size="10.00">+ toVbkEncoding()</text>
<text text-anchor="start" x="11.5" y="-211.5" font-family="Helvetica,sans-Serif" font-size="10.00">+ estimateSize()</text>
<text text-anchor="start" x="11.5" y="-200.5" font-family="Helvetica,sans-Serif" font-size="10.00">+ operator==()</text>
<text text-anchor="start" x="11.5" y="-189.5" font-family="Helvetica,sans-Serif" font-size="10.00">+ createFromPrevious()</text>
</a>
</g>
</g>
<!-- Node2&#45;&gt;Node1 -->
<g id="edge1" class="edge">
<title>Node2&#45;&gt;Node1</title>
<path fill="none" stroke="#404040" d="M63,-182.06C63,-170.97 63,-158.97 63,-147.05"/>
<polygon fill="none" stroke="#404040" points="63,-146.71 59,-140.71 63,-134.71 67,-140.71 63,-146.71"/>
<text text-anchor="middle" x="89.5" y="-156" font-family="Helvetica,sans-Serif" font-size="10.00"> +keystones</text>
</g>
<!-- Node3 -->
<g id="node3" class="node">
<title>Node3</title>
<g id="a_node3"><a xlink:title=" ">
<polygon fill="white" stroke="#bfbfbf" points="9.5,-342.5 9.5,-399.5 116.5,-399.5 116.5,-342.5 9.5,-342.5"/>
<text text-anchor="middle" x="63" y="-387.5" font-family="Helvetica,sans-Serif" font-size="10.00">std::vector&lt; uint8_t &gt;</text>
<polyline fill="none" stroke="#bfbfbf" points="9.5,-380.5 116.5,-380.5 "/>
<text text-anchor="start" x="17.5" y="-368.5" font-family="Helvetica,sans-Serif" font-size="10.00">+ elements</text>
<polyline fill="none" stroke="#bfbfbf" points="9.5,-361.5 116.5,-361.5 "/>
<text text-anchor="middle" x="63" y="-349.5" font-family="Helvetica,sans-Serif" font-size="10.00"> </text>
</a>
</g>
</g>
<!-- Node3&#45;&gt;Node2 -->
<g id="edge2" class="edge">
<title>Node3&#45;&gt;Node2</title>
<path fill="none" stroke="#404040" d="M63,-342.48C63,-329.06 63,-312.33 63,-296.06"/>
<polygon fill="none" stroke="#404040" points="63,-295.76 59,-289.76 63,-283.76 67,-289.76 63,-295.76"/>
<text text-anchor="middle" x="121.5" y="-316" font-family="Helvetica,sans-Serif" font-size="10.00"> +firstPreviousKeystone</text>
<text text-anchor="middle" x="121.5" y="-305" font-family="Helvetica,sans-Serif" font-size="10.00">+secondPreviousKeystone</text>
</g>
<!-- Node4 -->
<g id="node4" class="node">
<title>Node4</title>
<g id="a_node4"><a xlink:title=" ">
<polygon fill="white" stroke="#bfbfbf" points="21,-447.5 21,-504.5 105,-504.5 105,-447.5 21,-447.5"/>
<text text-anchor="middle" x="63" y="-492.5" font-family="Helvetica,sans-Serif" font-size="10.00">std::vector&lt; T &gt;</text>
<polyline fill="none" stroke="#bfbfbf" points="21,-485.5 105,-485.5 "/>
<text text-anchor="middle" x="63" y="-473.5" font-family="Helvetica,sans-Serif" font-size="10.00"> </text>
<polyline fill="none" stroke="#bfbfbf" points="21,-466.5 105,-466.5 "/>
<text text-anchor="middle" x="63" y="-454.5" font-family="Helvetica,sans-Serif" font-size="10.00"> </text>
</a>
</g>
</g>
<!-- Node4&#45;&gt;Node3 -->
<g id="edge3" class="edge">
<title>Node4&#45;&gt;Node3</title>
<path fill="none" stroke="orange" d="M63,-437.29C63,-424.84 63,-411.23 63,-399.68"/>
<polygon fill="orange" stroke="orange" points="59.5,-437.4 63,-447.4 66.5,-437.4 59.5,-437.4"/>
<text text-anchor="middle" x="87.5" y="-421" font-family="Helvetica,sans-Serif" font-size="10.00"> &lt; uint8_t &gt;</text>
</g>
<!-- Node5 -->
<g id="node5" class="node">
<title>Node5</title>
<g id="a_node5"><a xlink:title=" ">
<polygon fill="white" stroke="#bfbfbf" points="48.5,-552.5 48.5,-609.5 77.5,-609.5 77.5,-552.5 48.5,-552.5"/>
<text text-anchor="middle" x="63" y="-597.5" font-family="Helvetica,sans-Serif" font-size="10.00">T</text>
<polyline fill="none" stroke="#bfbfbf" points="48.5,-590.5 77.5,-590.5 "/>
<text text-anchor="middle" x="63" y="-578.5" font-family="Helvetica,sans-Serif" font-size="10.00"> </text>
<polyline fill="none" stroke="#bfbfbf" points="48.5,-571.5 77.5,-571.5 "/>
<text text-anchor="middle" x="63" y="-559.5" font-family="Helvetica,sans-Serif" font-size="10.00"> </text>
</a>
</g>
</g>
<!-- Node5&#45;&gt;Node4 -->
<g id="edge4" class="edge">
<title>Node5&#45;&gt;Node4</title>
<path fill="none" stroke="#404040" d="M63,-552.4C63,-541.55 63,-528.87 63,-517.05"/>
<polygon fill="none" stroke="#404040" points="63,-516.68 59,-510.68 63,-504.68 67,-510.68 63,-516.68"/>
<text text-anchor="middle" x="87.5" y="-526" font-family="Helvetica,sans-Serif" font-size="10.00"> +elements</text>
</g>
</g>
</svg>
