<?xml version="1.0" encoding="UTF-8" standalone="no"?>
<!DOCTYPE svg PUBLIC "-//W3C//DTD SVG 1.1//EN"
 "http://www.w3.org/Graphics/SVG/1.1/DTD/svg11.dtd">
<!-- Generated by graphviz version 3.0.0 (20220413.0106)
 -->
<!-- Title: altintegration::VbkTx Pages: 1 -->
<!--zoomable 761 -->
<svg id="main" version="1.1" xmlns="http://www.w3.org/2000/svg" xmlns:xlink="http://www.w3.org/1999/xlink" xml:space="preserve" onload="init(evt)">
<style type="text/css"><![CDATA[
.edge:hover path { stroke: red; }
.edge:hover polygon { stroke: red; fill: red; }
]]></style>
<script type="text/javascript"><![CDATA[
var edges = document.getElementsByTagName('g');
if (edges && edges.length) {
  for (var i=0;i<edges.length;i++) {
    if (edges[i].id.substr(0,4)=='edge') {
      edges[i].setAttribute('class','edge');
    }
  }
}
]]></script>
        <defs>
                <circle id="rim" cx="0" cy="0" r="7"/>
                <circle id="rim2" cx="0" cy="0" r="3.5"/>
                <g id="zoomPlus">
                        <use xlink:href="#rim" fill="#404040">
                                <set attributeName="fill" to="#808080" begin="zoomplus.mouseover" end="zoomplus.mouseout"/>
                        </use>
                        <path d="M-4,0h8M0,-4v8" fill="none" stroke="white" stroke-width="1.5" pointer-events="none"/>
                </g>
                <g id="zoomMin">
                        <use xlink:href="#rim" fill="#404040">
                                <set attributeName="fill" to="#808080" begin="zoomminus.mouseover" end="zoomminus.mouseout"/>
                        </use>
                        <path d="M-4,0h8" fill="none" stroke="white" stroke-width="1.5" pointer-events="none"/>
                </g>
                <g id="dirArrow">
                        <path fill="none" stroke="white" stroke-width="1.5" d="M0,-3.0v7 M-2.5,-0.5L0,-3.0L2.5,-0.5"/>
                </g>
               <g id="resetDef">
                       <use xlink:href="#rim2" fill="#404040">
                               <set attributeName="fill" to="#808080" begin="reset.mouseover" end="reset.mouseout"/>
                       </use>
               </g>
        </defs>

<script type="text/javascript">
var viewWidth = 705;
var viewHeight = 761;
var sectionId = 'dynsection-0';
</script>
<script xlink:href="svgpan.js"/>
<svg id="graph" class="graph">
<g id="viewport">
<title>altintegration::VbkTx</title>
<polygon fill="white" stroke="transparent" points="-4,4 -4,-757 700.5,-757 700.5,4 -4,4"/>
<!-- Node1 -->
<g id="node1" class="node">
<title>Node1</title>
<g id="a_node1"><a xlink:title="Veriblock transaction, which endorses ALT block in VBK blockchain.">
<polygon fill="#bfbfbf" stroke="black" points="272,-0.5 272,-101.5 376,-101.5 376,-0.5 272,-0.5"/>
<text text-anchor="middle" x="324" y="-89.5" font-family="Helvetica,sans-Serif" font-size="10.00">altintegration::VbkTx</text>
<polyline fill="none" stroke="black" points="272,-82.5 376,-82.5 "/>
<text text-anchor="start" x="280" y="-70.5" font-family="Helvetica,sans-Serif" font-size="10.00">+ signatureIndex</text>
<polyline fill="none" stroke="black" points="272,-63.5 376,-63.5 "/>
<text text-anchor="start" x="280" y="-51.5" font-family="Helvetica,sans-Serif" font-size="10.00">+ toVbkEncoding()</text>
<text text-anchor="start" x="280" y="-40.5" font-family="Helvetica,sans-Serif" font-size="10.00">+ toVbkEncoding()</text>
<text text-anchor="start" x="280" y="-29.5" font-family="Helvetica,sans-Serif" font-size="10.00">+ estimateSize()</text>
<text text-anchor="start" x="280" y="-18.5" font-family="Helvetica,sans-Serif" font-size="10.00">+ getHash()</text>
<text text-anchor="start" x="280" y="-7.5" font-family="Helvetica,sans-Serif" font-size="10.00">+ calculateTxFee()</text>
</a>
</g>
</g>
<!-- Node2 -->
<g id="node2" class="node">
<title>Node2</title>
<g id="a_node2"><a xlink:href="namespacealtintegration.html#structaltintegration_1_1NetworkBytePair" target="_top" xlink:title="Stores pair of TxType and VBK network byte.">
<polygon fill="white" stroke="black" points="2,-160.5 2,-217.5 152,-217.5 152,-160.5 2,-160.5"/>
<text text-anchor="middle" x="77" y="-205.5" font-family="Helvetica,sans-Serif" font-size="10.00">altintegration::NetworkBytePair</text>
<polyline fill="none" stroke="black" points="2,-198.5 152,-198.5 "/>
<text text-anchor="start" x="10" y="-186.5" font-family="Helvetica,sans-Serif" font-size="10.00">+ typeId</text>
<polyline fill="none" stroke="black" points="2,-179.5 152,-179.5 "/>
<text text-anchor="middle" x="77" y="-167.5" font-family="Helvetica,sans-Serif" font-size="10.00"> </text>
</a>
</g>
</g>
<!-- Node2&#45;&gt;Node1 -->
<g id="edge1" class="edge">
<title>Node2&#45;&gt;Node1</title>
<path fill="none" stroke="#404040" d="M76.3,-160.5C77.38,-146.76 81.03,-130.81 91,-120 133.84,-73.54 206.46,-58.18 259.25,-53.42"/>
<polygon fill="none" stroke="#404040" points="259.58,-53.4 265.25,-48.95 271.55,-52.47 265.87,-56.92 259.58,-53.4"/>
<text text-anchor="middle" x="128.5" y="-123" font-family="Helvetica,sans-Serif" font-size="10.00"> +networkOrType</text>
</g>
<!-- Node3 -->
<g id="node3" class="node">
<title>Node3</title>
<g id="a_node3"><a xlink:href="structaltintegration_1_1VbkNetworkType.html" target="_top" xlink:title="works as optional&lt;uint8_t&gt;">
<polygon fill="white" stroke="black" points="0,-304 0,-405 152,-405 152,-304 0,-304"/>
<text text-anchor="middle" x="76" y="-393" font-family="Helvetica,sans-Serif" font-size="10.00">altintegration::VbkNetworkType</text>
<polyline fill="none" stroke="black" points="0,-386 152,-386 "/>
<text text-anchor="start" x="8" y="-374" font-family="Helvetica,sans-Serif" font-size="10.00">+ hasValue</text>
<text text-anchor="start" x="8" y="-363" font-family="Helvetica,sans-Serif" font-size="10.00">+ value</text>
<polyline fill="none" stroke="black" points="0,-356 152,-356 "/>
<text text-anchor="start" x="8" y="-344" font-family="Helvetica,sans-Serif" font-size="10.00">+ operator bool()</text>
<text text-anchor="start" x="8" y="-333" font-family="Helvetica,sans-Serif" font-size="10.00">+ operator==()</text>
<text text-anchor="start" x="8" y="-322" font-family="Helvetica,sans-Serif" font-size="10.00">+ toPrettyString()</text>
<text text-anchor="start" x="8" y="-311" font-family="Helvetica,sans-Serif" font-size="10.00">+ putJson()</text>
</a>
</g>
</g>
<!-- Node3&#45;&gt;Node2 -->
<g id="edge2" class="edge">
<title>Node3&#45;&gt;Node2</title>
<path fill="none" stroke="#404040" d="M76.31,-303.56C76.45,-279.9 76.62,-252.02 76.76,-229.81"/>
<polygon fill="none" stroke="#404040" points="76.76,-229.79 72.79,-223.77 76.83,-217.79 80.79,-223.82 76.76,-229.79"/>
<text text-anchor="middle" x="109" y="-261" font-family="Helvetica,sans-Serif" font-size="10.00"> +networkType</text>
</g>
<!-- Node4 -->
<g id="node4" class="node">
<title>Node4</title>
<g id="a_node4"><a xlink:href="structaltintegration_1_1Address.html" target="_top" xlink:title="Represents address on VBK chain.">
<polygon fill="white" stroke="black" points="128.5,-458.5 128.5,-647.5 265.5,-647.5 265.5,-458.5 128.5,-458.5"/>
<text text-anchor="middle" x="197" y="-635.5" font-family="Helvetica,sans-Serif" font-size="10.00">altintegration::Address</text>
<polyline fill="none" stroke="black" points="128.5,-628.5 265.5,-628.5 "/>
<text text-anchor="middle" x="197" y="-616.5" font-family="Helvetica,sans-Serif" font-size="10.00"> </text>
<polyline fill="none" stroke="black" points="128.5,-609.5 265.5,-609.5 "/>
<text text-anchor="start" x="136.5" y="-597.5" font-family="Helvetica,sans-Serif" font-size="10.00">+ Address()</text>
<text text-anchor="start" x="136.5" y="-586.5" font-family="Helvetica,sans-Serif" font-size="10.00">+ operator==()</text>
<text text-anchor="start" x="136.5" y="-575.5" font-family="Helvetica,sans-Serif" font-size="10.00">+ operator!=()</text>
<text text-anchor="start" x="136.5" y="-564.5" font-family="Helvetica,sans-Serif" font-size="10.00">+ operator==()</text>
<text text-anchor="start" x="136.5" y="-553.5" font-family="Helvetica,sans-Serif" font-size="10.00">+ getType()</text>
<text text-anchor="start" x="136.5" y="-542.5" font-family="Helvetica,sans-Serif" font-size="10.00">+ getPopBytes()</text>
<text text-anchor="start" x="136.5" y="-531.5" font-family="Helvetica,sans-Serif" font-size="10.00">+ isDerivedFromPublicKey()</text>
<text text-anchor="start" x="136.5" y="-520.5" font-family="Helvetica,sans-Serif" font-size="10.00">+ fromString()</text>
<text text-anchor="start" x="136.5" y="-509.5" font-family="Helvetica,sans-Serif" font-size="10.00">+ toString()</text>
<text text-anchor="start" x="136.5" y="-498.5" font-family="Helvetica,sans-Serif" font-size="10.00">+ toVbkEncoding()</text>
<text text-anchor="start" x="136.5" y="-487.5" font-family="Helvetica,sans-Serif" font-size="10.00">+ estimateSize()</text>
<text text-anchor="start" x="136.5" y="-476.5" font-family="Helvetica,sans-Serif" font-size="10.00">+ fromPublicKey()</text>
<text text-anchor="start" x="136.5" y="-465.5" font-family="Helvetica,sans-Serif" font-size="10.00">+ assertFromString()</text>
</a>
</g>
</g>
<!-- Node4&#45;&gt;Node1 -->
<g id="edge3" class="edge">
<title>Node4&#45;&gt;Node1</title>
<path fill="none" stroke="#404040" d="M187.12,-458.3C183.63,-396.95 184.71,-315.71 205,-247 219.52,-197.8 249.75,-148.54 276.1,-111.84"/>
<polygon fill="none" stroke="#404040" points="276.33,-111.52 276.64,-104.32 283.41,-101.83 283.1,-109.04 276.33,-111.52"/>
<text text-anchor="middle" x="242" y="-261" font-family="Helvetica,sans-Serif" font-size="10.00"> +sourceAddress</text>
</g>
<!-- Node7 -->
<g id="node7" class="node">
<title>Node7</title>
<g id="a_node7"><a xlink:href="structaltintegration_1_1Output.html" target="_top" xlink:title="Single spending output.">
<polygon fill="white" stroke="black" points="305,-298.5 305,-410.5 411,-410.5 411,-298.5 305,-298.5"/>
<text text-anchor="middle" x="358" y="-398.5" font-family="Helvetica,sans-Serif" font-size="10.00">altintegration::Output</text>
<polyline fill="none" stroke="black" points="305,-391.5 411,-391.5 "/>
<text text-anchor="middle" x="358" y="-379.5" font-family="Helvetica,sans-Serif" font-size="10.00"> </text>
<polyline fill="none" stroke="black" points="305,-372.5 411,-372.5 "/>
<text text-anchor="start" x="313" y="-360.5" font-family="Helvetica,sans-Serif" font-size="10.00">+ Output()</text>
<text text-anchor="start" x="313" y="-349.5" font-family="Helvetica,sans-Serif" font-size="10.00">+ Output()</text>
<text text-anchor="start" x="313" y="-338.5" font-family="Helvetica,sans-Serif" font-size="10.00">+ operator==()</text>
<text text-anchor="start" x="313" y="-327.5" font-family="Helvetica,sans-Serif" font-size="10.00">+ toVbkEncoding()</text>
<text text-anchor="start" x="313" y="-316.5" font-family="Helvetica,sans-Serif" font-size="10.00">+ estimateSize()</text>
<text text-anchor="start" x="313" y="-305.5" font-family="Helvetica,sans-Serif" font-size="10.00">+ toPrettyString()</text>
</a>
</g>
</g>
<!-- Node4&#45;&gt;Node7 -->
<g id="edge7" class="edge">
<title>Node4&#45;&gt;Node7</title>
<path fill="none" stroke="#404040" d="M265.51,-468.38C278.77,-452.21 292.46,-435.49 305.12,-420.04"/>
<polygon fill="none" stroke="#404040" points="305.25,-419.88 305.96,-412.7 312.86,-410.6 312.15,-417.77 305.25,-419.88"/>
<text text-anchor="middle" x="318.5" y="-432" font-family="Helvetica,sans-Serif" font-size="10.00"> +address</text>
</g>
<!-- Node5 -->
<g id="node5" class="node">
<title>Node5</title>
<g id="a_node5"><a xlink:href="structaltintegration_1_1Coin.html" target="_top" xlink:title="represents VBK atomic units">
<polygon fill="white" stroke="black" points="291,-497 291,-609 387,-609 387,-497 291,-497"/>
<text text-anchor="middle" x="339" y="-597" font-family="Helvetica,sans-Serif" font-size="10.00">altintegration::Coin</text>
<polyline fill="none" stroke="black" points="291,-590 387,-590 "/>
<text text-anchor="start" x="299" y="-578" font-family="Helvetica,sans-Serif" font-size="10.00">+ units</text>
<polyline fill="none" stroke="black" points="291,-571 387,-571 "/>
<text text-anchor="start" x="299" y="-559" font-family="Helvetica,sans-Serif" font-size="10.00">+ Coin()</text>
<text text-anchor="start" x="299" y="-548" font-family="Helvetica,sans-Serif" font-size="10.00">+ toPrettyString()</text>
<text text-anchor="start" x="299" y="-537" font-family="Helvetica,sans-Serif" font-size="10.00">+ Coin()</text>
<text text-anchor="start" x="299" y="-526" font-family="Helvetica,sans-Serif" font-size="10.00">+ toVbkEncoding()</text>
<text text-anchor="start" x="299" y="-515" font-family="Helvetica,sans-Serif" font-size="10.00">+ estimateSize()</text>
<text text-anchor="start" x="299" y="-504" font-family="Helvetica,sans-Serif" font-size="10.00">+ operator==()</text>
</a>
</g>
</g>
<!-- Node5&#45;&gt;Node1 -->
<g id="edge4" class="edge">
<title>Node5&#45;&gt;Node1</title>
<path fill="none" stroke="#404040" d="M318.78,-496.84C310.23,-471.11 301.09,-439.86 296,-411 275.76,-296.31 279.48,-263.64 300,-149 302.06,-137.47 304.71,-125.27 307.49,-113.56"/>
<polygon fill="none" stroke="#404040" points="307.57,-113.24 305.1,-106.46 310.41,-101.58 312.87,-108.35 307.57,-113.24"/>
<text text-anchor="middle" x="321" y="-261" font-family="Helvetica,sans-Serif" font-size="10.00"> +sourceAmount</text>
</g>
<!-- Node5&#45;&gt;Node7 -->
<g id="edge8" class="edge">
<title>Node5&#45;&gt;Node7</title>
<path fill="none" stroke="#404040" d="M344.34,-496.74C346.57,-473.73 349.17,-446.79 351.51,-422.65"/>
<polygon fill="none" stroke="#404040" points="351.51,-422.63 348.11,-416.27 352.66,-410.68 356.07,-417.04 351.51,-422.63"/>
<text text-anchor="middle" x="364.5" y="-432" font-family="Helvetica,sans-Serif" font-size="10.00"> +coin</text>
</g>
<!-- Node6 -->
<g id="node6" class="node">
<title>Node6</title>
<g id="a_node6"><a xlink:title=" ">
<polygon fill="white" stroke="black" points="309.5,-155 309.5,-223 434.5,-223 434.5,-155 309.5,-155"/>
<text text-anchor="start" x="317.5" y="-211" font-family="Helvetica,sans-Serif" font-size="10.00">std::vector&lt; altintegration</text>
<text text-anchor="middle" x="372" y="-200" font-family="Helvetica,sans-Serif" font-size="10.00">::Output &gt;</text>
<polyline fill="none" stroke="black" points="309.5,-193 434.5,-193 "/>
<text text-anchor="middle" x="372" y="-181" font-family="Helvetica,sans-Serif" font-size="10.00"> </text>
<polyline fill="none" stroke="black" points="309.5,-174 434.5,-174 "/>
<text text-anchor="middle" x="372" y="-162" font-family="Helvetica,sans-Serif" font-size="10.00"> </text>
</a>
</g>
</g>
<!-- Node6&#45;&gt;Node1 -->
<g id="edge5" class="edge">
<title>Node6&#45;&gt;Node1</title>
<path fill="none" stroke="#404040" d="M360.26,-154.73C355.81,-142.13 350.6,-127.36 345.53,-113.01"/>
<polygon fill="none" stroke="#404040" points="345.52,-112.96 339.75,-108.63 341.52,-101.65 347.29,-105.97 345.52,-112.96"/>
<text text-anchor="middle" x="371.5" y="-123" font-family="Helvetica,sans-Serif" font-size="10.00"> +outputs</text>
</g>
<!-- Node7&#45;&gt;Node6 -->
<g id="edge6" class="edge">
<title>Node7&#45;&gt;Node6</title>
<path fill="none" stroke="#404040" d="M362.74,-298.15C364.48,-277.78 366.44,-254.96 368.1,-235.56"/>
<polygon fill="none" stroke="#404040" points="368.12,-235.31 364.65,-228.99 369.14,-223.36 372.62,-229.68 368.12,-235.31"/>
<text text-anchor="middle" x="392.5" y="-261" font-family="Helvetica,sans-Serif" font-size="10.00"> +elements</text>
</g>
<!-- Node8 -->
<g id="node8" class="node">
<title>Node8</title>
<g id="a_node8"><a xlink:title=" ">
<polygon fill="white" stroke="black" points="468,-524.5 468,-581.5 552,-581.5 552,-524.5 468,-524.5"/>
<text text-anchor="middle" x="510" y="-569.5" font-family="Helvetica,sans-Serif" font-size="10.00">std::vector&lt; T &gt;</text>
<polyline fill="none" stroke="black" points="468,-562.5 552,-562.5 "/>
<text text-anchor="middle" x="510" y="-550.5" font-family="Helvetica,sans-Serif" font-size="10.00"> </text>
<polyline fill="none" stroke="black" points="468,-543.5 552,-543.5 "/>
<text text-anchor="middle" x="510" y="-531.5" font-family="Helvetica,sans-Serif" font-size="10.00"> </text>
</a>
</g>
</g>
<!-- Node8&#45;&gt;Node6 -->
<g id="edge9" class="edge">
<title>Node8&#45;&gt;Node6</title>
<path fill="none" stroke="orange" d="M494.37,-514.87C482.94,-486.72 467.62,-446.89 457,-411 435.82,-339.45 454.33,-313.77 421,-247 416.86,-238.71 411.25,-230.63 405.3,-223.29"/>
<polygon fill="orange" stroke="orange" points="491.21,-516.39 498.24,-524.31 497.69,-513.73 491.21,-516.39"/>
<text text-anchor="middle" x="511.5" y="-352" font-family="Helvetica,sans-Serif" font-size="10.00"> &lt; altintegration::Output &gt;</text>
</g>
<!-- Node11 -->
<g id="node11" class="node">
<title>Node11</title>
<g id="a_node11"><a xlink:title=" ">
<polygon fill="white" stroke="black" points="574.5,-326 574.5,-383 681.5,-383 681.5,-326 574.5,-326"/>
<text text-anchor="middle" x="628" y="-371" font-family="Helvetica,sans-Serif" font-size="10.00">std::vector&lt; uint8_t &gt;</text>
<polyline fill="none" stroke="black" points="574.5,-364 681.5,-364 "/>
<text text-anchor="start" x="582.5" y="-352" font-family="Helvetica,sans-Serif" font-size="10.00">+ elements</text>
<polyline fill="none" stroke="black" points="574.5,-345 681.5,-345 "/>
<text text-anchor="middle" x="628" y="-333" font-family="Helvetica,sans-Serif" font-size="10.00"> </text>
</a>
</g>
</g>
<!-- Node8&#45;&gt;Node11 -->
<g id="edge13" class="edge">
<title>Node8&#45;&gt;Node11</title>
<path fill="none" stroke="orange" d="M531.94,-515.47C554.96,-477.13 590.65,-417.7 611.43,-383.1"/>
<polygon fill="orange" stroke="orange" points="528.8,-513.89 526.66,-524.26 534.81,-517.49 528.8,-513.89"/>
<text text-anchor="middle" x="607.5" y="-432" font-family="Helvetica,sans-Serif" font-size="10.00"> &lt; uint8_t &gt;</text>
</g>
<!-- Node9 -->
<g id="node9" class="node">
<title>Node9</title>
<g id="a_node9"><a xlink:title=" ">
<polygon fill="white" stroke="#bfbfbf" points="495.5,-695.5 495.5,-752.5 524.5,-752.5 524.5,-695.5 495.5,-695.5"/>
<text text-anchor="middle" x="510" y="-740.5" font-family="Helvetica,sans-Serif" font-size="10.00">T</text>
<polyline fill="none" stroke="#bfbfbf" points="495.5,-733.5 524.5,-733.5 "/>
<text text-anchor="middle" x="510" y="-721.5" font-family="Helvetica,sans-Serif" font-size="10.00"> </text>
<polyline fill="none" stroke="#bfbfbf" points="495.5,-714.5 524.5,-714.5 "/>
<text text-anchor="middle" x="510" y="-702.5" font-family="Helvetica,sans-Serif" font-size="10.00"> </text>
</a>
</g>
</g>
<!-- Node9&#45;&gt;Node8 -->
<g id="edge10" class="edge">
<title>Node9&#45;&gt;Node8</title>
<path fill="none" stroke="#404040" d="M510,-695.47C510,-667.85 510,-625.03 510,-593.73"/>
<polygon fill="none" stroke="#404040" points="510,-593.52 506,-587.52 510,-581.52 514,-587.52 510,-593.52"/>
<text text-anchor="middle" x="534.5" y="-669" font-family="Helvetica,sans-Serif" font-size="10.00"> +elements</text>
</g>
<!-- Node10 -->
<g id="node10" class="node">
<title>Node10</title>
<g id="a_node10"><a xlink:href="structaltintegration_1_1PublicationData.html" target="_top" xlink:title="Publication data about ALT block inside VBK blockchain.">
<polygon fill="white" stroke="black" points="551.5,-149.5 551.5,-228.5 696.5,-228.5 696.5,-149.5 551.5,-149.5"/>
<text text-anchor="middle" x="624" y="-216.5" font-family="Helvetica,sans-Serif" font-size="10.00">altintegration::PublicationData</text>
<polyline fill="none" stroke="black" points="551.5,-209.5 696.5,-209.5 "/>
<text text-anchor="start" x="559.5" y="-197.5" font-family="Helvetica,sans-Serif" font-size="10.00">+ identifier</text>
<polyline fill="none" stroke="black" points="551.5,-190.5 696.5,-190.5 "/>
<text text-anchor="start" x="559.5" y="-178.5" font-family="Helvetica,sans-Serif" font-size="10.00">+ toPrettyString()</text>
<text text-anchor="start" x="559.5" y="-167.5" font-family="Helvetica,sans-Serif" font-size="10.00">+ toVbkEncoding()</text>
<text text-anchor="start" x="559.5" y="-156.5" font-family="Helvetica,sans-Serif" font-size="10.00">+ estimateSize()</text>
</a>
</g>
</g>
<!-- Node10&#45;&gt;Node1 -->
<g id="edge11" class="edge">
<title>Node10&#45;&gt;Node1</title>
<path fill="none" stroke="#404040" d="M552.54,-149.33C533.39,-139.4 512.56,-128.99 493,-120 458.7,-104.24 419.65,-88.4 387.74,-75.97"/>
<polygon fill="none" stroke="#404040" points="387.52,-75.89 380.48,-77.45 376.33,-71.56 383.36,-69.99 387.52,-75.89"/>
<text text-anchor="middle" x="552" y="-123" font-family="Helvetica,sans-Serif" font-size="10.00"> +publicationData</text>
</g>
<!-- Node11&#45;&gt;Node1 -->
<g id="edge14" class="edge">
<title>Node11&#45;&gt;Node1</title>
<path fill="none" stroke="#404040" d="M599.59,-325.89C590.24,-316.92 579.74,-306.96 570,-298 535.94,-266.66 521.75,-264.46 492,-229 465.2,-197.06 470.44,-180.4 443,-149 426.19,-129.77 405.3,-111.35 385.73,-95.82"/>
<polygon fill="none" stroke="#404040" points="385.72,-95.81 378.52,-95.28 376.25,-88.44 383.44,-88.97 385.72,-95.81"/>
<text text-anchor="middle" x="517.5" y="-192" font-family="Helvetica,sans-Serif" font-size="10.00"> +publicKey</text>
<text text-anchor="middle" x="517.5" y="-181" font-family="Helvetica,sans-Serif" font-size="10.00">+signature</text>
</g>
<!-- Node11&#45;&gt;Node10 -->
<g id="edge12" class="edge">
<title>Node11&#45;&gt;Node10</title>
<path fill="none" stroke="#404040" d="M627.32,-325.76C626.75,-302.51 625.93,-268.7 625.24,-240.64"/>
<polygon fill="none" stroke="#404040" points="625.24,-240.61 621.09,-234.71 624.94,-228.62 629.09,-234.52 625.24,-240.61"/>
<text text-anchor="middle" x="654.5" y="-272" font-family="Helvetica,sans-Serif" font-size="10.00"> +contextInfo</text>
<text text-anchor="middle" x="654.5" y="-261" font-family="Helvetica,sans-Serif" font-size="10.00">+header</text>
<text text-anchor="middle" x="654.5" y="-250" font-family="Helvetica,sans-Serif" font-size="10.00">+payoutInfo</text>
</g>
</g>
</svg>
        <g id="navigator" transform="translate(0 0)" fill="#404254">
                <rect fill="#f2f5e9" fill-opacity="0.5" stroke="#606060" stroke-width=".5" x="0" y="0" width="60" height="60"/>
                <use id="zoomplus" xlink:href="#zoomPlus" x="17" y="9" onmousedown="handleZoom(evt,'in')"/>
                <use id="zoomminus" xlink:href="#zoomMin" x="42" y="9" onmousedown="handleZoom(evt,'out')"/>
                <use id="reset" xlink:href="#resetDef" x="30" y="36" onmousedown="handleReset()"/>
                <g id="arrowUp" xlink:href="#dirArrow" transform="translate(30 24)" onmousedown="handlePan(0,-1)">
                  <use xlink:href="#rim" fill="#404040">
                        <set attributeName="fill" to="#808080" begin="arrowUp.mouseover" end="arrowUp.mouseout"/>
                  </use>
                  <path fill="none" stroke="white" stroke-width="1.5" d="M0,-3.0v7 M-2.5,-0.5L0,-3.0L2.5,-0.5"/>
                </g>
                <g id="arrowRight" xlink:href="#dirArrow" transform="rotate(90) translate(36 -43)" onmousedown="handlePan(1,0)">
                  <use xlink:href="#rim" fill="#404040">
                        <set attributeName="fill" to="#808080" begin="arrowRight.mouseover" end="arrowRight.mouseout"/>
                  </use>
                  <path fill="none" stroke="white" stroke-width="1.5" d="M0,-3.0v7 M-2.5,-0.5L0,-3.0L2.5,-0.5"/>
                </g>
                <g id="arrowDown" xlink:href="#dirArrow" transform="rotate(180) translate(-30 -48)" onmousedown="handlePan(0,1)">
                  <use xlink:href="#rim" fill="#404040">
                        <set attributeName="fill" to="#808080" begin="arrowDown.mouseover" end="arrowDown.mouseout"/>
                  </use>
                  <path fill="none" stroke="white" stroke-width="1.5" d="M0,-3.0v7 M-2.5,-0.5L0,-3.0L2.5,-0.5"/>
                </g>
                <g id="arrowLeft" xlink:href="#dirArrow" transform="rotate(270) translate(-36 17)" onmousedown="handlePan(-1,0)">
                  <use xlink:href="#rim" fill="#404040">
                        <set attributeName="fill" to="#808080" begin="arrowLeft.mouseover" end="arrowLeft.mouseout"/>
                  </use>
                  <path fill="none" stroke="white" stroke-width="1.5" d="M0,-3.0v7 M-2.5,-0.5L0,-3.0L2.5,-0.5"/>
                </g>
        </g>
        <svg viewBox="0 0 15 15" width="100%" height="30px" preserveAspectRatio="xMaxYMin meet">
         <g id="arrow_out" transform="scale(0.3 0.3)">
          <a xlink:href="structaltintegration_1_1VbkTx__coll__graph_org.svg" target="_base">
           <rect id="button" ry="5" rx="5" y="6" x="6" height="38" width="38"
                fill="#f2f5e9" fill-opacity="0.5" stroke="#606060" stroke-width="1.0"/>
           <path id="arrow"
             d="M 11.500037,31.436501 C 11.940474,20.09759 22.043105,11.32322 32.158766,21.979434 L 37.068811,17.246167 C 37.068811,17.246167 37.088388,32 37.088388,32 L 22.160133,31.978069 C 22.160133,31.978069 26.997745,27.140456 26.997745,27.140456 C 18.528582,18.264221 13.291696,25.230495 11.500037,31.436501 z"
             style="fill:#404040;"/>
          </a>
         </g>
        </svg>
</svg>
