<?xml version="1.0" encoding="UTF-8" standalone="no"?>
<!DOCTYPE svg PUBLIC "-//W3C//DTD SVG 1.1//EN"
 "http://www.w3.org/Graphics/SVG/1.1/DTD/svg11.dtd">
<!-- Generated by graphviz version 3.0.0 (20220413.0106)
 -->
<!-- Title: altintegration::MempoolResult Pages: 1 -->
<svg width="198pt" height="447pt"
 viewBox="0.00 0.00 197.50 447.00" xmlns="http://www.w3.org/2000/svg" xmlns:xlink="http://www.w3.org/1999/xlink">
<g id="graph0" class="graph" transform="scale(1 1) rotate(0) translate(4 443)">
<title>altintegration::MempoolResult</title>
<polygon fill="white" stroke="transparent" points="-4,4 -4,-443 193.5,-443 193.5,4 -4,4"/>
<!-- Node1 -->
<g id="node1" class="node">
<title>Node1</title>
<g id="a_node1"><a xlink:title="An entity which is returned from MemPool on call to submitAll.">
<polygon fill="#bfbfbf" stroke="black" points="8.5,-0.5 8.5,-57.5 152.5,-57.5 152.5,-0.5 8.5,-0.5"/>
<text text-anchor="middle" x="80.5" y="-45.5" font-family="Helvetica,sans-Serif" font-size="10.00">altintegration::MempoolResult</text>
<polyline fill="none" stroke="black" points="8.5,-38.5 152.5,-38.5 "/>
<text text-anchor="middle" x="80.5" y="-26.5" font-family="Helvetica,sans-Serif" font-size="10.00"> </text>
<polyline fill="none" stroke="black" points="8.5,-19.5 152.5,-19.5 "/>
<text text-anchor="middle" x="80.5" y="-7.5" font-family="Helvetica,sans-Serif" font-size="10.00"> </text>
</a>
</g>
</g>
<!-- Node2 -->
<g id="node2" class="node">
<title>Node2</title>
<g id="a_node2"><a xlink:title=" ">
<polygon fill="white" stroke="black" points="0,-127.5 0,-206.5 161,-206.5 161,-127.5 0,-127.5"/>
<text text-anchor="start" x="8" y="-194.5" font-family="Helvetica,sans-Serif" font-size="10.00">std::vector&lt; std::pair</text>
<text text-anchor="start" x="8" y="-183.5" font-family="Helvetica,sans-Serif" font-size="10.00">&lt; altintegration::Blob,</text>
<text text-anchor="middle" x="80.5" y="-172.5" font-family="Helvetica,sans-Serif" font-size="10.00"> altintegration::ValidationState &gt; &gt;</text>
<polyline fill="none" stroke="black" points="0,-165.5 161,-165.5 "/>
<text text-anchor="start" x="8" y="-153.5" font-family="Helvetica,sans-Serif" font-size="10.00">+ elements</text>
<polyline fill="none" stroke="black" points="0,-146.5 161,-146.5 "/>
<text text-anchor="middle" x="80.5" y="-134.5" font-family="Helvetica,sans-Serif" font-size="10.00"> </text>
</a>
</g>
</g>
<!-- Node2&#45;&gt;Node1 -->
<g id="edge1" class="edge">
<title>Node2&#45;&gt;Node1</title>
<path fill="none" stroke="#404040" d="M80.5,-127.39C80.5,-109.48 80.5,-88.21 80.5,-70.12"/>
<polygon fill="none" stroke="#404040" points="80.5,-69.9 76.5,-63.9 80.5,-57.9 84.5,-63.9 80.5,-69.9"/>
<text text-anchor="middle" x="99.5" y="-101" font-family="Helvetica,sans-Serif" font-size="10.00"> +atvs</text>
<text text-anchor="middle" x="99.5" y="-90" font-family="Helvetica,sans-Serif" font-size="10.00">+context</text>
<text text-anchor="middle" x="99.5" y="-79" font-family="Helvetica,sans-Serif" font-size="10.00">+vtbs</text>
</g>
<!-- Node3 -->
<g id="node3" class="node">
<title>Node3</title>
<g id="a_node3"><a xlink:title=" ">
<polygon fill="white" stroke="black" points="38.5,-276.5 38.5,-333.5 122.5,-333.5 122.5,-276.5 38.5,-276.5"/>
<text text-anchor="middle" x="80.5" y="-321.5" font-family="Helvetica,sans-Serif" font-size="10.00">std::vector&lt; T &gt;</text>
<polyline fill="none" stroke="black" points="38.5,-314.5 122.5,-314.5 "/>
<text text-anchor="middle" x="80.5" y="-302.5" font-family="Helvetica,sans-Serif" font-size="10.00"> </text>
<polyline fill="none" stroke="black" points="38.5,-295.5 122.5,-295.5 "/>
<text text-anchor="middle" x="80.5" y="-283.5" font-family="Helvetica,sans-Serif" font-size="10.00"> </text>
</a>
</g>
</g>
<!-- Node3&#45;&gt;Node2 -->
<g id="edge2" class="edge">
<title>Node3&#45;&gt;Node2</title>
<path fill="none" stroke="orange" d="M80.5,-266.3C80.5,-247.69 80.5,-225.28 80.5,-206.56"/>
<polygon fill="orange" stroke="orange" points="77,-266.48 80.5,-276.48 84,-266.48 77,-266.48"/>
<text text-anchor="start" x="80.5" y="-250" font-family="Helvetica,sans-Serif" font-size="10.00"> &lt; std::pair&lt; altintegration</text>
<text text-anchor="start" x="80.5" y="-239" font-family="Helvetica,sans-Serif" font-size="10.00">::Blob, altintegration::</text>
<text text-anchor="middle" x="135" y="-228" font-family="Helvetica,sans-Serif" font-size="10.00">ValidationState &gt; &gt;</text>
</g>
<!-- Node4 -->
<g id="node4" class="node">
<title>Node4</title>
<g id="a_node4"><a xlink:title=" ">
<polygon fill="white" stroke="#bfbfbf" points="66,-381.5 66,-438.5 95,-438.5 95,-381.5 66,-381.5"/>
<text text-anchor="middle" x="80.5" y="-426.5" font-family="Helvetica,sans-Serif" font-size="10.00">T</text>
<polyline fill="none" stroke="#bfbfbf" points="66,-419.5 95,-419.5 "/>
<text text-anchor="middle" x="80.5" y="-407.5" font-family="Helvetica,sans-Serif" font-size="10.00"> </text>
<polyline fill="none" stroke="#bfbfbf" points="66,-400.5 95,-400.5 "/>
<text text-anchor="middle" x="80.5" y="-388.5" font-family="Helvetica,sans-Serif" font-size="10.00"> </text>
</a>
</g>
</g>
<!-- Node4&#45;&gt;Node3 -->
<g id="edge3" class="edge">
<title>Node4&#45;&gt;Node3</title>
<path fill="none" stroke="#404040" d="M80.5,-381.4C80.5,-370.55 80.5,-357.87 80.5,-346.05"/>
<polygon fill="none" stroke="#404040" points="80.5,-345.68 76.5,-339.68 80.5,-333.68 84.5,-339.68 80.5,-345.68"/>
<text text-anchor="middle" x="105" y="-355" font-family="Helvetica,sans-Serif" font-size="10.00"> +elements</text>
</g>
</g>
</svg>
