<?xml version="1.0" encoding="UTF-8" standalone="no"?>
<!DOCTYPE svg PUBLIC "-//W3C//DTD SVG 1.1//EN"
 "http://www.w3.org/Graphics/SVG/1.1/DTD/svg11.dtd">
<!-- Generated by graphviz version 2.44.0 ()
 -->
<!-- Title: altintegration::VbkBlockTree Pages: 1 -->
<svg width="847pt" height="1926pt"
 viewBox="0.00 0.00 847.00 1926.00" xmlns="http://www.w3.org/2000/svg" xmlns:xlink="http://www.w3.org/1999/xlink">
<g id="graph0" class="graph" transform="scale(1 1) rotate(0) translate(4 1922)">
<title>altintegration::VbkBlockTree</title>
<polygon fill="white" stroke="transparent" points="-4,4 -4,-1922 843,-1922 843,4 -4,4"/>
<!-- Node1 -->
<g id="node1" class="node">
<title>Node1</title>
<g id="a_node1"><a xlink:title="Veriblock block tree.">
<polygon fill="#bfbfbf" stroke="black" points="163.5,-0.5 163.5,-167.5 301.5,-167.5 301.5,-0.5 163.5,-0.5"/>
<text text-anchor="middle" x="232.5" y="-155.5" font-family="Helvetica,sans-Serif" font-size="10.00">altintegration::VbkBlockTree</text>
<polyline fill="none" stroke="black" points="163.5,-148.5 301.5,-148.5 "/>
<text text-anchor="middle" x="232.5" y="-136.5" font-family="Helvetica,sans-Serif" font-size="10.00"> </text>
<polyline fill="none" stroke="black" points="163.5,-129.5 301.5,-129.5 "/>
<text text-anchor="start" x="171.5" y="-117.5" font-family="Helvetica,sans-Serif" font-size="10.00">+ ~VbkBlockTree()</text>
<text text-anchor="start" x="171.5" y="-106.5" font-family="Helvetica,sans-Serif" font-size="10.00">+ VbkBlockTree()</text>
<text text-anchor="start" x="171.5" y="-95.5" font-family="Helvetica,sans-Serif" font-size="10.00">+ loadBlock()</text>
<text text-anchor="start" x="171.5" y="-84.5" font-family="Helvetica,sans-Serif" font-size="10.00">+ btc()</text>
<text text-anchor="start" x="171.5" y="-73.5" font-family="Helvetica,sans-Serif" font-size="10.00">+ btc()</text>
<text text-anchor="start" x="171.5" y="-62.5" font-family="Helvetica,sans-Serif" font-size="10.00">+ getComparator()</text>
<text text-anchor="start" x="171.5" y="-51.5" font-family="Helvetica,sans-Serif" font-size="10.00">+ getComparator()</text>
<text text-anchor="start" x="171.5" y="-40.5" font-family="Helvetica,sans-Serif" font-size="10.00">+ getPayloadsIndex()</text>
<text text-anchor="start" x="171.5" y="-29.5" font-family="Helvetica,sans-Serif" font-size="10.00">+ loadTip()</text>
<text text-anchor="start" x="171.5" y="-18.5" font-family="Helvetica,sans-Serif" font-size="10.00">+ addPayloads()</text>
<text text-anchor="start" x="171.5" y="-7.5" font-family="Helvetica,sans-Serif" font-size="10.00">and 13 more...</text>
</a>
</g>
</g>
<!-- Node2 -->
<g id="node2" class="node">
<title>Node2</title>
<g id="a_node2"><a xlink:href="structaltintegration_1_1BlockTree.html" target="_top" xlink:title=" ">
<polygon fill="white" stroke="black" points="154.5,-205.5 154.5,-460.5 310.5,-460.5 310.5,-205.5 154.5,-205.5"/>
<text text-anchor="start" x="162.5" y="-448.5" font-family="Helvetica,sans-Serif" font-size="10.00">altintegration::BlockTree</text>
<text text-anchor="middle" x="232.5" y="-437.5" font-family="Helvetica,sans-Serif" font-size="10.00">&lt; VbkBlock, VbkChainParams &gt;</text>
<polyline fill="none" stroke="black" points="154.5,-430.5 310.5,-430.5 "/>
<text text-anchor="start" x="162.5" y="-418.5" font-family="Helvetica,sans-Serif" font-size="10.00"># param_</text>
<polyline fill="none" stroke="black" points="154.5,-411.5 310.5,-411.5 "/>
<text text-anchor="start" x="162.5" y="-399.5" font-family="Helvetica,sans-Serif" font-size="10.00">+ ~BlockTree()</text>
<text text-anchor="start" x="162.5" y="-388.5" font-family="Helvetica,sans-Serif" font-size="10.00">+ BlockTree()</text>
<text text-anchor="start" x="162.5" y="-377.5" font-family="Helvetica,sans-Serif" font-size="10.00">+ getParams()</text>
<text text-anchor="start" x="162.5" y="-366.5" font-family="Helvetica,sans-Serif" font-size="10.00">+ bootstrapWithGenesis()</text>
<text text-anchor="start" x="162.5" y="-355.5" font-family="Helvetica,sans-Serif" font-size="10.00">+ bootstrapWithChain()</text>
<text text-anchor="start" x="162.5" y="-344.5" font-family="Helvetica,sans-Serif" font-size="10.00">+ acceptBlockHeader()</text>
<text text-anchor="start" x="162.5" y="-333.5" font-family="Helvetica,sans-Serif" font-size="10.00">+ acceptBlockHeader()</text>
<text text-anchor="start" x="162.5" y="-322.5" font-family="Helvetica,sans-Serif" font-size="10.00">+ toPrettyString()</text>
<text text-anchor="start" x="162.5" y="-311.5" font-family="Helvetica,sans-Serif" font-size="10.00">+ loadBlock()</text>
<text text-anchor="start" x="162.5" y="-300.5" font-family="Helvetica,sans-Serif" font-size="10.00">+ isBlockOld()</text>
<text text-anchor="start" x="162.5" y="-289.5" font-family="Helvetica,sans-Serif" font-size="10.00">+ isBlockOld()</text>
<text text-anchor="start" x="162.5" y="-278.5" font-family="Helvetica,sans-Serif" font-size="10.00">+ finalizeBlock()</text>
<text text-anchor="start" x="162.5" y="-267.5" font-family="Helvetica,sans-Serif" font-size="10.00"># acceptBlockHeaderImpl()</text>
<text text-anchor="start" x="162.5" y="-256.5" font-family="Helvetica,sans-Serif" font-size="10.00"># bootstrap()</text>
<text text-anchor="start" x="162.5" y="-245.5" font-family="Helvetica,sans-Serif" font-size="10.00"># bootstrap()</text>
<text text-anchor="start" x="162.5" y="-234.5" font-family="Helvetica,sans-Serif" font-size="10.00"># validateAndAddBlock()</text>
<text text-anchor="start" x="162.5" y="-223.5" font-family="Helvetica,sans-Serif" font-size="10.00"># determineBestChain()</text>
<text text-anchor="start" x="162.5" y="-212.5" font-family="Helvetica,sans-Serif" font-size="10.00"># onBlockInserted()</text>
</a>
</g>
</g>
<!-- Node2&#45;&gt;Node1 -->
<g id="edge1" class="edge">
<title>Node2&#45;&gt;Node1</title>
<path fill="none" stroke="midnightblue" d="M232.5,-195.07C232.5,-185.72 232.5,-176.48 232.5,-167.56"/>
<polygon fill="none" stroke="midnightblue" points="229,-195.24 232.5,-205.24 236,-195.24 229,-195.24"/>
</g>
<!-- Node3 -->
<g id="node3" class="node">
<title>Node3</title>
<g id="a_node3"><a xlink:href="structaltintegration_1_1BaseBlockTree.html" target="_top" xlink:title="Base block tree that stores all blocks, maintains tree tips, maintains active chain.">
<polygon fill="white" stroke="black" points="166.5,-801.5 166.5,-1012.5 290.5,-1012.5 290.5,-801.5 166.5,-801.5"/>
<text text-anchor="start" x="174.5" y="-1000.5" font-family="Helvetica,sans-Serif" font-size="10.00">altintegration::BaseBlock</text>
<text text-anchor="middle" x="228.5" y="-989.5" font-family="Helvetica,sans-Serif" font-size="10.00">Tree&lt; Block &gt;</text>
<polyline fill="none" stroke="black" points="166.5,-982.5 290.5,-982.5 "/>
<text text-anchor="start" x="174.5" y="-970.5" font-family="Helvetica,sans-Serif" font-size="10.00"># validity_sig_</text>
<polyline fill="none" stroke="black" points="166.5,-963.5 290.5,-963.5 "/>
<text text-anchor="start" x="174.5" y="-951.5" font-family="Helvetica,sans-Serif" font-size="10.00">+ getTips()</text>
<text text-anchor="start" x="174.5" y="-940.5" font-family="Helvetica,sans-Serif" font-size="10.00">+ getBlocks()</text>
<text text-anchor="start" x="174.5" y="-929.5" font-family="Helvetica,sans-Serif" font-size="10.00">+ ~BaseBlockTree()</text>
<text text-anchor="start" x="174.5" y="-918.5" font-family="Helvetica,sans-Serif" font-size="10.00">+ BaseBlockTree()</text>
<text text-anchor="start" x="174.5" y="-907.5" font-family="Helvetica,sans-Serif" font-size="10.00">+ BaseBlockTree()</text>
<text text-anchor="start" x="174.5" y="-896.5" font-family="Helvetica,sans-Serif" font-size="10.00">+ operator=()</text>
<text text-anchor="start" x="174.5" y="-885.5" font-family="Helvetica,sans-Serif" font-size="10.00">+ BaseBlockTree()</text>
<text text-anchor="start" x="174.5" y="-874.5" font-family="Helvetica,sans-Serif" font-size="10.00">+ operator=()</text>
<text text-anchor="start" x="174.5" y="-863.5" font-family="Helvetica,sans-Serif" font-size="10.00">+ getBestChain()</text>
<text text-anchor="start" x="174.5" y="-852.5" font-family="Helvetica,sans-Serif" font-size="10.00">+ makePrevHash()</text>
<text text-anchor="start" x="174.5" y="-841.5" font-family="Helvetica,sans-Serif" font-size="10.00">and 22 more...</text>
<text text-anchor="start" x="174.5" y="-830.5" font-family="Helvetica,sans-Serif" font-size="10.00"># eraseBlock()</text>
<text text-anchor="start" x="174.5" y="-819.5" font-family="Helvetica,sans-Serif" font-size="10.00"># toPrettyString()</text>
<text text-anchor="start" x="174.5" y="-808.5" font-family="Helvetica,sans-Serif" font-size="10.00"># finalizeBlockImpl()</text>
</a>
</g>
</g>
<!-- Node3&#45;&gt;Node2 -->
<g id="edge2" class="edge">
<title>Node3&#45;&gt;Node2</title>
<path fill="none" stroke="midnightblue" d="M229.3,-791.42C229.97,-695.74 230.92,-559.51 231.61,-460.62"/>
<polygon fill="none" stroke="midnightblue" points="225.8,-791.39 229.23,-801.42 232.8,-791.44 225.8,-791.39"/>
</g>
<!-- Node20 -->
<g id="node20" class="node">
<title>Node20</title>
<g id="a_node20"><a xlink:href="structaltintegration_1_1BlockTree.html" target="_top" xlink:title="BlockTree is a tree of blocks with single &quot;bootstrap&quot; block as root.">
<polygon fill="white" stroke="black" points="244.5,-508.5 244.5,-763.5 378.5,-763.5 378.5,-508.5 244.5,-508.5"/>
<text text-anchor="start" x="252.5" y="-751.5" font-family="Helvetica,sans-Serif" font-size="10.00">altintegration::BlockTree</text>
<text text-anchor="middle" x="311.5" y="-740.5" font-family="Helvetica,sans-Serif" font-size="10.00">&lt; Block, ChainParams &gt;</text>
<polyline fill="none" stroke="black" points="244.5,-733.5 378.5,-733.5 "/>
<text text-anchor="start" x="252.5" y="-721.5" font-family="Helvetica,sans-Serif" font-size="10.00"># param_</text>
<polyline fill="none" stroke="black" points="244.5,-714.5 378.5,-714.5 "/>
<text text-anchor="start" x="252.5" y="-702.5" font-family="Helvetica,sans-Serif" font-size="10.00">+ ~BlockTree()</text>
<text text-anchor="start" x="252.5" y="-691.5" font-family="Helvetica,sans-Serif" font-size="10.00">+ BlockTree()</text>
<text text-anchor="start" x="252.5" y="-680.5" font-family="Helvetica,sans-Serif" font-size="10.00">+ getParams()</text>
<text text-anchor="start" x="252.5" y="-669.5" font-family="Helvetica,sans-Serif" font-size="10.00">+ bootstrapWithGenesis()</text>
<text text-anchor="start" x="252.5" y="-658.5" font-family="Helvetica,sans-Serif" font-size="10.00">+ bootstrapWithChain()</text>
<text text-anchor="start" x="252.5" y="-647.5" font-family="Helvetica,sans-Serif" font-size="10.00">+ acceptBlockHeader()</text>
<text text-anchor="start" x="252.5" y="-636.5" font-family="Helvetica,sans-Serif" font-size="10.00">+ acceptBlockHeader()</text>
<text text-anchor="start" x="252.5" y="-625.5" font-family="Helvetica,sans-Serif" font-size="10.00">+ toPrettyString()</text>
<text text-anchor="start" x="252.5" y="-614.5" font-family="Helvetica,sans-Serif" font-size="10.00">+ loadBlock()</text>
<text text-anchor="start" x="252.5" y="-603.5" font-family="Helvetica,sans-Serif" font-size="10.00">+ isBlockOld()</text>
<text text-anchor="start" x="252.5" y="-592.5" font-family="Helvetica,sans-Serif" font-size="10.00">+ isBlockOld()</text>
<text text-anchor="start" x="252.5" y="-581.5" font-family="Helvetica,sans-Serif" font-size="10.00">+ finalizeBlock()</text>
<text text-anchor="start" x="252.5" y="-570.5" font-family="Helvetica,sans-Serif" font-size="10.00"># acceptBlockHeaderImpl()</text>
<text text-anchor="start" x="252.5" y="-559.5" font-family="Helvetica,sans-Serif" font-size="10.00"># bootstrap()</text>
<text text-anchor="start" x="252.5" y="-548.5" font-family="Helvetica,sans-Serif" font-size="10.00"># bootstrap()</text>
<text text-anchor="start" x="252.5" y="-537.5" font-family="Helvetica,sans-Serif" font-size="10.00"># validateAndAddBlock()</text>
<text text-anchor="start" x="252.5" y="-526.5" font-family="Helvetica,sans-Serif" font-size="10.00"># determineBestChain()</text>
<text text-anchor="start" x="252.5" y="-515.5" font-family="Helvetica,sans-Serif" font-size="10.00"># onBlockInserted()</text>
</a>
</g>
</g>
<!-- Node3&#45;&gt;Node20 -->
<g id="edge26" class="edge">
<title>Node3&#45;&gt;Node20</title>
<path fill="none" stroke="midnightblue" d="M263.86,-791.41C266.67,-782.3 269.51,-773.07 272.35,-763.89"/>
<polygon fill="none" stroke="midnightblue" points="260.43,-790.64 260.83,-801.23 267.12,-792.7 260.43,-790.64"/>
</g>
<!-- Node4 -->
<g id="node4" class="node">
<title>Node4</title>
<g id="a_node4"><a xlink:href="structaltintegration_1_1Chain.html" target="_top" xlink:title=" ">
<polygon fill="white" stroke="black" points="0,-1060.5 0,-1238.5 141,-1238.5 141,-1060.5 0,-1060.5"/>
<text text-anchor="start" x="8" y="-1226.5" font-family="Helvetica,sans-Serif" font-size="10.00">altintegration::Chain</text>
<text text-anchor="middle" x="70.5" y="-1215.5" font-family="Helvetica,sans-Serif" font-size="10.00">&lt; altintegration::BlockIndex &gt;</text>
<polyline fill="none" stroke="black" points="0,-1208.5 141,-1208.5 "/>
<text text-anchor="middle" x="70.5" y="-1196.5" font-family="Helvetica,sans-Serif" font-size="10.00"> </text>
<polyline fill="none" stroke="black" points="0,-1189.5 141,-1189.5 "/>
<text text-anchor="start" x="8" y="-1177.5" font-family="Helvetica,sans-Serif" font-size="10.00">+ Chain()</text>
<text text-anchor="start" x="8" y="-1166.5" font-family="Helvetica,sans-Serif" font-size="10.00">+ Chain()</text>
<text text-anchor="start" x="8" y="-1155.5" font-family="Helvetica,sans-Serif" font-size="10.00">+ Chain()</text>
<text text-anchor="start" x="8" y="-1144.5" font-family="Helvetica,sans-Serif" font-size="10.00">+ getStartHeight()</text>
<text text-anchor="start" x="8" y="-1133.5" font-family="Helvetica,sans-Serif" font-size="10.00">+ firstHeight()</text>
<text text-anchor="start" x="8" y="-1122.5" font-family="Helvetica,sans-Serif" font-size="10.00">+ contains()</text>
<text text-anchor="start" x="8" y="-1111.5" font-family="Helvetica,sans-Serif" font-size="10.00">+ operator[]()</text>
<text text-anchor="start" x="8" y="-1100.5" font-family="Helvetica,sans-Serif" font-size="10.00">+ next()</text>
<text text-anchor="start" x="8" y="-1089.5" font-family="Helvetica,sans-Serif" font-size="10.00">+ chainHeight()</text>
<text text-anchor="start" x="8" y="-1078.5" font-family="Helvetica,sans-Serif" font-size="10.00">+ empty()</text>
<text text-anchor="start" x="8" y="-1067.5" font-family="Helvetica,sans-Serif" font-size="10.00">and 14 more...</text>
</a>
</g>
</g>
<!-- Node4&#45;&gt;Node3 -->
<g id="edge3" class="edge">
<title>Node4&#45;&gt;Node3</title>
<path fill="none" stroke="#404040" d="M128.44,-1060.31C138.55,-1044.92 149.16,-1028.76 159.54,-1012.97"/>
<polygon fill="none" stroke="#404040" points="159.73,-1012.68 159.68,-1005.47 166.32,-1002.65 166.37,-1009.86 159.73,-1012.68"/>
<text text-anchor="middle" x="177.5" y="-1034" font-family="Helvetica,sans-Serif" font-size="10.00"> #activeChain_</text>
</g>
<!-- Node5 -->
<g id="node5" class="node">
<title>Node5</title>
<g id="a_node5"><a xlink:href="structaltintegration_1_1Chain.html" target="_top" xlink:title="Fully in&#45;memory chain representation.">
<polygon fill="white" stroke="black" points="19,-1314 19,-1492 120,-1492 120,-1314 19,-1314"/>
<text text-anchor="start" x="27" y="-1480" font-family="Helvetica,sans-Serif" font-size="10.00">altintegration::Chain</text>
<text text-anchor="middle" x="69.5" y="-1469" font-family="Helvetica,sans-Serif" font-size="10.00">&lt; BlockIndexT &gt;</text>
<polyline fill="none" stroke="black" points="19,-1462 120,-1462 "/>
<text text-anchor="middle" x="69.5" y="-1450" font-family="Helvetica,sans-Serif" font-size="10.00"> </text>
<polyline fill="none" stroke="black" points="19,-1443 120,-1443 "/>
<text text-anchor="start" x="27" y="-1431" font-family="Helvetica,sans-Serif" font-size="10.00">+ Chain()</text>
<text text-anchor="start" x="27" y="-1420" font-family="Helvetica,sans-Serif" font-size="10.00">+ Chain()</text>
<text text-anchor="start" x="27" y="-1409" font-family="Helvetica,sans-Serif" font-size="10.00">+ Chain()</text>
<text text-anchor="start" x="27" y="-1398" font-family="Helvetica,sans-Serif" font-size="10.00">+ getStartHeight()</text>
<text text-anchor="start" x="27" y="-1387" font-family="Helvetica,sans-Serif" font-size="10.00">+ firstHeight()</text>
<text text-anchor="start" x="27" y="-1376" font-family="Helvetica,sans-Serif" font-size="10.00">+ contains()</text>
<text text-anchor="start" x="27" y="-1365" font-family="Helvetica,sans-Serif" font-size="10.00">+ operator[]()</text>
<text text-anchor="start" x="27" y="-1354" font-family="Helvetica,sans-Serif" font-size="10.00">+ next()</text>
<text text-anchor="start" x="27" y="-1343" font-family="Helvetica,sans-Serif" font-size="10.00">+ chainHeight()</text>
<text text-anchor="start" x="27" y="-1332" font-family="Helvetica,sans-Serif" font-size="10.00">+ empty()</text>
<text text-anchor="start" x="27" y="-1321" font-family="Helvetica,sans-Serif" font-size="10.00">and 14 more...</text>
</a>
</g>
</g>
<!-- Node5&#45;&gt;Node4 -->
<g id="edge4" class="edge">
<title>Node5&#45;&gt;Node4</title>
<path fill="none" stroke="orange" d="M69.89,-1303.59C69.98,-1282.16 70.07,-1259.61 70.15,-1238.6"/>
<polygon fill="orange" stroke="orange" points="66.39,-1303.67 69.85,-1313.68 73.39,-1303.7 66.39,-1303.67"/>
<text text-anchor="middle" x="134" y="-1265.5" font-family="Helvetica,sans-Serif" font-size="10.00"> &lt; altintegration::BlockIndex &gt;</text>
</g>
<!-- Node6 -->
<g id="node6" class="node">
<title>Node6</title>
<g id="a_node6"><a xlink:title=" ">
<polygon fill="white" stroke="#bfbfbf" points="160,-1110 160,-1189 297,-1189 297,-1110 160,-1110"/>
<text text-anchor="start" x="168" y="-1177" font-family="Helvetica,sans-Serif" font-size="10.00">std::unordered_map</text>
<text text-anchor="start" x="168" y="-1166" font-family="Helvetica,sans-Serif" font-size="10.00">&lt; prev_block_hash_t,</text>
<text text-anchor="middle" x="228.5" y="-1155" font-family="Helvetica,sans-Serif" font-size="10.00"> std::unique_ptr&lt; index_t &gt; &gt;</text>
<polyline fill="none" stroke="#bfbfbf" points="160,-1148 297,-1148 "/>
<text text-anchor="start" x="168" y="-1136" font-family="Helvetica,sans-Serif" font-size="10.00">+ keys</text>
<polyline fill="none" stroke="#bfbfbf" points="160,-1129 297,-1129 "/>
<text text-anchor="middle" x="228.5" y="-1117" font-family="Helvetica,sans-Serif" font-size="10.00"> </text>
</a>
</g>
</g>
<!-- Node6&#45;&gt;Node3 -->
<g id="edge5" class="edge">
<title>Node6&#45;&gt;Node3</title>
<path fill="none" stroke="#404040" d="M228.5,-1109.86C228.5,-1086.59 228.5,-1055.6 228.5,-1024.91"/>
<polygon fill="none" stroke="#404040" points="228.5,-1024.72 224.5,-1018.72 228.5,-1012.72 232.5,-1018.72 228.5,-1024.72"/>
<text text-anchor="middle" x="249.5" y="-1034" font-family="Helvetica,sans-Serif" font-size="10.00"> #blocks_</text>
</g>
<!-- Node7 -->
<g id="node7" class="node">
<title>Node7</title>
<g id="a_node7"><a xlink:title=" ">
<polygon fill="white" stroke="#bfbfbf" points="168,-1527.5 168,-1584.5 295,-1584.5 295,-1527.5 168,-1527.5"/>
<text text-anchor="middle" x="231.5" y="-1572.5" font-family="Helvetica,sans-Serif" font-size="10.00">std::unique_ptr&lt; index_t &gt;</text>
<polyline fill="none" stroke="#bfbfbf" points="168,-1565.5 295,-1565.5 "/>
<text text-anchor="start" x="176" y="-1553.5" font-family="Helvetica,sans-Serif" font-size="10.00">+ ptr</text>
<polyline fill="none" stroke="#bfbfbf" points="168,-1546.5 295,-1546.5 "/>
<text text-anchor="start" x="176" y="-1534.5" font-family="Helvetica,sans-Serif" font-size="10.00">+ operator&#45;&gt;()</text>
</a>
</g>
</g>
<!-- Node7&#45;&gt;Node6 -->
<g id="edge6" class="edge">
<title>Node7&#45;&gt;Node6</title>
<path fill="none" stroke="#404040" d="M223.8,-1527.46C222.43,-1521.42 221.21,-1515.03 220.5,-1509 207.65,-1400.01 216.29,-1271.14 222.92,-1201.44"/>
<polygon fill="none" stroke="#404040" points="222.95,-1201.07 219.56,-1194.71 224.13,-1189.13 227.52,-1195.49 222.95,-1201.07"/>
<text text-anchor="middle" x="245" y="-1400.5" font-family="Helvetica,sans-Serif" font-size="10.00"> +elements</text>
</g>
<!-- Node8 -->
<g id="node8" class="node">
<title>Node8</title>
<g id="a_node8"><a xlink:title=" ">
<polygon fill="white" stroke="#bfbfbf" points="197.5,-1679.5 197.5,-1736.5 299.5,-1736.5 299.5,-1679.5 197.5,-1679.5"/>
<text text-anchor="middle" x="248.5" y="-1724.5" font-family="Helvetica,sans-Serif" font-size="10.00">std::unique_ptr&lt; T &gt;</text>
<polyline fill="none" stroke="#bfbfbf" points="197.5,-1717.5 299.5,-1717.5 "/>
<text text-anchor="middle" x="248.5" y="-1705.5" font-family="Helvetica,sans-Serif" font-size="10.00"> </text>
<polyline fill="none" stroke="#bfbfbf" points="197.5,-1698.5 299.5,-1698.5 "/>
<text text-anchor="start" x="205.5" y="-1686.5" font-family="Helvetica,sans-Serif" font-size="10.00">+ operator&#45;&gt;()</text>
</a>
</g>
</g>
<!-- Node8&#45;&gt;Node7 -->
<g id="edge7" class="edge">
<title>Node8&#45;&gt;Node7</title>
<path fill="none" stroke="orange" d="M244.25,-1669.47C241.26,-1643.11 237.33,-1608.43 234.63,-1584.59"/>
<polygon fill="orange" stroke="orange" points="240.78,-1669.95 245.38,-1679.49 247.73,-1669.16 240.78,-1669.95"/>
<text text-anchor="middle" x="268.5" y="-1629.5" font-family="Helvetica,sans-Serif" font-size="10.00"> &lt; index_t &gt;</text>
</g>
<!-- Node9 -->
<g id="node9" class="node">
<title>Node9</title>
<g id="a_node9"><a xlink:title=" ">
<polygon fill="white" stroke="#bfbfbf" points="315,-1860.5 315,-1917.5 344,-1917.5 344,-1860.5 315,-1860.5"/>
<text text-anchor="middle" x="329.5" y="-1905.5" font-family="Helvetica,sans-Serif" font-size="10.00">T</text>
<polyline fill="none" stroke="#bfbfbf" points="315,-1898.5 344,-1898.5 "/>
<text text-anchor="middle" x="329.5" y="-1886.5" font-family="Helvetica,sans-Serif" font-size="10.00"> </text>
<polyline fill="none" stroke="#bfbfbf" points="315,-1879.5 344,-1879.5 "/>
<text text-anchor="middle" x="329.5" y="-1867.5" font-family="Helvetica,sans-Serif" font-size="10.00"> </text>
</a>
</g>
</g>
<!-- Node9&#45;&gt;Node8 -->
<g id="edge8" class="edge">
<title>Node9&#45;&gt;Node8</title>
<path fill="none" stroke="#404040" d="M314.96,-1870.9C308.39,-1862.57 300.9,-1852.17 295.5,-1842 279.62,-1812.08 267.18,-1775.67 259.09,-1748.51"/>
<polygon fill="none" stroke="#404040" points="259.02,-1748.27 253.52,-1743.62 255.69,-1736.74 261.2,-1741.39 259.02,-1748.27"/>
<text text-anchor="middle" x="305.5" y="-1834" font-family="Helvetica,sans-Serif" font-size="10.00"> +ptr</text>
</g>
<!-- Node10 -->
<g id="node10" class="node">
<title>Node10</title>
<g id="a_node10"><a xlink:title=" ">
<polygon fill="white" stroke="#bfbfbf" points="279,-1369 279,-1437 380,-1437 380,-1369 279,-1369"/>
<text text-anchor="start" x="287" y="-1425" font-family="Helvetica,sans-Serif" font-size="10.00">std::unordered_map</text>
<text text-anchor="middle" x="329.5" y="-1414" font-family="Helvetica,sans-Serif" font-size="10.00">&lt; K, T &gt;</text>
<polyline fill="none" stroke="#bfbfbf" points="279,-1407 380,-1407 "/>
<text text-anchor="middle" x="329.5" y="-1395" font-family="Helvetica,sans-Serif" font-size="10.00"> </text>
<polyline fill="none" stroke="#bfbfbf" points="279,-1388 380,-1388 "/>
<text text-anchor="middle" x="329.5" y="-1376" font-family="Helvetica,sans-Serif" font-size="10.00"> </text>
</a>
</g>
</g>
<!-- Node9&#45;&gt;Node10 -->
<g id="edge11" class="edge">
<title>Node9&#45;&gt;Node10</title>
<path fill="none" stroke="#404040" d="M329.5,-1860.24C329.5,-1780.19 329.5,-1548.33 329.5,-1449.5"/>
<polygon fill="none" stroke="#404040" points="329.5,-1449.29 325.5,-1443.29 329.5,-1437.29 333.5,-1443.29 329.5,-1449.29"/>
<text text-anchor="middle" x="354" y="-1705.5" font-family="Helvetica,sans-Serif" font-size="10.00"> +elements</text>
</g>
<!-- Node16 -->
<g id="node16" class="node">
<title>Node16</title>
<g id="a_node16"><a xlink:title=" ">
<polygon fill="white" stroke="#bfbfbf" points="394,-1755.5 394,-1812.5 497,-1812.5 497,-1755.5 394,-1755.5"/>
<text text-anchor="middle" x="445.5" y="-1800.5" font-family="Helvetica,sans-Serif" font-size="10.00">std::shared_ptr&lt; T &gt;</text>
<polyline fill="none" stroke="#bfbfbf" points="394,-1793.5 497,-1793.5 "/>
<text text-anchor="middle" x="445.5" y="-1781.5" font-family="Helvetica,sans-Serif" font-size="10.00"> </text>
<polyline fill="none" stroke="#bfbfbf" points="394,-1774.5 497,-1774.5 "/>
<text text-anchor="start" x="402" y="-1762.5" font-family="Helvetica,sans-Serif" font-size="10.00">+ operator&#45;&gt;()</text>
</a>
</g>
</g>
<!-- Node9&#45;&gt;Node16 -->
<g id="edge17" class="edge">
<title>Node9&#45;&gt;Node16</title>
<path fill="none" stroke="#404040" d="M344.19,-1874.95C359.49,-1861.37 384.12,-1839.51 405.26,-1820.73"/>
<polygon fill="none" stroke="#404040" points="405.4,-1820.6 407.23,-1813.63 414.38,-1812.64 412.55,-1819.61 405.4,-1820.6"/>
<text text-anchor="middle" x="401.5" y="-1834" font-family="Helvetica,sans-Serif" font-size="10.00"> +ptr</text>
</g>
<!-- Node10&#45;&gt;Node6 -->
<g id="edge9" class="edge">
<title>Node10&#45;&gt;Node6</title>
<path fill="none" stroke="orange" d="M302.36,-1360.21C288.27,-1337.03 271.71,-1307.25 260.5,-1279 248.89,-1249.72 240.54,-1214.98 235.29,-1189.01"/>
<polygon fill="orange" stroke="orange" points="299.4,-1362.07 307.62,-1368.75 305.36,-1358.4 299.4,-1362.07"/>
<text text-anchor="start" x="260.5" y="-1271" font-family="Helvetica,sans-Serif" font-size="10.00"> &lt; prev_block_hash_t,</text>
<text text-anchor="middle" x="321" y="-1260" font-family="Helvetica,sans-Serif" font-size="10.00"> std::unique_ptr&lt; index_t &gt; &gt;</text>
</g>
<!-- Node11 -->
<g id="node11" class="node">
<title>Node11</title>
<g id="a_node11"><a xlink:title=" ">
<polygon fill="white" stroke="#bfbfbf" points="443,-1603.5 443,-1660.5 472,-1660.5 472,-1603.5 443,-1603.5"/>
<text text-anchor="middle" x="457.5" y="-1648.5" font-family="Helvetica,sans-Serif" font-size="10.00">K</text>
<polyline fill="none" stroke="#bfbfbf" points="443,-1641.5 472,-1641.5 "/>
<text text-anchor="middle" x="457.5" y="-1629.5" font-family="Helvetica,sans-Serif" font-size="10.00"> </text>
<polyline fill="none" stroke="#bfbfbf" points="443,-1622.5 472,-1622.5 "/>
<text text-anchor="middle" x="457.5" y="-1610.5" font-family="Helvetica,sans-Serif" font-size="10.00"> </text>
</a>
</g>
</g>
<!-- Node11&#45;&gt;Node10 -->
<g id="edge10" class="edge">
<title>Node11&#45;&gt;Node10</title>
<path fill="none" stroke="#404040" d="M442.75,-1611.71C436.82,-1603.63 430.07,-1594.03 424.5,-1585 396.55,-1539.7 368.74,-1485.35 350.5,-1448.11"/>
<polygon fill="none" stroke="#404040" points="350.41,-1447.92 344.19,-1444.27 345.16,-1437.13 351.38,-1440.77 350.41,-1447.92"/>
<text text-anchor="middle" x="439" y="-1553.5" font-family="Helvetica,sans-Serif" font-size="10.00"> +keys</text>
</g>
<!-- Node18 -->
<g id="node18" class="node">
<title>Node18</title>
<g id="a_node18"><a xlink:title=" ">
<polygon fill="white" stroke="#bfbfbf" points="548,-1374.5 548,-1431.5 619,-1431.5 619,-1374.5 548,-1374.5"/>
<text text-anchor="middle" x="583.5" y="-1419.5" font-family="Helvetica,sans-Serif" font-size="10.00">std::set&lt; K &gt;</text>
<polyline fill="none" stroke="#bfbfbf" points="548,-1412.5 619,-1412.5 "/>
<text text-anchor="middle" x="583.5" y="-1400.5" font-family="Helvetica,sans-Serif" font-size="10.00"> </text>
<polyline fill="none" stroke="#bfbfbf" points="548,-1393.5 619,-1393.5 "/>
<text text-anchor="middle" x="583.5" y="-1381.5" font-family="Helvetica,sans-Serif" font-size="10.00"> </text>
</a>
</g>
</g>
<!-- Node11&#45;&gt;Node18 -->
<g id="edge22" class="edge">
<title>Node11&#45;&gt;Node18</title>
<path fill="none" stroke="#404040" d="M472.29,-1611.74C478.23,-1603.66 484.97,-1594.06 490.5,-1585 519.55,-1537.46 548.09,-1479.81 565.74,-1442.55"/>
<polygon fill="none" stroke="#404040" points="565.75,-1442.53 564.68,-1435.4 570.85,-1431.67 571.92,-1438.8 565.75,-1442.53"/>
<text text-anchor="middle" x="535" y="-1553.5" font-family="Helvetica,sans-Serif" font-size="10.00"> +keys</text>
</g>
<!-- Node19 -->
<g id="node19" class="node">
<title>Node19</title>
<g id="a_node19"><a xlink:title=" ">
<polygon fill="white" stroke="#bfbfbf" points="398,-1374.5 398,-1431.5 517,-1431.5 517,-1374.5 398,-1374.5"/>
<text text-anchor="middle" x="457.5" y="-1419.5" font-family="Helvetica,sans-Serif" font-size="10.00">std::unordered_set&lt; K &gt;</text>
<polyline fill="none" stroke="#bfbfbf" points="398,-1412.5 517,-1412.5 "/>
<text text-anchor="middle" x="457.5" y="-1400.5" font-family="Helvetica,sans-Serif" font-size="10.00"> </text>
<polyline fill="none" stroke="#bfbfbf" points="398,-1393.5 517,-1393.5 "/>
<text text-anchor="middle" x="457.5" y="-1381.5" font-family="Helvetica,sans-Serif" font-size="10.00"> </text>
</a>
</g>
</g>
<!-- Node11&#45;&gt;Node19 -->
<g id="edge24" class="edge">
<title>Node11&#45;&gt;Node19</title>
<path fill="none" stroke="#404040" d="M457.5,-1603.17C457.5,-1563.23 457.5,-1489.48 457.5,-1443.8"/>
<polygon fill="none" stroke="#404040" points="457.5,-1443.71 453.5,-1437.71 457.5,-1431.71 461.5,-1437.71 457.5,-1443.71"/>
<text text-anchor="middle" x="472" y="-1553.5" font-family="Helvetica,sans-Serif" font-size="10.00"> +keys</text>
</g>
<!-- Node12 -->
<g id="node12" class="node">
<title>Node12</title>
<g id="a_node12"><a xlink:title=" ">
<polygon fill="white" stroke="#bfbfbf" points="315,-1115.5 315,-1183.5 462,-1183.5 462,-1115.5 315,-1115.5"/>
<text text-anchor="start" x="323" y="-1171.5" font-family="Helvetica,sans-Serif" font-size="10.00">std::unordered_set</text>
<text text-anchor="middle" x="388.5" y="-1160.5" font-family="Helvetica,sans-Serif" font-size="10.00">&lt; altintegration::BlockIndex * &gt;</text>
<polyline fill="none" stroke="#bfbfbf" points="315,-1153.5 462,-1153.5 "/>
<text text-anchor="middle" x="388.5" y="-1141.5" font-family="Helvetica,sans-Serif" font-size="10.00"> </text>
<polyline fill="none" stroke="#bfbfbf" points="315,-1134.5 462,-1134.5 "/>
<text text-anchor="middle" x="388.5" y="-1122.5" font-family="Helvetica,sans-Serif" font-size="10.00"> </text>
</a>
</g>
</g>
<!-- Node12&#45;&gt;Node3 -->
<g id="edge12" class="edge">
<title>Node12&#45;&gt;Node3</title>
<path fill="none" stroke="#404040" d="M366.42,-1115.31C348.52,-1088.4 322.27,-1048.94 297.46,-1011.66"/>
<polygon fill="none" stroke="#404040" points="297.16,-1011.2 290.51,-1008.42 290.51,-1001.21 297.17,-1003.99 297.16,-1011.2"/>
<text text-anchor="middle" x="328" y="-1034" font-family="Helvetica,sans-Serif" font-size="10.00"> #tips_</text>
</g>
<!-- Node13 -->
<g id="node13" class="node">
<title>Node13</title>
<g id="a_node13"><a xlink:href="structaltintegration_1_1BlockIndex.html" target="_top" xlink:title="A node in a block tree.">
<polygon fill="white" stroke="black" points="663,-1297.5 663,-1508.5 788,-1508.5 788,-1297.5 663,-1297.5"/>
<text text-anchor="start" x="671" y="-1496.5" font-family="Helvetica,sans-Serif" font-size="10.00">altintegration::BlockIndex</text>
<text text-anchor="middle" x="725.5" y="-1485.5" font-family="Helvetica,sans-Serif" font-size="10.00">&lt; Block &gt;</text>
<polyline fill="none" stroke="black" points="663,-1478.5 788,-1478.5 "/>
<text text-anchor="start" x="671" y="-1466.5" font-family="Helvetica,sans-Serif" font-size="10.00">+ finalized</text>
<text text-anchor="start" x="671" y="-1455.5" font-family="Helvetica,sans-Serif" font-size="10.00"># height</text>
<text text-anchor="start" x="671" y="-1444.5" font-family="Helvetica,sans-Serif" font-size="10.00"># status</text>
<text text-anchor="start" x="671" y="-1433.5" font-family="Helvetica,sans-Serif" font-size="10.00"># dirty</text>
<polyline fill="none" stroke="black" points="663,-1426.5 788,-1426.5 "/>
<text text-anchor="start" x="671" y="-1414.5" font-family="Helvetica,sans-Serif" font-size="10.00">+ BlockIndex()</text>
<text text-anchor="start" x="671" y="-1403.5" font-family="Helvetica,sans-Serif" font-size="10.00">+ BlockIndex()</text>
<text text-anchor="start" x="671" y="-1392.5" font-family="Helvetica,sans-Serif" font-size="10.00">+ ~BlockIndex()</text>
<text text-anchor="start" x="671" y="-1381.5" font-family="Helvetica,sans-Serif" font-size="10.00">+ BlockIndex()</text>
<text text-anchor="start" x="671" y="-1370.5" font-family="Helvetica,sans-Serif" font-size="10.00">+ operator=()</text>
<text text-anchor="start" x="671" y="-1359.5" font-family="Helvetica,sans-Serif" font-size="10.00">+ isDeleted()</text>
<text text-anchor="start" x="671" y="-1348.5" font-family="Helvetica,sans-Serif" font-size="10.00">+ restore()</text>
<text text-anchor="start" x="671" y="-1337.5" font-family="Helvetica,sans-Serif" font-size="10.00">+ deleteTemporarily()</text>
<text text-anchor="start" x="671" y="-1326.5" font-family="Helvetica,sans-Serif" font-size="10.00">+ mergeFrom()</text>
<text text-anchor="start" x="671" y="-1315.5" font-family="Helvetica,sans-Serif" font-size="10.00">+ toStoredBlockIndex()</text>
<text text-anchor="start" x="671" y="-1304.5" font-family="Helvetica,sans-Serif" font-size="10.00">and 39 more...</text>
</a>
</g>
</g>
<!-- Node13&#45;&gt;Node12 -->
<g id="edge13" class="edge">
<title>Node13&#45;&gt;Node12</title>
<path fill="none" stroke="#404040" d="M662.82,-1323.41C652.21,-1313.45 640.66,-1304.23 628.5,-1297 600.52,-1280.36 586.82,-1293.14 557.5,-1279 532.37,-1266.89 477.88,-1224.17 437.53,-1191.28"/>
<polygon fill="none" stroke="#404040" points="437.4,-1191.18 430.23,-1190.48 428.12,-1183.58 435.29,-1184.29 437.4,-1191.18"/>
<text text-anchor="middle" x="572" y="-1265.5" font-family="Helvetica,sans-Serif" font-size="10.00"> +keys</text>
</g>
<!-- Node13&#45;&gt;Node13 -->
<g id="edge18" class="edge">
<title>Node13&#45;&gt;Node13</title>
<path fill="none" stroke="#404040" d="M788.28,-1426.35C798.76,-1423.08 806,-1415.3 806,-1403 806,-1395.5 803.31,-1389.69 798.84,-1385.54"/>
<polygon fill="none" stroke="#404040" points="798.76,-1385.5 791.57,-1386.06 788.28,-1379.65 795.47,-1379.08 798.76,-1385.5"/>
<text text-anchor="middle" x="822.5" y="-1400.5" font-family="Helvetica,sans-Serif" font-size="10.00"> +pprev</text>
</g>
<!-- Node17 -->
<g id="node17" class="node">
<title>Node17</title>
<g id="a_node17"><a xlink:title=" ">
<polygon fill="white" stroke="#bfbfbf" points="696.5,-1115.5 696.5,-1183.5 808.5,-1183.5 808.5,-1115.5 696.5,-1115.5"/>
<text text-anchor="start" x="704.5" y="-1171.5" font-family="Helvetica,sans-Serif" font-size="10.00">std::set&lt; altintegration</text>
<text text-anchor="middle" x="752.5" y="-1160.5" font-family="Helvetica,sans-Serif" font-size="10.00">::BlockIndex * &gt;</text>
<polyline fill="none" stroke="#bfbfbf" points="696.5,-1153.5 808.5,-1153.5 "/>
<text text-anchor="middle" x="752.5" y="-1141.5" font-family="Helvetica,sans-Serif" font-size="10.00"> </text>
<polyline fill="none" stroke="#bfbfbf" points="696.5,-1134.5 808.5,-1134.5 "/>
<text text-anchor="middle" x="752.5" y="-1122.5" font-family="Helvetica,sans-Serif" font-size="10.00"> </text>
</a>
</g>
</g>
<!-- Node13&#45;&gt;Node17 -->
<g id="edge20" class="edge">
<title>Node13&#45;&gt;Node17</title>
<path fill="none" stroke="#404040" d="M736.75,-1297.16C740.54,-1261.86 744.58,-1224.3 747.61,-1196.03"/>
<polygon fill="none" stroke="#404040" points="747.65,-1195.67 744.31,-1189.27 748.93,-1183.74 752.27,-1190.13 747.65,-1195.67"/>
<text text-anchor="middle" x="755" y="-1265.5" font-family="Helvetica,sans-Serif" font-size="10.00"> +keys</text>
</g>
<!-- Node14 -->
<g id="node14" class="node">
<title>Node14</title>
<g id="a_node14"><a xlink:title=" ">
<polygon fill="white" stroke="#bfbfbf" points="685.5,-1603.5 685.5,-1660.5 765.5,-1660.5 765.5,-1603.5 685.5,-1603.5"/>
<text text-anchor="middle" x="725.5" y="-1648.5" font-family="Helvetica,sans-Serif" font-size="10.00">Block::addon_t</text>
<polyline fill="none" stroke="#bfbfbf" points="685.5,-1641.5 765.5,-1641.5 "/>
<text text-anchor="middle" x="725.5" y="-1629.5" font-family="Helvetica,sans-Serif" font-size="10.00"> </text>
<polyline fill="none" stroke="#bfbfbf" points="685.5,-1622.5 765.5,-1622.5 "/>
<text text-anchor="middle" x="725.5" y="-1610.5" font-family="Helvetica,sans-Serif" font-size="10.00"> </text>
</a>
</g>
</g>
<!-- Node14&#45;&gt;Node13 -->
<g id="edge14" class="edge">
<title>Node14&#45;&gt;Node13</title>
<path fill="none" stroke="midnightblue" d="M725.5,-1593.05C725.5,-1569.79 725.5,-1538.76 725.5,-1508.58"/>
<polygon fill="none" stroke="midnightblue" points="722,-1593.17 725.5,-1603.17 729,-1593.17 722,-1593.17"/>
</g>
<!-- Node15 -->
<g id="node15" class="node">
<title>Node15</title>
<g id="a_node15"><a xlink:title=" ">
<polygon fill="white" stroke="#bfbfbf" points="515.5,-1603.5 515.5,-1660.5 643.5,-1660.5 643.5,-1603.5 515.5,-1603.5"/>
<text text-anchor="middle" x="579.5" y="-1648.5" font-family="Helvetica,sans-Serif" font-size="10.00">std::shared_ptr&lt; block_t &gt;</text>
<polyline fill="none" stroke="#bfbfbf" points="515.5,-1641.5 643.5,-1641.5 "/>
<text text-anchor="start" x="523.5" y="-1629.5" font-family="Helvetica,sans-Serif" font-size="10.00">+ ptr</text>
<polyline fill="none" stroke="#bfbfbf" points="515.5,-1622.5 643.5,-1622.5 "/>
<text text-anchor="start" x="523.5" y="-1610.5" font-family="Helvetica,sans-Serif" font-size="10.00">+ operator&#45;&gt;()</text>
</a>
</g>
</g>
<!-- Node15&#45;&gt;Node13 -->
<g id="edge15" class="edge">
<title>Node15&#45;&gt;Node13</title>
<path fill="none" stroke="#404040" d="M597.4,-1603.17C612.27,-1580.04 634.44,-1545.58 656.17,-1511.8"/>
<polygon fill="none" stroke="#404040" points="656.4,-1511.44 656.28,-1504.23 662.89,-1501.35 663.01,-1508.56 656.4,-1511.44"/>
<text text-anchor="middle" x="662" y="-1553.5" font-family="Helvetica,sans-Serif" font-size="10.00"> #header</text>
</g>
<!-- Node16&#45;&gt;Node15 -->
<g id="edge16" class="edge">
<title>Node16&#45;&gt;Node15</title>
<path fill="none" stroke="orange" d="M476.86,-1747.9C500.65,-1721.27 532.89,-1685.17 554.85,-1660.59"/>
<polygon fill="orange" stroke="orange" points="474.13,-1745.7 470.08,-1755.49 479.35,-1750.36 474.13,-1745.7"/>
<text text-anchor="middle" x="561" y="-1705.5" font-family="Helvetica,sans-Serif" font-size="10.00"> &lt; block_t &gt;</text>
</g>
<!-- Node17&#45;&gt;Node13 -->
<g id="edge19" class="edge">
<title>Node17&#45;&gt;Node13</title>
<path fill="none" stroke="#404040" d="M768.56,-1183.73C779.08,-1209.64 789.65,-1246.56 782.5,-1279 782.02,-1281.19 781.49,-1283.39 780.93,-1285.59"/>
<polygon fill="none" stroke="#404040" points="780.86,-1285.83 783.05,-1292.7 777.56,-1297.37 775.36,-1290.5 780.86,-1285.83"/>
<text text-anchor="middle" x="800.5" y="-1265.5" font-family="Helvetica,sans-Serif" font-size="10.00"> +pnext</text>
</g>
<!-- Node18&#45;&gt;Node17 -->
<g id="edge21" class="edge">
<title>Node18&#45;&gt;Node17</title>
<path fill="none" stroke="orange" d="M580.11,-1363.85C579.18,-1332.92 582.13,-1289.31 601.5,-1257 623.35,-1220.54 663.04,-1193.29 696.24,-1175.49"/>
<polygon fill="orange" stroke="orange" points="576.63,-1364.4 580.58,-1374.23 583.62,-1364.08 576.63,-1364.4"/>
<text text-anchor="middle" x="668" y="-1265.5" font-family="Helvetica,sans-Serif" font-size="10.00"> &lt; altintegration::BlockIndex * &gt;</text>
</g>
<!-- Node19&#45;&gt;Node12 -->
<g id="edge23" class="edge">
<title>Node19&#45;&gt;Node12</title>
<path fill="none" stroke="orange" d="M431.19,-1365.85C415.76,-1342.37 397.73,-1310.39 389.5,-1279 381.21,-1247.38 382.08,-1209.87 384.34,-1183.57"/>
<polygon fill="orange" stroke="orange" points="428.47,-1368.06 436.95,-1374.41 434.28,-1364.16 428.47,-1368.06"/>
<text text-anchor="middle" x="456" y="-1265.5" font-family="Helvetica,sans-Serif" font-size="10.00"> &lt; altintegration::BlockIndex * &gt;</text>
</g>
<!-- Node20&#45;&gt;Node2 -->
<g id="edge25" class="edge">
<title>Node20&#45;&gt;Node2</title>
<path fill="none" stroke="orange" d="M275.6,-498.22C272.31,-485.7 269,-473.05 265.74,-460.63"/>
<polygon fill="orange" stroke="orange" points="272.3,-499.44 278.23,-508.22 279.07,-497.66 272.3,-499.44"/>
<text text-anchor="middle" x="343.5" y="-482" font-family="Helvetica,sans-Serif" font-size="10.00"> &lt; VbkBlock, VbkChainParams &gt;</text>
</g>
</g>
</svg>
