<?xml version="1.0" encoding="UTF-8" standalone="no"?>
<!DOCTYPE svg PUBLIC "-//W3C//DTD SVG 1.1//EN"
 "http://www.w3.org/Graphics/SVG/1.1/DTD/svg11.dtd">
<!-- Generated by graphviz version 2.44.0 ()
 -->
<!-- Title: altintegration::VbkTx Pages: 1 -->
<svg width="742pt" height="761pt"
 viewBox="0.00 0.00 741.50 761.00" xmlns="http://www.w3.org/2000/svg" xmlns:xlink="http://www.w3.org/1999/xlink">
<g id="graph0" class="graph" transform="scale(1 1) rotate(0) translate(4 757)">
<title>altintegration::VbkTx</title>
<polygon fill="white" stroke="transparent" points="-4,4 -4,-757 737.5,-757 737.5,4 -4,4"/>
<!-- Node1 -->
<g id="node1" class="node">
<title>Node1</title>
<g id="a_node1"><a xlink:title="Veriblock transaction, which endorses ALT block in VBK blockchain.">
<polygon fill="#bfbfbf" stroke="black" points="355,-0.5 355,-101.5 459,-101.5 459,-0.5 355,-0.5"/>
<text text-anchor="middle" x="407" y="-89.5" font-family="Helvetica,sans-Serif" font-size="10.00">altintegration::VbkTx</text>
<polyline fill="none" stroke="black" points="355,-82.5 459,-82.5 "/>
<text text-anchor="start" x="363" y="-70.5" font-family="Helvetica,sans-Serif" font-size="10.00">+ signatureIndex</text>
<polyline fill="none" stroke="black" points="355,-63.5 459,-63.5 "/>
<text text-anchor="start" x="363" y="-51.5" font-family="Helvetica,sans-Serif" font-size="10.00">+ toVbkEncoding()</text>
<text text-anchor="start" x="363" y="-40.5" font-family="Helvetica,sans-Serif" font-size="10.00">+ toVbkEncoding()</text>
<text text-anchor="start" x="363" y="-29.5" font-family="Helvetica,sans-Serif" font-size="10.00">+ estimateSize()</text>
<text text-anchor="start" x="363" y="-18.5" font-family="Helvetica,sans-Serif" font-size="10.00">+ getHash()</text>
<text text-anchor="start" x="363" y="-7.5" font-family="Helvetica,sans-Serif" font-size="10.00">+ calculateTxFee()</text>
</a>
</g>
</g>
<!-- Node2 -->
<g id="node2" class="node">
<title>Node2</title>
<g id="a_node2"><a xlink:href="namespacealtintegration.html#structaltintegration_1_1NetworkBytePair" target="_top" xlink:title="Stores pair of TxType and VBK network byte.">
<polygon fill="white" stroke="black" points="2,-160.5 2,-217.5 152,-217.5 152,-160.5 2,-160.5"/>
<text text-anchor="middle" x="77" y="-205.5" font-family="Helvetica,sans-Serif" font-size="10.00">altintegration::NetworkBytePair</text>
<polyline fill="none" stroke="black" points="2,-198.5 152,-198.5 "/>
<text text-anchor="start" x="10" y="-186.5" font-family="Helvetica,sans-Serif" font-size="10.00">+ typeId</text>
<polyline fill="none" stroke="black" points="2,-179.5 152,-179.5 "/>
<text text-anchor="middle" x="77" y="-167.5" font-family="Helvetica,sans-Serif" font-size="10.00"> </text>
</a>
</g>
</g>
<!-- Node2&#45;&gt;Node1 -->
<g id="edge1" class="edge">
<title>Node2&#45;&gt;Node1</title>
<path fill="none" stroke="#404040" d="M79.93,-160.3C82.84,-146.34 88.59,-130.24 100,-120 135.19,-88.42 263.33,-68.44 342.51,-58.83"/>
<polygon fill="none" stroke="#404040" points="342.86,-58.78 348.35,-54.1 354.78,-57.37 349.29,-62.05 342.86,-58.78"/>
<text text-anchor="middle" x="137.5" y="-123" font-family="Helvetica,sans-Serif" font-size="10.00"> +networkOrType</text>
</g>
<!-- Node3 -->
<g id="node3" class="node">
<title>Node3</title>
<g id="a_node3"><a xlink:href="structaltintegration_1_1VbkNetworkType.html" target="_top" xlink:title="works as optional&lt;uint8_t&gt;">
<polygon fill="white" stroke="black" points="0,-304 0,-405 152,-405 152,-304 0,-304"/>
<text text-anchor="middle" x="76" y="-393" font-family="Helvetica,sans-Serif" font-size="10.00">altintegration::VbkNetworkType</text>
<polyline fill="none" stroke="black" points="0,-386 152,-386 "/>
<text text-anchor="start" x="8" y="-374" font-family="Helvetica,sans-Serif" font-size="10.00">+ hasValue</text>
<text text-anchor="start" x="8" y="-363" font-family="Helvetica,sans-Serif" font-size="10.00">+ value</text>
<polyline fill="none" stroke="black" points="0,-356 152,-356 "/>
<text text-anchor="start" x="8" y="-344" font-family="Helvetica,sans-Serif" font-size="10.00">+ operator bool()</text>
<text text-anchor="start" x="8" y="-333" font-family="Helvetica,sans-Serif" font-size="10.00">+ operator==()</text>
<text text-anchor="start" x="8" y="-322" font-family="Helvetica,sans-Serif" font-size="10.00">+ toPrettyString()</text>
<text text-anchor="start" x="8" y="-311" font-family="Helvetica,sans-Serif" font-size="10.00">+ putJson()</text>
</a>
</g>
</g>
<!-- Node3&#45;&gt;Node2 -->
<g id="edge2" class="edge">
<title>Node3&#45;&gt;Node2</title>
<path fill="none" stroke="#404040" d="M76.31,-303.56C76.45,-279.9 76.62,-252.02 76.76,-229.81"/>
<polygon fill="none" stroke="#404040" points="76.76,-229.79 72.79,-223.77 76.83,-217.79 80.79,-223.82 76.76,-229.79"/>
<text text-anchor="middle" x="109" y="-261" font-family="Helvetica,sans-Serif" font-size="10.00"> +networkType</text>
</g>
<!-- Node4 -->
<g id="node4" class="node">
<title>Node4</title>
<g id="a_node4"><a xlink:title=" ">
<polygon fill="white" stroke="#bfbfbf" points="170.5,-326 170.5,-383 277.5,-383 277.5,-326 170.5,-326"/>
<text text-anchor="middle" x="224" y="-371" font-family="Helvetica,sans-Serif" font-size="10.00">std::vector&lt; uint8_t &gt;</text>
<polyline fill="none" stroke="#bfbfbf" points="170.5,-364 277.5,-364 "/>
<text text-anchor="start" x="178.5" y="-352" font-family="Helvetica,sans-Serif" font-size="10.00">+ elements</text>
<polyline fill="none" stroke="#bfbfbf" points="170.5,-345 277.5,-345 "/>
<text text-anchor="middle" x="224" y="-333" font-family="Helvetica,sans-Serif" font-size="10.00"> </text>
</a>
</g>
</g>
<!-- Node4&#45;&gt;Node1 -->
<g id="edge3" class="edge">
<title>Node4&#45;&gt;Node1</title>
<path fill="none" stroke="#404040" d="M210.17,-325.88C191.42,-284.1 164.02,-203.9 199,-149 230.45,-99.64 294.29,-74.99 342.99,-62.94"/>
<polygon fill="none" stroke="#404040" points="343.02,-62.94 347.95,-57.68 354.7,-60.21 349.77,-65.47 343.02,-62.94"/>
<text text-anchor="middle" x="224.5" y="-192" font-family="Helvetica,sans-Serif" font-size="10.00"> +publicKey</text>
<text text-anchor="middle" x="224.5" y="-181" font-family="Helvetica,sans-Serif" font-size="10.00">+signature</text>
</g>
<!-- Node11 -->
<g id="node11" class="node">
<title>Node11</title>
<g id="a_node11"><a xlink:href="structaltintegration_1_1PublicationData.html" target="_top" xlink:title="Publication data about ALT block inside VBK blockchain.">
<polygon fill="white" stroke="black" points="258.5,-149.5 258.5,-228.5 403.5,-228.5 403.5,-149.5 258.5,-149.5"/>
<text text-anchor="middle" x="331" y="-216.5" font-family="Helvetica,sans-Serif" font-size="10.00">altintegration::PublicationData</text>
<polyline fill="none" stroke="black" points="258.5,-209.5 403.5,-209.5 "/>
<text text-anchor="start" x="266.5" y="-197.5" font-family="Helvetica,sans-Serif" font-size="10.00">+ identifier</text>
<polyline fill="none" stroke="black" points="258.5,-190.5 403.5,-190.5 "/>
<text text-anchor="start" x="266.5" y="-178.5" font-family="Helvetica,sans-Serif" font-size="10.00">+ toPrettyString()</text>
<text text-anchor="start" x="266.5" y="-167.5" font-family="Helvetica,sans-Serif" font-size="10.00">+ toVbkEncoding()</text>
<text text-anchor="start" x="266.5" y="-156.5" font-family="Helvetica,sans-Serif" font-size="10.00">+ estimateSize()</text>
</a>
</g>
</g>
<!-- Node4&#45;&gt;Node11 -->
<g id="edge14" class="edge">
<title>Node4&#45;&gt;Node11</title>
<path fill="none" stroke="#404040" d="M223.06,-325.91C223.57,-303 227.41,-270.47 243,-247 245.22,-243.66 247.7,-240.48 250.39,-237.45"/>
<polygon fill="none" stroke="#404040" points="250.54,-237.29 251.95,-230.22 259.02,-228.8 257.61,-235.87 250.54,-237.29"/>
<text text-anchor="middle" x="271.5" y="-272" font-family="Helvetica,sans-Serif" font-size="10.00"> +contextInfo</text>
<text text-anchor="middle" x="271.5" y="-261" font-family="Helvetica,sans-Serif" font-size="10.00">+header</text>
<text text-anchor="middle" x="271.5" y="-250" font-family="Helvetica,sans-Serif" font-size="10.00">+payoutInfo</text>
</g>
<!-- Node5 -->
<g id="node5" class="node">
<title>Node5</title>
<g id="a_node5"><a xlink:title=" ">
<polygon fill="white" stroke="#bfbfbf" points="234,-524.5 234,-581.5 318,-581.5 318,-524.5 234,-524.5"/>
<text text-anchor="middle" x="276" y="-569.5" font-family="Helvetica,sans-Serif" font-size="10.00">std::vector&lt; T &gt;</text>
<polyline fill="none" stroke="#bfbfbf" points="234,-562.5 318,-562.5 "/>
<text text-anchor="middle" x="276" y="-550.5" font-family="Helvetica,sans-Serif" font-size="10.00"> </text>
<polyline fill="none" stroke="#bfbfbf" points="234,-543.5 318,-543.5 "/>
<text text-anchor="middle" x="276" y="-531.5" font-family="Helvetica,sans-Serif" font-size="10.00"> </text>
</a>
</g>
</g>
<!-- Node5&#45;&gt;Node4 -->
<g id="edge4" class="edge">
<title>Node5&#45;&gt;Node4</title>
<path fill="none" stroke="orange" d="M266.08,-514.5C255.92,-476.12 240.38,-417.41 231.3,-383.1"/>
<polygon fill="orange" stroke="orange" points="262.72,-515.49 268.66,-524.26 269.49,-513.7 262.72,-515.49"/>
<text text-anchor="middle" x="269.5" y="-432" font-family="Helvetica,sans-Serif" font-size="10.00"> &lt; uint8_t &gt;</text>
</g>
<!-- Node8 -->
<g id="node8" class="node">
<title>Node8</title>
<g id="a_node8"><a xlink:title=" ">
<polygon fill="white" stroke="#bfbfbf" points="421.5,-155 421.5,-223 546.5,-223 546.5,-155 421.5,-155"/>
<text text-anchor="start" x="429.5" y="-211" font-family="Helvetica,sans-Serif" font-size="10.00">std::vector&lt; altintegration</text>
<text text-anchor="middle" x="484" y="-200" font-family="Helvetica,sans-Serif" font-size="10.00">::Output &gt;</text>
<polyline fill="none" stroke="#bfbfbf" points="421.5,-193 546.5,-193 "/>
<text text-anchor="middle" x="484" y="-181" font-family="Helvetica,sans-Serif" font-size="10.00"> </text>
<polyline fill="none" stroke="#bfbfbf" points="421.5,-174 546.5,-174 "/>
<text text-anchor="middle" x="484" y="-162" font-family="Helvetica,sans-Serif" font-size="10.00"> </text>
</a>
</g>
</g>
<!-- Node5&#45;&gt;Node8 -->
<g id="edge11" class="edge">
<title>Node5&#45;&gt;Node8</title>
<path fill="none" stroke="orange" d="M283.54,-514.58C287.88,-492.83 293.36,-464.89 298,-440 309.73,-377 288.04,-351.7 323,-298 336.08,-277.9 384.49,-246.72 424.84,-223.01"/>
<polygon fill="orange" stroke="orange" points="280.1,-513.92 281.58,-524.41 286.97,-515.29 280.1,-513.92"/>
<text text-anchor="middle" x="377.5" y="-352" font-family="Helvetica,sans-Serif" font-size="10.00"> &lt; altintegration::Output &gt;</text>
</g>
<!-- Node6 -->
<g id="node6" class="node">
<title>Node6</title>
<g id="a_node6"><a xlink:title=" ">
<polygon fill="white" stroke="#bfbfbf" points="261.5,-695.5 261.5,-752.5 290.5,-752.5 290.5,-695.5 261.5,-695.5"/>
<text text-anchor="middle" x="276" y="-740.5" font-family="Helvetica,sans-Serif" font-size="10.00">T</text>
<polyline fill="none" stroke="#bfbfbf" points="261.5,-733.5 290.5,-733.5 "/>
<text text-anchor="middle" x="276" y="-721.5" font-family="Helvetica,sans-Serif" font-size="10.00"> </text>
<polyline fill="none" stroke="#bfbfbf" points="261.5,-714.5 290.5,-714.5 "/>
<text text-anchor="middle" x="276" y="-702.5" font-family="Helvetica,sans-Serif" font-size="10.00"> </text>
</a>
</g>
</g>
<!-- Node6&#45;&gt;Node5 -->
<g id="edge5" class="edge">
<title>Node6&#45;&gt;Node5</title>
<path fill="none" stroke="#404040" d="M276,-695.47C276,-667.85 276,-625.03 276,-593.73"/>
<polygon fill="none" stroke="#404040" points="276,-593.52 272,-587.52 276,-581.52 280,-587.52 276,-593.52"/>
<text text-anchor="middle" x="300.5" y="-669" font-family="Helvetica,sans-Serif" font-size="10.00"> +elements</text>
</g>
<!-- Node7 -->
<g id="node7" class="node">
<title>Node7</title>
<g id="a_node7"><a xlink:href="structaltintegration_1_1Coin.html" target="_top" xlink:title="represents VBK atomic units">
<polygon fill="white" stroke="black" points="462,-497 462,-609 558,-609 558,-497 462,-497"/>
<text text-anchor="middle" x="510" y="-597" font-family="Helvetica,sans-Serif" font-size="10.00">altintegration::Coin</text>
<polyline fill="none" stroke="black" points="462,-590 558,-590 "/>
<text text-anchor="start" x="470" y="-578" font-family="Helvetica,sans-Serif" font-size="10.00">+ units</text>
<polyline fill="none" stroke="black" points="462,-571 558,-571 "/>
<text text-anchor="start" x="470" y="-559" font-family="Helvetica,sans-Serif" font-size="10.00">+ Coin()</text>
<text text-anchor="start" x="470" y="-548" font-family="Helvetica,sans-Serif" font-size="10.00">+ toPrettyString()</text>
<text text-anchor="start" x="470" y="-537" font-family="Helvetica,sans-Serif" font-size="10.00">+ Coin()</text>
<text text-anchor="start" x="470" y="-526" font-family="Helvetica,sans-Serif" font-size="10.00">+ toVbkEncoding()</text>
<text text-anchor="start" x="470" y="-515" font-family="Helvetica,sans-Serif" font-size="10.00">+ estimateSize()</text>
<text text-anchor="start" x="470" y="-504" font-family="Helvetica,sans-Serif" font-size="10.00">+ operator==()</text>
</a>
</g>
</g>
<!-- Node7&#45;&gt;Node1 -->
<g id="edge6" class="edge">
<title>Node7&#45;&gt;Node1</title>
<path fill="none" stroke="#404040" d="M532.5,-496.74C541.76,-471.12 551.39,-439.99 556,-411 565.14,-353.5 583.75,-200.18 556,-149 537.71,-115.26 502.03,-91.41 470.18,-75.81"/>
<polygon fill="none" stroke="#404040" points="469.97,-75.71 462.85,-76.79 459.1,-70.63 466.23,-69.55 469.97,-75.71"/>
<text text-anchor="middle" x="606" y="-261" font-family="Helvetica,sans-Serif" font-size="10.00"> +sourceAmount</text>
</g>
<!-- Node9 -->
<g id="node9" class="node">
<title>Node9</title>
<g id="a_node9"><a xlink:href="structaltintegration_1_1Output.html" target="_top" xlink:title="Single spending output.">
<polygon fill="white" stroke="black" points="441,-298.5 441,-410.5 547,-410.5 547,-298.5 441,-298.5"/>
<text text-anchor="middle" x="494" y="-398.5" font-family="Helvetica,sans-Serif" font-size="10.00">altintegration::Output</text>
<polyline fill="none" stroke="black" points="441,-391.5 547,-391.5 "/>
<text text-anchor="middle" x="494" y="-379.5" font-family="Helvetica,sans-Serif" font-size="10.00"> </text>
<polyline fill="none" stroke="black" points="441,-372.5 547,-372.5 "/>
<text text-anchor="start" x="449" y="-360.5" font-family="Helvetica,sans-Serif" font-size="10.00">+ Output()</text>
<text text-anchor="start" x="449" y="-349.5" font-family="Helvetica,sans-Serif" font-size="10.00">+ Output()</text>
<text text-anchor="start" x="449" y="-338.5" font-family="Helvetica,sans-Serif" font-size="10.00">+ operator==()</text>
<text text-anchor="start" x="449" y="-327.5" font-family="Helvetica,sans-Serif" font-size="10.00">+ toVbkEncoding()</text>
<text text-anchor="start" x="449" y="-316.5" font-family="Helvetica,sans-Serif" font-size="10.00">+ estimateSize()</text>
<text text-anchor="start" x="449" y="-305.5" font-family="Helvetica,sans-Serif" font-size="10.00">+ toPrettyString()</text>
</a>
</g>
</g>
<!-- Node7&#45;&gt;Node9 -->
<g id="edge9" class="edge">
<title>Node7&#45;&gt;Node9</title>
<path fill="none" stroke="#404040" d="M505.5,-496.74C503.63,-473.73 501.43,-446.79 499.47,-422.65"/>
<polygon fill="none" stroke="#404040" points="499.47,-422.64 494.99,-416.99 498.49,-410.68 502.97,-416.34 499.47,-422.64"/>
<text text-anchor="middle" x="513.5" y="-432" font-family="Helvetica,sans-Serif" font-size="10.00"> +coin</text>
</g>
<!-- Node8&#45;&gt;Node1 -->
<g id="edge7" class="edge">
<title>Node8&#45;&gt;Node1</title>
<path fill="none" stroke="#404040" d="M465.16,-154.73C457.89,-141.89 449.34,-126.78 441.06,-112.16"/>
<polygon fill="none" stroke="#404040" points="441.02,-112.09 434.58,-108.84 435.11,-101.65 441.55,-104.9 441.02,-112.09"/>
<text text-anchor="middle" x="470.5" y="-123" font-family="Helvetica,sans-Serif" font-size="10.00"> +outputs</text>
</g>
<!-- Node9&#45;&gt;Node8 -->
<g id="edge8" class="edge">
<title>Node9&#45;&gt;Node8</title>
<path fill="none" stroke="#404040" d="M490.61,-298.15C489.37,-277.78 487.97,-254.96 486.79,-235.56"/>
<polygon fill="none" stroke="#404040" points="486.77,-235.34 482.41,-229.59 486.04,-223.36 490.4,-229.1 486.77,-235.34"/>
<text text-anchor="middle" x="513.5" y="-261" font-family="Helvetica,sans-Serif" font-size="10.00"> +elements</text>
</g>
<!-- Node10 -->
<g id="node10" class="node">
<title>Node10</title>
<g id="a_node10"><a xlink:href="structaltintegration_1_1Address.html" target="_top" xlink:title="Represents address on VBK chain.">
<polygon fill="white" stroke="black" points="596.5,-458.5 596.5,-647.5 733.5,-647.5 733.5,-458.5 596.5,-458.5"/>
<text text-anchor="middle" x="665" y="-635.5" font-family="Helvetica,sans-Serif" font-size="10.00">altintegration::Address</text>
<polyline fill="none" stroke="black" points="596.5,-628.5 733.5,-628.5 "/>
<text text-anchor="middle" x="665" y="-616.5" font-family="Helvetica,sans-Serif" font-size="10.00"> </text>
<polyline fill="none" stroke="black" points="596.5,-609.5 733.5,-609.5 "/>
<text text-anchor="start" x="604.5" y="-597.5" font-family="Helvetica,sans-Serif" font-size="10.00">+ Address()</text>
<text text-anchor="start" x="604.5" y="-586.5" font-family="Helvetica,sans-Serif" font-size="10.00">+ operator==()</text>
<text text-anchor="start" x="604.5" y="-575.5" font-family="Helvetica,sans-Serif" font-size="10.00">+ operator!=()</text>
<text text-anchor="start" x="604.5" y="-564.5" font-family="Helvetica,sans-Serif" font-size="10.00">+ operator==()</text>
<text text-anchor="start" x="604.5" y="-553.5" font-family="Helvetica,sans-Serif" font-size="10.00">+ getType()</text>
<text text-anchor="start" x="604.5" y="-542.5" font-family="Helvetica,sans-Serif" font-size="10.00">+ getPopBytes()</text>
<text text-anchor="start" x="604.5" y="-531.5" font-family="Helvetica,sans-Serif" font-size="10.00">+ isDerivedFromPublicKey()</text>
<text text-anchor="start" x="604.5" y="-520.5" font-family="Helvetica,sans-Serif" font-size="10.00">+ fromString()</text>
<text text-anchor="start" x="604.5" y="-509.5" font-family="Helvetica,sans-Serif" font-size="10.00">+ toString()</text>
<text text-anchor="start" x="604.5" y="-498.5" font-family="Helvetica,sans-Serif" font-size="10.00">+ toVbkEncoding()</text>
<text text-anchor="start" x="604.5" y="-487.5" font-family="Helvetica,sans-Serif" font-size="10.00">+ estimateSize()</text>
<text text-anchor="start" x="604.5" y="-476.5" font-family="Helvetica,sans-Serif" font-size="10.00">+ fromPublicKey()</text>
<text text-anchor="start" x="604.5" y="-465.5" font-family="Helvetica,sans-Serif" font-size="10.00">+ assertFromString()</text>
</a>
</g>
</g>
<!-- Node10&#45;&gt;Node1 -->
<g id="edge12" class="edge">
<title>Node10&#45;&gt;Node1</title>
<path fill="none" stroke="#404040" d="M672.16,-458.31C673.77,-396.6 669.87,-314.95 646,-247 622.81,-180.99 608.37,-162.76 553,-120 528.31,-100.93 497.41,-85.57 470.41,-74.3"/>
<polygon fill="none" stroke="#404040" points="470.22,-74.23 463.16,-75.69 459.1,-69.73 466.16,-68.27 470.22,-74.23"/>
<text text-anchor="middle" x="692" y="-261" font-family="Helvetica,sans-Serif" font-size="10.00"> +sourceAddress</text>
</g>
<!-- Node10&#45;&gt;Node9 -->
<g id="edge10" class="edge">
<title>Node10&#45;&gt;Node9</title>
<path fill="none" stroke="#404040" d="M596.43,-473.21C581.07,-455.55 564.94,-437.02 550.15,-420.02"/>
<polygon fill="none" stroke="#404040" points="549.96,-419.8 543,-417.9 542.08,-410.75 549.04,-412.65 549.96,-419.8"/>
<text text-anchor="middle" x="585.5" y="-432" font-family="Helvetica,sans-Serif" font-size="10.00"> +address</text>
</g>
<!-- Node11&#45;&gt;Node1 -->
<g id="edge13" class="edge">
<title>Node11&#45;&gt;Node1</title>
<path fill="none" stroke="#404040" d="M345.23,-149.18C349.27,-139.45 353.96,-129.17 359,-120 360.46,-117.34 362.01,-114.66 363.61,-111.98"/>
<polygon fill="none" stroke="#404040" points="363.69,-111.86 363.47,-104.65 370.05,-101.69 370.26,-108.89 363.69,-111.86"/>
<text text-anchor="middle" x="397" y="-123" font-family="Helvetica,sans-Serif" font-size="10.00"> +publicationData</text>
</g>
</g>
</svg>
