<?xml version="1.0" encoding="UTF-8" standalone="no"?>
<!DOCTYPE svg PUBLIC "-//W3C//DTD SVG 1.1//EN"
 "http://www.w3.org/Graphics/SVG/1.1/DTD/svg11.dtd">
<!-- Generated by graphviz version 2.44.0 ()
 -->
<!-- Title: altintegration::VbkTx Pages: 1 -->
<svg width="742pt" height="750pt"
 viewBox="0.00 0.00 741.50 750.00" xmlns="http://www.w3.org/2000/svg" xmlns:xlink="http://www.w3.org/1999/xlink">
<g id="graph0" class="graph" transform="scale(1 1) rotate(0) translate(4 746)">
<title>altintegration::VbkTx</title>
<polygon fill="white" stroke="transparent" points="-4,4 -4,-746 737.5,-746 737.5,4 -4,4"/>
<!-- Node1 -->
<g id="node1" class="node">
<title>Node1</title>
<g id="a_node1"><a xlink:title="Veriblock transaction, which endorses ALT block in VBK blockchain.">
<polygon fill="#bfbfbf" stroke="black" points="355,-0.5 355,-90.5 459,-90.5 459,-0.5 355,-0.5"/>
<text text-anchor="middle" x="407" y="-78.5" font-family="Helvetica,sans-Serif" font-size="10.00">altintegration::VbkTx</text>
<polyline fill="none" stroke="black" points="355,-71.5 459,-71.5 "/>
<text text-anchor="start" x="363" y="-59.5" font-family="Helvetica,sans-Serif" font-size="10.00">+ signatureIndex</text>
<polyline fill="none" stroke="black" points="355,-52.5 459,-52.5 "/>
<text text-anchor="start" x="363" y="-40.5" font-family="Helvetica,sans-Serif" font-size="10.00">+ toVbkEncoding()</text>
<text text-anchor="start" x="363" y="-29.5" font-family="Helvetica,sans-Serif" font-size="10.00">+ toVbkEncoding()</text>
<text text-anchor="start" x="363" y="-18.5" font-family="Helvetica,sans-Serif" font-size="10.00">+ estimateSize()</text>
<text text-anchor="start" x="363" y="-7.5" font-family="Helvetica,sans-Serif" font-size="10.00">+ getHash()</text>
</a>
</g>
</g>
<!-- Node2 -->
<g id="node2" class="node">
<title>Node2</title>
<g id="a_node2"><a xlink:href="namespacealtintegration.html#structaltintegration_1_1NetworkBytePair" target="_top" xlink:title="Stores pair of TxType and VBK network byte.">
<polygon fill="white" stroke="black" points="2,-149.5 2,-206.5 152,-206.5 152,-149.5 2,-149.5"/>
<text text-anchor="middle" x="77" y="-194.5" font-family="Helvetica,sans-Serif" font-size="10.00">altintegration::NetworkBytePair</text>
<polyline fill="none" stroke="black" points="2,-187.5 152,-187.5 "/>
<text text-anchor="start" x="10" y="-175.5" font-family="Helvetica,sans-Serif" font-size="10.00">+ typeId</text>
<polyline fill="none" stroke="black" points="2,-168.5 152,-168.5 "/>
<text text-anchor="middle" x="77" y="-156.5" font-family="Helvetica,sans-Serif" font-size="10.00"> </text>
</a>
</g>
</g>
<!-- Node2&#45;&gt;Node1 -->
<g id="edge1" class="edge">
<title>Node2&#45;&gt;Node1</title>
<path fill="none" stroke="#404040" d="M79.86,-149.22C82.74,-135.23 88.5,-119.14 100,-109 135.33,-77.84 263.43,-60.23 342.56,-52.1"/>
<polygon fill="none" stroke="#404040" points="342.88,-52.07 348.45,-47.49 354.82,-50.88 349.24,-55.46 342.88,-52.07"/>
<text text-anchor="middle" x="137.5" y="-112" font-family="Helvetica,sans-Serif" font-size="10.00"> +networkOrType</text>
</g>
<!-- Node3 -->
<g id="node3" class="node">
<title>Node3</title>
<g id="a_node3"><a xlink:href="structaltintegration_1_1VbkNetworkType.html" target="_top" xlink:title="works as optional&lt;uint8_t&gt;">
<polygon fill="white" stroke="black" points="0,-293 0,-394 152,-394 152,-293 0,-293"/>
<text text-anchor="middle" x="76" y="-382" font-family="Helvetica,sans-Serif" font-size="10.00">altintegration::VbkNetworkType</text>
<polyline fill="none" stroke="black" points="0,-375 152,-375 "/>
<text text-anchor="start" x="8" y="-363" font-family="Helvetica,sans-Serif" font-size="10.00">+ hasValue</text>
<text text-anchor="start" x="8" y="-352" font-family="Helvetica,sans-Serif" font-size="10.00">+ value</text>
<polyline fill="none" stroke="black" points="0,-345 152,-345 "/>
<text text-anchor="start" x="8" y="-333" font-family="Helvetica,sans-Serif" font-size="10.00">+ operator bool()</text>
<text text-anchor="start" x="8" y="-322" font-family="Helvetica,sans-Serif" font-size="10.00">+ operator==()</text>
<text text-anchor="start" x="8" y="-311" font-family="Helvetica,sans-Serif" font-size="10.00">+ toPrettyString()</text>
<text text-anchor="start" x="8" y="-300" font-family="Helvetica,sans-Serif" font-size="10.00">+ putJson()</text>
</a>
</g>
</g>
<!-- Node3&#45;&gt;Node2 -->
<g id="edge2" class="edge">
<title>Node3&#45;&gt;Node2</title>
<path fill="none" stroke="#404040" d="M76.31,-292.56C76.45,-268.9 76.62,-241.02 76.76,-218.81"/>
<polygon fill="none" stroke="#404040" points="76.76,-218.79 72.79,-212.77 76.83,-206.79 80.79,-212.82 76.76,-218.79"/>
<text text-anchor="middle" x="109" y="-250" font-family="Helvetica,sans-Serif" font-size="10.00"> +networkType</text>
</g>
<!-- Node4 -->
<g id="node4" class="node">
<title>Node4</title>
<g id="a_node4"><a xlink:title=" ">
<polygon fill="white" stroke="#bfbfbf" points="170.5,-315 170.5,-372 277.5,-372 277.5,-315 170.5,-315"/>
<text text-anchor="middle" x="224" y="-360" font-family="Helvetica,sans-Serif" font-size="10.00">std::vector&lt; uint8_t &gt;</text>
<polyline fill="none" stroke="#bfbfbf" points="170.5,-353 277.5,-353 "/>
<text text-anchor="start" x="178.5" y="-341" font-family="Helvetica,sans-Serif" font-size="10.00">+ elements</text>
<polyline fill="none" stroke="#bfbfbf" points="170.5,-334 277.5,-334 "/>
<text text-anchor="middle" x="224" y="-322" font-family="Helvetica,sans-Serif" font-size="10.00"> </text>
</a>
</g>
</g>
<!-- Node4&#45;&gt;Node1 -->
<g id="edge3" class="edge">
<title>Node4&#45;&gt;Node1</title>
<path fill="none" stroke="#404040" d="M210.02,-314.78C191.07,-272.88 163.42,-192.52 199,-138 230.6,-89.57 294.21,-66.6 342.8,-55.82"/>
<polygon fill="none" stroke="#404040" points="343.06,-55.77 348.12,-50.63 354.81,-53.33 349.74,-58.46 343.06,-55.77"/>
<text text-anchor="middle" x="224.5" y="-181" font-family="Helvetica,sans-Serif" font-size="10.00"> +publicKey</text>
<text text-anchor="middle" x="224.5" y="-170" font-family="Helvetica,sans-Serif" font-size="10.00">+signature</text>
</g>
<!-- Node11 -->
<g id="node11" class="node">
<title>Node11</title>
<g id="a_node11"><a xlink:href="structaltintegration_1_1PublicationData.html" target="_top" xlink:title="Publication data about ALT block inside VBK blockchain.">
<polygon fill="white" stroke="black" points="258.5,-138.5 258.5,-217.5 403.5,-217.5 403.5,-138.5 258.5,-138.5"/>
<text text-anchor="middle" x="331" y="-205.5" font-family="Helvetica,sans-Serif" font-size="10.00">altintegration::PublicationData</text>
<polyline fill="none" stroke="black" points="258.5,-198.5 403.5,-198.5 "/>
<text text-anchor="start" x="266.5" y="-186.5" font-family="Helvetica,sans-Serif" font-size="10.00">+ identifier</text>
<polyline fill="none" stroke="black" points="258.5,-179.5 403.5,-179.5 "/>
<text text-anchor="start" x="266.5" y="-167.5" font-family="Helvetica,sans-Serif" font-size="10.00">+ toPrettyString()</text>
<text text-anchor="start" x="266.5" y="-156.5" font-family="Helvetica,sans-Serif" font-size="10.00">+ toVbkEncoding()</text>
<text text-anchor="start" x="266.5" y="-145.5" font-family="Helvetica,sans-Serif" font-size="10.00">+ estimateSize()</text>
</a>
</g>
</g>
<!-- Node4&#45;&gt;Node11 -->
<g id="edge14" class="edge">
<title>Node4&#45;&gt;Node11</title>
<path fill="none" stroke="#404040" d="M223.06,-314.91C223.57,-292 227.41,-259.47 243,-236 245.22,-232.66 247.7,-229.48 250.39,-226.45"/>
<polygon fill="none" stroke="#404040" points="250.54,-226.29 251.95,-219.22 259.02,-217.8 257.61,-224.87 250.54,-226.29"/>
<text text-anchor="middle" x="271.5" y="-261" font-family="Helvetica,sans-Serif" font-size="10.00"> +contextInfo</text>
<text text-anchor="middle" x="271.5" y="-250" font-family="Helvetica,sans-Serif" font-size="10.00">+header</text>
<text text-anchor="middle" x="271.5" y="-239" font-family="Helvetica,sans-Serif" font-size="10.00">+payoutInfo</text>
</g>
<!-- Node5 -->
<g id="node5" class="node">
<title>Node5</title>
<g id="a_node5"><a xlink:title=" ">
<polygon fill="white" stroke="#bfbfbf" points="234,-513.5 234,-570.5 318,-570.5 318,-513.5 234,-513.5"/>
<text text-anchor="middle" x="276" y="-558.5" font-family="Helvetica,sans-Serif" font-size="10.00">std::vector&lt; T &gt;</text>
<polyline fill="none" stroke="#bfbfbf" points="234,-551.5 318,-551.5 "/>
<text text-anchor="middle" x="276" y="-539.5" font-family="Helvetica,sans-Serif" font-size="10.00"> </text>
<polyline fill="none" stroke="#bfbfbf" points="234,-532.5 318,-532.5 "/>
<text text-anchor="middle" x="276" y="-520.5" font-family="Helvetica,sans-Serif" font-size="10.00"> </text>
</a>
</g>
</g>
<!-- Node5&#45;&gt;Node4 -->
<g id="edge4" class="edge">
<title>Node5&#45;&gt;Node4</title>
<path fill="none" stroke="orange" d="M266.08,-503.5C255.92,-465.12 240.38,-406.41 231.3,-372.1"/>
<polygon fill="orange" stroke="orange" points="262.72,-504.49 268.66,-513.26 269.49,-502.7 262.72,-504.49"/>
<text text-anchor="middle" x="269.5" y="-421" font-family="Helvetica,sans-Serif" font-size="10.00"> &lt; uint8_t &gt;</text>
</g>
<!-- Node8 -->
<g id="node8" class="node">
<title>Node8</title>
<g id="a_node8"><a xlink:title=" ">
<polygon fill="white" stroke="#bfbfbf" points="421.5,-144 421.5,-212 546.5,-212 546.5,-144 421.5,-144"/>
<text text-anchor="start" x="429.5" y="-200" font-family="Helvetica,sans-Serif" font-size="10.00">std::vector&lt; altintegration</text>
<text text-anchor="middle" x="484" y="-189" font-family="Helvetica,sans-Serif" font-size="10.00">::Output &gt;</text>
<polyline fill="none" stroke="#bfbfbf" points="421.5,-182 546.5,-182 "/>
<text text-anchor="middle" x="484" y="-170" font-family="Helvetica,sans-Serif" font-size="10.00"> </text>
<polyline fill="none" stroke="#bfbfbf" points="421.5,-163 546.5,-163 "/>
<text text-anchor="middle" x="484" y="-151" font-family="Helvetica,sans-Serif" font-size="10.00"> </text>
</a>
</g>
</g>
<!-- Node5&#45;&gt;Node8 -->
<g id="edge11" class="edge">
<title>Node5&#45;&gt;Node8</title>
<path fill="none" stroke="orange" d="M283.54,-503.58C287.88,-481.83 293.36,-453.89 298,-429 309.73,-366 288.04,-340.7 323,-287 336.08,-266.9 384.49,-235.72 424.84,-212.01"/>
<polygon fill="orange" stroke="orange" points="280.1,-502.92 281.58,-513.41 286.97,-504.29 280.1,-502.92"/>
<text text-anchor="middle" x="377.5" y="-341" font-family="Helvetica,sans-Serif" font-size="10.00"> &lt; altintegration::Output &gt;</text>
</g>
<!-- Node6 -->
<g id="node6" class="node">
<title>Node6</title>
<g id="a_node6"><a xlink:title=" ">
<polygon fill="white" stroke="#bfbfbf" points="261.5,-684.5 261.5,-741.5 290.5,-741.5 290.5,-684.5 261.5,-684.5"/>
<text text-anchor="middle" x="276" y="-729.5" font-family="Helvetica,sans-Serif" font-size="10.00">T</text>
<polyline fill="none" stroke="#bfbfbf" points="261.5,-722.5 290.5,-722.5 "/>
<text text-anchor="middle" x="276" y="-710.5" font-family="Helvetica,sans-Serif" font-size="10.00"> </text>
<polyline fill="none" stroke="#bfbfbf" points="261.5,-703.5 290.5,-703.5 "/>
<text text-anchor="middle" x="276" y="-691.5" font-family="Helvetica,sans-Serif" font-size="10.00"> </text>
</a>
</g>
</g>
<!-- Node6&#45;&gt;Node5 -->
<g id="edge5" class="edge">
<title>Node6&#45;&gt;Node5</title>
<path fill="none" stroke="#404040" d="M276,-684.47C276,-656.85 276,-614.03 276,-582.73"/>
<polygon fill="none" stroke="#404040" points="276,-582.52 272,-576.52 276,-570.52 280,-576.52 276,-582.52"/>
<text text-anchor="middle" x="300.5" y="-658" font-family="Helvetica,sans-Serif" font-size="10.00"> +elements</text>
</g>
<!-- Node7 -->
<g id="node7" class="node">
<title>Node7</title>
<g id="a_node7"><a xlink:href="structaltintegration_1_1Coin.html" target="_top" xlink:title="represents VBK atomic units">
<polygon fill="white" stroke="black" points="462,-486 462,-598 558,-598 558,-486 462,-486"/>
<text text-anchor="middle" x="510" y="-586" font-family="Helvetica,sans-Serif" font-size="10.00">altintegration::Coin</text>
<polyline fill="none" stroke="black" points="462,-579 558,-579 "/>
<text text-anchor="start" x="470" y="-567" font-family="Helvetica,sans-Serif" font-size="10.00">+ units</text>
<polyline fill="none" stroke="black" points="462,-560 558,-560 "/>
<text text-anchor="start" x="470" y="-548" font-family="Helvetica,sans-Serif" font-size="10.00">+ Coin()</text>
<text text-anchor="start" x="470" y="-537" font-family="Helvetica,sans-Serif" font-size="10.00">+ toPrettyString()</text>
<text text-anchor="start" x="470" y="-526" font-family="Helvetica,sans-Serif" font-size="10.00">+ Coin()</text>
<text text-anchor="start" x="470" y="-515" font-family="Helvetica,sans-Serif" font-size="10.00">+ toVbkEncoding()</text>
<text text-anchor="start" x="470" y="-504" font-family="Helvetica,sans-Serif" font-size="10.00">+ estimateSize()</text>
<text text-anchor="start" x="470" y="-493" font-family="Helvetica,sans-Serif" font-size="10.00">+ operator==()</text>
</a>
</g>
</g>
<!-- Node7&#45;&gt;Node1 -->
<g id="edge6" class="edge">
<title>Node7&#45;&gt;Node1</title>
<path fill="none" stroke="#404040" d="M532.5,-485.74C541.76,-460.12 551.39,-428.99 556,-400 565.14,-342.5 584.42,-188.81 556,-138 537.57,-105.06 501.9,-82.53 470.07,-68.07"/>
<polygon fill="none" stroke="#404040" points="470.03,-68.05 462.93,-69.34 459.01,-63.29 466.11,-62 470.03,-68.05"/>
<text text-anchor="middle" x="606" y="-250" font-family="Helvetica,sans-Serif" font-size="10.00"> +sourceAmount</text>
</g>
<!-- Node9 -->
<g id="node9" class="node">
<title>Node9</title>
<g id="a_node9"><a xlink:href="structaltintegration_1_1Output.html" target="_top" xlink:title="Single spending output.">
<polygon fill="white" stroke="black" points="441,-287.5 441,-399.5 547,-399.5 547,-287.5 441,-287.5"/>
<text text-anchor="middle" x="494" y="-387.5" font-family="Helvetica,sans-Serif" font-size="10.00">altintegration::Output</text>
<polyline fill="none" stroke="black" points="441,-380.5 547,-380.5 "/>
<text text-anchor="middle" x="494" y="-368.5" font-family="Helvetica,sans-Serif" font-size="10.00"> </text>
<polyline fill="none" stroke="black" points="441,-361.5 547,-361.5 "/>
<text text-anchor="start" x="449" y="-349.5" font-family="Helvetica,sans-Serif" font-size="10.00">+ Output()</text>
<text text-anchor="start" x="449" y="-338.5" font-family="Helvetica,sans-Serif" font-size="10.00">+ Output()</text>
<text text-anchor="start" x="449" y="-327.5" font-family="Helvetica,sans-Serif" font-size="10.00">+ operator==()</text>
<text text-anchor="start" x="449" y="-316.5" font-family="Helvetica,sans-Serif" font-size="10.00">+ toVbkEncoding()</text>
<text text-anchor="start" x="449" y="-305.5" font-family="Helvetica,sans-Serif" font-size="10.00">+ estimateSize()</text>
<text text-anchor="start" x="449" y="-294.5" font-family="Helvetica,sans-Serif" font-size="10.00">+ toPrettyString()</text>
</a>
</g>
</g>
<!-- Node7&#45;&gt;Node9 -->
<g id="edge9" class="edge">
<title>Node7&#45;&gt;Node9</title>
<path fill="none" stroke="#404040" d="M505.5,-485.74C503.63,-462.73 501.43,-435.79 499.47,-411.65"/>
<polygon fill="none" stroke="#404040" points="499.47,-411.64 494.99,-405.99 498.49,-399.68 502.97,-405.34 499.47,-411.64"/>
<text text-anchor="middle" x="513.5" y="-421" font-family="Helvetica,sans-Serif" font-size="10.00"> +coin</text>
</g>
<!-- Node8&#45;&gt;Node1 -->
<g id="edge7" class="edge">
<title>Node8&#45;&gt;Node1</title>
<path fill="none" stroke="#404040" d="M464.37,-143.73C456.7,-130.73 447.7,-115.47 439.13,-100.95"/>
<polygon fill="none" stroke="#404040" points="439.09,-100.88 432.59,-97.75 432.99,-90.55 439.48,-93.68 439.09,-100.88"/>
<text text-anchor="middle" x="470.5" y="-112" font-family="Helvetica,sans-Serif" font-size="10.00"> +outputs</text>
</g>
<!-- Node9&#45;&gt;Node8 -->
<g id="edge8" class="edge">
<title>Node9&#45;&gt;Node8</title>
<path fill="none" stroke="#404040" d="M490.61,-287.15C489.37,-266.78 487.97,-243.96 486.79,-224.56"/>
<polygon fill="none" stroke="#404040" points="486.77,-224.34 482.41,-218.59 486.04,-212.36 490.4,-218.1 486.77,-224.34"/>
<text text-anchor="middle" x="513.5" y="-250" font-family="Helvetica,sans-Serif" font-size="10.00"> +elements</text>
</g>
<!-- Node10 -->
<g id="node10" class="node">
<title>Node10</title>
<g id="a_node10"><a xlink:href="structaltintegration_1_1Address.html" target="_top" xlink:title="Represents address on VBK chain.">
<polygon fill="white" stroke="black" points="596.5,-447.5 596.5,-636.5 733.5,-636.5 733.5,-447.5 596.5,-447.5"/>
<text text-anchor="middle" x="665" y="-624.5" font-family="Helvetica,sans-Serif" font-size="10.00">altintegration::Address</text>
<polyline fill="none" stroke="black" points="596.5,-617.5 733.5,-617.5 "/>
<text text-anchor="middle" x="665" y="-605.5" font-family="Helvetica,sans-Serif" font-size="10.00"> </text>
<polyline fill="none" stroke="black" points="596.5,-598.5 733.5,-598.5 "/>
<text text-anchor="start" x="604.5" y="-586.5" font-family="Helvetica,sans-Serif" font-size="10.00">+ Address()</text>
<text text-anchor="start" x="604.5" y="-575.5" font-family="Helvetica,sans-Serif" font-size="10.00">+ operator==()</text>
<text text-anchor="start" x="604.5" y="-564.5" font-family="Helvetica,sans-Serif" font-size="10.00">+ operator!=()</text>
<text text-anchor="start" x="604.5" y="-553.5" font-family="Helvetica,sans-Serif" font-size="10.00">+ operator==()</text>
<text text-anchor="start" x="604.5" y="-542.5" font-family="Helvetica,sans-Serif" font-size="10.00">+ getType()</text>
<text text-anchor="start" x="604.5" y="-531.5" font-family="Helvetica,sans-Serif" font-size="10.00">+ getPopBytes()</text>
<text text-anchor="start" x="604.5" y="-520.5" font-family="Helvetica,sans-Serif" font-size="10.00">+ isDerivedFromPublicKey()</text>
<text text-anchor="start" x="604.5" y="-509.5" font-family="Helvetica,sans-Serif" font-size="10.00">+ fromString()</text>
<text text-anchor="start" x="604.5" y="-498.5" font-family="Helvetica,sans-Serif" font-size="10.00">+ toString()</text>
<text text-anchor="start" x="604.5" y="-487.5" font-family="Helvetica,sans-Serif" font-size="10.00">+ toVbkEncoding()</text>
<text text-anchor="start" x="604.5" y="-476.5" font-family="Helvetica,sans-Serif" font-size="10.00">+ estimateSize()</text>
<text text-anchor="start" x="604.5" y="-465.5" font-family="Helvetica,sans-Serif" font-size="10.00">+ fromPublicKey()</text>
<text text-anchor="start" x="604.5" y="-454.5" font-family="Helvetica,sans-Serif" font-size="10.00">+ assertFromString()</text>
</a>
</g>
</g>
<!-- Node10&#45;&gt;Node1 -->
<g id="edge12" class="edge">
<title>Node10&#45;&gt;Node1</title>
<path fill="none" stroke="#404040" d="M672.16,-447.31C673.77,-385.6 669.87,-303.95 646,-236 622.72,-169.75 608.61,-150.55 552,-109 527.65,-91.13 497.39,-77.06 470.83,-66.84"/>
<polygon fill="none" stroke="#404040" points="470.56,-66.73 463.54,-68.39 459.31,-62.55 466.33,-60.89 470.56,-66.73"/>
<text text-anchor="middle" x="692" y="-250" font-family="Helvetica,sans-Serif" font-size="10.00"> +sourceAddress</text>
</g>
<!-- Node10&#45;&gt;Node9 -->
<g id="edge10" class="edge">
<title>Node10&#45;&gt;Node9</title>
<path fill="none" stroke="#404040" d="M596.43,-462.21C581.07,-444.55 564.94,-426.02 550.15,-409.02"/>
<polygon fill="none" stroke="#404040" points="549.96,-408.8 543,-406.9 542.08,-399.75 549.04,-401.65 549.96,-408.8"/>
<text text-anchor="middle" x="585.5" y="-421" font-family="Helvetica,sans-Serif" font-size="10.00"> +address</text>
</g>
<!-- Node11&#45;&gt;Node1 -->
<g id="edge13" class="edge">
<title>Node11&#45;&gt;Node1</title>
<path fill="none" stroke="#404040" d="M344.83,-138.39C348.91,-128.56 353.71,-118.18 359,-109 360.61,-106.21 362.33,-103.4 364.13,-100.6"/>
<polygon fill="none" stroke="#404040" points="364.19,-100.51 364.23,-93.3 370.9,-90.57 370.86,-97.78 364.19,-100.51"/>
<text text-anchor="middle" x="397" y="-112" font-family="Helvetica,sans-Serif" font-size="10.00"> +publicationData</text>
</g>
</g>
</svg>
