<?xml version="1.0" encoding="UTF-8" standalone="no"?>
<!DOCTYPE svg PUBLIC "-//W3C//DTD SVG 1.1//EN"
 "http://www.w3.org/Graphics/SVG/1.1/DTD/svg11.dtd">
<!-- Generated by graphviz version 2.49.3 (20211027.1534)
 -->
<!-- Title: altintegration::AuthenticatedContextInfoContainer Pages: 1 -->
<svg width="340pt" height="661pt"
 viewBox="0.00 0.00 339.50 661.00" xmlns="http://www.w3.org/2000/svg" xmlns:xlink="http://www.w3.org/1999/xlink">
<g id="graph0" class="graph" transform="scale(1 1) rotate(0) translate(4 657)">
<title>altintegration::AuthenticatedContextInfoContainer</title>
<polygon fill="white" stroke="transparent" points="-4,4 -4,-657 335.5,-657 335.5,4 -4,4"/>
<!-- Node1 -->
<g id="node1" class="node">
<title>Node1</title>
<g id="a_node1"><a xlink:title="Contains ContextInfoContainer and merkle path which authenticates hash of ContextInfoContainer to a b...">
<polygon fill="#bfbfbf" stroke="black" points="72,-0.5 72,-123.5 209,-123.5 209,-0.5 72,-0.5"/>
<text text-anchor="start" x="80" y="-111.5" font-family="Helvetica,sans-Serif" font-size="10.00">altintegration::Authenticated</text>
<text text-anchor="middle" x="140.5" y="-100.5" font-family="Helvetica,sans-Serif" font-size="10.00">ContextInfoContainer</text>
<polyline fill="none" stroke="black" points="72,-93.5 209,-93.5 "/>
<text text-anchor="middle" x="140.5" y="-81.5" font-family="Helvetica,sans-Serif" font-size="10.00"> </text>
<polyline fill="none" stroke="black" points="72,-74.5 209,-74.5 "/>
<text text-anchor="start" x="80" y="-62.5" font-family="Helvetica,sans-Serif" font-size="10.00">+ operator==()</text>
<text text-anchor="start" x="80" y="-51.5" font-family="Helvetica,sans-Serif" font-size="10.00">+ toVbkEncoding()</text>
<text text-anchor="start" x="80" y="-40.5" font-family="Helvetica,sans-Serif" font-size="10.00">+ estimateSize()</text>
<text text-anchor="start" x="80" y="-29.5" font-family="Helvetica,sans-Serif" font-size="10.00">+ getTopLevelMerkleRoot()</text>
<text text-anchor="start" x="80" y="-18.5" font-family="Helvetica,sans-Serif" font-size="10.00">+ createFromPrevious()</text>
<text text-anchor="start" x="80" y="-7.5" font-family="Helvetica,sans-Serif" font-size="10.00">+ createFromPrevious()</text>
</a>
</g>
</g>
<!-- Node2 -->
<g id="node2" class="node">
<title>Node2</title>
<g id="a_node2"><a xlink:href="structaltintegration_1_1ContextInfoContainer.html" target="_top" xlink:title="Container of context info for endorsed block.">
<polygon fill="white" stroke="black" points="4.5,-215.5 4.5,-349.5 130.5,-349.5 130.5,-215.5 4.5,-215.5"/>
<text text-anchor="start" x="12.5" y="-337.5" font-family="Helvetica,sans-Serif" font-size="10.00">altintegration::ContextInfo</text>
<text text-anchor="middle" x="67.5" y="-326.5" font-family="Helvetica,sans-Serif" font-size="10.00">Container</text>
<polyline fill="none" stroke="black" points="4.5,-319.5 130.5,-319.5 "/>
<text text-anchor="start" x="12.5" y="-307.5" font-family="Helvetica,sans-Serif" font-size="10.00">+ height</text>
<polyline fill="none" stroke="black" points="4.5,-300.5 130.5,-300.5 "/>
<text text-anchor="start" x="12.5" y="-288.5" font-family="Helvetica,sans-Serif" font-size="10.00">+ getHash()</text>
<text text-anchor="start" x="12.5" y="-277.5" font-family="Helvetica,sans-Serif" font-size="10.00">+ toVbkEncoding()</text>
<text text-anchor="start" x="12.5" y="-266.5" font-family="Helvetica,sans-Serif" font-size="10.00">+ estimateSize()</text>
<text text-anchor="start" x="12.5" y="-255.5" font-family="Helvetica,sans-Serif" font-size="10.00">+ operator==()</text>
<text text-anchor="start" x="12.5" y="-244.5" font-family="Helvetica,sans-Serif" font-size="10.00">+ operator!=()</text>
<text text-anchor="start" x="12.5" y="-233.5" font-family="Helvetica,sans-Serif" font-size="10.00">+ toPrettyString()</text>
<text text-anchor="start" x="12.5" y="-222.5" font-family="Helvetica,sans-Serif" font-size="10.00">+ createFromPrevious()</text>
</a>
</g>
</g>
<!-- Node2&#45;&gt;Node1 -->
<g id="edge1" class="edge">
<title>Node2&#45;&gt;Node1</title>
<path fill="none" stroke="#404040" d="M89.6,-215.35C98.04,-190.08 107.71,-161.15 116.34,-135.33"/>
<polygon fill="none" stroke="#404040" points="116.41,-135.09 114.52,-128.13 120.22,-123.71 122.11,-130.67 116.41,-135.09"/>
<text text-anchor="middle" x="124.5" y="-145" font-family="Helvetica,sans-Serif" font-size="10.00"> +ctx</text>
</g>
<!-- Node3 -->
<g id="node3" class="node">
<title>Node3</title>
<g id="a_node3"><a xlink:href="structaltintegration_1_1KeystoneContainer.html" target="_top" xlink:title="A container for two previous keystones of endorsed block.">
<polygon fill="white" stroke="black" points="0,-491 0,-603 135,-603 135,-491 0,-491"/>
<text text-anchor="start" x="8" y="-591" font-family="Helvetica,sans-Serif" font-size="10.00">altintegration::Keystone</text>
<text text-anchor="middle" x="67.5" y="-580" font-family="Helvetica,sans-Serif" font-size="10.00">Container</text>
<polyline fill="none" stroke="black" points="0,-573 135,-573 "/>
<text text-anchor="start" x="8" y="-561" font-family="Helvetica,sans-Serif" font-size="10.00">+ firstPreviousKeystone</text>
<text text-anchor="start" x="8" y="-550" font-family="Helvetica,sans-Serif" font-size="10.00">+ secondPreviousKeystone</text>
<polyline fill="none" stroke="black" points="0,-543 135,-543 "/>
<text text-anchor="start" x="8" y="-531" font-family="Helvetica,sans-Serif" font-size="10.00">+ toVbkEncoding()</text>
<text text-anchor="start" x="8" y="-520" font-family="Helvetica,sans-Serif" font-size="10.00">+ estimateSize()</text>
<text text-anchor="start" x="8" y="-509" font-family="Helvetica,sans-Serif" font-size="10.00">+ operator==()</text>
<text text-anchor="start" x="8" y="-498" font-family="Helvetica,sans-Serif" font-size="10.00">+ createFromPrevious()</text>
</a>
</g>
</g>
<!-- Node3&#45;&gt;Node2 -->
<g id="edge2" class="edge">
<title>Node3&#45;&gt;Node2</title>
<path fill="none" stroke="#404040" d="M67.5,-490.97C67.5,-453.48 67.5,-403.29 67.5,-361.67"/>
<polygon fill="none" stroke="#404040" points="67.5,-361.61 63.5,-355.61 67.5,-349.61 71.5,-355.61 67.5,-361.61"/>
<text text-anchor="middle" x="94" y="-415" font-family="Helvetica,sans-Serif" font-size="10.00"> +keystones</text>
</g>
<!-- Node4 -->
<g id="node4" class="node">
<title>Node4</title>
<g id="a_node4"><a xlink:href="structaltintegration_1_1Blob.html" target="_top" xlink:title=" ">
<polygon fill="white" stroke="black" points="149,-171.5 149,-393.5 280,-393.5 280,-171.5 149,-171.5"/>
<text text-anchor="start" x="157" y="-381.5" font-family="Helvetica,sans-Serif" font-size="10.00">altintegration::Blob</text>
<text text-anchor="middle" x="214.5" y="-370.5" font-family="Helvetica,sans-Serif" font-size="10.00">&lt; SHA256_HASH_SIZE &gt;</text>
<polyline fill="none" stroke="black" points="149,-363.5 280,-363.5 "/>
<text text-anchor="start" x="157" y="-351.5" font-family="Helvetica,sans-Serif" font-size="10.00">+ data_</text>
<text text-anchor="start" x="157" y="-340.5" font-family="Helvetica,sans-Serif" font-size="10.00">+ this</text>
<polyline fill="none" stroke="black" points="149,-333.5 280,-333.5 "/>
<text text-anchor="start" x="157" y="-321.5" font-family="Helvetica,sans-Serif" font-size="10.00">+ Blob()</text>
<text text-anchor="start" x="157" y="-310.5" font-family="Helvetica,sans-Serif" font-size="10.00">+ Blob()</text>
<text text-anchor="start" x="157" y="-299.5" font-family="Helvetica,sans-Serif" font-size="10.00">+ Blob()</text>
<text text-anchor="start" x="157" y="-288.5" font-family="Helvetica,sans-Serif" font-size="10.00">+ Blob()</text>
<text text-anchor="start" x="157" y="-277.5" font-family="Helvetica,sans-Serif" font-size="10.00">+ Blob()</text>
<text text-anchor="start" x="157" y="-266.5" font-family="Helvetica,sans-Serif" font-size="10.00">+ operator=()</text>
<text text-anchor="start" x="157" y="-255.5" font-family="Helvetica,sans-Serif" font-size="10.00">+ operator=()</text>
<text text-anchor="start" x="157" y="-244.5" font-family="Helvetica,sans-Serif" font-size="10.00">+ reverse()</text>
<text text-anchor="start" x="157" y="-233.5" font-family="Helvetica,sans-Serif" font-size="10.00">+ operator~()</text>
<text text-anchor="start" x="157" y="-222.5" font-family="Helvetica,sans-Serif" font-size="10.00">+ asVector()</text>
<text text-anchor="start" x="157" y="-211.5" font-family="Helvetica,sans-Serif" font-size="10.00">+ asString()</text>
<text text-anchor="start" x="157" y="-200.5" font-family="Helvetica,sans-Serif" font-size="10.00">+ operator[]()</text>
<text text-anchor="start" x="157" y="-189.5" font-family="Helvetica,sans-Serif" font-size="10.00">+ operator[]()</text>
<text text-anchor="start" x="157" y="-178.5" font-family="Helvetica,sans-Serif" font-size="10.00">+ compareTo()</text>
</a>
</g>
</g>
<!-- Node4&#45;&gt;Node1 -->
<g id="edge3" class="edge">
<title>Node4&#45;&gt;Node1</title>
<path fill="none" stroke="#404040" d="M177.17,-171.29C173,-158.96 168.83,-146.65 164.88,-134.98"/>
<polygon fill="none" stroke="#404040" points="164.86,-134.91 159.14,-130.51 161.01,-123.55 166.72,-127.95 164.86,-134.91"/>
<text text-anchor="middle" x="197" y="-145" font-family="Helvetica,sans-Serif" font-size="10.00"> +stateRoot</text>
</g>
<!-- Node5 -->
<g id="node5" class="node">
<title>Node5</title>
<g id="a_node5"><a xlink:href="structaltintegration_1_1Blob.html" target="_top" xlink:title="Contiguous byte array of fixed size.">
<polygon fill="white" stroke="black" points="154.5,-441.5 154.5,-652.5 274.5,-652.5 274.5,-441.5 154.5,-441.5"/>
<text text-anchor="middle" x="214.5" y="-640.5" font-family="Helvetica,sans-Serif" font-size="10.00">altintegration::Blob&lt; N &gt;</text>
<polyline fill="none" stroke="black" points="154.5,-633.5 274.5,-633.5 "/>
<text text-anchor="start" x="162.5" y="-621.5" font-family="Helvetica,sans-Serif" font-size="10.00">+ data_</text>
<text text-anchor="start" x="162.5" y="-610.5" font-family="Helvetica,sans-Serif" font-size="10.00">+ this</text>
<polyline fill="none" stroke="black" points="154.5,-603.5 274.5,-603.5 "/>
<text text-anchor="start" x="162.5" y="-591.5" font-family="Helvetica,sans-Serif" font-size="10.00">+ Blob()</text>
<text text-anchor="start" x="162.5" y="-580.5" font-family="Helvetica,sans-Serif" font-size="10.00">+ Blob()</text>
<text text-anchor="start" x="162.5" y="-569.5" font-family="Helvetica,sans-Serif" font-size="10.00">+ Blob()</text>
<text text-anchor="start" x="162.5" y="-558.5" font-family="Helvetica,sans-Serif" font-size="10.00">+ Blob()</text>
<text text-anchor="start" x="162.5" y="-547.5" font-family="Helvetica,sans-Serif" font-size="10.00">+ Blob()</text>
<text text-anchor="start" x="162.5" y="-536.5" font-family="Helvetica,sans-Serif" font-size="10.00">+ operator=()</text>
<text text-anchor="start" x="162.5" y="-525.5" font-family="Helvetica,sans-Serif" font-size="10.00">+ operator=()</text>
<text text-anchor="start" x="162.5" y="-514.5" font-family="Helvetica,sans-Serif" font-size="10.00">+ reverse()</text>
<text text-anchor="start" x="162.5" y="-503.5" font-family="Helvetica,sans-Serif" font-size="10.00">+ operator~()</text>
<text text-anchor="start" x="162.5" y="-492.5" font-family="Helvetica,sans-Serif" font-size="10.00">+ asVector()</text>
<text text-anchor="start" x="162.5" y="-481.5" font-family="Helvetica,sans-Serif" font-size="10.00">+ asString()</text>
<text text-anchor="start" x="162.5" y="-470.5" font-family="Helvetica,sans-Serif" font-size="10.00">+ operator[]()</text>
<text text-anchor="start" x="162.5" y="-459.5" font-family="Helvetica,sans-Serif" font-size="10.00">+ operator[]()</text>
<text text-anchor="start" x="162.5" y="-448.5" font-family="Helvetica,sans-Serif" font-size="10.00">+ compareTo()</text>
</a>
</g>
</g>
<!-- Node5&#45;&gt;Node4 -->
<g id="edge4" class="edge">
<title>Node5&#45;&gt;Node4</title>
<path fill="none" stroke="orange" d="M214.5,-431.48C214.5,-418.93 214.5,-406.17 214.5,-393.67"/>
<polygon fill="orange" stroke="orange" points="211,-431.5 214.5,-441.5 218,-431.5 211,-431.5"/>
<text text-anchor="middle" x="273" y="-415" font-family="Helvetica,sans-Serif" font-size="10.00"> &lt; SHA256_HASH_SIZE &gt;</text>
</g>
</g>
</svg>
