<?xml version="1.0" encoding="UTF-8" standalone="no"?>
<!DOCTYPE svg PUBLIC "-//W3C//DTD SVG 1.1//EN"
 "http://www.w3.org/Graphics/SVG/1.1/DTD/svg11.dtd">
<!-- Generated by graphviz version 2.50.0 (20220203.2022)
 -->
<!-- Title: altintegration::adaptors::InmemStorageImpl Pages: 1 -->
<svg width="127pt" height="270pt"
 viewBox="0.00 0.00 127.00 270.00" xmlns="http://www.w3.org/2000/svg" xmlns:xlink="http://www.w3.org/1999/xlink">
<g id="graph0" class="graph" transform="scale(1 1) rotate(0) translate(4 266)">
<title>altintegration::adaptors::InmemStorageImpl</title>
<polygon fill="white" stroke="transparent" points="-4,4 -4,-266 123,-266 123,4 -4,4"/>
<!-- Node1 -->
<g id="node1" class="node">
<title>Node1</title>
<g id="a_node1"><a xlink:title=" ">
<polygon fill="#bfbfbf" stroke="black" points="0,-0.5 0,-112.5 119,-112.5 119,-0.5 0,-0.5"/>
<text text-anchor="start" x="8" y="-100.5" font-family="Helvetica,sans-Serif" font-size="10.00">altintegration::adaptors</text>
<text text-anchor="middle" x="59.5" y="-89.5" font-family="Helvetica,sans-Serif" font-size="10.00">::InmemStorageImpl</text>
<polyline fill="none" stroke="black" points="0,-82.5 119,-82.5 "/>
<text text-anchor="middle" x="59.5" y="-70.5" font-family="Helvetica,sans-Serif" font-size="10.00"> </text>
<polyline fill="none" stroke="black" points="0,-63.5 119,-63.5 "/>
<text text-anchor="start" x="8" y="-51.5" font-family="Helvetica,sans-Serif" font-size="10.00">+ ~InmemStorageImpl()</text>
<text text-anchor="start" x="8" y="-40.5" font-family="Helvetica,sans-Serif" font-size="10.00">+ write()</text>
<text text-anchor="start" x="8" y="-29.5" font-family="Helvetica,sans-Serif" font-size="10.00">+ read()</text>
<text text-anchor="start" x="8" y="-18.5" font-family="Helvetica,sans-Serif" font-size="10.00">+ generateWriteBatch()</text>
<text text-anchor="start" x="8" y="-7.5" font-family="Helvetica,sans-Serif" font-size="10.00">+ generateIterator()</text>
</a>
</g>
</g>
<!-- Node2 -->
<g id="node2" class="node">
<title>Node2</title>
<g id="a_node2"><a xlink:href="structaltintegration_1_1adaptors_1_1Storage.html" target="_top" xlink:title=" ">
<polygon fill="white" stroke="#bfbfbf" points="1.5,-149.5 1.5,-261.5 117.5,-261.5 117.5,-149.5 1.5,-149.5"/>
<text text-anchor="start" x="9.5" y="-249.5" font-family="Helvetica,sans-Serif" font-size="10.00">altintegration::adaptors</text>
<text text-anchor="middle" x="59.5" y="-238.5" font-family="Helvetica,sans-Serif" font-size="10.00">::Storage</text>
<polyline fill="none" stroke="#bfbfbf" points="1.5,-231.5 117.5,-231.5 "/>
<text text-anchor="middle" x="59.5" y="-219.5" font-family="Helvetica,sans-Serif" font-size="10.00"> </text>
<polyline fill="none" stroke="#bfbfbf" points="1.5,-212.5 117.5,-212.5 "/>
<text text-anchor="start" x="9.5" y="-200.5" font-family="Helvetica,sans-Serif" font-size="10.00">+ ~Storage()</text>
<text text-anchor="start" x="9.5" y="-189.5" font-family="Helvetica,sans-Serif" font-size="10.00">+ write()</text>
<text text-anchor="start" x="9.5" y="-178.5" font-family="Helvetica,sans-Serif" font-size="10.00">+ read()</text>
<text text-anchor="start" x="9.5" y="-167.5" font-family="Helvetica,sans-Serif" font-size="10.00">+ generateWriteBatch()</text>
<text text-anchor="start" x="9.5" y="-156.5" font-family="Helvetica,sans-Serif" font-size="10.00">+ generateIterator()</text>
</a>
</g>
</g>
<!-- Node2&#45;&gt;Node1 -->
<g id="edge1" class="edge">
<title>Node2&#45;&gt;Node1</title>
<path fill="none" stroke="midnightblue" d="M59.5,-139.18C59.5,-130.43 59.5,-121.52 59.5,-112.96"/>
<polygon fill="none" stroke="midnightblue" points="56,-139.34 59.5,-149.34 63,-139.34 56,-139.34"/>
</g>
</g>
</svg>
