<?xml version="1.0" encoding="UTF-8" standalone="no"?>
<!DOCTYPE svg PUBLIC "-//W3C//DTD SVG 1.1//EN"
 "http://www.w3.org/Graphics/SVG/1.1/DTD/svg11.dtd">
<!-- Generated by graphviz version 2.44.0 ()
 -->
<!-- Title: altintegration::MerklePath Pages: 1 -->
<svg width="369pt" height="968pt"
 viewBox="0.00 0.00 368.50 968.00" xmlns="http://www.w3.org/2000/svg" xmlns:xlink="http://www.w3.org/1999/xlink">
<g id="graph0" class="graph" transform="scale(1 1) rotate(0) translate(4 964)">
<title>altintegration::MerklePath</title>
<polygon fill="white" stroke="transparent" points="-4,4 -4,-964 364.5,-964 364.5,4 -4,4"/>
<!-- Node1 -->
<g id="node1" class="node">
<title>Node1</title>
<g id="a_node1"><a xlink:title="Path in Merkle tree which proves that subject is inside this tree.">
<polygon fill="#bfbfbf" stroke="black" points="74.5,-0.5 74.5,-90.5 200.5,-90.5 200.5,-0.5 74.5,-0.5"/>
<text text-anchor="middle" x="137.5" y="-78.5" font-family="Helvetica,sans-Serif" font-size="10.00">altintegration::MerklePath</text>
<polyline fill="none" stroke="black" points="74.5,-71.5 200.5,-71.5 "/>
<text text-anchor="start" x="82.5" y="-59.5" font-family="Helvetica,sans-Serif" font-size="10.00">+ index</text>
<polyline fill="none" stroke="black" points="74.5,-52.5 200.5,-52.5 "/>
<text text-anchor="start" x="82.5" y="-40.5" font-family="Helvetica,sans-Serif" font-size="10.00">+ toRaw()</text>
<text text-anchor="start" x="82.5" y="-29.5" font-family="Helvetica,sans-Serif" font-size="10.00">+ toVbkEncoding()</text>
<text text-anchor="start" x="82.5" y="-18.5" font-family="Helvetica,sans-Serif" font-size="10.00">+ estimateSize()</text>
<text text-anchor="start" x="82.5" y="-7.5" font-family="Helvetica,sans-Serif" font-size="10.00">+ calculateMerkleRoot()</text>
</a>
</g>
</g>
<!-- Node2 -->
<g id="node2" class="node">
<title>Node2</title>
<g id="a_node2"><a xlink:title=" ">
<polygon fill="white" stroke="#bfbfbf" points="149,-215.5 149,-283.5 274,-283.5 274,-215.5 149,-215.5"/>
<text text-anchor="start" x="157" y="-271.5" font-family="Helvetica,sans-Serif" font-size="10.00">std::vector&lt; altintegration</text>
<text text-anchor="middle" x="211.5" y="-260.5" font-family="Helvetica,sans-Serif" font-size="10.00">::Blob &gt;</text>
<polyline fill="none" stroke="#bfbfbf" points="149,-253.5 274,-253.5 "/>
<text text-anchor="middle" x="211.5" y="-241.5" font-family="Helvetica,sans-Serif" font-size="10.00"> </text>
<polyline fill="none" stroke="#bfbfbf" points="149,-234.5 274,-234.5 "/>
<text text-anchor="middle" x="211.5" y="-222.5" font-family="Helvetica,sans-Serif" font-size="10.00"> </text>
</a>
</g>
</g>
<!-- Node2&#45;&gt;Node1 -->
<g id="edge1" class="edge">
<title>Node2&#45;&gt;Node1</title>
<path fill="none" stroke="#404040" d="M199.28,-215.14C188.02,-184.4 171.09,-138.2 157.8,-101.92"/>
<polygon fill="none" stroke="#404040" points="157.75,-101.79 151.93,-97.53 153.63,-90.52 159.45,-94.78 157.75,-101.79"/>
<text text-anchor="middle" x="180.5" y="-112" font-family="Helvetica,sans-Serif" font-size="10.00"> +layers</text>
</g>
<!-- Node3 -->
<g id="node3" class="node">
<title>Node3</title>
<g id="a_node3"><a xlink:href="structaltintegration_1_1Blob.html" target="_top" xlink:title="Contiguous byte array of fixed size.">
<polygon fill="white" stroke="black" points="83.5,-408.5 83.5,-597.5 203.5,-597.5 203.5,-408.5 83.5,-408.5"/>
<text text-anchor="middle" x="143.5" y="-585.5" font-family="Helvetica,sans-Serif" font-size="10.00">altintegration::Blob&lt; N &gt;</text>
<polyline fill="none" stroke="black" points="83.5,-578.5 203.5,-578.5 "/>
<text text-anchor="start" x="91.5" y="-566.5" font-family="Helvetica,sans-Serif" font-size="10.00">+ this</text>
<polyline fill="none" stroke="black" points="83.5,-559.5 203.5,-559.5 "/>
<text text-anchor="start" x="91.5" y="-547.5" font-family="Helvetica,sans-Serif" font-size="10.00">+ Blob()</text>
<text text-anchor="start" x="91.5" y="-536.5" font-family="Helvetica,sans-Serif" font-size="10.00">+ Blob()</text>
<text text-anchor="start" x="91.5" y="-525.5" font-family="Helvetica,sans-Serif" font-size="10.00">+ Blob()</text>
<text text-anchor="start" x="91.5" y="-514.5" font-family="Helvetica,sans-Serif" font-size="10.00">+ Blob()</text>
<text text-anchor="start" x="91.5" y="-503.5" font-family="Helvetica,sans-Serif" font-size="10.00">+ Blob()</text>
<text text-anchor="start" x="91.5" y="-492.5" font-family="Helvetica,sans-Serif" font-size="10.00">+ operator=()</text>
<text text-anchor="start" x="91.5" y="-481.5" font-family="Helvetica,sans-Serif" font-size="10.00">+ operator=()</text>
<text text-anchor="start" x="91.5" y="-470.5" font-family="Helvetica,sans-Serif" font-size="10.00">+ reverse()</text>
<text text-anchor="start" x="91.5" y="-459.5" font-family="Helvetica,sans-Serif" font-size="10.00">+ operator~()</text>
<text text-anchor="start" x="91.5" y="-448.5" font-family="Helvetica,sans-Serif" font-size="10.00">+ asVector()</text>
<text text-anchor="start" x="91.5" y="-437.5" font-family="Helvetica,sans-Serif" font-size="10.00">and 9 more...</text>
<text text-anchor="start" x="91.5" y="-426.5" font-family="Helvetica,sans-Serif" font-size="10.00"># assign()</text>
<text text-anchor="start" x="91.5" y="-415.5" font-family="Helvetica,sans-Serif" font-size="10.00"># assign()</text>
</a>
</g>
</g>
<!-- Node3&#45;&gt;Node2 -->
<g id="edge2" class="edge">
<title>Node3&#45;&gt;Node2</title>
<path fill="none" stroke="#404040" d="M178.11,-408.21C180.03,-402.08 181.84,-395.97 183.5,-390 192.14,-358.83 199.27,-323.05 204.17,-295.53"/>
<polygon fill="none" stroke="#404040" points="204.21,-295.33 201.29,-288.74 206.26,-283.51 209.18,-290.11 204.21,-295.33"/>
<text text-anchor="middle" x="209" y="-382" font-family="Helvetica,sans-Serif" font-size="10.00"> +elements</text>
</g>
<!-- Node8 -->
<g id="node8" class="node">
<title>Node8</title>
<g id="a_node8"><a xlink:href="structaltintegration_1_1Blob.html" target="_top" xlink:title=" ">
<polygon fill="white" stroke="black" points="0,-138.5 0,-360.5 131,-360.5 131,-138.5 0,-138.5"/>
<text text-anchor="start" x="8" y="-348.5" font-family="Helvetica,sans-Serif" font-size="10.00">altintegration::Blob</text>
<text text-anchor="middle" x="65.5" y="-337.5" font-family="Helvetica,sans-Serif" font-size="10.00">&lt; SHA256_HASH_SIZE &gt;</text>
<polyline fill="none" stroke="black" points="0,-330.5 131,-330.5 "/>
<text text-anchor="start" x="8" y="-318.5" font-family="Helvetica,sans-Serif" font-size="10.00">+ data_</text>
<text text-anchor="start" x="8" y="-307.5" font-family="Helvetica,sans-Serif" font-size="10.00">+ this</text>
<text text-anchor="start" x="8" y="-296.5" font-family="Helvetica,sans-Serif" font-size="10.00"># data_</text>
<polyline fill="none" stroke="black" points="0,-289.5 131,-289.5 "/>
<text text-anchor="start" x="8" y="-277.5" font-family="Helvetica,sans-Serif" font-size="10.00">+ Blob()</text>
<text text-anchor="start" x="8" y="-266.5" font-family="Helvetica,sans-Serif" font-size="10.00">+ Blob()</text>
<text text-anchor="start" x="8" y="-255.5" font-family="Helvetica,sans-Serif" font-size="10.00">+ Blob()</text>
<text text-anchor="start" x="8" y="-244.5" font-family="Helvetica,sans-Serif" font-size="10.00">+ Blob()</text>
<text text-anchor="start" x="8" y="-233.5" font-family="Helvetica,sans-Serif" font-size="10.00">+ Blob()</text>
<text text-anchor="start" x="8" y="-222.5" font-family="Helvetica,sans-Serif" font-size="10.00">+ operator=()</text>
<text text-anchor="start" x="8" y="-211.5" font-family="Helvetica,sans-Serif" font-size="10.00">+ operator=()</text>
<text text-anchor="start" x="8" y="-200.5" font-family="Helvetica,sans-Serif" font-size="10.00">+ reverse()</text>
<text text-anchor="start" x="8" y="-189.5" font-family="Helvetica,sans-Serif" font-size="10.00">+ operator~()</text>
<text text-anchor="start" x="8" y="-178.5" font-family="Helvetica,sans-Serif" font-size="10.00">+ asVector()</text>
<text text-anchor="start" x="8" y="-167.5" font-family="Helvetica,sans-Serif" font-size="10.00">and 9 more...</text>
<text text-anchor="start" x="8" y="-156.5" font-family="Helvetica,sans-Serif" font-size="10.00"># assign()</text>
<text text-anchor="start" x="8" y="-145.5" font-family="Helvetica,sans-Serif" font-size="10.00"># assign()</text>
</a>
</g>
</g>
<!-- Node3&#45;&gt;Node8 -->
<g id="edge9" class="edge">
<title>Node3&#45;&gt;Node8</title>
<path fill="none" stroke="orange" d="M78.07,-423.9C71.73,-413.05 66.26,-401.62 62.5,-390 59.48,-380.67 57.49,-370.79 56.28,-360.79"/>
<polygon fill="orange" stroke="orange" points="75.12,-425.78 83.34,-432.47 81.09,-422.11 75.12,-425.78"/>
<text text-anchor="middle" x="121" y="-382" font-family="Helvetica,sans-Serif" font-size="10.00"> &lt; SHA256_HASH_SIZE &gt;</text>
</g>
<!-- Node4 -->
<g id="node4" class="node">
<title>Node4</title>
<g id="a_node4"><a xlink:title=" ">
<polygon fill="white" stroke="#bfbfbf" points="78,-645.5 78,-702.5 209,-702.5 209,-645.5 78,-645.5"/>
<text text-anchor="middle" x="143.5" y="-690.5" font-family="Helvetica,sans-Serif" font-size="10.00">std::array&lt; value_type, N &gt;</text>
<polyline fill="none" stroke="#bfbfbf" points="78,-683.5 209,-683.5 "/>
<text text-anchor="start" x="86" y="-671.5" font-family="Helvetica,sans-Serif" font-size="10.00">+ elements</text>
<polyline fill="none" stroke="#bfbfbf" points="78,-664.5 209,-664.5 "/>
<text text-anchor="middle" x="143.5" y="-652.5" font-family="Helvetica,sans-Serif" font-size="10.00"> </text>
</a>
</g>
</g>
<!-- Node4&#45;&gt;Node3 -->
<g id="edge3" class="edge">
<title>Node4&#45;&gt;Node3</title>
<path fill="none" stroke="#404040" d="M143.5,-645.47C143.5,-635.23 143.5,-622.9 143.5,-609.84"/>
<polygon fill="none" stroke="#404040" points="143.5,-609.69 139.5,-603.69 143.5,-597.69 147.5,-603.69 143.5,-609.69"/>
<text text-anchor="middle" x="159.5" y="-619" font-family="Helvetica,sans-Serif" font-size="10.00"> #data_</text>
</g>
<!-- Node5 -->
<g id="node5" class="node">
<title>Node5</title>
<g id="a_node5"><a xlink:title=" ">
<polygon fill="white" stroke="#bfbfbf" points="117.5,-797.5 117.5,-854.5 195.5,-854.5 195.5,-797.5 117.5,-797.5"/>
<text text-anchor="middle" x="156.5" y="-842.5" font-family="Helvetica,sans-Serif" font-size="10.00">std::array&lt; T &gt;</text>
<polyline fill="none" stroke="#bfbfbf" points="117.5,-835.5 195.5,-835.5 "/>
<text text-anchor="middle" x="156.5" y="-823.5" font-family="Helvetica,sans-Serif" font-size="10.00"> </text>
<polyline fill="none" stroke="#bfbfbf" points="117.5,-816.5 195.5,-816.5 "/>
<text text-anchor="middle" x="156.5" y="-804.5" font-family="Helvetica,sans-Serif" font-size="10.00"> </text>
</a>
</g>
</g>
<!-- Node5&#45;&gt;Node4 -->
<g id="edge4" class="edge">
<title>Node5&#45;&gt;Node4</title>
<path fill="none" stroke="orange" d="M141.45,-787.58C140.67,-784.71 140.01,-781.83 139.5,-779 134.92,-753.39 136.76,-723.68 139.24,-702.59"/>
<polygon fill="orange" stroke="orange" points="138.14,-788.71 144.45,-797.22 144.82,-786.63 138.14,-788.71"/>
<text text-anchor="middle" x="179" y="-747.5" font-family="Helvetica,sans-Serif" font-size="10.00"> &lt; value_type, N &gt;</text>
</g>
<!-- Node6 -->
<g id="node6" class="node">
<title>Node6</title>
<g id="a_node6"><a xlink:title=" ">
<polygon fill="white" stroke="#bfbfbf" points="205,-902.5 205,-959.5 234,-959.5 234,-902.5 205,-902.5"/>
<text text-anchor="middle" x="219.5" y="-947.5" font-family="Helvetica,sans-Serif" font-size="10.00">T</text>
<polyline fill="none" stroke="#bfbfbf" points="205,-940.5 234,-940.5 "/>
<text text-anchor="middle" x="219.5" y="-928.5" font-family="Helvetica,sans-Serif" font-size="10.00"> </text>
<polyline fill="none" stroke="#bfbfbf" points="205,-921.5 234,-921.5 "/>
<text text-anchor="middle" x="219.5" y="-909.5" font-family="Helvetica,sans-Serif" font-size="10.00"> </text>
</a>
</g>
</g>
<!-- Node6&#45;&gt;Node5 -->
<g id="edge5" class="edge">
<title>Node6&#45;&gt;Node5</title>
<path fill="none" stroke="#404040" d="M204.89,-906.11C197.49,-894.01 188.32,-879.03 179.97,-865.37"/>
<polygon fill="none" stroke="#404040" points="179.75,-865.01 173.2,-861.98 173.49,-854.77 180.03,-857.8 179.75,-865.01"/>
<text text-anchor="middle" x="214" y="-876" font-family="Helvetica,sans-Serif" font-size="10.00"> +elements</text>
</g>
<!-- Node7 -->
<g id="node7" class="node">
<title>Node7</title>
<g id="a_node7"><a xlink:title=" ">
<polygon fill="white" stroke="#bfbfbf" points="227.5,-721.5 227.5,-778.5 311.5,-778.5 311.5,-721.5 227.5,-721.5"/>
<text text-anchor="middle" x="269.5" y="-766.5" font-family="Helvetica,sans-Serif" font-size="10.00">std::vector&lt; T &gt;</text>
<polyline fill="none" stroke="#bfbfbf" points="227.5,-759.5 311.5,-759.5 "/>
<text text-anchor="middle" x="269.5" y="-747.5" font-family="Helvetica,sans-Serif" font-size="10.00"> </text>
<polyline fill="none" stroke="#bfbfbf" points="227.5,-740.5 311.5,-740.5 "/>
<text text-anchor="middle" x="269.5" y="-728.5" font-family="Helvetica,sans-Serif" font-size="10.00"> </text>
</a>
</g>
</g>
<!-- Node6&#45;&gt;Node7 -->
<g id="edge7" class="edge">
<title>Node6&#45;&gt;Node7</title>
<path fill="none" stroke="#404040" d="M233.36,-902.16C235.97,-896.26 238.5,-890 240.5,-884 250.72,-853.32 258.3,-817.44 263.14,-790.68"/>
<polygon fill="none" stroke="#404040" points="263.17,-790.54 260.26,-783.94 265.23,-778.72 268.14,-785.32 263.17,-790.54"/>
<text text-anchor="middle" x="268" y="-876" font-family="Helvetica,sans-Serif" font-size="10.00"> +elements</text>
</g>
<!-- Node7&#45;&gt;Node2 -->
<g id="edge6" class="edge">
<title>Node7&#45;&gt;Node2</title>
<path fill="none" stroke="orange" d="M267.66,-711.41C264.07,-644.37 254.9,-499.85 237.5,-379 232.8,-346.33 225.08,-309.45 219.27,-283.6"/>
<polygon fill="orange" stroke="orange" points="264.17,-711.69 268.19,-721.49 271.16,-711.32 264.17,-711.69"/>
<text text-anchor="middle" x="311" y="-619" font-family="Helvetica,sans-Serif" font-size="10.00"> &lt; altintegration::Blob &gt;</text>
</g>
<!-- Node8&#45;&gt;Node1 -->
<g id="edge8" class="edge">
<title>Node8&#45;&gt;Node1</title>
<path fill="none" stroke="#404040" d="M104.77,-138.34C109.21,-125.87 113.59,-113.59 117.63,-102.26"/>
<polygon fill="none" stroke="#404040" points="117.67,-102.14 115.92,-95.14 121.7,-90.83 123.45,-97.83 117.67,-102.14"/>
<text text-anchor="middle" x="134.5" y="-112" font-family="Helvetica,sans-Serif" font-size="10.00"> +subject</text>
</g>
</g>
</svg>
