<?xml version="1.0" encoding="UTF-8" standalone="no"?>
<!DOCTYPE svg PUBLIC "-//W3C//DTD SVG 1.1//EN"
 "http://www.w3.org/Graphics/SVG/1.1/DTD/svg11.dtd">
<!-- Generated by graphviz version 2.49.3 (20211027.1534)
 -->
<!-- Title: altintegration::adaptors::StorageIterator Pages: 1 -->
<svg width="456pt" height="325pt"
 viewBox="0.00 0.00 455.50 325.00" xmlns="http://www.w3.org/2000/svg" xmlns:xlink="http://www.w3.org/1999/xlink">
<g id="graph0" class="graph" transform="scale(1 1) rotate(0) translate(4 321)">
<title>altintegration::adaptors::StorageIterator</title>
<polygon fill="white" stroke="transparent" points="-4,4 -4,-321 451.5,-321 451.5,4 -4,4"/>
<!-- Node1 -->
<g id="node1" class="node">
<title>Node1</title>
<g id="a_node1"><a xlink:title=" ">
<polygon fill="#bfbfbf" stroke="black" points="161.5,-182.5 161.5,-316.5 275.5,-316.5 275.5,-182.5 161.5,-182.5"/>
<text text-anchor="start" x="169.5" y="-304.5" font-family="Helvetica,sans-Serif" font-size="10.00">altintegration::adaptors</text>
<text text-anchor="middle" x="218.5" y="-293.5" font-family="Helvetica,sans-Serif" font-size="10.00">::StorageIterator</text>
<polyline fill="none" stroke="black" points="161.5,-286.5 275.5,-286.5 "/>
<text text-anchor="middle" x="218.5" y="-274.5" font-family="Helvetica,sans-Serif" font-size="10.00"> </text>
<polyline fill="none" stroke="black" points="161.5,-267.5 275.5,-267.5 "/>
<text text-anchor="start" x="169.5" y="-255.5" font-family="Helvetica,sans-Serif" font-size="10.00">+ ~StorageIterator()</text>
<text text-anchor="start" x="169.5" y="-244.5" font-family="Helvetica,sans-Serif" font-size="10.00">+ value()</text>
<text text-anchor="start" x="169.5" y="-233.5" font-family="Helvetica,sans-Serif" font-size="10.00">+ key()</text>
<text text-anchor="start" x="169.5" y="-222.5" font-family="Helvetica,sans-Serif" font-size="10.00">+ next()</text>
<text text-anchor="start" x="169.5" y="-211.5" font-family="Helvetica,sans-Serif" font-size="10.00">+ valid()</text>
<text text-anchor="start" x="169.5" y="-200.5" font-family="Helvetica,sans-Serif" font-size="10.00">+ seek_start()</text>
<text text-anchor="start" x="169.5" y="-189.5" font-family="Helvetica,sans-Serif" font-size="10.00">+ seek()</text>
</a>
</g>
</g>
<!-- Node2 -->
<g id="node2" class="node">
<title>Node2</title>
<g id="a_node2"><a xlink:href="structaltintegration_1_1adaptors_1_1InmemStorageIterator.html" target="_top" xlink:title=" ">
<polygon fill="white" stroke="black" points="0,-0.5 0,-145.5 131,-145.5 131,-0.5 0,-0.5"/>
<text text-anchor="start" x="8" y="-133.5" font-family="Helvetica,sans-Serif" font-size="10.00">altintegration::adaptors</text>
<text text-anchor="middle" x="65.5" y="-122.5" font-family="Helvetica,sans-Serif" font-size="10.00">::InmemStorageIterator</text>
<polyline fill="none" stroke="black" points="0,-115.5 131,-115.5 "/>
<text text-anchor="middle" x="65.5" y="-103.5" font-family="Helvetica,sans-Serif" font-size="10.00"> </text>
<polyline fill="none" stroke="black" points="0,-96.5 131,-96.5 "/>
<text text-anchor="start" x="8" y="-84.5" font-family="Helvetica,sans-Serif" font-size="10.00">+ ~InmemStorageIterator()</text>
<text text-anchor="start" x="8" y="-73.5" font-family="Helvetica,sans-Serif" font-size="10.00">+ InmemStorageIterator()</text>
<text text-anchor="start" x="8" y="-62.5" font-family="Helvetica,sans-Serif" font-size="10.00">+ value()</text>
<text text-anchor="start" x="8" y="-51.5" font-family="Helvetica,sans-Serif" font-size="10.00">+ key()</text>
<text text-anchor="start" x="8" y="-40.5" font-family="Helvetica,sans-Serif" font-size="10.00">+ next()</text>
<text text-anchor="start" x="8" y="-29.5" font-family="Helvetica,sans-Serif" font-size="10.00">+ valid()</text>
<text text-anchor="start" x="8" y="-18.5" font-family="Helvetica,sans-Serif" font-size="10.00">+ seek_start()</text>
<text text-anchor="start" x="8" y="-7.5" font-family="Helvetica,sans-Serif" font-size="10.00">+ seek()</text>
</a>
</g>
</g>
<!-- Node1&#45;&gt;Node2 -->
<g id="edge1" class="edge">
<title>Node1&#45;&gt;Node2</title>
<path fill="none" stroke="midnightblue" d="M154.27,-175.24C145.69,-165.46 136.91,-155.44 128.36,-145.69"/>
<polygon fill="none" stroke="midnightblue" points="151.87,-177.81 161.09,-183.03 157.13,-173.2 151.87,-177.81"/>
</g>
<!-- Node3 -->
<g id="node3" class="node">
<title>Node3</title>
<g id="a_node3"><a xlink:href="structaltintegration_1_1adaptors_1_1LevelDBStorageIterator.html" target="_top" xlink:title=" ">
<polygon fill="white" stroke="black" points="149.5,-0.5 149.5,-145.5 287.5,-145.5 287.5,-0.5 149.5,-0.5"/>
<text text-anchor="start" x="157.5" y="-133.5" font-family="Helvetica,sans-Serif" font-size="10.00">altintegration::adaptors</text>
<text text-anchor="middle" x="218.5" y="-122.5" font-family="Helvetica,sans-Serif" font-size="10.00">::LevelDBStorageIterator</text>
<polyline fill="none" stroke="black" points="149.5,-115.5 287.5,-115.5 "/>
<text text-anchor="middle" x="218.5" y="-103.5" font-family="Helvetica,sans-Serif" font-size="10.00"> </text>
<polyline fill="none" stroke="black" points="149.5,-96.5 287.5,-96.5 "/>
<text text-anchor="start" x="157.5" y="-84.5" font-family="Helvetica,sans-Serif" font-size="10.00">+ ~LevelDBStorageIterator()</text>
<text text-anchor="start" x="157.5" y="-73.5" font-family="Helvetica,sans-Serif" font-size="10.00">+ LevelDBStorageIterator()</text>
<text text-anchor="start" x="157.5" y="-62.5" font-family="Helvetica,sans-Serif" font-size="10.00">+ value()</text>
<text text-anchor="start" x="157.5" y="-51.5" font-family="Helvetica,sans-Serif" font-size="10.00">+ key()</text>
<text text-anchor="start" x="157.5" y="-40.5" font-family="Helvetica,sans-Serif" font-size="10.00">+ next()</text>
<text text-anchor="start" x="157.5" y="-29.5" font-family="Helvetica,sans-Serif" font-size="10.00">+ valid()</text>
<text text-anchor="start" x="157.5" y="-18.5" font-family="Helvetica,sans-Serif" font-size="10.00">+ seek_start()</text>
<text text-anchor="start" x="157.5" y="-7.5" font-family="Helvetica,sans-Serif" font-size="10.00">+ seek()</text>
</a>
</g>
</g>
<!-- Node1&#45;&gt;Node3 -->
<g id="edge2" class="edge">
<title>Node1&#45;&gt;Node3</title>
<path fill="none" stroke="midnightblue" d="M218.5,-171.84C218.5,-163.09 218.5,-154.2 218.5,-145.51"/>
<polygon fill="none" stroke="midnightblue" points="215,-172.03 218.5,-182.03 222,-172.03 215,-172.03"/>
</g>
<!-- Node4 -->
<g id="node4" class="node">
<title>Node4</title>
<g id="a_node4"><a xlink:href="structaltintegration_1_1adaptors_1_1RocksDBStorageIterator.html" target="_top" xlink:title=" ">
<polygon fill="white" stroke="black" points="305.5,-0.5 305.5,-145.5 447.5,-145.5 447.5,-0.5 305.5,-0.5"/>
<text text-anchor="start" x="313.5" y="-133.5" font-family="Helvetica,sans-Serif" font-size="10.00">altintegration::adaptors</text>
<text text-anchor="middle" x="376.5" y="-122.5" font-family="Helvetica,sans-Serif" font-size="10.00">::RocksDBStorageIterator</text>
<polyline fill="none" stroke="black" points="305.5,-115.5 447.5,-115.5 "/>
<text text-anchor="middle" x="376.5" y="-103.5" font-family="Helvetica,sans-Serif" font-size="10.00"> </text>
<polyline fill="none" stroke="black" points="305.5,-96.5 447.5,-96.5 "/>
<text text-anchor="start" x="313.5" y="-84.5" font-family="Helvetica,sans-Serif" font-size="10.00">+ ~RocksDBStorageIterator()</text>
<text text-anchor="start" x="313.5" y="-73.5" font-family="Helvetica,sans-Serif" font-size="10.00">+ RocksDBStorageIterator()</text>
<text text-anchor="start" x="313.5" y="-62.5" font-family="Helvetica,sans-Serif" font-size="10.00">+ value()</text>
<text text-anchor="start" x="313.5" y="-51.5" font-family="Helvetica,sans-Serif" font-size="10.00">+ key()</text>
<text text-anchor="start" x="313.5" y="-40.5" font-family="Helvetica,sans-Serif" font-size="10.00">+ next()</text>
<text text-anchor="start" x="313.5" y="-29.5" font-family="Helvetica,sans-Serif" font-size="10.00">+ valid()</text>
<text text-anchor="start" x="313.5" y="-18.5" font-family="Helvetica,sans-Serif" font-size="10.00">+ seek_start()</text>
<text text-anchor="start" x="313.5" y="-7.5" font-family="Helvetica,sans-Serif" font-size="10.00">+ seek()</text>
</a>
</g>
</g>
<!-- Node1&#45;&gt;Node4 -->
<g id="edge3" class="edge">
<title>Node1&#45;&gt;Node4</title>
<path fill="none" stroke="midnightblue" d="M282.45,-177.87C292.02,-167.3 301.9,-156.39 311.49,-145.79"/>
<polygon fill="none" stroke="midnightblue" points="279.66,-175.74 275.54,-185.5 284.85,-180.44 279.66,-175.74"/>
</g>
</g>
</svg>
