<?xml version="1.0" encoding="UTF-8" standalone="no"?>
<!DOCTYPE svg PUBLIC "-//W3C//DTD SVG 1.1//EN"
 "http://www.w3.org/Graphics/SVG/1.1/DTD/svg11.dtd">
<!-- Generated by graphviz version 3.0.0 (20220413.0106)
 -->
<!-- Title: altintegration::BaseBlockTree&lt; Block &gt; Pages: 1 -->
<svg width="1345pt" height="1180pt"
 viewBox="0.00 0.00 1344.50 1180.00" xmlns="http://www.w3.org/2000/svg" xmlns:xlink="http://www.w3.org/1999/xlink">
<g id="graph0" class="graph" transform="scale(1 1) rotate(0) translate(4 1176)">
<title>altintegration::BaseBlockTree&lt; Block &gt;</title>
<polygon fill="white" stroke="transparent" points="-4,4 -4,-1176 1340.5,-1176 1340.5,4 -4,4"/>
<!-- Node1 -->
<g id="node1" class="node">
<title>Node1</title>
<g id="a_node1"><a xlink:title="Base block tree that stores all blocks, maintains tree tips, maintains active chain.">
<polygon fill="#bfbfbf" stroke="black" points="755.5,-0.5 755.5,-266.5 907.5,-266.5 907.5,-0.5 755.5,-0.5"/>
<text text-anchor="start" x="763.5" y="-254.5" font-family="Helvetica,sans-Serif" font-size="10.00">altintegration::BaseBlock</text>
<text text-anchor="middle" x="831.5" y="-243.5" font-family="Helvetica,sans-Serif" font-size="10.00">Tree&lt; Block &gt;</text>
<polyline fill="none" stroke="black" points="755.5,-236.5 907.5,-236.5 "/>
<text text-anchor="start" x="763.5" y="-224.5" font-family="Helvetica,sans-Serif" font-size="10.00">+ onBlockBeforeDeallocated</text>
<text text-anchor="start" x="763.5" y="-213.5" font-family="Helvetica,sans-Serif" font-size="10.00">+ onBlockValidityChanged</text>
<text text-anchor="start" x="763.5" y="-202.5" font-family="Helvetica,sans-Serif" font-size="10.00">+ onBeforeOverrideTip</text>
<text text-anchor="start" x="763.5" y="-191.5" font-family="Helvetica,sans-Serif" font-size="10.00"># isLoadingBlocks_</text>
<text text-anchor="start" x="763.5" y="-180.5" font-family="Helvetica,sans-Serif" font-size="10.00"># isLoaded_</text>
<polyline fill="none" stroke="black" points="755.5,-173.5 907.5,-173.5 "/>
<text text-anchor="start" x="763.5" y="-161.5" font-family="Helvetica,sans-Serif" font-size="10.00">+ getTips()</text>
<text text-anchor="start" x="763.5" y="-150.5" font-family="Helvetica,sans-Serif" font-size="10.00">+ getBlocks()</text>
<text text-anchor="start" x="763.5" y="-139.5" font-family="Helvetica,sans-Serif" font-size="10.00">+ getAllBlocks()</text>
<text text-anchor="start" x="763.5" y="-128.5" font-family="Helvetica,sans-Serif" font-size="10.00">+ getBlockProvider()</text>
<text text-anchor="start" x="763.5" y="-117.5" font-family="Helvetica,sans-Serif" font-size="10.00">+ ~BaseBlockTree()</text>
<text text-anchor="start" x="763.5" y="-106.5" font-family="Helvetica,sans-Serif" font-size="10.00">+ BaseBlockTree()</text>
<text text-anchor="start" x="763.5" y="-95.5" font-family="Helvetica,sans-Serif" font-size="10.00">+ BaseBlockTree()</text>
<text text-anchor="start" x="763.5" y="-84.5" font-family="Helvetica,sans-Serif" font-size="10.00">+ operator=()</text>
<text text-anchor="start" x="763.5" y="-73.5" font-family="Helvetica,sans-Serif" font-size="10.00">+ BaseBlockTree()</text>
<text text-anchor="start" x="763.5" y="-62.5" font-family="Helvetica,sans-Serif" font-size="10.00">+ operator=()</text>
<text text-anchor="start" x="763.5" y="-51.5" font-family="Helvetica,sans-Serif" font-size="10.00">and 25 more...</text>
<text text-anchor="start" x="763.5" y="-40.5" font-family="Helvetica,sans-Serif" font-size="10.00"># deallocateBlock()</text>
<text text-anchor="start" x="763.5" y="-29.5" font-family="Helvetica,sans-Serif" font-size="10.00"># toPrettyString()</text>
<text text-anchor="start" x="763.5" y="-18.5" font-family="Helvetica,sans-Serif" font-size="10.00"># decreaseAppliedBlockCount()</text>
<text text-anchor="start" x="763.5" y="-7.5" font-family="Helvetica,sans-Serif" font-size="10.00"># decreaseAppliedBlockCount()</text>
</a>
</g>
</g>
<!-- Node2 -->
<g id="node2" class="node">
<title>Node2</title>
<g id="a_node2"><a xlink:title=" ">
<polygon fill="white" stroke="black" points="34,-364 34,-443 171,-443 171,-364 34,-364"/>
<text text-anchor="start" x="42" y="-431" font-family="Helvetica,sans-Serif" font-size="10.00">std::unordered_map</text>
<text text-anchor="start" x="42" y="-420" font-family="Helvetica,sans-Serif" font-size="10.00">&lt; prev_block_hash_t,</text>
<text text-anchor="middle" x="102.5" y="-409" font-family="Helvetica,sans-Serif" font-size="10.00"> std::unique_ptr&lt; index_t &gt; &gt;</text>
<polyline fill="none" stroke="black" points="34,-402 171,-402 "/>
<text text-anchor="start" x="42" y="-390" font-family="Helvetica,sans-Serif" font-size="10.00">+ keys</text>
<polyline fill="none" stroke="black" points="34,-383 171,-383 "/>
<text text-anchor="middle" x="102.5" y="-371" font-family="Helvetica,sans-Serif" font-size="10.00"> </text>
</a>
</g>
</g>
<!-- Node2&#45;&gt;Node1 -->
<g id="edge1" class="edge">
<title>Node2&#45;&gt;Node1</title>
<path fill="none" stroke="#404040" d="M171.08,-377.29C304.03,-328.41 596.63,-220.84 743.61,-166.81"/>
<polygon fill="none" stroke="#404040" points="743.96,-166.68 748.21,-160.86 755.22,-162.54 750.97,-168.37 743.96,-166.68"/>
<text text-anchor="middle" x="423.5" y="-288" font-family="Helvetica,sans-Serif" font-size="10.00"> #blocks_</text>
</g>
<!-- Node3 -->
<g id="node3" class="node">
<title>Node3</title>
<g id="a_node3"><a xlink:title=" ">
<polygon fill="white" stroke="black" points="0,-781.5 0,-838.5 127,-838.5 127,-781.5 0,-781.5"/>
<text text-anchor="middle" x="63.5" y="-826.5" font-family="Helvetica,sans-Serif" font-size="10.00">std::unique_ptr&lt; index_t &gt;</text>
<polyline fill="none" stroke="black" points="0,-819.5 127,-819.5 "/>
<text text-anchor="start" x="8" y="-807.5" font-family="Helvetica,sans-Serif" font-size="10.00">+ ptr</text>
<polyline fill="none" stroke="black" points="0,-800.5 127,-800.5 "/>
<text text-anchor="start" x="8" y="-788.5" font-family="Helvetica,sans-Serif" font-size="10.00">+ operator&#45;&gt;()</text>
</a>
</g>
</g>
<!-- Node3&#45;&gt;Node2 -->
<g id="edge2" class="edge">
<title>Node3&#45;&gt;Node2</title>
<path fill="none" stroke="#404040" d="M55.8,-781.46C54.43,-775.42 53.21,-769.03 52.5,-763 41.47,-669.43 37.07,-643.95 52.5,-551 57.99,-517.94 69.99,-482.33 80.86,-454.5"/>
<polygon fill="none" stroke="#404040" points="80.97,-454.22 79.49,-447.16 85.43,-443.08 86.91,-450.13 80.97,-454.22"/>
<text text-anchor="middle" x="77" y="-654.5" font-family="Helvetica,sans-Serif" font-size="10.00"> +elements</text>
</g>
<!-- Node4 -->
<g id="node4" class="node">
<title>Node4</title>
<g id="a_node4"><a xlink:title=" ">
<polygon fill="white" stroke="black" points="34.5,-933.5 34.5,-990.5 136.5,-990.5 136.5,-933.5 34.5,-933.5"/>
<text text-anchor="middle" x="85.5" y="-978.5" font-family="Helvetica,sans-Serif" font-size="10.00">std::unique_ptr&lt; T &gt;</text>
<polyline fill="none" stroke="black" points="34.5,-971.5 136.5,-971.5 "/>
<text text-anchor="middle" x="85.5" y="-959.5" font-family="Helvetica,sans-Serif" font-size="10.00"> </text>
<polyline fill="none" stroke="black" points="34.5,-952.5 136.5,-952.5 "/>
<text text-anchor="start" x="42.5" y="-940.5" font-family="Helvetica,sans-Serif" font-size="10.00">+ operator&#45;&gt;()</text>
</a>
</g>
</g>
<!-- Node4&#45;&gt;Node3 -->
<g id="edge3" class="edge">
<title>Node4&#45;&gt;Node3</title>
<path fill="none" stroke="orange" d="M80,-923.47C76.13,-897.11 71.04,-862.43 67.55,-838.59"/>
<polygon fill="orange" stroke="orange" points="76.55,-924.1 81.46,-933.49 83.48,-923.09 76.55,-924.1"/>
<text text-anchor="middle" x="103.5" y="-883.5" font-family="Helvetica,sans-Serif" font-size="10.00"> &lt; index_t &gt;</text>
</g>
<!-- Node5 -->
<g id="node5" class="node">
<title>Node5</title>
<g id="a_node5"><a xlink:title=" ">
<polygon fill="white" stroke="#bfbfbf" points="147,-1114.5 147,-1171.5 176,-1171.5 176,-1114.5 147,-1114.5"/>
<text text-anchor="middle" x="161.5" y="-1159.5" font-family="Helvetica,sans-Serif" font-size="10.00">T</text>
<polyline fill="none" stroke="#bfbfbf" points="147,-1152.5 176,-1152.5 "/>
<text text-anchor="middle" x="161.5" y="-1140.5" font-family="Helvetica,sans-Serif" font-size="10.00"> </text>
<polyline fill="none" stroke="#bfbfbf" points="147,-1133.5 176,-1133.5 "/>
<text text-anchor="middle" x="161.5" y="-1121.5" font-family="Helvetica,sans-Serif" font-size="10.00"> </text>
</a>
</g>
</g>
<!-- Node5&#45;&gt;Node4 -->
<g id="edge4" class="edge">
<title>Node5&#45;&gt;Node4</title>
<path fill="none" stroke="#404040" d="M146.81,-1124.98C140.2,-1116.67 132.73,-1106.26 127.5,-1096 112.25,-1066.06 101.19,-1029.51 94.26,-1002.3"/>
<polygon fill="none" stroke="#404040" points="94.23,-1002.17 88.92,-997.3 91.37,-990.52 96.68,-995.39 94.23,-1002.17"/>
<text text-anchor="middle" x="137.5" y="-1088" font-family="Helvetica,sans-Serif" font-size="10.00"> +ptr</text>
</g>
<!-- Node6 -->
<g id="node6" class="node">
<title>Node6</title>
<g id="a_node6"><a xlink:title=" ">
<polygon fill="white" stroke="black" points="111,-623 111,-691 212,-691 212,-623 111,-623"/>
<text text-anchor="start" x="119" y="-679" font-family="Helvetica,sans-Serif" font-size="10.00">std::unordered_map</text>
<text text-anchor="middle" x="161.5" y="-668" font-family="Helvetica,sans-Serif" font-size="10.00">&lt; K, T &gt;</text>
<polyline fill="none" stroke="black" points="111,-661 212,-661 "/>
<text text-anchor="middle" x="161.5" y="-649" font-family="Helvetica,sans-Serif" font-size="10.00"> </text>
<polyline fill="none" stroke="black" points="111,-642 212,-642 "/>
<text text-anchor="middle" x="161.5" y="-630" font-family="Helvetica,sans-Serif" font-size="10.00"> </text>
</a>
</g>
</g>
<!-- Node5&#45;&gt;Node6 -->
<g id="edge7" class="edge">
<title>Node5&#45;&gt;Node6</title>
<path fill="none" stroke="#404040" d="M161.5,-1114.24C161.5,-1034.19 161.5,-802.33 161.5,-703.5"/>
<polygon fill="none" stroke="#404040" points="161.5,-703.29 157.5,-697.29 161.5,-691.29 165.5,-697.29 161.5,-703.29"/>
<text text-anchor="middle" x="186" y="-959.5" font-family="Helvetica,sans-Serif" font-size="10.00"> +elements</text>
</g>
<!-- Node14 -->
<g id="node14" class="node">
<title>Node14</title>
<g id="a_node14"><a xlink:title=" ">
<polygon fill="white" stroke="black" points="239,-1009.5 239,-1066.5 342,-1066.5 342,-1009.5 239,-1009.5"/>
<text text-anchor="middle" x="290.5" y="-1054.5" font-family="Helvetica,sans-Serif" font-size="10.00">std::shared_ptr&lt; T &gt;</text>
<polyline fill="none" stroke="black" points="239,-1047.5 342,-1047.5 "/>
<text text-anchor="middle" x="290.5" y="-1035.5" font-family="Helvetica,sans-Serif" font-size="10.00"> </text>
<polyline fill="none" stroke="black" points="239,-1028.5 342,-1028.5 "/>
<text text-anchor="start" x="247" y="-1016.5" font-family="Helvetica,sans-Serif" font-size="10.00">+ operator&#45;&gt;()</text>
</a>
</g>
</g>
<!-- Node5&#45;&gt;Node14 -->
<g id="edge18" class="edge">
<title>Node5&#45;&gt;Node14</title>
<path fill="none" stroke="#404040" d="M176.3,-1130.18C193.3,-1116.61 221.99,-1093.7 246.36,-1074.24"/>
<polygon fill="none" stroke="#404040" points="246.42,-1074.19 248.62,-1067.32 255.8,-1066.71 253.61,-1073.58 246.42,-1074.19"/>
<text text-anchor="middle" x="240.5" y="-1088" font-family="Helvetica,sans-Serif" font-size="10.00"> +ptr</text>
</g>
<!-- Node6&#45;&gt;Node2 -->
<g id="edge5" class="edge">
<title>Node6&#45;&gt;Node2</title>
<path fill="none" stroke="orange" d="M136.21,-614.16C123.73,-591.1 109.99,-561.45 103.5,-533 96.75,-503.42 96.89,-469 98.51,-443.23"/>
<polygon fill="orange" stroke="orange" points="133.19,-615.92 141.09,-622.97 139.31,-612.53 133.19,-615.92"/>
<text text-anchor="start" x="103.5" y="-525" font-family="Helvetica,sans-Serif" font-size="10.00"> &lt; prev_block_hash_t,</text>
<text text-anchor="middle" x="164" y="-514" font-family="Helvetica,sans-Serif" font-size="10.00"> std::unique_ptr&lt; index_t &gt; &gt;</text>
</g>
<!-- Node7 -->
<g id="node7" class="node">
<title>Node7</title>
<g id="a_node7"><a xlink:title=" ">
<polygon fill="white" stroke="#bfbfbf" points="275,-857.5 275,-914.5 304,-914.5 304,-857.5 275,-857.5"/>
<text text-anchor="middle" x="289.5" y="-902.5" font-family="Helvetica,sans-Serif" font-size="10.00">K</text>
<polyline fill="none" stroke="#bfbfbf" points="275,-895.5 304,-895.5 "/>
<text text-anchor="middle" x="289.5" y="-883.5" font-family="Helvetica,sans-Serif" font-size="10.00"> </text>
<polyline fill="none" stroke="#bfbfbf" points="275,-876.5 304,-876.5 "/>
<text text-anchor="middle" x="289.5" y="-864.5" font-family="Helvetica,sans-Serif" font-size="10.00"> </text>
</a>
</g>
</g>
<!-- Node7&#45;&gt;Node6 -->
<g id="edge6" class="edge">
<title>Node7&#45;&gt;Node6</title>
<path fill="none" stroke="#404040" d="M274.75,-865.71C268.82,-857.63 262.07,-848.03 256.5,-839 228.55,-793.7 200.74,-739.35 182.5,-702.11"/>
<polygon fill="none" stroke="#404040" points="182.41,-701.92 176.19,-698.27 177.16,-691.13 183.38,-694.77 182.41,-701.92"/>
<text text-anchor="middle" x="271" y="-807.5" font-family="Helvetica,sans-Serif" font-size="10.00"> +keys</text>
</g>
<!-- Node12 -->
<g id="node12" class="node">
<title>Node12</title>
<g id="a_node12"><a xlink:title=" ">
<polygon fill="white" stroke="black" points="367,-628.5 367,-685.5 438,-685.5 438,-628.5 367,-628.5"/>
<text text-anchor="middle" x="402.5" y="-673.5" font-family="Helvetica,sans-Serif" font-size="10.00">std::set&lt; K &gt;</text>
<polyline fill="none" stroke="black" points="367,-666.5 438,-666.5 "/>
<text text-anchor="middle" x="402.5" y="-654.5" font-family="Helvetica,sans-Serif" font-size="10.00"> </text>
<polyline fill="none" stroke="black" points="367,-647.5 438,-647.5 "/>
<text text-anchor="middle" x="402.5" y="-635.5" font-family="Helvetica,sans-Serif" font-size="10.00"> </text>
</a>
</g>
</g>
<!-- Node7&#45;&gt;Node12 -->
<g id="edge15" class="edge">
<title>Node7&#45;&gt;Node12</title>
<path fill="none" stroke="#404040" d="M304.15,-866.3C310.21,-858.15 317.06,-848.34 322.5,-839 349.7,-792.24 373.71,-734.53 388.16,-697.02"/>
<polygon fill="none" stroke="#404040" points="388.24,-696.81 386.63,-689.78 392.51,-685.6 394.11,-692.63 388.24,-696.81"/>
<text text-anchor="middle" x="368" y="-807.5" font-family="Helvetica,sans-Serif" font-size="10.00"> +keys</text>
</g>
<!-- Node15 -->
<g id="node15" class="node">
<title>Node15</title>
<g id="a_node15"><a xlink:title=" ">
<polygon fill="white" stroke="black" points="230,-628.5 230,-685.5 349,-685.5 349,-628.5 230,-628.5"/>
<text text-anchor="middle" x="289.5" y="-673.5" font-family="Helvetica,sans-Serif" font-size="10.00">std::unordered_set&lt; K &gt;</text>
<polyline fill="none" stroke="black" points="230,-666.5 349,-666.5 "/>
<text text-anchor="middle" x="289.5" y="-654.5" font-family="Helvetica,sans-Serif" font-size="10.00"> </text>
<polyline fill="none" stroke="black" points="230,-647.5 349,-647.5 "/>
<text text-anchor="middle" x="289.5" y="-635.5" font-family="Helvetica,sans-Serif" font-size="10.00"> </text>
</a>
</g>
</g>
<!-- Node7&#45;&gt;Node15 -->
<g id="edge20" class="edge">
<title>Node7&#45;&gt;Node15</title>
<path fill="none" stroke="#404040" d="M289.5,-857.17C289.5,-817.23 289.5,-743.48 289.5,-697.8"/>
<polygon fill="none" stroke="#404040" points="289.5,-697.71 285.5,-691.71 289.5,-685.71 293.5,-691.71 289.5,-697.71"/>
<text text-anchor="middle" x="304" y="-807.5" font-family="Helvetica,sans-Serif" font-size="10.00"> +keys</text>
</g>
<!-- Node8 -->
<g id="node8" class="node">
<title>Node8</title>
<g id="a_node8"><a xlink:title=" ">
<polygon fill="white" stroke="black" points="385,-369.5 385,-437.5 532,-437.5 532,-369.5 385,-369.5"/>
<text text-anchor="start" x="393" y="-425.5" font-family="Helvetica,sans-Serif" font-size="10.00">std::unordered_set</text>
<text text-anchor="middle" x="458.5" y="-414.5" font-family="Helvetica,sans-Serif" font-size="10.00">&lt; altintegration::BlockIndex * &gt;</text>
<polyline fill="none" stroke="black" points="385,-407.5 532,-407.5 "/>
<text text-anchor="middle" x="458.5" y="-395.5" font-family="Helvetica,sans-Serif" font-size="10.00"> </text>
<polyline fill="none" stroke="black" points="385,-388.5 532,-388.5 "/>
<text text-anchor="middle" x="458.5" y="-376.5" font-family="Helvetica,sans-Serif" font-size="10.00"> </text>
</a>
</g>
</g>
<!-- Node8&#45;&gt;Node1 -->
<g id="edge8" class="edge">
<title>Node8&#45;&gt;Node1</title>
<path fill="none" stroke="#404040" d="M485.82,-369.37C501.18,-351.82 521.29,-330.54 541.5,-314 605.15,-261.91 685.11,-213.5 744.94,-180.11"/>
<polygon fill="none" stroke="#404040" points="745,-180.08 748.31,-173.67 755.49,-174.26 752.18,-180.67 745,-180.08"/>
<text text-anchor="middle" x="593" y="-288" font-family="Helvetica,sans-Serif" font-size="10.00"> #tips_</text>
</g>
<!-- Node9 -->
<g id="node9" class="node">
<title>Node9</title>
<g id="a_node9"><a xlink:href="structaltintegration_1_1BlockIndex.html" target="_top" xlink:title="A node in a block tree.">
<polygon fill="white" stroke="black" points="500,-551.5 500,-762.5 625,-762.5 625,-551.5 500,-551.5"/>
<text text-anchor="start" x="508" y="-750.5" font-family="Helvetica,sans-Serif" font-size="10.00">altintegration::BlockIndex</text>
<text text-anchor="middle" x="562.5" y="-739.5" font-family="Helvetica,sans-Serif" font-size="10.00">&lt; Block &gt;</text>
<polyline fill="none" stroke="black" points="500,-732.5 625,-732.5 "/>
<text text-anchor="start" x="508" y="-720.5" font-family="Helvetica,sans-Serif" font-size="10.00">+ finalized</text>
<text text-anchor="start" x="508" y="-709.5" font-family="Helvetica,sans-Serif" font-size="10.00"># height</text>
<text text-anchor="start" x="508" y="-698.5" font-family="Helvetica,sans-Serif" font-size="10.00"># status</text>
<text text-anchor="start" x="508" y="-687.5" font-family="Helvetica,sans-Serif" font-size="10.00"># dirty</text>
<polyline fill="none" stroke="black" points="500,-680.5 625,-680.5 "/>
<text text-anchor="start" x="508" y="-668.5" font-family="Helvetica,sans-Serif" font-size="10.00">+ BlockIndex()</text>
<text text-anchor="start" x="508" y="-657.5" font-family="Helvetica,sans-Serif" font-size="10.00">+ BlockIndex()</text>
<text text-anchor="start" x="508" y="-646.5" font-family="Helvetica,sans-Serif" font-size="10.00">+ ~BlockIndex()</text>
<text text-anchor="start" x="508" y="-635.5" font-family="Helvetica,sans-Serif" font-size="10.00">+ disconnectFromPrev()</text>
<text text-anchor="start" x="508" y="-624.5" font-family="Helvetica,sans-Serif" font-size="10.00">+ isTip()</text>
<text text-anchor="start" x="508" y="-613.5" font-family="Helvetica,sans-Serif" font-size="10.00">+ BlockIndex()</text>
<text text-anchor="start" x="508" y="-602.5" font-family="Helvetica,sans-Serif" font-size="10.00">+ operator=()</text>
<text text-anchor="start" x="508" y="-591.5" font-family="Helvetica,sans-Serif" font-size="10.00">+ isDeleted()</text>
<text text-anchor="start" x="508" y="-580.5" font-family="Helvetica,sans-Serif" font-size="10.00">+ isRoot()</text>
<text text-anchor="start" x="508" y="-569.5" font-family="Helvetica,sans-Serif" font-size="10.00">+ restore()</text>
<text text-anchor="start" x="508" y="-558.5" font-family="Helvetica,sans-Serif" font-size="10.00">and 42 more...</text>
</a>
</g>
</g>
<!-- Node9&#45;&gt;Node8 -->
<g id="edge9" class="edge">
<title>Node9&#45;&gt;Node8</title>
<path fill="none" stroke="#404040" d="M549.64,-551.34C546.24,-537.49 541.94,-523.69 536.5,-511 526.71,-488.14 511.2,-465.53 496.59,-447.06"/>
<polygon fill="none" stroke="#404040" points="496.41,-446.84 489.52,-444.71 488.84,-437.53 495.72,-439.66 496.41,-446.84"/>
<text text-anchor="middle" x="558" y="-519.5" font-family="Helvetica,sans-Serif" font-size="10.00"> +keys</text>
</g>
<!-- Node9&#45;&gt;Node9 -->
<g id="edge11" class="edge">
<title>Node9&#45;&gt;Node9</title>
<path fill="none" stroke="#404040" d="M625.28,-680.35C635.76,-677.08 643,-669.3 643,-657 643,-649.5 640.31,-643.69 635.84,-639.54"/>
<polygon fill="none" stroke="#404040" points="635.76,-639.5 628.57,-640.06 625.28,-633.65 632.47,-633.08 635.76,-639.5"/>
<text text-anchor="middle" x="659.5" y="-654.5" font-family="Helvetica,sans-Serif" font-size="10.00"> +pprev</text>
</g>
<!-- Node11 -->
<g id="node11" class="node">
<title>Node11</title>
<g id="a_node11"><a xlink:title=" ">
<polygon fill="white" stroke="black" points="550.5,-369.5 550.5,-437.5 662.5,-437.5 662.5,-369.5 550.5,-369.5"/>
<text text-anchor="start" x="558.5" y="-425.5" font-family="Helvetica,sans-Serif" font-size="10.00">std::set&lt; altintegration</text>
<text text-anchor="middle" x="606.5" y="-414.5" font-family="Helvetica,sans-Serif" font-size="10.00">::BlockIndex * &gt;</text>
<polyline fill="none" stroke="black" points="550.5,-407.5 662.5,-407.5 "/>
<text text-anchor="middle" x="606.5" y="-395.5" font-family="Helvetica,sans-Serif" font-size="10.00"> </text>
<polyline fill="none" stroke="black" points="550.5,-388.5 662.5,-388.5 "/>
<text text-anchor="middle" x="606.5" y="-376.5" font-family="Helvetica,sans-Serif" font-size="10.00"> </text>
</a>
</g>
</g>
<!-- Node9&#45;&gt;Node11 -->
<g id="edge13" class="edge">
<title>Node9&#45;&gt;Node11</title>
<path fill="none" stroke="#404040" d="M622.88,-551.35C625.06,-545.25 626.96,-539.11 628.5,-533 635.42,-505.46 630.27,-474.05 623.23,-449.17"/>
<polygon fill="none" stroke="#404040" points="623.17,-449.01 617.59,-444.44 619.66,-437.54 625.24,-442.1 623.17,-449.01"/>
<text text-anchor="middle" x="647" y="-519.5" font-family="Helvetica,sans-Serif" font-size="10.00"> +keys</text>
</g>
<!-- Node10 -->
<g id="node10" class="node">
<title>Node10</title>
<g id="a_node10"><a xlink:title=" ">
<polygon fill="white" stroke="#bfbfbf" points="522.5,-857.5 522.5,-914.5 602.5,-914.5 602.5,-857.5 522.5,-857.5"/>
<text text-anchor="middle" x="562.5" y="-902.5" font-family="Helvetica,sans-Serif" font-size="10.00">Block::addon_t</text>
<polyline fill="none" stroke="#bfbfbf" points="522.5,-895.5 602.5,-895.5 "/>
<text text-anchor="middle" x="562.5" y="-883.5" font-family="Helvetica,sans-Serif" font-size="10.00"> </text>
<polyline fill="none" stroke="#bfbfbf" points="522.5,-876.5 602.5,-876.5 "/>
<text text-anchor="middle" x="562.5" y="-864.5" font-family="Helvetica,sans-Serif" font-size="10.00"> </text>
</a>
</g>
</g>
<!-- Node10&#45;&gt;Node9 -->
<g id="edge10" class="edge">
<title>Node10&#45;&gt;Node9</title>
<path fill="none" stroke="midnightblue" d="M562.5,-847.05C562.5,-823.79 562.5,-792.76 562.5,-762.58"/>
<polygon fill="none" stroke="midnightblue" points="559,-847.17 562.5,-857.17 566,-847.17 559,-847.17"/>
</g>
<!-- Node11&#45;&gt;Node9 -->
<g id="edge12" class="edge">
<title>Node11&#45;&gt;Node9</title>
<path fill="none" stroke="#404040" d="M602.5,-437.61C599.21,-463.62 594.17,-500.72 588.5,-533 588.12,-535.16 587.73,-537.35 587.33,-539.54"/>
<polygon fill="none" stroke="#404040" points="587.32,-539.62 590.15,-546.25 585.12,-551.42 582.29,-544.79 587.32,-539.62"/>
<text text-anchor="middle" x="608.5" y="-519.5" font-family="Helvetica,sans-Serif" font-size="10.00"> +pnext</text>
</g>
<!-- Node12&#45;&gt;Node11 -->
<g id="edge14" class="edge">
<title>Node12&#45;&gt;Node11</title>
<path fill="none" stroke="orange" d="M389.18,-618.9C380.13,-586.43 373.94,-540.03 399.5,-511 420.37,-487.29 513.22,-508.93 540.5,-493 562.35,-480.24 579.21,-457.11 590.42,-437.7"/>
<polygon fill="orange" stroke="orange" points="385.83,-619.91 392.04,-628.49 392.54,-617.91 385.83,-619.91"/>
<text text-anchor="middle" x="466" y="-519.5" font-family="Helvetica,sans-Serif" font-size="10.00"> &lt; altintegration::BlockIndex * &gt;</text>
</g>
<!-- Node13 -->
<g id="node13" class="node">
<title>Node13</title>
<g id="a_node13"><a xlink:title=" ">
<polygon fill="white" stroke="black" points="352.5,-857.5 352.5,-914.5 480.5,-914.5 480.5,-857.5 352.5,-857.5"/>
<text text-anchor="middle" x="416.5" y="-902.5" font-family="Helvetica,sans-Serif" font-size="10.00">std::shared_ptr&lt; block_t &gt;</text>
<polyline fill="none" stroke="black" points="352.5,-895.5 480.5,-895.5 "/>
<text text-anchor="start" x="360.5" y="-883.5" font-family="Helvetica,sans-Serif" font-size="10.00">+ ptr</text>
<polyline fill="none" stroke="black" points="352.5,-876.5 480.5,-876.5 "/>
<text text-anchor="start" x="360.5" y="-864.5" font-family="Helvetica,sans-Serif" font-size="10.00">+ operator&#45;&gt;()</text>
</a>
</g>
</g>
<!-- Node13&#45;&gt;Node9 -->
<g id="edge16" class="edge">
<title>Node13&#45;&gt;Node9</title>
<path fill="none" stroke="#404040" d="M434.4,-857.17C449.27,-834.04 471.44,-799.58 493.17,-765.8"/>
<polygon fill="none" stroke="#404040" points="493.4,-765.44 493.28,-758.23 499.89,-755.35 500.01,-762.56 493.4,-765.44"/>
<text text-anchor="middle" x="500" y="-807.5" font-family="Helvetica,sans-Serif" font-size="10.00"> #header</text>
</g>
<!-- Node14&#45;&gt;Node13 -->
<g id="edge17" class="edge">
<title>Node14&#45;&gt;Node13</title>
<path fill="none" stroke="orange" d="M320.27,-1001.56C342.61,-974.96 372.76,-939.07 393.32,-914.59"/>
<polygon fill="orange" stroke="orange" points="317.36,-999.58 313.61,-1009.49 322.72,-1004.08 317.36,-999.58"/>
<text text-anchor="middle" x="402" y="-959.5" font-family="Helvetica,sans-Serif" font-size="10.00"> &lt; block_t &gt;</text>
</g>
<!-- Node15&#45;&gt;Node8 -->
<g id="edge19" class="edge">
<title>Node15&#45;&gt;Node8</title>
<path fill="none" stroke="orange" d="M263.5,-619.61C245.01,-588.88 226.81,-544.62 247.5,-511 277.29,-462.6 336.6,-435.4 384.78,-420.62"/>
<polygon fill="orange" stroke="orange" points="260.66,-621.69 268.94,-628.3 266.59,-617.97 260.66,-621.69"/>
<text text-anchor="middle" x="314" y="-519.5" font-family="Helvetica,sans-Serif" font-size="10.00"> &lt; altintegration::BlockIndex * &gt;</text>
</g>
<!-- Node16 -->
<g id="node16" class="node">
<title>Node16</title>
<g id="a_node16"><a xlink:href="structaltintegration_1_1Chain.html" target="_top" xlink:title=" ">
<polygon fill="white" stroke="black" points="681,-314.5 681,-492.5 822,-492.5 822,-314.5 681,-314.5"/>
<text text-anchor="start" x="689" y="-480.5" font-family="Helvetica,sans-Serif" font-size="10.00">altintegration::Chain</text>
<text text-anchor="middle" x="751.5" y="-469.5" font-family="Helvetica,sans-Serif" font-size="10.00">&lt; altintegration::BlockIndex &gt;</text>
<polyline fill="none" stroke="black" points="681,-462.5 822,-462.5 "/>
<text text-anchor="middle" x="751.5" y="-450.5" font-family="Helvetica,sans-Serif" font-size="10.00"> </text>
<polyline fill="none" stroke="black" points="681,-443.5 822,-443.5 "/>
<text text-anchor="start" x="689" y="-431.5" font-family="Helvetica,sans-Serif" font-size="10.00">+ Chain()</text>
<text text-anchor="start" x="689" y="-420.5" font-family="Helvetica,sans-Serif" font-size="10.00">+ Chain()</text>
<text text-anchor="start" x="689" y="-409.5" font-family="Helvetica,sans-Serif" font-size="10.00">+ Chain()</text>
<text text-anchor="start" x="689" y="-398.5" font-family="Helvetica,sans-Serif" font-size="10.00">+ getStartHeight()</text>
<text text-anchor="start" x="689" y="-387.5" font-family="Helvetica,sans-Serif" font-size="10.00">+ firstHeight()</text>
<text text-anchor="start" x="689" y="-376.5" font-family="Helvetica,sans-Serif" font-size="10.00">+ contains()</text>
<text text-anchor="start" x="689" y="-365.5" font-family="Helvetica,sans-Serif" font-size="10.00">+ operator[]()</text>
<text text-anchor="start" x="689" y="-354.5" font-family="Helvetica,sans-Serif" font-size="10.00">+ next()</text>
<text text-anchor="start" x="689" y="-343.5" font-family="Helvetica,sans-Serif" font-size="10.00">+ chainHeight()</text>
<text text-anchor="start" x="689" y="-332.5" font-family="Helvetica,sans-Serif" font-size="10.00">+ empty()</text>
<text text-anchor="start" x="689" y="-321.5" font-family="Helvetica,sans-Serif" font-size="10.00">and 15 more...</text>
</a>
</g>
</g>
<!-- Node16&#45;&gt;Node1 -->
<g id="edge21" class="edge">
<title>Node16&#45;&gt;Node1</title>
<path fill="none" stroke="#404040" d="M777.81,-314.38C781.26,-302.81 784.86,-290.73 788.5,-278.54"/>
<polygon fill="none" stroke="#404040" points="788.56,-278.33 786.45,-271.44 792,-266.83 794.11,-273.73 788.56,-278.33"/>
<text text-anchor="middle" x="815.5" y="-288" font-family="Helvetica,sans-Serif" font-size="10.00"> #activeChain_</text>
</g>
<!-- Node17 -->
<g id="node17" class="node">
<title>Node17</title>
<g id="a_node17"><a xlink:href="structaltintegration_1_1Chain.html" target="_top" xlink:title="Fully in&#45;memory chain representation.">
<polygon fill="white" stroke="black" points="701,-568 701,-746 802,-746 802,-568 701,-568"/>
<text text-anchor="start" x="709" y="-734" font-family="Helvetica,sans-Serif" font-size="10.00">altintegration::Chain</text>
<text text-anchor="middle" x="751.5" y="-723" font-family="Helvetica,sans-Serif" font-size="10.00">&lt; BlockIndexT &gt;</text>
<polyline fill="none" stroke="black" points="701,-716 802,-716 "/>
<text text-anchor="middle" x="751.5" y="-704" font-family="Helvetica,sans-Serif" font-size="10.00"> </text>
<polyline fill="none" stroke="black" points="701,-697 802,-697 "/>
<text text-anchor="start" x="709" y="-685" font-family="Helvetica,sans-Serif" font-size="10.00">+ Chain()</text>
<text text-anchor="start" x="709" y="-674" font-family="Helvetica,sans-Serif" font-size="10.00">+ Chain()</text>
<text text-anchor="start" x="709" y="-663" font-family="Helvetica,sans-Serif" font-size="10.00">+ Chain()</text>
<text text-anchor="start" x="709" y="-652" font-family="Helvetica,sans-Serif" font-size="10.00">+ getStartHeight()</text>
<text text-anchor="start" x="709" y="-641" font-family="Helvetica,sans-Serif" font-size="10.00">+ firstHeight()</text>
<text text-anchor="start" x="709" y="-630" font-family="Helvetica,sans-Serif" font-size="10.00">+ contains()</text>
<text text-anchor="start" x="709" y="-619" font-family="Helvetica,sans-Serif" font-size="10.00">+ operator[]()</text>
<text text-anchor="start" x="709" y="-608" font-family="Helvetica,sans-Serif" font-size="10.00">+ next()</text>
<text text-anchor="start" x="709" y="-597" font-family="Helvetica,sans-Serif" font-size="10.00">+ chainHeight()</text>
<text text-anchor="start" x="709" y="-586" font-family="Helvetica,sans-Serif" font-size="10.00">+ empty()</text>
<text text-anchor="start" x="709" y="-575" font-family="Helvetica,sans-Serif" font-size="10.00">and 15 more...</text>
</a>
</g>
</g>
<!-- Node17&#45;&gt;Node16 -->
<g id="edge22" class="edge">
<title>Node17&#45;&gt;Node16</title>
<path fill="none" stroke="orange" d="M751.5,-557.59C751.5,-536.16 751.5,-513.61 751.5,-492.6"/>
<polygon fill="orange" stroke="orange" points="748,-557.68 751.5,-567.68 755,-557.68 748,-557.68"/>
<text text-anchor="middle" x="815" y="-519.5" font-family="Helvetica,sans-Serif" font-size="10.00"> &lt; altintegration::BlockIndex &gt;</text>
</g>
<!-- Node18 -->
<g id="node18" class="node">
<title>Node18</title>
<g id="a_node18"><a xlink:href="structaltintegration_1_1FinalizedPayloadsIndex.html" target="_top" xlink:title=" ">
<polygon fill="white" stroke="black" points="840,-331 840,-476 983,-476 983,-331 840,-331"/>
<text text-anchor="start" x="848" y="-464" font-family="Helvetica,sans-Serif" font-size="10.00">altintegration::Finalized</text>
<text text-anchor="start" x="848" y="-453" font-family="Helvetica,sans-Serif" font-size="10.00">PayloadsIndex&lt; altintegration</text>
<text text-anchor="middle" x="911.5" y="-442" font-family="Helvetica,sans-Serif" font-size="10.00">::BlockIndex &gt;</text>
<polyline fill="none" stroke="black" points="840,-435 983,-435 "/>
<text text-anchor="middle" x="911.5" y="-423" font-family="Helvetica,sans-Serif" font-size="10.00"> </text>
<polyline fill="none" stroke="black" points="840,-416 983,-416 "/>
<text text-anchor="start" x="848" y="-404" font-family="Helvetica,sans-Serif" font-size="10.00">+ find()</text>
<text text-anchor="start" x="848" y="-393" font-family="Helvetica,sans-Serif" font-size="10.00">+ empty()</text>
<text text-anchor="start" x="848" y="-382" font-family="Helvetica,sans-Serif" font-size="10.00">+ size()</text>
<text text-anchor="start" x="848" y="-371" font-family="Helvetica,sans-Serif" font-size="10.00">+ add()</text>
<text text-anchor="start" x="848" y="-360" font-family="Helvetica,sans-Serif" font-size="10.00">+ remove()</text>
<text text-anchor="start" x="848" y="-349" font-family="Helvetica,sans-Serif" font-size="10.00">+ addBlock()</text>
<text text-anchor="start" x="848" y="-338" font-family="Helvetica,sans-Serif" font-size="10.00">+ getAll()</text>
</a>
</g>
</g>
<!-- Node18&#45;&gt;Node1 -->
<g id="edge23" class="edge">
<title>Node18&#45;&gt;Node1</title>
<path fill="none" stroke="#404040" d="M890.06,-330.68C885.18,-314.32 879.82,-296.38 874.39,-278.19"/>
<polygon fill="none" stroke="#404040" points="874.35,-278.04 868.8,-273.43 870.91,-266.54 876.46,-271.14 874.35,-278.04"/>
<text text-anchor="middle" x="934" y="-288" font-family="Helvetica,sans-Serif" font-size="10.00"> #finalizedPayloadsIndex_</text>
</g>
<!-- Node19 -->
<g id="node19" class="node">
<title>Node19</title>
<g id="a_node19"><a xlink:href="structaltintegration_1_1FinalizedPayloadsIndex.html" target="_top" xlink:title="Stores a mapping &quot;payload id &#45;&gt; containing block&quot; hash of payloads that are stored in finalized block...">
<polygon fill="white" stroke="black" points="831,-590 831,-724 992,-724 992,-590 831,-590"/>
<text text-anchor="start" x="839" y="-712" font-family="Helvetica,sans-Serif" font-size="10.00">altintegration::Finalized</text>
<text text-anchor="middle" x="911.5" y="-701" font-family="Helvetica,sans-Serif" font-size="10.00">PayloadsIndex&lt; ContainerIndex &gt;</text>
<polyline fill="none" stroke="black" points="831,-694 992,-694 "/>
<text text-anchor="middle" x="911.5" y="-682" font-family="Helvetica,sans-Serif" font-size="10.00"> </text>
<polyline fill="none" stroke="black" points="831,-675 992,-675 "/>
<text text-anchor="start" x="839" y="-663" font-family="Helvetica,sans-Serif" font-size="10.00">+ find()</text>
<text text-anchor="start" x="839" y="-652" font-family="Helvetica,sans-Serif" font-size="10.00">+ empty()</text>
<text text-anchor="start" x="839" y="-641" font-family="Helvetica,sans-Serif" font-size="10.00">+ size()</text>
<text text-anchor="start" x="839" y="-630" font-family="Helvetica,sans-Serif" font-size="10.00">+ add()</text>
<text text-anchor="start" x="839" y="-619" font-family="Helvetica,sans-Serif" font-size="10.00">+ remove()</text>
<text text-anchor="start" x="839" y="-608" font-family="Helvetica,sans-Serif" font-size="10.00">+ addBlock()</text>
<text text-anchor="start" x="839" y="-597" font-family="Helvetica,sans-Serif" font-size="10.00">+ getAll()</text>
</a>
</g>
</g>
<!-- Node19&#45;&gt;Node18 -->
<g id="edge24" class="edge">
<title>Node19&#45;&gt;Node18</title>
<path fill="none" stroke="orange" d="M911.5,-579.9C911.5,-547.01 911.5,-508.72 911.5,-476.32"/>
<polygon fill="orange" stroke="orange" points="908,-579.92 911.5,-589.92 915,-579.92 908,-579.92"/>
<text text-anchor="middle" x="975" y="-519.5" font-family="Helvetica,sans-Serif" font-size="10.00"> &lt; altintegration::BlockIndex &gt;</text>
</g>
<!-- Node20 -->
<g id="node20" class="node">
<title>Node20</title>
<g id="a_node20"><a xlink:href="structaltintegration_1_1PayloadsIndex.html" target="_top" xlink:title=" ">
<polygon fill="white" stroke="black" points="1151.5,-336.5 1151.5,-470.5 1267.5,-470.5 1267.5,-336.5 1151.5,-336.5"/>
<text text-anchor="start" x="1159.5" y="-458.5" font-family="Helvetica,sans-Serif" font-size="10.00">altintegration::Payloads</text>
<text text-anchor="start" x="1159.5" y="-447.5" font-family="Helvetica,sans-Serif" font-size="10.00">Index&lt; altintegration</text>
<text text-anchor="middle" x="1209.5" y="-436.5" font-family="Helvetica,sans-Serif" font-size="10.00">::BlockIndex &gt;</text>
<polyline fill="none" stroke="black" points="1151.5,-429.5 1267.5,-429.5 "/>
<text text-anchor="middle" x="1209.5" y="-417.5" font-family="Helvetica,sans-Serif" font-size="10.00"> </text>
<polyline fill="none" stroke="black" points="1151.5,-410.5 1267.5,-410.5 "/>
<text text-anchor="start" x="1159.5" y="-398.5" font-family="Helvetica,sans-Serif" font-size="10.00">+ addBlock()</text>
<text text-anchor="start" x="1159.5" y="-387.5" font-family="Helvetica,sans-Serif" font-size="10.00">+ removeBlock()</text>
<text text-anchor="start" x="1159.5" y="-376.5" font-family="Helvetica,sans-Serif" font-size="10.00">+ add()</text>
<text text-anchor="start" x="1159.5" y="-365.5" font-family="Helvetica,sans-Serif" font-size="10.00">+ remove()</text>
<text text-anchor="start" x="1159.5" y="-354.5" font-family="Helvetica,sans-Serif" font-size="10.00">+ find()</text>
<text text-anchor="start" x="1159.5" y="-343.5" font-family="Helvetica,sans-Serif" font-size="10.00">+ getAll()</text>
</a>
</g>
</g>
<!-- Node20&#45;&gt;Node1 -->
<g id="edge25" class="edge">
<title>Node20&#45;&gt;Node1</title>
<path fill="none" stroke="#404040" d="M1163.98,-336.1C1157.24,-328.22 1150.01,-320.63 1142.5,-314 1075.01,-254.43 984.71,-204.95 918.8,-173.14"/>
<polygon fill="none" stroke="#404040" points="918.45,-172.97 911.31,-173.99 907.62,-167.79 914.76,-166.77 918.45,-172.97"/>
<text text-anchor="middle" x="1157" y="-288" font-family="Helvetica,sans-Serif" font-size="10.00"> #payloadsIndex_</text>
</g>
<!-- Node21 -->
<g id="node21" class="node">
<title>Node21</title>
<g id="a_node21"><a xlink:href="structaltintegration_1_1PayloadsIndex.html" target="_top" xlink:title="Payloads index that stores mapping &quot;payload id &#45;&gt; set of containing blocks&quot; from all NON&#45;FINALIZED bl...">
<polygon fill="white" stroke="black" points="1151.5,-595.5 1151.5,-718.5 1267.5,-718.5 1267.5,-595.5 1151.5,-595.5"/>
<text text-anchor="start" x="1159.5" y="-706.5" font-family="Helvetica,sans-Serif" font-size="10.00">altintegration::Payloads</text>
<text text-anchor="middle" x="1209.5" y="-695.5" font-family="Helvetica,sans-Serif" font-size="10.00">Index&lt; IndexT &gt;</text>
<polyline fill="none" stroke="black" points="1151.5,-688.5 1267.5,-688.5 "/>
<text text-anchor="middle" x="1209.5" y="-676.5" font-family="Helvetica,sans-Serif" font-size="10.00"> </text>
<polyline fill="none" stroke="black" points="1151.5,-669.5 1267.5,-669.5 "/>
<text text-anchor="start" x="1159.5" y="-657.5" font-family="Helvetica,sans-Serif" font-size="10.00">+ addBlock()</text>
<text text-anchor="start" x="1159.5" y="-646.5" font-family="Helvetica,sans-Serif" font-size="10.00">+ removeBlock()</text>
<text text-anchor="start" x="1159.5" y="-635.5" font-family="Helvetica,sans-Serif" font-size="10.00">+ add()</text>
<text text-anchor="start" x="1159.5" y="-624.5" font-family="Helvetica,sans-Serif" font-size="10.00">+ remove()</text>
<text text-anchor="start" x="1159.5" y="-613.5" font-family="Helvetica,sans-Serif" font-size="10.00">+ find()</text>
<text text-anchor="start" x="1159.5" y="-602.5" font-family="Helvetica,sans-Serif" font-size="10.00">+ getAll()</text>
</a>
</g>
</g>
<!-- Node21&#45;&gt;Node20 -->
<g id="edge26" class="edge">
<title>Node21&#45;&gt;Node20</title>
<path fill="none" stroke="orange" d="M1209.5,-585.05C1209.5,-549.17 1209.5,-505.9 1209.5,-470.72"/>
<polygon fill="orange" stroke="orange" points="1206,-585.44 1209.5,-595.44 1213,-585.44 1206,-585.44"/>
<text text-anchor="middle" x="1273" y="-519.5" font-family="Helvetica,sans-Serif" font-size="10.00"> &lt; altintegration::BlockIndex &gt;</text>
</g>
<!-- Node22 -->
<g id="node22" class="node">
<title>Node22</title>
<g id="a_node22"><a xlink:href="structaltintegration_1_1BlockReader.html" target="_top" xlink:title="An abstraction over on&#45;disk storage iterator.">
<polygon fill="white" stroke="black" points="1001.5,-320 1001.5,-487 1133.5,-487 1133.5,-320 1001.5,-320"/>
<text text-anchor="middle" x="1067.5" y="-475" font-family="Helvetica,sans-Serif" font-size="10.00">altintegration::BlockReader</text>
<polyline fill="none" stroke="black" points="1001.5,-468 1133.5,-468 "/>
<text text-anchor="middle" x="1067.5" y="-456" font-family="Helvetica,sans-Serif" font-size="10.00"> </text>
<polyline fill="none" stroke="black" points="1001.5,-449 1133.5,-449 "/>
<text text-anchor="start" x="1009.5" y="-437" font-family="Helvetica,sans-Serif" font-size="10.00">+ ~BlockReader()</text>
<text text-anchor="start" x="1009.5" y="-426" font-family="Helvetica,sans-Serif" font-size="10.00">+ getAltTip()</text>
<text text-anchor="start" x="1009.5" y="-415" font-family="Helvetica,sans-Serif" font-size="10.00">+ getVbkTip()</text>
<text text-anchor="start" x="1009.5" y="-404" font-family="Helvetica,sans-Serif" font-size="10.00">+ getBtcTip()</text>
<text text-anchor="start" x="1009.5" y="-393" font-family="Helvetica,sans-Serif" font-size="10.00">+ getBlock()</text>
<text text-anchor="start" x="1009.5" y="-382" font-family="Helvetica,sans-Serif" font-size="10.00">+ getBlock()</text>
<text text-anchor="start" x="1009.5" y="-371" font-family="Helvetica,sans-Serif" font-size="10.00">+ getBlock()</text>
<text text-anchor="start" x="1009.5" y="-360" font-family="Helvetica,sans-Serif" font-size="10.00">+ getAltBlockIterator()</text>
<text text-anchor="start" x="1009.5" y="-349" font-family="Helvetica,sans-Serif" font-size="10.00">+ getVbkBlockIterator()</text>
<text text-anchor="start" x="1009.5" y="-338" font-family="Helvetica,sans-Serif" font-size="10.00">+ getBtcBlockIterator()</text>
<text text-anchor="start" x="1009.5" y="-327" font-family="Helvetica,sans-Serif" font-size="10.00">and 6 more...</text>
</a>
</g>
</g>
<!-- Node22&#45;&gt;Node1 -->
<g id="edge27" class="edge">
<title>Node22&#45;&gt;Node1</title>
<path fill="none" stroke="#404040" d="M1019.4,-319.99C1011.25,-307.89 1002.5,-295.86 993.5,-285 970.6,-257.37 942.82,-229.85 916.78,-206.05"/>
<polygon fill="none" stroke="#404040" points="916.56,-205.84 909.42,-204.78 907.66,-197.79 914.79,-198.85 916.56,-205.84"/>
<text text-anchor="middle" x="1037" y="-288" font-family="Helvetica,sans-Serif" font-size="10.00"> #blockProvider_</text>
</g>
</g>
</svg>
