<?xml version="1.0" encoding="UTF-8" standalone="no"?>
<!DOCTYPE svg PUBLIC "-//W3C//DTD SVG 1.1//EN"
 "http://www.w3.org/Graphics/SVG/1.1/DTD/svg11.dtd">
<!-- Generated by graphviz version 2.47.0 (20210407.0042)
 -->
<!-- Title: altintegration::AltBlockTree Pages: 1 -->
<!--zoomable 1622 -->
<svg id="main" version="1.1" xmlns="http://www.w3.org/2000/svg" xmlns:xlink="http://www.w3.org/1999/xlink" xml:space="preserve" onload="init(evt)">
<style type="text/css"><![CDATA[
.edge:hover path { stroke: red; }
.edge:hover polygon { stroke: red; fill: red; }
]]></style>
<script type="text/javascript"><![CDATA[
var edges = document.getElementsByTagName('g');
if (edges && edges.length) {
  for (var i=0;i<edges.length;i++) {
    if (edges[i].id.substr(0,4)=='edge') {
      edges[i].setAttribute('class','edge');
    }
  }
}
]]></script>
        <defs>
                <circle id="rim" cx="0" cy="0" r="7"/>
                <circle id="rim2" cx="0" cy="0" r="3.5"/>
                <g id="zoomPlus">
                        <use xlink:href="#rim" fill="#404040">
                                <set attributeName="fill" to="#808080" begin="zoomplus.mouseover" end="zoomplus.mouseout"/>
                        </use>
                        <path d="M-4,0h8M0,-4v8" fill="none" stroke="white" stroke-width="1.5" pointer-events="none"/>
                </g>
                <g id="zoomMin">
                        <use xlink:href="#rim" fill="#404040">
                                <set attributeName="fill" to="#808080" begin="zoomminus.mouseover" end="zoomminus.mouseout"/>
                        </use>
                        <path d="M-4,0h8" fill="none" stroke="white" stroke-width="1.5" pointer-events="none"/>
                </g>
                <g id="dirArrow">
                        <path fill="none" stroke="white" stroke-width="1.5" d="M0,-3.0v7 M-2.5,-0.5L0,-3.0L2.5,-0.5"/>
                </g>
               <g id="resetDef">
                       <use xlink:href="#rim2" fill="#404040">
                               <set attributeName="fill" to="#808080" begin="reset.mouseover" end="reset.mouseout"/>
                       </use>
               </g>
        </defs>

<script type="text/javascript">
var viewWidth = 850;
var viewHeight = 1622;
var sectionId = 'dynsection-1';
</script>
<script xlink:href="svgpan.js"/>
<svg id="graph" class="graph">
<g id="viewport">
<title>altintegration::AltBlockTree</title>
<polygon fill="white" stroke="transparent" points="-4,4 -4,-1618 846,-1618 846,4 -4,4"/>
<!-- Node1 -->
<g id="node1" class="node">
<title>Node1</title>
<g id="a_node1"><a xlink:title="Represents simplified view on Altchain&#39;s block tree, maintains VBK tree and BTC tree.">
<polygon fill="#bfbfbf" stroke="black" points="205,-0.5 205,-233.5 340,-233.5 340,-0.5 205,-0.5"/>
<text text-anchor="middle" x="272.5" y="-221.5" font-family="Helvetica,sans-Serif" font-size="10.00">altintegration::AltBlockTree</text>
<polyline fill="none" stroke="black" points="205,-214.5 340,-214.5 "/>
<text text-anchor="start" x="213" y="-202.5" font-family="Helvetica,sans-Serif" font-size="10.00">+ onInvalidBlockConnected</text>
<text text-anchor="start" x="213" y="-191.5" font-family="Helvetica,sans-Serif" font-size="10.00">+ onBlockConnected</text>
<text text-anchor="start" x="213" y="-180.5" font-family="Helvetica,sans-Serif" font-size="10.00">+ onBeforeOverrideTip</text>
<polyline fill="none" stroke="black" points="205,-173.5 340,-173.5 "/>
<text text-anchor="start" x="213" y="-161.5" font-family="Helvetica,sans-Serif" font-size="10.00">+ ~AltBlockTree()</text>
<text text-anchor="start" x="213" y="-150.5" font-family="Helvetica,sans-Serif" font-size="10.00">+ AltBlockTree()</text>
<text text-anchor="start" x="213" y="-139.5" font-family="Helvetica,sans-Serif" font-size="10.00">+ acceptBlockHeader()</text>
<text text-anchor="start" x="213" y="-128.5" font-family="Helvetica,sans-Serif" font-size="10.00">+ acceptBlock()</text>
<text text-anchor="start" x="213" y="-117.5" font-family="Helvetica,sans-Serif" font-size="10.00">+ acceptBlock()</text>
<text text-anchor="start" x="213" y="-106.5" font-family="Helvetica,sans-Serif" font-size="10.00">+ acceptBlock()</text>
<text text-anchor="start" x="213" y="-95.5" font-family="Helvetica,sans-Serif" font-size="10.00">+ getConnectedTipsAfter()</text>
<text text-anchor="start" x="213" y="-84.5" font-family="Helvetica,sans-Serif" font-size="10.00">+ loadBlock()</text>
<text text-anchor="start" x="213" y="-73.5" font-family="Helvetica,sans-Serif" font-size="10.00">+ loadTip()</text>
<text text-anchor="start" x="213" y="-62.5" font-family="Helvetica,sans-Serif" font-size="10.00">+ comparePopScore()</text>
<text text-anchor="start" x="213" y="-51.5" font-family="Helvetica,sans-Serif" font-size="10.00">+ setState()</text>
<text text-anchor="start" x="213" y="-40.5" font-family="Helvetica,sans-Serif" font-size="10.00">+ removeSubtree()</text>
<text text-anchor="start" x="213" y="-29.5" font-family="Helvetica,sans-Serif" font-size="10.00">+ vbk()</text>
<text text-anchor="start" x="213" y="-18.5" font-family="Helvetica,sans-Serif" font-size="10.00">+ btc()</text>
<text text-anchor="start" x="213" y="-7.5" font-family="Helvetica,sans-Serif" font-size="10.00">+ getParams()</text>
</a>
</g>
</g>
<!-- Node2 -->
<g id="node2" class="node">
<title>Node2</title>
<g id="a_node2"><a xlink:href="structaltintegration_1_1BaseBlockTree.html" target="_top" xlink:title=" ">
<polygon fill="white" stroke="black" points="210.5,-271.5 210.5,-460.5 334.5,-460.5 334.5,-271.5 210.5,-271.5"/>
<text text-anchor="start" x="218.5" y="-448.5" font-family="Helvetica,sans-Serif" font-size="10.00">altintegration::BaseBlock</text>
<text text-anchor="middle" x="272.5" y="-437.5" font-family="Helvetica,sans-Serif" font-size="10.00">Tree&lt; AltBlock &gt;</text>
<polyline fill="none" stroke="black" points="210.5,-430.5 334.5,-430.5 "/>
<text text-anchor="start" x="218.5" y="-418.5" font-family="Helvetica,sans-Serif" font-size="10.00"># validity_sig_</text>
<polyline fill="none" stroke="black" points="210.5,-411.5 334.5,-411.5 "/>
<text text-anchor="start" x="218.5" y="-399.5" font-family="Helvetica,sans-Serif" font-size="10.00">+ getTips()</text>
<text text-anchor="start" x="218.5" y="-388.5" font-family="Helvetica,sans-Serif" font-size="10.00">+ getBlocks()</text>
<text text-anchor="start" x="218.5" y="-377.5" font-family="Helvetica,sans-Serif" font-size="10.00">+ ~BaseBlockTree()</text>
<text text-anchor="start" x="218.5" y="-366.5" font-family="Helvetica,sans-Serif" font-size="10.00">+ BaseBlockTree()</text>
<text text-anchor="start" x="218.5" y="-355.5" font-family="Helvetica,sans-Serif" font-size="10.00">+ BaseBlockTree()</text>
<text text-anchor="start" x="218.5" y="-344.5" font-family="Helvetica,sans-Serif" font-size="10.00">+ BaseBlockTree()</text>
<text text-anchor="start" x="218.5" y="-333.5" font-family="Helvetica,sans-Serif" font-size="10.00">+ operator=()</text>
<text text-anchor="start" x="218.5" y="-322.5" font-family="Helvetica,sans-Serif" font-size="10.00">+ operator=()</text>
<text text-anchor="start" x="218.5" y="-311.5" font-family="Helvetica,sans-Serif" font-size="10.00">+ getBestChain()</text>
<text text-anchor="start" x="218.5" y="-300.5" font-family="Helvetica,sans-Serif" font-size="10.00">+ makePrevHash()</text>
<text text-anchor="start" x="218.5" y="-289.5" font-family="Helvetica,sans-Serif" font-size="10.00">and 20 more...</text>
<text text-anchor="start" x="218.5" y="-278.5" font-family="Helvetica,sans-Serif" font-size="10.00"># toPrettyString()</text>
</a>
</g>
</g>
<!-- Node2&#45;&gt;Node1 -->
<g id="edge1" class="edge">
<title>Node2&#45;&gt;Node1</title>
<path fill="none" stroke="midnightblue" d="M272.5,-261.11C272.5,-252.05 272.5,-242.84 272.5,-233.69"/>
<polygon fill="none" stroke="midnightblue" points="269,-261.27 272.5,-271.27 276,-261.27 269,-261.27"/>
</g>
<!-- Node3 -->
<g id="node3" class="node">
<title>Node3</title>
<g id="a_node3"><a xlink:href="structaltintegration_1_1Chain.html" target="_top" xlink:title=" ">
<polygon fill="white" stroke="black" points="0,-756.5 0,-934.5 141,-934.5 141,-756.5 0,-756.5"/>
<text text-anchor="start" x="8" y="-922.5" font-family="Helvetica,sans-Serif" font-size="10.00">altintegration::Chain</text>
<text text-anchor="middle" x="70.5" y="-911.5" font-family="Helvetica,sans-Serif" font-size="10.00">&lt; altintegration::BlockIndex &gt;</text>
<polyline fill="none" stroke="black" points="0,-904.5 141,-904.5 "/>
<text text-anchor="middle" x="70.5" y="-892.5" font-family="Helvetica,sans-Serif" font-size="10.00"> </text>
<polyline fill="none" stroke="black" points="0,-885.5 141,-885.5 "/>
<text text-anchor="start" x="8" y="-873.5" font-family="Helvetica,sans-Serif" font-size="10.00">+ Chain()</text>
<text text-anchor="start" x="8" y="-862.5" font-family="Helvetica,sans-Serif" font-size="10.00">+ Chain()</text>
<text text-anchor="start" x="8" y="-851.5" font-family="Helvetica,sans-Serif" font-size="10.00">+ Chain()</text>
<text text-anchor="start" x="8" y="-840.5" font-family="Helvetica,sans-Serif" font-size="10.00">+ getStartHeight()</text>
<text text-anchor="start" x="8" y="-829.5" font-family="Helvetica,sans-Serif" font-size="10.00">+ firstHeight()</text>
<text text-anchor="start" x="8" y="-818.5" font-family="Helvetica,sans-Serif" font-size="10.00">+ contains()</text>
<text text-anchor="start" x="8" y="-807.5" font-family="Helvetica,sans-Serif" font-size="10.00">+ operator[]()</text>
<text text-anchor="start" x="8" y="-796.5" font-family="Helvetica,sans-Serif" font-size="10.00">+ next()</text>
<text text-anchor="start" x="8" y="-785.5" font-family="Helvetica,sans-Serif" font-size="10.00">+ chainHeight()</text>
<text text-anchor="start" x="8" y="-774.5" font-family="Helvetica,sans-Serif" font-size="10.00">+ empty()</text>
<text text-anchor="start" x="8" y="-763.5" font-family="Helvetica,sans-Serif" font-size="10.00">and 14 more...</text>
</a>
</g>
</g>
<!-- Node3&#45;&gt;Node2 -->
<g id="edge2" class="edge">
<title>Node3&#45;&gt;Node2</title>
<path fill="none" stroke="#404040" d="M51.01,-756.27C39.99,-685.11 35.4,-584.61 75.5,-508 101.81,-457.74 155.08,-421.3 199.6,-398.07"/>
<polygon fill="none" stroke="#404040" points="199.71,-398.02 203.25,-391.74 210.41,-392.59 206.87,-398.87 199.71,-398.02"/>
<text text-anchor="middle" x="107.5" y="-600.5" font-family="Helvetica,sans-Serif" font-size="10.00"> #activeChain_</text>
</g>
<!-- Node19 -->
<g id="node19" class="node">
<title>Node19</title>
<g id="a_node19"><a xlink:href="structaltintegration_1_1BaseBlockTree.html" target="_top" xlink:title="Base block tree that stores all blocks, maintains tree tips, maintains active chain.">
<polygon fill="white" stroke="black" points="148.5,-508.5 148.5,-697.5 272.5,-697.5 272.5,-508.5 148.5,-508.5"/>
<text text-anchor="start" x="156.5" y="-685.5" font-family="Helvetica,sans-Serif" font-size="10.00">altintegration::BaseBlock</text>
<text text-anchor="middle" x="210.5" y="-674.5" font-family="Helvetica,sans-Serif" font-size="10.00">Tree&lt; Block &gt;</text>
<polyline fill="none" stroke="black" points="148.5,-667.5 272.5,-667.5 "/>
<text text-anchor="start" x="156.5" y="-655.5" font-family="Helvetica,sans-Serif" font-size="10.00"># validity_sig_</text>
<polyline fill="none" stroke="black" points="148.5,-648.5 272.5,-648.5 "/>
<text text-anchor="start" x="156.5" y="-636.5" font-family="Helvetica,sans-Serif" font-size="10.00">+ getTips()</text>
<text text-anchor="start" x="156.5" y="-625.5" font-family="Helvetica,sans-Serif" font-size="10.00">+ getBlocks()</text>
<text text-anchor="start" x="156.5" y="-614.5" font-family="Helvetica,sans-Serif" font-size="10.00">+ ~BaseBlockTree()</text>
<text text-anchor="start" x="156.5" y="-603.5" font-family="Helvetica,sans-Serif" font-size="10.00">+ BaseBlockTree()</text>
<text text-anchor="start" x="156.5" y="-592.5" font-family="Helvetica,sans-Serif" font-size="10.00">+ BaseBlockTree()</text>
<text text-anchor="start" x="156.5" y="-581.5" font-family="Helvetica,sans-Serif" font-size="10.00">+ operator=()</text>
<text text-anchor="start" x="156.5" y="-570.5" font-family="Helvetica,sans-Serif" font-size="10.00">+ BaseBlockTree()</text>
<text text-anchor="start" x="156.5" y="-559.5" font-family="Helvetica,sans-Serif" font-size="10.00">+ operator=()</text>
<text text-anchor="start" x="156.5" y="-548.5" font-family="Helvetica,sans-Serif" font-size="10.00">+ getBestChain()</text>
<text text-anchor="start" x="156.5" y="-537.5" font-family="Helvetica,sans-Serif" font-size="10.00">+ makePrevHash()</text>
<text text-anchor="start" x="156.5" y="-526.5" font-family="Helvetica,sans-Serif" font-size="10.00">and 20 more...</text>
<text text-anchor="start" x="156.5" y="-515.5" font-family="Helvetica,sans-Serif" font-size="10.00"># toPrettyString()</text>
</a>
</g>
</g>
<!-- Node3&#45;&gt;Node19 -->
<g id="edge25" class="edge">
<title>Node3&#45;&gt;Node19</title>
<path fill="none" stroke="#404040" d="M103.2,-756.23C109.35,-742.46 116.17,-728.63 123.5,-716 128.9,-706.69 134.99,-697.3 141.38,-688.13"/>
<polygon fill="none" stroke="#404040" points="141.44,-688.04 141.67,-680.83 148.41,-678.27 148.18,-685.47 141.44,-688.04"/>
<text text-anchor="middle" x="155.5" y="-724.5" font-family="Helvetica,sans-Serif" font-size="10.00"> #activeChain_</text>
</g>
<!-- Node4 -->
<g id="node4" class="node">
<title>Node4</title>
<g id="a_node4"><a xlink:href="structaltintegration_1_1Chain.html" target="_top" xlink:title="Fully in&#45;memory chain representation.">
<polygon fill="white" stroke="black" points="20,-1010 20,-1188 121,-1188 121,-1010 20,-1010"/>
<text text-anchor="start" x="28" y="-1176" font-family="Helvetica,sans-Serif" font-size="10.00">altintegration::Chain</text>
<text text-anchor="middle" x="70.5" y="-1165" font-family="Helvetica,sans-Serif" font-size="10.00">&lt; BlockIndexT &gt;</text>
<polyline fill="none" stroke="black" points="20,-1158 121,-1158 "/>
<text text-anchor="middle" x="70.5" y="-1146" font-family="Helvetica,sans-Serif" font-size="10.00"> </text>
<polyline fill="none" stroke="black" points="20,-1139 121,-1139 "/>
<text text-anchor="start" x="28" y="-1127" font-family="Helvetica,sans-Serif" font-size="10.00">+ Chain()</text>
<text text-anchor="start" x="28" y="-1116" font-family="Helvetica,sans-Serif" font-size="10.00">+ Chain()</text>
<text text-anchor="start" x="28" y="-1105" font-family="Helvetica,sans-Serif" font-size="10.00">+ Chain()</text>
<text text-anchor="start" x="28" y="-1094" font-family="Helvetica,sans-Serif" font-size="10.00">+ getStartHeight()</text>
<text text-anchor="start" x="28" y="-1083" font-family="Helvetica,sans-Serif" font-size="10.00">+ firstHeight()</text>
<text text-anchor="start" x="28" y="-1072" font-family="Helvetica,sans-Serif" font-size="10.00">+ contains()</text>
<text text-anchor="start" x="28" y="-1061" font-family="Helvetica,sans-Serif" font-size="10.00">+ operator[]()</text>
<text text-anchor="start" x="28" y="-1050" font-family="Helvetica,sans-Serif" font-size="10.00">+ next()</text>
<text text-anchor="start" x="28" y="-1039" font-family="Helvetica,sans-Serif" font-size="10.00">+ chainHeight()</text>
<text text-anchor="start" x="28" y="-1028" font-family="Helvetica,sans-Serif" font-size="10.00">+ empty()</text>
<text text-anchor="start" x="28" y="-1017" font-family="Helvetica,sans-Serif" font-size="10.00">and 14 more...</text>
</a>
</g>
</g>
<!-- Node4&#45;&gt;Node3 -->
<g id="edge3" class="edge">
<title>Node4&#45;&gt;Node3</title>
<path fill="none" stroke="orange" d="M70.5,-999.59C70.5,-978.16 70.5,-955.61 70.5,-934.6"/>
<polygon fill="orange" stroke="orange" points="67,-999.68 70.5,-1009.68 74,-999.68 67,-999.68"/>
<text text-anchor="middle" x="134" y="-961.5" font-family="Helvetica,sans-Serif" font-size="10.00"> &lt; altintegration::BlockIndex &gt;</text>
</g>
<!-- Node5 -->
<g id="node5" class="node">
<title>Node5</title>
<g id="a_node5"><a xlink:title=" ">
<polygon fill="white" stroke="#bfbfbf" points="161,-806 161,-885 298,-885 298,-806 161,-806"/>
<text text-anchor="start" x="169" y="-873" font-family="Helvetica,sans-Serif" font-size="10.00">std::unordered_map</text>
<text text-anchor="start" x="169" y="-862" font-family="Helvetica,sans-Serif" font-size="10.00">&lt; prev_block_hash_t,</text>
<text text-anchor="middle" x="229.5" y="-851" font-family="Helvetica,sans-Serif" font-size="10.00"> std::unique_ptr&lt; index_t &gt; &gt;</text>
<polyline fill="none" stroke="#bfbfbf" points="161,-844 298,-844 "/>
<text text-anchor="start" x="169" y="-832" font-family="Helvetica,sans-Serif" font-size="10.00">+ keys</text>
<polyline fill="none" stroke="#bfbfbf" points="161,-825 298,-825 "/>
<text text-anchor="middle" x="229.5" y="-813" font-family="Helvetica,sans-Serif" font-size="10.00"> </text>
</a>
</g>
</g>
<!-- Node5&#45;&gt;Node2 -->
<g id="edge4" class="edge">
<title>Node5&#45;&gt;Node2</title>
<path fill="none" stroke="#404040" d="M260.11,-805.98C273.48,-786.74 287.64,-762.4 294.5,-738 318.98,-650.88 310.04,-547.87 296.94,-472.53"/>
<polygon fill="none" stroke="#404040" points="296.94,-472.49 291.94,-467.29 294.81,-460.68 299.81,-465.87 296.94,-472.49"/>
<text text-anchor="middle" x="334" y="-606" font-family="Helvetica,sans-Serif" font-size="10.00"> #blocks_</text>
<text text-anchor="middle" x="334" y="-595" font-family="Helvetica,sans-Serif" font-size="10.00">#removed_</text>
</g>
<!-- Node5&#45;&gt;Node19 -->
<g id="edge26" class="edge">
<title>Node5&#45;&gt;Node19</title>
<path fill="none" stroke="#404040" d="M213.03,-805.83C205.45,-785.96 197.3,-761.11 193.5,-738 192,-728.89 191.37,-719.41 191.36,-709.89"/>
<polygon fill="none" stroke="#404040" points="191.37,-709.84 187.53,-703.73 191.68,-697.84 195.52,-703.95 191.37,-709.84"/>
<text text-anchor="middle" x="218" y="-730" font-family="Helvetica,sans-Serif" font-size="10.00"> #blocks_</text>
<text text-anchor="middle" x="218" y="-719" font-family="Helvetica,sans-Serif" font-size="10.00">#removed_</text>
</g>
<!-- Node6 -->
<g id="node6" class="node">
<title>Node6</title>
<g id="a_node6"><a xlink:title=" ">
<polygon fill="white" stroke="#bfbfbf" points="171,-1223.5 171,-1280.5 298,-1280.5 298,-1223.5 171,-1223.5"/>
<text text-anchor="middle" x="234.5" y="-1268.5" font-family="Helvetica,sans-Serif" font-size="10.00">std::unique_ptr&lt; index_t &gt;</text>
<polyline fill="none" stroke="#bfbfbf" points="171,-1261.5 298,-1261.5 "/>
<text text-anchor="start" x="179" y="-1249.5" font-family="Helvetica,sans-Serif" font-size="10.00">+ ptr</text>
<polyline fill="none" stroke="#bfbfbf" points="171,-1242.5 298,-1242.5 "/>
<text text-anchor="start" x="179" y="-1230.5" font-family="Helvetica,sans-Serif" font-size="10.00">+ operator&#45;&gt;()</text>
</a>
</g>
</g>
<!-- Node6&#45;&gt;Node5 -->
<g id="edge5" class="edge">
<title>Node6&#45;&gt;Node5</title>
<path fill="none" stroke="#404040" d="M227.5,-1223.43C226.25,-1217.39 225.15,-1211.01 224.5,-1205 212.78,-1095.9 219.57,-967.07 224.94,-897.41"/>
<polygon fill="none" stroke="#404040" points="224.96,-897.07 221.45,-890.77 225.92,-885.11 229.43,-891.4 224.96,-897.07"/>
<text text-anchor="middle" x="249" y="-1096.5" font-family="Helvetica,sans-Serif" font-size="10.00"> +elements</text>
</g>
<!-- Node7 -->
<g id="node7" class="node">
<title>Node7</title>
<g id="a_node7"><a xlink:title=" ">
<polygon fill="white" stroke="#bfbfbf" points="200.5,-1375.5 200.5,-1432.5 302.5,-1432.5 302.5,-1375.5 200.5,-1375.5"/>
<text text-anchor="middle" x="251.5" y="-1420.5" font-family="Helvetica,sans-Serif" font-size="10.00">std::unique_ptr&lt; T &gt;</text>
<polyline fill="none" stroke="#bfbfbf" points="200.5,-1413.5 302.5,-1413.5 "/>
<text text-anchor="middle" x="251.5" y="-1401.5" font-family="Helvetica,sans-Serif" font-size="10.00"> </text>
<polyline fill="none" stroke="#bfbfbf" points="200.5,-1394.5 302.5,-1394.5 "/>
<text text-anchor="start" x="208.5" y="-1382.5" font-family="Helvetica,sans-Serif" font-size="10.00">+ operator&#45;&gt;()</text>
</a>
</g>
</g>
<!-- Node7&#45;&gt;Node6 -->
<g id="edge6" class="edge">
<title>Node7&#45;&gt;Node6</title>
<path fill="none" stroke="orange" d="M247.25,-1365.47C244.26,-1339.11 240.33,-1304.43 237.63,-1280.59"/>
<polygon fill="orange" stroke="orange" points="243.78,-1365.95 248.38,-1375.49 250.73,-1365.16 243.78,-1365.95"/>
<text text-anchor="middle" x="270.5" y="-1325.5" font-family="Helvetica,sans-Serif" font-size="10.00"> &lt; index_t &gt;</text>
</g>
<!-- Node8 -->
<g id="node8" class="node">
<title>Node8</title>
<g id="a_node8"><a xlink:title=" ">
<polygon fill="white" stroke="#bfbfbf" points="318,-1556.5 318,-1613.5 347,-1613.5 347,-1556.5 318,-1556.5"/>
<text text-anchor="middle" x="332.5" y="-1601.5" font-family="Helvetica,sans-Serif" font-size="10.00">T</text>
<polyline fill="none" stroke="#bfbfbf" points="318,-1594.5 347,-1594.5 "/>
<text text-anchor="middle" x="332.5" y="-1582.5" font-family="Helvetica,sans-Serif" font-size="10.00"> </text>
<polyline fill="none" stroke="#bfbfbf" points="318,-1575.5 347,-1575.5 "/>
<text text-anchor="middle" x="332.5" y="-1563.5" font-family="Helvetica,sans-Serif" font-size="10.00"> </text>
</a>
</g>
</g>
<!-- Node8&#45;&gt;Node7 -->
<g id="edge7" class="edge">
<title>Node8&#45;&gt;Node7</title>
<path fill="none" stroke="#404040" d="M317.96,-1566.9C311.39,-1558.57 303.9,-1548.17 298.5,-1538 282.62,-1508.08 270.18,-1471.67 262.09,-1444.51"/>
<polygon fill="none" stroke="#404040" points="262.02,-1444.27 256.52,-1439.62 258.69,-1432.74 264.2,-1437.39 262.02,-1444.27"/>
<text text-anchor="middle" x="308.5" y="-1530" font-family="Helvetica,sans-Serif" font-size="10.00"> +ptr</text>
</g>
<!-- Node9 -->
<g id="node9" class="node">
<title>Node9</title>
<g id="a_node9"><a xlink:title=" ">
<polygon fill="white" stroke="#bfbfbf" points="282,-1065 282,-1133 383,-1133 383,-1065 282,-1065"/>
<text text-anchor="start" x="290" y="-1121" font-family="Helvetica,sans-Serif" font-size="10.00">std::unordered_map</text>
<text text-anchor="middle" x="332.5" y="-1110" font-family="Helvetica,sans-Serif" font-size="10.00">&lt; K, T &gt;</text>
<polyline fill="none" stroke="#bfbfbf" points="282,-1103 383,-1103 "/>
<text text-anchor="middle" x="332.5" y="-1091" font-family="Helvetica,sans-Serif" font-size="10.00"> </text>
<polyline fill="none" stroke="#bfbfbf" points="282,-1084 383,-1084 "/>
<text text-anchor="middle" x="332.5" y="-1072" font-family="Helvetica,sans-Serif" font-size="10.00"> </text>
</a>
</g>
</g>
<!-- Node8&#45;&gt;Node9 -->
<g id="edge10" class="edge">
<title>Node8&#45;&gt;Node9</title>
<path fill="none" stroke="#404040" d="M332.5,-1556.24C332.5,-1476.19 332.5,-1244.33 332.5,-1145.5"/>
<polygon fill="none" stroke="#404040" points="332.5,-1145.29 328.5,-1139.29 332.5,-1133.29 336.5,-1139.29 332.5,-1145.29"/>
<text text-anchor="middle" x="357" y="-1401.5" font-family="Helvetica,sans-Serif" font-size="10.00"> +elements</text>
</g>
<!-- Node15 -->
<g id="node15" class="node">
<title>Node15</title>
<g id="a_node15"><a xlink:title=" ">
<polygon fill="white" stroke="#bfbfbf" points="397,-1451.5 397,-1508.5 500,-1508.5 500,-1451.5 397,-1451.5"/>
<text text-anchor="middle" x="448.5" y="-1496.5" font-family="Helvetica,sans-Serif" font-size="10.00">std::shared_ptr&lt; T &gt;</text>
<polyline fill="none" stroke="#bfbfbf" points="397,-1489.5 500,-1489.5 "/>
<text text-anchor="middle" x="448.5" y="-1477.5" font-family="Helvetica,sans-Serif" font-size="10.00"> </text>
<polyline fill="none" stroke="#bfbfbf" points="397,-1470.5 500,-1470.5 "/>
<text text-anchor="start" x="405" y="-1458.5" font-family="Helvetica,sans-Serif" font-size="10.00">+ operator&#45;&gt;()</text>
</a>
</g>
</g>
<!-- Node8&#45;&gt;Node15 -->
<g id="edge16" class="edge">
<title>Node8&#45;&gt;Node15</title>
<path fill="none" stroke="#404040" d="M347.19,-1570.95C362.49,-1557.37 387.12,-1535.51 408.26,-1516.73"/>
<polygon fill="none" stroke="#404040" points="408.4,-1516.6 410.23,-1509.63 417.38,-1508.64 415.55,-1515.61 408.4,-1516.6"/>
<text text-anchor="middle" x="403.5" y="-1530" font-family="Helvetica,sans-Serif" font-size="10.00"> +ptr</text>
</g>
<!-- Node9&#45;&gt;Node5 -->
<g id="edge8" class="edge">
<title>Node9&#45;&gt;Node5</title>
<path fill="none" stroke="orange" d="M305.67,-1056.39C291.6,-1033.16 274.95,-1003.27 263.5,-975 251.67,-945.81 242.79,-911.21 237.08,-885.28"/>
<polygon fill="orange" stroke="orange" points="302.71,-1058.26 310.93,-1064.95 308.68,-1054.6 302.71,-1058.26"/>
<text text-anchor="start" x="263.5" y="-967" font-family="Helvetica,sans-Serif" font-size="10.00"> &lt; prev_block_hash_t,</text>
<text text-anchor="middle" x="324" y="-956" font-family="Helvetica,sans-Serif" font-size="10.00"> std::unique_ptr&lt; index_t &gt; &gt;</text>
</g>
<!-- Node10 -->
<g id="node10" class="node">
<title>Node10</title>
<g id="a_node10"><a xlink:title=" ">
<polygon fill="white" stroke="#bfbfbf" points="446,-1299.5 446,-1356.5 475,-1356.5 475,-1299.5 446,-1299.5"/>
<text text-anchor="middle" x="460.5" y="-1344.5" font-family="Helvetica,sans-Serif" font-size="10.00">K</text>
<polyline fill="none" stroke="#bfbfbf" points="446,-1337.5 475,-1337.5 "/>
<text text-anchor="middle" x="460.5" y="-1325.5" font-family="Helvetica,sans-Serif" font-size="10.00"> </text>
<polyline fill="none" stroke="#bfbfbf" points="446,-1318.5 475,-1318.5 "/>
<text text-anchor="middle" x="460.5" y="-1306.5" font-family="Helvetica,sans-Serif" font-size="10.00"> </text>
</a>
</g>
</g>
<!-- Node10&#45;&gt;Node9 -->
<g id="edge9" class="edge">
<title>Node10&#45;&gt;Node9</title>
<path fill="none" stroke="#404040" d="M445.75,-1307.71C439.82,-1299.63 433.07,-1290.03 427.5,-1281 399.55,-1235.7 371.74,-1181.35 353.5,-1144.11"/>
<polygon fill="none" stroke="#404040" points="353.41,-1143.92 347.19,-1140.27 348.16,-1133.13 354.38,-1136.77 353.41,-1143.92"/>
<text text-anchor="middle" x="442" y="-1249.5" font-family="Helvetica,sans-Serif" font-size="10.00"> +keys</text>
</g>
<!-- Node17 -->
<g id="node17" class="node">
<title>Node17</title>
<g id="a_node17"><a xlink:title=" ">
<polygon fill="white" stroke="#bfbfbf" points="551,-1070.5 551,-1127.5 622,-1127.5 622,-1070.5 551,-1070.5"/>
<text text-anchor="middle" x="586.5" y="-1115.5" font-family="Helvetica,sans-Serif" font-size="10.00">std::set&lt; K &gt;</text>
<polyline fill="none" stroke="#bfbfbf" points="551,-1108.5 622,-1108.5 "/>
<text text-anchor="middle" x="586.5" y="-1096.5" font-family="Helvetica,sans-Serif" font-size="10.00"> </text>
<polyline fill="none" stroke="#bfbfbf" points="551,-1089.5 622,-1089.5 "/>
<text text-anchor="middle" x="586.5" y="-1077.5" font-family="Helvetica,sans-Serif" font-size="10.00"> </text>
</a>
</g>
</g>
<!-- Node10&#45;&gt;Node17 -->
<g id="edge21" class="edge">
<title>Node10&#45;&gt;Node17</title>
<path fill="none" stroke="#404040" d="M475.29,-1307.74C481.23,-1299.66 487.97,-1290.06 493.5,-1281 522.55,-1233.46 551.09,-1175.81 568.74,-1138.55"/>
<polygon fill="none" stroke="#404040" points="568.75,-1138.53 567.68,-1131.4 573.85,-1127.67 574.92,-1134.8 568.75,-1138.53"/>
<text text-anchor="middle" x="538" y="-1249.5" font-family="Helvetica,sans-Serif" font-size="10.00"> +keys</text>
</g>
<!-- Node18 -->
<g id="node18" class="node">
<title>Node18</title>
<g id="a_node18"><a xlink:title=" ">
<polygon fill="white" stroke="#bfbfbf" points="401,-1070.5 401,-1127.5 520,-1127.5 520,-1070.5 401,-1070.5"/>
<text text-anchor="middle" x="460.5" y="-1115.5" font-family="Helvetica,sans-Serif" font-size="10.00">std::unordered_set&lt; K &gt;</text>
<polyline fill="none" stroke="#bfbfbf" points="401,-1108.5 520,-1108.5 "/>
<text text-anchor="middle" x="460.5" y="-1096.5" font-family="Helvetica,sans-Serif" font-size="10.00"> </text>
<polyline fill="none" stroke="#bfbfbf" points="401,-1089.5 520,-1089.5 "/>
<text text-anchor="middle" x="460.5" y="-1077.5" font-family="Helvetica,sans-Serif" font-size="10.00"> </text>
</a>
</g>
</g>
<!-- Node10&#45;&gt;Node18 -->
<g id="edge23" class="edge">
<title>Node10&#45;&gt;Node18</title>
<path fill="none" stroke="#404040" d="M460.5,-1299.17C460.5,-1259.23 460.5,-1185.48 460.5,-1139.8"/>
<polygon fill="none" stroke="#404040" points="460.5,-1139.71 456.5,-1133.71 460.5,-1127.71 464.5,-1133.71 460.5,-1139.71"/>
<text text-anchor="middle" x="475" y="-1249.5" font-family="Helvetica,sans-Serif" font-size="10.00"> +keys</text>
</g>
<!-- Node11 -->
<g id="node11" class="node">
<title>Node11</title>
<g id="a_node11"><a xlink:title=" ">
<polygon fill="white" stroke="#bfbfbf" points="319,-811.5 319,-879.5 466,-879.5 466,-811.5 319,-811.5"/>
<text text-anchor="start" x="327" y="-867.5" font-family="Helvetica,sans-Serif" font-size="10.00">std::unordered_set</text>
<text text-anchor="middle" x="392.5" y="-856.5" font-family="Helvetica,sans-Serif" font-size="10.00">&lt; altintegration::BlockIndex * &gt;</text>
<polyline fill="none" stroke="#bfbfbf" points="319,-849.5 466,-849.5 "/>
<text text-anchor="middle" x="392.5" y="-837.5" font-family="Helvetica,sans-Serif" font-size="10.00"> </text>
<polyline fill="none" stroke="#bfbfbf" points="319,-830.5 466,-830.5 "/>
<text text-anchor="middle" x="392.5" y="-818.5" font-family="Helvetica,sans-Serif" font-size="10.00"> </text>
</a>
</g>
</g>
<!-- Node11&#45;&gt;Node2 -->
<g id="edge11" class="edge">
<title>Node11&#45;&gt;Node2</title>
<path fill="none" stroke="#404040" d="M394.65,-811.43C397.55,-749.87 398.74,-614.31 362.5,-508 357.02,-491.92 349.34,-475.83 340.76,-460.56"/>
<polygon fill="none" stroke="#404040" points="340.73,-460.51 334.25,-457.34 334.69,-450.14 341.17,-453.31 340.73,-460.51"/>
<text text-anchor="middle" x="409" y="-600.5" font-family="Helvetica,sans-Serif" font-size="10.00"> #tips_</text>
</g>
<!-- Node11&#45;&gt;Node19 -->
<g id="edge27" class="edge">
<title>Node11&#45;&gt;Node19</title>
<path fill="none" stroke="#404040" d="M367.38,-811.31C344.82,-781.49 310.59,-736.27 279.86,-695.66"/>
<polygon fill="none" stroke="#404040" points="279.79,-695.56 272.98,-693.19 272.55,-685.99 279.36,-688.36 279.79,-695.56"/>
<text text-anchor="middle" x="321" y="-724.5" font-family="Helvetica,sans-Serif" font-size="10.00"> #tips_</text>
</g>
<!-- Node12 -->
<g id="node12" class="node">
<title>Node12</title>
<g id="a_node12"><a xlink:href="structaltintegration_1_1BlockIndex.html" target="_top" xlink:title="A node in a block tree.">
<polygon fill="white" stroke="black" points="666,-993.5 666,-1204.5 791,-1204.5 791,-993.5 666,-993.5"/>
<text text-anchor="start" x="674" y="-1192.5" font-family="Helvetica,sans-Serif" font-size="10.00">altintegration::BlockIndex</text>
<text text-anchor="middle" x="728.5" y="-1181.5" font-family="Helvetica,sans-Serif" font-size="10.00">&lt; Block &gt;</text>
<polyline fill="none" stroke="black" points="666,-1174.5 791,-1174.5 "/>
<text text-anchor="start" x="674" y="-1162.5" font-family="Helvetica,sans-Serif" font-size="10.00">+ finalized</text>
<text text-anchor="start" x="674" y="-1151.5" font-family="Helvetica,sans-Serif" font-size="10.00"># height</text>
<text text-anchor="start" x="674" y="-1140.5" font-family="Helvetica,sans-Serif" font-size="10.00"># status</text>
<text text-anchor="start" x="674" y="-1129.5" font-family="Helvetica,sans-Serif" font-size="10.00"># dirty</text>
<polyline fill="none" stroke="black" points="666,-1122.5 791,-1122.5 "/>
<text text-anchor="start" x="674" y="-1110.5" font-family="Helvetica,sans-Serif" font-size="10.00">+ BlockIndex()</text>
<text text-anchor="start" x="674" y="-1099.5" font-family="Helvetica,sans-Serif" font-size="10.00">+ ~BlockIndex()</text>
<text text-anchor="start" x="674" y="-1088.5" font-family="Helvetica,sans-Serif" font-size="10.00">+ BlockIndex()</text>
<text text-anchor="start" x="674" y="-1077.5" font-family="Helvetica,sans-Serif" font-size="10.00">+ operator=()</text>
<text text-anchor="start" x="674" y="-1066.5" font-family="Helvetica,sans-Serif" font-size="10.00">+ mergeFrom()</text>
<text text-anchor="start" x="674" y="-1055.5" font-family="Helvetica,sans-Serif" font-size="10.00">+ toStoredBlockIndex()</text>
<text text-anchor="start" x="674" y="-1044.5" font-family="Helvetica,sans-Serif" font-size="10.00">+ isConnected()</text>
<text text-anchor="start" x="674" y="-1033.5" font-family="Helvetica,sans-Serif" font-size="10.00">+ getStatus()</text>
<text text-anchor="start" x="674" y="-1022.5" font-family="Helvetica,sans-Serif" font-size="10.00">+ setStatus()</text>
<text text-anchor="start" x="674" y="-1011.5" font-family="Helvetica,sans-Serif" font-size="10.00">+ getValidityLevel()</text>
<text text-anchor="start" x="674" y="-1000.5" font-family="Helvetica,sans-Serif" font-size="10.00">and 35 more...</text>
</a>
</g>
</g>
<!-- Node12&#45;&gt;Node11 -->
<g id="edge12" class="edge">
<title>Node12&#45;&gt;Node11</title>
<path fill="none" stroke="#404040" d="M665.82,-1019.41C655.21,-1009.45 643.66,-1000.23 631.5,-993 603.52,-976.36 589.8,-989.18 560.5,-975 535.48,-962.9 481.32,-920.18 441.22,-887.29"/>
<polygon fill="none" stroke="#404040" points="441.13,-887.21 433.96,-886.49 431.87,-879.59 439.04,-880.31 441.13,-887.21"/>
<text text-anchor="middle" x="575" y="-961.5" font-family="Helvetica,sans-Serif" font-size="10.00"> +keys</text>
</g>
<!-- Node12&#45;&gt;Node12 -->
<g id="edge17" class="edge">
<title>Node12&#45;&gt;Node12</title>
<path fill="none" stroke="#404040" d="M791.28,-1122.35C801.76,-1119.08 809,-1111.3 809,-1099 809,-1091.5 806.31,-1085.69 801.84,-1081.54"/>
<polygon fill="none" stroke="#404040" points="801.76,-1081.5 794.57,-1082.06 791.28,-1075.65 798.47,-1075.08 801.76,-1081.5"/>
<text text-anchor="middle" x="825.5" y="-1096.5" font-family="Helvetica,sans-Serif" font-size="10.00"> +pprev</text>
</g>
<!-- Node16 -->
<g id="node16" class="node">
<title>Node16</title>
<g id="a_node16"><a xlink:title=" ">
<polygon fill="white" stroke="#bfbfbf" points="699.5,-811.5 699.5,-879.5 811.5,-879.5 811.5,-811.5 699.5,-811.5"/>
<text text-anchor="start" x="707.5" y="-867.5" font-family="Helvetica,sans-Serif" font-size="10.00">std::set&lt; altintegration</text>
<text text-anchor="middle" x="755.5" y="-856.5" font-family="Helvetica,sans-Serif" font-size="10.00">::BlockIndex * &gt;</text>
<polyline fill="none" stroke="#bfbfbf" points="699.5,-849.5 811.5,-849.5 "/>
<text text-anchor="middle" x="755.5" y="-837.5" font-family="Helvetica,sans-Serif" font-size="10.00"> </text>
<polyline fill="none" stroke="#bfbfbf" points="699.5,-830.5 811.5,-830.5 "/>
<text text-anchor="middle" x="755.5" y="-818.5" font-family="Helvetica,sans-Serif" font-size="10.00"> </text>
</a>
</g>
</g>
<!-- Node12&#45;&gt;Node16 -->
<g id="edge19" class="edge">
<title>Node12&#45;&gt;Node16</title>
<path fill="none" stroke="#404040" d="M739.75,-993.16C743.54,-957.86 747.58,-920.3 750.61,-892.03"/>
<polygon fill="none" stroke="#404040" points="750.65,-891.67 747.31,-885.27 751.93,-879.74 755.27,-886.13 750.65,-891.67"/>
<text text-anchor="middle" x="758" y="-961.5" font-family="Helvetica,sans-Serif" font-size="10.00"> +keys</text>
</g>
<!-- Node13 -->
<g id="node13" class="node">
<title>Node13</title>
<g id="a_node13"><a xlink:title=" ">
<polygon fill="white" stroke="#bfbfbf" points="688.5,-1299.5 688.5,-1356.5 768.5,-1356.5 768.5,-1299.5 688.5,-1299.5"/>
<text text-anchor="middle" x="728.5" y="-1344.5" font-family="Helvetica,sans-Serif" font-size="10.00">Block::addon_t</text>
<polyline fill="none" stroke="#bfbfbf" points="688.5,-1337.5 768.5,-1337.5 "/>
<text text-anchor="middle" x="728.5" y="-1325.5" font-family="Helvetica,sans-Serif" font-size="10.00"> </text>
<polyline fill="none" stroke="#bfbfbf" points="688.5,-1318.5 768.5,-1318.5 "/>
<text text-anchor="middle" x="728.5" y="-1306.5" font-family="Helvetica,sans-Serif" font-size="10.00"> </text>
</a>
</g>
</g>
<!-- Node13&#45;&gt;Node12 -->
<g id="edge13" class="edge">
<title>Node13&#45;&gt;Node12</title>
<path fill="none" stroke="midnightblue" d="M728.5,-1289.05C728.5,-1265.79 728.5,-1234.76 728.5,-1204.58"/>
<polygon fill="none" stroke="midnightblue" points="725,-1289.17 728.5,-1299.17 732,-1289.17 725,-1289.17"/>
</g>
<!-- Node14 -->
<g id="node14" class="node">
<title>Node14</title>
<g id="a_node14"><a xlink:title=" ">
<polygon fill="white" stroke="#bfbfbf" points="518.5,-1299.5 518.5,-1356.5 646.5,-1356.5 646.5,-1299.5 518.5,-1299.5"/>
<text text-anchor="middle" x="582.5" y="-1344.5" font-family="Helvetica,sans-Serif" font-size="10.00">std::shared_ptr&lt; block_t &gt;</text>
<polyline fill="none" stroke="#bfbfbf" points="518.5,-1337.5 646.5,-1337.5 "/>
<text text-anchor="start" x="526.5" y="-1325.5" font-family="Helvetica,sans-Serif" font-size="10.00">+ ptr</text>
<polyline fill="none" stroke="#bfbfbf" points="518.5,-1318.5 646.5,-1318.5 "/>
<text text-anchor="start" x="526.5" y="-1306.5" font-family="Helvetica,sans-Serif" font-size="10.00">+ operator&#45;&gt;()</text>
</a>
</g>
</g>
<!-- Node14&#45;&gt;Node12 -->
<g id="edge14" class="edge">
<title>Node14&#45;&gt;Node12</title>
<path fill="none" stroke="#404040" d="M600.4,-1299.17C615.27,-1276.04 637.44,-1241.58 659.17,-1207.8"/>
<polygon fill="none" stroke="#404040" points="659.4,-1207.44 659.28,-1200.23 665.89,-1197.35 666.01,-1204.56 659.4,-1207.44"/>
<text text-anchor="middle" x="665" y="-1249.5" font-family="Helvetica,sans-Serif" font-size="10.00"> #header</text>
</g>
<!-- Node15&#45;&gt;Node14 -->
<g id="edge15" class="edge">
<title>Node15&#45;&gt;Node14</title>
<path fill="none" stroke="orange" d="M479.86,-1443.9C503.65,-1417.27 535.89,-1381.17 557.85,-1356.59"/>
<polygon fill="orange" stroke="orange" points="477.13,-1441.7 473.08,-1451.49 482.35,-1446.36 477.13,-1441.7"/>
<text text-anchor="middle" x="564" y="-1401.5" font-family="Helvetica,sans-Serif" font-size="10.00"> &lt; block_t &gt;</text>
</g>
<!-- Node16&#45;&gt;Node12 -->
<g id="edge18" class="edge">
<title>Node16&#45;&gt;Node12</title>
<path fill="none" stroke="#404040" d="M771.56,-879.73C782.08,-905.64 792.65,-942.56 785.5,-975 785.02,-977.19 784.49,-979.39 783.93,-981.59"/>
<polygon fill="none" stroke="#404040" points="783.86,-981.83 786.05,-988.7 780.56,-993.37 778.36,-986.5 783.86,-981.83"/>
<text text-anchor="middle" x="803.5" y="-961.5" font-family="Helvetica,sans-Serif" font-size="10.00"> +pnext</text>
</g>
<!-- Node17&#45;&gt;Node16 -->
<g id="edge20" class="edge">
<title>Node17&#45;&gt;Node16</title>
<path fill="none" stroke="orange" d="M583.11,-1059.85C582.18,-1028.92 585.13,-985.31 604.5,-953 626.35,-916.54 666.04,-889.29 699.24,-871.49"/>
<polygon fill="orange" stroke="orange" points="579.63,-1060.4 583.58,-1070.23 586.62,-1060.08 579.63,-1060.4"/>
<text text-anchor="middle" x="671" y="-961.5" font-family="Helvetica,sans-Serif" font-size="10.00"> &lt; altintegration::BlockIndex * &gt;</text>
</g>
<!-- Node18&#45;&gt;Node11 -->
<g id="edge22" class="edge">
<title>Node18&#45;&gt;Node11</title>
<path fill="none" stroke="orange" d="M434.11,-1061.87C418.65,-1038.4 400.61,-1006.43 392.5,-975 384.33,-943.35 385.51,-905.85 388.02,-879.55"/>
<polygon fill="orange" stroke="orange" points="431.39,-1064.09 439.88,-1070.43 437.19,-1060.18 431.39,-1064.09"/>
<text text-anchor="middle" x="459" y="-961.5" font-family="Helvetica,sans-Serif" font-size="10.00"> &lt; altintegration::BlockIndex * &gt;</text>
</g>
<!-- Node19&#45;&gt;Node2 -->
<g id="edge24" class="edge">
<title>Node19&#45;&gt;Node2</title>
<path fill="none" stroke="orange" d="M233.46,-498.67C235.12,-492 236.8,-485.4 238.5,-479 240.09,-473.01 241.78,-466.86 243.53,-460.66"/>
<polygon fill="orange" stroke="orange" points="230.04,-497.93 231.06,-508.48 236.84,-499.6 230.04,-497.93"/>
<text text-anchor="middle" x="266.5" y="-482" font-family="Helvetica,sans-Serif" font-size="10.00"> &lt; AltBlock &gt;</text>
</g>
</g>
</svg>
        <g id="navigator" transform="translate(0 0)" fill="#404254">
                <rect fill="#f2f5e9" fill-opacity="0.5" stroke="#606060" stroke-width=".5" x="0" y="0" width="60" height="60"/>
                <use id="zoomplus" xlink:href="#zoomPlus" x="17" y="9" onmousedown="handleZoom(evt,'in')"/>
                <use id="zoomminus" xlink:href="#zoomMin" x="42" y="9" onmousedown="handleZoom(evt,'out')"/>
                <use id="reset" xlink:href="#resetDef" x="30" y="36" onmousedown="handleReset()"/>
                <g id="arrowUp" xlink:href="#dirArrow" transform="translate(30 24)" onmousedown="handlePan(0,-1)">
                  <use xlink:href="#rim" fill="#404040">
                        <set attributeName="fill" to="#808080" begin="arrowUp.mouseover" end="arrowUp.mouseout"/>
                  </use>
                  <path fill="none" stroke="white" stroke-width="1.5" d="M0,-3.0v7 M-2.5,-0.5L0,-3.0L2.5,-0.5"/>
                </g>
                <g id="arrowRight" xlink:href="#dirArrow" transform="rotate(90) translate(36 -43)" onmousedown="handlePan(1,0)">
                  <use xlink:href="#rim" fill="#404040">
                        <set attributeName="fill" to="#808080" begin="arrowRight.mouseover" end="arrowRight.mouseout"/>
                  </use>
                  <path fill="none" stroke="white" stroke-width="1.5" d="M0,-3.0v7 M-2.5,-0.5L0,-3.0L2.5,-0.5"/>
                </g>
                <g id="arrowDown" xlink:href="#dirArrow" transform="rotate(180) translate(-30 -48)" onmousedown="handlePan(0,1)">
                  <use xlink:href="#rim" fill="#404040">
                        <set attributeName="fill" to="#808080" begin="arrowDown.mouseover" end="arrowDown.mouseout"/>
                  </use>
                  <path fill="none" stroke="white" stroke-width="1.5" d="M0,-3.0v7 M-2.5,-0.5L0,-3.0L2.5,-0.5"/>
                </g>
                <g id="arrowLeft" xlink:href="#dirArrow" transform="rotate(270) translate(-36 17)" onmousedown="handlePan(-1,0)">
                  <use xlink:href="#rim" fill="#404040">
                        <set attributeName="fill" to="#808080" begin="arrowLeft.mouseover" end="arrowLeft.mouseout"/>
                  </use>
                  <path fill="none" stroke="white" stroke-width="1.5" d="M0,-3.0v7 M-2.5,-0.5L0,-3.0L2.5,-0.5"/>
                </g>
        </g>
        <svg viewBox="0 0 15 15" width="100%" height="30px" preserveAspectRatio="xMaxYMin meet">
         <g id="arrow_out" transform="scale(0.3 0.3)">
          <a xlink:href="structaltintegration_1_1AltBlockTree__coll__graph_org.svg" target="_base">
           <rect id="button" ry="5" rx="5" y="6" x="6" height="38" width="38"
                fill="#f2f5e9" fill-opacity="0.5" stroke="#606060" stroke-width="1.0"/>
           <path id="arrow"
             d="M 11.500037,31.436501 C 11.940474,20.09759 22.043105,11.32322 32.158766,21.979434 L 37.068811,17.246167 C 37.068811,17.246167 37.088388,32 37.088388,32 L 22.160133,31.978069 C 22.160133,31.978069 26.997745,27.140456 26.997745,27.140456 C 18.528582,18.264221 13.291696,25.230495 11.500037,31.436501 z"
             style="fill:#404040;"/>
          </a>
         </g>
        </svg>
</svg>
