<?xml version="1.0" encoding="UTF-8" standalone="no"?>
<!DOCTYPE svg PUBLIC "-//W3C//DTD SVG 1.1//EN"
 "http://www.w3.org/Graphics/SVG/1.1/DTD/svg11.dtd">
<!-- Generated by graphviz version 2.44.0 ()
 -->
<!-- Title: altintegration::Config::Bootstrap&lt; Block, ChainParams &gt; Pages: 1 -->
<svg width="374pt" height="270pt"
 viewBox="0.00 0.00 373.50 270.00" xmlns="http://www.w3.org/2000/svg" xmlns:xlink="http://www.w3.org/1999/xlink">
<g id="graph0" class="graph" transform="scale(1 1) rotate(0) translate(4 266)">
<title>altintegration::Config::Bootstrap&lt; Block, ChainParams &gt;</title>
<polygon fill="white" stroke="transparent" points="-4,4 -4,-266 369.5,-266 369.5,4 -4,4"/>
<!-- Node1 -->
<g id="node1" class="node">
<title>Node1</title>
<g id="a_node1"><a xlink:title="per&#45;chain bootstrap config">
<polygon fill="#bfbfbf" stroke="black" points="64.5,-171.5 64.5,-261.5 232.5,-261.5 232.5,-171.5 64.5,-171.5"/>
<text text-anchor="start" x="72.5" y="-249.5" font-family="Helvetica,sans-Serif" font-size="10.00">altintegration::Config</text>
<text text-anchor="middle" x="148.5" y="-238.5" font-family="Helvetica,sans-Serif" font-size="10.00">::Bootstrap&lt; Block, ChainParams &gt;</text>
<polyline fill="none" stroke="black" points="64.5,-231.5 232.5,-231.5 "/>
<text text-anchor="start" x="72.5" y="-219.5" font-family="Helvetica,sans-Serif" font-size="10.00">+ startHeight</text>
<text text-anchor="start" x="72.5" y="-208.5" font-family="Helvetica,sans-Serif" font-size="10.00">+ blocks</text>
<text text-anchor="start" x="72.5" y="-197.5" font-family="Helvetica,sans-Serif" font-size="10.00">+ params</text>
<polyline fill="none" stroke="black" points="64.5,-190.5 232.5,-190.5 "/>
<text text-anchor="start" x="72.5" y="-178.5" font-family="Helvetica,sans-Serif" font-size="10.00">+ create()</text>
</a>
</g>
</g>
<!-- Node2 -->
<g id="node2" class="node">
<title>Node2</title>
<g id="a_node2"><a xlink:href="structaltintegration_1_1Config_1_1Bootstrap.html" target="_top" xlink:title=" ">
<polygon fill="white" stroke="black" points="0,-0.5 0,-112.5 127,-112.5 127,-0.5 0,-0.5"/>
<text text-anchor="start" x="8" y="-100.5" font-family="Helvetica,sans-Serif" font-size="10.00">altintegration::Config</text>
<text text-anchor="start" x="8" y="-89.5" font-family="Helvetica,sans-Serif" font-size="10.00">::Bootstrap&lt; altintegration</text>
<text text-anchor="start" x="8" y="-78.5" font-family="Helvetica,sans-Serif" font-size="10.00">::VbkBlock, altintegration</text>
<text text-anchor="middle" x="63.5" y="-67.5" font-family="Helvetica,sans-Serif" font-size="10.00">::VbkChainParams &gt;</text>
<polyline fill="none" stroke="black" points="0,-60.5 127,-60.5 "/>
<text text-anchor="start" x="8" y="-48.5" font-family="Helvetica,sans-Serif" font-size="10.00">+ startHeight</text>
<text text-anchor="start" x="8" y="-37.5" font-family="Helvetica,sans-Serif" font-size="10.00">+ blocks</text>
<text text-anchor="start" x="8" y="-26.5" font-family="Helvetica,sans-Serif" font-size="10.00">+ params</text>
<polyline fill="none" stroke="black" points="0,-19.5 127,-19.5 "/>
<text text-anchor="start" x="8" y="-7.5" font-family="Helvetica,sans-Serif" font-size="10.00">+ create()</text>
</a>
</g>
</g>
<!-- Node1&#45;&gt;Node2 -->
<g id="edge1" class="edge">
<title>Node1&#45;&gt;Node2</title>
<path fill="none" stroke="orange" d="M70.94,-163.43C68.52,-160.11 66.35,-156.63 64.5,-153 58.26,-140.74 55.96,-126.38 55.7,-112.59"/>
<polygon fill="orange" stroke="orange" points="68.38,-165.83 77.43,-171.35 73.8,-161.4 68.38,-165.83"/>
<text text-anchor="start" x="64.5" y="-145" font-family="Helvetica,sans-Serif" font-size="10.00"> &lt; altintegration::VbkBlock,</text>
<text text-anchor="middle" x="138" y="-134" font-family="Helvetica,sans-Serif" font-size="10.00"> altintegration::VbkChainParams &gt;</text>
</g>
<!-- Node3 -->
<g id="node3" class="node">
<title>Node3</title>
<g id="a_node3"><a xlink:href="structaltintegration_1_1Config_1_1Bootstrap.html" target="_top" xlink:title=" ">
<polygon fill="white" stroke="black" points="170,-0.5 170,-112.5 297,-112.5 297,-0.5 170,-0.5"/>
<text text-anchor="start" x="178" y="-100.5" font-family="Helvetica,sans-Serif" font-size="10.00">altintegration::Config</text>
<text text-anchor="start" x="178" y="-89.5" font-family="Helvetica,sans-Serif" font-size="10.00">::Bootstrap&lt; altintegration</text>
<text text-anchor="start" x="178" y="-78.5" font-family="Helvetica,sans-Serif" font-size="10.00">::BtcBlock, altintegration</text>
<text text-anchor="middle" x="233.5" y="-67.5" font-family="Helvetica,sans-Serif" font-size="10.00">::BtcChainParams &gt;</text>
<polyline fill="none" stroke="black" points="170,-60.5 297,-60.5 "/>
<text text-anchor="start" x="178" y="-48.5" font-family="Helvetica,sans-Serif" font-size="10.00">+ startHeight</text>
<text text-anchor="start" x="178" y="-37.5" font-family="Helvetica,sans-Serif" font-size="10.00">+ blocks</text>
<text text-anchor="start" x="178" y="-26.5" font-family="Helvetica,sans-Serif" font-size="10.00">+ params</text>
<polyline fill="none" stroke="black" points="170,-19.5 297,-19.5 "/>
<text text-anchor="start" x="178" y="-7.5" font-family="Helvetica,sans-Serif" font-size="10.00">+ create()</text>
</a>
</g>
</g>
<!-- Node1&#45;&gt;Node3 -->
<g id="edge2" class="edge">
<title>Node1&#45;&gt;Node3</title>
<path fill="none" stroke="orange" d="M205.05,-163.16C207.4,-159.86 209.57,-156.46 211.5,-153 218.29,-140.81 222.98,-126.63 226.23,-112.99"/>
<polygon fill="orange" stroke="orange" points="202.19,-161.14 198.87,-171.2 207.74,-165.41 202.19,-161.14"/>
<text text-anchor="start" x="220.5" y="-145" font-family="Helvetica,sans-Serif" font-size="10.00"> &lt; altintegration::BtcBlock,</text>
<text text-anchor="middle" x="293" y="-134" font-family="Helvetica,sans-Serif" font-size="10.00"> altintegration::BtcChainParams &gt;</text>
</g>
</g>
</svg>
