<?xml version="1.0" encoding="UTF-8" standalone="no"?>
<!DOCTYPE svg PUBLIC "-//W3C//DTD SVG 1.1//EN"
 "http://www.w3.org/Graphics/SVG/1.1/DTD/svg11.dtd">
<!-- Generated by graphviz version 2.44.0 ()
 -->
<!-- Title: altintegration::AltBlockTree Pages: 1 -->
<svg width="866pt" height="1688pt"
 viewBox="0.00 0.00 865.50 1688.00" xmlns="http://www.w3.org/2000/svg" xmlns:xlink="http://www.w3.org/1999/xlink">
<g id="graph0" class="graph" transform="scale(1 1) rotate(0) translate(4 1684)">
<title>altintegration::AltBlockTree</title>
<polygon fill="white" stroke="transparent" points="-4,4 -4,-1684 861.5,-1684 861.5,4 -4,4"/>
<!-- Node1 -->
<g id="node1" class="node">
<title>Node1</title>
<g id="a_node1"><a xlink:title="Represents simplified view on Altchain&#39;s block tree, maintains VBK tree and BTC tree.">
<polygon fill="#bfbfbf" stroke="black" points="338,-0.5 338,-200.5 487,-200.5 487,-0.5 338,-0.5"/>
<text text-anchor="middle" x="412.5" y="-188.5" font-family="Helvetica,sans-Serif" font-size="10.00">altintegration::AltBlockTree</text>
<polyline fill="none" stroke="black" points="338,-181.5 487,-181.5 "/>
<text text-anchor="start" x="346" y="-169.5" font-family="Helvetica,sans-Serif" font-size="10.00">+ onInvalidBlockConnected</text>
<text text-anchor="start" x="346" y="-158.5" font-family="Helvetica,sans-Serif" font-size="10.00">+ onBlockConnected</text>
<text text-anchor="start" x="346" y="-147.5" font-family="Helvetica,sans-Serif" font-size="10.00">+ onBeforeOverrideTip</text>
<polyline fill="none" stroke="black" points="338,-140.5 487,-140.5 "/>
<text text-anchor="start" x="346" y="-128.5" font-family="Helvetica,sans-Serif" font-size="10.00">+ ~AltBlockTree()</text>
<text text-anchor="start" x="346" y="-117.5" font-family="Helvetica,sans-Serif" font-size="10.00">+ AltBlockTree()</text>
<text text-anchor="start" x="346" y="-106.5" font-family="Helvetica,sans-Serif" font-size="10.00">+ acceptBlockHeader()</text>
<text text-anchor="start" x="346" y="-95.5" font-family="Helvetica,sans-Serif" font-size="10.00">+ acceptBlock()</text>
<text text-anchor="start" x="346" y="-84.5" font-family="Helvetica,sans-Serif" font-size="10.00">+ acceptBlock()</text>
<text text-anchor="start" x="346" y="-73.5" font-family="Helvetica,sans-Serif" font-size="10.00">+ acceptBlock()</text>
<text text-anchor="start" x="346" y="-62.5" font-family="Helvetica,sans-Serif" font-size="10.00">+ makeConnectedLeafPayload</text>
<text text-anchor="start" x="346" y="-51.5" font-family="Helvetica,sans-Serif" font-size="10.00">Mutator()</text>
<text text-anchor="start" x="346" y="-40.5" font-family="Helvetica,sans-Serif" font-size="10.00">+ getConnectedTipsAfter()</text>
<text text-anchor="start" x="346" y="-29.5" font-family="Helvetica,sans-Serif" font-size="10.00">+ loadBlockForward()</text>
<text text-anchor="start" x="346" y="-18.5" font-family="Helvetica,sans-Serif" font-size="10.00">+ loadBlockBackward()</text>
<text text-anchor="start" x="346" y="-7.5" font-family="Helvetica,sans-Serif" font-size="10.00">and 7 more...</text>
</a>
</g>
</g>
<!-- Node2 -->
<g id="node2" class="node">
<title>Node2</title>
<g id="a_node2"><a xlink:href="structaltintegration_1_1BaseBlockTree.html" target="_top" xlink:title=" ">
<polygon fill="white" stroke="black" points="336.5,-238.5 336.5,-482.5 488.5,-482.5 488.5,-238.5 336.5,-238.5"/>
<text text-anchor="start" x="344.5" y="-470.5" font-family="Helvetica,sans-Serif" font-size="10.00">altintegration::BaseBlock</text>
<text text-anchor="middle" x="412.5" y="-459.5" font-family="Helvetica,sans-Serif" font-size="10.00">Tree&lt; AltBlock &gt;</text>
<polyline fill="none" stroke="black" points="336.5,-452.5 488.5,-452.5 "/>
<text text-anchor="start" x="344.5" y="-440.5" font-family="Helvetica,sans-Serif" font-size="10.00"># validity_sig_</text>
<polyline fill="none" stroke="black" points="336.5,-433.5 488.5,-433.5 "/>
<text text-anchor="start" x="344.5" y="-421.5" font-family="Helvetica,sans-Serif" font-size="10.00">+ getTips()</text>
<text text-anchor="start" x="344.5" y="-410.5" font-family="Helvetica,sans-Serif" font-size="10.00">+ getBlocks()</text>
<text text-anchor="start" x="344.5" y="-399.5" font-family="Helvetica,sans-Serif" font-size="10.00">+ getBlockProvider()</text>
<text text-anchor="start" x="344.5" y="-388.5" font-family="Helvetica,sans-Serif" font-size="10.00">+ ~BaseBlockTree()</text>
<text text-anchor="start" x="344.5" y="-377.5" font-family="Helvetica,sans-Serif" font-size="10.00">+ BaseBlockTree()</text>
<text text-anchor="start" x="344.5" y="-366.5" font-family="Helvetica,sans-Serif" font-size="10.00">+ BaseBlockTree()</text>
<text text-anchor="start" x="344.5" y="-355.5" font-family="Helvetica,sans-Serif" font-size="10.00">+ BaseBlockTree()</text>
<text text-anchor="start" x="344.5" y="-344.5" font-family="Helvetica,sans-Serif" font-size="10.00">+ operator=()</text>
<text text-anchor="start" x="344.5" y="-333.5" font-family="Helvetica,sans-Serif" font-size="10.00">+ operator=()</text>
<text text-anchor="start" x="344.5" y="-322.5" font-family="Helvetica,sans-Serif" font-size="10.00">+ getBestChain()</text>
<text text-anchor="start" x="344.5" y="-311.5" font-family="Helvetica,sans-Serif" font-size="10.00">and 23 more...</text>
<text text-anchor="start" x="344.5" y="-300.5" font-family="Helvetica,sans-Serif" font-size="10.00"># eraseBlock()</text>
<text text-anchor="start" x="344.5" y="-289.5" font-family="Helvetica,sans-Serif" font-size="10.00"># toPrettyString()</text>
<text text-anchor="start" x="344.5" y="-278.5" font-family="Helvetica,sans-Serif" font-size="10.00"># decreaseAppliedBlockCount()</text>
<text text-anchor="start" x="344.5" y="-267.5" font-family="Helvetica,sans-Serif" font-size="10.00"># decreaseAppliedBlockCount()</text>
<text text-anchor="start" x="344.5" y="-256.5" font-family="Helvetica,sans-Serif" font-size="10.00"># increaseAppliedBlockCount()</text>
<text text-anchor="start" x="344.5" y="-245.5" font-family="Helvetica,sans-Serif" font-size="10.00"># increaseAppliedBlockCount()</text>
</a>
</g>
</g>
<!-- Node2&#45;&gt;Node1 -->
<g id="edge1" class="edge">
<title>Node2&#45;&gt;Node1</title>
<path fill="none" stroke="midnightblue" d="M412.5,-228.3C412.5,-218.96 412.5,-209.63 412.5,-200.52"/>
<polygon fill="none" stroke="midnightblue" points="409,-228.43 412.5,-238.43 416,-228.43 409,-228.43"/>
</g>
<!-- Node3 -->
<g id="node3" class="node">
<title>Node3</title>
<g id="a_node3"><a xlink:href="structaltintegration_1_1BlockReader.html" target="_top" xlink:title="An abstraction over on&#45;disk storage iterator.">
<polygon fill="white" stroke="black" points="159.5,-828 159.5,-995 291.5,-995 291.5,-828 159.5,-828"/>
<text text-anchor="middle" x="225.5" y="-983" font-family="Helvetica,sans-Serif" font-size="10.00">altintegration::BlockReader</text>
<polyline fill="none" stroke="black" points="159.5,-976 291.5,-976 "/>
<text text-anchor="middle" x="225.5" y="-964" font-family="Helvetica,sans-Serif" font-size="10.00"> </text>
<polyline fill="none" stroke="black" points="159.5,-957 291.5,-957 "/>
<text text-anchor="start" x="167.5" y="-945" font-family="Helvetica,sans-Serif" font-size="10.00">+ ~BlockReader()</text>
<text text-anchor="start" x="167.5" y="-934" font-family="Helvetica,sans-Serif" font-size="10.00">+ getAltTip()</text>
<text text-anchor="start" x="167.5" y="-923" font-family="Helvetica,sans-Serif" font-size="10.00">+ getVbkTip()</text>
<text text-anchor="start" x="167.5" y="-912" font-family="Helvetica,sans-Serif" font-size="10.00">+ getBtcTip()</text>
<text text-anchor="start" x="167.5" y="-901" font-family="Helvetica,sans-Serif" font-size="10.00">+ getBlock()</text>
<text text-anchor="start" x="167.5" y="-890" font-family="Helvetica,sans-Serif" font-size="10.00">+ getBlock()</text>
<text text-anchor="start" x="167.5" y="-879" font-family="Helvetica,sans-Serif" font-size="10.00">+ getBlock()</text>
<text text-anchor="start" x="167.5" y="-868" font-family="Helvetica,sans-Serif" font-size="10.00">+ getAltBlockIterator()</text>
<text text-anchor="start" x="167.5" y="-857" font-family="Helvetica,sans-Serif" font-size="10.00">+ getVbkBlockIterator()</text>
<text text-anchor="start" x="167.5" y="-846" font-family="Helvetica,sans-Serif" font-size="10.00">+ getBtcBlockIterator()</text>
<text text-anchor="start" x="167.5" y="-835" font-family="Helvetica,sans-Serif" font-size="10.00">and 6 more...</text>
</a>
</g>
</g>
<!-- Node3&#45;&gt;Node2 -->
<g id="edge2" class="edge">
<title>Node3&#45;&gt;Node2</title>
<path fill="none" stroke="#404040" d="M215.61,-827.71C215.65,-816 216.47,-804.16 218.5,-793 237.8,-686.94 288.3,-576.21 332.94,-493.48"/>
<polygon fill="none" stroke="#404040" points="333.04,-493.31 332.39,-486.12 338.77,-482.77 339.42,-489.95 333.04,-493.31"/>
<text text-anchor="middle" x="349" y="-650" font-family="Helvetica,sans-Serif" font-size="10.00"> #blockProvider_</text>
</g>
<!-- Node20 -->
<g id="node20" class="node">
<title>Node20</title>
<g id="a_node20"><a xlink:href="structaltintegration_1_1BaseBlockTree.html" target="_top" xlink:title="Base block tree that stores all blocks, maintains tree tips, maintains active chain.">
<polygon fill="white" stroke="black" points="459.5,-530.5 459.5,-774.5 611.5,-774.5 611.5,-530.5 459.5,-530.5"/>
<text text-anchor="start" x="467.5" y="-762.5" font-family="Helvetica,sans-Serif" font-size="10.00">altintegration::BaseBlock</text>
<text text-anchor="middle" x="535.5" y="-751.5" font-family="Helvetica,sans-Serif" font-size="10.00">Tree&lt; Block &gt;</text>
<polyline fill="none" stroke="black" points="459.5,-744.5 611.5,-744.5 "/>
<text text-anchor="start" x="467.5" y="-732.5" font-family="Helvetica,sans-Serif" font-size="10.00"># validity_sig_</text>
<polyline fill="none" stroke="black" points="459.5,-725.5 611.5,-725.5 "/>
<text text-anchor="start" x="467.5" y="-713.5" font-family="Helvetica,sans-Serif" font-size="10.00">+ getTips()</text>
<text text-anchor="start" x="467.5" y="-702.5" font-family="Helvetica,sans-Serif" font-size="10.00">+ getBlocks()</text>
<text text-anchor="start" x="467.5" y="-691.5" font-family="Helvetica,sans-Serif" font-size="10.00">+ getBlockProvider()</text>
<text text-anchor="start" x="467.5" y="-680.5" font-family="Helvetica,sans-Serif" font-size="10.00">+ ~BaseBlockTree()</text>
<text text-anchor="start" x="467.5" y="-669.5" font-family="Helvetica,sans-Serif" font-size="10.00">+ BaseBlockTree()</text>
<text text-anchor="start" x="467.5" y="-658.5" font-family="Helvetica,sans-Serif" font-size="10.00">+ BaseBlockTree()</text>
<text text-anchor="start" x="467.5" y="-647.5" font-family="Helvetica,sans-Serif" font-size="10.00">+ operator=()</text>
<text text-anchor="start" x="467.5" y="-636.5" font-family="Helvetica,sans-Serif" font-size="10.00">+ BaseBlockTree()</text>
<text text-anchor="start" x="467.5" y="-625.5" font-family="Helvetica,sans-Serif" font-size="10.00">+ operator=()</text>
<text text-anchor="start" x="467.5" y="-614.5" font-family="Helvetica,sans-Serif" font-size="10.00">+ getBestChain()</text>
<text text-anchor="start" x="467.5" y="-603.5" font-family="Helvetica,sans-Serif" font-size="10.00">and 23 more...</text>
<text text-anchor="start" x="467.5" y="-592.5" font-family="Helvetica,sans-Serif" font-size="10.00"># eraseBlock()</text>
<text text-anchor="start" x="467.5" y="-581.5" font-family="Helvetica,sans-Serif" font-size="10.00"># toPrettyString()</text>
<text text-anchor="start" x="467.5" y="-570.5" font-family="Helvetica,sans-Serif" font-size="10.00"># decreaseAppliedBlockCount()</text>
<text text-anchor="start" x="467.5" y="-559.5" font-family="Helvetica,sans-Serif" font-size="10.00"># increaseAppliedBlockCount()</text>
<text text-anchor="start" x="467.5" y="-548.5" font-family="Helvetica,sans-Serif" font-size="10.00"># decreaseAppliedBlockCount()</text>
<text text-anchor="start" x="467.5" y="-537.5" font-family="Helvetica,sans-Serif" font-size="10.00"># increaseAppliedBlockCount()</text>
</a>
</g>
</g>
<!-- Node3&#45;&gt;Node20 -->
<g id="edge26" class="edge">
<title>Node3&#45;&gt;Node20</title>
<path fill="none" stroke="#404040" d="M291.63,-828.49C294.53,-826.19 297.49,-824.02 300.5,-822 356.77,-784.27 390.5,-814.55 445.5,-775 447,-773.92 448.48,-772.81 449.95,-771.67"/>
<polygon fill="none" stroke="#404040" points="450.23,-771.44 452.26,-764.53 459.43,-763.74 457.4,-770.66 450.23,-771.44"/>
<text text-anchor="middle" x="446" y="-796" font-family="Helvetica,sans-Serif" font-size="10.00"> #blockProvider_</text>
</g>
<!-- Node4 -->
<g id="node4" class="node">
<title>Node4</title>
<g id="a_node4"><a xlink:href="structaltintegration_1_1Chain.html" target="_top" xlink:title=" ">
<polygon fill="white" stroke="black" points="0,-822.5 0,-1000.5 141,-1000.5 141,-822.5 0,-822.5"/>
<text text-anchor="start" x="8" y="-988.5" font-family="Helvetica,sans-Serif" font-size="10.00">altintegration::Chain</text>
<text text-anchor="middle" x="70.5" y="-977.5" font-family="Helvetica,sans-Serif" font-size="10.00">&lt; altintegration::BlockIndex &gt;</text>
<polyline fill="none" stroke="black" points="0,-970.5 141,-970.5 "/>
<text text-anchor="middle" x="70.5" y="-958.5" font-family="Helvetica,sans-Serif" font-size="10.00"> </text>
<polyline fill="none" stroke="black" points="0,-951.5 141,-951.5 "/>
<text text-anchor="start" x="8" y="-939.5" font-family="Helvetica,sans-Serif" font-size="10.00">+ Chain()</text>
<text text-anchor="start" x="8" y="-928.5" font-family="Helvetica,sans-Serif" font-size="10.00">+ Chain()</text>
<text text-anchor="start" x="8" y="-917.5" font-family="Helvetica,sans-Serif" font-size="10.00">+ Chain()</text>
<text text-anchor="start" x="8" y="-906.5" font-family="Helvetica,sans-Serif" font-size="10.00">+ getStartHeight()</text>
<text text-anchor="start" x="8" y="-895.5" font-family="Helvetica,sans-Serif" font-size="10.00">+ firstHeight()</text>
<text text-anchor="start" x="8" y="-884.5" font-family="Helvetica,sans-Serif" font-size="10.00">+ contains()</text>
<text text-anchor="start" x="8" y="-873.5" font-family="Helvetica,sans-Serif" font-size="10.00">+ operator[]()</text>
<text text-anchor="start" x="8" y="-862.5" font-family="Helvetica,sans-Serif" font-size="10.00">+ next()</text>
<text text-anchor="start" x="8" y="-851.5" font-family="Helvetica,sans-Serif" font-size="10.00">+ chainHeight()</text>
<text text-anchor="start" x="8" y="-840.5" font-family="Helvetica,sans-Serif" font-size="10.00">+ empty()</text>
<text text-anchor="start" x="8" y="-829.5" font-family="Helvetica,sans-Serif" font-size="10.00">and 15 more...</text>
</a>
</g>
</g>
<!-- Node4&#45;&gt;Node2 -->
<g id="edge3" class="edge">
<title>Node4&#45;&gt;Node2</title>
<path fill="none" stroke="#404040" d="M71.73,-822.22C76.89,-739.92 95.24,-617.12 155.5,-530 197.26,-469.63 268.36,-425.48 325.2,-397.56"/>
<polygon fill="none" stroke="#404040" points="325.55,-397.39 329.23,-391.18 336.37,-392.19 332.69,-398.39 325.55,-397.39"/>
<text text-anchor="middle" x="187.5" y="-650" font-family="Helvetica,sans-Serif" font-size="10.00"> #activeChain_</text>
</g>
<!-- Node4&#45;&gt;Node20 -->
<g id="edge27" class="edge">
<title>Node4&#45;&gt;Node20</title>
<path fill="none" stroke="#404040" d="M141.05,-828.17C144.14,-825.96 147.29,-823.9 150.5,-822 198.86,-793.43 218.12,-802.39 273.5,-793 311.39,-786.58 412.13,-794.05 445.5,-775 446.7,-774.32 447.88,-773.61 449.06,-772.88"/>
<polygon fill="none" stroke="#404040" points="449.46,-772.61 452.11,-765.9 459.32,-765.77 456.67,-772.48 449.46,-772.61"/>
<text text-anchor="middle" x="305.5" y="-796" font-family="Helvetica,sans-Serif" font-size="10.00"> #activeChain_</text>
</g>
<!-- Node5 -->
<g id="node5" class="node">
<title>Node5</title>
<g id="a_node5"><a xlink:href="structaltintegration_1_1Chain.html" target="_top" xlink:title="Fully in&#45;memory chain representation.">
<polygon fill="white" stroke="black" points="15,-1076 15,-1254 116,-1254 116,-1076 15,-1076"/>
<text text-anchor="start" x="23" y="-1242" font-family="Helvetica,sans-Serif" font-size="10.00">altintegration::Chain</text>
<text text-anchor="middle" x="65.5" y="-1231" font-family="Helvetica,sans-Serif" font-size="10.00">&lt; BlockIndexT &gt;</text>
<polyline fill="none" stroke="black" points="15,-1224 116,-1224 "/>
<text text-anchor="middle" x="65.5" y="-1212" font-family="Helvetica,sans-Serif" font-size="10.00"> </text>
<polyline fill="none" stroke="black" points="15,-1205 116,-1205 "/>
<text text-anchor="start" x="23" y="-1193" font-family="Helvetica,sans-Serif" font-size="10.00">+ Chain()</text>
<text text-anchor="start" x="23" y="-1182" font-family="Helvetica,sans-Serif" font-size="10.00">+ Chain()</text>
<text text-anchor="start" x="23" y="-1171" font-family="Helvetica,sans-Serif" font-size="10.00">+ Chain()</text>
<text text-anchor="start" x="23" y="-1160" font-family="Helvetica,sans-Serif" font-size="10.00">+ getStartHeight()</text>
<text text-anchor="start" x="23" y="-1149" font-family="Helvetica,sans-Serif" font-size="10.00">+ firstHeight()</text>
<text text-anchor="start" x="23" y="-1138" font-family="Helvetica,sans-Serif" font-size="10.00">+ contains()</text>
<text text-anchor="start" x="23" y="-1127" font-family="Helvetica,sans-Serif" font-size="10.00">+ operator[]()</text>
<text text-anchor="start" x="23" y="-1116" font-family="Helvetica,sans-Serif" font-size="10.00">+ next()</text>
<text text-anchor="start" x="23" y="-1105" font-family="Helvetica,sans-Serif" font-size="10.00">+ chainHeight()</text>
<text text-anchor="start" x="23" y="-1094" font-family="Helvetica,sans-Serif" font-size="10.00">+ empty()</text>
<text text-anchor="start" x="23" y="-1083" font-family="Helvetica,sans-Serif" font-size="10.00">and 15 more...</text>
</a>
</g>
</g>
<!-- Node5&#45;&gt;Node4 -->
<g id="edge4" class="edge">
<title>Node5&#45;&gt;Node4</title>
<path fill="none" stroke="orange" d="M65.77,-1065.63C65.93,-1050.03 66.17,-1034.07 66.5,-1019 66.63,-1012.99 66.8,-1006.79 66.98,-1000.54"/>
<polygon fill="orange" stroke="orange" points="62.27,-1065.78 65.68,-1075.81 69.27,-1065.85 62.27,-1065.78"/>
<text text-anchor="middle" x="130" y="-1027.5" font-family="Helvetica,sans-Serif" font-size="10.00"> &lt; altintegration::BlockIndex &gt;</text>
</g>
<!-- Node6 -->
<g id="node6" class="node">
<title>Node6</title>
<g id="a_node6"><a xlink:title=" ">
<polygon fill="white" stroke="#bfbfbf" points="608,-872 608,-951 745,-951 745,-872 608,-872"/>
<text text-anchor="start" x="616" y="-939" font-family="Helvetica,sans-Serif" font-size="10.00">std::unordered_map</text>
<text text-anchor="start" x="616" y="-928" font-family="Helvetica,sans-Serif" font-size="10.00">&lt; prev_block_hash_t,</text>
<text text-anchor="middle" x="676.5" y="-917" font-family="Helvetica,sans-Serif" font-size="10.00"> std::unique_ptr&lt; index_t &gt; &gt;</text>
<polyline fill="none" stroke="#bfbfbf" points="608,-910 745,-910 "/>
<text text-anchor="start" x="616" y="-898" font-family="Helvetica,sans-Serif" font-size="10.00">+ keys</text>
<polyline fill="none" stroke="#bfbfbf" points="608,-891 745,-891 "/>
<text text-anchor="middle" x="676.5" y="-879" font-family="Helvetica,sans-Serif" font-size="10.00"> </text>
</a>
</g>
</g>
<!-- Node6&#45;&gt;Node2 -->
<g id="edge5" class="edge">
<title>Node6&#45;&gt;Node2</title>
<path fill="none" stroke="#404040" d="M679.65,-871.93C683.74,-799.72 683.98,-641.38 620.5,-530 592,-479.99 542.39,-438.93 498.77,-409.87"/>
<polygon fill="none" stroke="#404040" points="498.75,-409.85 491.54,-409.93 488.7,-403.3 495.91,-403.23 498.75,-409.85"/>
<text text-anchor="middle" x="700.5" y="-650" font-family="Helvetica,sans-Serif" font-size="10.00"> #blocks_</text>
</g>
<!-- Node6&#45;&gt;Node20 -->
<g id="edge28" class="edge">
<title>Node6&#45;&gt;Node20</title>
<path fill="none" stroke="#404040" d="M648.73,-871.95C634.97,-852.1 618.56,-827.25 605.5,-804 602.11,-797.96 598.74,-791.74 595.42,-785.4"/>
<polygon fill="none" stroke="#404040" points="595.38,-785.33 589.07,-781.83 589.87,-774.67 596.18,-778.16 595.38,-785.33"/>
<text text-anchor="middle" x="626.5" y="-796" font-family="Helvetica,sans-Serif" font-size="10.00"> #blocks_</text>
</g>
<!-- Node7 -->
<g id="node7" class="node">
<title>Node7</title>
<g id="a_node7"><a xlink:title=" ">
<polygon fill="white" stroke="#bfbfbf" points="624,-1289.5 624,-1346.5 751,-1346.5 751,-1289.5 624,-1289.5"/>
<text text-anchor="middle" x="687.5" y="-1334.5" font-family="Helvetica,sans-Serif" font-size="10.00">std::unique_ptr&lt; index_t &gt;</text>
<polyline fill="none" stroke="#bfbfbf" points="624,-1327.5 751,-1327.5 "/>
<text text-anchor="start" x="632" y="-1315.5" font-family="Helvetica,sans-Serif" font-size="10.00">+ ptr</text>
<polyline fill="none" stroke="#bfbfbf" points="624,-1308.5 751,-1308.5 "/>
<text text-anchor="start" x="632" y="-1296.5" font-family="Helvetica,sans-Serif" font-size="10.00">+ operator&#45;&gt;()</text>
</a>
</g>
</g>
<!-- Node7&#45;&gt;Node6 -->
<g id="edge6" class="edge">
<title>Node7&#45;&gt;Node6</title>
<path fill="none" stroke="#404040" d="M686.74,-1289.2C684.91,-1221.91 680.23,-1049.51 677.88,-963.25"/>
<polygon fill="none" stroke="#404040" points="677.88,-963.16 673.72,-957.28 677.55,-951.17 681.71,-957.06 677.88,-963.16"/>
<text text-anchor="middle" x="710" y="-1162.5" font-family="Helvetica,sans-Serif" font-size="10.00"> +elements</text>
</g>
<!-- Node8 -->
<g id="node8" class="node">
<title>Node8</title>
<g id="a_node8"><a xlink:title=" ">
<polygon fill="white" stroke="#bfbfbf" points="636.5,-1441.5 636.5,-1498.5 738.5,-1498.5 738.5,-1441.5 636.5,-1441.5"/>
<text text-anchor="middle" x="687.5" y="-1486.5" font-family="Helvetica,sans-Serif" font-size="10.00">std::unique_ptr&lt; T &gt;</text>
<polyline fill="none" stroke="#bfbfbf" points="636.5,-1479.5 738.5,-1479.5 "/>
<text text-anchor="middle" x="687.5" y="-1467.5" font-family="Helvetica,sans-Serif" font-size="10.00"> </text>
<polyline fill="none" stroke="#bfbfbf" points="636.5,-1460.5 738.5,-1460.5 "/>
<text text-anchor="start" x="644.5" y="-1448.5" font-family="Helvetica,sans-Serif" font-size="10.00">+ operator&#45;&gt;()</text>
</a>
</g>
</g>
<!-- Node8&#45;&gt;Node7 -->
<g id="edge7" class="edge">
<title>Node8&#45;&gt;Node7</title>
<path fill="none" stroke="orange" d="M687.5,-1431.47C687.5,-1405.11 687.5,-1370.43 687.5,-1346.59"/>
<polygon fill="orange" stroke="orange" points="684,-1431.49 687.5,-1441.49 691,-1431.49 684,-1431.49"/>
<text text-anchor="middle" x="712.5" y="-1391.5" font-family="Helvetica,sans-Serif" font-size="10.00"> &lt; index_t &gt;</text>
</g>
<!-- Node9 -->
<g id="node9" class="node">
<title>Node9</title>
<g id="a_node9"><a xlink:title=" ">
<polygon fill="white" stroke="#bfbfbf" points="673,-1622.5 673,-1679.5 702,-1679.5 702,-1622.5 673,-1622.5"/>
<text text-anchor="middle" x="687.5" y="-1667.5" font-family="Helvetica,sans-Serif" font-size="10.00">T</text>
<polyline fill="none" stroke="#bfbfbf" points="673,-1660.5 702,-1660.5 "/>
<text text-anchor="middle" x="687.5" y="-1648.5" font-family="Helvetica,sans-Serif" font-size="10.00"> </text>
<polyline fill="none" stroke="#bfbfbf" points="673,-1641.5 702,-1641.5 "/>
<text text-anchor="middle" x="687.5" y="-1629.5" font-family="Helvetica,sans-Serif" font-size="10.00"> </text>
</a>
</g>
</g>
<!-- Node9&#45;&gt;Node8 -->
<g id="edge8" class="edge">
<title>Node9&#45;&gt;Node8</title>
<path fill="none" stroke="#404040" d="M687.5,-1622.42C687.5,-1592.6 687.5,-1544.77 687.5,-1510.86"/>
<polygon fill="none" stroke="#404040" points="687.5,-1510.61 683.5,-1504.61 687.5,-1498.61 691.5,-1504.61 687.5,-1510.61"/>
<text text-anchor="middle" x="697.5" y="-1596" font-family="Helvetica,sans-Serif" font-size="10.00"> +ptr</text>
</g>
<!-- Node10 -->
<g id="node10" class="node">
<title>Node10</title>
<g id="a_node10"><a xlink:title=" ">
<polygon fill="white" stroke="#bfbfbf" points="746,-1131 746,-1199 847,-1199 847,-1131 746,-1131"/>
<text text-anchor="start" x="754" y="-1187" font-family="Helvetica,sans-Serif" font-size="10.00">std::unordered_map</text>
<text text-anchor="middle" x="796.5" y="-1176" font-family="Helvetica,sans-Serif" font-size="10.00">&lt; K, T &gt;</text>
<polyline fill="none" stroke="#bfbfbf" points="746,-1169 847,-1169 "/>
<text text-anchor="middle" x="796.5" y="-1157" font-family="Helvetica,sans-Serif" font-size="10.00"> </text>
<polyline fill="none" stroke="#bfbfbf" points="746,-1150 847,-1150 "/>
<text text-anchor="middle" x="796.5" y="-1138" font-family="Helvetica,sans-Serif" font-size="10.00"> </text>
</a>
</g>
</g>
<!-- Node9&#45;&gt;Node10 -->
<g id="edge11" class="edge">
<title>Node9&#45;&gt;Node10</title>
<path fill="none" stroke="#404040" d="M702.15,-1623.57C705.42,-1617.25 708.73,-1610.46 711.5,-1604 730.97,-1558.67 735.86,-1546.94 747.5,-1499 772.06,-1397.85 786.16,-1276.24 792.47,-1211.62"/>
<polygon fill="none" stroke="#404040" points="792.49,-1211.42 789.08,-1205.07 793.63,-1199.47 797.04,-1205.83 792.49,-1211.42"/>
<text text-anchor="middle" x="784" y="-1467.5" font-family="Helvetica,sans-Serif" font-size="10.00"> +elements</text>
</g>
<!-- Node16 -->
<g id="node16" class="node">
<title>Node16</title>
<g id="a_node16"><a xlink:title=" ">
<polygon fill="white" stroke="#bfbfbf" points="508,-1517.5 508,-1574.5 611,-1574.5 611,-1517.5 508,-1517.5"/>
<text text-anchor="middle" x="559.5" y="-1562.5" font-family="Helvetica,sans-Serif" font-size="10.00">std::shared_ptr&lt; T &gt;</text>
<polyline fill="none" stroke="#bfbfbf" points="508,-1555.5 611,-1555.5 "/>
<text text-anchor="middle" x="559.5" y="-1543.5" font-family="Helvetica,sans-Serif" font-size="10.00"> </text>
<polyline fill="none" stroke="#bfbfbf" points="508,-1536.5 611,-1536.5 "/>
<text text-anchor="start" x="516" y="-1524.5" font-family="Helvetica,sans-Serif" font-size="10.00">+ operator&#45;&gt;()</text>
</a>
</g>
</g>
<!-- Node9&#45;&gt;Node16 -->
<g id="edge17" class="edge">
<title>Node9&#45;&gt;Node16</title>
<path fill="none" stroke="#404040" d="M672.82,-1638.18C655.95,-1624.61 627.48,-1601.7 603.3,-1582.24"/>
<polygon fill="none" stroke="#404040" points="603.28,-1582.23 596.1,-1581.58 593.93,-1574.71 601.11,-1575.35 603.28,-1582.23"/>
<text text-anchor="middle" x="636.5" y="-1596" font-family="Helvetica,sans-Serif" font-size="10.00"> +ptr</text>
</g>
<!-- Node10&#45;&gt;Node6 -->
<g id="edge9" class="edge">
<title>Node10&#45;&gt;Node6</title>
<path fill="none" stroke="orange" d="M776.33,-1121.73C753.58,-1074.06 716.9,-997.17 694.9,-951.07"/>
<polygon fill="orange" stroke="orange" points="773.22,-1123.34 780.69,-1130.86 779.54,-1120.33 773.22,-1123.34"/>
<text text-anchor="start" x="736.5" y="-1033" font-family="Helvetica,sans-Serif" font-size="10.00"> &lt; prev_block_hash_t,</text>
<text text-anchor="middle" x="797" y="-1022" font-family="Helvetica,sans-Serif" font-size="10.00"> std::unique_ptr&lt; index_t &gt; &gt;</text>
</g>
<!-- Node11 -->
<g id="node11" class="node">
<title>Node11</title>
<g id="a_node11"><a xlink:title=" ">
<polygon fill="white" stroke="#bfbfbf" points="523,-1365.5 523,-1422.5 552,-1422.5 552,-1365.5 523,-1365.5"/>
<text text-anchor="middle" x="537.5" y="-1410.5" font-family="Helvetica,sans-Serif" font-size="10.00">K</text>
<polyline fill="none" stroke="#bfbfbf" points="523,-1403.5 552,-1403.5 "/>
<text text-anchor="middle" x="537.5" y="-1391.5" font-family="Helvetica,sans-Serif" font-size="10.00"> </text>
<polyline fill="none" stroke="#bfbfbf" points="523,-1384.5 552,-1384.5 "/>
<text text-anchor="middle" x="537.5" y="-1372.5" font-family="Helvetica,sans-Serif" font-size="10.00"> </text>
</a>
</g>
</g>
<!-- Node11&#45;&gt;Node10 -->
<g id="edge10" class="edge">
<title>Node11&#45;&gt;Node10</title>
<path fill="none" stroke="#404040" d="M552.13,-1373.06C557.46,-1365.21 563.21,-1355.94 567.5,-1347 579.23,-1322.54 565.56,-1306.24 586.5,-1289 636.63,-1247.72 676.83,-1306.04 731.5,-1271 753.63,-1256.81 769.48,-1232.13 779.98,-1210.25"/>
<polygon fill="none" stroke="#404040" points="780.06,-1210.08 778.87,-1202.97 784.99,-1199.14 786.17,-1206.25 780.06,-1210.08"/>
<text text-anchor="middle" x="601" y="-1315.5" font-family="Helvetica,sans-Serif" font-size="10.00"> +keys</text>
</g>
<!-- Node18 -->
<g id="node18" class="node">
<title>Node18</title>
<g id="a_node18"><a xlink:title=" ">
<polygon fill="white" stroke="#bfbfbf" points="394,-1136.5 394,-1193.5 465,-1193.5 465,-1136.5 394,-1136.5"/>
<text text-anchor="middle" x="429.5" y="-1181.5" font-family="Helvetica,sans-Serif" font-size="10.00">std::set&lt; K &gt;</text>
<polyline fill="none" stroke="#bfbfbf" points="394,-1174.5 465,-1174.5 "/>
<text text-anchor="middle" x="429.5" y="-1162.5" font-family="Helvetica,sans-Serif" font-size="10.00"> </text>
<polyline fill="none" stroke="#bfbfbf" points="394,-1155.5 465,-1155.5 "/>
<text text-anchor="middle" x="429.5" y="-1143.5" font-family="Helvetica,sans-Serif" font-size="10.00"> </text>
</a>
</g>
</g>
<!-- Node11&#45;&gt;Node18 -->
<g id="edge22" class="edge">
<title>Node11&#45;&gt;Node18</title>
<path fill="none" stroke="#404040" d="M522.67,-1374.4C516.59,-1366.27 509.75,-1356.45 504.5,-1347 478.47,-1300.19 456.09,-1242.49 442.71,-1205"/>
<polygon fill="none" stroke="#404040" points="442.68,-1204.9 436.91,-1200.57 438.69,-1193.58 444.46,-1197.91 442.68,-1204.9"/>
<text text-anchor="middle" x="519" y="-1315.5" font-family="Helvetica,sans-Serif" font-size="10.00"> +keys</text>
</g>
<!-- Node19 -->
<g id="node19" class="node">
<title>Node19</title>
<g id="a_node19"><a xlink:title=" ">
<polygon fill="white" stroke="#bfbfbf" points="483,-1136.5 483,-1193.5 602,-1193.5 602,-1136.5 483,-1136.5"/>
<text text-anchor="middle" x="542.5" y="-1181.5" font-family="Helvetica,sans-Serif" font-size="10.00">std::unordered_set&lt; K &gt;</text>
<polyline fill="none" stroke="#bfbfbf" points="483,-1174.5 602,-1174.5 "/>
<text text-anchor="middle" x="542.5" y="-1162.5" font-family="Helvetica,sans-Serif" font-size="10.00"> </text>
<polyline fill="none" stroke="#bfbfbf" points="483,-1155.5 602,-1155.5 "/>
<text text-anchor="middle" x="542.5" y="-1143.5" font-family="Helvetica,sans-Serif" font-size="10.00"> </text>
</a>
</g>
</g>
<!-- Node11&#45;&gt;Node19 -->
<g id="edge24" class="edge">
<title>Node11&#45;&gt;Node19</title>
<path fill="none" stroke="#404040" d="M537.59,-1365.19C537.71,-1344.24 537.96,-1314.81 538.5,-1289 539.08,-1261.3 540.1,-1230.1 540.97,-1206.05"/>
<polygon fill="none" stroke="#404040" points="540.97,-1205.83 537.2,-1199.69 541.41,-1193.84 545.19,-1199.98 540.97,-1205.83"/>
<text text-anchor="middle" x="553" y="-1315.5" font-family="Helvetica,sans-Serif" font-size="10.00"> +keys</text>
</g>
<!-- Node12 -->
<g id="node12" class="node">
<title>Node12</title>
<g id="a_node12"><a xlink:title=" ">
<polygon fill="white" stroke="#bfbfbf" points="442,-877.5 442,-945.5 589,-945.5 589,-877.5 442,-877.5"/>
<text text-anchor="start" x="450" y="-933.5" font-family="Helvetica,sans-Serif" font-size="10.00">std::unordered_set</text>
<text text-anchor="middle" x="515.5" y="-922.5" font-family="Helvetica,sans-Serif" font-size="10.00">&lt; altintegration::BlockIndex * &gt;</text>
<polyline fill="none" stroke="#bfbfbf" points="442,-915.5 589,-915.5 "/>
<text text-anchor="middle" x="515.5" y="-903.5" font-family="Helvetica,sans-Serif" font-size="10.00"> </text>
<polyline fill="none" stroke="#bfbfbf" points="442,-896.5 589,-896.5 "/>
<text text-anchor="middle" x="515.5" y="-884.5" font-family="Helvetica,sans-Serif" font-size="10.00"> </text>
</a>
</g>
</g>
<!-- Node12&#45;&gt;Node2 -->
<g id="edge12" class="edge">
<title>Node12&#45;&gt;Node2</title>
<path fill="none" stroke="#404040" d="M484.12,-877.36C462,-851.65 434.15,-813.94 421.5,-775 392.16,-684.69 390.73,-577.34 396.21,-494.65"/>
<polygon fill="none" stroke="#404040" points="396.21,-494.61 392.65,-488.34 397.06,-482.64 400.62,-488.9 396.21,-494.61"/>
<text text-anchor="middle" x="436" y="-650" font-family="Helvetica,sans-Serif" font-size="10.00"> #tips_</text>
</g>
<!-- Node12&#45;&gt;Node20 -->
<g id="edge29" class="edge">
<title>Node12&#45;&gt;Node20</title>
<path fill="none" stroke="#404040" d="M518.07,-877.43C519.91,-853.84 522.51,-820.43 525.14,-786.59"/>
<polygon fill="none" stroke="#404040" points="525.14,-786.58 521.62,-780.29 526.07,-774.61 529.6,-780.91 525.14,-786.58"/>
<text text-anchor="middle" x="538" y="-796" font-family="Helvetica,sans-Serif" font-size="10.00"> #tips_</text>
</g>
<!-- Node13 -->
<g id="node13" class="node">
<title>Node13</title>
<g id="a_node13"><a xlink:href="structaltintegration_1_1BlockIndex.html" target="_top" xlink:title="A node in a block tree.">
<polygon fill="white" stroke="black" points="200,-1059.5 200,-1270.5 325,-1270.5 325,-1059.5 200,-1059.5"/>
<text text-anchor="start" x="208" y="-1258.5" font-family="Helvetica,sans-Serif" font-size="10.00">altintegration::BlockIndex</text>
<text text-anchor="middle" x="262.5" y="-1247.5" font-family="Helvetica,sans-Serif" font-size="10.00">&lt; Block &gt;</text>
<polyline fill="none" stroke="black" points="200,-1240.5 325,-1240.5 "/>
<text text-anchor="start" x="208" y="-1228.5" font-family="Helvetica,sans-Serif" font-size="10.00">+ finalized</text>
<text text-anchor="start" x="208" y="-1217.5" font-family="Helvetica,sans-Serif" font-size="10.00"># height</text>
<text text-anchor="start" x="208" y="-1206.5" font-family="Helvetica,sans-Serif" font-size="10.00"># status</text>
<text text-anchor="start" x="208" y="-1195.5" font-family="Helvetica,sans-Serif" font-size="10.00"># dirty</text>
<polyline fill="none" stroke="black" points="200,-1188.5 325,-1188.5 "/>
<text text-anchor="start" x="208" y="-1176.5" font-family="Helvetica,sans-Serif" font-size="10.00">+ BlockIndex()</text>
<text text-anchor="start" x="208" y="-1165.5" font-family="Helvetica,sans-Serif" font-size="10.00">+ BlockIndex()</text>
<text text-anchor="start" x="208" y="-1154.5" font-family="Helvetica,sans-Serif" font-size="10.00">+ ~BlockIndex()</text>
<text text-anchor="start" x="208" y="-1143.5" font-family="Helvetica,sans-Serif" font-size="10.00">+ BlockIndex()</text>
<text text-anchor="start" x="208" y="-1132.5" font-family="Helvetica,sans-Serif" font-size="10.00">+ operator=()</text>
<text text-anchor="start" x="208" y="-1121.5" font-family="Helvetica,sans-Serif" font-size="10.00">+ isDeleted()</text>
<text text-anchor="start" x="208" y="-1110.5" font-family="Helvetica,sans-Serif" font-size="10.00">+ restore()</text>
<text text-anchor="start" x="208" y="-1099.5" font-family="Helvetica,sans-Serif" font-size="10.00">+ deleteTemporarily()</text>
<text text-anchor="start" x="208" y="-1088.5" font-family="Helvetica,sans-Serif" font-size="10.00">+ mergeFrom()</text>
<text text-anchor="start" x="208" y="-1077.5" font-family="Helvetica,sans-Serif" font-size="10.00">+ toStoredBlockIndex()</text>
<text text-anchor="start" x="208" y="-1066.5" font-family="Helvetica,sans-Serif" font-size="10.00">and 39 more...</text>
</a>
</g>
</g>
<!-- Node13&#45;&gt;Node12 -->
<g id="edge13" class="edge">
<title>Node13&#45;&gt;Node12</title>
<path fill="none" stroke="#404040" d="M313.21,-1059.18C324.37,-1043.93 337.44,-1029.78 352.5,-1019 381.43,-998.3 399.56,-1018.56 430.5,-1001 450.63,-989.57 468.99,-971.9 483.45,-955.34"/>
<polygon fill="none" stroke="#404040" points="483.77,-954.96 484.58,-947.79 491.5,-945.78 490.7,-952.95 483.77,-954.96"/>
<text text-anchor="middle" x="367" y="-1027.5" font-family="Helvetica,sans-Serif" font-size="10.00"> +keys</text>
</g>
<!-- Node13&#45;&gt;Node13 -->
<g id="edge18" class="edge">
<title>Node13&#45;&gt;Node13</title>
<path fill="none" stroke="#404040" d="M325.28,-1188.35C335.76,-1185.08 343,-1177.3 343,-1165 343,-1157.5 340.31,-1151.69 335.84,-1147.54"/>
<polygon fill="none" stroke="#404040" points="335.76,-1147.5 328.57,-1148.06 325.28,-1141.65 332.47,-1141.08 335.76,-1147.5"/>
<text text-anchor="middle" x="359.5" y="-1162.5" font-family="Helvetica,sans-Serif" font-size="10.00"> +pprev</text>
</g>
<!-- Node17 -->
<g id="node17" class="node">
<title>Node17</title>
<g id="a_node17"><a xlink:title=" ">
<polygon fill="white" stroke="#bfbfbf" points="309.5,-877.5 309.5,-945.5 421.5,-945.5 421.5,-877.5 309.5,-877.5"/>
<text text-anchor="start" x="317.5" y="-933.5" font-family="Helvetica,sans-Serif" font-size="10.00">std::set&lt; altintegration</text>
<text text-anchor="middle" x="365.5" y="-922.5" font-family="Helvetica,sans-Serif" font-size="10.00">::BlockIndex * &gt;</text>
<polyline fill="none" stroke="#bfbfbf" points="309.5,-915.5 421.5,-915.5 "/>
<text text-anchor="middle" x="365.5" y="-903.5" font-family="Helvetica,sans-Serif" font-size="10.00"> </text>
<polyline fill="none" stroke="#bfbfbf" points="309.5,-896.5 421.5,-896.5 "/>
<text text-anchor="middle" x="365.5" y="-884.5" font-family="Helvetica,sans-Serif" font-size="10.00"> </text>
</a>
</g>
</g>
<!-- Node13&#45;&gt;Node17 -->
<g id="edge20" class="edge">
<title>Node13&#45;&gt;Node17</title>
<path fill="none" stroke="#404040" d="M214.52,-1059.18C213.97,-1044.74 217.2,-1030.83 226.5,-1019 247.42,-992.39 272.34,-1019.77 300.5,-1001 317.42,-989.72 331.52,-972.49 342.21,-956.21"/>
<polygon fill="none" stroke="#404040" points="342.4,-955.91 342.18,-948.7 348.75,-945.72 348.97,-952.93 342.4,-955.91"/>
<text text-anchor="middle" x="241" y="-1027.5" font-family="Helvetica,sans-Serif" font-size="10.00"> +keys</text>
</g>
<!-- Node14 -->
<g id="node14" class="node">
<title>Node14</title>
<g id="a_node14"><a xlink:title=" ">
<polygon fill="white" stroke="#bfbfbf" points="222.5,-1365.5 222.5,-1422.5 302.5,-1422.5 302.5,-1365.5 222.5,-1365.5"/>
<text text-anchor="middle" x="262.5" y="-1410.5" font-family="Helvetica,sans-Serif" font-size="10.00">Block::addon_t</text>
<polyline fill="none" stroke="#bfbfbf" points="222.5,-1403.5 302.5,-1403.5 "/>
<text text-anchor="middle" x="262.5" y="-1391.5" font-family="Helvetica,sans-Serif" font-size="10.00"> </text>
<polyline fill="none" stroke="#bfbfbf" points="222.5,-1384.5 302.5,-1384.5 "/>
<text text-anchor="middle" x="262.5" y="-1372.5" font-family="Helvetica,sans-Serif" font-size="10.00"> </text>
</a>
</g>
</g>
<!-- Node14&#45;&gt;Node13 -->
<g id="edge14" class="edge">
<title>Node14&#45;&gt;Node13</title>
<path fill="none" stroke="midnightblue" d="M262.5,-1355.05C262.5,-1331.79 262.5,-1300.76 262.5,-1270.58"/>
<polygon fill="none" stroke="midnightblue" points="259,-1355.17 262.5,-1365.17 266,-1355.17 259,-1355.17"/>
</g>
<!-- Node15 -->
<g id="node15" class="node">
<title>Node15</title>
<g id="a_node15"><a xlink:title=" ">
<polygon fill="white" stroke="#bfbfbf" points="369.5,-1365.5 369.5,-1422.5 497.5,-1422.5 497.5,-1365.5 369.5,-1365.5"/>
<text text-anchor="middle" x="433.5" y="-1410.5" font-family="Helvetica,sans-Serif" font-size="10.00">std::shared_ptr&lt; block_t &gt;</text>
<polyline fill="none" stroke="#bfbfbf" points="369.5,-1403.5 497.5,-1403.5 "/>
<text text-anchor="start" x="377.5" y="-1391.5" font-family="Helvetica,sans-Serif" font-size="10.00">+ ptr</text>
<polyline fill="none" stroke="#bfbfbf" points="369.5,-1384.5 497.5,-1384.5 "/>
<text text-anchor="start" x="377.5" y="-1372.5" font-family="Helvetica,sans-Serif" font-size="10.00">+ operator&#45;&gt;()</text>
</a>
</g>
</g>
<!-- Node15&#45;&gt;Node13 -->
<g id="edge15" class="edge">
<title>Node15&#45;&gt;Node13</title>
<path fill="none" stroke="#404040" d="M412.53,-1365.17C392.51,-1338.59 361.21,-1297.03 332.36,-1258.74"/>
<polygon fill="none" stroke="#404040" points="332.31,-1258.67 325.5,-1256.29 325.09,-1249.09 331.89,-1251.47 332.31,-1258.67"/>
<text text-anchor="middle" x="416" y="-1315.5" font-family="Helvetica,sans-Serif" font-size="10.00"> #header</text>
</g>
<!-- Node16&#45;&gt;Node15 -->
<g id="edge16" class="edge">
<title>Node16&#45;&gt;Node15</title>
<path fill="none" stroke="orange" d="M529.73,-1509.56C507.39,-1482.96 477.24,-1447.07 456.68,-1422.59"/>
<polygon fill="orange" stroke="orange" points="527.28,-1512.08 536.39,-1517.49 532.64,-1507.58 527.28,-1512.08"/>
<text text-anchor="middle" x="544" y="-1467.5" font-family="Helvetica,sans-Serif" font-size="10.00"> &lt; block_t &gt;</text>
</g>
<!-- Node17&#45;&gt;Node13 -->
<g id="edge19" class="edge">
<title>Node17&#45;&gt;Node13</title>
<path fill="none" stroke="#404040" d="M345.87,-945.89C334.25,-963.73 318.34,-985.2 300.5,-1001 288.28,-1011.82 277.03,-1005.09 268.5,-1019 263.15,-1027.72 259.35,-1037.33 256.74,-1047.31"/>
<polygon fill="none" stroke="#404040" points="256.71,-1047.45 259.37,-1054.15 254.2,-1059.18 251.54,-1052.48 256.71,-1047.45"/>
<text text-anchor="middle" x="284.5" y="-1027.5" font-family="Helvetica,sans-Serif" font-size="10.00"> +pnext</text>
</g>
<!-- Node18&#45;&gt;Node17 -->
<g id="edge21" class="edge">
<title>Node18&#45;&gt;Node17</title>
<path fill="none" stroke="orange" d="M416.06,-1126.94C407.62,-1102.72 396.96,-1070.26 389.5,-1041 381.32,-1008.89 374.66,-971.61 370.45,-945.5"/>
<polygon fill="orange" stroke="orange" points="412.78,-1128.19 419.41,-1136.46 419.39,-1125.86 412.78,-1128.19"/>
<text text-anchor="middle" x="456" y="-1027.5" font-family="Helvetica,sans-Serif" font-size="10.00"> &lt; altintegration::BlockIndex * &gt;</text>
</g>
<!-- Node19&#45;&gt;Node12 -->
<g id="edge23" class="edge">
<title>Node19&#45;&gt;Node12</title>
<path fill="none" stroke="orange" d="M538.41,-1125.92C533.14,-1076.83 524.06,-992.25 519.06,-945.67"/>
<polygon fill="orange" stroke="orange" points="534.96,-1126.55 539.51,-1136.12 541.92,-1125.81 534.96,-1126.55"/>
<text text-anchor="middle" x="595" y="-1027.5" font-family="Helvetica,sans-Serif" font-size="10.00"> &lt; altintegration::BlockIndex * &gt;</text>
</g>
<!-- Node20&#45;&gt;Node2 -->
<g id="edge25" class="edge">
<title>Node20&#45;&gt;Node2</title>
<path fill="none" stroke="orange" d="M480.14,-520.97C474.75,-508.26 469.29,-495.4 463.94,-482.79"/>
<polygon fill="orange" stroke="orange" points="476.92,-522.35 484.05,-530.19 483.37,-519.62 476.92,-522.35"/>
<text text-anchor="middle" x="501.5" y="-504" font-family="Helvetica,sans-Serif" font-size="10.00"> &lt; AltBlock &gt;</text>
</g>
</g>
</svg>
