<?xml version="1.0" encoding="UTF-8" standalone="no"?>
<!DOCTYPE svg PUBLIC "-//W3C//DTD SVG 1.1//EN"
 "http://www.w3.org/Graphics/SVG/1.1/DTD/svg11.dtd">
<!-- Generated by graphviz version 3.0.0 (20220413.0242)
 -->
<!-- Title: altintegration::btc::TxIn Pages: 1 -->
<!--zoomable 871 -->
<svg id="main" version="1.1" xmlns="http://www.w3.org/2000/svg" xmlns:xlink="http://www.w3.org/1999/xlink" xml:space="preserve" onload="init(evt)">
<style type="text/css"><![CDATA[
.edge:hover path { stroke: red; }
.edge:hover polygon { stroke: red; fill: red; }
]]></style>
<script type="text/javascript"><![CDATA[
var edges = document.getElementsByTagName('g');
if (edges && edges.length) {
  for (var i=0;i<edges.length;i++) {
    if (edges[i].id.substr(0,4)=='edge') {
      edges[i].setAttribute('class','edge');
    }
  }
}
]]></script>
        <defs>
                <circle id="rim" cx="0" cy="0" r="7"/>
                <circle id="rim2" cx="0" cy="0" r="3.5"/>
                <g id="zoomPlus">
                        <use xlink:href="#rim" fill="#404040">
                                <set attributeName="fill" to="#808080" begin="zoomplus.mouseover" end="zoomplus.mouseout"/>
                        </use>
                        <path d="M-4,0h8M0,-4v8" fill="none" stroke="white" stroke-width="1.5" pointer-events="none"/>
                </g>
                <g id="zoomMin">
                        <use xlink:href="#rim" fill="#404040">
                                <set attributeName="fill" to="#808080" begin="zoomminus.mouseover" end="zoomminus.mouseout"/>
                        </use>
                        <path d="M-4,0h8" fill="none" stroke="white" stroke-width="1.5" pointer-events="none"/>
                </g>
                <g id="dirArrow">
                        <path fill="none" stroke="white" stroke-width="1.5" d="M0,-3.0v7 M-2.5,-0.5L0,-3.0L2.5,-0.5"/>
                </g>
               <g id="resetDef">
                       <use xlink:href="#rim2" fill="#404040">
                               <set attributeName="fill" to="#808080" begin="reset.mouseover" end="reset.mouseout"/>
                       </use>
               </g>
        </defs>

<script type="text/javascript">
var viewWidth = 408;
var viewHeight = 871;
var sectionId = 'dynsection-0';
</script>
<script xlink:href="svgpan.js"/>
<svg id="graph" class="graph">
<g id="viewport">
<title>altintegration::btc::TxIn</title>
<polygon fill="white" stroke="transparent" points="-4,4 -4,-867 403.5,-867 403.5,4 -4,4"/>
<!-- Node1 -->
<g id="node1" class="node">
<title>Node1</title>
<g id="a_node1"><a xlink:title="An input of a transaction.">
<polygon fill="#bfbfbf" stroke="black" points="114,-0.5 114,-79.5 269,-79.5 269,-0.5 114,-0.5"/>
<text text-anchor="start" x="122" y="-67.5" font-family="Helvetica,sans-Serif" font-size="10.00">altintegration::btc</text>
<text text-anchor="middle" x="191.5" y="-56.5" font-family="Helvetica,sans-Serif" font-size="10.00">::TxIn</text>
<polyline fill="none" stroke="black" points="114,-49.5 269,-49.5 "/>
<text text-anchor="start" x="122" y="-37.5" font-family="Helvetica,sans-Serif" font-size="10.00">+ nSequence</text>
<text text-anchor="start" x="122" y="-26.5" font-family="Helvetica,sans-Serif" font-size="10.00">+ ADD_SERIALIZE_METHODS</text>
<polyline fill="none" stroke="black" points="114,-19.5 269,-19.5 "/>
<text text-anchor="start" x="122" y="-7.5" font-family="Helvetica,sans-Serif" font-size="10.00">+ SerializationOp()</text>
</a>
</g>
</g>
<!-- Node2 -->
<g id="node2" class="node">
<title>Node2</title>
<g id="a_node2"><a xlink:href="structaltintegration_1_1btc_1_1OutPoint.html" target="_top" xlink:title="An outpoint &#45; a combination of a transaction hash and an index n into its vout.">
<polygon fill="white" stroke="black" points="0,-127.5 0,-206.5 155,-206.5 155,-127.5 0,-127.5"/>
<text text-anchor="start" x="8" y="-194.5" font-family="Helvetica,sans-Serif" font-size="10.00">altintegration::btc</text>
<text text-anchor="middle" x="77.5" y="-183.5" font-family="Helvetica,sans-Serif" font-size="10.00">::OutPoint</text>
<polyline fill="none" stroke="black" points="0,-176.5 155,-176.5 "/>
<text text-anchor="start" x="8" y="-164.5" font-family="Helvetica,sans-Serif" font-size="10.00">+ n</text>
<text text-anchor="start" x="8" y="-153.5" font-family="Helvetica,sans-Serif" font-size="10.00">+ ADD_SERIALIZE_METHODS</text>
<polyline fill="none" stroke="black" points="0,-146.5 155,-146.5 "/>
<text text-anchor="start" x="8" y="-134.5" font-family="Helvetica,sans-Serif" font-size="10.00">+ SerializationOp()</text>
</a>
</g>
</g>
<!-- Node2&#45;&gt;Node1 -->
<g id="edge1" class="edge">
<title>Node2&#45;&gt;Node1</title>
<path fill="none" stroke="#404040" d="M110.54,-127.21C118.91,-117.58 127.95,-107.34 136.5,-98 139.32,-94.91 142.25,-91.76 145.22,-88.59"/>
<polygon fill="none" stroke="#404040" points="145.4,-88.4 146.62,-81.29 153.65,-79.68 152.43,-86.79 145.4,-88.4"/>
<text text-anchor="middle" x="157" y="-101" font-family="Helvetica,sans-Serif" font-size="10.00"> +prevout</text>
</g>
<!-- Node3 -->
<g id="node3" class="node">
<title>Node3</title>
<g id="a_node3"><a xlink:href="structaltintegration_1_1Blob.html" target="_top" xlink:title=" ">
<polygon fill="white" stroke="black" points="12,-254.5 12,-487.5 143,-487.5 143,-254.5 12,-254.5"/>
<text text-anchor="start" x="20" y="-475.5" font-family="Helvetica,sans-Serif" font-size="10.00">altintegration::Blob</text>
<text text-anchor="middle" x="77.5" y="-464.5" font-family="Helvetica,sans-Serif" font-size="10.00">&lt; SHA256_HASH_SIZE &gt;</text>
<polyline fill="none" stroke="black" points="12,-457.5 143,-457.5 "/>
<text text-anchor="start" x="20" y="-445.5" font-family="Helvetica,sans-Serif" font-size="10.00">+ data_</text>
<text text-anchor="start" x="20" y="-434.5" font-family="Helvetica,sans-Serif" font-size="10.00">+ this</text>
<polyline fill="none" stroke="black" points="12,-427.5 143,-427.5 "/>
<text text-anchor="start" x="20" y="-415.5" font-family="Helvetica,sans-Serif" font-size="10.00">+ Blob()</text>
<text text-anchor="start" x="20" y="-404.5" font-family="Helvetica,sans-Serif" font-size="10.00">+ Blob()</text>
<text text-anchor="start" x="20" y="-393.5" font-family="Helvetica,sans-Serif" font-size="10.00">+ Blob()</text>
<text text-anchor="start" x="20" y="-382.5" font-family="Helvetica,sans-Serif" font-size="10.00">+ Blob()</text>
<text text-anchor="start" x="20" y="-371.5" font-family="Helvetica,sans-Serif" font-size="10.00">+ Blob()</text>
<text text-anchor="start" x="20" y="-360.5" font-family="Helvetica,sans-Serif" font-size="10.00">+ operator std::vector</text>
<text text-anchor="start" x="20" y="-349.5" font-family="Helvetica,sans-Serif" font-size="10.00">&lt; uint8_t &gt;()</text>
<text text-anchor="start" x="20" y="-338.5" font-family="Helvetica,sans-Serif" font-size="10.00">+ fill()</text>
<text text-anchor="start" x="20" y="-327.5" font-family="Helvetica,sans-Serif" font-size="10.00">+ begin()</text>
<text text-anchor="start" x="20" y="-316.5" font-family="Helvetica,sans-Serif" font-size="10.00">+ begin()</text>
<text text-anchor="start" x="20" y="-305.5" font-family="Helvetica,sans-Serif" font-size="10.00">+ end()</text>
<text text-anchor="start" x="20" y="-294.5" font-family="Helvetica,sans-Serif" font-size="10.00">and 20 more...</text>
<text text-anchor="start" x="20" y="-283.5" font-family="Helvetica,sans-Serif" font-size="10.00">+ size()</text>
<text text-anchor="start" x="20" y="-272.5" font-family="Helvetica,sans-Serif" font-size="10.00">+ fromHex()</text>
<text text-anchor="start" x="20" y="-261.5" font-family="Helvetica,sans-Serif" font-size="10.00">+ assertFromHex()</text>
</a>
</g>
</g>
<!-- Node3&#45;&gt;Node2 -->
<g id="edge2" class="edge">
<title>Node3&#45;&gt;Node2</title>
<path fill="none" stroke="#404040" d="M77.5,-254.25C77.5,-241.96 77.5,-229.97 77.5,-219.02"/>
<polygon fill="none" stroke="#404040" points="77.5,-218.7 73.5,-212.7 77.5,-206.7 81.5,-212.7 77.5,-218.7"/>
<text text-anchor="middle" x="92.5" y="-228" font-family="Helvetica,sans-Serif" font-size="10.00"> +hash</text>
</g>
<!-- Node4 -->
<g id="node4" class="node">
<title>Node4</title>
<g id="a_node4"><a xlink:href="structaltintegration_1_1Blob.html" target="_top" xlink:title="Contiguous byte array of fixed size.">
<polygon fill="white" stroke="black" points="17.5,-535.5 17.5,-757.5 137.5,-757.5 137.5,-535.5 17.5,-535.5"/>
<text text-anchor="middle" x="77.5" y="-745.5" font-family="Helvetica,sans-Serif" font-size="10.00">altintegration::Blob&lt; N &gt;</text>
<polyline fill="none" stroke="black" points="17.5,-738.5 137.5,-738.5 "/>
<text text-anchor="start" x="25.5" y="-726.5" font-family="Helvetica,sans-Serif" font-size="10.00">+ data_</text>
<text text-anchor="start" x="25.5" y="-715.5" font-family="Helvetica,sans-Serif" font-size="10.00">+ this</text>
<polyline fill="none" stroke="black" points="17.5,-708.5 137.5,-708.5 "/>
<text text-anchor="start" x="25.5" y="-696.5" font-family="Helvetica,sans-Serif" font-size="10.00">+ Blob()</text>
<text text-anchor="start" x="25.5" y="-685.5" font-family="Helvetica,sans-Serif" font-size="10.00">+ Blob()</text>
<text text-anchor="start" x="25.5" y="-674.5" font-family="Helvetica,sans-Serif" font-size="10.00">+ Blob()</text>
<text text-anchor="start" x="25.5" y="-663.5" font-family="Helvetica,sans-Serif" font-size="10.00">+ Blob()</text>
<text text-anchor="start" x="25.5" y="-652.5" font-family="Helvetica,sans-Serif" font-size="10.00">+ Blob()</text>
<text text-anchor="start" x="25.5" y="-641.5" font-family="Helvetica,sans-Serif" font-size="10.00">+ operator std::vector</text>
<text text-anchor="start" x="25.5" y="-630.5" font-family="Helvetica,sans-Serif" font-size="10.00">&lt; uint8_t &gt;()</text>
<text text-anchor="start" x="25.5" y="-619.5" font-family="Helvetica,sans-Serif" font-size="10.00">+ fill()</text>
<text text-anchor="start" x="25.5" y="-608.5" font-family="Helvetica,sans-Serif" font-size="10.00">+ begin()</text>
<text text-anchor="start" x="25.5" y="-597.5" font-family="Helvetica,sans-Serif" font-size="10.00">+ begin()</text>
<text text-anchor="start" x="25.5" y="-586.5" font-family="Helvetica,sans-Serif" font-size="10.00">+ end()</text>
<text text-anchor="start" x="25.5" y="-575.5" font-family="Helvetica,sans-Serif" font-size="10.00">and 20 more...</text>
<text text-anchor="start" x="25.5" y="-564.5" font-family="Helvetica,sans-Serif" font-size="10.00">+ size()</text>
<text text-anchor="start" x="25.5" y="-553.5" font-family="Helvetica,sans-Serif" font-size="10.00">+ fromHex()</text>
<text text-anchor="start" x="25.5" y="-542.5" font-family="Helvetica,sans-Serif" font-size="10.00">+ assertFromHex()</text>
</a>
</g>
</g>
<!-- Node4&#45;&gt;Node3 -->
<g id="edge3" class="edge">
<title>Node4&#45;&gt;Node3</title>
<path fill="none" stroke="orange" d="M77.5,-525.43C77.5,-512.88 77.5,-500.14 77.5,-487.64"/>
<polygon fill="orange" stroke="orange" points="74,-525.44 77.5,-535.44 81,-525.44 74,-525.44"/>
<text text-anchor="middle" x="136" y="-509" font-family="Helvetica,sans-Serif" font-size="10.00"> &lt; SHA256_HASH_SIZE &gt;</text>
</g>
<!-- Node5 -->
<g id="node5" class="node">
<title>Node5</title>
<g id="a_node5"><a xlink:title=" ">
<polygon fill="white" stroke="black" points="171,-342.5 171,-399.5 278,-399.5 278,-342.5 171,-342.5"/>
<text text-anchor="middle" x="224.5" y="-387.5" font-family="Helvetica,sans-Serif" font-size="10.00">std::vector&lt; uint8_t &gt;</text>
<polyline fill="none" stroke="black" points="171,-380.5 278,-380.5 "/>
<text text-anchor="start" x="179" y="-368.5" font-family="Helvetica,sans-Serif" font-size="10.00">+ elements</text>
<polyline fill="none" stroke="black" points="171,-361.5 278,-361.5 "/>
<text text-anchor="middle" x="224.5" y="-349.5" font-family="Helvetica,sans-Serif" font-size="10.00"> </text>
</a>
</g>
</g>
<!-- Node5&#45;&gt;Node1 -->
<g id="edge4" class="edge">
<title>Node5&#45;&gt;Node1</title>
<path fill="none" stroke="#404040" d="M219.92,-342.39C214.71,-310.04 206.3,-254.77 201.5,-207 197.62,-168.41 195.06,-124.61 193.5,-91.69"/>
<polygon fill="none" stroke="#404040" points="193.5,-91.63 189.23,-85.82 192.95,-79.64 197.22,-85.46 193.5,-91.63"/>
<text text-anchor="middle" x="225" y="-164.5" font-family="Helvetica,sans-Serif" font-size="10.00"> +scriptSig</text>
</g>
<!-- Node8 -->
<g id="node8" class="node">
<title>Node8</title>
<g id="a_node8"><a xlink:title=" ">
<polygon fill="white" stroke="black" points="257,-133 257,-201 372,-201 372,-133 257,-133"/>
<text text-anchor="start" x="265" y="-189" font-family="Helvetica,sans-Serif" font-size="10.00">std::vector&lt; std::vector</text>
<text text-anchor="middle" x="314.5" y="-178" font-family="Helvetica,sans-Serif" font-size="10.00">&lt; uint8_t &gt; &gt;</text>
<polyline fill="none" stroke="black" points="257,-171 372,-171 "/>
<text text-anchor="middle" x="314.5" y="-159" font-family="Helvetica,sans-Serif" font-size="10.00"> </text>
<polyline fill="none" stroke="black" points="257,-152 372,-152 "/>
<text text-anchor="middle" x="314.5" y="-140" font-family="Helvetica,sans-Serif" font-size="10.00"> </text>
</a>
</g>
</g>
<!-- Node5&#45;&gt;Node8 -->
<g id="edge8" class="edge">
<title>Node5&#45;&gt;Node8</title>
<path fill="none" stroke="#404040" d="M224.48,-342.32C225.6,-311.76 230.82,-261.99 251.5,-225 254.36,-219.88 257.86,-214.97 261.72,-210.34"/>
<polygon fill="none" stroke="#404040" points="261.96,-210.07 263.07,-202.95 270.07,-201.23 268.97,-208.35 261.96,-210.07"/>
<text text-anchor="middle" x="276" y="-228" font-family="Helvetica,sans-Serif" font-size="10.00"> +elements</text>
</g>
<!-- Node6 -->
<g id="node6" class="node">
<title>Node6</title>
<g id="a_node6"><a xlink:title=" ">
<polygon fill="white" stroke="black" points="233.5,-618 233.5,-675 317.5,-675 317.5,-618 233.5,-618"/>
<text text-anchor="middle" x="275.5" y="-663" font-family="Helvetica,sans-Serif" font-size="10.00">std::vector&lt; T &gt;</text>
<polyline fill="none" stroke="black" points="233.5,-656 317.5,-656 "/>
<text text-anchor="middle" x="275.5" y="-644" font-family="Helvetica,sans-Serif" font-size="10.00"> </text>
<polyline fill="none" stroke="black" points="233.5,-637 317.5,-637 "/>
<text text-anchor="middle" x="275.5" y="-625" font-family="Helvetica,sans-Serif" font-size="10.00"> </text>
</a>
</g>
</g>
<!-- Node6&#45;&gt;Node5 -->
<g id="edge5" class="edge">
<title>Node6&#45;&gt;Node5</title>
<path fill="none" stroke="orange" d="M268.47,-607.89C263.68,-582.27 257.2,-547.59 251.5,-517 243.87,-476.09 235.05,-428.7 229.62,-399.53"/>
<polygon fill="orange" stroke="orange" points="265.07,-608.74 270.35,-617.93 271.95,-607.45 265.07,-608.74"/>
<text text-anchor="middle" x="276" y="-509" font-family="Helvetica,sans-Serif" font-size="10.00"> &lt; uint8_t &gt;</text>
</g>
<!-- Node6&#45;&gt;Node8 -->
<g id="edge9" class="edge">
<title>Node6&#45;&gt;Node8</title>
<path fill="none" stroke="orange" d="M284.39,-607.88C290.02,-582.39 296.9,-547.85 300.5,-517 313.95,-401.66 315.11,-263.59 314.84,-201.33"/>
<polygon fill="orange" stroke="orange" points="280.92,-607.34 282.14,-617.87 287.75,-608.88 280.92,-607.34"/>
<text text-anchor="start" x="314.5" y="-374" font-family="Helvetica,sans-Serif" font-size="10.00"> &lt; std::vector&lt; uint8</text>
<text text-anchor="middle" x="357" y="-363" font-family="Helvetica,sans-Serif" font-size="10.00">_t &gt; &gt;</text>
</g>
<!-- Node7 -->
<g id="node7" class="node">
<title>Node7</title>
<g id="a_node7"><a xlink:title=" ">
<polygon fill="white" stroke="#bfbfbf" points="261,-805.5 261,-862.5 290,-862.5 290,-805.5 261,-805.5"/>
<text text-anchor="middle" x="275.5" y="-850.5" font-family="Helvetica,sans-Serif" font-size="10.00">T</text>
<polyline fill="none" stroke="#bfbfbf" points="261,-843.5 290,-843.5 "/>
<text text-anchor="middle" x="275.5" y="-831.5" font-family="Helvetica,sans-Serif" font-size="10.00"> </text>
<polyline fill="none" stroke="#bfbfbf" points="261,-824.5 290,-824.5 "/>
<text text-anchor="middle" x="275.5" y="-812.5" font-family="Helvetica,sans-Serif" font-size="10.00"> </text>
</a>
</g>
</g>
<!-- Node7&#45;&gt;Node6 -->
<g id="edge6" class="edge">
<title>Node7&#45;&gt;Node6</title>
<path fill="none" stroke="#404040" d="M275.5,-805.23C275.5,-773.99 275.5,-723 275.5,-687.48"/>
<polygon fill="none" stroke="#404040" points="275.5,-687.16 271.5,-681.16 275.5,-675.16 279.5,-681.16 275.5,-687.16"/>
<text text-anchor="middle" x="300" y="-779" font-family="Helvetica,sans-Serif" font-size="10.00"> +elements</text>
</g>
<!-- Node8&#45;&gt;Node1 -->
<g id="edge7" class="edge">
<title>Node8&#45;&gt;Node1</title>
<path fill="none" stroke="#404040" d="M281.86,-132.83C268.42,-119.17 252.59,-103.08 237.97,-88.23"/>
<polygon fill="none" stroke="#404040" points="237.95,-88.2 230.89,-86.73 229.53,-79.65 236.59,-81.12 237.95,-88.2"/>
<text text-anchor="middle" x="291.5" y="-101" font-family="Helvetica,sans-Serif" font-size="10.00"> +scriptWitness</text>
</g>
</g>
</svg>
        <g id="navigator" transform="translate(0 0)" fill="#404254">
                <rect fill="#f2f5e9" fill-opacity="0.5" stroke="#606060" stroke-width=".5" x="0" y="0" width="60" height="60"/>
                <use id="zoomplus" xlink:href="#zoomPlus" x="17" y="9" onmousedown="handleZoom(evt,'in')"/>
                <use id="zoomminus" xlink:href="#zoomMin" x="42" y="9" onmousedown="handleZoom(evt,'out')"/>
                <use id="reset" xlink:href="#resetDef" x="30" y="36" onmousedown="handleReset()"/>
                <g id="arrowUp" xlink:href="#dirArrow" transform="translate(30 24)" onmousedown="handlePan(0,-1)">
                  <use xlink:href="#rim" fill="#404040">
                        <set attributeName="fill" to="#808080" begin="arrowUp.mouseover" end="arrowUp.mouseout"/>
                  </use>
                  <path fill="none" stroke="white" stroke-width="1.5" d="M0,-3.0v7 M-2.5,-0.5L0,-3.0L2.5,-0.5"/>
                </g>
                <g id="arrowRight" xlink:href="#dirArrow" transform="rotate(90) translate(36 -43)" onmousedown="handlePan(1,0)">
                  <use xlink:href="#rim" fill="#404040">
                        <set attributeName="fill" to="#808080" begin="arrowRight.mouseover" end="arrowRight.mouseout"/>
                  </use>
                  <path fill="none" stroke="white" stroke-width="1.5" d="M0,-3.0v7 M-2.5,-0.5L0,-3.0L2.5,-0.5"/>
                </g>
                <g id="arrowDown" xlink:href="#dirArrow" transform="rotate(180) translate(-30 -48)" onmousedown="handlePan(0,1)">
                  <use xlink:href="#rim" fill="#404040">
                        <set attributeName="fill" to="#808080" begin="arrowDown.mouseover" end="arrowDown.mouseout"/>
                  </use>
                  <path fill="none" stroke="white" stroke-width="1.5" d="M0,-3.0v7 M-2.5,-0.5L0,-3.0L2.5,-0.5"/>
                </g>
                <g id="arrowLeft" xlink:href="#dirArrow" transform="rotate(270) translate(-36 17)" onmousedown="handlePan(-1,0)">
                  <use xlink:href="#rim" fill="#404040">
                        <set attributeName="fill" to="#808080" begin="arrowLeft.mouseover" end="arrowLeft.mouseout"/>
                  </use>
                  <path fill="none" stroke="white" stroke-width="1.5" d="M0,-3.0v7 M-2.5,-0.5L0,-3.0L2.5,-0.5"/>
                </g>
        </g>
        <svg viewBox="0 0 15 15" width="100%" height="30px" preserveAspectRatio="xMaxYMin meet">
         <g id="arrow_out" transform="scale(0.3 0.3)">
          <a xlink:href="structaltintegration_1_1btc_1_1TxIn__coll__graph_org.svg" target="_base">
           <rect id="button" ry="5" rx="5" y="6" x="6" height="38" width="38"
                fill="#f2f5e9" fill-opacity="0.5" stroke="#606060" stroke-width="1.0"/>
           <path id="arrow"
             d="M 11.500037,31.436501 C 11.940474,20.09759 22.043105,11.32322 32.158766,21.979434 L 37.068811,17.246167 C 37.068811,17.246167 37.088388,32 37.088388,32 L 22.160133,31.978069 C 22.160133,31.978069 26.997745,27.140456 26.997745,27.140456 C 18.528582,18.264221 13.291696,25.230495 11.500037,31.436501 z"
             style="fill:#404040;"/>
          </a>
         </g>
        </svg>
</svg>
