<?xml version="1.0" encoding="UTF-8" standalone="no"?>
<!DOCTYPE svg PUBLIC "-//W3C//DTD SVG 1.1//EN"
 "http://www.w3.org/Graphics/SVG/1.1/DTD/svg11.dtd">
<!-- Generated by graphviz version 2.44.0 ()
 -->
<!-- Title: altintegration::AltChainParams Pages: 1 -->
<!--zoomable 634 -->
<svg id="main" version="1.1" xmlns="http://www.w3.org/2000/svg" xmlns:xlink="http://www.w3.org/1999/xlink" xml:space="preserve" onload="init(evt)">
<style type="text/css"><![CDATA[
.edge:hover path { stroke: red; }
.edge:hover polygon { stroke: red; fill: red; }
]]></style>
<script type="text/javascript"><![CDATA[
var edges = document.getElementsByTagName('g');
if (edges && edges.length) {
  for (var i=0;i<edges.length;i++) {
    if (edges[i].id.substr(0,4)=='edge') {
      edges[i].setAttribute('class','edge');
    }
  }
}
]]></script>
        <defs>
                <circle id="rim" cx="0" cy="0" r="7"/>
                <circle id="rim2" cx="0" cy="0" r="3.5"/>
                <g id="zoomPlus">
                        <use xlink:href="#rim" fill="#404040">
                                <set attributeName="fill" to="#808080" begin="zoomplus.mouseover" end="zoomplus.mouseout"/>
                        </use>
                        <path d="M-4,0h8M0,-4v8" fill="none" stroke="white" stroke-width="1.5" pointer-events="none"/>
                </g>
                <g id="zoomMin">
                        <use xlink:href="#rim" fill="#404040">
                                <set attributeName="fill" to="#808080" begin="zoomminus.mouseover" end="zoomminus.mouseout"/>
                        </use>
                        <path d="M-4,0h8" fill="none" stroke="white" stroke-width="1.5" pointer-events="none"/>
                </g>
                <g id="dirArrow">
                        <path fill="none" stroke="white" stroke-width="1.5" d="M0,-3.0v7 M-2.5,-0.5L0,-3.0L2.5,-0.5"/>
                </g>
               <g id="resetDef">
                       <use xlink:href="#rim2" fill="#404040">
                               <set attributeName="fill" to="#808080" begin="reset.mouseover" end="reset.mouseout"/>
                       </use>
               </g>
        </defs>

<script type="text/javascript">
var viewWidth = 337;
var viewHeight = 634;
var sectionId = 'dynsection-0';
</script>
<script xlink:href="svgpan.js"/>
<svg id="graph" class="graph">
<g id="viewport">
<title>altintegration::AltChainParams</title>
<polygon fill="white" stroke="transparent" points="-4,4 -4,-630 332.5,-630 332.5,4 -4,4"/>
<!-- Node1 -->
<g id="node1" class="node">
<title>Node1</title>
<g id="a_node1"><a xlink:title="Base class for all Altchain&#45;related configs.">
<polygon fill="#bfbfbf" stroke="black" points="45.5,-0.5 45.5,-288.5 215.5,-288.5 215.5,-0.5 45.5,-0.5"/>
<text text-anchor="start" x="53.5" y="-276.5" font-family="Helvetica,sans-Serif" font-size="10.00">altintegration::AltChain</text>
<text text-anchor="middle" x="130.5" y="-265.5" font-family="Helvetica,sans-Serif" font-size="10.00">Params</text>
<polyline fill="none" stroke="black" points="45.5,-258.5 215.5,-258.5 "/>
<text text-anchor="start" x="53.5" y="-246.5" font-family="Helvetica,sans-Serif" font-size="10.00">+ mMaxReorgDistance</text>
<text text-anchor="start" x="53.5" y="-235.5" font-family="Helvetica,sans-Serif" font-size="10.00">+ mMaxAltchainFutureBlockTime</text>
<text text-anchor="start" x="53.5" y="-224.5" font-family="Helvetica,sans-Serif" font-size="10.00">+ mKeystoneInterval</text>
<text text-anchor="start" x="53.5" y="-213.5" font-family="Helvetica,sans-Serif" font-size="10.00">+ mFinalityDelay</text>
<text text-anchor="start" x="53.5" y="-202.5" font-family="Helvetica,sans-Serif" font-size="10.00">+ mEndorsementSettlementInterval</text>
<text text-anchor="start" x="53.5" y="-191.5" font-family="Helvetica,sans-Serif" font-size="10.00">+ mPreserveBlocksBehindFinal</text>
<text text-anchor="start" x="53.5" y="-180.5" font-family="Helvetica,sans-Serif" font-size="10.00">+ mMaxPopDataSize</text>
<text text-anchor="start" x="53.5" y="-169.5" font-family="Helvetica,sans-Serif" font-size="10.00">+ mMaxVbkBlocksInAltBlock</text>
<text text-anchor="start" x="53.5" y="-158.5" font-family="Helvetica,sans-Serif" font-size="10.00">+ mMaxVTBsInAltBlock</text>
<text text-anchor="start" x="53.5" y="-147.5" font-family="Helvetica,sans-Serif" font-size="10.00">+ mMaxATVsInAltBlock</text>
<polyline fill="none" stroke="black" points="45.5,-140.5 215.5,-140.5 "/>
<text text-anchor="start" x="53.5" y="-128.5" font-family="Helvetica,sans-Serif" font-size="10.00">+ ~AltChainParams()</text>
<text text-anchor="start" x="53.5" y="-117.5" font-family="Helvetica,sans-Serif" font-size="10.00">+ maxWorkerQueueSize()</text>
<text text-anchor="start" x="53.5" y="-106.5" font-family="Helvetica,sans-Serif" font-size="10.00">+ getKeystoneInterval()</text>
<text text-anchor="start" x="53.5" y="-95.5" font-family="Helvetica,sans-Serif" font-size="10.00">+ getFinalityDelay()</text>
<text text-anchor="start" x="53.5" y="-84.5" font-family="Helvetica,sans-Serif" font-size="10.00">+ getForkResolutionLookUpTable()</text>
<text text-anchor="start" x="53.5" y="-73.5" font-family="Helvetica,sans-Serif" font-size="10.00">+ getEndorsementSettlement</text>
<text text-anchor="start" x="53.5" y="-62.5" font-family="Helvetica,sans-Serif" font-size="10.00">Interval()</text>
<text text-anchor="start" x="53.5" y="-51.5" font-family="Helvetica,sans-Serif" font-size="10.00">+ getPayoutParams()</text>
<text text-anchor="start" x="53.5" y="-40.5" font-family="Helvetica,sans-Serif" font-size="10.00">+ getMaxVbkBlocksInAltBlock()</text>
<text text-anchor="start" x="53.5" y="-29.5" font-family="Helvetica,sans-Serif" font-size="10.00">+ getMaxVTBsInAltBlock()</text>
<text text-anchor="start" x="53.5" y="-18.5" font-family="Helvetica,sans-Serif" font-size="10.00">+ getMaxATVsInAltBlock()</text>
<text text-anchor="start" x="53.5" y="-7.5" font-family="Helvetica,sans-Serif" font-size="10.00">and 8 more...</text>
</a>
</g>
</g>
<!-- Node2 -->
<g id="node2" class="node">
<title>Node2</title>
<g id="a_node2"><a xlink:title=" ">
<polygon fill="white" stroke="#bfbfbf" points="0,-342 0,-399 113,-399 113,-342 0,-342"/>
<text text-anchor="middle" x="56.5" y="-387" font-family="Helvetica,sans-Serif" font-size="10.00">std::vector&lt; uint32_t &gt;</text>
<polyline fill="none" stroke="#bfbfbf" points="0,-380 113,-380 "/>
<text text-anchor="start" x="8" y="-368" font-family="Helvetica,sans-Serif" font-size="10.00">+ elements</text>
<polyline fill="none" stroke="#bfbfbf" points="0,-361 113,-361 "/>
<text text-anchor="middle" x="56.5" y="-349" font-family="Helvetica,sans-Serif" font-size="10.00"> </text>
</a>
</g>
</g>
<!-- Node2&#45;&gt;Node1 -->
<g id="edge1" class="edge">
<title>Node2&#45;&gt;Node1</title>
<path fill="none" stroke="#404040" d="M49.36,-341.87C47.58,-330.91 46.83,-318.26 49.5,-307 50.02,-304.81 50.57,-302.61 51.16,-300.41"/>
<polygon fill="none" stroke="#404040" points="51.23,-300.15 49.07,-293.27 54.59,-288.63 56.75,-295.51 51.23,-300.15"/>
<text text-anchor="middle" x="120" y="-310" font-family="Helvetica,sans-Serif" font-size="10.00"> +mForkResolutionLookUpTable</text>
</g>
<!-- Node3 -->
<g id="node3" class="node">
<title>Node3</title>
<g id="a_node3"><a xlink:title=" ">
<polygon fill="white" stroke="#bfbfbf" points="40.5,-463.5 40.5,-520.5 124.5,-520.5 124.5,-463.5 40.5,-463.5"/>
<text text-anchor="middle" x="82.5" y="-508.5" font-family="Helvetica,sans-Serif" font-size="10.00">std::vector&lt; T &gt;</text>
<polyline fill="none" stroke="#bfbfbf" points="40.5,-501.5 124.5,-501.5 "/>
<text text-anchor="middle" x="82.5" y="-489.5" font-family="Helvetica,sans-Serif" font-size="10.00"> </text>
<polyline fill="none" stroke="#bfbfbf" points="40.5,-482.5 124.5,-482.5 "/>
<text text-anchor="middle" x="82.5" y="-470.5" font-family="Helvetica,sans-Serif" font-size="10.00"> </text>
</a>
</g>
</g>
<!-- Node3&#45;&gt;Node2 -->
<g id="edge2" class="edge">
<title>Node3&#45;&gt;Node2</title>
<path fill="none" stroke="orange" d="M74.3,-453.33C70.48,-435.74 66,-415.18 62.5,-399.07"/>
<polygon fill="orange" stroke="orange" points="70.92,-454.26 76.47,-463.28 77.76,-452.77 70.92,-454.26"/>
<text text-anchor="middle" x="99.5" y="-431.5" font-family="Helvetica,sans-Serif" font-size="10.00"> &lt; uint32_t &gt;</text>
</g>
<!-- Node4 -->
<g id="node4" class="node">
<title>Node4</title>
<g id="a_node4"><a xlink:title=" ">
<polygon fill="white" stroke="#bfbfbf" points="124,-568.5 124,-625.5 153,-625.5 153,-568.5 124,-568.5"/>
<text text-anchor="middle" x="138.5" y="-613.5" font-family="Helvetica,sans-Serif" font-size="10.00">T</text>
<polyline fill="none" stroke="#bfbfbf" points="124,-606.5 153,-606.5 "/>
<text text-anchor="middle" x="138.5" y="-594.5" font-family="Helvetica,sans-Serif" font-size="10.00"> </text>
<polyline fill="none" stroke="#bfbfbf" points="124,-587.5 153,-587.5 "/>
<text text-anchor="middle" x="138.5" y="-575.5" font-family="Helvetica,sans-Serif" font-size="10.00"> </text>
</a>
</g>
</g>
<!-- Node4&#45;&gt;Node3 -->
<g id="edge3" class="edge">
<title>Node4&#45;&gt;Node3</title>
<path fill="none" stroke="#404040" d="M123.93,-569.21C117.67,-557.68 110.22,-543.99 103.39,-531.42"/>
<polygon fill="none" stroke="#404040" points="103.31,-531.28 96.93,-527.92 97.58,-520.74 103.96,-524.1 103.31,-531.28"/>
<text text-anchor="middle" x="137" y="-542" font-family="Helvetica,sans-Serif" font-size="10.00"> +elements</text>
</g>
<!-- Node6 -->
<g id="node6" class="node">
<title>Node6</title>
<g id="a_node6"><a xlink:title=" ">
<polygon fill="white" stroke="#bfbfbf" points="147,-463.5 147,-520.5 250,-520.5 250,-463.5 147,-463.5"/>
<text text-anchor="middle" x="198.5" y="-508.5" font-family="Helvetica,sans-Serif" font-size="10.00">std::shared_ptr&lt; T &gt;</text>
<polyline fill="none" stroke="#bfbfbf" points="147,-501.5 250,-501.5 "/>
<text text-anchor="middle" x="198.5" y="-489.5" font-family="Helvetica,sans-Serif" font-size="10.00"> </text>
<polyline fill="none" stroke="#bfbfbf" points="147,-482.5 250,-482.5 "/>
<text text-anchor="start" x="155" y="-470.5" font-family="Helvetica,sans-Serif" font-size="10.00">+ operator&#45;&gt;()</text>
</a>
</g>
</g>
<!-- Node4&#45;&gt;Node6 -->
<g id="edge6" class="edge">
<title>Node4&#45;&gt;Node6</title>
<path fill="none" stroke="#404040" d="M153.02,-571.07C160.03,-559.04 168.59,-544.35 176.38,-530.97"/>
<polygon fill="none" stroke="#404040" points="176.38,-530.97 175.94,-523.77 182.42,-520.6 182.86,-527.8 176.38,-530.97"/>
<text text-anchor="middle" x="180.5" y="-542" font-family="Helvetica,sans-Serif" font-size="10.00"> +ptr</text>
</g>
<!-- Node5 -->
<g id="node5" class="node">
<title>Node5</title>
<g id="a_node5"><a xlink:title=" ">
<polygon fill="white" stroke="#bfbfbf" points="135.5,-336.5 135.5,-404.5 279.5,-404.5 279.5,-336.5 135.5,-336.5"/>
<text text-anchor="start" x="143.5" y="-392.5" font-family="Helvetica,sans-Serif" font-size="10.00">std::shared_ptr&lt; altintegration</text>
<text text-anchor="middle" x="207.5" y="-381.5" font-family="Helvetica,sans-Serif" font-size="10.00">::PopPayoutsParams &gt;</text>
<polyline fill="none" stroke="#bfbfbf" points="135.5,-374.5 279.5,-374.5 "/>
<text text-anchor="start" x="143.5" y="-362.5" font-family="Helvetica,sans-Serif" font-size="10.00">+ ptr</text>
<polyline fill="none" stroke="#bfbfbf" points="135.5,-355.5 279.5,-355.5 "/>
<text text-anchor="start" x="143.5" y="-343.5" font-family="Helvetica,sans-Serif" font-size="10.00">+ operator&#45;&gt;()</text>
</a>
</g>
</g>
<!-- Node5&#45;&gt;Node1 -->
<g id="edge4" class="edge">
<title>Node5&#45;&gt;Node1</title>
<path fill="none" stroke="#404040" d="M199.05,-336.25C196.48,-326.75 193.52,-316.42 190.5,-307 189.78,-304.76 189.05,-302.5 188.3,-300.23"/>
<polygon fill="none" stroke="#404040" points="188.29,-300.19 182.6,-295.75 184.5,-288.8 190.19,-293.23 188.29,-300.19"/>
<text text-anchor="middle" x="246" y="-310" font-family="Helvetica,sans-Serif" font-size="10.00"> +mPopPayoutsParams</text>
</g>
<!-- Node6&#45;&gt;Node5 -->
<g id="edge5" class="edge">
<title>Node6&#45;&gt;Node5</title>
<path fill="none" stroke="orange" d="M201.37,-452.95C202.54,-437.4 203.88,-419.58 205.01,-404.59"/>
<polygon fill="orange" stroke="orange" points="197.85,-453.05 200.59,-463.28 204.83,-453.58 197.85,-453.05"/>
<text text-anchor="start" x="204.5" y="-437" font-family="Helvetica,sans-Serif" font-size="10.00"> &lt; altintegration::PopPayouts</text>
<text text-anchor="middle" x="266.5" y="-426" font-family="Helvetica,sans-Serif" font-size="10.00">Params &gt;</text>
</g>
</g>
</svg>
        <g id="navigator" transform="translate(0 0)" fill="#404254">
                <rect fill="#f2f5e9" fill-opacity="0.5" stroke="#606060" stroke-width=".5" x="0" y="0" width="60" height="60"/>
                <use id="zoomplus" xlink:href="#zoomPlus" x="17" y="9" onmousedown="handleZoom(evt,'in')"/>
                <use id="zoomminus" xlink:href="#zoomMin" x="42" y="9" onmousedown="handleZoom(evt,'out')"/>
                <use id="reset" xlink:href="#resetDef" x="30" y="36" onmousedown="handleReset()"/>
                <g id="arrowUp" xlink:href="#dirArrow" transform="translate(30 24)" onmousedown="handlePan(0,-1)">
                  <use xlink:href="#rim" fill="#404040">
                        <set attributeName="fill" to="#808080" begin="arrowUp.mouseover" end="arrowUp.mouseout"/>
                  </use>
                  <path fill="none" stroke="white" stroke-width="1.5" d="M0,-3.0v7 M-2.5,-0.5L0,-3.0L2.5,-0.5"/>
                </g>
                <g id="arrowRight" xlink:href="#dirArrow" transform="rotate(90) translate(36 -43)" onmousedown="handlePan(1,0)">
                  <use xlink:href="#rim" fill="#404040">
                        <set attributeName="fill" to="#808080" begin="arrowRight.mouseover" end="arrowRight.mouseout"/>
                  </use>
                  <path fill="none" stroke="white" stroke-width="1.5" d="M0,-3.0v7 M-2.5,-0.5L0,-3.0L2.5,-0.5"/>
                </g>
                <g id="arrowDown" xlink:href="#dirArrow" transform="rotate(180) translate(-30 -48)" onmousedown="handlePan(0,1)">
                  <use xlink:href="#rim" fill="#404040">
                        <set attributeName="fill" to="#808080" begin="arrowDown.mouseover" end="arrowDown.mouseout"/>
                  </use>
                  <path fill="none" stroke="white" stroke-width="1.5" d="M0,-3.0v7 M-2.5,-0.5L0,-3.0L2.5,-0.5"/>
                </g>
                <g id="arrowLeft" xlink:href="#dirArrow" transform="rotate(270) translate(-36 17)" onmousedown="handlePan(-1,0)">
                  <use xlink:href="#rim" fill="#404040">
                        <set attributeName="fill" to="#808080" begin="arrowLeft.mouseover" end="arrowLeft.mouseout"/>
                  </use>
                  <path fill="none" stroke="white" stroke-width="1.5" d="M0,-3.0v7 M-2.5,-0.5L0,-3.0L2.5,-0.5"/>
                </g>
        </g>
        <svg viewBox="0 0 15 15" width="100%" height="30px" preserveAspectRatio="xMaxYMin meet">
         <g id="arrow_out" transform="scale(0.3 0.3)">
          <a xlink:href="structaltintegration_1_1AltChainParams__coll__graph_org.svg" target="_base">
           <rect id="button" ry="5" rx="5" y="6" x="6" height="38" width="38"
                fill="#f2f5e9" fill-opacity="0.5" stroke="#606060" stroke-width="1.0"/>
           <path id="arrow"
             d="M 11.500037,31.436501 C 11.940474,20.09759 22.043105,11.32322 32.158766,21.979434 L 37.068811,17.246167 C 37.068811,17.246167 37.088388,32 37.088388,32 L 22.160133,31.978069 C 22.160133,31.978069 26.997745,27.140456 26.997745,27.140456 C 18.528582,18.264221 13.291696,25.230495 11.500037,31.436501 z"
             style="fill:#404040;"/>
          </a>
         </g>
        </svg>
</svg>
