<?xml version="1.0" encoding="UTF-8" standalone="no"?>
<!DOCTYPE svg PUBLIC "-//W3C//DTD SVG 1.1//EN"
 "http://www.w3.org/Graphics/SVG/1.1/DTD/svg11.dtd">
<!-- Generated by graphviz version 2.44.0 ()
 -->
<!-- Title: altintegration::AuthenticatedContextInfoContainer Pages: 1 -->
<svg width="333pt" height="965pt"
 viewBox="0.00 0.00 332.50 965.00" xmlns="http://www.w3.org/2000/svg" xmlns:xlink="http://www.w3.org/1999/xlink">
<g id="graph0" class="graph" transform="scale(1 1) rotate(0) translate(4 961)">
<title>altintegration::AuthenticatedContextInfoContainer</title>
<polygon fill="white" stroke="transparent" points="-4,4 -4,-961 328.5,-961 328.5,4 -4,4"/>
<!-- Node1 -->
<g id="node1" class="node">
<title>Node1</title>
<g id="a_node1"><a xlink:title="Contains ContextInfoContainer and merkle path which authenticates hash of ContextInfoContainer to a b...">
<polygon fill="#bfbfbf" stroke="black" points="70,-0.5 70,-123.5 207,-123.5 207,-0.5 70,-0.5"/>
<text text-anchor="start" x="78" y="-111.5" font-family="Helvetica,sans-Serif" font-size="10.00">altintegration::Authenticated</text>
<text text-anchor="middle" x="138.5" y="-100.5" font-family="Helvetica,sans-Serif" font-size="10.00">ContextInfoContainer</text>
<polyline fill="none" stroke="black" points="70,-93.5 207,-93.5 "/>
<text text-anchor="middle" x="138.5" y="-81.5" font-family="Helvetica,sans-Serif" font-size="10.00"> </text>
<polyline fill="none" stroke="black" points="70,-74.5 207,-74.5 "/>
<text text-anchor="start" x="78" y="-62.5" font-family="Helvetica,sans-Serif" font-size="10.00">+ operator==()</text>
<text text-anchor="start" x="78" y="-51.5" font-family="Helvetica,sans-Serif" font-size="10.00">+ toVbkEncoding()</text>
<text text-anchor="start" x="78" y="-40.5" font-family="Helvetica,sans-Serif" font-size="10.00">+ estimateSize()</text>
<text text-anchor="start" x="78" y="-29.5" font-family="Helvetica,sans-Serif" font-size="10.00">+ getTopLevelMerkleRoot()</text>
<text text-anchor="start" x="78" y="-18.5" font-family="Helvetica,sans-Serif" font-size="10.00">+ createFromPrevious()</text>
<text text-anchor="start" x="78" y="-7.5" font-family="Helvetica,sans-Serif" font-size="10.00">+ createFromPrevious()</text>
</a>
</g>
</g>
<!-- Node2 -->
<g id="node2" class="node">
<title>Node2</title>
<g id="a_node2"><a xlink:href="structaltintegration_1_1Blob.html" target="_top" xlink:title=" ">
<polygon fill="white" stroke="black" points="0,-171.5 0,-393.5 131,-393.5 131,-171.5 0,-171.5"/>
<text text-anchor="start" x="8" y="-381.5" font-family="Helvetica,sans-Serif" font-size="10.00">altintegration::Blob</text>
<text text-anchor="middle" x="65.5" y="-370.5" font-family="Helvetica,sans-Serif" font-size="10.00">&lt; SHA256_HASH_SIZE &gt;</text>
<polyline fill="none" stroke="black" points="0,-363.5 131,-363.5 "/>
<text text-anchor="start" x="8" y="-351.5" font-family="Helvetica,sans-Serif" font-size="10.00">+ data_</text>
<text text-anchor="start" x="8" y="-340.5" font-family="Helvetica,sans-Serif" font-size="10.00">+ this</text>
<text text-anchor="start" x="8" y="-329.5" font-family="Helvetica,sans-Serif" font-size="10.00"># data_</text>
<polyline fill="none" stroke="black" points="0,-322.5 131,-322.5 "/>
<text text-anchor="start" x="8" y="-310.5" font-family="Helvetica,sans-Serif" font-size="10.00">+ Blob()</text>
<text text-anchor="start" x="8" y="-299.5" font-family="Helvetica,sans-Serif" font-size="10.00">+ Blob()</text>
<text text-anchor="start" x="8" y="-288.5" font-family="Helvetica,sans-Serif" font-size="10.00">+ Blob()</text>
<text text-anchor="start" x="8" y="-277.5" font-family="Helvetica,sans-Serif" font-size="10.00">+ Blob()</text>
<text text-anchor="start" x="8" y="-266.5" font-family="Helvetica,sans-Serif" font-size="10.00">+ Blob()</text>
<text text-anchor="start" x="8" y="-255.5" font-family="Helvetica,sans-Serif" font-size="10.00">+ operator=()</text>
<text text-anchor="start" x="8" y="-244.5" font-family="Helvetica,sans-Serif" font-size="10.00">+ operator=()</text>
<text text-anchor="start" x="8" y="-233.5" font-family="Helvetica,sans-Serif" font-size="10.00">+ reverse()</text>
<text text-anchor="start" x="8" y="-222.5" font-family="Helvetica,sans-Serif" font-size="10.00">+ operator~()</text>
<text text-anchor="start" x="8" y="-211.5" font-family="Helvetica,sans-Serif" font-size="10.00">+ asVector()</text>
<text text-anchor="start" x="8" y="-200.5" font-family="Helvetica,sans-Serif" font-size="10.00">and 9 more...</text>
<text text-anchor="start" x="8" y="-189.5" font-family="Helvetica,sans-Serif" font-size="10.00"># assign()</text>
<text text-anchor="start" x="8" y="-178.5" font-family="Helvetica,sans-Serif" font-size="10.00"># assign()</text>
</a>
</g>
</g>
<!-- Node2&#45;&gt;Node1 -->
<g id="edge1" class="edge">
<title>Node2&#45;&gt;Node1</title>
<path fill="none" stroke="#404040" d="M102.32,-171.29C106.44,-158.96 110.55,-146.65 114.45,-134.98"/>
<polygon fill="none" stroke="#404040" points="114.47,-134.93 112.58,-127.97 118.27,-123.55 120.16,-130.51 114.47,-134.93"/>
<text text-anchor="middle" x="137" y="-145" font-family="Helvetica,sans-Serif" font-size="10.00"> +stateRoot</text>
</g>
<!-- Node3 -->
<g id="node3" class="node">
<title>Node3</title>
<g id="a_node3"><a xlink:href="structaltintegration_1_1Blob.html" target="_top" xlink:title="Contiguous byte array of fixed size.">
<polygon fill="white" stroke="black" points="9.5,-441.5 9.5,-630.5 129.5,-630.5 129.5,-441.5 9.5,-441.5"/>
<text text-anchor="middle" x="69.5" y="-618.5" font-family="Helvetica,sans-Serif" font-size="10.00">altintegration::Blob&lt; N &gt;</text>
<polyline fill="none" stroke="black" points="9.5,-611.5 129.5,-611.5 "/>
<text text-anchor="start" x="17.5" y="-599.5" font-family="Helvetica,sans-Serif" font-size="10.00">+ this</text>
<polyline fill="none" stroke="black" points="9.5,-592.5 129.5,-592.5 "/>
<text text-anchor="start" x="17.5" y="-580.5" font-family="Helvetica,sans-Serif" font-size="10.00">+ Blob()</text>
<text text-anchor="start" x="17.5" y="-569.5" font-family="Helvetica,sans-Serif" font-size="10.00">+ Blob()</text>
<text text-anchor="start" x="17.5" y="-558.5" font-family="Helvetica,sans-Serif" font-size="10.00">+ Blob()</text>
<text text-anchor="start" x="17.5" y="-547.5" font-family="Helvetica,sans-Serif" font-size="10.00">+ Blob()</text>
<text text-anchor="start" x="17.5" y="-536.5" font-family="Helvetica,sans-Serif" font-size="10.00">+ Blob()</text>
<text text-anchor="start" x="17.5" y="-525.5" font-family="Helvetica,sans-Serif" font-size="10.00">+ operator=()</text>
<text text-anchor="start" x="17.5" y="-514.5" font-family="Helvetica,sans-Serif" font-size="10.00">+ operator=()</text>
<text text-anchor="start" x="17.5" y="-503.5" font-family="Helvetica,sans-Serif" font-size="10.00">+ reverse()</text>
<text text-anchor="start" x="17.5" y="-492.5" font-family="Helvetica,sans-Serif" font-size="10.00">+ operator~()</text>
<text text-anchor="start" x="17.5" y="-481.5" font-family="Helvetica,sans-Serif" font-size="10.00">+ asVector()</text>
<text text-anchor="start" x="17.5" y="-470.5" font-family="Helvetica,sans-Serif" font-size="10.00">and 9 more...</text>
<text text-anchor="start" x="17.5" y="-459.5" font-family="Helvetica,sans-Serif" font-size="10.00"># assign()</text>
<text text-anchor="start" x="17.5" y="-448.5" font-family="Helvetica,sans-Serif" font-size="10.00"># assign()</text>
</a>
</g>
</g>
<!-- Node3&#45;&gt;Node2 -->
<g id="edge2" class="edge">
<title>Node3&#45;&gt;Node2</title>
<path fill="none" stroke="orange" d="M67.85,-431.09C67.65,-418.78 67.45,-406.18 67.25,-393.78"/>
<polygon fill="orange" stroke="orange" points="64.35,-431.41 68.01,-441.35 71.35,-431.3 64.35,-431.41"/>
<text text-anchor="middle" x="127" y="-415" font-family="Helvetica,sans-Serif" font-size="10.00"> &lt; SHA256_HASH_SIZE &gt;</text>
</g>
<!-- Node4 -->
<g id="node4" class="node">
<title>Node4</title>
<g id="a_node4"><a xlink:title=" ">
<polygon fill="white" stroke="#bfbfbf" points="4,-689.5 4,-746.5 135,-746.5 135,-689.5 4,-689.5"/>
<text text-anchor="middle" x="69.5" y="-734.5" font-family="Helvetica,sans-Serif" font-size="10.00">std::array&lt; value_type, N &gt;</text>
<polyline fill="none" stroke="#bfbfbf" points="4,-727.5 135,-727.5 "/>
<text text-anchor="start" x="12" y="-715.5" font-family="Helvetica,sans-Serif" font-size="10.00">+ elements</text>
<polyline fill="none" stroke="#bfbfbf" points="4,-708.5 135,-708.5 "/>
<text text-anchor="middle" x="69.5" y="-696.5" font-family="Helvetica,sans-Serif" font-size="10.00"> </text>
</a>
</g>
</g>
<!-- Node4&#45;&gt;Node3 -->
<g id="edge3" class="edge">
<title>Node4&#45;&gt;Node3</title>
<path fill="none" stroke="#404040" d="M69.5,-689.27C69.5,-676.41 69.5,-660.23 69.5,-643.26"/>
<polygon fill="none" stroke="#404040" points="69.5,-642.79 65.5,-636.79 69.5,-630.79 73.5,-636.79 69.5,-642.79"/>
<text text-anchor="middle" x="85.5" y="-657.5" font-family="Helvetica,sans-Serif" font-size="10.00"> #data_</text>
</g>
<!-- Node5 -->
<g id="node5" class="node">
<title>Node5</title>
<g id="a_node5"><a xlink:title=" ">
<polygon fill="white" stroke="#bfbfbf" points="48.5,-794.5 48.5,-851.5 126.5,-851.5 126.5,-794.5 48.5,-794.5"/>
<text text-anchor="middle" x="87.5" y="-839.5" font-family="Helvetica,sans-Serif" font-size="10.00">std::array&lt; T &gt;</text>
<polyline fill="none" stroke="#bfbfbf" points="48.5,-832.5 126.5,-832.5 "/>
<text text-anchor="middle" x="87.5" y="-820.5" font-family="Helvetica,sans-Serif" font-size="10.00"> </text>
<polyline fill="none" stroke="#bfbfbf" points="48.5,-813.5 126.5,-813.5 "/>
<text text-anchor="middle" x="87.5" y="-801.5" font-family="Helvetica,sans-Serif" font-size="10.00"> </text>
</a>
</g>
</g>
<!-- Node5&#45;&gt;Node4 -->
<g id="edge4" class="edge">
<title>Node5&#45;&gt;Node4</title>
<path fill="none" stroke="orange" d="M80.91,-784.29C78.73,-771.84 76.36,-758.23 74.34,-746.68"/>
<polygon fill="orange" stroke="orange" points="77.51,-785.15 82.68,-794.4 84.4,-783.94 77.51,-785.15"/>
<text text-anchor="middle" x="119" y="-768" font-family="Helvetica,sans-Serif" font-size="10.00"> &lt; value_type, N &gt;</text>
</g>
<!-- Node6 -->
<g id="node6" class="node">
<title>Node6</title>
<g id="a_node6"><a xlink:title=" ">
<polygon fill="white" stroke="#bfbfbf" points="122,-899.5 122,-956.5 151,-956.5 151,-899.5 122,-899.5"/>
<text text-anchor="middle" x="136.5" y="-944.5" font-family="Helvetica,sans-Serif" font-size="10.00">T</text>
<polyline fill="none" stroke="#bfbfbf" points="122,-937.5 151,-937.5 "/>
<text text-anchor="middle" x="136.5" y="-925.5" font-family="Helvetica,sans-Serif" font-size="10.00"> </text>
<polyline fill="none" stroke="#bfbfbf" points="122,-918.5 151,-918.5 "/>
<text text-anchor="middle" x="136.5" y="-906.5" font-family="Helvetica,sans-Serif" font-size="10.00"> </text>
</a>
</g>
</g>
<!-- Node6&#45;&gt;Node5 -->
<g id="edge5" class="edge">
<title>Node6&#45;&gt;Node5</title>
<path fill="none" stroke="#404040" d="M121.93,-905.03C117.32,-897.57 112.4,-889.08 108.5,-881 105.76,-875.33 103.16,-869.2 100.77,-863.14"/>
<polygon fill="none" stroke="#404040" points="100.7,-862.94 94.85,-858.72 96.49,-851.7 102.34,-855.92 100.7,-862.94"/>
<text text-anchor="middle" x="133" y="-873" font-family="Helvetica,sans-Serif" font-size="10.00"> +elements</text>
</g>
<!-- Node10 -->
<g id="node10" class="node">
<title>Node10</title>
<g id="a_node10"><a xlink:title=" ">
<polygon fill="white" stroke="#bfbfbf" points="145.5,-794.5 145.5,-851.5 229.5,-851.5 229.5,-794.5 145.5,-794.5"/>
<text text-anchor="middle" x="187.5" y="-839.5" font-family="Helvetica,sans-Serif" font-size="10.00">std::vector&lt; T &gt;</text>
<polyline fill="none" stroke="#bfbfbf" points="145.5,-832.5 229.5,-832.5 "/>
<text text-anchor="middle" x="187.5" y="-820.5" font-family="Helvetica,sans-Serif" font-size="10.00"> </text>
<polyline fill="none" stroke="#bfbfbf" points="145.5,-813.5 229.5,-813.5 "/>
<text text-anchor="middle" x="187.5" y="-801.5" font-family="Helvetica,sans-Serif" font-size="10.00"> </text>
</a>
</g>
</g>
<!-- Node6&#45;&gt;Node10 -->
<g id="edge10" class="edge">
<title>Node6&#45;&gt;Node10</title>
<path fill="none" stroke="#404040" d="M150.17,-899.4C155.77,-888.08 162.35,-874.79 168.41,-862.54"/>
<polygon fill="none" stroke="#404040" points="168.47,-862.43 167.55,-855.28 173.8,-851.68 174.72,-858.83 168.47,-862.43"/>
<text text-anchor="middle" x="189" y="-873" font-family="Helvetica,sans-Serif" font-size="10.00"> +elements</text>
</g>
<!-- Node7 -->
<g id="node7" class="node">
<title>Node7</title>
<g id="a_node7"><a xlink:href="structaltintegration_1_1ContextInfoContainer.html" target="_top" xlink:title="Container of context info for endorsed block.">
<polygon fill="white" stroke="black" points="149.5,-215.5 149.5,-349.5 275.5,-349.5 275.5,-215.5 149.5,-215.5"/>
<text text-anchor="start" x="157.5" y="-337.5" font-family="Helvetica,sans-Serif" font-size="10.00">altintegration::ContextInfo</text>
<text text-anchor="middle" x="212.5" y="-326.5" font-family="Helvetica,sans-Serif" font-size="10.00">Container</text>
<polyline fill="none" stroke="black" points="149.5,-319.5 275.5,-319.5 "/>
<text text-anchor="start" x="157.5" y="-307.5" font-family="Helvetica,sans-Serif" font-size="10.00">+ height</text>
<polyline fill="none" stroke="black" points="149.5,-300.5 275.5,-300.5 "/>
<text text-anchor="start" x="157.5" y="-288.5" font-family="Helvetica,sans-Serif" font-size="10.00">+ getHash()</text>
<text text-anchor="start" x="157.5" y="-277.5" font-family="Helvetica,sans-Serif" font-size="10.00">+ toVbkEncoding()</text>
<text text-anchor="start" x="157.5" y="-266.5" font-family="Helvetica,sans-Serif" font-size="10.00">+ estimateSize()</text>
<text text-anchor="start" x="157.5" y="-255.5" font-family="Helvetica,sans-Serif" font-size="10.00">+ operator==()</text>
<text text-anchor="start" x="157.5" y="-244.5" font-family="Helvetica,sans-Serif" font-size="10.00">+ operator!=()</text>
<text text-anchor="start" x="157.5" y="-233.5" font-family="Helvetica,sans-Serif" font-size="10.00">+ toPrettyString()</text>
<text text-anchor="start" x="157.5" y="-222.5" font-family="Helvetica,sans-Serif" font-size="10.00">+ createFromPrevious()</text>
</a>
</g>
</g>
<!-- Node7&#45;&gt;Node1 -->
<g id="edge6" class="edge">
<title>Node7&#45;&gt;Node1</title>
<path fill="none" stroke="#404040" d="M191.04,-215.41C183.4,-192.16 174.67,-165.89 166.5,-142 165.74,-139.78 164.97,-137.53 164.18,-135.25"/>
<polygon fill="none" stroke="#404040" points="164.13,-135.1 158.38,-130.75 160.19,-123.77 165.94,-128.12 164.13,-135.1"/>
<text text-anchor="middle" x="180.5" y="-145" font-family="Helvetica,sans-Serif" font-size="10.00"> +ctx</text>
</g>
<!-- Node8 -->
<g id="node8" class="node">
<title>Node8</title>
<g id="a_node8"><a xlink:href="structaltintegration_1_1KeystoneContainer.html" target="_top" xlink:title="A container for two previous keystones of endorsed block.">
<polygon fill="white" stroke="black" points="148,-485.5 148,-586.5 267,-586.5 267,-485.5 148,-485.5"/>
<text text-anchor="start" x="156" y="-574.5" font-family="Helvetica,sans-Serif" font-size="10.00">altintegration::Keystone</text>
<text text-anchor="middle" x="207.5" y="-563.5" font-family="Helvetica,sans-Serif" font-size="10.00">Container</text>
<polyline fill="none" stroke="black" points="148,-556.5 267,-556.5 "/>
<text text-anchor="middle" x="207.5" y="-544.5" font-family="Helvetica,sans-Serif" font-size="10.00"> </text>
<polyline fill="none" stroke="black" points="148,-537.5 267,-537.5 "/>
<text text-anchor="start" x="156" y="-525.5" font-family="Helvetica,sans-Serif" font-size="10.00">+ toVbkEncoding()</text>
<text text-anchor="start" x="156" y="-514.5" font-family="Helvetica,sans-Serif" font-size="10.00">+ estimateSize()</text>
<text text-anchor="start" x="156" y="-503.5" font-family="Helvetica,sans-Serif" font-size="10.00">+ operator==()</text>
<text text-anchor="start" x="156" y="-492.5" font-family="Helvetica,sans-Serif" font-size="10.00">+ createFromPrevious()</text>
</a>
</g>
</g>
<!-- Node8&#45;&gt;Node7 -->
<g id="edge7" class="edge">
<title>Node8&#45;&gt;Node7</title>
<path fill="none" stroke="#404040" d="M208.49,-485.31C209.19,-450.15 210.14,-402.29 210.94,-362"/>
<polygon fill="none" stroke="#404040" points="210.94,-361.76 207.06,-355.68 211.18,-349.76 215.06,-355.84 210.94,-361.76"/>
<text text-anchor="middle" x="237" y="-415" font-family="Helvetica,sans-Serif" font-size="10.00"> +keystones</text>
</g>
<!-- Node9 -->
<g id="node9" class="node">
<title>Node9</title>
<g id="a_node9"><a xlink:title=" ">
<polygon fill="white" stroke="#bfbfbf" points="153,-689.5 153,-746.5 260,-746.5 260,-689.5 153,-689.5"/>
<text text-anchor="middle" x="206.5" y="-734.5" font-family="Helvetica,sans-Serif" font-size="10.00">std::vector&lt; uint8_t &gt;</text>
<polyline fill="none" stroke="#bfbfbf" points="153,-727.5 260,-727.5 "/>
<text text-anchor="start" x="161" y="-715.5" font-family="Helvetica,sans-Serif" font-size="10.00">+ elements</text>
<polyline fill="none" stroke="#bfbfbf" points="153,-708.5 260,-708.5 "/>
<text text-anchor="middle" x="206.5" y="-696.5" font-family="Helvetica,sans-Serif" font-size="10.00"> </text>
</a>
</g>
</g>
<!-- Node9&#45;&gt;Node8 -->
<g id="edge8" class="edge">
<title>Node9&#45;&gt;Node8</title>
<path fill="none" stroke="#404040" d="M206.65,-689.27C206.79,-665.26 206.99,-629.66 207.16,-598.91"/>
<polygon fill="none" stroke="#404040" points="207.16,-598.52 203.19,-592.5 207.22,-586.52 211.19,-592.55 207.16,-598.52"/>
<text text-anchor="middle" x="266" y="-663" font-family="Helvetica,sans-Serif" font-size="10.00"> +firstPreviousKeystone</text>
<text text-anchor="middle" x="266" y="-652" font-family="Helvetica,sans-Serif" font-size="10.00">+secondPreviousKeystone</text>
</g>
<!-- Node10&#45;&gt;Node9 -->
<g id="edge9" class="edge">
<title>Node10&#45;&gt;Node9</title>
<path fill="none" stroke="orange" d="M194.46,-784.29C196.75,-771.84 199.26,-758.23 201.39,-746.68"/>
<polygon fill="orange" stroke="orange" points="190.96,-783.93 192.59,-794.4 197.85,-785.2 190.96,-783.93"/>
<text text-anchor="middle" x="223" y="-768" font-family="Helvetica,sans-Serif" font-size="10.00"> &lt; uint8_t &gt;</text>
</g>
</g>
</svg>
