<?xml version="1.0" encoding="UTF-8" standalone="no"?>
<!DOCTYPE svg PUBLIC "-//W3C//DTD SVG 1.1//EN"
 "http://www.w3.org/Graphics/SVG/1.1/DTD/svg11.dtd">
<!-- Generated by graphviz version 3.0.0 (20220413.0242)
 -->
<!-- Title: altintegration::btc::CmpctBlockMsg Pages: 1 -->
<svg width="1165pt" height="1903pt"
 viewBox="0.00 0.00 1165.00 1903.00" xmlns="http://www.w3.org/2000/svg" xmlns:xlink="http://www.w3.org/1999/xlink">
<g id="graph0" class="graph" transform="scale(1 1) rotate(0) translate(4 1899)">
<title>altintegration::btc::CmpctBlockMsg</title>
<polygon fill="white" stroke="transparent" points="-4,4 -4,-1899 1161,-1899 1161,4 -4,4"/>
<!-- Node1 -->
<g id="node1" class="node">
<title>Node1</title>
<g id="a_node1"><a xlink:title=" ">
<polygon fill="#bfbfbf" stroke="black" points="694,-0.5 694,-68.5 849,-68.5 849,-0.5 694,-0.5"/>
<text text-anchor="start" x="702" y="-56.5" font-family="Helvetica,sans-Serif" font-size="10.00">altintegration::btc</text>
<text text-anchor="middle" x="771.5" y="-45.5" font-family="Helvetica,sans-Serif" font-size="10.00">::CmpctBlockMsg</text>
<polyline fill="none" stroke="black" points="694,-38.5 849,-38.5 "/>
<text text-anchor="start" x="702" y="-26.5" font-family="Helvetica,sans-Serif" font-size="10.00">+ ADD_SERIALIZE_METHODS</text>
<polyline fill="none" stroke="black" points="694,-19.5 849,-19.5 "/>
<text text-anchor="start" x="702" y="-7.5" font-family="Helvetica,sans-Serif" font-size="10.00">+ SerializationOp()</text>
</a>
</g>
</g>
<!-- Node2 -->
<g id="node2" class="node">
<title>Node2</title>
<g id="a_node2"><a xlink:href="structaltintegration_1_1btc_1_1BlockHeaderAndShortTxIDs.html" target="_top" xlink:title=" ">
<polygon fill="white" stroke="#bfbfbf" points="694,-116.5 694,-206.5 849,-206.5 849,-116.5 694,-116.5"/>
<text text-anchor="start" x="702" y="-194.5" font-family="Helvetica,sans-Serif" font-size="10.00">altintegration::btc</text>
<text text-anchor="middle" x="771.5" y="-183.5" font-family="Helvetica,sans-Serif" font-size="10.00">::BlockHeaderAndShortTxIDs</text>
<polyline fill="none" stroke="#bfbfbf" points="694,-176.5 849,-176.5 "/>
<text text-anchor="start" x="702" y="-164.5" font-family="Helvetica,sans-Serif" font-size="10.00">+ nonce</text>
<text text-anchor="start" x="702" y="-153.5" font-family="Helvetica,sans-Serif" font-size="10.00">+ ADD_SERIALIZE_METHODS</text>
<text text-anchor="start" x="702" y="-142.5" font-family="Helvetica,sans-Serif" font-size="10.00">+ SHORTTXIDS_LENGTH</text>
<polyline fill="none" stroke="#bfbfbf" points="694,-135.5 849,-135.5 "/>
<text text-anchor="start" x="702" y="-123.5" font-family="Helvetica,sans-Serif" font-size="10.00">+ SerializationOp()</text>
</a>
</g>
</g>
<!-- Node2&#45;&gt;Node1 -->
<g id="edge1" class="edge">
<title>Node2&#45;&gt;Node1</title>
<path fill="none" stroke="#404040" d="M771.5,-116.43C771.5,-104.87 771.5,-92.38 771.5,-80.76"/>
<polygon fill="none" stroke="#404040" points="771.5,-80.57 767.5,-74.57 771.5,-68.57 775.5,-74.57 771.5,-80.57"/>
<text text-anchor="middle" x="805" y="-90" font-family="Helvetica,sans-Serif" font-size="10.00"> +block_header</text>
</g>
<!-- Node3 -->
<g id="node3" class="node">
<title>Node3</title>
<g id="a_node3"><a xlink:href="structaltintegration_1_1btc_1_1BlockHeader.html" target="_top" xlink:title=" ">
<polygon fill="white" stroke="#bfbfbf" points="829,-733.5 829,-823.5 984,-823.5 984,-733.5 829,-733.5"/>
<text text-anchor="start" x="837" y="-811.5" font-family="Helvetica,sans-Serif" font-size="10.00">altintegration::btc</text>
<text text-anchor="middle" x="906.5" y="-800.5" font-family="Helvetica,sans-Serif" font-size="10.00">::BlockHeader</text>
<polyline fill="none" stroke="#bfbfbf" points="829,-793.5 984,-793.5 "/>
<text text-anchor="start" x="837" y="-781.5" font-family="Helvetica,sans-Serif" font-size="10.00">+ ADD_SERIALIZE_METHODS</text>
<polyline fill="none" stroke="#bfbfbf" points="829,-774.5 984,-774.5 "/>
<text text-anchor="start" x="837" y="-762.5" font-family="Helvetica,sans-Serif" font-size="10.00">+ BlockHeader()</text>
<text text-anchor="start" x="837" y="-751.5" font-family="Helvetica,sans-Serif" font-size="10.00">+ BlockHeader()</text>
<text text-anchor="start" x="837" y="-740.5" font-family="Helvetica,sans-Serif" font-size="10.00">+ SerializationOp()</text>
</a>
</g>
</g>
<!-- Node3&#45;&gt;Node2 -->
<g id="edge2" class="edge">
<title>Node3&#45;&gt;Node2</title>
<path fill="none" stroke="#404040" d="M881.12,-733.21C866.3,-703.24 850.5,-662.19 850.5,-623.5 850.5,-623.5 850.5,-623.5 850.5,-287.5 850.5,-261.8 838.42,-237.08 823.7,-216.51"/>
<polygon fill="none" stroke="#404040" points="823.56,-216.32 816.75,-213.96 816.31,-206.76 823.12,-209.12 823.56,-216.32"/>
<text text-anchor="middle" x="869.5" y="-471" font-family="Helvetica,sans-Serif" font-size="10.00"> +header</text>
</g>
<!-- Node4 -->
<g id="node4" class="node">
<title>Node4</title>
<g id="a_node4"><a xlink:href="structaltintegration_1_1BtcBlock.html" target="_top" xlink:title="Bitcoin block.">
<polygon fill="white" stroke="black" points="973.5,-969.5 973.5,-1191.5 1089.5,-1191.5 1089.5,-969.5 973.5,-969.5"/>
<text text-anchor="middle" x="1031.5" y="-1179.5" font-family="Helvetica,sans-Serif" font-size="10.00">altintegration::BtcBlock</text>
<polyline fill="none" stroke="black" points="973.5,-1172.5 1089.5,-1172.5 "/>
<text text-anchor="start" x="981.5" y="-1160.5" font-family="Helvetica,sans-Serif" font-size="10.00"># version</text>
<text text-anchor="start" x="981.5" y="-1149.5" font-family="Helvetica,sans-Serif" font-size="10.00"># timestamp</text>
<text text-anchor="start" x="981.5" y="-1138.5" font-family="Helvetica,sans-Serif" font-size="10.00"># bits</text>
<text text-anchor="start" x="981.5" y="-1127.5" font-family="Helvetica,sans-Serif" font-size="10.00"># nonce</text>
<polyline fill="none" stroke="black" points="973.5,-1120.5 1089.5,-1120.5 "/>
<text text-anchor="start" x="981.5" y="-1108.5" font-family="Helvetica,sans-Serif" font-size="10.00">+ BtcBlock()</text>
<text text-anchor="start" x="981.5" y="-1097.5" font-family="Helvetica,sans-Serif" font-size="10.00">+ BtcBlock()</text>
<text text-anchor="start" x="981.5" y="-1086.5" font-family="Helvetica,sans-Serif" font-size="10.00">+ toRaw()</text>
<text text-anchor="start" x="981.5" y="-1075.5" font-family="Helvetica,sans-Serif" font-size="10.00">+ toVbkEncoding()</text>
<text text-anchor="start" x="981.5" y="-1064.5" font-family="Helvetica,sans-Serif" font-size="10.00">+ estimateSize()</text>
<text text-anchor="start" x="981.5" y="-1053.5" font-family="Helvetica,sans-Serif" font-size="10.00">+ calculateHash()</text>
<text text-anchor="start" x="981.5" y="-1042.5" font-family="Helvetica,sans-Serif" font-size="10.00">+ getHash()</text>
<text text-anchor="start" x="981.5" y="-1031.5" font-family="Helvetica,sans-Serif" font-size="10.00">+ toPrettyString()</text>
<text text-anchor="start" x="981.5" y="-1020.5" font-family="Helvetica,sans-Serif" font-size="10.00">+ getVersion()</text>
<text text-anchor="start" x="981.5" y="-1009.5" font-family="Helvetica,sans-Serif" font-size="10.00">+ getPreviousBlock()</text>
<text text-anchor="start" x="981.5" y="-998.5" font-family="Helvetica,sans-Serif" font-size="10.00">and 10 more...</text>
<text text-anchor="start" x="981.5" y="-987.5" font-family="Helvetica,sans-Serif" font-size="10.00">+ name()</text>
<text text-anchor="start" x="981.5" y="-976.5" font-family="Helvetica,sans-Serif" font-size="10.00"># invalidateHash()</text>
</a>
</g>
</g>
<!-- Node4&#45;&gt;Node3 -->
<g id="edge3" class="edge">
<title>Node4&#45;&gt;Node3</title>
<path fill="none" stroke="midnightblue" d="M981.81,-960.26C961.77,-912.16 939.89,-859.65 924.91,-823.68"/>
<polygon fill="none" stroke="midnightblue" points="978.59,-961.61 985.66,-969.49 985.05,-958.92 978.59,-961.61"/>
</g>
<!-- Node5 -->
<g id="node5" class="node">
<title>Node5</title>
<g id="a_node5"><a xlink:title=" ">
<polygon fill="white" stroke="black" points="1081,-1374.5 1081,-1431.5 1140,-1431.5 1140,-1374.5 1081,-1374.5"/>
<text text-anchor="middle" x="1110.5" y="-1419.5" font-family="Helvetica,sans-Serif" font-size="10.00">std::string</text>
<polyline fill="none" stroke="black" points="1081,-1412.5 1140,-1412.5 "/>
<text text-anchor="middle" x="1110.5" y="-1400.5" font-family="Helvetica,sans-Serif" font-size="10.00"> </text>
<polyline fill="none" stroke="black" points="1081,-1393.5 1140,-1393.5 "/>
<text text-anchor="middle" x="1110.5" y="-1381.5" font-family="Helvetica,sans-Serif" font-size="10.00"> </text>
</a>
</g>
</g>
<!-- Node5&#45;&gt;Node4 -->
<g id="edge4" class="edge">
<title>Node5&#45;&gt;Node4</title>
<path fill="none" stroke="#404040" d="M1103.7,-1374.4C1094.36,-1336.52 1076.99,-1266.04 1061.62,-1203.71"/>
<polygon fill="none" stroke="#404040" points="1061.55,-1203.42 1056.23,-1198.55 1058.68,-1191.77 1064,-1196.64 1061.55,-1203.42"/>
<text text-anchor="middle" x="1094" y="-1236.5" font-family="Helvetica,sans-Serif" font-size="10.00"> #_name</text>
</g>
<!-- Node6 -->
<g id="node6" class="node">
<title>Node6</title>
<g id="a_node6"><a xlink:title=" ">
<polygon fill="white" stroke="black" points="1064,-1644.5 1064,-1712.5 1157,-1712.5 1157,-1644.5 1064,-1644.5"/>
<text text-anchor="start" x="1072" y="-1700.5" font-family="Helvetica,sans-Serif" font-size="10.00">std::basic_string&lt;</text>
<text text-anchor="middle" x="1110.5" y="-1689.5" font-family="Helvetica,sans-Serif" font-size="10.00"> Char &gt;</text>
<polyline fill="none" stroke="black" points="1064,-1682.5 1157,-1682.5 "/>
<text text-anchor="middle" x="1110.5" y="-1670.5" font-family="Helvetica,sans-Serif" font-size="10.00"> </text>
<polyline fill="none" stroke="black" points="1064,-1663.5 1157,-1663.5 "/>
<text text-anchor="middle" x="1110.5" y="-1651.5" font-family="Helvetica,sans-Serif" font-size="10.00"> </text>
</a>
</g>
</g>
<!-- Node6&#45;&gt;Node5 -->
<g id="edge5" class="edge">
<title>Node6&#45;&gt;Node5</title>
<path fill="none" stroke="midnightblue" d="M1110.5,-1634.13C1110.5,-1577.32 1110.5,-1479.36 1110.5,-1431.68"/>
<polygon fill="none" stroke="midnightblue" points="1107,-1634.24 1110.5,-1644.24 1114,-1634.24 1107,-1634.24"/>
</g>
<!-- Node7 -->
<g id="node7" class="node">
<title>Node7</title>
<g id="a_node7"><a xlink:href="structaltintegration_1_1Blob.html" target="_top" xlink:title=" ">
<polygon fill="white" stroke="black" points="831,-1286.5 831,-1519.5 962,-1519.5 962,-1286.5 831,-1286.5"/>
<text text-anchor="start" x="839" y="-1507.5" font-family="Helvetica,sans-Serif" font-size="10.00">altintegration::Blob</text>
<text text-anchor="middle" x="896.5" y="-1496.5" font-family="Helvetica,sans-Serif" font-size="10.00">&lt; SHA256_HASH_SIZE &gt;</text>
<polyline fill="none" stroke="black" points="831,-1489.5 962,-1489.5 "/>
<text text-anchor="start" x="839" y="-1477.5" font-family="Helvetica,sans-Serif" font-size="10.00">+ data_</text>
<text text-anchor="start" x="839" y="-1466.5" font-family="Helvetica,sans-Serif" font-size="10.00">+ this</text>
<polyline fill="none" stroke="black" points="831,-1459.5 962,-1459.5 "/>
<text text-anchor="start" x="839" y="-1447.5" font-family="Helvetica,sans-Serif" font-size="10.00">+ Blob()</text>
<text text-anchor="start" x="839" y="-1436.5" font-family="Helvetica,sans-Serif" font-size="10.00">+ Blob()</text>
<text text-anchor="start" x="839" y="-1425.5" font-family="Helvetica,sans-Serif" font-size="10.00">+ Blob()</text>
<text text-anchor="start" x="839" y="-1414.5" font-family="Helvetica,sans-Serif" font-size="10.00">+ Blob()</text>
<text text-anchor="start" x="839" y="-1403.5" font-family="Helvetica,sans-Serif" font-size="10.00">+ Blob()</text>
<text text-anchor="start" x="839" y="-1392.5" font-family="Helvetica,sans-Serif" font-size="10.00">+ operator std::vector</text>
<text text-anchor="start" x="839" y="-1381.5" font-family="Helvetica,sans-Serif" font-size="10.00">&lt; uint8_t &gt;()</text>
<text text-anchor="start" x="839" y="-1370.5" font-family="Helvetica,sans-Serif" font-size="10.00">+ fill()</text>
<text text-anchor="start" x="839" y="-1359.5" font-family="Helvetica,sans-Serif" font-size="10.00">+ begin()</text>
<text text-anchor="start" x="839" y="-1348.5" font-family="Helvetica,sans-Serif" font-size="10.00">+ begin()</text>
<text text-anchor="start" x="839" y="-1337.5" font-family="Helvetica,sans-Serif" font-size="10.00">+ end()</text>
<text text-anchor="start" x="839" y="-1326.5" font-family="Helvetica,sans-Serif" font-size="10.00">and 20 more...</text>
<text text-anchor="start" x="839" y="-1315.5" font-family="Helvetica,sans-Serif" font-size="10.00">+ size()</text>
<text text-anchor="start" x="839" y="-1304.5" font-family="Helvetica,sans-Serif" font-size="10.00">+ fromHex()</text>
<text text-anchor="start" x="839" y="-1293.5" font-family="Helvetica,sans-Serif" font-size="10.00">+ assertFromHex()</text>
</a>
</g>
</g>
<!-- Node7&#45;&gt;Node4 -->
<g id="edge6" class="edge">
<title>Node7&#45;&gt;Node4</title>
<path fill="none" stroke="#404040" d="M917.27,-1286.45C924.62,-1260.33 934.45,-1233.43 947.5,-1210 952.85,-1200.39 957.83,-1200.75 964.5,-1192 965.06,-1191.26 965.62,-1190.52 966.18,-1189.78"/>
<polygon fill="none" stroke="#404040" points="966.34,-1189.56 966.63,-1182.35 973.4,-1179.85 973.1,-1187.06 966.34,-1189.56"/>
<text text-anchor="middle" x="981" y="-1242" font-family="Helvetica,sans-Serif" font-size="10.00"> #merkleRoot</text>
<text text-anchor="middle" x="981" y="-1231" font-family="Helvetica,sans-Serif" font-size="10.00">#previousBlock</text>
</g>
<!-- Node17 -->
<g id="node17" class="node">
<title>Node17</title>
<g id="a_node17"><a xlink:href="structaltintegration_1_1btc_1_1OutPoint.html" target="_top" xlink:title="An outpoint &#45; a combination of a transaction hash and an index n into its vout.">
<polygon fill="white" stroke="black" points="800,-1041 800,-1120 955,-1120 955,-1041 800,-1041"/>
<text text-anchor="start" x="808" y="-1108" font-family="Helvetica,sans-Serif" font-size="10.00">altintegration::btc</text>
<text text-anchor="middle" x="877.5" y="-1097" font-family="Helvetica,sans-Serif" font-size="10.00">::OutPoint</text>
<polyline fill="none" stroke="black" points="800,-1090 955,-1090 "/>
<text text-anchor="start" x="808" y="-1078" font-family="Helvetica,sans-Serif" font-size="10.00">+ n</text>
<text text-anchor="start" x="808" y="-1067" font-family="Helvetica,sans-Serif" font-size="10.00">+ ADD_SERIALIZE_METHODS</text>
<polyline fill="none" stroke="black" points="800,-1060 955,-1060 "/>
<text text-anchor="start" x="808" y="-1048" font-family="Helvetica,sans-Serif" font-size="10.00">+ SerializationOp()</text>
</a>
</g>
</g>
<!-- Node7&#45;&gt;Node17 -->
<g id="edge18" class="edge">
<title>Node7&#45;&gt;Node17</title>
<path fill="none" stroke="#404040" d="M889.64,-1286.29C886.51,-1233.48 882.96,-1173.66 880.52,-1132.37"/>
<polygon fill="none" stroke="#404040" points="880.5,-1132.16 876.16,-1126.41 879.79,-1120.18 884.14,-1125.93 880.5,-1132.16"/>
<text text-anchor="middle" x="903.5" y="-1236.5" font-family="Helvetica,sans-Serif" font-size="10.00"> +hash</text>
</g>
<!-- Node8 -->
<g id="node8" class="node">
<title>Node8</title>
<g id="a_node8"><a xlink:href="structaltintegration_1_1Blob.html" target="_top" xlink:title="Contiguous byte array of fixed size.">
<polygon fill="white" stroke="black" points="881.5,-1567.5 881.5,-1789.5 1001.5,-1789.5 1001.5,-1567.5 881.5,-1567.5"/>
<text text-anchor="middle" x="941.5" y="-1777.5" font-family="Helvetica,sans-Serif" font-size="10.00">altintegration::Blob&lt; N &gt;</text>
<polyline fill="none" stroke="black" points="881.5,-1770.5 1001.5,-1770.5 "/>
<text text-anchor="start" x="889.5" y="-1758.5" font-family="Helvetica,sans-Serif" font-size="10.00">+ data_</text>
<text text-anchor="start" x="889.5" y="-1747.5" font-family="Helvetica,sans-Serif" font-size="10.00">+ this</text>
<polyline fill="none" stroke="black" points="881.5,-1740.5 1001.5,-1740.5 "/>
<text text-anchor="start" x="889.5" y="-1728.5" font-family="Helvetica,sans-Serif" font-size="10.00">+ Blob()</text>
<text text-anchor="start" x="889.5" y="-1717.5" font-family="Helvetica,sans-Serif" font-size="10.00">+ Blob()</text>
<text text-anchor="start" x="889.5" y="-1706.5" font-family="Helvetica,sans-Serif" font-size="10.00">+ Blob()</text>
<text text-anchor="start" x="889.5" y="-1695.5" font-family="Helvetica,sans-Serif" font-size="10.00">+ Blob()</text>
<text text-anchor="start" x="889.5" y="-1684.5" font-family="Helvetica,sans-Serif" font-size="10.00">+ Blob()</text>
<text text-anchor="start" x="889.5" y="-1673.5" font-family="Helvetica,sans-Serif" font-size="10.00">+ operator std::vector</text>
<text text-anchor="start" x="889.5" y="-1662.5" font-family="Helvetica,sans-Serif" font-size="10.00">&lt; uint8_t &gt;()</text>
<text text-anchor="start" x="889.5" y="-1651.5" font-family="Helvetica,sans-Serif" font-size="10.00">+ fill()</text>
<text text-anchor="start" x="889.5" y="-1640.5" font-family="Helvetica,sans-Serif" font-size="10.00">+ begin()</text>
<text text-anchor="start" x="889.5" y="-1629.5" font-family="Helvetica,sans-Serif" font-size="10.00">+ begin()</text>
<text text-anchor="start" x="889.5" y="-1618.5" font-family="Helvetica,sans-Serif" font-size="10.00">+ end()</text>
<text text-anchor="start" x="889.5" y="-1607.5" font-family="Helvetica,sans-Serif" font-size="10.00">and 20 more...</text>
<text text-anchor="start" x="889.5" y="-1596.5" font-family="Helvetica,sans-Serif" font-size="10.00">+ size()</text>
<text text-anchor="start" x="889.5" y="-1585.5" font-family="Helvetica,sans-Serif" font-size="10.00">+ fromHex()</text>
<text text-anchor="start" x="889.5" y="-1574.5" font-family="Helvetica,sans-Serif" font-size="10.00">+ assertFromHex()</text>
</a>
</g>
</g>
<!-- Node8&#45;&gt;Node4 -->
<g id="edge8" class="edge">
<title>Node8&#45;&gt;Node4</title>
<path fill="none" stroke="#404040" d="M1001.61,-1583.24C1006.76,-1572.03 1011.24,-1560.48 1014.5,-1549 1032.19,-1486.65 1034.43,-1320.33 1033.61,-1203.92"/>
<polygon fill="none" stroke="#404040" points="1033.61,-1203.76 1029.56,-1197.79 1033.51,-1191.76 1037.56,-1197.72 1033.61,-1203.76"/>
<text text-anchor="middle" x="1050.5" y="-1400.5" font-family="Helvetica,sans-Serif" font-size="10.00"> #hash_</text>
</g>
<!-- Node8&#45;&gt;Node7 -->
<g id="edge7" class="edge">
<title>Node8&#45;&gt;Node7</title>
<path fill="none" stroke="orange" d="M899.1,-1557.56C898.52,-1554.69 897.98,-1551.83 897.5,-1549 895.9,-1539.57 894.75,-1529.74 893.95,-1519.85"/>
<polygon fill="orange" stroke="orange" points="895.69,-1558.33 901.26,-1567.34 902.52,-1556.82 895.69,-1558.33"/>
<text text-anchor="middle" x="956" y="-1541" font-family="Helvetica,sans-Serif" font-size="10.00"> &lt; SHA256_HASH_SIZE &gt;</text>
</g>
<!-- Node9 -->
<g id="node9" class="node">
<title>Node9</title>
<g id="a_node9"><a xlink:title=" ">
<polygon fill="white" stroke="black" points="696,-1210.5 696,-1267.5 809,-1267.5 809,-1210.5 696,-1210.5"/>
<text text-anchor="middle" x="752.5" y="-1255.5" font-family="Helvetica,sans-Serif" font-size="10.00">std::vector&lt; uint64_t &gt;</text>
<polyline fill="none" stroke="black" points="696,-1248.5 809,-1248.5 "/>
<text text-anchor="start" x="704" y="-1236.5" font-family="Helvetica,sans-Serif" font-size="10.00">+ elements</text>
<polyline fill="none" stroke="black" points="696,-1229.5 809,-1229.5 "/>
<text text-anchor="middle" x="752.5" y="-1217.5" font-family="Helvetica,sans-Serif" font-size="10.00"> </text>
</a>
</g>
</g>
<!-- Node9&#45;&gt;Node2 -->
<g id="edge9" class="edge">
<title>Node9&#45;&gt;Node2</title>
<path fill="none" stroke="#404040" d="M755.51,-1210.31C760.87,-1158.55 771.5,-1043.62 771.5,-946.5 771.5,-946.5 771.5,-946.5 771.5,-287.5 771.5,-265.1 771.5,-240.43 771.5,-218.98"/>
<polygon fill="none" stroke="#404040" points="771.5,-218.76 767.5,-212.76 771.5,-206.76 775.5,-212.76 771.5,-218.76"/>
<text text-anchor="middle" x="797" y="-620" font-family="Helvetica,sans-Serif" font-size="10.00"> +shorttxids</text>
</g>
<!-- Node10 -->
<g id="node10" class="node">
<title>Node10</title>
<g id="a_node10"><a xlink:title=" ">
<polygon fill="white" stroke="black" points="468.5,-1650 468.5,-1707 552.5,-1707 552.5,-1650 468.5,-1650"/>
<text text-anchor="middle" x="510.5" y="-1695" font-family="Helvetica,sans-Serif" font-size="10.00">std::vector&lt; T &gt;</text>
<polyline fill="none" stroke="black" points="468.5,-1688 552.5,-1688 "/>
<text text-anchor="middle" x="510.5" y="-1676" font-family="Helvetica,sans-Serif" font-size="10.00"> </text>
<polyline fill="none" stroke="black" points="468.5,-1669 552.5,-1669 "/>
<text text-anchor="middle" x="510.5" y="-1657" font-family="Helvetica,sans-Serif" font-size="10.00"> </text>
</a>
</g>
</g>
<!-- Node10&#45;&gt;Node9 -->
<g id="edge10" class="edge">
<title>Node10&#45;&gt;Node9</title>
<path fill="none" stroke="orange" d="M561.39,-1649.06C597.32,-1626.43 643.81,-1591.56 671.5,-1549 730.93,-1457.65 746.85,-1324.48 751.04,-1267.51"/>
<polygon fill="orange" stroke="orange" points="559.18,-1646.31 552.51,-1654.54 562.85,-1652.27 559.18,-1646.31"/>
<text text-anchor="middle" x="705.5" y="-1541" font-family="Helvetica,sans-Serif" font-size="10.00"> &lt; uint64_t &gt;</text>
</g>
<!-- Node12 -->
<g id="node12" class="node">
<title>Node12</title>
<g id="a_node12"><a xlink:title=" ">
<polygon fill="white" stroke="black" points="591,-254.5 591,-322.5 724,-322.5 724,-254.5 591,-254.5"/>
<text text-anchor="start" x="599" y="-310.5" font-family="Helvetica,sans-Serif" font-size="10.00">std::vector&lt; altintegration</text>
<text text-anchor="middle" x="657.5" y="-299.5" font-family="Helvetica,sans-Serif" font-size="10.00">::btc::PrefilledTransaction &gt;</text>
<polyline fill="none" stroke="black" points="591,-292.5 724,-292.5 "/>
<text text-anchor="middle" x="657.5" y="-280.5" font-family="Helvetica,sans-Serif" font-size="10.00"> </text>
<polyline fill="none" stroke="black" points="591,-273.5 724,-273.5 "/>
<text text-anchor="middle" x="657.5" y="-261.5" font-family="Helvetica,sans-Serif" font-size="10.00"> </text>
</a>
</g>
</g>
<!-- Node10&#45;&gt;Node12 -->
<g id="edge29" class="edge">
<title>Node10&#45;&gt;Node12</title>
<path fill="none" stroke="orange" d="M550.56,-1642.69C581.48,-1613.31 622.42,-1568.4 643.5,-1520 664.23,-1472.39 657.5,-1455.93 657.5,-1404 657.5,-1404 657.5,-1404 657.5,-409 657.5,-379.85 657.5,-346.7 657.5,-322.73"/>
<polygon fill="orange" stroke="orange" points="547.85,-1640.43 542.94,-1649.81 552.63,-1645.54 547.85,-1640.43"/>
<text text-anchor="start" x="657.5" y="-781.5" font-family="Helvetica,sans-Serif" font-size="10.00"> &lt; altintegration::btc</text>
<text text-anchor="middle" x="707" y="-770.5" font-family="Helvetica,sans-Serif" font-size="10.00">::PrefilledTransaction &gt;</text>
</g>
<!-- Node15 -->
<g id="node15" class="node">
<title>Node15</title>
<g id="a_node15"><a xlink:title=" ">
<polygon fill="white" stroke="black" points="216,-646.5 216,-714.5 341,-714.5 341,-646.5 216,-646.5"/>
<text text-anchor="start" x="224" y="-702.5" font-family="Helvetica,sans-Serif" font-size="10.00">std::vector&lt; altintegration</text>
<text text-anchor="middle" x="278.5" y="-691.5" font-family="Helvetica,sans-Serif" font-size="10.00">::btc::TxIn &gt;</text>
<polyline fill="none" stroke="black" points="216,-684.5 341,-684.5 "/>
<text text-anchor="middle" x="278.5" y="-672.5" font-family="Helvetica,sans-Serif" font-size="10.00"> </text>
<polyline fill="none" stroke="black" points="216,-665.5 341,-665.5 "/>
<text text-anchor="middle" x="278.5" y="-653.5" font-family="Helvetica,sans-Serif" font-size="10.00"> </text>
</a>
</g>
</g>
<!-- Node10&#45;&gt;Node15 -->
<g id="edge24" class="edge">
<title>Node10&#45;&gt;Node15</title>
<path fill="none" stroke="orange" d="M458.69,-1664.05C359.72,-1634.9 153.5,-1555.91 153.5,-1404 153.5,-1404 153.5,-1404 153.5,-881 153.5,-814.17 204.49,-751.33 241.33,-714.64"/>
<polygon fill="orange" stroke="orange" points="457.92,-1667.47 468.5,-1666.88 459.86,-1660.75 457.92,-1667.47"/>
<text text-anchor="start" x="153.5" y="-1083.5" font-family="Helvetica,sans-Serif" font-size="10.00"> &lt; altintegration::btc</text>
<text text-anchor="middle" x="196" y="-1072.5" font-family="Helvetica,sans-Serif" font-size="10.00">::TxIn &gt;</text>
</g>
<!-- Node18 -->
<g id="node18" class="node">
<title>Node18</title>
<g id="a_node18"><a xlink:title=" ">
<polygon fill="white" stroke="black" points="398,-1374.5 398,-1431.5 505,-1431.5 505,-1374.5 398,-1374.5"/>
<text text-anchor="middle" x="451.5" y="-1419.5" font-family="Helvetica,sans-Serif" font-size="10.00">std::vector&lt; uint8_t &gt;</text>
<polyline fill="none" stroke="black" points="398,-1412.5 505,-1412.5 "/>
<text text-anchor="start" x="406" y="-1400.5" font-family="Helvetica,sans-Serif" font-size="10.00">+ elements</text>
<polyline fill="none" stroke="black" points="398,-1393.5 505,-1393.5 "/>
<text text-anchor="middle" x="451.5" y="-1381.5" font-family="Helvetica,sans-Serif" font-size="10.00"> </text>
</a>
</g>
</g>
<!-- Node10&#45;&gt;Node18 -->
<g id="edge20" class="edge">
<title>Node10&#45;&gt;Node18</title>
<path fill="none" stroke="orange" d="M501.83,-1639.93C495.98,-1614.33 488.13,-1579.65 481.5,-1549 472.67,-1508.17 462.96,-1460.75 457.05,-1431.56"/>
<polygon fill="orange" stroke="orange" points="498.49,-1640.99 504.13,-1649.96 505.31,-1639.43 498.49,-1640.99"/>
<text text-anchor="middle" x="506" y="-1541" font-family="Helvetica,sans-Serif" font-size="10.00"> &lt; uint8_t &gt;</text>
</g>
<!-- Node19 -->
<g id="node19" class="node">
<title>Node19</title>
<g id="a_node19"><a xlink:title=" ">
<polygon fill="white" stroke="black" points="514,-1046.5 514,-1114.5 629,-1114.5 629,-1046.5 514,-1046.5"/>
<text text-anchor="start" x="522" y="-1102.5" font-family="Helvetica,sans-Serif" font-size="10.00">std::vector&lt; std::vector</text>
<text text-anchor="middle" x="571.5" y="-1091.5" font-family="Helvetica,sans-Serif" font-size="10.00">&lt; uint8_t &gt; &gt;</text>
<polyline fill="none" stroke="black" points="514,-1084.5 629,-1084.5 "/>
<text text-anchor="middle" x="571.5" y="-1072.5" font-family="Helvetica,sans-Serif" font-size="10.00"> </text>
<polyline fill="none" stroke="black" points="514,-1065.5 629,-1065.5 "/>
<text text-anchor="middle" x="571.5" y="-1053.5" font-family="Helvetica,sans-Serif" font-size="10.00"> </text>
</a>
</g>
</g>
<!-- Node10&#45;&gt;Node19 -->
<g id="edge23" class="edge">
<title>Node10&#45;&gt;Node19</title>
<path fill="none" stroke="orange" d="M517.06,-1639.73C521.33,-1614.18 526.78,-1579.63 530.5,-1549 550.23,-1386.63 564.23,-1191.43 569.35,-1114.74"/>
<polygon fill="orange" stroke="orange" points="513.58,-1639.31 515.37,-1649.75 520.48,-1640.47 513.58,-1639.31"/>
<text text-anchor="start" x="556.5" y="-1406" font-family="Helvetica,sans-Serif" font-size="10.00"> &lt; std::vector&lt; uint8</text>
<text text-anchor="middle" x="599" y="-1395" font-family="Helvetica,sans-Serif" font-size="10.00">_t &gt; &gt;</text>
</g>
<!-- Node20 -->
<g id="node20" class="node">
<title>Node20</title>
<g id="a_node20"><a xlink:title=" ">
<polygon fill="white" stroke="black" points="0,-848 0,-916 125,-916 125,-848 0,-848"/>
<text text-anchor="start" x="8" y="-904" font-family="Helvetica,sans-Serif" font-size="10.00">std::vector&lt; altintegration</text>
<text text-anchor="middle" x="62.5" y="-893" font-family="Helvetica,sans-Serif" font-size="10.00">::btc::TxOut &gt;</text>
<polyline fill="none" stroke="black" points="0,-886 125,-886 "/>
<text text-anchor="middle" x="62.5" y="-874" font-family="Helvetica,sans-Serif" font-size="10.00"> </text>
<polyline fill="none" stroke="black" points="0,-867 125,-867 "/>
<text text-anchor="middle" x="62.5" y="-855" font-family="Helvetica,sans-Serif" font-size="10.00"> </text>
</a>
</g>
</g>
<!-- Node10&#45;&gt;Node20 -->
<g id="edge28" class="edge">
<title>Node10&#45;&gt;Node20</title>
<path fill="none" stroke="orange" d="M458.02,-1674.02C378.03,-1665.89 225.84,-1638.84 139.5,-1549 -33.3,-1369.2 29.2,-1023.87 54.19,-916.02"/>
<polygon fill="orange" stroke="orange" points="458.05,-1677.54 468.34,-1675.01 458.72,-1670.58 458.05,-1677.54"/>
<text text-anchor="start" x="26.5" y="-1242" font-family="Helvetica,sans-Serif" font-size="10.00"> &lt; altintegration::btc</text>
<text text-anchor="middle" x="69" y="-1231" font-family="Helvetica,sans-Serif" font-size="10.00">::TxOut &gt;</text>
</g>
<!-- Node11 -->
<g id="node11" class="node">
<title>Node11</title>
<g id="a_node11"><a xlink:title=" ">
<polygon fill="white" stroke="#bfbfbf" points="496,-1837.5 496,-1894.5 525,-1894.5 525,-1837.5 496,-1837.5"/>
<text text-anchor="middle" x="510.5" y="-1882.5" font-family="Helvetica,sans-Serif" font-size="10.00">T</text>
<polyline fill="none" stroke="#bfbfbf" points="496,-1875.5 525,-1875.5 "/>
<text text-anchor="middle" x="510.5" y="-1863.5" font-family="Helvetica,sans-Serif" font-size="10.00"> </text>
<polyline fill="none" stroke="#bfbfbf" points="496,-1856.5 525,-1856.5 "/>
<text text-anchor="middle" x="510.5" y="-1844.5" font-family="Helvetica,sans-Serif" font-size="10.00"> </text>
</a>
</g>
</g>
<!-- Node11&#45;&gt;Node10 -->
<g id="edge11" class="edge">
<title>Node11&#45;&gt;Node10</title>
<path fill="none" stroke="#404040" d="M510.5,-1837.23C510.5,-1805.99 510.5,-1755 510.5,-1719.48"/>
<polygon fill="none" stroke="#404040" points="510.5,-1719.16 506.5,-1713.16 510.5,-1707.16 514.5,-1713.16 510.5,-1719.16"/>
<text text-anchor="middle" x="535" y="-1811" font-family="Helvetica,sans-Serif" font-size="10.00"> +elements</text>
</g>
<!-- Node12&#45;&gt;Node2 -->
<g id="edge12" class="edge">
<title>Node12&#45;&gt;Node2</title>
<path fill="none" stroke="#404040" d="M679.38,-254.38C686.36,-244.59 694.39,-234.07 702.5,-225 705.42,-221.74 708.49,-218.46 711.65,-215.22"/>
<polygon fill="none" stroke="#404040" points="711.68,-215.19 713.12,-208.12 720.19,-206.72 718.76,-213.79 711.68,-215.19"/>
<text text-anchor="middle" x="730" y="-228" font-family="Helvetica,sans-Serif" font-size="10.00"> +prefilledtxn</text>
</g>
<!-- Node13 -->
<g id="node13" class="node">
<title>Node13</title>
<g id="a_node13"><a xlink:href="structaltintegration_1_1btc_1_1PrefilledTransaction.html" target="_top" xlink:title=" ">
<polygon fill="white" stroke="#bfbfbf" points="201,-370.5 201,-449.5 356,-449.5 356,-370.5 201,-370.5"/>
<text text-anchor="start" x="209" y="-437.5" font-family="Helvetica,sans-Serif" font-size="10.00">altintegration::btc</text>
<text text-anchor="middle" x="278.5" y="-426.5" font-family="Helvetica,sans-Serif" font-size="10.00">::PrefilledTransaction</text>
<polyline fill="none" stroke="#bfbfbf" points="201,-419.5 356,-419.5 "/>
<text text-anchor="start" x="209" y="-407.5" font-family="Helvetica,sans-Serif" font-size="10.00">+ index</text>
<text text-anchor="start" x="209" y="-396.5" font-family="Helvetica,sans-Serif" font-size="10.00">+ ADD_SERIALIZE_METHODS</text>
<polyline fill="none" stroke="#bfbfbf" points="201,-389.5 356,-389.5 "/>
<text text-anchor="start" x="209" y="-377.5" font-family="Helvetica,sans-Serif" font-size="10.00">+ SerializationOp()</text>
</a>
</g>
</g>
<!-- Node13&#45;&gt;Node12 -->
<g id="edge13" class="edge">
<title>Node13&#45;&gt;Node12</title>
<path fill="none" stroke="#404040" d="M356.11,-384.53C421.28,-363.98 513.96,-334.76 579.3,-314.16"/>
<polygon fill="none" stroke="#404040" points="579.31,-314.15 583.83,-308.53 590.76,-310.54 586.24,-316.16 579.31,-314.15"/>
<text text-anchor="middle" x="516" y="-344" font-family="Helvetica,sans-Serif" font-size="10.00"> +elements</text>
</g>
<!-- Node14 -->
<g id="node14" class="node">
<title>Node14</title>
<g id="a_node14"><a xlink:href="structaltintegration_1_1btc_1_1Transaction.html" target="_top" xlink:title="The basic transaction that is broadcasted on the network and contained in blocks.">
<polygon fill="white" stroke="black" points="233.5,-497.5 233.5,-598.5 323.5,-598.5 323.5,-497.5 233.5,-497.5"/>
<text text-anchor="start" x="241.5" y="-586.5" font-family="Helvetica,sans-Serif" font-size="10.00">altintegration::btc</text>
<text text-anchor="middle" x="278.5" y="-575.5" font-family="Helvetica,sans-Serif" font-size="10.00">::Transaction</text>
<polyline fill="none" stroke="black" points="233.5,-568.5 323.5,-568.5 "/>
<text text-anchor="start" x="241.5" y="-556.5" font-family="Helvetica,sans-Serif" font-size="10.00">+ nVersion</text>
<text text-anchor="start" x="241.5" y="-545.5" font-family="Helvetica,sans-Serif" font-size="10.00">+ nLockTime</text>
<polyline fill="none" stroke="black" points="233.5,-538.5 323.5,-538.5 "/>
<text text-anchor="start" x="241.5" y="-526.5" font-family="Helvetica,sans-Serif" font-size="10.00">+ Serialize()</text>
<text text-anchor="start" x="241.5" y="-515.5" font-family="Helvetica,sans-Serif" font-size="10.00">+ Unserialize()</text>
<text text-anchor="start" x="241.5" y="-504.5" font-family="Helvetica,sans-Serif" font-size="10.00">+ HasWitness()</text>
</a>
</g>
</g>
<!-- Node14&#45;&gt;Node13 -->
<g id="edge14" class="edge">
<title>Node14&#45;&gt;Node13</title>
<path fill="none" stroke="#404040" d="M278.5,-497.13C278.5,-485.66 278.5,-473.45 278.5,-461.94"/>
<polygon fill="none" stroke="#404040" points="278.5,-461.79 274.5,-455.79 278.5,-449.79 282.5,-455.79 278.5,-461.79"/>
<text text-anchor="middle" x="286.5" y="-471" font-family="Helvetica,sans-Serif" font-size="10.00"> +tx</text>
</g>
<!-- Node15&#45;&gt;Node14 -->
<g id="edge15" class="edge">
<title>Node15&#45;&gt;Node14</title>
<path fill="none" stroke="#404040" d="M278.5,-646.23C278.5,-635.47 278.5,-623.17 278.5,-611.02"/>
<polygon fill="none" stroke="#404040" points="278.5,-610.98 274.5,-604.98 278.5,-598.98 282.5,-604.98 278.5,-610.98"/>
<text text-anchor="middle" x="289.5" y="-620" font-family="Helvetica,sans-Serif" font-size="10.00"> +vin</text>
</g>
<!-- Node16 -->
<g id="node16" class="node">
<title>Node16</title>
<g id="a_node16"><a xlink:href="structaltintegration_1_1btc_1_1TxIn.html" target="_top" xlink:title="An input of a transaction.">
<polygon fill="white" stroke="black" points="423,-842.5 423,-921.5 578,-921.5 578,-842.5 423,-842.5"/>
<text text-anchor="start" x="431" y="-909.5" font-family="Helvetica,sans-Serif" font-size="10.00">altintegration::btc</text>
<text text-anchor="middle" x="500.5" y="-898.5" font-family="Helvetica,sans-Serif" font-size="10.00">::TxIn</text>
<polyline fill="none" stroke="black" points="423,-891.5 578,-891.5 "/>
<text text-anchor="start" x="431" y="-879.5" font-family="Helvetica,sans-Serif" font-size="10.00">+ nSequence</text>
<text text-anchor="start" x="431" y="-868.5" font-family="Helvetica,sans-Serif" font-size="10.00">+ ADD_SERIALIZE_METHODS</text>
<polyline fill="none" stroke="black" points="423,-861.5 578,-861.5 "/>
<text text-anchor="start" x="431" y="-849.5" font-family="Helvetica,sans-Serif" font-size="10.00">+ SerializationOp()</text>
</a>
</g>
</g>
<!-- Node16&#45;&gt;Node15 -->
<g id="edge16" class="edge">
<title>Node16&#45;&gt;Node15</title>
<path fill="none" stroke="#404040" d="M457.43,-842.3C419.26,-807.99 363.67,-758.04 324.61,-722.94"/>
<polygon fill="none" stroke="#404040" points="324.48,-722.82 317.34,-721.78 315.55,-714.8 322.69,-715.83 324.48,-722.82"/>
<text text-anchor="middle" x="460" y="-776" font-family="Helvetica,sans-Serif" font-size="10.00"> +elements</text>
</g>
<!-- Node17&#45;&gt;Node16 -->
<g id="edge17" class="edge">
<title>Node17&#45;&gt;Node16</title>
<path fill="none" stroke="#404040" d="M803.47,-1040.91C740.8,-1008.25 650.97,-961.43 585.4,-927.25"/>
<polygon fill="none" stroke="#404040" points="585.33,-927.21 578.16,-927.99 574.69,-921.67 581.86,-920.89 585.33,-927.21"/>
<text text-anchor="middle" x="643" y="-943" font-family="Helvetica,sans-Serif" font-size="10.00"> +prevout</text>
</g>
<!-- Node18&#45;&gt;Node16 -->
<g id="edge19" class="edge">
<title>Node18&#45;&gt;Node16</title>
<path fill="none" stroke="#404040" d="M447.68,-1374.36C439,-1304.96 421.19,-1118.2 457.5,-969 460.49,-956.71 465.48,-944.16 471.02,-932.58"/>
<polygon fill="none" stroke="#404040" points="471.05,-932.53 470.18,-925.37 476.46,-921.82 477.32,-928.97 471.05,-932.53"/>
<text text-anchor="middle" x="481" y="-1078" font-family="Helvetica,sans-Serif" font-size="10.00"> +scriptSig</text>
</g>
<!-- Node18&#45;&gt;Node19 -->
<g id="edge22" class="edge">
<title>Node18&#45;&gt;Node19</title>
<path fill="none" stroke="#404040" d="M450.97,-1374.4C451.3,-1335.67 455.9,-1263.9 482.5,-1210 487.37,-1200.13 492.69,-1200.64 499.5,-1192 516.03,-1171.02 532.45,-1146.21 545.42,-1125.42"/>
<polygon fill="none" stroke="#404040" points="545.57,-1125.17 545.32,-1117.96 551.87,-1114.96 552.13,-1122.16 545.57,-1125.17"/>
<text text-anchor="middle" x="507" y="-1236.5" font-family="Helvetica,sans-Serif" font-size="10.00"> +elements</text>
</g>
<!-- Node21 -->
<g id="node21" class="node">
<title>Node21</title>
<g id="a_node21"><a xlink:href="structaltintegration_1_1btc_1_1TxOut.html" target="_top" xlink:title="An output of a transaction.">
<polygon fill="white" stroke="black" points="257,-1041 257,-1120 412,-1120 412,-1041 257,-1041"/>
<text text-anchor="start" x="265" y="-1108" font-family="Helvetica,sans-Serif" font-size="10.00">altintegration::btc</text>
<text text-anchor="middle" x="334.5" y="-1097" font-family="Helvetica,sans-Serif" font-size="10.00">::TxOut</text>
<polyline fill="none" stroke="black" points="257,-1090 412,-1090 "/>
<text text-anchor="start" x="265" y="-1078" font-family="Helvetica,sans-Serif" font-size="10.00">+ nValue</text>
<text text-anchor="start" x="265" y="-1067" font-family="Helvetica,sans-Serif" font-size="10.00">+ ADD_SERIALIZE_METHODS</text>
<polyline fill="none" stroke="black" points="257,-1060 412,-1060 "/>
<text text-anchor="start" x="265" y="-1048" font-family="Helvetica,sans-Serif" font-size="10.00">+ SerializationOp()</text>
</a>
</g>
</g>
<!-- Node18&#45;&gt;Node21 -->
<g id="edge27" class="edge">
<title>Node18&#45;&gt;Node21</title>
<path fill="none" stroke="#404040" d="M429.73,-1374.43C410.36,-1348.46 382.79,-1307.72 367.5,-1268 350.57,-1224.03 342.25,-1170.85 338.21,-1132.54"/>
<polygon fill="none" stroke="#404040" points="338.17,-1132.1 333.6,-1126.52 337,-1120.16 341.56,-1125.74 338.17,-1132.1"/>
<text text-anchor="middle" x="401" y="-1236.5" font-family="Helvetica,sans-Serif" font-size="10.00"> +scriptPubKey</text>
</g>
<!-- Node19&#45;&gt;Node16 -->
<g id="edge21" class="edge">
<title>Node19&#45;&gt;Node16</title>
<path fill="none" stroke="#404040" d="M559.46,-1046.17C548.26,-1015.18 531.43,-968.59 518.61,-933.12"/>
<polygon fill="none" stroke="#404040" points="518.51,-932.85 512.71,-928.56 514.43,-921.56 520.23,-925.84 518.51,-932.85"/>
<text text-anchor="middle" x="557.5" y="-943" font-family="Helvetica,sans-Serif" font-size="10.00"> +scriptWitness</text>
</g>
<!-- Node20&#45;&gt;Node14 -->
<g id="edge25" class="edge">
<title>Node20&#45;&gt;Node14</title>
<path fill="none" stroke="#404040" d="M74.66,-847.87C92.94,-800.49 130.55,-711.83 178.5,-646 191.72,-627.86 208.5,-610.12 224.51,-594.88"/>
<polygon fill="none" stroke="#404040" points="224.53,-594.86 226.19,-587.84 233.31,-586.68 231.65,-593.7 224.53,-594.86"/>
<text text-anchor="middle" x="192.5" y="-678" font-family="Helvetica,sans-Serif" font-size="10.00"> +vout</text>
</g>
<!-- Node21&#45;&gt;Node20 -->
<g id="edge26" class="edge">
<title>Node21&#45;&gt;Node20</title>
<path fill="none" stroke="#404040" d="M308.77,-1040.82C291.98,-1017.76 268.41,-989.15 242.5,-969 210.82,-944.35 170.93,-924.4 136.76,-909.94"/>
<polygon fill="none" stroke="#404040" points="136.5,-909.83 129.42,-911.23 125.41,-905.24 132.48,-903.84 136.5,-909.83"/>
<text text-anchor="middle" x="241" y="-943" font-family="Helvetica,sans-Serif" font-size="10.00"> +elements</text>
</g>
</g>
</svg>
