<?xml version="1.0" encoding="UTF-8" standalone="no"?>
<!DOCTYPE svg PUBLIC "-//W3C//DTD SVG 1.1//EN"
 "http://www.w3.org/Graphics/SVG/1.1/DTD/svg11.dtd">
<!-- Generated by graphviz version 2.47.0 (20210316.2052)
 -->
<!-- Title: altintegration::BlockTree&lt; Block, ChainParams &gt; Pages: 1 -->
<svg width="847pt" height="1407pt"
 viewBox="0.00 0.00 847.00 1407.00" xmlns="http://www.w3.org/2000/svg" xmlns:xlink="http://www.w3.org/1999/xlink">
<g id="graph0" class="graph" transform="scale(1 1) rotate(0) translate(4 1403)">
<title>altintegration::BlockTree&lt; Block, ChainParams &gt;</title>
<polygon fill="white" stroke="transparent" points="-4,4 -4,-1403 843,-1403 843,4 -4,4"/>
<!-- Node1 -->
<g id="node1" class="node">
<title>Node1</title>
<g id="a_node1"><a xlink:title="BlockTree is a tree of blocks with single &quot;bootstrap&quot; block as root.">
<polygon fill="#bfbfbf" stroke="black" points="161.5,-0.5 161.5,-255.5 295.5,-255.5 295.5,-0.5 161.5,-0.5"/>
<text text-anchor="start" x="169.5" y="-243.5" font-family="Helvetica,sans-Serif" font-size="10.00">altintegration::BlockTree</text>
<text text-anchor="middle" x="228.5" y="-232.5" font-family="Helvetica,sans-Serif" font-size="10.00">&lt; Block, ChainParams &gt;</text>
<polyline fill="none" stroke="black" points="161.5,-225.5 295.5,-225.5 "/>
<text text-anchor="start" x="169.5" y="-213.5" font-family="Helvetica,sans-Serif" font-size="10.00"># param_</text>
<polyline fill="none" stroke="black" points="161.5,-206.5 295.5,-206.5 "/>
<text text-anchor="start" x="169.5" y="-194.5" font-family="Helvetica,sans-Serif" font-size="10.00">+ ~BlockTree()</text>
<text text-anchor="start" x="169.5" y="-183.5" font-family="Helvetica,sans-Serif" font-size="10.00">+ BlockTree()</text>
<text text-anchor="start" x="169.5" y="-172.5" font-family="Helvetica,sans-Serif" font-size="10.00">+ getParams()</text>
<text text-anchor="start" x="169.5" y="-161.5" font-family="Helvetica,sans-Serif" font-size="10.00">+ bootstrapWithGenesis()</text>
<text text-anchor="start" x="169.5" y="-150.5" font-family="Helvetica,sans-Serif" font-size="10.00">+ bootstrapWithChain()</text>
<text text-anchor="start" x="169.5" y="-139.5" font-family="Helvetica,sans-Serif" font-size="10.00">+ acceptBlockHeader()</text>
<text text-anchor="start" x="169.5" y="-128.5" font-family="Helvetica,sans-Serif" font-size="10.00">+ acceptBlockHeader()</text>
<text text-anchor="start" x="169.5" y="-117.5" font-family="Helvetica,sans-Serif" font-size="10.00">+ toPrettyString()</text>
<text text-anchor="start" x="169.5" y="-106.5" font-family="Helvetica,sans-Serif" font-size="10.00">+ loadBlock()</text>
<text text-anchor="start" x="169.5" y="-95.5" font-family="Helvetica,sans-Serif" font-size="10.00">+ isBlockOld()</text>
<text text-anchor="start" x="169.5" y="-84.5" font-family="Helvetica,sans-Serif" font-size="10.00">+ isBlockOld()</text>
<text text-anchor="start" x="169.5" y="-73.5" font-family="Helvetica,sans-Serif" font-size="10.00">+ finalizeBlock()</text>
<text text-anchor="start" x="169.5" y="-62.5" font-family="Helvetica,sans-Serif" font-size="10.00"># acceptBlockHeaderImpl()</text>
<text text-anchor="start" x="169.5" y="-51.5" font-family="Helvetica,sans-Serif" font-size="10.00"># bootstrap()</text>
<text text-anchor="start" x="169.5" y="-40.5" font-family="Helvetica,sans-Serif" font-size="10.00"># bootstrap()</text>
<text text-anchor="start" x="169.5" y="-29.5" font-family="Helvetica,sans-Serif" font-size="10.00"># validateAndAddBlock()</text>
<text text-anchor="start" x="169.5" y="-18.5" font-family="Helvetica,sans-Serif" font-size="10.00"># determineBestChain()</text>
<text text-anchor="start" x="169.5" y="-7.5" font-family="Helvetica,sans-Serif" font-size="10.00"># onBlockInserted()</text>
</a>
</g>
</g>
<!-- Node2 -->
<g id="node2" class="node">
<title>Node2</title>
<g id="a_node2"><a xlink:href="structaltintegration_1_1BaseBlockTree.html" target="_top" xlink:title="Base block tree that stores all blocks, maintains tree tips, maintains active chain.">
<polygon fill="white" stroke="black" points="166.5,-293.5 166.5,-482.5 290.5,-482.5 290.5,-293.5 166.5,-293.5"/>
<text text-anchor="start" x="174.5" y="-470.5" font-family="Helvetica,sans-Serif" font-size="10.00">altintegration::BaseBlock</text>
<text text-anchor="middle" x="228.5" y="-459.5" font-family="Helvetica,sans-Serif" font-size="10.00">Tree&lt; Block &gt;</text>
<polyline fill="none" stroke="black" points="166.5,-452.5 290.5,-452.5 "/>
<text text-anchor="start" x="174.5" y="-440.5" font-family="Helvetica,sans-Serif" font-size="10.00"># validity_sig_</text>
<polyline fill="none" stroke="black" points="166.5,-433.5 290.5,-433.5 "/>
<text text-anchor="start" x="174.5" y="-421.5" font-family="Helvetica,sans-Serif" font-size="10.00">+ getTips()</text>
<text text-anchor="start" x="174.5" y="-410.5" font-family="Helvetica,sans-Serif" font-size="10.00">+ getBlocks()</text>
<text text-anchor="start" x="174.5" y="-399.5" font-family="Helvetica,sans-Serif" font-size="10.00">+ ~BaseBlockTree()</text>
<text text-anchor="start" x="174.5" y="-388.5" font-family="Helvetica,sans-Serif" font-size="10.00">+ BaseBlockTree()</text>
<text text-anchor="start" x="174.5" y="-377.5" font-family="Helvetica,sans-Serif" font-size="10.00">+ BaseBlockTree()</text>
<text text-anchor="start" x="174.5" y="-366.5" font-family="Helvetica,sans-Serif" font-size="10.00">+ operator=()</text>
<text text-anchor="start" x="174.5" y="-355.5" font-family="Helvetica,sans-Serif" font-size="10.00">+ BaseBlockTree()</text>
<text text-anchor="start" x="174.5" y="-344.5" font-family="Helvetica,sans-Serif" font-size="10.00">+ operator=()</text>
<text text-anchor="start" x="174.5" y="-333.5" font-family="Helvetica,sans-Serif" font-size="10.00">+ getBestChain()</text>
<text text-anchor="start" x="174.5" y="-322.5" font-family="Helvetica,sans-Serif" font-size="10.00">+ makePrevHash()</text>
<text text-anchor="start" x="174.5" y="-311.5" font-family="Helvetica,sans-Serif" font-size="10.00">and 20 more...</text>
<text text-anchor="start" x="174.5" y="-300.5" font-family="Helvetica,sans-Serif" font-size="10.00"># toPrettyString()</text>
</a>
</g>
</g>
<!-- Node2&#45;&gt;Node1 -->
<g id="edge1" class="edge">
<title>Node2&#45;&gt;Node1</title>
<path fill="none" stroke="midnightblue" d="M228.5,-283.34C228.5,-274.28 228.5,-265.04 228.5,-255.82"/>
<polygon fill="none" stroke="midnightblue" points="225,-283.49 228.5,-293.49 232,-283.49 225,-283.49"/>
</g>
<!-- Node3 -->
<g id="node3" class="node">
<title>Node3</title>
<g id="a_node3"><a xlink:href="structaltintegration_1_1Chain.html" target="_top" xlink:title=" ">
<polygon fill="white" stroke="black" points="0,-541.5 0,-719.5 141,-719.5 141,-541.5 0,-541.5"/>
<text text-anchor="start" x="8" y="-707.5" font-family="Helvetica,sans-Serif" font-size="10.00">altintegration::Chain</text>
<text text-anchor="middle" x="70.5" y="-696.5" font-family="Helvetica,sans-Serif" font-size="10.00">&lt; altintegration::BlockIndex &gt;</text>
<polyline fill="none" stroke="black" points="0,-689.5 141,-689.5 "/>
<text text-anchor="middle" x="70.5" y="-677.5" font-family="Helvetica,sans-Serif" font-size="10.00"> </text>
<polyline fill="none" stroke="black" points="0,-670.5 141,-670.5 "/>
<text text-anchor="start" x="8" y="-658.5" font-family="Helvetica,sans-Serif" font-size="10.00">+ Chain()</text>
<text text-anchor="start" x="8" y="-647.5" font-family="Helvetica,sans-Serif" font-size="10.00">+ Chain()</text>
<text text-anchor="start" x="8" y="-636.5" font-family="Helvetica,sans-Serif" font-size="10.00">+ Chain()</text>
<text text-anchor="start" x="8" y="-625.5" font-family="Helvetica,sans-Serif" font-size="10.00">+ getStartHeight()</text>
<text text-anchor="start" x="8" y="-614.5" font-family="Helvetica,sans-Serif" font-size="10.00">+ firstHeight()</text>
<text text-anchor="start" x="8" y="-603.5" font-family="Helvetica,sans-Serif" font-size="10.00">+ contains()</text>
<text text-anchor="start" x="8" y="-592.5" font-family="Helvetica,sans-Serif" font-size="10.00">+ operator[]()</text>
<text text-anchor="start" x="8" y="-581.5" font-family="Helvetica,sans-Serif" font-size="10.00">+ next()</text>
<text text-anchor="start" x="8" y="-570.5" font-family="Helvetica,sans-Serif" font-size="10.00">+ chainHeight()</text>
<text text-anchor="start" x="8" y="-559.5" font-family="Helvetica,sans-Serif" font-size="10.00">+ empty()</text>
<text text-anchor="start" x="8" y="-548.5" font-family="Helvetica,sans-Serif" font-size="10.00">and 14 more...</text>
</a>
</g>
</g>
<!-- Node3&#45;&gt;Node2 -->
<g id="edge2" class="edge">
<title>Node3&#45;&gt;Node2</title>
<path fill="none" stroke="#404040" d="M128.44,-541.31C138.7,-525.7 149.47,-509.3 159.98,-493.29"/>
<polygon fill="none" stroke="#404040" points="160.26,-492.87 160.21,-485.66 166.85,-482.84 166.9,-490.05 160.26,-492.87"/>
<text text-anchor="middle" x="186.5" y="-509.5" font-family="Helvetica,sans-Serif" font-size="10.00"> #activeChain_</text>
</g>
<!-- Node4 -->
<g id="node4" class="node">
<title>Node4</title>
<g id="a_node4"><a xlink:href="structaltintegration_1_1Chain.html" target="_top" xlink:title="Fully in&#45;memory chain representation.">
<polygon fill="white" stroke="black" points="19,-795 19,-973 120,-973 120,-795 19,-795"/>
<text text-anchor="start" x="27" y="-961" font-family="Helvetica,sans-Serif" font-size="10.00">altintegration::Chain</text>
<text text-anchor="middle" x="69.5" y="-950" font-family="Helvetica,sans-Serif" font-size="10.00">&lt; BlockIndexT &gt;</text>
<polyline fill="none" stroke="black" points="19,-943 120,-943 "/>
<text text-anchor="middle" x="69.5" y="-931" font-family="Helvetica,sans-Serif" font-size="10.00"> </text>
<polyline fill="none" stroke="black" points="19,-924 120,-924 "/>
<text text-anchor="start" x="27" y="-912" font-family="Helvetica,sans-Serif" font-size="10.00">+ Chain()</text>
<text text-anchor="start" x="27" y="-901" font-family="Helvetica,sans-Serif" font-size="10.00">+ Chain()</text>
<text text-anchor="start" x="27" y="-890" font-family="Helvetica,sans-Serif" font-size="10.00">+ Chain()</text>
<text text-anchor="start" x="27" y="-879" font-family="Helvetica,sans-Serif" font-size="10.00">+ getStartHeight()</text>
<text text-anchor="start" x="27" y="-868" font-family="Helvetica,sans-Serif" font-size="10.00">+ firstHeight()</text>
<text text-anchor="start" x="27" y="-857" font-family="Helvetica,sans-Serif" font-size="10.00">+ contains()</text>
<text text-anchor="start" x="27" y="-846" font-family="Helvetica,sans-Serif" font-size="10.00">+ operator[]()</text>
<text text-anchor="start" x="27" y="-835" font-family="Helvetica,sans-Serif" font-size="10.00">+ next()</text>
<text text-anchor="start" x="27" y="-824" font-family="Helvetica,sans-Serif" font-size="10.00">+ chainHeight()</text>
<text text-anchor="start" x="27" y="-813" font-family="Helvetica,sans-Serif" font-size="10.00">+ empty()</text>
<text text-anchor="start" x="27" y="-802" font-family="Helvetica,sans-Serif" font-size="10.00">and 14 more...</text>
</a>
</g>
</g>
<!-- Node4&#45;&gt;Node3 -->
<g id="edge3" class="edge">
<title>Node4&#45;&gt;Node3</title>
<path fill="none" stroke="orange" d="M69.89,-784.59C69.98,-763.16 70.07,-740.61 70.15,-719.6"/>
<polygon fill="orange" stroke="orange" points="66.39,-784.67 69.85,-794.68 73.39,-784.7 66.39,-784.67"/>
<text text-anchor="middle" x="134" y="-746.5" font-family="Helvetica,sans-Serif" font-size="10.00"> &lt; altintegration::BlockIndex &gt;</text>
</g>
<!-- Node5 -->
<g id="node5" class="node">
<title>Node5</title>
<g id="a_node5"><a xlink:title=" ">
<polygon fill="white" stroke="#bfbfbf" points="160,-591 160,-670 297,-670 297,-591 160,-591"/>
<text text-anchor="start" x="168" y="-658" font-family="Helvetica,sans-Serif" font-size="10.00">std::unordered_map</text>
<text text-anchor="start" x="168" y="-647" font-family="Helvetica,sans-Serif" font-size="10.00">&lt; prev_block_hash_t,</text>
<text text-anchor="middle" x="228.5" y="-636" font-family="Helvetica,sans-Serif" font-size="10.00"> std::unique_ptr&lt; index_t &gt; &gt;</text>
<polyline fill="none" stroke="#bfbfbf" points="160,-629 297,-629 "/>
<text text-anchor="start" x="168" y="-617" font-family="Helvetica,sans-Serif" font-size="10.00">+ keys</text>
<polyline fill="none" stroke="#bfbfbf" points="160,-610 297,-610 "/>
<text text-anchor="middle" x="228.5" y="-598" font-family="Helvetica,sans-Serif" font-size="10.00"> </text>
</a>
</g>
</g>
<!-- Node5&#45;&gt;Node2 -->
<g id="edge4" class="edge">
<title>Node5&#45;&gt;Node2</title>
<path fill="none" stroke="#404040" d="M228.5,-590.86C228.5,-564.73 228.5,-528.86 228.5,-494.61"/>
<polygon fill="none" stroke="#404040" points="228.5,-494.58 224.5,-488.58 228.5,-482.58 232.5,-488.58 228.5,-494.58"/>
<text text-anchor="middle" x="253" y="-515" font-family="Helvetica,sans-Serif" font-size="10.00"> #blocks_</text>
<text text-anchor="middle" x="253" y="-504" font-family="Helvetica,sans-Serif" font-size="10.00">#removed_</text>
</g>
<!-- Node6 -->
<g id="node6" class="node">
<title>Node6</title>
<g id="a_node6"><a xlink:title=" ">
<polygon fill="white" stroke="#bfbfbf" points="168,-1008.5 168,-1065.5 295,-1065.5 295,-1008.5 168,-1008.5"/>
<text text-anchor="middle" x="231.5" y="-1053.5" font-family="Helvetica,sans-Serif" font-size="10.00">std::unique_ptr&lt; index_t &gt;</text>
<polyline fill="none" stroke="#bfbfbf" points="168,-1046.5 295,-1046.5 "/>
<text text-anchor="start" x="176" y="-1034.5" font-family="Helvetica,sans-Serif" font-size="10.00">+ ptr</text>
<polyline fill="none" stroke="#bfbfbf" points="168,-1027.5 295,-1027.5 "/>
<text text-anchor="start" x="176" y="-1015.5" font-family="Helvetica,sans-Serif" font-size="10.00">+ operator&#45;&gt;()</text>
</a>
</g>
</g>
<!-- Node6&#45;&gt;Node5 -->
<g id="edge5" class="edge">
<title>Node6&#45;&gt;Node5</title>
<path fill="none" stroke="#404040" d="M223.8,-1008.46C222.43,-1002.42 221.21,-996.03 220.5,-990 207.65,-881.01 216.29,-752.14 222.92,-682.44"/>
<polygon fill="none" stroke="#404040" points="222.95,-682.07 219.56,-675.71 224.13,-670.13 227.52,-676.49 222.95,-682.07"/>
<text text-anchor="middle" x="245" y="-881.5" font-family="Helvetica,sans-Serif" font-size="10.00"> +elements</text>
</g>
<!-- Node7 -->
<g id="node7" class="node">
<title>Node7</title>
<g id="a_node7"><a xlink:title=" ">
<polygon fill="white" stroke="#bfbfbf" points="197.5,-1160.5 197.5,-1217.5 299.5,-1217.5 299.5,-1160.5 197.5,-1160.5"/>
<text text-anchor="middle" x="248.5" y="-1205.5" font-family="Helvetica,sans-Serif" font-size="10.00">std::unique_ptr&lt; T &gt;</text>
<polyline fill="none" stroke="#bfbfbf" points="197.5,-1198.5 299.5,-1198.5 "/>
<text text-anchor="middle" x="248.5" y="-1186.5" font-family="Helvetica,sans-Serif" font-size="10.00"> </text>
<polyline fill="none" stroke="#bfbfbf" points="197.5,-1179.5 299.5,-1179.5 "/>
<text text-anchor="start" x="205.5" y="-1167.5" font-family="Helvetica,sans-Serif" font-size="10.00">+ operator&#45;&gt;()</text>
</a>
</g>
</g>
<!-- Node7&#45;&gt;Node6 -->
<g id="edge6" class="edge">
<title>Node7&#45;&gt;Node6</title>
<path fill="none" stroke="orange" d="M244.25,-1150.47C241.26,-1124.11 237.33,-1089.43 234.63,-1065.59"/>
<polygon fill="orange" stroke="orange" points="240.78,-1150.95 245.38,-1160.49 247.73,-1150.16 240.78,-1150.95"/>
<text text-anchor="middle" x="268.5" y="-1110.5" font-family="Helvetica,sans-Serif" font-size="10.00"> &lt; index_t &gt;</text>
</g>
<!-- Node8 -->
<g id="node8" class="node">
<title>Node8</title>
<g id="a_node8"><a xlink:title=" ">
<polygon fill="white" stroke="#bfbfbf" points="315,-1341.5 315,-1398.5 344,-1398.5 344,-1341.5 315,-1341.5"/>
<text text-anchor="middle" x="329.5" y="-1386.5" font-family="Helvetica,sans-Serif" font-size="10.00">T</text>
<polyline fill="none" stroke="#bfbfbf" points="315,-1379.5 344,-1379.5 "/>
<text text-anchor="middle" x="329.5" y="-1367.5" font-family="Helvetica,sans-Serif" font-size="10.00"> </text>
<polyline fill="none" stroke="#bfbfbf" points="315,-1360.5 344,-1360.5 "/>
<text text-anchor="middle" x="329.5" y="-1348.5" font-family="Helvetica,sans-Serif" font-size="10.00"> </text>
</a>
</g>
</g>
<!-- Node8&#45;&gt;Node7 -->
<g id="edge7" class="edge">
<title>Node8&#45;&gt;Node7</title>
<path fill="none" stroke="#404040" d="M314.96,-1351.9C308.39,-1343.57 300.9,-1333.17 295.5,-1323 279.62,-1293.08 267.18,-1256.67 259.09,-1229.51"/>
<polygon fill="none" stroke="#404040" points="259.02,-1229.27 253.52,-1224.62 255.69,-1217.74 261.2,-1222.39 259.02,-1229.27"/>
<text text-anchor="middle" x="305.5" y="-1315" font-family="Helvetica,sans-Serif" font-size="10.00"> +ptr</text>
</g>
<!-- Node9 -->
<g id="node9" class="node">
<title>Node9</title>
<g id="a_node9"><a xlink:title=" ">
<polygon fill="white" stroke="#bfbfbf" points="279,-850 279,-918 380,-918 380,-850 279,-850"/>
<text text-anchor="start" x="287" y="-906" font-family="Helvetica,sans-Serif" font-size="10.00">std::unordered_map</text>
<text text-anchor="middle" x="329.5" y="-895" font-family="Helvetica,sans-Serif" font-size="10.00">&lt; K, T &gt;</text>
<polyline fill="none" stroke="#bfbfbf" points="279,-888 380,-888 "/>
<text text-anchor="middle" x="329.5" y="-876" font-family="Helvetica,sans-Serif" font-size="10.00"> </text>
<polyline fill="none" stroke="#bfbfbf" points="279,-869 380,-869 "/>
<text text-anchor="middle" x="329.5" y="-857" font-family="Helvetica,sans-Serif" font-size="10.00"> </text>
</a>
</g>
</g>
<!-- Node8&#45;&gt;Node9 -->
<g id="edge10" class="edge">
<title>Node8&#45;&gt;Node9</title>
<path fill="none" stroke="#404040" d="M329.5,-1341.24C329.5,-1261.19 329.5,-1029.33 329.5,-930.5"/>
<polygon fill="none" stroke="#404040" points="329.5,-930.29 325.5,-924.29 329.5,-918.29 333.5,-924.29 329.5,-930.29"/>
<text text-anchor="middle" x="354" y="-1186.5" font-family="Helvetica,sans-Serif" font-size="10.00"> +elements</text>
</g>
<!-- Node15 -->
<g id="node15" class="node">
<title>Node15</title>
<g id="a_node15"><a xlink:title=" ">
<polygon fill="white" stroke="#bfbfbf" points="394,-1236.5 394,-1293.5 497,-1293.5 497,-1236.5 394,-1236.5"/>
<text text-anchor="middle" x="445.5" y="-1281.5" font-family="Helvetica,sans-Serif" font-size="10.00">std::shared_ptr&lt; T &gt;</text>
<polyline fill="none" stroke="#bfbfbf" points="394,-1274.5 497,-1274.5 "/>
<text text-anchor="middle" x="445.5" y="-1262.5" font-family="Helvetica,sans-Serif" font-size="10.00"> </text>
<polyline fill="none" stroke="#bfbfbf" points="394,-1255.5 497,-1255.5 "/>
<text text-anchor="start" x="402" y="-1243.5" font-family="Helvetica,sans-Serif" font-size="10.00">+ operator&#45;&gt;()</text>
</a>
</g>
</g>
<!-- Node8&#45;&gt;Node15 -->
<g id="edge16" class="edge">
<title>Node8&#45;&gt;Node15</title>
<path fill="none" stroke="#404040" d="M344.19,-1355.95C359.49,-1342.37 384.12,-1320.51 405.26,-1301.73"/>
<polygon fill="none" stroke="#404040" points="405.4,-1301.6 407.23,-1294.63 414.38,-1293.64 412.55,-1300.61 405.4,-1301.6"/>
<text text-anchor="middle" x="401.5" y="-1315" font-family="Helvetica,sans-Serif" font-size="10.00"> +ptr</text>
</g>
<!-- Node9&#45;&gt;Node5 -->
<g id="edge8" class="edge">
<title>Node9&#45;&gt;Node5</title>
<path fill="none" stroke="orange" d="M302.36,-841.21C288.27,-818.03 271.71,-788.25 260.5,-760 248.89,-730.72 240.54,-695.98 235.29,-670.01"/>
<polygon fill="orange" stroke="orange" points="299.4,-843.07 307.62,-849.75 305.36,-839.4 299.4,-843.07"/>
<text text-anchor="start" x="260.5" y="-752" font-family="Helvetica,sans-Serif" font-size="10.00"> &lt; prev_block_hash_t,</text>
<text text-anchor="middle" x="321" y="-741" font-family="Helvetica,sans-Serif" font-size="10.00"> std::unique_ptr&lt; index_t &gt; &gt;</text>
</g>
<!-- Node10 -->
<g id="node10" class="node">
<title>Node10</title>
<g id="a_node10"><a xlink:title=" ">
<polygon fill="white" stroke="#bfbfbf" points="443,-1084.5 443,-1141.5 472,-1141.5 472,-1084.5 443,-1084.5"/>
<text text-anchor="middle" x="457.5" y="-1129.5" font-family="Helvetica,sans-Serif" font-size="10.00">K</text>
<polyline fill="none" stroke="#bfbfbf" points="443,-1122.5 472,-1122.5 "/>
<text text-anchor="middle" x="457.5" y="-1110.5" font-family="Helvetica,sans-Serif" font-size="10.00"> </text>
<polyline fill="none" stroke="#bfbfbf" points="443,-1103.5 472,-1103.5 "/>
<text text-anchor="middle" x="457.5" y="-1091.5" font-family="Helvetica,sans-Serif" font-size="10.00"> </text>
</a>
</g>
</g>
<!-- Node10&#45;&gt;Node9 -->
<g id="edge9" class="edge">
<title>Node10&#45;&gt;Node9</title>
<path fill="none" stroke="#404040" d="M442.75,-1092.71C436.82,-1084.63 430.07,-1075.03 424.5,-1066 396.55,-1020.7 368.74,-966.35 350.5,-929.11"/>
<polygon fill="none" stroke="#404040" points="350.41,-928.92 344.19,-925.27 345.16,-918.13 351.38,-921.77 350.41,-928.92"/>
<text text-anchor="middle" x="439" y="-1034.5" font-family="Helvetica,sans-Serif" font-size="10.00"> +keys</text>
</g>
<!-- Node17 -->
<g id="node17" class="node">
<title>Node17</title>
<g id="a_node17"><a xlink:title=" ">
<polygon fill="white" stroke="#bfbfbf" points="548,-855.5 548,-912.5 619,-912.5 619,-855.5 548,-855.5"/>
<text text-anchor="middle" x="583.5" y="-900.5" font-family="Helvetica,sans-Serif" font-size="10.00">std::set&lt; K &gt;</text>
<polyline fill="none" stroke="#bfbfbf" points="548,-893.5 619,-893.5 "/>
<text text-anchor="middle" x="583.5" y="-881.5" font-family="Helvetica,sans-Serif" font-size="10.00"> </text>
<polyline fill="none" stroke="#bfbfbf" points="548,-874.5 619,-874.5 "/>
<text text-anchor="middle" x="583.5" y="-862.5" font-family="Helvetica,sans-Serif" font-size="10.00"> </text>
</a>
</g>
</g>
<!-- Node10&#45;&gt;Node17 -->
<g id="edge21" class="edge">
<title>Node10&#45;&gt;Node17</title>
<path fill="none" stroke="#404040" d="M472.29,-1092.74C478.23,-1084.66 484.97,-1075.06 490.5,-1066 519.55,-1018.46 548.09,-960.81 565.74,-923.55"/>
<polygon fill="none" stroke="#404040" points="565.75,-923.53 564.68,-916.4 570.85,-912.67 571.92,-919.8 565.75,-923.53"/>
<text text-anchor="middle" x="535" y="-1034.5" font-family="Helvetica,sans-Serif" font-size="10.00"> +keys</text>
</g>
<!-- Node18 -->
<g id="node18" class="node">
<title>Node18</title>
<g id="a_node18"><a xlink:title=" ">
<polygon fill="white" stroke="#bfbfbf" points="398,-855.5 398,-912.5 517,-912.5 517,-855.5 398,-855.5"/>
<text text-anchor="middle" x="457.5" y="-900.5" font-family="Helvetica,sans-Serif" font-size="10.00">std::unordered_set&lt; K &gt;</text>
<polyline fill="none" stroke="#bfbfbf" points="398,-893.5 517,-893.5 "/>
<text text-anchor="middle" x="457.5" y="-881.5" font-family="Helvetica,sans-Serif" font-size="10.00"> </text>
<polyline fill="none" stroke="#bfbfbf" points="398,-874.5 517,-874.5 "/>
<text text-anchor="middle" x="457.5" y="-862.5" font-family="Helvetica,sans-Serif" font-size="10.00"> </text>
</a>
</g>
</g>
<!-- Node10&#45;&gt;Node18 -->
<g id="edge23" class="edge">
<title>Node10&#45;&gt;Node18</title>
<path fill="none" stroke="#404040" d="M457.5,-1084.17C457.5,-1044.23 457.5,-970.48 457.5,-924.8"/>
<polygon fill="none" stroke="#404040" points="457.5,-924.71 453.5,-918.71 457.5,-912.71 461.5,-918.71 457.5,-924.71"/>
<text text-anchor="middle" x="472" y="-1034.5" font-family="Helvetica,sans-Serif" font-size="10.00"> +keys</text>
</g>
<!-- Node11 -->
<g id="node11" class="node">
<title>Node11</title>
<g id="a_node11"><a xlink:title=" ">
<polygon fill="white" stroke="#bfbfbf" points="315,-596.5 315,-664.5 462,-664.5 462,-596.5 315,-596.5"/>
<text text-anchor="start" x="323" y="-652.5" font-family="Helvetica,sans-Serif" font-size="10.00">std::unordered_set</text>
<text text-anchor="middle" x="388.5" y="-641.5" font-family="Helvetica,sans-Serif" font-size="10.00">&lt; altintegration::BlockIndex * &gt;</text>
<polyline fill="none" stroke="#bfbfbf" points="315,-634.5 462,-634.5 "/>
<text text-anchor="middle" x="388.5" y="-622.5" font-family="Helvetica,sans-Serif" font-size="10.00"> </text>
<polyline fill="none" stroke="#bfbfbf" points="315,-615.5 462,-615.5 "/>
<text text-anchor="middle" x="388.5" y="-603.5" font-family="Helvetica,sans-Serif" font-size="10.00"> </text>
</a>
</g>
</g>
<!-- Node11&#45;&gt;Node2 -->
<g id="edge11" class="edge">
<title>Node11&#45;&gt;Node2</title>
<path fill="none" stroke="#404040" d="M366.42,-596.31C348.52,-569.4 322.27,-529.94 297.46,-492.66"/>
<polygon fill="none" stroke="#404040" points="297.16,-492.2 290.51,-489.42 290.51,-482.21 297.17,-484.99 297.16,-492.2"/>
<text text-anchor="middle" x="328" y="-509.5" font-family="Helvetica,sans-Serif" font-size="10.00"> #tips_</text>
</g>
<!-- Node12 -->
<g id="node12" class="node">
<title>Node12</title>
<g id="a_node12"><a xlink:href="structaltintegration_1_1BlockIndex.html" target="_top" xlink:title="A node in a block tree.">
<polygon fill="white" stroke="black" points="663,-778.5 663,-989.5 788,-989.5 788,-778.5 663,-778.5"/>
<text text-anchor="start" x="671" y="-977.5" font-family="Helvetica,sans-Serif" font-size="10.00">altintegration::BlockIndex</text>
<text text-anchor="middle" x="725.5" y="-966.5" font-family="Helvetica,sans-Serif" font-size="10.00">&lt; Block &gt;</text>
<polyline fill="none" stroke="black" points="663,-959.5 788,-959.5 "/>
<text text-anchor="start" x="671" y="-947.5" font-family="Helvetica,sans-Serif" font-size="10.00">+ finalized</text>
<text text-anchor="start" x="671" y="-936.5" font-family="Helvetica,sans-Serif" font-size="10.00"># height</text>
<text text-anchor="start" x="671" y="-925.5" font-family="Helvetica,sans-Serif" font-size="10.00"># status</text>
<text text-anchor="start" x="671" y="-914.5" font-family="Helvetica,sans-Serif" font-size="10.00"># dirty</text>
<polyline fill="none" stroke="black" points="663,-907.5 788,-907.5 "/>
<text text-anchor="start" x="671" y="-895.5" font-family="Helvetica,sans-Serif" font-size="10.00">+ BlockIndex()</text>
<text text-anchor="start" x="671" y="-884.5" font-family="Helvetica,sans-Serif" font-size="10.00">+ ~BlockIndex()</text>
<text text-anchor="start" x="671" y="-873.5" font-family="Helvetica,sans-Serif" font-size="10.00">+ BlockIndex()</text>
<text text-anchor="start" x="671" y="-862.5" font-family="Helvetica,sans-Serif" font-size="10.00">+ operator=()</text>
<text text-anchor="start" x="671" y="-851.5" font-family="Helvetica,sans-Serif" font-size="10.00">+ mergeFrom()</text>
<text text-anchor="start" x="671" y="-840.5" font-family="Helvetica,sans-Serif" font-size="10.00">+ toStoredBlockIndex()</text>
<text text-anchor="start" x="671" y="-829.5" font-family="Helvetica,sans-Serif" font-size="10.00">+ isConnected()</text>
<text text-anchor="start" x="671" y="-818.5" font-family="Helvetica,sans-Serif" font-size="10.00">+ getStatus()</text>
<text text-anchor="start" x="671" y="-807.5" font-family="Helvetica,sans-Serif" font-size="10.00">+ setStatus()</text>
<text text-anchor="start" x="671" y="-796.5" font-family="Helvetica,sans-Serif" font-size="10.00">+ getValidityLevel()</text>
<text text-anchor="start" x="671" y="-785.5" font-family="Helvetica,sans-Serif" font-size="10.00">and 33 more...</text>
</a>
</g>
</g>
<!-- Node12&#45;&gt;Node11 -->
<g id="edge12" class="edge">
<title>Node12&#45;&gt;Node11</title>
<path fill="none" stroke="#404040" d="M662.82,-804.41C652.21,-794.45 640.66,-785.23 628.5,-778 600.52,-761.36 586.82,-774.14 557.5,-760 532.37,-747.89 477.88,-705.17 437.53,-672.28"/>
<polygon fill="none" stroke="#404040" points="437.4,-672.18 430.23,-671.48 428.12,-664.58 435.29,-665.29 437.4,-672.18"/>
<text text-anchor="middle" x="572" y="-746.5" font-family="Helvetica,sans-Serif" font-size="10.00"> +keys</text>
</g>
<!-- Node12&#45;&gt;Node12 -->
<g id="edge17" class="edge">
<title>Node12&#45;&gt;Node12</title>
<path fill="none" stroke="#404040" d="M788.28,-907.35C798.76,-904.08 806,-896.3 806,-884 806,-876.5 803.31,-870.69 798.84,-866.54"/>
<polygon fill="none" stroke="#404040" points="798.76,-866.5 791.57,-867.06 788.28,-860.65 795.47,-860.08 798.76,-866.5"/>
<text text-anchor="middle" x="822.5" y="-881.5" font-family="Helvetica,sans-Serif" font-size="10.00"> +pprev</text>
</g>
<!-- Node16 -->
<g id="node16" class="node">
<title>Node16</title>
<g id="a_node16"><a xlink:title=" ">
<polygon fill="white" stroke="#bfbfbf" points="696.5,-596.5 696.5,-664.5 808.5,-664.5 808.5,-596.5 696.5,-596.5"/>
<text text-anchor="start" x="704.5" y="-652.5" font-family="Helvetica,sans-Serif" font-size="10.00">std::set&lt; altintegration</text>
<text text-anchor="middle" x="752.5" y="-641.5" font-family="Helvetica,sans-Serif" font-size="10.00">::BlockIndex * &gt;</text>
<polyline fill="none" stroke="#bfbfbf" points="696.5,-634.5 808.5,-634.5 "/>
<text text-anchor="middle" x="752.5" y="-622.5" font-family="Helvetica,sans-Serif" font-size="10.00"> </text>
<polyline fill="none" stroke="#bfbfbf" points="696.5,-615.5 808.5,-615.5 "/>
<text text-anchor="middle" x="752.5" y="-603.5" font-family="Helvetica,sans-Serif" font-size="10.00"> </text>
</a>
</g>
</g>
<!-- Node12&#45;&gt;Node16 -->
<g id="edge19" class="edge">
<title>Node12&#45;&gt;Node16</title>
<path fill="none" stroke="#404040" d="M736.75,-778.16C740.54,-742.86 744.58,-705.3 747.61,-677.03"/>
<polygon fill="none" stroke="#404040" points="747.65,-676.67 744.31,-670.27 748.93,-664.74 752.27,-671.13 747.65,-676.67"/>
<text text-anchor="middle" x="755" y="-746.5" font-family="Helvetica,sans-Serif" font-size="10.00"> +keys</text>
</g>
<!-- Node13 -->
<g id="node13" class="node">
<title>Node13</title>
<g id="a_node13"><a xlink:title=" ">
<polygon fill="white" stroke="#bfbfbf" points="685.5,-1084.5 685.5,-1141.5 765.5,-1141.5 765.5,-1084.5 685.5,-1084.5"/>
<text text-anchor="middle" x="725.5" y="-1129.5" font-family="Helvetica,sans-Serif" font-size="10.00">Block::addon_t</text>
<polyline fill="none" stroke="#bfbfbf" points="685.5,-1122.5 765.5,-1122.5 "/>
<text text-anchor="middle" x="725.5" y="-1110.5" font-family="Helvetica,sans-Serif" font-size="10.00"> </text>
<polyline fill="none" stroke="#bfbfbf" points="685.5,-1103.5 765.5,-1103.5 "/>
<text text-anchor="middle" x="725.5" y="-1091.5" font-family="Helvetica,sans-Serif" font-size="10.00"> </text>
</a>
</g>
</g>
<!-- Node13&#45;&gt;Node12 -->
<g id="edge13" class="edge">
<title>Node13&#45;&gt;Node12</title>
<path fill="none" stroke="midnightblue" d="M725.5,-1074.05C725.5,-1050.79 725.5,-1019.76 725.5,-989.58"/>
<polygon fill="none" stroke="midnightblue" points="722,-1074.17 725.5,-1084.17 729,-1074.17 722,-1074.17"/>
</g>
<!-- Node14 -->
<g id="node14" class="node">
<title>Node14</title>
<g id="a_node14"><a xlink:title=" ">
<polygon fill="white" stroke="#bfbfbf" points="515.5,-1084.5 515.5,-1141.5 643.5,-1141.5 643.5,-1084.5 515.5,-1084.5"/>
<text text-anchor="middle" x="579.5" y="-1129.5" font-family="Helvetica,sans-Serif" font-size="10.00">std::shared_ptr&lt; block_t &gt;</text>
<polyline fill="none" stroke="#bfbfbf" points="515.5,-1122.5 643.5,-1122.5 "/>
<text text-anchor="start" x="523.5" y="-1110.5" font-family="Helvetica,sans-Serif" font-size="10.00">+ ptr</text>
<polyline fill="none" stroke="#bfbfbf" points="515.5,-1103.5 643.5,-1103.5 "/>
<text text-anchor="start" x="523.5" y="-1091.5" font-family="Helvetica,sans-Serif" font-size="10.00">+ operator&#45;&gt;()</text>
</a>
</g>
</g>
<!-- Node14&#45;&gt;Node12 -->
<g id="edge14" class="edge">
<title>Node14&#45;&gt;Node12</title>
<path fill="none" stroke="#404040" d="M597.4,-1084.17C612.27,-1061.04 634.44,-1026.58 656.17,-992.8"/>
<polygon fill="none" stroke="#404040" points="656.4,-992.44 656.28,-985.23 662.89,-982.35 663.01,-989.56 656.4,-992.44"/>
<text text-anchor="middle" x="662" y="-1034.5" font-family="Helvetica,sans-Serif" font-size="10.00"> #header</text>
</g>
<!-- Node15&#45;&gt;Node14 -->
<g id="edge15" class="edge">
<title>Node15&#45;&gt;Node14</title>
<path fill="none" stroke="orange" d="M476.86,-1228.9C500.65,-1202.27 532.89,-1166.17 554.85,-1141.59"/>
<polygon fill="orange" stroke="orange" points="474.13,-1226.7 470.08,-1236.49 479.35,-1231.36 474.13,-1226.7"/>
<text text-anchor="middle" x="561" y="-1186.5" font-family="Helvetica,sans-Serif" font-size="10.00"> &lt; block_t &gt;</text>
</g>
<!-- Node16&#45;&gt;Node12 -->
<g id="edge18" class="edge">
<title>Node16&#45;&gt;Node12</title>
<path fill="none" stroke="#404040" d="M768.56,-664.73C779.08,-690.64 789.65,-727.56 782.5,-760 782.02,-762.19 781.49,-764.39 780.93,-766.59"/>
<polygon fill="none" stroke="#404040" points="780.86,-766.83 783.05,-773.7 777.56,-778.37 775.36,-771.5 780.86,-766.83"/>
<text text-anchor="middle" x="800.5" y="-746.5" font-family="Helvetica,sans-Serif" font-size="10.00"> +pnext</text>
</g>
<!-- Node17&#45;&gt;Node16 -->
<g id="edge20" class="edge">
<title>Node17&#45;&gt;Node16</title>
<path fill="none" stroke="orange" d="M580.11,-844.85C579.18,-813.92 582.13,-770.31 601.5,-738 623.35,-701.54 663.04,-674.29 696.24,-656.49"/>
<polygon fill="orange" stroke="orange" points="576.63,-845.4 580.58,-855.23 583.62,-845.08 576.63,-845.4"/>
<text text-anchor="middle" x="668" y="-746.5" font-family="Helvetica,sans-Serif" font-size="10.00"> &lt; altintegration::BlockIndex * &gt;</text>
</g>
<!-- Node18&#45;&gt;Node11 -->
<g id="edge22" class="edge">
<title>Node18&#45;&gt;Node11</title>
<path fill="none" stroke="orange" d="M431.19,-846.85C415.76,-823.37 397.73,-791.39 389.5,-760 381.21,-728.38 382.08,-690.87 384.34,-664.57"/>
<polygon fill="orange" stroke="orange" points="428.47,-849.06 436.95,-855.41 434.28,-845.16 428.47,-849.06"/>
<text text-anchor="middle" x="456" y="-746.5" font-family="Helvetica,sans-Serif" font-size="10.00"> &lt; altintegration::BlockIndex * &gt;</text>
</g>
</g>
</svg>
