<?xml version="1.0" encoding="UTF-8" standalone="no"?>
<!DOCTYPE svg PUBLIC "-//W3C//DTD SVG 1.1//EN"
 "http://www.w3.org/Graphics/SVG/1.1/DTD/svg11.dtd">
<!-- Generated by graphviz version 2.50.0 (20220203.2022)
 -->
<!-- Title: altintegration::VbkChainParamsTest Pages: 1 -->
<svg width="233pt" height="751pt"
 viewBox="0.00 0.00 233.00 751.00" xmlns="http://www.w3.org/2000/svg" xmlns:xlink="http://www.w3.org/1999/xlink">
<g id="graph0" class="graph" transform="scale(1 1) rotate(0) translate(4 747)">
<title>altintegration::VbkChainParamsTest</title>
<polygon fill="white" stroke="transparent" points="-4,4 -4,-747 229,-747 229,4 -4,4"/>
<!-- Node1 -->
<g id="node1" class="node">
<title>Node1</title>
<g id="a_node1"><a xlink:title="TestNet VBK config.">
<polygon fill="#bfbfbf" stroke="black" points="14,-0.5 14,-178.5 168,-178.5 168,-0.5 14,-0.5"/>
<text text-anchor="start" x="22" y="-166.5" font-family="Helvetica,sans-Serif" font-size="10.00">altintegration::VbkChain</text>
<text text-anchor="middle" x="91" y="-155.5" font-family="Helvetica,sans-Serif" font-size="10.00">ParamsTest</text>
<polyline fill="none" stroke="black" points="14,-148.5 168,-148.5 "/>
<text text-anchor="middle" x="91" y="-136.5" font-family="Helvetica,sans-Serif" font-size="10.00"> </text>
<polyline fill="none" stroke="black" points="14,-129.5 168,-129.5 "/>
<text text-anchor="start" x="22" y="-117.5" font-family="Helvetica,sans-Serif" font-size="10.00">+ ~VbkChainParamsTest()</text>
<text text-anchor="start" x="22" y="-106.5" font-family="Helvetica,sans-Serif" font-size="10.00">+ getProgPowForkHeight()</text>
<text text-anchor="start" x="22" y="-95.5" font-family="Helvetica,sans-Serif" font-size="10.00">+ getProgPowStartTimeEpoch()</text>
<text text-anchor="start" x="22" y="-84.5" font-family="Helvetica,sans-Serif" font-size="10.00">+ networkName()</text>
<text text-anchor="start" x="22" y="-73.5" font-family="Helvetica,sans-Serif" font-size="10.00">+ numBlocksForBootstrap()</text>
<text text-anchor="start" x="22" y="-62.5" font-family="Helvetica,sans-Serif" font-size="10.00">+ getMinimumDifficulty()</text>
<text text-anchor="start" x="22" y="-51.5" font-family="Helvetica,sans-Serif" font-size="10.00">+ getTransactionMagicByte()</text>
<text text-anchor="start" x="22" y="-40.5" font-family="Helvetica,sans-Serif" font-size="10.00">+ getPowNoRetargeting()</text>
<text text-anchor="start" x="22" y="-29.5" font-family="Helvetica,sans-Serif" font-size="10.00">+ EnableTimeAdjustment()</text>
<text text-anchor="start" x="22" y="-18.5" font-family="Helvetica,sans-Serif" font-size="10.00">+ getRetargetPeriod()</text>
<text text-anchor="start" x="22" y="-7.5" font-family="Helvetica,sans-Serif" font-size="10.00">+ getTargetBlockTime()</text>
</a>
</g>
</g>
<!-- Node2 -->
<g id="node2" class="node">
<title>Node2</title>
<g id="a_node2"><a xlink:href="structaltintegration_1_1VbkChainParams.html" target="_top" xlink:title="VeriBlock chain parameters.">
<polygon fill="white" stroke="black" points="0,-216.5 0,-427.5 182,-427.5 182,-216.5 0,-216.5"/>
<text text-anchor="start" x="8" y="-415.5" font-family="Helvetica,sans-Serif" font-size="10.00">altintegration::VbkChain</text>
<text text-anchor="middle" x="91" y="-404.5" font-family="Helvetica,sans-Serif" font-size="10.00">Params</text>
<polyline fill="none" stroke="black" points="0,-397.5 182,-397.5 "/>
<text text-anchor="start" x="8" y="-385.5" font-family="Helvetica,sans-Serif" font-size="10.00">+ mOldBlocksWindow</text>
<text text-anchor="start" x="8" y="-374.5" font-family="Helvetica,sans-Serif" font-size="10.00">+ mEndorsementSettlementInterval</text>
<text text-anchor="start" x="8" y="-363.5" font-family="Helvetica,sans-Serif" font-size="10.00">+ mPreserveBlocksBehindFinal</text>
<text text-anchor="start" x="8" y="-352.5" font-family="Helvetica,sans-Serif" font-size="10.00"># mMaxFutureBlockTime</text>
<polyline fill="none" stroke="black" points="0,-345.5 182,-345.5 "/>
<text text-anchor="start" x="8" y="-333.5" font-family="Helvetica,sans-Serif" font-size="10.00">+ ~VbkChainParams()</text>
<text text-anchor="start" x="8" y="-322.5" font-family="Helvetica,sans-Serif" font-size="10.00">+ getProgPowForkHeight()</text>
<text text-anchor="start" x="8" y="-311.5" font-family="Helvetica,sans-Serif" font-size="10.00">+ getProgPowStartTimeEpoch()</text>
<text text-anchor="start" x="8" y="-300.5" font-family="Helvetica,sans-Serif" font-size="10.00">+ isProgPowStartTimeEpochEnabled()</text>
<text text-anchor="start" x="8" y="-289.5" font-family="Helvetica,sans-Serif" font-size="10.00">+ networkName()</text>
<text text-anchor="start" x="8" y="-278.5" font-family="Helvetica,sans-Serif" font-size="10.00">+ getMinimumDifficulty()</text>
<text text-anchor="start" x="8" y="-267.5" font-family="Helvetica,sans-Serif" font-size="10.00">+ getTransactionMagicByte()</text>
<text text-anchor="start" x="8" y="-256.5" font-family="Helvetica,sans-Serif" font-size="10.00">+ getPowNoRetargeting()</text>
<text text-anchor="start" x="8" y="-245.5" font-family="Helvetica,sans-Serif" font-size="10.00">+ getRetargetPeriod()</text>
<text text-anchor="start" x="8" y="-234.5" font-family="Helvetica,sans-Serif" font-size="10.00">+ getTargetBlockTime()</text>
<text text-anchor="start" x="8" y="-223.5" font-family="Helvetica,sans-Serif" font-size="10.00">and 10 more...</text>
</a>
</g>
</g>
<!-- Node2&#45;&gt;Node1 -->
<g id="edge1" class="edge">
<title>Node2&#45;&gt;Node1</title>
<path fill="none" stroke="midnightblue" d="M91,-205.94C91,-196.83 91,-187.72 91,-178.84"/>
<polygon fill="none" stroke="midnightblue" points="87.5,-206.2 91,-216.2 94.5,-206.2 87.5,-206.2"/>
</g>
<!-- Node3 -->
<g id="node3" class="node">
<title>Node3</title>
<g id="a_node3"><a xlink:title=" ">
<polygon fill="white" stroke="black" points="34.5,-475.5 34.5,-532.5 147.5,-532.5 147.5,-475.5 34.5,-475.5"/>
<text text-anchor="middle" x="91" y="-520.5" font-family="Helvetica,sans-Serif" font-size="10.00">std::vector&lt; uint32_t &gt;</text>
<polyline fill="none" stroke="black" points="34.5,-513.5 147.5,-513.5 "/>
<text text-anchor="start" x="42.5" y="-501.5" font-family="Helvetica,sans-Serif" font-size="10.00">+ elements</text>
<polyline fill="none" stroke="black" points="34.5,-494.5 147.5,-494.5 "/>
<text text-anchor="middle" x="91" y="-482.5" font-family="Helvetica,sans-Serif" font-size="10.00"> </text>
</a>
</g>
</g>
<!-- Node3&#45;&gt;Node2 -->
<g id="edge2" class="edge">
<title>Node3&#45;&gt;Node2</title>
<path fill="none" stroke="#404040" d="M91,-475.27C91,-465.15 91,-452.98 91,-439.97"/>
<polygon fill="none" stroke="#404040" points="91,-439.83 87,-433.83 91,-427.83 95,-433.83 91,-439.83"/>
<text text-anchor="middle" x="158" y="-449" font-family="Helvetica,sans-Serif" font-size="10.00"> #forkResolutionLookUpTable_</text>
</g>
<!-- Node4 -->
<g id="node4" class="node">
<title>Node4</title>
<g id="a_node4"><a xlink:title=" ">
<polygon fill="white" stroke="black" points="49,-580.5 49,-637.5 133,-637.5 133,-580.5 49,-580.5"/>
<text text-anchor="middle" x="91" y="-625.5" font-family="Helvetica,sans-Serif" font-size="10.00">std::vector&lt; T &gt;</text>
<polyline fill="none" stroke="black" points="49,-618.5 133,-618.5 "/>
<text text-anchor="middle" x="91" y="-606.5" font-family="Helvetica,sans-Serif" font-size="10.00"> </text>
<polyline fill="none" stroke="black" points="49,-599.5 133,-599.5 "/>
<text text-anchor="middle" x="91" y="-587.5" font-family="Helvetica,sans-Serif" font-size="10.00"> </text>
</a>
</g>
</g>
<!-- Node4&#45;&gt;Node3 -->
<g id="edge3" class="edge">
<title>Node4&#45;&gt;Node3</title>
<path fill="none" stroke="orange" d="M91,-570.29C91,-557.84 91,-544.23 91,-532.68"/>
<polygon fill="orange" stroke="orange" points="87.5,-570.4 91,-580.4 94.5,-570.4 87.5,-570.4"/>
<text text-anchor="middle" x="118" y="-554" font-family="Helvetica,sans-Serif" font-size="10.00"> &lt; uint32_t &gt;</text>
</g>
<!-- Node5 -->
<g id="node5" class="node">
<title>Node5</title>
<g id="a_node5"><a xlink:title=" ">
<polygon fill="white" stroke="#bfbfbf" points="76.5,-685.5 76.5,-742.5 105.5,-742.5 105.5,-685.5 76.5,-685.5"/>
<text text-anchor="middle" x="91" y="-730.5" font-family="Helvetica,sans-Serif" font-size="10.00">T</text>
<polyline fill="none" stroke="#bfbfbf" points="76.5,-723.5 105.5,-723.5 "/>
<text text-anchor="middle" x="91" y="-711.5" font-family="Helvetica,sans-Serif" font-size="10.00"> </text>
<polyline fill="none" stroke="#bfbfbf" points="76.5,-704.5 105.5,-704.5 "/>
<text text-anchor="middle" x="91" y="-692.5" font-family="Helvetica,sans-Serif" font-size="10.00"> </text>
</a>
</g>
</g>
<!-- Node5&#45;&gt;Node4 -->
<g id="edge4" class="edge">
<title>Node5&#45;&gt;Node4</title>
<path fill="none" stroke="#404040" d="M91,-685.4C91,-674.55 91,-661.87 91,-650.05"/>
<polygon fill="none" stroke="#404040" points="91,-649.68 87,-643.68 91,-637.68 95,-643.68 91,-649.68"/>
<text text-anchor="middle" x="115.5" y="-659" font-family="Helvetica,sans-Serif" font-size="10.00"> +elements</text>
</g>
</g>
</svg>
