<?xml version="1.0" encoding="UTF-8" standalone="no"?>
<!DOCTYPE svg PUBLIC "-//W3C//DTD SVG 1.1//EN"
 "http://www.w3.org/Graphics/SVG/1.1/DTD/svg11.dtd">
<!-- Generated by graphviz version 2.50.0 (20220203.2022)
 -->
<!-- Title: altintegration::BaseBlockTree&lt; Block &gt; Pages: 1 -->
<svg width="1345pt" height="1202pt"
 viewBox="0.00 0.00 1344.50 1202.00" xmlns="http://www.w3.org/2000/svg" xmlns:xlink="http://www.w3.org/1999/xlink">
<g id="graph0" class="graph" transform="scale(1 1) rotate(0) translate(4 1198)">
<title>altintegration::BaseBlockTree&lt; Block &gt;</title>
<polygon fill="white" stroke="transparent" points="-4,4 -4,-1198 1340.5,-1198 1340.5,4 -4,4"/>
<!-- Node1 -->
<g id="node1" class="node">
<title>Node1</title>
<g id="a_node1"><a xlink:title="Base block tree that stores all blocks, maintains tree tips, maintains active chain.">
<polygon fill="#bfbfbf" stroke="black" points="755.5,-0.5 755.5,-288.5 907.5,-288.5 907.5,-0.5 755.5,-0.5"/>
<text text-anchor="start" x="763.5" y="-276.5" font-family="Helvetica,sans-Serif" font-size="10.00">altintegration::BaseBlock</text>
<text text-anchor="middle" x="831.5" y="-265.5" font-family="Helvetica,sans-Serif" font-size="10.00">Tree&lt; Block &gt;</text>
<polyline fill="none" stroke="black" points="755.5,-258.5 907.5,-258.5 "/>
<text text-anchor="start" x="763.5" y="-246.5" font-family="Helvetica,sans-Serif" font-size="10.00">+ onBlockBeforeDeallocated</text>
<text text-anchor="start" x="763.5" y="-235.5" font-family="Helvetica,sans-Serif" font-size="10.00">+ onBlockValidityChanged</text>
<text text-anchor="start" x="763.5" y="-224.5" font-family="Helvetica,sans-Serif" font-size="10.00">+ onBeforeOverrideTip</text>
<text text-anchor="start" x="763.5" y="-213.5" font-family="Helvetica,sans-Serif" font-size="10.00"># isLoadingBlocks_</text>
<text text-anchor="start" x="763.5" y="-202.5" font-family="Helvetica,sans-Serif" font-size="10.00"># isLoaded_</text>
<polyline fill="none" stroke="black" points="755.5,-195.5 907.5,-195.5 "/>
<text text-anchor="start" x="763.5" y="-183.5" font-family="Helvetica,sans-Serif" font-size="10.00">+ getTips()</text>
<text text-anchor="start" x="763.5" y="-172.5" font-family="Helvetica,sans-Serif" font-size="10.00">+ getBlocks()</text>
<text text-anchor="start" x="763.5" y="-161.5" font-family="Helvetica,sans-Serif" font-size="10.00">+ getAllBlocks()</text>
<text text-anchor="start" x="763.5" y="-150.5" font-family="Helvetica,sans-Serif" font-size="10.00">+ getBlockProvider()</text>
<text text-anchor="start" x="763.5" y="-139.5" font-family="Helvetica,sans-Serif" font-size="10.00">+ ~BaseBlockTree()</text>
<text text-anchor="start" x="763.5" y="-128.5" font-family="Helvetica,sans-Serif" font-size="10.00">+ BaseBlockTree()</text>
<text text-anchor="start" x="763.5" y="-117.5" font-family="Helvetica,sans-Serif" font-size="10.00">+ BaseBlockTree()</text>
<text text-anchor="start" x="763.5" y="-106.5" font-family="Helvetica,sans-Serif" font-size="10.00">+ operator=()</text>
<text text-anchor="start" x="763.5" y="-95.5" font-family="Helvetica,sans-Serif" font-size="10.00">+ BaseBlockTree()</text>
<text text-anchor="start" x="763.5" y="-84.5" font-family="Helvetica,sans-Serif" font-size="10.00">+ operator=()</text>
<text text-anchor="start" x="763.5" y="-73.5" font-family="Helvetica,sans-Serif" font-size="10.00">and 25 more...</text>
<text text-anchor="start" x="763.5" y="-62.5" font-family="Helvetica,sans-Serif" font-size="10.00"># deallocateBlock()</text>
<text text-anchor="start" x="763.5" y="-51.5" font-family="Helvetica,sans-Serif" font-size="10.00"># toPrettyString()</text>
<text text-anchor="start" x="763.5" y="-40.5" font-family="Helvetica,sans-Serif" font-size="10.00"># decreaseAppliedBlockCount()</text>
<text text-anchor="start" x="763.5" y="-29.5" font-family="Helvetica,sans-Serif" font-size="10.00"># increaseAppliedBlockCount()</text>
<text text-anchor="start" x="763.5" y="-18.5" font-family="Helvetica,sans-Serif" font-size="10.00"># decreaseAppliedBlockCount()</text>
<text text-anchor="start" x="763.5" y="-7.5" font-family="Helvetica,sans-Serif" font-size="10.00"># increaseAppliedBlockCount()</text>
</a>
</g>
</g>
<!-- Node2 -->
<g id="node2" class="node">
<title>Node2</title>
<g id="a_node2"><a xlink:title=" ">
<polygon fill="white" stroke="black" points="34,-386 34,-465 171,-465 171,-386 34,-386"/>
<text text-anchor="start" x="42" y="-453" font-family="Helvetica,sans-Serif" font-size="10.00">std::unordered_map</text>
<text text-anchor="start" x="42" y="-442" font-family="Helvetica,sans-Serif" font-size="10.00">&lt; prev_block_hash_t,</text>
<text text-anchor="middle" x="102.5" y="-431" font-family="Helvetica,sans-Serif" font-size="10.00"> std::unique_ptr&lt; index_t &gt; &gt;</text>
<polyline fill="none" stroke="black" points="34,-424 171,-424 "/>
<text text-anchor="start" x="42" y="-412" font-family="Helvetica,sans-Serif" font-size="10.00">+ keys</text>
<polyline fill="none" stroke="black" points="34,-405 171,-405 "/>
<text text-anchor="middle" x="102.5" y="-393" font-family="Helvetica,sans-Serif" font-size="10.00"> </text>
</a>
</g>
</g>
<!-- Node2&#45;&gt;Node1 -->
<g id="edge1" class="edge">
<title>Node2&#45;&gt;Node1</title>
<path fill="none" stroke="#404040" d="M171.08,-398.25C304.03,-347.37 596.63,-235.39 743.61,-179.14"/>
<polygon fill="none" stroke="#404040" points="744.02,-178.98 748.19,-173.1 755.22,-174.69 751.05,-180.57 744.02,-178.98"/>
<text text-anchor="middle" x="423.5" y="-310" font-family="Helvetica,sans-Serif" font-size="10.00"> #blocks_</text>
</g>
<!-- Node3 -->
<g id="node3" class="node">
<title>Node3</title>
<g id="a_node3"><a xlink:title=" ">
<polygon fill="white" stroke="black" points="0,-803.5 0,-860.5 127,-860.5 127,-803.5 0,-803.5"/>
<text text-anchor="middle" x="63.5" y="-848.5" font-family="Helvetica,sans-Serif" font-size="10.00">std::unique_ptr&lt; index_t &gt;</text>
<polyline fill="none" stroke="black" points="0,-841.5 127,-841.5 "/>
<text text-anchor="start" x="8" y="-829.5" font-family="Helvetica,sans-Serif" font-size="10.00">+ ptr</text>
<polyline fill="none" stroke="black" points="0,-822.5 127,-822.5 "/>
<text text-anchor="start" x="8" y="-810.5" font-family="Helvetica,sans-Serif" font-size="10.00">+ operator&#45;&gt;()</text>
</a>
</g>
</g>
<!-- Node3&#45;&gt;Node2 -->
<g id="edge2" class="edge">
<title>Node3&#45;&gt;Node2</title>
<path fill="none" stroke="#404040" d="M55.8,-803.46C54.43,-797.42 53.21,-791.03 52.5,-785 41.47,-691.43 37.07,-665.95 52.5,-573 57.99,-539.94 69.99,-504.33 80.86,-476.5"/>
<polygon fill="none" stroke="#404040" points="80.97,-476.22 79.49,-469.16 85.43,-465.08 86.91,-472.13 80.97,-476.22"/>
<text text-anchor="middle" x="77" y="-676.5" font-family="Helvetica,sans-Serif" font-size="10.00"> +elements</text>
</g>
<!-- Node4 -->
<g id="node4" class="node">
<title>Node4</title>
<g id="a_node4"><a xlink:title=" ">
<polygon fill="white" stroke="black" points="34.5,-955.5 34.5,-1012.5 136.5,-1012.5 136.5,-955.5 34.5,-955.5"/>
<text text-anchor="middle" x="85.5" y="-1000.5" font-family="Helvetica,sans-Serif" font-size="10.00">std::unique_ptr&lt; T &gt;</text>
<polyline fill="none" stroke="black" points="34.5,-993.5 136.5,-993.5 "/>
<text text-anchor="middle" x="85.5" y="-981.5" font-family="Helvetica,sans-Serif" font-size="10.00"> </text>
<polyline fill="none" stroke="black" points="34.5,-974.5 136.5,-974.5 "/>
<text text-anchor="start" x="42.5" y="-962.5" font-family="Helvetica,sans-Serif" font-size="10.00">+ operator&#45;&gt;()</text>
</a>
</g>
</g>
<!-- Node4&#45;&gt;Node3 -->
<g id="edge3" class="edge">
<title>Node4&#45;&gt;Node3</title>
<path fill="none" stroke="orange" d="M80,-945.47C76.13,-919.11 71.04,-884.43 67.55,-860.59"/>
<polygon fill="orange" stroke="orange" points="76.55,-946.1 81.46,-955.49 83.48,-945.09 76.55,-946.1"/>
<text text-anchor="middle" x="103.5" y="-905.5" font-family="Helvetica,sans-Serif" font-size="10.00"> &lt; index_t &gt;</text>
</g>
<!-- Node5 -->
<g id="node5" class="node">
<title>Node5</title>
<g id="a_node5"><a xlink:title=" ">
<polygon fill="white" stroke="#bfbfbf" points="147,-1136.5 147,-1193.5 176,-1193.5 176,-1136.5 147,-1136.5"/>
<text text-anchor="middle" x="161.5" y="-1181.5" font-family="Helvetica,sans-Serif" font-size="10.00">T</text>
<polyline fill="none" stroke="#bfbfbf" points="147,-1174.5 176,-1174.5 "/>
<text text-anchor="middle" x="161.5" y="-1162.5" font-family="Helvetica,sans-Serif" font-size="10.00"> </text>
<polyline fill="none" stroke="#bfbfbf" points="147,-1155.5 176,-1155.5 "/>
<text text-anchor="middle" x="161.5" y="-1143.5" font-family="Helvetica,sans-Serif" font-size="10.00"> </text>
</a>
</g>
</g>
<!-- Node5&#45;&gt;Node4 -->
<g id="edge4" class="edge">
<title>Node5&#45;&gt;Node4</title>
<path fill="none" stroke="#404040" d="M146.81,-1146.98C140.2,-1138.67 132.73,-1128.26 127.5,-1118 112.25,-1088.06 101.19,-1051.51 94.26,-1024.3"/>
<polygon fill="none" stroke="#404040" points="94.23,-1024.17 88.92,-1019.3 91.37,-1012.52 96.68,-1017.39 94.23,-1024.17"/>
<text text-anchor="middle" x="137.5" y="-1110" font-family="Helvetica,sans-Serif" font-size="10.00"> +ptr</text>
</g>
<!-- Node6 -->
<g id="node6" class="node">
<title>Node6</title>
<g id="a_node6"><a xlink:title=" ">
<polygon fill="white" stroke="black" points="111,-645 111,-713 212,-713 212,-645 111,-645"/>
<text text-anchor="start" x="119" y="-701" font-family="Helvetica,sans-Serif" font-size="10.00">std::unordered_map</text>
<text text-anchor="middle" x="161.5" y="-690" font-family="Helvetica,sans-Serif" font-size="10.00">&lt; K, T &gt;</text>
<polyline fill="none" stroke="black" points="111,-683 212,-683 "/>
<text text-anchor="middle" x="161.5" y="-671" font-family="Helvetica,sans-Serif" font-size="10.00"> </text>
<polyline fill="none" stroke="black" points="111,-664 212,-664 "/>
<text text-anchor="middle" x="161.5" y="-652" font-family="Helvetica,sans-Serif" font-size="10.00"> </text>
</a>
</g>
</g>
<!-- Node5&#45;&gt;Node6 -->
<g id="edge7" class="edge">
<title>Node5&#45;&gt;Node6</title>
<path fill="none" stroke="#404040" d="M161.5,-1136.24C161.5,-1056.19 161.5,-824.33 161.5,-725.5"/>
<polygon fill="none" stroke="#404040" points="161.5,-725.29 157.5,-719.29 161.5,-713.29 165.5,-719.29 161.5,-725.29"/>
<text text-anchor="middle" x="186" y="-981.5" font-family="Helvetica,sans-Serif" font-size="10.00"> +elements</text>
</g>
<!-- Node14 -->
<g id="node14" class="node">
<title>Node14</title>
<g id="a_node14"><a xlink:title=" ">
<polygon fill="white" stroke="black" points="239,-1031.5 239,-1088.5 342,-1088.5 342,-1031.5 239,-1031.5"/>
<text text-anchor="middle" x="290.5" y="-1076.5" font-family="Helvetica,sans-Serif" font-size="10.00">std::shared_ptr&lt; T &gt;</text>
<polyline fill="none" stroke="black" points="239,-1069.5 342,-1069.5 "/>
<text text-anchor="middle" x="290.5" y="-1057.5" font-family="Helvetica,sans-Serif" font-size="10.00"> </text>
<polyline fill="none" stroke="black" points="239,-1050.5 342,-1050.5 "/>
<text text-anchor="start" x="247" y="-1038.5" font-family="Helvetica,sans-Serif" font-size="10.00">+ operator&#45;&gt;()</text>
</a>
</g>
</g>
<!-- Node5&#45;&gt;Node14 -->
<g id="edge18" class="edge">
<title>Node5&#45;&gt;Node14</title>
<path fill="none" stroke="#404040" d="M176.3,-1152.18C193.3,-1138.61 221.99,-1115.7 246.36,-1096.24"/>
<polygon fill="none" stroke="#404040" points="246.42,-1096.19 248.62,-1089.32 255.8,-1088.71 253.61,-1095.58 246.42,-1096.19"/>
<text text-anchor="middle" x="240.5" y="-1110" font-family="Helvetica,sans-Serif" font-size="10.00"> +ptr</text>
</g>
<!-- Node6&#45;&gt;Node2 -->
<g id="edge5" class="edge">
<title>Node6&#45;&gt;Node2</title>
<path fill="none" stroke="orange" d="M136.21,-636.16C123.73,-613.1 109.99,-583.45 103.5,-555 96.75,-525.42 96.89,-491 98.51,-465.23"/>
<polygon fill="orange" stroke="orange" points="133.19,-637.92 141.09,-644.97 139.31,-634.53 133.19,-637.92"/>
<text text-anchor="start" x="103.5" y="-547" font-family="Helvetica,sans-Serif" font-size="10.00"> &lt; prev_block_hash_t,</text>
<text text-anchor="middle" x="164" y="-536" font-family="Helvetica,sans-Serif" font-size="10.00"> std::unique_ptr&lt; index_t &gt; &gt;</text>
</g>
<!-- Node7 -->
<g id="node7" class="node">
<title>Node7</title>
<g id="a_node7"><a xlink:title=" ">
<polygon fill="white" stroke="#bfbfbf" points="275,-879.5 275,-936.5 304,-936.5 304,-879.5 275,-879.5"/>
<text text-anchor="middle" x="289.5" y="-924.5" font-family="Helvetica,sans-Serif" font-size="10.00">K</text>
<polyline fill="none" stroke="#bfbfbf" points="275,-917.5 304,-917.5 "/>
<text text-anchor="middle" x="289.5" y="-905.5" font-family="Helvetica,sans-Serif" font-size="10.00"> </text>
<polyline fill="none" stroke="#bfbfbf" points="275,-898.5 304,-898.5 "/>
<text text-anchor="middle" x="289.5" y="-886.5" font-family="Helvetica,sans-Serif" font-size="10.00"> </text>
</a>
</g>
</g>
<!-- Node7&#45;&gt;Node6 -->
<g id="edge6" class="edge">
<title>Node7&#45;&gt;Node6</title>
<path fill="none" stroke="#404040" d="M274.75,-887.71C268.82,-879.63 262.07,-870.03 256.5,-861 228.55,-815.7 200.74,-761.35 182.5,-724.11"/>
<polygon fill="none" stroke="#404040" points="182.41,-723.92 176.19,-720.27 177.16,-713.13 183.38,-716.77 182.41,-723.92"/>
<text text-anchor="middle" x="271" y="-829.5" font-family="Helvetica,sans-Serif" font-size="10.00"> +keys</text>
</g>
<!-- Node12 -->
<g id="node12" class="node">
<title>Node12</title>
<g id="a_node12"><a xlink:title=" ">
<polygon fill="white" stroke="black" points="367,-650.5 367,-707.5 438,-707.5 438,-650.5 367,-650.5"/>
<text text-anchor="middle" x="402.5" y="-695.5" font-family="Helvetica,sans-Serif" font-size="10.00">std::set&lt; K &gt;</text>
<polyline fill="none" stroke="black" points="367,-688.5 438,-688.5 "/>
<text text-anchor="middle" x="402.5" y="-676.5" font-family="Helvetica,sans-Serif" font-size="10.00"> </text>
<polyline fill="none" stroke="black" points="367,-669.5 438,-669.5 "/>
<text text-anchor="middle" x="402.5" y="-657.5" font-family="Helvetica,sans-Serif" font-size="10.00"> </text>
</a>
</g>
</g>
<!-- Node7&#45;&gt;Node12 -->
<g id="edge15" class="edge">
<title>Node7&#45;&gt;Node12</title>
<path fill="none" stroke="#404040" d="M304.15,-888.3C310.21,-880.15 317.06,-870.34 322.5,-861 349.7,-814.24 373.71,-756.53 388.16,-719.02"/>
<polygon fill="none" stroke="#404040" points="388.24,-718.81 386.63,-711.78 392.51,-707.6 394.11,-714.63 388.24,-718.81"/>
<text text-anchor="middle" x="368" y="-829.5" font-family="Helvetica,sans-Serif" font-size="10.00"> +keys</text>
</g>
<!-- Node15 -->
<g id="node15" class="node">
<title>Node15</title>
<g id="a_node15"><a xlink:title=" ">
<polygon fill="white" stroke="black" points="230,-650.5 230,-707.5 349,-707.5 349,-650.5 230,-650.5"/>
<text text-anchor="middle" x="289.5" y="-695.5" font-family="Helvetica,sans-Serif" font-size="10.00">std::unordered_set&lt; K &gt;</text>
<polyline fill="none" stroke="black" points="230,-688.5 349,-688.5 "/>
<text text-anchor="middle" x="289.5" y="-676.5" font-family="Helvetica,sans-Serif" font-size="10.00"> </text>
<polyline fill="none" stroke="black" points="230,-669.5 349,-669.5 "/>
<text text-anchor="middle" x="289.5" y="-657.5" font-family="Helvetica,sans-Serif" font-size="10.00"> </text>
</a>
</g>
</g>
<!-- Node7&#45;&gt;Node15 -->
<g id="edge20" class="edge">
<title>Node7&#45;&gt;Node15</title>
<path fill="none" stroke="#404040" d="M289.5,-879.17C289.5,-839.23 289.5,-765.48 289.5,-719.8"/>
<polygon fill="none" stroke="#404040" points="289.5,-719.71 285.5,-713.71 289.5,-707.71 293.5,-713.71 289.5,-719.71"/>
<text text-anchor="middle" x="304" y="-829.5" font-family="Helvetica,sans-Serif" font-size="10.00"> +keys</text>
</g>
<!-- Node8 -->
<g id="node8" class="node">
<title>Node8</title>
<g id="a_node8"><a xlink:title=" ">
<polygon fill="white" stroke="black" points="385,-391.5 385,-459.5 532,-459.5 532,-391.5 385,-391.5"/>
<text text-anchor="start" x="393" y="-447.5" font-family="Helvetica,sans-Serif" font-size="10.00">std::unordered_set</text>
<text text-anchor="middle" x="458.5" y="-436.5" font-family="Helvetica,sans-Serif" font-size="10.00">&lt; altintegration::BlockIndex * &gt;</text>
<polyline fill="none" stroke="black" points="385,-429.5 532,-429.5 "/>
<text text-anchor="middle" x="458.5" y="-417.5" font-family="Helvetica,sans-Serif" font-size="10.00"> </text>
<polyline fill="none" stroke="black" points="385,-410.5 532,-410.5 "/>
<text text-anchor="middle" x="458.5" y="-398.5" font-family="Helvetica,sans-Serif" font-size="10.00"> </text>
</a>
</g>
</g>
<!-- Node8&#45;&gt;Node1 -->
<g id="edge8" class="edge">
<title>Node8&#45;&gt;Node1</title>
<path fill="none" stroke="#404040" d="M486.38,-391.16C501.74,-373.76 521.67,-352.68 541.5,-336 605.43,-282.23 685.19,-230.81 744.88,-194.98"/>
<polygon fill="none" stroke="#404040" points="745.1,-194.85 748.2,-188.34 755.4,-188.7 752.3,-195.21 745.1,-194.85"/>
<text text-anchor="middle" x="586" y="-310" font-family="Helvetica,sans-Serif" font-size="10.00"> #tips_</text>
</g>
<!-- Node9 -->
<g id="node9" class="node">
<title>Node9</title>
<g id="a_node9"><a xlink:href="structaltintegration_1_1BlockIndex.html" target="_top" xlink:title="A node in a block tree.">
<polygon fill="white" stroke="black" points="500,-573.5 500,-784.5 625,-784.5 625,-573.5 500,-573.5"/>
<text text-anchor="start" x="508" y="-772.5" font-family="Helvetica,sans-Serif" font-size="10.00">altintegration::BlockIndex</text>
<text text-anchor="middle" x="562.5" y="-761.5" font-family="Helvetica,sans-Serif" font-size="10.00">&lt; Block &gt;</text>
<polyline fill="none" stroke="black" points="500,-754.5 625,-754.5 "/>
<text text-anchor="start" x="508" y="-742.5" font-family="Helvetica,sans-Serif" font-size="10.00">+ finalized</text>
<text text-anchor="start" x="508" y="-731.5" font-family="Helvetica,sans-Serif" font-size="10.00"># height</text>
<text text-anchor="start" x="508" y="-720.5" font-family="Helvetica,sans-Serif" font-size="10.00"># status</text>
<text text-anchor="start" x="508" y="-709.5" font-family="Helvetica,sans-Serif" font-size="10.00"># dirty</text>
<polyline fill="none" stroke="black" points="500,-702.5 625,-702.5 "/>
<text text-anchor="start" x="508" y="-690.5" font-family="Helvetica,sans-Serif" font-size="10.00">+ BlockIndex()</text>
<text text-anchor="start" x="508" y="-679.5" font-family="Helvetica,sans-Serif" font-size="10.00">+ BlockIndex()</text>
<text text-anchor="start" x="508" y="-668.5" font-family="Helvetica,sans-Serif" font-size="10.00">+ ~BlockIndex()</text>
<text text-anchor="start" x="508" y="-657.5" font-family="Helvetica,sans-Serif" font-size="10.00">+ disconnectFromPrev()</text>
<text text-anchor="start" x="508" y="-646.5" font-family="Helvetica,sans-Serif" font-size="10.00">+ isTip()</text>
<text text-anchor="start" x="508" y="-635.5" font-family="Helvetica,sans-Serif" font-size="10.00">+ BlockIndex()</text>
<text text-anchor="start" x="508" y="-624.5" font-family="Helvetica,sans-Serif" font-size="10.00">+ operator=()</text>
<text text-anchor="start" x="508" y="-613.5" font-family="Helvetica,sans-Serif" font-size="10.00">+ isDeleted()</text>
<text text-anchor="start" x="508" y="-602.5" font-family="Helvetica,sans-Serif" font-size="10.00">+ isRoot()</text>
<text text-anchor="start" x="508" y="-591.5" font-family="Helvetica,sans-Serif" font-size="10.00">+ restore()</text>
<text text-anchor="start" x="508" y="-580.5" font-family="Helvetica,sans-Serif" font-size="10.00">and 42 more...</text>
</a>
</g>
</g>
<!-- Node9&#45;&gt;Node8 -->
<g id="edge9" class="edge">
<title>Node9&#45;&gt;Node8</title>
<path fill="none" stroke="#404040" d="M549.64,-573.34C546.24,-559.49 541.94,-545.69 536.5,-533 526.71,-510.14 511.2,-487.53 496.59,-469.06"/>
<polygon fill="none" stroke="#404040" points="496.41,-468.84 489.52,-466.71 488.84,-459.53 495.72,-461.66 496.41,-468.84"/>
<text text-anchor="middle" x="558" y="-541.5" font-family="Helvetica,sans-Serif" font-size="10.00"> +keys</text>
</g>
<!-- Node9&#45;&gt;Node9 -->
<g id="edge11" class="edge">
<title>Node9&#45;&gt;Node9</title>
<path fill="none" stroke="#404040" d="M625.28,-702.35C635.76,-699.08 643,-691.3 643,-679 643,-671.5 640.31,-665.69 635.84,-661.54"/>
<polygon fill="none" stroke="#404040" points="635.76,-661.5 628.57,-662.06 625.28,-655.65 632.47,-655.08 635.76,-661.5"/>
<text text-anchor="middle" x="659.5" y="-676.5" font-family="Helvetica,sans-Serif" font-size="10.00"> +pprev</text>
</g>
<!-- Node11 -->
<g id="node11" class="node">
<title>Node11</title>
<g id="a_node11"><a xlink:title=" ">
<polygon fill="white" stroke="black" points="550.5,-391.5 550.5,-459.5 662.5,-459.5 662.5,-391.5 550.5,-391.5"/>
<text text-anchor="start" x="558.5" y="-447.5" font-family="Helvetica,sans-Serif" font-size="10.00">std::set&lt; altintegration</text>
<text text-anchor="middle" x="606.5" y="-436.5" font-family="Helvetica,sans-Serif" font-size="10.00">::BlockIndex * &gt;</text>
<polyline fill="none" stroke="black" points="550.5,-429.5 662.5,-429.5 "/>
<text text-anchor="middle" x="606.5" y="-417.5" font-family="Helvetica,sans-Serif" font-size="10.00"> </text>
<polyline fill="none" stroke="black" points="550.5,-410.5 662.5,-410.5 "/>
<text text-anchor="middle" x="606.5" y="-398.5" font-family="Helvetica,sans-Serif" font-size="10.00"> </text>
</a>
</g>
</g>
<!-- Node9&#45;&gt;Node11 -->
<g id="edge13" class="edge">
<title>Node9&#45;&gt;Node11</title>
<path fill="none" stroke="#404040" d="M622.88,-573.35C625.06,-567.25 626.96,-561.11 628.5,-555 635.42,-527.46 630.27,-496.05 623.23,-471.17"/>
<polygon fill="none" stroke="#404040" points="623.17,-471.01 617.59,-466.44 619.66,-459.54 625.24,-464.1 623.17,-471.01"/>
<text text-anchor="middle" x="647" y="-541.5" font-family="Helvetica,sans-Serif" font-size="10.00"> +keys</text>
</g>
<!-- Node10 -->
<g id="node10" class="node">
<title>Node10</title>
<g id="a_node10"><a xlink:title=" ">
<polygon fill="white" stroke="#bfbfbf" points="522.5,-879.5 522.5,-936.5 602.5,-936.5 602.5,-879.5 522.5,-879.5"/>
<text text-anchor="middle" x="562.5" y="-924.5" font-family="Helvetica,sans-Serif" font-size="10.00">Block::addon_t</text>
<polyline fill="none" stroke="#bfbfbf" points="522.5,-917.5 602.5,-917.5 "/>
<text text-anchor="middle" x="562.5" y="-905.5" font-family="Helvetica,sans-Serif" font-size="10.00"> </text>
<polyline fill="none" stroke="#bfbfbf" points="522.5,-898.5 602.5,-898.5 "/>
<text text-anchor="middle" x="562.5" y="-886.5" font-family="Helvetica,sans-Serif" font-size="10.00"> </text>
</a>
</g>
</g>
<!-- Node10&#45;&gt;Node9 -->
<g id="edge10" class="edge">
<title>Node10&#45;&gt;Node9</title>
<path fill="none" stroke="midnightblue" d="M562.5,-869.05C562.5,-845.79 562.5,-814.76 562.5,-784.58"/>
<polygon fill="none" stroke="midnightblue" points="559,-869.17 562.5,-879.17 566,-869.17 559,-869.17"/>
</g>
<!-- Node11&#45;&gt;Node9 -->
<g id="edge12" class="edge">
<title>Node11&#45;&gt;Node9</title>
<path fill="none" stroke="#404040" d="M602.5,-459.61C599.21,-485.62 594.17,-522.72 588.5,-555 588.12,-557.16 587.73,-559.35 587.33,-561.54"/>
<polygon fill="none" stroke="#404040" points="587.32,-561.62 590.15,-568.25 585.12,-573.42 582.29,-566.79 587.32,-561.62"/>
<text text-anchor="middle" x="608.5" y="-541.5" font-family="Helvetica,sans-Serif" font-size="10.00"> +pnext</text>
</g>
<!-- Node12&#45;&gt;Node11 -->
<g id="edge14" class="edge">
<title>Node12&#45;&gt;Node11</title>
<path fill="none" stroke="orange" d="M389.18,-640.9C380.13,-608.43 373.94,-562.03 399.5,-533 420.37,-509.29 513.22,-530.93 540.5,-515 562.35,-502.24 579.21,-479.11 590.42,-459.7"/>
<polygon fill="orange" stroke="orange" points="385.83,-641.91 392.04,-650.49 392.54,-639.91 385.83,-641.91"/>
<text text-anchor="middle" x="466" y="-541.5" font-family="Helvetica,sans-Serif" font-size="10.00"> &lt; altintegration::BlockIndex * &gt;</text>
</g>
<!-- Node13 -->
<g id="node13" class="node">
<title>Node13</title>
<g id="a_node13"><a xlink:title=" ">
<polygon fill="white" stroke="black" points="352.5,-879.5 352.5,-936.5 480.5,-936.5 480.5,-879.5 352.5,-879.5"/>
<text text-anchor="middle" x="416.5" y="-924.5" font-family="Helvetica,sans-Serif" font-size="10.00">std::shared_ptr&lt; block_t &gt;</text>
<polyline fill="none" stroke="black" points="352.5,-917.5 480.5,-917.5 "/>
<text text-anchor="start" x="360.5" y="-905.5" font-family="Helvetica,sans-Serif" font-size="10.00">+ ptr</text>
<polyline fill="none" stroke="black" points="352.5,-898.5 480.5,-898.5 "/>
<text text-anchor="start" x="360.5" y="-886.5" font-family="Helvetica,sans-Serif" font-size="10.00">+ operator&#45;&gt;()</text>
</a>
</g>
</g>
<!-- Node13&#45;&gt;Node9 -->
<g id="edge16" class="edge">
<title>Node13&#45;&gt;Node9</title>
<path fill="none" stroke="#404040" d="M434.4,-879.17C449.27,-856.04 471.44,-821.58 493.17,-787.8"/>
<polygon fill="none" stroke="#404040" points="493.4,-787.44 493.28,-780.23 499.89,-777.35 500.01,-784.56 493.4,-787.44"/>
<text text-anchor="middle" x="500" y="-829.5" font-family="Helvetica,sans-Serif" font-size="10.00"> #header</text>
</g>
<!-- Node14&#45;&gt;Node13 -->
<g id="edge17" class="edge">
<title>Node14&#45;&gt;Node13</title>
<path fill="none" stroke="orange" d="M320.27,-1023.56C342.61,-996.96 372.76,-961.07 393.32,-936.59"/>
<polygon fill="orange" stroke="orange" points="317.36,-1021.58 313.61,-1031.49 322.72,-1026.08 317.36,-1021.58"/>
<text text-anchor="middle" x="402" y="-981.5" font-family="Helvetica,sans-Serif" font-size="10.00"> &lt; block_t &gt;</text>
</g>
<!-- Node15&#45;&gt;Node8 -->
<g id="edge19" class="edge">
<title>Node15&#45;&gt;Node8</title>
<path fill="none" stroke="orange" d="M263.5,-641.61C245.01,-610.88 226.81,-566.62 247.5,-533 277.29,-484.6 336.6,-457.4 384.78,-442.62"/>
<polygon fill="orange" stroke="orange" points="260.66,-643.69 268.94,-650.3 266.59,-639.97 260.66,-643.69"/>
<text text-anchor="middle" x="314" y="-541.5" font-family="Helvetica,sans-Serif" font-size="10.00"> &lt; altintegration::BlockIndex * &gt;</text>
</g>
<!-- Node16 -->
<g id="node16" class="node">
<title>Node16</title>
<g id="a_node16"><a xlink:href="structaltintegration_1_1Chain.html" target="_top" xlink:title=" ">
<polygon fill="white" stroke="black" points="681,-336.5 681,-514.5 822,-514.5 822,-336.5 681,-336.5"/>
<text text-anchor="start" x="689" y="-502.5" font-family="Helvetica,sans-Serif" font-size="10.00">altintegration::Chain</text>
<text text-anchor="middle" x="751.5" y="-491.5" font-family="Helvetica,sans-Serif" font-size="10.00">&lt; altintegration::BlockIndex &gt;</text>
<polyline fill="none" stroke="black" points="681,-484.5 822,-484.5 "/>
<text text-anchor="middle" x="751.5" y="-472.5" font-family="Helvetica,sans-Serif" font-size="10.00"> </text>
<polyline fill="none" stroke="black" points="681,-465.5 822,-465.5 "/>
<text text-anchor="start" x="689" y="-453.5" font-family="Helvetica,sans-Serif" font-size="10.00">+ Chain()</text>
<text text-anchor="start" x="689" y="-442.5" font-family="Helvetica,sans-Serif" font-size="10.00">+ Chain()</text>
<text text-anchor="start" x="689" y="-431.5" font-family="Helvetica,sans-Serif" font-size="10.00">+ Chain()</text>
<text text-anchor="start" x="689" y="-420.5" font-family="Helvetica,sans-Serif" font-size="10.00">+ getStartHeight()</text>
<text text-anchor="start" x="689" y="-409.5" font-family="Helvetica,sans-Serif" font-size="10.00">+ firstHeight()</text>
<text text-anchor="start" x="689" y="-398.5" font-family="Helvetica,sans-Serif" font-size="10.00">+ contains()</text>
<text text-anchor="start" x="689" y="-387.5" font-family="Helvetica,sans-Serif" font-size="10.00">+ operator[]()</text>
<text text-anchor="start" x="689" y="-376.5" font-family="Helvetica,sans-Serif" font-size="10.00">+ next()</text>
<text text-anchor="start" x="689" y="-365.5" font-family="Helvetica,sans-Serif" font-size="10.00">+ chainHeight()</text>
<text text-anchor="start" x="689" y="-354.5" font-family="Helvetica,sans-Serif" font-size="10.00">+ empty()</text>
<text text-anchor="start" x="689" y="-343.5" font-family="Helvetica,sans-Serif" font-size="10.00">and 15 more...</text>
</a>
</g>
</g>
<!-- Node16&#45;&gt;Node1 -->
<g id="edge21" class="edge">
<title>Node16&#45;&gt;Node1</title>
<path fill="none" stroke="#404040" d="M776.81,-336.22C780.13,-324.67 783.59,-312.57 787.11,-300.31"/>
<polygon fill="none" stroke="#404040" points="787.18,-300.06 784.99,-293.19 790.49,-288.52 792.68,-295.39 787.18,-300.06"/>
<text text-anchor="middle" x="815.5" y="-310" font-family="Helvetica,sans-Serif" font-size="10.00"> #activeChain_</text>
</g>
<!-- Node17 -->
<g id="node17" class="node">
<title>Node17</title>
<g id="a_node17"><a xlink:href="structaltintegration_1_1Chain.html" target="_top" xlink:title="Fully in&#45;memory chain representation.">
<polygon fill="white" stroke="black" points="701,-590 701,-768 802,-768 802,-590 701,-590"/>
<text text-anchor="start" x="709" y="-756" font-family="Helvetica,sans-Serif" font-size="10.00">altintegration::Chain</text>
<text text-anchor="middle" x="751.5" y="-745" font-family="Helvetica,sans-Serif" font-size="10.00">&lt; BlockIndexT &gt;</text>
<polyline fill="none" stroke="black" points="701,-738 802,-738 "/>
<text text-anchor="middle" x="751.5" y="-726" font-family="Helvetica,sans-Serif" font-size="10.00"> </text>
<polyline fill="none" stroke="black" points="701,-719 802,-719 "/>
<text text-anchor="start" x="709" y="-707" font-family="Helvetica,sans-Serif" font-size="10.00">+ Chain()</text>
<text text-anchor="start" x="709" y="-696" font-family="Helvetica,sans-Serif" font-size="10.00">+ Chain()</text>
<text text-anchor="start" x="709" y="-685" font-family="Helvetica,sans-Serif" font-size="10.00">+ Chain()</text>
<text text-anchor="start" x="709" y="-674" font-family="Helvetica,sans-Serif" font-size="10.00">+ getStartHeight()</text>
<text text-anchor="start" x="709" y="-663" font-family="Helvetica,sans-Serif" font-size="10.00">+ firstHeight()</text>
<text text-anchor="start" x="709" y="-652" font-family="Helvetica,sans-Serif" font-size="10.00">+ contains()</text>
<text text-anchor="start" x="709" y="-641" font-family="Helvetica,sans-Serif" font-size="10.00">+ operator[]()</text>
<text text-anchor="start" x="709" y="-630" font-family="Helvetica,sans-Serif" font-size="10.00">+ next()</text>
<text text-anchor="start" x="709" y="-619" font-family="Helvetica,sans-Serif" font-size="10.00">+ chainHeight()</text>
<text text-anchor="start" x="709" y="-608" font-family="Helvetica,sans-Serif" font-size="10.00">+ empty()</text>
<text text-anchor="start" x="709" y="-597" font-family="Helvetica,sans-Serif" font-size="10.00">and 15 more...</text>
</a>
</g>
</g>
<!-- Node17&#45;&gt;Node16 -->
<g id="edge22" class="edge">
<title>Node17&#45;&gt;Node16</title>
<path fill="none" stroke="orange" d="M751.5,-579.59C751.5,-558.16 751.5,-535.61 751.5,-514.6"/>
<polygon fill="orange" stroke="orange" points="748,-579.68 751.5,-589.68 755,-579.68 748,-579.68"/>
<text text-anchor="middle" x="815" y="-541.5" font-family="Helvetica,sans-Serif" font-size="10.00"> &lt; altintegration::BlockIndex &gt;</text>
</g>
<!-- Node18 -->
<g id="node18" class="node">
<title>Node18</title>
<g id="a_node18"><a xlink:href="structaltintegration_1_1FinalizedPayloadsIndex.html" target="_top" xlink:title=" ">
<polygon fill="white" stroke="black" points="840,-353 840,-498 983,-498 983,-353 840,-353"/>
<text text-anchor="start" x="848" y="-486" font-family="Helvetica,sans-Serif" font-size="10.00">altintegration::Finalized</text>
<text text-anchor="start" x="848" y="-475" font-family="Helvetica,sans-Serif" font-size="10.00">PayloadsIndex&lt; altintegration</text>
<text text-anchor="middle" x="911.5" y="-464" font-family="Helvetica,sans-Serif" font-size="10.00">::BlockIndex &gt;</text>
<polyline fill="none" stroke="black" points="840,-457 983,-457 "/>
<text text-anchor="middle" x="911.5" y="-445" font-family="Helvetica,sans-Serif" font-size="10.00"> </text>
<polyline fill="none" stroke="black" points="840,-438 983,-438 "/>
<text text-anchor="start" x="848" y="-426" font-family="Helvetica,sans-Serif" font-size="10.00">+ find()</text>
<text text-anchor="start" x="848" y="-415" font-family="Helvetica,sans-Serif" font-size="10.00">+ empty()</text>
<text text-anchor="start" x="848" y="-404" font-family="Helvetica,sans-Serif" font-size="10.00">+ size()</text>
<text text-anchor="start" x="848" y="-393" font-family="Helvetica,sans-Serif" font-size="10.00">+ add()</text>
<text text-anchor="start" x="848" y="-382" font-family="Helvetica,sans-Serif" font-size="10.00">+ remove()</text>
<text text-anchor="start" x="848" y="-371" font-family="Helvetica,sans-Serif" font-size="10.00">+ addBlock()</text>
<text text-anchor="start" x="848" y="-360" font-family="Helvetica,sans-Serif" font-size="10.00">+ getAll()</text>
</a>
</g>
</g>
<!-- Node18&#45;&gt;Node1 -->
<g id="edge23" class="edge">
<title>Node18&#45;&gt;Node1</title>
<path fill="none" stroke="#404040" d="M890.9,-352.65C886.24,-336.42 881.12,-318.57 875.91,-300.37"/>
<polygon fill="none" stroke="#404040" points="875.86,-300.22 870.37,-295.55 872.56,-288.68 878.06,-293.35 875.86,-300.22"/>
<text text-anchor="middle" x="934" y="-310" font-family="Helvetica,sans-Serif" font-size="10.00"> #finalizedPayloadsIndex_</text>
</g>
<!-- Node19 -->
<g id="node19" class="node">
<title>Node19</title>
<g id="a_node19"><a xlink:href="structaltintegration_1_1FinalizedPayloadsIndex.html" target="_top" xlink:title="Stores a mapping &quot;payload id &#45;&gt; containing block&quot; hash of payloads that are stored in finalized block...">
<polygon fill="white" stroke="black" points="831,-612 831,-746 992,-746 992,-612 831,-612"/>
<text text-anchor="start" x="839" y="-734" font-family="Helvetica,sans-Serif" font-size="10.00">altintegration::Finalized</text>
<text text-anchor="middle" x="911.5" y="-723" font-family="Helvetica,sans-Serif" font-size="10.00">PayloadsIndex&lt; ContainerIndex &gt;</text>
<polyline fill="none" stroke="black" points="831,-716 992,-716 "/>
<text text-anchor="middle" x="911.5" y="-704" font-family="Helvetica,sans-Serif" font-size="10.00"> </text>
<polyline fill="none" stroke="black" points="831,-697 992,-697 "/>
<text text-anchor="start" x="839" y="-685" font-family="Helvetica,sans-Serif" font-size="10.00">+ find()</text>
<text text-anchor="start" x="839" y="-674" font-family="Helvetica,sans-Serif" font-size="10.00">+ empty()</text>
<text text-anchor="start" x="839" y="-663" font-family="Helvetica,sans-Serif" font-size="10.00">+ size()</text>
<text text-anchor="start" x="839" y="-652" font-family="Helvetica,sans-Serif" font-size="10.00">+ add()</text>
<text text-anchor="start" x="839" y="-641" font-family="Helvetica,sans-Serif" font-size="10.00">+ remove()</text>
<text text-anchor="start" x="839" y="-630" font-family="Helvetica,sans-Serif" font-size="10.00">+ addBlock()</text>
<text text-anchor="start" x="839" y="-619" font-family="Helvetica,sans-Serif" font-size="10.00">+ getAll()</text>
</a>
</g>
</g>
<!-- Node19&#45;&gt;Node18 -->
<g id="edge24" class="edge">
<title>Node19&#45;&gt;Node18</title>
<path fill="none" stroke="orange" d="M911.5,-601.9C911.5,-569.01 911.5,-530.72 911.5,-498.32"/>
<polygon fill="orange" stroke="orange" points="908,-601.92 911.5,-611.92 915,-601.92 908,-601.92"/>
<text text-anchor="middle" x="975" y="-541.5" font-family="Helvetica,sans-Serif" font-size="10.00"> &lt; altintegration::BlockIndex &gt;</text>
</g>
<!-- Node20 -->
<g id="node20" class="node">
<title>Node20</title>
<g id="a_node20"><a xlink:href="structaltintegration_1_1PayloadsIndex.html" target="_top" xlink:title=" ">
<polygon fill="white" stroke="black" points="1151.5,-358.5 1151.5,-492.5 1267.5,-492.5 1267.5,-358.5 1151.5,-358.5"/>
<text text-anchor="start" x="1159.5" y="-480.5" font-family="Helvetica,sans-Serif" font-size="10.00">altintegration::Payloads</text>
<text text-anchor="start" x="1159.5" y="-469.5" font-family="Helvetica,sans-Serif" font-size="10.00">Index&lt; altintegration</text>
<text text-anchor="middle" x="1209.5" y="-458.5" font-family="Helvetica,sans-Serif" font-size="10.00">::BlockIndex &gt;</text>
<polyline fill="none" stroke="black" points="1151.5,-451.5 1267.5,-451.5 "/>
<text text-anchor="middle" x="1209.5" y="-439.5" font-family="Helvetica,sans-Serif" font-size="10.00"> </text>
<polyline fill="none" stroke="black" points="1151.5,-432.5 1267.5,-432.5 "/>
<text text-anchor="start" x="1159.5" y="-420.5" font-family="Helvetica,sans-Serif" font-size="10.00">+ addBlock()</text>
<text text-anchor="start" x="1159.5" y="-409.5" font-family="Helvetica,sans-Serif" font-size="10.00">+ removeBlock()</text>
<text text-anchor="start" x="1159.5" y="-398.5" font-family="Helvetica,sans-Serif" font-size="10.00">+ add()</text>
<text text-anchor="start" x="1159.5" y="-387.5" font-family="Helvetica,sans-Serif" font-size="10.00">+ remove()</text>
<text text-anchor="start" x="1159.5" y="-376.5" font-family="Helvetica,sans-Serif" font-size="10.00">+ find()</text>
<text text-anchor="start" x="1159.5" y="-365.5" font-family="Helvetica,sans-Serif" font-size="10.00">+ getAll()</text>
</a>
</g>
</g>
<!-- Node20&#45;&gt;Node1 -->
<g id="edge25" class="edge">
<title>Node20&#45;&gt;Node1</title>
<path fill="none" stroke="#404040" d="M1163.82,-358.29C1157.1,-350.38 1149.93,-342.73 1142.5,-336 1074.72,-274.58 984.41,-221.82 918.57,-187.5"/>
<polygon fill="none" stroke="#404040" points="918.47,-187.45 911.31,-188.25 907.81,-181.94 914.98,-181.14 918.47,-187.45"/>
<text text-anchor="middle" x="1157" y="-310" font-family="Helvetica,sans-Serif" font-size="10.00"> #payloadsIndex_</text>
</g>
<!-- Node21 -->
<g id="node21" class="node">
<title>Node21</title>
<g id="a_node21"><a xlink:href="structaltintegration_1_1PayloadsIndex.html" target="_top" xlink:title="Payloads index that stores mapping &quot;payload id &#45;&gt; set of containing blocks&quot; from all NON&#45;FINALIZED bl...">
<polygon fill="white" stroke="black" points="1151.5,-617.5 1151.5,-740.5 1267.5,-740.5 1267.5,-617.5 1151.5,-617.5"/>
<text text-anchor="start" x="1159.5" y="-728.5" font-family="Helvetica,sans-Serif" font-size="10.00">altintegration::Payloads</text>
<text text-anchor="middle" x="1209.5" y="-717.5" font-family="Helvetica,sans-Serif" font-size="10.00">Index&lt; IndexT &gt;</text>
<polyline fill="none" stroke="black" points="1151.5,-710.5 1267.5,-710.5 "/>
<text text-anchor="middle" x="1209.5" y="-698.5" font-family="Helvetica,sans-Serif" font-size="10.00"> </text>
<polyline fill="none" stroke="black" points="1151.5,-691.5 1267.5,-691.5 "/>
<text text-anchor="start" x="1159.5" y="-679.5" font-family="Helvetica,sans-Serif" font-size="10.00">+ addBlock()</text>
<text text-anchor="start" x="1159.5" y="-668.5" font-family="Helvetica,sans-Serif" font-size="10.00">+ removeBlock()</text>
<text text-anchor="start" x="1159.5" y="-657.5" font-family="Helvetica,sans-Serif" font-size="10.00">+ add()</text>
<text text-anchor="start" x="1159.5" y="-646.5" font-family="Helvetica,sans-Serif" font-size="10.00">+ remove()</text>
<text text-anchor="start" x="1159.5" y="-635.5" font-family="Helvetica,sans-Serif" font-size="10.00">+ find()</text>
<text text-anchor="start" x="1159.5" y="-624.5" font-family="Helvetica,sans-Serif" font-size="10.00">+ getAll()</text>
</a>
</g>
</g>
<!-- Node21&#45;&gt;Node20 -->
<g id="edge26" class="edge">
<title>Node21&#45;&gt;Node20</title>
<path fill="none" stroke="orange" d="M1209.5,-607.05C1209.5,-571.17 1209.5,-527.9 1209.5,-492.72"/>
<polygon fill="orange" stroke="orange" points="1206,-607.44 1209.5,-617.44 1213,-607.44 1206,-607.44"/>
<text text-anchor="middle" x="1273" y="-541.5" font-family="Helvetica,sans-Serif" font-size="10.00"> &lt; altintegration::BlockIndex &gt;</text>
</g>
<!-- Node22 -->
<g id="node22" class="node">
<title>Node22</title>
<g id="a_node22"><a xlink:href="structaltintegration_1_1BlockReader.html" target="_top" xlink:title="An abstraction over on&#45;disk storage iterator.">
<polygon fill="white" stroke="black" points="1001.5,-342 1001.5,-509 1133.5,-509 1133.5,-342 1001.5,-342"/>
<text text-anchor="middle" x="1067.5" y="-497" font-family="Helvetica,sans-Serif" font-size="10.00">altintegration::BlockReader</text>
<polyline fill="none" stroke="black" points="1001.5,-490 1133.5,-490 "/>
<text text-anchor="middle" x="1067.5" y="-478" font-family="Helvetica,sans-Serif" font-size="10.00"> </text>
<polyline fill="none" stroke="black" points="1001.5,-471 1133.5,-471 "/>
<text text-anchor="start" x="1009.5" y="-459" font-family="Helvetica,sans-Serif" font-size="10.00">+ ~BlockReader()</text>
<text text-anchor="start" x="1009.5" y="-448" font-family="Helvetica,sans-Serif" font-size="10.00">+ getAltTip()</text>
<text text-anchor="start" x="1009.5" y="-437" font-family="Helvetica,sans-Serif" font-size="10.00">+ getVbkTip()</text>
<text text-anchor="start" x="1009.5" y="-426" font-family="Helvetica,sans-Serif" font-size="10.00">+ getBtcTip()</text>
<text text-anchor="start" x="1009.5" y="-415" font-family="Helvetica,sans-Serif" font-size="10.00">+ getBlock()</text>
<text text-anchor="start" x="1009.5" y="-404" font-family="Helvetica,sans-Serif" font-size="10.00">+ getBlock()</text>
<text text-anchor="start" x="1009.5" y="-393" font-family="Helvetica,sans-Serif" font-size="10.00">+ getBlock()</text>
<text text-anchor="start" x="1009.5" y="-382" font-family="Helvetica,sans-Serif" font-size="10.00">+ getAltBlockIterator()</text>
<text text-anchor="start" x="1009.5" y="-371" font-family="Helvetica,sans-Serif" font-size="10.00">+ getVbkBlockIterator()</text>
<text text-anchor="start" x="1009.5" y="-360" font-family="Helvetica,sans-Serif" font-size="10.00">+ getBtcBlockIterator()</text>
<text text-anchor="start" x="1009.5" y="-349" font-family="Helvetica,sans-Serif" font-size="10.00">and 6 more...</text>
</a>
</g>
</g>
<!-- Node22&#45;&gt;Node1 -->
<g id="edge27" class="edge">
<title>Node22&#45;&gt;Node1</title>
<path fill="none" stroke="#404040" d="M1018.84,-341.96C1010.81,-329.92 1002.23,-317.92 993.5,-307 970.33,-278.02 942.49,-248.68 916.48,-223.1"/>
<polygon fill="none" stroke="#404040" points="916.33,-222.96 909.24,-221.63 907.74,-214.58 914.82,-215.9 916.33,-222.96"/>
<text text-anchor="middle" x="1036" y="-310" font-family="Helvetica,sans-Serif" font-size="10.00"> #blockProvider_</text>
</g>
</g>
</svg>
