<?xml version="1.0" encoding="UTF-8" standalone="no"?>
<!DOCTYPE svg PUBLIC "-//W3C//DTD SVG 1.1//EN"
 "http://www.w3.org/Graphics/SVG/1.1/DTD/svg11.dtd">
<!-- Generated by graphviz version 2.44.0 ()
 -->
<!-- Title: altintegration::NetworkBytePair Pages: 1 -->
<svg width="160pt" height="215pt"
 viewBox="0.00 0.00 160.00 215.00" xmlns="http://www.w3.org/2000/svg" xmlns:xlink="http://www.w3.org/1999/xlink">
<g id="graph0" class="graph" transform="scale(1 1) rotate(0) translate(4 211)">
<title>altintegration::NetworkBytePair</title>
<polygon fill="white" stroke="transparent" points="-4,4 -4,-211 156,-211 156,4 -4,4"/>
<!-- Node1 -->
<g id="node1" class="node">
<title>Node1</title>
<g id="a_node1"><a xlink:title="Stores pair of TxType and VBK network byte.">
<polygon fill="#bfbfbf" stroke="black" points="1,-0.5 1,-57.5 151,-57.5 151,-0.5 1,-0.5"/>
<text text-anchor="middle" x="76" y="-45.5" font-family="Helvetica,sans-Serif" font-size="10.00">altintegration::NetworkBytePair</text>
<polyline fill="none" stroke="black" points="1,-38.5 151,-38.5 "/>
<text text-anchor="start" x="9" y="-26.5" font-family="Helvetica,sans-Serif" font-size="10.00">+ typeId</text>
<polyline fill="none" stroke="black" points="1,-19.5 151,-19.5 "/>
<text text-anchor="middle" x="76" y="-7.5" font-family="Helvetica,sans-Serif" font-size="10.00"> </text>
</a>
</g>
</g>
<!-- Node2 -->
<g id="node2" class="node">
<title>Node2</title>
<g id="a_node2"><a xlink:href="structaltintegration_1_1VbkNetworkType.html" target="_top" xlink:title="works as optional&lt;uint8_t&gt;">
<polygon fill="white" stroke="black" points="0,-105.5 0,-206.5 152,-206.5 152,-105.5 0,-105.5"/>
<text text-anchor="middle" x="76" y="-194.5" font-family="Helvetica,sans-Serif" font-size="10.00">altintegration::VbkNetworkType</text>
<polyline fill="none" stroke="black" points="0,-187.5 152,-187.5 "/>
<text text-anchor="start" x="8" y="-175.5" font-family="Helvetica,sans-Serif" font-size="10.00">+ hasValue</text>
<text text-anchor="start" x="8" y="-164.5" font-family="Helvetica,sans-Serif" font-size="10.00">+ value</text>
<polyline fill="none" stroke="black" points="0,-157.5 152,-157.5 "/>
<text text-anchor="start" x="8" y="-145.5" font-family="Helvetica,sans-Serif" font-size="10.00">+ operator bool()</text>
<text text-anchor="start" x="8" y="-134.5" font-family="Helvetica,sans-Serif" font-size="10.00">+ operator==()</text>
<text text-anchor="start" x="8" y="-123.5" font-family="Helvetica,sans-Serif" font-size="10.00">+ toPrettyString()</text>
<text text-anchor="start" x="8" y="-112.5" font-family="Helvetica,sans-Serif" font-size="10.00">+ putJson()</text>
</a>
</g>
</g>
<!-- Node2&#45;&gt;Node1 -->
<g id="edge1" class="edge">
<title>Node2&#45;&gt;Node1</title>
<path fill="none" stroke="#404040" d="M76,-105.24C76,-93.46 76,-81.06 76,-69.8"/>
<polygon fill="none" stroke="#404040" points="76,-69.66 72,-63.66 76,-57.66 80,-63.66 76,-69.66"/>
<text text-anchor="middle" x="108" y="-79" font-family="Helvetica,sans-Serif" font-size="10.00"> +networkType</text>
</g>
</g>
</svg>
