<?xml version="1.0" encoding="UTF-8" standalone="no"?>
<!DOCTYPE svg PUBLIC "-//W3C//DTD SVG 1.1//EN"
 "http://www.w3.org/Graphics/SVG/1.1/DTD/svg11.dtd">
<!-- Generated by graphviz version 3.0.0 (20220413.0242)
 -->
<!-- Title: altintegration::btc::BlockHeaderAndShortTxIDs Pages: 1 -->
<!--zoomable 1787 -->
<svg id="main" version="1.1" xmlns="http://www.w3.org/2000/svg" xmlns:xlink="http://www.w3.org/1999/xlink" xml:space="preserve" onload="init(evt)">
<style type="text/css"><![CDATA[
.edge:hover path { stroke: red; }
.edge:hover polygon { stroke: red; fill: red; }
]]></style>
<script type="text/javascript"><![CDATA[
var edges = document.getElementsByTagName('g');
if (edges && edges.length) {
  for (var i=0;i<edges.length;i++) {
    if (edges[i].id.substr(0,4)=='edge') {
      edges[i].setAttribute('class','edge');
    }
  }
}
]]></script>
        <defs>
                <circle id="rim" cx="0" cy="0" r="7"/>
                <circle id="rim2" cx="0" cy="0" r="3.5"/>
                <g id="zoomPlus">
                        <use xlink:href="#rim" fill="#404040">
                                <set attributeName="fill" to="#808080" begin="zoomplus.mouseover" end="zoomplus.mouseout"/>
                        </use>
                        <path d="M-4,0h8M0,-4v8" fill="none" stroke="white" stroke-width="1.5" pointer-events="none"/>
                </g>
                <g id="zoomMin">
                        <use xlink:href="#rim" fill="#404040">
                                <set attributeName="fill" to="#808080" begin="zoomminus.mouseover" end="zoomminus.mouseout"/>
                        </use>
                        <path d="M-4,0h8" fill="none" stroke="white" stroke-width="1.5" pointer-events="none"/>
                </g>
                <g id="dirArrow">
                        <path fill="none" stroke="white" stroke-width="1.5" d="M0,-3.0v7 M-2.5,-0.5L0,-3.0L2.5,-0.5"/>
                </g>
               <g id="resetDef">
                       <use xlink:href="#rim2" fill="#404040">
                               <set attributeName="fill" to="#808080" begin="reset.mouseover" end="reset.mouseout"/>
                       </use>
               </g>
        </defs>

<script type="text/javascript">
var viewWidth = 1165;
var viewHeight = 1787;
var sectionId = 'dynsection-0';
</script>
<script xlink:href="svgpan.js"/>
<svg id="graph" class="graph">
<g id="viewport">
<title>altintegration::btc::BlockHeaderAndShortTxIDs</title>
<polygon fill="white" stroke="transparent" points="-4,4 -4,-1783 1161,-1783 1161,4 -4,4"/>
<!-- Node1 -->
<g id="node1" class="node">
<title>Node1</title>
<g id="a_node1"><a xlink:title=" ">
<polygon fill="#bfbfbf" stroke="black" points="694,-0.5 694,-90.5 849,-90.5 849,-0.5 694,-0.5"/>
<text text-anchor="start" x="702" y="-78.5" font-family="Helvetica,sans-Serif" font-size="10.00">altintegration::btc</text>
<text text-anchor="middle" x="771.5" y="-67.5" font-family="Helvetica,sans-Serif" font-size="10.00">::BlockHeaderAndShortTxIDs</text>
<polyline fill="none" stroke="black" points="694,-60.5 849,-60.5 "/>
<text text-anchor="start" x="702" y="-48.5" font-family="Helvetica,sans-Serif" font-size="10.00">+ nonce</text>
<text text-anchor="start" x="702" y="-37.5" font-family="Helvetica,sans-Serif" font-size="10.00">+ ADD_SERIALIZE_METHODS</text>
<text text-anchor="start" x="702" y="-26.5" font-family="Helvetica,sans-Serif" font-size="10.00">+ SHORTTXIDS_LENGTH</text>
<polyline fill="none" stroke="black" points="694,-19.5 849,-19.5 "/>
<text text-anchor="start" x="702" y="-7.5" font-family="Helvetica,sans-Serif" font-size="10.00">+ SerializationOp()</text>
</a>
</g>
</g>
<!-- Node2 -->
<g id="node2" class="node">
<title>Node2</title>
<g id="a_node2"><a xlink:href="structaltintegration_1_1btc_1_1BlockHeader.html" target="_top" xlink:title=" ">
<polygon fill="white" stroke="#bfbfbf" points="829,-617.5 829,-707.5 984,-707.5 984,-617.5 829,-617.5"/>
<text text-anchor="start" x="837" y="-695.5" font-family="Helvetica,sans-Serif" font-size="10.00">altintegration::btc</text>
<text text-anchor="middle" x="906.5" y="-684.5" font-family="Helvetica,sans-Serif" font-size="10.00">::BlockHeader</text>
<polyline fill="none" stroke="#bfbfbf" points="829,-677.5 984,-677.5 "/>
<text text-anchor="start" x="837" y="-665.5" font-family="Helvetica,sans-Serif" font-size="10.00">+ ADD_SERIALIZE_METHODS</text>
<polyline fill="none" stroke="#bfbfbf" points="829,-658.5 984,-658.5 "/>
<text text-anchor="start" x="837" y="-646.5" font-family="Helvetica,sans-Serif" font-size="10.00">+ BlockHeader()</text>
<text text-anchor="start" x="837" y="-635.5" font-family="Helvetica,sans-Serif" font-size="10.00">+ BlockHeader()</text>
<text text-anchor="start" x="837" y="-624.5" font-family="Helvetica,sans-Serif" font-size="10.00">+ SerializationOp()</text>
</a>
</g>
</g>
<!-- Node2&#45;&gt;Node1 -->
<g id="edge1" class="edge">
<title>Node2&#45;&gt;Node1</title>
<path fill="none" stroke="#404040" d="M881.12,-617.21C866.3,-587.24 850.5,-546.19 850.5,-507.5 850.5,-507.5 850.5,-507.5 850.5,-171.5 850.5,-145.8 838.42,-121.08 823.7,-100.51"/>
<polygon fill="none" stroke="#404040" points="823.56,-100.32 816.75,-97.96 816.31,-90.76 823.12,-93.12 823.56,-100.32"/>
<text text-anchor="middle" x="869.5" y="-355" font-family="Helvetica,sans-Serif" font-size="10.00"> +header</text>
</g>
<!-- Node3 -->
<g id="node3" class="node">
<title>Node3</title>
<g id="a_node3"><a xlink:href="structaltintegration_1_1BtcBlock.html" target="_top" xlink:title="Bitcoin block.">
<polygon fill="white" stroke="black" points="973.5,-853.5 973.5,-1075.5 1089.5,-1075.5 1089.5,-853.5 973.5,-853.5"/>
<text text-anchor="middle" x="1031.5" y="-1063.5" font-family="Helvetica,sans-Serif" font-size="10.00">altintegration::BtcBlock</text>
<polyline fill="none" stroke="black" points="973.5,-1056.5 1089.5,-1056.5 "/>
<text text-anchor="start" x="981.5" y="-1044.5" font-family="Helvetica,sans-Serif" font-size="10.00"># version</text>
<text text-anchor="start" x="981.5" y="-1033.5" font-family="Helvetica,sans-Serif" font-size="10.00"># timestamp</text>
<text text-anchor="start" x="981.5" y="-1022.5" font-family="Helvetica,sans-Serif" font-size="10.00"># bits</text>
<text text-anchor="start" x="981.5" y="-1011.5" font-family="Helvetica,sans-Serif" font-size="10.00"># nonce</text>
<polyline fill="none" stroke="black" points="973.5,-1004.5 1089.5,-1004.5 "/>
<text text-anchor="start" x="981.5" y="-992.5" font-family="Helvetica,sans-Serif" font-size="10.00">+ BtcBlock()</text>
<text text-anchor="start" x="981.5" y="-981.5" font-family="Helvetica,sans-Serif" font-size="10.00">+ BtcBlock()</text>
<text text-anchor="start" x="981.5" y="-970.5" font-family="Helvetica,sans-Serif" font-size="10.00">+ toRaw()</text>
<text text-anchor="start" x="981.5" y="-959.5" font-family="Helvetica,sans-Serif" font-size="10.00">+ toVbkEncoding()</text>
<text text-anchor="start" x="981.5" y="-948.5" font-family="Helvetica,sans-Serif" font-size="10.00">+ estimateSize()</text>
<text text-anchor="start" x="981.5" y="-937.5" font-family="Helvetica,sans-Serif" font-size="10.00">+ calculateHash()</text>
<text text-anchor="start" x="981.5" y="-926.5" font-family="Helvetica,sans-Serif" font-size="10.00">+ getHash()</text>
<text text-anchor="start" x="981.5" y="-915.5" font-family="Helvetica,sans-Serif" font-size="10.00">+ toPrettyString()</text>
<text text-anchor="start" x="981.5" y="-904.5" font-family="Helvetica,sans-Serif" font-size="10.00">+ getVersion()</text>
<text text-anchor="start" x="981.5" y="-893.5" font-family="Helvetica,sans-Serif" font-size="10.00">+ getPreviousBlock()</text>
<text text-anchor="start" x="981.5" y="-882.5" font-family="Helvetica,sans-Serif" font-size="10.00">and 10 more...</text>
<text text-anchor="start" x="981.5" y="-871.5" font-family="Helvetica,sans-Serif" font-size="10.00">+ name()</text>
<text text-anchor="start" x="981.5" y="-860.5" font-family="Helvetica,sans-Serif" font-size="10.00"># invalidateHash()</text>
</a>
</g>
</g>
<!-- Node3&#45;&gt;Node2 -->
<g id="edge2" class="edge">
<title>Node3&#45;&gt;Node2</title>
<path fill="none" stroke="midnightblue" d="M981.81,-844.26C961.77,-796.16 939.89,-743.65 924.91,-707.68"/>
<polygon fill="none" stroke="midnightblue" points="978.59,-845.61 985.66,-853.49 985.05,-842.92 978.59,-845.61"/>
</g>
<!-- Node4 -->
<g id="node4" class="node">
<title>Node4</title>
<g id="a_node4"><a xlink:title=" ">
<polygon fill="white" stroke="black" points="1081,-1258.5 1081,-1315.5 1140,-1315.5 1140,-1258.5 1081,-1258.5"/>
<text text-anchor="middle" x="1110.5" y="-1303.5" font-family="Helvetica,sans-Serif" font-size="10.00">std::string</text>
<polyline fill="none" stroke="black" points="1081,-1296.5 1140,-1296.5 "/>
<text text-anchor="middle" x="1110.5" y="-1284.5" font-family="Helvetica,sans-Serif" font-size="10.00"> </text>
<polyline fill="none" stroke="black" points="1081,-1277.5 1140,-1277.5 "/>
<text text-anchor="middle" x="1110.5" y="-1265.5" font-family="Helvetica,sans-Serif" font-size="10.00"> </text>
</a>
</g>
</g>
<!-- Node4&#45;&gt;Node3 -->
<g id="edge3" class="edge">
<title>Node4&#45;&gt;Node3</title>
<path fill="none" stroke="#404040" d="M1103.7,-1258.4C1094.36,-1220.52 1076.99,-1150.04 1061.62,-1087.71"/>
<polygon fill="none" stroke="#404040" points="1061.55,-1087.42 1056.23,-1082.55 1058.68,-1075.77 1064,-1080.64 1061.55,-1087.42"/>
<text text-anchor="middle" x="1094" y="-1120.5" font-family="Helvetica,sans-Serif" font-size="10.00"> #_name</text>
</g>
<!-- Node5 -->
<g id="node5" class="node">
<title>Node5</title>
<g id="a_node5"><a xlink:title=" ">
<polygon fill="white" stroke="black" points="1064,-1528.5 1064,-1596.5 1157,-1596.5 1157,-1528.5 1064,-1528.5"/>
<text text-anchor="start" x="1072" y="-1584.5" font-family="Helvetica,sans-Serif" font-size="10.00">std::basic_string&lt;</text>
<text text-anchor="middle" x="1110.5" y="-1573.5" font-family="Helvetica,sans-Serif" font-size="10.00"> Char &gt;</text>
<polyline fill="none" stroke="black" points="1064,-1566.5 1157,-1566.5 "/>
<text text-anchor="middle" x="1110.5" y="-1554.5" font-family="Helvetica,sans-Serif" font-size="10.00"> </text>
<polyline fill="none" stroke="black" points="1064,-1547.5 1157,-1547.5 "/>
<text text-anchor="middle" x="1110.5" y="-1535.5" font-family="Helvetica,sans-Serif" font-size="10.00"> </text>
</a>
</g>
</g>
<!-- Node5&#45;&gt;Node4 -->
<g id="edge4" class="edge">
<title>Node5&#45;&gt;Node4</title>
<path fill="none" stroke="midnightblue" d="M1110.5,-1518.13C1110.5,-1461.32 1110.5,-1363.36 1110.5,-1315.68"/>
<polygon fill="none" stroke="midnightblue" points="1107,-1518.24 1110.5,-1528.24 1114,-1518.24 1107,-1518.24"/>
</g>
<!-- Node6 -->
<g id="node6" class="node">
<title>Node6</title>
<g id="a_node6"><a xlink:href="structaltintegration_1_1Blob.html" target="_top" xlink:title=" ">
<polygon fill="white" stroke="black" points="831,-1170.5 831,-1403.5 962,-1403.5 962,-1170.5 831,-1170.5"/>
<text text-anchor="start" x="839" y="-1391.5" font-family="Helvetica,sans-Serif" font-size="10.00">altintegration::Blob</text>
<text text-anchor="middle" x="896.5" y="-1380.5" font-family="Helvetica,sans-Serif" font-size="10.00">&lt; SHA256_HASH_SIZE &gt;</text>
<polyline fill="none" stroke="black" points="831,-1373.5 962,-1373.5 "/>
<text text-anchor="start" x="839" y="-1361.5" font-family="Helvetica,sans-Serif" font-size="10.00">+ data_</text>
<text text-anchor="start" x="839" y="-1350.5" font-family="Helvetica,sans-Serif" font-size="10.00">+ this</text>
<polyline fill="none" stroke="black" points="831,-1343.5 962,-1343.5 "/>
<text text-anchor="start" x="839" y="-1331.5" font-family="Helvetica,sans-Serif" font-size="10.00">+ Blob()</text>
<text text-anchor="start" x="839" y="-1320.5" font-family="Helvetica,sans-Serif" font-size="10.00">+ Blob()</text>
<text text-anchor="start" x="839" y="-1309.5" font-family="Helvetica,sans-Serif" font-size="10.00">+ Blob()</text>
<text text-anchor="start" x="839" y="-1298.5" font-family="Helvetica,sans-Serif" font-size="10.00">+ Blob()</text>
<text text-anchor="start" x="839" y="-1287.5" font-family="Helvetica,sans-Serif" font-size="10.00">+ Blob()</text>
<text text-anchor="start" x="839" y="-1276.5" font-family="Helvetica,sans-Serif" font-size="10.00">+ operator std::vector</text>
<text text-anchor="start" x="839" y="-1265.5" font-family="Helvetica,sans-Serif" font-size="10.00">&lt; uint8_t &gt;()</text>
<text text-anchor="start" x="839" y="-1254.5" font-family="Helvetica,sans-Serif" font-size="10.00">+ fill()</text>
<text text-anchor="start" x="839" y="-1243.5" font-family="Helvetica,sans-Serif" font-size="10.00">+ begin()</text>
<text text-anchor="start" x="839" y="-1232.5" font-family="Helvetica,sans-Serif" font-size="10.00">+ begin()</text>
<text text-anchor="start" x="839" y="-1221.5" font-family="Helvetica,sans-Serif" font-size="10.00">+ end()</text>
<text text-anchor="start" x="839" y="-1210.5" font-family="Helvetica,sans-Serif" font-size="10.00">and 20 more...</text>
<text text-anchor="start" x="839" y="-1199.5" font-family="Helvetica,sans-Serif" font-size="10.00">+ size()</text>
<text text-anchor="start" x="839" y="-1188.5" font-family="Helvetica,sans-Serif" font-size="10.00">+ fromHex()</text>
<text text-anchor="start" x="839" y="-1177.5" font-family="Helvetica,sans-Serif" font-size="10.00">+ assertFromHex()</text>
</a>
</g>
</g>
<!-- Node6&#45;&gt;Node3 -->
<g id="edge5" class="edge">
<title>Node6&#45;&gt;Node3</title>
<path fill="none" stroke="#404040" d="M917.27,-1170.45C924.62,-1144.33 934.45,-1117.43 947.5,-1094 952.85,-1084.39 957.83,-1084.75 964.5,-1076 965.06,-1075.26 965.62,-1074.52 966.18,-1073.78"/>
<polygon fill="none" stroke="#404040" points="966.34,-1073.56 966.63,-1066.35 973.4,-1063.85 973.1,-1071.06 966.34,-1073.56"/>
<text text-anchor="middle" x="981" y="-1126" font-family="Helvetica,sans-Serif" font-size="10.00"> #merkleRoot</text>
<text text-anchor="middle" x="981" y="-1115" font-family="Helvetica,sans-Serif" font-size="10.00">#previousBlock</text>
</g>
<!-- Node16 -->
<g id="node16" class="node">
<title>Node16</title>
<g id="a_node16"><a xlink:href="structaltintegration_1_1btc_1_1OutPoint.html" target="_top" xlink:title="An outpoint &#45; a combination of a transaction hash and an index n into its vout.">
<polygon fill="white" stroke="black" points="800,-925 800,-1004 955,-1004 955,-925 800,-925"/>
<text text-anchor="start" x="808" y="-992" font-family="Helvetica,sans-Serif" font-size="10.00">altintegration::btc</text>
<text text-anchor="middle" x="877.5" y="-981" font-family="Helvetica,sans-Serif" font-size="10.00">::OutPoint</text>
<polyline fill="none" stroke="black" points="800,-974 955,-974 "/>
<text text-anchor="start" x="808" y="-962" font-family="Helvetica,sans-Serif" font-size="10.00">+ n</text>
<text text-anchor="start" x="808" y="-951" font-family="Helvetica,sans-Serif" font-size="10.00">+ ADD_SERIALIZE_METHODS</text>
<polyline fill="none" stroke="black" points="800,-944 955,-944 "/>
<text text-anchor="start" x="808" y="-932" font-family="Helvetica,sans-Serif" font-size="10.00">+ SerializationOp()</text>
</a>
</g>
</g>
<!-- Node6&#45;&gt;Node16 -->
<g id="edge17" class="edge">
<title>Node6&#45;&gt;Node16</title>
<path fill="none" stroke="#404040" d="M889.64,-1170.29C886.51,-1117.48 882.96,-1057.66 880.52,-1016.37"/>
<polygon fill="none" stroke="#404040" points="880.5,-1016.16 876.16,-1010.41 879.79,-1004.18 884.14,-1009.93 880.5,-1016.16"/>
<text text-anchor="middle" x="903.5" y="-1120.5" font-family="Helvetica,sans-Serif" font-size="10.00"> +hash</text>
</g>
<!-- Node7 -->
<g id="node7" class="node">
<title>Node7</title>
<g id="a_node7"><a xlink:href="structaltintegration_1_1Blob.html" target="_top" xlink:title="Contiguous byte array of fixed size.">
<polygon fill="white" stroke="black" points="881.5,-1451.5 881.5,-1673.5 1001.5,-1673.5 1001.5,-1451.5 881.5,-1451.5"/>
<text text-anchor="middle" x="941.5" y="-1661.5" font-family="Helvetica,sans-Serif" font-size="10.00">altintegration::Blob&lt; N &gt;</text>
<polyline fill="none" stroke="black" points="881.5,-1654.5 1001.5,-1654.5 "/>
<text text-anchor="start" x="889.5" y="-1642.5" font-family="Helvetica,sans-Serif" font-size="10.00">+ data_</text>
<text text-anchor="start" x="889.5" y="-1631.5" font-family="Helvetica,sans-Serif" font-size="10.00">+ this</text>
<polyline fill="none" stroke="black" points="881.5,-1624.5 1001.5,-1624.5 "/>
<text text-anchor="start" x="889.5" y="-1612.5" font-family="Helvetica,sans-Serif" font-size="10.00">+ Blob()</text>
<text text-anchor="start" x="889.5" y="-1601.5" font-family="Helvetica,sans-Serif" font-size="10.00">+ Blob()</text>
<text text-anchor="start" x="889.5" y="-1590.5" font-family="Helvetica,sans-Serif" font-size="10.00">+ Blob()</text>
<text text-anchor="start" x="889.5" y="-1579.5" font-family="Helvetica,sans-Serif" font-size="10.00">+ Blob()</text>
<text text-anchor="start" x="889.5" y="-1568.5" font-family="Helvetica,sans-Serif" font-size="10.00">+ Blob()</text>
<text text-anchor="start" x="889.5" y="-1557.5" font-family="Helvetica,sans-Serif" font-size="10.00">+ operator std::vector</text>
<text text-anchor="start" x="889.5" y="-1546.5" font-family="Helvetica,sans-Serif" font-size="10.00">&lt; uint8_t &gt;()</text>
<text text-anchor="start" x="889.5" y="-1535.5" font-family="Helvetica,sans-Serif" font-size="10.00">+ fill()</text>
<text text-anchor="start" x="889.5" y="-1524.5" font-family="Helvetica,sans-Serif" font-size="10.00">+ begin()</text>
<text text-anchor="start" x="889.5" y="-1513.5" font-family="Helvetica,sans-Serif" font-size="10.00">+ begin()</text>
<text text-anchor="start" x="889.5" y="-1502.5" font-family="Helvetica,sans-Serif" font-size="10.00">+ end()</text>
<text text-anchor="start" x="889.5" y="-1491.5" font-family="Helvetica,sans-Serif" font-size="10.00">and 20 more...</text>
<text text-anchor="start" x="889.5" y="-1480.5" font-family="Helvetica,sans-Serif" font-size="10.00">+ size()</text>
<text text-anchor="start" x="889.5" y="-1469.5" font-family="Helvetica,sans-Serif" font-size="10.00">+ fromHex()</text>
<text text-anchor="start" x="889.5" y="-1458.5" font-family="Helvetica,sans-Serif" font-size="10.00">+ assertFromHex()</text>
</a>
</g>
</g>
<!-- Node7&#45;&gt;Node3 -->
<g id="edge7" class="edge">
<title>Node7&#45;&gt;Node3</title>
<path fill="none" stroke="#404040" d="M1001.61,-1467.24C1006.76,-1456.03 1011.24,-1444.48 1014.5,-1433 1032.19,-1370.65 1034.43,-1204.33 1033.61,-1087.92"/>
<polygon fill="none" stroke="#404040" points="1033.61,-1087.76 1029.56,-1081.79 1033.51,-1075.76 1037.56,-1081.72 1033.61,-1087.76"/>
<text text-anchor="middle" x="1050.5" y="-1284.5" font-family="Helvetica,sans-Serif" font-size="10.00"> #hash_</text>
</g>
<!-- Node7&#45;&gt;Node6 -->
<g id="edge6" class="edge">
<title>Node7&#45;&gt;Node6</title>
<path fill="none" stroke="orange" d="M899.1,-1441.56C898.52,-1438.69 897.98,-1435.83 897.5,-1433 895.9,-1423.57 894.75,-1413.74 893.95,-1403.85"/>
<polygon fill="orange" stroke="orange" points="895.69,-1442.33 901.26,-1451.34 902.52,-1440.82 895.69,-1442.33"/>
<text text-anchor="middle" x="956" y="-1425" font-family="Helvetica,sans-Serif" font-size="10.00"> &lt; SHA256_HASH_SIZE &gt;</text>
</g>
<!-- Node8 -->
<g id="node8" class="node">
<title>Node8</title>
<g id="a_node8"><a xlink:title=" ">
<polygon fill="white" stroke="black" points="696,-1094.5 696,-1151.5 809,-1151.5 809,-1094.5 696,-1094.5"/>
<text text-anchor="middle" x="752.5" y="-1139.5" font-family="Helvetica,sans-Serif" font-size="10.00">std::vector&lt; uint64_t &gt;</text>
<polyline fill="none" stroke="black" points="696,-1132.5 809,-1132.5 "/>
<text text-anchor="start" x="704" y="-1120.5" font-family="Helvetica,sans-Serif" font-size="10.00">+ elements</text>
<polyline fill="none" stroke="black" points="696,-1113.5 809,-1113.5 "/>
<text text-anchor="middle" x="752.5" y="-1101.5" font-family="Helvetica,sans-Serif" font-size="10.00"> </text>
</a>
</g>
</g>
<!-- Node8&#45;&gt;Node1 -->
<g id="edge8" class="edge">
<title>Node8&#45;&gt;Node1</title>
<path fill="none" stroke="#404040" d="M755.51,-1094.31C760.87,-1042.55 771.5,-927.62 771.5,-830.5 771.5,-830.5 771.5,-830.5 771.5,-171.5 771.5,-149.1 771.5,-124.43 771.5,-102.98"/>
<polygon fill="none" stroke="#404040" points="771.5,-102.76 767.5,-96.76 771.5,-90.76 775.5,-96.76 771.5,-102.76"/>
<text text-anchor="middle" x="797" y="-504" font-family="Helvetica,sans-Serif" font-size="10.00"> +shorttxids</text>
</g>
<!-- Node9 -->
<g id="node9" class="node">
<title>Node9</title>
<g id="a_node9"><a xlink:title=" ">
<polygon fill="white" stroke="black" points="468.5,-1534 468.5,-1591 552.5,-1591 552.5,-1534 468.5,-1534"/>
<text text-anchor="middle" x="510.5" y="-1579" font-family="Helvetica,sans-Serif" font-size="10.00">std::vector&lt; T &gt;</text>
<polyline fill="none" stroke="black" points="468.5,-1572 552.5,-1572 "/>
<text text-anchor="middle" x="510.5" y="-1560" font-family="Helvetica,sans-Serif" font-size="10.00"> </text>
<polyline fill="none" stroke="black" points="468.5,-1553 552.5,-1553 "/>
<text text-anchor="middle" x="510.5" y="-1541" font-family="Helvetica,sans-Serif" font-size="10.00"> </text>
</a>
</g>
</g>
<!-- Node9&#45;&gt;Node8 -->
<g id="edge9" class="edge">
<title>Node9&#45;&gt;Node8</title>
<path fill="none" stroke="orange" d="M561.39,-1533.06C597.32,-1510.43 643.81,-1475.56 671.5,-1433 730.93,-1341.65 746.85,-1208.48 751.04,-1151.51"/>
<polygon fill="orange" stroke="orange" points="559.18,-1530.31 552.51,-1538.54 562.85,-1536.27 559.18,-1530.31"/>
<text text-anchor="middle" x="705.5" y="-1425" font-family="Helvetica,sans-Serif" font-size="10.00"> &lt; uint64_t &gt;</text>
</g>
<!-- Node11 -->
<g id="node11" class="node">
<title>Node11</title>
<g id="a_node11"><a xlink:title=" ">
<polygon fill="white" stroke="black" points="591,-138.5 591,-206.5 724,-206.5 724,-138.5 591,-138.5"/>
<text text-anchor="start" x="599" y="-194.5" font-family="Helvetica,sans-Serif" font-size="10.00">std::vector&lt; altintegration</text>
<text text-anchor="middle" x="657.5" y="-183.5" font-family="Helvetica,sans-Serif" font-size="10.00">::btc::PrefilledTransaction &gt;</text>
<polyline fill="none" stroke="black" points="591,-176.5 724,-176.5 "/>
<text text-anchor="middle" x="657.5" y="-164.5" font-family="Helvetica,sans-Serif" font-size="10.00"> </text>
<polyline fill="none" stroke="black" points="591,-157.5 724,-157.5 "/>
<text text-anchor="middle" x="657.5" y="-145.5" font-family="Helvetica,sans-Serif" font-size="10.00"> </text>
</a>
</g>
</g>
<!-- Node9&#45;&gt;Node11 -->
<g id="edge28" class="edge">
<title>Node9&#45;&gt;Node11</title>
<path fill="none" stroke="orange" d="M550.56,-1526.69C581.48,-1497.31 622.42,-1452.4 643.5,-1404 664.23,-1356.39 657.5,-1339.93 657.5,-1288 657.5,-1288 657.5,-1288 657.5,-293 657.5,-263.85 657.5,-230.7 657.5,-206.73"/>
<polygon fill="orange" stroke="orange" points="547.85,-1524.43 542.94,-1533.81 552.63,-1529.54 547.85,-1524.43"/>
<text text-anchor="start" x="657.5" y="-665.5" font-family="Helvetica,sans-Serif" font-size="10.00"> &lt; altintegration::btc</text>
<text text-anchor="middle" x="707" y="-654.5" font-family="Helvetica,sans-Serif" font-size="10.00">::PrefilledTransaction &gt;</text>
</g>
<!-- Node14 -->
<g id="node14" class="node">
<title>Node14</title>
<g id="a_node14"><a xlink:title=" ">
<polygon fill="white" stroke="black" points="216,-530.5 216,-598.5 341,-598.5 341,-530.5 216,-530.5"/>
<text text-anchor="start" x="224" y="-586.5" font-family="Helvetica,sans-Serif" font-size="10.00">std::vector&lt; altintegration</text>
<text text-anchor="middle" x="278.5" y="-575.5" font-family="Helvetica,sans-Serif" font-size="10.00">::btc::TxIn &gt;</text>
<polyline fill="none" stroke="black" points="216,-568.5 341,-568.5 "/>
<text text-anchor="middle" x="278.5" y="-556.5" font-family="Helvetica,sans-Serif" font-size="10.00"> </text>
<polyline fill="none" stroke="black" points="216,-549.5 341,-549.5 "/>
<text text-anchor="middle" x="278.5" y="-537.5" font-family="Helvetica,sans-Serif" font-size="10.00"> </text>
</a>
</g>
</g>
<!-- Node9&#45;&gt;Node14 -->
<g id="edge23" class="edge">
<title>Node9&#45;&gt;Node14</title>
<path fill="none" stroke="orange" d="M458.69,-1548.05C359.72,-1518.9 153.5,-1439.91 153.5,-1288 153.5,-1288 153.5,-1288 153.5,-765 153.5,-698.17 204.49,-635.33 241.33,-598.64"/>
<polygon fill="orange" stroke="orange" points="457.92,-1551.47 468.5,-1550.88 459.86,-1544.75 457.92,-1551.47"/>
<text text-anchor="start" x="153.5" y="-967.5" font-family="Helvetica,sans-Serif" font-size="10.00"> &lt; altintegration::btc</text>
<text text-anchor="middle" x="196" y="-956.5" font-family="Helvetica,sans-Serif" font-size="10.00">::TxIn &gt;</text>
</g>
<!-- Node17 -->
<g id="node17" class="node">
<title>Node17</title>
<g id="a_node17"><a xlink:title=" ">
<polygon fill="white" stroke="black" points="398,-1258.5 398,-1315.5 505,-1315.5 505,-1258.5 398,-1258.5"/>
<text text-anchor="middle" x="451.5" y="-1303.5" font-family="Helvetica,sans-Serif" font-size="10.00">std::vector&lt; uint8_t &gt;</text>
<polyline fill="none" stroke="black" points="398,-1296.5 505,-1296.5 "/>
<text text-anchor="start" x="406" y="-1284.5" font-family="Helvetica,sans-Serif" font-size="10.00">+ elements</text>
<polyline fill="none" stroke="black" points="398,-1277.5 505,-1277.5 "/>
<text text-anchor="middle" x="451.5" y="-1265.5" font-family="Helvetica,sans-Serif" font-size="10.00"> </text>
</a>
</g>
</g>
<!-- Node9&#45;&gt;Node17 -->
<g id="edge19" class="edge">
<title>Node9&#45;&gt;Node17</title>
<path fill="none" stroke="orange" d="M501.83,-1523.93C495.98,-1498.33 488.13,-1463.65 481.5,-1433 472.67,-1392.17 462.96,-1344.75 457.05,-1315.56"/>
<polygon fill="orange" stroke="orange" points="498.49,-1524.99 504.13,-1533.96 505.31,-1523.43 498.49,-1524.99"/>
<text text-anchor="middle" x="506" y="-1425" font-family="Helvetica,sans-Serif" font-size="10.00"> &lt; uint8_t &gt;</text>
</g>
<!-- Node18 -->
<g id="node18" class="node">
<title>Node18</title>
<g id="a_node18"><a xlink:title=" ">
<polygon fill="white" stroke="black" points="514,-930.5 514,-998.5 629,-998.5 629,-930.5 514,-930.5"/>
<text text-anchor="start" x="522" y="-986.5" font-family="Helvetica,sans-Serif" font-size="10.00">std::vector&lt; std::vector</text>
<text text-anchor="middle" x="571.5" y="-975.5" font-family="Helvetica,sans-Serif" font-size="10.00">&lt; uint8_t &gt; &gt;</text>
<polyline fill="none" stroke="black" points="514,-968.5 629,-968.5 "/>
<text text-anchor="middle" x="571.5" y="-956.5" font-family="Helvetica,sans-Serif" font-size="10.00"> </text>
<polyline fill="none" stroke="black" points="514,-949.5 629,-949.5 "/>
<text text-anchor="middle" x="571.5" y="-937.5" font-family="Helvetica,sans-Serif" font-size="10.00"> </text>
</a>
</g>
</g>
<!-- Node9&#45;&gt;Node18 -->
<g id="edge22" class="edge">
<title>Node9&#45;&gt;Node18</title>
<path fill="none" stroke="orange" d="M517.06,-1523.73C521.33,-1498.18 526.78,-1463.63 530.5,-1433 550.23,-1270.63 564.23,-1075.43 569.35,-998.74"/>
<polygon fill="orange" stroke="orange" points="513.58,-1523.31 515.37,-1533.75 520.48,-1524.47 513.58,-1523.31"/>
<text text-anchor="start" x="556.5" y="-1290" font-family="Helvetica,sans-Serif" font-size="10.00"> &lt; std::vector&lt; uint8</text>
<text text-anchor="middle" x="599" y="-1279" font-family="Helvetica,sans-Serif" font-size="10.00">_t &gt; &gt;</text>
</g>
<!-- Node19 -->
<g id="node19" class="node">
<title>Node19</title>
<g id="a_node19"><a xlink:title=" ">
<polygon fill="white" stroke="black" points="0,-732 0,-800 125,-800 125,-732 0,-732"/>
<text text-anchor="start" x="8" y="-788" font-family="Helvetica,sans-Serif" font-size="10.00">std::vector&lt; altintegration</text>
<text text-anchor="middle" x="62.5" y="-777" font-family="Helvetica,sans-Serif" font-size="10.00">::btc::TxOut &gt;</text>
<polyline fill="none" stroke="black" points="0,-770 125,-770 "/>
<text text-anchor="middle" x="62.5" y="-758" font-family="Helvetica,sans-Serif" font-size="10.00"> </text>
<polyline fill="none" stroke="black" points="0,-751 125,-751 "/>
<text text-anchor="middle" x="62.5" y="-739" font-family="Helvetica,sans-Serif" font-size="10.00"> </text>
</a>
</g>
</g>
<!-- Node9&#45;&gt;Node19 -->
<g id="edge27" class="edge">
<title>Node9&#45;&gt;Node19</title>
<path fill="none" stroke="orange" d="M458.02,-1558.02C378.03,-1549.89 225.84,-1522.84 139.5,-1433 -33.3,-1253.2 29.2,-907.87 54.19,-800.02"/>
<polygon fill="orange" stroke="orange" points="458.05,-1561.54 468.34,-1559.01 458.72,-1554.58 458.05,-1561.54"/>
<text text-anchor="start" x="26.5" y="-1126" font-family="Helvetica,sans-Serif" font-size="10.00"> &lt; altintegration::btc</text>
<text text-anchor="middle" x="69" y="-1115" font-family="Helvetica,sans-Serif" font-size="10.00">::TxOut &gt;</text>
</g>
<!-- Node10 -->
<g id="node10" class="node">
<title>Node10</title>
<g id="a_node10"><a xlink:title=" ">
<polygon fill="white" stroke="#bfbfbf" points="496,-1721.5 496,-1778.5 525,-1778.5 525,-1721.5 496,-1721.5"/>
<text text-anchor="middle" x="510.5" y="-1766.5" font-family="Helvetica,sans-Serif" font-size="10.00">T</text>
<polyline fill="none" stroke="#bfbfbf" points="496,-1759.5 525,-1759.5 "/>
<text text-anchor="middle" x="510.5" y="-1747.5" font-family="Helvetica,sans-Serif" font-size="10.00"> </text>
<polyline fill="none" stroke="#bfbfbf" points="496,-1740.5 525,-1740.5 "/>
<text text-anchor="middle" x="510.5" y="-1728.5" font-family="Helvetica,sans-Serif" font-size="10.00"> </text>
</a>
</g>
</g>
<!-- Node10&#45;&gt;Node9 -->
<g id="edge10" class="edge">
<title>Node10&#45;&gt;Node9</title>
<path fill="none" stroke="#404040" d="M510.5,-1721.23C510.5,-1689.99 510.5,-1639 510.5,-1603.48"/>
<polygon fill="none" stroke="#404040" points="510.5,-1603.16 506.5,-1597.16 510.5,-1591.16 514.5,-1597.16 510.5,-1603.16"/>
<text text-anchor="middle" x="535" y="-1695" font-family="Helvetica,sans-Serif" font-size="10.00"> +elements</text>
</g>
<!-- Node11&#45;&gt;Node1 -->
<g id="edge11" class="edge">
<title>Node11&#45;&gt;Node1</title>
<path fill="none" stroke="#404040" d="M679.38,-138.38C686.36,-128.59 694.39,-118.07 702.5,-109 705.42,-105.74 708.49,-102.46 711.65,-99.22"/>
<polygon fill="none" stroke="#404040" points="711.68,-99.19 713.12,-92.12 720.19,-90.72 718.76,-97.79 711.68,-99.19"/>
<text text-anchor="middle" x="730" y="-112" font-family="Helvetica,sans-Serif" font-size="10.00"> +prefilledtxn</text>
</g>
<!-- Node12 -->
<g id="node12" class="node">
<title>Node12</title>
<g id="a_node12"><a xlink:href="structaltintegration_1_1btc_1_1PrefilledTransaction.html" target="_top" xlink:title=" ">
<polygon fill="white" stroke="#bfbfbf" points="201,-254.5 201,-333.5 356,-333.5 356,-254.5 201,-254.5"/>
<text text-anchor="start" x="209" y="-321.5" font-family="Helvetica,sans-Serif" font-size="10.00">altintegration::btc</text>
<text text-anchor="middle" x="278.5" y="-310.5" font-family="Helvetica,sans-Serif" font-size="10.00">::PrefilledTransaction</text>
<polyline fill="none" stroke="#bfbfbf" points="201,-303.5 356,-303.5 "/>
<text text-anchor="start" x="209" y="-291.5" font-family="Helvetica,sans-Serif" font-size="10.00">+ index</text>
<text text-anchor="start" x="209" y="-280.5" font-family="Helvetica,sans-Serif" font-size="10.00">+ ADD_SERIALIZE_METHODS</text>
<polyline fill="none" stroke="#bfbfbf" points="201,-273.5 356,-273.5 "/>
<text text-anchor="start" x="209" y="-261.5" font-family="Helvetica,sans-Serif" font-size="10.00">+ SerializationOp()</text>
</a>
</g>
</g>
<!-- Node12&#45;&gt;Node11 -->
<g id="edge12" class="edge">
<title>Node12&#45;&gt;Node11</title>
<path fill="none" stroke="#404040" d="M356.11,-268.53C421.28,-247.98 513.96,-218.76 579.3,-198.16"/>
<polygon fill="none" stroke="#404040" points="579.31,-198.15 583.83,-192.53 590.76,-194.54 586.24,-200.16 579.31,-198.15"/>
<text text-anchor="middle" x="516" y="-228" font-family="Helvetica,sans-Serif" font-size="10.00"> +elements</text>
</g>
<!-- Node13 -->
<g id="node13" class="node">
<title>Node13</title>
<g id="a_node13"><a xlink:href="structaltintegration_1_1btc_1_1Transaction.html" target="_top" xlink:title="The basic transaction that is broadcasted on the network and contained in blocks.">
<polygon fill="white" stroke="black" points="233.5,-381.5 233.5,-482.5 323.5,-482.5 323.5,-381.5 233.5,-381.5"/>
<text text-anchor="start" x="241.5" y="-470.5" font-family="Helvetica,sans-Serif" font-size="10.00">altintegration::btc</text>
<text text-anchor="middle" x="278.5" y="-459.5" font-family="Helvetica,sans-Serif" font-size="10.00">::Transaction</text>
<polyline fill="none" stroke="black" points="233.5,-452.5 323.5,-452.5 "/>
<text text-anchor="start" x="241.5" y="-440.5" font-family="Helvetica,sans-Serif" font-size="10.00">+ nVersion</text>
<text text-anchor="start" x="241.5" y="-429.5" font-family="Helvetica,sans-Serif" font-size="10.00">+ nLockTime</text>
<polyline fill="none" stroke="black" points="233.5,-422.5 323.5,-422.5 "/>
<text text-anchor="start" x="241.5" y="-410.5" font-family="Helvetica,sans-Serif" font-size="10.00">+ Serialize()</text>
<text text-anchor="start" x="241.5" y="-399.5" font-family="Helvetica,sans-Serif" font-size="10.00">+ Unserialize()</text>
<text text-anchor="start" x="241.5" y="-388.5" font-family="Helvetica,sans-Serif" font-size="10.00">+ HasWitness()</text>
</a>
</g>
</g>
<!-- Node13&#45;&gt;Node12 -->
<g id="edge13" class="edge">
<title>Node13&#45;&gt;Node12</title>
<path fill="none" stroke="#404040" d="M278.5,-381.13C278.5,-369.66 278.5,-357.45 278.5,-345.94"/>
<polygon fill="none" stroke="#404040" points="278.5,-345.79 274.5,-339.79 278.5,-333.79 282.5,-339.79 278.5,-345.79"/>
<text text-anchor="middle" x="286.5" y="-355" font-family="Helvetica,sans-Serif" font-size="10.00"> +tx</text>
</g>
<!-- Node14&#45;&gt;Node13 -->
<g id="edge14" class="edge">
<title>Node14&#45;&gt;Node13</title>
<path fill="none" stroke="#404040" d="M278.5,-530.23C278.5,-519.47 278.5,-507.17 278.5,-495.02"/>
<polygon fill="none" stroke="#404040" points="278.5,-494.98 274.5,-488.98 278.5,-482.98 282.5,-488.98 278.5,-494.98"/>
<text text-anchor="middle" x="289.5" y="-504" font-family="Helvetica,sans-Serif" font-size="10.00"> +vin</text>
</g>
<!-- Node15 -->
<g id="node15" class="node">
<title>Node15</title>
<g id="a_node15"><a xlink:href="structaltintegration_1_1btc_1_1TxIn.html" target="_top" xlink:title="An input of a transaction.">
<polygon fill="white" stroke="black" points="423,-726.5 423,-805.5 578,-805.5 578,-726.5 423,-726.5"/>
<text text-anchor="start" x="431" y="-793.5" font-family="Helvetica,sans-Serif" font-size="10.00">altintegration::btc</text>
<text text-anchor="middle" x="500.5" y="-782.5" font-family="Helvetica,sans-Serif" font-size="10.00">::TxIn</text>
<polyline fill="none" stroke="black" points="423,-775.5 578,-775.5 "/>
<text text-anchor="start" x="431" y="-763.5" font-family="Helvetica,sans-Serif" font-size="10.00">+ nSequence</text>
<text text-anchor="start" x="431" y="-752.5" font-family="Helvetica,sans-Serif" font-size="10.00">+ ADD_SERIALIZE_METHODS</text>
<polyline fill="none" stroke="black" points="423,-745.5 578,-745.5 "/>
<text text-anchor="start" x="431" y="-733.5" font-family="Helvetica,sans-Serif" font-size="10.00">+ SerializationOp()</text>
</a>
</g>
</g>
<!-- Node15&#45;&gt;Node14 -->
<g id="edge15" class="edge">
<title>Node15&#45;&gt;Node14</title>
<path fill="none" stroke="#404040" d="M457.43,-726.3C419.26,-691.99 363.67,-642.04 324.61,-606.94"/>
<polygon fill="none" stroke="#404040" points="324.48,-606.82 317.34,-605.78 315.55,-598.8 322.69,-599.83 324.48,-606.82"/>
<text text-anchor="middle" x="460" y="-660" font-family="Helvetica,sans-Serif" font-size="10.00"> +elements</text>
</g>
<!-- Node16&#45;&gt;Node15 -->
<g id="edge16" class="edge">
<title>Node16&#45;&gt;Node15</title>
<path fill="none" stroke="#404040" d="M803.47,-924.91C740.8,-892.25 650.97,-845.43 585.4,-811.25"/>
<polygon fill="none" stroke="#404040" points="585.33,-811.21 578.16,-811.99 574.69,-805.67 581.86,-804.89 585.33,-811.21"/>
<text text-anchor="middle" x="643" y="-827" font-family="Helvetica,sans-Serif" font-size="10.00"> +prevout</text>
</g>
<!-- Node17&#45;&gt;Node15 -->
<g id="edge18" class="edge">
<title>Node17&#45;&gt;Node15</title>
<path fill="none" stroke="#404040" d="M447.68,-1258.36C439,-1188.96 421.19,-1002.2 457.5,-853 460.49,-840.71 465.48,-828.16 471.02,-816.58"/>
<polygon fill="none" stroke="#404040" points="471.05,-816.53 470.18,-809.37 476.46,-805.82 477.32,-812.97 471.05,-816.53"/>
<text text-anchor="middle" x="481" y="-962" font-family="Helvetica,sans-Serif" font-size="10.00"> +scriptSig</text>
</g>
<!-- Node17&#45;&gt;Node18 -->
<g id="edge21" class="edge">
<title>Node17&#45;&gt;Node18</title>
<path fill="none" stroke="#404040" d="M450.97,-1258.4C451.3,-1219.67 455.9,-1147.9 482.5,-1094 487.37,-1084.13 492.69,-1084.64 499.5,-1076 516.03,-1055.02 532.45,-1030.21 545.42,-1009.42"/>
<polygon fill="none" stroke="#404040" points="545.57,-1009.17 545.32,-1001.96 551.87,-998.96 552.13,-1006.16 545.57,-1009.17"/>
<text text-anchor="middle" x="507" y="-1120.5" font-family="Helvetica,sans-Serif" font-size="10.00"> +elements</text>
</g>
<!-- Node20 -->
<g id="node20" class="node">
<title>Node20</title>
<g id="a_node20"><a xlink:href="structaltintegration_1_1btc_1_1TxOut.html" target="_top" xlink:title="An output of a transaction.">
<polygon fill="white" stroke="black" points="257,-925 257,-1004 412,-1004 412,-925 257,-925"/>
<text text-anchor="start" x="265" y="-992" font-family="Helvetica,sans-Serif" font-size="10.00">altintegration::btc</text>
<text text-anchor="middle" x="334.5" y="-981" font-family="Helvetica,sans-Serif" font-size="10.00">::TxOut</text>
<polyline fill="none" stroke="black" points="257,-974 412,-974 "/>
<text text-anchor="start" x="265" y="-962" font-family="Helvetica,sans-Serif" font-size="10.00">+ nValue</text>
<text text-anchor="start" x="265" y="-951" font-family="Helvetica,sans-Serif" font-size="10.00">+ ADD_SERIALIZE_METHODS</text>
<polyline fill="none" stroke="black" points="257,-944 412,-944 "/>
<text text-anchor="start" x="265" y="-932" font-family="Helvetica,sans-Serif" font-size="10.00">+ SerializationOp()</text>
</a>
</g>
</g>
<!-- Node17&#45;&gt;Node20 -->
<g id="edge26" class="edge">
<title>Node17&#45;&gt;Node20</title>
<path fill="none" stroke="#404040" d="M429.73,-1258.43C410.36,-1232.46 382.79,-1191.72 367.5,-1152 350.57,-1108.03 342.25,-1054.85 338.21,-1016.54"/>
<polygon fill="none" stroke="#404040" points="338.17,-1016.1 333.6,-1010.52 337,-1004.16 341.56,-1009.74 338.17,-1016.1"/>
<text text-anchor="middle" x="401" y="-1120.5" font-family="Helvetica,sans-Serif" font-size="10.00"> +scriptPubKey</text>
</g>
<!-- Node18&#45;&gt;Node15 -->
<g id="edge20" class="edge">
<title>Node18&#45;&gt;Node15</title>
<path fill="none" stroke="#404040" d="M559.46,-930.17C548.26,-899.18 531.43,-852.59 518.61,-817.12"/>
<polygon fill="none" stroke="#404040" points="518.51,-816.85 512.71,-812.56 514.43,-805.56 520.23,-809.84 518.51,-816.85"/>
<text text-anchor="middle" x="557.5" y="-827" font-family="Helvetica,sans-Serif" font-size="10.00"> +scriptWitness</text>
</g>
<!-- Node19&#45;&gt;Node13 -->
<g id="edge24" class="edge">
<title>Node19&#45;&gt;Node13</title>
<path fill="none" stroke="#404040" d="M74.66,-731.87C92.94,-684.49 130.55,-595.83 178.5,-530 191.72,-511.86 208.5,-494.12 224.51,-478.88"/>
<polygon fill="none" stroke="#404040" points="224.53,-478.86 226.19,-471.84 233.31,-470.68 231.65,-477.7 224.53,-478.86"/>
<text text-anchor="middle" x="192.5" y="-562" font-family="Helvetica,sans-Serif" font-size="10.00"> +vout</text>
</g>
<!-- Node20&#45;&gt;Node19 -->
<g id="edge25" class="edge">
<title>Node20&#45;&gt;Node19</title>
<path fill="none" stroke="#404040" d="M308.77,-924.82C291.98,-901.76 268.41,-873.15 242.5,-853 210.82,-828.35 170.93,-808.4 136.76,-793.94"/>
<polygon fill="none" stroke="#404040" points="136.5,-793.83 129.42,-795.23 125.41,-789.24 132.48,-787.84 136.5,-793.83"/>
<text text-anchor="middle" x="241" y="-827" font-family="Helvetica,sans-Serif" font-size="10.00"> +elements</text>
</g>
</g>
</svg>
        <g id="navigator" transform="translate(0 0)" fill="#404254">
                <rect fill="#f2f5e9" fill-opacity="0.5" stroke="#606060" stroke-width=".5" x="0" y="0" width="60" height="60"/>
                <use id="zoomplus" xlink:href="#zoomPlus" x="17" y="9" onmousedown="handleZoom(evt,'in')"/>
                <use id="zoomminus" xlink:href="#zoomMin" x="42" y="9" onmousedown="handleZoom(evt,'out')"/>
                <use id="reset" xlink:href="#resetDef" x="30" y="36" onmousedown="handleReset()"/>
                <g id="arrowUp" xlink:href="#dirArrow" transform="translate(30 24)" onmousedown="handlePan(0,-1)">
                  <use xlink:href="#rim" fill="#404040">
                        <set attributeName="fill" to="#808080" begin="arrowUp.mouseover" end="arrowUp.mouseout"/>
                  </use>
                  <path fill="none" stroke="white" stroke-width="1.5" d="M0,-3.0v7 M-2.5,-0.5L0,-3.0L2.5,-0.5"/>
                </g>
                <g id="arrowRight" xlink:href="#dirArrow" transform="rotate(90) translate(36 -43)" onmousedown="handlePan(1,0)">
                  <use xlink:href="#rim" fill="#404040">
                        <set attributeName="fill" to="#808080" begin="arrowRight.mouseover" end="arrowRight.mouseout"/>
                  </use>
                  <path fill="none" stroke="white" stroke-width="1.5" d="M0,-3.0v7 M-2.5,-0.5L0,-3.0L2.5,-0.5"/>
                </g>
                <g id="arrowDown" xlink:href="#dirArrow" transform="rotate(180) translate(-30 -48)" onmousedown="handlePan(0,1)">
                  <use xlink:href="#rim" fill="#404040">
                        <set attributeName="fill" to="#808080" begin="arrowDown.mouseover" end="arrowDown.mouseout"/>
                  </use>
                  <path fill="none" stroke="white" stroke-width="1.5" d="M0,-3.0v7 M-2.5,-0.5L0,-3.0L2.5,-0.5"/>
                </g>
                <g id="arrowLeft" xlink:href="#dirArrow" transform="rotate(270) translate(-36 17)" onmousedown="handlePan(-1,0)">
                  <use xlink:href="#rim" fill="#404040">
                        <set attributeName="fill" to="#808080" begin="arrowLeft.mouseover" end="arrowLeft.mouseout"/>
                  </use>
                  <path fill="none" stroke="white" stroke-width="1.5" d="M0,-3.0v7 M-2.5,-0.5L0,-3.0L2.5,-0.5"/>
                </g>
        </g>
        <svg viewBox="0 0 15 15" width="100%" height="30px" preserveAspectRatio="xMaxYMin meet">
         <g id="arrow_out" transform="scale(0.3 0.3)">
          <a xlink:href="structaltintegration_1_1btc_1_1BlockHeaderAndShortTxIDs__coll__graph_org.svg" target="_base">
           <rect id="button" ry="5" rx="5" y="6" x="6" height="38" width="38"
                fill="#f2f5e9" fill-opacity="0.5" stroke="#606060" stroke-width="1.0"/>
           <path id="arrow"
             d="M 11.500037,31.436501 C 11.940474,20.09759 22.043105,11.32322 32.158766,21.979434 L 37.068811,17.246167 C 37.068811,17.246167 37.088388,32 37.088388,32 L 22.160133,31.978069 C 22.160133,31.978069 26.997745,27.140456 26.997745,27.140456 C 18.528582,18.264221 13.291696,25.230495 11.500037,31.436501 z"
             style="fill:#404040;"/>
          </a>
         </g>
        </svg>
</svg>
