<?xml version="1.0" encoding="UTF-8" standalone="no"?>
<!DOCTYPE svg PUBLIC "-//W3C//DTD SVG 1.1//EN"
 "http://www.w3.org/Graphics/SVG/1.1/DTD/svg11.dtd">
<!-- Generated by graphviz version 2.44.0 ()
 -->
<!-- Title: altintegration::VTB Pages: 1 -->
<svg width="1209pt" height="1328pt"
 viewBox="0.00 0.00 1209.00 1328.00" xmlns="http://www.w3.org/2000/svg" xmlns:xlink="http://www.w3.org/1999/xlink">
<g id="graph0" class="graph" transform="scale(1 1) rotate(0) translate(4 1324)">
<title>altintegration::VTB</title>
<polygon fill="white" stroke="transparent" points="-4,4 -4,-1324 1205,-1324 1205,4 -4,4"/>
<!-- Node1 -->
<g id="node1" class="node">
<title>Node1</title>
<g id="a_node1"><a xlink:title="Veriblock to Bitcoin publication, committed to Veriblock blockchain in containingBlock.">
<polygon fill="#bfbfbf" stroke="black" points="681,-0.5 681,-134.5 794,-134.5 794,-0.5 681,-0.5"/>
<text text-anchor="middle" x="737.5" y="-122.5" font-family="Helvetica,sans-Serif" font-size="10.00">altintegration::VTB</text>
<polyline fill="none" stroke="black" points="681,-115.5 794,-115.5 "/>
<text text-anchor="start" x="689" y="-103.5" font-family="Helvetica,sans-Serif" font-size="10.00">+ version</text>
<text text-anchor="start" x="689" y="-92.5" font-family="Helvetica,sans-Serif" font-size="10.00">+ checked</text>
<polyline fill="none" stroke="black" points="681,-85.5 794,-85.5 "/>
<text text-anchor="start" x="689" y="-73.5" font-family="Helvetica,sans-Serif" font-size="10.00">+ toPrettyString()</text>
<text text-anchor="start" x="689" y="-62.5" font-family="Helvetica,sans-Serif" font-size="10.00">+ toShortPrettyString()</text>
<text text-anchor="start" x="689" y="-51.5" font-family="Helvetica,sans-Serif" font-size="10.00">+ toVbkEncoding()</text>
<text text-anchor="start" x="689" y="-40.5" font-family="Helvetica,sans-Serif" font-size="10.00">+ toVbkEncoding()</text>
<text text-anchor="start" x="689" y="-29.5" font-family="Helvetica,sans-Serif" font-size="10.00">+ estimateSize()</text>
<text text-anchor="start" x="689" y="-18.5" font-family="Helvetica,sans-Serif" font-size="10.00">+ getId()</text>
<text text-anchor="start" x="689" y="-7.5" font-family="Helvetica,sans-Serif" font-size="10.00">+ name()</text>
</a>
</g>
</g>
<!-- Node2 -->
<g id="node2" class="node">
<title>Node2</title>
<g id="a_node2"><a xlink:href="structaltintegration_1_1VbkMerklePath.html" target="_top" xlink:title="Path in Merkle tree, which proves that subject exists in the tree.">
<polygon fill="white" stroke="black" points="0,-370 0,-460 143,-460 143,-370 0,-370"/>
<text text-anchor="middle" x="71.5" y="-448" font-family="Helvetica,sans-Serif" font-size="10.00">altintegration::VbkMerklePath</text>
<polyline fill="none" stroke="black" points="0,-441 143,-441 "/>
<text text-anchor="start" x="8" y="-429" font-family="Helvetica,sans-Serif" font-size="10.00">+ treeIndex</text>
<text text-anchor="start" x="8" y="-418" font-family="Helvetica,sans-Serif" font-size="10.00">+ index</text>
<polyline fill="none" stroke="black" points="0,-411 143,-411 "/>
<text text-anchor="start" x="8" y="-399" font-family="Helvetica,sans-Serif" font-size="10.00">+ toVbkEncoding()</text>
<text text-anchor="start" x="8" y="-388" font-family="Helvetica,sans-Serif" font-size="10.00">+ estimateSize()</text>
<text text-anchor="start" x="8" y="-377" font-family="Helvetica,sans-Serif" font-size="10.00">+ calculateMerkleRoot()</text>
</a>
</g>
</g>
<!-- Node2&#45;&gt;Node1 -->
<g id="edge1" class="edge">
<title>Node2&#45;&gt;Node1</title>
<path fill="none" stroke="#404040" d="M102.6,-369.87C116.39,-352.64 133.74,-333.76 152.5,-320 319.1,-197.82 554.22,-119.99 669.04,-86.88"/>
<polygon fill="none" stroke="#404040" points="669.23,-86.82 673.9,-81.33 680.76,-83.53 676.09,-89.02 669.23,-86.82"/>
<text text-anchor="middle" x="426.5" y="-225" font-family="Helvetica,sans-Serif" font-size="10.00"> +merklePath</text>
</g>
<!-- Node3 -->
<g id="node3" class="node">
<title>Node3</title>
<g id="a_node3"><a xlink:title=" ">
<polygon fill="white" stroke="#bfbfbf" points="276,-634.5 276,-702.5 401,-702.5 401,-634.5 276,-634.5"/>
<text text-anchor="start" x="284" y="-690.5" font-family="Helvetica,sans-Serif" font-size="10.00">std::vector&lt; altintegration</text>
<text text-anchor="middle" x="338.5" y="-679.5" font-family="Helvetica,sans-Serif" font-size="10.00">::Blob &gt;</text>
<polyline fill="none" stroke="#bfbfbf" points="276,-672.5 401,-672.5 "/>
<text text-anchor="middle" x="338.5" y="-660.5" font-family="Helvetica,sans-Serif" font-size="10.00"> </text>
<polyline fill="none" stroke="#bfbfbf" points="276,-653.5 401,-653.5 "/>
<text text-anchor="middle" x="338.5" y="-641.5" font-family="Helvetica,sans-Serif" font-size="10.00"> </text>
</a>
</g>
</g>
<!-- Node3&#45;&gt;Node2 -->
<g id="edge2" class="edge">
<title>Node3&#45;&gt;Node2</title>
<path fill="none" stroke="#404040" d="M333.71,-634.48C327.15,-602.02 312.1,-553.72 278.5,-528 233.58,-493.62 202.12,-537.16 152.5,-510 134.82,-500.32 119.24,-485.16 106.59,-469.82"/>
<polygon fill="none" stroke="#404040" points="106.51,-469.72 99.66,-467.47 99.1,-460.28 105.95,-462.53 106.51,-469.72"/>
<text text-anchor="middle" x="307.5" y="-531" font-family="Helvetica,sans-Serif" font-size="10.00"> +layers</text>
</g>
<!-- Node12 -->
<g id="node12" class="node">
<title>Node12</title>
<g id="a_node12"><a xlink:href="structaltintegration_1_1MerklePath.html" target="_top" xlink:title="Path in Merkle tree which proves that subject is inside this tree.">
<polygon fill="white" stroke="black" points="329.5,-370 329.5,-460 455.5,-460 455.5,-370 329.5,-370"/>
<text text-anchor="middle" x="392.5" y="-448" font-family="Helvetica,sans-Serif" font-size="10.00">altintegration::MerklePath</text>
<polyline fill="none" stroke="black" points="329.5,-441 455.5,-441 "/>
<text text-anchor="start" x="337.5" y="-429" font-family="Helvetica,sans-Serif" font-size="10.00">+ index</text>
<polyline fill="none" stroke="black" points="329.5,-422 455.5,-422 "/>
<text text-anchor="start" x="337.5" y="-410" font-family="Helvetica,sans-Serif" font-size="10.00">+ toRaw()</text>
<text text-anchor="start" x="337.5" y="-399" font-family="Helvetica,sans-Serif" font-size="10.00">+ toVbkEncoding()</text>
<text text-anchor="start" x="337.5" y="-388" font-family="Helvetica,sans-Serif" font-size="10.00">+ estimateSize()</text>
<text text-anchor="start" x="337.5" y="-377" font-family="Helvetica,sans-Serif" font-size="10.00">+ calculateMerkleRoot()</text>
</a>
</g>
</g>
<!-- Node3&#45;&gt;Node12 -->
<g id="edge14" class="edge">
<title>Node3&#45;&gt;Node12</title>
<path fill="none" stroke="#404040" d="M345.62,-634.36C354.48,-593.08 369.76,-521.92 380.46,-472.09"/>
<polygon fill="none" stroke="#404040" points="380.48,-471.96 377.83,-465.25 383,-460.23 385.66,-466.93 380.48,-471.96"/>
<text text-anchor="middle" x="384.5" y="-531" font-family="Helvetica,sans-Serif" font-size="10.00"> +layers</text>
</g>
<!-- Node4 -->
<g id="node4" class="node">
<title>Node4</title>
<g id="a_node4"><a xlink:href="structaltintegration_1_1Blob.html" target="_top" xlink:title="Contiguous byte array of fixed size.">
<polygon fill="white" stroke="black" points="360.5,-1108.5 360.5,-1319.5 480.5,-1319.5 480.5,-1108.5 360.5,-1108.5"/>
<text text-anchor="middle" x="420.5" y="-1307.5" font-family="Helvetica,sans-Serif" font-size="10.00">altintegration::Blob&lt; N &gt;</text>
<polyline fill="none" stroke="black" points="360.5,-1300.5 480.5,-1300.5 "/>
<text text-anchor="start" x="368.5" y="-1288.5" font-family="Helvetica,sans-Serif" font-size="10.00">+ data_</text>
<text text-anchor="start" x="368.5" y="-1277.5" font-family="Helvetica,sans-Serif" font-size="10.00">+ this</text>
<polyline fill="none" stroke="black" points="360.5,-1270.5 480.5,-1270.5 "/>
<text text-anchor="start" x="368.5" y="-1258.5" font-family="Helvetica,sans-Serif" font-size="10.00">+ Blob()</text>
<text text-anchor="start" x="368.5" y="-1247.5" font-family="Helvetica,sans-Serif" font-size="10.00">+ Blob()</text>
<text text-anchor="start" x="368.5" y="-1236.5" font-family="Helvetica,sans-Serif" font-size="10.00">+ Blob()</text>
<text text-anchor="start" x="368.5" y="-1225.5" font-family="Helvetica,sans-Serif" font-size="10.00">+ Blob()</text>
<text text-anchor="start" x="368.5" y="-1214.5" font-family="Helvetica,sans-Serif" font-size="10.00">+ Blob()</text>
<text text-anchor="start" x="368.5" y="-1203.5" font-family="Helvetica,sans-Serif" font-size="10.00">+ operator=()</text>
<text text-anchor="start" x="368.5" y="-1192.5" font-family="Helvetica,sans-Serif" font-size="10.00">+ operator=()</text>
<text text-anchor="start" x="368.5" y="-1181.5" font-family="Helvetica,sans-Serif" font-size="10.00">+ reverse()</text>
<text text-anchor="start" x="368.5" y="-1170.5" font-family="Helvetica,sans-Serif" font-size="10.00">+ operator~()</text>
<text text-anchor="start" x="368.5" y="-1159.5" font-family="Helvetica,sans-Serif" font-size="10.00">+ asVector()</text>
<text text-anchor="start" x="368.5" y="-1148.5" font-family="Helvetica,sans-Serif" font-size="10.00">+ asString()</text>
<text text-anchor="start" x="368.5" y="-1137.5" font-family="Helvetica,sans-Serif" font-size="10.00">+ operator[]()</text>
<text text-anchor="start" x="368.5" y="-1126.5" font-family="Helvetica,sans-Serif" font-size="10.00">+ operator[]()</text>
<text text-anchor="start" x="368.5" y="-1115.5" font-family="Helvetica,sans-Serif" font-size="10.00">+ compareTo()</text>
</a>
</g>
</g>
<!-- Node4&#45;&gt;Node3 -->
<g id="edge3" class="edge">
<title>Node4&#45;&gt;Node3</title>
<path fill="none" stroke="#404040" d="M360.49,-1140.45C344.26,-1116.6 328.88,-1088.99 320.5,-1061 284.29,-940.08 310.01,-788.82 326.92,-714.69"/>
<polygon fill="none" stroke="#404040" points="327.01,-714.3 324.49,-707.55 329.76,-702.62 332.28,-709.38 327.01,-714.3"/>
<text text-anchor="middle" x="345" y="-947" font-family="Helvetica,sans-Serif" font-size="10.00"> +elements</text>
</g>
<!-- Node7 -->
<g id="node7" class="node">
<title>Node7</title>
<g id="a_node7"><a xlink:href="structaltintegration_1_1Blob.html" target="_top" xlink:title=" ">
<polygon fill="white" stroke="black" points="379,-838.5 379,-1060.5 510,-1060.5 510,-838.5 379,-838.5"/>
<text text-anchor="start" x="387" y="-1048.5" font-family="Helvetica,sans-Serif" font-size="10.00">altintegration::Blob</text>
<text text-anchor="middle" x="444.5" y="-1037.5" font-family="Helvetica,sans-Serif" font-size="10.00">&lt; SHA256_HASH_SIZE &gt;</text>
<polyline fill="none" stroke="black" points="379,-1030.5 510,-1030.5 "/>
<text text-anchor="start" x="387" y="-1018.5" font-family="Helvetica,sans-Serif" font-size="10.00">+ data_</text>
<text text-anchor="start" x="387" y="-1007.5" font-family="Helvetica,sans-Serif" font-size="10.00">+ this</text>
<polyline fill="none" stroke="black" points="379,-1000.5 510,-1000.5 "/>
<text text-anchor="start" x="387" y="-988.5" font-family="Helvetica,sans-Serif" font-size="10.00">+ Blob()</text>
<text text-anchor="start" x="387" y="-977.5" font-family="Helvetica,sans-Serif" font-size="10.00">+ Blob()</text>
<text text-anchor="start" x="387" y="-966.5" font-family="Helvetica,sans-Serif" font-size="10.00">+ Blob()</text>
<text text-anchor="start" x="387" y="-955.5" font-family="Helvetica,sans-Serif" font-size="10.00">+ Blob()</text>
<text text-anchor="start" x="387" y="-944.5" font-family="Helvetica,sans-Serif" font-size="10.00">+ Blob()</text>
<text text-anchor="start" x="387" y="-933.5" font-family="Helvetica,sans-Serif" font-size="10.00">+ operator=()</text>
<text text-anchor="start" x="387" y="-922.5" font-family="Helvetica,sans-Serif" font-size="10.00">+ operator=()</text>
<text text-anchor="start" x="387" y="-911.5" font-family="Helvetica,sans-Serif" font-size="10.00">+ reverse()</text>
<text text-anchor="start" x="387" y="-900.5" font-family="Helvetica,sans-Serif" font-size="10.00">+ operator~()</text>
<text text-anchor="start" x="387" y="-889.5" font-family="Helvetica,sans-Serif" font-size="10.00">+ asVector()</text>
<text text-anchor="start" x="387" y="-878.5" font-family="Helvetica,sans-Serif" font-size="10.00">+ asString()</text>
<text text-anchor="start" x="387" y="-867.5" font-family="Helvetica,sans-Serif" font-size="10.00">+ operator[]()</text>
<text text-anchor="start" x="387" y="-856.5" font-family="Helvetica,sans-Serif" font-size="10.00">+ operator[]()</text>
<text text-anchor="start" x="387" y="-845.5" font-family="Helvetica,sans-Serif" font-size="10.00">+ compareTo()</text>
</a>
</g>
</g>
<!-- Node4&#45;&gt;Node7 -->
<g id="edge7" class="edge">
<title>Node4&#45;&gt;Node7</title>
<path fill="none" stroke="orange" d="M420.08,-1098.1C420.46,-1091.64 420.92,-1085.23 421.5,-1079 422.05,-1073.02 422.74,-1066.9 423.52,-1060.74"/>
<polygon fill="orange" stroke="orange" points="416.58,-1098.15 419.57,-1108.31 423.57,-1098.5 416.58,-1098.15"/>
<text text-anchor="middle" x="480" y="-1082" font-family="Helvetica,sans-Serif" font-size="10.00"> &lt; SHA256_HASH_SIZE &gt;</text>
</g>
<!-- Node13 -->
<g id="node13" class="node">
<title>Node13</title>
<g id="a_node13"><a xlink:href="structaltintegration_1_1BtcBlock.html" target="_top" xlink:title="Bitcoin block.">
<polygon fill="white" stroke="black" points="495.5,-557.5 495.5,-779.5 611.5,-779.5 611.5,-557.5 495.5,-557.5"/>
<text text-anchor="middle" x="553.5" y="-767.5" font-family="Helvetica,sans-Serif" font-size="10.00">altintegration::BtcBlock</text>
<polyline fill="none" stroke="black" points="495.5,-760.5 611.5,-760.5 "/>
<text text-anchor="start" x="503.5" y="-748.5" font-family="Helvetica,sans-Serif" font-size="10.00"># version</text>
<text text-anchor="start" x="503.5" y="-737.5" font-family="Helvetica,sans-Serif" font-size="10.00"># timestamp</text>
<text text-anchor="start" x="503.5" y="-726.5" font-family="Helvetica,sans-Serif" font-size="10.00"># bits</text>
<text text-anchor="start" x="503.5" y="-715.5" font-family="Helvetica,sans-Serif" font-size="10.00"># nonce</text>
<polyline fill="none" stroke="black" points="495.5,-708.5 611.5,-708.5 "/>
<text text-anchor="start" x="503.5" y="-696.5" font-family="Helvetica,sans-Serif" font-size="10.00">+ BtcBlock()</text>
<text text-anchor="start" x="503.5" y="-685.5" font-family="Helvetica,sans-Serif" font-size="10.00">+ BtcBlock()</text>
<text text-anchor="start" x="503.5" y="-674.5" font-family="Helvetica,sans-Serif" font-size="10.00">+ toRaw()</text>
<text text-anchor="start" x="503.5" y="-663.5" font-family="Helvetica,sans-Serif" font-size="10.00">+ toVbkEncoding()</text>
<text text-anchor="start" x="503.5" y="-652.5" font-family="Helvetica,sans-Serif" font-size="10.00">+ estimateSize()</text>
<text text-anchor="start" x="503.5" y="-641.5" font-family="Helvetica,sans-Serif" font-size="10.00">+ calculateHash()</text>
<text text-anchor="start" x="503.5" y="-630.5" font-family="Helvetica,sans-Serif" font-size="10.00">+ getHash()</text>
<text text-anchor="start" x="503.5" y="-619.5" font-family="Helvetica,sans-Serif" font-size="10.00">+ toPrettyString()</text>
<text text-anchor="start" x="503.5" y="-608.5" font-family="Helvetica,sans-Serif" font-size="10.00">+ getVersion()</text>
<text text-anchor="start" x="503.5" y="-597.5" font-family="Helvetica,sans-Serif" font-size="10.00">+ getPreviousBlock()</text>
<text text-anchor="start" x="503.5" y="-586.5" font-family="Helvetica,sans-Serif" font-size="10.00">and 10 more...</text>
<text text-anchor="start" x="503.5" y="-575.5" font-family="Helvetica,sans-Serif" font-size="10.00">+ name()</text>
<text text-anchor="start" x="503.5" y="-564.5" font-family="Helvetica,sans-Serif" font-size="10.00"># invalidateHash()</text>
</a>
</g>
</g>
<!-- Node4&#45;&gt;Node13 -->
<g id="edge17" class="edge">
<title>Node4&#45;&gt;Node13</title>
<path fill="none" stroke="#404040" d="M480.73,-1166.72C503.1,-1145.92 526.05,-1119.43 538.5,-1090 560.4,-1038.23 561.39,-896.72 558.69,-792.09"/>
<polygon fill="none" stroke="#404040" points="558.69,-791.84 554.52,-785.95 558.36,-779.84 562.52,-785.73 558.69,-791.84"/>
<text text-anchor="middle" x="577.5" y="-947" font-family="Helvetica,sans-Serif" font-size="10.00"> #hash_</text>
</g>
<!-- Node5 -->
<g id="node5" class="node">
<title>Node5</title>
<g id="a_node5"><a xlink:title=" ">
<polygon fill="white" stroke="#bfbfbf" points="736.5,-921 736.5,-978 820.5,-978 820.5,-921 736.5,-921"/>
<text text-anchor="middle" x="778.5" y="-966" font-family="Helvetica,sans-Serif" font-size="10.00">std::vector&lt; T &gt;</text>
<polyline fill="none" stroke="#bfbfbf" points="736.5,-959 820.5,-959 "/>
<text text-anchor="middle" x="778.5" y="-947" font-family="Helvetica,sans-Serif" font-size="10.00"> </text>
<polyline fill="none" stroke="#bfbfbf" points="736.5,-940 820.5,-940 "/>
<text text-anchor="middle" x="778.5" y="-928" font-family="Helvetica,sans-Serif" font-size="10.00"> </text>
</a>
</g>
</g>
<!-- Node5&#45;&gt;Node3 -->
<g id="edge4" class="edge">
<title>Node5&#45;&gt;Node3</title>
<path fill="none" stroke="orange" d="M770.77,-911.13C763.61,-886.34 750.33,-855.29 726.5,-838 674.29,-800.12 643.85,-839.9 582.5,-820 563.2,-813.74 561.75,-804.42 542.5,-798 488.42,-779.97 464.06,-809.87 415.5,-780 386.22,-761.99 365.18,-728.23 352.57,-702.74"/>
<polygon fill="orange" stroke="orange" points="767.44,-912.21 773.39,-920.97 774.2,-910.4 767.44,-912.21"/>
<text text-anchor="middle" x="632" y="-806.5" font-family="Helvetica,sans-Serif" font-size="10.00"> &lt; altintegration::Blob &gt;</text>
</g>
<!-- Node11 -->
<g id="node11" class="node">
<title>Node11</title>
<g id="a_node11"><a xlink:title=" ">
<polygon fill="white" stroke="#bfbfbf" points="897,-640 897,-697 1004,-697 1004,-640 897,-640"/>
<text text-anchor="middle" x="950.5" y="-685" font-family="Helvetica,sans-Serif" font-size="10.00">std::vector&lt; uint8_t &gt;</text>
<polyline fill="none" stroke="#bfbfbf" points="897,-678 1004,-678 "/>
<text text-anchor="start" x="905" y="-666" font-family="Helvetica,sans-Serif" font-size="10.00">+ elements</text>
<polyline fill="none" stroke="#bfbfbf" points="897,-659 1004,-659 "/>
<text text-anchor="middle" x="950.5" y="-647" font-family="Helvetica,sans-Serif" font-size="10.00"> </text>
</a>
</g>
</g>
<!-- Node5&#45;&gt;Node11 -->
<g id="edge12" class="edge">
<title>Node5&#45;&gt;Node11</title>
<path fill="none" stroke="orange" d="M800.99,-912.09C822.07,-877.97 854.44,-825.54 882.5,-780 899.87,-751.81 919.72,-719.56 933.46,-697.21"/>
<polygon fill="orange" stroke="orange" points="797.9,-910.43 795.63,-920.78 803.86,-914.11 797.9,-910.43"/>
<text text-anchor="middle" x="895" y="-806.5" font-family="Helvetica,sans-Serif" font-size="10.00"> &lt; uint8_t &gt;</text>
</g>
<!-- Node16 -->
<g id="node16" class="node">
<title>Node16</title>
<g id="a_node16"><a xlink:title=" ">
<polygon fill="white" stroke="#bfbfbf" points="474,-381 474,-449 599,-449 599,-381 474,-381"/>
<text text-anchor="start" x="482" y="-437" font-family="Helvetica,sans-Serif" font-size="10.00">std::vector&lt; altintegration</text>
<text text-anchor="middle" x="536.5" y="-426" font-family="Helvetica,sans-Serif" font-size="10.00">::BtcBlock &gt;</text>
<polyline fill="none" stroke="#bfbfbf" points="474,-419 599,-419 "/>
<text text-anchor="middle" x="536.5" y="-407" font-family="Helvetica,sans-Serif" font-size="10.00"> </text>
<polyline fill="none" stroke="#bfbfbf" points="474,-400 599,-400 "/>
<text text-anchor="middle" x="536.5" y="-388" font-family="Helvetica,sans-Serif" font-size="10.00"> </text>
</a>
</g>
</g>
<!-- Node5&#45;&gt;Node16 -->
<g id="edge23" class="edge">
<title>Node5&#45;&gt;Node16</title>
<path fill="none" stroke="orange" d="M768.95,-911.03C760.72,-880.26 747.91,-835.77 733.5,-798 691.33,-687.47 675.95,-661.5 620.5,-557 600.47,-519.25 575.07,-477.33 557.47,-449.08"/>
<polygon fill="orange" stroke="orange" points="765.62,-912.13 771.56,-920.91 772.39,-910.34 765.62,-912.13"/>
<text text-anchor="middle" x="785" y="-666" font-family="Helvetica,sans-Serif" font-size="10.00"> &lt; altintegration::BtcBlock &gt;</text>
</g>
<!-- Node6 -->
<g id="node6" class="node">
<title>Node6</title>
<g id="a_node6"><a xlink:title=" ">
<polygon fill="white" stroke="#bfbfbf" points="764,-1185.5 764,-1242.5 793,-1242.5 793,-1185.5 764,-1185.5"/>
<text text-anchor="middle" x="778.5" y="-1230.5" font-family="Helvetica,sans-Serif" font-size="10.00">T</text>
<polyline fill="none" stroke="#bfbfbf" points="764,-1223.5 793,-1223.5 "/>
<text text-anchor="middle" x="778.5" y="-1211.5" font-family="Helvetica,sans-Serif" font-size="10.00"> </text>
<polyline fill="none" stroke="#bfbfbf" points="764,-1204.5 793,-1204.5 "/>
<text text-anchor="middle" x="778.5" y="-1192.5" font-family="Helvetica,sans-Serif" font-size="10.00"> </text>
</a>
</g>
</g>
<!-- Node6&#45;&gt;Node5 -->
<g id="edge5" class="edge">
<title>Node6&#45;&gt;Node5</title>
<path fill="none" stroke="#404040" d="M778.5,-1185.4C778.5,-1138.73 778.5,-1044.04 778.5,-990.23"/>
<polygon fill="none" stroke="#404040" points="778.5,-990.12 774.5,-984.12 778.5,-978.12 782.5,-984.12 778.5,-990.12"/>
<text text-anchor="middle" x="803" y="-1082" font-family="Helvetica,sans-Serif" font-size="10.00"> +elements</text>
</g>
<!-- Node7&#45;&gt;Node2 -->
<g id="edge6" class="edge">
<title>Node7&#45;&gt;Node2</title>
<path fill="none" stroke="#404040" d="M378.79,-841.8C377.06,-840.47 375.3,-839.21 373.5,-838 254.51,-758.27 148.21,-890.01 56.5,-780 -15.92,-693.13 20.15,-550.01 48.48,-471.62"/>
<polygon fill="none" stroke="#404040" points="48.59,-471.32 46.93,-464.3 52.77,-460.07 54.43,-467.09 48.59,-471.32"/>
<text text-anchor="middle" x="76.5" y="-666" font-family="Helvetica,sans-Serif" font-size="10.00"> +subject</text>
</g>
<!-- Node7&#45;&gt;Node12 -->
<g id="edge15" class="edge">
<title>Node7&#45;&gt;Node12</title>
<path fill="none" stroke="#404040" d="M435.56,-838.3C428.97,-759.81 419.45,-651.84 409.5,-557 406.57,-529.08 402.88,-498.1 399.69,-472.31"/>
<polygon fill="none" stroke="#404040" points="399.65,-472.01 394.94,-466.55 398.17,-460.1 402.88,-465.56 399.65,-472.01"/>
<text text-anchor="middle" x="450.5" y="-666" font-family="Helvetica,sans-Serif" font-size="10.00"> +subject</text>
</g>
<!-- Node7&#45;&gt;Node13 -->
<g id="edge18" class="edge">
<title>Node7&#45;&gt;Node13</title>
<path fill="none" stroke="#404040" d="M459.13,-838.2C462.45,-824.43 466.52,-810.73 471.5,-798 473.16,-793.74 479.9,-782.43 488.85,-768.18"/>
<polygon fill="none" stroke="#404040" points="488.94,-768.04 488.77,-760.83 495.36,-757.9 495.53,-765.11 488.94,-768.04"/>
<text text-anchor="middle" x="505" y="-812" font-family="Helvetica,sans-Serif" font-size="10.00"> #merkleRoot</text>
<text text-anchor="middle" x="505" y="-801" font-family="Helvetica,sans-Serif" font-size="10.00">#previousBlock</text>
</g>
<!-- Node8 -->
<g id="node8" class="node">
<title>Node8</title>
<g id="a_node8"><a xlink:href="structaltintegration_1_1VbkPopTx.html" target="_top" xlink:title="Veriblock POP transaction, which endorses VBK block in BTC blockchain.">
<polygon fill="white" stroke="black" points="676.5,-182.5 676.5,-272.5 798.5,-272.5 798.5,-182.5 676.5,-182.5"/>
<text text-anchor="middle" x="737.5" y="-260.5" font-family="Helvetica,sans-Serif" font-size="10.00">altintegration::VbkPopTx</text>
<polyline fill="none" stroke="black" points="676.5,-253.5 798.5,-253.5 "/>
<text text-anchor="middle" x="737.5" y="-241.5" font-family="Helvetica,sans-Serif" font-size="10.00"> </text>
<polyline fill="none" stroke="black" points="676.5,-234.5 798.5,-234.5 "/>
<text text-anchor="start" x="684.5" y="-222.5" font-family="Helvetica,sans-Serif" font-size="10.00">+ toVbkEncoding()</text>
<text text-anchor="start" x="684.5" y="-211.5" font-family="Helvetica,sans-Serif" font-size="10.00">+ estimateSize()</text>
<text text-anchor="start" x="684.5" y="-200.5" font-family="Helvetica,sans-Serif" font-size="10.00">+ getHash()</text>
<text text-anchor="start" x="684.5" y="-189.5" font-family="Helvetica,sans-Serif" font-size="10.00">+ toPrettyString()</text>
</a>
</g>
</g>
<!-- Node8&#45;&gt;Node1 -->
<g id="edge8" class="edge">
<title>Node8&#45;&gt;Node1</title>
<path fill="none" stroke="#404040" d="M737.5,-182.49C737.5,-171.39 737.5,-159.15 737.5,-146.92"/>
<polygon fill="none" stroke="#404040" points="737.5,-146.74 733.5,-140.74 737.5,-134.74 741.5,-140.74 737.5,-146.74"/>
<text text-anchor="middle" x="766" y="-156" font-family="Helvetica,sans-Serif" font-size="10.00"> +transaction</text>
</g>
<!-- Node9 -->
<g id="node9" class="node">
<title>Node9</title>
<g id="a_node9"><a xlink:href="namespacealtintegration.html#structaltintegration_1_1NetworkBytePair" target="_top" xlink:title="Stores pair of TxType and VBK network byte.">
<polygon fill="white" stroke="black" points="161.5,-386.5 161.5,-443.5 311.5,-443.5 311.5,-386.5 161.5,-386.5"/>
<text text-anchor="middle" x="236.5" y="-431.5" font-family="Helvetica,sans-Serif" font-size="10.00">altintegration::NetworkBytePair</text>
<polyline fill="none" stroke="black" points="161.5,-424.5 311.5,-424.5 "/>
<text text-anchor="start" x="169.5" y="-412.5" font-family="Helvetica,sans-Serif" font-size="10.00">+ typeId</text>
<polyline fill="none" stroke="black" points="161.5,-405.5 311.5,-405.5 "/>
<text text-anchor="middle" x="236.5" y="-393.5" font-family="Helvetica,sans-Serif" font-size="10.00"> </text>
</a>
</g>
</g>
<!-- Node9&#45;&gt;Node8 -->
<g id="edge9" class="edge">
<title>Node9&#45;&gt;Node8</title>
<path fill="none" stroke="#404040" d="M254.75,-386.32C269.98,-365.27 293.51,-337.1 320.5,-320 427.1,-252.48 576.33,-234.3 664.35,-229.69"/>
<polygon fill="none" stroke="#404040" points="664.37,-229.69 670.18,-225.42 676.36,-229.13 670.55,-233.41 664.37,-229.69"/>
<text text-anchor="middle" x="409" y="-294" font-family="Helvetica,sans-Serif" font-size="10.00"> +networkOrType</text>
</g>
<!-- Node10 -->
<g id="node10" class="node">
<title>Node10</title>
<g id="a_node10"><a xlink:href="structaltintegration_1_1VbkNetworkType.html" target="_top" xlink:title="works as optional&lt;uint8_t&gt;">
<polygon fill="white" stroke="black" points="105.5,-618 105.5,-719 257.5,-719 257.5,-618 105.5,-618"/>
<text text-anchor="middle" x="181.5" y="-707" font-family="Helvetica,sans-Serif" font-size="10.00">altintegration::VbkNetworkType</text>
<polyline fill="none" stroke="black" points="105.5,-700 257.5,-700 "/>
<text text-anchor="start" x="113.5" y="-688" font-family="Helvetica,sans-Serif" font-size="10.00">+ hasValue</text>
<text text-anchor="start" x="113.5" y="-677" font-family="Helvetica,sans-Serif" font-size="10.00">+ value</text>
<polyline fill="none" stroke="black" points="105.5,-670 257.5,-670 "/>
<text text-anchor="start" x="113.5" y="-658" font-family="Helvetica,sans-Serif" font-size="10.00">+ operator bool()</text>
<text text-anchor="start" x="113.5" y="-647" font-family="Helvetica,sans-Serif" font-size="10.00">+ operator==()</text>
<text text-anchor="start" x="113.5" y="-636" font-family="Helvetica,sans-Serif" font-size="10.00">+ toPrettyString()</text>
<text text-anchor="start" x="113.5" y="-625" font-family="Helvetica,sans-Serif" font-size="10.00">+ putJson()</text>
</a>
</g>
</g>
<!-- Node10&#45;&gt;Node9 -->
<g id="edge10" class="edge">
<title>Node10&#45;&gt;Node9</title>
<path fill="none" stroke="#404040" d="M192.37,-617.81C202.76,-570.28 218.23,-499.53 227.83,-455.67"/>
<polygon fill="none" stroke="#404040" points="227.86,-455.5 225.24,-448.78 230.43,-443.78 233.05,-450.49 227.86,-455.5"/>
<text text-anchor="middle" x="243.5" y="-531" font-family="Helvetica,sans-Serif" font-size="10.00"> +networkType</text>
</g>
<!-- Node11&#45;&gt;Node8 -->
<g id="edge11" class="edge">
<title>Node11&#45;&gt;Node8</title>
<path fill="none" stroke="#404040" d="M941.11,-639.82C930.68,-608.53 913.7,-555.94 901.5,-510 879.3,-426.41 906.35,-392.7 859.5,-320 846.62,-300.01 827.75,-282.78 808.69,-268.83"/>
<polygon fill="none" stroke="#404040" points="808.55,-268.74 801.34,-268.57 798.73,-261.84 805.94,-262.02 808.55,-268.74"/>
<text text-anchor="middle" x="927" y="-418" font-family="Helvetica,sans-Serif" font-size="10.00"> +publicKey</text>
<text text-anchor="middle" x="927" y="-407" font-family="Helvetica,sans-Serif" font-size="10.00">+signature</text>
</g>
<!-- Node18 -->
<g id="node18" class="node">
<title>Node18</title>
<g id="a_node18"><a xlink:href="structaltintegration_1_1BtcTx.html" target="_top" xlink:title="Bitcoin transaction representation.">
<polygon fill="white" stroke="black" points="961.5,-353.5 961.5,-476.5 1063.5,-476.5 1063.5,-353.5 961.5,-353.5"/>
<text text-anchor="middle" x="1012.5" y="-464.5" font-family="Helvetica,sans-Serif" font-size="10.00">altintegration::BtcTx</text>
<polyline fill="none" stroke="black" points="961.5,-457.5 1063.5,-457.5 "/>
<text text-anchor="middle" x="1012.5" y="-445.5" font-family="Helvetica,sans-Serif" font-size="10.00"> </text>
<polyline fill="none" stroke="black" points="961.5,-438.5 1063.5,-438.5 "/>
<text text-anchor="start" x="969.5" y="-426.5" font-family="Helvetica,sans-Serif" font-size="10.00">+ BtcTx()</text>
<text text-anchor="start" x="969.5" y="-415.5" font-family="Helvetica,sans-Serif" font-size="10.00">+ BtcTx()</text>
<text text-anchor="start" x="969.5" y="-404.5" font-family="Helvetica,sans-Serif" font-size="10.00">+ BtcTx()</text>
<text text-anchor="start" x="969.5" y="-393.5" font-family="Helvetica,sans-Serif" font-size="10.00">+ toVbkEncoding()</text>
<text text-anchor="start" x="969.5" y="-382.5" font-family="Helvetica,sans-Serif" font-size="10.00">+ toRaw()</text>
<text text-anchor="start" x="969.5" y="-371.5" font-family="Helvetica,sans-Serif" font-size="10.00">+ estimateSize()</text>
<text text-anchor="start" x="969.5" y="-360.5" font-family="Helvetica,sans-Serif" font-size="10.00">+ getHash()</text>
</a>
</g>
</g>
<!-- Node11&#45;&gt;Node18 -->
<g id="edge26" class="edge">
<title>Node11&#45;&gt;Node18</title>
<path fill="none" stroke="#404040" d="M957.37,-639.62C966.29,-603.45 982.18,-539.01 994.61,-488.56"/>
<polygon fill="none" stroke="#404040" points="994.66,-488.37 992.21,-481.59 997.53,-476.72 999.98,-483.5 994.66,-488.37"/>
<text text-anchor="middle" x="990.5" y="-531" font-family="Helvetica,sans-Serif" font-size="10.00"> +tx</text>
</g>
<!-- Node12&#45;&gt;Node8 -->
<g id="edge13" class="edge">
<title>Node12&#45;&gt;Node8</title>
<path fill="none" stroke="#404040" d="M418.55,-369.68C430.66,-352.21 446.4,-333.21 464.5,-320 524.15,-276.46 605.88,-252.7 664.33,-240.39"/>
<polygon fill="none" stroke="#404040" points="664.67,-240.32 669.76,-235.21 676.44,-237.94 671.35,-243.05 664.67,-240.32"/>
<text text-anchor="middle" x="540.5" y="-294" font-family="Helvetica,sans-Serif" font-size="10.00"> +merklePath</text>
</g>
<!-- Node13&#45;&gt;Node8 -->
<g id="edge16" class="edge">
<title>Node13&#45;&gt;Node8</title>
<path fill="none" stroke="#404040" d="M611.93,-641.84C661.96,-616.36 730.78,-572.11 762.5,-510 806.77,-423.3 787.48,-386.06 766.5,-291 766,-288.72 765.4,-286.43 764.73,-284.14"/>
<polygon fill="none" stroke="#404040" points="764.72,-284.1 759,-279.71 760.84,-272.74 766.57,-277.13 764.72,-284.1"/>
<text text-anchor="middle" x="822.5" y="-412.5" font-family="Helvetica,sans-Serif" font-size="10.00"> +blockOfProof</text>
</g>
<!-- Node13&#45;&gt;Node16 -->
<g id="edge22" class="edge">
<title>Node13&#45;&gt;Node16</title>
<path fill="none" stroke="#404040" d="M546.04,-557.19C543.76,-523.35 541.37,-488 539.55,-461.13"/>
<polygon fill="none" stroke="#404040" points="539.54,-461.02 535.15,-455.3 538.73,-449.04 543.13,-454.76 539.54,-461.02"/>
<text text-anchor="middle" x="569" y="-531" font-family="Helvetica,sans-Serif" font-size="10.00"> +elements</text>
</g>
<!-- Node14 -->
<g id="node14" class="node">
<title>Node14</title>
<g id="a_node14"><a xlink:title=" ">
<polygon fill="white" stroke="#bfbfbf" points="659,-921 659,-978 718,-978 718,-921 659,-921"/>
<text text-anchor="middle" x="688.5" y="-966" font-family="Helvetica,sans-Serif" font-size="10.00">std::string</text>
<polyline fill="none" stroke="#bfbfbf" points="659,-959 718,-959 "/>
<text text-anchor="middle" x="688.5" y="-947" font-family="Helvetica,sans-Serif" font-size="10.00"> </text>
<polyline fill="none" stroke="#bfbfbf" points="659,-940 718,-940 "/>
<text text-anchor="middle" x="688.5" y="-928" font-family="Helvetica,sans-Serif" font-size="10.00"> </text>
</a>
</g>
</g>
<!-- Node14&#45;&gt;Node13 -->
<g id="edge19" class="edge">
<title>Node14&#45;&gt;Node13</title>
<path fill="none" stroke="#404040" d="M694.01,-920.81C698.88,-889.57 702.82,-837.92 685.5,-798 671.78,-766.39 646.23,-738.63 621.24,-717.07"/>
<polygon fill="none" stroke="#404040" points="620.93,-716.81 613.76,-716.04 611.71,-709.12 618.88,-709.89 620.93,-716.81"/>
<text text-anchor="middle" x="711" y="-806.5" font-family="Helvetica,sans-Serif" font-size="10.00"> #_name</text>
</g>
<!-- Node15 -->
<g id="node15" class="node">
<title>Node15</title>
<g id="a_node15"><a xlink:title=" ">
<polygon fill="white" stroke="#bfbfbf" points="642,-1180 642,-1248 735,-1248 735,-1180 642,-1180"/>
<text text-anchor="start" x="650" y="-1236" font-family="Helvetica,sans-Serif" font-size="10.00">std::basic_string&lt;</text>
<text text-anchor="middle" x="688.5" y="-1225" font-family="Helvetica,sans-Serif" font-size="10.00"> Char &gt;</text>
<polyline fill="none" stroke="#bfbfbf" points="642,-1218 735,-1218 "/>
<text text-anchor="middle" x="688.5" y="-1206" font-family="Helvetica,sans-Serif" font-size="10.00"> </text>
<polyline fill="none" stroke="#bfbfbf" points="642,-1199 735,-1199 "/>
<text text-anchor="middle" x="688.5" y="-1187" font-family="Helvetica,sans-Serif" font-size="10.00"> </text>
</a>
</g>
</g>
<!-- Node15&#45;&gt;Node14 -->
<g id="edge20" class="edge">
<title>Node15&#45;&gt;Node14</title>
<path fill="none" stroke="midnightblue" d="M688.5,-1169.75C688.5,-1115.49 688.5,-1024.02 688.5,-978.29"/>
<polygon fill="none" stroke="midnightblue" points="685,-1169.75 688.5,-1179.75 692,-1169.75 685,-1169.75"/>
</g>
<!-- Node16&#45;&gt;Node8 -->
<g id="edge21" class="edge">
<title>Node16&#45;&gt;Node8</title>
<path fill="none" stroke="#404040" d="M551.69,-380.81C565.32,-353.9 587.49,-316.4 615.5,-291 630.1,-277.76 648.02,-266.55 665.58,-257.43"/>
<polygon fill="none" stroke="#404040" points="665.7,-257.38 669.29,-251.12 676.44,-252.03 672.85,-258.28 665.7,-257.38"/>
<text text-anchor="middle" x="665" y="-294" font-family="Helvetica,sans-Serif" font-size="10.00"> +blockOfProofContext</text>
</g>
<!-- Node17 -->
<g id="node17" class="node">
<title>Node17</title>
<g id="a_node17"><a xlink:href="structaltintegration_1_1Address.html" target="_top" xlink:title="Represents address on VBK chain.">
<polygon fill="white" stroke="black" points="617,-320.5 617,-509.5 754,-509.5 754,-320.5 617,-320.5"/>
<text text-anchor="middle" x="685.5" y="-497.5" font-family="Helvetica,sans-Serif" font-size="10.00">altintegration::Address</text>
<polyline fill="none" stroke="black" points="617,-490.5 754,-490.5 "/>
<text text-anchor="middle" x="685.5" y="-478.5" font-family="Helvetica,sans-Serif" font-size="10.00"> </text>
<polyline fill="none" stroke="black" points="617,-471.5 754,-471.5 "/>
<text text-anchor="start" x="625" y="-459.5" font-family="Helvetica,sans-Serif" font-size="10.00">+ Address()</text>
<text text-anchor="start" x="625" y="-448.5" font-family="Helvetica,sans-Serif" font-size="10.00">+ operator==()</text>
<text text-anchor="start" x="625" y="-437.5" font-family="Helvetica,sans-Serif" font-size="10.00">+ operator!=()</text>
<text text-anchor="start" x="625" y="-426.5" font-family="Helvetica,sans-Serif" font-size="10.00">+ operator==()</text>
<text text-anchor="start" x="625" y="-415.5" font-family="Helvetica,sans-Serif" font-size="10.00">+ getType()</text>
<text text-anchor="start" x="625" y="-404.5" font-family="Helvetica,sans-Serif" font-size="10.00">+ getPopBytes()</text>
<text text-anchor="start" x="625" y="-393.5" font-family="Helvetica,sans-Serif" font-size="10.00">+ isDerivedFromPublicKey()</text>
<text text-anchor="start" x="625" y="-382.5" font-family="Helvetica,sans-Serif" font-size="10.00">+ fromString()</text>
<text text-anchor="start" x="625" y="-371.5" font-family="Helvetica,sans-Serif" font-size="10.00">+ toString()</text>
<text text-anchor="start" x="625" y="-360.5" font-family="Helvetica,sans-Serif" font-size="10.00">+ toVbkEncoding()</text>
<text text-anchor="start" x="625" y="-349.5" font-family="Helvetica,sans-Serif" font-size="10.00">+ estimateSize()</text>
<text text-anchor="start" x="625" y="-338.5" font-family="Helvetica,sans-Serif" font-size="10.00">+ fromPublicKey()</text>
<text text-anchor="start" x="625" y="-327.5" font-family="Helvetica,sans-Serif" font-size="10.00">+ assertFromString()</text>
</a>
</g>
</g>
<!-- Node17&#45;&gt;Node8 -->
<g id="edge24" class="edge">
<title>Node17&#45;&gt;Node8</title>
<path fill="none" stroke="#404040" d="M711.73,-320.43C715.14,-308.27 718.54,-296.12 721.71,-284.83"/>
<polygon fill="none" stroke="#404040" points="721.8,-284.5 719.57,-277.65 725.04,-272.95 727.27,-279.81 721.8,-284.5"/>
<text text-anchor="middle" x="741" y="-294" font-family="Helvetica,sans-Serif" font-size="10.00"> +address</text>
</g>
<!-- Node18&#45;&gt;Node8 -->
<g id="edge25" class="edge">
<title>Node18&#45;&gt;Node8</title>
<path fill="none" stroke="#404040" d="M975.25,-353.37C966.82,-341.7 957.41,-330.01 947.5,-320 910.27,-282.37 854.98,-259.14 810.48,-245.5"/>
<polygon fill="none" stroke="#404040" points="810.34,-245.46 803.46,-247.6 798.83,-242.07 805.72,-239.93 810.34,-245.46"/>
<text text-anchor="middle" x="967.5" y="-294" font-family="Helvetica,sans-Serif" font-size="10.00"> +bitcoinTransaction</text>
</g>
<!-- Node19 -->
<g id="node19" class="node">
<title>Node19</title>
<g id="a_node19"><a xlink:href="structaltintegration_1_1VbkBlock.html" target="_top" xlink:title="Veriblock block.">
<polygon fill="white" stroke="black" points="1082,-326 1082,-504 1201,-504 1201,-326 1082,-326"/>
<text text-anchor="middle" x="1141.5" y="-492" font-family="Helvetica,sans-Serif" font-size="10.00">altintegration::VbkBlock</text>
<polyline fill="none" stroke="black" points="1082,-485 1201,-485 "/>
<text text-anchor="middle" x="1141.5" y="-473" font-family="Helvetica,sans-Serif" font-size="10.00"> </text>
<polyline fill="none" stroke="black" points="1082,-466 1201,-466 "/>
<text text-anchor="start" x="1090" y="-454" font-family="Helvetica,sans-Serif" font-size="10.00">+ toPrettyString()</text>
<text text-anchor="start" x="1090" y="-443" font-family="Helvetica,sans-Serif" font-size="10.00">+ toShortPrettyString()</text>
<text text-anchor="start" x="1090" y="-432" font-family="Helvetica,sans-Serif" font-size="10.00">+ toRaw()</text>
<text text-anchor="start" x="1090" y="-421" font-family="Helvetica,sans-Serif" font-size="10.00">+ toVbkEncoding()</text>
<text text-anchor="start" x="1090" y="-410" font-family="Helvetica,sans-Serif" font-size="10.00">+ toRaw()</text>
<text text-anchor="start" x="1090" y="-399" font-family="Helvetica,sans-Serif" font-size="10.00">+ toVbkEncoding()</text>
<text text-anchor="start" x="1090" y="-388" font-family="Helvetica,sans-Serif" font-size="10.00">+ estimateSize()</text>
<text text-anchor="start" x="1090" y="-377" font-family="Helvetica,sans-Serif" font-size="10.00">+ getBlockTime()</text>
<text text-anchor="start" x="1090" y="-366" font-family="Helvetica,sans-Serif" font-size="10.00">+ calculateHash()</text>
<text text-anchor="start" x="1090" y="-355" font-family="Helvetica,sans-Serif" font-size="10.00">+ getHash()</text>
<text text-anchor="start" x="1090" y="-344" font-family="Helvetica,sans-Serif" font-size="10.00">and 22 more...</text>
<text text-anchor="start" x="1090" y="-333" font-family="Helvetica,sans-Serif" font-size="10.00">+ name()</text>
</a>
</g>
</g>
<!-- Node19&#45;&gt;Node1 -->
<g id="edge28" class="edge">
<title>Node19&#45;&gt;Node1</title>
<path fill="none" stroke="#404040" d="M1136.98,-325.94C1133.63,-313.5 1128.68,-301.42 1121.5,-291 1045.03,-180.04 893.81,-116.84 805.68,-87.94"/>
<polygon fill="none" stroke="#404040" points="805.62,-87.92 798.69,-89.89 794.2,-84.25 801.14,-82.27 805.62,-87.92"/>
<text text-anchor="middle" x="1144.5" y="-225" font-family="Helvetica,sans-Serif" font-size="10.00"> +containingBlock</text>
</g>
<!-- Node19&#45;&gt;Node8 -->
<g id="edge27" class="edge">
<title>Node19&#45;&gt;Node8</title>
<path fill="none" stroke="#404040" d="M1081.57,-328.31C1078.61,-325.41 1075.59,-322.62 1072.5,-320 998.39,-257.06 884.71,-237.11 810.72,-230.96"/>
<polygon fill="none" stroke="#404040" points="810.71,-230.96 804.43,-234.5 798.75,-230.06 805.03,-226.52 810.71,-230.96"/>
<text text-anchor="middle" x="1080" y="-294" font-family="Helvetica,sans-Serif" font-size="10.00"> +publishedBlock</text>
</g>
</g>
</svg>
