<?xml version="1.0" encoding="UTF-8" standalone="no"?>
<!DOCTYPE svg PUBLIC "-//W3C//DTD SVG 1.1//EN"
 "http://www.w3.org/Graphics/SVG/1.1/DTD/svg11.dtd">
<!-- Generated by graphviz version 2.50.0 (20220203.2022)
 -->
<!-- Title: altintegration::BaseBlockTree&lt; Block &gt; Pages: 1 -->
<svg width="869pt" height="1191pt"
 viewBox="0.00 0.00 868.50 1191.00" xmlns="http://www.w3.org/2000/svg" xmlns:xlink="http://www.w3.org/1999/xlink">
<g id="graph0" class="graph" transform="scale(1 1) rotate(0) translate(4 1187)">
<title>altintegration::BaseBlockTree&lt; Block &gt;</title>
<polygon fill="white" stroke="transparent" points="-4,4 -4,-1187 864.5,-1187 864.5,4 -4,4"/>
<!-- Node1 -->
<g id="node1" class="node">
<title>Node1</title>
<g id="a_node1"><a xlink:title="Base block tree that stores all blocks, maintains tree tips, maintains active chain.">
<polygon fill="#bfbfbf" stroke="black" points="430.5,-0.5 430.5,-277.5 582.5,-277.5 582.5,-0.5 430.5,-0.5"/>
<text text-anchor="start" x="438.5" y="-265.5" font-family="Helvetica,sans-Serif" font-size="10.00">altintegration::BaseBlock</text>
<text text-anchor="middle" x="506.5" y="-254.5" font-family="Helvetica,sans-Serif" font-size="10.00">Tree&lt; Block &gt;</text>
<polyline fill="none" stroke="black" points="430.5,-247.5 582.5,-247.5 "/>
<text text-anchor="start" x="438.5" y="-235.5" font-family="Helvetica,sans-Serif" font-size="10.00">+ onBlockBeforeDeallocated</text>
<text text-anchor="start" x="438.5" y="-224.5" font-family="Helvetica,sans-Serif" font-size="10.00">+ onBlockValidityChanged</text>
<text text-anchor="start" x="438.5" y="-213.5" font-family="Helvetica,sans-Serif" font-size="10.00"># isLoadingBlocks_</text>
<text text-anchor="start" x="438.5" y="-202.5" font-family="Helvetica,sans-Serif" font-size="10.00"># isLoaded_</text>
<polyline fill="none" stroke="black" points="430.5,-195.5 582.5,-195.5 "/>
<text text-anchor="start" x="438.5" y="-183.5" font-family="Helvetica,sans-Serif" font-size="10.00">+ getTips()</text>
<text text-anchor="start" x="438.5" y="-172.5" font-family="Helvetica,sans-Serif" font-size="10.00">+ getBlocks()</text>
<text text-anchor="start" x="438.5" y="-161.5" font-family="Helvetica,sans-Serif" font-size="10.00">+ getAllBlocks()</text>
<text text-anchor="start" x="438.5" y="-150.5" font-family="Helvetica,sans-Serif" font-size="10.00">+ getBlockProvider()</text>
<text text-anchor="start" x="438.5" y="-139.5" font-family="Helvetica,sans-Serif" font-size="10.00">+ ~BaseBlockTree()</text>
<text text-anchor="start" x="438.5" y="-128.5" font-family="Helvetica,sans-Serif" font-size="10.00">+ BaseBlockTree()</text>
<text text-anchor="start" x="438.5" y="-117.5" font-family="Helvetica,sans-Serif" font-size="10.00">+ BaseBlockTree()</text>
<text text-anchor="start" x="438.5" y="-106.5" font-family="Helvetica,sans-Serif" font-size="10.00">+ operator=()</text>
<text text-anchor="start" x="438.5" y="-95.5" font-family="Helvetica,sans-Serif" font-size="10.00">+ BaseBlockTree()</text>
<text text-anchor="start" x="438.5" y="-84.5" font-family="Helvetica,sans-Serif" font-size="10.00">+ operator=()</text>
<text text-anchor="start" x="438.5" y="-73.5" font-family="Helvetica,sans-Serif" font-size="10.00">and 23 more...</text>
<text text-anchor="start" x="438.5" y="-62.5" font-family="Helvetica,sans-Serif" font-size="10.00"># deallocateBlock()</text>
<text text-anchor="start" x="438.5" y="-51.5" font-family="Helvetica,sans-Serif" font-size="10.00"># toPrettyString()</text>
<text text-anchor="start" x="438.5" y="-40.5" font-family="Helvetica,sans-Serif" font-size="10.00"># decreaseAppliedBlockCount()</text>
<text text-anchor="start" x="438.5" y="-29.5" font-family="Helvetica,sans-Serif" font-size="10.00"># increaseAppliedBlockCount()</text>
<text text-anchor="start" x="438.5" y="-18.5" font-family="Helvetica,sans-Serif" font-size="10.00"># decreaseAppliedBlockCount()</text>
<text text-anchor="start" x="438.5" y="-7.5" font-family="Helvetica,sans-Serif" font-size="10.00"># increaseAppliedBlockCount()</text>
</a>
</g>
</g>
<!-- Node2 -->
<g id="node2" class="node">
<title>Node2</title>
<g id="a_node2"><a xlink:title=" ">
<polygon fill="white" stroke="black" points="8,-375 8,-454 145,-454 145,-375 8,-375"/>
<text text-anchor="start" x="16" y="-442" font-family="Helvetica,sans-Serif" font-size="10.00">std::unordered_map</text>
<text text-anchor="start" x="16" y="-431" font-family="Helvetica,sans-Serif" font-size="10.00">&lt; prev_block_hash_t,</text>
<text text-anchor="middle" x="76.5" y="-420" font-family="Helvetica,sans-Serif" font-size="10.00"> std::unique_ptr&lt; index_t &gt; &gt;</text>
<polyline fill="none" stroke="black" points="8,-413 145,-413 "/>
<text text-anchor="start" x="16" y="-401" font-family="Helvetica,sans-Serif" font-size="10.00">+ keys</text>
<polyline fill="none" stroke="black" points="8,-394 145,-394 "/>
<text text-anchor="middle" x="76.5" y="-382" font-family="Helvetica,sans-Serif" font-size="10.00"> </text>
</a>
</g>
</g>
<!-- Node2&#45;&gt;Node1 -->
<g id="edge1" class="edge">
<title>Node2&#45;&gt;Node1</title>
<path fill="none" stroke="#404040" d="M132.59,-374.89C155.66,-359.2 182.73,-341.02 207.5,-325 278.34,-279.18 359.83,-228.92 419.83,-192.36"/>
<polygon fill="none" stroke="#404040" points="420.15,-192.17 423.2,-185.63 430.4,-185.93 427.35,-192.47 420.15,-192.17"/>
<text text-anchor="middle" x="269.5" y="-299" font-family="Helvetica,sans-Serif" font-size="10.00"> #blocks_</text>
</g>
<!-- Node3 -->
<g id="node3" class="node">
<title>Node3</title>
<g id="a_node3"><a xlink:title=" ">
<polygon fill="white" stroke="black" points="0,-792.5 0,-849.5 127,-849.5 127,-792.5 0,-792.5"/>
<text text-anchor="middle" x="63.5" y="-837.5" font-family="Helvetica,sans-Serif" font-size="10.00">std::unique_ptr&lt; index_t &gt;</text>
<polyline fill="none" stroke="black" points="0,-830.5 127,-830.5 "/>
<text text-anchor="start" x="8" y="-818.5" font-family="Helvetica,sans-Serif" font-size="10.00">+ ptr</text>
<polyline fill="none" stroke="black" points="0,-811.5 127,-811.5 "/>
<text text-anchor="start" x="8" y="-799.5" font-family="Helvetica,sans-Serif" font-size="10.00">+ operator&#45;&gt;()</text>
</a>
</g>
</g>
<!-- Node3&#45;&gt;Node2 -->
<g id="edge2" class="edge">
<title>Node3&#45;&gt;Node2</title>
<path fill="none" stroke="#404040" d="M55.8,-792.46C54.43,-786.42 53.21,-780.03 52.5,-774 41.47,-680.43 44.86,-655.91 52.5,-562 55.11,-529.89 60.9,-494.21 66.13,-466.1"/>
<polygon fill="none" stroke="#404040" points="66.16,-465.94 63.35,-459.3 68.41,-454.15 71.21,-460.8 66.16,-465.94"/>
<text text-anchor="middle" x="77" y="-665.5" font-family="Helvetica,sans-Serif" font-size="10.00"> +elements</text>
</g>
<!-- Node4 -->
<g id="node4" class="node">
<title>Node4</title>
<g id="a_node4"><a xlink:title=" ">
<polygon fill="white" stroke="black" points="34.5,-944.5 34.5,-1001.5 136.5,-1001.5 136.5,-944.5 34.5,-944.5"/>
<text text-anchor="middle" x="85.5" y="-989.5" font-family="Helvetica,sans-Serif" font-size="10.00">std::unique_ptr&lt; T &gt;</text>
<polyline fill="none" stroke="black" points="34.5,-982.5 136.5,-982.5 "/>
<text text-anchor="middle" x="85.5" y="-970.5" font-family="Helvetica,sans-Serif" font-size="10.00"> </text>
<polyline fill="none" stroke="black" points="34.5,-963.5 136.5,-963.5 "/>
<text text-anchor="start" x="42.5" y="-951.5" font-family="Helvetica,sans-Serif" font-size="10.00">+ operator&#45;&gt;()</text>
</a>
</g>
</g>
<!-- Node4&#45;&gt;Node3 -->
<g id="edge3" class="edge">
<title>Node4&#45;&gt;Node3</title>
<path fill="none" stroke="orange" d="M80,-934.47C76.13,-908.11 71.04,-873.43 67.55,-849.59"/>
<polygon fill="orange" stroke="orange" points="76.55,-935.1 81.46,-944.49 83.48,-934.09 76.55,-935.1"/>
<text text-anchor="middle" x="103.5" y="-894.5" font-family="Helvetica,sans-Serif" font-size="10.00"> &lt; index_t &gt;</text>
</g>
<!-- Node5 -->
<g id="node5" class="node">
<title>Node5</title>
<g id="a_node5"><a xlink:title=" ">
<polygon fill="white" stroke="#bfbfbf" points="147,-1125.5 147,-1182.5 176,-1182.5 176,-1125.5 147,-1125.5"/>
<text text-anchor="middle" x="161.5" y="-1170.5" font-family="Helvetica,sans-Serif" font-size="10.00">T</text>
<polyline fill="none" stroke="#bfbfbf" points="147,-1163.5 176,-1163.5 "/>
<text text-anchor="middle" x="161.5" y="-1151.5" font-family="Helvetica,sans-Serif" font-size="10.00"> </text>
<polyline fill="none" stroke="#bfbfbf" points="147,-1144.5 176,-1144.5 "/>
<text text-anchor="middle" x="161.5" y="-1132.5" font-family="Helvetica,sans-Serif" font-size="10.00"> </text>
</a>
</g>
</g>
<!-- Node5&#45;&gt;Node4 -->
<g id="edge4" class="edge">
<title>Node5&#45;&gt;Node4</title>
<path fill="none" stroke="#404040" d="M146.81,-1135.98C140.2,-1127.67 132.73,-1117.26 127.5,-1107 112.25,-1077.06 101.19,-1040.51 94.26,-1013.3"/>
<polygon fill="none" stroke="#404040" points="94.23,-1013.17 88.92,-1008.3 91.37,-1001.52 96.68,-1006.39 94.23,-1013.17"/>
<text text-anchor="middle" x="137.5" y="-1099" font-family="Helvetica,sans-Serif" font-size="10.00"> +ptr</text>
</g>
<!-- Node6 -->
<g id="node6" class="node">
<title>Node6</title>
<g id="a_node6"><a xlink:title=" ">
<polygon fill="white" stroke="black" points="111,-634 111,-702 212,-702 212,-634 111,-634"/>
<text text-anchor="start" x="119" y="-690" font-family="Helvetica,sans-Serif" font-size="10.00">std::unordered_map</text>
<text text-anchor="middle" x="161.5" y="-679" font-family="Helvetica,sans-Serif" font-size="10.00">&lt; K, T &gt;</text>
<polyline fill="none" stroke="black" points="111,-672 212,-672 "/>
<text text-anchor="middle" x="161.5" y="-660" font-family="Helvetica,sans-Serif" font-size="10.00"> </text>
<polyline fill="none" stroke="black" points="111,-653 212,-653 "/>
<text text-anchor="middle" x="161.5" y="-641" font-family="Helvetica,sans-Serif" font-size="10.00"> </text>
</a>
</g>
</g>
<!-- Node5&#45;&gt;Node6 -->
<g id="edge7" class="edge">
<title>Node5&#45;&gt;Node6</title>
<path fill="none" stroke="#404040" d="M161.5,-1125.24C161.5,-1045.19 161.5,-813.33 161.5,-714.5"/>
<polygon fill="none" stroke="#404040" points="161.5,-714.29 157.5,-708.29 161.5,-702.29 165.5,-708.29 161.5,-714.29"/>
<text text-anchor="middle" x="186" y="-970.5" font-family="Helvetica,sans-Serif" font-size="10.00"> +elements</text>
</g>
<!-- Node14 -->
<g id="node14" class="node">
<title>Node14</title>
<g id="a_node14"><a xlink:title=" ">
<polygon fill="white" stroke="black" points="234,-1020.5 234,-1077.5 337,-1077.5 337,-1020.5 234,-1020.5"/>
<text text-anchor="middle" x="285.5" y="-1065.5" font-family="Helvetica,sans-Serif" font-size="10.00">std::shared_ptr&lt; T &gt;</text>
<polyline fill="none" stroke="black" points="234,-1058.5 337,-1058.5 "/>
<text text-anchor="middle" x="285.5" y="-1046.5" font-family="Helvetica,sans-Serif" font-size="10.00"> </text>
<polyline fill="none" stroke="black" points="234,-1039.5 337,-1039.5 "/>
<text text-anchor="start" x="242" y="-1027.5" font-family="Helvetica,sans-Serif" font-size="10.00">+ operator&#45;&gt;()</text>
</a>
</g>
</g>
<!-- Node5&#45;&gt;Node14 -->
<g id="edge18" class="edge">
<title>Node5&#45;&gt;Node14</title>
<path fill="none" stroke="#404040" d="M176.21,-1140.78C192.56,-1127.2 219.72,-1104.64 242.87,-1085.41"/>
<polygon fill="none" stroke="#404040" points="242.94,-1085.35 245,-1078.44 252.17,-1077.68 250.11,-1084.6 242.94,-1085.35"/>
<text text-anchor="middle" x="237.5" y="-1099" font-family="Helvetica,sans-Serif" font-size="10.00"> +ptr</text>
</g>
<!-- Node6&#45;&gt;Node2 -->
<g id="edge5" class="edge">
<title>Node6&#45;&gt;Node2</title>
<path fill="none" stroke="orange" d="M133.68,-624.98C119.75,-601.98 103.89,-572.44 94.5,-544 84.86,-514.8 80.38,-480.21 78.3,-454.27"/>
<polygon fill="orange" stroke="orange" points="130.88,-627.1 139.11,-633.78 136.84,-623.43 130.88,-627.1"/>
<text text-anchor="start" x="94.5" y="-536" font-family="Helvetica,sans-Serif" font-size="10.00"> &lt; prev_block_hash_t,</text>
<text text-anchor="middle" x="155" y="-525" font-family="Helvetica,sans-Serif" font-size="10.00"> std::unique_ptr&lt; index_t &gt; &gt;</text>
</g>
<!-- Node7 -->
<g id="node7" class="node">
<title>Node7</title>
<g id="a_node7"><a xlink:title=" ">
<polygon fill="white" stroke="#bfbfbf" points="275,-868.5 275,-925.5 304,-925.5 304,-868.5 275,-868.5"/>
<text text-anchor="middle" x="289.5" y="-913.5" font-family="Helvetica,sans-Serif" font-size="10.00">K</text>
<polyline fill="none" stroke="#bfbfbf" points="275,-906.5 304,-906.5 "/>
<text text-anchor="middle" x="289.5" y="-894.5" font-family="Helvetica,sans-Serif" font-size="10.00"> </text>
<polyline fill="none" stroke="#bfbfbf" points="275,-887.5 304,-887.5 "/>
<text text-anchor="middle" x="289.5" y="-875.5" font-family="Helvetica,sans-Serif" font-size="10.00"> </text>
</a>
</g>
</g>
<!-- Node7&#45;&gt;Node6 -->
<g id="edge6" class="edge">
<title>Node7&#45;&gt;Node6</title>
<path fill="none" stroke="#404040" d="M274.75,-876.71C268.82,-868.63 262.07,-859.03 256.5,-850 228.55,-804.7 200.74,-750.35 182.5,-713.11"/>
<polygon fill="none" stroke="#404040" points="182.41,-712.92 176.19,-709.27 177.16,-702.13 183.38,-705.77 182.41,-712.92"/>
<text text-anchor="middle" x="271" y="-818.5" font-family="Helvetica,sans-Serif" font-size="10.00"> +keys</text>
</g>
<!-- Node12 -->
<g id="node12" class="node">
<title>Node12</title>
<g id="a_node12"><a xlink:title=" ">
<polygon fill="white" stroke="black" points="383,-639.5 383,-696.5 454,-696.5 454,-639.5 383,-639.5"/>
<text text-anchor="middle" x="418.5" y="-684.5" font-family="Helvetica,sans-Serif" font-size="10.00">std::set&lt; K &gt;</text>
<polyline fill="none" stroke="black" points="383,-677.5 454,-677.5 "/>
<text text-anchor="middle" x="418.5" y="-665.5" font-family="Helvetica,sans-Serif" font-size="10.00"> </text>
<polyline fill="none" stroke="black" points="383,-658.5 454,-658.5 "/>
<text text-anchor="middle" x="418.5" y="-646.5" font-family="Helvetica,sans-Serif" font-size="10.00"> </text>
</a>
</g>
</g>
<!-- Node7&#45;&gt;Node12 -->
<g id="edge15" class="edge">
<title>Node7&#45;&gt;Node12</title>
<path fill="none" stroke="#404040" d="M304.23,-876.7C310.16,-868.62 316.91,-859.02 322.5,-850 352.06,-802.33 381.62,-744.71 399.98,-707.49"/>
<polygon fill="none" stroke="#404040" points="400.02,-707.4 399.07,-700.25 405.3,-696.62 406.25,-703.77 400.02,-707.4"/>
<text text-anchor="middle" x="369" y="-818.5" font-family="Helvetica,sans-Serif" font-size="10.00"> +keys</text>
</g>
<!-- Node15 -->
<g id="node15" class="node">
<title>Node15</title>
<g id="a_node15"><a xlink:title=" ">
<polygon fill="white" stroke="black" points="230,-639.5 230,-696.5 349,-696.5 349,-639.5 230,-639.5"/>
<text text-anchor="middle" x="289.5" y="-684.5" font-family="Helvetica,sans-Serif" font-size="10.00">std::unordered_set&lt; K &gt;</text>
<polyline fill="none" stroke="black" points="230,-677.5 349,-677.5 "/>
<text text-anchor="middle" x="289.5" y="-665.5" font-family="Helvetica,sans-Serif" font-size="10.00"> </text>
<polyline fill="none" stroke="black" points="230,-658.5 349,-658.5 "/>
<text text-anchor="middle" x="289.5" y="-646.5" font-family="Helvetica,sans-Serif" font-size="10.00"> </text>
</a>
</g>
</g>
<!-- Node7&#45;&gt;Node15 -->
<g id="edge20" class="edge">
<title>Node7&#45;&gt;Node15</title>
<path fill="none" stroke="#404040" d="M289.5,-868.17C289.5,-828.23 289.5,-754.48 289.5,-708.8"/>
<polygon fill="none" stroke="#404040" points="289.5,-708.71 285.5,-702.71 289.5,-696.71 293.5,-702.71 289.5,-708.71"/>
<text text-anchor="middle" x="304" y="-818.5" font-family="Helvetica,sans-Serif" font-size="10.00"> +keys</text>
</g>
<!-- Node8 -->
<g id="node8" class="node">
<title>Node8</title>
<g id="a_node8"><a xlink:title=" ">
<polygon fill="white" stroke="black" points="217,-380.5 217,-448.5 364,-448.5 364,-380.5 217,-380.5"/>
<text text-anchor="start" x="225" y="-436.5" font-family="Helvetica,sans-Serif" font-size="10.00">std::unordered_set</text>
<text text-anchor="middle" x="290.5" y="-425.5" font-family="Helvetica,sans-Serif" font-size="10.00">&lt; altintegration::BlockIndex * &gt;</text>
<polyline fill="none" stroke="black" points="217,-418.5 364,-418.5 "/>
<text text-anchor="middle" x="290.5" y="-406.5" font-family="Helvetica,sans-Serif" font-size="10.00"> </text>
<polyline fill="none" stroke="black" points="217,-399.5 364,-399.5 "/>
<text text-anchor="middle" x="290.5" y="-387.5" font-family="Helvetica,sans-Serif" font-size="10.00"> </text>
</a>
</g>
</g>
<!-- Node8&#45;&gt;Node1 -->
<g id="edge8" class="edge">
<title>Node8&#45;&gt;Node1</title>
<path fill="none" stroke="#404040" d="M316.77,-380.24C343.12,-346.87 385.1,-293.71 422.89,-245.87"/>
<polygon fill="none" stroke="#404040" points="422.94,-245.8 423.52,-238.61 430.38,-236.38 429.8,-243.57 422.94,-245.8"/>
<text text-anchor="middle" x="394" y="-299" font-family="Helvetica,sans-Serif" font-size="10.00"> #tips_</text>
</g>
<!-- Node9 -->
<g id="node9" class="node">
<title>Node9</title>
<g id="a_node9"><a xlink:href="structaltintegration_1_1BlockIndex.html" target="_top" xlink:title="A node in a block tree.">
<polygon fill="white" stroke="black" points="483,-562.5 483,-773.5 608,-773.5 608,-562.5 483,-562.5"/>
<text text-anchor="start" x="491" y="-761.5" font-family="Helvetica,sans-Serif" font-size="10.00">altintegration::BlockIndex</text>
<text text-anchor="middle" x="545.5" y="-750.5" font-family="Helvetica,sans-Serif" font-size="10.00">&lt; Block &gt;</text>
<polyline fill="none" stroke="black" points="483,-743.5 608,-743.5 "/>
<text text-anchor="start" x="491" y="-731.5" font-family="Helvetica,sans-Serif" font-size="10.00">+ finalized</text>
<text text-anchor="start" x="491" y="-720.5" font-family="Helvetica,sans-Serif" font-size="10.00"># height</text>
<text text-anchor="start" x="491" y="-709.5" font-family="Helvetica,sans-Serif" font-size="10.00"># status</text>
<text text-anchor="start" x="491" y="-698.5" font-family="Helvetica,sans-Serif" font-size="10.00"># dirty</text>
<polyline fill="none" stroke="black" points="483,-691.5 608,-691.5 "/>
<text text-anchor="start" x="491" y="-679.5" font-family="Helvetica,sans-Serif" font-size="10.00">+ BlockIndex()</text>
<text text-anchor="start" x="491" y="-668.5" font-family="Helvetica,sans-Serif" font-size="10.00">+ BlockIndex()</text>
<text text-anchor="start" x="491" y="-657.5" font-family="Helvetica,sans-Serif" font-size="10.00">+ ~BlockIndex()</text>
<text text-anchor="start" x="491" y="-646.5" font-family="Helvetica,sans-Serif" font-size="10.00">+ disconnectFromPrev()</text>
<text text-anchor="start" x="491" y="-635.5" font-family="Helvetica,sans-Serif" font-size="10.00">+ isTip()</text>
<text text-anchor="start" x="491" y="-624.5" font-family="Helvetica,sans-Serif" font-size="10.00">+ BlockIndex()</text>
<text text-anchor="start" x="491" y="-613.5" font-family="Helvetica,sans-Serif" font-size="10.00">+ operator=()</text>
<text text-anchor="start" x="491" y="-602.5" font-family="Helvetica,sans-Serif" font-size="10.00">+ isDeleted()</text>
<text text-anchor="start" x="491" y="-591.5" font-family="Helvetica,sans-Serif" font-size="10.00">+ isRoot()</text>
<text text-anchor="start" x="491" y="-580.5" font-family="Helvetica,sans-Serif" font-size="10.00">+ restore()</text>
<text text-anchor="start" x="491" y="-569.5" font-family="Helvetica,sans-Serif" font-size="10.00">and 42 more...</text>
</a>
</g>
</g>
<!-- Node9&#45;&gt;Node8 -->
<g id="edge9" class="edge">
<title>Node9&#45;&gt;Node8</title>
<path fill="none" stroke="#404040" d="M482.79,-577.32C476.7,-571.66 470.26,-566.46 463.5,-562 437.41,-544.78 421.78,-560.93 395.5,-544 362.32,-522.63 334.58,-487.33 315.96,-459.13"/>
<polygon fill="none" stroke="#404040" points="315.76,-458.82 309.15,-455.93 309.28,-448.72 315.89,-451.61 315.76,-458.82"/>
<text text-anchor="middle" x="410" y="-530.5" font-family="Helvetica,sans-Serif" font-size="10.00"> +keys</text>
</g>
<!-- Node9&#45;&gt;Node9 -->
<g id="edge11" class="edge">
<title>Node9&#45;&gt;Node9</title>
<path fill="none" stroke="#404040" d="M608.28,-691.35C618.76,-688.08 626,-680.3 626,-668 626,-660.5 623.31,-654.69 618.84,-650.54"/>
<polygon fill="none" stroke="#404040" points="618.76,-650.5 611.57,-651.06 608.28,-644.65 615.47,-644.08 618.76,-650.5"/>
<text text-anchor="middle" x="642.5" y="-665.5" font-family="Helvetica,sans-Serif" font-size="10.00"> +pprev</text>
</g>
<!-- Node11 -->
<g id="node11" class="node">
<title>Node11</title>
<g id="a_node11"><a xlink:title=" ">
<polygon fill="white" stroke="black" points="382.5,-380.5 382.5,-448.5 494.5,-448.5 494.5,-380.5 382.5,-380.5"/>
<text text-anchor="start" x="390.5" y="-436.5" font-family="Helvetica,sans-Serif" font-size="10.00">std::set&lt; altintegration</text>
<text text-anchor="middle" x="438.5" y="-425.5" font-family="Helvetica,sans-Serif" font-size="10.00">::BlockIndex * &gt;</text>
<polyline fill="none" stroke="black" points="382.5,-418.5 494.5,-418.5 "/>
<text text-anchor="middle" x="438.5" y="-406.5" font-family="Helvetica,sans-Serif" font-size="10.00"> </text>
<polyline fill="none" stroke="black" points="382.5,-399.5 494.5,-399.5 "/>
<text text-anchor="middle" x="438.5" y="-387.5" font-family="Helvetica,sans-Serif" font-size="10.00"> </text>
</a>
</g>
</g>
<!-- Node9&#45;&gt;Node11 -->
<g id="edge13" class="edge">
<title>Node9&#45;&gt;Node11</title>
<path fill="none" stroke="#404040" d="M608.08,-592.23C620.77,-568.1 625.66,-542.35 608.5,-522 577.98,-485.8 543.78,-528.89 503.5,-504 486.07,-493.23 471.82,-475.91 461.15,-459.43"/>
<polygon fill="none" stroke="#404040" points="460.92,-459.05 454.38,-456.01 454.66,-448.8 461.2,-451.84 460.92,-459.05"/>
<text text-anchor="middle" x="633" y="-530.5" font-family="Helvetica,sans-Serif" font-size="10.00"> +keys</text>
</g>
<!-- Node10 -->
<g id="node10" class="node">
<title>Node10</title>
<g id="a_node10"><a xlink:title=" ">
<polygon fill="white" stroke="#bfbfbf" points="505.5,-868.5 505.5,-925.5 585.5,-925.5 585.5,-868.5 505.5,-868.5"/>
<text text-anchor="middle" x="545.5" y="-913.5" font-family="Helvetica,sans-Serif" font-size="10.00">Block::addon_t</text>
<polyline fill="none" stroke="#bfbfbf" points="505.5,-906.5 585.5,-906.5 "/>
<text text-anchor="middle" x="545.5" y="-894.5" font-family="Helvetica,sans-Serif" font-size="10.00"> </text>
<polyline fill="none" stroke="#bfbfbf" points="505.5,-887.5 585.5,-887.5 "/>
<text text-anchor="middle" x="545.5" y="-875.5" font-family="Helvetica,sans-Serif" font-size="10.00"> </text>
</a>
</g>
</g>
<!-- Node10&#45;&gt;Node9 -->
<g id="edge10" class="edge">
<title>Node10&#45;&gt;Node9</title>
<path fill="none" stroke="midnightblue" d="M545.5,-858.05C545.5,-834.79 545.5,-803.76 545.5,-773.58"/>
<polygon fill="none" stroke="midnightblue" points="542,-858.17 545.5,-868.17 549,-858.17 542,-858.17"/>
</g>
<!-- Node11&#45;&gt;Node9 -->
<g id="edge12" class="edge">
<title>Node11&#45;&gt;Node9</title>
<path fill="none" stroke="#404040" d="M455.81,-448.73C467.09,-467.42 483.44,-489.78 503.5,-504 525.87,-519.86 546.19,-499.97 562.5,-522 568.79,-530.49 572.58,-540.06 574.51,-550.14"/>
<polygon fill="none" stroke="#404040" points="574.53,-550.25 579.22,-555.72 575.98,-562.16 571.28,-556.69 574.53,-550.25"/>
<text text-anchor="middle" x="588.5" y="-530.5" font-family="Helvetica,sans-Serif" font-size="10.00"> +pnext</text>
</g>
<!-- Node12&#45;&gt;Node11 -->
<g id="edge14" class="edge">
<title>Node12&#45;&gt;Node11</title>
<path fill="none" stroke="orange" d="M421.27,-629.27C423.45,-600 426.58,-558.42 429.5,-522 431.47,-497.4 433.82,-469.62 435.63,-448.59"/>
<polygon fill="orange" stroke="orange" points="417.77,-629.24 420.52,-639.47 424.75,-629.75 417.77,-629.24"/>
<text text-anchor="middle" x="496" y="-530.5" font-family="Helvetica,sans-Serif" font-size="10.00"> &lt; altintegration::BlockIndex * &gt;</text>
</g>
<!-- Node13 -->
<g id="node13" class="node">
<title>Node13</title>
<g id="a_node13"><a xlink:title=" ">
<polygon fill="white" stroke="black" points="343.5,-868.5 343.5,-925.5 471.5,-925.5 471.5,-868.5 343.5,-868.5"/>
<text text-anchor="middle" x="407.5" y="-913.5" font-family="Helvetica,sans-Serif" font-size="10.00">std::shared_ptr&lt; block_t &gt;</text>
<polyline fill="none" stroke="black" points="343.5,-906.5 471.5,-906.5 "/>
<text text-anchor="start" x="351.5" y="-894.5" font-family="Helvetica,sans-Serif" font-size="10.00">+ ptr</text>
<polyline fill="none" stroke="black" points="343.5,-887.5 471.5,-887.5 "/>
<text text-anchor="start" x="351.5" y="-875.5" font-family="Helvetica,sans-Serif" font-size="10.00">+ operator&#45;&gt;()</text>
</a>
</g>
</g>
<!-- Node13&#45;&gt;Node9 -->
<g id="edge16" class="edge">
<title>Node13&#45;&gt;Node9</title>
<path fill="none" stroke="#404040" d="M424.42,-868.17C437.7,-846.32 457.14,-814.35 476.57,-782.39"/>
<polygon fill="none" stroke="#404040" points="476.63,-782.28 476.33,-775.08 482.87,-772.03 483.17,-779.23 476.63,-782.28"/>
<text text-anchor="middle" x="486" y="-818.5" font-family="Helvetica,sans-Serif" font-size="10.00"> #header</text>
</g>
<!-- Node14&#45;&gt;Node13 -->
<g id="edge17" class="edge">
<title>Node14&#45;&gt;Node13</title>
<path fill="none" stroke="orange" d="M314.33,-1012.56C335.96,-985.96 365.15,-950.07 385.06,-925.59"/>
<polygon fill="orange" stroke="orange" points="311.47,-1010.52 307.88,-1020.49 316.9,-1014.94 311.47,-1010.52"/>
<text text-anchor="middle" x="394" y="-970.5" font-family="Helvetica,sans-Serif" font-size="10.00"> &lt; block_t &gt;</text>
</g>
<!-- Node15&#45;&gt;Node8 -->
<g id="edge19" class="edge">
<title>Node15&#45;&gt;Node8</title>
<path fill="none" stroke="orange" d="M256.29,-631.3C233.75,-602.66 209.99,-560.95 221.5,-522 229.43,-495.17 246.48,-468.75 261.64,-448.93"/>
<polygon fill="orange" stroke="orange" points="253.85,-633.85 262.89,-639.39 259.27,-629.43 253.85,-633.85"/>
<text text-anchor="middle" x="288" y="-530.5" font-family="Helvetica,sans-Serif" font-size="10.00"> &lt; altintegration::BlockIndex * &gt;</text>
</g>
<!-- Node16 -->
<g id="node16" class="node">
<title>Node16</title>
<g id="a_node16"><a xlink:href="structaltintegration_1_1Chain.html" target="_top" xlink:title=" ">
<polygon fill="white" stroke="black" points="663,-325.5 663,-503.5 804,-503.5 804,-325.5 663,-325.5"/>
<text text-anchor="start" x="671" y="-491.5" font-family="Helvetica,sans-Serif" font-size="10.00">altintegration::Chain</text>
<text text-anchor="middle" x="733.5" y="-480.5" font-family="Helvetica,sans-Serif" font-size="10.00">&lt; altintegration::BlockIndex &gt;</text>
<polyline fill="none" stroke="black" points="663,-473.5 804,-473.5 "/>
<text text-anchor="middle" x="733.5" y="-461.5" font-family="Helvetica,sans-Serif" font-size="10.00"> </text>
<polyline fill="none" stroke="black" points="663,-454.5 804,-454.5 "/>
<text text-anchor="start" x="671" y="-442.5" font-family="Helvetica,sans-Serif" font-size="10.00">+ Chain()</text>
<text text-anchor="start" x="671" y="-431.5" font-family="Helvetica,sans-Serif" font-size="10.00">+ Chain()</text>
<text text-anchor="start" x="671" y="-420.5" font-family="Helvetica,sans-Serif" font-size="10.00">+ Chain()</text>
<text text-anchor="start" x="671" y="-409.5" font-family="Helvetica,sans-Serif" font-size="10.00">+ getStartHeight()</text>
<text text-anchor="start" x="671" y="-398.5" font-family="Helvetica,sans-Serif" font-size="10.00">+ firstHeight()</text>
<text text-anchor="start" x="671" y="-387.5" font-family="Helvetica,sans-Serif" font-size="10.00">+ contains()</text>
<text text-anchor="start" x="671" y="-376.5" font-family="Helvetica,sans-Serif" font-size="10.00">+ operator[]()</text>
<text text-anchor="start" x="671" y="-365.5" font-family="Helvetica,sans-Serif" font-size="10.00">+ next()</text>
<text text-anchor="start" x="671" y="-354.5" font-family="Helvetica,sans-Serif" font-size="10.00">+ chainHeight()</text>
<text text-anchor="start" x="671" y="-343.5" font-family="Helvetica,sans-Serif" font-size="10.00">+ empty()</text>
<text text-anchor="start" x="671" y="-332.5" font-family="Helvetica,sans-Serif" font-size="10.00">and 15 more...</text>
</a>
</g>
</g>
<!-- Node16&#45;&gt;Node1 -->
<g id="edge21" class="edge">
<title>Node16&#45;&gt;Node1</title>
<path fill="none" stroke="#404040" d="M662.92,-328.46C639.9,-300.73 614.12,-269.67 590.23,-240.89"/>
<polygon fill="none" stroke="#404040" points="590.22,-240.86 583.31,-238.8 582.55,-231.63 589.46,-233.69 590.22,-240.86"/>
<text text-anchor="middle" x="671.5" y="-299" font-family="Helvetica,sans-Serif" font-size="10.00"> #activeChain_</text>
</g>
<!-- Node17 -->
<g id="node17" class="node">
<title>Node17</title>
<g id="a_node17"><a xlink:href="structaltintegration_1_1Chain.html" target="_top" xlink:title="Fully in&#45;memory chain representation.">
<polygon fill="white" stroke="black" points="683,-579 683,-757 784,-757 784,-579 683,-579"/>
<text text-anchor="start" x="691" y="-745" font-family="Helvetica,sans-Serif" font-size="10.00">altintegration::Chain</text>
<text text-anchor="middle" x="733.5" y="-734" font-family="Helvetica,sans-Serif" font-size="10.00">&lt; BlockIndexT &gt;</text>
<polyline fill="none" stroke="black" points="683,-727 784,-727 "/>
<text text-anchor="middle" x="733.5" y="-715" font-family="Helvetica,sans-Serif" font-size="10.00"> </text>
<polyline fill="none" stroke="black" points="683,-708 784,-708 "/>
<text text-anchor="start" x="691" y="-696" font-family="Helvetica,sans-Serif" font-size="10.00">+ Chain()</text>
<text text-anchor="start" x="691" y="-685" font-family="Helvetica,sans-Serif" font-size="10.00">+ Chain()</text>
<text text-anchor="start" x="691" y="-674" font-family="Helvetica,sans-Serif" font-size="10.00">+ Chain()</text>
<text text-anchor="start" x="691" y="-663" font-family="Helvetica,sans-Serif" font-size="10.00">+ getStartHeight()</text>
<text text-anchor="start" x="691" y="-652" font-family="Helvetica,sans-Serif" font-size="10.00">+ firstHeight()</text>
<text text-anchor="start" x="691" y="-641" font-family="Helvetica,sans-Serif" font-size="10.00">+ contains()</text>
<text text-anchor="start" x="691" y="-630" font-family="Helvetica,sans-Serif" font-size="10.00">+ operator[]()</text>
<text text-anchor="start" x="691" y="-619" font-family="Helvetica,sans-Serif" font-size="10.00">+ next()</text>
<text text-anchor="start" x="691" y="-608" font-family="Helvetica,sans-Serif" font-size="10.00">+ chainHeight()</text>
<text text-anchor="start" x="691" y="-597" font-family="Helvetica,sans-Serif" font-size="10.00">+ empty()</text>
<text text-anchor="start" x="691" y="-586" font-family="Helvetica,sans-Serif" font-size="10.00">and 15 more...</text>
</a>
</g>
</g>
<!-- Node17&#45;&gt;Node16 -->
<g id="edge22" class="edge">
<title>Node17&#45;&gt;Node16</title>
<path fill="none" stroke="orange" d="M733.5,-568.59C733.5,-547.16 733.5,-524.61 733.5,-503.6"/>
<polygon fill="orange" stroke="orange" points="730,-568.68 733.5,-578.68 737,-568.68 730,-568.68"/>
<text text-anchor="middle" x="797" y="-530.5" font-family="Helvetica,sans-Serif" font-size="10.00"> &lt; altintegration::BlockIndex &gt;</text>
</g>
<!-- Node18 -->
<g id="node18" class="node">
<title>Node18</title>
<g id="a_node18"><a xlink:href="structaltintegration_1_1BlockReader.html" target="_top" xlink:title="An abstraction over on&#45;disk storage iterator.">
<polygon fill="white" stroke="black" points="512.5,-331 512.5,-498 644.5,-498 644.5,-331 512.5,-331"/>
<text text-anchor="middle" x="578.5" y="-486" font-family="Helvetica,sans-Serif" font-size="10.00">altintegration::BlockReader</text>
<polyline fill="none" stroke="black" points="512.5,-479 644.5,-479 "/>
<text text-anchor="middle" x="578.5" y="-467" font-family="Helvetica,sans-Serif" font-size="10.00"> </text>
<polyline fill="none" stroke="black" points="512.5,-460 644.5,-460 "/>
<text text-anchor="start" x="520.5" y="-448" font-family="Helvetica,sans-Serif" font-size="10.00">+ ~BlockReader()</text>
<text text-anchor="start" x="520.5" y="-437" font-family="Helvetica,sans-Serif" font-size="10.00">+ getAltTip()</text>
<text text-anchor="start" x="520.5" y="-426" font-family="Helvetica,sans-Serif" font-size="10.00">+ getVbkTip()</text>
<text text-anchor="start" x="520.5" y="-415" font-family="Helvetica,sans-Serif" font-size="10.00">+ getBtcTip()</text>
<text text-anchor="start" x="520.5" y="-404" font-family="Helvetica,sans-Serif" font-size="10.00">+ getBlock()</text>
<text text-anchor="start" x="520.5" y="-393" font-family="Helvetica,sans-Serif" font-size="10.00">+ getBlock()</text>
<text text-anchor="start" x="520.5" y="-382" font-family="Helvetica,sans-Serif" font-size="10.00">+ getBlock()</text>
<text text-anchor="start" x="520.5" y="-371" font-family="Helvetica,sans-Serif" font-size="10.00">+ getAltBlockIterator()</text>
<text text-anchor="start" x="520.5" y="-360" font-family="Helvetica,sans-Serif" font-size="10.00">+ getVbkBlockIterator()</text>
<text text-anchor="start" x="520.5" y="-349" font-family="Helvetica,sans-Serif" font-size="10.00">+ getBtcBlockIterator()</text>
<text text-anchor="start" x="520.5" y="-338" font-family="Helvetica,sans-Serif" font-size="10.00">and 6 more...</text>
</a>
</g>
</g>
<!-- Node18&#45;&gt;Node1 -->
<g id="edge23" class="edge">
<title>Node18&#45;&gt;Node1</title>
<path fill="none" stroke="#404040" d="M556.7,-330.7C553.24,-317.56 549.57,-303.62 545.86,-289.5"/>
<polygon fill="none" stroke="#404040" points="545.78,-289.22 540.39,-284.44 542.73,-277.62 548.12,-282.4 545.78,-289.22"/>
<text text-anchor="middle" x="585" y="-299" font-family="Helvetica,sans-Serif" font-size="10.00"> #blockProvider_</text>
</g>
</g>
</svg>
