<?xml version="1.0" encoding="UTF-8" standalone="no"?>
<!DOCTYPE svg PUBLIC "-//W3C//DTD SVG 1.1//EN"
 "http://www.w3.org/Graphics/SVG/1.1/DTD/svg11.dtd">
<!-- Generated by graphviz version 2.49.3 (20211027.1534)
 -->
<!-- Title: altintegration::ATV Pages: 1 -->
<svg width="794pt" height="898pt"
 viewBox="0.00 0.00 793.50 898.00" xmlns="http://www.w3.org/2000/svg" xmlns:xlink="http://www.w3.org/1999/xlink">
<g id="graph0" class="graph" transform="scale(1 1) rotate(0) translate(4 894)">
<title>altintegration::ATV</title>
<polygon fill="white" stroke="transparent" points="-4,4 -4,-894 789.5,-894 789.5,4 -4,4"/>
<!-- Node1 -->
<g id="node1" class="node">
<title>Node1</title>
<g id="a_node1"><a xlink:title="Atlchain endorsement.">
<polygon fill="#bfbfbf" stroke="black" points="520.5,-0.5 520.5,-134.5 633.5,-134.5 633.5,-0.5 520.5,-0.5"/>
<text text-anchor="middle" x="577" y="-122.5" font-family="Helvetica,sans-Serif" font-size="10.00">altintegration::ATV</text>
<polyline fill="none" stroke="black" points="520.5,-115.5 633.5,-115.5 "/>
<text text-anchor="start" x="528.5" y="-103.5" font-family="Helvetica,sans-Serif" font-size="10.00">+ version</text>
<text text-anchor="start" x="528.5" y="-92.5" font-family="Helvetica,sans-Serif" font-size="10.00">+ checked</text>
<polyline fill="none" stroke="black" points="520.5,-85.5 633.5,-85.5 "/>
<text text-anchor="start" x="528.5" y="-73.5" font-family="Helvetica,sans-Serif" font-size="10.00">+ toPrettyString()</text>
<text text-anchor="start" x="528.5" y="-62.5" font-family="Helvetica,sans-Serif" font-size="10.00">+ toShortPrettyString()</text>
<text text-anchor="start" x="528.5" y="-51.5" font-family="Helvetica,sans-Serif" font-size="10.00">+ toVbkEncoding()</text>
<text text-anchor="start" x="528.5" y="-40.5" font-family="Helvetica,sans-Serif" font-size="10.00">+ toVbkEncoding()</text>
<text text-anchor="start" x="528.5" y="-29.5" font-family="Helvetica,sans-Serif" font-size="10.00">+ estimateSize()</text>
<text text-anchor="start" x="528.5" y="-18.5" font-family="Helvetica,sans-Serif" font-size="10.00">+ getId()</text>
<text text-anchor="start" x="528.5" y="-7.5" font-family="Helvetica,sans-Serif" font-size="10.00">+ name()</text>
</a>
</g>
</g>
<!-- Node2 -->
<g id="node2" class="node">
<title>Node2</title>
<g id="a_node2"><a xlink:href="structaltintegration_1_1VbkTx.html" target="_top" xlink:title="Veriblock transaction, which endorses ALT block in VBK blockchain.">
<polygon fill="white" stroke="black" points="321,-204.5 321,-338.5 425,-338.5 425,-204.5 321,-204.5"/>
<text text-anchor="middle" x="373" y="-326.5" font-family="Helvetica,sans-Serif" font-size="10.00">altintegration::VbkTx</text>
<polyline fill="none" stroke="black" points="321,-319.5 425,-319.5 "/>
<text text-anchor="start" x="329" y="-307.5" font-family="Helvetica,sans-Serif" font-size="10.00">+ outputs</text>
<text text-anchor="start" x="329" y="-296.5" font-family="Helvetica,sans-Serif" font-size="10.00">+ signatureIndex</text>
<text text-anchor="start" x="329" y="-285.5" font-family="Helvetica,sans-Serif" font-size="10.00">+ signature</text>
<text text-anchor="start" x="329" y="-274.5" font-family="Helvetica,sans-Serif" font-size="10.00">+ publicKey</text>
<polyline fill="none" stroke="black" points="321,-267.5 425,-267.5 "/>
<text text-anchor="start" x="329" y="-255.5" font-family="Helvetica,sans-Serif" font-size="10.00">+ toVbkEncoding()</text>
<text text-anchor="start" x="329" y="-244.5" font-family="Helvetica,sans-Serif" font-size="10.00">+ toVbkEncoding()</text>
<text text-anchor="start" x="329" y="-233.5" font-family="Helvetica,sans-Serif" font-size="10.00">+ estimateSize()</text>
<text text-anchor="start" x="329" y="-222.5" font-family="Helvetica,sans-Serif" font-size="10.00">+ getHash()</text>
<text text-anchor="start" x="329" y="-211.5" font-family="Helvetica,sans-Serif" font-size="10.00">+ calculateTxFee()</text>
</a>
</g>
</g>
<!-- Node2&#45;&gt;Node1 -->
<g id="edge1" class="edge">
<title>Node2&#45;&gt;Node1</title>
<path fill="none" stroke="#404040" d="M425.01,-219C451.43,-192.84 483.8,-160.79 511.87,-132.99"/>
<polygon fill="none" stroke="#404040" points="511.9,-132.96 513.35,-125.9 520.43,-124.52 518.98,-131.58 511.9,-132.96"/>
<text text-anchor="middle" x="516.5" y="-156" font-family="Helvetica,sans-Serif" font-size="10.00"> +transaction</text>
</g>
<!-- Node3 -->
<g id="node3" class="node">
<title>Node3</title>
<g id="a_node3"><a xlink:href="namespacealtintegration.html#structaltintegration_1_1NetworkBytePair" target="_top" xlink:title="Stores pair of TxType and VBK network byte.">
<polygon fill="white" stroke="black" points="1,-491 1,-548 151,-548 151,-491 1,-491"/>
<text text-anchor="middle" x="76" y="-536" font-family="Helvetica,sans-Serif" font-size="10.00">altintegration::NetworkBytePair</text>
<polyline fill="none" stroke="black" points="1,-529 151,-529 "/>
<text text-anchor="start" x="9" y="-517" font-family="Helvetica,sans-Serif" font-size="10.00">+ typeId</text>
<polyline fill="none" stroke="black" points="1,-510 151,-510 "/>
<text text-anchor="middle" x="76" y="-498" font-family="Helvetica,sans-Serif" font-size="10.00"> </text>
</a>
</g>
</g>
<!-- Node3&#45;&gt;Node2 -->
<g id="edge2" class="edge">
<title>Node3&#45;&gt;Node2</title>
<path fill="none" stroke="#404040" d="M92.98,-490.88C108.48,-467.1 133.04,-432.8 160,-408 205.44,-366.2 265.38,-329.37 310.09,-304.7"/>
<polygon fill="none" stroke="#404040" points="310.29,-304.59 313.64,-298.21 320.83,-298.85 317.47,-305.23 310.29,-304.59"/>
<text text-anchor="middle" x="229.5" y="-382" font-family="Helvetica,sans-Serif" font-size="10.00"> +networkOrType</text>
</g>
<!-- Node4 -->
<g id="node4" class="node">
<title>Node4</title>
<g id="a_node4"><a xlink:href="structaltintegration_1_1VbkNetworkType.html" target="_top" xlink:title="works as optional&lt;uint8_t&gt;">
<polygon fill="white" stroke="black" points="0,-733.5 0,-834.5 152,-834.5 152,-733.5 0,-733.5"/>
<text text-anchor="middle" x="76" y="-822.5" font-family="Helvetica,sans-Serif" font-size="10.00">altintegration::VbkNetworkType</text>
<polyline fill="none" stroke="black" points="0,-815.5 152,-815.5 "/>
<text text-anchor="start" x="8" y="-803.5" font-family="Helvetica,sans-Serif" font-size="10.00">+ hasValue</text>
<text text-anchor="start" x="8" y="-792.5" font-family="Helvetica,sans-Serif" font-size="10.00">+ value</text>
<polyline fill="none" stroke="black" points="0,-785.5 152,-785.5 "/>
<text text-anchor="start" x="8" y="-773.5" font-family="Helvetica,sans-Serif" font-size="10.00">+ operator bool()</text>
<text text-anchor="start" x="8" y="-762.5" font-family="Helvetica,sans-Serif" font-size="10.00">+ operator==()</text>
<text text-anchor="start" x="8" y="-751.5" font-family="Helvetica,sans-Serif" font-size="10.00">+ toPrettyString()</text>
<text text-anchor="start" x="8" y="-740.5" font-family="Helvetica,sans-Serif" font-size="10.00">+ putJson()</text>
</a>
</g>
</g>
<!-- Node4&#45;&gt;Node3 -->
<g id="edge3" class="edge">
<title>Node4&#45;&gt;Node3</title>
<path fill="none" stroke="#404040" d="M76,-733.32C76,-683.18 76,-606.75 76,-560.42"/>
<polygon fill="none" stroke="#404040" points="76,-560.19 72,-554.2 76,-548.19 80,-554.19 76,-560.19"/>
<text text-anchor="middle" x="108" y="-652" font-family="Helvetica,sans-Serif" font-size="10.00"> +networkType</text>
</g>
<!-- Node5 -->
<g id="node5" class="node">
<title>Node5</title>
<g id="a_node5"><a xlink:href="structaltintegration_1_1Address.html" target="_top" xlink:title="Represents address on VBK chain.">
<polygon fill="white" stroke="black" points="169.5,-425 169.5,-614 306.5,-614 306.5,-425 169.5,-425"/>
<text text-anchor="middle" x="238" y="-602" font-family="Helvetica,sans-Serif" font-size="10.00">altintegration::Address</text>
<polyline fill="none" stroke="black" points="169.5,-595 306.5,-595 "/>
<text text-anchor="middle" x="238" y="-583" font-family="Helvetica,sans-Serif" font-size="10.00"> </text>
<polyline fill="none" stroke="black" points="169.5,-576 306.5,-576 "/>
<text text-anchor="start" x="177.5" y="-564" font-family="Helvetica,sans-Serif" font-size="10.00">+ Address()</text>
<text text-anchor="start" x="177.5" y="-553" font-family="Helvetica,sans-Serif" font-size="10.00">+ operator==()</text>
<text text-anchor="start" x="177.5" y="-542" font-family="Helvetica,sans-Serif" font-size="10.00">+ operator!=()</text>
<text text-anchor="start" x="177.5" y="-531" font-family="Helvetica,sans-Serif" font-size="10.00">+ operator==()</text>
<text text-anchor="start" x="177.5" y="-520" font-family="Helvetica,sans-Serif" font-size="10.00">+ getType()</text>
<text text-anchor="start" x="177.5" y="-509" font-family="Helvetica,sans-Serif" font-size="10.00">+ getPopBytes()</text>
<text text-anchor="start" x="177.5" y="-498" font-family="Helvetica,sans-Serif" font-size="10.00">+ isDerivedFromPublicKey()</text>
<text text-anchor="start" x="177.5" y="-487" font-family="Helvetica,sans-Serif" font-size="10.00">+ fromString()</text>
<text text-anchor="start" x="177.5" y="-476" font-family="Helvetica,sans-Serif" font-size="10.00">+ toString()</text>
<text text-anchor="start" x="177.5" y="-465" font-family="Helvetica,sans-Serif" font-size="10.00">+ toVbkEncoding()</text>
<text text-anchor="start" x="177.5" y="-454" font-family="Helvetica,sans-Serif" font-size="10.00">+ estimateSize()</text>
<text text-anchor="start" x="177.5" y="-443" font-family="Helvetica,sans-Serif" font-size="10.00">+ fromPublicKey()</text>
<text text-anchor="start" x="177.5" y="-432" font-family="Helvetica,sans-Serif" font-size="10.00">+ assertFromString()</text>
</a>
</g>
</g>
<!-- Node5&#45;&gt;Node2 -->
<g id="edge4" class="edge">
<title>Node5&#45;&gt;Node2</title>
<path fill="none" stroke="#404040" d="M272.62,-424.71C279.42,-409.14 286.95,-393.38 295,-379 300.71,-368.8 307.23,-358.44 314.03,-348.38"/>
<polygon fill="none" stroke="#404040" points="314.07,-348.32 314.19,-341.11 320.9,-338.44 320.78,-345.65 314.07,-348.32"/>
<text text-anchor="middle" x="332" y="-382" font-family="Helvetica,sans-Serif" font-size="10.00"> +sourceAddress</text>
</g>
<!-- Node6 -->
<g id="node6" class="node">
<title>Node6</title>
<g id="a_node6"><a xlink:href="structaltintegration_1_1Coin.html" target="_top" xlink:title="represents VBK atomic units">
<polygon fill="white" stroke="black" points="325,-463.5 325,-575.5 421,-575.5 421,-463.5 325,-463.5"/>
<text text-anchor="middle" x="373" y="-563.5" font-family="Helvetica,sans-Serif" font-size="10.00">altintegration::Coin</text>
<polyline fill="none" stroke="black" points="325,-556.5 421,-556.5 "/>
<text text-anchor="start" x="333" y="-544.5" font-family="Helvetica,sans-Serif" font-size="10.00">+ units</text>
<polyline fill="none" stroke="black" points="325,-537.5 421,-537.5 "/>
<text text-anchor="start" x="333" y="-525.5" font-family="Helvetica,sans-Serif" font-size="10.00">+ Coin()</text>
<text text-anchor="start" x="333" y="-514.5" font-family="Helvetica,sans-Serif" font-size="10.00">+ toPrettyString()</text>
<text text-anchor="start" x="333" y="-503.5" font-family="Helvetica,sans-Serif" font-size="10.00">+ Coin()</text>
<text text-anchor="start" x="333" y="-492.5" font-family="Helvetica,sans-Serif" font-size="10.00">+ toVbkEncoding()</text>
<text text-anchor="start" x="333" y="-481.5" font-family="Helvetica,sans-Serif" font-size="10.00">+ estimateSize()</text>
<text text-anchor="start" x="333" y="-470.5" font-family="Helvetica,sans-Serif" font-size="10.00">+ operator==()</text>
</a>
</g>
</g>
<!-- Node6&#45;&gt;Node2 -->
<g id="edge5" class="edge">
<title>Node6&#45;&gt;Node2</title>
<path fill="none" stroke="#404040" d="M373,-463.29C373,-430.2 373,-387.59 373,-351.04"/>
<polygon fill="none" stroke="#404040" points="373,-350.89 369,-344.89 373,-338.89 377,-344.89 373,-350.89"/>
<text text-anchor="middle" x="409" y="-382" font-family="Helvetica,sans-Serif" font-size="10.00"> +sourceAmount</text>
</g>
<!-- Node7 -->
<g id="node7" class="node">
<title>Node7</title>
<g id="a_node7"><a xlink:href="structaltintegration_1_1PublicationData.html" target="_top" xlink:title="Publication data about ALT block inside VBK blockchain.">
<polygon fill="white" stroke="black" points="439.5,-463.5 439.5,-575.5 584.5,-575.5 584.5,-463.5 439.5,-463.5"/>
<text text-anchor="middle" x="512" y="-563.5" font-family="Helvetica,sans-Serif" font-size="10.00">altintegration::PublicationData</text>
<polyline fill="none" stroke="black" points="439.5,-556.5 584.5,-556.5 "/>
<text text-anchor="start" x="447.5" y="-544.5" font-family="Helvetica,sans-Serif" font-size="10.00">+ identifier</text>
<text text-anchor="start" x="447.5" y="-533.5" font-family="Helvetica,sans-Serif" font-size="10.00">+ header</text>
<text text-anchor="start" x="447.5" y="-522.5" font-family="Helvetica,sans-Serif" font-size="10.00">+ payoutInfo</text>
<text text-anchor="start" x="447.5" y="-511.5" font-family="Helvetica,sans-Serif" font-size="10.00">+ contextInfo</text>
<polyline fill="none" stroke="black" points="439.5,-504.5 584.5,-504.5 "/>
<text text-anchor="start" x="447.5" y="-492.5" font-family="Helvetica,sans-Serif" font-size="10.00">+ toPrettyString()</text>
<text text-anchor="start" x="447.5" y="-481.5" font-family="Helvetica,sans-Serif" font-size="10.00">+ toVbkEncoding()</text>
<text text-anchor="start" x="447.5" y="-470.5" font-family="Helvetica,sans-Serif" font-size="10.00">+ estimateSize()</text>
</a>
</g>
</g>
<!-- Node7&#45;&gt;Node2 -->
<g id="edge6" class="edge">
<title>Node7&#45;&gt;Node2</title>
<path fill="none" stroke="#404040" d="M490.02,-463.28C478.87,-437.14 464.44,-405.84 449,-379 443.28,-369.06 436.87,-358.9 430.25,-349"/>
<polygon fill="none" stroke="#404040" points="430.05,-348.71 423.37,-346 423.3,-338.79 429.98,-341.5 430.05,-348.71"/>
<text text-anchor="middle" x="494" y="-382" font-family="Helvetica,sans-Serif" font-size="10.00"> +publicationData</text>
</g>
<!-- Node8 -->
<g id="node8" class="node">
<title>Node8</title>
<g id="a_node8"><a xlink:href="structaltintegration_1_1VbkMerklePath.html" target="_top" xlink:title="Path in Merkle tree, which proves that subject exists in the tree.">
<polygon fill="white" stroke="black" points="505.5,-221 505.5,-322 648.5,-322 648.5,-221 505.5,-221"/>
<text text-anchor="middle" x="577" y="-310" font-family="Helvetica,sans-Serif" font-size="10.00">altintegration::VbkMerklePath</text>
<polyline fill="none" stroke="black" points="505.5,-303 648.5,-303 "/>
<text text-anchor="start" x="513.5" y="-291" font-family="Helvetica,sans-Serif" font-size="10.00">+ treeIndex</text>
<text text-anchor="start" x="513.5" y="-280" font-family="Helvetica,sans-Serif" font-size="10.00">+ index</text>
<text text-anchor="start" x="513.5" y="-269" font-family="Helvetica,sans-Serif" font-size="10.00">+ layers</text>
<polyline fill="none" stroke="black" points="505.5,-262 648.5,-262 "/>
<text text-anchor="start" x="513.5" y="-250" font-family="Helvetica,sans-Serif" font-size="10.00">+ toVbkEncoding()</text>
<text text-anchor="start" x="513.5" y="-239" font-family="Helvetica,sans-Serif" font-size="10.00">+ estimateSize()</text>
<text text-anchor="start" x="513.5" y="-228" font-family="Helvetica,sans-Serif" font-size="10.00">+ calculateMerkleRoot()</text>
</a>
</g>
</g>
<!-- Node8&#45;&gt;Node1 -->
<g id="edge7" class="edge">
<title>Node8&#45;&gt;Node1</title>
<path fill="none" stroke="#404040" d="M577,-220.83C577,-198.54 577,-171.71 577,-146.82"/>
<polygon fill="none" stroke="#404040" points="577,-146.79 573,-140.79 577,-134.79 581,-140.79 577,-146.79"/>
<text text-anchor="middle" x="606" y="-156" font-family="Helvetica,sans-Serif" font-size="10.00"> +merklePath</text>
</g>
<!-- Node9 -->
<g id="node9" class="node">
<title>Node9</title>
<g id="a_node9"><a xlink:href="structaltintegration_1_1Blob.html" target="_top" xlink:title=" ">
<polygon fill="white" stroke="black" points="602.5,-408.5 602.5,-630.5 733.5,-630.5 733.5,-408.5 602.5,-408.5"/>
<text text-anchor="start" x="610.5" y="-618.5" font-family="Helvetica,sans-Serif" font-size="10.00">altintegration::Blob</text>
<text text-anchor="middle" x="668" y="-607.5" font-family="Helvetica,sans-Serif" font-size="10.00">&lt; SHA256_HASH_SIZE &gt;</text>
<polyline fill="none" stroke="black" points="602.5,-600.5 733.5,-600.5 "/>
<text text-anchor="start" x="610.5" y="-588.5" font-family="Helvetica,sans-Serif" font-size="10.00">+ data_</text>
<text text-anchor="start" x="610.5" y="-577.5" font-family="Helvetica,sans-Serif" font-size="10.00">+ this</text>
<polyline fill="none" stroke="black" points="602.5,-570.5 733.5,-570.5 "/>
<text text-anchor="start" x="610.5" y="-558.5" font-family="Helvetica,sans-Serif" font-size="10.00">+ Blob()</text>
<text text-anchor="start" x="610.5" y="-547.5" font-family="Helvetica,sans-Serif" font-size="10.00">+ Blob()</text>
<text text-anchor="start" x="610.5" y="-536.5" font-family="Helvetica,sans-Serif" font-size="10.00">+ Blob()</text>
<text text-anchor="start" x="610.5" y="-525.5" font-family="Helvetica,sans-Serif" font-size="10.00">+ Blob()</text>
<text text-anchor="start" x="610.5" y="-514.5" font-family="Helvetica,sans-Serif" font-size="10.00">+ Blob()</text>
<text text-anchor="start" x="610.5" y="-503.5" font-family="Helvetica,sans-Serif" font-size="10.00">+ operator=()</text>
<text text-anchor="start" x="610.5" y="-492.5" font-family="Helvetica,sans-Serif" font-size="10.00">+ operator=()</text>
<text text-anchor="start" x="610.5" y="-481.5" font-family="Helvetica,sans-Serif" font-size="10.00">+ reverse()</text>
<text text-anchor="start" x="610.5" y="-470.5" font-family="Helvetica,sans-Serif" font-size="10.00">+ operator~()</text>
<text text-anchor="start" x="610.5" y="-459.5" font-family="Helvetica,sans-Serif" font-size="10.00">+ asVector()</text>
<text text-anchor="start" x="610.5" y="-448.5" font-family="Helvetica,sans-Serif" font-size="10.00">+ asString()</text>
<text text-anchor="start" x="610.5" y="-437.5" font-family="Helvetica,sans-Serif" font-size="10.00">+ operator[]()</text>
<text text-anchor="start" x="610.5" y="-426.5" font-family="Helvetica,sans-Serif" font-size="10.00">+ operator[]()</text>
<text text-anchor="start" x="610.5" y="-415.5" font-family="Helvetica,sans-Serif" font-size="10.00">+ compareTo()</text>
</a>
</g>
</g>
<!-- Node9&#45;&gt;Node8 -->
<g id="edge8" class="edge">
<title>Node9&#45;&gt;Node8</title>
<path fill="none" stroke="#404040" d="M627.29,-408.45C617.78,-382.74 607.99,-356.27 599.6,-333.59"/>
<polygon fill="none" stroke="#404040" points="599.51,-333.36 593.68,-329.12 595.35,-322.11 601.18,-326.35 599.51,-333.36"/>
<text text-anchor="middle" x="639" y="-382" font-family="Helvetica,sans-Serif" font-size="10.00"> +subject</text>
</g>
<!-- Node10 -->
<g id="node10" class="node">
<title>Node10</title>
<g id="a_node10"><a xlink:href="structaltintegration_1_1Blob.html" target="_top" xlink:title="Contiguous byte array of fixed size.">
<polygon fill="white" stroke="black" points="608,-678.5 608,-889.5 728,-889.5 728,-678.5 608,-678.5"/>
<text text-anchor="middle" x="668" y="-877.5" font-family="Helvetica,sans-Serif" font-size="10.00">altintegration::Blob&lt; N &gt;</text>
<polyline fill="none" stroke="black" points="608,-870.5 728,-870.5 "/>
<text text-anchor="start" x="616" y="-858.5" font-family="Helvetica,sans-Serif" font-size="10.00">+ data_</text>
<text text-anchor="start" x="616" y="-847.5" font-family="Helvetica,sans-Serif" font-size="10.00">+ this</text>
<polyline fill="none" stroke="black" points="608,-840.5 728,-840.5 "/>
<text text-anchor="start" x="616" y="-828.5" font-family="Helvetica,sans-Serif" font-size="10.00">+ Blob()</text>
<text text-anchor="start" x="616" y="-817.5" font-family="Helvetica,sans-Serif" font-size="10.00">+ Blob()</text>
<text text-anchor="start" x="616" y="-806.5" font-family="Helvetica,sans-Serif" font-size="10.00">+ Blob()</text>
<text text-anchor="start" x="616" y="-795.5" font-family="Helvetica,sans-Serif" font-size="10.00">+ Blob()</text>
<text text-anchor="start" x="616" y="-784.5" font-family="Helvetica,sans-Serif" font-size="10.00">+ Blob()</text>
<text text-anchor="start" x="616" y="-773.5" font-family="Helvetica,sans-Serif" font-size="10.00">+ operator=()</text>
<text text-anchor="start" x="616" y="-762.5" font-family="Helvetica,sans-Serif" font-size="10.00">+ operator=()</text>
<text text-anchor="start" x="616" y="-751.5" font-family="Helvetica,sans-Serif" font-size="10.00">+ reverse()</text>
<text text-anchor="start" x="616" y="-740.5" font-family="Helvetica,sans-Serif" font-size="10.00">+ operator~()</text>
<text text-anchor="start" x="616" y="-729.5" font-family="Helvetica,sans-Serif" font-size="10.00">+ asVector()</text>
<text text-anchor="start" x="616" y="-718.5" font-family="Helvetica,sans-Serif" font-size="10.00">+ asString()</text>
<text text-anchor="start" x="616" y="-707.5" font-family="Helvetica,sans-Serif" font-size="10.00">+ operator[]()</text>
<text text-anchor="start" x="616" y="-696.5" font-family="Helvetica,sans-Serif" font-size="10.00">+ operator[]()</text>
<text text-anchor="start" x="616" y="-685.5" font-family="Helvetica,sans-Serif" font-size="10.00">+ compareTo()</text>
</a>
</g>
</g>
<!-- Node10&#45;&gt;Node9 -->
<g id="edge9" class="edge">
<title>Node10&#45;&gt;Node9</title>
<path fill="none" stroke="orange" d="M668,-668.48C668,-655.93 668,-643.17 668,-630.67"/>
<polygon fill="orange" stroke="orange" points="664.5,-668.5 668,-678.5 671.5,-668.5 664.5,-668.5"/>
<text text-anchor="middle" x="726.5" y="-652" font-family="Helvetica,sans-Serif" font-size="10.00"> &lt; SHA256_HASH_SIZE &gt;</text>
</g>
<!-- Node11 -->
<g id="node11" class="node">
<title>Node11</title>
<g id="a_node11"><a xlink:href="structaltintegration_1_1VbkBlock.html" target="_top" xlink:title="Veriblock block.">
<polygon fill="white" stroke="black" points="666.5,-182.5 666.5,-360.5 785.5,-360.5 785.5,-182.5 666.5,-182.5"/>
<text text-anchor="middle" x="726" y="-348.5" font-family="Helvetica,sans-Serif" font-size="10.00">altintegration::VbkBlock</text>
<polyline fill="none" stroke="black" points="666.5,-341.5 785.5,-341.5 "/>
<text text-anchor="middle" x="726" y="-329.5" font-family="Helvetica,sans-Serif" font-size="10.00"> </text>
<polyline fill="none" stroke="black" points="666.5,-322.5 785.5,-322.5 "/>
<text text-anchor="start" x="674.5" y="-310.5" font-family="Helvetica,sans-Serif" font-size="10.00">+ toPrettyString()</text>
<text text-anchor="start" x="674.5" y="-299.5" font-family="Helvetica,sans-Serif" font-size="10.00">+ toShortPrettyString()</text>
<text text-anchor="start" x="674.5" y="-288.5" font-family="Helvetica,sans-Serif" font-size="10.00">+ toRaw()</text>
<text text-anchor="start" x="674.5" y="-277.5" font-family="Helvetica,sans-Serif" font-size="10.00">+ toVbkEncoding()</text>
<text text-anchor="start" x="674.5" y="-266.5" font-family="Helvetica,sans-Serif" font-size="10.00">+ toRaw()</text>
<text text-anchor="start" x="674.5" y="-255.5" font-family="Helvetica,sans-Serif" font-size="10.00">+ toVbkEncoding()</text>
<text text-anchor="start" x="674.5" y="-244.5" font-family="Helvetica,sans-Serif" font-size="10.00">+ estimateSize()</text>
<text text-anchor="start" x="674.5" y="-233.5" font-family="Helvetica,sans-Serif" font-size="10.00">+ getBlockTime()</text>
<text text-anchor="start" x="674.5" y="-222.5" font-family="Helvetica,sans-Serif" font-size="10.00">+ calculateHash()</text>
<text text-anchor="start" x="674.5" y="-211.5" font-family="Helvetica,sans-Serif" font-size="10.00">+ getHash()</text>
<text text-anchor="start" x="674.5" y="-200.5" font-family="Helvetica,sans-Serif" font-size="10.00">and 22 more...</text>
<text text-anchor="start" x="674.5" y="-189.5" font-family="Helvetica,sans-Serif" font-size="10.00">+ name()</text>
</a>
</g>
</g>
<!-- Node11&#45;&gt;Node1 -->
<g id="edge10" class="edge">
<title>Node11&#45;&gt;Node1</title>
<path fill="none" stroke="#404040" d="M666.47,-189.79C655.36,-174.74 643.8,-159.06 632.81,-144.16"/>
<polygon fill="none" stroke="#404040" points="632.81,-144.16 626.03,-141.7 625.68,-134.5 632.46,-136.96 632.81,-144.16"/>
<text text-anchor="middle" x="680" y="-156" font-family="Helvetica,sans-Serif" font-size="10.00"> +blockOfProof</text>
</g>
</g>
</svg>
