<?xml version="1.0" encoding="UTF-8" standalone="no"?>
<!DOCTYPE svg PUBLIC "-//W3C//DTD SVG 1.1//EN"
 "http://www.w3.org/Graphics/SVG/1.1/DTD/svg11.dtd">
<!-- Generated by graphviz version 2.44.0 ()
 -->
<!-- Title: altintegration::VbkBlockTree Pages: 1 -->
<!--zoomable 2003 -->
<svg id="main" version="1.1" xmlns="http://www.w3.org/2000/svg" xmlns:xlink="http://www.w3.org/1999/xlink" xml:space="preserve" onload="init(evt)">
<style type="text/css"><![CDATA[
.edge:hover path { stroke: red; }
.edge:hover polygon { stroke: red; fill: red; }
]]></style>
<script type="text/javascript"><![CDATA[
var edges = document.getElementsByTagName('g');
if (edges && edges.length) {
  for (var i=0;i<edges.length;i++) {
    if (edges[i].id.substr(0,4)=='edge') {
      edges[i].setAttribute('class','edge');
    }
  }
}
]]></script>
        <defs>
                <circle id="rim" cx="0" cy="0" r="7"/>
                <circle id="rim2" cx="0" cy="0" r="3.5"/>
                <g id="zoomPlus">
                        <use xlink:href="#rim" fill="#404040">
                                <set attributeName="fill" to="#808080" begin="zoomplus.mouseover" end="zoomplus.mouseout"/>
                        </use>
                        <path d="M-4,0h8M0,-4v8" fill="none" stroke="white" stroke-width="1.5" pointer-events="none"/>
                </g>
                <g id="zoomMin">
                        <use xlink:href="#rim" fill="#404040">
                                <set attributeName="fill" to="#808080" begin="zoomminus.mouseover" end="zoomminus.mouseout"/>
                        </use>
                        <path d="M-4,0h8" fill="none" stroke="white" stroke-width="1.5" pointer-events="none"/>
                </g>
                <g id="dirArrow">
                        <path fill="none" stroke="white" stroke-width="1.5" d="M0,-3.0v7 M-2.5,-0.5L0,-3.0L2.5,-0.5"/>
                </g>
               <g id="resetDef">
                       <use xlink:href="#rim2" fill="#404040">
                               <set attributeName="fill" to="#808080" begin="reset.mouseover" end="reset.mouseout"/>
                       </use>
               </g>
        </defs>

<script type="text/javascript">
var viewWidth = 998;
var viewHeight = 2003;
var sectionId = 'dynsection-1';
</script>
<script xlink:href="svgpan.js"/>
<svg id="graph" class="graph">
<g id="viewport">
<title>altintegration::VbkBlockTree</title>
<polygon fill="white" stroke="transparent" points="-4,4 -4,-1999 993.5,-1999 993.5,4 -4,4"/>
<!-- Node1 -->
<g id="node1" class="node">
<title>Node1</title>
<g id="a_node1"><a xlink:title="Veriblock block tree.">
<polygon fill="#bfbfbf" stroke="black" points="234,-0.5 234,-167.5 372,-167.5 372,-0.5 234,-0.5"/>
<text text-anchor="middle" x="303" y="-155.5" font-family="Helvetica,sans-Serif" font-size="10.00">altintegration::VbkBlockTree</text>
<polyline fill="none" stroke="black" points="234,-148.5 372,-148.5 "/>
<text text-anchor="middle" x="303" y="-136.5" font-family="Helvetica,sans-Serif" font-size="10.00"> </text>
<polyline fill="none" stroke="black" points="234,-129.5 372,-129.5 "/>
<text text-anchor="start" x="242" y="-117.5" font-family="Helvetica,sans-Serif" font-size="10.00">+ ~VbkBlockTree()</text>
<text text-anchor="start" x="242" y="-106.5" font-family="Helvetica,sans-Serif" font-size="10.00">+ VbkBlockTree()</text>
<text text-anchor="start" x="242" y="-95.5" font-family="Helvetica,sans-Serif" font-size="10.00">+ loadBlockForward()</text>
<text text-anchor="start" x="242" y="-84.5" font-family="Helvetica,sans-Serif" font-size="10.00">+ loadBlockBackward()</text>
<text text-anchor="start" x="242" y="-73.5" font-family="Helvetica,sans-Serif" font-size="10.00">+ btc()</text>
<text text-anchor="start" x="242" y="-62.5" font-family="Helvetica,sans-Serif" font-size="10.00">+ btc()</text>
<text text-anchor="start" x="242" y="-51.5" font-family="Helvetica,sans-Serif" font-size="10.00">+ getComparator()</text>
<text text-anchor="start" x="242" y="-40.5" font-family="Helvetica,sans-Serif" font-size="10.00">+ getComparator()</text>
<text text-anchor="start" x="242" y="-29.5" font-family="Helvetica,sans-Serif" font-size="10.00">+ getPayloadsIndex()</text>
<text text-anchor="start" x="242" y="-18.5" font-family="Helvetica,sans-Serif" font-size="10.00">+ loadTip()</text>
<text text-anchor="start" x="242" y="-7.5" font-family="Helvetica,sans-Serif" font-size="10.00">and 12 more...</text>
</a>
</g>
</g>
<!-- Node2 -->
<g id="node2" class="node">
<title>Node2</title>
<g id="a_node2"><a xlink:href="structaltintegration_1_1BlockTree.html" target="_top" xlink:title=" ">
<polygon fill="white" stroke="black" points="225,-205.5 225,-471.5 381,-471.5 381,-205.5 225,-205.5"/>
<text text-anchor="start" x="233" y="-459.5" font-family="Helvetica,sans-Serif" font-size="10.00">altintegration::BlockTree</text>
<text text-anchor="middle" x="303" y="-448.5" font-family="Helvetica,sans-Serif" font-size="10.00">&lt; VbkBlock, VbkChainParams &gt;</text>
<polyline fill="none" stroke="black" points="225,-441.5 381,-441.5 "/>
<text text-anchor="start" x="233" y="-429.5" font-family="Helvetica,sans-Serif" font-size="10.00"># param_</text>
<polyline fill="none" stroke="black" points="225,-422.5 381,-422.5 "/>
<text text-anchor="start" x="233" y="-410.5" font-family="Helvetica,sans-Serif" font-size="10.00">+ ~BlockTree()</text>
<text text-anchor="start" x="233" y="-399.5" font-family="Helvetica,sans-Serif" font-size="10.00">+ BlockTree()</text>
<text text-anchor="start" x="233" y="-388.5" font-family="Helvetica,sans-Serif" font-size="10.00">+ getParams()</text>
<text text-anchor="start" x="233" y="-377.5" font-family="Helvetica,sans-Serif" font-size="10.00">+ bootstrapWithGenesis()</text>
<text text-anchor="start" x="233" y="-366.5" font-family="Helvetica,sans-Serif" font-size="10.00">+ bootstrapWithChain()</text>
<text text-anchor="start" x="233" y="-355.5" font-family="Helvetica,sans-Serif" font-size="10.00">+ acceptBlockHeader()</text>
<text text-anchor="start" x="233" y="-344.5" font-family="Helvetica,sans-Serif" font-size="10.00">+ acceptBlockHeader()</text>
<text text-anchor="start" x="233" y="-333.5" font-family="Helvetica,sans-Serif" font-size="10.00">+ toPrettyString()</text>
<text text-anchor="start" x="233" y="-322.5" font-family="Helvetica,sans-Serif" font-size="10.00">+ loadBlockForward()</text>
<text text-anchor="start" x="233" y="-311.5" font-family="Helvetica,sans-Serif" font-size="10.00">+ loadBlockBackward()</text>
<text text-anchor="start" x="233" y="-300.5" font-family="Helvetica,sans-Serif" font-size="10.00">+ isBlockOld()</text>
<text text-anchor="start" x="233" y="-289.5" font-family="Helvetica,sans-Serif" font-size="10.00">+ isBlockOld()</text>
<text text-anchor="start" x="233" y="-278.5" font-family="Helvetica,sans-Serif" font-size="10.00">+ finalizeBlock()</text>
<text text-anchor="start" x="233" y="-267.5" font-family="Helvetica,sans-Serif" font-size="10.00"># acceptBlockHeaderImpl()</text>
<text text-anchor="start" x="233" y="-256.5" font-family="Helvetica,sans-Serif" font-size="10.00"># bootstrap()</text>
<text text-anchor="start" x="233" y="-245.5" font-family="Helvetica,sans-Serif" font-size="10.00"># bootstrap()</text>
<text text-anchor="start" x="233" y="-234.5" font-family="Helvetica,sans-Serif" font-size="10.00"># validateAndAddBlock()</text>
<text text-anchor="start" x="233" y="-223.5" font-family="Helvetica,sans-Serif" font-size="10.00"># determineBestChain()</text>
<text text-anchor="start" x="233" y="-212.5" font-family="Helvetica,sans-Serif" font-size="10.00"># onBlockInserted()</text>
</a>
</g>
</g>
<!-- Node2&#45;&gt;Node1 -->
<g id="edge1" class="edge">
<title>Node2&#45;&gt;Node1</title>
<path fill="none" stroke="midnightblue" d="M303,-195.19C303,-185.87 303,-176.67 303,-167.8"/>
<polygon fill="none" stroke="midnightblue" points="299.5,-195.33 303,-205.33 306.5,-195.33 299.5,-195.33"/>
</g>
<!-- Node3 -->
<g id="node3" class="node">
<title>Node3</title>
<g id="a_node3"><a xlink:href="structaltintegration_1_1BaseBlockTree.html" target="_top" xlink:title="Base block tree that stores all blocks, maintains tree tips, maintains active chain.">
<polygon fill="white" stroke="black" points="223,-823.5 223,-1089.5 375,-1089.5 375,-823.5 223,-823.5"/>
<text text-anchor="start" x="231" y="-1077.5" font-family="Helvetica,sans-Serif" font-size="10.00">altintegration::BaseBlock</text>
<text text-anchor="middle" x="299" y="-1066.5" font-family="Helvetica,sans-Serif" font-size="10.00">Tree&lt; Block &gt;</text>
<polyline fill="none" stroke="black" points="223,-1059.5 375,-1059.5 "/>
<text text-anchor="start" x="231" y="-1047.5" font-family="Helvetica,sans-Serif" font-size="10.00"># validity_sig_</text>
<polyline fill="none" stroke="black" points="223,-1040.5 375,-1040.5 "/>
<text text-anchor="start" x="231" y="-1028.5" font-family="Helvetica,sans-Serif" font-size="10.00">+ getTips()</text>
<text text-anchor="start" x="231" y="-1017.5" font-family="Helvetica,sans-Serif" font-size="10.00">+ getBlocks()</text>
<text text-anchor="start" x="231" y="-1006.5" font-family="Helvetica,sans-Serif" font-size="10.00">+ getAllBlocks()</text>
<text text-anchor="start" x="231" y="-995.5" font-family="Helvetica,sans-Serif" font-size="10.00">+ getBlockProvider()</text>
<text text-anchor="start" x="231" y="-984.5" font-family="Helvetica,sans-Serif" font-size="10.00">+ ~BaseBlockTree()</text>
<text text-anchor="start" x="231" y="-973.5" font-family="Helvetica,sans-Serif" font-size="10.00">+ BaseBlockTree()</text>
<text text-anchor="start" x="231" y="-962.5" font-family="Helvetica,sans-Serif" font-size="10.00">+ BaseBlockTree()</text>
<text text-anchor="start" x="231" y="-951.5" font-family="Helvetica,sans-Serif" font-size="10.00">+ operator=()</text>
<text text-anchor="start" x="231" y="-940.5" font-family="Helvetica,sans-Serif" font-size="10.00">+ BaseBlockTree()</text>
<text text-anchor="start" x="231" y="-929.5" font-family="Helvetica,sans-Serif" font-size="10.00">+ operator=()</text>
<text text-anchor="start" x="231" y="-918.5" font-family="Helvetica,sans-Serif" font-size="10.00">and 26 more...</text>
<text text-anchor="start" x="231" y="-907.5" font-family="Helvetica,sans-Serif" font-size="10.00"># removeSubtree()</text>
<text text-anchor="start" x="231" y="-896.5" font-family="Helvetica,sans-Serif" font-size="10.00"># removeSubtree()</text>
<text text-anchor="start" x="231" y="-885.5" font-family="Helvetica,sans-Serif" font-size="10.00"># eraseBlock()</text>
<text text-anchor="start" x="231" y="-874.5" font-family="Helvetica,sans-Serif" font-size="10.00"># toPrettyString()</text>
<text text-anchor="start" x="231" y="-863.5" font-family="Helvetica,sans-Serif" font-size="10.00"># decreaseAppliedBlockCount()</text>
<text text-anchor="start" x="231" y="-852.5" font-family="Helvetica,sans-Serif" font-size="10.00"># increaseAppliedBlockCount()</text>
<text text-anchor="start" x="231" y="-841.5" font-family="Helvetica,sans-Serif" font-size="10.00"># decreaseAppliedBlockCount()</text>
<text text-anchor="start" x="231" y="-830.5" font-family="Helvetica,sans-Serif" font-size="10.00"># increaseAppliedBlockCount()</text>
</a>
</g>
</g>
<!-- Node3&#45;&gt;Node2 -->
<g id="edge2" class="edge">
<title>Node3&#45;&gt;Node2</title>
<path fill="none" stroke="midnightblue" d="M299.92,-813.19C300.59,-710.27 301.49,-572.2 302.14,-471.69"/>
<polygon fill="none" stroke="midnightblue" points="296.42,-813.33 299.86,-823.35 303.42,-813.38 296.42,-813.33"/>
</g>
<!-- Node21 -->
<g id="node21" class="node">
<title>Node21</title>
<g id="a_node21"><a xlink:href="structaltintegration_1_1BlockTree.html" target="_top" xlink:title="BlockTree is a tree of blocks with single &quot;bootstrap&quot; block as root.">
<polygon fill="white" stroke="black" points="315,-519.5 315,-785.5 449,-785.5 449,-519.5 315,-519.5"/>
<text text-anchor="start" x="323" y="-773.5" font-family="Helvetica,sans-Serif" font-size="10.00">altintegration::BlockTree</text>
<text text-anchor="middle" x="382" y="-762.5" font-family="Helvetica,sans-Serif" font-size="10.00">&lt; Block, ChainParams &gt;</text>
<polyline fill="none" stroke="black" points="315,-755.5 449,-755.5 "/>
<text text-anchor="start" x="323" y="-743.5" font-family="Helvetica,sans-Serif" font-size="10.00"># param_</text>
<polyline fill="none" stroke="black" points="315,-736.5 449,-736.5 "/>
<text text-anchor="start" x="323" y="-724.5" font-family="Helvetica,sans-Serif" font-size="10.00">+ ~BlockTree()</text>
<text text-anchor="start" x="323" y="-713.5" font-family="Helvetica,sans-Serif" font-size="10.00">+ BlockTree()</text>
<text text-anchor="start" x="323" y="-702.5" font-family="Helvetica,sans-Serif" font-size="10.00">+ getParams()</text>
<text text-anchor="start" x="323" y="-691.5" font-family="Helvetica,sans-Serif" font-size="10.00">+ bootstrapWithGenesis()</text>
<text text-anchor="start" x="323" y="-680.5" font-family="Helvetica,sans-Serif" font-size="10.00">+ bootstrapWithChain()</text>
<text text-anchor="start" x="323" y="-669.5" font-family="Helvetica,sans-Serif" font-size="10.00">+ acceptBlockHeader()</text>
<text text-anchor="start" x="323" y="-658.5" font-family="Helvetica,sans-Serif" font-size="10.00">+ acceptBlockHeader()</text>
<text text-anchor="start" x="323" y="-647.5" font-family="Helvetica,sans-Serif" font-size="10.00">+ toPrettyString()</text>
<text text-anchor="start" x="323" y="-636.5" font-family="Helvetica,sans-Serif" font-size="10.00">+ loadBlockForward()</text>
<text text-anchor="start" x="323" y="-625.5" font-family="Helvetica,sans-Serif" font-size="10.00">+ loadBlockBackward()</text>
<text text-anchor="start" x="323" y="-614.5" font-family="Helvetica,sans-Serif" font-size="10.00">+ isBlockOld()</text>
<text text-anchor="start" x="323" y="-603.5" font-family="Helvetica,sans-Serif" font-size="10.00">+ isBlockOld()</text>
<text text-anchor="start" x="323" y="-592.5" font-family="Helvetica,sans-Serif" font-size="10.00">+ finalizeBlock()</text>
<text text-anchor="start" x="323" y="-581.5" font-family="Helvetica,sans-Serif" font-size="10.00"># acceptBlockHeaderImpl()</text>
<text text-anchor="start" x="323" y="-570.5" font-family="Helvetica,sans-Serif" font-size="10.00"># bootstrap()</text>
<text text-anchor="start" x="323" y="-559.5" font-family="Helvetica,sans-Serif" font-size="10.00"># bootstrap()</text>
<text text-anchor="start" x="323" y="-548.5" font-family="Helvetica,sans-Serif" font-size="10.00"># validateAndAddBlock()</text>
<text text-anchor="start" x="323" y="-537.5" font-family="Helvetica,sans-Serif" font-size="10.00"># determineBestChain()</text>
<text text-anchor="start" x="323" y="-526.5" font-family="Helvetica,sans-Serif" font-size="10.00"># onBlockInserted()</text>
</a>
</g>
</g>
<!-- Node3&#45;&gt;Node21 -->
<g id="edge27" class="edge">
<title>Node3&#45;&gt;Node21</title>
<path fill="none" stroke="midnightblue" d="M337.96,-813.75C340.53,-804.39 343.11,-794.99 345.67,-785.68"/>
<polygon fill="none" stroke="midnightblue" points="334.56,-812.91 335.28,-823.48 341.31,-814.76 334.56,-812.91"/>
</g>
<!-- Node4 -->
<g id="node4" class="node">
<title>Node4</title>
<g id="a_node4"><a xlink:href="structaltintegration_1_1BlockReader.html" target="_top" xlink:title="An abstraction over on&#45;disk storage iterator.">
<polygon fill="white" stroke="black" points="0,-1143 0,-1310 132,-1310 132,-1143 0,-1143"/>
<text text-anchor="middle" x="66" y="-1298" font-family="Helvetica,sans-Serif" font-size="10.00">altintegration::BlockReader</text>
<polyline fill="none" stroke="black" points="0,-1291 132,-1291 "/>
<text text-anchor="middle" x="66" y="-1279" font-family="Helvetica,sans-Serif" font-size="10.00"> </text>
<polyline fill="none" stroke="black" points="0,-1272 132,-1272 "/>
<text text-anchor="start" x="8" y="-1260" font-family="Helvetica,sans-Serif" font-size="10.00">+ ~BlockReader()</text>
<text text-anchor="start" x="8" y="-1249" font-family="Helvetica,sans-Serif" font-size="10.00">+ getAltTip()</text>
<text text-anchor="start" x="8" y="-1238" font-family="Helvetica,sans-Serif" font-size="10.00">+ getVbkTip()</text>
<text text-anchor="start" x="8" y="-1227" font-family="Helvetica,sans-Serif" font-size="10.00">+ getBtcTip()</text>
<text text-anchor="start" x="8" y="-1216" font-family="Helvetica,sans-Serif" font-size="10.00">+ getBlock()</text>
<text text-anchor="start" x="8" y="-1205" font-family="Helvetica,sans-Serif" font-size="10.00">+ getBlock()</text>
<text text-anchor="start" x="8" y="-1194" font-family="Helvetica,sans-Serif" font-size="10.00">+ getBlock()</text>
<text text-anchor="start" x="8" y="-1183" font-family="Helvetica,sans-Serif" font-size="10.00">+ getAltBlockIterator()</text>
<text text-anchor="start" x="8" y="-1172" font-family="Helvetica,sans-Serif" font-size="10.00">+ getVbkBlockIterator()</text>
<text text-anchor="start" x="8" y="-1161" font-family="Helvetica,sans-Serif" font-size="10.00">+ getBtcBlockIterator()</text>
<text text-anchor="start" x="8" y="-1150" font-family="Helvetica,sans-Serif" font-size="10.00">and 6 more...</text>
</a>
</g>
</g>
<!-- Node4&#45;&gt;Node3 -->
<g id="edge3" class="edge">
<title>Node4&#45;&gt;Node3</title>
<path fill="none" stroke="#404040" d="M132.17,-1147.25C135.15,-1143.78 138.1,-1140.35 141,-1137 164.77,-1109.48 190.77,-1079.77 214.7,-1052.6"/>
<polygon fill="none" stroke="#404040" points="214.79,-1052.5 215.76,-1045.35 222.73,-1043.49 221.76,-1050.64 214.79,-1052.5"/>
<text text-anchor="middle" x="199.5" y="-1111" font-family="Helvetica,sans-Serif" font-size="10.00"> #blockProvider_</text>
</g>
<!-- Node5 -->
<g id="node5" class="node">
<title>Node5</title>
<g id="a_node5"><a xlink:href="structaltintegration_1_1Chain.html" target="_top" xlink:title=" ">
<polygon fill="white" stroke="black" points="150.5,-1137.5 150.5,-1315.5 291.5,-1315.5 291.5,-1137.5 150.5,-1137.5"/>
<text text-anchor="start" x="158.5" y="-1303.5" font-family="Helvetica,sans-Serif" font-size="10.00">altintegration::Chain</text>
<text text-anchor="middle" x="221" y="-1292.5" font-family="Helvetica,sans-Serif" font-size="10.00">&lt; altintegration::BlockIndex &gt;</text>
<polyline fill="none" stroke="black" points="150.5,-1285.5 291.5,-1285.5 "/>
<text text-anchor="middle" x="221" y="-1273.5" font-family="Helvetica,sans-Serif" font-size="10.00"> </text>
<polyline fill="none" stroke="black" points="150.5,-1266.5 291.5,-1266.5 "/>
<text text-anchor="start" x="158.5" y="-1254.5" font-family="Helvetica,sans-Serif" font-size="10.00">+ Chain()</text>
<text text-anchor="start" x="158.5" y="-1243.5" font-family="Helvetica,sans-Serif" font-size="10.00">+ Chain()</text>
<text text-anchor="start" x="158.5" y="-1232.5" font-family="Helvetica,sans-Serif" font-size="10.00">+ Chain()</text>
<text text-anchor="start" x="158.5" y="-1221.5" font-family="Helvetica,sans-Serif" font-size="10.00">+ getStartHeight()</text>
<text text-anchor="start" x="158.5" y="-1210.5" font-family="Helvetica,sans-Serif" font-size="10.00">+ firstHeight()</text>
<text text-anchor="start" x="158.5" y="-1199.5" font-family="Helvetica,sans-Serif" font-size="10.00">+ contains()</text>
<text text-anchor="start" x="158.5" y="-1188.5" font-family="Helvetica,sans-Serif" font-size="10.00">+ operator[]()</text>
<text text-anchor="start" x="158.5" y="-1177.5" font-family="Helvetica,sans-Serif" font-size="10.00">+ next()</text>
<text text-anchor="start" x="158.5" y="-1166.5" font-family="Helvetica,sans-Serif" font-size="10.00">+ chainHeight()</text>
<text text-anchor="start" x="158.5" y="-1155.5" font-family="Helvetica,sans-Serif" font-size="10.00">+ empty()</text>
<text text-anchor="start" x="158.5" y="-1144.5" font-family="Helvetica,sans-Serif" font-size="10.00">and 15 more...</text>
</a>
</g>
</g>
<!-- Node5&#45;&gt;Node3 -->
<g id="edge4" class="edge">
<title>Node5&#45;&gt;Node3</title>
<path fill="none" stroke="#404040" d="M246.65,-1137.38C250.01,-1125.81 253.53,-1113.73 257.08,-1101.54"/>
<polygon fill="none" stroke="#404040" points="257.13,-1101.36 254.97,-1094.48 260.48,-1089.83 262.65,-1096.71 257.13,-1101.36"/>
<text text-anchor="middle" x="286" y="-1111" font-family="Helvetica,sans-Serif" font-size="10.00"> #activeChain_</text>
</g>
<!-- Node6 -->
<g id="node6" class="node">
<title>Node6</title>
<g id="a_node6"><a xlink:href="structaltintegration_1_1Chain.html" target="_top" xlink:title="Fully in&#45;memory chain representation.">
<polygon fill="white" stroke="black" points="169.5,-1391 169.5,-1569 270.5,-1569 270.5,-1391 169.5,-1391"/>
<text text-anchor="start" x="177.5" y="-1557" font-family="Helvetica,sans-Serif" font-size="10.00">altintegration::Chain</text>
<text text-anchor="middle" x="220" y="-1546" font-family="Helvetica,sans-Serif" font-size="10.00">&lt; BlockIndexT &gt;</text>
<polyline fill="none" stroke="black" points="169.5,-1539 270.5,-1539 "/>
<text text-anchor="middle" x="220" y="-1527" font-family="Helvetica,sans-Serif" font-size="10.00"> </text>
<polyline fill="none" stroke="black" points="169.5,-1520 270.5,-1520 "/>
<text text-anchor="start" x="177.5" y="-1508" font-family="Helvetica,sans-Serif" font-size="10.00">+ Chain()</text>
<text text-anchor="start" x="177.5" y="-1497" font-family="Helvetica,sans-Serif" font-size="10.00">+ Chain()</text>
<text text-anchor="start" x="177.5" y="-1486" font-family="Helvetica,sans-Serif" font-size="10.00">+ Chain()</text>
<text text-anchor="start" x="177.5" y="-1475" font-family="Helvetica,sans-Serif" font-size="10.00">+ getStartHeight()</text>
<text text-anchor="start" x="177.5" y="-1464" font-family="Helvetica,sans-Serif" font-size="10.00">+ firstHeight()</text>
<text text-anchor="start" x="177.5" y="-1453" font-family="Helvetica,sans-Serif" font-size="10.00">+ contains()</text>
<text text-anchor="start" x="177.5" y="-1442" font-family="Helvetica,sans-Serif" font-size="10.00">+ operator[]()</text>
<text text-anchor="start" x="177.5" y="-1431" font-family="Helvetica,sans-Serif" font-size="10.00">+ next()</text>
<text text-anchor="start" x="177.5" y="-1420" font-family="Helvetica,sans-Serif" font-size="10.00">+ chainHeight()</text>
<text text-anchor="start" x="177.5" y="-1409" font-family="Helvetica,sans-Serif" font-size="10.00">+ empty()</text>
<text text-anchor="start" x="177.5" y="-1398" font-family="Helvetica,sans-Serif" font-size="10.00">and 15 more...</text>
</a>
</g>
</g>
<!-- Node6&#45;&gt;Node5 -->
<g id="edge5" class="edge">
<title>Node6&#45;&gt;Node5</title>
<path fill="none" stroke="orange" d="M220.39,-1380.59C220.48,-1359.16 220.57,-1336.61 220.65,-1315.6"/>
<polygon fill="orange" stroke="orange" points="216.89,-1380.67 220.35,-1390.68 223.89,-1380.7 216.89,-1380.67"/>
<text text-anchor="middle" x="284.5" y="-1342.5" font-family="Helvetica,sans-Serif" font-size="10.00"> &lt; altintegration::BlockIndex &gt;</text>
</g>
<!-- Node7 -->
<g id="node7" class="node">
<title>Node7</title>
<g id="a_node7"><a xlink:title=" ">
<polygon fill="white" stroke="#bfbfbf" points="309.5,-1187 309.5,-1266 446.5,-1266 446.5,-1187 309.5,-1187"/>
<text text-anchor="start" x="317.5" y="-1254" font-family="Helvetica,sans-Serif" font-size="10.00">std::unordered_map</text>
<text text-anchor="start" x="317.5" y="-1243" font-family="Helvetica,sans-Serif" font-size="10.00">&lt; prev_block_hash_t,</text>
<text text-anchor="middle" x="378" y="-1232" font-family="Helvetica,sans-Serif" font-size="10.00"> std::unique_ptr&lt; index_t &gt; &gt;</text>
<polyline fill="none" stroke="#bfbfbf" points="309.5,-1225 446.5,-1225 "/>
<text text-anchor="start" x="317.5" y="-1213" font-family="Helvetica,sans-Serif" font-size="10.00">+ keys</text>
<polyline fill="none" stroke="#bfbfbf" points="309.5,-1206 446.5,-1206 "/>
<text text-anchor="middle" x="378" y="-1194" font-family="Helvetica,sans-Serif" font-size="10.00"> </text>
</a>
</g>
</g>
<!-- Node7&#45;&gt;Node3 -->
<g id="edge6" class="edge">
<title>Node7&#45;&gt;Node3</title>
<path fill="none" stroke="#404040" d="M366.6,-1186.82C359.8,-1163.77 350.71,-1132.93 341.4,-1101.35"/>
<polygon fill="none" stroke="#404040" points="341.36,-1101.21 335.83,-1096.59 337.97,-1089.7 343.5,-1094.32 341.36,-1101.21"/>
<text text-anchor="middle" x="367" y="-1111" font-family="Helvetica,sans-Serif" font-size="10.00"> #blocks_</text>
</g>
<!-- Node8 -->
<g id="node8" class="node">
<title>Node8</title>
<g id="a_node8"><a xlink:title=" ">
<polygon fill="white" stroke="#bfbfbf" points="318.5,-1604.5 318.5,-1661.5 445.5,-1661.5 445.5,-1604.5 318.5,-1604.5"/>
<text text-anchor="middle" x="382" y="-1649.5" font-family="Helvetica,sans-Serif" font-size="10.00">std::unique_ptr&lt; index_t &gt;</text>
<polyline fill="none" stroke="#bfbfbf" points="318.5,-1642.5 445.5,-1642.5 "/>
<text text-anchor="start" x="326.5" y="-1630.5" font-family="Helvetica,sans-Serif" font-size="10.00">+ ptr</text>
<polyline fill="none" stroke="#bfbfbf" points="318.5,-1623.5 445.5,-1623.5 "/>
<text text-anchor="start" x="326.5" y="-1611.5" font-family="Helvetica,sans-Serif" font-size="10.00">+ operator&#45;&gt;()</text>
</a>
</g>
</g>
<!-- Node8&#45;&gt;Node7 -->
<g id="edge7" class="edge">
<title>Node8&#45;&gt;Node7</title>
<path fill="none" stroke="#404040" d="M374.3,-1604.46C372.93,-1598.42 371.71,-1592.03 371,-1586 358.15,-1477.02 366.32,-1348.14 372.65,-1278.44"/>
<polygon fill="none" stroke="#404040" points="372.68,-1278.08 369.26,-1271.73 373.8,-1266.13 377.23,-1272.48 372.68,-1278.08"/>
<text text-anchor="middle" x="395.5" y="-1477.5" font-family="Helvetica,sans-Serif" font-size="10.00"> +elements</text>
</g>
<!-- Node9 -->
<g id="node9" class="node">
<title>Node9</title>
<g id="a_node9"><a xlink:title=" ">
<polygon fill="white" stroke="#bfbfbf" points="348,-1756.5 348,-1813.5 450,-1813.5 450,-1756.5 348,-1756.5"/>
<text text-anchor="middle" x="399" y="-1801.5" font-family="Helvetica,sans-Serif" font-size="10.00">std::unique_ptr&lt; T &gt;</text>
<polyline fill="none" stroke="#bfbfbf" points="348,-1794.5 450,-1794.5 "/>
<text text-anchor="middle" x="399" y="-1782.5" font-family="Helvetica,sans-Serif" font-size="10.00"> </text>
<polyline fill="none" stroke="#bfbfbf" points="348,-1775.5 450,-1775.5 "/>
<text text-anchor="start" x="356" y="-1763.5" font-family="Helvetica,sans-Serif" font-size="10.00">+ operator&#45;&gt;()</text>
</a>
</g>
</g>
<!-- Node9&#45;&gt;Node8 -->
<g id="edge8" class="edge">
<title>Node9&#45;&gt;Node8</title>
<path fill="none" stroke="orange" d="M394.75,-1746.47C391.76,-1720.11 387.83,-1685.43 385.13,-1661.59"/>
<polygon fill="orange" stroke="orange" points="391.28,-1746.95 395.88,-1756.49 398.23,-1746.16 391.28,-1746.95"/>
<text text-anchor="middle" x="419" y="-1706.5" font-family="Helvetica,sans-Serif" font-size="10.00"> &lt; index_t &gt;</text>
</g>
<!-- Node10 -->
<g id="node10" class="node">
<title>Node10</title>
<g id="a_node10"><a xlink:title=" ">
<polygon fill="white" stroke="#bfbfbf" points="465.5,-1937.5 465.5,-1994.5 494.5,-1994.5 494.5,-1937.5 465.5,-1937.5"/>
<text text-anchor="middle" x="480" y="-1982.5" font-family="Helvetica,sans-Serif" font-size="10.00">T</text>
<polyline fill="none" stroke="#bfbfbf" points="465.5,-1975.5 494.5,-1975.5 "/>
<text text-anchor="middle" x="480" y="-1963.5" font-family="Helvetica,sans-Serif" font-size="10.00"> </text>
<polyline fill="none" stroke="#bfbfbf" points="465.5,-1956.5 494.5,-1956.5 "/>
<text text-anchor="middle" x="480" y="-1944.5" font-family="Helvetica,sans-Serif" font-size="10.00"> </text>
</a>
</g>
</g>
<!-- Node10&#45;&gt;Node9 -->
<g id="edge9" class="edge">
<title>Node10&#45;&gt;Node9</title>
<path fill="none" stroke="#404040" d="M465.46,-1947.9C458.89,-1939.57 451.4,-1929.17 446,-1919 430.12,-1889.08 417.68,-1852.67 409.59,-1825.51"/>
<polygon fill="none" stroke="#404040" points="409.52,-1825.27 404.02,-1820.62 406.19,-1813.74 411.7,-1818.39 409.52,-1825.27"/>
<text text-anchor="middle" x="456" y="-1911" font-family="Helvetica,sans-Serif" font-size="10.00"> +ptr</text>
</g>
<!-- Node11 -->
<g id="node11" class="node">
<title>Node11</title>
<g id="a_node11"><a xlink:title=" ">
<polygon fill="white" stroke="#bfbfbf" points="429.5,-1446 429.5,-1514 530.5,-1514 530.5,-1446 429.5,-1446"/>
<text text-anchor="start" x="437.5" y="-1502" font-family="Helvetica,sans-Serif" font-size="10.00">std::unordered_map</text>
<text text-anchor="middle" x="480" y="-1491" font-family="Helvetica,sans-Serif" font-size="10.00">&lt; K, T &gt;</text>
<polyline fill="none" stroke="#bfbfbf" points="429.5,-1484 530.5,-1484 "/>
<text text-anchor="middle" x="480" y="-1472" font-family="Helvetica,sans-Serif" font-size="10.00"> </text>
<polyline fill="none" stroke="#bfbfbf" points="429.5,-1465 530.5,-1465 "/>
<text text-anchor="middle" x="480" y="-1453" font-family="Helvetica,sans-Serif" font-size="10.00"> </text>
</a>
</g>
</g>
<!-- Node10&#45;&gt;Node11 -->
<g id="edge12" class="edge">
<title>Node10&#45;&gt;Node11</title>
<path fill="none" stroke="#404040" d="M480,-1937.24C480,-1857.19 480,-1625.33 480,-1526.5"/>
<polygon fill="none" stroke="#404040" points="480,-1526.29 476,-1520.29 480,-1514.29 484,-1520.29 480,-1526.29"/>
<text text-anchor="middle" x="504.5" y="-1782.5" font-family="Helvetica,sans-Serif" font-size="10.00"> +elements</text>
</g>
<!-- Node17 -->
<g id="node17" class="node">
<title>Node17</title>
<g id="a_node17"><a xlink:title=" ">
<polygon fill="white" stroke="#bfbfbf" points="577.5,-1832.5 577.5,-1889.5 680.5,-1889.5 680.5,-1832.5 577.5,-1832.5"/>
<text text-anchor="middle" x="629" y="-1877.5" font-family="Helvetica,sans-Serif" font-size="10.00">std::shared_ptr&lt; T &gt;</text>
<polyline fill="none" stroke="#bfbfbf" points="577.5,-1870.5 680.5,-1870.5 "/>
<text text-anchor="middle" x="629" y="-1858.5" font-family="Helvetica,sans-Serif" font-size="10.00"> </text>
<polyline fill="none" stroke="#bfbfbf" points="577.5,-1851.5 680.5,-1851.5 "/>
<text text-anchor="start" x="585.5" y="-1839.5" font-family="Helvetica,sans-Serif" font-size="10.00">+ operator&#45;&gt;()</text>
</a>
</g>
</g>
<!-- Node10&#45;&gt;Node17 -->
<g id="edge18" class="edge">
<title>Node10&#45;&gt;Node17</title>
<path fill="none" stroke="#404040" d="M494.56,-1954.94C513.95,-1941.53 549.24,-1917.14 578.8,-1896.7"/>
<polygon fill="none" stroke="#404040" points="579.11,-1896.49 581.77,-1889.79 588.98,-1889.67 586.32,-1896.37 579.11,-1896.49"/>
<text text-anchor="middle" x="569" y="-1911" font-family="Helvetica,sans-Serif" font-size="10.00"> +ptr</text>
</g>
<!-- Node11&#45;&gt;Node7 -->
<g id="edge10" class="edge">
<title>Node11&#45;&gt;Node7</title>
<path fill="none" stroke="orange" d="M453.09,-1437.42C439,-1414.2 422.35,-1384.31 411,-1356 399.3,-1326.82 390.7,-1292.22 385.21,-1266.28"/>
<polygon fill="orange" stroke="orange" points="450.14,-1439.29 458.36,-1445.98 456.1,-1435.63 450.14,-1439.29"/>
<text text-anchor="start" x="411" y="-1348" font-family="Helvetica,sans-Serif" font-size="10.00"> &lt; prev_block_hash_t,</text>
<text text-anchor="middle" x="471.5" y="-1337" font-family="Helvetica,sans-Serif" font-size="10.00"> std::unique_ptr&lt; index_t &gt; &gt;</text>
</g>
<!-- Node12 -->
<g id="node12" class="node">
<title>Node12</title>
<g id="a_node12"><a xlink:title=" ">
<polygon fill="white" stroke="#bfbfbf" points="593.5,-1680.5 593.5,-1737.5 622.5,-1737.5 622.5,-1680.5 593.5,-1680.5"/>
<text text-anchor="middle" x="608" y="-1725.5" font-family="Helvetica,sans-Serif" font-size="10.00">K</text>
<polyline fill="none" stroke="#bfbfbf" points="593.5,-1718.5 622.5,-1718.5 "/>
<text text-anchor="middle" x="608" y="-1706.5" font-family="Helvetica,sans-Serif" font-size="10.00"> </text>
<polyline fill="none" stroke="#bfbfbf" points="593.5,-1699.5 622.5,-1699.5 "/>
<text text-anchor="middle" x="608" y="-1687.5" font-family="Helvetica,sans-Serif" font-size="10.00"> </text>
</a>
</g>
</g>
<!-- Node12&#45;&gt;Node11 -->
<g id="edge11" class="edge">
<title>Node12&#45;&gt;Node11</title>
<path fill="none" stroke="#404040" d="M593.25,-1688.71C587.32,-1680.63 580.57,-1671.03 575,-1662 547.05,-1616.7 519.24,-1562.35 501,-1525.11"/>
<polygon fill="none" stroke="#404040" points="500.91,-1524.92 494.69,-1521.27 495.66,-1514.13 501.88,-1517.77 500.91,-1524.92"/>
<text text-anchor="middle" x="589.5" y="-1630.5" font-family="Helvetica,sans-Serif" font-size="10.00"> +keys</text>
</g>
<!-- Node19 -->
<g id="node19" class="node">
<title>Node19</title>
<g id="a_node19"><a xlink:title=" ">
<polygon fill="white" stroke="#bfbfbf" points="698.5,-1451.5 698.5,-1508.5 769.5,-1508.5 769.5,-1451.5 698.5,-1451.5"/>
<text text-anchor="middle" x="734" y="-1496.5" font-family="Helvetica,sans-Serif" font-size="10.00">std::set&lt; K &gt;</text>
<polyline fill="none" stroke="#bfbfbf" points="698.5,-1489.5 769.5,-1489.5 "/>
<text text-anchor="middle" x="734" y="-1477.5" font-family="Helvetica,sans-Serif" font-size="10.00"> </text>
<polyline fill="none" stroke="#bfbfbf" points="698.5,-1470.5 769.5,-1470.5 "/>
<text text-anchor="middle" x="734" y="-1458.5" font-family="Helvetica,sans-Serif" font-size="10.00"> </text>
</a>
</g>
</g>
<!-- Node12&#45;&gt;Node19 -->
<g id="edge23" class="edge">
<title>Node12&#45;&gt;Node19</title>
<path fill="none" stroke="#404040" d="M622.79,-1688.74C628.73,-1680.66 635.47,-1671.06 641,-1662 670.05,-1614.46 698.59,-1556.81 716.24,-1519.55"/>
<polygon fill="none" stroke="#404040" points="716.25,-1519.53 715.18,-1512.4 721.35,-1508.67 722.42,-1515.8 716.25,-1519.53"/>
<text text-anchor="middle" x="685.5" y="-1630.5" font-family="Helvetica,sans-Serif" font-size="10.00"> +keys</text>
</g>
<!-- Node20 -->
<g id="node20" class="node">
<title>Node20</title>
<g id="a_node20"><a xlink:title=" ">
<polygon fill="white" stroke="#bfbfbf" points="548.5,-1451.5 548.5,-1508.5 667.5,-1508.5 667.5,-1451.5 548.5,-1451.5"/>
<text text-anchor="middle" x="608" y="-1496.5" font-family="Helvetica,sans-Serif" font-size="10.00">std::unordered_set&lt; K &gt;</text>
<polyline fill="none" stroke="#bfbfbf" points="548.5,-1489.5 667.5,-1489.5 "/>
<text text-anchor="middle" x="608" y="-1477.5" font-family="Helvetica,sans-Serif" font-size="10.00"> </text>
<polyline fill="none" stroke="#bfbfbf" points="548.5,-1470.5 667.5,-1470.5 "/>
<text text-anchor="middle" x="608" y="-1458.5" font-family="Helvetica,sans-Serif" font-size="10.00"> </text>
</a>
</g>
</g>
<!-- Node12&#45;&gt;Node20 -->
<g id="edge25" class="edge">
<title>Node12&#45;&gt;Node20</title>
<path fill="none" stroke="#404040" d="M608,-1680.17C608,-1640.23 608,-1566.48 608,-1520.8"/>
<polygon fill="none" stroke="#404040" points="608,-1520.71 604,-1514.71 608,-1508.71 612,-1514.71 608,-1520.71"/>
<text text-anchor="middle" x="622.5" y="-1630.5" font-family="Helvetica,sans-Serif" font-size="10.00"> +keys</text>
</g>
<!-- Node13 -->
<g id="node13" class="node">
<title>Node13</title>
<g id="a_node13"><a xlink:title=" ">
<polygon fill="white" stroke="#bfbfbf" points="465.5,-1192.5 465.5,-1260.5 612.5,-1260.5 612.5,-1192.5 465.5,-1192.5"/>
<text text-anchor="start" x="473.5" y="-1248.5" font-family="Helvetica,sans-Serif" font-size="10.00">std::unordered_set</text>
<text text-anchor="middle" x="539" y="-1237.5" font-family="Helvetica,sans-Serif" font-size="10.00">&lt; altintegration::BlockIndex * &gt;</text>
<polyline fill="none" stroke="#bfbfbf" points="465.5,-1230.5 612.5,-1230.5 "/>
<text text-anchor="middle" x="539" y="-1218.5" font-family="Helvetica,sans-Serif" font-size="10.00"> </text>
<polyline fill="none" stroke="#bfbfbf" points="465.5,-1211.5 612.5,-1211.5 "/>
<text text-anchor="middle" x="539" y="-1199.5" font-family="Helvetica,sans-Serif" font-size="10.00"> </text>
</a>
</g>
</g>
<!-- Node13&#45;&gt;Node3 -->
<g id="edge13" class="edge">
<title>Node13&#45;&gt;Node3</title>
<path fill="none" stroke="#404040" d="M509.33,-1192.37C477.98,-1157.37 427.12,-1100.57 383.26,-1051.59"/>
<polygon fill="none" stroke="#404040" points="383.17,-1051.48 376.18,-1049.68 375.16,-1042.55 382.14,-1044.35 383.17,-1051.48"/>
<text text-anchor="middle" x="455.5" y="-1111" font-family="Helvetica,sans-Serif" font-size="10.00"> #tips_</text>
</g>
<!-- Node14 -->
<g id="node14" class="node">
<title>Node14</title>
<g id="a_node14"><a xlink:href="structaltintegration_1_1BlockIndex.html" target="_top" xlink:title="A node in a block tree.">
<polygon fill="white" stroke="black" points="813.5,-1374.5 813.5,-1585.5 938.5,-1585.5 938.5,-1374.5 813.5,-1374.5"/>
<text text-anchor="start" x="821.5" y="-1573.5" font-family="Helvetica,sans-Serif" font-size="10.00">altintegration::BlockIndex</text>
<text text-anchor="middle" x="876" y="-1562.5" font-family="Helvetica,sans-Serif" font-size="10.00">&lt; Block &gt;</text>
<polyline fill="none" stroke="black" points="813.5,-1555.5 938.5,-1555.5 "/>
<text text-anchor="start" x="821.5" y="-1543.5" font-family="Helvetica,sans-Serif" font-size="10.00">+ finalized</text>
<text text-anchor="start" x="821.5" y="-1532.5" font-family="Helvetica,sans-Serif" font-size="10.00"># height</text>
<text text-anchor="start" x="821.5" y="-1521.5" font-family="Helvetica,sans-Serif" font-size="10.00"># status</text>
<text text-anchor="start" x="821.5" y="-1510.5" font-family="Helvetica,sans-Serif" font-size="10.00"># dirty</text>
<polyline fill="none" stroke="black" points="813.5,-1503.5 938.5,-1503.5 "/>
<text text-anchor="start" x="821.5" y="-1491.5" font-family="Helvetica,sans-Serif" font-size="10.00">+ BlockIndex()</text>
<text text-anchor="start" x="821.5" y="-1480.5" font-family="Helvetica,sans-Serif" font-size="10.00">+ BlockIndex()</text>
<text text-anchor="start" x="821.5" y="-1469.5" font-family="Helvetica,sans-Serif" font-size="10.00">+ ~BlockIndex()</text>
<text text-anchor="start" x="821.5" y="-1458.5" font-family="Helvetica,sans-Serif" font-size="10.00">+ BlockIndex()</text>
<text text-anchor="start" x="821.5" y="-1447.5" font-family="Helvetica,sans-Serif" font-size="10.00">+ operator=()</text>
<text text-anchor="start" x="821.5" y="-1436.5" font-family="Helvetica,sans-Serif" font-size="10.00">+ isDeleted()</text>
<text text-anchor="start" x="821.5" y="-1425.5" font-family="Helvetica,sans-Serif" font-size="10.00">+ isRoot()</text>
<text text-anchor="start" x="821.5" y="-1414.5" font-family="Helvetica,sans-Serif" font-size="10.00">+ restore()</text>
<text text-anchor="start" x="821.5" y="-1403.5" font-family="Helvetica,sans-Serif" font-size="10.00">+ deleteTemporarily()</text>
<text text-anchor="start" x="821.5" y="-1392.5" font-family="Helvetica,sans-Serif" font-size="10.00">+ mergeFrom()</text>
<text text-anchor="start" x="821.5" y="-1381.5" font-family="Helvetica,sans-Serif" font-size="10.00">and 40 more...</text>
</a>
</g>
</g>
<!-- Node14&#45;&gt;Node13 -->
<g id="edge14" class="edge">
<title>Node14&#45;&gt;Node13</title>
<path fill="none" stroke="#404040" d="M813.32,-1400.41C802.71,-1390.45 791.16,-1381.23 779,-1374 751.02,-1357.36 737.32,-1370.14 708,-1356 682.87,-1343.89 628.38,-1301.17 588.03,-1268.28"/>
<polygon fill="none" stroke="#404040" points="587.9,-1268.18 580.73,-1267.48 578.62,-1260.58 585.79,-1261.29 587.9,-1268.18"/>
<text text-anchor="middle" x="722.5" y="-1342.5" font-family="Helvetica,sans-Serif" font-size="10.00"> +keys</text>
</g>
<!-- Node14&#45;&gt;Node14 -->
<g id="edge19" class="edge">
<title>Node14&#45;&gt;Node14</title>
<path fill="none" stroke="#404040" d="M938.78,-1503.35C949.26,-1500.08 956.5,-1492.3 956.5,-1480 956.5,-1472.5 953.81,-1466.69 949.34,-1462.54"/>
<polygon fill="none" stroke="#404040" points="949.26,-1462.5 942.07,-1463.06 938.78,-1456.65 945.97,-1456.08 949.26,-1462.5"/>
<text text-anchor="middle" x="973" y="-1477.5" font-family="Helvetica,sans-Serif" font-size="10.00"> +pprev</text>
</g>
<!-- Node18 -->
<g id="node18" class="node">
<title>Node18</title>
<g id="a_node18"><a xlink:title=" ">
<polygon fill="white" stroke="#bfbfbf" points="847,-1192.5 847,-1260.5 959,-1260.5 959,-1192.5 847,-1192.5"/>
<text text-anchor="start" x="855" y="-1248.5" font-family="Helvetica,sans-Serif" font-size="10.00">std::set&lt; altintegration</text>
<text text-anchor="middle" x="903" y="-1237.5" font-family="Helvetica,sans-Serif" font-size="10.00">::BlockIndex * &gt;</text>
<polyline fill="none" stroke="#bfbfbf" points="847,-1230.5 959,-1230.5 "/>
<text text-anchor="middle" x="903" y="-1218.5" font-family="Helvetica,sans-Serif" font-size="10.00"> </text>
<polyline fill="none" stroke="#bfbfbf" points="847,-1211.5 959,-1211.5 "/>
<text text-anchor="middle" x="903" y="-1199.5" font-family="Helvetica,sans-Serif" font-size="10.00"> </text>
</a>
</g>
</g>
<!-- Node14&#45;&gt;Node18 -->
<g id="edge21" class="edge">
<title>Node14&#45;&gt;Node18</title>
<path fill="none" stroke="#404040" d="M887.25,-1374.16C891.04,-1338.86 895.08,-1301.3 898.11,-1273.03"/>
<polygon fill="none" stroke="#404040" points="898.15,-1272.67 894.81,-1266.27 899.43,-1260.74 902.77,-1267.13 898.15,-1272.67"/>
<text text-anchor="middle" x="905.5" y="-1342.5" font-family="Helvetica,sans-Serif" font-size="10.00"> +keys</text>
</g>
<!-- Node15 -->
<g id="node15" class="node">
<title>Node15</title>
<g id="a_node15"><a xlink:title=" ">
<polygon fill="white" stroke="#bfbfbf" points="714,-1680.5 714,-1737.5 794,-1737.5 794,-1680.5 714,-1680.5"/>
<text text-anchor="middle" x="754" y="-1725.5" font-family="Helvetica,sans-Serif" font-size="10.00">Block::addon_t</text>
<polyline fill="none" stroke="#bfbfbf" points="714,-1718.5 794,-1718.5 "/>
<text text-anchor="middle" x="754" y="-1706.5" font-family="Helvetica,sans-Serif" font-size="10.00"> </text>
<polyline fill="none" stroke="#bfbfbf" points="714,-1699.5 794,-1699.5 "/>
<text text-anchor="middle" x="754" y="-1687.5" font-family="Helvetica,sans-Serif" font-size="10.00"> </text>
</a>
</g>
</g>
<!-- Node15&#45;&gt;Node14 -->
<g id="edge15" class="edge">
<title>Node15&#45;&gt;Node14</title>
<path fill="none" stroke="midnightblue" d="M773.72,-1671.3C786.3,-1647.91 803.28,-1616.31 819.79,-1585.58"/>
<polygon fill="none" stroke="midnightblue" points="770.61,-1669.7 768.96,-1680.17 776.78,-1673.01 770.61,-1669.7"/>
</g>
<!-- Node16 -->
<g id="node16" class="node">
<title>Node16</title>
<g id="a_node16"><a xlink:title=" ">
<polygon fill="white" stroke="#bfbfbf" points="812,-1680.5 812,-1737.5 940,-1737.5 940,-1680.5 812,-1680.5"/>
<text text-anchor="middle" x="876" y="-1725.5" font-family="Helvetica,sans-Serif" font-size="10.00">std::shared_ptr&lt; block_t &gt;</text>
<polyline fill="none" stroke="#bfbfbf" points="812,-1718.5 940,-1718.5 "/>
<text text-anchor="start" x="820" y="-1706.5" font-family="Helvetica,sans-Serif" font-size="10.00">+ ptr</text>
<polyline fill="none" stroke="#bfbfbf" points="812,-1699.5 940,-1699.5 "/>
<text text-anchor="start" x="820" y="-1687.5" font-family="Helvetica,sans-Serif" font-size="10.00">+ operator&#45;&gt;()</text>
</a>
</g>
</g>
<!-- Node16&#45;&gt;Node14 -->
<g id="edge16" class="edge">
<title>Node16&#45;&gt;Node14</title>
<path fill="none" stroke="#404040" d="M876,-1680.17C876,-1659.11 876,-1628.64 876,-1597.84"/>
<polygon fill="none" stroke="#404040" points="876,-1597.58 872,-1591.58 876,-1585.58 880,-1591.58 876,-1597.58"/>
<text text-anchor="middle" x="894.5" y="-1630.5" font-family="Helvetica,sans-Serif" font-size="10.00"> #header</text>
</g>
<!-- Node17&#45;&gt;Node16 -->
<g id="edge17" class="edge">
<title>Node17&#45;&gt;Node16</title>
<path fill="none" stroke="orange" d="M682.89,-1827.27C727.06,-1800.45 788.87,-1762.91 830.57,-1737.59"/>
<polygon fill="orange" stroke="orange" points="681.03,-1824.31 674.3,-1832.49 684.67,-1830.29 681.03,-1824.31"/>
<text text-anchor="middle" x="821.5" y="-1782.5" font-family="Helvetica,sans-Serif" font-size="10.00"> &lt; block_t &gt;</text>
</g>
<!-- Node18&#45;&gt;Node14 -->
<g id="edge20" class="edge">
<title>Node18&#45;&gt;Node14</title>
<path fill="none" stroke="#404040" d="M919.06,-1260.73C929.58,-1286.64 940.15,-1323.56 933,-1356 932.52,-1358.19 931.99,-1360.39 931.43,-1362.59"/>
<polygon fill="none" stroke="#404040" points="931.36,-1362.83 933.55,-1369.7 928.06,-1374.37 925.86,-1367.5 931.36,-1362.83"/>
<text text-anchor="middle" x="951" y="-1342.5" font-family="Helvetica,sans-Serif" font-size="10.00"> +pnext</text>
</g>
<!-- Node19&#45;&gt;Node18 -->
<g id="edge22" class="edge">
<title>Node19&#45;&gt;Node18</title>
<path fill="none" stroke="orange" d="M730.61,-1440.85C729.68,-1409.92 732.63,-1366.31 752,-1334 773.85,-1297.54 813.54,-1270.29 846.74,-1252.49"/>
<polygon fill="orange" stroke="orange" points="727.13,-1441.4 731.08,-1451.23 734.12,-1441.08 727.13,-1441.4"/>
<text text-anchor="middle" x="818.5" y="-1342.5" font-family="Helvetica,sans-Serif" font-size="10.00"> &lt; altintegration::BlockIndex * &gt;</text>
</g>
<!-- Node20&#45;&gt;Node13 -->
<g id="edge24" class="edge">
<title>Node20&#45;&gt;Node13</title>
<path fill="none" stroke="orange" d="M581.69,-1442.85C566.26,-1419.37 548.23,-1387.39 540,-1356 531.71,-1324.38 532.58,-1286.87 534.84,-1260.57"/>
<polygon fill="orange" stroke="orange" points="578.97,-1445.06 587.45,-1451.41 584.78,-1441.16 578.97,-1445.06"/>
<text text-anchor="middle" x="606.5" y="-1342.5" font-family="Helvetica,sans-Serif" font-size="10.00"> &lt; altintegration::BlockIndex * &gt;</text>
</g>
<!-- Node21&#45;&gt;Node2 -->
<g id="edge26" class="edge">
<title>Node21&#45;&gt;Node2</title>
<path fill="none" stroke="orange" d="M345.96,-509.16C342.78,-496.62 339.58,-483.97 336.43,-471.52"/>
<polygon fill="orange" stroke="orange" points="342.65,-510.35 348.5,-519.18 349.44,-508.63 342.65,-510.35"/>
<text text-anchor="middle" x="414" y="-493" font-family="Helvetica,sans-Serif" font-size="10.00"> &lt; VbkBlock, VbkChainParams &gt;</text>
</g>
</g>
</svg>
        <g id="navigator" transform="translate(0 0)" fill="#404254">
                <rect fill="#f2f5e9" fill-opacity="0.5" stroke="#606060" stroke-width=".5" x="0" y="0" width="60" height="60"/>
                <use id="zoomplus" xlink:href="#zoomPlus" x="17" y="9" onmousedown="handleZoom(evt,'in')"/>
                <use id="zoomminus" xlink:href="#zoomMin" x="42" y="9" onmousedown="handleZoom(evt,'out')"/>
                <use id="reset" xlink:href="#resetDef" x="30" y="36" onmousedown="handleReset()"/>
                <g id="arrowUp" xlink:href="#dirArrow" transform="translate(30 24)" onmousedown="handlePan(0,-1)">
                  <use xlink:href="#rim" fill="#404040">
                        <set attributeName="fill" to="#808080" begin="arrowUp.mouseover" end="arrowUp.mouseout"/>
                  </use>
                  <path fill="none" stroke="white" stroke-width="1.5" d="M0,-3.0v7 M-2.5,-0.5L0,-3.0L2.5,-0.5"/>
                </g>
                <g id="arrowRight" xlink:href="#dirArrow" transform="rotate(90) translate(36 -43)" onmousedown="handlePan(1,0)">
                  <use xlink:href="#rim" fill="#404040">
                        <set attributeName="fill" to="#808080" begin="arrowRight.mouseover" end="arrowRight.mouseout"/>
                  </use>
                  <path fill="none" stroke="white" stroke-width="1.5" d="M0,-3.0v7 M-2.5,-0.5L0,-3.0L2.5,-0.5"/>
                </g>
                <g id="arrowDown" xlink:href="#dirArrow" transform="rotate(180) translate(-30 -48)" onmousedown="handlePan(0,1)">
                  <use xlink:href="#rim" fill="#404040">
                        <set attributeName="fill" to="#808080" begin="arrowDown.mouseover" end="arrowDown.mouseout"/>
                  </use>
                  <path fill="none" stroke="white" stroke-width="1.5" d="M0,-3.0v7 M-2.5,-0.5L0,-3.0L2.5,-0.5"/>
                </g>
                <g id="arrowLeft" xlink:href="#dirArrow" transform="rotate(270) translate(-36 17)" onmousedown="handlePan(-1,0)">
                  <use xlink:href="#rim" fill="#404040">
                        <set attributeName="fill" to="#808080" begin="arrowLeft.mouseover" end="arrowLeft.mouseout"/>
                  </use>
                  <path fill="none" stroke="white" stroke-width="1.5" d="M0,-3.0v7 M-2.5,-0.5L0,-3.0L2.5,-0.5"/>
                </g>
        </g>
        <svg viewBox="0 0 15 15" width="100%" height="30px" preserveAspectRatio="xMaxYMin meet">
         <g id="arrow_out" transform="scale(0.3 0.3)">
          <a xlink:href="structaltintegration_1_1VbkBlockTree__coll__graph_org.svg" target="_base">
           <rect id="button" ry="5" rx="5" y="6" x="6" height="38" width="38"
                fill="#f2f5e9" fill-opacity="0.5" stroke="#606060" stroke-width="1.0"/>
           <path id="arrow"
             d="M 11.500037,31.436501 C 11.940474,20.09759 22.043105,11.32322 32.158766,21.979434 L 37.068811,17.246167 C 37.068811,17.246167 37.088388,32 37.088388,32 L 22.160133,31.978069 C 22.160133,31.978069 26.997745,27.140456 26.997745,27.140456 C 18.528582,18.264221 13.291696,25.230495 11.500037,31.436501 z"
             style="fill:#404040;"/>
          </a>
         </g>
        </svg>
</svg>
