<?xml version="1.0" encoding="UTF-8" standalone="no"?>
<!DOCTYPE svg PUBLIC "-//W3C//DTD SVG 1.1//EN"
 "http://www.w3.org/Graphics/SVG/1.1/DTD/svg11.dtd">
<!-- Generated by graphviz version 2.44.0 ()
 -->
<!-- Title: altintegration::btc::Transaction Pages: 1 -->
<!--zoomable 1125 -->
<svg id="main" version="1.1" xmlns="http://www.w3.org/2000/svg" xmlns:xlink="http://www.w3.org/1999/xlink" xml:space="preserve" onload="init(evt)">
<style type="text/css"><![CDATA[
.edge:hover path { stroke: red; }
.edge:hover polygon { stroke: red; fill: red; }
]]></style>
<script type="text/javascript"><![CDATA[
var edges = document.getElementsByTagName('g');
if (edges && edges.length) {
  for (var i=0;i<edges.length;i++) {
    if (edges[i].id.substr(0,4)=='edge') {
      edges[i].setAttribute('class','edge');
    }
  }
}
]]></script>
        <defs>
                <circle id="rim" cx="0" cy="0" r="7"/>
                <circle id="rim2" cx="0" cy="0" r="3.5"/>
                <g id="zoomPlus">
                        <use xlink:href="#rim" fill="#404040">
                                <set attributeName="fill" to="#808080" begin="zoomplus.mouseover" end="zoomplus.mouseout"/>
                        </use>
                        <path d="M-4,0h8M0,-4v8" fill="none" stroke="white" stroke-width="1.5" pointer-events="none"/>
                </g>
                <g id="zoomMin">
                        <use xlink:href="#rim" fill="#404040">
                                <set attributeName="fill" to="#808080" begin="zoomminus.mouseover" end="zoomminus.mouseout"/>
                        </use>
                        <path d="M-4,0h8" fill="none" stroke="white" stroke-width="1.5" pointer-events="none"/>
                </g>
                <g id="dirArrow">
                        <path fill="none" stroke="white" stroke-width="1.5" d="M0,-3.0v7 M-2.5,-0.5L0,-3.0L2.5,-0.5"/>
                </g>
               <g id="resetDef">
                       <use xlink:href="#rim2" fill="#404040">
                               <set attributeName="fill" to="#808080" begin="reset.mouseover" end="reset.mouseout"/>
                       </use>
               </g>
        </defs>

<script type="text/javascript">
var viewWidth = 854;
var viewHeight = 1125;
var sectionId = 'dynsection-0';
</script>
<script xlink:href="svgpan.js"/>
<svg id="graph" class="graph">
<g id="viewport">
<title>altintegration::btc::Transaction</title>
<polygon fill="white" stroke="transparent" points="-4,4 -4,-1121 849.5,-1121 849.5,4 -4,4"/>
<!-- Node1 -->
<g id="node1" class="node">
<title>Node1</title>
<g id="a_node1"><a xlink:title="The basic transaction that is broadcasted on the network and contained in blocks.">
<polygon fill="#bfbfbf" stroke="black" points="33.5,-0.5 33.5,-101.5 123.5,-101.5 123.5,-0.5 33.5,-0.5"/>
<text text-anchor="start" x="41.5" y="-89.5" font-family="Helvetica,sans-Serif" font-size="10.00">altintegration::btc</text>
<text text-anchor="middle" x="78.5" y="-78.5" font-family="Helvetica,sans-Serif" font-size="10.00">::Transaction</text>
<polyline fill="none" stroke="black" points="33.5,-71.5 123.5,-71.5 "/>
<text text-anchor="start" x="41.5" y="-59.5" font-family="Helvetica,sans-Serif" font-size="10.00">+ nVersion</text>
<text text-anchor="start" x="41.5" y="-48.5" font-family="Helvetica,sans-Serif" font-size="10.00">+ nLockTime</text>
<polyline fill="none" stroke="black" points="33.5,-41.5 123.5,-41.5 "/>
<text text-anchor="start" x="41.5" y="-29.5" font-family="Helvetica,sans-Serif" font-size="10.00">+ Serialize()</text>
<text text-anchor="start" x="41.5" y="-18.5" font-family="Helvetica,sans-Serif" font-size="10.00">+ Unserialize()</text>
<text text-anchor="start" x="41.5" y="-7.5" font-family="Helvetica,sans-Serif" font-size="10.00">+ HasWitness()</text>
</a>
</g>
</g>
<!-- Node2 -->
<g id="node2" class="node">
<title>Node2</title>
<g id="a_node2"><a xlink:title=" ">
<polygon fill="white" stroke="#bfbfbf" points="0,-271 0,-339 125,-339 125,-271 0,-271"/>
<text text-anchor="start" x="8" y="-327" font-family="Helvetica,sans-Serif" font-size="10.00">std::vector&lt; altintegration</text>
<text text-anchor="middle" x="62.5" y="-316" font-family="Helvetica,sans-Serif" font-size="10.00">::btc::TxOut &gt;</text>
<polyline fill="none" stroke="#bfbfbf" points="0,-309 125,-309 "/>
<text text-anchor="middle" x="62.5" y="-297" font-family="Helvetica,sans-Serif" font-size="10.00"> </text>
<polyline fill="none" stroke="#bfbfbf" points="0,-290 125,-290 "/>
<text text-anchor="middle" x="62.5" y="-278" font-family="Helvetica,sans-Serif" font-size="10.00"> </text>
</a>
</g>
</g>
<!-- Node2&#45;&gt;Node1 -->
<g id="edge1" class="edge">
<title>Node2&#45;&gt;Node1</title>
<path fill="none" stroke="#404040" d="M64.3,-270.73C66.02,-239.34 68.77,-190.96 71.5,-149 72.24,-137.62 73.08,-125.49 73.91,-113.81"/>
<polygon fill="none" stroke="#404040" points="73.91,-113.81 70.35,-107.53 74.77,-101.84 78.33,-108.11 73.91,-113.81"/>
<text text-anchor="middle" x="85.5" y="-181" font-family="Helvetica,sans-Serif" font-size="10.00"> +vout</text>
</g>
<!-- Node3 -->
<g id="node3" class="node">
<title>Node3</title>
<g id="a_node3"><a xlink:href="structaltintegration_1_1btc_1_1TxOut.html" target="_top" xlink:title="An output of a transaction.">
<polygon fill="white" stroke="black" points="261,-392.5 261,-471.5 416,-471.5 416,-392.5 261,-392.5"/>
<text text-anchor="start" x="269" y="-459.5" font-family="Helvetica,sans-Serif" font-size="10.00">altintegration::btc</text>
<text text-anchor="middle" x="338.5" y="-448.5" font-family="Helvetica,sans-Serif" font-size="10.00">::TxOut</text>
<polyline fill="none" stroke="black" points="261,-441.5 416,-441.5 "/>
<text text-anchor="start" x="269" y="-429.5" font-family="Helvetica,sans-Serif" font-size="10.00">+ nValue</text>
<text text-anchor="start" x="269" y="-418.5" font-family="Helvetica,sans-Serif" font-size="10.00">+ ADD_SERIALIZE_METHODS</text>
<polyline fill="none" stroke="black" points="261,-411.5 416,-411.5 "/>
<text text-anchor="start" x="269" y="-399.5" font-family="Helvetica,sans-Serif" font-size="10.00">+ SerializationOp()</text>
</a>
</g>
</g>
<!-- Node3&#45;&gt;Node2 -->
<g id="edge2" class="edge">
<title>Node3&#45;&gt;Node2</title>
<path fill="none" stroke="#404040" d="M260.88,-395.85C221.85,-378.17 174.78,-356.85 136.29,-339.42"/>
<polygon fill="none" stroke="#404040" points="136.09,-339.33 128.98,-340.5 125.16,-334.38 132.28,-333.21 136.09,-339.33"/>
<text text-anchor="middle" x="234" y="-366" font-family="Helvetica,sans-Serif" font-size="10.00"> +elements</text>
</g>
<!-- Node4 -->
<g id="node4" class="node">
<title>Node4</title>
<g id="a_node4"><a xlink:title=" ">
<polygon fill="white" stroke="#bfbfbf" points="350,-613 350,-670 457,-670 457,-613 350,-613"/>
<text text-anchor="middle" x="403.5" y="-658" font-family="Helvetica,sans-Serif" font-size="10.00">std::vector&lt; uint8_t &gt;</text>
<polyline fill="none" stroke="#bfbfbf" points="350,-651 457,-651 "/>
<text text-anchor="start" x="358" y="-639" font-family="Helvetica,sans-Serif" font-size="10.00">+ elements</text>
<polyline fill="none" stroke="#bfbfbf" points="350,-632 457,-632 "/>
<text text-anchor="middle" x="403.5" y="-620" font-family="Helvetica,sans-Serif" font-size="10.00"> </text>
</a>
</g>
</g>
<!-- Node4&#45;&gt;Node3 -->
<g id="edge3" class="edge">
<title>Node4&#45;&gt;Node3</title>
<path fill="none" stroke="#404040" d="M394.87,-612.95C384.53,-579.93 367,-523.99 354.23,-483.22"/>
<polygon fill="none" stroke="#404040" points="354.19,-483.08 348.58,-478.55 350.6,-471.63 356.21,-476.16 354.19,-483.08"/>
<text text-anchor="middle" x="395" y="-498.5" font-family="Helvetica,sans-Serif" font-size="10.00"> +scriptPubKey</text>
</g>
<!-- Node8 -->
<g id="node8" class="node">
<title>Node8</title>
<g id="a_node8"><a xlink:href="structaltintegration_1_1btc_1_1TxIn.html" target="_top" xlink:title="An input of a transaction.">
<polygon fill="white" stroke="black" points="414,-265.5 414,-344.5 569,-344.5 569,-265.5 414,-265.5"/>
<text text-anchor="start" x="422" y="-332.5" font-family="Helvetica,sans-Serif" font-size="10.00">altintegration::btc</text>
<text text-anchor="middle" x="491.5" y="-321.5" font-family="Helvetica,sans-Serif" font-size="10.00">::TxIn</text>
<polyline fill="none" stroke="black" points="414,-314.5 569,-314.5 "/>
<text text-anchor="start" x="422" y="-302.5" font-family="Helvetica,sans-Serif" font-size="10.00">+ nSequence</text>
<text text-anchor="start" x="422" y="-291.5" font-family="Helvetica,sans-Serif" font-size="10.00">+ ADD_SERIALIZE_METHODS</text>
<polyline fill="none" stroke="black" points="414,-284.5 569,-284.5 "/>
<text text-anchor="start" x="422" y="-272.5" font-family="Helvetica,sans-Serif" font-size="10.00">+ SerializationOp()</text>
</a>
</g>
</g>
<!-- Node4&#45;&gt;Node8 -->
<g id="edge9" class="edge">
<title>Node4&#45;&gt;Node8</title>
<path fill="none" stroke="#404040" d="M409.83,-612.63C423.56,-552.28 455.34,-413.22 461.5,-392 464.9,-380.27 468.99,-367.79 473.03,-356.07"/>
<polygon fill="none" stroke="#404040" points="473.05,-356 471.27,-349.01 477.03,-344.68 478.81,-351.66 473.05,-356"/>
<text text-anchor="middle" x="485" y="-429.5" font-family="Helvetica,sans-Serif" font-size="10.00"> +scriptSig</text>
</g>
<!-- Node9 -->
<g id="node9" class="node">
<title>Node9</title>
<g id="a_node9"><a xlink:title=" ">
<polygon fill="white" stroke="#bfbfbf" points="518,-398 518,-466 633,-466 633,-398 518,-398"/>
<text text-anchor="start" x="526" y="-454" font-family="Helvetica,sans-Serif" font-size="10.00">std::vector&lt; std::vector</text>
<text text-anchor="middle" x="575.5" y="-443" font-family="Helvetica,sans-Serif" font-size="10.00">&lt; uint8_t &gt; &gt;</text>
<polyline fill="none" stroke="#bfbfbf" points="518,-436 633,-436 "/>
<text text-anchor="middle" x="575.5" y="-424" font-family="Helvetica,sans-Serif" font-size="10.00"> </text>
<polyline fill="none" stroke="#bfbfbf" points="518,-417 633,-417 "/>
<text text-anchor="middle" x="575.5" y="-405" font-family="Helvetica,sans-Serif" font-size="10.00"> </text>
</a>
</g>
</g>
<!-- Node4&#45;&gt;Node9 -->
<g id="edge11" class="edge">
<title>Node4&#45;&gt;Node9</title>
<path fill="none" stroke="#404040" d="M415.83,-612.96C431.08,-580.92 459.4,-527.62 494.5,-490 499.73,-484.39 505.61,-479 511.73,-473.93"/>
<polygon fill="none" stroke="#404040" points="512.08,-473.66 514.33,-466.8 521.51,-466.24 519.27,-473.09 512.08,-473.66"/>
<text text-anchor="middle" x="519" y="-498.5" font-family="Helvetica,sans-Serif" font-size="10.00"> +elements</text>
</g>
<!-- Node5 -->
<g id="node5" class="node">
<title>Node5</title>
<g id="a_node5"><a xlink:title=" ">
<polygon fill="white" stroke="#bfbfbf" points="234.5,-877.5 234.5,-934.5 318.5,-934.5 318.5,-877.5 234.5,-877.5"/>
<text text-anchor="middle" x="276.5" y="-922.5" font-family="Helvetica,sans-Serif" font-size="10.00">std::vector&lt; T &gt;</text>
<polyline fill="none" stroke="#bfbfbf" points="234.5,-915.5 318.5,-915.5 "/>
<text text-anchor="middle" x="276.5" y="-903.5" font-family="Helvetica,sans-Serif" font-size="10.00"> </text>
<polyline fill="none" stroke="#bfbfbf" points="234.5,-896.5 318.5,-896.5 "/>
<text text-anchor="middle" x="276.5" y="-884.5" font-family="Helvetica,sans-Serif" font-size="10.00"> </text>
</a>
</g>
</g>
<!-- Node5&#45;&gt;Node2 -->
<g id="edge6" class="edge">
<title>Node5&#45;&gt;Node2</title>
<path fill="none" stroke="orange" d="M228.74,-871.05C200.37,-848.66 165.71,-817.06 143.5,-782 71.16,-667.82 57.03,-625.16 58.5,-490 59.07,-437.28 60.57,-376.08 61.56,-339.24"/>
<polygon fill="orange" stroke="orange" points="226.89,-874.05 236.94,-877.41 231.18,-868.51 226.89,-874.05"/>
<text text-anchor="start" x="58.5" y="-504" font-family="Helvetica,sans-Serif" font-size="10.00"> &lt; altintegration::btc</text>
<text text-anchor="middle" x="101" y="-493" font-family="Helvetica,sans-Serif" font-size="10.00">::TxOut &gt;</text>
</g>
<!-- Node5&#45;&gt;Node4 -->
<g id="edge4" class="edge">
<title>Node5&#45;&gt;Node4</title>
<path fill="none" stroke="orange" d="M294.25,-868.32C319.99,-815.11 367.12,-717.7 390.14,-670.12"/>
<polygon fill="orange" stroke="orange" points="291.06,-866.88 289.85,-877.4 297.36,-869.93 291.06,-866.88"/>
<text text-anchor="middle" x="365" y="-774" font-family="Helvetica,sans-Serif" font-size="10.00"> &lt; uint8_t &gt;</text>
</g>
<!-- Node7 -->
<g id="node7" class="node">
<title>Node7</title>
<g id="a_node7"><a xlink:title=" ">
<polygon fill="white" stroke="#bfbfbf" points="109,-149.5 109,-217.5 234,-217.5 234,-149.5 109,-149.5"/>
<text text-anchor="start" x="117" y="-205.5" font-family="Helvetica,sans-Serif" font-size="10.00">std::vector&lt; altintegration</text>
<text text-anchor="middle" x="171.5" y="-194.5" font-family="Helvetica,sans-Serif" font-size="10.00">::btc::TxIn &gt;</text>
<polyline fill="none" stroke="#bfbfbf" points="109,-187.5 234,-187.5 "/>
<text text-anchor="middle" x="171.5" y="-175.5" font-family="Helvetica,sans-Serif" font-size="10.00"> </text>
<polyline fill="none" stroke="#bfbfbf" points="109,-168.5 234,-168.5 "/>
<text text-anchor="middle" x="171.5" y="-156.5" font-family="Helvetica,sans-Serif" font-size="10.00"> </text>
</a>
</g>
</g>
<!-- Node5&#45;&gt;Node7 -->
<g id="edge16" class="edge">
<title>Node5&#45;&gt;Node7</title>
<path fill="none" stroke="orange" d="M248.29,-869.08C213.1,-820.57 157.5,-730.06 157.5,-642.5 157.5,-642.5 157.5,-642.5 157.5,-304 157.5,-274.65 161.72,-241.52 165.52,-217.6"/>
<polygon fill="orange" stroke="orange" points="245.64,-871.39 254.4,-877.36 251.28,-867.23 245.64,-871.39"/>
<text text-anchor="start" x="157.5" y="-435" font-family="Helvetica,sans-Serif" font-size="10.00"> &lt; altintegration::btc</text>
<text text-anchor="middle" x="200" y="-424" font-family="Helvetica,sans-Serif" font-size="10.00">::TxIn &gt;</text>
</g>
<!-- Node5&#45;&gt;Node9 -->
<g id="edge12" class="edge">
<title>Node5&#45;&gt;Node9</title>
<path fill="none" stroke="orange" d="M327.28,-875.57C369.7,-848.62 428.93,-805.06 465.5,-753 530.16,-660.94 559.63,-527.55 570.38,-466.17"/>
<polygon fill="orange" stroke="orange" points="325.39,-872.63 318.77,-880.9 329.1,-878.56 325.39,-872.63"/>
<text text-anchor="start" x="557.5" y="-644.5" font-family="Helvetica,sans-Serif" font-size="10.00"> &lt; std::vector&lt; uint8</text>
<text text-anchor="middle" x="600" y="-633.5" font-family="Helvetica,sans-Serif" font-size="10.00">_t &gt; &gt;</text>
</g>
<!-- Node6 -->
<g id="node6" class="node">
<title>Node6</title>
<g id="a_node6"><a xlink:title=" ">
<polygon fill="white" stroke="#bfbfbf" points="262,-1059.5 262,-1116.5 291,-1116.5 291,-1059.5 262,-1059.5"/>
<text text-anchor="middle" x="276.5" y="-1104.5" font-family="Helvetica,sans-Serif" font-size="10.00">T</text>
<polyline fill="none" stroke="#bfbfbf" points="262,-1097.5 291,-1097.5 "/>
<text text-anchor="middle" x="276.5" y="-1085.5" font-family="Helvetica,sans-Serif" font-size="10.00"> </text>
<polyline fill="none" stroke="#bfbfbf" points="262,-1078.5 291,-1078.5 "/>
<text text-anchor="middle" x="276.5" y="-1066.5" font-family="Helvetica,sans-Serif" font-size="10.00"> </text>
</a>
</g>
</g>
<!-- Node6&#45;&gt;Node5 -->
<g id="edge5" class="edge">
<title>Node6&#45;&gt;Node5</title>
<path fill="none" stroke="#404040" d="M276.5,-1059.27C276.5,-1029.28 276.5,-981.18 276.5,-947.08"/>
<polygon fill="none" stroke="#404040" points="276.5,-946.76 272.5,-940.76 276.5,-934.76 280.5,-940.76 276.5,-946.76"/>
<text text-anchor="middle" x="301" y="-1033" font-family="Helvetica,sans-Serif" font-size="10.00"> +elements</text>
</g>
<!-- Node7&#45;&gt;Node1 -->
<g id="edge7" class="edge">
<title>Node7&#45;&gt;Node1</title>
<path fill="none" stroke="#404040" d="M147.79,-149.23C139.72,-137.91 130.44,-124.88 121.34,-112.12"/>
<polygon fill="none" stroke="#404040" points="121.08,-111.75 114.34,-109.18 114.11,-101.98 120.85,-104.54 121.08,-111.75"/>
<text text-anchor="middle" x="144.5" y="-123" font-family="Helvetica,sans-Serif" font-size="10.00"> +vin</text>
</g>
<!-- Node8&#45;&gt;Node7 -->
<g id="edge8" class="edge">
<title>Node8&#45;&gt;Node7</title>
<path fill="none" stroke="#404040" d="M413.63,-274.92C362.48,-255.82 295.97,-230.98 245.61,-212.17"/>
<polygon fill="none" stroke="#404040" points="245.39,-212.09 238.37,-213.74 234.14,-207.89 241.17,-206.25 245.39,-212.09"/>
<text text-anchor="middle" x="356" y="-239" font-family="Helvetica,sans-Serif" font-size="10.00"> +elements</text>
</g>
<!-- Node9&#45;&gt;Node8 -->
<g id="edge10" class="edge">
<title>Node9&#45;&gt;Node8</title>
<path fill="none" stroke="#404040" d="M553.21,-397.83C544.37,-384.68 534.03,-369.28 524.36,-354.9"/>
<polygon fill="none" stroke="#404040" points="524.16,-354.61 517.5,-351.86 517.47,-344.65 524.14,-347.4 524.16,-354.61"/>
<text text-anchor="middle" x="570.5" y="-366" font-family="Helvetica,sans-Serif" font-size="10.00"> +scriptWitness</text>
</g>
<!-- Node10 -->
<g id="node10" class="node">
<title>Node10</title>
<g id="a_node10"><a xlink:href="structaltintegration_1_1btc_1_1OutPoint.html" target="_top" xlink:title="An outpoint &#45; a combination of a transaction hash and an index n into its vout.">
<polygon fill="white" stroke="black" points="651,-392.5 651,-471.5 806,-471.5 806,-392.5 651,-392.5"/>
<text text-anchor="start" x="659" y="-459.5" font-family="Helvetica,sans-Serif" font-size="10.00">altintegration::btc</text>
<text text-anchor="middle" x="728.5" y="-448.5" font-family="Helvetica,sans-Serif" font-size="10.00">::OutPoint</text>
<polyline fill="none" stroke="black" points="651,-441.5 806,-441.5 "/>
<text text-anchor="start" x="659" y="-429.5" font-family="Helvetica,sans-Serif" font-size="10.00">+ n</text>
<text text-anchor="start" x="659" y="-418.5" font-family="Helvetica,sans-Serif" font-size="10.00">+ ADD_SERIALIZE_METHODS</text>
<polyline fill="none" stroke="black" points="651,-411.5 806,-411.5 "/>
<text text-anchor="start" x="659" y="-399.5" font-family="Helvetica,sans-Serif" font-size="10.00">+ SerializationOp()</text>
</a>
</g>
</g>
<!-- Node10&#45;&gt;Node8 -->
<g id="edge13" class="edge">
<title>Node10&#45;&gt;Node8</title>
<path fill="none" stroke="#404040" d="M662.26,-392.49C644.89,-382.66 626.09,-372.26 608.5,-363 599.35,-358.18 589.73,-353.27 580.1,-348.44"/>
<polygon fill="none" stroke="#404040" points="579.99,-348.39 572.84,-349.29 569.25,-343.04 576.41,-342.13 579.99,-348.39"/>
<text text-anchor="middle" x="649" y="-366" font-family="Helvetica,sans-Serif" font-size="10.00"> +prevout</text>
</g>
<!-- Node11 -->
<g id="node11" class="node">
<title>Node11</title>
<g id="a_node11"><a xlink:href="structaltintegration_1_1Blob.html" target="_top" xlink:title=" ">
<polygon fill="white" stroke="black" points="663,-530.5 663,-752.5 794,-752.5 794,-530.5 663,-530.5"/>
<text text-anchor="start" x="671" y="-740.5" font-family="Helvetica,sans-Serif" font-size="10.00">altintegration::Blob</text>
<text text-anchor="middle" x="728.5" y="-729.5" font-family="Helvetica,sans-Serif" font-size="10.00">&lt; SHA256_HASH_SIZE &gt;</text>
<polyline fill="none" stroke="black" points="663,-722.5 794,-722.5 "/>
<text text-anchor="start" x="671" y="-710.5" font-family="Helvetica,sans-Serif" font-size="10.00">+ data_</text>
<text text-anchor="start" x="671" y="-699.5" font-family="Helvetica,sans-Serif" font-size="10.00">+ this</text>
<polyline fill="none" stroke="black" points="663,-692.5 794,-692.5 "/>
<text text-anchor="start" x="671" y="-680.5" font-family="Helvetica,sans-Serif" font-size="10.00">+ Blob()</text>
<text text-anchor="start" x="671" y="-669.5" font-family="Helvetica,sans-Serif" font-size="10.00">+ Blob()</text>
<text text-anchor="start" x="671" y="-658.5" font-family="Helvetica,sans-Serif" font-size="10.00">+ Blob()</text>
<text text-anchor="start" x="671" y="-647.5" font-family="Helvetica,sans-Serif" font-size="10.00">+ Blob()</text>
<text text-anchor="start" x="671" y="-636.5" font-family="Helvetica,sans-Serif" font-size="10.00">+ Blob()</text>
<text text-anchor="start" x="671" y="-625.5" font-family="Helvetica,sans-Serif" font-size="10.00">+ operator=()</text>
<text text-anchor="start" x="671" y="-614.5" font-family="Helvetica,sans-Serif" font-size="10.00">+ operator=()</text>
<text text-anchor="start" x="671" y="-603.5" font-family="Helvetica,sans-Serif" font-size="10.00">+ reverse()</text>
<text text-anchor="start" x="671" y="-592.5" font-family="Helvetica,sans-Serif" font-size="10.00">+ operator~()</text>
<text text-anchor="start" x="671" y="-581.5" font-family="Helvetica,sans-Serif" font-size="10.00">+ asVector()</text>
<text text-anchor="start" x="671" y="-570.5" font-family="Helvetica,sans-Serif" font-size="10.00">+ asString()</text>
<text text-anchor="start" x="671" y="-559.5" font-family="Helvetica,sans-Serif" font-size="10.00">+ operator[]()</text>
<text text-anchor="start" x="671" y="-548.5" font-family="Helvetica,sans-Serif" font-size="10.00">+ operator[]()</text>
<text text-anchor="start" x="671" y="-537.5" font-family="Helvetica,sans-Serif" font-size="10.00">+ compareTo()</text>
</a>
</g>
</g>
<!-- Node11&#45;&gt;Node10 -->
<g id="edge14" class="edge">
<title>Node11&#45;&gt;Node10</title>
<path fill="none" stroke="#404040" d="M728.5,-530.37C728.5,-514.02 728.5,-497.87 728.5,-483.58"/>
<polygon fill="none" stroke="#404040" points="728.5,-483.53 724.5,-477.53 728.5,-471.53 732.5,-477.53 728.5,-483.53"/>
<text text-anchor="middle" x="743.5" y="-498.5" font-family="Helvetica,sans-Serif" font-size="10.00"> +hash</text>
</g>
<!-- Node12 -->
<g id="node12" class="node">
<title>Node12</title>
<g id="a_node12"><a xlink:href="structaltintegration_1_1Blob.html" target="_top" xlink:title="Contiguous byte array of fixed size.">
<polygon fill="white" stroke="black" points="668.5,-800.5 668.5,-1011.5 788.5,-1011.5 788.5,-800.5 668.5,-800.5"/>
<text text-anchor="middle" x="728.5" y="-999.5" font-family="Helvetica,sans-Serif" font-size="10.00">altintegration::Blob&lt; N &gt;</text>
<polyline fill="none" stroke="black" points="668.5,-992.5 788.5,-992.5 "/>
<text text-anchor="start" x="676.5" y="-980.5" font-family="Helvetica,sans-Serif" font-size="10.00">+ data_</text>
<text text-anchor="start" x="676.5" y="-969.5" font-family="Helvetica,sans-Serif" font-size="10.00">+ this</text>
<polyline fill="none" stroke="black" points="668.5,-962.5 788.5,-962.5 "/>
<text text-anchor="start" x="676.5" y="-950.5" font-family="Helvetica,sans-Serif" font-size="10.00">+ Blob()</text>
<text text-anchor="start" x="676.5" y="-939.5" font-family="Helvetica,sans-Serif" font-size="10.00">+ Blob()</text>
<text text-anchor="start" x="676.5" y="-928.5" font-family="Helvetica,sans-Serif" font-size="10.00">+ Blob()</text>
<text text-anchor="start" x="676.5" y="-917.5" font-family="Helvetica,sans-Serif" font-size="10.00">+ Blob()</text>
<text text-anchor="start" x="676.5" y="-906.5" font-family="Helvetica,sans-Serif" font-size="10.00">+ Blob()</text>
<text text-anchor="start" x="676.5" y="-895.5" font-family="Helvetica,sans-Serif" font-size="10.00">+ operator=()</text>
<text text-anchor="start" x="676.5" y="-884.5" font-family="Helvetica,sans-Serif" font-size="10.00">+ operator=()</text>
<text text-anchor="start" x="676.5" y="-873.5" font-family="Helvetica,sans-Serif" font-size="10.00">+ reverse()</text>
<text text-anchor="start" x="676.5" y="-862.5" font-family="Helvetica,sans-Serif" font-size="10.00">+ operator~()</text>
<text text-anchor="start" x="676.5" y="-851.5" font-family="Helvetica,sans-Serif" font-size="10.00">+ asVector()</text>
<text text-anchor="start" x="676.5" y="-840.5" font-family="Helvetica,sans-Serif" font-size="10.00">+ asString()</text>
<text text-anchor="start" x="676.5" y="-829.5" font-family="Helvetica,sans-Serif" font-size="10.00">+ operator[]()</text>
<text text-anchor="start" x="676.5" y="-818.5" font-family="Helvetica,sans-Serif" font-size="10.00">+ operator[]()</text>
<text text-anchor="start" x="676.5" y="-807.5" font-family="Helvetica,sans-Serif" font-size="10.00">+ compareTo()</text>
</a>
</g>
</g>
<!-- Node12&#45;&gt;Node11 -->
<g id="edge15" class="edge">
<title>Node12&#45;&gt;Node11</title>
<path fill="none" stroke="orange" d="M728.5,-790.48C728.5,-777.93 728.5,-765.17 728.5,-752.67"/>
<polygon fill="orange" stroke="orange" points="725,-790.5 728.5,-800.5 732,-790.5 725,-790.5"/>
<text text-anchor="middle" x="787" y="-774" font-family="Helvetica,sans-Serif" font-size="10.00"> &lt; SHA256_HASH_SIZE &gt;</text>
</g>
</g>
</svg>
        <g id="navigator" transform="translate(0 0)" fill="#404254">
                <rect fill="#f2f5e9" fill-opacity="0.5" stroke="#606060" stroke-width=".5" x="0" y="0" width="60" height="60"/>
                <use id="zoomplus" xlink:href="#zoomPlus" x="17" y="9" onmousedown="handleZoom(evt,'in')"/>
                <use id="zoomminus" xlink:href="#zoomMin" x="42" y="9" onmousedown="handleZoom(evt,'out')"/>
                <use id="reset" xlink:href="#resetDef" x="30" y="36" onmousedown="handleReset()"/>
                <g id="arrowUp" xlink:href="#dirArrow" transform="translate(30 24)" onmousedown="handlePan(0,-1)">
                  <use xlink:href="#rim" fill="#404040">
                        <set attributeName="fill" to="#808080" begin="arrowUp.mouseover" end="arrowUp.mouseout"/>
                  </use>
                  <path fill="none" stroke="white" stroke-width="1.5" d="M0,-3.0v7 M-2.5,-0.5L0,-3.0L2.5,-0.5"/>
                </g>
                <g id="arrowRight" xlink:href="#dirArrow" transform="rotate(90) translate(36 -43)" onmousedown="handlePan(1,0)">
                  <use xlink:href="#rim" fill="#404040">
                        <set attributeName="fill" to="#808080" begin="arrowRight.mouseover" end="arrowRight.mouseout"/>
                  </use>
                  <path fill="none" stroke="white" stroke-width="1.5" d="M0,-3.0v7 M-2.5,-0.5L0,-3.0L2.5,-0.5"/>
                </g>
                <g id="arrowDown" xlink:href="#dirArrow" transform="rotate(180) translate(-30 -48)" onmousedown="handlePan(0,1)">
                  <use xlink:href="#rim" fill="#404040">
                        <set attributeName="fill" to="#808080" begin="arrowDown.mouseover" end="arrowDown.mouseout"/>
                  </use>
                  <path fill="none" stroke="white" stroke-width="1.5" d="M0,-3.0v7 M-2.5,-0.5L0,-3.0L2.5,-0.5"/>
                </g>
                <g id="arrowLeft" xlink:href="#dirArrow" transform="rotate(270) translate(-36 17)" onmousedown="handlePan(-1,0)">
                  <use xlink:href="#rim" fill="#404040">
                        <set attributeName="fill" to="#808080" begin="arrowLeft.mouseover" end="arrowLeft.mouseout"/>
                  </use>
                  <path fill="none" stroke="white" stroke-width="1.5" d="M0,-3.0v7 M-2.5,-0.5L0,-3.0L2.5,-0.5"/>
                </g>
        </g>
        <svg viewBox="0 0 15 15" width="100%" height="30px" preserveAspectRatio="xMaxYMin meet">
         <g id="arrow_out" transform="scale(0.3 0.3)">
          <a xlink:href="structaltintegration_1_1btc_1_1Transaction__coll__graph_org.svg" target="_base">
           <rect id="button" ry="5" rx="5" y="6" x="6" height="38" width="38"
                fill="#f2f5e9" fill-opacity="0.5" stroke="#606060" stroke-width="1.0"/>
           <path id="arrow"
             d="M 11.500037,31.436501 C 11.940474,20.09759 22.043105,11.32322 32.158766,21.979434 L 37.068811,17.246167 C 37.068811,17.246167 37.088388,32 37.088388,32 L 22.160133,31.978069 C 22.160133,31.978069 26.997745,27.140456 26.997745,27.140456 C 18.528582,18.264221 13.291696,25.230495 11.500037,31.436501 z"
             style="fill:#404040;"/>
          </a>
         </g>
        </svg>
</svg>
