<?xml version="1.0" encoding="UTF-8" standalone="no"?>
<!DOCTYPE svg PUBLIC "-//W3C//DTD SVG 1.1//EN"
 "http://www.w3.org/Graphics/SVG/1.1/DTD/svg11.dtd">
<!-- Generated by graphviz version 2.44.0 ()
 -->
<!-- Title: altintegration::btc::PrefilledTransaction Pages: 1 -->
<svg width="854pt" height="1252pt"
 viewBox="0.00 0.00 853.50 1252.00" xmlns="http://www.w3.org/2000/svg" xmlns:xlink="http://www.w3.org/1999/xlink">
<g id="graph0" class="graph" transform="scale(1 1) rotate(0) translate(4 1248)">
<title>altintegration::btc::PrefilledTransaction</title>
<polygon fill="white" stroke="transparent" points="-4,4 -4,-1248 849.5,-1248 849.5,4 -4,4"/>
<!-- Node1 -->
<g id="node1" class="node">
<title>Node1</title>
<g id="a_node1"><a xlink:title=" ">
<polygon fill="#bfbfbf" stroke="black" points="1,-0.5 1,-79.5 156,-79.5 156,-0.5 1,-0.5"/>
<text text-anchor="start" x="9" y="-67.5" font-family="Helvetica,sans-Serif" font-size="10.00">altintegration::btc</text>
<text text-anchor="middle" x="78.5" y="-56.5" font-family="Helvetica,sans-Serif" font-size="10.00">::PrefilledTransaction</text>
<polyline fill="none" stroke="black" points="1,-49.5 156,-49.5 "/>
<text text-anchor="start" x="9" y="-37.5" font-family="Helvetica,sans-Serif" font-size="10.00">+ index</text>
<text text-anchor="start" x="9" y="-26.5" font-family="Helvetica,sans-Serif" font-size="10.00">+ ADD_SERIALIZE_METHODS</text>
<polyline fill="none" stroke="black" points="1,-19.5 156,-19.5 "/>
<text text-anchor="start" x="9" y="-7.5" font-family="Helvetica,sans-Serif" font-size="10.00">+ SerializationOp()</text>
</a>
</g>
</g>
<!-- Node2 -->
<g id="node2" class="node">
<title>Node2</title>
<g id="a_node2"><a xlink:href="structaltintegration_1_1btc_1_1Transaction.html" target="_top" xlink:title="The basic transaction that is broadcasted on the network and contained in blocks.">
<polygon fill="white" stroke="black" points="33.5,-127.5 33.5,-228.5 123.5,-228.5 123.5,-127.5 33.5,-127.5"/>
<text text-anchor="start" x="41.5" y="-216.5" font-family="Helvetica,sans-Serif" font-size="10.00">altintegration::btc</text>
<text text-anchor="middle" x="78.5" y="-205.5" font-family="Helvetica,sans-Serif" font-size="10.00">::Transaction</text>
<polyline fill="none" stroke="black" points="33.5,-198.5 123.5,-198.5 "/>
<text text-anchor="start" x="41.5" y="-186.5" font-family="Helvetica,sans-Serif" font-size="10.00">+ nVersion</text>
<text text-anchor="start" x="41.5" y="-175.5" font-family="Helvetica,sans-Serif" font-size="10.00">+ nLockTime</text>
<polyline fill="none" stroke="black" points="33.5,-168.5 123.5,-168.5 "/>
<text text-anchor="start" x="41.5" y="-156.5" font-family="Helvetica,sans-Serif" font-size="10.00">+ Serialize()</text>
<text text-anchor="start" x="41.5" y="-145.5" font-family="Helvetica,sans-Serif" font-size="10.00">+ Unserialize()</text>
<text text-anchor="start" x="41.5" y="-134.5" font-family="Helvetica,sans-Serif" font-size="10.00">+ HasWitness()</text>
</a>
</g>
</g>
<!-- Node2&#45;&gt;Node1 -->
<g id="edge1" class="edge">
<title>Node2&#45;&gt;Node1</title>
<path fill="none" stroke="#404040" d="M78.5,-127.13C78.5,-115.66 78.5,-103.45 78.5,-91.94"/>
<polygon fill="none" stroke="#404040" points="78.5,-91.79 74.5,-85.79 78.5,-79.79 82.5,-85.79 78.5,-91.79"/>
<text text-anchor="middle" x="86.5" y="-101" font-family="Helvetica,sans-Serif" font-size="10.00"> +tx</text>
</g>
<!-- Node3 -->
<g id="node3" class="node">
<title>Node3</title>
<g id="a_node3"><a xlink:title=" ">
<polygon fill="white" stroke="#bfbfbf" points="0,-398 0,-466 125,-466 125,-398 0,-398"/>
<text text-anchor="start" x="8" y="-454" font-family="Helvetica,sans-Serif" font-size="10.00">std::vector&lt; altintegration</text>
<text text-anchor="middle" x="62.5" y="-443" font-family="Helvetica,sans-Serif" font-size="10.00">::btc::TxOut &gt;</text>
<polyline fill="none" stroke="#bfbfbf" points="0,-436 125,-436 "/>
<text text-anchor="middle" x="62.5" y="-424" font-family="Helvetica,sans-Serif" font-size="10.00"> </text>
<polyline fill="none" stroke="#bfbfbf" points="0,-417 125,-417 "/>
<text text-anchor="middle" x="62.5" y="-405" font-family="Helvetica,sans-Serif" font-size="10.00"> </text>
</a>
</g>
</g>
<!-- Node3&#45;&gt;Node2 -->
<g id="edge2" class="edge">
<title>Node3&#45;&gt;Node2</title>
<path fill="none" stroke="#404040" d="M64.3,-397.73C66.02,-366.34 68.77,-317.96 71.5,-276 72.24,-264.62 73.08,-252.49 73.91,-240.81"/>
<polygon fill="none" stroke="#404040" points="73.91,-240.81 70.35,-234.53 74.77,-228.84 78.33,-235.11 73.91,-240.81"/>
<text text-anchor="middle" x="85.5" y="-308" font-family="Helvetica,sans-Serif" font-size="10.00"> +vout</text>
</g>
<!-- Node4 -->
<g id="node4" class="node">
<title>Node4</title>
<g id="a_node4"><a xlink:href="structaltintegration_1_1btc_1_1TxOut.html" target="_top" xlink:title="An output of a transaction.">
<polygon fill="white" stroke="black" points="261,-519.5 261,-598.5 416,-598.5 416,-519.5 261,-519.5"/>
<text text-anchor="start" x="269" y="-586.5" font-family="Helvetica,sans-Serif" font-size="10.00">altintegration::btc</text>
<text text-anchor="middle" x="338.5" y="-575.5" font-family="Helvetica,sans-Serif" font-size="10.00">::TxOut</text>
<polyline fill="none" stroke="black" points="261,-568.5 416,-568.5 "/>
<text text-anchor="start" x="269" y="-556.5" font-family="Helvetica,sans-Serif" font-size="10.00">+ nValue</text>
<text text-anchor="start" x="269" y="-545.5" font-family="Helvetica,sans-Serif" font-size="10.00">+ ADD_SERIALIZE_METHODS</text>
<polyline fill="none" stroke="black" points="261,-538.5 416,-538.5 "/>
<text text-anchor="start" x="269" y="-526.5" font-family="Helvetica,sans-Serif" font-size="10.00">+ SerializationOp()</text>
</a>
</g>
</g>
<!-- Node4&#45;&gt;Node3 -->
<g id="edge3" class="edge">
<title>Node4&#45;&gt;Node3</title>
<path fill="none" stroke="#404040" d="M260.88,-522.85C221.85,-505.17 174.78,-483.85 136.29,-466.42"/>
<polygon fill="none" stroke="#404040" points="136.09,-466.33 128.98,-467.5 125.16,-461.38 132.28,-460.21 136.09,-466.33"/>
<text text-anchor="middle" x="234" y="-493" font-family="Helvetica,sans-Serif" font-size="10.00"> +elements</text>
</g>
<!-- Node5 -->
<g id="node5" class="node">
<title>Node5</title>
<g id="a_node5"><a xlink:title=" ">
<polygon fill="white" stroke="#bfbfbf" points="350,-740 350,-797 457,-797 457,-740 350,-740"/>
<text text-anchor="middle" x="403.5" y="-785" font-family="Helvetica,sans-Serif" font-size="10.00">std::vector&lt; uint8_t &gt;</text>
<polyline fill="none" stroke="#bfbfbf" points="350,-778 457,-778 "/>
<text text-anchor="start" x="358" y="-766" font-family="Helvetica,sans-Serif" font-size="10.00">+ elements</text>
<polyline fill="none" stroke="#bfbfbf" points="350,-759 457,-759 "/>
<text text-anchor="middle" x="403.5" y="-747" font-family="Helvetica,sans-Serif" font-size="10.00"> </text>
</a>
</g>
</g>
<!-- Node5&#45;&gt;Node4 -->
<g id="edge4" class="edge">
<title>Node5&#45;&gt;Node4</title>
<path fill="none" stroke="#404040" d="M394.87,-739.95C384.53,-706.93 367,-650.99 354.23,-610.22"/>
<polygon fill="none" stroke="#404040" points="354.19,-610.08 348.58,-605.55 350.6,-598.63 356.21,-603.16 354.19,-610.08"/>
<text text-anchor="middle" x="395" y="-625.5" font-family="Helvetica,sans-Serif" font-size="10.00"> +scriptPubKey</text>
</g>
<!-- Node9 -->
<g id="node9" class="node">
<title>Node9</title>
<g id="a_node9"><a xlink:href="structaltintegration_1_1btc_1_1TxIn.html" target="_top" xlink:title="An input of a transaction.">
<polygon fill="white" stroke="black" points="414,-392.5 414,-471.5 569,-471.5 569,-392.5 414,-392.5"/>
<text text-anchor="start" x="422" y="-459.5" font-family="Helvetica,sans-Serif" font-size="10.00">altintegration::btc</text>
<text text-anchor="middle" x="491.5" y="-448.5" font-family="Helvetica,sans-Serif" font-size="10.00">::TxIn</text>
<polyline fill="none" stroke="black" points="414,-441.5 569,-441.5 "/>
<text text-anchor="start" x="422" y="-429.5" font-family="Helvetica,sans-Serif" font-size="10.00">+ nSequence</text>
<text text-anchor="start" x="422" y="-418.5" font-family="Helvetica,sans-Serif" font-size="10.00">+ ADD_SERIALIZE_METHODS</text>
<polyline fill="none" stroke="black" points="414,-411.5 569,-411.5 "/>
<text text-anchor="start" x="422" y="-399.5" font-family="Helvetica,sans-Serif" font-size="10.00">+ SerializationOp()</text>
</a>
</g>
</g>
<!-- Node5&#45;&gt;Node9 -->
<g id="edge10" class="edge">
<title>Node5&#45;&gt;Node9</title>
<path fill="none" stroke="#404040" d="M409.83,-739.63C423.56,-679.28 455.34,-540.22 461.5,-519 464.9,-507.27 468.99,-494.79 473.03,-483.07"/>
<polygon fill="none" stroke="#404040" points="473.05,-483 471.27,-476.01 477.03,-471.68 478.81,-478.66 473.05,-483"/>
<text text-anchor="middle" x="485" y="-556.5" font-family="Helvetica,sans-Serif" font-size="10.00"> +scriptSig</text>
</g>
<!-- Node10 -->
<g id="node10" class="node">
<title>Node10</title>
<g id="a_node10"><a xlink:title=" ">
<polygon fill="white" stroke="#bfbfbf" points="518,-525 518,-593 633,-593 633,-525 518,-525"/>
<text text-anchor="start" x="526" y="-581" font-family="Helvetica,sans-Serif" font-size="10.00">std::vector&lt; std::vector</text>
<text text-anchor="middle" x="575.5" y="-570" font-family="Helvetica,sans-Serif" font-size="10.00">&lt; uint8_t &gt; &gt;</text>
<polyline fill="none" stroke="#bfbfbf" points="518,-563 633,-563 "/>
<text text-anchor="middle" x="575.5" y="-551" font-family="Helvetica,sans-Serif" font-size="10.00"> </text>
<polyline fill="none" stroke="#bfbfbf" points="518,-544 633,-544 "/>
<text text-anchor="middle" x="575.5" y="-532" font-family="Helvetica,sans-Serif" font-size="10.00"> </text>
</a>
</g>
</g>
<!-- Node5&#45;&gt;Node10 -->
<g id="edge12" class="edge">
<title>Node5&#45;&gt;Node10</title>
<path fill="none" stroke="#404040" d="M415.83,-739.96C431.08,-707.92 459.4,-654.62 494.5,-617 499.73,-611.39 505.61,-606 511.73,-600.93"/>
<polygon fill="none" stroke="#404040" points="512.08,-600.66 514.33,-593.8 521.51,-593.24 519.27,-600.09 512.08,-600.66"/>
<text text-anchor="middle" x="519" y="-625.5" font-family="Helvetica,sans-Serif" font-size="10.00"> +elements</text>
</g>
<!-- Node6 -->
<g id="node6" class="node">
<title>Node6</title>
<g id="a_node6"><a xlink:title=" ">
<polygon fill="white" stroke="#bfbfbf" points="234.5,-1004.5 234.5,-1061.5 318.5,-1061.5 318.5,-1004.5 234.5,-1004.5"/>
<text text-anchor="middle" x="276.5" y="-1049.5" font-family="Helvetica,sans-Serif" font-size="10.00">std::vector&lt; T &gt;</text>
<polyline fill="none" stroke="#bfbfbf" points="234.5,-1042.5 318.5,-1042.5 "/>
<text text-anchor="middle" x="276.5" y="-1030.5" font-family="Helvetica,sans-Serif" font-size="10.00"> </text>
<polyline fill="none" stroke="#bfbfbf" points="234.5,-1023.5 318.5,-1023.5 "/>
<text text-anchor="middle" x="276.5" y="-1011.5" font-family="Helvetica,sans-Serif" font-size="10.00"> </text>
</a>
</g>
</g>
<!-- Node6&#45;&gt;Node3 -->
<g id="edge7" class="edge">
<title>Node6&#45;&gt;Node3</title>
<path fill="none" stroke="orange" d="M228.74,-998.05C200.37,-975.66 165.71,-944.06 143.5,-909 71.16,-794.82 57.03,-752.16 58.5,-617 59.07,-564.28 60.57,-503.08 61.56,-466.24"/>
<polygon fill="orange" stroke="orange" points="226.89,-1001.05 236.94,-1004.41 231.18,-995.51 226.89,-1001.05"/>
<text text-anchor="start" x="58.5" y="-631" font-family="Helvetica,sans-Serif" font-size="10.00"> &lt; altintegration::btc</text>
<text text-anchor="middle" x="101" y="-620" font-family="Helvetica,sans-Serif" font-size="10.00">::TxOut &gt;</text>
</g>
<!-- Node6&#45;&gt;Node5 -->
<g id="edge5" class="edge">
<title>Node6&#45;&gt;Node5</title>
<path fill="none" stroke="orange" d="M294.25,-995.32C319.99,-942.11 367.12,-844.7 390.14,-797.12"/>
<polygon fill="orange" stroke="orange" points="291.06,-993.88 289.85,-1004.4 297.36,-996.93 291.06,-993.88"/>
<text text-anchor="middle" x="365" y="-901" font-family="Helvetica,sans-Serif" font-size="10.00"> &lt; uint8_t &gt;</text>
</g>
<!-- Node8 -->
<g id="node8" class="node">
<title>Node8</title>
<g id="a_node8"><a xlink:title=" ">
<polygon fill="white" stroke="#bfbfbf" points="109,-276.5 109,-344.5 234,-344.5 234,-276.5 109,-276.5"/>
<text text-anchor="start" x="117" y="-332.5" font-family="Helvetica,sans-Serif" font-size="10.00">std::vector&lt; altintegration</text>
<text text-anchor="middle" x="171.5" y="-321.5" font-family="Helvetica,sans-Serif" font-size="10.00">::btc::TxIn &gt;</text>
<polyline fill="none" stroke="#bfbfbf" points="109,-314.5 234,-314.5 "/>
<text text-anchor="middle" x="171.5" y="-302.5" font-family="Helvetica,sans-Serif" font-size="10.00"> </text>
<polyline fill="none" stroke="#bfbfbf" points="109,-295.5 234,-295.5 "/>
<text text-anchor="middle" x="171.5" y="-283.5" font-family="Helvetica,sans-Serif" font-size="10.00"> </text>
</a>
</g>
</g>
<!-- Node6&#45;&gt;Node8 -->
<g id="edge17" class="edge">
<title>Node6&#45;&gt;Node8</title>
<path fill="none" stroke="orange" d="M248.29,-996.08C213.1,-947.57 157.5,-857.06 157.5,-769.5 157.5,-769.5 157.5,-769.5 157.5,-431 157.5,-401.65 161.72,-368.52 165.52,-344.6"/>
<polygon fill="orange" stroke="orange" points="245.64,-998.39 254.4,-1004.36 251.28,-994.23 245.64,-998.39"/>
<text text-anchor="start" x="157.5" y="-562" font-family="Helvetica,sans-Serif" font-size="10.00"> &lt; altintegration::btc</text>
<text text-anchor="middle" x="200" y="-551" font-family="Helvetica,sans-Serif" font-size="10.00">::TxIn &gt;</text>
</g>
<!-- Node6&#45;&gt;Node10 -->
<g id="edge13" class="edge">
<title>Node6&#45;&gt;Node10</title>
<path fill="none" stroke="orange" d="M327.28,-1002.57C369.7,-975.62 428.93,-932.06 465.5,-880 530.16,-787.94 559.63,-654.55 570.38,-593.17"/>
<polygon fill="orange" stroke="orange" points="325.39,-999.63 318.77,-1007.9 329.1,-1005.56 325.39,-999.63"/>
<text text-anchor="start" x="557.5" y="-771.5" font-family="Helvetica,sans-Serif" font-size="10.00"> &lt; std::vector&lt; uint8</text>
<text text-anchor="middle" x="600" y="-760.5" font-family="Helvetica,sans-Serif" font-size="10.00">_t &gt; &gt;</text>
</g>
<!-- Node7 -->
<g id="node7" class="node">
<title>Node7</title>
<g id="a_node7"><a xlink:title=" ">
<polygon fill="white" stroke="#bfbfbf" points="262,-1186.5 262,-1243.5 291,-1243.5 291,-1186.5 262,-1186.5"/>
<text text-anchor="middle" x="276.5" y="-1231.5" font-family="Helvetica,sans-Serif" font-size="10.00">T</text>
<polyline fill="none" stroke="#bfbfbf" points="262,-1224.5 291,-1224.5 "/>
<text text-anchor="middle" x="276.5" y="-1212.5" font-family="Helvetica,sans-Serif" font-size="10.00"> </text>
<polyline fill="none" stroke="#bfbfbf" points="262,-1205.5 291,-1205.5 "/>
<text text-anchor="middle" x="276.5" y="-1193.5" font-family="Helvetica,sans-Serif" font-size="10.00"> </text>
</a>
</g>
</g>
<!-- Node7&#45;&gt;Node6 -->
<g id="edge6" class="edge">
<title>Node7&#45;&gt;Node6</title>
<path fill="none" stroke="#404040" d="M276.5,-1186.27C276.5,-1156.28 276.5,-1108.18 276.5,-1074.08"/>
<polygon fill="none" stroke="#404040" points="276.5,-1073.76 272.5,-1067.76 276.5,-1061.76 280.5,-1067.76 276.5,-1073.76"/>
<text text-anchor="middle" x="301" y="-1160" font-family="Helvetica,sans-Serif" font-size="10.00"> +elements</text>
</g>
<!-- Node8&#45;&gt;Node2 -->
<g id="edge8" class="edge">
<title>Node8&#45;&gt;Node2</title>
<path fill="none" stroke="#404040" d="M147.79,-276.23C139.72,-264.91 130.44,-251.88 121.34,-239.12"/>
<polygon fill="none" stroke="#404040" points="121.08,-238.75 114.34,-236.18 114.11,-228.98 120.85,-231.54 121.08,-238.75"/>
<text text-anchor="middle" x="144.5" y="-250" font-family="Helvetica,sans-Serif" font-size="10.00"> +vin</text>
</g>
<!-- Node9&#45;&gt;Node8 -->
<g id="edge9" class="edge">
<title>Node9&#45;&gt;Node8</title>
<path fill="none" stroke="#404040" d="M413.63,-401.92C362.48,-382.82 295.97,-357.98 245.61,-339.17"/>
<polygon fill="none" stroke="#404040" points="245.39,-339.09 238.37,-340.74 234.14,-334.89 241.17,-333.25 245.39,-339.09"/>
<text text-anchor="middle" x="356" y="-366" font-family="Helvetica,sans-Serif" font-size="10.00"> +elements</text>
</g>
<!-- Node10&#45;&gt;Node9 -->
<g id="edge11" class="edge">
<title>Node10&#45;&gt;Node9</title>
<path fill="none" stroke="#404040" d="M553.21,-524.83C544.37,-511.68 534.03,-496.28 524.36,-481.9"/>
<polygon fill="none" stroke="#404040" points="524.16,-481.61 517.5,-478.86 517.47,-471.65 524.14,-474.4 524.16,-481.61"/>
<text text-anchor="middle" x="570.5" y="-493" font-family="Helvetica,sans-Serif" font-size="10.00"> +scriptWitness</text>
</g>
<!-- Node11 -->
<g id="node11" class="node">
<title>Node11</title>
<g id="a_node11"><a xlink:href="structaltintegration_1_1btc_1_1OutPoint.html" target="_top" xlink:title="An outpoint &#45; a combination of a transaction hash and an index n into its vout.">
<polygon fill="white" stroke="black" points="651,-519.5 651,-598.5 806,-598.5 806,-519.5 651,-519.5"/>
<text text-anchor="start" x="659" y="-586.5" font-family="Helvetica,sans-Serif" font-size="10.00">altintegration::btc</text>
<text text-anchor="middle" x="728.5" y="-575.5" font-family="Helvetica,sans-Serif" font-size="10.00">::OutPoint</text>
<polyline fill="none" stroke="black" points="651,-568.5 806,-568.5 "/>
<text text-anchor="start" x="659" y="-556.5" font-family="Helvetica,sans-Serif" font-size="10.00">+ n</text>
<text text-anchor="start" x="659" y="-545.5" font-family="Helvetica,sans-Serif" font-size="10.00">+ ADD_SERIALIZE_METHODS</text>
<polyline fill="none" stroke="black" points="651,-538.5 806,-538.5 "/>
<text text-anchor="start" x="659" y="-526.5" font-family="Helvetica,sans-Serif" font-size="10.00">+ SerializationOp()</text>
</a>
</g>
</g>
<!-- Node11&#45;&gt;Node9 -->
<g id="edge14" class="edge">
<title>Node11&#45;&gt;Node9</title>
<path fill="none" stroke="#404040" d="M662.26,-519.49C644.89,-509.66 626.09,-499.26 608.5,-490 599.35,-485.18 589.73,-480.27 580.1,-475.44"/>
<polygon fill="none" stroke="#404040" points="579.99,-475.39 572.84,-476.29 569.25,-470.04 576.41,-469.13 579.99,-475.39"/>
<text text-anchor="middle" x="649" y="-493" font-family="Helvetica,sans-Serif" font-size="10.00"> +prevout</text>
</g>
<!-- Node12 -->
<g id="node12" class="node">
<title>Node12</title>
<g id="a_node12"><a xlink:href="structaltintegration_1_1Blob.html" target="_top" xlink:title=" ">
<polygon fill="white" stroke="black" points="663,-657.5 663,-879.5 794,-879.5 794,-657.5 663,-657.5"/>
<text text-anchor="start" x="671" y="-867.5" font-family="Helvetica,sans-Serif" font-size="10.00">altintegration::Blob</text>
<text text-anchor="middle" x="728.5" y="-856.5" font-family="Helvetica,sans-Serif" font-size="10.00">&lt; SHA256_HASH_SIZE &gt;</text>
<polyline fill="none" stroke="black" points="663,-849.5 794,-849.5 "/>
<text text-anchor="start" x="671" y="-837.5" font-family="Helvetica,sans-Serif" font-size="10.00">+ data_</text>
<text text-anchor="start" x="671" y="-826.5" font-family="Helvetica,sans-Serif" font-size="10.00">+ this</text>
<polyline fill="none" stroke="black" points="663,-819.5 794,-819.5 "/>
<text text-anchor="start" x="671" y="-807.5" font-family="Helvetica,sans-Serif" font-size="10.00">+ Blob()</text>
<text text-anchor="start" x="671" y="-796.5" font-family="Helvetica,sans-Serif" font-size="10.00">+ Blob()</text>
<text text-anchor="start" x="671" y="-785.5" font-family="Helvetica,sans-Serif" font-size="10.00">+ Blob()</text>
<text text-anchor="start" x="671" y="-774.5" font-family="Helvetica,sans-Serif" font-size="10.00">+ Blob()</text>
<text text-anchor="start" x="671" y="-763.5" font-family="Helvetica,sans-Serif" font-size="10.00">+ Blob()</text>
<text text-anchor="start" x="671" y="-752.5" font-family="Helvetica,sans-Serif" font-size="10.00">+ operator=()</text>
<text text-anchor="start" x="671" y="-741.5" font-family="Helvetica,sans-Serif" font-size="10.00">+ operator=()</text>
<text text-anchor="start" x="671" y="-730.5" font-family="Helvetica,sans-Serif" font-size="10.00">+ reverse()</text>
<text text-anchor="start" x="671" y="-719.5" font-family="Helvetica,sans-Serif" font-size="10.00">+ operator~()</text>
<text text-anchor="start" x="671" y="-708.5" font-family="Helvetica,sans-Serif" font-size="10.00">+ asVector()</text>
<text text-anchor="start" x="671" y="-697.5" font-family="Helvetica,sans-Serif" font-size="10.00">+ asString()</text>
<text text-anchor="start" x="671" y="-686.5" font-family="Helvetica,sans-Serif" font-size="10.00">+ operator[]()</text>
<text text-anchor="start" x="671" y="-675.5" font-family="Helvetica,sans-Serif" font-size="10.00">+ operator[]()</text>
<text text-anchor="start" x="671" y="-664.5" font-family="Helvetica,sans-Serif" font-size="10.00">+ compareTo()</text>
</a>
</g>
</g>
<!-- Node12&#45;&gt;Node11 -->
<g id="edge15" class="edge">
<title>Node12&#45;&gt;Node11</title>
<path fill="none" stroke="#404040" d="M728.5,-657.37C728.5,-641.02 728.5,-624.87 728.5,-610.58"/>
<polygon fill="none" stroke="#404040" points="728.5,-610.53 724.5,-604.53 728.5,-598.53 732.5,-604.53 728.5,-610.53"/>
<text text-anchor="middle" x="743.5" y="-625.5" font-family="Helvetica,sans-Serif" font-size="10.00"> +hash</text>
</g>
<!-- Node13 -->
<g id="node13" class="node">
<title>Node13</title>
<g id="a_node13"><a xlink:href="structaltintegration_1_1Blob.html" target="_top" xlink:title="Contiguous byte array of fixed size.">
<polygon fill="white" stroke="black" points="668.5,-927.5 668.5,-1138.5 788.5,-1138.5 788.5,-927.5 668.5,-927.5"/>
<text text-anchor="middle" x="728.5" y="-1126.5" font-family="Helvetica,sans-Serif" font-size="10.00">altintegration::Blob&lt; N &gt;</text>
<polyline fill="none" stroke="black" points="668.5,-1119.5 788.5,-1119.5 "/>
<text text-anchor="start" x="676.5" y="-1107.5" font-family="Helvetica,sans-Serif" font-size="10.00">+ data_</text>
<text text-anchor="start" x="676.5" y="-1096.5" font-family="Helvetica,sans-Serif" font-size="10.00">+ this</text>
<polyline fill="none" stroke="black" points="668.5,-1089.5 788.5,-1089.5 "/>
<text text-anchor="start" x="676.5" y="-1077.5" font-family="Helvetica,sans-Serif" font-size="10.00">+ Blob()</text>
<text text-anchor="start" x="676.5" y="-1066.5" font-family="Helvetica,sans-Serif" font-size="10.00">+ Blob()</text>
<text text-anchor="start" x="676.5" y="-1055.5" font-family="Helvetica,sans-Serif" font-size="10.00">+ Blob()</text>
<text text-anchor="start" x="676.5" y="-1044.5" font-family="Helvetica,sans-Serif" font-size="10.00">+ Blob()</text>
<text text-anchor="start" x="676.5" y="-1033.5" font-family="Helvetica,sans-Serif" font-size="10.00">+ Blob()</text>
<text text-anchor="start" x="676.5" y="-1022.5" font-family="Helvetica,sans-Serif" font-size="10.00">+ operator=()</text>
<text text-anchor="start" x="676.5" y="-1011.5" font-family="Helvetica,sans-Serif" font-size="10.00">+ operator=()</text>
<text text-anchor="start" x="676.5" y="-1000.5" font-family="Helvetica,sans-Serif" font-size="10.00">+ reverse()</text>
<text text-anchor="start" x="676.5" y="-989.5" font-family="Helvetica,sans-Serif" font-size="10.00">+ operator~()</text>
<text text-anchor="start" x="676.5" y="-978.5" font-family="Helvetica,sans-Serif" font-size="10.00">+ asVector()</text>
<text text-anchor="start" x="676.5" y="-967.5" font-family="Helvetica,sans-Serif" font-size="10.00">+ asString()</text>
<text text-anchor="start" x="676.5" y="-956.5" font-family="Helvetica,sans-Serif" font-size="10.00">+ operator[]()</text>
<text text-anchor="start" x="676.5" y="-945.5" font-family="Helvetica,sans-Serif" font-size="10.00">+ operator[]()</text>
<text text-anchor="start" x="676.5" y="-934.5" font-family="Helvetica,sans-Serif" font-size="10.00">+ compareTo()</text>
</a>
</g>
</g>
<!-- Node13&#45;&gt;Node12 -->
<g id="edge16" class="edge">
<title>Node13&#45;&gt;Node12</title>
<path fill="none" stroke="orange" d="M728.5,-917.48C728.5,-904.93 728.5,-892.17 728.5,-879.67"/>
<polygon fill="orange" stroke="orange" points="725,-917.5 728.5,-927.5 732,-917.5 725,-917.5"/>
<text text-anchor="middle" x="787" y="-901" font-family="Helvetica,sans-Serif" font-size="10.00"> &lt; SHA256_HASH_SIZE &gt;</text>
</g>
</g>
</svg>
