<?xml version="1.0" encoding="UTF-8" standalone="no"?>
<!DOCTYPE svg PUBLIC "-//W3C//DTD SVG 1.1//EN"
 "http://www.w3.org/Graphics/SVG/1.1/DTD/svg11.dtd">
<!-- Generated by graphviz version 2.50.0 (20220203.2022)
 -->
<!-- Title: altintegration::btc::BlockMsg Pages: 1 -->
<!--zoomable 1718 -->
<svg id="main" version="1.1" xmlns="http://www.w3.org/2000/svg" xmlns:xlink="http://www.w3.org/1999/xlink" xml:space="preserve" onload="init(evt)">
<style type="text/css"><![CDATA[
.edge:hover path { stroke: red; }
.edge:hover polygon { stroke: red; fill: red; }
]]></style>
<script type="text/javascript"><![CDATA[
var edges = document.getElementsByTagName('g');
if (edges && edges.length) {
  for (var i=0;i<edges.length;i++) {
    if (edges[i].id.substr(0,4)=='edge') {
      edges[i].setAttribute('class','edge');
    }
  }
}
]]></script>
        <defs>
                <circle id="rim" cx="0" cy="0" r="7"/>
                <circle id="rim2" cx="0" cy="0" r="3.5"/>
                <g id="zoomPlus">
                        <use xlink:href="#rim" fill="#404040">
                                <set attributeName="fill" to="#808080" begin="zoomplus.mouseover" end="zoomplus.mouseout"/>
                        </use>
                        <path d="M-4,0h8M0,-4v8" fill="none" stroke="white" stroke-width="1.5" pointer-events="none"/>
                </g>
                <g id="zoomMin">
                        <use xlink:href="#rim" fill="#404040">
                                <set attributeName="fill" to="#808080" begin="zoomminus.mouseover" end="zoomminus.mouseout"/>
                        </use>
                        <path d="M-4,0h8" fill="none" stroke="white" stroke-width="1.5" pointer-events="none"/>
                </g>
                <g id="dirArrow">
                        <path fill="none" stroke="white" stroke-width="1.5" d="M0,-3.0v7 M-2.5,-0.5L0,-3.0L2.5,-0.5"/>
                </g>
               <g id="resetDef">
                       <use xlink:href="#rim2" fill="#404040">
                               <set attributeName="fill" to="#808080" begin="reset.mouseover" end="reset.mouseout"/>
                       </use>
               </g>
        </defs>

<script type="text/javascript">
var viewWidth = 1073;
var viewHeight = 1718;
var sectionId = 'dynsection-0';
</script>
<script xlink:href="svgpan.js"/>
<svg id="graph" class="graph">
<g id="viewport">
<title>altintegration::btc::BlockMsg</title>
<polygon fill="white" stroke="transparent" points="-4,4 -4,-1714 1068.5,-1714 1068.5,4 -4,4"/>
<!-- Node1 -->
<g id="node1" class="node">
<title>Node1</title>
<g id="a_node1"><a xlink:title=" ">
<polygon fill="#bfbfbf" stroke="black" points="573,-0.5 573,-68.5 728,-68.5 728,-0.5 573,-0.5"/>
<text text-anchor="start" x="581" y="-56.5" font-family="Helvetica,sans-Serif" font-size="10.00">altintegration::btc</text>
<text text-anchor="middle" x="650.5" y="-45.5" font-family="Helvetica,sans-Serif" font-size="10.00">::BlockMsg</text>
<polyline fill="none" stroke="black" points="573,-38.5 728,-38.5 "/>
<text text-anchor="start" x="581" y="-26.5" font-family="Helvetica,sans-Serif" font-size="10.00">+ ADD_SERIALIZE_METHODS</text>
<polyline fill="none" stroke="black" points="573,-19.5 728,-19.5 "/>
<text text-anchor="start" x="581" y="-7.5" font-family="Helvetica,sans-Serif" font-size="10.00">+ SerializationOp()</text>
</a>
</g>
</g>
<!-- Node2 -->
<g id="node2" class="node">
<title>Node2</title>
<g id="a_node2"><a xlink:href="structaltintegration_1_1btc_1_1Block.html" target="_top" xlink:title=" ">
<polygon fill="white" stroke="#bfbfbf" points="573,-116.5 573,-206.5 728,-206.5 728,-116.5 573,-116.5"/>
<text text-anchor="start" x="581" y="-194.5" font-family="Helvetica,sans-Serif" font-size="10.00">altintegration::btc</text>
<text text-anchor="middle" x="650.5" y="-183.5" font-family="Helvetica,sans-Serif" font-size="10.00">::Block</text>
<polyline fill="none" stroke="#bfbfbf" points="573,-176.5 728,-176.5 "/>
<text text-anchor="start" x="581" y="-164.5" font-family="Helvetica,sans-Serif" font-size="10.00">+ ADD_SERIALIZE_METHODS</text>
<polyline fill="none" stroke="#bfbfbf" points="573,-157.5 728,-157.5 "/>
<text text-anchor="start" x="581" y="-145.5" font-family="Helvetica,sans-Serif" font-size="10.00">+ Block()</text>
<text text-anchor="start" x="581" y="-134.5" font-family="Helvetica,sans-Serif" font-size="10.00">+ Block()</text>
<text text-anchor="start" x="581" y="-123.5" font-family="Helvetica,sans-Serif" font-size="10.00">+ SerializationOp()</text>
</a>
</g>
</g>
<!-- Node2&#45;&gt;Node1 -->
<g id="edge1" class="edge">
<title>Node2&#45;&gt;Node1</title>
<path fill="none" stroke="#404040" d="M650.5,-116.43C650.5,-104.87 650.5,-92.38 650.5,-80.76"/>
<polygon fill="none" stroke="#404040" points="650.5,-80.57 646.5,-74.57 650.5,-68.57 654.5,-74.57 650.5,-80.57"/>
<text text-anchor="middle" x="666.5" y="-90" font-family="Helvetica,sans-Serif" font-size="10.00"> +block</text>
</g>
<!-- Node3 -->
<g id="node3" class="node">
<title>Node3</title>
<g id="a_node3"><a xlink:href="structaltintegration_1_1btc_1_1BlockHeader.html" target="_top" xlink:title=" ">
<polygon fill="white" stroke="#bfbfbf" points="320,-606.5 320,-696.5 475,-696.5 475,-606.5 320,-606.5"/>
<text text-anchor="start" x="328" y="-684.5" font-family="Helvetica,sans-Serif" font-size="10.00">altintegration::btc</text>
<text text-anchor="middle" x="397.5" y="-673.5" font-family="Helvetica,sans-Serif" font-size="10.00">::BlockHeader</text>
<polyline fill="none" stroke="#bfbfbf" points="320,-666.5 475,-666.5 "/>
<text text-anchor="start" x="328" y="-654.5" font-family="Helvetica,sans-Serif" font-size="10.00">+ ADD_SERIALIZE_METHODS</text>
<polyline fill="none" stroke="#bfbfbf" points="320,-647.5 475,-647.5 "/>
<text text-anchor="start" x="328" y="-635.5" font-family="Helvetica,sans-Serif" font-size="10.00">+ BlockHeader()</text>
<text text-anchor="start" x="328" y="-624.5" font-family="Helvetica,sans-Serif" font-size="10.00">+ BlockHeader()</text>
<text text-anchor="start" x="328" y="-613.5" font-family="Helvetica,sans-Serif" font-size="10.00">+ SerializationOp()</text>
</a>
</g>
</g>
<!-- Node3&#45;&gt;Node2 -->
<g id="edge2" class="edge">
<title>Node3&#45;&gt;Node2</title>
<path fill="none" stroke="midnightblue" d="M484.54,-612.67C552.15,-580.41 634.5,-533.52 634.5,-496.5 634.5,-496.5 634.5,-496.5 634.5,-287.5 634.5,-260.48 638.22,-230.44 642.08,-206.58"/>
<polygon fill="none" stroke="midnightblue" points="482.65,-609.68 475.1,-617.12 485.64,-616.01 482.65,-609.68"/>
</g>
<!-- Node4 -->
<g id="node4" class="node">
<title>Node4</title>
<g id="a_node4"><a xlink:href="structaltintegration_1_1BtcBlock.html" target="_top" xlink:title="Bitcoin block.">
<polygon fill="white" stroke="black" points="50.5,-842.5 50.5,-1064.5 166.5,-1064.5 166.5,-842.5 50.5,-842.5"/>
<text text-anchor="middle" x="108.5" y="-1052.5" font-family="Helvetica,sans-Serif" font-size="10.00">altintegration::BtcBlock</text>
<polyline fill="none" stroke="black" points="50.5,-1045.5 166.5,-1045.5 "/>
<text text-anchor="start" x="58.5" y="-1033.5" font-family="Helvetica,sans-Serif" font-size="10.00"># version</text>
<text text-anchor="start" x="58.5" y="-1022.5" font-family="Helvetica,sans-Serif" font-size="10.00"># timestamp</text>
<text text-anchor="start" x="58.5" y="-1011.5" font-family="Helvetica,sans-Serif" font-size="10.00"># bits</text>
<text text-anchor="start" x="58.5" y="-1000.5" font-family="Helvetica,sans-Serif" font-size="10.00"># nonce</text>
<polyline fill="none" stroke="black" points="50.5,-993.5 166.5,-993.5 "/>
<text text-anchor="start" x="58.5" y="-981.5" font-family="Helvetica,sans-Serif" font-size="10.00">+ BtcBlock()</text>
<text text-anchor="start" x="58.5" y="-970.5" font-family="Helvetica,sans-Serif" font-size="10.00">+ BtcBlock()</text>
<text text-anchor="start" x="58.5" y="-959.5" font-family="Helvetica,sans-Serif" font-size="10.00">+ toRaw()</text>
<text text-anchor="start" x="58.5" y="-948.5" font-family="Helvetica,sans-Serif" font-size="10.00">+ toVbkEncoding()</text>
<text text-anchor="start" x="58.5" y="-937.5" font-family="Helvetica,sans-Serif" font-size="10.00">+ estimateSize()</text>
<text text-anchor="start" x="58.5" y="-926.5" font-family="Helvetica,sans-Serif" font-size="10.00">+ calculateHash()</text>
<text text-anchor="start" x="58.5" y="-915.5" font-family="Helvetica,sans-Serif" font-size="10.00">+ getHash()</text>
<text text-anchor="start" x="58.5" y="-904.5" font-family="Helvetica,sans-Serif" font-size="10.00">+ toPrettyString()</text>
<text text-anchor="start" x="58.5" y="-893.5" font-family="Helvetica,sans-Serif" font-size="10.00">+ getVersion()</text>
<text text-anchor="start" x="58.5" y="-882.5" font-family="Helvetica,sans-Serif" font-size="10.00">+ getPreviousBlock()</text>
<text text-anchor="start" x="58.5" y="-871.5" font-family="Helvetica,sans-Serif" font-size="10.00">and 10 more...</text>
<text text-anchor="start" x="58.5" y="-860.5" font-family="Helvetica,sans-Serif" font-size="10.00">+ name()</text>
<text text-anchor="start" x="58.5" y="-849.5" font-family="Helvetica,sans-Serif" font-size="10.00"># invalidateHash()</text>
</a>
</g>
</g>
<!-- Node4&#45;&gt;Node3 -->
<g id="edge3" class="edge">
<title>Node4&#45;&gt;Node3</title>
<path fill="none" stroke="midnightblue" d="M173.05,-846.13C174.19,-844.73 175.34,-843.35 176.5,-842 224.26,-786.08 289.12,-732.51 336.21,-696.68"/>
<polygon fill="none" stroke="midnightblue" points="170.04,-844.29 166.59,-854.31 175.53,-848.63 170.04,-844.29"/>
</g>
<!-- Node5 -->
<g id="node5" class="node">
<title>Node5</title>
<g id="a_node5"><a xlink:title=" ">
<polygon fill="white" stroke="black" points="17,-1206 17,-1263 76,-1263 76,-1206 17,-1206"/>
<text text-anchor="middle" x="46.5" y="-1251" font-family="Helvetica,sans-Serif" font-size="10.00">std::string</text>
<polyline fill="none" stroke="black" points="17,-1244 76,-1244 "/>
<text text-anchor="middle" x="46.5" y="-1232" font-family="Helvetica,sans-Serif" font-size="10.00"> </text>
<polyline fill="none" stroke="black" points="17,-1225 76,-1225 "/>
<text text-anchor="middle" x="46.5" y="-1213" font-family="Helvetica,sans-Serif" font-size="10.00"> </text>
</a>
</g>
</g>
<!-- Node5&#45;&gt;Node4 -->
<g id="edge4" class="edge">
<title>Node5&#45;&gt;Node4</title>
<path fill="none" stroke="#404040" d="M47.17,-1205.98C48.4,-1175.55 51.83,-1125.23 61.5,-1083 62,-1080.84 62.52,-1078.66 63.06,-1076.47"/>
<polygon fill="none" stroke="#404040" points="63.11,-1076.31 60.78,-1069.48 66.19,-1064.71 68.51,-1071.54 63.11,-1076.31"/>
<text text-anchor="middle" x="80" y="-1091.5" font-family="Helvetica,sans-Serif" font-size="10.00"> #_name</text>
</g>
<!-- Node6 -->
<g id="node6" class="node">
<title>Node6</title>
<g id="a_node6"><a xlink:title=" ">
<polygon fill="white" stroke="black" points="0,-1465 0,-1533 93,-1533 93,-1465 0,-1465"/>
<text text-anchor="start" x="8" y="-1521" font-family="Helvetica,sans-Serif" font-size="10.00">std::basic_string&lt;</text>
<text text-anchor="middle" x="46.5" y="-1510" font-family="Helvetica,sans-Serif" font-size="10.00"> Char &gt;</text>
<polyline fill="none" stroke="black" points="0,-1503 93,-1503 "/>
<text text-anchor="middle" x="46.5" y="-1491" font-family="Helvetica,sans-Serif" font-size="10.00"> </text>
<polyline fill="none" stroke="black" points="0,-1484 93,-1484 "/>
<text text-anchor="middle" x="46.5" y="-1472" font-family="Helvetica,sans-Serif" font-size="10.00"> </text>
</a>
</g>
</g>
<!-- Node6&#45;&gt;Node5 -->
<g id="edge5" class="edge">
<title>Node6&#45;&gt;Node5</title>
<path fill="none" stroke="midnightblue" d="M46.5,-1454.75C46.5,-1400.49 46.5,-1309.02 46.5,-1263.29"/>
<polygon fill="none" stroke="midnightblue" points="43,-1454.75 46.5,-1464.75 50,-1454.75 43,-1454.75"/>
</g>
<!-- Node7 -->
<g id="node7" class="node">
<title>Node7</title>
<g id="a_node7"><a xlink:href="structaltintegration_1_1Blob.html" target="_top" xlink:title=" ">
<polygon fill="white" stroke="black" points="165,-1123.5 165,-1345.5 296,-1345.5 296,-1123.5 165,-1123.5"/>
<text text-anchor="start" x="173" y="-1333.5" font-family="Helvetica,sans-Serif" font-size="10.00">altintegration::Blob</text>
<text text-anchor="middle" x="230.5" y="-1322.5" font-family="Helvetica,sans-Serif" font-size="10.00">&lt; SHA256_HASH_SIZE &gt;</text>
<polyline fill="none" stroke="black" points="165,-1315.5 296,-1315.5 "/>
<text text-anchor="start" x="173" y="-1303.5" font-family="Helvetica,sans-Serif" font-size="10.00">+ data_</text>
<text text-anchor="start" x="173" y="-1292.5" font-family="Helvetica,sans-Serif" font-size="10.00">+ this</text>
<polyline fill="none" stroke="black" points="165,-1285.5 296,-1285.5 "/>
<text text-anchor="start" x="173" y="-1273.5" font-family="Helvetica,sans-Serif" font-size="10.00">+ Blob()</text>
<text text-anchor="start" x="173" y="-1262.5" font-family="Helvetica,sans-Serif" font-size="10.00">+ Blob()</text>
<text text-anchor="start" x="173" y="-1251.5" font-family="Helvetica,sans-Serif" font-size="10.00">+ Blob()</text>
<text text-anchor="start" x="173" y="-1240.5" font-family="Helvetica,sans-Serif" font-size="10.00">+ Blob()</text>
<text text-anchor="start" x="173" y="-1229.5" font-family="Helvetica,sans-Serif" font-size="10.00">+ Blob()</text>
<text text-anchor="start" x="173" y="-1218.5" font-family="Helvetica,sans-Serif" font-size="10.00">+ operator=()</text>
<text text-anchor="start" x="173" y="-1207.5" font-family="Helvetica,sans-Serif" font-size="10.00">+ operator=()</text>
<text text-anchor="start" x="173" y="-1196.5" font-family="Helvetica,sans-Serif" font-size="10.00">+ reverse()</text>
<text text-anchor="start" x="173" y="-1185.5" font-family="Helvetica,sans-Serif" font-size="10.00">+ operator~()</text>
<text text-anchor="start" x="173" y="-1174.5" font-family="Helvetica,sans-Serif" font-size="10.00">+ asVector()</text>
<text text-anchor="start" x="173" y="-1163.5" font-family="Helvetica,sans-Serif" font-size="10.00">+ asString()</text>
<text text-anchor="start" x="173" y="-1152.5" font-family="Helvetica,sans-Serif" font-size="10.00">+ operator[]()</text>
<text text-anchor="start" x="173" y="-1141.5" font-family="Helvetica,sans-Serif" font-size="10.00">+ operator[]()</text>
<text text-anchor="start" x="173" y="-1130.5" font-family="Helvetica,sans-Serif" font-size="10.00">+ compareTo()</text>
</a>
</g>
</g>
<!-- Node7&#45;&gt;Node4 -->
<g id="edge6" class="edge">
<title>Node7&#45;&gt;Node4</title>
<path fill="none" stroke="#404040" d="M182.28,-1123.23C175.53,-1107.79 168.56,-1091.84 161.72,-1076.2"/>
<polygon fill="none" stroke="#404040" points="161.57,-1075.88 155.51,-1071.98 156.77,-1064.88 162.84,-1068.78 161.57,-1075.88"/>
<text text-anchor="middle" x="206" y="-1097" font-family="Helvetica,sans-Serif" font-size="10.00"> #merkleRoot</text>
<text text-anchor="middle" x="206" y="-1086" font-family="Helvetica,sans-Serif" font-size="10.00">#previousBlock</text>
</g>
<!-- Node13 -->
<g id="node13" class="node">
<title>Node13</title>
<g id="a_node13"><a xlink:href="structaltintegration_1_1btc_1_1OutPoint.html" target="_top" xlink:title="An outpoint &#45; a combination of a transaction hash and an index n into its vout.">
<polygon fill="white" stroke="black" points="185,-914 185,-993 340,-993 340,-914 185,-914"/>
<text text-anchor="start" x="193" y="-981" font-family="Helvetica,sans-Serif" font-size="10.00">altintegration::btc</text>
<text text-anchor="middle" x="262.5" y="-970" font-family="Helvetica,sans-Serif" font-size="10.00">::OutPoint</text>
<polyline fill="none" stroke="black" points="185,-963 340,-963 "/>
<text text-anchor="start" x="193" y="-951" font-family="Helvetica,sans-Serif" font-size="10.00">+ n</text>
<text text-anchor="start" x="193" y="-940" font-family="Helvetica,sans-Serif" font-size="10.00">+ ADD_SERIALIZE_METHODS</text>
<polyline fill="none" stroke="black" points="185,-933 340,-933 "/>
<text text-anchor="start" x="193" y="-921" font-family="Helvetica,sans-Serif" font-size="10.00">+ SerializationOp()</text>
</a>
</g>
</g>
<!-- Node7&#45;&gt;Node13 -->
<g id="edge14" class="edge">
<title>Node7&#45;&gt;Node13</title>
<path fill="none" stroke="#404040" d="M243.15,-1123.23C247.83,-1082.44 252.9,-1038.16 256.68,-1005.2"/>
<polygon fill="none" stroke="#404040" points="256.7,-1005.08 253.41,-998.66 258.07,-993.16 261.36,-999.57 256.7,-1005.08"/>
<text text-anchor="middle" x="261.5" y="-1091.5" font-family="Helvetica,sans-Serif" font-size="10.00"> +hash</text>
</g>
<!-- Node8 -->
<g id="node8" class="node">
<title>Node8</title>
<g id="a_node8"><a xlink:href="structaltintegration_1_1Blob.html" target="_top" xlink:title="Contiguous byte array of fixed size.">
<polygon fill="white" stroke="black" points="140.5,-1393.5 140.5,-1604.5 260.5,-1604.5 260.5,-1393.5 140.5,-1393.5"/>
<text text-anchor="middle" x="200.5" y="-1592.5" font-family="Helvetica,sans-Serif" font-size="10.00">altintegration::Blob&lt; N &gt;</text>
<polyline fill="none" stroke="black" points="140.5,-1585.5 260.5,-1585.5 "/>
<text text-anchor="start" x="148.5" y="-1573.5" font-family="Helvetica,sans-Serif" font-size="10.00">+ data_</text>
<text text-anchor="start" x="148.5" y="-1562.5" font-family="Helvetica,sans-Serif" font-size="10.00">+ this</text>
<polyline fill="none" stroke="black" points="140.5,-1555.5 260.5,-1555.5 "/>
<text text-anchor="start" x="148.5" y="-1543.5" font-family="Helvetica,sans-Serif" font-size="10.00">+ Blob()</text>
<text text-anchor="start" x="148.5" y="-1532.5" font-family="Helvetica,sans-Serif" font-size="10.00">+ Blob()</text>
<text text-anchor="start" x="148.5" y="-1521.5" font-family="Helvetica,sans-Serif" font-size="10.00">+ Blob()</text>
<text text-anchor="start" x="148.5" y="-1510.5" font-family="Helvetica,sans-Serif" font-size="10.00">+ Blob()</text>
<text text-anchor="start" x="148.5" y="-1499.5" font-family="Helvetica,sans-Serif" font-size="10.00">+ Blob()</text>
<text text-anchor="start" x="148.5" y="-1488.5" font-family="Helvetica,sans-Serif" font-size="10.00">+ operator=()</text>
<text text-anchor="start" x="148.5" y="-1477.5" font-family="Helvetica,sans-Serif" font-size="10.00">+ operator=()</text>
<text text-anchor="start" x="148.5" y="-1466.5" font-family="Helvetica,sans-Serif" font-size="10.00">+ reverse()</text>
<text text-anchor="start" x="148.5" y="-1455.5" font-family="Helvetica,sans-Serif" font-size="10.00">+ operator~()</text>
<text text-anchor="start" x="148.5" y="-1444.5" font-family="Helvetica,sans-Serif" font-size="10.00">+ asVector()</text>
<text text-anchor="start" x="148.5" y="-1433.5" font-family="Helvetica,sans-Serif" font-size="10.00">+ asString()</text>
<text text-anchor="start" x="148.5" y="-1422.5" font-family="Helvetica,sans-Serif" font-size="10.00">+ operator[]()</text>
<text text-anchor="start" x="148.5" y="-1411.5" font-family="Helvetica,sans-Serif" font-size="10.00">+ operator[]()</text>
<text text-anchor="start" x="148.5" y="-1400.5" font-family="Helvetica,sans-Serif" font-size="10.00">+ compareTo()</text>
</a>
</g>
</g>
<!-- Node8&#45;&gt;Node4 -->
<g id="edge8" class="edge">
<title>Node8&#45;&gt;Node4</title>
<path fill="none" stroke="#404040" d="M140.44,-1397.49C132.77,-1380.78 126.02,-1363.26 121.5,-1346 108.67,-1297.03 106.37,-1172.6 106.68,-1077.05"/>
<polygon fill="none" stroke="#404040" points="106.68,-1076.96 102.71,-1070.94 106.74,-1064.96 110.71,-1070.97 106.68,-1076.96"/>
<text text-anchor="middle" x="138.5" y="-1232" font-family="Helvetica,sans-Serif" font-size="10.00"> #hash_</text>
</g>
<!-- Node8&#45;&gt;Node7 -->
<g id="edge7" class="edge">
<title>Node8&#45;&gt;Node7</title>
<path fill="none" stroke="orange" d="M213.59,-1383.48C215.02,-1370.93 216.48,-1358.17 217.91,-1345.67"/>
<polygon fill="orange" stroke="orange" points="210.1,-1383.17 212.44,-1393.5 217.06,-1383.96 210.1,-1383.17"/>
<text text-anchor="middle" x="274" y="-1367" font-family="Helvetica,sans-Serif" font-size="10.00"> &lt; SHA256_HASH_SIZE &gt;</text>
</g>
<!-- Node9 -->
<g id="node9" class="node">
<title>Node9</title>
<g id="a_node9"><a xlink:title=" ">
<polygon fill="white" stroke="black" points="765,-254.5 765,-322.5 890,-322.5 890,-254.5 765,-254.5"/>
<text text-anchor="start" x="773" y="-310.5" font-family="Helvetica,sans-Serif" font-size="10.00">std::vector&lt; altintegration</text>
<text text-anchor="middle" x="827.5" y="-299.5" font-family="Helvetica,sans-Serif" font-size="10.00">::btc::Transaction &gt;</text>
<polyline fill="none" stroke="black" points="765,-292.5 890,-292.5 "/>
<text text-anchor="middle" x="827.5" y="-280.5" font-family="Helvetica,sans-Serif" font-size="10.00"> </text>
<polyline fill="none" stroke="black" points="765,-273.5 890,-273.5 "/>
<text text-anchor="middle" x="827.5" y="-261.5" font-family="Helvetica,sans-Serif" font-size="10.00"> </text>
</a>
</g>
</g>
<!-- Node9&#45;&gt;Node2 -->
<g id="edge9" class="edge">
<title>Node9&#45;&gt;Node2</title>
<path fill="none" stroke="#404040" d="M780.53,-254.33C762.91,-241.89 742.46,-227.44 723.06,-213.74"/>
<polygon fill="none" stroke="#404040" points="722.83,-213.58 715.62,-213.39 713.03,-206.66 720.24,-206.85 722.83,-213.58"/>
<text text-anchor="middle" x="760.5" y="-228" font-family="Helvetica,sans-Serif" font-size="10.00"> +vtx</text>
</g>
<!-- Node10 -->
<g id="node10" class="node">
<title>Node10</title>
<g id="a_node10"><a xlink:href="structaltintegration_1_1btc_1_1Transaction.html" target="_top" xlink:title="The basic transaction that is broadcasted on the network and contained in blocks.">
<polygon fill="white" stroke="black" points="782.5,-370.5 782.5,-471.5 872.5,-471.5 872.5,-370.5 782.5,-370.5"/>
<text text-anchor="start" x="790.5" y="-459.5" font-family="Helvetica,sans-Serif" font-size="10.00">altintegration::btc</text>
<text text-anchor="middle" x="827.5" y="-448.5" font-family="Helvetica,sans-Serif" font-size="10.00">::Transaction</text>
<polyline fill="none" stroke="black" points="782.5,-441.5 872.5,-441.5 "/>
<text text-anchor="start" x="790.5" y="-429.5" font-family="Helvetica,sans-Serif" font-size="10.00">+ nVersion</text>
<text text-anchor="start" x="790.5" y="-418.5" font-family="Helvetica,sans-Serif" font-size="10.00">+ nLockTime</text>
<polyline fill="none" stroke="black" points="782.5,-411.5 872.5,-411.5 "/>
<text text-anchor="start" x="790.5" y="-399.5" font-family="Helvetica,sans-Serif" font-size="10.00">+ Serialize()</text>
<text text-anchor="start" x="790.5" y="-388.5" font-family="Helvetica,sans-Serif" font-size="10.00">+ Unserialize()</text>
<text text-anchor="start" x="790.5" y="-377.5" font-family="Helvetica,sans-Serif" font-size="10.00">+ HasWitness()</text>
</a>
</g>
</g>
<!-- Node10&#45;&gt;Node9 -->
<g id="edge10" class="edge">
<title>Node10&#45;&gt;Node9</title>
<path fill="none" stroke="#404040" d="M827.5,-370.29C827.5,-358.55 827.5,-346.09 827.5,-334.57"/>
<polygon fill="none" stroke="#404040" points="827.5,-334.51 823.5,-328.51 827.5,-322.51 831.5,-328.51 827.5,-334.51"/>
<text text-anchor="middle" x="852" y="-344" font-family="Helvetica,sans-Serif" font-size="10.00"> +elements</text>
</g>
<!-- Node11 -->
<g id="node11" class="node">
<title>Node11</title>
<g id="a_node11"><a xlink:title=" ">
<polygon fill="white" stroke="black" points="700,-519.5 700,-587.5 825,-587.5 825,-519.5 700,-519.5"/>
<text text-anchor="start" x="708" y="-575.5" font-family="Helvetica,sans-Serif" font-size="10.00">std::vector&lt; altintegration</text>
<text text-anchor="middle" x="762.5" y="-564.5" font-family="Helvetica,sans-Serif" font-size="10.00">::btc::TxIn &gt;</text>
<polyline fill="none" stroke="black" points="700,-557.5 825,-557.5 "/>
<text text-anchor="middle" x="762.5" y="-545.5" font-family="Helvetica,sans-Serif" font-size="10.00"> </text>
<polyline fill="none" stroke="black" points="700,-538.5 825,-538.5 "/>
<text text-anchor="middle" x="762.5" y="-526.5" font-family="Helvetica,sans-Serif" font-size="10.00"> </text>
</a>
</g>
</g>
<!-- Node11&#45;&gt;Node10 -->
<g id="edge11" class="edge">
<title>Node11&#45;&gt;Node10</title>
<path fill="none" stroke="#404040" d="M779.07,-519.23C784.6,-508.13 790.94,-495.4 797.18,-482.88"/>
<polygon fill="none" stroke="#404040" points="797.26,-482.72 796.35,-475.56 802.61,-471.98 803.51,-479.13 797.26,-482.72"/>
<text text-anchor="middle" x="803.5" y="-493" font-family="Helvetica,sans-Serif" font-size="10.00"> +vin</text>
</g>
<!-- Node12 -->
<g id="node12" class="node">
<title>Node12</title>
<g id="a_node12"><a xlink:href="structaltintegration_1_1btc_1_1TxIn.html" target="_top" xlink:title="An input of a transaction.">
<polygon fill="white" stroke="black" points="388,-715.5 388,-794.5 543,-794.5 543,-715.5 388,-715.5"/>
<text text-anchor="start" x="396" y="-782.5" font-family="Helvetica,sans-Serif" font-size="10.00">altintegration::btc</text>
<text text-anchor="middle" x="465.5" y="-771.5" font-family="Helvetica,sans-Serif" font-size="10.00">::TxIn</text>
<polyline fill="none" stroke="black" points="388,-764.5 543,-764.5 "/>
<text text-anchor="start" x="396" y="-752.5" font-family="Helvetica,sans-Serif" font-size="10.00">+ nSequence</text>
<text text-anchor="start" x="396" y="-741.5" font-family="Helvetica,sans-Serif" font-size="10.00">+ ADD_SERIALIZE_METHODS</text>
<polyline fill="none" stroke="black" points="388,-734.5 543,-734.5 "/>
<text text-anchor="start" x="396" y="-722.5" font-family="Helvetica,sans-Serif" font-size="10.00">+ SerializationOp()</text>
</a>
</g>
</g>
<!-- Node12&#45;&gt;Node11 -->
<g id="edge12" class="edge">
<title>Node12&#45;&gt;Node11</title>
<path fill="none" stroke="#404040" d="M523.12,-715.3C574.83,-680.56 650.44,-629.77 702.79,-594.61"/>
<polygon fill="none" stroke="#404040" points="702.97,-594.49 705.72,-587.82 712.93,-587.8 710.18,-594.46 702.97,-594.49"/>
<text text-anchor="middle" x="707" y="-649" font-family="Helvetica,sans-Serif" font-size="10.00"> +elements</text>
</g>
<!-- Node13&#45;&gt;Node12 -->
<g id="edge13" class="edge">
<title>Node13&#45;&gt;Node12</title>
<path fill="none" stroke="#404040" d="M288.36,-913.75C309.88,-883.59 342.7,-842.11 378.5,-813 383.2,-809.18 388.15,-805.39 393.22,-801.67"/>
<polygon fill="none" stroke="#404040" points="393.3,-801.62 395.86,-794.88 403.07,-794.65 400.51,-801.39 393.3,-801.62"/>
<text text-anchor="middle" x="399" y="-816" font-family="Helvetica,sans-Serif" font-size="10.00"> +prevout</text>
</g>
<!-- Node14 -->
<g id="node14" class="node">
<title>Node14</title>
<g id="a_node14"><a xlink:title=" ">
<polygon fill="white" stroke="black" points="537,-1206 537,-1263 644,-1263 644,-1206 537,-1206"/>
<text text-anchor="middle" x="590.5" y="-1251" font-family="Helvetica,sans-Serif" font-size="10.00">std::vector&lt; uint8_t &gt;</text>
<polyline fill="none" stroke="black" points="537,-1244 644,-1244 "/>
<text text-anchor="start" x="545" y="-1232" font-family="Helvetica,sans-Serif" font-size="10.00">+ elements</text>
<polyline fill="none" stroke="black" points="537,-1225 644,-1225 "/>
<text text-anchor="middle" x="590.5" y="-1213" font-family="Helvetica,sans-Serif" font-size="10.00"> </text>
</a>
</g>
</g>
<!-- Node14&#45;&gt;Node12 -->
<g id="edge15" class="edge">
<title>Node14&#45;&gt;Node12</title>
<path fill="none" stroke="#404040" d="M575.72,-1205.79C559.04,-1173.12 532.53,-1116.71 519.5,-1065 492.01,-955.9 527.64,-920.82 495.5,-813 494.79,-810.61 493.97,-808.21 493.08,-805.81"/>
<polygon fill="none" stroke="#404040" points="493.06,-805.77 487.04,-801.79 488.4,-794.71 494.42,-798.68 493.06,-805.77"/>
<text text-anchor="middle" x="543" y="-951" font-family="Helvetica,sans-Serif" font-size="10.00"> +scriptSig</text>
</g>
<!-- Node17 -->
<g id="node17" class="node">
<title>Node17</title>
<g id="a_node17"><a xlink:title=" ">
<polygon fill="white" stroke="black" points="358,-919.5 358,-987.5 473,-987.5 473,-919.5 358,-919.5"/>
<text text-anchor="start" x="366" y="-975.5" font-family="Helvetica,sans-Serif" font-size="10.00">std::vector&lt; std::vector</text>
<text text-anchor="middle" x="415.5" y="-964.5" font-family="Helvetica,sans-Serif" font-size="10.00">&lt; uint8_t &gt; &gt;</text>
<polyline fill="none" stroke="black" points="358,-957.5 473,-957.5 "/>
<text text-anchor="middle" x="415.5" y="-945.5" font-family="Helvetica,sans-Serif" font-size="10.00"> </text>
<polyline fill="none" stroke="black" points="358,-938.5 473,-938.5 "/>
<text text-anchor="middle" x="415.5" y="-926.5" font-family="Helvetica,sans-Serif" font-size="10.00"> </text>
</a>
</g>
</g>
<!-- Node14&#45;&gt;Node17 -->
<g id="edge19" class="edge">
<title>Node14&#45;&gt;Node17</title>
<path fill="none" stroke="#404040" d="M574.54,-1205.61C558.91,-1180.63 532.91,-1144.7 501.5,-1123 480.34,-1108.38 463.63,-1124.19 446.5,-1105 421.06,-1076.5 414.38,-1032.79 413.43,-999.81"/>
<polygon fill="none" stroke="#404040" points="413.43,-999.74 409.38,-993.78 413.32,-987.75 417.38,-993.71 413.43,-999.74"/>
<text text-anchor="middle" x="471" y="-1091.5" font-family="Helvetica,sans-Serif" font-size="10.00"> +elements</text>
</g>
<!-- Node19 -->
<g id="node19" class="node">
<title>Node19</title>
<g id="a_node19"><a xlink:href="structaltintegration_1_1btc_1_1TxOut.html" target="_top" xlink:title="An output of a transaction.">
<polygon fill="white" stroke="black" points="575,-914 575,-993 730,-993 730,-914 575,-914"/>
<text text-anchor="start" x="583" y="-981" font-family="Helvetica,sans-Serif" font-size="10.00">altintegration::btc</text>
<text text-anchor="middle" x="652.5" y="-970" font-family="Helvetica,sans-Serif" font-size="10.00">::TxOut</text>
<polyline fill="none" stroke="black" points="575,-963 730,-963 "/>
<text text-anchor="start" x="583" y="-951" font-family="Helvetica,sans-Serif" font-size="10.00">+ nValue</text>
<text text-anchor="start" x="583" y="-940" font-family="Helvetica,sans-Serif" font-size="10.00">+ ADD_SERIALIZE_METHODS</text>
<polyline fill="none" stroke="black" points="575,-933 730,-933 "/>
<text text-anchor="start" x="583" y="-921" font-family="Helvetica,sans-Serif" font-size="10.00">+ SerializationOp()</text>
</a>
</g>
</g>
<!-- Node14&#45;&gt;Node19 -->
<g id="edge24" class="edge">
<title>Node14&#45;&gt;Node19</title>
<path fill="none" stroke="#404040" d="M596.61,-1205.98C606.97,-1159.4 628.1,-1064.3 641.21,-1005.33"/>
<polygon fill="none" stroke="#404040" points="641.27,-1005.03 638.67,-998.31 643.87,-993.32 646.48,-1000.04 641.27,-1005.03"/>
<text text-anchor="middle" x="656" y="-1091.5" font-family="Helvetica,sans-Serif" font-size="10.00"> +scriptPubKey</text>
</g>
<!-- Node15 -->
<g id="node15" class="node">
<title>Node15</title>
<g id="a_node15"><a xlink:title=" ">
<polygon fill="white" stroke="black" points="724.5,-1470.5 724.5,-1527.5 808.5,-1527.5 808.5,-1470.5 724.5,-1470.5"/>
<text text-anchor="middle" x="766.5" y="-1515.5" font-family="Helvetica,sans-Serif" font-size="10.00">std::vector&lt; T &gt;</text>
<polyline fill="none" stroke="black" points="724.5,-1508.5 808.5,-1508.5 "/>
<text text-anchor="middle" x="766.5" y="-1496.5" font-family="Helvetica,sans-Serif" font-size="10.00"> </text>
<polyline fill="none" stroke="black" points="724.5,-1489.5 808.5,-1489.5 "/>
<text text-anchor="middle" x="766.5" y="-1477.5" font-family="Helvetica,sans-Serif" font-size="10.00"> </text>
</a>
</g>
</g>
<!-- Node15&#45;&gt;Node9 -->
<g id="edge26" class="edge">
<title>Node15&#45;&gt;Node9</title>
<path fill="none" stroke="orange" d="M817.22,-1466.47C880.22,-1422.95 979.5,-1338.08 979.5,-1235.5 979.5,-1235.5 979.5,-1235.5 979.5,-420 979.5,-370.26 932.07,-335.37 890.2,-314.26"/>
<polygon fill="orange" stroke="orange" points="814.89,-1463.82 808.58,-1472.34 818.82,-1469.61 814.89,-1463.82"/>
<text text-anchor="start" x="979.5" y="-758" font-family="Helvetica,sans-Serif" font-size="10.00"> &lt; altintegration::btc</text>
<text text-anchor="middle" x="1022" y="-747" font-family="Helvetica,sans-Serif" font-size="10.00">::Transaction &gt;</text>
</g>
<!-- Node15&#45;&gt;Node11 -->
<g id="edge21" class="edge">
<title>Node15&#45;&gt;Node11</title>
<path fill="none" stroke="orange" d="M766.5,-1460.19C766.5,-1409.19 766.5,-1315.49 766.5,-1235.5 766.5,-1235.5 766.5,-1235.5 766.5,-754 766.5,-695.45 764.76,-627.26 763.57,-587.68"/>
<polygon fill="orange" stroke="orange" points="763,-1460.41 766.5,-1470.41 770,-1460.41 763,-1460.41"/>
<text text-anchor="start" x="766.5" y="-956.5" font-family="Helvetica,sans-Serif" font-size="10.00"> &lt; altintegration::btc</text>
<text text-anchor="middle" x="809" y="-945.5" font-family="Helvetica,sans-Serif" font-size="10.00">::TxIn &gt;</text>
</g>
<!-- Node15&#45;&gt;Node14 -->
<g id="edge16" class="edge">
<title>Node15&#45;&gt;Node14</title>
<path fill="none" stroke="orange" d="M742.35,-1461.98C706.77,-1408.92 641.05,-1310.89 609.02,-1263.12"/>
<polygon fill="orange" stroke="orange" points="739.52,-1464.05 748,-1470.4 745.34,-1460.15 739.52,-1464.05"/>
<text text-anchor="middle" x="708" y="-1367" font-family="Helvetica,sans-Serif" font-size="10.00"> &lt; uint8_t &gt;</text>
</g>
<!-- Node15&#45;&gt;Node17 -->
<g id="edge20" class="edge">
<title>Node15&#45;&gt;Node17</title>
<path fill="none" stroke="orange" d="M714.43,-1490.04C640.34,-1475.68 506.52,-1437.89 443.5,-1346 366.9,-1234.31 392.36,-1060.07 407.58,-987.72"/>
<polygon fill="orange" stroke="orange" points="714,-1493.52 724.47,-1491.91 715.28,-1486.64 714,-1493.52"/>
<text text-anchor="start" x="443.5" y="-1237.5" font-family="Helvetica,sans-Serif" font-size="10.00"> &lt; std::vector&lt; uint8</text>
<text text-anchor="middle" x="486" y="-1226.5" font-family="Helvetica,sans-Serif" font-size="10.00">_t &gt; &gt;</text>
</g>
<!-- Node18 -->
<g id="node18" class="node">
<title>Node18</title>
<g id="a_node18"><a xlink:title=" ">
<polygon fill="white" stroke="black" points="799,-721 799,-789 924,-789 924,-721 799,-721"/>
<text text-anchor="start" x="807" y="-777" font-family="Helvetica,sans-Serif" font-size="10.00">std::vector&lt; altintegration</text>
<text text-anchor="middle" x="861.5" y="-766" font-family="Helvetica,sans-Serif" font-size="10.00">::btc::TxOut &gt;</text>
<polyline fill="none" stroke="black" points="799,-759 924,-759 "/>
<text text-anchor="middle" x="861.5" y="-747" font-family="Helvetica,sans-Serif" font-size="10.00"> </text>
<polyline fill="none" stroke="black" points="799,-740 924,-740 "/>
<text text-anchor="middle" x="861.5" y="-728" font-family="Helvetica,sans-Serif" font-size="10.00"> </text>
</a>
</g>
</g>
<!-- Node15&#45;&gt;Node18 -->
<g id="edge25" class="edge">
<title>Node15&#45;&gt;Node18</title>
<path fill="none" stroke="orange" d="M776.62,-1460.56C796.24,-1385.97 838.97,-1213.24 855.5,-1065 866.65,-965.01 864.69,-845.73 862.84,-789.06"/>
<polygon fill="orange" stroke="orange" points="773.19,-1459.86 774.01,-1470.42 779.95,-1461.65 773.19,-1459.86"/>
<text text-anchor="start" x="852.5" y="-1097" font-family="Helvetica,sans-Serif" font-size="10.00"> &lt; altintegration::btc</text>
<text text-anchor="middle" x="895" y="-1086" font-family="Helvetica,sans-Serif" font-size="10.00">::TxOut &gt;</text>
</g>
<!-- Node16 -->
<g id="node16" class="node">
<title>Node16</title>
<g id="a_node16"><a xlink:title=" ">
<polygon fill="white" stroke="#bfbfbf" points="752,-1652.5 752,-1709.5 781,-1709.5 781,-1652.5 752,-1652.5"/>
<text text-anchor="middle" x="766.5" y="-1697.5" font-family="Helvetica,sans-Serif" font-size="10.00">T</text>
<polyline fill="none" stroke="#bfbfbf" points="752,-1690.5 781,-1690.5 "/>
<text text-anchor="middle" x="766.5" y="-1678.5" font-family="Helvetica,sans-Serif" font-size="10.00"> </text>
<polyline fill="none" stroke="#bfbfbf" points="752,-1671.5 781,-1671.5 "/>
<text text-anchor="middle" x="766.5" y="-1659.5" font-family="Helvetica,sans-Serif" font-size="10.00"> </text>
</a>
</g>
</g>
<!-- Node16&#45;&gt;Node15 -->
<g id="edge17" class="edge">
<title>Node16&#45;&gt;Node15</title>
<path fill="none" stroke="#404040" d="M766.5,-1652.27C766.5,-1622.28 766.5,-1574.18 766.5,-1540.08"/>
<polygon fill="none" stroke="#404040" points="766.5,-1539.76 762.5,-1533.76 766.5,-1527.76 770.5,-1533.76 766.5,-1539.76"/>
<text text-anchor="middle" x="791" y="-1626" font-family="Helvetica,sans-Serif" font-size="10.00"> +elements</text>
</g>
<!-- Node17&#45;&gt;Node12 -->
<g id="edge18" class="edge">
<title>Node17&#45;&gt;Node12</title>
<path fill="none" stroke="#404040" d="M413.78,-919.4C413.35,-890.51 415.29,-847.87 427.5,-813 428.39,-810.45 429.43,-807.9 430.57,-805.37"/>
<polygon fill="none" stroke="#404040" points="430.68,-805.16 429.88,-798 436.19,-794.5 436.99,-801.67 430.68,-805.16"/>
<text text-anchor="middle" x="461.5" y="-816" font-family="Helvetica,sans-Serif" font-size="10.00"> +scriptWitness</text>
</g>
<!-- Node18&#45;&gt;Node10 -->
<g id="edge22" class="edge">
<title>Node18&#45;&gt;Node10</title>
<path fill="none" stroke="#404040" d="M858.12,-720.95C852.46,-665.72 841,-553.8 833.82,-483.67"/>
<polygon fill="none" stroke="#404040" points="833.79,-483.45 829.2,-477.88 832.57,-471.51 837.16,-477.07 833.79,-483.45"/>
<text text-anchor="middle" x="858.5" y="-551" font-family="Helvetica,sans-Serif" font-size="10.00"> +vout</text>
</g>
<!-- Node19&#45;&gt;Node18 -->
<g id="edge23" class="edge">
<title>Node19&#45;&gt;Node18</title>
<path fill="none" stroke="#404040" d="M680.85,-913.93C698.05,-891.74 721.14,-863.99 744.5,-842 761.77,-825.74 782.15,-809.82 801.02,-796.18"/>
<polygon fill="none" stroke="#404040" points="801.25,-796.02 803.82,-789.28 811.02,-789.06 808.46,-795.8 801.25,-796.02"/>
<text text-anchor="middle" x="802" y="-816" font-family="Helvetica,sans-Serif" font-size="10.00"> +elements</text>
</g>
</g>
</svg>
        <g id="navigator" transform="translate(0 0)" fill="#404254">
                <rect fill="#f2f5e9" fill-opacity="0.5" stroke="#606060" stroke-width=".5" x="0" y="0" width="60" height="60"/>
                <use id="zoomplus" xlink:href="#zoomPlus" x="17" y="9" onmousedown="handleZoom(evt,'in')"/>
                <use id="zoomminus" xlink:href="#zoomMin" x="42" y="9" onmousedown="handleZoom(evt,'out')"/>
                <use id="reset" xlink:href="#resetDef" x="30" y="36" onmousedown="handleReset()"/>
                <g id="arrowUp" xlink:href="#dirArrow" transform="translate(30 24)" onmousedown="handlePan(0,-1)">
                  <use xlink:href="#rim" fill="#404040">
                        <set attributeName="fill" to="#808080" begin="arrowUp.mouseover" end="arrowUp.mouseout"/>
                  </use>
                  <path fill="none" stroke="white" stroke-width="1.5" d="M0,-3.0v7 M-2.5,-0.5L0,-3.0L2.5,-0.5"/>
                </g>
                <g id="arrowRight" xlink:href="#dirArrow" transform="rotate(90) translate(36 -43)" onmousedown="handlePan(1,0)">
                  <use xlink:href="#rim" fill="#404040">
                        <set attributeName="fill" to="#808080" begin="arrowRight.mouseover" end="arrowRight.mouseout"/>
                  </use>
                  <path fill="none" stroke="white" stroke-width="1.5" d="M0,-3.0v7 M-2.5,-0.5L0,-3.0L2.5,-0.5"/>
                </g>
                <g id="arrowDown" xlink:href="#dirArrow" transform="rotate(180) translate(-30 -48)" onmousedown="handlePan(0,1)">
                  <use xlink:href="#rim" fill="#404040">
                        <set attributeName="fill" to="#808080" begin="arrowDown.mouseover" end="arrowDown.mouseout"/>
                  </use>
                  <path fill="none" stroke="white" stroke-width="1.5" d="M0,-3.0v7 M-2.5,-0.5L0,-3.0L2.5,-0.5"/>
                </g>
                <g id="arrowLeft" xlink:href="#dirArrow" transform="rotate(270) translate(-36 17)" onmousedown="handlePan(-1,0)">
                  <use xlink:href="#rim" fill="#404040">
                        <set attributeName="fill" to="#808080" begin="arrowLeft.mouseover" end="arrowLeft.mouseout"/>
                  </use>
                  <path fill="none" stroke="white" stroke-width="1.5" d="M0,-3.0v7 M-2.5,-0.5L0,-3.0L2.5,-0.5"/>
                </g>
        </g>
        <svg viewBox="0 0 15 15" width="100%" height="30px" preserveAspectRatio="xMaxYMin meet">
         <g id="arrow_out" transform="scale(0.3 0.3)">
          <a xlink:href="structaltintegration_1_1btc_1_1BlockMsg__coll__graph_org.svg" target="_base">
           <rect id="button" ry="5" rx="5" y="6" x="6" height="38" width="38"
                fill="#f2f5e9" fill-opacity="0.5" stroke="#606060" stroke-width="1.0"/>
           <path id="arrow"
             d="M 11.500037,31.436501 C 11.940474,20.09759 22.043105,11.32322 32.158766,21.979434 L 37.068811,17.246167 C 37.068811,17.246167 37.088388,32 37.088388,32 L 22.160133,31.978069 C 22.160133,31.978069 26.997745,27.140456 26.997745,27.140456 C 18.528582,18.264221 13.291696,25.230495 11.500037,31.436501 z"
             style="fill:#404040;"/>
          </a>
         </g>
        </svg>
</svg>
