<?xml version="1.0" encoding="UTF-8" standalone="no"?>
<!DOCTYPE svg PUBLIC "-//W3C//DTD SVG 1.1//EN"
 "http://www.w3.org/Graphics/SVG/1.1/DTD/svg11.dtd">
<!-- Generated by graphviz version 2.44.0 ()
 -->
<!-- Title: altintegration::AltBlockTree Pages: 1 -->
<!--zoomable 1655 -->
<svg id="main" version="1.1" xmlns="http://www.w3.org/2000/svg" xmlns:xlink="http://www.w3.org/1999/xlink" xml:space="preserve" onload="init(evt)">
<style type="text/css"><![CDATA[
.edge:hover path { stroke: red; }
.edge:hover polygon { stroke: red; fill: red; }
]]></style>
<script type="text/javascript"><![CDATA[
var edges = document.getElementsByTagName('g');
if (edges && edges.length) {
  for (var i=0;i<edges.length;i++) {
    if (edges[i].id.substr(0,4)=='edge') {
      edges[i].setAttribute('class','edge');
    }
  }
}
]]></script>
        <defs>
                <circle id="rim" cx="0" cy="0" r="7"/>
                <circle id="rim2" cx="0" cy="0" r="3.5"/>
                <g id="zoomPlus">
                        <use xlink:href="#rim" fill="#404040">
                                <set attributeName="fill" to="#808080" begin="zoomplus.mouseover" end="zoomplus.mouseout"/>
                        </use>
                        <path d="M-4,0h8M0,-4v8" fill="none" stroke="white" stroke-width="1.5" pointer-events="none"/>
                </g>
                <g id="zoomMin">
                        <use xlink:href="#rim" fill="#404040">
                                <set attributeName="fill" to="#808080" begin="zoomminus.mouseover" end="zoomminus.mouseout"/>
                        </use>
                        <path d="M-4,0h8" fill="none" stroke="white" stroke-width="1.5" pointer-events="none"/>
                </g>
                <g id="dirArrow">
                        <path fill="none" stroke="white" stroke-width="1.5" d="M0,-3.0v7 M-2.5,-0.5L0,-3.0L2.5,-0.5"/>
                </g>
               <g id="resetDef">
                       <use xlink:href="#rim2" fill="#404040">
                               <set attributeName="fill" to="#808080" begin="reset.mouseover" end="reset.mouseout"/>
                       </use>
               </g>
        </defs>

<script type="text/javascript">
var viewWidth = 848;
var viewHeight = 1655;
var sectionId = 'dynsection-1';
</script>
<script xlink:href="svgpan.js"/>
<svg id="graph" class="graph">
<g id="viewport">
<title>altintegration::AltBlockTree</title>
<polygon fill="white" stroke="transparent" points="-4,4 -4,-1651 844,-1651 844,4 -4,4"/>
<!-- Node1 -->
<g id="node1" class="node">
<title>Node1</title>
<g id="a_node1"><a xlink:title="Represents simplified view on Altchain&#39;s block tree, maintains VBK tree and BTC tree.">
<polygon fill="#bfbfbf" stroke="black" points="209,-0.5 209,-233.5 344,-233.5 344,-0.5 209,-0.5"/>
<text text-anchor="middle" x="276.5" y="-221.5" font-family="Helvetica,sans-Serif" font-size="10.00">altintegration::AltBlockTree</text>
<polyline fill="none" stroke="black" points="209,-214.5 344,-214.5 "/>
<text text-anchor="start" x="217" y="-202.5" font-family="Helvetica,sans-Serif" font-size="10.00">+ onInvalidBlockConnected</text>
<text text-anchor="start" x="217" y="-191.5" font-family="Helvetica,sans-Serif" font-size="10.00">+ onBlockConnected</text>
<text text-anchor="start" x="217" y="-180.5" font-family="Helvetica,sans-Serif" font-size="10.00">+ onBeforeOverrideTip</text>
<polyline fill="none" stroke="black" points="209,-173.5 344,-173.5 "/>
<text text-anchor="start" x="217" y="-161.5" font-family="Helvetica,sans-Serif" font-size="10.00">+ ~AltBlockTree()</text>
<text text-anchor="start" x="217" y="-150.5" font-family="Helvetica,sans-Serif" font-size="10.00">+ AltBlockTree()</text>
<text text-anchor="start" x="217" y="-139.5" font-family="Helvetica,sans-Serif" font-size="10.00">+ acceptBlockHeader()</text>
<text text-anchor="start" x="217" y="-128.5" font-family="Helvetica,sans-Serif" font-size="10.00">+ acceptBlock()</text>
<text text-anchor="start" x="217" y="-117.5" font-family="Helvetica,sans-Serif" font-size="10.00">+ acceptBlock()</text>
<text text-anchor="start" x="217" y="-106.5" font-family="Helvetica,sans-Serif" font-size="10.00">+ acceptBlock()</text>
<text text-anchor="start" x="217" y="-95.5" font-family="Helvetica,sans-Serif" font-size="10.00">+ getConnectedTipsAfter()</text>
<text text-anchor="start" x="217" y="-84.5" font-family="Helvetica,sans-Serif" font-size="10.00">+ loadBlock()</text>
<text text-anchor="start" x="217" y="-73.5" font-family="Helvetica,sans-Serif" font-size="10.00">+ loadTip()</text>
<text text-anchor="start" x="217" y="-62.5" font-family="Helvetica,sans-Serif" font-size="10.00">+ comparePopScore()</text>
<text text-anchor="start" x="217" y="-51.5" font-family="Helvetica,sans-Serif" font-size="10.00">+ setState()</text>
<text text-anchor="start" x="217" y="-40.5" font-family="Helvetica,sans-Serif" font-size="10.00">+ removeSubtree()</text>
<text text-anchor="start" x="217" y="-29.5" font-family="Helvetica,sans-Serif" font-size="10.00">+ vbk()</text>
<text text-anchor="start" x="217" y="-18.5" font-family="Helvetica,sans-Serif" font-size="10.00">+ btc()</text>
<text text-anchor="start" x="217" y="-7.5" font-family="Helvetica,sans-Serif" font-size="10.00">+ getParams()</text>
</a>
</g>
</g>
<!-- Node2 -->
<g id="node2" class="node">
<title>Node2</title>
<g id="a_node2"><a xlink:href="structaltintegration_1_1BaseBlockTree.html" target="_top" xlink:title=" ">
<polygon fill="white" stroke="black" points="214.5,-271.5 214.5,-482.5 338.5,-482.5 338.5,-271.5 214.5,-271.5"/>
<text text-anchor="start" x="222.5" y="-470.5" font-family="Helvetica,sans-Serif" font-size="10.00">altintegration::BaseBlock</text>
<text text-anchor="middle" x="276.5" y="-459.5" font-family="Helvetica,sans-Serif" font-size="10.00">Tree&lt; AltBlock &gt;</text>
<polyline fill="none" stroke="black" points="214.5,-452.5 338.5,-452.5 "/>
<text text-anchor="start" x="222.5" y="-440.5" font-family="Helvetica,sans-Serif" font-size="10.00"># validity_sig_</text>
<polyline fill="none" stroke="black" points="214.5,-433.5 338.5,-433.5 "/>
<text text-anchor="start" x="222.5" y="-421.5" font-family="Helvetica,sans-Serif" font-size="10.00">+ getTips()</text>
<text text-anchor="start" x="222.5" y="-410.5" font-family="Helvetica,sans-Serif" font-size="10.00">+ getBlocks()</text>
<text text-anchor="start" x="222.5" y="-399.5" font-family="Helvetica,sans-Serif" font-size="10.00">+ ~BaseBlockTree()</text>
<text text-anchor="start" x="222.5" y="-388.5" font-family="Helvetica,sans-Serif" font-size="10.00">+ BaseBlockTree()</text>
<text text-anchor="start" x="222.5" y="-377.5" font-family="Helvetica,sans-Serif" font-size="10.00">+ BaseBlockTree()</text>
<text text-anchor="start" x="222.5" y="-366.5" font-family="Helvetica,sans-Serif" font-size="10.00">+ BaseBlockTree()</text>
<text text-anchor="start" x="222.5" y="-355.5" font-family="Helvetica,sans-Serif" font-size="10.00">+ operator=()</text>
<text text-anchor="start" x="222.5" y="-344.5" font-family="Helvetica,sans-Serif" font-size="10.00">+ operator=()</text>
<text text-anchor="start" x="222.5" y="-333.5" font-family="Helvetica,sans-Serif" font-size="10.00">+ getBestChain()</text>
<text text-anchor="start" x="222.5" y="-322.5" font-family="Helvetica,sans-Serif" font-size="10.00">+ makePrevHash()</text>
<text text-anchor="start" x="222.5" y="-311.5" font-family="Helvetica,sans-Serif" font-size="10.00">and 22 more...</text>
<text text-anchor="start" x="222.5" y="-300.5" font-family="Helvetica,sans-Serif" font-size="10.00"># eraseBlock()</text>
<text text-anchor="start" x="222.5" y="-289.5" font-family="Helvetica,sans-Serif" font-size="10.00"># toPrettyString()</text>
<text text-anchor="start" x="222.5" y="-278.5" font-family="Helvetica,sans-Serif" font-size="10.00"># finalizeBlockImpl()</text>
</a>
</g>
</g>
<!-- Node2&#45;&gt;Node1 -->
<g id="edge1" class="edge">
<title>Node2&#45;&gt;Node1</title>
<path fill="none" stroke="midnightblue" d="M276.5,-261.18C276.5,-252.04 276.5,-242.82 276.5,-233.68"/>
<polygon fill="none" stroke="midnightblue" points="273,-261.43 276.5,-271.43 280,-261.43 273,-261.43"/>
</g>
<!-- Node3 -->
<g id="node3" class="node">
<title>Node3</title>
<g id="a_node3"><a xlink:href="structaltintegration_1_1Chain.html" target="_top" xlink:title=" ">
<polygon fill="white" stroke="black" points="0,-789.5 0,-967.5 141,-967.5 141,-789.5 0,-789.5"/>
<text text-anchor="start" x="8" y="-955.5" font-family="Helvetica,sans-Serif" font-size="10.00">altintegration::Chain</text>
<text text-anchor="middle" x="70.5" y="-944.5" font-family="Helvetica,sans-Serif" font-size="10.00">&lt; altintegration::BlockIndex &gt;</text>
<polyline fill="none" stroke="black" points="0,-937.5 141,-937.5 "/>
<text text-anchor="middle" x="70.5" y="-925.5" font-family="Helvetica,sans-Serif" font-size="10.00"> </text>
<polyline fill="none" stroke="black" points="0,-918.5 141,-918.5 "/>
<text text-anchor="start" x="8" y="-906.5" font-family="Helvetica,sans-Serif" font-size="10.00">+ Chain()</text>
<text text-anchor="start" x="8" y="-895.5" font-family="Helvetica,sans-Serif" font-size="10.00">+ Chain()</text>
<text text-anchor="start" x="8" y="-884.5" font-family="Helvetica,sans-Serif" font-size="10.00">+ Chain()</text>
<text text-anchor="start" x="8" y="-873.5" font-family="Helvetica,sans-Serif" font-size="10.00">+ getStartHeight()</text>
<text text-anchor="start" x="8" y="-862.5" font-family="Helvetica,sans-Serif" font-size="10.00">+ firstHeight()</text>
<text text-anchor="start" x="8" y="-851.5" font-family="Helvetica,sans-Serif" font-size="10.00">+ contains()</text>
<text text-anchor="start" x="8" y="-840.5" font-family="Helvetica,sans-Serif" font-size="10.00">+ operator[]()</text>
<text text-anchor="start" x="8" y="-829.5" font-family="Helvetica,sans-Serif" font-size="10.00">+ next()</text>
<text text-anchor="start" x="8" y="-818.5" font-family="Helvetica,sans-Serif" font-size="10.00">+ chainHeight()</text>
<text text-anchor="start" x="8" y="-807.5" font-family="Helvetica,sans-Serif" font-size="10.00">+ empty()</text>
<text text-anchor="start" x="8" y="-796.5" font-family="Helvetica,sans-Serif" font-size="10.00">and 14 more...</text>
</a>
</g>
</g>
<!-- Node3&#45;&gt;Node2 -->
<g id="edge2" class="edge">
<title>Node3&#45;&gt;Node2</title>
<path fill="none" stroke="#404040" d="M52.72,-789.25C42.46,-715.8 38.59,-610.58 79.5,-530 105.93,-477.94 159.37,-438.48 203.93,-412.83"/>
<polygon fill="none" stroke="#404040" points="203.99,-412.79 207.26,-406.37 214.45,-406.92 211.18,-413.35 203.99,-412.79"/>
<text text-anchor="middle" x="111.5" y="-633.5" font-family="Helvetica,sans-Serif" font-size="10.00"> #activeChain_</text>
</g>
<!-- Node19 -->
<g id="node19" class="node">
<title>Node19</title>
<g id="a_node19"><a xlink:href="structaltintegration_1_1BaseBlockTree.html" target="_top" xlink:title="Base block tree that stores all blocks, maintains tree tips, maintains active chain.">
<polygon fill="white" stroke="black" points="152.5,-530.5 152.5,-741.5 276.5,-741.5 276.5,-530.5 152.5,-530.5"/>
<text text-anchor="start" x="160.5" y="-729.5" font-family="Helvetica,sans-Serif" font-size="10.00">altintegration::BaseBlock</text>
<text text-anchor="middle" x="214.5" y="-718.5" font-family="Helvetica,sans-Serif" font-size="10.00">Tree&lt; Block &gt;</text>
<polyline fill="none" stroke="black" points="152.5,-711.5 276.5,-711.5 "/>
<text text-anchor="start" x="160.5" y="-699.5" font-family="Helvetica,sans-Serif" font-size="10.00"># validity_sig_</text>
<polyline fill="none" stroke="black" points="152.5,-692.5 276.5,-692.5 "/>
<text text-anchor="start" x="160.5" y="-680.5" font-family="Helvetica,sans-Serif" font-size="10.00">+ getTips()</text>
<text text-anchor="start" x="160.5" y="-669.5" font-family="Helvetica,sans-Serif" font-size="10.00">+ getBlocks()</text>
<text text-anchor="start" x="160.5" y="-658.5" font-family="Helvetica,sans-Serif" font-size="10.00">+ ~BaseBlockTree()</text>
<text text-anchor="start" x="160.5" y="-647.5" font-family="Helvetica,sans-Serif" font-size="10.00">+ BaseBlockTree()</text>
<text text-anchor="start" x="160.5" y="-636.5" font-family="Helvetica,sans-Serif" font-size="10.00">+ BaseBlockTree()</text>
<text text-anchor="start" x="160.5" y="-625.5" font-family="Helvetica,sans-Serif" font-size="10.00">+ operator=()</text>
<text text-anchor="start" x="160.5" y="-614.5" font-family="Helvetica,sans-Serif" font-size="10.00">+ BaseBlockTree()</text>
<text text-anchor="start" x="160.5" y="-603.5" font-family="Helvetica,sans-Serif" font-size="10.00">+ operator=()</text>
<text text-anchor="start" x="160.5" y="-592.5" font-family="Helvetica,sans-Serif" font-size="10.00">+ getBestChain()</text>
<text text-anchor="start" x="160.5" y="-581.5" font-family="Helvetica,sans-Serif" font-size="10.00">+ makePrevHash()</text>
<text text-anchor="start" x="160.5" y="-570.5" font-family="Helvetica,sans-Serif" font-size="10.00">and 22 more...</text>
<text text-anchor="start" x="160.5" y="-559.5" font-family="Helvetica,sans-Serif" font-size="10.00"># eraseBlock()</text>
<text text-anchor="start" x="160.5" y="-548.5" font-family="Helvetica,sans-Serif" font-size="10.00"># toPrettyString()</text>
<text text-anchor="start" x="160.5" y="-537.5" font-family="Helvetica,sans-Serif" font-size="10.00"># finalizeBlockImpl()</text>
</a>
</g>
</g>
<!-- Node3&#45;&gt;Node19 -->
<g id="edge25" class="edge">
<title>Node3&#45;&gt;Node19</title>
<path fill="none" stroke="#404040" d="M119.37,-789.3C125.07,-779.38 130.86,-769.44 136.5,-760 139.62,-754.77 142.85,-749.44 146.12,-744.08"/>
<polygon fill="none" stroke="#404040" points="146.21,-743.94 145.94,-736.74 152.49,-733.72 152.75,-740.93 146.21,-743.94"/>
<text text-anchor="middle" x="168.5" y="-763" font-family="Helvetica,sans-Serif" font-size="10.00"> #activeChain_</text>
</g>
<!-- Node4 -->
<g id="node4" class="node">
<title>Node4</title>
<g id="a_node4"><a xlink:href="structaltintegration_1_1Chain.html" target="_top" xlink:title="Fully in&#45;memory chain representation.">
<polygon fill="white" stroke="black" points="20,-1043 20,-1221 121,-1221 121,-1043 20,-1043"/>
<text text-anchor="start" x="28" y="-1209" font-family="Helvetica,sans-Serif" font-size="10.00">altintegration::Chain</text>
<text text-anchor="middle" x="70.5" y="-1198" font-family="Helvetica,sans-Serif" font-size="10.00">&lt; BlockIndexT &gt;</text>
<polyline fill="none" stroke="black" points="20,-1191 121,-1191 "/>
<text text-anchor="middle" x="70.5" y="-1179" font-family="Helvetica,sans-Serif" font-size="10.00"> </text>
<polyline fill="none" stroke="black" points="20,-1172 121,-1172 "/>
<text text-anchor="start" x="28" y="-1160" font-family="Helvetica,sans-Serif" font-size="10.00">+ Chain()</text>
<text text-anchor="start" x="28" y="-1149" font-family="Helvetica,sans-Serif" font-size="10.00">+ Chain()</text>
<text text-anchor="start" x="28" y="-1138" font-family="Helvetica,sans-Serif" font-size="10.00">+ Chain()</text>
<text text-anchor="start" x="28" y="-1127" font-family="Helvetica,sans-Serif" font-size="10.00">+ getStartHeight()</text>
<text text-anchor="start" x="28" y="-1116" font-family="Helvetica,sans-Serif" font-size="10.00">+ firstHeight()</text>
<text text-anchor="start" x="28" y="-1105" font-family="Helvetica,sans-Serif" font-size="10.00">+ contains()</text>
<text text-anchor="start" x="28" y="-1094" font-family="Helvetica,sans-Serif" font-size="10.00">+ operator[]()</text>
<text text-anchor="start" x="28" y="-1083" font-family="Helvetica,sans-Serif" font-size="10.00">+ next()</text>
<text text-anchor="start" x="28" y="-1072" font-family="Helvetica,sans-Serif" font-size="10.00">+ chainHeight()</text>
<text text-anchor="start" x="28" y="-1061" font-family="Helvetica,sans-Serif" font-size="10.00">+ empty()</text>
<text text-anchor="start" x="28" y="-1050" font-family="Helvetica,sans-Serif" font-size="10.00">and 14 more...</text>
</a>
</g>
</g>
<!-- Node4&#45;&gt;Node3 -->
<g id="edge3" class="edge">
<title>Node4&#45;&gt;Node3</title>
<path fill="none" stroke="orange" d="M70.5,-1032.59C70.5,-1011.16 70.5,-988.61 70.5,-967.6"/>
<polygon fill="orange" stroke="orange" points="67,-1032.68 70.5,-1042.68 74,-1032.68 67,-1032.68"/>
<text text-anchor="middle" x="134" y="-994.5" font-family="Helvetica,sans-Serif" font-size="10.00"> &lt; altintegration::BlockIndex &gt;</text>
</g>
<!-- Node5 -->
<g id="node5" class="node">
<title>Node5</title>
<g id="a_node5"><a xlink:title=" ">
<polygon fill="white" stroke="#bfbfbf" points="161,-839 161,-918 298,-918 298,-839 161,-839"/>
<text text-anchor="start" x="169" y="-906" font-family="Helvetica,sans-Serif" font-size="10.00">std::unordered_map</text>
<text text-anchor="start" x="169" y="-895" font-family="Helvetica,sans-Serif" font-size="10.00">&lt; prev_block_hash_t,</text>
<text text-anchor="middle" x="229.5" y="-884" font-family="Helvetica,sans-Serif" font-size="10.00"> std::unique_ptr&lt; index_t &gt; &gt;</text>
<polyline fill="none" stroke="#bfbfbf" points="161,-877 298,-877 "/>
<text text-anchor="start" x="169" y="-865" font-family="Helvetica,sans-Serif" font-size="10.00">+ keys</text>
<polyline fill="none" stroke="#bfbfbf" points="161,-858 298,-858 "/>
<text text-anchor="middle" x="229.5" y="-846" font-family="Helvetica,sans-Serif" font-size="10.00"> </text>
</a>
</g>
</g>
<!-- Node5&#45;&gt;Node2 -->
<g id="edge4" class="edge">
<title>Node5&#45;&gt;Node2</title>
<path fill="none" stroke="#404040" d="M262.34,-838.77C276.41,-819.67 291.25,-795.51 298.5,-771 325.13,-680.93 316.82,-574.29 303.42,-494.84"/>
<polygon fill="none" stroke="#404040" points="303.38,-494.65 298.41,-489.42 301.32,-482.82 306.29,-488.05 303.38,-494.65"/>
<text text-anchor="middle" x="336.5" y="-633.5" font-family="Helvetica,sans-Serif" font-size="10.00"> #blocks_</text>
</g>
<!-- Node5&#45;&gt;Node19 -->
<g id="edge26" class="edge">
<title>Node5&#45;&gt;Node19</title>
<path fill="none" stroke="#404040" d="M218.18,-838.93C212.87,-818.87 207.14,-793.83 204.5,-771 203.85,-765.36 203.41,-759.58 203.15,-753.74"/>
<polygon fill="none" stroke="#404040" points="203.15,-753.68 199,-747.78 202.86,-741.68 207,-747.59 203.15,-753.68"/>
<text text-anchor="middle" x="225.5" y="-763" font-family="Helvetica,sans-Serif" font-size="10.00"> #blocks_</text>
</g>
<!-- Node6 -->
<g id="node6" class="node">
<title>Node6</title>
<g id="a_node6"><a xlink:title=" ">
<polygon fill="white" stroke="#bfbfbf" points="169,-1256.5 169,-1313.5 296,-1313.5 296,-1256.5 169,-1256.5"/>
<text text-anchor="middle" x="232.5" y="-1301.5" font-family="Helvetica,sans-Serif" font-size="10.00">std::unique_ptr&lt; index_t &gt;</text>
<polyline fill="none" stroke="#bfbfbf" points="169,-1294.5 296,-1294.5 "/>
<text text-anchor="start" x="177" y="-1282.5" font-family="Helvetica,sans-Serif" font-size="10.00">+ ptr</text>
<polyline fill="none" stroke="#bfbfbf" points="169,-1275.5 296,-1275.5 "/>
<text text-anchor="start" x="177" y="-1263.5" font-family="Helvetica,sans-Serif" font-size="10.00">+ operator&#45;&gt;()</text>
</a>
</g>
</g>
<!-- Node6&#45;&gt;Node5 -->
<g id="edge5" class="edge">
<title>Node6&#45;&gt;Node5</title>
<path fill="none" stroke="#404040" d="M225.5,-1256.43C224.25,-1250.39 223.15,-1244.01 222.5,-1238 210.78,-1128.89 218.52,-1000.06 224.48,-930.4"/>
<polygon fill="none" stroke="#404040" points="224.51,-930.06 221.05,-923.73 225.56,-918.1 229.02,-924.43 224.51,-930.06"/>
<text text-anchor="middle" x="247" y="-1129.5" font-family="Helvetica,sans-Serif" font-size="10.00"> +elements</text>
</g>
<!-- Node7 -->
<g id="node7" class="node">
<title>Node7</title>
<g id="a_node7"><a xlink:title=" ">
<polygon fill="white" stroke="#bfbfbf" points="198.5,-1408.5 198.5,-1465.5 300.5,-1465.5 300.5,-1408.5 198.5,-1408.5"/>
<text text-anchor="middle" x="249.5" y="-1453.5" font-family="Helvetica,sans-Serif" font-size="10.00">std::unique_ptr&lt; T &gt;</text>
<polyline fill="none" stroke="#bfbfbf" points="198.5,-1446.5 300.5,-1446.5 "/>
<text text-anchor="middle" x="249.5" y="-1434.5" font-family="Helvetica,sans-Serif" font-size="10.00"> </text>
<polyline fill="none" stroke="#bfbfbf" points="198.5,-1427.5 300.5,-1427.5 "/>
<text text-anchor="start" x="206.5" y="-1415.5" font-family="Helvetica,sans-Serif" font-size="10.00">+ operator&#45;&gt;()</text>
</a>
</g>
</g>
<!-- Node7&#45;&gt;Node6 -->
<g id="edge6" class="edge">
<title>Node7&#45;&gt;Node6</title>
<path fill="none" stroke="orange" d="M245.25,-1398.47C242.26,-1372.11 238.33,-1337.43 235.63,-1313.59"/>
<polygon fill="orange" stroke="orange" points="241.78,-1398.95 246.38,-1408.49 248.73,-1398.16 241.78,-1398.95"/>
<text text-anchor="middle" x="268.5" y="-1358.5" font-family="Helvetica,sans-Serif" font-size="10.00"> &lt; index_t &gt;</text>
</g>
<!-- Node8 -->
<g id="node8" class="node">
<title>Node8</title>
<g id="a_node8"><a xlink:title=" ">
<polygon fill="white" stroke="#bfbfbf" points="316,-1589.5 316,-1646.5 345,-1646.5 345,-1589.5 316,-1589.5"/>
<text text-anchor="middle" x="330.5" y="-1634.5" font-family="Helvetica,sans-Serif" font-size="10.00">T</text>
<polyline fill="none" stroke="#bfbfbf" points="316,-1627.5 345,-1627.5 "/>
<text text-anchor="middle" x="330.5" y="-1615.5" font-family="Helvetica,sans-Serif" font-size="10.00"> </text>
<polyline fill="none" stroke="#bfbfbf" points="316,-1608.5 345,-1608.5 "/>
<text text-anchor="middle" x="330.5" y="-1596.5" font-family="Helvetica,sans-Serif" font-size="10.00"> </text>
</a>
</g>
</g>
<!-- Node8&#45;&gt;Node7 -->
<g id="edge7" class="edge">
<title>Node8&#45;&gt;Node7</title>
<path fill="none" stroke="#404040" d="M315.96,-1599.9C309.39,-1591.57 301.9,-1581.17 296.5,-1571 280.62,-1541.08 268.18,-1504.67 260.09,-1477.51"/>
<polygon fill="none" stroke="#404040" points="260.02,-1477.27 254.52,-1472.62 256.69,-1465.74 262.2,-1470.39 260.02,-1477.27"/>
<text text-anchor="middle" x="306.5" y="-1563" font-family="Helvetica,sans-Serif" font-size="10.00"> +ptr</text>
</g>
<!-- Node9 -->
<g id="node9" class="node">
<title>Node9</title>
<g id="a_node9"><a xlink:title=" ">
<polygon fill="white" stroke="#bfbfbf" points="280,-1098 280,-1166 381,-1166 381,-1098 280,-1098"/>
<text text-anchor="start" x="288" y="-1154" font-family="Helvetica,sans-Serif" font-size="10.00">std::unordered_map</text>
<text text-anchor="middle" x="330.5" y="-1143" font-family="Helvetica,sans-Serif" font-size="10.00">&lt; K, T &gt;</text>
<polyline fill="none" stroke="#bfbfbf" points="280,-1136 381,-1136 "/>
<text text-anchor="middle" x="330.5" y="-1124" font-family="Helvetica,sans-Serif" font-size="10.00"> </text>
<polyline fill="none" stroke="#bfbfbf" points="280,-1117 381,-1117 "/>
<text text-anchor="middle" x="330.5" y="-1105" font-family="Helvetica,sans-Serif" font-size="10.00"> </text>
</a>
</g>
</g>
<!-- Node8&#45;&gt;Node9 -->
<g id="edge10" class="edge">
<title>Node8&#45;&gt;Node9</title>
<path fill="none" stroke="#404040" d="M330.5,-1589.24C330.5,-1509.19 330.5,-1277.33 330.5,-1178.5"/>
<polygon fill="none" stroke="#404040" points="330.5,-1178.29 326.5,-1172.29 330.5,-1166.29 334.5,-1172.29 330.5,-1178.29"/>
<text text-anchor="middle" x="355" y="-1434.5" font-family="Helvetica,sans-Serif" font-size="10.00"> +elements</text>
</g>
<!-- Node15 -->
<g id="node15" class="node">
<title>Node15</title>
<g id="a_node15"><a xlink:title=" ">
<polygon fill="white" stroke="#bfbfbf" points="395,-1484.5 395,-1541.5 498,-1541.5 498,-1484.5 395,-1484.5"/>
<text text-anchor="middle" x="446.5" y="-1529.5" font-family="Helvetica,sans-Serif" font-size="10.00">std::shared_ptr&lt; T &gt;</text>
<polyline fill="none" stroke="#bfbfbf" points="395,-1522.5 498,-1522.5 "/>
<text text-anchor="middle" x="446.5" y="-1510.5" font-family="Helvetica,sans-Serif" font-size="10.00"> </text>
<polyline fill="none" stroke="#bfbfbf" points="395,-1503.5 498,-1503.5 "/>
<text text-anchor="start" x="403" y="-1491.5" font-family="Helvetica,sans-Serif" font-size="10.00">+ operator&#45;&gt;()</text>
</a>
</g>
</g>
<!-- Node8&#45;&gt;Node15 -->
<g id="edge16" class="edge">
<title>Node8&#45;&gt;Node15</title>
<path fill="none" stroke="#404040" d="M345.19,-1603.95C360.49,-1590.37 385.12,-1568.51 406.26,-1549.73"/>
<polygon fill="none" stroke="#404040" points="406.4,-1549.6 408.23,-1542.63 415.38,-1541.64 413.55,-1548.61 406.4,-1549.6"/>
<text text-anchor="middle" x="401.5" y="-1563" font-family="Helvetica,sans-Serif" font-size="10.00"> +ptr</text>
</g>
<!-- Node9&#45;&gt;Node5 -->
<g id="edge8" class="edge">
<title>Node9&#45;&gt;Node5</title>
<path fill="none" stroke="orange" d="M303.36,-1089.21C289.27,-1066.03 272.71,-1036.25 261.5,-1008 249.89,-978.72 241.54,-943.98 236.29,-918.01"/>
<polygon fill="orange" stroke="orange" points="300.4,-1091.07 308.62,-1097.75 306.36,-1087.4 300.4,-1091.07"/>
<text text-anchor="start" x="261.5" y="-1000" font-family="Helvetica,sans-Serif" font-size="10.00"> &lt; prev_block_hash_t,</text>
<text text-anchor="middle" x="322" y="-989" font-family="Helvetica,sans-Serif" font-size="10.00"> std::unique_ptr&lt; index_t &gt; &gt;</text>
</g>
<!-- Node10 -->
<g id="node10" class="node">
<title>Node10</title>
<g id="a_node10"><a xlink:title=" ">
<polygon fill="white" stroke="#bfbfbf" points="444,-1332.5 444,-1389.5 473,-1389.5 473,-1332.5 444,-1332.5"/>
<text text-anchor="middle" x="458.5" y="-1377.5" font-family="Helvetica,sans-Serif" font-size="10.00">K</text>
<polyline fill="none" stroke="#bfbfbf" points="444,-1370.5 473,-1370.5 "/>
<text text-anchor="middle" x="458.5" y="-1358.5" font-family="Helvetica,sans-Serif" font-size="10.00"> </text>
<polyline fill="none" stroke="#bfbfbf" points="444,-1351.5 473,-1351.5 "/>
<text text-anchor="middle" x="458.5" y="-1339.5" font-family="Helvetica,sans-Serif" font-size="10.00"> </text>
</a>
</g>
</g>
<!-- Node10&#45;&gt;Node9 -->
<g id="edge9" class="edge">
<title>Node10&#45;&gt;Node9</title>
<path fill="none" stroke="#404040" d="M443.75,-1340.71C437.82,-1332.63 431.07,-1323.03 425.5,-1314 397.55,-1268.7 369.74,-1214.35 351.5,-1177.11"/>
<polygon fill="none" stroke="#404040" points="351.41,-1176.92 345.19,-1173.27 346.16,-1166.13 352.38,-1169.77 351.41,-1176.92"/>
<text text-anchor="middle" x="440" y="-1282.5" font-family="Helvetica,sans-Serif" font-size="10.00"> +keys</text>
</g>
<!-- Node17 -->
<g id="node17" class="node">
<title>Node17</title>
<g id="a_node17"><a xlink:title=" ">
<polygon fill="white" stroke="#bfbfbf" points="549,-1103.5 549,-1160.5 620,-1160.5 620,-1103.5 549,-1103.5"/>
<text text-anchor="middle" x="584.5" y="-1148.5" font-family="Helvetica,sans-Serif" font-size="10.00">std::set&lt; K &gt;</text>
<polyline fill="none" stroke="#bfbfbf" points="549,-1141.5 620,-1141.5 "/>
<text text-anchor="middle" x="584.5" y="-1129.5" font-family="Helvetica,sans-Serif" font-size="10.00"> </text>
<polyline fill="none" stroke="#bfbfbf" points="549,-1122.5 620,-1122.5 "/>
<text text-anchor="middle" x="584.5" y="-1110.5" font-family="Helvetica,sans-Serif" font-size="10.00"> </text>
</a>
</g>
</g>
<!-- Node10&#45;&gt;Node17 -->
<g id="edge21" class="edge">
<title>Node10&#45;&gt;Node17</title>
<path fill="none" stroke="#404040" d="M473.29,-1340.74C479.23,-1332.66 485.97,-1323.06 491.5,-1314 520.55,-1266.46 549.09,-1208.81 566.74,-1171.55"/>
<polygon fill="none" stroke="#404040" points="566.75,-1171.53 565.68,-1164.4 571.85,-1160.67 572.92,-1167.8 566.75,-1171.53"/>
<text text-anchor="middle" x="536" y="-1282.5" font-family="Helvetica,sans-Serif" font-size="10.00"> +keys</text>
</g>
<!-- Node18 -->
<g id="node18" class="node">
<title>Node18</title>
<g id="a_node18"><a xlink:title=" ">
<polygon fill="white" stroke="#bfbfbf" points="399,-1103.5 399,-1160.5 518,-1160.5 518,-1103.5 399,-1103.5"/>
<text text-anchor="middle" x="458.5" y="-1148.5" font-family="Helvetica,sans-Serif" font-size="10.00">std::unordered_set&lt; K &gt;</text>
<polyline fill="none" stroke="#bfbfbf" points="399,-1141.5 518,-1141.5 "/>
<text text-anchor="middle" x="458.5" y="-1129.5" font-family="Helvetica,sans-Serif" font-size="10.00"> </text>
<polyline fill="none" stroke="#bfbfbf" points="399,-1122.5 518,-1122.5 "/>
<text text-anchor="middle" x="458.5" y="-1110.5" font-family="Helvetica,sans-Serif" font-size="10.00"> </text>
</a>
</g>
</g>
<!-- Node10&#45;&gt;Node18 -->
<g id="edge23" class="edge">
<title>Node10&#45;&gt;Node18</title>
<path fill="none" stroke="#404040" d="M458.5,-1332.17C458.5,-1292.23 458.5,-1218.48 458.5,-1172.8"/>
<polygon fill="none" stroke="#404040" points="458.5,-1172.71 454.5,-1166.71 458.5,-1160.71 462.5,-1166.71 458.5,-1172.71"/>
<text text-anchor="middle" x="473" y="-1282.5" font-family="Helvetica,sans-Serif" font-size="10.00"> +keys</text>
</g>
<!-- Node11 -->
<g id="node11" class="node">
<title>Node11</title>
<g id="a_node11"><a xlink:title=" ">
<polygon fill="white" stroke="#bfbfbf" points="317,-844.5 317,-912.5 464,-912.5 464,-844.5 317,-844.5"/>
<text text-anchor="start" x="325" y="-900.5" font-family="Helvetica,sans-Serif" font-size="10.00">std::unordered_set</text>
<text text-anchor="middle" x="390.5" y="-889.5" font-family="Helvetica,sans-Serif" font-size="10.00">&lt; altintegration::BlockIndex * &gt;</text>
<polyline fill="none" stroke="#bfbfbf" points="317,-882.5 464,-882.5 "/>
<text text-anchor="middle" x="390.5" y="-870.5" font-family="Helvetica,sans-Serif" font-size="10.00"> </text>
<polyline fill="none" stroke="#bfbfbf" points="317,-863.5 464,-863.5 "/>
<text text-anchor="middle" x="390.5" y="-851.5" font-family="Helvetica,sans-Serif" font-size="10.00"> </text>
</a>
</g>
</g>
<!-- Node11&#45;&gt;Node2 -->
<g id="edge11" class="edge">
<title>Node11&#45;&gt;Node2</title>
<path fill="none" stroke="#404040" d="M392.34,-844.05C394.8,-781.05 395.47,-641.16 361.5,-530 356.99,-515.25 350.91,-500.35 344.05,-485.94"/>
<polygon fill="none" stroke="#404040" points="343.98,-485.79 337.74,-482.17 338.68,-475.02 344.92,-478.64 343.98,-485.79"/>
<text text-anchor="middle" x="406" y="-633.5" font-family="Helvetica,sans-Serif" font-size="10.00"> #tips_</text>
</g>
<!-- Node11&#45;&gt;Node19 -->
<g id="edge27" class="edge">
<title>Node11&#45;&gt;Node19</title>
<path fill="none" stroke="#404040" d="M365.96,-844.43C345.67,-817.03 316.12,-777.05 290.5,-742 288.31,-739.01 286.09,-735.97 283.85,-732.89"/>
<polygon fill="none" stroke="#404040" points="283.71,-732.7 276.95,-730.2 276.65,-723 283.41,-725.5 283.71,-732.7"/>
<text text-anchor="middle" x="324" y="-763" font-family="Helvetica,sans-Serif" font-size="10.00"> #tips_</text>
</g>
<!-- Node12 -->
<g id="node12" class="node">
<title>Node12</title>
<g id="a_node12"><a xlink:href="structaltintegration_1_1BlockIndex.html" target="_top" xlink:title="A node in a block tree.">
<polygon fill="white" stroke="black" points="664,-1026.5 664,-1237.5 789,-1237.5 789,-1026.5 664,-1026.5"/>
<text text-anchor="start" x="672" y="-1225.5" font-family="Helvetica,sans-Serif" font-size="10.00">altintegration::BlockIndex</text>
<text text-anchor="middle" x="726.5" y="-1214.5" font-family="Helvetica,sans-Serif" font-size="10.00">&lt; Block &gt;</text>
<polyline fill="none" stroke="black" points="664,-1207.5 789,-1207.5 "/>
<text text-anchor="start" x="672" y="-1195.5" font-family="Helvetica,sans-Serif" font-size="10.00">+ finalized</text>
<text text-anchor="start" x="672" y="-1184.5" font-family="Helvetica,sans-Serif" font-size="10.00"># height</text>
<text text-anchor="start" x="672" y="-1173.5" font-family="Helvetica,sans-Serif" font-size="10.00"># status</text>
<text text-anchor="start" x="672" y="-1162.5" font-family="Helvetica,sans-Serif" font-size="10.00"># dirty</text>
<polyline fill="none" stroke="black" points="664,-1155.5 789,-1155.5 "/>
<text text-anchor="start" x="672" y="-1143.5" font-family="Helvetica,sans-Serif" font-size="10.00">+ BlockIndex()</text>
<text text-anchor="start" x="672" y="-1132.5" font-family="Helvetica,sans-Serif" font-size="10.00">+ BlockIndex()</text>
<text text-anchor="start" x="672" y="-1121.5" font-family="Helvetica,sans-Serif" font-size="10.00">+ ~BlockIndex()</text>
<text text-anchor="start" x="672" y="-1110.5" font-family="Helvetica,sans-Serif" font-size="10.00">+ BlockIndex()</text>
<text text-anchor="start" x="672" y="-1099.5" font-family="Helvetica,sans-Serif" font-size="10.00">+ operator=()</text>
<text text-anchor="start" x="672" y="-1088.5" font-family="Helvetica,sans-Serif" font-size="10.00">+ isDeleted()</text>
<text text-anchor="start" x="672" y="-1077.5" font-family="Helvetica,sans-Serif" font-size="10.00">+ restore()</text>
<text text-anchor="start" x="672" y="-1066.5" font-family="Helvetica,sans-Serif" font-size="10.00">+ deleteTemporarily()</text>
<text text-anchor="start" x="672" y="-1055.5" font-family="Helvetica,sans-Serif" font-size="10.00">+ mergeFrom()</text>
<text text-anchor="start" x="672" y="-1044.5" font-family="Helvetica,sans-Serif" font-size="10.00">+ toStoredBlockIndex()</text>
<text text-anchor="start" x="672" y="-1033.5" font-family="Helvetica,sans-Serif" font-size="10.00">and 39 more...</text>
</a>
</g>
</g>
<!-- Node12&#45;&gt;Node11 -->
<g id="edge12" class="edge">
<title>Node12&#45;&gt;Node11</title>
<path fill="none" stroke="#404040" d="M663.82,-1052.41C653.21,-1042.45 641.66,-1033.23 629.5,-1026 601.52,-1009.36 587.8,-1022.18 558.5,-1008 533.48,-995.9 479.32,-953.18 439.22,-920.29"/>
<polygon fill="none" stroke="#404040" points="439.13,-920.21 431.96,-919.49 429.87,-912.59 437.04,-913.31 439.13,-920.21"/>
<text text-anchor="middle" x="573" y="-994.5" font-family="Helvetica,sans-Serif" font-size="10.00"> +keys</text>
</g>
<!-- Node12&#45;&gt;Node12 -->
<g id="edge17" class="edge">
<title>Node12&#45;&gt;Node12</title>
<path fill="none" stroke="#404040" d="M789.28,-1155.35C799.76,-1152.08 807,-1144.3 807,-1132 807,-1124.5 804.31,-1118.69 799.84,-1114.54"/>
<polygon fill="none" stroke="#404040" points="799.76,-1114.5 792.57,-1115.06 789.28,-1108.65 796.47,-1108.08 799.76,-1114.5"/>
<text text-anchor="middle" x="823.5" y="-1129.5" font-family="Helvetica,sans-Serif" font-size="10.00"> +pprev</text>
</g>
<!-- Node16 -->
<g id="node16" class="node">
<title>Node16</title>
<g id="a_node16"><a xlink:title=" ">
<polygon fill="white" stroke="#bfbfbf" points="697.5,-844.5 697.5,-912.5 809.5,-912.5 809.5,-844.5 697.5,-844.5"/>
<text text-anchor="start" x="705.5" y="-900.5" font-family="Helvetica,sans-Serif" font-size="10.00">std::set&lt; altintegration</text>
<text text-anchor="middle" x="753.5" y="-889.5" font-family="Helvetica,sans-Serif" font-size="10.00">::BlockIndex * &gt;</text>
<polyline fill="none" stroke="#bfbfbf" points="697.5,-882.5 809.5,-882.5 "/>
<text text-anchor="middle" x="753.5" y="-870.5" font-family="Helvetica,sans-Serif" font-size="10.00"> </text>
<polyline fill="none" stroke="#bfbfbf" points="697.5,-863.5 809.5,-863.5 "/>
<text text-anchor="middle" x="753.5" y="-851.5" font-family="Helvetica,sans-Serif" font-size="10.00"> </text>
</a>
</g>
</g>
<!-- Node12&#45;&gt;Node16 -->
<g id="edge19" class="edge">
<title>Node12&#45;&gt;Node16</title>
<path fill="none" stroke="#404040" d="M737.75,-1026.16C741.54,-990.86 745.58,-953.3 748.61,-925.03"/>
<polygon fill="none" stroke="#404040" points="748.65,-924.67 745.31,-918.27 749.93,-912.74 753.27,-919.13 748.65,-924.67"/>
<text text-anchor="middle" x="756" y="-994.5" font-family="Helvetica,sans-Serif" font-size="10.00"> +keys</text>
</g>
<!-- Node13 -->
<g id="node13" class="node">
<title>Node13</title>
<g id="a_node13"><a xlink:title=" ">
<polygon fill="white" stroke="#bfbfbf" points="686.5,-1332.5 686.5,-1389.5 766.5,-1389.5 766.5,-1332.5 686.5,-1332.5"/>
<text text-anchor="middle" x="726.5" y="-1377.5" font-family="Helvetica,sans-Serif" font-size="10.00">Block::addon_t</text>
<polyline fill="none" stroke="#bfbfbf" points="686.5,-1370.5 766.5,-1370.5 "/>
<text text-anchor="middle" x="726.5" y="-1358.5" font-family="Helvetica,sans-Serif" font-size="10.00"> </text>
<polyline fill="none" stroke="#bfbfbf" points="686.5,-1351.5 766.5,-1351.5 "/>
<text text-anchor="middle" x="726.5" y="-1339.5" font-family="Helvetica,sans-Serif" font-size="10.00"> </text>
</a>
</g>
</g>
<!-- Node13&#45;&gt;Node12 -->
<g id="edge13" class="edge">
<title>Node13&#45;&gt;Node12</title>
<path fill="none" stroke="midnightblue" d="M726.5,-1322.05C726.5,-1298.79 726.5,-1267.76 726.5,-1237.58"/>
<polygon fill="none" stroke="midnightblue" points="723,-1322.17 726.5,-1332.17 730,-1322.17 723,-1322.17"/>
</g>
<!-- Node14 -->
<g id="node14" class="node">
<title>Node14</title>
<g id="a_node14"><a xlink:title=" ">
<polygon fill="white" stroke="#bfbfbf" points="516.5,-1332.5 516.5,-1389.5 644.5,-1389.5 644.5,-1332.5 516.5,-1332.5"/>
<text text-anchor="middle" x="580.5" y="-1377.5" font-family="Helvetica,sans-Serif" font-size="10.00">std::shared_ptr&lt; block_t &gt;</text>
<polyline fill="none" stroke="#bfbfbf" points="516.5,-1370.5 644.5,-1370.5 "/>
<text text-anchor="start" x="524.5" y="-1358.5" font-family="Helvetica,sans-Serif" font-size="10.00">+ ptr</text>
<polyline fill="none" stroke="#bfbfbf" points="516.5,-1351.5 644.5,-1351.5 "/>
<text text-anchor="start" x="524.5" y="-1339.5" font-family="Helvetica,sans-Serif" font-size="10.00">+ operator&#45;&gt;()</text>
</a>
</g>
</g>
<!-- Node14&#45;&gt;Node12 -->
<g id="edge14" class="edge">
<title>Node14&#45;&gt;Node12</title>
<path fill="none" stroke="#404040" d="M598.4,-1332.17C613.27,-1309.04 635.44,-1274.58 657.17,-1240.8"/>
<polygon fill="none" stroke="#404040" points="657.4,-1240.44 657.28,-1233.23 663.89,-1230.35 664.01,-1237.56 657.4,-1240.44"/>
<text text-anchor="middle" x="663" y="-1282.5" font-family="Helvetica,sans-Serif" font-size="10.00"> #header</text>
</g>
<!-- Node15&#45;&gt;Node14 -->
<g id="edge15" class="edge">
<title>Node15&#45;&gt;Node14</title>
<path fill="none" stroke="orange" d="M477.86,-1476.9C501.65,-1450.27 533.89,-1414.17 555.85,-1389.59"/>
<polygon fill="orange" stroke="orange" points="475.13,-1474.7 471.08,-1484.49 480.35,-1479.36 475.13,-1474.7"/>
<text text-anchor="middle" x="562" y="-1434.5" font-family="Helvetica,sans-Serif" font-size="10.00"> &lt; block_t &gt;</text>
</g>
<!-- Node16&#45;&gt;Node12 -->
<g id="edge18" class="edge">
<title>Node16&#45;&gt;Node12</title>
<path fill="none" stroke="#404040" d="M769.56,-912.73C780.08,-938.64 790.65,-975.56 783.5,-1008 783.02,-1010.19 782.49,-1012.39 781.93,-1014.59"/>
<polygon fill="none" stroke="#404040" points="781.86,-1014.83 784.05,-1021.7 778.56,-1026.37 776.36,-1019.5 781.86,-1014.83"/>
<text text-anchor="middle" x="801.5" y="-994.5" font-family="Helvetica,sans-Serif" font-size="10.00"> +pnext</text>
</g>
<!-- Node17&#45;&gt;Node16 -->
<g id="edge20" class="edge">
<title>Node17&#45;&gt;Node16</title>
<path fill="none" stroke="orange" d="M581.11,-1092.85C580.18,-1061.92 583.13,-1018.31 602.5,-986 624.35,-949.54 664.04,-922.29 697.24,-904.49"/>
<polygon fill="orange" stroke="orange" points="577.63,-1093.4 581.58,-1103.23 584.62,-1093.08 577.63,-1093.4"/>
<text text-anchor="middle" x="669" y="-994.5" font-family="Helvetica,sans-Serif" font-size="10.00"> &lt; altintegration::BlockIndex * &gt;</text>
</g>
<!-- Node18&#45;&gt;Node11 -->
<g id="edge22" class="edge">
<title>Node18&#45;&gt;Node11</title>
<path fill="none" stroke="orange" d="M432.11,-1094.87C416.65,-1071.4 398.61,-1039.43 390.5,-1008 382.33,-976.35 383.51,-938.85 386.02,-912.55"/>
<polygon fill="orange" stroke="orange" points="429.39,-1097.09 437.88,-1103.43 435.19,-1093.18 429.39,-1097.09"/>
<text text-anchor="middle" x="457" y="-994.5" font-family="Helvetica,sans-Serif" font-size="10.00"> &lt; altintegration::BlockIndex * &gt;</text>
</g>
<!-- Node19&#45;&gt;Node2 -->
<g id="edge24" class="edge">
<title>Node19&#45;&gt;Node2</title>
<path fill="none" stroke="orange" d="M238.02,-520.06C239.49,-513.6 240.99,-507.21 242.5,-501 243.96,-494.97 245.51,-488.79 247.11,-482.56"/>
<polygon fill="orange" stroke="orange" points="234.51,-519.72 235.72,-530.25 241.33,-521.26 234.51,-519.72"/>
<text text-anchor="middle" x="270.5" y="-504" font-family="Helvetica,sans-Serif" font-size="10.00"> &lt; AltBlock &gt;</text>
</g>
</g>
</svg>
        <g id="navigator" transform="translate(0 0)" fill="#404254">
                <rect fill="#f2f5e9" fill-opacity="0.5" stroke="#606060" stroke-width=".5" x="0" y="0" width="60" height="60"/>
                <use id="zoomplus" xlink:href="#zoomPlus" x="17" y="9" onmousedown="handleZoom(evt,'in')"/>
                <use id="zoomminus" xlink:href="#zoomMin" x="42" y="9" onmousedown="handleZoom(evt,'out')"/>
                <use id="reset" xlink:href="#resetDef" x="30" y="36" onmousedown="handleReset()"/>
                <g id="arrowUp" xlink:href="#dirArrow" transform="translate(30 24)" onmousedown="handlePan(0,-1)">
                  <use xlink:href="#rim" fill="#404040">
                        <set attributeName="fill" to="#808080" begin="arrowUp.mouseover" end="arrowUp.mouseout"/>
                  </use>
                  <path fill="none" stroke="white" stroke-width="1.5" d="M0,-3.0v7 M-2.5,-0.5L0,-3.0L2.5,-0.5"/>
                </g>
                <g id="arrowRight" xlink:href="#dirArrow" transform="rotate(90) translate(36 -43)" onmousedown="handlePan(1,0)">
                  <use xlink:href="#rim" fill="#404040">
                        <set attributeName="fill" to="#808080" begin="arrowRight.mouseover" end="arrowRight.mouseout"/>
                  </use>
                  <path fill="none" stroke="white" stroke-width="1.5" d="M0,-3.0v7 M-2.5,-0.5L0,-3.0L2.5,-0.5"/>
                </g>
                <g id="arrowDown" xlink:href="#dirArrow" transform="rotate(180) translate(-30 -48)" onmousedown="handlePan(0,1)">
                  <use xlink:href="#rim" fill="#404040">
                        <set attributeName="fill" to="#808080" begin="arrowDown.mouseover" end="arrowDown.mouseout"/>
                  </use>
                  <path fill="none" stroke="white" stroke-width="1.5" d="M0,-3.0v7 M-2.5,-0.5L0,-3.0L2.5,-0.5"/>
                </g>
                <g id="arrowLeft" xlink:href="#dirArrow" transform="rotate(270) translate(-36 17)" onmousedown="handlePan(-1,0)">
                  <use xlink:href="#rim" fill="#404040">
                        <set attributeName="fill" to="#808080" begin="arrowLeft.mouseover" end="arrowLeft.mouseout"/>
                  </use>
                  <path fill="none" stroke="white" stroke-width="1.5" d="M0,-3.0v7 M-2.5,-0.5L0,-3.0L2.5,-0.5"/>
                </g>
        </g>
        <svg viewBox="0 0 15 15" width="100%" height="30px" preserveAspectRatio="xMaxYMin meet">
         <g id="arrow_out" transform="scale(0.3 0.3)">
          <a xlink:href="structaltintegration_1_1AltBlockTree__coll__graph_org.svg" target="_base">
           <rect id="button" ry="5" rx="5" y="6" x="6" height="38" width="38"
                fill="#f2f5e9" fill-opacity="0.5" stroke="#606060" stroke-width="1.0"/>
           <path id="arrow"
             d="M 11.500037,31.436501 C 11.940474,20.09759 22.043105,11.32322 32.158766,21.979434 L 37.068811,17.246167 C 37.068811,17.246167 37.088388,32 37.088388,32 L 22.160133,31.978069 C 22.160133,31.978069 26.997745,27.140456 26.997745,27.140456 C 18.528582,18.264221 13.291696,25.230495 11.500037,31.436501 z"
             style="fill:#404040;"/>
          </a>
         </g>
        </svg>
</svg>
