<?xml version="1.0" encoding="UTF-8" standalone="no"?>
<!DOCTYPE svg PUBLIC "-//W3C//DTD SVG 1.1//EN"
 "http://www.w3.org/Graphics/SVG/1.1/DTD/svg11.dtd">
<!-- Generated by graphviz version 2.44.0 ()
 -->
<!-- Title: altintegration::VTB Pages: 1 -->
<!--zoomable 1152 -->
<svg id="main" version="1.1" xmlns="http://www.w3.org/2000/svg" xmlns:xlink="http://www.w3.org/1999/xlink" xml:space="preserve" onload="init(evt)">
<style type="text/css"><![CDATA[
.edge:hover path { stroke: red; }
.edge:hover polygon { stroke: red; fill: red; }
]]></style>
<script type="text/javascript"><![CDATA[
var edges = document.getElementsByTagName('g');
if (edges && edges.length) {
  for (var i=0;i<edges.length;i++) {
    if (edges[i].id.substr(0,4)=='edge') {
      edges[i].setAttribute('class','edge');
    }
  }
}
]]></script>
        <defs>
                <circle id="rim" cx="0" cy="0" r="7"/>
                <circle id="rim2" cx="0" cy="0" r="3.5"/>
                <g id="zoomPlus">
                        <use xlink:href="#rim" fill="#404040">
                                <set attributeName="fill" to="#808080" begin="zoomplus.mouseover" end="zoomplus.mouseout"/>
                        </use>
                        <path d="M-4,0h8M0,-4v8" fill="none" stroke="white" stroke-width="1.5" pointer-events="none"/>
                </g>
                <g id="zoomMin">
                        <use xlink:href="#rim" fill="#404040">
                                <set attributeName="fill" to="#808080" begin="zoomminus.mouseover" end="zoomminus.mouseout"/>
                        </use>
                        <path d="M-4,0h8" fill="none" stroke="white" stroke-width="1.5" pointer-events="none"/>
                </g>
                <g id="dirArrow">
                        <path fill="none" stroke="white" stroke-width="1.5" d="M0,-3.0v7 M-2.5,-0.5L0,-3.0L2.5,-0.5"/>
                </g>
               <g id="resetDef">
                       <use xlink:href="#rim2" fill="#404040">
                               <set attributeName="fill" to="#808080" begin="reset.mouseover" end="reset.mouseout"/>
                       </use>
               </g>
        </defs>

<script type="text/javascript">
var viewWidth = 1233;
var viewHeight = 1152;
var sectionId = 'dynsection-0';
</script>
<script xlink:href="svgpan.js"/>
<svg id="graph" class="graph">
<g id="viewport">
<title>altintegration::VTB</title>
<polygon fill="white" stroke="transparent" points="-4,4 -4,-1148 1229,-1148 1229,4 -4,4"/>
<!-- Node1 -->
<g id="node1" class="node">
<title>Node1</title>
<g id="a_node1"><a xlink:title="Veriblock to Bitcoin publication, committed to Veriblock blockchain in containingBlock.">
<polygon fill="#bfbfbf" stroke="black" points="634,-0.5 634,-134.5 747,-134.5 747,-0.5 634,-0.5"/>
<text text-anchor="middle" x="690.5" y="-122.5" font-family="Helvetica,sans-Serif" font-size="10.00">altintegration::VTB</text>
<polyline fill="none" stroke="black" points="634,-115.5 747,-115.5 "/>
<text text-anchor="start" x="642" y="-103.5" font-family="Helvetica,sans-Serif" font-size="10.00">+ version</text>
<text text-anchor="start" x="642" y="-92.5" font-family="Helvetica,sans-Serif" font-size="10.00">+ checked</text>
<polyline fill="none" stroke="black" points="634,-85.5 747,-85.5 "/>
<text text-anchor="start" x="642" y="-73.5" font-family="Helvetica,sans-Serif" font-size="10.00">+ toPrettyString()</text>
<text text-anchor="start" x="642" y="-62.5" font-family="Helvetica,sans-Serif" font-size="10.00">+ toShortPrettyString()</text>
<text text-anchor="start" x="642" y="-51.5" font-family="Helvetica,sans-Serif" font-size="10.00">+ toVbkEncoding()</text>
<text text-anchor="start" x="642" y="-40.5" font-family="Helvetica,sans-Serif" font-size="10.00">+ toVbkEncoding()</text>
<text text-anchor="start" x="642" y="-29.5" font-family="Helvetica,sans-Serif" font-size="10.00">+ estimateSize()</text>
<text text-anchor="start" x="642" y="-18.5" font-family="Helvetica,sans-Serif" font-size="10.00">+ getId()</text>
<text text-anchor="start" x="642" y="-7.5" font-family="Helvetica,sans-Serif" font-size="10.00">+ name()</text>
</a>
</g>
</g>
<!-- Node2 -->
<g id="node2" class="node">
<title>Node2</title>
<g id="a_node2"><a xlink:href="structaltintegration_1_1VbkMerklePath.html" target="_top" xlink:title="Path in Merkle tree, which proves that subject exists in the tree.">
<polygon fill="white" stroke="black" points="23,-370 23,-460 166,-460 166,-370 23,-370"/>
<text text-anchor="middle" x="94.5" y="-448" font-family="Helvetica,sans-Serif" font-size="10.00">altintegration::VbkMerklePath</text>
<polyline fill="none" stroke="black" points="23,-441 166,-441 "/>
<text text-anchor="start" x="31" y="-429" font-family="Helvetica,sans-Serif" font-size="10.00">+ treeIndex</text>
<text text-anchor="start" x="31" y="-418" font-family="Helvetica,sans-Serif" font-size="10.00">+ index</text>
<polyline fill="none" stroke="black" points="23,-411 166,-411 "/>
<text text-anchor="start" x="31" y="-399" font-family="Helvetica,sans-Serif" font-size="10.00">+ toVbkEncoding()</text>
<text text-anchor="start" x="31" y="-388" font-family="Helvetica,sans-Serif" font-size="10.00">+ estimateSize()</text>
<text text-anchor="start" x="31" y="-377" font-family="Helvetica,sans-Serif" font-size="10.00">+ calculateMerkleRoot()</text>
</a>
</g>
</g>
<!-- Node2&#45;&gt;Node1 -->
<g id="edge1" class="edge">
<title>Node2&#45;&gt;Node1</title>
<path fill="none" stroke="#404040" d="M126.33,-369.84C140.1,-352.81 157.25,-334.08 175.5,-320 318.89,-209.42 518.67,-128.96 622.21,-91.68"/>
<polygon fill="none" stroke="#404040" points="622.44,-91.6 626.74,-85.81 633.74,-87.56 629.43,-93.35 622.44,-91.6"/>
<text text-anchor="middle" x="427.5" y="-225" font-family="Helvetica,sans-Serif" font-size="10.00"> +merklePath</text>
</g>
<!-- Node3 -->
<g id="node3" class="node">
<title>Node3</title>
<g id="a_node3"><a xlink:title=" ">
<polygon fill="white" stroke="#bfbfbf" points="168,-634.5 168,-702.5 293,-702.5 293,-634.5 168,-634.5"/>
<text text-anchor="start" x="176" y="-690.5" font-family="Helvetica,sans-Serif" font-size="10.00">std::vector&lt; altintegration</text>
<text text-anchor="middle" x="230.5" y="-679.5" font-family="Helvetica,sans-Serif" font-size="10.00">::Blob &gt;</text>
<polyline fill="none" stroke="#bfbfbf" points="168,-672.5 293,-672.5 "/>
<text text-anchor="middle" x="230.5" y="-660.5" font-family="Helvetica,sans-Serif" font-size="10.00"> </text>
<polyline fill="none" stroke="#bfbfbf" points="168,-653.5 293,-653.5 "/>
<text text-anchor="middle" x="230.5" y="-641.5" font-family="Helvetica,sans-Serif" font-size="10.00"> </text>
</a>
</g>
</g>
<!-- Node3&#45;&gt;Node2 -->
<g id="edge2" class="edge">
<title>Node3&#45;&gt;Node2</title>
<path fill="none" stroke="#404040" d="M217.92,-634.3C206.57,-605.53 188.74,-563.12 169.5,-528 158.83,-508.52 145.76,-488.09 133.55,-470.1"/>
<polygon fill="none" stroke="#404040" points="133.46,-469.98 126.77,-467.3 126.67,-460.09 133.36,-462.77 133.46,-469.98"/>
<text text-anchor="middle" x="191.5" y="-531" font-family="Helvetica,sans-Serif" font-size="10.00"> +layers</text>
</g>
<!-- Node12 -->
<g id="node12" class="node">
<title>Node12</title>
<g id="a_node12"><a xlink:href="structaltintegration_1_1MerklePath.html" target="_top" xlink:title="Path in Merkle tree which proves that subject is inside this tree.">
<polygon fill="white" stroke="black" points="184.5,-370 184.5,-460 310.5,-460 310.5,-370 184.5,-370"/>
<text text-anchor="middle" x="247.5" y="-448" font-family="Helvetica,sans-Serif" font-size="10.00">altintegration::MerklePath</text>
<polyline fill="none" stroke="black" points="184.5,-441 310.5,-441 "/>
<text text-anchor="start" x="192.5" y="-429" font-family="Helvetica,sans-Serif" font-size="10.00">+ index</text>
<polyline fill="none" stroke="black" points="184.5,-422 310.5,-422 "/>
<text text-anchor="start" x="192.5" y="-410" font-family="Helvetica,sans-Serif" font-size="10.00">+ toRaw()</text>
<text text-anchor="start" x="192.5" y="-399" font-family="Helvetica,sans-Serif" font-size="10.00">+ toVbkEncoding()</text>
<text text-anchor="start" x="192.5" y="-388" font-family="Helvetica,sans-Serif" font-size="10.00">+ estimateSize()</text>
<text text-anchor="start" x="192.5" y="-377" font-family="Helvetica,sans-Serif" font-size="10.00">+ calculateMerkleRoot()</text>
</a>
</g>
</g>
<!-- Node3&#45;&gt;Node12 -->
<g id="edge14" class="edge">
<title>Node3&#45;&gt;Node12</title>
<path fill="none" stroke="#404040" d="M232.74,-634.36C235.52,-593.17 240.32,-522.22 243.69,-472.41"/>
<polygon fill="none" stroke="#404040" points="243.7,-472.2 240.11,-465.94 244.51,-460.23 248.1,-466.48 243.7,-472.2"/>
<text text-anchor="middle" x="256.5" y="-531" font-family="Helvetica,sans-Serif" font-size="10.00"> +layers</text>
</g>
<!-- Node4 -->
<g id="node4" class="node">
<title>Node4</title>
<g id="a_node4"><a xlink:href="structaltintegration_1_1Blob.html" target="_top" xlink:title="Contiguous byte array of fixed size.">
<polygon fill="white" stroke="black" points="75.5,-827.5 75.5,-1038.5 195.5,-1038.5 195.5,-827.5 75.5,-827.5"/>
<text text-anchor="middle" x="135.5" y="-1026.5" font-family="Helvetica,sans-Serif" font-size="10.00">altintegration::Blob&lt; N &gt;</text>
<polyline fill="none" stroke="black" points="75.5,-1019.5 195.5,-1019.5 "/>
<text text-anchor="start" x="83.5" y="-1007.5" font-family="Helvetica,sans-Serif" font-size="10.00">+ data_</text>
<text text-anchor="start" x="83.5" y="-996.5" font-family="Helvetica,sans-Serif" font-size="10.00">+ this</text>
<polyline fill="none" stroke="black" points="75.5,-989.5 195.5,-989.5 "/>
<text text-anchor="start" x="83.5" y="-977.5" font-family="Helvetica,sans-Serif" font-size="10.00">+ Blob()</text>
<text text-anchor="start" x="83.5" y="-966.5" font-family="Helvetica,sans-Serif" font-size="10.00">+ Blob()</text>
<text text-anchor="start" x="83.5" y="-955.5" font-family="Helvetica,sans-Serif" font-size="10.00">+ Blob()</text>
<text text-anchor="start" x="83.5" y="-944.5" font-family="Helvetica,sans-Serif" font-size="10.00">+ Blob()</text>
<text text-anchor="start" x="83.5" y="-933.5" font-family="Helvetica,sans-Serif" font-size="10.00">+ Blob()</text>
<text text-anchor="start" x="83.5" y="-922.5" font-family="Helvetica,sans-Serif" font-size="10.00">+ operator=()</text>
<text text-anchor="start" x="83.5" y="-911.5" font-family="Helvetica,sans-Serif" font-size="10.00">+ operator=()</text>
<text text-anchor="start" x="83.5" y="-900.5" font-family="Helvetica,sans-Serif" font-size="10.00">+ reverse()</text>
<text text-anchor="start" x="83.5" y="-889.5" font-family="Helvetica,sans-Serif" font-size="10.00">+ operator~()</text>
<text text-anchor="start" x="83.5" y="-878.5" font-family="Helvetica,sans-Serif" font-size="10.00">+ asVector()</text>
<text text-anchor="start" x="83.5" y="-867.5" font-family="Helvetica,sans-Serif" font-size="10.00">+ asString()</text>
<text text-anchor="start" x="83.5" y="-856.5" font-family="Helvetica,sans-Serif" font-size="10.00">+ operator[]()</text>
<text text-anchor="start" x="83.5" y="-845.5" font-family="Helvetica,sans-Serif" font-size="10.00">+ operator[]()</text>
<text text-anchor="start" x="83.5" y="-834.5" font-family="Helvetica,sans-Serif" font-size="10.00">+ compareTo()</text>
</a>
</g>
</g>
<!-- Node4&#45;&gt;Node3 -->
<g id="edge3" class="edge">
<title>Node4&#45;&gt;Node3</title>
<path fill="none" stroke="#404040" d="M176.69,-827.45C179.02,-821.22 181.31,-815.03 183.5,-809 194.94,-777.51 206.99,-741.69 216.02,-714.23"/>
<polygon fill="none" stroke="#404040" points="216.09,-714.03 214.16,-707.09 219.82,-702.63 221.76,-709.58 216.09,-714.03"/>
<text text-anchor="middle" x="210" y="-801" font-family="Helvetica,sans-Serif" font-size="10.00"> +elements</text>
</g>
<!-- Node7 -->
<g id="node7" class="node">
<title>Node7</title>
<g id="a_node7"><a xlink:href="structaltintegration_1_1Blob.html" target="_top" xlink:title=" ">
<polygon fill="white" stroke="black" points="0,-557.5 0,-779.5 131,-779.5 131,-557.5 0,-557.5"/>
<text text-anchor="start" x="8" y="-767.5" font-family="Helvetica,sans-Serif" font-size="10.00">altintegration::Blob</text>
<text text-anchor="middle" x="65.5" y="-756.5" font-family="Helvetica,sans-Serif" font-size="10.00">&lt; SHA256_HASH_SIZE &gt;</text>
<polyline fill="none" stroke="black" points="0,-749.5 131,-749.5 "/>
<text text-anchor="start" x="8" y="-737.5" font-family="Helvetica,sans-Serif" font-size="10.00">+ data_</text>
<text text-anchor="start" x="8" y="-726.5" font-family="Helvetica,sans-Serif" font-size="10.00">+ this</text>
<polyline fill="none" stroke="black" points="0,-719.5 131,-719.5 "/>
<text text-anchor="start" x="8" y="-707.5" font-family="Helvetica,sans-Serif" font-size="10.00">+ Blob()</text>
<text text-anchor="start" x="8" y="-696.5" font-family="Helvetica,sans-Serif" font-size="10.00">+ Blob()</text>
<text text-anchor="start" x="8" y="-685.5" font-family="Helvetica,sans-Serif" font-size="10.00">+ Blob()</text>
<text text-anchor="start" x="8" y="-674.5" font-family="Helvetica,sans-Serif" font-size="10.00">+ Blob()</text>
<text text-anchor="start" x="8" y="-663.5" font-family="Helvetica,sans-Serif" font-size="10.00">+ Blob()</text>
<text text-anchor="start" x="8" y="-652.5" font-family="Helvetica,sans-Serif" font-size="10.00">+ operator=()</text>
<text text-anchor="start" x="8" y="-641.5" font-family="Helvetica,sans-Serif" font-size="10.00">+ operator=()</text>
<text text-anchor="start" x="8" y="-630.5" font-family="Helvetica,sans-Serif" font-size="10.00">+ reverse()</text>
<text text-anchor="start" x="8" y="-619.5" font-family="Helvetica,sans-Serif" font-size="10.00">+ operator~()</text>
<text text-anchor="start" x="8" y="-608.5" font-family="Helvetica,sans-Serif" font-size="10.00">+ asVector()</text>
<text text-anchor="start" x="8" y="-597.5" font-family="Helvetica,sans-Serif" font-size="10.00">+ asString()</text>
<text text-anchor="start" x="8" y="-586.5" font-family="Helvetica,sans-Serif" font-size="10.00">+ operator[]()</text>
<text text-anchor="start" x="8" y="-575.5" font-family="Helvetica,sans-Serif" font-size="10.00">+ operator[]()</text>
<text text-anchor="start" x="8" y="-564.5" font-family="Helvetica,sans-Serif" font-size="10.00">+ compareTo()</text>
</a>
</g>
</g>
<!-- Node4&#45;&gt;Node7 -->
<g id="edge7" class="edge">
<title>Node4&#45;&gt;Node7</title>
<path fill="none" stroke="orange" d="M71.61,-825.2C69.66,-819.81 67.93,-814.4 66.5,-809 64.02,-799.64 62.29,-789.79 61.13,-779.85"/>
<polygon fill="orange" stroke="orange" points="68.47,-826.79 75.36,-834.84 75,-824.25 68.47,-826.79"/>
<text text-anchor="middle" x="125" y="-801" font-family="Helvetica,sans-Serif" font-size="10.00"> &lt; SHA256_HASH_SIZE &gt;</text>
</g>
<!-- Node5 -->
<g id="node5" class="node">
<title>Node5</title>
<g id="a_node5"><a xlink:title=" ">
<polygon fill="white" stroke="#bfbfbf" points="349.5,-904.5 349.5,-961.5 433.5,-961.5 433.5,-904.5 349.5,-904.5"/>
<text text-anchor="middle" x="391.5" y="-949.5" font-family="Helvetica,sans-Serif" font-size="10.00">std::vector&lt; T &gt;</text>
<polyline fill="none" stroke="#bfbfbf" points="349.5,-942.5 433.5,-942.5 "/>
<text text-anchor="middle" x="391.5" y="-930.5" font-family="Helvetica,sans-Serif" font-size="10.00"> </text>
<polyline fill="none" stroke="#bfbfbf" points="349.5,-923.5 433.5,-923.5 "/>
<text text-anchor="middle" x="391.5" y="-911.5" font-family="Helvetica,sans-Serif" font-size="10.00"> </text>
</a>
</g>
</g>
<!-- Node5&#45;&gt;Node3 -->
<g id="edge4" class="edge">
<title>Node5&#45;&gt;Node3</title>
<path fill="none" stroke="orange" d="M352.27,-897.33C328.21,-874.3 298.32,-842.27 278.5,-809 258.45,-775.33 245.22,-732.08 237.82,-702.73"/>
<polygon fill="orange" stroke="orange" points="350.18,-900.17 359.86,-904.48 354.98,-895.08 350.18,-900.17"/>
<text text-anchor="middle" x="328" y="-801" font-family="Helvetica,sans-Serif" font-size="10.00"> &lt; altintegration::Blob &gt;</text>
</g>
<!-- Node11 -->
<g id="node11" class="node">
<title>Node11</title>
<g id="a_node11"><a xlink:title=" ">
<polygon fill="white" stroke="#bfbfbf" points="728,-640 728,-697 835,-697 835,-640 728,-640"/>
<text text-anchor="middle" x="781.5" y="-685" font-family="Helvetica,sans-Serif" font-size="10.00">std::vector&lt; uint8_t &gt;</text>
<polyline fill="none" stroke="#bfbfbf" points="728,-678 835,-678 "/>
<text text-anchor="start" x="736" y="-666" font-family="Helvetica,sans-Serif" font-size="10.00">+ elements</text>
<polyline fill="none" stroke="#bfbfbf" points="728,-659 835,-659 "/>
<text text-anchor="middle" x="781.5" y="-647" font-family="Helvetica,sans-Serif" font-size="10.00"> </text>
</a>
</g>
</g>
<!-- Node5&#45;&gt;Node11 -->
<g id="edge12" class="edge">
<title>Node5&#45;&gt;Node11</title>
<path fill="none" stroke="orange" d="M442.87,-905.87C496.99,-877.51 583.86,-829.61 653.5,-780 689.61,-754.28 727.65,-720.46 752.79,-697.04"/>
<polygon fill="orange" stroke="orange" points="441.07,-902.87 433.82,-910.59 444.3,-909.07 441.07,-902.87"/>
<text text-anchor="middle" x="650" y="-801" font-family="Helvetica,sans-Serif" font-size="10.00"> &lt; uint8_t &gt;</text>
</g>
<!-- Node14 -->
<g id="node14" class="node">
<title>Node14</title>
<g id="a_node14"><a xlink:title=" ">
<polygon fill="white" stroke="#bfbfbf" points="329,-381 329,-449 454,-449 454,-381 329,-381"/>
<text text-anchor="start" x="337" y="-437" font-family="Helvetica,sans-Serif" font-size="10.00">std::vector&lt; altintegration</text>
<text text-anchor="middle" x="391.5" y="-426" font-family="Helvetica,sans-Serif" font-size="10.00">::BtcBlock &gt;</text>
<polyline fill="none" stroke="#bfbfbf" points="329,-419 454,-419 "/>
<text text-anchor="middle" x="391.5" y="-407" font-family="Helvetica,sans-Serif" font-size="10.00"> </text>
<polyline fill="none" stroke="#bfbfbf" points="329,-400 454,-400 "/>
<text text-anchor="middle" x="391.5" y="-388" font-family="Helvetica,sans-Serif" font-size="10.00"> </text>
</a>
</g>
</g>
<!-- Node5&#45;&gt;Node14 -->
<g id="edge19" class="edge">
<title>Node5&#45;&gt;Node14</title>
<path fill="none" stroke="orange" d="M391.5,-894.02C391.5,-796.9 391.5,-540.67 391.5,-449.11"/>
<polygon fill="orange" stroke="orange" points="388,-894.26 391.5,-904.26 395,-894.26 388,-894.26"/>
<text text-anchor="middle" x="451" y="-666" font-family="Helvetica,sans-Serif" font-size="10.00"> &lt; altintegration::BtcBlock &gt;</text>
</g>
<!-- Node6 -->
<g id="node6" class="node">
<title>Node6</title>
<g id="a_node6"><a xlink:title=" ">
<polygon fill="white" stroke="#bfbfbf" points="377,-1086.5 377,-1143.5 406,-1143.5 406,-1086.5 377,-1086.5"/>
<text text-anchor="middle" x="391.5" y="-1131.5" font-family="Helvetica,sans-Serif" font-size="10.00">T</text>
<polyline fill="none" stroke="#bfbfbf" points="377,-1124.5 406,-1124.5 "/>
<text text-anchor="middle" x="391.5" y="-1112.5" font-family="Helvetica,sans-Serif" font-size="10.00"> </text>
<polyline fill="none" stroke="#bfbfbf" points="377,-1105.5 406,-1105.5 "/>
<text text-anchor="middle" x="391.5" y="-1093.5" font-family="Helvetica,sans-Serif" font-size="10.00"> </text>
</a>
</g>
</g>
<!-- Node6&#45;&gt;Node5 -->
<g id="edge5" class="edge">
<title>Node6&#45;&gt;Node5</title>
<path fill="none" stroke="#404040" d="M391.5,-1086.27C391.5,-1056.28 391.5,-1008.18 391.5,-974.08"/>
<polygon fill="none" stroke="#404040" points="391.5,-973.76 387.5,-967.76 391.5,-961.76 395.5,-967.76 391.5,-973.76"/>
<text text-anchor="middle" x="416" y="-1060" font-family="Helvetica,sans-Serif" font-size="10.00"> +elements</text>
</g>
<!-- Node7&#45;&gt;Node2 -->
<g id="edge6" class="edge">
<title>Node7&#45;&gt;Node2</title>
<path fill="none" stroke="#404040" d="M63.85,-557.3C64.44,-547.37 65.3,-537.49 66.5,-528 68.85,-509.49 73.19,-489.64 77.76,-471.87"/>
<polygon fill="none" stroke="#404040" points="77.77,-471.82 75.45,-465 80.86,-460.23 83.18,-467.06 77.77,-471.82"/>
<text text-anchor="middle" x="86.5" y="-531" font-family="Helvetica,sans-Serif" font-size="10.00"> +subject</text>
</g>
<!-- Node7&#45;&gt;Node12 -->
<g id="edge15" class="edge">
<title>Node7&#45;&gt;Node12</title>
<path fill="none" stroke="#404040" d="M102.13,-557.36C108.74,-546.57 116.48,-536.49 125.5,-528 142.7,-511.81 156.43,-523.94 175.5,-510 190.2,-499.25 203.34,-484.69 214.25,-470.24"/>
<polygon fill="none" stroke="#404040" points="214.4,-470.03 214.68,-462.82 221.43,-460.31 221.16,-467.51 214.4,-470.03"/>
<text text-anchor="middle" x="145.5" y="-531" font-family="Helvetica,sans-Serif" font-size="10.00"> +subject</text>
</g>
<!-- Node8 -->
<g id="node8" class="node">
<title>Node8</title>
<g id="a_node8"><a xlink:href="structaltintegration_1_1VbkPopTx.html" target="_top" xlink:title="Veriblock POP transaction, which endorses VBK block in BTC blockchain.">
<polygon fill="white" stroke="black" points="629.5,-182.5 629.5,-272.5 751.5,-272.5 751.5,-182.5 629.5,-182.5"/>
<text text-anchor="middle" x="690.5" y="-260.5" font-family="Helvetica,sans-Serif" font-size="10.00">altintegration::VbkPopTx</text>
<polyline fill="none" stroke="black" points="629.5,-253.5 751.5,-253.5 "/>
<text text-anchor="middle" x="690.5" y="-241.5" font-family="Helvetica,sans-Serif" font-size="10.00"> </text>
<polyline fill="none" stroke="black" points="629.5,-234.5 751.5,-234.5 "/>
<text text-anchor="start" x="637.5" y="-222.5" font-family="Helvetica,sans-Serif" font-size="10.00">+ toVbkEncoding()</text>
<text text-anchor="start" x="637.5" y="-211.5" font-family="Helvetica,sans-Serif" font-size="10.00">+ estimateSize()</text>
<text text-anchor="start" x="637.5" y="-200.5" font-family="Helvetica,sans-Serif" font-size="10.00">+ getHash()</text>
<text text-anchor="start" x="637.5" y="-189.5" font-family="Helvetica,sans-Serif" font-size="10.00">+ toPrettyString()</text>
</a>
</g>
</g>
<!-- Node8&#45;&gt;Node1 -->
<g id="edge8" class="edge">
<title>Node8&#45;&gt;Node1</title>
<path fill="none" stroke="#404040" d="M690.5,-182.49C690.5,-171.39 690.5,-159.15 690.5,-146.92"/>
<polygon fill="none" stroke="#404040" points="690.5,-146.74 686.5,-140.74 690.5,-134.74 694.5,-140.74 690.5,-146.74"/>
<text text-anchor="middle" x="719" y="-156" font-family="Helvetica,sans-Serif" font-size="10.00"> +transaction</text>
</g>
<!-- Node9 -->
<g id="node9" class="node">
<title>Node9</title>
<g id="a_node9"><a xlink:href="namespacealtintegration.html#structaltintegration_1_1NetworkBytePair" target="_top" xlink:title="Stores pair of TxType and VBK network byte.">
<polygon fill="white" stroke="black" points="937.5,-386.5 937.5,-443.5 1087.5,-443.5 1087.5,-386.5 937.5,-386.5"/>
<text text-anchor="middle" x="1012.5" y="-431.5" font-family="Helvetica,sans-Serif" font-size="10.00">altintegration::NetworkBytePair</text>
<polyline fill="none" stroke="black" points="937.5,-424.5 1087.5,-424.5 "/>
<text text-anchor="start" x="945.5" y="-412.5" font-family="Helvetica,sans-Serif" font-size="10.00">+ typeId</text>
<polyline fill="none" stroke="black" points="937.5,-405.5 1087.5,-405.5 "/>
<text text-anchor="middle" x="1012.5" y="-393.5" font-family="Helvetica,sans-Serif" font-size="10.00"> </text>
</a>
</g>
</g>
<!-- Node9&#45;&gt;Node8 -->
<g id="edge9" class="edge">
<title>Node9&#45;&gt;Node8</title>
<path fill="none" stroke="#404040" d="M988.88,-386.28C971.66,-366.79 947.27,-340.61 923.5,-320 906.63,-305.38 902.45,-301.01 882.5,-291 844.76,-272.06 800.02,-257.1 763.23,-246.58"/>
<polygon fill="none" stroke="#404040" points="763.14,-246.55 756.28,-248.79 751.58,-243.32 758.44,-241.08 763.14,-246.55"/>
<text text-anchor="middle" x="938" y="-294" font-family="Helvetica,sans-Serif" font-size="10.00"> +networkOrType</text>
</g>
<!-- Node10 -->
<g id="node10" class="node">
<title>Node10</title>
<g id="a_node10"><a xlink:href="structaltintegration_1_1VbkNetworkType.html" target="_top" xlink:title="works as optional&lt;uint8_t&gt;">
<polygon fill="white" stroke="black" points="936.5,-618 936.5,-719 1088.5,-719 1088.5,-618 936.5,-618"/>
<text text-anchor="middle" x="1012.5" y="-707" font-family="Helvetica,sans-Serif" font-size="10.00">altintegration::VbkNetworkType</text>
<polyline fill="none" stroke="black" points="936.5,-700 1088.5,-700 "/>
<text text-anchor="start" x="944.5" y="-688" font-family="Helvetica,sans-Serif" font-size="10.00">+ hasValue</text>
<text text-anchor="start" x="944.5" y="-677" font-family="Helvetica,sans-Serif" font-size="10.00">+ value</text>
<polyline fill="none" stroke="black" points="936.5,-670 1088.5,-670 "/>
<text text-anchor="start" x="944.5" y="-658" font-family="Helvetica,sans-Serif" font-size="10.00">+ operator bool()</text>
<text text-anchor="start" x="944.5" y="-647" font-family="Helvetica,sans-Serif" font-size="10.00">+ operator==()</text>
<text text-anchor="start" x="944.5" y="-636" font-family="Helvetica,sans-Serif" font-size="10.00">+ toPrettyString()</text>
<text text-anchor="start" x="944.5" y="-625" font-family="Helvetica,sans-Serif" font-size="10.00">+ putJson()</text>
</a>
</g>
</g>
<!-- Node10&#45;&gt;Node9 -->
<g id="edge10" class="edge">
<title>Node10&#45;&gt;Node9</title>
<path fill="none" stroke="#404040" d="M1012.5,-617.81C1012.5,-570.39 1012.5,-499.84 1012.5,-455.95"/>
<polygon fill="none" stroke="#404040" points="1012.5,-455.78 1008.5,-449.78 1012.5,-443.78 1016.5,-449.78 1012.5,-455.78"/>
<text text-anchor="middle" x="1044.5" y="-531" font-family="Helvetica,sans-Serif" font-size="10.00"> +networkType</text>
</g>
<!-- Node11&#45;&gt;Node8 -->
<g id="edge11" class="edge">
<title>Node11&#45;&gt;Node8</title>
<path fill="none" stroke="#404040" d="M795.85,-639.57C824.74,-579.37 883.72,-433.63 841.5,-320 828.8,-285.81 795.29,-263.64 763.06,-249.7"/>
<polygon fill="none" stroke="#404040" points="762.86,-249.62 755.8,-251.07 751.75,-245.1 758.81,-243.66 762.86,-249.62"/>
<text text-anchor="middle" x="881" y="-418" font-family="Helvetica,sans-Serif" font-size="10.00"> +publicKey</text>
<text text-anchor="middle" x="881" y="-407" font-family="Helvetica,sans-Serif" font-size="10.00">+signature</text>
</g>
<!-- Node16 -->
<g id="node16" class="node">
<title>Node16</title>
<g id="a_node16"><a xlink:href="structaltintegration_1_1BtcTx.html" target="_top" xlink:title="Bitcoin transaction representation.">
<polygon fill="white" stroke="black" points="730.5,-353.5 730.5,-476.5 832.5,-476.5 832.5,-353.5 730.5,-353.5"/>
<text text-anchor="middle" x="781.5" y="-464.5" font-family="Helvetica,sans-Serif" font-size="10.00">altintegration::BtcTx</text>
<polyline fill="none" stroke="black" points="730.5,-457.5 832.5,-457.5 "/>
<text text-anchor="middle" x="781.5" y="-445.5" font-family="Helvetica,sans-Serif" font-size="10.00"> </text>
<polyline fill="none" stroke="black" points="730.5,-438.5 832.5,-438.5 "/>
<text text-anchor="start" x="738.5" y="-426.5" font-family="Helvetica,sans-Serif" font-size="10.00">+ BtcTx()</text>
<text text-anchor="start" x="738.5" y="-415.5" font-family="Helvetica,sans-Serif" font-size="10.00">+ BtcTx()</text>
<text text-anchor="start" x="738.5" y="-404.5" font-family="Helvetica,sans-Serif" font-size="10.00">+ BtcTx()</text>
<text text-anchor="start" x="738.5" y="-393.5" font-family="Helvetica,sans-Serif" font-size="10.00">+ toVbkEncoding()</text>
<text text-anchor="start" x="738.5" y="-382.5" font-family="Helvetica,sans-Serif" font-size="10.00">+ toRaw()</text>
<text text-anchor="start" x="738.5" y="-371.5" font-family="Helvetica,sans-Serif" font-size="10.00">+ estimateSize()</text>
<text text-anchor="start" x="738.5" y="-360.5" font-family="Helvetica,sans-Serif" font-size="10.00">+ getHash()</text>
</a>
</g>
</g>
<!-- Node11&#45;&gt;Node16 -->
<g id="edge22" class="edge">
<title>Node11&#45;&gt;Node16</title>
<path fill="none" stroke="#404040" d="M781.5,-639.62C781.5,-603.53 781.5,-539.28 781.5,-488.88"/>
<polygon fill="none" stroke="#404040" points="781.5,-488.72 777.5,-482.72 781.5,-476.72 785.5,-482.72 781.5,-488.72"/>
<text text-anchor="middle" x="789.5" y="-531" font-family="Helvetica,sans-Serif" font-size="10.00"> +tx</text>
</g>
<!-- Node12&#45;&gt;Node8 -->
<g id="edge13" class="edge">
<title>Node12&#45;&gt;Node8</title>
<path fill="none" stroke="#404040" d="M258.35,-369.75C267.3,-342.79 282.81,-309.98 308.5,-291 356.32,-255.67 520.51,-239.32 617.37,-232.59"/>
<polygon fill="none" stroke="#404040" points="617.45,-232.59 623.16,-228.19 629.42,-231.78 623.7,-236.18 617.45,-232.59"/>
<text text-anchor="middle" x="337.5" y="-294" font-family="Helvetica,sans-Serif" font-size="10.00"> +merklePath</text>
</g>
<!-- Node13 -->
<g id="node13" class="node">
<title>Node13</title>
<g id="a_node13"><a xlink:href="structaltintegration_1_1BtcBlock.html" target="_top" xlink:title="Bitcoin block.">
<polygon fill="white" stroke="black" points="528.5,-579.5 528.5,-757.5 644.5,-757.5 644.5,-579.5 528.5,-579.5"/>
<text text-anchor="middle" x="586.5" y="-745.5" font-family="Helvetica,sans-Serif" font-size="10.00">altintegration::BtcBlock</text>
<polyline fill="none" stroke="black" points="528.5,-738.5 644.5,-738.5 "/>
<text text-anchor="middle" x="586.5" y="-726.5" font-family="Helvetica,sans-Serif" font-size="10.00"> </text>
<polyline fill="none" stroke="black" points="528.5,-719.5 644.5,-719.5 "/>
<text text-anchor="start" x="536.5" y="-707.5" font-family="Helvetica,sans-Serif" font-size="10.00">+ BtcBlock()</text>
<text text-anchor="start" x="536.5" y="-696.5" font-family="Helvetica,sans-Serif" font-size="10.00">+ BtcBlock()</text>
<text text-anchor="start" x="536.5" y="-685.5" font-family="Helvetica,sans-Serif" font-size="10.00">+ toRaw()</text>
<text text-anchor="start" x="536.5" y="-674.5" font-family="Helvetica,sans-Serif" font-size="10.00">+ toVbkEncoding()</text>
<text text-anchor="start" x="536.5" y="-663.5" font-family="Helvetica,sans-Serif" font-size="10.00">+ estimateSize()</text>
<text text-anchor="start" x="536.5" y="-652.5" font-family="Helvetica,sans-Serif" font-size="10.00">+ calculateHash()</text>
<text text-anchor="start" x="536.5" y="-641.5" font-family="Helvetica,sans-Serif" font-size="10.00">+ getHash()</text>
<text text-anchor="start" x="536.5" y="-630.5" font-family="Helvetica,sans-Serif" font-size="10.00">+ toPrettyString()</text>
<text text-anchor="start" x="536.5" y="-619.5" font-family="Helvetica,sans-Serif" font-size="10.00">+ getVersion()</text>
<text text-anchor="start" x="536.5" y="-608.5" font-family="Helvetica,sans-Serif" font-size="10.00">+ getPreviousBlock()</text>
<text text-anchor="start" x="536.5" y="-597.5" font-family="Helvetica,sans-Serif" font-size="10.00">and 10 more...</text>
<text text-anchor="start" x="536.5" y="-586.5" font-family="Helvetica,sans-Serif" font-size="10.00">+ name()</text>
</a>
</g>
</g>
<!-- Node13&#45;&gt;Node8 -->
<g id="edge16" class="edge">
<title>Node13&#45;&gt;Node8</title>
<path fill="none" stroke="#404040" d="M529.37,-579.44C489.21,-505.38 450.74,-399.2 500.5,-320 526.14,-279.2 575.64,-256.16 617.69,-243.41"/>
<polygon fill="none" stroke="#404040" points="617.79,-243.38 622.46,-237.89 629.33,-240.08 624.66,-245.58 617.79,-243.38"/>
<text text-anchor="middle" x="533.5" y="-412.5" font-family="Helvetica,sans-Serif" font-size="10.00"> +blockOfProof</text>
</g>
<!-- Node13&#45;&gt;Node14 -->
<g id="edge18" class="edge">
<title>Node13&#45;&gt;Node14</title>
<path fill="none" stroke="#404040" d="M539.13,-579.46C531.78,-570.95 523.58,-563.19 514.5,-557 481.88,-534.75 456.52,-565.77 427.5,-539 406.04,-519.2 397.12,-487.39 393.52,-461.07"/>
<polygon fill="none" stroke="#404040" points="393.51,-460.98 388.88,-455.46 392.19,-449.05 396.83,-454.57 393.51,-460.98"/>
<text text-anchor="middle" x="452" y="-531" font-family="Helvetica,sans-Serif" font-size="10.00"> +elements</text>
</g>
<!-- Node14&#45;&gt;Node8 -->
<g id="edge17" class="edge">
<title>Node14&#45;&gt;Node8</title>
<path fill="none" stroke="#404040" d="M375.67,-380.75C365.32,-353.62 357.13,-315.84 377.5,-291 407.23,-254.74 534.46,-239.11 617.27,-232.68"/>
<polygon fill="none" stroke="#404040" points="617.43,-232.66 623.12,-228.23 629.4,-231.77 623.71,-236.21 617.43,-232.66"/>
<text text-anchor="middle" x="427" y="-294" font-family="Helvetica,sans-Serif" font-size="10.00"> +blockOfProofContext</text>
</g>
<!-- Node15 -->
<g id="node15" class="node">
<title>Node15</title>
<g id="a_node15"><a xlink:href="structaltintegration_1_1Address.html" target="_top" xlink:title="Represents address on VBK chain.">
<polygon fill="white" stroke="black" points="575,-320.5 575,-509.5 712,-509.5 712,-320.5 575,-320.5"/>
<text text-anchor="middle" x="643.5" y="-497.5" font-family="Helvetica,sans-Serif" font-size="10.00">altintegration::Address</text>
<polyline fill="none" stroke="black" points="575,-490.5 712,-490.5 "/>
<text text-anchor="middle" x="643.5" y="-478.5" font-family="Helvetica,sans-Serif" font-size="10.00"> </text>
<polyline fill="none" stroke="black" points="575,-471.5 712,-471.5 "/>
<text text-anchor="start" x="583" y="-459.5" font-family="Helvetica,sans-Serif" font-size="10.00">+ Address()</text>
<text text-anchor="start" x="583" y="-448.5" font-family="Helvetica,sans-Serif" font-size="10.00">+ operator==()</text>
<text text-anchor="start" x="583" y="-437.5" font-family="Helvetica,sans-Serif" font-size="10.00">+ operator!=()</text>
<text text-anchor="start" x="583" y="-426.5" font-family="Helvetica,sans-Serif" font-size="10.00">+ operator==()</text>
<text text-anchor="start" x="583" y="-415.5" font-family="Helvetica,sans-Serif" font-size="10.00">+ getType()</text>
<text text-anchor="start" x="583" y="-404.5" font-family="Helvetica,sans-Serif" font-size="10.00">+ getPopBytes()</text>
<text text-anchor="start" x="583" y="-393.5" font-family="Helvetica,sans-Serif" font-size="10.00">+ isDerivedFromPublicKey()</text>
<text text-anchor="start" x="583" y="-382.5" font-family="Helvetica,sans-Serif" font-size="10.00">+ fromString()</text>
<text text-anchor="start" x="583" y="-371.5" font-family="Helvetica,sans-Serif" font-size="10.00">+ toString()</text>
<text text-anchor="start" x="583" y="-360.5" font-family="Helvetica,sans-Serif" font-size="10.00">+ toVbkEncoding()</text>
<text text-anchor="start" x="583" y="-349.5" font-family="Helvetica,sans-Serif" font-size="10.00">+ estimateSize()</text>
<text text-anchor="start" x="583" y="-338.5" font-family="Helvetica,sans-Serif" font-size="10.00">+ fromPublicKey()</text>
<text text-anchor="start" x="583" y="-327.5" font-family="Helvetica,sans-Serif" font-size="10.00">+ assertFromString()</text>
</a>
</g>
</g>
<!-- Node15&#45;&gt;Node8 -->
<g id="edge20" class="edge">
<title>Node15&#45;&gt;Node8</title>
<path fill="none" stroke="#404040" d="M665.11,-320.2C667.54,-310.32 670.03,-300.45 672.5,-291 673.05,-288.88 673.63,-286.72 674.22,-284.54"/>
<polygon fill="none" stroke="#404040" points="674.26,-284.38 672,-277.53 677.45,-272.81 679.71,-279.66 674.26,-284.38"/>
<text text-anchor="middle" x="694" y="-294" font-family="Helvetica,sans-Serif" font-size="10.00"> +address</text>
</g>
<!-- Node16&#45;&gt;Node8 -->
<g id="edge21" class="edge">
<title>Node16&#45;&gt;Node8</title>
<path fill="none" stroke="#404040" d="M751.7,-353.26C740.66,-330.75 728.21,-305.38 717.44,-283.42"/>
<polygon fill="none" stroke="#404040" points="717.42,-283.39 711.19,-279.76 712.14,-272.61 718.37,-276.24 717.42,-283.39"/>
<text text-anchor="middle" x="768.5" y="-294" font-family="Helvetica,sans-Serif" font-size="10.00"> +bitcoinTransaction</text>
</g>
<!-- Node17 -->
<g id="node17" class="node">
<title>Node17</title>
<g id="a_node17"><a xlink:href="structaltintegration_1_1VbkBlock.html" target="_top" xlink:title="Veriblock block.">
<polygon fill="white" stroke="black" points="1106,-326 1106,-504 1225,-504 1225,-326 1106,-326"/>
<text text-anchor="middle" x="1165.5" y="-492" font-family="Helvetica,sans-Serif" font-size="10.00">altintegration::VbkBlock</text>
<polyline fill="none" stroke="black" points="1106,-485 1225,-485 "/>
<text text-anchor="middle" x="1165.5" y="-473" font-family="Helvetica,sans-Serif" font-size="10.00"> </text>
<polyline fill="none" stroke="black" points="1106,-466 1225,-466 "/>
<text text-anchor="start" x="1114" y="-454" font-family="Helvetica,sans-Serif" font-size="10.00">+ toPrettyString()</text>
<text text-anchor="start" x="1114" y="-443" font-family="Helvetica,sans-Serif" font-size="10.00">+ toShortPrettyString()</text>
<text text-anchor="start" x="1114" y="-432" font-family="Helvetica,sans-Serif" font-size="10.00">+ toRaw()</text>
<text text-anchor="start" x="1114" y="-421" font-family="Helvetica,sans-Serif" font-size="10.00">+ toVbkEncoding()</text>
<text text-anchor="start" x="1114" y="-410" font-family="Helvetica,sans-Serif" font-size="10.00">+ toRaw()</text>
<text text-anchor="start" x="1114" y="-399" font-family="Helvetica,sans-Serif" font-size="10.00">+ toVbkEncoding()</text>
<text text-anchor="start" x="1114" y="-388" font-family="Helvetica,sans-Serif" font-size="10.00">+ estimateSize()</text>
<text text-anchor="start" x="1114" y="-377" font-family="Helvetica,sans-Serif" font-size="10.00">+ getBlockTime()</text>
<text text-anchor="start" x="1114" y="-366" font-family="Helvetica,sans-Serif" font-size="10.00">+ calculateHash()</text>
<text text-anchor="start" x="1114" y="-355" font-family="Helvetica,sans-Serif" font-size="10.00">+ getHash()</text>
<text text-anchor="start" x="1114" y="-344" font-family="Helvetica,sans-Serif" font-size="10.00">and 22 more...</text>
<text text-anchor="start" x="1114" y="-333" font-family="Helvetica,sans-Serif" font-size="10.00">+ name()</text>
</a>
</g>
</g>
<!-- Node17&#45;&gt;Node1 -->
<g id="edge24" class="edge">
<title>Node17&#45;&gt;Node1</title>
<path fill="none" stroke="#404040" d="M1149.38,-325.84C1144.43,-313.28 1137.96,-301.18 1129.5,-291 1031.62,-173.17 855.54,-111.26 758.79,-84.73"/>
<polygon fill="none" stroke="#404040" points="758.7,-84.7 751.86,-87.01 747.11,-81.59 753.94,-79.28 758.7,-84.7"/>
<text text-anchor="middle" x="1148.5" y="-225" font-family="Helvetica,sans-Serif" font-size="10.00"> +containingBlock</text>
</g>
<!-- Node17&#45;&gt;Node8 -->
<g id="edge23" class="edge">
<title>Node17&#45;&gt;Node8</title>
<path fill="none" stroke="#404040" d="M1105.8,-326.98C1102.8,-324.48 1099.7,-322.14 1096.5,-320 1042.71,-283.96 865.26,-253.54 763.65,-238.53"/>
<polygon fill="none" stroke="#404040" points="763.52,-238.51 757.01,-241.6 751.65,-236.78 758.16,-233.69 763.52,-238.51"/>
<text text-anchor="middle" x="1088" y="-294" font-family="Helvetica,sans-Serif" font-size="10.00"> +publishedBlock</text>
</g>
</g>
</svg>
        <g id="navigator" transform="translate(0 0)" fill="#404254">
                <rect fill="#f2f5e9" fill-opacity="0.5" stroke="#606060" stroke-width=".5" x="0" y="0" width="60" height="60"/>
                <use id="zoomplus" xlink:href="#zoomPlus" x="17" y="9" onmousedown="handleZoom(evt,'in')"/>
                <use id="zoomminus" xlink:href="#zoomMin" x="42" y="9" onmousedown="handleZoom(evt,'out')"/>
                <use id="reset" xlink:href="#resetDef" x="30" y="36" onmousedown="handleReset()"/>
                <g id="arrowUp" xlink:href="#dirArrow" transform="translate(30 24)" onmousedown="handlePan(0,-1)">
                  <use xlink:href="#rim" fill="#404040">
                        <set attributeName="fill" to="#808080" begin="arrowUp.mouseover" end="arrowUp.mouseout"/>
                  </use>
                  <path fill="none" stroke="white" stroke-width="1.5" d="M0,-3.0v7 M-2.5,-0.5L0,-3.0L2.5,-0.5"/>
                </g>
                <g id="arrowRight" xlink:href="#dirArrow" transform="rotate(90) translate(36 -43)" onmousedown="handlePan(1,0)">
                  <use xlink:href="#rim" fill="#404040">
                        <set attributeName="fill" to="#808080" begin="arrowRight.mouseover" end="arrowRight.mouseout"/>
                  </use>
                  <path fill="none" stroke="white" stroke-width="1.5" d="M0,-3.0v7 M-2.5,-0.5L0,-3.0L2.5,-0.5"/>
                </g>
                <g id="arrowDown" xlink:href="#dirArrow" transform="rotate(180) translate(-30 -48)" onmousedown="handlePan(0,1)">
                  <use xlink:href="#rim" fill="#404040">
                        <set attributeName="fill" to="#808080" begin="arrowDown.mouseover" end="arrowDown.mouseout"/>
                  </use>
                  <path fill="none" stroke="white" stroke-width="1.5" d="M0,-3.0v7 M-2.5,-0.5L0,-3.0L2.5,-0.5"/>
                </g>
                <g id="arrowLeft" xlink:href="#dirArrow" transform="rotate(270) translate(-36 17)" onmousedown="handlePan(-1,0)">
                  <use xlink:href="#rim" fill="#404040">
                        <set attributeName="fill" to="#808080" begin="arrowLeft.mouseover" end="arrowLeft.mouseout"/>
                  </use>
                  <path fill="none" stroke="white" stroke-width="1.5" d="M0,-3.0v7 M-2.5,-0.5L0,-3.0L2.5,-0.5"/>
                </g>
        </g>
        <svg viewBox="0 0 15 15" width="100%" height="30px" preserveAspectRatio="xMaxYMin meet">
         <g id="arrow_out" transform="scale(0.3 0.3)">
          <a xlink:href="structaltintegration_1_1VTB__coll__graph_org.svg" target="_base">
           <rect id="button" ry="5" rx="5" y="6" x="6" height="38" width="38"
                fill="#f2f5e9" fill-opacity="0.5" stroke="#606060" stroke-width="1.0"/>
           <path id="arrow"
             d="M 11.500037,31.436501 C 11.940474,20.09759 22.043105,11.32322 32.158766,21.979434 L 37.068811,17.246167 C 37.068811,17.246167 37.088388,32 37.088388,32 L 22.160133,31.978069 C 22.160133,31.978069 26.997745,27.140456 26.997745,27.140456 C 18.528582,18.264221 13.291696,25.230495 11.500037,31.436501 z"
             style="fill:#404040;"/>
          </a>
         </g>
        </svg>
</svg>
