<?xml version="1.0" encoding="UTF-8" standalone="no"?>
<!DOCTYPE svg PUBLIC "-//W3C//DTD SVG 1.1//EN"
 "http://www.w3.org/Graphics/SVG/1.1/DTD/svg11.dtd">
<!-- Generated by graphviz version 2.44.0 ()
 -->
<!-- Title: altintegration::VTB Pages: 1 -->
<!--zoomable 1329 -->
<svg id="main" version="1.1" xmlns="http://www.w3.org/2000/svg" xmlns:xlink="http://www.w3.org/1999/xlink" xml:space="preserve" onload="init(evt)">
<style type="text/css"><![CDATA[
.edge:hover path { stroke: red; }
.edge:hover polygon { stroke: red; fill: red; }
]]></style>
<script type="text/javascript"><![CDATA[
var edges = document.getElementsByTagName('g');
if (edges && edges.length) {
  for (var i=0;i<edges.length;i++) {
    if (edges[i].id.substr(0,4)=='edge') {
      edges[i].setAttribute('class','edge');
    }
  }
}
]]></script>
        <defs>
                <circle id="rim" cx="0" cy="0" r="7"/>
                <circle id="rim2" cx="0" cy="0" r="3.5"/>
                <g id="zoomPlus">
                        <use xlink:href="#rim" fill="#404040">
                                <set attributeName="fill" to="#808080" begin="zoomplus.mouseover" end="zoomplus.mouseout"/>
                        </use>
                        <path d="M-4,0h8M0,-4v8" fill="none" stroke="white" stroke-width="1.5" pointer-events="none"/>
                </g>
                <g id="zoomMin">
                        <use xlink:href="#rim" fill="#404040">
                                <set attributeName="fill" to="#808080" begin="zoomminus.mouseover" end="zoomminus.mouseout"/>
                        </use>
                        <path d="M-4,0h8" fill="none" stroke="white" stroke-width="1.5" pointer-events="none"/>
                </g>
                <g id="dirArrow">
                        <path fill="none" stroke="white" stroke-width="1.5" d="M0,-3.0v7 M-2.5,-0.5L0,-3.0L2.5,-0.5"/>
                </g>
               <g id="resetDef">
                       <use xlink:href="#rim2" fill="#404040">
                               <set attributeName="fill" to="#808080" begin="reset.mouseover" end="reset.mouseout"/>
                       </use>
               </g>
        </defs>

<script type="text/javascript">
var viewWidth = 1233;
var viewHeight = 1329;
var sectionId = 'dynsection-0';
</script>
<script xlink:href="svgpan.js"/>
<svg id="graph" class="graph">
<g id="viewport">
<title>altintegration::VTB</title>
<polygon fill="white" stroke="transparent" points="-4,4 -4,-1325 1229,-1325 1229,4 -4,4"/>
<!-- Node1 -->
<g id="node1" class="node">
<title>Node1</title>
<g id="a_node1"><a xlink:title="Veriblock to Bitcoin publication, committed to Veriblock blockchain in containingBlock.">
<polygon fill="#bfbfbf" stroke="black" points="642.5,-0.5 642.5,-123.5 738.5,-123.5 738.5,-0.5 642.5,-0.5"/>
<text text-anchor="middle" x="690.5" y="-111.5" font-family="Helvetica,sans-Serif" font-size="10.00">altintegration::VTB</text>
<polyline fill="none" stroke="black" points="642.5,-104.5 738.5,-104.5 "/>
<text text-anchor="start" x="650.5" y="-92.5" font-family="Helvetica,sans-Serif" font-size="10.00">+ version</text>
<text text-anchor="start" x="650.5" y="-81.5" font-family="Helvetica,sans-Serif" font-size="10.00">+ checked</text>
<polyline fill="none" stroke="black" points="642.5,-74.5 738.5,-74.5 "/>
<text text-anchor="start" x="650.5" y="-62.5" font-family="Helvetica,sans-Serif" font-size="10.00">+ toPrettyString()</text>
<text text-anchor="start" x="650.5" y="-51.5" font-family="Helvetica,sans-Serif" font-size="10.00">+ toVbkEncoding()</text>
<text text-anchor="start" x="650.5" y="-40.5" font-family="Helvetica,sans-Serif" font-size="10.00">+ toVbkEncoding()</text>
<text text-anchor="start" x="650.5" y="-29.5" font-family="Helvetica,sans-Serif" font-size="10.00">+ estimateSize()</text>
<text text-anchor="start" x="650.5" y="-18.5" font-family="Helvetica,sans-Serif" font-size="10.00">+ getId()</text>
<text text-anchor="start" x="650.5" y="-7.5" font-family="Helvetica,sans-Serif" font-size="10.00">+ name()</text>
</a>
</g>
</g>
<!-- Node2 -->
<g id="node2" class="node">
<title>Node2</title>
<g id="a_node2"><a xlink:href="structaltintegration_1_1VbkMerklePath.html" target="_top" xlink:title="Path in Merkle tree, which proves that subject exists in the tree.">
<polygon fill="white" stroke="black" points="23,-359 23,-449 166,-449 166,-359 23,-359"/>
<text text-anchor="middle" x="94.5" y="-437" font-family="Helvetica,sans-Serif" font-size="10.00">altintegration::VbkMerklePath</text>
<polyline fill="none" stroke="black" points="23,-430 166,-430 "/>
<text text-anchor="start" x="31" y="-418" font-family="Helvetica,sans-Serif" font-size="10.00">+ treeIndex</text>
<text text-anchor="start" x="31" y="-407" font-family="Helvetica,sans-Serif" font-size="10.00">+ index</text>
<polyline fill="none" stroke="black" points="23,-400 166,-400 "/>
<text text-anchor="start" x="31" y="-388" font-family="Helvetica,sans-Serif" font-size="10.00">+ toVbkEncoding()</text>
<text text-anchor="start" x="31" y="-377" font-family="Helvetica,sans-Serif" font-size="10.00">+ estimateSize()</text>
<text text-anchor="start" x="31" y="-366" font-family="Helvetica,sans-Serif" font-size="10.00">+ calculateMerkleRoot()</text>
</a>
</g>
</g>
<!-- Node2&#45;&gt;Node1 -->
<g id="edge1" class="edge">
<title>Node2&#45;&gt;Node1</title>
<path fill="none" stroke="#404040" d="M126.27,-358.76C140.03,-341.72 157.19,-323 175.5,-309 322.98,-196.28 530.39,-116.8 631.05,-82.27"/>
<polygon fill="none" stroke="#404040" points="631.13,-82.25 635.53,-76.53 642.49,-78.38 638.1,-84.1 631.13,-82.25"/>
<text text-anchor="middle" x="435.5" y="-214" font-family="Helvetica,sans-Serif" font-size="10.00"> +merklePath</text>
</g>
<!-- Node3 -->
<g id="node3" class="node">
<title>Node3</title>
<g id="a_node3"><a xlink:title=" ">
<polygon fill="white" stroke="#bfbfbf" points="168,-623.5 168,-691.5 293,-691.5 293,-623.5 168,-623.5"/>
<text text-anchor="start" x="176" y="-679.5" font-family="Helvetica,sans-Serif" font-size="10.00">std::vector&lt; altintegration</text>
<text text-anchor="middle" x="230.5" y="-668.5" font-family="Helvetica,sans-Serif" font-size="10.00">::Blob &gt;</text>
<polyline fill="none" stroke="#bfbfbf" points="168,-661.5 293,-661.5 "/>
<text text-anchor="middle" x="230.5" y="-649.5" font-family="Helvetica,sans-Serif" font-size="10.00"> </text>
<polyline fill="none" stroke="#bfbfbf" points="168,-642.5 293,-642.5 "/>
<text text-anchor="middle" x="230.5" y="-630.5" font-family="Helvetica,sans-Serif" font-size="10.00"> </text>
</a>
</g>
</g>
<!-- Node3&#45;&gt;Node2 -->
<g id="edge2" class="edge">
<title>Node3&#45;&gt;Node2</title>
<path fill="none" stroke="#404040" d="M217.92,-623.3C206.57,-594.53 188.74,-552.12 169.5,-517 158.83,-497.52 145.76,-477.09 133.55,-459.1"/>
<polygon fill="none" stroke="#404040" points="133.46,-458.98 126.77,-456.3 126.67,-449.09 133.36,-451.77 133.46,-458.98"/>
<text text-anchor="middle" x="192.5" y="-520" font-family="Helvetica,sans-Serif" font-size="10.00"> +layers</text>
</g>
<!-- Node14 -->
<g id="node14" class="node">
<title>Node14</title>
<g id="a_node14"><a xlink:href="structaltintegration_1_1MerklePath.html" target="_top" xlink:title="Path in Merkle tree which proves that subject is inside this tree.">
<polygon fill="white" stroke="black" points="184.5,-359 184.5,-449 310.5,-449 310.5,-359 184.5,-359"/>
<text text-anchor="middle" x="247.5" y="-437" font-family="Helvetica,sans-Serif" font-size="10.00">altintegration::MerklePath</text>
<polyline fill="none" stroke="black" points="184.5,-430 310.5,-430 "/>
<text text-anchor="start" x="192.5" y="-418" font-family="Helvetica,sans-Serif" font-size="10.00">+ index</text>
<polyline fill="none" stroke="black" points="184.5,-411 310.5,-411 "/>
<text text-anchor="start" x="192.5" y="-399" font-family="Helvetica,sans-Serif" font-size="10.00">+ toRaw()</text>
<text text-anchor="start" x="192.5" y="-388" font-family="Helvetica,sans-Serif" font-size="10.00">+ toVbkEncoding()</text>
<text text-anchor="start" x="192.5" y="-377" font-family="Helvetica,sans-Serif" font-size="10.00">+ estimateSize()</text>
<text text-anchor="start" x="192.5" y="-366" font-family="Helvetica,sans-Serif" font-size="10.00">+ calculateMerkleRoot()</text>
</a>
</g>
</g>
<!-- Node3&#45;&gt;Node14 -->
<g id="edge17" class="edge">
<title>Node3&#45;&gt;Node14</title>
<path fill="none" stroke="#404040" d="M232.74,-623.36C235.52,-582.17 240.32,-511.22 243.69,-461.41"/>
<polygon fill="none" stroke="#404040" points="243.7,-461.2 240.11,-454.94 244.51,-449.23 248.1,-455.48 243.7,-461.2"/>
<text text-anchor="middle" x="257.5" y="-520" font-family="Helvetica,sans-Serif" font-size="10.00"> +layers</text>
</g>
<!-- Node4 -->
<g id="node4" class="node">
<title>Node4</title>
<g id="a_node4"><a xlink:href="structaltintegration_1_1Blob.html" target="_top" xlink:title="Contiguous byte array of fixed size.">
<polygon fill="white" stroke="black" points="145.5,-816.5 145.5,-1005.5 265.5,-1005.5 265.5,-816.5 145.5,-816.5"/>
<text text-anchor="middle" x="205.5" y="-993.5" font-family="Helvetica,sans-Serif" font-size="10.00">altintegration::Blob&lt; N &gt;</text>
<polyline fill="none" stroke="black" points="145.5,-986.5 265.5,-986.5 "/>
<text text-anchor="start" x="153.5" y="-974.5" font-family="Helvetica,sans-Serif" font-size="10.00">+ this</text>
<polyline fill="none" stroke="black" points="145.5,-967.5 265.5,-967.5 "/>
<text text-anchor="start" x="153.5" y="-955.5" font-family="Helvetica,sans-Serif" font-size="10.00">+ Blob()</text>
<text text-anchor="start" x="153.5" y="-944.5" font-family="Helvetica,sans-Serif" font-size="10.00">+ Blob()</text>
<text text-anchor="start" x="153.5" y="-933.5" font-family="Helvetica,sans-Serif" font-size="10.00">+ Blob()</text>
<text text-anchor="start" x="153.5" y="-922.5" font-family="Helvetica,sans-Serif" font-size="10.00">+ Blob()</text>
<text text-anchor="start" x="153.5" y="-911.5" font-family="Helvetica,sans-Serif" font-size="10.00">+ Blob()</text>
<text text-anchor="start" x="153.5" y="-900.5" font-family="Helvetica,sans-Serif" font-size="10.00">+ operator=()</text>
<text text-anchor="start" x="153.5" y="-889.5" font-family="Helvetica,sans-Serif" font-size="10.00">+ operator=()</text>
<text text-anchor="start" x="153.5" y="-878.5" font-family="Helvetica,sans-Serif" font-size="10.00">+ reverse()</text>
<text text-anchor="start" x="153.5" y="-867.5" font-family="Helvetica,sans-Serif" font-size="10.00">+ operator~()</text>
<text text-anchor="start" x="153.5" y="-856.5" font-family="Helvetica,sans-Serif" font-size="10.00">+ asVector()</text>
<text text-anchor="start" x="153.5" y="-845.5" font-family="Helvetica,sans-Serif" font-size="10.00">and 9 more...</text>
<text text-anchor="start" x="153.5" y="-834.5" font-family="Helvetica,sans-Serif" font-size="10.00"># assign()</text>
<text text-anchor="start" x="153.5" y="-823.5" font-family="Helvetica,sans-Serif" font-size="10.00"># assign()</text>
</a>
</g>
</g>
<!-- Node4&#45;&gt;Node3 -->
<g id="edge3" class="edge">
<title>Node4&#45;&gt;Node3</title>
<path fill="none" stroke="#404040" d="M204.55,-816.23C204.96,-806.35 205.59,-796.46 206.5,-787 209.21,-758.98 214.93,-727.94 220.1,-703.39"/>
<polygon fill="none" stroke="#404040" points="220.13,-703.28 217.49,-696.57 222.66,-691.55 225.3,-698.26 220.13,-703.28"/>
<text text-anchor="middle" x="231" y="-790" font-family="Helvetica,sans-Serif" font-size="10.00"> +elements</text>
</g>
<!-- Node9 -->
<g id="node9" class="node">
<title>Node9</title>
<g id="a_node9"><a xlink:href="structaltintegration_1_1Blob.html" target="_top" xlink:title=" ">
<polygon fill="white" stroke="black" points="0,-546.5 0,-768.5 131,-768.5 131,-546.5 0,-546.5"/>
<text text-anchor="start" x="8" y="-756.5" font-family="Helvetica,sans-Serif" font-size="10.00">altintegration::Blob</text>
<text text-anchor="middle" x="65.5" y="-745.5" font-family="Helvetica,sans-Serif" font-size="10.00">&lt; SHA256_HASH_SIZE &gt;</text>
<polyline fill="none" stroke="black" points="0,-738.5 131,-738.5 "/>
<text text-anchor="start" x="8" y="-726.5" font-family="Helvetica,sans-Serif" font-size="10.00">+ data_</text>
<text text-anchor="start" x="8" y="-715.5" font-family="Helvetica,sans-Serif" font-size="10.00">+ this</text>
<text text-anchor="start" x="8" y="-704.5" font-family="Helvetica,sans-Serif" font-size="10.00"># data_</text>
<polyline fill="none" stroke="black" points="0,-697.5 131,-697.5 "/>
<text text-anchor="start" x="8" y="-685.5" font-family="Helvetica,sans-Serif" font-size="10.00">+ Blob()</text>
<text text-anchor="start" x="8" y="-674.5" font-family="Helvetica,sans-Serif" font-size="10.00">+ Blob()</text>
<text text-anchor="start" x="8" y="-663.5" font-family="Helvetica,sans-Serif" font-size="10.00">+ Blob()</text>
<text text-anchor="start" x="8" y="-652.5" font-family="Helvetica,sans-Serif" font-size="10.00">+ Blob()</text>
<text text-anchor="start" x="8" y="-641.5" font-family="Helvetica,sans-Serif" font-size="10.00">+ Blob()</text>
<text text-anchor="start" x="8" y="-630.5" font-family="Helvetica,sans-Serif" font-size="10.00">+ operator=()</text>
<text text-anchor="start" x="8" y="-619.5" font-family="Helvetica,sans-Serif" font-size="10.00">+ operator=()</text>
<text text-anchor="start" x="8" y="-608.5" font-family="Helvetica,sans-Serif" font-size="10.00">+ reverse()</text>
<text text-anchor="start" x="8" y="-597.5" font-family="Helvetica,sans-Serif" font-size="10.00">+ operator~()</text>
<text text-anchor="start" x="8" y="-586.5" font-family="Helvetica,sans-Serif" font-size="10.00">+ asVector()</text>
<text text-anchor="start" x="8" y="-575.5" font-family="Helvetica,sans-Serif" font-size="10.00">and 9 more...</text>
<text text-anchor="start" x="8" y="-564.5" font-family="Helvetica,sans-Serif" font-size="10.00"># assign()</text>
<text text-anchor="start" x="8" y="-553.5" font-family="Helvetica,sans-Serif" font-size="10.00"># assign()</text>
</a>
</g>
</g>
<!-- Node4&#45;&gt;Node9 -->
<g id="edge10" class="edge">
<title>Node4&#45;&gt;Node9</title>
<path fill="none" stroke="orange" d="M137.6,-861.23C117.73,-843.55 98.01,-821.97 85.5,-798 80.69,-788.78 76.92,-778.78 73.99,-768.51"/>
<polygon fill="orange" stroke="orange" points="135.36,-863.92 145.21,-867.81 139.94,-858.62 135.36,-863.92"/>
<text text-anchor="middle" x="144" y="-790" font-family="Helvetica,sans-Serif" font-size="10.00"> &lt; SHA256_HASH_SIZE &gt;</text>
</g>
<!-- Node5 -->
<g id="node5" class="node">
<title>Node5</title>
<g id="a_node5"><a xlink:title=" ">
<polygon fill="white" stroke="#bfbfbf" points="153,-1053.5 153,-1110.5 284,-1110.5 284,-1053.5 153,-1053.5"/>
<text text-anchor="middle" x="218.5" y="-1098.5" font-family="Helvetica,sans-Serif" font-size="10.00">std::array&lt; value_type, N &gt;</text>
<polyline fill="none" stroke="#bfbfbf" points="153,-1091.5 284,-1091.5 "/>
<text text-anchor="start" x="161" y="-1079.5" font-family="Helvetica,sans-Serif" font-size="10.00">+ elements</text>
<polyline fill="none" stroke="#bfbfbf" points="153,-1072.5 284,-1072.5 "/>
<text text-anchor="middle" x="218.5" y="-1060.5" font-family="Helvetica,sans-Serif" font-size="10.00"> </text>
</a>
</g>
</g>
<!-- Node5&#45;&gt;Node4 -->
<g id="edge4" class="edge">
<title>Node5&#45;&gt;Node4</title>
<path fill="none" stroke="#404040" d="M216.38,-1053.47C215.59,-1043.23 214.65,-1030.9 213.64,-1017.84"/>
<polygon fill="none" stroke="#404040" points="213.63,-1017.65 209.18,-1011.98 212.71,-1005.69 217.16,-1011.36 213.63,-1017.65"/>
<text text-anchor="middle" x="231.5" y="-1027" font-family="Helvetica,sans-Serif" font-size="10.00"> #data_</text>
</g>
<!-- Node6 -->
<g id="node6" class="node">
<title>Node6</title>
<g id="a_node6"><a xlink:title=" ">
<polygon fill="white" stroke="#bfbfbf" points="200.5,-1158.5 200.5,-1215.5 278.5,-1215.5 278.5,-1158.5 200.5,-1158.5"/>
<text text-anchor="middle" x="239.5" y="-1203.5" font-family="Helvetica,sans-Serif" font-size="10.00">std::array&lt; T &gt;</text>
<polyline fill="none" stroke="#bfbfbf" points="200.5,-1196.5 278.5,-1196.5 "/>
<text text-anchor="middle" x="239.5" y="-1184.5" font-family="Helvetica,sans-Serif" font-size="10.00"> </text>
<polyline fill="none" stroke="#bfbfbf" points="200.5,-1177.5 278.5,-1177.5 "/>
<text text-anchor="middle" x="239.5" y="-1165.5" font-family="Helvetica,sans-Serif" font-size="10.00"> </text>
</a>
</g>
</g>
<!-- Node6&#45;&gt;Node5 -->
<g id="edge5" class="edge">
<title>Node6&#45;&gt;Node5</title>
<path fill="none" stroke="orange" d="M224.68,-1148.54C223.85,-1145.68 223.1,-1142.81 222.5,-1140 220.47,-1130.59 219.41,-1120.13 218.87,-1110.76"/>
<polygon fill="orange" stroke="orange" points="221.38,-1149.71 227.78,-1158.16 228.04,-1147.57 221.38,-1149.71"/>
<text text-anchor="middle" x="262" y="-1132" font-family="Helvetica,sans-Serif" font-size="10.00"> &lt; value_type, N &gt;</text>
</g>
<!-- Node7 -->
<g id="node7" class="node">
<title>Node7</title>
<g id="a_node7"><a xlink:title=" ">
<polygon fill="white" stroke="#bfbfbf" points="276,-1263.5 276,-1320.5 305,-1320.5 305,-1263.5 276,-1263.5"/>
<text text-anchor="middle" x="290.5" y="-1308.5" font-family="Helvetica,sans-Serif" font-size="10.00">T</text>
<polyline fill="none" stroke="#bfbfbf" points="276,-1301.5 305,-1301.5 "/>
<text text-anchor="middle" x="290.5" y="-1289.5" font-family="Helvetica,sans-Serif" font-size="10.00"> </text>
<polyline fill="none" stroke="#bfbfbf" points="276,-1282.5 305,-1282.5 "/>
<text text-anchor="middle" x="290.5" y="-1270.5" font-family="Helvetica,sans-Serif" font-size="10.00"> </text>
</a>
</g>
</g>
<!-- Node7&#45;&gt;Node6 -->
<g id="edge6" class="edge">
<title>Node7&#45;&gt;Node6</title>
<path fill="none" stroke="#404040" d="M275.73,-1270.52C270.51,-1262.76 264.86,-1253.69 260.5,-1245 257.67,-1239.37 255.02,-1233.27 252.62,-1227.22"/>
<polygon fill="none" stroke="#404040" points="252.54,-1227.01 246.69,-1222.81 248.32,-1215.78 254.18,-1219.99 252.54,-1227.01"/>
<text text-anchor="middle" x="285" y="-1237" font-family="Helvetica,sans-Serif" font-size="10.00"> +elements</text>
</g>
<!-- Node8 -->
<g id="node8" class="node">
<title>Node8</title>
<g id="a_node8"><a xlink:title=" ">
<polygon fill="white" stroke="#bfbfbf" points="316.5,-882.5 316.5,-939.5 400.5,-939.5 400.5,-882.5 316.5,-882.5"/>
<text text-anchor="middle" x="358.5" y="-927.5" font-family="Helvetica,sans-Serif" font-size="10.00">std::vector&lt; T &gt;</text>
<polyline fill="none" stroke="#bfbfbf" points="316.5,-920.5 400.5,-920.5 "/>
<text text-anchor="middle" x="358.5" y="-908.5" font-family="Helvetica,sans-Serif" font-size="10.00"> </text>
<polyline fill="none" stroke="#bfbfbf" points="316.5,-901.5 400.5,-901.5 "/>
<text text-anchor="middle" x="358.5" y="-889.5" font-family="Helvetica,sans-Serif" font-size="10.00"> </text>
</a>
</g>
</g>
<!-- Node7&#45;&gt;Node8 -->
<g id="edge8" class="edge">
<title>Node7&#45;&gt;Node8</title>
<path fill="none" stroke="#404040" d="M303.28,-1263.16C305.62,-1257.26 307.85,-1251 309.5,-1245 338.04,-1141.44 350.86,-1014.89 355.82,-951.78"/>
<polygon fill="none" stroke="#404040" points="355.83,-951.63 352.29,-945.35 356.73,-939.66 360.27,-945.95 355.83,-951.63"/>
<text text-anchor="middle" x="359" y="-1132" font-family="Helvetica,sans-Serif" font-size="10.00"> +elements</text>
</g>
<!-- Node8&#45;&gt;Node3 -->
<g id="edge7" class="edge">
<title>Node8&#45;&gt;Node3</title>
<path fill="none" stroke="orange" d="M329.01,-874.4C312.51,-853.19 292.51,-825.19 278.5,-798 260.67,-763.39 247.09,-720.7 239,-691.73"/>
<polygon fill="orange" stroke="orange" points="326.43,-876.78 335.37,-882.46 331.93,-872.44 326.43,-876.78"/>
<text text-anchor="middle" x="328" y="-790" font-family="Helvetica,sans-Serif" font-size="10.00"> &lt; altintegration::Blob &gt;</text>
</g>
<!-- Node13 -->
<g id="node13" class="node">
<title>Node13</title>
<g id="a_node13"><a xlink:title=" ">
<polygon fill="white" stroke="#bfbfbf" points="728,-629 728,-686 835,-686 835,-629 728,-629"/>
<text text-anchor="middle" x="781.5" y="-674" font-family="Helvetica,sans-Serif" font-size="10.00">std::vector&lt; uint8_t &gt;</text>
<polyline fill="none" stroke="#bfbfbf" points="728,-667 835,-667 "/>
<text text-anchor="start" x="736" y="-655" font-family="Helvetica,sans-Serif" font-size="10.00">+ elements</text>
<polyline fill="none" stroke="#bfbfbf" points="728,-648 835,-648 "/>
<text text-anchor="middle" x="781.5" y="-636" font-family="Helvetica,sans-Serif" font-size="10.00"> </text>
</a>
</g>
</g>
<!-- Node8&#45;&gt;Node13 -->
<g id="edge15" class="edge">
<title>Node8&#45;&gt;Node13</title>
<path fill="none" stroke="orange" d="M410.03,-890.28C470.7,-865.98 573.34,-821.41 653.5,-769 690.85,-744.58 728.97,-710.21 753.78,-686.3"/>
<polygon fill="orange" stroke="orange" points="408.66,-887.06 400.67,-894.01 411.25,-893.57 408.66,-887.06"/>
<text text-anchor="middle" x="648" y="-790" font-family="Helvetica,sans-Serif" font-size="10.00"> &lt; uint8_t &gt;</text>
</g>
<!-- Node16 -->
<g id="node16" class="node">
<title>Node16</title>
<g id="a_node16"><a xlink:title=" ">
<polygon fill="white" stroke="#bfbfbf" points="329,-370 329,-438 454,-438 454,-370 329,-370"/>
<text text-anchor="start" x="337" y="-426" font-family="Helvetica,sans-Serif" font-size="10.00">std::vector&lt; altintegration</text>
<text text-anchor="middle" x="391.5" y="-415" font-family="Helvetica,sans-Serif" font-size="10.00">::BtcBlock &gt;</text>
<polyline fill="none" stroke="#bfbfbf" points="329,-408 454,-408 "/>
<text text-anchor="middle" x="391.5" y="-396" font-family="Helvetica,sans-Serif" font-size="10.00"> </text>
<polyline fill="none" stroke="#bfbfbf" points="329,-389 454,-389 "/>
<text text-anchor="middle" x="391.5" y="-377" font-family="Helvetica,sans-Serif" font-size="10.00"> </text>
</a>
</g>
</g>
<!-- Node8&#45;&gt;Node16 -->
<g id="edge22" class="edge">
<title>Node8&#45;&gt;Node16</title>
<path fill="none" stroke="orange" d="M366.24,-871.98C370.31,-850.38 374.97,-822.79 377.5,-798 391.07,-665.22 392.08,-506.04 391.8,-438.23"/>
<polygon fill="orange" stroke="orange" points="362.75,-871.58 364.3,-882.06 369.62,-872.9 362.75,-871.58"/>
<text text-anchor="middle" x="451" y="-655" font-family="Helvetica,sans-Serif" font-size="10.00"> &lt; altintegration::BtcBlock &gt;</text>
</g>
<!-- Node9&#45;&gt;Node2 -->
<g id="edge9" class="edge">
<title>Node9&#45;&gt;Node2</title>
<path fill="none" stroke="#404040" d="M63.85,-546.3C64.44,-536.37 65.3,-526.49 66.5,-517 68.85,-498.49 73.19,-478.64 77.76,-460.87"/>
<polygon fill="none" stroke="#404040" points="77.77,-460.82 75.45,-454 80.86,-449.23 83.18,-456.06 77.77,-460.82"/>
<text text-anchor="middle" x="86.5" y="-520" font-family="Helvetica,sans-Serif" font-size="10.00"> +subject</text>
</g>
<!-- Node9&#45;&gt;Node14 -->
<g id="edge18" class="edge">
<title>Node9&#45;&gt;Node14</title>
<path fill="none" stroke="#404040" d="M102.19,-546.42C108.79,-535.62 116.5,-525.52 125.5,-517 142.34,-501.04 155.77,-512.69 174.5,-499 189.27,-488.2 202.56,-473.62 213.62,-459.17"/>
<polygon fill="none" stroke="#404040" points="213.82,-458.91 214.14,-451.71 220.92,-449.24 220.59,-456.44 213.82,-458.91"/>
<text text-anchor="middle" x="145.5" y="-520" font-family="Helvetica,sans-Serif" font-size="10.00"> +subject</text>
</g>
<!-- Node10 -->
<g id="node10" class="node">
<title>Node10</title>
<g id="a_node10"><a xlink:href="structaltintegration_1_1VbkPopTx.html" target="_top" xlink:title="Veriblock POP transaction, which endorses VBK block in BTC blockchain.">
<polygon fill="white" stroke="black" points="629.5,-171.5 629.5,-261.5 751.5,-261.5 751.5,-171.5 629.5,-171.5"/>
<text text-anchor="middle" x="690.5" y="-249.5" font-family="Helvetica,sans-Serif" font-size="10.00">altintegration::VbkPopTx</text>
<polyline fill="none" stroke="black" points="629.5,-242.5 751.5,-242.5 "/>
<text text-anchor="middle" x="690.5" y="-230.5" font-family="Helvetica,sans-Serif" font-size="10.00"> </text>
<polyline fill="none" stroke="black" points="629.5,-223.5 751.5,-223.5 "/>
<text text-anchor="start" x="637.5" y="-211.5" font-family="Helvetica,sans-Serif" font-size="10.00">+ toVbkEncoding()</text>
<text text-anchor="start" x="637.5" y="-200.5" font-family="Helvetica,sans-Serif" font-size="10.00">+ estimateSize()</text>
<text text-anchor="start" x="637.5" y="-189.5" font-family="Helvetica,sans-Serif" font-size="10.00">+ getHash()</text>
<text text-anchor="start" x="637.5" y="-178.5" font-family="Helvetica,sans-Serif" font-size="10.00">+ toPrettyString()</text>
</a>
</g>
</g>
<!-- Node10&#45;&gt;Node1 -->
<g id="edge11" class="edge">
<title>Node10&#45;&gt;Node1</title>
<path fill="none" stroke="#404040" d="M690.5,-171.39C690.5,-160.24 690.5,-147.97 690.5,-135.81"/>
<polygon fill="none" stroke="#404040" points="690.5,-135.74 686.5,-129.74 690.5,-123.74 694.5,-129.74 690.5,-135.74"/>
<text text-anchor="middle" x="719" y="-145" font-family="Helvetica,sans-Serif" font-size="10.00"> +transaction</text>
</g>
<!-- Node11 -->
<g id="node11" class="node">
<title>Node11</title>
<g id="a_node11"><a xlink:href="namespacealtintegration.html#structaltintegration_1_1NetworkBytePair" target="_top" xlink:title="Stores pair of TxType and VBK network byte.">
<polygon fill="white" stroke="black" points="937.5,-375.5 937.5,-432.5 1087.5,-432.5 1087.5,-375.5 937.5,-375.5"/>
<text text-anchor="middle" x="1012.5" y="-420.5" font-family="Helvetica,sans-Serif" font-size="10.00">altintegration::NetworkBytePair</text>
<polyline fill="none" stroke="black" points="937.5,-413.5 1087.5,-413.5 "/>
<text text-anchor="start" x="945.5" y="-401.5" font-family="Helvetica,sans-Serif" font-size="10.00">+ typeId</text>
<polyline fill="none" stroke="black" points="937.5,-394.5 1087.5,-394.5 "/>
<text text-anchor="middle" x="1012.5" y="-382.5" font-family="Helvetica,sans-Serif" font-size="10.00"> </text>
</a>
</g>
</g>
<!-- Node11&#45;&gt;Node10 -->
<g id="edge12" class="edge">
<title>Node11&#45;&gt;Node10</title>
<path fill="none" stroke="#404040" d="M988.88,-375.28C971.66,-355.79 947.27,-329.61 923.5,-309 906.63,-294.38 902.45,-290.01 882.5,-280 844.76,-261.06 800.02,-246.1 763.23,-235.58"/>
<polygon fill="none" stroke="#404040" points="763.14,-235.55 756.28,-237.79 751.58,-232.32 758.44,-230.08 763.14,-235.55"/>
<text text-anchor="middle" x="938" y="-283" font-family="Helvetica,sans-Serif" font-size="10.00"> +networkOrType</text>
</g>
<!-- Node12 -->
<g id="node12" class="node">
<title>Node12</title>
<g id="a_node12"><a xlink:href="structaltintegration_1_1VbkNetworkType.html" target="_top" xlink:title="works as optional&lt;uint8_t&gt;">
<polygon fill="white" stroke="black" points="936.5,-607 936.5,-708 1088.5,-708 1088.5,-607 936.5,-607"/>
<text text-anchor="middle" x="1012.5" y="-696" font-family="Helvetica,sans-Serif" font-size="10.00">altintegration::VbkNetworkType</text>
<polyline fill="none" stroke="black" points="936.5,-689 1088.5,-689 "/>
<text text-anchor="start" x="944.5" y="-677" font-family="Helvetica,sans-Serif" font-size="10.00">+ hasValue</text>
<text text-anchor="start" x="944.5" y="-666" font-family="Helvetica,sans-Serif" font-size="10.00">+ value</text>
<polyline fill="none" stroke="black" points="936.5,-659 1088.5,-659 "/>
<text text-anchor="start" x="944.5" y="-647" font-family="Helvetica,sans-Serif" font-size="10.00">+ operator bool()</text>
<text text-anchor="start" x="944.5" y="-636" font-family="Helvetica,sans-Serif" font-size="10.00">+ operator==()</text>
<text text-anchor="start" x="944.5" y="-625" font-family="Helvetica,sans-Serif" font-size="10.00">+ toPrettyString()</text>
<text text-anchor="start" x="944.5" y="-614" font-family="Helvetica,sans-Serif" font-size="10.00">+ putJson()</text>
</a>
</g>
</g>
<!-- Node12&#45;&gt;Node11 -->
<g id="edge13" class="edge">
<title>Node12&#45;&gt;Node11</title>
<path fill="none" stroke="#404040" d="M1012.5,-606.81C1012.5,-559.39 1012.5,-488.84 1012.5,-444.95"/>
<polygon fill="none" stroke="#404040" points="1012.5,-444.78 1008.5,-438.78 1012.5,-432.78 1016.5,-438.78 1012.5,-444.78"/>
<text text-anchor="middle" x="1044.5" y="-520" font-family="Helvetica,sans-Serif" font-size="10.00"> +networkType</text>
</g>
<!-- Node13&#45;&gt;Node10 -->
<g id="edge14" class="edge">
<title>Node13&#45;&gt;Node10</title>
<path fill="none" stroke="#404040" d="M795.67,-628.63C824.22,-568.56 882.57,-423.05 841.5,-309 829.1,-274.56 795.41,-252.34 762.99,-238.43"/>
<polygon fill="none" stroke="#404040" points="762.74,-238.34 755.69,-239.81 751.61,-233.86 758.67,-232.38 762.74,-238.34"/>
<text text-anchor="middle" x="881" y="-407" font-family="Helvetica,sans-Serif" font-size="10.00"> +publicKey</text>
<text text-anchor="middle" x="881" y="-396" font-family="Helvetica,sans-Serif" font-size="10.00">+signature</text>
</g>
<!-- Node18 -->
<g id="node18" class="node">
<title>Node18</title>
<g id="a_node18"><a xlink:href="structaltintegration_1_1BtcTx.html" target="_top" xlink:title="Bitcoin transaction representation.">
<polygon fill="white" stroke="black" points="730.5,-342.5 730.5,-465.5 832.5,-465.5 832.5,-342.5 730.5,-342.5"/>
<text text-anchor="middle" x="781.5" y="-453.5" font-family="Helvetica,sans-Serif" font-size="10.00">altintegration::BtcTx</text>
<polyline fill="none" stroke="black" points="730.5,-446.5 832.5,-446.5 "/>
<text text-anchor="middle" x="781.5" y="-434.5" font-family="Helvetica,sans-Serif" font-size="10.00"> </text>
<polyline fill="none" stroke="black" points="730.5,-427.5 832.5,-427.5 "/>
<text text-anchor="start" x="738.5" y="-415.5" font-family="Helvetica,sans-Serif" font-size="10.00">+ BtcTx()</text>
<text text-anchor="start" x="738.5" y="-404.5" font-family="Helvetica,sans-Serif" font-size="10.00">+ BtcTx()</text>
<text text-anchor="start" x="738.5" y="-393.5" font-family="Helvetica,sans-Serif" font-size="10.00">+ BtcTx()</text>
<text text-anchor="start" x="738.5" y="-382.5" font-family="Helvetica,sans-Serif" font-size="10.00">+ toVbkEncoding()</text>
<text text-anchor="start" x="738.5" y="-371.5" font-family="Helvetica,sans-Serif" font-size="10.00">+ toRaw()</text>
<text text-anchor="start" x="738.5" y="-360.5" font-family="Helvetica,sans-Serif" font-size="10.00">+ estimateSize()</text>
<text text-anchor="start" x="738.5" y="-349.5" font-family="Helvetica,sans-Serif" font-size="10.00">+ getHash()</text>
</a>
</g>
</g>
<!-- Node13&#45;&gt;Node18 -->
<g id="edge25" class="edge">
<title>Node13&#45;&gt;Node18</title>
<path fill="none" stroke="#404040" d="M781.5,-628.62C781.5,-592.53 781.5,-528.28 781.5,-477.88"/>
<polygon fill="none" stroke="#404040" points="781.5,-477.72 777.5,-471.72 781.5,-465.72 785.5,-471.72 781.5,-477.72"/>
<text text-anchor="middle" x="789.5" y="-520" font-family="Helvetica,sans-Serif" font-size="10.00"> +tx</text>
</g>
<!-- Node14&#45;&gt;Node10 -->
<g id="edge16" class="edge">
<title>Node14&#45;&gt;Node10</title>
<path fill="none" stroke="#404040" d="M258.72,-358.74C267.89,-331.77 283.67,-298.96 309.5,-280 357.24,-244.96 520.58,-228.51 617.2,-221.69"/>
<polygon fill="none" stroke="#404040" points="617.25,-221.69 622.96,-217.28 629.22,-220.87 623.51,-225.27 617.25,-221.69"/>
<text text-anchor="middle" x="338.5" y="-283" font-family="Helvetica,sans-Serif" font-size="10.00"> +merklePath</text>
</g>
<!-- Node15 -->
<g id="node15" class="node">
<title>Node15</title>
<g id="a_node15"><a xlink:href="structaltintegration_1_1BtcBlock.html" target="_top" xlink:title="Bitcoin block.">
<polygon fill="white" stroke="black" points="528.5,-568.5 528.5,-746.5 644.5,-746.5 644.5,-568.5 528.5,-568.5"/>
<text text-anchor="middle" x="586.5" y="-734.5" font-family="Helvetica,sans-Serif" font-size="10.00">altintegration::BtcBlock</text>
<polyline fill="none" stroke="black" points="528.5,-727.5 644.5,-727.5 "/>
<text text-anchor="middle" x="586.5" y="-715.5" font-family="Helvetica,sans-Serif" font-size="10.00"> </text>
<polyline fill="none" stroke="black" points="528.5,-708.5 644.5,-708.5 "/>
<text text-anchor="start" x="536.5" y="-696.5" font-family="Helvetica,sans-Serif" font-size="10.00">+ BtcBlock()</text>
<text text-anchor="start" x="536.5" y="-685.5" font-family="Helvetica,sans-Serif" font-size="10.00">+ BtcBlock()</text>
<text text-anchor="start" x="536.5" y="-674.5" font-family="Helvetica,sans-Serif" font-size="10.00">+ toRaw()</text>
<text text-anchor="start" x="536.5" y="-663.5" font-family="Helvetica,sans-Serif" font-size="10.00">+ toVbkEncoding()</text>
<text text-anchor="start" x="536.5" y="-652.5" font-family="Helvetica,sans-Serif" font-size="10.00">+ estimateSize()</text>
<text text-anchor="start" x="536.5" y="-641.5" font-family="Helvetica,sans-Serif" font-size="10.00">+ calculateHash()</text>
<text text-anchor="start" x="536.5" y="-630.5" font-family="Helvetica,sans-Serif" font-size="10.00">+ getHash()</text>
<text text-anchor="start" x="536.5" y="-619.5" font-family="Helvetica,sans-Serif" font-size="10.00">+ toPrettyString()</text>
<text text-anchor="start" x="536.5" y="-608.5" font-family="Helvetica,sans-Serif" font-size="10.00">+ getVersion()</text>
<text text-anchor="start" x="536.5" y="-597.5" font-family="Helvetica,sans-Serif" font-size="10.00">+ getPreviousBlock()</text>
<text text-anchor="start" x="536.5" y="-586.5" font-family="Helvetica,sans-Serif" font-size="10.00">and 10 more...</text>
<text text-anchor="start" x="536.5" y="-575.5" font-family="Helvetica,sans-Serif" font-size="10.00">+ name()</text>
</a>
</g>
</g>
<!-- Node15&#45;&gt;Node10 -->
<g id="edge19" class="edge">
<title>Node15&#45;&gt;Node10</title>
<path fill="none" stroke="#404040" d="M528.94,-568.44C488.46,-494.38 449.62,-388.2 499.5,-309 525.38,-267.91 575.4,-244.86 617.76,-232.18"/>
<polygon fill="none" stroke="#404040" points="617.93,-232.13 622.62,-226.65 629.48,-228.87 624.79,-234.35 617.93,-232.13"/>
<text text-anchor="middle" x="532.5" y="-401.5" font-family="Helvetica,sans-Serif" font-size="10.00"> +blockOfProof</text>
</g>
<!-- Node15&#45;&gt;Node16 -->
<g id="edge21" class="edge">
<title>Node15&#45;&gt;Node16</title>
<path fill="none" stroke="#404040" d="M539.13,-568.46C531.78,-559.95 523.58,-552.19 514.5,-546 481.88,-523.75 456.52,-554.77 427.5,-528 406.04,-508.2 397.12,-476.39 393.52,-450.07"/>
<polygon fill="none" stroke="#404040" points="393.51,-449.98 388.88,-444.46 392.19,-438.05 396.83,-443.57 393.51,-449.98"/>
<text text-anchor="middle" x="452" y="-520" font-family="Helvetica,sans-Serif" font-size="10.00"> +elements</text>
</g>
<!-- Node16&#45;&gt;Node10 -->
<g id="edge20" class="edge">
<title>Node16&#45;&gt;Node10</title>
<path fill="none" stroke="#404040" d="M375.67,-369.75C365.32,-342.62 357.13,-304.84 377.5,-280 407.23,-243.74 534.46,-228.11 617.27,-221.68"/>
<polygon fill="none" stroke="#404040" points="617.43,-221.66 623.12,-217.23 629.4,-220.77 623.71,-225.21 617.43,-221.66"/>
<text text-anchor="middle" x="427" y="-283" font-family="Helvetica,sans-Serif" font-size="10.00"> +blockOfProofContext</text>
</g>
<!-- Node17 -->
<g id="node17" class="node">
<title>Node17</title>
<g id="a_node17"><a xlink:href="structaltintegration_1_1Address.html" target="_top" xlink:title="Represents address on VBK chain.">
<polygon fill="white" stroke="black" points="575,-309.5 575,-498.5 712,-498.5 712,-309.5 575,-309.5"/>
<text text-anchor="middle" x="643.5" y="-486.5" font-family="Helvetica,sans-Serif" font-size="10.00">altintegration::Address</text>
<polyline fill="none" stroke="black" points="575,-479.5 712,-479.5 "/>
<text text-anchor="middle" x="643.5" y="-467.5" font-family="Helvetica,sans-Serif" font-size="10.00"> </text>
<polyline fill="none" stroke="black" points="575,-460.5 712,-460.5 "/>
<text text-anchor="start" x="583" y="-448.5" font-family="Helvetica,sans-Serif" font-size="10.00">+ Address()</text>
<text text-anchor="start" x="583" y="-437.5" font-family="Helvetica,sans-Serif" font-size="10.00">+ operator==()</text>
<text text-anchor="start" x="583" y="-426.5" font-family="Helvetica,sans-Serif" font-size="10.00">+ operator!=()</text>
<text text-anchor="start" x="583" y="-415.5" font-family="Helvetica,sans-Serif" font-size="10.00">+ operator==()</text>
<text text-anchor="start" x="583" y="-404.5" font-family="Helvetica,sans-Serif" font-size="10.00">+ getType()</text>
<text text-anchor="start" x="583" y="-393.5" font-family="Helvetica,sans-Serif" font-size="10.00">+ getPopBytes()</text>
<text text-anchor="start" x="583" y="-382.5" font-family="Helvetica,sans-Serif" font-size="10.00">+ isDerivedFromPublicKey()</text>
<text text-anchor="start" x="583" y="-371.5" font-family="Helvetica,sans-Serif" font-size="10.00">+ fromString()</text>
<text text-anchor="start" x="583" y="-360.5" font-family="Helvetica,sans-Serif" font-size="10.00">+ toString()</text>
<text text-anchor="start" x="583" y="-349.5" font-family="Helvetica,sans-Serif" font-size="10.00">+ toVbkEncoding()</text>
<text text-anchor="start" x="583" y="-338.5" font-family="Helvetica,sans-Serif" font-size="10.00">+ estimateSize()</text>
<text text-anchor="start" x="583" y="-327.5" font-family="Helvetica,sans-Serif" font-size="10.00">+ fromPublicKey()</text>
<text text-anchor="start" x="583" y="-316.5" font-family="Helvetica,sans-Serif" font-size="10.00">+ assertFromString()</text>
</a>
</g>
</g>
<!-- Node17&#45;&gt;Node10 -->
<g id="edge23" class="edge">
<title>Node17&#45;&gt;Node10</title>
<path fill="none" stroke="#404040" d="M665.11,-309.2C667.54,-299.32 670.03,-289.45 672.5,-280 673.05,-277.88 673.63,-275.72 674.22,-273.54"/>
<polygon fill="none" stroke="#404040" points="674.26,-273.38 672,-266.53 677.45,-261.81 679.71,-268.66 674.26,-273.38"/>
<text text-anchor="middle" x="694" y="-283" font-family="Helvetica,sans-Serif" font-size="10.00"> +address</text>
</g>
<!-- Node18&#45;&gt;Node10 -->
<g id="edge24" class="edge">
<title>Node18&#45;&gt;Node10</title>
<path fill="none" stroke="#404040" d="M751.7,-342.26C740.66,-319.75 728.21,-294.38 717.44,-272.42"/>
<polygon fill="none" stroke="#404040" points="717.42,-272.39 711.19,-268.76 712.14,-261.61 718.37,-265.24 717.42,-272.39"/>
<text text-anchor="middle" x="769.5" y="-283" font-family="Helvetica,sans-Serif" font-size="10.00"> +bitcoinTransaction</text>
</g>
<!-- Node19 -->
<g id="node19" class="node">
<title>Node19</title>
<g id="a_node19"><a xlink:href="structaltintegration_1_1VbkBlock.html" target="_top" xlink:title="Veriblock block.">
<polygon fill="white" stroke="black" points="1106,-315 1106,-493 1225,-493 1225,-315 1106,-315"/>
<text text-anchor="middle" x="1165.5" y="-481" font-family="Helvetica,sans-Serif" font-size="10.00">altintegration::VbkBlock</text>
<polyline fill="none" stroke="black" points="1106,-474 1225,-474 "/>
<text text-anchor="middle" x="1165.5" y="-462" font-family="Helvetica,sans-Serif" font-size="10.00"> </text>
<polyline fill="none" stroke="black" points="1106,-455 1225,-455 "/>
<text text-anchor="start" x="1114" y="-443" font-family="Helvetica,sans-Serif" font-size="10.00">+ toPrettyString()</text>
<text text-anchor="start" x="1114" y="-432" font-family="Helvetica,sans-Serif" font-size="10.00">+ toRaw()</text>
<text text-anchor="start" x="1114" y="-421" font-family="Helvetica,sans-Serif" font-size="10.00">+ toVbkEncoding()</text>
<text text-anchor="start" x="1114" y="-410" font-family="Helvetica,sans-Serif" font-size="10.00">+ toRaw()</text>
<text text-anchor="start" x="1114" y="-399" font-family="Helvetica,sans-Serif" font-size="10.00">+ toVbkEncoding()</text>
<text text-anchor="start" x="1114" y="-388" font-family="Helvetica,sans-Serif" font-size="10.00">+ estimateSize()</text>
<text text-anchor="start" x="1114" y="-377" font-family="Helvetica,sans-Serif" font-size="10.00">+ getBlockTime()</text>
<text text-anchor="start" x="1114" y="-366" font-family="Helvetica,sans-Serif" font-size="10.00">+ calculateHash()</text>
<text text-anchor="start" x="1114" y="-355" font-family="Helvetica,sans-Serif" font-size="10.00">+ getHash()</text>
<text text-anchor="start" x="1114" y="-344" font-family="Helvetica,sans-Serif" font-size="10.00">+ getShortHash()</text>
<text text-anchor="start" x="1114" y="-333" font-family="Helvetica,sans-Serif" font-size="10.00">and 21 more...</text>
<text text-anchor="start" x="1114" y="-322" font-family="Helvetica,sans-Serif" font-size="10.00">+ name()</text>
</a>
</g>
</g>
<!-- Node19&#45;&gt;Node1 -->
<g id="edge27" class="edge">
<title>Node19&#45;&gt;Node1</title>
<path fill="none" stroke="#404040" d="M1149.47,-314.77C1144.51,-302.21 1138.01,-290.14 1129.5,-280 1028.71,-159.9 845.32,-100.23 750.64,-76.24"/>
<polygon fill="none" stroke="#404040" points="750.36,-76.17 743.58,-78.62 738.71,-73.29 745.5,-70.85 750.36,-76.17"/>
<text text-anchor="middle" x="1148.5" y="-214" font-family="Helvetica,sans-Serif" font-size="10.00"> +containingBlock</text>
</g>
<!-- Node19&#45;&gt;Node10 -->
<g id="edge26" class="edge">
<title>Node19&#45;&gt;Node10</title>
<path fill="none" stroke="#404040" d="M1105.8,-315.98C1102.8,-313.48 1099.7,-311.14 1096.5,-309 1042.71,-272.96 865.26,-242.54 763.65,-227.53"/>
<polygon fill="none" stroke="#404040" points="763.52,-227.51 757.01,-230.6 751.65,-225.78 758.16,-222.69 763.52,-227.51"/>
<text text-anchor="middle" x="1088" y="-283" font-family="Helvetica,sans-Serif" font-size="10.00"> +publishedBlock</text>
</g>
</g>
</svg>
        <g id="navigator" transform="translate(0 0)" fill="#404254">
                <rect fill="#f2f5e9" fill-opacity="0.5" stroke="#606060" stroke-width=".5" x="0" y="0" width="60" height="60"/>
                <use id="zoomplus" xlink:href="#zoomPlus" x="17" y="9" onmousedown="handleZoom(evt,'in')"/>
                <use id="zoomminus" xlink:href="#zoomMin" x="42" y="9" onmousedown="handleZoom(evt,'out')"/>
                <use id="reset" xlink:href="#resetDef" x="30" y="36" onmousedown="handleReset()"/>
                <g id="arrowUp" xlink:href="#dirArrow" transform="translate(30 24)" onmousedown="handlePan(0,-1)">
                  <use xlink:href="#rim" fill="#404040">
                        <set attributeName="fill" to="#808080" begin="arrowUp.mouseover" end="arrowUp.mouseout"/>
                  </use>
                  <path fill="none" stroke="white" stroke-width="1.5" d="M0,-3.0v7 M-2.5,-0.5L0,-3.0L2.5,-0.5"/>
                </g>
                <g id="arrowRight" xlink:href="#dirArrow" transform="rotate(90) translate(36 -43)" onmousedown="handlePan(1,0)">
                  <use xlink:href="#rim" fill="#404040">
                        <set attributeName="fill" to="#808080" begin="arrowRight.mouseover" end="arrowRight.mouseout"/>
                  </use>
                  <path fill="none" stroke="white" stroke-width="1.5" d="M0,-3.0v7 M-2.5,-0.5L0,-3.0L2.5,-0.5"/>
                </g>
                <g id="arrowDown" xlink:href="#dirArrow" transform="rotate(180) translate(-30 -48)" onmousedown="handlePan(0,1)">
                  <use xlink:href="#rim" fill="#404040">
                        <set attributeName="fill" to="#808080" begin="arrowDown.mouseover" end="arrowDown.mouseout"/>
                  </use>
                  <path fill="none" stroke="white" stroke-width="1.5" d="M0,-3.0v7 M-2.5,-0.5L0,-3.0L2.5,-0.5"/>
                </g>
                <g id="arrowLeft" xlink:href="#dirArrow" transform="rotate(270) translate(-36 17)" onmousedown="handlePan(-1,0)">
                  <use xlink:href="#rim" fill="#404040">
                        <set attributeName="fill" to="#808080" begin="arrowLeft.mouseover" end="arrowLeft.mouseout"/>
                  </use>
                  <path fill="none" stroke="white" stroke-width="1.5" d="M0,-3.0v7 M-2.5,-0.5L0,-3.0L2.5,-0.5"/>
                </g>
        </g>
        <svg viewBox="0 0 15 15" width="100%" height="30px" preserveAspectRatio="xMaxYMin meet">
         <g id="arrow_out" transform="scale(0.3 0.3)">
          <a xlink:href="structaltintegration_1_1VTB__coll__graph_org.svg" target="_base">
           <rect id="button" ry="5" rx="5" y="6" x="6" height="38" width="38"
                fill="#f2f5e9" fill-opacity="0.5" stroke="#606060" stroke-width="1.0"/>
           <path id="arrow"
             d="M 11.500037,31.436501 C 11.940474,20.09759 22.043105,11.32322 32.158766,21.979434 L 37.068811,17.246167 C 37.068811,17.246167 37.088388,32 37.088388,32 L 22.160133,31.978069 C 22.160133,31.978069 26.997745,27.140456 26.997745,27.140456 C 18.528582,18.264221 13.291696,25.230495 11.500037,31.436501 z"
             style="fill:#404040;"/>
          </a>
         </g>
        </svg>
</svg>
