<?xml version="1.0" encoding="UTF-8" standalone="no"?>
<!DOCTYPE svg PUBLIC "-//W3C//DTD SVG 1.1//EN"
 "http://www.w3.org/Graphics/SVG/1.1/DTD/svg11.dtd">
<!-- Generated by graphviz version 2.50.0 (20220203.2022)
 -->
<!-- Title: altintegration::adaptors::RocksDBStorageIterator Pages: 1 -->
<svg width="150pt" height="325pt"
 viewBox="0.00 0.00 150.00 325.00" xmlns="http://www.w3.org/2000/svg" xmlns:xlink="http://www.w3.org/1999/xlink">
<g id="graph0" class="graph" transform="scale(1 1) rotate(0) translate(4 321)">
<title>altintegration::adaptors::RocksDBStorageIterator</title>
<polygon fill="white" stroke="transparent" points="-4,4 -4,-321 146,-321 146,4 -4,4"/>
<!-- Node1 -->
<g id="node1" class="node">
<title>Node1</title>
<g id="a_node1"><a xlink:title=" ">
<polygon fill="#bfbfbf" stroke="black" points="0,-0.5 0,-145.5 142,-145.5 142,-0.5 0,-0.5"/>
<text text-anchor="start" x="8" y="-133.5" font-family="Helvetica,sans-Serif" font-size="10.00">altintegration::adaptors</text>
<text text-anchor="middle" x="71" y="-122.5" font-family="Helvetica,sans-Serif" font-size="10.00">::RocksDBStorageIterator</text>
<polyline fill="none" stroke="black" points="0,-115.5 142,-115.5 "/>
<text text-anchor="middle" x="71" y="-103.5" font-family="Helvetica,sans-Serif" font-size="10.00"> </text>
<polyline fill="none" stroke="black" points="0,-96.5 142,-96.5 "/>
<text text-anchor="start" x="8" y="-84.5" font-family="Helvetica,sans-Serif" font-size="10.00">+ ~RocksDBStorageIterator()</text>
<text text-anchor="start" x="8" y="-73.5" font-family="Helvetica,sans-Serif" font-size="10.00">+ RocksDBStorageIterator()</text>
<text text-anchor="start" x="8" y="-62.5" font-family="Helvetica,sans-Serif" font-size="10.00">+ value()</text>
<text text-anchor="start" x="8" y="-51.5" font-family="Helvetica,sans-Serif" font-size="10.00">+ key()</text>
<text text-anchor="start" x="8" y="-40.5" font-family="Helvetica,sans-Serif" font-size="10.00">+ next()</text>
<text text-anchor="start" x="8" y="-29.5" font-family="Helvetica,sans-Serif" font-size="10.00">+ valid()</text>
<text text-anchor="start" x="8" y="-18.5" font-family="Helvetica,sans-Serif" font-size="10.00">+ seek_start()</text>
<text text-anchor="start" x="8" y="-7.5" font-family="Helvetica,sans-Serif" font-size="10.00">+ seek()</text>
</a>
</g>
</g>
<!-- Node2 -->
<g id="node2" class="node">
<title>Node2</title>
<g id="a_node2"><a xlink:href="structaltintegration_1_1adaptors_1_1StorageIterator.html" target="_top" xlink:title=" ">
<polygon fill="white" stroke="#bfbfbf" points="14,-182.5 14,-316.5 128,-316.5 128,-182.5 14,-182.5"/>
<text text-anchor="start" x="22" y="-304.5" font-family="Helvetica,sans-Serif" font-size="10.00">altintegration::adaptors</text>
<text text-anchor="middle" x="71" y="-293.5" font-family="Helvetica,sans-Serif" font-size="10.00">::StorageIterator</text>
<polyline fill="none" stroke="#bfbfbf" points="14,-286.5 128,-286.5 "/>
<text text-anchor="middle" x="71" y="-274.5" font-family="Helvetica,sans-Serif" font-size="10.00"> </text>
<polyline fill="none" stroke="#bfbfbf" points="14,-267.5 128,-267.5 "/>
<text text-anchor="start" x="22" y="-255.5" font-family="Helvetica,sans-Serif" font-size="10.00">+ ~StorageIterator()</text>
<text text-anchor="start" x="22" y="-244.5" font-family="Helvetica,sans-Serif" font-size="10.00">+ value()</text>
<text text-anchor="start" x="22" y="-233.5" font-family="Helvetica,sans-Serif" font-size="10.00">+ key()</text>
<text text-anchor="start" x="22" y="-222.5" font-family="Helvetica,sans-Serif" font-size="10.00">+ next()</text>
<text text-anchor="start" x="22" y="-211.5" font-family="Helvetica,sans-Serif" font-size="10.00">+ valid()</text>
<text text-anchor="start" x="22" y="-200.5" font-family="Helvetica,sans-Serif" font-size="10.00">+ seek_start()</text>
<text text-anchor="start" x="22" y="-189.5" font-family="Helvetica,sans-Serif" font-size="10.00">+ seek()</text>
</a>
</g>
</g>
<!-- Node2&#45;&gt;Node1 -->
<g id="edge1" class="edge">
<title>Node2&#45;&gt;Node1</title>
<path fill="none" stroke="midnightblue" d="M71,-171.84C71,-163.09 71,-154.2 71,-145.51"/>
<polygon fill="none" stroke="midnightblue" points="67.5,-172.03 71,-182.03 74.5,-172.03 67.5,-172.03"/>
</g>
</g>
</svg>
