<?xml version="1.0" encoding="UTF-8" standalone="no"?>
<!DOCTYPE svg PUBLIC "-//W3C//DTD SVG 1.1//EN"
 "http://www.w3.org/Graphics/SVG/1.1/DTD/svg11.dtd">
<!-- Generated by graphviz version 3.0.0 (20220413.0106)
 -->
<!-- Title: altintegration::btc::TxMsg Pages: 1 -->
<svg width="761pt" height="1241pt"
 viewBox="0.00 0.00 760.50 1241.00" xmlns="http://www.w3.org/2000/svg" xmlns:xlink="http://www.w3.org/1999/xlink">
<g id="graph0" class="graph" transform="scale(1 1) rotate(0) translate(4 1237)">
<title>altintegration::btc::TxMsg</title>
<polygon fill="white" stroke="transparent" points="-4,4 -4,-1237 756.5,-1237 756.5,4 -4,4"/>
<!-- Node1 -->
<g id="node1" class="node">
<title>Node1</title>
<g id="a_node1"><a xlink:title=" ">
<polygon fill="#bfbfbf" stroke="black" points="549,-0.5 549,-68.5 704,-68.5 704,-0.5 549,-0.5"/>
<text text-anchor="start" x="557" y="-56.5" font-family="Helvetica,sans-Serif" font-size="10.00">altintegration::btc</text>
<text text-anchor="middle" x="626.5" y="-45.5" font-family="Helvetica,sans-Serif" font-size="10.00">::TxMsg</text>
<polyline fill="none" stroke="black" points="549,-38.5 704,-38.5 "/>
<text text-anchor="start" x="557" y="-26.5" font-family="Helvetica,sans-Serif" font-size="10.00">+ ADD_SERIALIZE_METHODS</text>
<polyline fill="none" stroke="black" points="549,-19.5 704,-19.5 "/>
<text text-anchor="start" x="557" y="-7.5" font-family="Helvetica,sans-Serif" font-size="10.00">+ SerializationOp()</text>
</a>
</g>
</g>
<!-- Node2 -->
<g id="node2" class="node">
<title>Node2</title>
<g id="a_node2"><a xlink:href="structaltintegration_1_1btc_1_1Transaction.html" target="_top" xlink:title="The basic transaction that is broadcasted on the network and contained in blocks.">
<polygon fill="white" stroke="black" points="581.5,-116.5 581.5,-217.5 671.5,-217.5 671.5,-116.5 581.5,-116.5"/>
<text text-anchor="start" x="589.5" y="-205.5" font-family="Helvetica,sans-Serif" font-size="10.00">altintegration::btc</text>
<text text-anchor="middle" x="626.5" y="-194.5" font-family="Helvetica,sans-Serif" font-size="10.00">::Transaction</text>
<polyline fill="none" stroke="black" points="581.5,-187.5 671.5,-187.5 "/>
<text text-anchor="start" x="589.5" y="-175.5" font-family="Helvetica,sans-Serif" font-size="10.00">+ nVersion</text>
<text text-anchor="start" x="589.5" y="-164.5" font-family="Helvetica,sans-Serif" font-size="10.00">+ nLockTime</text>
<polyline fill="none" stroke="black" points="581.5,-157.5 671.5,-157.5 "/>
<text text-anchor="start" x="589.5" y="-145.5" font-family="Helvetica,sans-Serif" font-size="10.00">+ Serialize()</text>
<text text-anchor="start" x="589.5" y="-134.5" font-family="Helvetica,sans-Serif" font-size="10.00">+ Unserialize()</text>
<text text-anchor="start" x="589.5" y="-123.5" font-family="Helvetica,sans-Serif" font-size="10.00">+ HasWitness()</text>
</a>
</g>
</g>
<!-- Node2&#45;&gt;Node1 -->
<g id="edge1" class="edge">
<title>Node2&#45;&gt;Node1</title>
<path fill="none" stroke="#404040" d="M626.5,-116.29C626.5,-104.55 626.5,-92.09 626.5,-80.57"/>
<polygon fill="none" stroke="#404040" points="626.5,-80.51 622.5,-74.51 626.5,-68.51 630.5,-74.51 626.5,-80.51"/>
<text text-anchor="middle" x="634.5" y="-90" font-family="Helvetica,sans-Serif" font-size="10.00"> +tx</text>
</g>
<!-- Node3 -->
<g id="node3" class="node">
<title>Node3</title>
<g id="a_node3"><a xlink:title=" ">
<polygon fill="white" stroke="black" points="515,-265.5 515,-333.5 640,-333.5 640,-265.5 515,-265.5"/>
<text text-anchor="start" x="523" y="-321.5" font-family="Helvetica,sans-Serif" font-size="10.00">std::vector&lt; altintegration</text>
<text text-anchor="middle" x="577.5" y="-310.5" font-family="Helvetica,sans-Serif" font-size="10.00">::btc::TxIn &gt;</text>
<polyline fill="none" stroke="black" points="515,-303.5 640,-303.5 "/>
<text text-anchor="middle" x="577.5" y="-291.5" font-family="Helvetica,sans-Serif" font-size="10.00"> </text>
<polyline fill="none" stroke="black" points="515,-284.5 640,-284.5 "/>
<text text-anchor="middle" x="577.5" y="-272.5" font-family="Helvetica,sans-Serif" font-size="10.00"> </text>
</a>
</g>
</g>
<!-- Node3&#45;&gt;Node2 -->
<g id="edge2" class="edge">
<title>Node3&#45;&gt;Node2</title>
<path fill="none" stroke="#404040" d="M589.99,-265.23C594.12,-254.25 598.84,-241.65 603.5,-229.26"/>
<polygon fill="none" stroke="#404040" points="603.52,-229.21 601.88,-222.19 607.74,-217.98 609.37,-225 603.52,-229.21"/>
<text text-anchor="middle" x="611.5" y="-239" font-family="Helvetica,sans-Serif" font-size="10.00"> +vin</text>
</g>
<!-- Node4 -->
<g id="node4" class="node">
<title>Node4</title>
<g id="a_node4"><a xlink:href="structaltintegration_1_1btc_1_1TxIn.html" target="_top" xlink:title="An input of a transaction.">
<polygon fill="white" stroke="black" points="203,-381.5 203,-460.5 358,-460.5 358,-381.5 203,-381.5"/>
<text text-anchor="start" x="211" y="-448.5" font-family="Helvetica,sans-Serif" font-size="10.00">altintegration::btc</text>
<text text-anchor="middle" x="280.5" y="-437.5" font-family="Helvetica,sans-Serif" font-size="10.00">::TxIn</text>
<polyline fill="none" stroke="black" points="203,-430.5 358,-430.5 "/>
<text text-anchor="start" x="211" y="-418.5" font-family="Helvetica,sans-Serif" font-size="10.00">+ nSequence</text>
<text text-anchor="start" x="211" y="-407.5" font-family="Helvetica,sans-Serif" font-size="10.00">+ ADD_SERIALIZE_METHODS</text>
<polyline fill="none" stroke="black" points="203,-400.5 358,-400.5 "/>
<text text-anchor="start" x="211" y="-388.5" font-family="Helvetica,sans-Serif" font-size="10.00">+ SerializationOp()</text>
</a>
</g>
</g>
<!-- Node4&#45;&gt;Node3 -->
<g id="edge3" class="edge">
<title>Node4&#45;&gt;Node3</title>
<path fill="none" stroke="#404040" d="M358.15,-388.76C403.05,-370.69 459.24,-348.08 503.51,-330.27"/>
<polygon fill="none" stroke="#404040" points="503.65,-330.21 507.72,-324.26 514.78,-325.73 510.71,-331.69 503.65,-330.21"/>
<text text-anchor="middle" x="472" y="-355" font-family="Helvetica,sans-Serif" font-size="10.00"> +elements</text>
</g>
<!-- Node5 -->
<g id="node5" class="node">
<title>Node5</title>
<g id="a_node5"><a xlink:href="structaltintegration_1_1btc_1_1OutPoint.html" target="_top" xlink:title="An outpoint &#45; a combination of a transaction hash and an index n into its vout.">
<polygon fill="white" stroke="black" points="0,-508.5 0,-587.5 155,-587.5 155,-508.5 0,-508.5"/>
<text text-anchor="start" x="8" y="-575.5" font-family="Helvetica,sans-Serif" font-size="10.00">altintegration::btc</text>
<text text-anchor="middle" x="77.5" y="-564.5" font-family="Helvetica,sans-Serif" font-size="10.00">::OutPoint</text>
<polyline fill="none" stroke="black" points="0,-557.5 155,-557.5 "/>
<text text-anchor="start" x="8" y="-545.5" font-family="Helvetica,sans-Serif" font-size="10.00">+ n</text>
<text text-anchor="start" x="8" y="-534.5" font-family="Helvetica,sans-Serif" font-size="10.00">+ ADD_SERIALIZE_METHODS</text>
<polyline fill="none" stroke="black" points="0,-527.5 155,-527.5 "/>
<text text-anchor="start" x="8" y="-515.5" font-family="Helvetica,sans-Serif" font-size="10.00">+ SerializationOp()</text>
</a>
</g>
</g>
<!-- Node5&#45;&gt;Node4 -->
<g id="edge4" class="edge">
<title>Node5&#45;&gt;Node4</title>
<path fill="none" stroke="#404040" d="M140.06,-508.48C161.38,-495.35 185.41,-480.56 207.47,-466.97"/>
<polygon fill="none" stroke="#404040" points="207.58,-466.9 210.59,-460.35 217.79,-460.61 214.78,-467.16 207.58,-466.9"/>
<text text-anchor="middle" x="206" y="-482" font-family="Helvetica,sans-Serif" font-size="10.00"> +prevout</text>
</g>
<!-- Node6 -->
<g id="node6" class="node">
<title>Node6</title>
<g id="a_node6"><a xlink:href="structaltintegration_1_1Blob.html" target="_top" xlink:title=" ">
<polygon fill="white" stroke="black" points="12,-646.5 12,-868.5 143,-868.5 143,-646.5 12,-646.5"/>
<text text-anchor="start" x="20" y="-856.5" font-family="Helvetica,sans-Serif" font-size="10.00">altintegration::Blob</text>
<text text-anchor="middle" x="77.5" y="-845.5" font-family="Helvetica,sans-Serif" font-size="10.00">&lt; SHA256_HASH_SIZE &gt;</text>
<polyline fill="none" stroke="black" points="12,-838.5 143,-838.5 "/>
<text text-anchor="start" x="20" y="-826.5" font-family="Helvetica,sans-Serif" font-size="10.00">+ data_</text>
<text text-anchor="start" x="20" y="-815.5" font-family="Helvetica,sans-Serif" font-size="10.00">+ this</text>
<polyline fill="none" stroke="black" points="12,-808.5 143,-808.5 "/>
<text text-anchor="start" x="20" y="-796.5" font-family="Helvetica,sans-Serif" font-size="10.00">+ Blob()</text>
<text text-anchor="start" x="20" y="-785.5" font-family="Helvetica,sans-Serif" font-size="10.00">+ Blob()</text>
<text text-anchor="start" x="20" y="-774.5" font-family="Helvetica,sans-Serif" font-size="10.00">+ Blob()</text>
<text text-anchor="start" x="20" y="-763.5" font-family="Helvetica,sans-Serif" font-size="10.00">+ Blob()</text>
<text text-anchor="start" x="20" y="-752.5" font-family="Helvetica,sans-Serif" font-size="10.00">+ Blob()</text>
<text text-anchor="start" x="20" y="-741.5" font-family="Helvetica,sans-Serif" font-size="10.00">+ operator=()</text>
<text text-anchor="start" x="20" y="-730.5" font-family="Helvetica,sans-Serif" font-size="10.00">+ operator=()</text>
<text text-anchor="start" x="20" y="-719.5" font-family="Helvetica,sans-Serif" font-size="10.00">+ reverse()</text>
<text text-anchor="start" x="20" y="-708.5" font-family="Helvetica,sans-Serif" font-size="10.00">+ operator~()</text>
<text text-anchor="start" x="20" y="-697.5" font-family="Helvetica,sans-Serif" font-size="10.00">+ asVector()</text>
<text text-anchor="start" x="20" y="-686.5" font-family="Helvetica,sans-Serif" font-size="10.00">+ asString()</text>
<text text-anchor="start" x="20" y="-675.5" font-family="Helvetica,sans-Serif" font-size="10.00">+ operator[]()</text>
<text text-anchor="start" x="20" y="-664.5" font-family="Helvetica,sans-Serif" font-size="10.00">+ operator[]()</text>
<text text-anchor="start" x="20" y="-653.5" font-family="Helvetica,sans-Serif" font-size="10.00">+ compareTo()</text>
</a>
</g>
</g>
<!-- Node6&#45;&gt;Node5 -->
<g id="edge5" class="edge">
<title>Node6&#45;&gt;Node5</title>
<path fill="none" stroke="#404040" d="M77.5,-646.37C77.5,-630.02 77.5,-613.87 77.5,-599.58"/>
<polygon fill="none" stroke="#404040" points="77.5,-599.53 73.5,-593.53 77.5,-587.53 81.5,-593.53 77.5,-599.53"/>
<text text-anchor="middle" x="92.5" y="-614.5" font-family="Helvetica,sans-Serif" font-size="10.00"> +hash</text>
</g>
<!-- Node7 -->
<g id="node7" class="node">
<title>Node7</title>
<g id="a_node7"><a xlink:href="structaltintegration_1_1Blob.html" target="_top" xlink:title="Contiguous byte array of fixed size.">
<polygon fill="white" stroke="black" points="17.5,-916.5 17.5,-1127.5 137.5,-1127.5 137.5,-916.5 17.5,-916.5"/>
<text text-anchor="middle" x="77.5" y="-1115.5" font-family="Helvetica,sans-Serif" font-size="10.00">altintegration::Blob&lt; N &gt;</text>
<polyline fill="none" stroke="black" points="17.5,-1108.5 137.5,-1108.5 "/>
<text text-anchor="start" x="25.5" y="-1096.5" font-family="Helvetica,sans-Serif" font-size="10.00">+ data_</text>
<text text-anchor="start" x="25.5" y="-1085.5" font-family="Helvetica,sans-Serif" font-size="10.00">+ this</text>
<polyline fill="none" stroke="black" points="17.5,-1078.5 137.5,-1078.5 "/>
<text text-anchor="start" x="25.5" y="-1066.5" font-family="Helvetica,sans-Serif" font-size="10.00">+ Blob()</text>
<text text-anchor="start" x="25.5" y="-1055.5" font-family="Helvetica,sans-Serif" font-size="10.00">+ Blob()</text>
<text text-anchor="start" x="25.5" y="-1044.5" font-family="Helvetica,sans-Serif" font-size="10.00">+ Blob()</text>
<text text-anchor="start" x="25.5" y="-1033.5" font-family="Helvetica,sans-Serif" font-size="10.00">+ Blob()</text>
<text text-anchor="start" x="25.5" y="-1022.5" font-family="Helvetica,sans-Serif" font-size="10.00">+ Blob()</text>
<text text-anchor="start" x="25.5" y="-1011.5" font-family="Helvetica,sans-Serif" font-size="10.00">+ operator=()</text>
<text text-anchor="start" x="25.5" y="-1000.5" font-family="Helvetica,sans-Serif" font-size="10.00">+ operator=()</text>
<text text-anchor="start" x="25.5" y="-989.5" font-family="Helvetica,sans-Serif" font-size="10.00">+ reverse()</text>
<text text-anchor="start" x="25.5" y="-978.5" font-family="Helvetica,sans-Serif" font-size="10.00">+ operator~()</text>
<text text-anchor="start" x="25.5" y="-967.5" font-family="Helvetica,sans-Serif" font-size="10.00">+ asVector()</text>
<text text-anchor="start" x="25.5" y="-956.5" font-family="Helvetica,sans-Serif" font-size="10.00">+ asString()</text>
<text text-anchor="start" x="25.5" y="-945.5" font-family="Helvetica,sans-Serif" font-size="10.00">+ operator[]()</text>
<text text-anchor="start" x="25.5" y="-934.5" font-family="Helvetica,sans-Serif" font-size="10.00">+ operator[]()</text>
<text text-anchor="start" x="25.5" y="-923.5" font-family="Helvetica,sans-Serif" font-size="10.00">+ compareTo()</text>
</a>
</g>
</g>
<!-- Node7&#45;&gt;Node6 -->
<g id="edge6" class="edge">
<title>Node7&#45;&gt;Node6</title>
<path fill="none" stroke="orange" d="M77.5,-906.48C77.5,-893.93 77.5,-881.17 77.5,-868.67"/>
<polygon fill="orange" stroke="orange" points="74,-906.5 77.5,-916.5 81,-906.5 74,-906.5"/>
<text text-anchor="middle" x="136" y="-890" font-family="Helvetica,sans-Serif" font-size="10.00"> &lt; SHA256_HASH_SIZE &gt;</text>
</g>
<!-- Node8 -->
<g id="node8" class="node">
<title>Node8</title>
<g id="a_node8"><a xlink:title=" ">
<polygon fill="white" stroke="black" points="372,-729 372,-786 479,-786 479,-729 372,-729"/>
<text text-anchor="middle" x="425.5" y="-774" font-family="Helvetica,sans-Serif" font-size="10.00">std::vector&lt; uint8_t &gt;</text>
<polyline fill="none" stroke="black" points="372,-767 479,-767 "/>
<text text-anchor="start" x="380" y="-755" font-family="Helvetica,sans-Serif" font-size="10.00">+ elements</text>
<polyline fill="none" stroke="black" points="372,-748 479,-748 "/>
<text text-anchor="middle" x="425.5" y="-736" font-family="Helvetica,sans-Serif" font-size="10.00"> </text>
</a>
</g>
</g>
<!-- Node8&#45;&gt;Node4 -->
<g id="edge7" class="edge">
<title>Node8&#45;&gt;Node4</title>
<path fill="none" stroke="#404040" d="M407.05,-728.79C386.26,-696.34 352.85,-640.37 333.5,-588 316.34,-541.56 327.3,-525.57 310.5,-479 309.64,-476.62 308.7,-474.21 307.69,-471.8"/>
<polygon fill="none" stroke="#404040" points="307.57,-471.53 301.46,-467.71 302.63,-460.6 308.75,-464.42 307.57,-471.53"/>
<text text-anchor="middle" x="357" y="-545.5" font-family="Helvetica,sans-Serif" font-size="10.00"> +scriptSig</text>
</g>
<!-- Node11 -->
<g id="node11" class="node">
<title>Node11</title>
<g id="a_node11"><a xlink:title=" ">
<polygon fill="white" stroke="black" points="173,-514 173,-582 288,-582 288,-514 173,-514"/>
<text text-anchor="start" x="181" y="-570" font-family="Helvetica,sans-Serif" font-size="10.00">std::vector&lt; std::vector</text>
<text text-anchor="middle" x="230.5" y="-559" font-family="Helvetica,sans-Serif" font-size="10.00">&lt; uint8_t &gt; &gt;</text>
<polyline fill="none" stroke="black" points="173,-552 288,-552 "/>
<text text-anchor="middle" x="230.5" y="-540" font-family="Helvetica,sans-Serif" font-size="10.00"> </text>
<polyline fill="none" stroke="black" points="173,-533 288,-533 "/>
<text text-anchor="middle" x="230.5" y="-521" font-family="Helvetica,sans-Serif" font-size="10.00"> </text>
</a>
</g>
</g>
<!-- Node8&#45;&gt;Node11 -->
<g id="edge11" class="edge">
<title>Node8&#45;&gt;Node11</title>
<path fill="none" stroke="#404040" d="M404.57,-728.74C384.48,-703.85 352.01,-667.98 316.5,-646 294.63,-632.46 280.2,-645.66 261.5,-628 251.84,-618.88 245.14,-606.38 240.51,-594.02"/>
<polygon fill="none" stroke="#404040" points="240.41,-593.72 234.74,-589.27 236.68,-582.32 242.35,-586.78 240.41,-593.72"/>
<text text-anchor="middle" x="286" y="-614.5" font-family="Helvetica,sans-Serif" font-size="10.00"> +elements</text>
</g>
<!-- Node13 -->
<g id="node13" class="node">
<title>Node13</title>
<g id="a_node13"><a xlink:href="structaltintegration_1_1btc_1_1TxOut.html" target="_top" xlink:title="An output of a transaction.">
<polygon fill="white" stroke="black" points="390,-508.5 390,-587.5 545,-587.5 545,-508.5 390,-508.5"/>
<text text-anchor="start" x="398" y="-575.5" font-family="Helvetica,sans-Serif" font-size="10.00">altintegration::btc</text>
<text text-anchor="middle" x="467.5" y="-564.5" font-family="Helvetica,sans-Serif" font-size="10.00">::TxOut</text>
<polyline fill="none" stroke="black" points="390,-557.5 545,-557.5 "/>
<text text-anchor="start" x="398" y="-545.5" font-family="Helvetica,sans-Serif" font-size="10.00">+ nValue</text>
<text text-anchor="start" x="398" y="-534.5" font-family="Helvetica,sans-Serif" font-size="10.00">+ ADD_SERIALIZE_METHODS</text>
<polyline fill="none" stroke="black" points="390,-527.5 545,-527.5 "/>
<text text-anchor="start" x="398" y="-515.5" font-family="Helvetica,sans-Serif" font-size="10.00">+ SerializationOp()</text>
</a>
</g>
</g>
<!-- Node8&#45;&gt;Node13 -->
<g id="edge16" class="edge">
<title>Node8&#45;&gt;Node13</title>
<path fill="none" stroke="#404040" d="M431.08,-728.95C437.74,-696.01 449.03,-640.23 457.28,-599.48"/>
<polygon fill="none" stroke="#404040" points="457.3,-599.39 454.57,-592.72 459.68,-587.63 462.41,-594.31 457.3,-599.39"/>
<text text-anchor="middle" x="489" y="-614.5" font-family="Helvetica,sans-Serif" font-size="10.00"> +scriptPubKey</text>
</g>
<!-- Node9 -->
<g id="node9" class="node">
<title>Node9</title>
<g id="a_node9"><a xlink:title=" ">
<polygon fill="white" stroke="black" points="500.5,-993.5 500.5,-1050.5 584.5,-1050.5 584.5,-993.5 500.5,-993.5"/>
<text text-anchor="middle" x="542.5" y="-1038.5" font-family="Helvetica,sans-Serif" font-size="10.00">std::vector&lt; T &gt;</text>
<polyline fill="none" stroke="black" points="500.5,-1031.5 584.5,-1031.5 "/>
<text text-anchor="middle" x="542.5" y="-1019.5" font-family="Helvetica,sans-Serif" font-size="10.00"> </text>
<polyline fill="none" stroke="black" points="500.5,-1012.5 584.5,-1012.5 "/>
<text text-anchor="middle" x="542.5" y="-1000.5" font-family="Helvetica,sans-Serif" font-size="10.00"> </text>
</a>
</g>
</g>
<!-- Node9&#45;&gt;Node3 -->
<g id="edge13" class="edge">
<title>Node9&#45;&gt;Node3</title>
<path fill="none" stroke="orange" d="M551.66,-983.37C563.19,-932.63 581.5,-839.32 581.5,-758.5 581.5,-758.5 581.5,-758.5 581.5,-420 581.5,-390.83 580.3,-357.69 579.21,-333.72"/>
<polygon fill="orange" stroke="orange" points="548.22,-982.7 549.38,-993.23 555.04,-984.27 548.22,-982.7"/>
<text text-anchor="start" x="581.5" y="-551" font-family="Helvetica,sans-Serif" font-size="10.00"> &lt; altintegration::btc</text>
<text text-anchor="middle" x="624" y="-540" font-family="Helvetica,sans-Serif" font-size="10.00">::TxIn &gt;</text>
</g>
<!-- Node9&#45;&gt;Node8 -->
<g id="edge8" class="edge">
<title>Node9&#45;&gt;Node8</title>
<path fill="none" stroke="orange" d="M526,-983.99C502.26,-930.71 458.97,-833.6 437.81,-786.12"/>
<polygon fill="orange" stroke="orange" points="522.93,-985.7 530.2,-993.4 529.33,-982.85 522.93,-985.7"/>
<text text-anchor="middle" x="513" y="-890" font-family="Helvetica,sans-Serif" font-size="10.00"> &lt; uint8_t &gt;</text>
</g>
<!-- Node9&#45;&gt;Node11 -->
<g id="edge12" class="edge">
<title>Node9&#45;&gt;Node11</title>
<path fill="none" stroke="orange" d="M490.35,-1006.39C428.78,-986.23 328.34,-943.64 277.5,-869 216.81,-779.89 220.72,-644.45 226.46,-582.29"/>
<polygon fill="orange" stroke="orange" points="489.67,-1009.85 500.26,-1009.55 491.8,-1003.18 489.67,-1009.85"/>
<text text-anchor="start" x="277.5" y="-760.5" font-family="Helvetica,sans-Serif" font-size="10.00"> &lt; std::vector&lt; uint8</text>
<text text-anchor="middle" x="320" y="-749.5" font-family="Helvetica,sans-Serif" font-size="10.00">_t &gt; &gt;</text>
</g>
<!-- Node12 -->
<g id="node12" class="node">
<title>Node12</title>
<g id="a_node12"><a xlink:title=" ">
<polygon fill="white" stroke="black" points="614,-387 614,-455 739,-455 739,-387 614,-387"/>
<text text-anchor="start" x="622" y="-443" font-family="Helvetica,sans-Serif" font-size="10.00">std::vector&lt; altintegration</text>
<text text-anchor="middle" x="676.5" y="-432" font-family="Helvetica,sans-Serif" font-size="10.00">::btc::TxOut &gt;</text>
<polyline fill="none" stroke="black" points="614,-425 739,-425 "/>
<text text-anchor="middle" x="676.5" y="-413" font-family="Helvetica,sans-Serif" font-size="10.00"> </text>
<polyline fill="none" stroke="black" points="614,-406 739,-406 "/>
<text text-anchor="middle" x="676.5" y="-394" font-family="Helvetica,sans-Serif" font-size="10.00"> </text>
</a>
</g>
</g>
<!-- Node9&#45;&gt;Node12 -->
<g id="edge17" class="edge">
<title>Node9&#45;&gt;Node12</title>
<path fill="none" stroke="orange" d="M560.37,-984.06C571.54,-959.96 585.62,-927.6 595.5,-898 640.37,-763.54 651.18,-728.43 670.5,-588 676.79,-542.29 677.56,-488.87 677.26,-455.24"/>
<polygon fill="orange" stroke="orange" points="557.16,-982.65 556.09,-993.19 563.5,-985.62 557.16,-982.65"/>
<text text-anchor="start" x="667.5" y="-620" font-family="Helvetica,sans-Serif" font-size="10.00"> &lt; altintegration::btc</text>
<text text-anchor="middle" x="710" y="-609" font-family="Helvetica,sans-Serif" font-size="10.00">::TxOut &gt;</text>
</g>
<!-- Node10 -->
<g id="node10" class="node">
<title>Node10</title>
<g id="a_node10"><a xlink:title=" ">
<polygon fill="white" stroke="#bfbfbf" points="528,-1175.5 528,-1232.5 557,-1232.5 557,-1175.5 528,-1175.5"/>
<text text-anchor="middle" x="542.5" y="-1220.5" font-family="Helvetica,sans-Serif" font-size="10.00">T</text>
<polyline fill="none" stroke="#bfbfbf" points="528,-1213.5 557,-1213.5 "/>
<text text-anchor="middle" x="542.5" y="-1201.5" font-family="Helvetica,sans-Serif" font-size="10.00"> </text>
<polyline fill="none" stroke="#bfbfbf" points="528,-1194.5 557,-1194.5 "/>
<text text-anchor="middle" x="542.5" y="-1182.5" font-family="Helvetica,sans-Serif" font-size="10.00"> </text>
</a>
</g>
</g>
<!-- Node10&#45;&gt;Node9 -->
<g id="edge9" class="edge">
<title>Node10&#45;&gt;Node9</title>
<path fill="none" stroke="#404040" d="M542.5,-1175.27C542.5,-1145.28 542.5,-1097.18 542.5,-1063.08"/>
<polygon fill="none" stroke="#404040" points="542.5,-1062.76 538.5,-1056.76 542.5,-1050.76 546.5,-1056.76 542.5,-1062.76"/>
<text text-anchor="middle" x="567" y="-1149" font-family="Helvetica,sans-Serif" font-size="10.00"> +elements</text>
</g>
<!-- Node11&#45;&gt;Node4 -->
<g id="edge10" class="edge">
<title>Node11&#45;&gt;Node4</title>
<path fill="none" stroke="#404040" d="M233.57,-513.73C235.34,-502.43 238.13,-489.9 242.5,-479 243.51,-476.49 244.64,-473.97 245.85,-471.48"/>
<polygon fill="none" stroke="#404040" points="245.98,-471.24 245.32,-464.06 251.7,-460.69 252.36,-467.87 245.98,-471.24"/>
<text text-anchor="middle" x="276.5" y="-482" font-family="Helvetica,sans-Serif" font-size="10.00"> +scriptWitness</text>
</g>
<!-- Node12&#45;&gt;Node2 -->
<g id="edge14" class="edge">
<title>Node12&#45;&gt;Node2</title>
<path fill="none" stroke="#404040" d="M670.97,-386.96C665.6,-355.52 657.04,-306.93 648.5,-265 646.17,-253.57 643.54,-241.42 640.93,-229.73"/>
<polygon fill="none" stroke="#404040" points="640.87,-229.46 635.65,-224.49 638.23,-217.75 643.45,-222.73 640.87,-229.46"/>
<text text-anchor="middle" x="675.5" y="-297" font-family="Helvetica,sans-Serif" font-size="10.00"> +vout</text>
</g>
<!-- Node13&#45;&gt;Node12 -->
<g id="edge15" class="edge">
<title>Node13&#45;&gt;Node12</title>
<path fill="none" stroke="#404040" d="M531.91,-508.48C556.89,-493.54 585.47,-476.44 610.59,-461.42"/>
<polygon fill="none" stroke="#404040" points="610.82,-461.28 613.92,-454.77 621.12,-455.12 618.02,-461.63 610.82,-461.28"/>
<text text-anchor="middle" x="603" y="-482" font-family="Helvetica,sans-Serif" font-size="10.00"> +elements</text>
</g>
</g>
</svg>
