<?xml version="1.0" encoding="UTF-8" standalone="no"?>
<!DOCTYPE svg PUBLIC "-//W3C//DTD SVG 1.1//EN"
 "http://www.w3.org/Graphics/SVG/1.1/DTD/svg11.dtd">
<!-- Generated by graphviz version 3.0.0 (20220413.0242)
 -->
<!-- Title: altintegration::ATV Pages: 1 -->
<!--zoomable 1196 -->
<svg id="main" version="1.1" xmlns="http://www.w3.org/2000/svg" xmlns:xlink="http://www.w3.org/1999/xlink" xml:space="preserve" onload="init(evt)">
<style type="text/css"><![CDATA[
.edge:hover path { stroke: red; }
.edge:hover polygon { stroke: red; fill: red; }
]]></style>
<script type="text/javascript"><![CDATA[
var edges = document.getElementsByTagName('g');
if (edges && edges.length) {
  for (var i=0;i<edges.length;i++) {
    if (edges[i].id.substr(0,4)=='edge') {
      edges[i].setAttribute('class','edge');
    }
  }
}
]]></script>
        <defs>
                <circle id="rim" cx="0" cy="0" r="7"/>
                <circle id="rim2" cx="0" cy="0" r="3.5"/>
                <g id="zoomPlus">
                        <use xlink:href="#rim" fill="#404040">
                                <set attributeName="fill" to="#808080" begin="zoomplus.mouseover" end="zoomplus.mouseout"/>
                        </use>
                        <path d="M-4,0h8M0,-4v8" fill="none" stroke="white" stroke-width="1.5" pointer-events="none"/>
                </g>
                <g id="zoomMin">
                        <use xlink:href="#rim" fill="#404040">
                                <set attributeName="fill" to="#808080" begin="zoomminus.mouseover" end="zoomminus.mouseout"/>
                        </use>
                        <path d="M-4,0h8" fill="none" stroke="white" stroke-width="1.5" pointer-events="none"/>
                </g>
                <g id="dirArrow">
                        <path fill="none" stroke="white" stroke-width="1.5" d="M0,-3.0v7 M-2.5,-0.5L0,-3.0L2.5,-0.5"/>
                </g>
               <g id="resetDef">
                       <use xlink:href="#rim2" fill="#404040">
                               <set attributeName="fill" to="#808080" begin="reset.mouseover" end="reset.mouseout"/>
                       </use>
               </g>
        </defs>

<script type="text/javascript">
var viewWidth = 1022;
var viewHeight = 1196;
var sectionId = 'dynsection-0';
</script>
<script xlink:href="svgpan.js"/>
<svg id="graph" class="graph">
<g id="viewport">
<title>altintegration::ATV</title>
<polygon fill="white" stroke="transparent" points="-4,4 -4,-1192 1018.42,-1192 1018.42,4 -4,4"/>
<!-- Node1 -->
<g id="node1" class="node">
<title>Node1</title>
<g id="a_node1"><a xlink:title="Atlchain endorsement.">
<polygon fill="#bfbfbf" stroke="black" points="699.42,-0.5 699.42,-134.5 812.42,-134.5 812.42,-0.5 699.42,-0.5"/>
<text text-anchor="middle" x="755.92" y="-122.5" font-family="Helvetica,sans-Serif" font-size="10.00">altintegration::ATV</text>
<polyline fill="none" stroke="black" points="699.42,-115.5 812.42,-115.5 "/>
<text text-anchor="start" x="707.42" y="-103.5" font-family="Helvetica,sans-Serif" font-size="10.00">+ version</text>
<text text-anchor="start" x="707.42" y="-92.5" font-family="Helvetica,sans-Serif" font-size="10.00">+ checked</text>
<polyline fill="none" stroke="black" points="699.42,-85.5 812.42,-85.5 "/>
<text text-anchor="start" x="707.42" y="-73.5" font-family="Helvetica,sans-Serif" font-size="10.00">+ toPrettyString()</text>
<text text-anchor="start" x="707.42" y="-62.5" font-family="Helvetica,sans-Serif" font-size="10.00">+ toShortPrettyString()</text>
<text text-anchor="start" x="707.42" y="-51.5" font-family="Helvetica,sans-Serif" font-size="10.00">+ toVbkEncoding()</text>
<text text-anchor="start" x="707.42" y="-40.5" font-family="Helvetica,sans-Serif" font-size="10.00">+ toVbkEncoding()</text>
<text text-anchor="start" x="707.42" y="-29.5" font-family="Helvetica,sans-Serif" font-size="10.00">+ estimateSize()</text>
<text text-anchor="start" x="707.42" y="-18.5" font-family="Helvetica,sans-Serif" font-size="10.00">+ getId()</text>
<text text-anchor="start" x="707.42" y="-7.5" font-family="Helvetica,sans-Serif" font-size="10.00">+ name()</text>
</a>
</g>
</g>
<!-- Node2 -->
<g id="node2" class="node">
<title>Node2</title>
<g id="a_node2"><a xlink:href="structaltintegration_1_1VbkTx.html" target="_top" xlink:title="Veriblock transaction, which endorses ALT block in VBK blockchain.">
<polygon fill="white" stroke="black" points="351.92,-221 351.92,-322 455.92,-322 455.92,-221 351.92,-221"/>
<text text-anchor="middle" x="403.92" y="-310" font-family="Helvetica,sans-Serif" font-size="10.00">altintegration::VbkTx</text>
<polyline fill="none" stroke="black" points="351.92,-303 455.92,-303 "/>
<text text-anchor="start" x="359.92" y="-291" font-family="Helvetica,sans-Serif" font-size="10.00">+ signatureIndex</text>
<polyline fill="none" stroke="black" points="351.92,-284 455.92,-284 "/>
<text text-anchor="start" x="359.92" y="-272" font-family="Helvetica,sans-Serif" font-size="10.00">+ toVbkEncoding()</text>
<text text-anchor="start" x="359.92" y="-261" font-family="Helvetica,sans-Serif" font-size="10.00">+ toVbkEncoding()</text>
<text text-anchor="start" x="359.92" y="-250" font-family="Helvetica,sans-Serif" font-size="10.00">+ estimateSize()</text>
<text text-anchor="start" x="359.92" y="-239" font-family="Helvetica,sans-Serif" font-size="10.00">+ getHash()</text>
<text text-anchor="start" x="359.92" y="-228" font-family="Helvetica,sans-Serif" font-size="10.00">+ calculateTxFee()</text>
</a>
</g>
</g>
<!-- Node2&#45;&gt;Node1 -->
<g id="edge1" class="edge">
<title>Node2&#45;&gt;Node1</title>
<path fill="none" stroke="#404040" d="M456.24,-240.48C518.05,-205.01 621.01,-145.92 688.68,-107.09"/>
<polygon fill="none" stroke="#404040" points="688.82,-107.01 692.03,-100.55 699.23,-101.03 696.01,-107.49 688.82,-107.01"/>
<text text-anchor="middle" x="630.42" y="-156" font-family="Helvetica,sans-Serif" font-size="10.00"> +transaction</text>
</g>
<!-- Node3 -->
<g id="node3" class="node">
<title>Node3</title>
<g id="a_node3"><a xlink:href="namespacealtintegration.html#structaltintegration_1_1NetworkBytePair" target="_top" xlink:title="Stores pair of TxType and VBK network byte.">
<polygon fill="white" stroke="black" points="328.92,-430.5 328.92,-487.5 478.92,-487.5 478.92,-430.5 328.92,-430.5"/>
<text text-anchor="middle" x="403.92" y="-475.5" font-family="Helvetica,sans-Serif" font-size="10.00">altintegration::NetworkBytePair</text>
<polyline fill="none" stroke="black" points="328.92,-468.5 478.92,-468.5 "/>
<text text-anchor="start" x="336.92" y="-456.5" font-family="Helvetica,sans-Serif" font-size="10.00">+ typeId</text>
<polyline fill="none" stroke="black" points="328.92,-449.5 478.92,-449.5 "/>
<text text-anchor="middle" x="403.92" y="-437.5" font-family="Helvetica,sans-Serif" font-size="10.00"> </text>
</a>
</g>
</g>
<!-- Node3&#45;&gt;Node2 -->
<g id="edge2" class="edge">
<title>Node3&#45;&gt;Node2</title>
<path fill="none" stroke="#404040" d="M403.92,-430.23C403.92,-404.96 403.92,-366.75 403.92,-334.27"/>
<polygon fill="none" stroke="#404040" points="403.92,-334.14 399.92,-328.14 403.92,-322.14 407.92,-328.14 403.92,-334.14"/>
<text text-anchor="middle" x="441.42" y="-382" font-family="Helvetica,sans-Serif" font-size="10.00"> +networkOrType</text>
</g>
<!-- Node4 -->
<g id="node4" class="node">
<title>Node4</title>
<g id="a_node4"><a xlink:href="structaltintegration_1_1VbkNetworkType.html" target="_top" xlink:title="works as optional&lt;uint8_t&gt;">
<polygon fill="white" stroke="black" points="432.92,-645.5 432.92,-746.5 584.92,-746.5 584.92,-645.5 432.92,-645.5"/>
<text text-anchor="middle" x="508.92" y="-734.5" font-family="Helvetica,sans-Serif" font-size="10.00">altintegration::VbkNetworkType</text>
<polyline fill="none" stroke="black" points="432.92,-727.5 584.92,-727.5 "/>
<text text-anchor="start" x="440.92" y="-715.5" font-family="Helvetica,sans-Serif" font-size="10.00">+ hasValue</text>
<text text-anchor="start" x="440.92" y="-704.5" font-family="Helvetica,sans-Serif" font-size="10.00">+ value</text>
<polyline fill="none" stroke="black" points="432.92,-697.5 584.92,-697.5 "/>
<text text-anchor="start" x="440.92" y="-685.5" font-family="Helvetica,sans-Serif" font-size="10.00">+ operator bool()</text>
<text text-anchor="start" x="440.92" y="-674.5" font-family="Helvetica,sans-Serif" font-size="10.00">+ operator==()</text>
<text text-anchor="start" x="440.92" y="-663.5" font-family="Helvetica,sans-Serif" font-size="10.00">+ toPrettyString()</text>
<text text-anchor="start" x="440.92" y="-652.5" font-family="Helvetica,sans-Serif" font-size="10.00">+ putJson()</text>
</a>
</g>
</g>
<!-- Node4&#45;&gt;Node3 -->
<g id="edge3" class="edge">
<title>Node4&#45;&gt;Node3</title>
<path fill="none" stroke="#404040" d="M479.58,-645.45C465.58,-620.62 449.23,-589.77 436.92,-561 428.42,-541.15 420.8,-518.34 415.02,-499.43"/>
<polygon fill="none" stroke="#404040" points="415.02,-499.42 409.47,-494.81 411.59,-487.92 417.14,-492.53 415.02,-499.42"/>
<text text-anchor="middle" x="468.92" y="-542" font-family="Helvetica,sans-Serif" font-size="10.00"> +networkType</text>
</g>
<!-- Node5 -->
<g id="node5" class="node">
<title>Node5</title>
<g id="a_node5"><a xlink:href="structaltintegration_1_1Address.html" target="_top" xlink:title="Represents address on VBK chain.">
<polygon fill="white" stroke="black" points="132.42,-877 132.42,-1066 269.42,-1066 269.42,-877 132.42,-877"/>
<text text-anchor="middle" x="200.92" y="-1054" font-family="Helvetica,sans-Serif" font-size="10.00">altintegration::Address</text>
<polyline fill="none" stroke="black" points="132.42,-1047 269.42,-1047 "/>
<text text-anchor="middle" x="200.92" y="-1035" font-family="Helvetica,sans-Serif" font-size="10.00"> </text>
<polyline fill="none" stroke="black" points="132.42,-1028 269.42,-1028 "/>
<text text-anchor="start" x="140.42" y="-1016" font-family="Helvetica,sans-Serif" font-size="10.00">+ Address()</text>
<text text-anchor="start" x="140.42" y="-1005" font-family="Helvetica,sans-Serif" font-size="10.00">+ operator==()</text>
<text text-anchor="start" x="140.42" y="-994" font-family="Helvetica,sans-Serif" font-size="10.00">+ operator!=()</text>
<text text-anchor="start" x="140.42" y="-983" font-family="Helvetica,sans-Serif" font-size="10.00">+ operator==()</text>
<text text-anchor="start" x="140.42" y="-972" font-family="Helvetica,sans-Serif" font-size="10.00">+ getType()</text>
<text text-anchor="start" x="140.42" y="-961" font-family="Helvetica,sans-Serif" font-size="10.00">+ getPopBytes()</text>
<text text-anchor="start" x="140.42" y="-950" font-family="Helvetica,sans-Serif" font-size="10.00">+ isDerivedFromPublicKey()</text>
<text text-anchor="start" x="140.42" y="-939" font-family="Helvetica,sans-Serif" font-size="10.00">+ fromString()</text>
<text text-anchor="start" x="140.42" y="-928" font-family="Helvetica,sans-Serif" font-size="10.00">+ toString()</text>
<text text-anchor="start" x="140.42" y="-917" font-family="Helvetica,sans-Serif" font-size="10.00">+ toVbkEncoding()</text>
<text text-anchor="start" x="140.42" y="-906" font-family="Helvetica,sans-Serif" font-size="10.00">+ estimateSize()</text>
<text text-anchor="start" x="140.42" y="-895" font-family="Helvetica,sans-Serif" font-size="10.00">+ fromPublicKey()</text>
<text text-anchor="start" x="140.42" y="-884" font-family="Helvetica,sans-Serif" font-size="10.00">+ assertFromString()</text>
</a>
</g>
</g>
<!-- Node5&#45;&gt;Node2 -->
<g id="edge4" class="edge">
<title>Node5&#45;&gt;Node2</title>
<path fill="none" stroke="#404040" d="M210.69,-876.78C224.83,-762.72 256.57,-565.82 319.92,-408 330.43,-381.83 345.88,-355.02 360.67,-332.24"/>
<polygon fill="none" stroke="#404040" points="360.78,-332.07 360.75,-324.86 367.4,-322.07 367.43,-329.28 360.78,-332.07"/>
<text text-anchor="middle" x="316.92" y="-542" font-family="Helvetica,sans-Serif" font-size="10.00"> +sourceAddress</text>
</g>
<!-- Node8 -->
<g id="node8" class="node">
<title>Node8</title>
<g id="a_node8"><a xlink:href="structaltintegration_1_1Output.html" target="_top" xlink:title="Single spending output.">
<polygon fill="white" stroke="black" points="82.92,-640 82.92,-752 188.92,-752 188.92,-640 82.92,-640"/>
<text text-anchor="middle" x="135.92" y="-740" font-family="Helvetica,sans-Serif" font-size="10.00">altintegration::Output</text>
<polyline fill="none" stroke="black" points="82.92,-733 188.92,-733 "/>
<text text-anchor="middle" x="135.92" y="-721" font-family="Helvetica,sans-Serif" font-size="10.00"> </text>
<polyline fill="none" stroke="black" points="82.92,-714 188.92,-714 "/>
<text text-anchor="start" x="90.92" y="-702" font-family="Helvetica,sans-Serif" font-size="10.00">+ Output()</text>
<text text-anchor="start" x="90.92" y="-691" font-family="Helvetica,sans-Serif" font-size="10.00">+ Output()</text>
<text text-anchor="start" x="90.92" y="-680" font-family="Helvetica,sans-Serif" font-size="10.00">+ operator==()</text>
<text text-anchor="start" x="90.92" y="-669" font-family="Helvetica,sans-Serif" font-size="10.00">+ toVbkEncoding()</text>
<text text-anchor="start" x="90.92" y="-658" font-family="Helvetica,sans-Serif" font-size="10.00">+ estimateSize()</text>
<text text-anchor="start" x="90.92" y="-647" font-family="Helvetica,sans-Serif" font-size="10.00">+ toPrettyString()</text>
</a>
</g>
</g>
<!-- Node5&#45;&gt;Node8 -->
<g id="edge8" class="edge">
<title>Node5&#45;&gt;Node8</title>
<path fill="none" stroke="#404040" d="M169.33,-876.9C165.9,-865.22 162.66,-853.38 159.92,-842 153.86,-816.85 148.84,-788.89 144.98,-764.27"/>
<polygon fill="none" stroke="#404040" points="144.93,-763.98 140.07,-758.65 143.12,-752.12 147.98,-757.44 144.93,-763.98"/>
<text text-anchor="middle" x="181.42" y="-834" font-family="Helvetica,sans-Serif" font-size="10.00"> +address</text>
</g>
<!-- Node6 -->
<g id="node6" class="node">
<title>Node6</title>
<g id="a_node6"><a xlink:href="structaltintegration_1_1Coin.html" target="_top" xlink:title="represents VBK atomic units">
<polygon fill="white" stroke="black" points="9.92,-915.5 9.92,-1027.5 105.92,-1027.5 105.92,-915.5 9.92,-915.5"/>
<text text-anchor="middle" x="57.92" y="-1015.5" font-family="Helvetica,sans-Serif" font-size="10.00">altintegration::Coin</text>
<polyline fill="none" stroke="black" points="9.92,-1008.5 105.92,-1008.5 "/>
<text text-anchor="start" x="17.92" y="-996.5" font-family="Helvetica,sans-Serif" font-size="10.00">+ units</text>
<polyline fill="none" stroke="black" points="9.92,-989.5 105.92,-989.5 "/>
<text text-anchor="start" x="17.92" y="-977.5" font-family="Helvetica,sans-Serif" font-size="10.00">+ Coin()</text>
<text text-anchor="start" x="17.92" y="-966.5" font-family="Helvetica,sans-Serif" font-size="10.00">+ toPrettyString()</text>
<text text-anchor="start" x="17.92" y="-955.5" font-family="Helvetica,sans-Serif" font-size="10.00">+ Coin()</text>
<text text-anchor="start" x="17.92" y="-944.5" font-family="Helvetica,sans-Serif" font-size="10.00">+ toVbkEncoding()</text>
<text text-anchor="start" x="17.92" y="-933.5" font-family="Helvetica,sans-Serif" font-size="10.00">+ estimateSize()</text>
<text text-anchor="start" x="17.92" y="-922.5" font-family="Helvetica,sans-Serif" font-size="10.00">+ operator==()</text>
</a>
</g>
</g>
<!-- Node6&#45;&gt;Node2 -->
<g id="edge5" class="edge">
<title>Node6&#45;&gt;Node2</title>
<path fill="none" stroke="#404040" d="M40.13,-915.15C8.93,-806.62 -42.55,-562.95 66.92,-408 129.61,-319.27 260.55,-288.6 339.49,-278.03"/>
<polygon fill="none" stroke="#404040" points="339.78,-277.99 345.24,-273.28 351.69,-276.5 346.23,-281.21 339.78,-277.99"/>
<text text-anchor="middle" x="50.92" y="-542" font-family="Helvetica,sans-Serif" font-size="10.00"> +sourceAmount</text>
</g>
<!-- Node6&#45;&gt;Node8 -->
<g id="edge9" class="edge">
<title>Node6&#45;&gt;Node8</title>
<path fill="none" stroke="#404040" d="M73.61,-915.48C86.05,-871.86 103.49,-810.71 116.76,-764.19"/>
<polygon fill="none" stroke="#404040" points="116.83,-763.94 114.63,-757.07 120.12,-752.4 122.32,-759.27 116.83,-763.94"/>
<text text-anchor="middle" x="110.42" y="-834" font-family="Helvetica,sans-Serif" font-size="10.00"> +coin</text>
</g>
<!-- Node7 -->
<g id="node7" class="node">
<title>Node7</title>
<g id="a_node7"><a xlink:title=" ">
<polygon fill="white" stroke="black" points="76.42,-425 76.42,-493 201.42,-493 201.42,-425 76.42,-425"/>
<text text-anchor="start" x="84.42" y="-481" font-family="Helvetica,sans-Serif" font-size="10.00">std::vector&lt; altintegration</text>
<text text-anchor="middle" x="138.92" y="-470" font-family="Helvetica,sans-Serif" font-size="10.00">::Output &gt;</text>
<polyline fill="none" stroke="black" points="76.42,-463 201.42,-463 "/>
<text text-anchor="middle" x="138.92" y="-451" font-family="Helvetica,sans-Serif" font-size="10.00"> </text>
<polyline fill="none" stroke="black" points="76.42,-444 201.42,-444 "/>
<text text-anchor="middle" x="138.92" y="-432" font-family="Helvetica,sans-Serif" font-size="10.00"> </text>
</a>
</g>
</g>
<!-- Node7&#45;&gt;Node2 -->
<g id="edge6" class="edge">
<title>Node7&#45;&gt;Node2</title>
<path fill="none" stroke="#404040" d="M148.1,-424.89C153.77,-409.4 162.39,-391.62 174.92,-379 220.52,-333.04 289.71,-304.67 340.1,-288.88"/>
<polygon fill="none" stroke="#404040" points="340.35,-288.81 344.93,-283.24 351.83,-285.33 347.25,-290.9 340.35,-288.81"/>
<text text-anchor="middle" x="195.42" y="-382" font-family="Helvetica,sans-Serif" font-size="10.00"> +outputs</text>
</g>
<!-- Node8&#45;&gt;Node7 -->
<g id="edge7" class="edge">
<title>Node8&#45;&gt;Node7</title>
<path fill="none" stroke="#404040" d="M136.62,-639.9C137.15,-598.86 137.85,-543.51 138.34,-505.09"/>
<polygon fill="none" stroke="#404040" points="138.35,-505 134.42,-498.95 138.5,-493 142.42,-499.05 138.35,-505"/>
<text text-anchor="middle" x="163.42" y="-542" font-family="Helvetica,sans-Serif" font-size="10.00"> +elements</text>
</g>
<!-- Node9 -->
<g id="node9" class="node">
<title>Node9</title>
<g id="a_node9"><a xlink:title=" ">
<polygon fill="white" stroke="black" points="575.92,-943 575.92,-1000 659.92,-1000 659.92,-943 575.92,-943"/>
<text text-anchor="middle" x="617.92" y="-988" font-family="Helvetica,sans-Serif" font-size="10.00">std::vector&lt; T &gt;</text>
<polyline fill="none" stroke="black" points="575.92,-981 659.92,-981 "/>
<text text-anchor="middle" x="617.92" y="-969" font-family="Helvetica,sans-Serif" font-size="10.00"> </text>
<polyline fill="none" stroke="black" points="575.92,-962 659.92,-962 "/>
<text text-anchor="middle" x="617.92" y="-950" font-family="Helvetica,sans-Serif" font-size="10.00"> </text>
</a>
</g>
</g>
<!-- Node9&#45;&gt;Node7 -->
<g id="edge10" class="edge">
<title>Node9&#45;&gt;Node7</title>
<path fill="none" stroke="orange" d="M565.79,-959.75C495.64,-942.27 372.97,-900.45 314.92,-813 279.78,-760.06 328.66,-579.84 291.92,-528 270.91,-498.36 233.94,-481.45 201.6,-471.91"/>
<polygon fill="orange" stroke="orange" points="565.21,-963.21 575.75,-962.16 566.85,-956.41 565.21,-963.21"/>
<text text-anchor="middle" x="369.42" y="-693.5" font-family="Helvetica,sans-Serif" font-size="10.00"> &lt; altintegration::Output &gt;</text>
</g>
<!-- Node12 -->
<g id="node12" class="node">
<title>Node12</title>
<g id="a_node12"><a xlink:title=" ">
<polygon fill="white" stroke="black" points="603.42,-667.5 603.42,-724.5 710.42,-724.5 710.42,-667.5 603.42,-667.5"/>
<text text-anchor="middle" x="656.92" y="-712.5" font-family="Helvetica,sans-Serif" font-size="10.00">std::vector&lt; uint8_t &gt;</text>
<polyline fill="none" stroke="black" points="603.42,-705.5 710.42,-705.5 "/>
<text text-anchor="start" x="611.42" y="-693.5" font-family="Helvetica,sans-Serif" font-size="10.00">+ elements</text>
<polyline fill="none" stroke="black" points="603.42,-686.5 710.42,-686.5 "/>
<text text-anchor="middle" x="656.92" y="-674.5" font-family="Helvetica,sans-Serif" font-size="10.00"> </text>
</a>
</g>
</g>
<!-- Node9&#45;&gt;Node12 -->
<g id="edge14" class="edge">
<title>Node9&#45;&gt;Node12</title>
<path fill="none" stroke="orange" d="M615.46,-932.59C614.29,-904.42 614.05,-865.12 618.92,-831 624.3,-793.3 637.44,-751.27 646.76,-724.5"/>
<polygon fill="orange" stroke="orange" points="611.97,-932.99 615.94,-942.81 618.96,-932.66 611.97,-932.99"/>
<text text-anchor="middle" x="643.42" y="-834" font-family="Helvetica,sans-Serif" font-size="10.00"> &lt; uint8_t &gt;</text>
</g>
<!-- Node16 -->
<g id="node16" class="node">
<title>Node16</title>
<g id="a_node16"><a xlink:title=" ">
<polygon fill="white" stroke="black" points="889.42,-662 889.42,-730 1014.42,-730 1014.42,-662 889.42,-662"/>
<text text-anchor="start" x="897.42" y="-718" font-family="Helvetica,sans-Serif" font-size="10.00">std::vector&lt; altintegration</text>
<text text-anchor="middle" x="951.92" y="-707" font-family="Helvetica,sans-Serif" font-size="10.00">::Blob &gt;</text>
<polyline fill="none" stroke="black" points="889.42,-700 1014.42,-700 "/>
<text text-anchor="middle" x="951.92" y="-688" font-family="Helvetica,sans-Serif" font-size="10.00"> </text>
<polyline fill="none" stroke="black" points="889.42,-681 1014.42,-681 "/>
<text text-anchor="middle" x="951.92" y="-669" font-family="Helvetica,sans-Serif" font-size="10.00"> </text>
</a>
</g>
</g>
<!-- Node9&#45;&gt;Node16 -->
<g id="edge21" class="edge">
<title>Node9&#45;&gt;Node16</title>
<path fill="none" stroke="orange" d="M630.46,-933.12C643.56,-900.33 667.5,-854.35 704.92,-831 771.26,-789.61 813.63,-854.46 879.92,-813 910.16,-794.08 929.73,-757.32 940.72,-730.23"/>
<polygon fill="orange" stroke="orange" points="627.04,-932.24 626.73,-942.83 633.58,-934.75 627.04,-932.24"/>
<text text-anchor="middle" x="754.42" y="-834" font-family="Helvetica,sans-Serif" font-size="10.00"> &lt; altintegration::Blob &gt;</text>
</g>
<!-- Node10 -->
<g id="node10" class="node">
<title>Node10</title>
<g id="a_node10"><a xlink:title=" ">
<polygon fill="white" stroke="#bfbfbf" points="603.42,-1130.5 603.42,-1187.5 632.42,-1187.5 632.42,-1130.5 603.42,-1130.5"/>
<text text-anchor="middle" x="617.92" y="-1175.5" font-family="Helvetica,sans-Serif" font-size="10.00">T</text>
<polyline fill="none" stroke="#bfbfbf" points="603.42,-1168.5 632.42,-1168.5 "/>
<text text-anchor="middle" x="617.92" y="-1156.5" font-family="Helvetica,sans-Serif" font-size="10.00"> </text>
<polyline fill="none" stroke="#bfbfbf" points="603.42,-1149.5 632.42,-1149.5 "/>
<text text-anchor="middle" x="617.92" y="-1137.5" font-family="Helvetica,sans-Serif" font-size="10.00"> </text>
</a>
</g>
</g>
<!-- Node10&#45;&gt;Node9 -->
<g id="edge11" class="edge">
<title>Node10&#45;&gt;Node9</title>
<path fill="none" stroke="#404040" d="M617.92,-1130.23C617.92,-1098.99 617.92,-1048 617.92,-1012.48"/>
<polygon fill="none" stroke="#404040" points="617.92,-1012.16 613.92,-1006.16 617.92,-1000.16 621.92,-1006.16 617.92,-1012.16"/>
<text text-anchor="middle" x="642.42" y="-1104" font-family="Helvetica,sans-Serif" font-size="10.00"> +elements</text>
</g>
<!-- Node11 -->
<g id="node11" class="node">
<title>Node11</title>
<g id="a_node11"><a xlink:href="structaltintegration_1_1PublicationData.html" target="_top" xlink:title="Publication data about ALT block inside VBK blockchain.">
<polygon fill="white" stroke="black" points="584.42,-419.5 584.42,-498.5 729.42,-498.5 729.42,-419.5 584.42,-419.5"/>
<text text-anchor="middle" x="656.92" y="-486.5" font-family="Helvetica,sans-Serif" font-size="10.00">altintegration::PublicationData</text>
<polyline fill="none" stroke="black" points="584.42,-479.5 729.42,-479.5 "/>
<text text-anchor="start" x="592.42" y="-467.5" font-family="Helvetica,sans-Serif" font-size="10.00">+ identifier</text>
<polyline fill="none" stroke="black" points="584.42,-460.5 729.42,-460.5 "/>
<text text-anchor="start" x="592.42" y="-448.5" font-family="Helvetica,sans-Serif" font-size="10.00">+ toPrettyString()</text>
<text text-anchor="start" x="592.42" y="-437.5" font-family="Helvetica,sans-Serif" font-size="10.00">+ toVbkEncoding()</text>
<text text-anchor="start" x="592.42" y="-426.5" font-family="Helvetica,sans-Serif" font-size="10.00">+ estimateSize()</text>
</a>
</g>
</g>
<!-- Node11&#45;&gt;Node2 -->
<g id="edge12" class="edge">
<title>Node11&#45;&gt;Node2</title>
<path fill="none" stroke="#404040" d="M604.19,-419.34C563.97,-389.85 508.45,-349.14 466.07,-318.07"/>
<polygon fill="none" stroke="#404040" points="465.83,-317.89 458.62,-317.57 456.15,-310.79 463.35,-311.12 465.83,-317.89"/>
<text text-anchor="middle" x="598.92" y="-382" font-family="Helvetica,sans-Serif" font-size="10.00"> +publicationData</text>
</g>
<!-- Node12&#45;&gt;Node2 -->
<g id="edge15" class="edge">
<title>Node12&#45;&gt;Node2</title>
<path fill="none" stroke="#404040" d="M644.77,-667.38C633.39,-642.98 615,-607.02 593.92,-579 567.65,-544.09 546.68,-547.29 523.92,-510 492.14,-457.92 510.59,-433.37 482.92,-379 474.78,-363 464.26,-346.86 453.57,-332.15"/>
<polygon fill="none" stroke="#404040" points="453.35,-331.85 446.55,-329.42 446.18,-322.22 452.97,-324.64 453.35,-331.85"/>
<text text-anchor="middle" x="549.42" y="-462" font-family="Helvetica,sans-Serif" font-size="10.00"> +publicKey</text>
<text text-anchor="middle" x="549.42" y="-451" font-family="Helvetica,sans-Serif" font-size="10.00">+signature</text>
</g>
<!-- Node12&#45;&gt;Node11 -->
<g id="edge13" class="edge">
<title>Node12&#45;&gt;Node11</title>
<path fill="none" stroke="#404040" d="M656.92,-667.12C656.92,-628.73 656.92,-558.91 656.92,-511.03"/>
<polygon fill="none" stroke="#404040" points="656.92,-510.76 652.92,-504.76 656.92,-498.76 660.92,-504.76 656.92,-510.76"/>
<text text-anchor="middle" x="685.42" y="-553" font-family="Helvetica,sans-Serif" font-size="10.00"> +contextInfo</text>
<text text-anchor="middle" x="685.42" y="-542" font-family="Helvetica,sans-Serif" font-size="10.00">+header</text>
<text text-anchor="middle" x="685.42" y="-531" font-family="Helvetica,sans-Serif" font-size="10.00">+payoutInfo</text>
</g>
<!-- Node13 -->
<g id="node13" class="node">
<title>Node13</title>
<g id="a_node13"><a xlink:href="structaltintegration_1_1VbkMerklePath.html" target="_top" xlink:title="Path in Merkle tree, which proves that subject exists in the tree.">
<polygon fill="white" stroke="black" points="747.42,-408.5 747.42,-509.5 890.42,-509.5 890.42,-408.5 747.42,-408.5"/>
<text text-anchor="middle" x="818.92" y="-497.5" font-family="Helvetica,sans-Serif" font-size="10.00">altintegration::VbkMerklePath</text>
<polyline fill="none" stroke="black" points="747.42,-490.5 890.42,-490.5 "/>
<text text-anchor="start" x="755.42" y="-478.5" font-family="Helvetica,sans-Serif" font-size="10.00">+ treeIndex</text>
<text text-anchor="start" x="755.42" y="-467.5" font-family="Helvetica,sans-Serif" font-size="10.00">+ index</text>
<polyline fill="none" stroke="black" points="747.42,-460.5 890.42,-460.5 "/>
<text text-anchor="start" x="755.42" y="-448.5" font-family="Helvetica,sans-Serif" font-size="10.00">+ toVbkEncoding()</text>
<text text-anchor="start" x="755.42" y="-437.5" font-family="Helvetica,sans-Serif" font-size="10.00">+ estimateSize()</text>
<text text-anchor="start" x="755.42" y="-426.5" font-family="Helvetica,sans-Serif" font-size="10.00">+ calculateMerkleRoot()</text>
<text text-anchor="start" x="755.42" y="-415.5" font-family="Helvetica,sans-Serif" font-size="10.00">+ equalLayerIndexes()</text>
</a>
</g>
</g>
<!-- Node13&#45;&gt;Node1 -->
<g id="edge16" class="edge">
<title>Node13&#45;&gt;Node1</title>
<path fill="none" stroke="#404040" d="M785.37,-408.38C777.14,-393.73 769.41,-377.26 764.92,-361 745.41,-290.33 745.04,-206.39 748.42,-146.59"/>
<polygon fill="none" stroke="#404040" points="748.42,-146.57 744.81,-140.33 749.17,-134.59 752.79,-140.83 748.42,-146.57"/>
<text text-anchor="middle" x="793.92" y="-269" font-family="Helvetica,sans-Serif" font-size="10.00"> +merklePath</text>
</g>
<!-- Node14 -->
<g id="node14" class="node">
<title>Node14</title>
<g id="a_node14"><a xlink:href="structaltintegration_1_1Blob.html" target="_top" xlink:title=" ">
<polygon fill="white" stroke="black" points="740.42,-579.5 740.42,-812.5 871.42,-812.5 871.42,-579.5 740.42,-579.5"/>
<text text-anchor="start" x="748.42" y="-800.5" font-family="Helvetica,sans-Serif" font-size="10.00">altintegration::Blob</text>
<text text-anchor="middle" x="805.92" y="-789.5" font-family="Helvetica,sans-Serif" font-size="10.00">&lt; SHA256_HASH_SIZE &gt;</text>
<polyline fill="none" stroke="black" points="740.42,-782.5 871.42,-782.5 "/>
<text text-anchor="start" x="748.42" y="-770.5" font-family="Helvetica,sans-Serif" font-size="10.00">+ data_</text>
<text text-anchor="start" x="748.42" y="-759.5" font-family="Helvetica,sans-Serif" font-size="10.00">+ this</text>
<polyline fill="none" stroke="black" points="740.42,-752.5 871.42,-752.5 "/>
<text text-anchor="start" x="748.42" y="-740.5" font-family="Helvetica,sans-Serif" font-size="10.00">+ Blob()</text>
<text text-anchor="start" x="748.42" y="-729.5" font-family="Helvetica,sans-Serif" font-size="10.00">+ Blob()</text>
<text text-anchor="start" x="748.42" y="-718.5" font-family="Helvetica,sans-Serif" font-size="10.00">+ Blob()</text>
<text text-anchor="start" x="748.42" y="-707.5" font-family="Helvetica,sans-Serif" font-size="10.00">+ Blob()</text>
<text text-anchor="start" x="748.42" y="-696.5" font-family="Helvetica,sans-Serif" font-size="10.00">+ Blob()</text>
<text text-anchor="start" x="748.42" y="-685.5" font-family="Helvetica,sans-Serif" font-size="10.00">+ operator std::vector</text>
<text text-anchor="start" x="748.42" y="-674.5" font-family="Helvetica,sans-Serif" font-size="10.00">&lt; uint8_t &gt;()</text>
<text text-anchor="start" x="748.42" y="-663.5" font-family="Helvetica,sans-Serif" font-size="10.00">+ fill()</text>
<text text-anchor="start" x="748.42" y="-652.5" font-family="Helvetica,sans-Serif" font-size="10.00">+ begin()</text>
<text text-anchor="start" x="748.42" y="-641.5" font-family="Helvetica,sans-Serif" font-size="10.00">+ begin()</text>
<text text-anchor="start" x="748.42" y="-630.5" font-family="Helvetica,sans-Serif" font-size="10.00">+ end()</text>
<text text-anchor="start" x="748.42" y="-619.5" font-family="Helvetica,sans-Serif" font-size="10.00">and 20 more...</text>
<text text-anchor="start" x="748.42" y="-608.5" font-family="Helvetica,sans-Serif" font-size="10.00">+ size()</text>
<text text-anchor="start" x="748.42" y="-597.5" font-family="Helvetica,sans-Serif" font-size="10.00">+ fromHex()</text>
<text text-anchor="start" x="748.42" y="-586.5" font-family="Helvetica,sans-Serif" font-size="10.00">+ assertFromHex()</text>
</a>
</g>
</g>
<!-- Node14&#45;&gt;Node13 -->
<g id="edge17" class="edge">
<title>Node14&#45;&gt;Node13</title>
<path fill="none" stroke="#404040" d="M812.32,-579.22C813.42,-559.36 814.53,-539.44 815.51,-521.71"/>
<polygon fill="none" stroke="#404040" points="815.52,-521.51 811.85,-515.3 816.18,-509.53 819.84,-515.74 815.52,-521.51"/>
<text text-anchor="middle" x="835.92" y="-542" font-family="Helvetica,sans-Serif" font-size="10.00"> +subject</text>
</g>
<!-- Node15 -->
<g id="node15" class="node">
<title>Node15</title>
<g id="a_node15"><a xlink:href="structaltintegration_1_1Blob.html" target="_top" xlink:title="Contiguous byte array of fixed size.">
<polygon fill="white" stroke="black" points="821.92,-860.5 821.92,-1082.5 941.92,-1082.5 941.92,-860.5 821.92,-860.5"/>
<text text-anchor="middle" x="881.92" y="-1070.5" font-family="Helvetica,sans-Serif" font-size="10.00">altintegration::Blob&lt; N &gt;</text>
<polyline fill="none" stroke="black" points="821.92,-1063.5 941.92,-1063.5 "/>
<text text-anchor="start" x="829.92" y="-1051.5" font-family="Helvetica,sans-Serif" font-size="10.00">+ data_</text>
<text text-anchor="start" x="829.92" y="-1040.5" font-family="Helvetica,sans-Serif" font-size="10.00">+ this</text>
<polyline fill="none" stroke="black" points="821.92,-1033.5 941.92,-1033.5 "/>
<text text-anchor="start" x="829.92" y="-1021.5" font-family="Helvetica,sans-Serif" font-size="10.00">+ Blob()</text>
<text text-anchor="start" x="829.92" y="-1010.5" font-family="Helvetica,sans-Serif" font-size="10.00">+ Blob()</text>
<text text-anchor="start" x="829.92" y="-999.5" font-family="Helvetica,sans-Serif" font-size="10.00">+ Blob()</text>
<text text-anchor="start" x="829.92" y="-988.5" font-family="Helvetica,sans-Serif" font-size="10.00">+ Blob()</text>
<text text-anchor="start" x="829.92" y="-977.5" font-family="Helvetica,sans-Serif" font-size="10.00">+ Blob()</text>
<text text-anchor="start" x="829.92" y="-966.5" font-family="Helvetica,sans-Serif" font-size="10.00">+ operator std::vector</text>
<text text-anchor="start" x="829.92" y="-955.5" font-family="Helvetica,sans-Serif" font-size="10.00">&lt; uint8_t &gt;()</text>
<text text-anchor="start" x="829.92" y="-944.5" font-family="Helvetica,sans-Serif" font-size="10.00">+ fill()</text>
<text text-anchor="start" x="829.92" y="-933.5" font-family="Helvetica,sans-Serif" font-size="10.00">+ begin()</text>
<text text-anchor="start" x="829.92" y="-922.5" font-family="Helvetica,sans-Serif" font-size="10.00">+ begin()</text>
<text text-anchor="start" x="829.92" y="-911.5" font-family="Helvetica,sans-Serif" font-size="10.00">+ end()</text>
<text text-anchor="start" x="829.92" y="-900.5" font-family="Helvetica,sans-Serif" font-size="10.00">and 20 more...</text>
<text text-anchor="start" x="829.92" y="-889.5" font-family="Helvetica,sans-Serif" font-size="10.00">+ size()</text>
<text text-anchor="start" x="829.92" y="-878.5" font-family="Helvetica,sans-Serif" font-size="10.00">+ fromHex()</text>
<text text-anchor="start" x="829.92" y="-867.5" font-family="Helvetica,sans-Serif" font-size="10.00">+ assertFromHex()</text>
</a>
</g>
</g>
<!-- Node15&#45;&gt;Node14 -->
<g id="edge18" class="edge">
<title>Node15&#45;&gt;Node14</title>
<path fill="none" stroke="orange" d="M817.71,-867.28C814.25,-858.93 811.25,-850.45 808.92,-842 806.31,-832.53 804.43,-822.58 803.11,-812.52"/>
<polygon fill="orange" stroke="orange" points="814.59,-868.89 821.8,-876.65 821.01,-866.09 814.59,-868.89"/>
<text text-anchor="middle" x="867.42" y="-834" font-family="Helvetica,sans-Serif" font-size="10.00"> &lt; SHA256_HASH_SIZE &gt;</text>
</g>
<!-- Node15&#45;&gt;Node16 -->
<g id="edge20" class="edge">
<title>Node15&#45;&gt;Node16</title>
<path fill="none" stroke="#404040" d="M924.77,-860.22C926.63,-854.09 928.36,-847.99 929.92,-842 938.45,-809.15 944.06,-771.21 947.48,-742.37"/>
<polygon fill="none" stroke="#404040" points="947.51,-742.14 944.21,-735.73 948.86,-730.22 952.16,-736.63 947.51,-742.14"/>
<text text-anchor="middle" x="956.42" y="-834" font-family="Helvetica,sans-Serif" font-size="10.00"> +elements</text>
</g>
<!-- Node16&#45;&gt;Node13 -->
<g id="edge19" class="edge">
<title>Node16&#45;&gt;Node13</title>
<path fill="none" stroke="#404040" d="M934.14,-661.83C915.88,-627.98 886.46,-574.02 859.92,-528 858.41,-525.39 856.87,-522.73 855.29,-520.04"/>
<polygon fill="none" stroke="#404040" points="855.25,-519.97 848.76,-516.83 849.15,-509.63 855.64,-512.77 855.25,-519.97"/>
<text text-anchor="middle" x="895.92" y="-542" font-family="Helvetica,sans-Serif" font-size="10.00"> +layers</text>
</g>
<!-- Node17 -->
<g id="node17" class="node">
<title>Node17</title>
<g id="a_node17"><a xlink:href="structaltintegration_1_1VbkBlock.html" target="_top" xlink:title="Veriblock block.">
<polygon fill="white" stroke="black" points="832.42,-182.5 832.42,-360.5 951.42,-360.5 951.42,-182.5 832.42,-182.5"/>
<text text-anchor="middle" x="891.92" y="-348.5" font-family="Helvetica,sans-Serif" font-size="10.00">altintegration::VbkBlock</text>
<polyline fill="none" stroke="black" points="832.42,-341.5 951.42,-341.5 "/>
<text text-anchor="middle" x="891.92" y="-329.5" font-family="Helvetica,sans-Serif" font-size="10.00"> </text>
<polyline fill="none" stroke="black" points="832.42,-322.5 951.42,-322.5 "/>
<text text-anchor="start" x="840.42" y="-310.5" font-family="Helvetica,sans-Serif" font-size="10.00">+ toPrettyString()</text>
<text text-anchor="start" x="840.42" y="-299.5" font-family="Helvetica,sans-Serif" font-size="10.00">+ toShortPrettyString()</text>
<text text-anchor="start" x="840.42" y="-288.5" font-family="Helvetica,sans-Serif" font-size="10.00">+ toRaw()</text>
<text text-anchor="start" x="840.42" y="-277.5" font-family="Helvetica,sans-Serif" font-size="10.00">+ toVbkEncoding()</text>
<text text-anchor="start" x="840.42" y="-266.5" font-family="Helvetica,sans-Serif" font-size="10.00">+ toRaw()</text>
<text text-anchor="start" x="840.42" y="-255.5" font-family="Helvetica,sans-Serif" font-size="10.00">+ toVbkEncoding()</text>
<text text-anchor="start" x="840.42" y="-244.5" font-family="Helvetica,sans-Serif" font-size="10.00">+ estimateSize()</text>
<text text-anchor="start" x="840.42" y="-233.5" font-family="Helvetica,sans-Serif" font-size="10.00">+ getBlockTime()</text>
<text text-anchor="start" x="840.42" y="-222.5" font-family="Helvetica,sans-Serif" font-size="10.00">+ calculateHash()</text>
<text text-anchor="start" x="840.42" y="-211.5" font-family="Helvetica,sans-Serif" font-size="10.00">+ getHash()</text>
<text text-anchor="start" x="840.42" y="-200.5" font-family="Helvetica,sans-Serif" font-size="10.00">and 22 more...</text>
<text text-anchor="start" x="840.42" y="-189.5" font-family="Helvetica,sans-Serif" font-size="10.00">+ name()</text>
</a>
</g>
</g>
<!-- Node17&#45;&gt;Node1 -->
<g id="edge22" class="edge">
<title>Node17&#45;&gt;Node1</title>
<path fill="none" stroke="#404040" d="M832.66,-182.49C824.22,-169.95 815.59,-157.13 807.32,-144.84"/>
<polygon fill="none" stroke="#404040" points="807.16,-144.6 800.49,-141.86 800.46,-134.65 807.13,-137.39 807.16,-144.6"/>
<text text-anchor="middle" x="852.92" y="-156" font-family="Helvetica,sans-Serif" font-size="10.00"> +blockOfProof</text>
</g>
</g>
</svg>
        <g id="navigator" transform="translate(0 0)" fill="#404254">
                <rect fill="#f2f5e9" fill-opacity="0.5" stroke="#606060" stroke-width=".5" x="0" y="0" width="60" height="60"/>
                <use id="zoomplus" xlink:href="#zoomPlus" x="17" y="9" onmousedown="handleZoom(evt,'in')"/>
                <use id="zoomminus" xlink:href="#zoomMin" x="42" y="9" onmousedown="handleZoom(evt,'out')"/>
                <use id="reset" xlink:href="#resetDef" x="30" y="36" onmousedown="handleReset()"/>
                <g id="arrowUp" xlink:href="#dirArrow" transform="translate(30 24)" onmousedown="handlePan(0,-1)">
                  <use xlink:href="#rim" fill="#404040">
                        <set attributeName="fill" to="#808080" begin="arrowUp.mouseover" end="arrowUp.mouseout"/>
                  </use>
                  <path fill="none" stroke="white" stroke-width="1.5" d="M0,-3.0v7 M-2.5,-0.5L0,-3.0L2.5,-0.5"/>
                </g>
                <g id="arrowRight" xlink:href="#dirArrow" transform="rotate(90) translate(36 -43)" onmousedown="handlePan(1,0)">
                  <use xlink:href="#rim" fill="#404040">
                        <set attributeName="fill" to="#808080" begin="arrowRight.mouseover" end="arrowRight.mouseout"/>
                  </use>
                  <path fill="none" stroke="white" stroke-width="1.5" d="M0,-3.0v7 M-2.5,-0.5L0,-3.0L2.5,-0.5"/>
                </g>
                <g id="arrowDown" xlink:href="#dirArrow" transform="rotate(180) translate(-30 -48)" onmousedown="handlePan(0,1)">
                  <use xlink:href="#rim" fill="#404040">
                        <set attributeName="fill" to="#808080" begin="arrowDown.mouseover" end="arrowDown.mouseout"/>
                  </use>
                  <path fill="none" stroke="white" stroke-width="1.5" d="M0,-3.0v7 M-2.5,-0.5L0,-3.0L2.5,-0.5"/>
                </g>
                <g id="arrowLeft" xlink:href="#dirArrow" transform="rotate(270) translate(-36 17)" onmousedown="handlePan(-1,0)">
                  <use xlink:href="#rim" fill="#404040">
                        <set attributeName="fill" to="#808080" begin="arrowLeft.mouseover" end="arrowLeft.mouseout"/>
                  </use>
                  <path fill="none" stroke="white" stroke-width="1.5" d="M0,-3.0v7 M-2.5,-0.5L0,-3.0L2.5,-0.5"/>
                </g>
        </g>
        <svg viewBox="0 0 15 15" width="100%" height="30px" preserveAspectRatio="xMaxYMin meet">
         <g id="arrow_out" transform="scale(0.3 0.3)">
          <a xlink:href="structaltintegration_1_1ATV__coll__graph_org.svg" target="_base">
           <rect id="button" ry="5" rx="5" y="6" x="6" height="38" width="38"
                fill="#f2f5e9" fill-opacity="0.5" stroke="#606060" stroke-width="1.0"/>
           <path id="arrow"
             d="M 11.500037,31.436501 C 11.940474,20.09759 22.043105,11.32322 32.158766,21.979434 L 37.068811,17.246167 C 37.068811,17.246167 37.088388,32 37.088388,32 L 22.160133,31.978069 C 22.160133,31.978069 26.997745,27.140456 26.997745,27.140456 C 18.528582,18.264221 13.291696,25.230495 11.500037,31.436501 z"
             style="fill:#404040;"/>
          </a>
         </g>
        </svg>
</svg>
