<?xml version="1.0" encoding="UTF-8" standalone="no"?>
<!DOCTYPE svg PUBLIC "-//W3C//DTD SVG 1.1//EN"
 "http://www.w3.org/Graphics/SVG/1.1/DTD/svg11.dtd">
<!-- Generated by graphviz version 3.0.0 (20220413.0106)
 -->
<!-- Title: altintegration::btc::BlockTxnMsg Pages: 1 -->
<!--zoomable 1473 -->
<svg id="main" version="1.1" xmlns="http://www.w3.org/2000/svg" xmlns:xlink="http://www.w3.org/1999/xlink" xml:space="preserve" onload="init(evt)">
<style type="text/css"><![CDATA[
.edge:hover path { stroke: red; }
.edge:hover polygon { stroke: red; fill: red; }
]]></style>
<script type="text/javascript"><![CDATA[
var edges = document.getElementsByTagName('g');
if (edges && edges.length) {
  for (var i=0;i<edges.length;i++) {
    if (edges[i].id.substr(0,4)=='edge') {
      edges[i].setAttribute('class','edge');
    }
  }
}
]]></script>
        <defs>
                <circle id="rim" cx="0" cy="0" r="7"/>
                <circle id="rim2" cx="0" cy="0" r="3.5"/>
                <g id="zoomPlus">
                        <use xlink:href="#rim" fill="#404040">
                                <set attributeName="fill" to="#808080" begin="zoomplus.mouseover" end="zoomplus.mouseout"/>
                        </use>
                        <path d="M-4,0h8M0,-4v8" fill="none" stroke="white" stroke-width="1.5" pointer-events="none"/>
                </g>
                <g id="zoomMin">
                        <use xlink:href="#rim" fill="#404040">
                                <set attributeName="fill" to="#808080" begin="zoomminus.mouseover" end="zoomminus.mouseout"/>
                        </use>
                        <path d="M-4,0h8" fill="none" stroke="white" stroke-width="1.5" pointer-events="none"/>
                </g>
                <g id="dirArrow">
                        <path fill="none" stroke="white" stroke-width="1.5" d="M0,-3.0v7 M-2.5,-0.5L0,-3.0L2.5,-0.5"/>
                </g>
               <g id="resetDef">
                       <use xlink:href="#rim2" fill="#404040">
                               <set attributeName="fill" to="#808080" begin="reset.mouseover" end="reset.mouseout"/>
                       </use>
               </g>
        </defs>

<script type="text/javascript">
var viewWidth = 860;
var viewHeight = 1473;
var sectionId = 'dynsection-0';
</script>
<script xlink:href="svgpan.js"/>
<svg id="graph" class="graph">
<g id="viewport">
<title>altintegration::btc::BlockTxnMsg</title>
<polygon fill="white" stroke="transparent" points="-4,4 -4,-1469 856,-1469 856,4 -4,4"/>
<!-- Node1 -->
<g id="node1" class="node">
<title>Node1</title>
<g id="a_node1"><a xlink:title=" ">
<polygon fill="#bfbfbf" stroke="black" points="433.5,-0.5 433.5,-68.5 588.5,-68.5 588.5,-0.5 433.5,-0.5"/>
<text text-anchor="start" x="441.5" y="-56.5" font-family="Helvetica,sans-Serif" font-size="10.00">altintegration::btc</text>
<text text-anchor="middle" x="511" y="-45.5" font-family="Helvetica,sans-Serif" font-size="10.00">::BlockTxnMsg</text>
<polyline fill="none" stroke="black" points="433.5,-38.5 588.5,-38.5 "/>
<text text-anchor="start" x="441.5" y="-26.5" font-family="Helvetica,sans-Serif" font-size="10.00">+ ADD_SERIALIZE_METHODS</text>
<polyline fill="none" stroke="black" points="433.5,-19.5 588.5,-19.5 "/>
<text text-anchor="start" x="441.5" y="-7.5" font-family="Helvetica,sans-Serif" font-size="10.00">+ SerializationOp()</text>
</a>
</g>
</g>
<!-- Node2 -->
<g id="node2" class="node">
<title>Node2</title>
<g id="a_node2"><a xlink:href="structaltintegration_1_1btc_1_1BlockTransactions.html" target="_top" xlink:title=" ">
<polygon fill="white" stroke="#bfbfbf" points="433.5,-116.5 433.5,-184.5 588.5,-184.5 588.5,-116.5 433.5,-116.5"/>
<text text-anchor="start" x="441.5" y="-172.5" font-family="Helvetica,sans-Serif" font-size="10.00">altintegration::btc</text>
<text text-anchor="middle" x="511" y="-161.5" font-family="Helvetica,sans-Serif" font-size="10.00">::BlockTransactions</text>
<polyline fill="none" stroke="#bfbfbf" points="433.5,-154.5 588.5,-154.5 "/>
<text text-anchor="start" x="441.5" y="-142.5" font-family="Helvetica,sans-Serif" font-size="10.00">+ ADD_SERIALIZE_METHODS</text>
<polyline fill="none" stroke="#bfbfbf" points="433.5,-135.5 588.5,-135.5 "/>
<text text-anchor="start" x="441.5" y="-123.5" font-family="Helvetica,sans-Serif" font-size="10.00">+ SerializationOp()</text>
</a>
</g>
</g>
<!-- Node2&#45;&gt;Node1 -->
<g id="edge1" class="edge">
<title>Node2&#45;&gt;Node1</title>
<path fill="none" stroke="#404040" d="M511,-116.22C511,-105.1 511,-92.51 511,-80.64"/>
<polygon fill="none" stroke="#404040" points="511,-80.62 507,-74.62 511,-68.62 515,-74.62 511,-80.62"/>
<text text-anchor="middle" x="525" y="-90" font-family="Helvetica,sans-Serif" font-size="10.00"> +resp</text>
</g>
<!-- Node3 -->
<g id="node3" class="node">
<title>Node3</title>
<g id="a_node3"><a xlink:href="structaltintegration_1_1Blob.html" target="_top" xlink:title=" ">
<polygon fill="white" stroke="black" points="669.5,-878.5 669.5,-1100.5 800.5,-1100.5 800.5,-878.5 669.5,-878.5"/>
<text text-anchor="start" x="677.5" y="-1088.5" font-family="Helvetica,sans-Serif" font-size="10.00">altintegration::Blob</text>
<text text-anchor="middle" x="735" y="-1077.5" font-family="Helvetica,sans-Serif" font-size="10.00">&lt; SHA256_HASH_SIZE &gt;</text>
<polyline fill="none" stroke="black" points="669.5,-1070.5 800.5,-1070.5 "/>
<text text-anchor="start" x="677.5" y="-1058.5" font-family="Helvetica,sans-Serif" font-size="10.00">+ data_</text>
<text text-anchor="start" x="677.5" y="-1047.5" font-family="Helvetica,sans-Serif" font-size="10.00">+ this</text>
<polyline fill="none" stroke="black" points="669.5,-1040.5 800.5,-1040.5 "/>
<text text-anchor="start" x="677.5" y="-1028.5" font-family="Helvetica,sans-Serif" font-size="10.00">+ Blob()</text>
<text text-anchor="start" x="677.5" y="-1017.5" font-family="Helvetica,sans-Serif" font-size="10.00">+ Blob()</text>
<text text-anchor="start" x="677.5" y="-1006.5" font-family="Helvetica,sans-Serif" font-size="10.00">+ Blob()</text>
<text text-anchor="start" x="677.5" y="-995.5" font-family="Helvetica,sans-Serif" font-size="10.00">+ Blob()</text>
<text text-anchor="start" x="677.5" y="-984.5" font-family="Helvetica,sans-Serif" font-size="10.00">+ Blob()</text>
<text text-anchor="start" x="677.5" y="-973.5" font-family="Helvetica,sans-Serif" font-size="10.00">+ operator=()</text>
<text text-anchor="start" x="677.5" y="-962.5" font-family="Helvetica,sans-Serif" font-size="10.00">+ operator=()</text>
<text text-anchor="start" x="677.5" y="-951.5" font-family="Helvetica,sans-Serif" font-size="10.00">+ reverse()</text>
<text text-anchor="start" x="677.5" y="-940.5" font-family="Helvetica,sans-Serif" font-size="10.00">+ operator~()</text>
<text text-anchor="start" x="677.5" y="-929.5" font-family="Helvetica,sans-Serif" font-size="10.00">+ asVector()</text>
<text text-anchor="start" x="677.5" y="-918.5" font-family="Helvetica,sans-Serif" font-size="10.00">+ asString()</text>
<text text-anchor="start" x="677.5" y="-907.5" font-family="Helvetica,sans-Serif" font-size="10.00">+ operator[]()</text>
<text text-anchor="start" x="677.5" y="-896.5" font-family="Helvetica,sans-Serif" font-size="10.00">+ operator[]()</text>
<text text-anchor="start" x="677.5" y="-885.5" font-family="Helvetica,sans-Serif" font-size="10.00">+ compareTo()</text>
</a>
</g>
</g>
<!-- Node3&#45;&gt;Node2 -->
<g id="edge2" class="edge">
<title>Node3&#45;&gt;Node2</title>
<path fill="none" stroke="#404040" d="M754.69,-878.47C758.85,-847.09 762,-812.79 762,-781 762,-781 762,-781 762,-265.5 762,-192.55 673.01,-166.05 601,-156.56"/>
<polygon fill="none" stroke="#404040" points="600.61,-156.51 594.18,-159.76 588.7,-155.07 595.13,-151.82 600.61,-156.51"/>
<text text-anchor="middle" x="788.5" y="-529" font-family="Helvetica,sans-Serif" font-size="10.00"> +blockhash</text>
</g>
<!-- Node9 -->
<g id="node9" class="node">
<title>Node9</title>
<g id="a_node9"><a xlink:href="structaltintegration_1_1btc_1_1OutPoint.html" target="_top" xlink:title="An outpoint &#45; a combination of a transaction hash and an index n into its vout.">
<polygon fill="white" stroke="black" points="578.5,-740.5 578.5,-819.5 733.5,-819.5 733.5,-740.5 578.5,-740.5"/>
<text text-anchor="start" x="586.5" y="-807.5" font-family="Helvetica,sans-Serif" font-size="10.00">altintegration::btc</text>
<text text-anchor="middle" x="656" y="-796.5" font-family="Helvetica,sans-Serif" font-size="10.00">::OutPoint</text>
<polyline fill="none" stroke="black" points="578.5,-789.5 733.5,-789.5 "/>
<text text-anchor="start" x="586.5" y="-777.5" font-family="Helvetica,sans-Serif" font-size="10.00">+ n</text>
<text text-anchor="start" x="586.5" y="-766.5" font-family="Helvetica,sans-Serif" font-size="10.00">+ ADD_SERIALIZE_METHODS</text>
<polyline fill="none" stroke="black" points="578.5,-759.5 733.5,-759.5 "/>
<text text-anchor="start" x="586.5" y="-747.5" font-family="Helvetica,sans-Serif" font-size="10.00">+ SerializationOp()</text>
</a>
</g>
</g>
<!-- Node3&#45;&gt;Node9 -->
<g id="edge9" class="edge">
<title>Node3&#45;&gt;Node9</title>
<path fill="none" stroke="#404040" d="M693.07,-878.37C686.78,-861.85 680.57,-845.55 675.09,-831.14"/>
<polygon fill="none" stroke="#404040" points="674.94,-830.74 669.07,-826.56 670.67,-819.53 676.54,-823.71 674.94,-830.74"/>
<text text-anchor="middle" x="699" y="-846.5" font-family="Helvetica,sans-Serif" font-size="10.00"> +hash</text>
</g>
<!-- Node4 -->
<g id="node4" class="node">
<title>Node4</title>
<g id="a_node4"><a xlink:href="structaltintegration_1_1Blob.html" target="_top" xlink:title="Contiguous byte array of fixed size.">
<polygon fill="white" stroke="black" points="675,-1148.5 675,-1359.5 795,-1359.5 795,-1148.5 675,-1148.5"/>
<text text-anchor="middle" x="735" y="-1347.5" font-family="Helvetica,sans-Serif" font-size="10.00">altintegration::Blob&lt; N &gt;</text>
<polyline fill="none" stroke="black" points="675,-1340.5 795,-1340.5 "/>
<text text-anchor="start" x="683" y="-1328.5" font-family="Helvetica,sans-Serif" font-size="10.00">+ data_</text>
<text text-anchor="start" x="683" y="-1317.5" font-family="Helvetica,sans-Serif" font-size="10.00">+ this</text>
<polyline fill="none" stroke="black" points="675,-1310.5 795,-1310.5 "/>
<text text-anchor="start" x="683" y="-1298.5" font-family="Helvetica,sans-Serif" font-size="10.00">+ Blob()</text>
<text text-anchor="start" x="683" y="-1287.5" font-family="Helvetica,sans-Serif" font-size="10.00">+ Blob()</text>
<text text-anchor="start" x="683" y="-1276.5" font-family="Helvetica,sans-Serif" font-size="10.00">+ Blob()</text>
<text text-anchor="start" x="683" y="-1265.5" font-family="Helvetica,sans-Serif" font-size="10.00">+ Blob()</text>
<text text-anchor="start" x="683" y="-1254.5" font-family="Helvetica,sans-Serif" font-size="10.00">+ Blob()</text>
<text text-anchor="start" x="683" y="-1243.5" font-family="Helvetica,sans-Serif" font-size="10.00">+ operator=()</text>
<text text-anchor="start" x="683" y="-1232.5" font-family="Helvetica,sans-Serif" font-size="10.00">+ operator=()</text>
<text text-anchor="start" x="683" y="-1221.5" font-family="Helvetica,sans-Serif" font-size="10.00">+ reverse()</text>
<text text-anchor="start" x="683" y="-1210.5" font-family="Helvetica,sans-Serif" font-size="10.00">+ operator~()</text>
<text text-anchor="start" x="683" y="-1199.5" font-family="Helvetica,sans-Serif" font-size="10.00">+ asVector()</text>
<text text-anchor="start" x="683" y="-1188.5" font-family="Helvetica,sans-Serif" font-size="10.00">+ asString()</text>
<text text-anchor="start" x="683" y="-1177.5" font-family="Helvetica,sans-Serif" font-size="10.00">+ operator[]()</text>
<text text-anchor="start" x="683" y="-1166.5" font-family="Helvetica,sans-Serif" font-size="10.00">+ operator[]()</text>
<text text-anchor="start" x="683" y="-1155.5" font-family="Helvetica,sans-Serif" font-size="10.00">+ compareTo()</text>
</a>
</g>
</g>
<!-- Node4&#45;&gt;Node3 -->
<g id="edge3" class="edge">
<title>Node4&#45;&gt;Node3</title>
<path fill="none" stroke="orange" d="M735,-1138.48C735,-1125.93 735,-1113.17 735,-1100.67"/>
<polygon fill="orange" stroke="orange" points="731.5,-1138.5 735,-1148.5 738.5,-1138.5 731.5,-1138.5"/>
<text text-anchor="middle" x="793.5" y="-1122" font-family="Helvetica,sans-Serif" font-size="10.00"> &lt; SHA256_HASH_SIZE &gt;</text>
</g>
<!-- Node5 -->
<g id="node5" class="node">
<title>Node5</title>
<g id="a_node5"><a xlink:title=" ">
<polygon fill="white" stroke="black" points="185.5,-232.5 185.5,-300.5 310.5,-300.5 310.5,-232.5 185.5,-232.5"/>
<text text-anchor="start" x="193.5" y="-288.5" font-family="Helvetica,sans-Serif" font-size="10.00">std::vector&lt; altintegration</text>
<text text-anchor="middle" x="248" y="-277.5" font-family="Helvetica,sans-Serif" font-size="10.00">::btc::Transaction &gt;</text>
<polyline fill="none" stroke="black" points="185.5,-270.5 310.5,-270.5 "/>
<text text-anchor="middle" x="248" y="-258.5" font-family="Helvetica,sans-Serif" font-size="10.00"> </text>
<polyline fill="none" stroke="black" points="185.5,-251.5 310.5,-251.5 "/>
<text text-anchor="middle" x="248" y="-239.5" font-family="Helvetica,sans-Serif" font-size="10.00"> </text>
</a>
</g>
</g>
<!-- Node5&#45;&gt;Node2 -->
<g id="edge4" class="edge">
<title>Node5&#45;&gt;Node2</title>
<path fill="none" stroke="#404040" d="M310.66,-238.34C344.39,-223.72 386.55,-205.45 423.47,-189.44"/>
<polygon fill="none" stroke="#404040" points="423.74,-189.33 427.65,-183.27 434.75,-184.55 430.83,-190.61 423.74,-189.33"/>
<text text-anchor="middle" x="399" y="-206" font-family="Helvetica,sans-Serif" font-size="10.00"> +txn</text>
</g>
<!-- Node6 -->
<g id="node6" class="node">
<title>Node6</title>
<g id="a_node6"><a xlink:href="structaltintegration_1_1btc_1_1Transaction.html" target="_top" xlink:title="The basic transaction that is broadcasted on the network and contained in blocks.">
<polygon fill="white" stroke="black" points="203,-348.5 203,-449.5 293,-449.5 293,-348.5 203,-348.5"/>
<text text-anchor="start" x="211" y="-437.5" font-family="Helvetica,sans-Serif" font-size="10.00">altintegration::btc</text>
<text text-anchor="middle" x="248" y="-426.5" font-family="Helvetica,sans-Serif" font-size="10.00">::Transaction</text>
<polyline fill="none" stroke="black" points="203,-419.5 293,-419.5 "/>
<text text-anchor="start" x="211" y="-407.5" font-family="Helvetica,sans-Serif" font-size="10.00">+ nVersion</text>
<text text-anchor="start" x="211" y="-396.5" font-family="Helvetica,sans-Serif" font-size="10.00">+ nLockTime</text>
<polyline fill="none" stroke="black" points="203,-389.5 293,-389.5 "/>
<text text-anchor="start" x="211" y="-377.5" font-family="Helvetica,sans-Serif" font-size="10.00">+ Serialize()</text>
<text text-anchor="start" x="211" y="-366.5" font-family="Helvetica,sans-Serif" font-size="10.00">+ Unserialize()</text>
<text text-anchor="start" x="211" y="-355.5" font-family="Helvetica,sans-Serif" font-size="10.00">+ HasWitness()</text>
</a>
</g>
</g>
<!-- Node6&#45;&gt;Node5 -->
<g id="edge5" class="edge">
<title>Node6&#45;&gt;Node5</title>
<path fill="none" stroke="#404040" d="M248,-348.29C248,-336.55 248,-324.09 248,-312.57"/>
<polygon fill="none" stroke="#404040" points="248,-312.51 244,-306.51 248,-300.51 252,-306.51 248,-312.51"/>
<text text-anchor="middle" x="272.5" y="-322" font-family="Helvetica,sans-Serif" font-size="10.00"> +elements</text>
</g>
<!-- Node7 -->
<g id="node7" class="node">
<title>Node7</title>
<g id="a_node7"><a xlink:title=" ">
<polygon fill="white" stroke="black" points="306.5,-497.5 306.5,-565.5 431.5,-565.5 431.5,-497.5 306.5,-497.5"/>
<text text-anchor="start" x="314.5" y="-553.5" font-family="Helvetica,sans-Serif" font-size="10.00">std::vector&lt; altintegration</text>
<text text-anchor="middle" x="369" y="-542.5" font-family="Helvetica,sans-Serif" font-size="10.00">::btc::TxIn &gt;</text>
<polyline fill="none" stroke="black" points="306.5,-535.5 431.5,-535.5 "/>
<text text-anchor="middle" x="369" y="-523.5" font-family="Helvetica,sans-Serif" font-size="10.00"> </text>
<polyline fill="none" stroke="black" points="306.5,-516.5 431.5,-516.5 "/>
<text text-anchor="middle" x="369" y="-504.5" font-family="Helvetica,sans-Serif" font-size="10.00"> </text>
</a>
</g>
</g>
<!-- Node7&#45;&gt;Node6 -->
<g id="edge6" class="edge">
<title>Node7&#45;&gt;Node6</title>
<path fill="none" stroke="#404040" d="M338.15,-497.23C327.12,-485.33 314.33,-471.54 301.92,-458.15"/>
<polygon fill="none" stroke="#404040" points="301.57,-457.78 294.56,-456.1 293.41,-448.98 300.42,-450.66 301.57,-457.78"/>
<text text-anchor="middle" x="331" y="-471" font-family="Helvetica,sans-Serif" font-size="10.00"> +vin</text>
</g>
<!-- Node8 -->
<g id="node8" class="node">
<title>Node8</title>
<g id="a_node8"><a xlink:href="structaltintegration_1_1btc_1_1TxIn.html" target="_top" xlink:title="An input of a transaction.">
<polygon fill="white" stroke="black" points="291.5,-613.5 291.5,-692.5 446.5,-692.5 446.5,-613.5 291.5,-613.5"/>
<text text-anchor="start" x="299.5" y="-680.5" font-family="Helvetica,sans-Serif" font-size="10.00">altintegration::btc</text>
<text text-anchor="middle" x="369" y="-669.5" font-family="Helvetica,sans-Serif" font-size="10.00">::TxIn</text>
<polyline fill="none" stroke="black" points="291.5,-662.5 446.5,-662.5 "/>
<text text-anchor="start" x="299.5" y="-650.5" font-family="Helvetica,sans-Serif" font-size="10.00">+ nSequence</text>
<text text-anchor="start" x="299.5" y="-639.5" font-family="Helvetica,sans-Serif" font-size="10.00">+ ADD_SERIALIZE_METHODS</text>
<polyline fill="none" stroke="black" points="291.5,-632.5 446.5,-632.5 "/>
<text text-anchor="start" x="299.5" y="-620.5" font-family="Helvetica,sans-Serif" font-size="10.00">+ SerializationOp()</text>
</a>
</g>
</g>
<!-- Node8&#45;&gt;Node7 -->
<g id="edge7" class="edge">
<title>Node8&#45;&gt;Node7</title>
<path fill="none" stroke="#404040" d="M369,-613.2C369,-601.99 369,-589.65 369,-578.07"/>
<polygon fill="none" stroke="#404040" points="369,-577.89 365,-571.89 369,-565.89 373,-571.89 369,-577.89"/>
<text text-anchor="middle" x="393.5" y="-587" font-family="Helvetica,sans-Serif" font-size="10.00"> +elements</text>
</g>
<!-- Node9&#45;&gt;Node8 -->
<g id="edge8" class="edge">
<title>Node9&#45;&gt;Node8</title>
<path fill="none" stroke="#404040" d="M578.33,-745.17C541.16,-728.98 496.47,-709.52 457.94,-692.74"/>
<polygon fill="none" stroke="#404040" points="457.73,-692.65 450.63,-693.92 446.73,-687.85 453.83,-686.58 457.73,-692.65"/>
<text text-anchor="middle" x="542.5" y="-714" font-family="Helvetica,sans-Serif" font-size="10.00"> +prevout</text>
</g>
<!-- Node10 -->
<g id="node10" class="node">
<title>Node10</title>
<g id="a_node10"><a xlink:title=" ">
<polygon fill="white" stroke="black" points="204.5,-961 204.5,-1018 311.5,-1018 311.5,-961 204.5,-961"/>
<text text-anchor="middle" x="258" y="-1006" font-family="Helvetica,sans-Serif" font-size="10.00">std::vector&lt; uint8_t &gt;</text>
<polyline fill="none" stroke="black" points="204.5,-999 311.5,-999 "/>
<text text-anchor="start" x="212.5" y="-987" font-family="Helvetica,sans-Serif" font-size="10.00">+ elements</text>
<polyline fill="none" stroke="black" points="204.5,-980 311.5,-980 "/>
<text text-anchor="middle" x="258" y="-968" font-family="Helvetica,sans-Serif" font-size="10.00"> </text>
</a>
</g>
</g>
<!-- Node10&#45;&gt;Node8 -->
<g id="edge10" class="edge">
<title>Node10&#45;&gt;Node8</title>
<path fill="none" stroke="#404040" d="M256.22,-960.65C253.06,-904.14 248.43,-778.13 267,-740 274.22,-725.17 285.32,-711.94 297.58,-700.56"/>
<polygon fill="none" stroke="#404040" points="297.64,-700.5 299.52,-693.54 306.67,-692.6 304.79,-699.56 297.64,-700.5"/>
<text text-anchor="middle" x="290.5" y="-777.5" font-family="Helvetica,sans-Serif" font-size="10.00"> +scriptSig</text>
</g>
<!-- Node13 -->
<g id="node13" class="node">
<title>Node13</title>
<g id="a_node13"><a xlink:title=" ">
<polygon fill="white" stroke="black" points="323.5,-746 323.5,-814 438.5,-814 438.5,-746 323.5,-746"/>
<text text-anchor="start" x="331.5" y="-802" font-family="Helvetica,sans-Serif" font-size="10.00">std::vector&lt; std::vector</text>
<text text-anchor="middle" x="381" y="-791" font-family="Helvetica,sans-Serif" font-size="10.00">&lt; uint8_t &gt; &gt;</text>
<polyline fill="none" stroke="black" points="323.5,-784 438.5,-784 "/>
<text text-anchor="middle" x="381" y="-772" font-family="Helvetica,sans-Serif" font-size="10.00"> </text>
<polyline fill="none" stroke="black" points="323.5,-765 438.5,-765 "/>
<text text-anchor="middle" x="381" y="-753" font-family="Helvetica,sans-Serif" font-size="10.00"> </text>
</a>
</g>
</g>
<!-- Node10&#45;&gt;Node13 -->
<g id="edge14" class="edge">
<title>Node10&#45;&gt;Node13</title>
<path fill="none" stroke="#404040" d="M259.37,-960.8C262.19,-928.61 270.79,-875.17 297,-838 301.71,-831.32 307.47,-825.19 313.74,-819.63"/>
<polygon fill="none" stroke="#404040" points="313.93,-819.48 316.06,-812.59 323.23,-811.9 321.11,-818.79 313.93,-819.48"/>
<text text-anchor="middle" x="321.5" y="-846.5" font-family="Helvetica,sans-Serif" font-size="10.00"> +elements</text>
</g>
<!-- Node15 -->
<g id="node15" class="node">
<title>Node15</title>
<g id="a_node15"><a xlink:href="structaltintegration_1_1btc_1_1TxOut.html" target="_top" xlink:title="An output of a transaction.">
<polygon fill="white" stroke="black" points="66.5,-740.5 66.5,-819.5 221.5,-819.5 221.5,-740.5 66.5,-740.5"/>
<text text-anchor="start" x="74.5" y="-807.5" font-family="Helvetica,sans-Serif" font-size="10.00">altintegration::btc</text>
<text text-anchor="middle" x="144" y="-796.5" font-family="Helvetica,sans-Serif" font-size="10.00">::TxOut</text>
<polyline fill="none" stroke="black" points="66.5,-789.5 221.5,-789.5 "/>
<text text-anchor="start" x="74.5" y="-777.5" font-family="Helvetica,sans-Serif" font-size="10.00">+ nValue</text>
<text text-anchor="start" x="74.5" y="-766.5" font-family="Helvetica,sans-Serif" font-size="10.00">+ ADD_SERIALIZE_METHODS</text>
<polyline fill="none" stroke="black" points="66.5,-759.5 221.5,-759.5 "/>
<text text-anchor="start" x="74.5" y="-747.5" font-family="Helvetica,sans-Serif" font-size="10.00">+ SerializationOp()</text>
</a>
</g>
</g>
<!-- Node10&#45;&gt;Node15 -->
<g id="edge19" class="edge">
<title>Node10&#45;&gt;Node15</title>
<path fill="none" stroke="#404040" d="M238.59,-960.72C221.23,-935.22 195.72,-896.04 177,-860 172.22,-850.8 167.6,-840.76 163.4,-831.01"/>
<polygon fill="none" stroke="#404040" points="163.33,-830.83 157.32,-826.84 158.69,-819.76 164.7,-823.75 163.33,-830.83"/>
<text text-anchor="middle" x="210.5" y="-846.5" font-family="Helvetica,sans-Serif" font-size="10.00"> +scriptPubKey</text>
</g>
<!-- Node11 -->
<g id="node11" class="node">
<title>Node11</title>
<g id="a_node11"><a xlink:title=" ">
<polygon fill="white" stroke="black" points="216,-1225.5 216,-1282.5 300,-1282.5 300,-1225.5 216,-1225.5"/>
<text text-anchor="middle" x="258" y="-1270.5" font-family="Helvetica,sans-Serif" font-size="10.00">std::vector&lt; T &gt;</text>
<polyline fill="none" stroke="black" points="216,-1263.5 300,-1263.5 "/>
<text text-anchor="middle" x="258" y="-1251.5" font-family="Helvetica,sans-Serif" font-size="10.00"> </text>
<polyline fill="none" stroke="black" points="216,-1244.5 300,-1244.5 "/>
<text text-anchor="middle" x="258" y="-1232.5" font-family="Helvetica,sans-Serif" font-size="10.00"> </text>
</a>
</g>
</g>
<!-- Node11&#45;&gt;Node5 -->
<g id="edge21" class="edge">
<title>Node11&#45;&gt;Node5</title>
<path fill="none" stroke="orange" d="M206.64,-1229.47C131.39,-1191.04 0,-1107.24 0,-990.5 0,-990.5 0,-990.5 0,-398 0,-314.32 111.95,-284.17 185.42,-273.4"/>
<polygon fill="orange" stroke="orange" points="205.47,-1232.79 215.97,-1234.15 208.6,-1226.54 205.47,-1232.79"/>
<text text-anchor="start" x="0" y="-656" font-family="Helvetica,sans-Serif" font-size="10.00"> &lt; altintegration::btc</text>
<text text-anchor="middle" x="42.5" y="-645" font-family="Helvetica,sans-Serif" font-size="10.00">::Transaction &gt;</text>
</g>
<!-- Node11&#45;&gt;Node7 -->
<g id="edge16" class="edge">
<title>Node11&#45;&gt;Node7</title>
<path fill="none" stroke="orange" d="M309.23,-1228.93C356.35,-1203.93 424.06,-1160.15 459,-1101 484.24,-1058.27 475,-1040.12 475,-990.5 475,-990.5 475,-990.5 475,-652 475,-616.5 448.5,-586.63 422,-565.63"/>
<polygon fill="orange" stroke="orange" points="307.35,-1225.97 300.09,-1233.68 310.58,-1232.18 307.35,-1225.97"/>
<text text-anchor="start" x="475" y="-783" font-family="Helvetica,sans-Serif" font-size="10.00"> &lt; altintegration::btc</text>
<text text-anchor="middle" x="517.5" y="-772" font-family="Helvetica,sans-Serif" font-size="10.00">::TxIn &gt;</text>
</g>
<!-- Node11&#45;&gt;Node10 -->
<g id="edge11" class="edge">
<title>Node11&#45;&gt;Node10</title>
<path fill="none" stroke="orange" d="M258,-1215.32C258,-1161.9 258,-1065.4 258,-1018.12"/>
<polygon fill="orange" stroke="orange" points="254.5,-1215.4 258,-1225.4 261.5,-1215.4 254.5,-1215.4"/>
<text text-anchor="middle" x="282.5" y="-1122" font-family="Helvetica,sans-Serif" font-size="10.00"> &lt; uint8_t &gt;</text>
</g>
<!-- Node11&#45;&gt;Node13 -->
<g id="edge15" class="edge">
<title>Node11&#45;&gt;Node13</title>
<path fill="none" stroke="orange" d="M275.02,-1216.31C285.96,-1192.07 300.12,-1159.46 311,-1130 352.22,-1018.41 371.03,-877.31 377.83,-814.17"/>
<polygon fill="orange" stroke="orange" points="271.8,-1214.94 270.85,-1225.49 278.17,-1217.84 271.8,-1214.94"/>
<text text-anchor="start" x="370" y="-992.5" font-family="Helvetica,sans-Serif" font-size="10.00"> &lt; std::vector&lt; uint8</text>
<text text-anchor="middle" x="412.5" y="-981.5" font-family="Helvetica,sans-Serif" font-size="10.00">_t &gt; &gt;</text>
</g>
<!-- Node14 -->
<g id="node14" class="node">
<title>Node14</title>
<g id="a_node14"><a xlink:title=" ">
<polygon fill="white" stroke="black" points="103.5,-619 103.5,-687 228.5,-687 228.5,-619 103.5,-619"/>
<text text-anchor="start" x="111.5" y="-675" font-family="Helvetica,sans-Serif" font-size="10.00">std::vector&lt; altintegration</text>
<text text-anchor="middle" x="166" y="-664" font-family="Helvetica,sans-Serif" font-size="10.00">::btc::TxOut &gt;</text>
<polyline fill="none" stroke="black" points="103.5,-657 228.5,-657 "/>
<text text-anchor="middle" x="166" y="-645" font-family="Helvetica,sans-Serif" font-size="10.00"> </text>
<polyline fill="none" stroke="black" points="103.5,-638 228.5,-638 "/>
<text text-anchor="middle" x="166" y="-626" font-family="Helvetica,sans-Serif" font-size="10.00"> </text>
</a>
</g>
</g>
<!-- Node11&#45;&gt;Node14 -->
<g id="edge20" class="edge">
<title>Node11&#45;&gt;Node14</title>
<path fill="none" stroke="orange" d="M234.24,-1216.42C188.93,-1144.22 91.61,-976.77 57,-820 49.33,-785.28 41.49,-771.99 57,-740 67.41,-718.53 86.07,-700.8 105.04,-687.13"/>
<polygon fill="orange" stroke="orange" points="231.46,-1218.57 239.76,-1225.15 237.38,-1214.83 231.46,-1218.57"/>
<text text-anchor="start" x="67" y="-852" font-family="Helvetica,sans-Serif" font-size="10.00"> &lt; altintegration::btc</text>
<text text-anchor="middle" x="109.5" y="-841" font-family="Helvetica,sans-Serif" font-size="10.00">::TxOut &gt;</text>
</g>
<!-- Node12 -->
<g id="node12" class="node">
<title>Node12</title>
<g id="a_node12"><a xlink:title=" ">
<polygon fill="white" stroke="#bfbfbf" points="243.5,-1407.5 243.5,-1464.5 272.5,-1464.5 272.5,-1407.5 243.5,-1407.5"/>
<text text-anchor="middle" x="258" y="-1452.5" font-family="Helvetica,sans-Serif" font-size="10.00">T</text>
<polyline fill="none" stroke="#bfbfbf" points="243.5,-1445.5 272.5,-1445.5 "/>
<text text-anchor="middle" x="258" y="-1433.5" font-family="Helvetica,sans-Serif" font-size="10.00"> </text>
<polyline fill="none" stroke="#bfbfbf" points="243.5,-1426.5 272.5,-1426.5 "/>
<text text-anchor="middle" x="258" y="-1414.5" font-family="Helvetica,sans-Serif" font-size="10.00"> </text>
</a>
</g>
</g>
<!-- Node12&#45;&gt;Node11 -->
<g id="edge12" class="edge">
<title>Node12&#45;&gt;Node11</title>
<path fill="none" stroke="#404040" d="M258,-1407.27C258,-1377.28 258,-1329.18 258,-1295.08"/>
<polygon fill="none" stroke="#404040" points="258,-1294.76 254,-1288.76 258,-1282.76 262,-1288.76 258,-1294.76"/>
<text text-anchor="middle" x="282.5" y="-1381" font-family="Helvetica,sans-Serif" font-size="10.00"> +elements</text>
</g>
<!-- Node13&#45;&gt;Node8 -->
<g id="edge13" class="edge">
<title>Node13&#45;&gt;Node8</title>
<path fill="none" stroke="#404040" d="M377.82,-745.83C376.61,-733.32 375.22,-718.77 373.9,-705"/>
<polygon fill="none" stroke="#404040" points="373.86,-704.59 369.3,-699 372.71,-692.65 377.27,-698.24 373.86,-704.59"/>
<text text-anchor="middle" x="410" y="-714" font-family="Helvetica,sans-Serif" font-size="10.00"> +scriptWitness</text>
</g>
<!-- Node14&#45;&gt;Node6 -->
<g id="edge17" class="edge">
<title>Node14&#45;&gt;Node6</title>
<path fill="none" stroke="#404040" d="M176.8,-618.8C189.81,-578.83 211.91,-510.92 228.04,-461.33"/>
<polygon fill="none" stroke="#404040" points="228.09,-461.2 226.14,-454.25 231.8,-449.78 233.75,-456.73 228.09,-461.2"/>
<text text-anchor="middle" x="230" y="-529" font-family="Helvetica,sans-Serif" font-size="10.00"> +vout</text>
</g>
<!-- Node15&#45;&gt;Node14 -->
<g id="edge18" class="edge">
<title>Node15&#45;&gt;Node14</title>
<path fill="none" stroke="#404040" d="M150.78,-740.48C153.08,-727.4 155.67,-712.68 158.05,-699.14"/>
<polygon fill="none" stroke="#404040" points="158.09,-698.94 155.19,-692.34 160.17,-687.12 163.07,-693.72 158.09,-698.94"/>
<text text-anchor="middle" x="180.5" y="-714" font-family="Helvetica,sans-Serif" font-size="10.00"> +elements</text>
</g>
</g>
</svg>
        <g id="navigator" transform="translate(0 0)" fill="#404254">
                <rect fill="#f2f5e9" fill-opacity="0.5" stroke="#606060" stroke-width=".5" x="0" y="0" width="60" height="60"/>
                <use id="zoomplus" xlink:href="#zoomPlus" x="17" y="9" onmousedown="handleZoom(evt,'in')"/>
                <use id="zoomminus" xlink:href="#zoomMin" x="42" y="9" onmousedown="handleZoom(evt,'out')"/>
                <use id="reset" xlink:href="#resetDef" x="30" y="36" onmousedown="handleReset()"/>
                <g id="arrowUp" xlink:href="#dirArrow" transform="translate(30 24)" onmousedown="handlePan(0,-1)">
                  <use xlink:href="#rim" fill="#404040">
                        <set attributeName="fill" to="#808080" begin="arrowUp.mouseover" end="arrowUp.mouseout"/>
                  </use>
                  <path fill="none" stroke="white" stroke-width="1.5" d="M0,-3.0v7 M-2.5,-0.5L0,-3.0L2.5,-0.5"/>
                </g>
                <g id="arrowRight" xlink:href="#dirArrow" transform="rotate(90) translate(36 -43)" onmousedown="handlePan(1,0)">
                  <use xlink:href="#rim" fill="#404040">
                        <set attributeName="fill" to="#808080" begin="arrowRight.mouseover" end="arrowRight.mouseout"/>
                  </use>
                  <path fill="none" stroke="white" stroke-width="1.5" d="M0,-3.0v7 M-2.5,-0.5L0,-3.0L2.5,-0.5"/>
                </g>
                <g id="arrowDown" xlink:href="#dirArrow" transform="rotate(180) translate(-30 -48)" onmousedown="handlePan(0,1)">
                  <use xlink:href="#rim" fill="#404040">
                        <set attributeName="fill" to="#808080" begin="arrowDown.mouseover" end="arrowDown.mouseout"/>
                  </use>
                  <path fill="none" stroke="white" stroke-width="1.5" d="M0,-3.0v7 M-2.5,-0.5L0,-3.0L2.5,-0.5"/>
                </g>
                <g id="arrowLeft" xlink:href="#dirArrow" transform="rotate(270) translate(-36 17)" onmousedown="handlePan(-1,0)">
                  <use xlink:href="#rim" fill="#404040">
                        <set attributeName="fill" to="#808080" begin="arrowLeft.mouseover" end="arrowLeft.mouseout"/>
                  </use>
                  <path fill="none" stroke="white" stroke-width="1.5" d="M0,-3.0v7 M-2.5,-0.5L0,-3.0L2.5,-0.5"/>
                </g>
        </g>
        <svg viewBox="0 0 15 15" width="100%" height="30px" preserveAspectRatio="xMaxYMin meet">
         <g id="arrow_out" transform="scale(0.3 0.3)">
          <a xlink:href="structaltintegration_1_1btc_1_1BlockTxnMsg__coll__graph_org.svg" target="_base">
           <rect id="button" ry="5" rx="5" y="6" x="6" height="38" width="38"
                fill="#f2f5e9" fill-opacity="0.5" stroke="#606060" stroke-width="1.0"/>
           <path id="arrow"
             d="M 11.500037,31.436501 C 11.940474,20.09759 22.043105,11.32322 32.158766,21.979434 L 37.068811,17.246167 C 37.068811,17.246167 37.088388,32 37.088388,32 L 22.160133,31.978069 C 22.160133,31.978069 26.997745,27.140456 26.997745,27.140456 C 18.528582,18.264221 13.291696,25.230495 11.500037,31.436501 z"
             style="fill:#404040;"/>
          </a>
         </g>
        </svg>
</svg>
