<?xml version="1.0" encoding="UTF-8" standalone="no"?>
<!DOCTYPE svg PUBLIC "-//W3C//DTD SVG 1.1//EN"
 "http://www.w3.org/Graphics/SVG/1.1/DTD/svg11.dtd">
<!-- Generated by graphviz version 2.44.0 ()
 -->
<!-- Title: altintegration::AltBlock Pages: 1 -->
<svg width="133pt" height="524pt"
 viewBox="0.00 0.00 132.50 524.00" xmlns="http://www.w3.org/2000/svg" xmlns:xlink="http://www.w3.org/1999/xlink">
<g id="graph0" class="graph" transform="scale(1 1) rotate(0) translate(4 520)">
<title>altintegration::AltBlock</title>
<polygon fill="white" stroke="transparent" points="-4,4 -4,-520 128.5,-520 128.5,4 -4,4"/>
<!-- Node1 -->
<g id="node1" class="node">
<title>Node1</title>
<g id="a_node1"><a xlink:title="Represents a view on Altchain block &#45; i.e.">
<polygon fill="#bfbfbf" stroke="black" points="0,-0.5 0,-189.5 113,-189.5 113,-0.5 0,-0.5"/>
<text text-anchor="middle" x="56.5" y="-177.5" font-family="Helvetica,sans-Serif" font-size="10.00">altintegration::AltBlock</text>
<polyline fill="none" stroke="black" points="0,-170.5 113,-170.5 "/>
<text text-anchor="start" x="8" y="-158.5" font-family="Helvetica,sans-Serif" font-size="10.00">+ timestamp</text>
<text text-anchor="start" x="8" y="-147.5" font-family="Helvetica,sans-Serif" font-size="10.00">+ height</text>
<text text-anchor="start" x="8" y="-136.5" font-family="Helvetica,sans-Serif" font-size="10.00">+ reversedHash</text>
<polyline fill="none" stroke="black" points="0,-129.5 113,-129.5 "/>
<text text-anchor="start" x="8" y="-117.5" font-family="Helvetica,sans-Serif" font-size="10.00">+ toRaw()</text>
<text text-anchor="start" x="8" y="-106.5" font-family="Helvetica,sans-Serif" font-size="10.00">+ toVbkEncoding()</text>
<text text-anchor="start" x="8" y="-95.5" font-family="Helvetica,sans-Serif" font-size="10.00">+ toRaw()</text>
<text text-anchor="start" x="8" y="-84.5" font-family="Helvetica,sans-Serif" font-size="10.00">+ estimateSize()</text>
<text text-anchor="start" x="8" y="-73.5" font-family="Helvetica,sans-Serif" font-size="10.00">+ getBlockTime()</text>
<text text-anchor="start" x="8" y="-62.5" font-family="Helvetica,sans-Serif" font-size="10.00">+ getHash()</text>
<text text-anchor="start" x="8" y="-51.5" font-family="Helvetica,sans-Serif" font-size="10.00">+ getDifficulty()</text>
<text text-anchor="start" x="8" y="-40.5" font-family="Helvetica,sans-Serif" font-size="10.00">+ toPrettyString()</text>
<text text-anchor="start" x="8" y="-29.5" font-family="Helvetica,sans-Serif" font-size="10.00">+ getPreviousBlock()</text>
<text text-anchor="start" x="8" y="-18.5" font-family="Helvetica,sans-Serif" font-size="10.00">+ getTimestamp()</text>
<text text-anchor="start" x="8" y="-7.5" font-family="Helvetica,sans-Serif" font-size="10.00">+ getHeight()</text>
</a>
</g>
</g>
<!-- Node2 -->
<g id="node2" class="node">
<title>Node2</title>
<g id="a_node2"><a xlink:title=" ">
<polygon fill="white" stroke="#bfbfbf" points="3,-248.5 3,-305.5 110,-305.5 110,-248.5 3,-248.5"/>
<text text-anchor="middle" x="56.5" y="-293.5" font-family="Helvetica,sans-Serif" font-size="10.00">std::vector&lt; uint8_t &gt;</text>
<polyline fill="none" stroke="#bfbfbf" points="3,-286.5 110,-286.5 "/>
<text text-anchor="start" x="11" y="-274.5" font-family="Helvetica,sans-Serif" font-size="10.00">+ elements</text>
<polyline fill="none" stroke="#bfbfbf" points="3,-267.5 110,-267.5 "/>
<text text-anchor="middle" x="56.5" y="-255.5" font-family="Helvetica,sans-Serif" font-size="10.00"> </text>
</a>
</g>
</g>
<!-- Node2&#45;&gt;Node1 -->
<g id="edge1" class="edge">
<title>Node2&#45;&gt;Node1</title>
<path fill="none" stroke="#404040" d="M56.5,-248.27C56.5,-235.41 56.5,-219.23 56.5,-202.26"/>
<polygon fill="none" stroke="#404040" points="56.5,-201.79 52.5,-195.79 56.5,-189.79 60.5,-195.79 56.5,-201.79"/>
<text text-anchor="middle" x="90.5" y="-222" font-family="Helvetica,sans-Serif" font-size="10.00"> +hash</text>
<text text-anchor="middle" x="90.5" y="-211" font-family="Helvetica,sans-Serif" font-size="10.00">+previousBlock</text>
</g>
<!-- Node3 -->
<g id="node3" class="node">
<title>Node3</title>
<g id="a_node3"><a xlink:title=" ">
<polygon fill="white" stroke="#bfbfbf" points="14.5,-353.5 14.5,-410.5 98.5,-410.5 98.5,-353.5 14.5,-353.5"/>
<text text-anchor="middle" x="56.5" y="-398.5" font-family="Helvetica,sans-Serif" font-size="10.00">std::vector&lt; T &gt;</text>
<polyline fill="none" stroke="#bfbfbf" points="14.5,-391.5 98.5,-391.5 "/>
<text text-anchor="middle" x="56.5" y="-379.5" font-family="Helvetica,sans-Serif" font-size="10.00"> </text>
<polyline fill="none" stroke="#bfbfbf" points="14.5,-372.5 98.5,-372.5 "/>
<text text-anchor="middle" x="56.5" y="-360.5" font-family="Helvetica,sans-Serif" font-size="10.00"> </text>
</a>
</g>
</g>
<!-- Node3&#45;&gt;Node2 -->
<g id="edge2" class="edge">
<title>Node3&#45;&gt;Node2</title>
<path fill="none" stroke="orange" d="M56.5,-343.29C56.5,-330.84 56.5,-317.23 56.5,-305.68"/>
<polygon fill="orange" stroke="orange" points="53,-343.4 56.5,-353.4 60,-343.4 53,-343.4"/>
<text text-anchor="middle" x="81" y="-327" font-family="Helvetica,sans-Serif" font-size="10.00"> &lt; uint8_t &gt;</text>
</g>
<!-- Node4 -->
<g id="node4" class="node">
<title>Node4</title>
<g id="a_node4"><a xlink:title=" ">
<polygon fill="white" stroke="#bfbfbf" points="42,-458.5 42,-515.5 71,-515.5 71,-458.5 42,-458.5"/>
<text text-anchor="middle" x="56.5" y="-503.5" font-family="Helvetica,sans-Serif" font-size="10.00">T</text>
<polyline fill="none" stroke="#bfbfbf" points="42,-496.5 71,-496.5 "/>
<text text-anchor="middle" x="56.5" y="-484.5" font-family="Helvetica,sans-Serif" font-size="10.00"> </text>
<polyline fill="none" stroke="#bfbfbf" points="42,-477.5 71,-477.5 "/>
<text text-anchor="middle" x="56.5" y="-465.5" font-family="Helvetica,sans-Serif" font-size="10.00"> </text>
</a>
</g>
</g>
<!-- Node4&#45;&gt;Node3 -->
<g id="edge3" class="edge">
<title>Node4&#45;&gt;Node3</title>
<path fill="none" stroke="#404040" d="M56.5,-458.4C56.5,-447.55 56.5,-434.87 56.5,-423.05"/>
<polygon fill="none" stroke="#404040" points="56.5,-422.68 52.5,-416.68 56.5,-410.68 60.5,-416.68 56.5,-422.68"/>
<text text-anchor="middle" x="81" y="-432" font-family="Helvetica,sans-Serif" font-size="10.00"> +elements</text>
</g>
</g>
</svg>
