<?xml version="1.0" encoding="UTF-8" standalone="no"?>
<!DOCTYPE svg PUBLIC "-//W3C//DTD SVG 1.1//EN"
 "http://www.w3.org/Graphics/SVG/1.1/DTD/svg11.dtd">
<!-- Generated by graphviz version 2.50.0 (20220203.2022)
 -->
<!-- Title: altintegration::VbkPopTx Pages: 1 -->
<!--zoomable 1146 -->
<svg id="main" version="1.1" xmlns="http://www.w3.org/2000/svg" xmlns:xlink="http://www.w3.org/1999/xlink" xml:space="preserve" onload="init(evt)">
<style type="text/css"><![CDATA[
.edge:hover path { stroke: red; }
.edge:hover polygon { stroke: red; fill: red; }
]]></style>
<script type="text/javascript"><![CDATA[
var edges = document.getElementsByTagName('g');
if (edges && edges.length) {
  for (var i=0;i<edges.length;i++) {
    if (edges[i].id.substr(0,4)=='edge') {
      edges[i].setAttribute('class','edge');
    }
  }
}
]]></script>
        <defs>
                <circle id="rim" cx="0" cy="0" r="7"/>
                <circle id="rim2" cx="0" cy="0" r="3.5"/>
                <g id="zoomPlus">
                        <use xlink:href="#rim" fill="#404040">
                                <set attributeName="fill" to="#808080" begin="zoomplus.mouseover" end="zoomplus.mouseout"/>
                        </use>
                        <path d="M-4,0h8M0,-4v8" fill="none" stroke="white" stroke-width="1.5" pointer-events="none"/>
                </g>
                <g id="zoomMin">
                        <use xlink:href="#rim" fill="#404040">
                                <set attributeName="fill" to="#808080" begin="zoomminus.mouseover" end="zoomminus.mouseout"/>
                        </use>
                        <path d="M-4,0h8" fill="none" stroke="white" stroke-width="1.5" pointer-events="none"/>
                </g>
                <g id="dirArrow">
                        <path fill="none" stroke="white" stroke-width="1.5" d="M0,-3.0v7 M-2.5,-0.5L0,-3.0L2.5,-0.5"/>
                </g>
               <g id="resetDef">
                       <use xlink:href="#rim2" fill="#404040">
                               <set attributeName="fill" to="#808080" begin="reset.mouseover" end="reset.mouseout"/>
                       </use>
               </g>
        </defs>

<script type="text/javascript">
var viewWidth = 1049;
var viewHeight = 1146;
var sectionId = 'dynsection-0';
</script>
<script xlink:href="svgpan.js"/>
<svg id="graph" class="graph">
<g id="viewport">
<title>altintegration::VbkPopTx</title>
<polygon fill="white" stroke="transparent" points="-4,4 -4,-1142 1045,-1142 1045,4 -4,4"/>
<!-- Node1 -->
<g id="node1" class="node">
<title>Node1</title>
<g id="a_node1"><a xlink:title="Veriblock POP transaction, which endorses VBK block in BTC blockchain.">
<polygon fill="#bfbfbf" stroke="black" points="464,-0.5 464,-90.5 586,-90.5 586,-0.5 464,-0.5"/>
<text text-anchor="middle" x="525" y="-78.5" font-family="Helvetica,sans-Serif" font-size="10.00">altintegration::VbkPopTx</text>
<polyline fill="none" stroke="black" points="464,-71.5 586,-71.5 "/>
<text text-anchor="middle" x="525" y="-59.5" font-family="Helvetica,sans-Serif" font-size="10.00"> </text>
<polyline fill="none" stroke="black" points="464,-52.5 586,-52.5 "/>
<text text-anchor="start" x="472" y="-40.5" font-family="Helvetica,sans-Serif" font-size="10.00">+ toVbkEncoding()</text>
<text text-anchor="start" x="472" y="-29.5" font-family="Helvetica,sans-Serif" font-size="10.00">+ estimateSize()</text>
<text text-anchor="start" x="472" y="-18.5" font-family="Helvetica,sans-Serif" font-size="10.00">+ getHash()</text>
<text text-anchor="start" x="472" y="-7.5" font-family="Helvetica,sans-Serif" font-size="10.00">+ toPrettyString()</text>
</a>
</g>
</g>
<!-- Node2 -->
<g id="node2" class="node">
<title>Node2</title>
<g id="a_node2"><a xlink:href="namespacealtintegration.html#structaltintegration_1_1NetworkBytePair" target="_top" xlink:title="Stores pair of TxType and VBK network byte.">
<polygon fill="white" stroke="black" points="1,-204.5 1,-261.5 151,-261.5 151,-204.5 1,-204.5"/>
<text text-anchor="middle" x="76" y="-249.5" font-family="Helvetica,sans-Serif" font-size="10.00">altintegration::NetworkBytePair</text>
<polyline fill="none" stroke="black" points="1,-242.5 151,-242.5 "/>
<text text-anchor="start" x="9" y="-230.5" font-family="Helvetica,sans-Serif" font-size="10.00">+ typeId</text>
<polyline fill="none" stroke="black" points="1,-223.5 151,-223.5 "/>
<text text-anchor="middle" x="76" y="-211.5" font-family="Helvetica,sans-Serif" font-size="10.00"> </text>
</a>
</g>
</g>
<!-- Node2&#45;&gt;Node1 -->
<g id="edge1" class="edge">
<title>Node2&#45;&gt;Node1</title>
<path fill="none" stroke="#404040" d="M94.71,-204.12C110.03,-183.24 133.45,-155.39 160,-138 249.48,-79.38 373.82,-58.32 451.82,-50.75"/>
<polygon fill="none" stroke="#404040" points="451.97,-50.73 457.59,-46.21 463.92,-49.64 458.31,-54.17 451.97,-50.73"/>
<text text-anchor="middle" x="242.5" y="-112" font-family="Helvetica,sans-Serif" font-size="10.00"> +networkOrType</text>
</g>
<!-- Node3 -->
<g id="node3" class="node">
<title>Node3</title>
<g id="a_node3"><a xlink:href="structaltintegration_1_1VbkNetworkType.html" target="_top" xlink:title="works as optional&lt;uint8_t&gt;">
<polygon fill="white" stroke="black" points="0,-436 0,-537 152,-537 152,-436 0,-436"/>
<text text-anchor="middle" x="76" y="-525" font-family="Helvetica,sans-Serif" font-size="10.00">altintegration::VbkNetworkType</text>
<polyline fill="none" stroke="black" points="0,-518 152,-518 "/>
<text text-anchor="start" x="8" y="-506" font-family="Helvetica,sans-Serif" font-size="10.00">+ hasValue</text>
<text text-anchor="start" x="8" y="-495" font-family="Helvetica,sans-Serif" font-size="10.00">+ value</text>
<polyline fill="none" stroke="black" points="0,-488 152,-488 "/>
<text text-anchor="start" x="8" y="-476" font-family="Helvetica,sans-Serif" font-size="10.00">+ operator bool()</text>
<text text-anchor="start" x="8" y="-465" font-family="Helvetica,sans-Serif" font-size="10.00">+ operator==()</text>
<text text-anchor="start" x="8" y="-454" font-family="Helvetica,sans-Serif" font-size="10.00">+ toPrettyString()</text>
<text text-anchor="start" x="8" y="-443" font-family="Helvetica,sans-Serif" font-size="10.00">+ putJson()</text>
</a>
</g>
</g>
<!-- Node3&#45;&gt;Node2 -->
<g id="edge2" class="edge">
<title>Node3&#45;&gt;Node2</title>
<path fill="none" stroke="#404040" d="M76,-435.81C76,-388.39 76,-317.84 76,-273.95"/>
<polygon fill="none" stroke="#404040" points="76,-273.78 72,-267.78 76,-261.78 80,-267.78 76,-273.78"/>
<text text-anchor="middle" x="108" y="-349" font-family="Helvetica,sans-Serif" font-size="10.00"> +networkType</text>
</g>
<!-- Node4 -->
<g id="node4" class="node">
<title>Node4</title>
<g id="a_node4"><a xlink:href="structaltintegration_1_1Address.html" target="_top" xlink:title="Represents address on VBK chain.">
<polygon fill="white" stroke="black" points="169.5,-138.5 169.5,-327.5 306.5,-327.5 306.5,-138.5 169.5,-138.5"/>
<text text-anchor="middle" x="238" y="-315.5" font-family="Helvetica,sans-Serif" font-size="10.00">altintegration::Address</text>
<polyline fill="none" stroke="black" points="169.5,-308.5 306.5,-308.5 "/>
<text text-anchor="middle" x="238" y="-296.5" font-family="Helvetica,sans-Serif" font-size="10.00"> </text>
<polyline fill="none" stroke="black" points="169.5,-289.5 306.5,-289.5 "/>
<text text-anchor="start" x="177.5" y="-277.5" font-family="Helvetica,sans-Serif" font-size="10.00">+ Address()</text>
<text text-anchor="start" x="177.5" y="-266.5" font-family="Helvetica,sans-Serif" font-size="10.00">+ operator==()</text>
<text text-anchor="start" x="177.5" y="-255.5" font-family="Helvetica,sans-Serif" font-size="10.00">+ operator!=()</text>
<text text-anchor="start" x="177.5" y="-244.5" font-family="Helvetica,sans-Serif" font-size="10.00">+ operator==()</text>
<text text-anchor="start" x="177.5" y="-233.5" font-family="Helvetica,sans-Serif" font-size="10.00">+ getType()</text>
<text text-anchor="start" x="177.5" y="-222.5" font-family="Helvetica,sans-Serif" font-size="10.00">+ getPopBytes()</text>
<text text-anchor="start" x="177.5" y="-211.5" font-family="Helvetica,sans-Serif" font-size="10.00">+ isDerivedFromPublicKey()</text>
<text text-anchor="start" x="177.5" y="-200.5" font-family="Helvetica,sans-Serif" font-size="10.00">+ fromString()</text>
<text text-anchor="start" x="177.5" y="-189.5" font-family="Helvetica,sans-Serif" font-size="10.00">+ toString()</text>
<text text-anchor="start" x="177.5" y="-178.5" font-family="Helvetica,sans-Serif" font-size="10.00">+ toVbkEncoding()</text>
<text text-anchor="start" x="177.5" y="-167.5" font-family="Helvetica,sans-Serif" font-size="10.00">+ estimateSize()</text>
<text text-anchor="start" x="177.5" y="-156.5" font-family="Helvetica,sans-Serif" font-size="10.00">+ fromPublicKey()</text>
<text text-anchor="start" x="177.5" y="-145.5" font-family="Helvetica,sans-Serif" font-size="10.00">+ assertFromString()</text>
</a>
</g>
</g>
<!-- Node4&#45;&gt;Node1 -->
<g id="edge3" class="edge">
<title>Node4&#45;&gt;Node1</title>
<path fill="none" stroke="#404040" d="M305.39,-138.43C316.07,-127.49 327.69,-117.29 340,-109 373.6,-86.38 416.14,-71.25 451.96,-61.56"/>
<polygon fill="none" stroke="#404040" points="452.21,-61.5 457.01,-56.12 463.82,-58.48 459.02,-63.86 452.21,-61.5"/>
<text text-anchor="middle" x="361.5" y="-112" font-family="Helvetica,sans-Serif" font-size="10.00"> +address</text>
</g>
<!-- Node5 -->
<g id="node5" class="node">
<title>Node5</title>
<g id="a_node5"><a xlink:href="structaltintegration_1_1VbkBlock.html" target="_top" xlink:title="Veriblock block.">
<polygon fill="white" stroke="black" points="324.5,-144 324.5,-322 443.5,-322 443.5,-144 324.5,-144"/>
<text text-anchor="middle" x="384" y="-310" font-family="Helvetica,sans-Serif" font-size="10.00">altintegration::VbkBlock</text>
<polyline fill="none" stroke="black" points="324.5,-303 443.5,-303 "/>
<text text-anchor="middle" x="384" y="-291" font-family="Helvetica,sans-Serif" font-size="10.00"> </text>
<polyline fill="none" stroke="black" points="324.5,-284 443.5,-284 "/>
<text text-anchor="start" x="332.5" y="-272" font-family="Helvetica,sans-Serif" font-size="10.00">+ toPrettyString()</text>
<text text-anchor="start" x="332.5" y="-261" font-family="Helvetica,sans-Serif" font-size="10.00">+ toShortPrettyString()</text>
<text text-anchor="start" x="332.5" y="-250" font-family="Helvetica,sans-Serif" font-size="10.00">+ toRaw()</text>
<text text-anchor="start" x="332.5" y="-239" font-family="Helvetica,sans-Serif" font-size="10.00">+ toVbkEncoding()</text>
<text text-anchor="start" x="332.5" y="-228" font-family="Helvetica,sans-Serif" font-size="10.00">+ toRaw()</text>
<text text-anchor="start" x="332.5" y="-217" font-family="Helvetica,sans-Serif" font-size="10.00">+ toVbkEncoding()</text>
<text text-anchor="start" x="332.5" y="-206" font-family="Helvetica,sans-Serif" font-size="10.00">+ estimateSize()</text>
<text text-anchor="start" x="332.5" y="-195" font-family="Helvetica,sans-Serif" font-size="10.00">+ getBlockTime()</text>
<text text-anchor="start" x="332.5" y="-184" font-family="Helvetica,sans-Serif" font-size="10.00">+ calculateHash()</text>
<text text-anchor="start" x="332.5" y="-173" font-family="Helvetica,sans-Serif" font-size="10.00">+ getHash()</text>
<text text-anchor="start" x="332.5" y="-162" font-family="Helvetica,sans-Serif" font-size="10.00">and 22 more...</text>
<text text-anchor="start" x="332.5" y="-151" font-family="Helvetica,sans-Serif" font-size="10.00">+ name()</text>
</a>
</g>
</g>
<!-- Node5&#45;&gt;Node1 -->
<g id="edge4" class="edge">
<title>Node5&#45;&gt;Node1</title>
<path fill="none" stroke="#404040" d="M377.54,-143.83C379.8,-131.4 383.98,-119.36 391,-109 405.42,-87.73 429.05,-73.53 452.49,-64.13"/>
<polygon fill="none" stroke="#404040" points="452.69,-64.06 456.93,-58.23 463.94,-59.9 459.7,-65.73 452.69,-64.06"/>
<text text-anchor="middle" x="428.5" y="-112" font-family="Helvetica,sans-Serif" font-size="10.00"> +publishedBlock</text>
</g>
<!-- Node6 -->
<g id="node6" class="node">
<title>Node6</title>
<g id="a_node6"><a xlink:href="structaltintegration_1_1BtcTx.html" target="_top" xlink:title="Bitcoin transaction representation.">
<polygon fill="white" stroke="black" points="939,-171.5 939,-294.5 1041,-294.5 1041,-171.5 939,-171.5"/>
<text text-anchor="middle" x="990" y="-282.5" font-family="Helvetica,sans-Serif" font-size="10.00">altintegration::BtcTx</text>
<polyline fill="none" stroke="black" points="939,-275.5 1041,-275.5 "/>
<text text-anchor="middle" x="990" y="-263.5" font-family="Helvetica,sans-Serif" font-size="10.00"> </text>
<polyline fill="none" stroke="black" points="939,-256.5 1041,-256.5 "/>
<text text-anchor="start" x="947" y="-244.5" font-family="Helvetica,sans-Serif" font-size="10.00">+ BtcTx()</text>
<text text-anchor="start" x="947" y="-233.5" font-family="Helvetica,sans-Serif" font-size="10.00">+ BtcTx()</text>
<text text-anchor="start" x="947" y="-222.5" font-family="Helvetica,sans-Serif" font-size="10.00">+ BtcTx()</text>
<text text-anchor="start" x="947" y="-211.5" font-family="Helvetica,sans-Serif" font-size="10.00">+ toVbkEncoding()</text>
<text text-anchor="start" x="947" y="-200.5" font-family="Helvetica,sans-Serif" font-size="10.00">+ toRaw()</text>
<text text-anchor="start" x="947" y="-189.5" font-family="Helvetica,sans-Serif" font-size="10.00">+ estimateSize()</text>
<text text-anchor="start" x="947" y="-178.5" font-family="Helvetica,sans-Serif" font-size="10.00">+ getHash()</text>
</a>
</g>
</g>
<!-- Node6&#45;&gt;Node1 -->
<g id="edge5" class="edge">
<title>Node6&#45;&gt;Node1</title>
<path fill="none" stroke="#404040" d="M955.26,-171.19C937.51,-146.63 913.41,-121.23 884,-109 790.07,-69.95 672.5,-55.3 598.05,-49.8"/>
<polygon fill="none" stroke="#404040" points="598,-49.8 591.73,-53.37 586.02,-48.96 592.29,-45.39 598,-49.8"/>
<text text-anchor="middle" x="947" y="-112" font-family="Helvetica,sans-Serif" font-size="10.00"> +bitcoinTransaction</text>
</g>
<!-- Node7 -->
<g id="node7" class="node">
<title>Node7</title>
<g id="a_node7"><a xlink:title=" ">
<polygon fill="white" stroke="black" points="908.5,-458 908.5,-515 1015.5,-515 1015.5,-458 908.5,-458"/>
<text text-anchor="middle" x="962" y="-503" font-family="Helvetica,sans-Serif" font-size="10.00">std::vector&lt; uint8_t &gt;</text>
<polyline fill="none" stroke="black" points="908.5,-496 1015.5,-496 "/>
<text text-anchor="start" x="916.5" y="-484" font-family="Helvetica,sans-Serif" font-size="10.00">+ elements</text>
<polyline fill="none" stroke="black" points="908.5,-477 1015.5,-477 "/>
<text text-anchor="middle" x="962" y="-465" font-family="Helvetica,sans-Serif" font-size="10.00"> </text>
</a>
</g>
</g>
<!-- Node7&#45;&gt;Node1 -->
<g id="edge23" class="edge">
<title>Node7&#45;&gt;Node1</title>
<path fill="none" stroke="#404040" d="M944.24,-457.9C925.35,-427.31 895.89,-375.96 879,-328 850.42,-246.86 895.54,-205.34 842,-138 811.72,-99.91 682.01,-72.08 598.19,-57.66"/>
<polygon fill="none" stroke="#404040" points="598,-57.63 591.42,-60.58 586.17,-55.64 592.75,-52.69 598,-57.63"/>
<text text-anchor="middle" x="904.5" y="-236" font-family="Helvetica,sans-Serif" font-size="10.00"> +publicKey</text>
<text text-anchor="middle" x="904.5" y="-225" font-family="Helvetica,sans-Serif" font-size="10.00">+signature</text>
</g>
<!-- Node7&#45;&gt;Node6 -->
<g id="edge6" class="edge">
<title>Node7&#45;&gt;Node6</title>
<path fill="none" stroke="#404040" d="M965.1,-457.62C969.12,-421.53 976.28,-357.28 981.89,-306.88"/>
<polygon fill="none" stroke="#404040" points="981.91,-306.65 978.6,-300.24 983.24,-294.72 986.55,-301.13 981.91,-306.65"/>
<text text-anchor="middle" x="984" y="-349" font-family="Helvetica,sans-Serif" font-size="10.00"> +tx</text>
</g>
<!-- Node8 -->
<g id="node8" class="node">
<title>Node8</title>
<g id="a_node8"><a xlink:title=" ">
<polygon fill="white" stroke="black" points="729,-739 729,-796 813,-796 813,-739 729,-739"/>
<text text-anchor="middle" x="771" y="-784" font-family="Helvetica,sans-Serif" font-size="10.00">std::vector&lt; T &gt;</text>
<polyline fill="none" stroke="black" points="729,-777 813,-777 "/>
<text text-anchor="middle" x="771" y="-765" font-family="Helvetica,sans-Serif" font-size="10.00"> </text>
<polyline fill="none" stroke="black" points="729,-758 813,-758 "/>
<text text-anchor="middle" x="771" y="-746" font-family="Helvetica,sans-Serif" font-size="10.00"> </text>
</a>
</g>
</g>
<!-- Node8&#45;&gt;Node7 -->
<g id="edge7" class="edge">
<title>Node8&#45;&gt;Node7</title>
<path fill="none" stroke="orange" d="M798.33,-730.8C823.83,-697.09 862.55,-644.85 894,-598 912.58,-570.32 932.4,-537.71 945.82,-515.13"/>
<polygon fill="orange" stroke="orange" points="795.4,-728.87 792.14,-738.95 800.97,-733.1 795.4,-728.87"/>
<text text-anchor="middle" x="905.5" y="-624.5" font-family="Helvetica,sans-Serif" font-size="10.00"> &lt; uint8_t &gt;</text>
</g>
<!-- Node13 -->
<g id="node13" class="node">
<title>Node13</title>
<g id="a_node13"><a xlink:title=" ">
<polygon fill="white" stroke="black" points="586.5,-452.5 586.5,-520.5 711.5,-520.5 711.5,-452.5 586.5,-452.5"/>
<text text-anchor="start" x="594.5" y="-508.5" font-family="Helvetica,sans-Serif" font-size="10.00">std::vector&lt; altintegration</text>
<text text-anchor="middle" x="649" y="-497.5" font-family="Helvetica,sans-Serif" font-size="10.00">::Blob &gt;</text>
<polyline fill="none" stroke="black" points="586.5,-490.5 711.5,-490.5 "/>
<text text-anchor="middle" x="649" y="-478.5" font-family="Helvetica,sans-Serif" font-size="10.00"> </text>
<polyline fill="none" stroke="black" points="586.5,-471.5 711.5,-471.5 "/>
<text text-anchor="middle" x="649" y="-459.5" font-family="Helvetica,sans-Serif" font-size="10.00"> </text>
</a>
</g>
</g>
<!-- Node8&#45;&gt;Node13 -->
<g id="edge14" class="edge">
<title>Node8&#45;&gt;Node13</title>
<path fill="none" stroke="orange" d="M754.01,-729.68C741.57,-706.05 722.74,-676.14 699,-656 683.82,-643.13 669.37,-654.33 658,-638 634.06,-603.64 636.53,-553.44 641.75,-520.62"/>
<polygon fill="orange" stroke="orange" points="750.96,-731.4 758.62,-738.72 757.2,-728.22 750.96,-731.4"/>
<text text-anchor="middle" x="707.5" y="-624.5" font-family="Helvetica,sans-Serif" font-size="10.00"> &lt; altintegration::Blob &gt;</text>
</g>
<!-- Node17 -->
<g id="node17" class="node">
<title>Node17</title>
<g id="a_node17"><a xlink:title=" ">
<polygon fill="white" stroke="black" points="708.5,-199 708.5,-267 833.5,-267 833.5,-199 708.5,-199"/>
<text text-anchor="start" x="716.5" y="-255" font-family="Helvetica,sans-Serif" font-size="10.00">std::vector&lt; altintegration</text>
<text text-anchor="middle" x="771" y="-244" font-family="Helvetica,sans-Serif" font-size="10.00">::BtcBlock &gt;</text>
<polyline fill="none" stroke="black" points="708.5,-237 833.5,-237 "/>
<text text-anchor="middle" x="771" y="-225" font-family="Helvetica,sans-Serif" font-size="10.00"> </text>
<polyline fill="none" stroke="black" points="708.5,-218 833.5,-218 "/>
<text text-anchor="middle" x="771" y="-206" font-family="Helvetica,sans-Serif" font-size="10.00"> </text>
</a>
</g>
</g>
<!-- Node8&#45;&gt;Node17 -->
<g id="edge22" class="edge">
<title>Node8&#45;&gt;Node17</title>
<path fill="none" stroke="orange" d="M771,-728.82C771,-629.47 771,-361.58 771,-267.34"/>
<polygon fill="orange" stroke="orange" points="767.5,-728.99 771,-738.99 774.5,-728.99 767.5,-728.99"/>
<text text-anchor="middle" x="830.5" y="-484" font-family="Helvetica,sans-Serif" font-size="10.00"> &lt; altintegration::BtcBlock &gt;</text>
</g>
<!-- Node9 -->
<g id="node9" class="node">
<title>Node9</title>
<g id="a_node9"><a xlink:title=" ">
<polygon fill="white" stroke="#bfbfbf" points="756.5,-1003.5 756.5,-1060.5 785.5,-1060.5 785.5,-1003.5 756.5,-1003.5"/>
<text text-anchor="middle" x="771" y="-1048.5" font-family="Helvetica,sans-Serif" font-size="10.00">T</text>
<polyline fill="none" stroke="#bfbfbf" points="756.5,-1041.5 785.5,-1041.5 "/>
<text text-anchor="middle" x="771" y="-1029.5" font-family="Helvetica,sans-Serif" font-size="10.00"> </text>
<polyline fill="none" stroke="#bfbfbf" points="756.5,-1022.5 785.5,-1022.5 "/>
<text text-anchor="middle" x="771" y="-1010.5" font-family="Helvetica,sans-Serif" font-size="10.00"> </text>
</a>
</g>
</g>
<!-- Node9&#45;&gt;Node8 -->
<g id="edge8" class="edge">
<title>Node9&#45;&gt;Node8</title>
<path fill="none" stroke="#404040" d="M771,-1003.4C771,-956.73 771,-862.04 771,-808.23"/>
<polygon fill="none" stroke="#404040" points="771,-808.12 767,-802.12 771,-796.12 775,-802.12 771,-808.12"/>
<text text-anchor="middle" x="795.5" y="-900" font-family="Helvetica,sans-Serif" font-size="10.00"> +elements</text>
</g>
<!-- Node10 -->
<g id="node10" class="node">
<title>Node10</title>
<g id="a_node10"><a xlink:href="structaltintegration_1_1MerklePath.html" target="_top" xlink:title="Path in Merkle tree which proves that subject is inside this tree.">
<polygon fill="white" stroke="black" points="564,-188 564,-278 690,-278 690,-188 564,-188"/>
<text text-anchor="middle" x="627" y="-266" font-family="Helvetica,sans-Serif" font-size="10.00">altintegration::MerklePath</text>
<polyline fill="none" stroke="black" points="564,-259 690,-259 "/>
<text text-anchor="start" x="572" y="-247" font-family="Helvetica,sans-Serif" font-size="10.00">+ index</text>
<polyline fill="none" stroke="black" points="564,-240 690,-240 "/>
<text text-anchor="start" x="572" y="-228" font-family="Helvetica,sans-Serif" font-size="10.00">+ toRaw()</text>
<text text-anchor="start" x="572" y="-217" font-family="Helvetica,sans-Serif" font-size="10.00">+ toVbkEncoding()</text>
<text text-anchor="start" x="572" y="-206" font-family="Helvetica,sans-Serif" font-size="10.00">+ estimateSize()</text>
<text text-anchor="start" x="572" y="-195" font-family="Helvetica,sans-Serif" font-size="10.00">+ calculateMerkleRoot()</text>
</a>
</g>
</g>
<!-- Node10&#45;&gt;Node1 -->
<g id="edge9" class="edge">
<title>Node10&#45;&gt;Node1</title>
<path fill="none" stroke="#404040" d="M602.57,-187.57C588.31,-161.64 570.21,-128.73 555.08,-101.21"/>
<polygon fill="none" stroke="#404040" points="555.01,-101.08 548.62,-97.75 549.23,-90.57 555.63,-93.9 555.01,-101.08"/>
<text text-anchor="middle" x="593" y="-112" font-family="Helvetica,sans-Serif" font-size="10.00"> +merklePath</text>
</g>
<!-- Node11 -->
<g id="node11" class="node">
<title>Node11</title>
<g id="a_node11"><a xlink:href="structaltintegration_1_1Blob.html" target="_top" xlink:title=" ">
<polygon fill="white" stroke="black" points="396.5,-656.5 396.5,-878.5 527.5,-878.5 527.5,-656.5 396.5,-656.5"/>
<text text-anchor="start" x="404.5" y="-866.5" font-family="Helvetica,sans-Serif" font-size="10.00">altintegration::Blob</text>
<text text-anchor="middle" x="462" y="-855.5" font-family="Helvetica,sans-Serif" font-size="10.00">&lt; SHA256_HASH_SIZE &gt;</text>
<polyline fill="none" stroke="black" points="396.5,-848.5 527.5,-848.5 "/>
<text text-anchor="start" x="404.5" y="-836.5" font-family="Helvetica,sans-Serif" font-size="10.00">+ data_</text>
<text text-anchor="start" x="404.5" y="-825.5" font-family="Helvetica,sans-Serif" font-size="10.00">+ this</text>
<polyline fill="none" stroke="black" points="396.5,-818.5 527.5,-818.5 "/>
<text text-anchor="start" x="404.5" y="-806.5" font-family="Helvetica,sans-Serif" font-size="10.00">+ Blob()</text>
<text text-anchor="start" x="404.5" y="-795.5" font-family="Helvetica,sans-Serif" font-size="10.00">+ Blob()</text>
<text text-anchor="start" x="404.5" y="-784.5" font-family="Helvetica,sans-Serif" font-size="10.00">+ Blob()</text>
<text text-anchor="start" x="404.5" y="-773.5" font-family="Helvetica,sans-Serif" font-size="10.00">+ Blob()</text>
<text text-anchor="start" x="404.5" y="-762.5" font-family="Helvetica,sans-Serif" font-size="10.00">+ Blob()</text>
<text text-anchor="start" x="404.5" y="-751.5" font-family="Helvetica,sans-Serif" font-size="10.00">+ operator=()</text>
<text text-anchor="start" x="404.5" y="-740.5" font-family="Helvetica,sans-Serif" font-size="10.00">+ operator=()</text>
<text text-anchor="start" x="404.5" y="-729.5" font-family="Helvetica,sans-Serif" font-size="10.00">+ reverse()</text>
<text text-anchor="start" x="404.5" y="-718.5" font-family="Helvetica,sans-Serif" font-size="10.00">+ operator~()</text>
<text text-anchor="start" x="404.5" y="-707.5" font-family="Helvetica,sans-Serif" font-size="10.00">+ asVector()</text>
<text text-anchor="start" x="404.5" y="-696.5" font-family="Helvetica,sans-Serif" font-size="10.00">+ asString()</text>
<text text-anchor="start" x="404.5" y="-685.5" font-family="Helvetica,sans-Serif" font-size="10.00">+ operator[]()</text>
<text text-anchor="start" x="404.5" y="-674.5" font-family="Helvetica,sans-Serif" font-size="10.00">+ operator[]()</text>
<text text-anchor="start" x="404.5" y="-663.5" font-family="Helvetica,sans-Serif" font-size="10.00">+ compareTo()</text>
</a>
</g>
</g>
<!-- Node11&#45;&gt;Node10 -->
<g id="edge10" class="edge">
<title>Node11&#45;&gt;Node10</title>
<path fill="none" stroke="#404040" d="M405.53,-656.38C370.75,-571.56 343.14,-455.55 403,-375 446.19,-316.88 500.01,-369.99 559,-328 573.67,-317.56 586.38,-302.95 596.72,-288.36"/>
<polygon fill="none" stroke="#404040" points="596.78,-288.26 596.82,-281.05 603.49,-278.31 603.45,-285.52 596.78,-288.26"/>
<text text-anchor="middle" x="423" y="-484" font-family="Helvetica,sans-Serif" font-size="10.00"> +subject</text>
</g>
<!-- Node14 -->
<g id="node14" class="node">
<title>Node14</title>
<g id="a_node14"><a xlink:href="structaltintegration_1_1BtcBlock.html" target="_top" xlink:title="Bitcoin block.">
<polygon fill="white" stroke="black" points="452,-375.5 452,-597.5 568,-597.5 568,-375.5 452,-375.5"/>
<text text-anchor="middle" x="510" y="-585.5" font-family="Helvetica,sans-Serif" font-size="10.00">altintegration::BtcBlock</text>
<polyline fill="none" stroke="black" points="452,-578.5 568,-578.5 "/>
<text text-anchor="start" x="460" y="-566.5" font-family="Helvetica,sans-Serif" font-size="10.00"># version</text>
<text text-anchor="start" x="460" y="-555.5" font-family="Helvetica,sans-Serif" font-size="10.00"># timestamp</text>
<text text-anchor="start" x="460" y="-544.5" font-family="Helvetica,sans-Serif" font-size="10.00"># bits</text>
<text text-anchor="start" x="460" y="-533.5" font-family="Helvetica,sans-Serif" font-size="10.00"># nonce</text>
<polyline fill="none" stroke="black" points="452,-526.5 568,-526.5 "/>
<text text-anchor="start" x="460" y="-514.5" font-family="Helvetica,sans-Serif" font-size="10.00">+ BtcBlock()</text>
<text text-anchor="start" x="460" y="-503.5" font-family="Helvetica,sans-Serif" font-size="10.00">+ BtcBlock()</text>
<text text-anchor="start" x="460" y="-492.5" font-family="Helvetica,sans-Serif" font-size="10.00">+ toRaw()</text>
<text text-anchor="start" x="460" y="-481.5" font-family="Helvetica,sans-Serif" font-size="10.00">+ toVbkEncoding()</text>
<text text-anchor="start" x="460" y="-470.5" font-family="Helvetica,sans-Serif" font-size="10.00">+ estimateSize()</text>
<text text-anchor="start" x="460" y="-459.5" font-family="Helvetica,sans-Serif" font-size="10.00">+ calculateHash()</text>
<text text-anchor="start" x="460" y="-448.5" font-family="Helvetica,sans-Serif" font-size="10.00">+ getHash()</text>
<text text-anchor="start" x="460" y="-437.5" font-family="Helvetica,sans-Serif" font-size="10.00">+ toPrettyString()</text>
<text text-anchor="start" x="460" y="-426.5" font-family="Helvetica,sans-Serif" font-size="10.00">+ getVersion()</text>
<text text-anchor="start" x="460" y="-415.5" font-family="Helvetica,sans-Serif" font-size="10.00">+ getPreviousBlock()</text>
<text text-anchor="start" x="460" y="-404.5" font-family="Helvetica,sans-Serif" font-size="10.00">and 10 more...</text>
<text text-anchor="start" x="460" y="-393.5" font-family="Helvetica,sans-Serif" font-size="10.00">+ name()</text>
<text text-anchor="start" x="460" y="-382.5" font-family="Helvetica,sans-Serif" font-size="10.00"># invalidateHash()</text>
</a>
</g>
</g>
<!-- Node11&#45;&gt;Node14 -->
<g id="edge18" class="edge">
<title>Node11&#45;&gt;Node14</title>
<path fill="none" stroke="#404040" d="M476.5,-656.22C478.55,-642.65 480.73,-628.99 483,-616 483.36,-613.95 483.72,-611.89 484.1,-609.82"/>
<polygon fill="none" stroke="#404040" points="484.14,-609.61 481.29,-602.98 486.31,-597.81 489.16,-604.43 484.14,-609.61"/>
<text text-anchor="middle" x="516.5" y="-630" font-family="Helvetica,sans-Serif" font-size="10.00"> #merkleRoot</text>
<text text-anchor="middle" x="516.5" y="-619" font-family="Helvetica,sans-Serif" font-size="10.00">#previousBlock</text>
</g>
<!-- Node12 -->
<g id="node12" class="node">
<title>Node12</title>
<g id="a_node12"><a xlink:href="structaltintegration_1_1Blob.html" target="_top" xlink:title="Contiguous byte array of fixed size.">
<polygon fill="white" stroke="black" points="372,-926.5 372,-1137.5 492,-1137.5 492,-926.5 372,-926.5"/>
<text text-anchor="middle" x="432" y="-1125.5" font-family="Helvetica,sans-Serif" font-size="10.00">altintegration::Blob&lt; N &gt;</text>
<polyline fill="none" stroke="black" points="372,-1118.5 492,-1118.5 "/>
<text text-anchor="start" x="380" y="-1106.5" font-family="Helvetica,sans-Serif" font-size="10.00">+ data_</text>
<text text-anchor="start" x="380" y="-1095.5" font-family="Helvetica,sans-Serif" font-size="10.00">+ this</text>
<polyline fill="none" stroke="black" points="372,-1088.5 492,-1088.5 "/>
<text text-anchor="start" x="380" y="-1076.5" font-family="Helvetica,sans-Serif" font-size="10.00">+ Blob()</text>
<text text-anchor="start" x="380" y="-1065.5" font-family="Helvetica,sans-Serif" font-size="10.00">+ Blob()</text>
<text text-anchor="start" x="380" y="-1054.5" font-family="Helvetica,sans-Serif" font-size="10.00">+ Blob()</text>
<text text-anchor="start" x="380" y="-1043.5" font-family="Helvetica,sans-Serif" font-size="10.00">+ Blob()</text>
<text text-anchor="start" x="380" y="-1032.5" font-family="Helvetica,sans-Serif" font-size="10.00">+ Blob()</text>
<text text-anchor="start" x="380" y="-1021.5" font-family="Helvetica,sans-Serif" font-size="10.00">+ operator=()</text>
<text text-anchor="start" x="380" y="-1010.5" font-family="Helvetica,sans-Serif" font-size="10.00">+ operator=()</text>
<text text-anchor="start" x="380" y="-999.5" font-family="Helvetica,sans-Serif" font-size="10.00">+ reverse()</text>
<text text-anchor="start" x="380" y="-988.5" font-family="Helvetica,sans-Serif" font-size="10.00">+ operator~()</text>
<text text-anchor="start" x="380" y="-977.5" font-family="Helvetica,sans-Serif" font-size="10.00">+ asVector()</text>
<text text-anchor="start" x="380" y="-966.5" font-family="Helvetica,sans-Serif" font-size="10.00">+ asString()</text>
<text text-anchor="start" x="380" y="-955.5" font-family="Helvetica,sans-Serif" font-size="10.00">+ operator[]()</text>
<text text-anchor="start" x="380" y="-944.5" font-family="Helvetica,sans-Serif" font-size="10.00">+ operator[]()</text>
<text text-anchor="start" x="380" y="-933.5" font-family="Helvetica,sans-Serif" font-size="10.00">+ compareTo()</text>
</a>
</g>
</g>
<!-- Node12&#45;&gt;Node11 -->
<g id="edge11" class="edge">
<title>Node12&#45;&gt;Node11</title>
<path fill="none" stroke="orange" d="M431.25,-916.07C431.71,-909.61 432.28,-903.22 433,-897 433.69,-890.98 434.55,-884.83 435.54,-878.64"/>
<polygon fill="orange" stroke="orange" points="427.74,-916.07 430.62,-926.26 434.73,-916.49 427.74,-916.07"/>
<text text-anchor="middle" x="491.5" y="-900" font-family="Helvetica,sans-Serif" font-size="10.00"> &lt; SHA256_HASH_SIZE &gt;</text>
</g>
<!-- Node12&#45;&gt;Node13 -->
<g id="edge13" class="edge">
<title>Node12&#45;&gt;Node13</title>
<path fill="none" stroke="#404040" d="M492.04,-983.78C514.09,-963.02 536.86,-936.81 550,-908 596.66,-805.67 550.37,-766.16 573,-656 576.76,-637.69 578.98,-633.32 586,-616 597.65,-587.25 612.93,-555.97 625.52,-531.47"/>
<polygon fill="none" stroke="#404040" points="625.57,-531.38 624.78,-524.21 631.09,-520.73 631.88,-527.89 625.57,-531.38"/>
<text text-anchor="middle" x="597.5" y="-765" font-family="Helvetica,sans-Serif" font-size="10.00"> +elements</text>
</g>
<!-- Node12&#45;&gt;Node14 -->
<g id="edge19" class="edge">
<title>Node12&#45;&gt;Node14</title>
<path fill="none" stroke="#404040" d="M371.81,-931.45C364.05,-914.48 357.31,-896.62 353,-879 329.47,-782.72 306.71,-743.63 353,-656 374.36,-615.56 406.01,-630.68 438,-598 439.95,-596.01 441.88,-593.95 443.79,-591.85"/>
<polygon fill="none" stroke="#404040" points="444.15,-591.43 445.02,-584.27 451.97,-582.33 451.09,-589.48 444.15,-591.43"/>
<text text-anchor="middle" x="370" y="-765" font-family="Helvetica,sans-Serif" font-size="10.00"> #hash_</text>
</g>
<!-- Node13&#45;&gt;Node10 -->
<g id="edge12" class="edge">
<title>Node13&#45;&gt;Node10</title>
<path fill="none" stroke="#404040" d="M646.1,-452.36C642.5,-411.17 636.29,-340.22 631.93,-290.41"/>
<polygon fill="none" stroke="#404040" points="631.91,-290.18 627.41,-284.55 630.87,-278.23 635.38,-283.85 631.91,-290.18"/>
<text text-anchor="middle" x="655" y="-349" font-family="Helvetica,sans-Serif" font-size="10.00"> +layers</text>
</g>
<!-- Node14&#45;&gt;Node1 -->
<g id="edge15" class="edge">
<title>Node14&#45;&gt;Node1</title>
<path fill="none" stroke="#404040" d="M489.58,-375.45C480.21,-306.66 474.11,-216.53 489,-138 491.27,-126.05 495.06,-113.66 499.35,-102.01"/>
<polygon fill="none" stroke="#404040" points="499.43,-101.83 497.87,-94.79 503.78,-90.64 505.33,-97.69 499.43,-101.83"/>
<text text-anchor="middle" x="522" y="-230.5" font-family="Helvetica,sans-Serif" font-size="10.00"> +blockOfProof</text>
</g>
<!-- Node14&#45;&gt;Node17 -->
<g id="edge21" class="edge">
<title>Node14&#45;&gt;Node17</title>
<path fill="none" stroke="#404040" d="M555.75,-375.34C564.09,-364.12 573.79,-353.96 585,-346 626.84,-316.32 654.92,-354.23 699,-328 719.18,-315.99 735.68,-295.99 747.77,-277.51"/>
<polygon fill="none" stroke="#404040" points="747.87,-277.36 747.64,-270.15 754.21,-267.17 754.43,-274.38 747.87,-277.36"/>
<text text-anchor="middle" x="609.5" y="-349" font-family="Helvetica,sans-Serif" font-size="10.00"> +elements</text>
</g>
<!-- Node15 -->
<g id="node15" class="node">
<title>Node15</title>
<g id="a_node15"><a xlink:title=" ">
<polygon fill="white" stroke="black" points="631.5,-739 631.5,-796 690.5,-796 690.5,-739 631.5,-739"/>
<text text-anchor="middle" x="661" y="-784" font-family="Helvetica,sans-Serif" font-size="10.00">std::string</text>
<polyline fill="none" stroke="black" points="631.5,-777 690.5,-777 "/>
<text text-anchor="middle" x="661" y="-765" font-family="Helvetica,sans-Serif" font-size="10.00"> </text>
<polyline fill="none" stroke="black" points="631.5,-758 690.5,-758 "/>
<text text-anchor="middle" x="661" y="-746" font-family="Helvetica,sans-Serif" font-size="10.00"> </text>
</a>
</g>
</g>
<!-- Node15&#45;&gt;Node14 -->
<g id="edge16" class="edge">
<title>Node15&#45;&gt;Node14</title>
<path fill="none" stroke="#404040" d="M651.97,-738.94C644.04,-716.11 631.52,-683.13 617,-656 609.61,-642.2 585.51,-611.14 577,-598 576.27,-596.87 575.53,-595.73 574.8,-594.59"/>
<polygon fill="none" stroke="#404040" points="574.58,-594.25 567.99,-591.34 568.14,-584.13 574.73,-587.04 574.58,-594.25"/>
<text text-anchor="middle" x="623.5" y="-624.5" font-family="Helvetica,sans-Serif" font-size="10.00"> #_name</text>
</g>
<!-- Node16 -->
<g id="node16" class="node">
<title>Node16</title>
<g id="a_node16"><a xlink:title=" ">
<polygon fill="white" stroke="black" points="614.5,-998 614.5,-1066 707.5,-1066 707.5,-998 614.5,-998"/>
<text text-anchor="start" x="622.5" y="-1054" font-family="Helvetica,sans-Serif" font-size="10.00">std::basic_string&lt;</text>
<text text-anchor="middle" x="661" y="-1043" font-family="Helvetica,sans-Serif" font-size="10.00"> Char &gt;</text>
<polyline fill="none" stroke="black" points="614.5,-1036 707.5,-1036 "/>
<text text-anchor="middle" x="661" y="-1024" font-family="Helvetica,sans-Serif" font-size="10.00"> </text>
<polyline fill="none" stroke="black" points="614.5,-1017 707.5,-1017 "/>
<text text-anchor="middle" x="661" y="-1005" font-family="Helvetica,sans-Serif" font-size="10.00"> </text>
</a>
</g>
</g>
<!-- Node16&#45;&gt;Node15 -->
<g id="edge17" class="edge">
<title>Node16&#45;&gt;Node15</title>
<path fill="none" stroke="midnightblue" d="M661,-987.75C661,-933.49 661,-842.02 661,-796.29"/>
<polygon fill="none" stroke="midnightblue" points="657.5,-987.75 661,-997.75 664.5,-987.75 657.5,-987.75"/>
</g>
<!-- Node17&#45;&gt;Node1 -->
<g id="edge20" class="edge">
<title>Node17&#45;&gt;Node1</title>
<path fill="none" stroke="#404040" d="M750.69,-198.62C737.68,-179.2 719.43,-155.23 699,-138 668.76,-112.5 630.24,-91.33 597.13,-75.8"/>
<polygon fill="none" stroke="#404040" points="597.04,-75.76 589.92,-76.89 586.13,-70.76 593.25,-69.62 597.04,-75.76"/>
<text text-anchor="middle" x="723.5" y="-112" font-family="Helvetica,sans-Serif" font-size="10.00"> +blockOfProofContext</text>
</g>
</g>
</svg>
        <g id="navigator" transform="translate(0 0)" fill="#404254">
                <rect fill="#f2f5e9" fill-opacity="0.5" stroke="#606060" stroke-width=".5" x="0" y="0" width="60" height="60"/>
                <use id="zoomplus" xlink:href="#zoomPlus" x="17" y="9" onmousedown="handleZoom(evt,'in')"/>
                <use id="zoomminus" xlink:href="#zoomMin" x="42" y="9" onmousedown="handleZoom(evt,'out')"/>
                <use id="reset" xlink:href="#resetDef" x="30" y="36" onmousedown="handleReset()"/>
                <g id="arrowUp" xlink:href="#dirArrow" transform="translate(30 24)" onmousedown="handlePan(0,-1)">
                  <use xlink:href="#rim" fill="#404040">
                        <set attributeName="fill" to="#808080" begin="arrowUp.mouseover" end="arrowUp.mouseout"/>
                  </use>
                  <path fill="none" stroke="white" stroke-width="1.5" d="M0,-3.0v7 M-2.5,-0.5L0,-3.0L2.5,-0.5"/>
                </g>
                <g id="arrowRight" xlink:href="#dirArrow" transform="rotate(90) translate(36 -43)" onmousedown="handlePan(1,0)">
                  <use xlink:href="#rim" fill="#404040">
                        <set attributeName="fill" to="#808080" begin="arrowRight.mouseover" end="arrowRight.mouseout"/>
                  </use>
                  <path fill="none" stroke="white" stroke-width="1.5" d="M0,-3.0v7 M-2.5,-0.5L0,-3.0L2.5,-0.5"/>
                </g>
                <g id="arrowDown" xlink:href="#dirArrow" transform="rotate(180) translate(-30 -48)" onmousedown="handlePan(0,1)">
                  <use xlink:href="#rim" fill="#404040">
                        <set attributeName="fill" to="#808080" begin="arrowDown.mouseover" end="arrowDown.mouseout"/>
                  </use>
                  <path fill="none" stroke="white" stroke-width="1.5" d="M0,-3.0v7 M-2.5,-0.5L0,-3.0L2.5,-0.5"/>
                </g>
                <g id="arrowLeft" xlink:href="#dirArrow" transform="rotate(270) translate(-36 17)" onmousedown="handlePan(-1,0)">
                  <use xlink:href="#rim" fill="#404040">
                        <set attributeName="fill" to="#808080" begin="arrowLeft.mouseover" end="arrowLeft.mouseout"/>
                  </use>
                  <path fill="none" stroke="white" stroke-width="1.5" d="M0,-3.0v7 M-2.5,-0.5L0,-3.0L2.5,-0.5"/>
                </g>
        </g>
        <svg viewBox="0 0 15 15" width="100%" height="30px" preserveAspectRatio="xMaxYMin meet">
         <g id="arrow_out" transform="scale(0.3 0.3)">
          <a xlink:href="structaltintegration_1_1VbkPopTx__coll__graph_org.svg" target="_base">
           <rect id="button" ry="5" rx="5" y="6" x="6" height="38" width="38"
                fill="#f2f5e9" fill-opacity="0.5" stroke="#606060" stroke-width="1.0"/>
           <path id="arrow"
             d="M 11.500037,31.436501 C 11.940474,20.09759 22.043105,11.32322 32.158766,21.979434 L 37.068811,17.246167 C 37.068811,17.246167 37.088388,32 37.088388,32 L 22.160133,31.978069 C 22.160133,31.978069 26.997745,27.140456 26.997745,27.140456 C 18.528582,18.264221 13.291696,25.230495 11.500037,31.436501 z"
             style="fill:#404040;"/>
          </a>
         </g>
        </svg>
</svg>
