<?xml version="1.0" encoding="UTF-8" standalone="no"?>
<!DOCTYPE svg PUBLIC "-//W3C//DTD SVG 1.1//EN"
 "http://www.w3.org/Graphics/SVG/1.1/DTD/svg11.dtd">
<!-- Generated by graphviz version 2.50.0 (20220203.2022)
 -->
<!-- Title: altintegration::PopPayouts Pages: 1 -->
<!--zoomable 585 -->
<svg id="main" version="1.1" xmlns="http://www.w3.org/2000/svg" xmlns:xlink="http://www.w3.org/1999/xlink" xml:space="preserve" onload="init(evt)">
<style type="text/css"><![CDATA[
.edge:hover path { stroke: red; }
.edge:hover polygon { stroke: red; fill: red; }
]]></style>
<script type="text/javascript"><![CDATA[
var edges = document.getElementsByTagName('g');
if (edges && edges.length) {
  for (var i=0;i<edges.length;i++) {
    if (edges[i].id.substr(0,4)=='edge') {
      edges[i].setAttribute('class','edge');
    }
  }
}
]]></script>
        <defs>
                <circle id="rim" cx="0" cy="0" r="7"/>
                <circle id="rim2" cx="0" cy="0" r="3.5"/>
                <g id="zoomPlus">
                        <use xlink:href="#rim" fill="#404040">
                                <set attributeName="fill" to="#808080" begin="zoomplus.mouseover" end="zoomplus.mouseout"/>
                        </use>
                        <path d="M-4,0h8M0,-4v8" fill="none" stroke="white" stroke-width="1.5" pointer-events="none"/>
                </g>
                <g id="zoomMin">
                        <use xlink:href="#rim" fill="#404040">
                                <set attributeName="fill" to="#808080" begin="zoomminus.mouseover" end="zoomminus.mouseout"/>
                        </use>
                        <path d="M-4,0h8" fill="none" stroke="white" stroke-width="1.5" pointer-events="none"/>
                </g>
                <g id="dirArrow">
                        <path fill="none" stroke="white" stroke-width="1.5" d="M0,-3.0v7 M-2.5,-0.5L0,-3.0L2.5,-0.5"/>
                </g>
               <g id="resetDef">
                       <use xlink:href="#rim2" fill="#404040">
                               <set attributeName="fill" to="#808080" begin="reset.mouseover" end="reset.mouseout"/>
                       </use>
               </g>
        </defs>

<script type="text/javascript">
var viewWidth = 263;
var viewHeight = 585;
var sectionId = 'dynsection-0';
</script>
<script xlink:href="svgpan.js"/>
<svg id="graph" class="graph">
<g id="viewport">
<title>altintegration::PopPayouts</title>
<polygon fill="white" stroke="transparent" points="-4,4 -4,-581 258.5,-581 258.5,4 -4,4"/>
<!-- Node1 -->
<g id="node1" class="node">
<title>Node1</title>
<g id="a_node1"><a xlink:title="A container for Pop payouts information.">
<polygon fill="#bfbfbf" stroke="black" points="35,-0.5 35,-145.5 164,-145.5 164,-0.5 35,-0.5"/>
<text text-anchor="middle" x="99.5" y="-133.5" font-family="Helvetica,sans-Serif" font-size="10.00">altintegration::PopPayouts</text>
<polyline fill="none" stroke="black" points="35,-126.5 164,-126.5 "/>
<text text-anchor="middle" x="99.5" y="-114.5" font-family="Helvetica,sans-Serif" font-size="10.00"> </text>
<polyline fill="none" stroke="black" points="35,-107.5 164,-107.5 "/>
<text text-anchor="start" x="43" y="-95.5" font-family="Helvetica,sans-Serif" font-size="10.00">+ add()</text>
<text text-anchor="start" x="43" y="-84.5" font-family="Helvetica,sans-Serif" font-size="10.00">+ size()</text>
<text text-anchor="start" x="43" y="-73.5" font-family="Helvetica,sans-Serif" font-size="10.00">+ empty()</text>
<text text-anchor="start" x="43" y="-62.5" font-family="Helvetica,sans-Serif" font-size="10.00">+ payouts()</text>
<text text-anchor="start" x="43" y="-51.5" font-family="Helvetica,sans-Serif" font-size="10.00">+ begin()</text>
<text text-anchor="start" x="43" y="-40.5" font-family="Helvetica,sans-Serif" font-size="10.00">+ end()</text>
<text text-anchor="start" x="43" y="-29.5" font-family="Helvetica,sans-Serif" font-size="10.00">+ begin()</text>
<text text-anchor="start" x="43" y="-18.5" font-family="Helvetica,sans-Serif" font-size="10.00">+ end()</text>
<text text-anchor="start" x="43" y="-7.5" font-family="Helvetica,sans-Serif" font-size="10.00">+ toVbkEncoding()</text>
</a>
</g>
</g>
<!-- Node2 -->
<g id="node2" class="node">
<title>Node2</title>
<g id="a_node2"><a xlink:title=" ">
<polygon fill="white" stroke="black" points="44,-193.5 44,-261.5 155,-261.5 155,-193.5 44,-193.5"/>
<text text-anchor="start" x="52" y="-249.5" font-family="Helvetica,sans-Serif" font-size="10.00">std::map&lt; payout_info</text>
<text text-anchor="middle" x="99.5" y="-238.5" font-family="Helvetica,sans-Serif" font-size="10.00">_t, amount_t &gt;</text>
<polyline fill="none" stroke="black" points="44,-231.5 155,-231.5 "/>
<text text-anchor="start" x="52" y="-219.5" font-family="Helvetica,sans-Serif" font-size="10.00">+ elements</text>
<polyline fill="none" stroke="black" points="44,-212.5 155,-212.5 "/>
<text text-anchor="middle" x="99.5" y="-200.5" font-family="Helvetica,sans-Serif" font-size="10.00"> </text>
</a>
</g>
</g>
<!-- Node2&#45;&gt;Node1 -->
<g id="edge1" class="edge">
<title>Node2&#45;&gt;Node1</title>
<path fill="none" stroke="#404040" d="M99.5,-193.41C99.5,-182.72 99.5,-170.35 99.5,-157.7"/>
<polygon fill="none" stroke="#404040" points="99.5,-157.53 95.5,-151.53 99.5,-145.53 103.5,-151.53 99.5,-157.53"/>
<text text-anchor="middle" x="121" y="-167" font-family="Helvetica,sans-Serif" font-size="10.00"> +payouts</text>
</g>
<!-- Node3 -->
<g id="node3" class="node">
<title>Node3</title>
<g id="a_node3"><a xlink:title=" ">
<polygon fill="white" stroke="black" points="0,-309.5 0,-366.5 107,-366.5 107,-309.5 0,-309.5"/>
<text text-anchor="middle" x="53.5" y="-354.5" font-family="Helvetica,sans-Serif" font-size="10.00">std::vector&lt; uint8_t &gt;</text>
<polyline fill="none" stroke="black" points="0,-347.5 107,-347.5 "/>
<text text-anchor="start" x="8" y="-335.5" font-family="Helvetica,sans-Serif" font-size="10.00">+ elements</text>
<polyline fill="none" stroke="black" points="0,-328.5 107,-328.5 "/>
<text text-anchor="middle" x="53.5" y="-316.5" font-family="Helvetica,sans-Serif" font-size="10.00"> </text>
</a>
</g>
</g>
<!-- Node3&#45;&gt;Node2 -->
<g id="edge2" class="edge">
<title>Node3&#45;&gt;Node2</title>
<path fill="none" stroke="#404040" d="M65.23,-309.34C69.95,-298.19 75.53,-285.04 80.79,-272.63"/>
<polygon fill="none" stroke="#404040" points="80.82,-272.57 79.48,-265.48 85.5,-261.52 86.84,-268.6 80.82,-272.57"/>
<text text-anchor="middle" x="91" y="-283" font-family="Helvetica,sans-Serif" font-size="10.00"> +keys</text>
</g>
<!-- Node4 -->
<g id="node4" class="node">
<title>Node4</title>
<g id="a_node4"><a xlink:title=" ">
<polygon fill="white" stroke="black" points="1.5,-414.5 1.5,-471.5 85.5,-471.5 85.5,-414.5 1.5,-414.5"/>
<text text-anchor="middle" x="43.5" y="-459.5" font-family="Helvetica,sans-Serif" font-size="10.00">std::vector&lt; T &gt;</text>
<polyline fill="none" stroke="black" points="1.5,-452.5 85.5,-452.5 "/>
<text text-anchor="middle" x="43.5" y="-440.5" font-family="Helvetica,sans-Serif" font-size="10.00"> </text>
<polyline fill="none" stroke="black" points="1.5,-433.5 85.5,-433.5 "/>
<text text-anchor="middle" x="43.5" y="-421.5" font-family="Helvetica,sans-Serif" font-size="10.00"> </text>
</a>
</g>
</g>
<!-- Node4&#45;&gt;Node3 -->
<g id="edge3" class="edge">
<title>Node4&#45;&gt;Node3</title>
<path fill="none" stroke="orange" d="M47.16,-404.29C48.37,-391.84 49.69,-378.23 50.81,-366.68"/>
<polygon fill="orange" stroke="orange" points="43.66,-404.11 46.18,-414.4 50.63,-404.78 43.66,-404.11"/>
<text text-anchor="middle" x="74" y="-388" font-family="Helvetica,sans-Serif" font-size="10.00"> &lt; uint8_t &gt;</text>
</g>
<!-- Node5 -->
<g id="node5" class="node">
<title>Node5</title>
<g id="a_node5"><a xlink:title=" ">
<polygon fill="white" stroke="#bfbfbf" points="65,-519.5 65,-576.5 94,-576.5 94,-519.5 65,-519.5"/>
<text text-anchor="middle" x="79.5" y="-564.5" font-family="Helvetica,sans-Serif" font-size="10.00">T</text>
<polyline fill="none" stroke="#bfbfbf" points="65,-557.5 94,-557.5 "/>
<text text-anchor="middle" x="79.5" y="-545.5" font-family="Helvetica,sans-Serif" font-size="10.00"> </text>
<polyline fill="none" stroke="#bfbfbf" points="65,-538.5 94,-538.5 "/>
<text text-anchor="middle" x="79.5" y="-526.5" font-family="Helvetica,sans-Serif" font-size="10.00"> </text>
</a>
</g>
</g>
<!-- Node5&#45;&gt;Node4 -->
<g id="edge4" class="edge">
<title>Node5&#45;&gt;Node4</title>
<path fill="none" stroke="#404040" d="M64.8,-532.7C57.19,-524.28 48.64,-512.95 44.5,-501 42.59,-495.5 41.51,-489.53 40.97,-483.58"/>
<polygon fill="none" stroke="#404040" points="40.97,-483.57 36.76,-477.71 40.54,-471.57 44.75,-477.43 40.97,-483.57"/>
<text text-anchor="middle" x="69" y="-493" font-family="Helvetica,sans-Serif" font-size="10.00"> +elements</text>
</g>
<!-- Node6 -->
<g id="node6" class="node">
<title>Node6</title>
<g id="a_node6"><a xlink:title=" ">
<polygon fill="white" stroke="black" points="103.5,-414.5 103.5,-471.5 191.5,-471.5 191.5,-414.5 103.5,-414.5"/>
<text text-anchor="middle" x="147.5" y="-459.5" font-family="Helvetica,sans-Serif" font-size="10.00">std::map&lt; K, T &gt;</text>
<polyline fill="none" stroke="black" points="103.5,-452.5 191.5,-452.5 "/>
<text text-anchor="middle" x="147.5" y="-440.5" font-family="Helvetica,sans-Serif" font-size="10.00"> </text>
<polyline fill="none" stroke="black" points="103.5,-433.5 191.5,-433.5 "/>
<text text-anchor="middle" x="147.5" y="-421.5" font-family="Helvetica,sans-Serif" font-size="10.00"> </text>
</a>
</g>
</g>
<!-- Node5&#45;&gt;Node6 -->
<g id="edge7" class="edge">
<title>Node5&#45;&gt;Node6</title>
<path fill="none" stroke="#404040" d="M94.1,-520.19C99.61,-510.51 106.1,-499.61 112.5,-490 114.31,-487.28 116.24,-484.5 118.21,-481.73"/>
<polygon fill="none" stroke="#404040" points="118.37,-481.5 118.69,-474.29 125.46,-471.81 125.14,-479.02 118.37,-481.5"/>
<text text-anchor="middle" x="137" y="-493" font-family="Helvetica,sans-Serif" font-size="10.00"> +elements</text>
</g>
<!-- Node6&#45;&gt;Node2 -->
<g id="edge5" class="edge">
<title>Node6&#45;&gt;Node2</title>
<path fill="none" stroke="orange" d="M138.97,-404.08C129.88,-363.64 115.62,-300.21 106.96,-261.68"/>
<polygon fill="orange" stroke="orange" points="135.62,-405.1 141.22,-414.09 142.45,-403.56 135.62,-405.1"/>
<text text-anchor="middle" x="193" y="-335.5" font-family="Helvetica,sans-Serif" font-size="10.00"> &lt; payout_info_t, amount_t &gt;</text>
</g>
<!-- Node7 -->
<g id="node7" class="node">
<title>Node7</title>
<g id="a_node7"><a xlink:title=" ">
<polygon fill="white" stroke="#bfbfbf" points="173,-519.5 173,-576.5 202,-576.5 202,-519.5 173,-519.5"/>
<text text-anchor="middle" x="187.5" y="-564.5" font-family="Helvetica,sans-Serif" font-size="10.00">K</text>
<polyline fill="none" stroke="#bfbfbf" points="173,-557.5 202,-557.5 "/>
<text text-anchor="middle" x="187.5" y="-545.5" font-family="Helvetica,sans-Serif" font-size="10.00"> </text>
<polyline fill="none" stroke="#bfbfbf" points="173,-538.5 202,-538.5 "/>
<text text-anchor="middle" x="187.5" y="-526.5" font-family="Helvetica,sans-Serif" font-size="10.00"> </text>
</a>
</g>
</g>
<!-- Node7&#45;&gt;Node6 -->
<g id="edge6" class="edge">
<title>Node7&#45;&gt;Node6</title>
<path fill="none" stroke="#404040" d="M176.9,-519.45C173.29,-510.1 169.23,-499.59 165.5,-490 164.6,-487.69 163.68,-485.31 162.74,-482.92"/>
<polygon fill="none" stroke="#404040" points="162.74,-482.9 156.83,-478.77 158.37,-471.72 164.28,-475.86 162.74,-482.9"/>
<text text-anchor="middle" x="185" y="-493" font-family="Helvetica,sans-Serif" font-size="10.00"> +keys</text>
</g>
</g>
</svg>
        <g id="navigator" transform="translate(0 0)" fill="#404254">
                <rect fill="#f2f5e9" fill-opacity="0.5" stroke="#606060" stroke-width=".5" x="0" y="0" width="60" height="60"/>
                <use id="zoomplus" xlink:href="#zoomPlus" x="17" y="9" onmousedown="handleZoom(evt,'in')"/>
                <use id="zoomminus" xlink:href="#zoomMin" x="42" y="9" onmousedown="handleZoom(evt,'out')"/>
                <use id="reset" xlink:href="#resetDef" x="30" y="36" onmousedown="handleReset()"/>
                <g id="arrowUp" xlink:href="#dirArrow" transform="translate(30 24)" onmousedown="handlePan(0,-1)">
                  <use xlink:href="#rim" fill="#404040">
                        <set attributeName="fill" to="#808080" begin="arrowUp.mouseover" end="arrowUp.mouseout"/>
                  </use>
                  <path fill="none" stroke="white" stroke-width="1.5" d="M0,-3.0v7 M-2.5,-0.5L0,-3.0L2.5,-0.5"/>
                </g>
                <g id="arrowRight" xlink:href="#dirArrow" transform="rotate(90) translate(36 -43)" onmousedown="handlePan(1,0)">
                  <use xlink:href="#rim" fill="#404040">
                        <set attributeName="fill" to="#808080" begin="arrowRight.mouseover" end="arrowRight.mouseout"/>
                  </use>
                  <path fill="none" stroke="white" stroke-width="1.5" d="M0,-3.0v7 M-2.5,-0.5L0,-3.0L2.5,-0.5"/>
                </g>
                <g id="arrowDown" xlink:href="#dirArrow" transform="rotate(180) translate(-30 -48)" onmousedown="handlePan(0,1)">
                  <use xlink:href="#rim" fill="#404040">
                        <set attributeName="fill" to="#808080" begin="arrowDown.mouseover" end="arrowDown.mouseout"/>
                  </use>
                  <path fill="none" stroke="white" stroke-width="1.5" d="M0,-3.0v7 M-2.5,-0.5L0,-3.0L2.5,-0.5"/>
                </g>
                <g id="arrowLeft" xlink:href="#dirArrow" transform="rotate(270) translate(-36 17)" onmousedown="handlePan(-1,0)">
                  <use xlink:href="#rim" fill="#404040">
                        <set attributeName="fill" to="#808080" begin="arrowLeft.mouseover" end="arrowLeft.mouseout"/>
                  </use>
                  <path fill="none" stroke="white" stroke-width="1.5" d="M0,-3.0v7 M-2.5,-0.5L0,-3.0L2.5,-0.5"/>
                </g>
        </g>
        <svg viewBox="0 0 15 15" width="100%" height="30px" preserveAspectRatio="xMaxYMin meet">
         <g id="arrow_out" transform="scale(0.3 0.3)">
          <a xlink:href="structaltintegration_1_1PopPayouts__coll__graph_org.svg" target="_base">
           <rect id="button" ry="5" rx="5" y="6" x="6" height="38" width="38"
                fill="#f2f5e9" fill-opacity="0.5" stroke="#606060" stroke-width="1.0"/>
           <path id="arrow"
             d="M 11.500037,31.436501 C 11.940474,20.09759 22.043105,11.32322 32.158766,21.979434 L 37.068811,17.246167 C 37.068811,17.246167 37.088388,32 37.088388,32 L 22.160133,31.978069 C 22.160133,31.978069 26.997745,27.140456 26.997745,27.140456 C 18.528582,18.264221 13.291696,25.230495 11.500037,31.436501 z"
             style="fill:#404040;"/>
          </a>
         </g>
        </svg>
</svg>
