<?xml version="1.0" encoding="UTF-8" standalone="no"?>
<!DOCTYPE svg PUBLIC "-//W3C//DTD SVG 1.1//EN"
 "http://www.w3.org/Graphics/SVG/1.1/DTD/svg11.dtd">
<!-- Generated by graphviz version 3.0.0 (20220413.0242)
 -->
<!-- Title: altintegration::btc::Block Pages: 1 -->
<!--zoomable 1624 -->
<svg id="main" version="1.1" xmlns="http://www.w3.org/2000/svg" xmlns:xlink="http://www.w3.org/1999/xlink" xml:space="preserve" onload="init(evt)">
<style type="text/css"><![CDATA[
.edge:hover path { stroke: red; }
.edge:hover polygon { stroke: red; fill: red; }
]]></style>
<script type="text/javascript"><![CDATA[
var edges = document.getElementsByTagName('g');
if (edges && edges.length) {
  for (var i=0;i<edges.length;i++) {
    if (edges[i].id.substr(0,4)=='edge') {
      edges[i].setAttribute('class','edge');
    }
  }
}
]]></script>
        <defs>
                <circle id="rim" cx="0" cy="0" r="7"/>
                <circle id="rim2" cx="0" cy="0" r="3.5"/>
                <g id="zoomPlus">
                        <use xlink:href="#rim" fill="#404040">
                                <set attributeName="fill" to="#808080" begin="zoomplus.mouseover" end="zoomplus.mouseout"/>
                        </use>
                        <path d="M-4,0h8M0,-4v8" fill="none" stroke="white" stroke-width="1.5" pointer-events="none"/>
                </g>
                <g id="zoomMin">
                        <use xlink:href="#rim" fill="#404040">
                                <set attributeName="fill" to="#808080" begin="zoomminus.mouseover" end="zoomminus.mouseout"/>
                        </use>
                        <path d="M-4,0h8" fill="none" stroke="white" stroke-width="1.5" pointer-events="none"/>
                </g>
                <g id="dirArrow">
                        <path fill="none" stroke="white" stroke-width="1.5" d="M0,-3.0v7 M-2.5,-0.5L0,-3.0L2.5,-0.5"/>
                </g>
               <g id="resetDef">
                       <use xlink:href="#rim2" fill="#404040">
                               <set attributeName="fill" to="#808080" begin="reset.mouseover" end="reset.mouseout"/>
                       </use>
               </g>
        </defs>

<script type="text/javascript">
var viewWidth = 1073;
var viewHeight = 1624;
var sectionId = 'dynsection-1';
</script>
<script xlink:href="svgpan.js"/>
<svg id="graph" class="graph">
<g id="viewport">
<title>altintegration::btc::Block</title>
<polygon fill="white" stroke="transparent" points="-4,4 -4,-1620 1068.5,-1620 1068.5,4 -4,4"/>
<!-- Node1 -->
<g id="node1" class="node">
<title>Node1</title>
<g id="a_node1"><a xlink:title=" ">
<polygon fill="#bfbfbf" stroke="black" points="573,-0.5 573,-90.5 728,-90.5 728,-0.5 573,-0.5"/>
<text text-anchor="start" x="581" y="-78.5" font-family="Helvetica,sans-Serif" font-size="10.00">altintegration::btc</text>
<text text-anchor="middle" x="650.5" y="-67.5" font-family="Helvetica,sans-Serif" font-size="10.00">::Block</text>
<polyline fill="none" stroke="black" points="573,-60.5 728,-60.5 "/>
<text text-anchor="start" x="581" y="-48.5" font-family="Helvetica,sans-Serif" font-size="10.00">+ ADD_SERIALIZE_METHODS</text>
<polyline fill="none" stroke="black" points="573,-41.5 728,-41.5 "/>
<text text-anchor="start" x="581" y="-29.5" font-family="Helvetica,sans-Serif" font-size="10.00">+ Block()</text>
<text text-anchor="start" x="581" y="-18.5" font-family="Helvetica,sans-Serif" font-size="10.00">+ Block()</text>
<text text-anchor="start" x="581" y="-7.5" font-family="Helvetica,sans-Serif" font-size="10.00">+ SerializationOp()</text>
</a>
</g>
</g>
<!-- Node2 -->
<g id="node2" class="node">
<title>Node2</title>
<g id="a_node2"><a xlink:href="structaltintegration_1_1btc_1_1BlockHeader.html" target="_top" xlink:title=" ">
<polygon fill="white" stroke="#bfbfbf" points="320,-490.5 320,-580.5 475,-580.5 475,-490.5 320,-490.5"/>
<text text-anchor="start" x="328" y="-568.5" font-family="Helvetica,sans-Serif" font-size="10.00">altintegration::btc</text>
<text text-anchor="middle" x="397.5" y="-557.5" font-family="Helvetica,sans-Serif" font-size="10.00">::BlockHeader</text>
<polyline fill="none" stroke="#bfbfbf" points="320,-550.5 475,-550.5 "/>
<text text-anchor="start" x="328" y="-538.5" font-family="Helvetica,sans-Serif" font-size="10.00">+ ADD_SERIALIZE_METHODS</text>
<polyline fill="none" stroke="#bfbfbf" points="320,-531.5 475,-531.5 "/>
<text text-anchor="start" x="328" y="-519.5" font-family="Helvetica,sans-Serif" font-size="10.00">+ BlockHeader()</text>
<text text-anchor="start" x="328" y="-508.5" font-family="Helvetica,sans-Serif" font-size="10.00">+ BlockHeader()</text>
<text text-anchor="start" x="328" y="-497.5" font-family="Helvetica,sans-Serif" font-size="10.00">+ SerializationOp()</text>
</a>
</g>
</g>
<!-- Node2&#45;&gt;Node1 -->
<g id="edge1" class="edge">
<title>Node2&#45;&gt;Node1</title>
<path fill="none" stroke="midnightblue" d="M484.54,-496.67C552.15,-464.41 634.5,-417.52 634.5,-380.5 634.5,-380.5 634.5,-380.5 634.5,-171.5 634.5,-144.48 638.22,-114.44 642.08,-90.58"/>
<polygon fill="none" stroke="midnightblue" points="482.65,-493.68 475.1,-501.12 485.64,-500.01 482.65,-493.68"/>
</g>
<!-- Node3 -->
<g id="node3" class="node">
<title>Node3</title>
<g id="a_node3"><a xlink:href="structaltintegration_1_1BtcBlock.html" target="_top" xlink:title="Bitcoin block.">
<polygon fill="white" stroke="black" points="50.5,-726.5 50.5,-948.5 166.5,-948.5 166.5,-726.5 50.5,-726.5"/>
<text text-anchor="middle" x="108.5" y="-936.5" font-family="Helvetica,sans-Serif" font-size="10.00">altintegration::BtcBlock</text>
<polyline fill="none" stroke="black" points="50.5,-929.5 166.5,-929.5 "/>
<text text-anchor="start" x="58.5" y="-917.5" font-family="Helvetica,sans-Serif" font-size="10.00"># version</text>
<text text-anchor="start" x="58.5" y="-906.5" font-family="Helvetica,sans-Serif" font-size="10.00"># timestamp</text>
<text text-anchor="start" x="58.5" y="-895.5" font-family="Helvetica,sans-Serif" font-size="10.00"># bits</text>
<text text-anchor="start" x="58.5" y="-884.5" font-family="Helvetica,sans-Serif" font-size="10.00"># nonce</text>
<polyline fill="none" stroke="black" points="50.5,-877.5 166.5,-877.5 "/>
<text text-anchor="start" x="58.5" y="-865.5" font-family="Helvetica,sans-Serif" font-size="10.00">+ BtcBlock()</text>
<text text-anchor="start" x="58.5" y="-854.5" font-family="Helvetica,sans-Serif" font-size="10.00">+ BtcBlock()</text>
<text text-anchor="start" x="58.5" y="-843.5" font-family="Helvetica,sans-Serif" font-size="10.00">+ toRaw()</text>
<text text-anchor="start" x="58.5" y="-832.5" font-family="Helvetica,sans-Serif" font-size="10.00">+ toVbkEncoding()</text>
<text text-anchor="start" x="58.5" y="-821.5" font-family="Helvetica,sans-Serif" font-size="10.00">+ estimateSize()</text>
<text text-anchor="start" x="58.5" y="-810.5" font-family="Helvetica,sans-Serif" font-size="10.00">+ calculateHash()</text>
<text text-anchor="start" x="58.5" y="-799.5" font-family="Helvetica,sans-Serif" font-size="10.00">+ getHash()</text>
<text text-anchor="start" x="58.5" y="-788.5" font-family="Helvetica,sans-Serif" font-size="10.00">+ toPrettyString()</text>
<text text-anchor="start" x="58.5" y="-777.5" font-family="Helvetica,sans-Serif" font-size="10.00">+ getVersion()</text>
<text text-anchor="start" x="58.5" y="-766.5" font-family="Helvetica,sans-Serif" font-size="10.00">+ getPreviousBlock()</text>
<text text-anchor="start" x="58.5" y="-755.5" font-family="Helvetica,sans-Serif" font-size="10.00">and 10 more...</text>
<text text-anchor="start" x="58.5" y="-744.5" font-family="Helvetica,sans-Serif" font-size="10.00">+ name()</text>
<text text-anchor="start" x="58.5" y="-733.5" font-family="Helvetica,sans-Serif" font-size="10.00"># invalidateHash()</text>
</a>
</g>
</g>
<!-- Node3&#45;&gt;Node2 -->
<g id="edge2" class="edge">
<title>Node3&#45;&gt;Node2</title>
<path fill="none" stroke="midnightblue" d="M173.05,-730.13C174.19,-728.73 175.34,-727.35 176.5,-726 224.26,-670.08 289.12,-616.51 336.21,-580.68"/>
<polygon fill="none" stroke="midnightblue" points="170.04,-728.29 166.59,-738.31 175.53,-732.63 170.04,-728.29"/>
</g>
<!-- Node4 -->
<g id="node4" class="node">
<title>Node4</title>
<g id="a_node4"><a xlink:title=" ">
<polygon fill="white" stroke="black" points="17,-1095.5 17,-1152.5 76,-1152.5 76,-1095.5 17,-1095.5"/>
<text text-anchor="middle" x="46.5" y="-1140.5" font-family="Helvetica,sans-Serif" font-size="10.00">std::string</text>
<polyline fill="none" stroke="black" points="17,-1133.5 76,-1133.5 "/>
<text text-anchor="middle" x="46.5" y="-1121.5" font-family="Helvetica,sans-Serif" font-size="10.00"> </text>
<polyline fill="none" stroke="black" points="17,-1114.5 76,-1114.5 "/>
<text text-anchor="middle" x="46.5" y="-1102.5" font-family="Helvetica,sans-Serif" font-size="10.00"> </text>
</a>
</g>
</g>
<!-- Node4&#45;&gt;Node3 -->
<g id="edge3" class="edge">
<title>Node4&#45;&gt;Node3</title>
<path fill="none" stroke="#404040" d="M47.04,-1095.33C48.14,-1063.88 51.47,-1011.18 61.5,-967 61.99,-964.84 62.51,-962.66 63.05,-960.47"/>
<polygon fill="none" stroke="#404040" points="63.09,-960.31 60.76,-953.48 66.17,-948.71 68.5,-955.53 63.09,-960.31"/>
<text text-anchor="middle" x="80" y="-975.5" font-family="Helvetica,sans-Serif" font-size="10.00"> #_name</text>
</g>
<!-- Node5 -->
<g id="node5" class="node">
<title>Node5</title>
<g id="a_node5"><a xlink:title=" ">
<polygon fill="white" stroke="black" points="0,-1365.5 0,-1433.5 93,-1433.5 93,-1365.5 0,-1365.5"/>
<text text-anchor="start" x="8" y="-1421.5" font-family="Helvetica,sans-Serif" font-size="10.00">std::basic_string&lt;</text>
<text text-anchor="middle" x="46.5" y="-1410.5" font-family="Helvetica,sans-Serif" font-size="10.00"> Char &gt;</text>
<polyline fill="none" stroke="black" points="0,-1403.5 93,-1403.5 "/>
<text text-anchor="middle" x="46.5" y="-1391.5" font-family="Helvetica,sans-Serif" font-size="10.00"> </text>
<polyline fill="none" stroke="black" points="0,-1384.5 93,-1384.5 "/>
<text text-anchor="middle" x="46.5" y="-1372.5" font-family="Helvetica,sans-Serif" font-size="10.00"> </text>
</a>
</g>
</g>
<!-- Node5&#45;&gt;Node4 -->
<g id="edge4" class="edge">
<title>Node5&#45;&gt;Node4</title>
<path fill="none" stroke="midnightblue" d="M46.5,-1355.13C46.5,-1298.32 46.5,-1200.36 46.5,-1152.68"/>
<polygon fill="none" stroke="midnightblue" points="43,-1355.24 46.5,-1365.24 50,-1355.24 43,-1355.24"/>
</g>
<!-- Node6 -->
<g id="node6" class="node">
<title>Node6</title>
<g id="a_node6"><a xlink:href="structaltintegration_1_1Blob.html" target="_top" xlink:title=" ">
<polygon fill="white" stroke="black" points="165,-1007.5 165,-1240.5 296,-1240.5 296,-1007.5 165,-1007.5"/>
<text text-anchor="start" x="173" y="-1228.5" font-family="Helvetica,sans-Serif" font-size="10.00">altintegration::Blob</text>
<text text-anchor="middle" x="230.5" y="-1217.5" font-family="Helvetica,sans-Serif" font-size="10.00">&lt; SHA256_HASH_SIZE &gt;</text>
<polyline fill="none" stroke="black" points="165,-1210.5 296,-1210.5 "/>
<text text-anchor="start" x="173" y="-1198.5" font-family="Helvetica,sans-Serif" font-size="10.00">+ data_</text>
<text text-anchor="start" x="173" y="-1187.5" font-family="Helvetica,sans-Serif" font-size="10.00">+ this</text>
<polyline fill="none" stroke="black" points="165,-1180.5 296,-1180.5 "/>
<text text-anchor="start" x="173" y="-1168.5" font-family="Helvetica,sans-Serif" font-size="10.00">+ Blob()</text>
<text text-anchor="start" x="173" y="-1157.5" font-family="Helvetica,sans-Serif" font-size="10.00">+ Blob()</text>
<text text-anchor="start" x="173" y="-1146.5" font-family="Helvetica,sans-Serif" font-size="10.00">+ Blob()</text>
<text text-anchor="start" x="173" y="-1135.5" font-family="Helvetica,sans-Serif" font-size="10.00">+ Blob()</text>
<text text-anchor="start" x="173" y="-1124.5" font-family="Helvetica,sans-Serif" font-size="10.00">+ Blob()</text>
<text text-anchor="start" x="173" y="-1113.5" font-family="Helvetica,sans-Serif" font-size="10.00">+ operator std::vector</text>
<text text-anchor="start" x="173" y="-1102.5" font-family="Helvetica,sans-Serif" font-size="10.00">&lt; uint8_t &gt;()</text>
<text text-anchor="start" x="173" y="-1091.5" font-family="Helvetica,sans-Serif" font-size="10.00">+ fill()</text>
<text text-anchor="start" x="173" y="-1080.5" font-family="Helvetica,sans-Serif" font-size="10.00">+ begin()</text>
<text text-anchor="start" x="173" y="-1069.5" font-family="Helvetica,sans-Serif" font-size="10.00">+ begin()</text>
<text text-anchor="start" x="173" y="-1058.5" font-family="Helvetica,sans-Serif" font-size="10.00">+ end()</text>
<text text-anchor="start" x="173" y="-1047.5" font-family="Helvetica,sans-Serif" font-size="10.00">and 20 more...</text>
<text text-anchor="start" x="173" y="-1036.5" font-family="Helvetica,sans-Serif" font-size="10.00">+ size()</text>
<text text-anchor="start" x="173" y="-1025.5" font-family="Helvetica,sans-Serif" font-size="10.00">+ fromHex()</text>
<text text-anchor="start" x="173" y="-1014.5" font-family="Helvetica,sans-Serif" font-size="10.00">+ assertFromHex()</text>
</a>
</g>
</g>
<!-- Node6&#45;&gt;Node3 -->
<g id="edge5" class="edge">
<title>Node6&#45;&gt;Node3</title>
<path fill="none" stroke="#404040" d="M180.88,-1007.28C174.19,-991.69 167.31,-975.65 160.58,-959.95"/>
<polygon fill="none" stroke="#404040" points="160.44,-959.63 154.4,-955.69 155.71,-948.6 161.75,-952.53 160.44,-959.63"/>
<text text-anchor="middle" x="203" y="-981" font-family="Helvetica,sans-Serif" font-size="10.00"> #merkleRoot</text>
<text text-anchor="middle" x="203" y="-970" font-family="Helvetica,sans-Serif" font-size="10.00">#previousBlock</text>
</g>
<!-- Node12 -->
<g id="node12" class="node">
<title>Node12</title>
<g id="a_node12"><a xlink:href="structaltintegration_1_1btc_1_1OutPoint.html" target="_top" xlink:title="An outpoint &#45; a combination of a transaction hash and an index n into its vout.">
<polygon fill="white" stroke="black" points="185,-798 185,-877 340,-877 340,-798 185,-798"/>
<text text-anchor="start" x="193" y="-865" font-family="Helvetica,sans-Serif" font-size="10.00">altintegration::btc</text>
<text text-anchor="middle" x="262.5" y="-854" font-family="Helvetica,sans-Serif" font-size="10.00">::OutPoint</text>
<polyline fill="none" stroke="black" points="185,-847 340,-847 "/>
<text text-anchor="start" x="193" y="-835" font-family="Helvetica,sans-Serif" font-size="10.00">+ n</text>
<text text-anchor="start" x="193" y="-824" font-family="Helvetica,sans-Serif" font-size="10.00">+ ADD_SERIALIZE_METHODS</text>
<polyline fill="none" stroke="black" points="185,-817 340,-817 "/>
<text text-anchor="start" x="193" y="-805" font-family="Helvetica,sans-Serif" font-size="10.00">+ SerializationOp()</text>
</a>
</g>
</g>
<!-- Node6&#45;&gt;Node12 -->
<g id="edge13" class="edge">
<title>Node6&#45;&gt;Node12</title>
<path fill="none" stroke="#404040" d="M243.52,-1007.28C248.13,-966.22 253.1,-922.11 256.79,-889.28"/>
<polygon fill="none" stroke="#404040" points="256.8,-889.2 253.49,-882.79 258.14,-877.28 261.44,-883.69 256.8,-889.2"/>
<text text-anchor="middle" x="261.5" y="-975.5" font-family="Helvetica,sans-Serif" font-size="10.00"> +hash</text>
</g>
<!-- Node7 -->
<g id="node7" class="node">
<title>Node7</title>
<g id="a_node7"><a xlink:href="structaltintegration_1_1Blob.html" target="_top" xlink:title="Contiguous byte array of fixed size.">
<polygon fill="white" stroke="black" points="140.5,-1288.5 140.5,-1510.5 260.5,-1510.5 260.5,-1288.5 140.5,-1288.5"/>
<text text-anchor="middle" x="200.5" y="-1498.5" font-family="Helvetica,sans-Serif" font-size="10.00">altintegration::Blob&lt; N &gt;</text>
<polyline fill="none" stroke="black" points="140.5,-1491.5 260.5,-1491.5 "/>
<text text-anchor="start" x="148.5" y="-1479.5" font-family="Helvetica,sans-Serif" font-size="10.00">+ data_</text>
<text text-anchor="start" x="148.5" y="-1468.5" font-family="Helvetica,sans-Serif" font-size="10.00">+ this</text>
<polyline fill="none" stroke="black" points="140.5,-1461.5 260.5,-1461.5 "/>
<text text-anchor="start" x="148.5" y="-1449.5" font-family="Helvetica,sans-Serif" font-size="10.00">+ Blob()</text>
<text text-anchor="start" x="148.5" y="-1438.5" font-family="Helvetica,sans-Serif" font-size="10.00">+ Blob()</text>
<text text-anchor="start" x="148.5" y="-1427.5" font-family="Helvetica,sans-Serif" font-size="10.00">+ Blob()</text>
<text text-anchor="start" x="148.5" y="-1416.5" font-family="Helvetica,sans-Serif" font-size="10.00">+ Blob()</text>
<text text-anchor="start" x="148.5" y="-1405.5" font-family="Helvetica,sans-Serif" font-size="10.00">+ Blob()</text>
<text text-anchor="start" x="148.5" y="-1394.5" font-family="Helvetica,sans-Serif" font-size="10.00">+ operator std::vector</text>
<text text-anchor="start" x="148.5" y="-1383.5" font-family="Helvetica,sans-Serif" font-size="10.00">&lt; uint8_t &gt;()</text>
<text text-anchor="start" x="148.5" y="-1372.5" font-family="Helvetica,sans-Serif" font-size="10.00">+ fill()</text>
<text text-anchor="start" x="148.5" y="-1361.5" font-family="Helvetica,sans-Serif" font-size="10.00">+ begin()</text>
<text text-anchor="start" x="148.5" y="-1350.5" font-family="Helvetica,sans-Serif" font-size="10.00">+ begin()</text>
<text text-anchor="start" x="148.5" y="-1339.5" font-family="Helvetica,sans-Serif" font-size="10.00">+ end()</text>
<text text-anchor="start" x="148.5" y="-1328.5" font-family="Helvetica,sans-Serif" font-size="10.00">and 20 more...</text>
<text text-anchor="start" x="148.5" y="-1317.5" font-family="Helvetica,sans-Serif" font-size="10.00">+ size()</text>
<text text-anchor="start" x="148.5" y="-1306.5" font-family="Helvetica,sans-Serif" font-size="10.00">+ fromHex()</text>
<text text-anchor="start" x="148.5" y="-1295.5" font-family="Helvetica,sans-Serif" font-size="10.00">+ assertFromHex()</text>
</a>
</g>
</g>
<!-- Node7&#45;&gt;Node3 -->
<g id="edge7" class="edge">
<title>Node7&#45;&gt;Node3</title>
<path fill="none" stroke="#404040" d="M140.43,-1294.18C132.75,-1276.89 126.02,-1258.79 121.5,-1241 108.54,-1189.93 106.33,-1059.49 106.71,-960.83"/>
<polygon fill="none" stroke="#404040" points="106.71,-960.66 102.74,-954.64 106.77,-948.66 110.74,-954.68 106.71,-960.66"/>
<text text-anchor="middle" x="138.5" y="-1121.5" font-family="Helvetica,sans-Serif" font-size="10.00"> #hash_</text>
</g>
<!-- Node7&#45;&gt;Node6 -->
<g id="edge6" class="edge">
<title>Node7&#45;&gt;Node6</title>
<path fill="none" stroke="orange" d="M213.67,-1278.43C215.05,-1265.88 216.44,-1253.14 217.82,-1240.64"/>
<polygon fill="orange" stroke="orange" points="210.18,-1278.12 212.57,-1288.44 217.14,-1278.88 210.18,-1278.12"/>
<text text-anchor="middle" x="274" y="-1262" font-family="Helvetica,sans-Serif" font-size="10.00"> &lt; SHA256_HASH_SIZE &gt;</text>
</g>
<!-- Node8 -->
<g id="node8" class="node">
<title>Node8</title>
<g id="a_node8"><a xlink:title=" ">
<polygon fill="white" stroke="black" points="765,-138.5 765,-206.5 890,-206.5 890,-138.5 765,-138.5"/>
<text text-anchor="start" x="773" y="-194.5" font-family="Helvetica,sans-Serif" font-size="10.00">std::vector&lt; altintegration</text>
<text text-anchor="middle" x="827.5" y="-183.5" font-family="Helvetica,sans-Serif" font-size="10.00">::btc::Transaction &gt;</text>
<polyline fill="none" stroke="black" points="765,-176.5 890,-176.5 "/>
<text text-anchor="middle" x="827.5" y="-164.5" font-family="Helvetica,sans-Serif" font-size="10.00"> </text>
<polyline fill="none" stroke="black" points="765,-157.5 890,-157.5 "/>
<text text-anchor="middle" x="827.5" y="-145.5" font-family="Helvetica,sans-Serif" font-size="10.00"> </text>
</a>
</g>
</g>
<!-- Node8&#45;&gt;Node1 -->
<g id="edge8" class="edge">
<title>Node8&#45;&gt;Node1</title>
<path fill="none" stroke="#404040" d="M780.53,-138.33C762.91,-125.89 742.46,-111.44 723.06,-97.74"/>
<polygon fill="none" stroke="#404040" points="722.83,-97.58 715.62,-97.39 713.03,-90.66 720.24,-90.85 722.83,-97.58"/>
<text text-anchor="middle" x="760.5" y="-112" font-family="Helvetica,sans-Serif" font-size="10.00"> +vtx</text>
</g>
<!-- Node9 -->
<g id="node9" class="node">
<title>Node9</title>
<g id="a_node9"><a xlink:href="structaltintegration_1_1btc_1_1Transaction.html" target="_top" xlink:title="The basic transaction that is broadcasted on the network and contained in blocks.">
<polygon fill="white" stroke="black" points="782.5,-254.5 782.5,-355.5 872.5,-355.5 872.5,-254.5 782.5,-254.5"/>
<text text-anchor="start" x="790.5" y="-343.5" font-family="Helvetica,sans-Serif" font-size="10.00">altintegration::btc</text>
<text text-anchor="middle" x="827.5" y="-332.5" font-family="Helvetica,sans-Serif" font-size="10.00">::Transaction</text>
<polyline fill="none" stroke="black" points="782.5,-325.5 872.5,-325.5 "/>
<text text-anchor="start" x="790.5" y="-313.5" font-family="Helvetica,sans-Serif" font-size="10.00">+ nVersion</text>
<text text-anchor="start" x="790.5" y="-302.5" font-family="Helvetica,sans-Serif" font-size="10.00">+ nLockTime</text>
<polyline fill="none" stroke="black" points="782.5,-295.5 872.5,-295.5 "/>
<text text-anchor="start" x="790.5" y="-283.5" font-family="Helvetica,sans-Serif" font-size="10.00">+ Serialize()</text>
<text text-anchor="start" x="790.5" y="-272.5" font-family="Helvetica,sans-Serif" font-size="10.00">+ Unserialize()</text>
<text text-anchor="start" x="790.5" y="-261.5" font-family="Helvetica,sans-Serif" font-size="10.00">+ HasWitness()</text>
</a>
</g>
</g>
<!-- Node9&#45;&gt;Node8 -->
<g id="edge9" class="edge">
<title>Node9&#45;&gt;Node8</title>
<path fill="none" stroke="#404040" d="M827.5,-254.29C827.5,-242.55 827.5,-230.09 827.5,-218.57"/>
<polygon fill="none" stroke="#404040" points="827.5,-218.51 823.5,-212.51 827.5,-206.51 831.5,-212.51 827.5,-218.51"/>
<text text-anchor="middle" x="852" y="-228" font-family="Helvetica,sans-Serif" font-size="10.00"> +elements</text>
</g>
<!-- Node10 -->
<g id="node10" class="node">
<title>Node10</title>
<g id="a_node10"><a xlink:title=" ">
<polygon fill="white" stroke="black" points="700,-403.5 700,-471.5 825,-471.5 825,-403.5 700,-403.5"/>
<text text-anchor="start" x="708" y="-459.5" font-family="Helvetica,sans-Serif" font-size="10.00">std::vector&lt; altintegration</text>
<text text-anchor="middle" x="762.5" y="-448.5" font-family="Helvetica,sans-Serif" font-size="10.00">::btc::TxIn &gt;</text>
<polyline fill="none" stroke="black" points="700,-441.5 825,-441.5 "/>
<text text-anchor="middle" x="762.5" y="-429.5" font-family="Helvetica,sans-Serif" font-size="10.00"> </text>
<polyline fill="none" stroke="black" points="700,-422.5 825,-422.5 "/>
<text text-anchor="middle" x="762.5" y="-410.5" font-family="Helvetica,sans-Serif" font-size="10.00"> </text>
</a>
</g>
</g>
<!-- Node10&#45;&gt;Node9 -->
<g id="edge10" class="edge">
<title>Node10&#45;&gt;Node9</title>
<path fill="none" stroke="#404040" d="M779.07,-403.23C784.6,-392.13 790.94,-379.4 797.18,-366.88"/>
<polygon fill="none" stroke="#404040" points="797.26,-366.72 796.35,-359.56 802.61,-355.98 803.51,-363.13 797.26,-366.72"/>
<text text-anchor="middle" x="803.5" y="-377" font-family="Helvetica,sans-Serif" font-size="10.00"> +vin</text>
</g>
<!-- Node11 -->
<g id="node11" class="node">
<title>Node11</title>
<g id="a_node11"><a xlink:href="structaltintegration_1_1btc_1_1TxIn.html" target="_top" xlink:title="An input of a transaction.">
<polygon fill="white" stroke="black" points="388,-599.5 388,-678.5 543,-678.5 543,-599.5 388,-599.5"/>
<text text-anchor="start" x="396" y="-666.5" font-family="Helvetica,sans-Serif" font-size="10.00">altintegration::btc</text>
<text text-anchor="middle" x="465.5" y="-655.5" font-family="Helvetica,sans-Serif" font-size="10.00">::TxIn</text>
<polyline fill="none" stroke="black" points="388,-648.5 543,-648.5 "/>
<text text-anchor="start" x="396" y="-636.5" font-family="Helvetica,sans-Serif" font-size="10.00">+ nSequence</text>
<text text-anchor="start" x="396" y="-625.5" font-family="Helvetica,sans-Serif" font-size="10.00">+ ADD_SERIALIZE_METHODS</text>
<polyline fill="none" stroke="black" points="388,-618.5 543,-618.5 "/>
<text text-anchor="start" x="396" y="-606.5" font-family="Helvetica,sans-Serif" font-size="10.00">+ SerializationOp()</text>
</a>
</g>
</g>
<!-- Node11&#45;&gt;Node10 -->
<g id="edge11" class="edge">
<title>Node11&#45;&gt;Node10</title>
<path fill="none" stroke="#404040" d="M523.12,-599.3C574.83,-564.56 650.44,-513.77 702.79,-478.61"/>
<polygon fill="none" stroke="#404040" points="702.97,-478.49 705.72,-471.82 712.93,-471.8 710.18,-478.46 702.97,-478.49"/>
<text text-anchor="middle" x="707" y="-533" font-family="Helvetica,sans-Serif" font-size="10.00"> +elements</text>
</g>
<!-- Node12&#45;&gt;Node11 -->
<g id="edge12" class="edge">
<title>Node12&#45;&gt;Node11</title>
<path fill="none" stroke="#404040" d="M288.36,-797.75C309.88,-767.59 342.7,-726.11 378.5,-697 383.2,-693.18 388.15,-689.39 393.22,-685.67"/>
<polygon fill="none" stroke="#404040" points="393.3,-685.62 395.86,-678.88 403.07,-678.65 400.51,-685.39 393.3,-685.62"/>
<text text-anchor="middle" x="399" y="-700" font-family="Helvetica,sans-Serif" font-size="10.00"> +prevout</text>
</g>
<!-- Node13 -->
<g id="node13" class="node">
<title>Node13</title>
<g id="a_node13"><a xlink:title=" ">
<polygon fill="white" stroke="black" points="537,-1095.5 537,-1152.5 644,-1152.5 644,-1095.5 537,-1095.5"/>
<text text-anchor="middle" x="590.5" y="-1140.5" font-family="Helvetica,sans-Serif" font-size="10.00">std::vector&lt; uint8_t &gt;</text>
<polyline fill="none" stroke="black" points="537,-1133.5 644,-1133.5 "/>
<text text-anchor="start" x="545" y="-1121.5" font-family="Helvetica,sans-Serif" font-size="10.00">+ elements</text>
<polyline fill="none" stroke="black" points="537,-1114.5 644,-1114.5 "/>
<text text-anchor="middle" x="590.5" y="-1102.5" font-family="Helvetica,sans-Serif" font-size="10.00"> </text>
</a>
</g>
</g>
<!-- Node13&#45;&gt;Node11 -->
<g id="edge14" class="edge">
<title>Node13&#45;&gt;Node11</title>
<path fill="none" stroke="#404040" d="M576.18,-1095.22C559.55,-1061.57 532.71,-1002.7 519.5,-949 492.63,-839.75 527.64,-804.82 495.5,-697 494.79,-694.61 493.97,-692.21 493.08,-689.81"/>
<polygon fill="none" stroke="#404040" points="493.06,-689.77 487.04,-685.79 488.4,-678.71 494.42,-682.68 493.06,-689.77"/>
<text text-anchor="middle" x="543" y="-835" font-family="Helvetica,sans-Serif" font-size="10.00"> +scriptSig</text>
</g>
<!-- Node16 -->
<g id="node16" class="node">
<title>Node16</title>
<g id="a_node16"><a xlink:title=" ">
<polygon fill="white" stroke="black" points="358,-803.5 358,-871.5 473,-871.5 473,-803.5 358,-803.5"/>
<text text-anchor="start" x="366" y="-859.5" font-family="Helvetica,sans-Serif" font-size="10.00">std::vector&lt; std::vector</text>
<text text-anchor="middle" x="415.5" y="-848.5" font-family="Helvetica,sans-Serif" font-size="10.00">&lt; uint8_t &gt; &gt;</text>
<polyline fill="none" stroke="black" points="358,-841.5 473,-841.5 "/>
<text text-anchor="middle" x="415.5" y="-829.5" font-family="Helvetica,sans-Serif" font-size="10.00"> </text>
<polyline fill="none" stroke="black" points="358,-822.5 473,-822.5 "/>
<text text-anchor="middle" x="415.5" y="-810.5" font-family="Helvetica,sans-Serif" font-size="10.00"> </text>
</a>
</g>
</g>
<!-- Node13&#45;&gt;Node16 -->
<g id="edge18" class="edge">
<title>Node13&#45;&gt;Node16</title>
<path fill="none" stroke="#404040" d="M575.75,-1095.21C560.46,-1068.94 534.23,-1030.18 501.5,-1007 480.51,-992.13 463.63,-1008.19 446.5,-989 421.06,-960.5 414.38,-916.79 413.43,-883.81"/>
<polygon fill="none" stroke="#404040" points="413.43,-883.74 409.38,-877.78 413.32,-871.75 417.38,-877.71 413.43,-883.74"/>
<text text-anchor="middle" x="471" y="-975.5" font-family="Helvetica,sans-Serif" font-size="10.00"> +elements</text>
</g>
<!-- Node18 -->
<g id="node18" class="node">
<title>Node18</title>
<g id="a_node18"><a xlink:href="structaltintegration_1_1btc_1_1TxOut.html" target="_top" xlink:title="An output of a transaction.">
<polygon fill="white" stroke="black" points="575,-798 575,-877 730,-877 730,-798 575,-798"/>
<text text-anchor="start" x="583" y="-865" font-family="Helvetica,sans-Serif" font-size="10.00">altintegration::btc</text>
<text text-anchor="middle" x="652.5" y="-854" font-family="Helvetica,sans-Serif" font-size="10.00">::TxOut</text>
<polyline fill="none" stroke="black" points="575,-847 730,-847 "/>
<text text-anchor="start" x="583" y="-835" font-family="Helvetica,sans-Serif" font-size="10.00">+ nValue</text>
<text text-anchor="start" x="583" y="-824" font-family="Helvetica,sans-Serif" font-size="10.00">+ ADD_SERIALIZE_METHODS</text>
<polyline fill="none" stroke="black" points="575,-817 730,-817 "/>
<text text-anchor="start" x="583" y="-805" font-family="Helvetica,sans-Serif" font-size="10.00">+ SerializationOp()</text>
</a>
</g>
</g>
<!-- Node13&#45;&gt;Node18 -->
<g id="edge23" class="edge">
<title>Node13&#45;&gt;Node18</title>
<path fill="none" stroke="#404040" d="M596.5,-1095.46C606.88,-1047.84 628.32,-949.44 641.46,-889.18"/>
<polygon fill="none" stroke="#404040" points="641.49,-889.02 638.86,-882.31 644.05,-877.3 646.68,-884.01 641.49,-889.02"/>
<text text-anchor="middle" x="656" y="-975.5" font-family="Helvetica,sans-Serif" font-size="10.00"> +scriptPubKey</text>
</g>
<!-- Node14 -->
<g id="node14" class="node">
<title>Node14</title>
<g id="a_node14"><a xlink:title=" ">
<polygon fill="white" stroke="black" points="724.5,-1371 724.5,-1428 808.5,-1428 808.5,-1371 724.5,-1371"/>
<text text-anchor="middle" x="766.5" y="-1416" font-family="Helvetica,sans-Serif" font-size="10.00">std::vector&lt; T &gt;</text>
<polyline fill="none" stroke="black" points="724.5,-1409 808.5,-1409 "/>
<text text-anchor="middle" x="766.5" y="-1397" font-family="Helvetica,sans-Serif" font-size="10.00"> </text>
<polyline fill="none" stroke="black" points="724.5,-1390 808.5,-1390 "/>
<text text-anchor="middle" x="766.5" y="-1378" font-family="Helvetica,sans-Serif" font-size="10.00"> </text>
</a>
</g>
</g>
<!-- Node14&#45;&gt;Node8 -->
<g id="edge25" class="edge">
<title>Node14&#45;&gt;Node8</title>
<path fill="none" stroke="orange" d="M816.83,-1365.42C879.81,-1319.59 979.5,-1230.4 979.5,-1125 979.5,-1125 979.5,-1125 979.5,-304 979.5,-254.26 932.07,-219.37 890.2,-198.26"/>
<polygon fill="orange" stroke="orange" points="814.67,-1362.66 808.58,-1371.33 818.75,-1368.35 814.67,-1362.66"/>
<text text-anchor="start" x="979.5" y="-642" font-family="Helvetica,sans-Serif" font-size="10.00"> &lt; altintegration::btc</text>
<text text-anchor="middle" x="1022" y="-631" font-family="Helvetica,sans-Serif" font-size="10.00">::Transaction &gt;</text>
</g>
<!-- Node14&#45;&gt;Node10 -->
<g id="edge20" class="edge">
<title>Node14&#45;&gt;Node10</title>
<path fill="none" stroke="orange" d="M766.5,-1360.71C766.5,-1307.93 766.5,-1209.18 766.5,-1125 766.5,-1125 766.5,-1125 766.5,-638 766.5,-579.45 764.76,-511.26 763.57,-471.68"/>
<polygon fill="orange" stroke="orange" points="763,-1360.94 766.5,-1370.94 770,-1360.94 763,-1360.94"/>
<text text-anchor="start" x="766.5" y="-840.5" font-family="Helvetica,sans-Serif" font-size="10.00"> &lt; altintegration::btc</text>
<text text-anchor="middle" x="809" y="-829.5" font-family="Helvetica,sans-Serif" font-size="10.00">::TxIn &gt;</text>
</g>
<!-- Node14&#45;&gt;Node13 -->
<g id="edge15" class="edge">
<title>Node14&#45;&gt;Node13</title>
<path fill="none" stroke="orange" d="M743.22,-1362.33C707.63,-1307.02 640.45,-1202.62 608.39,-1152.8"/>
<polygon fill="orange" stroke="orange" points="740.3,-1364.25 748.66,-1370.77 746.19,-1360.47 740.3,-1364.25"/>
<text text-anchor="middle" x="708" y="-1262" font-family="Helvetica,sans-Serif" font-size="10.00"> &lt; uint8_t &gt;</text>
</g>
<!-- Node14&#45;&gt;Node16 -->
<g id="edge19" class="edge">
<title>Node14&#45;&gt;Node16</title>
<path fill="none" stroke="orange" d="M714.34,-1389.66C640.16,-1374.06 506.21,-1334 443.5,-1241 365.37,-1125.14 392.01,-945.42 407.57,-871.73"/>
<polygon fill="orange" stroke="orange" points="713.91,-1393.15 724.4,-1391.71 715.3,-1386.29 713.91,-1393.15"/>
<text text-anchor="start" x="443.5" y="-1127" font-family="Helvetica,sans-Serif" font-size="10.00"> &lt; std::vector&lt; uint8</text>
<text text-anchor="middle" x="486" y="-1116" font-family="Helvetica,sans-Serif" font-size="10.00">_t &gt; &gt;</text>
</g>
<!-- Node17 -->
<g id="node17" class="node">
<title>Node17</title>
<g id="a_node17"><a xlink:title=" ">
<polygon fill="white" stroke="black" points="799,-605 799,-673 924,-673 924,-605 799,-605"/>
<text text-anchor="start" x="807" y="-661" font-family="Helvetica,sans-Serif" font-size="10.00">std::vector&lt; altintegration</text>
<text text-anchor="middle" x="861.5" y="-650" font-family="Helvetica,sans-Serif" font-size="10.00">::btc::TxOut &gt;</text>
<polyline fill="none" stroke="black" points="799,-643 924,-643 "/>
<text text-anchor="middle" x="861.5" y="-631" font-family="Helvetica,sans-Serif" font-size="10.00"> </text>
<polyline fill="none" stroke="black" points="799,-624 924,-624 "/>
<text text-anchor="middle" x="861.5" y="-612" font-family="Helvetica,sans-Serif" font-size="10.00"> </text>
</a>
</g>
</g>
<!-- Node14&#45;&gt;Node17 -->
<g id="edge24" class="edge">
<title>Node14&#45;&gt;Node17</title>
<path fill="none" stroke="orange" d="M776.32,-1360.74C795.79,-1283.89 838.84,-1103.48 855.5,-949 866.29,-848.98 864.49,-729.71 862.76,-673.05"/>
<polygon fill="orange" stroke="orange" points="772.82,-1360.33 773.74,-1370.88 779.6,-1362.06 772.82,-1360.33"/>
<text text-anchor="start" x="852.5" y="-981" font-family="Helvetica,sans-Serif" font-size="10.00"> &lt; altintegration::btc</text>
<text text-anchor="middle" x="895" y="-970" font-family="Helvetica,sans-Serif" font-size="10.00">::TxOut &gt;</text>
</g>
<!-- Node15 -->
<g id="node15" class="node">
<title>Node15</title>
<g id="a_node15"><a xlink:title=" ">
<polygon fill="white" stroke="#bfbfbf" points="752,-1558.5 752,-1615.5 781,-1615.5 781,-1558.5 752,-1558.5"/>
<text text-anchor="middle" x="766.5" y="-1603.5" font-family="Helvetica,sans-Serif" font-size="10.00">T</text>
<polyline fill="none" stroke="#bfbfbf" points="752,-1596.5 781,-1596.5 "/>
<text text-anchor="middle" x="766.5" y="-1584.5" font-family="Helvetica,sans-Serif" font-size="10.00"> </text>
<polyline fill="none" stroke="#bfbfbf" points="752,-1577.5 781,-1577.5 "/>
<text text-anchor="middle" x="766.5" y="-1565.5" font-family="Helvetica,sans-Serif" font-size="10.00"> </text>
</a>
</g>
</g>
<!-- Node15&#45;&gt;Node14 -->
<g id="edge16" class="edge">
<title>Node15&#45;&gt;Node14</title>
<path fill="none" stroke="#404040" d="M766.5,-1558.23C766.5,-1526.99 766.5,-1476 766.5,-1440.48"/>
<polygon fill="none" stroke="#404040" points="766.5,-1440.16 762.5,-1434.16 766.5,-1428.16 770.5,-1434.16 766.5,-1440.16"/>
<text text-anchor="middle" x="791" y="-1532" font-family="Helvetica,sans-Serif" font-size="10.00"> +elements</text>
</g>
<!-- Node16&#45;&gt;Node11 -->
<g id="edge17" class="edge">
<title>Node16&#45;&gt;Node11</title>
<path fill="none" stroke="#404040" d="M413.78,-803.4C413.35,-774.51 415.29,-731.87 427.5,-697 428.39,-694.45 429.43,-691.9 430.57,-689.37"/>
<polygon fill="none" stroke="#404040" points="430.68,-689.16 429.88,-682 436.19,-678.5 436.99,-685.67 430.68,-689.16"/>
<text text-anchor="middle" x="461.5" y="-700" font-family="Helvetica,sans-Serif" font-size="10.00"> +scriptWitness</text>
</g>
<!-- Node17&#45;&gt;Node9 -->
<g id="edge21" class="edge">
<title>Node17&#45;&gt;Node9</title>
<path fill="none" stroke="#404040" d="M858.12,-604.95C852.46,-549.72 841,-437.8 833.82,-367.67"/>
<polygon fill="none" stroke="#404040" points="833.79,-367.45 829.2,-361.88 832.57,-355.51 837.16,-361.07 833.79,-367.45"/>
<text text-anchor="middle" x="858.5" y="-435" font-family="Helvetica,sans-Serif" font-size="10.00"> +vout</text>
</g>
<!-- Node18&#45;&gt;Node17 -->
<g id="edge22" class="edge">
<title>Node18&#45;&gt;Node17</title>
<path fill="none" stroke="#404040" d="M680.85,-797.93C698.05,-775.74 721.14,-747.99 744.5,-726 761.77,-709.74 782.15,-693.82 801.02,-680.18"/>
<polygon fill="none" stroke="#404040" points="801.25,-680.02 803.82,-673.28 811.02,-673.06 808.46,-679.8 801.25,-680.02"/>
<text text-anchor="middle" x="802" y="-700" font-family="Helvetica,sans-Serif" font-size="10.00"> +elements</text>
</g>
</g>
</svg>
        <g id="navigator" transform="translate(0 0)" fill="#404254">
                <rect fill="#f2f5e9" fill-opacity="0.5" stroke="#606060" stroke-width=".5" x="0" y="0" width="60" height="60"/>
                <use id="zoomplus" xlink:href="#zoomPlus" x="17" y="9" onmousedown="handleZoom(evt,'in')"/>
                <use id="zoomminus" xlink:href="#zoomMin" x="42" y="9" onmousedown="handleZoom(evt,'out')"/>
                <use id="reset" xlink:href="#resetDef" x="30" y="36" onmousedown="handleReset()"/>
                <g id="arrowUp" xlink:href="#dirArrow" transform="translate(30 24)" onmousedown="handlePan(0,-1)">
                  <use xlink:href="#rim" fill="#404040">
                        <set attributeName="fill" to="#808080" begin="arrowUp.mouseover" end="arrowUp.mouseout"/>
                  </use>
                  <path fill="none" stroke="white" stroke-width="1.5" d="M0,-3.0v7 M-2.5,-0.5L0,-3.0L2.5,-0.5"/>
                </g>
                <g id="arrowRight" xlink:href="#dirArrow" transform="rotate(90) translate(36 -43)" onmousedown="handlePan(1,0)">
                  <use xlink:href="#rim" fill="#404040">
                        <set attributeName="fill" to="#808080" begin="arrowRight.mouseover" end="arrowRight.mouseout"/>
                  </use>
                  <path fill="none" stroke="white" stroke-width="1.5" d="M0,-3.0v7 M-2.5,-0.5L0,-3.0L2.5,-0.5"/>
                </g>
                <g id="arrowDown" xlink:href="#dirArrow" transform="rotate(180) translate(-30 -48)" onmousedown="handlePan(0,1)">
                  <use xlink:href="#rim" fill="#404040">
                        <set attributeName="fill" to="#808080" begin="arrowDown.mouseover" end="arrowDown.mouseout"/>
                  </use>
                  <path fill="none" stroke="white" stroke-width="1.5" d="M0,-3.0v7 M-2.5,-0.5L0,-3.0L2.5,-0.5"/>
                </g>
                <g id="arrowLeft" xlink:href="#dirArrow" transform="rotate(270) translate(-36 17)" onmousedown="handlePan(-1,0)">
                  <use xlink:href="#rim" fill="#404040">
                        <set attributeName="fill" to="#808080" begin="arrowLeft.mouseover" end="arrowLeft.mouseout"/>
                  </use>
                  <path fill="none" stroke="white" stroke-width="1.5" d="M0,-3.0v7 M-2.5,-0.5L0,-3.0L2.5,-0.5"/>
                </g>
        </g>
        <svg viewBox="0 0 15 15" width="100%" height="30px" preserveAspectRatio="xMaxYMin meet">
         <g id="arrow_out" transform="scale(0.3 0.3)">
          <a xlink:href="structaltintegration_1_1btc_1_1Block__coll__graph_org.svg" target="_base">
           <rect id="button" ry="5" rx="5" y="6" x="6" height="38" width="38"
                fill="#f2f5e9" fill-opacity="0.5" stroke="#606060" stroke-width="1.0"/>
           <path id="arrow"
             d="M 11.500037,31.436501 C 11.940474,20.09759 22.043105,11.32322 32.158766,21.979434 L 37.068811,17.246167 C 37.068811,17.246167 37.088388,32 37.088388,32 L 22.160133,31.978069 C 22.160133,31.978069 26.997745,27.140456 26.997745,27.140456 C 18.528582,18.264221 13.291696,25.230495 11.500037,31.436501 z"
             style="fill:#404040;"/>
          </a>
         </g>
        </svg>
</svg>
