<?xml version="1.0" encoding="UTF-8" standalone="no"?>
<!DOCTYPE svg PUBLIC "-//W3C//DTD SVG 1.1//EN"
 "http://www.w3.org/Graphics/SVG/1.1/DTD/svg11.dtd">
<!-- Generated by graphviz version 3.0.0 (20220413.0242)
 -->
<!-- Title: altintegration::ATV Pages: 1 -->
<!--zoomable 1163 -->
<svg id="main" version="1.1" xmlns="http://www.w3.org/2000/svg" xmlns:xlink="http://www.w3.org/1999/xlink" xml:space="preserve" onload="init(evt)">
<style type="text/css"><![CDATA[
.edge:hover path { stroke: red; }
.edge:hover polygon { stroke: red; fill: red; }
]]></style>
<script type="text/javascript"><![CDATA[
var edges = document.getElementsByTagName('g');
if (edges && edges.length) {
  for (var i=0;i<edges.length;i++) {
    if (edges[i].id.substr(0,4)=='edge') {
      edges[i].setAttribute('class','edge');
    }
  }
}
]]></script>
        <defs>
                <circle id="rim" cx="0" cy="0" r="7"/>
                <circle id="rim2" cx="0" cy="0" r="3.5"/>
                <g id="zoomPlus">
                        <use xlink:href="#rim" fill="#404040">
                                <set attributeName="fill" to="#808080" begin="zoomplus.mouseover" end="zoomplus.mouseout"/>
                        </use>
                        <path d="M-4,0h8M0,-4v8" fill="none" stroke="white" stroke-width="1.5" pointer-events="none"/>
                </g>
                <g id="zoomMin">
                        <use xlink:href="#rim" fill="#404040">
                                <set attributeName="fill" to="#808080" begin="zoomminus.mouseover" end="zoomminus.mouseout"/>
                        </use>
                        <path d="M-4,0h8" fill="none" stroke="white" stroke-width="1.5" pointer-events="none"/>
                </g>
                <g id="dirArrow">
                        <path fill="none" stroke="white" stroke-width="1.5" d="M0,-3.0v7 M-2.5,-0.5L0,-3.0L2.5,-0.5"/>
                </g>
               <g id="resetDef">
                       <use xlink:href="#rim2" fill="#404040">
                               <set attributeName="fill" to="#808080" begin="reset.mouseover" end="reset.mouseout"/>
                       </use>
               </g>
        </defs>

<script type="text/javascript">
var viewWidth = 1019;
var viewHeight = 1163;
var sectionId = 'dynsection-0';
</script>
<script xlink:href="svgpan.js"/>
<svg id="graph" class="graph">
<g id="viewport">
<title>altintegration::ATV</title>
<polygon fill="white" stroke="transparent" points="-4,4 -4,-1159 1015.45,-1159 1015.45,4 -4,4"/>
<!-- Node1 -->
<g id="node1" class="node">
<title>Node1</title>
<g id="a_node1"><a xlink:title="Atlchain endorsement.">
<polygon fill="#bfbfbf" stroke="black" points="696.45,-0.5 696.45,-134.5 809.45,-134.5 809.45,-0.5 696.45,-0.5"/>
<text text-anchor="middle" x="752.95" y="-122.5" font-family="Helvetica,sans-Serif" font-size="10.00">altintegration::ATV</text>
<polyline fill="none" stroke="black" points="696.45,-115.5 809.45,-115.5 "/>
<text text-anchor="start" x="704.45" y="-103.5" font-family="Helvetica,sans-Serif" font-size="10.00">+ version</text>
<text text-anchor="start" x="704.45" y="-92.5" font-family="Helvetica,sans-Serif" font-size="10.00">+ checked</text>
<polyline fill="none" stroke="black" points="696.45,-85.5 809.45,-85.5 "/>
<text text-anchor="start" x="704.45" y="-73.5" font-family="Helvetica,sans-Serif" font-size="10.00">+ toPrettyString()</text>
<text text-anchor="start" x="704.45" y="-62.5" font-family="Helvetica,sans-Serif" font-size="10.00">+ toShortPrettyString()</text>
<text text-anchor="start" x="704.45" y="-51.5" font-family="Helvetica,sans-Serif" font-size="10.00">+ toVbkEncoding()</text>
<text text-anchor="start" x="704.45" y="-40.5" font-family="Helvetica,sans-Serif" font-size="10.00">+ toVbkEncoding()</text>
<text text-anchor="start" x="704.45" y="-29.5" font-family="Helvetica,sans-Serif" font-size="10.00">+ estimateSize()</text>
<text text-anchor="start" x="704.45" y="-18.5" font-family="Helvetica,sans-Serif" font-size="10.00">+ getId()</text>
<text text-anchor="start" x="704.45" y="-7.5" font-family="Helvetica,sans-Serif" font-size="10.00">+ name()</text>
</a>
</g>
</g>
<!-- Node2 -->
<g id="node2" class="node">
<title>Node2</title>
<g id="a_node2"><a xlink:href="structaltintegration_1_1VbkTx.html" target="_top" xlink:title="Veriblock transaction, which endorses ALT block in VBK blockchain.">
<polygon fill="white" stroke="black" points="348.95,-221 348.95,-322 452.95,-322 452.95,-221 348.95,-221"/>
<text text-anchor="middle" x="400.95" y="-310" font-family="Helvetica,sans-Serif" font-size="10.00">altintegration::VbkTx</text>
<polyline fill="none" stroke="black" points="348.95,-303 452.95,-303 "/>
<text text-anchor="start" x="356.95" y="-291" font-family="Helvetica,sans-Serif" font-size="10.00">+ signatureIndex</text>
<polyline fill="none" stroke="black" points="348.95,-284 452.95,-284 "/>
<text text-anchor="start" x="356.95" y="-272" font-family="Helvetica,sans-Serif" font-size="10.00">+ toVbkEncoding()</text>
<text text-anchor="start" x="356.95" y="-261" font-family="Helvetica,sans-Serif" font-size="10.00">+ toVbkEncoding()</text>
<text text-anchor="start" x="356.95" y="-250" font-family="Helvetica,sans-Serif" font-size="10.00">+ estimateSize()</text>
<text text-anchor="start" x="356.95" y="-239" font-family="Helvetica,sans-Serif" font-size="10.00">+ getHash()</text>
<text text-anchor="start" x="356.95" y="-228" font-family="Helvetica,sans-Serif" font-size="10.00">+ calculateTxFee()</text>
</a>
</g>
</g>
<!-- Node2&#45;&gt;Node1 -->
<g id="edge1" class="edge">
<title>Node2&#45;&gt;Node1</title>
<path fill="none" stroke="#404040" d="M453.26,-240.48C515.07,-205.01 618.03,-145.92 685.71,-107.09"/>
<polygon fill="none" stroke="#404040" points="685.85,-107.01 689.06,-100.55 696.25,-101.03 693.04,-107.49 685.85,-107.01"/>
<text text-anchor="middle" x="627.45" y="-156" font-family="Helvetica,sans-Serif" font-size="10.00"> +transaction</text>
</g>
<!-- Node3 -->
<g id="node3" class="node">
<title>Node3</title>
<g id="a_node3"><a xlink:href="namespacealtintegration.html#structaltintegration_1_1NetworkBytePair" target="_top" xlink:title="Stores pair of TxType and VBK network byte.">
<polygon fill="white" stroke="black" points="325.95,-425 325.95,-482 475.95,-482 475.95,-425 325.95,-425"/>
<text text-anchor="middle" x="400.95" y="-470" font-family="Helvetica,sans-Serif" font-size="10.00">altintegration::NetworkBytePair</text>
<polyline fill="none" stroke="black" points="325.95,-463 475.95,-463 "/>
<text text-anchor="start" x="333.95" y="-451" font-family="Helvetica,sans-Serif" font-size="10.00">+ typeId</text>
<polyline fill="none" stroke="black" points="325.95,-444 475.95,-444 "/>
<text text-anchor="middle" x="400.95" y="-432" font-family="Helvetica,sans-Serif" font-size="10.00"> </text>
</a>
</g>
</g>
<!-- Node3&#45;&gt;Node2 -->
<g id="edge2" class="edge">
<title>Node3&#45;&gt;Node2</title>
<path fill="none" stroke="#404040" d="M400.95,-424.77C400.95,-400.76 400.95,-365.16 400.95,-334.41"/>
<polygon fill="none" stroke="#404040" points="400.95,-334.02 396.95,-328.02 400.95,-322.02 404.95,-328.02 400.95,-334.02"/>
<text text-anchor="middle" x="438.45" y="-382" font-family="Helvetica,sans-Serif" font-size="10.00"> +networkOrType</text>
</g>
<!-- Node4 -->
<g id="node4" class="node">
<title>Node4</title>
<g id="a_node4"><a xlink:href="structaltintegration_1_1VbkNetworkType.html" target="_top" xlink:title="works as optional&lt;uint8_t&gt;">
<polygon fill="white" stroke="black" points="429.95,-629 429.95,-730 581.95,-730 581.95,-629 429.95,-629"/>
<text text-anchor="middle" x="505.95" y="-718" font-family="Helvetica,sans-Serif" font-size="10.00">altintegration::VbkNetworkType</text>
<polyline fill="none" stroke="black" points="429.95,-711 581.95,-711 "/>
<text text-anchor="start" x="437.95" y="-699" font-family="Helvetica,sans-Serif" font-size="10.00">+ hasValue</text>
<text text-anchor="start" x="437.95" y="-688" font-family="Helvetica,sans-Serif" font-size="10.00">+ value</text>
<polyline fill="none" stroke="black" points="429.95,-681 581.95,-681 "/>
<text text-anchor="start" x="437.95" y="-669" font-family="Helvetica,sans-Serif" font-size="10.00">+ operator bool()</text>
<text text-anchor="start" x="437.95" y="-658" font-family="Helvetica,sans-Serif" font-size="10.00">+ operator==()</text>
<text text-anchor="start" x="437.95" y="-647" font-family="Helvetica,sans-Serif" font-size="10.00">+ toPrettyString()</text>
<text text-anchor="start" x="437.95" y="-636" font-family="Helvetica,sans-Serif" font-size="10.00">+ putJson()</text>
</a>
</g>
</g>
<!-- Node4&#45;&gt;Node3 -->
<g id="edge3" class="edge">
<title>Node4&#45;&gt;Node3</title>
<path fill="none" stroke="#404040" d="M475.44,-628.91C461.74,-605.49 445.98,-576.83 433.95,-550 425.84,-531.92 418.46,-511.21 412.75,-493.7"/>
<polygon fill="none" stroke="#404040" points="412.72,-493.6 407.08,-489.1 409.07,-482.17 414.7,-486.67 412.72,-493.6"/>
<text text-anchor="middle" x="465.95" y="-531" font-family="Helvetica,sans-Serif" font-size="10.00"> +networkType</text>
</g>
<!-- Node5 -->
<g id="node5" class="node">
<title>Node5</title>
<g id="a_node5"><a xlink:href="structaltintegration_1_1Address.html" target="_top" xlink:title="Represents address on VBK chain.">
<polygon fill="white" stroke="black" points="129.45,-849.5 129.45,-1038.5 266.45,-1038.5 266.45,-849.5 129.45,-849.5"/>
<text text-anchor="middle" x="197.95" y="-1026.5" font-family="Helvetica,sans-Serif" font-size="10.00">altintegration::Address</text>
<polyline fill="none" stroke="black" points="129.45,-1019.5 266.45,-1019.5 "/>
<text text-anchor="middle" x="197.95" y="-1007.5" font-family="Helvetica,sans-Serif" font-size="10.00"> </text>
<polyline fill="none" stroke="black" points="129.45,-1000.5 266.45,-1000.5 "/>
<text text-anchor="start" x="137.45" y="-988.5" font-family="Helvetica,sans-Serif" font-size="10.00">+ Address()</text>
<text text-anchor="start" x="137.45" y="-977.5" font-family="Helvetica,sans-Serif" font-size="10.00">+ operator==()</text>
<text text-anchor="start" x="137.45" y="-966.5" font-family="Helvetica,sans-Serif" font-size="10.00">+ operator!=()</text>
<text text-anchor="start" x="137.45" y="-955.5" font-family="Helvetica,sans-Serif" font-size="10.00">+ operator==()</text>
<text text-anchor="start" x="137.45" y="-944.5" font-family="Helvetica,sans-Serif" font-size="10.00">+ getType()</text>
<text text-anchor="start" x="137.45" y="-933.5" font-family="Helvetica,sans-Serif" font-size="10.00">+ getPopBytes()</text>
<text text-anchor="start" x="137.45" y="-922.5" font-family="Helvetica,sans-Serif" font-size="10.00">+ isDerivedFromPublicKey()</text>
<text text-anchor="start" x="137.45" y="-911.5" font-family="Helvetica,sans-Serif" font-size="10.00">+ fromString()</text>
<text text-anchor="start" x="137.45" y="-900.5" font-family="Helvetica,sans-Serif" font-size="10.00">+ toString()</text>
<text text-anchor="start" x="137.45" y="-889.5" font-family="Helvetica,sans-Serif" font-size="10.00">+ toVbkEncoding()</text>
<text text-anchor="start" x="137.45" y="-878.5" font-family="Helvetica,sans-Serif" font-size="10.00">+ estimateSize()</text>
<text text-anchor="start" x="137.45" y="-867.5" font-family="Helvetica,sans-Serif" font-size="10.00">+ fromPublicKey()</text>
<text text-anchor="start" x="137.45" y="-856.5" font-family="Helvetica,sans-Serif" font-size="10.00">+ assertFromString()</text>
</a>
</g>
</g>
<!-- Node5&#45;&gt;Node2 -->
<g id="edge4" class="edge">
<title>Node5&#45;&gt;Node2</title>
<path fill="none" stroke="#404040" d="M209.08,-849.29C224.23,-740.18 256.63,-556.04 316.95,-408 327.59,-381.88 343.07,-355.09 357.84,-332.3"/>
<polygon fill="none" stroke="#404040" points="357.95,-332.13 357.92,-324.92 364.57,-322.12 364.6,-329.33 357.95,-332.13"/>
<text text-anchor="middle" x="314.95" y="-531" font-family="Helvetica,sans-Serif" font-size="10.00"> +sourceAddress</text>
</g>
<!-- Node8 -->
<g id="node8" class="node">
<title>Node8</title>
<g id="a_node8"><a xlink:href="structaltintegration_1_1Output.html" target="_top" xlink:title="Single spending output.">
<polygon fill="white" stroke="black" points="79.95,-623.5 79.95,-735.5 185.95,-735.5 185.95,-623.5 79.95,-623.5"/>
<text text-anchor="middle" x="132.95" y="-723.5" font-family="Helvetica,sans-Serif" font-size="10.00">altintegration::Output</text>
<polyline fill="none" stroke="black" points="79.95,-716.5 185.95,-716.5 "/>
<text text-anchor="middle" x="132.95" y="-704.5" font-family="Helvetica,sans-Serif" font-size="10.00"> </text>
<polyline fill="none" stroke="black" points="79.95,-697.5 185.95,-697.5 "/>
<text text-anchor="start" x="87.95" y="-685.5" font-family="Helvetica,sans-Serif" font-size="10.00">+ Output()</text>
<text text-anchor="start" x="87.95" y="-674.5" font-family="Helvetica,sans-Serif" font-size="10.00">+ Output()</text>
<text text-anchor="start" x="87.95" y="-663.5" font-family="Helvetica,sans-Serif" font-size="10.00">+ operator==()</text>
<text text-anchor="start" x="87.95" y="-652.5" font-family="Helvetica,sans-Serif" font-size="10.00">+ toVbkEncoding()</text>
<text text-anchor="start" x="87.95" y="-641.5" font-family="Helvetica,sans-Serif" font-size="10.00">+ estimateSize()</text>
<text text-anchor="start" x="87.95" y="-630.5" font-family="Helvetica,sans-Serif" font-size="10.00">+ toPrettyString()</text>
</a>
</g>
</g>
<!-- Node5&#45;&gt;Node8 -->
<g id="edge8" class="edge">
<title>Node5&#45;&gt;Node8</title>
<path fill="none" stroke="#404040" d="M165.13,-849.41C162.15,-839.54 159.36,-829.61 156.95,-820 151.09,-796.67 146.2,-770.78 142.4,-747.7"/>
<polygon fill="none" stroke="#404040" points="142.35,-747.41 137.45,-742.12 140.45,-735.56 145.35,-740.85 142.35,-747.41"/>
<text text-anchor="middle" x="178.45" y="-812" font-family="Helvetica,sans-Serif" font-size="10.00"> +address</text>
</g>
<!-- Node6 -->
<g id="node6" class="node">
<title>Node6</title>
<g id="a_node6"><a xlink:href="structaltintegration_1_1Coin.html" target="_top" xlink:title="represents VBK atomic units">
<polygon fill="white" stroke="black" points="6.95,-888 6.95,-1000 102.95,-1000 102.95,-888 6.95,-888"/>
<text text-anchor="middle" x="54.95" y="-988" font-family="Helvetica,sans-Serif" font-size="10.00">altintegration::Coin</text>
<polyline fill="none" stroke="black" points="6.95,-981 102.95,-981 "/>
<text text-anchor="start" x="14.95" y="-969" font-family="Helvetica,sans-Serif" font-size="10.00">+ units</text>
<polyline fill="none" stroke="black" points="6.95,-962 102.95,-962 "/>
<text text-anchor="start" x="14.95" y="-950" font-family="Helvetica,sans-Serif" font-size="10.00">+ Coin()</text>
<text text-anchor="start" x="14.95" y="-939" font-family="Helvetica,sans-Serif" font-size="10.00">+ toPrettyString()</text>
<text text-anchor="start" x="14.95" y="-928" font-family="Helvetica,sans-Serif" font-size="10.00">+ Coin()</text>
<text text-anchor="start" x="14.95" y="-917" font-family="Helvetica,sans-Serif" font-size="10.00">+ toVbkEncoding()</text>
<text text-anchor="start" x="14.95" y="-906" font-family="Helvetica,sans-Serif" font-size="10.00">+ estimateSize()</text>
<text text-anchor="start" x="14.95" y="-895" font-family="Helvetica,sans-Serif" font-size="10.00">+ operator==()</text>
</a>
</g>
</g>
<!-- Node6&#45;&gt;Node2 -->
<g id="edge5" class="edge">
<title>Node6&#45;&gt;Node2</title>
<path fill="none" stroke="#404040" d="M37.35,-887.9C7.64,-783.45 -39.68,-554.02 63.95,-408 126.82,-319.4 257.7,-288.68 336.57,-278.07"/>
<polygon fill="none" stroke="#404040" points="336.86,-278.03 342.31,-273.31 348.77,-276.53 343.31,-281.25 336.86,-278.03"/>
<text text-anchor="middle" x="49.95" y="-531" font-family="Helvetica,sans-Serif" font-size="10.00"> +sourceAmount</text>
</g>
<!-- Node6&#45;&gt;Node8 -->
<g id="edge9" class="edge">
<title>Node6&#45;&gt;Node8</title>
<path fill="none" stroke="#404040" d="M71.3,-887.97C83.45,-847.07 100.1,-791.06 113.03,-747.54"/>
<polygon fill="none" stroke="#404040" points="113.06,-747.41 110.94,-740.52 116.48,-735.91 118.61,-742.8 113.06,-747.41"/>
<text text-anchor="middle" x="107.45" y="-812" font-family="Helvetica,sans-Serif" font-size="10.00"> +coin</text>
</g>
<!-- Node7 -->
<g id="node7" class="node">
<title>Node7</title>
<g id="a_node7"><a xlink:title=" ">
<polygon fill="white" stroke="black" points="73.45,-419.5 73.45,-487.5 198.45,-487.5 198.45,-419.5 73.45,-419.5"/>
<text text-anchor="start" x="81.45" y="-475.5" font-family="Helvetica,sans-Serif" font-size="10.00">std::vector&lt; altintegration</text>
<text text-anchor="middle" x="135.95" y="-464.5" font-family="Helvetica,sans-Serif" font-size="10.00">::Output &gt;</text>
<polyline fill="none" stroke="black" points="73.45,-457.5 198.45,-457.5 "/>
<text text-anchor="middle" x="135.95" y="-445.5" font-family="Helvetica,sans-Serif" font-size="10.00"> </text>
<polyline fill="none" stroke="black" points="73.45,-438.5 198.45,-438.5 "/>
<text text-anchor="middle" x="135.95" y="-426.5" font-family="Helvetica,sans-Serif" font-size="10.00"> </text>
</a>
</g>
</g>
<!-- Node7&#45;&gt;Node2 -->
<g id="edge6" class="edge">
<title>Node7&#45;&gt;Node2</title>
<path fill="none" stroke="#404040" d="M146.52,-419.47C152.27,-405.6 160.58,-390.14 171.95,-379 218.04,-333.82 286.84,-305.39 336.99,-289.38"/>
<polygon fill="none" stroke="#404040" points="337.21,-289.31 341.76,-283.72 348.67,-285.77 344.12,-291.36 337.21,-289.31"/>
<text text-anchor="middle" x="192.45" y="-382" font-family="Helvetica,sans-Serif" font-size="10.00"> +outputs</text>
</g>
<!-- Node8&#45;&gt;Node7 -->
<g id="edge7" class="edge">
<title>Node8&#45;&gt;Node7</title>
<path fill="none" stroke="#404040" d="M133.68,-623.42C134.19,-585.57 134.86,-535.93 135.33,-500.26"/>
<polygon fill="none" stroke="#404040" points="135.34,-499.8 131.42,-493.75 135.5,-487.8 139.42,-493.86 135.34,-499.8"/>
<text text-anchor="middle" x="160.45" y="-531" font-family="Helvetica,sans-Serif" font-size="10.00"> +elements</text>
</g>
<!-- Node9 -->
<g id="node9" class="node">
<title>Node9</title>
<g id="a_node9"><a xlink:title=" ">
<polygon fill="white" stroke="black" points="572.95,-915.5 572.95,-972.5 656.95,-972.5 656.95,-915.5 572.95,-915.5"/>
<text text-anchor="middle" x="614.95" y="-960.5" font-family="Helvetica,sans-Serif" font-size="10.00">std::vector&lt; T &gt;</text>
<polyline fill="none" stroke="black" points="572.95,-953.5 656.95,-953.5 "/>
<text text-anchor="middle" x="614.95" y="-941.5" font-family="Helvetica,sans-Serif" font-size="10.00"> </text>
<polyline fill="none" stroke="black" points="572.95,-934.5 656.95,-934.5 "/>
<text text-anchor="middle" x="614.95" y="-922.5" font-family="Helvetica,sans-Serif" font-size="10.00"> </text>
</a>
</g>
</g>
<!-- Node9&#45;&gt;Node7 -->
<g id="edge10" class="edge">
<title>Node9&#45;&gt;Node7</title>
<path fill="none" stroke="orange" d="M562.92,-933.17C492.88,-916.93 370.33,-877.3 311.95,-791 277.71,-740.39 325.11,-566.25 288.95,-517 267.72,-488.09 230.74,-472.51 198.46,-464.14"/>
<polygon fill="orange" stroke="orange" points="562.33,-936.63 572.86,-935.4 563.86,-929.8 562.33,-936.63"/>
<text text-anchor="middle" x="366.45" y="-677" font-family="Helvetica,sans-Serif" font-size="10.00"> &lt; altintegration::Output &gt;</text>
</g>
<!-- Node12 -->
<g id="node12" class="node">
<title>Node12</title>
<g id="a_node12"><a xlink:title=" ">
<polygon fill="white" stroke="black" points="600.45,-651 600.45,-708 707.45,-708 707.45,-651 600.45,-651"/>
<text text-anchor="middle" x="653.95" y="-696" font-family="Helvetica,sans-Serif" font-size="10.00">std::vector&lt; uint8_t &gt;</text>
<polyline fill="none" stroke="black" points="600.45,-689 707.45,-689 "/>
<text text-anchor="start" x="608.45" y="-677" font-family="Helvetica,sans-Serif" font-size="10.00">+ elements</text>
<polyline fill="none" stroke="black" points="600.45,-670 707.45,-670 "/>
<text text-anchor="middle" x="653.95" y="-658" font-family="Helvetica,sans-Serif" font-size="10.00"> </text>
</a>
</g>
</g>
<!-- Node9&#45;&gt;Node12 -->
<g id="edge14" class="edge">
<title>Node9&#45;&gt;Node12</title>
<path fill="none" stroke="orange" d="M612.43,-905.2C611.31,-878.23 611.16,-841.2 615.95,-809 621.25,-773.33 634.06,-733.75 643.34,-708.07"/>
<polygon fill="orange" stroke="orange" points="608.94,-905.54 612.91,-915.37 615.93,-905.21 608.94,-905.54"/>
<text text-anchor="middle" x="640.45" y="-812" font-family="Helvetica,sans-Serif" font-size="10.00"> &lt; uint8_t &gt;</text>
</g>
<!-- Node16 -->
<g id="node16" class="node">
<title>Node16</title>
<g id="a_node16"><a xlink:title=" ">
<polygon fill="white" stroke="black" points="886.45,-645.5 886.45,-713.5 1011.45,-713.5 1011.45,-645.5 886.45,-645.5"/>
<text text-anchor="start" x="894.45" y="-701.5" font-family="Helvetica,sans-Serif" font-size="10.00">std::vector&lt; altintegration</text>
<text text-anchor="middle" x="948.95" y="-690.5" font-family="Helvetica,sans-Serif" font-size="10.00">::Blob &gt;</text>
<polyline fill="none" stroke="black" points="886.45,-683.5 1011.45,-683.5 "/>
<text text-anchor="middle" x="948.95" y="-671.5" font-family="Helvetica,sans-Serif" font-size="10.00"> </text>
<polyline fill="none" stroke="black" points="886.45,-664.5 1011.45,-664.5 "/>
<text text-anchor="middle" x="948.95" y="-652.5" font-family="Helvetica,sans-Serif" font-size="10.00"> </text>
</a>
</g>
</g>
<!-- Node9&#45;&gt;Node16 -->
<g id="edge21" class="edge">
<title>Node9&#45;&gt;Node16</title>
<path fill="none" stroke="orange" d="M628.09,-905.95C641.33,-874.51 664.98,-831.1 700.95,-809 767.94,-767.83 809.81,-831.94 876.95,-791 905.78,-773.42 925.29,-739.41 936.65,-713.75"/>
<polygon fill="orange" stroke="orange" points="624.82,-904.7 624.31,-915.29 631.31,-907.33 624.82,-904.7"/>
<text text-anchor="middle" x="750.45" y="-812" font-family="Helvetica,sans-Serif" font-size="10.00"> &lt; altintegration::Blob &gt;</text>
</g>
<!-- Node10 -->
<g id="node10" class="node">
<title>Node10</title>
<g id="a_node10"><a xlink:title=" ">
<polygon fill="white" stroke="#bfbfbf" points="600.45,-1097.5 600.45,-1154.5 629.45,-1154.5 629.45,-1097.5 600.45,-1097.5"/>
<text text-anchor="middle" x="614.95" y="-1142.5" font-family="Helvetica,sans-Serif" font-size="10.00">T</text>
<polyline fill="none" stroke="#bfbfbf" points="600.45,-1135.5 629.45,-1135.5 "/>
<text text-anchor="middle" x="614.95" y="-1123.5" font-family="Helvetica,sans-Serif" font-size="10.00"> </text>
<polyline fill="none" stroke="#bfbfbf" points="600.45,-1116.5 629.45,-1116.5 "/>
<text text-anchor="middle" x="614.95" y="-1104.5" font-family="Helvetica,sans-Serif" font-size="10.00"> </text>
</a>
</g>
</g>
<!-- Node10&#45;&gt;Node9 -->
<g id="edge11" class="edge">
<title>Node10&#45;&gt;Node9</title>
<path fill="none" stroke="#404040" d="M614.95,-1097.27C614.95,-1067.28 614.95,-1019.18 614.95,-985.08"/>
<polygon fill="none" stroke="#404040" points="614.95,-984.76 610.95,-978.76 614.95,-972.76 618.95,-978.76 614.95,-984.76"/>
<text text-anchor="middle" x="639.45" y="-1071" font-family="Helvetica,sans-Serif" font-size="10.00"> +elements</text>
</g>
<!-- Node11 -->
<g id="node11" class="node">
<title>Node11</title>
<g id="a_node11"><a xlink:href="structaltintegration_1_1PublicationData.html" target="_top" xlink:title="Publication data about ALT block inside VBK blockchain.">
<polygon fill="white" stroke="black" points="581.45,-414 581.45,-493 726.45,-493 726.45,-414 581.45,-414"/>
<text text-anchor="middle" x="653.95" y="-481" font-family="Helvetica,sans-Serif" font-size="10.00">altintegration::PublicationData</text>
<polyline fill="none" stroke="black" points="581.45,-474 726.45,-474 "/>
<text text-anchor="start" x="589.45" y="-462" font-family="Helvetica,sans-Serif" font-size="10.00">+ identifier</text>
<polyline fill="none" stroke="black" points="581.45,-455 726.45,-455 "/>
<text text-anchor="start" x="589.45" y="-443" font-family="Helvetica,sans-Serif" font-size="10.00">+ toPrettyString()</text>
<text text-anchor="start" x="589.45" y="-432" font-family="Helvetica,sans-Serif" font-size="10.00">+ toVbkEncoding()</text>
<text text-anchor="start" x="589.45" y="-421" font-family="Helvetica,sans-Serif" font-size="10.00">+ estimateSize()</text>
</a>
</g>
</g>
<!-- Node11&#45;&gt;Node2 -->
<g id="edge12" class="edge">
<title>Node11&#45;&gt;Node2</title>
<path fill="none" stroke="#404040" d="M599.67,-413.89C559.48,-385.29 504.66,-346.29 462.78,-316.49"/>
<polygon fill="none" stroke="#404040" points="462.75,-316.47 455.54,-316.25 452.97,-309.51 460.18,-309.73 462.75,-316.47"/>
<text text-anchor="middle" x="602.95" y="-382" font-family="Helvetica,sans-Serif" font-size="10.00"> +publicationData</text>
</g>
<!-- Node12&#45;&gt;Node2 -->
<g id="edge15" class="edge">
<title>Node12&#45;&gt;Node2</title>
<path fill="none" stroke="#404040" d="M640.87,-650.86C629.29,-627.68 611.13,-594.26 590.95,-568 564.32,-533.37 544.19,-535.99 520.95,-499 490.97,-451.28 506.16,-428.89 479.95,-379 471.55,-363.02 460.89,-346.84 450.13,-332.08"/>
<polygon fill="none" stroke="#404040" points="449.87,-331.73 443.08,-329.31 442.7,-322.11 449.49,-324.53 449.87,-331.73"/>
<text text-anchor="middle" x="546.45" y="-456.5" font-family="Helvetica,sans-Serif" font-size="10.00"> +publicKey</text>
<text text-anchor="middle" x="546.45" y="-445.5" font-family="Helvetica,sans-Serif" font-size="10.00">+signature</text>
</g>
<!-- Node12&#45;&gt;Node11 -->
<g id="edge13" class="edge">
<title>Node12&#45;&gt;Node11</title>
<path fill="none" stroke="#404040" d="M653.95,-650.58C653.95,-614.35 653.95,-550.45 653.95,-505.46"/>
<polygon fill="none" stroke="#404040" points="653.95,-505.31 649.95,-499.31 653.95,-493.31 657.95,-499.31 653.95,-505.31"/>
<text text-anchor="middle" x="682.45" y="-542" font-family="Helvetica,sans-Serif" font-size="10.00"> +contextInfo</text>
<text text-anchor="middle" x="682.45" y="-531" font-family="Helvetica,sans-Serif" font-size="10.00">+header</text>
<text text-anchor="middle" x="682.45" y="-520" font-family="Helvetica,sans-Serif" font-size="10.00">+payoutInfo</text>
</g>
<!-- Node13 -->
<g id="node13" class="node">
<title>Node13</title>
<g id="a_node13"><a xlink:href="structaltintegration_1_1VbkMerklePath.html" target="_top" xlink:title="Path in Merkle tree, which proves that subject exists in the tree.">
<polygon fill="white" stroke="black" points="744.45,-408.5 744.45,-498.5 887.45,-498.5 887.45,-408.5 744.45,-408.5"/>
<text text-anchor="middle" x="815.95" y="-486.5" font-family="Helvetica,sans-Serif" font-size="10.00">altintegration::VbkMerklePath</text>
<polyline fill="none" stroke="black" points="744.45,-479.5 887.45,-479.5 "/>
<text text-anchor="start" x="752.45" y="-467.5" font-family="Helvetica,sans-Serif" font-size="10.00">+ treeIndex</text>
<text text-anchor="start" x="752.45" y="-456.5" font-family="Helvetica,sans-Serif" font-size="10.00">+ index</text>
<polyline fill="none" stroke="black" points="744.45,-449.5 887.45,-449.5 "/>
<text text-anchor="start" x="752.45" y="-437.5" font-family="Helvetica,sans-Serif" font-size="10.00">+ toVbkEncoding()</text>
<text text-anchor="start" x="752.45" y="-426.5" font-family="Helvetica,sans-Serif" font-size="10.00">+ estimateSize()</text>
<text text-anchor="start" x="752.45" y="-415.5" font-family="Helvetica,sans-Serif" font-size="10.00">+ calculateMerkleRoot()</text>
</a>
</g>
</g>
<!-- Node13&#45;&gt;Node1 -->
<g id="edge16" class="edge">
<title>Node13&#45;&gt;Node1</title>
<path fill="none" stroke="#404040" d="M783.95,-408.49C775.15,-394.06 766.72,-377.48 761.95,-361 741.55,-290.58 741.29,-206.61 744.94,-146.74"/>
<polygon fill="none" stroke="#404040" points="744.95,-146.69 741.36,-140.44 745.75,-134.72 749.34,-140.97 744.95,-146.69"/>
<text text-anchor="middle" x="790.95" y="-269" font-family="Helvetica,sans-Serif" font-size="10.00"> +merklePath</text>
</g>
<!-- Node14 -->
<g id="node14" class="node">
<title>Node14</title>
<g id="a_node14"><a xlink:href="structaltintegration_1_1Blob.html" target="_top" xlink:title=" ">
<polygon fill="white" stroke="black" points="737.45,-568.5 737.45,-790.5 868.45,-790.5 868.45,-568.5 737.45,-568.5"/>
<text text-anchor="start" x="745.45" y="-778.5" font-family="Helvetica,sans-Serif" font-size="10.00">altintegration::Blob</text>
<text text-anchor="middle" x="802.95" y="-767.5" font-family="Helvetica,sans-Serif" font-size="10.00">&lt; SHA256_HASH_SIZE &gt;</text>
<polyline fill="none" stroke="black" points="737.45,-760.5 868.45,-760.5 "/>
<text text-anchor="start" x="745.45" y="-748.5" font-family="Helvetica,sans-Serif" font-size="10.00">+ data_</text>
<text text-anchor="start" x="745.45" y="-737.5" font-family="Helvetica,sans-Serif" font-size="10.00">+ this</text>
<polyline fill="none" stroke="black" points="737.45,-730.5 868.45,-730.5 "/>
<text text-anchor="start" x="745.45" y="-718.5" font-family="Helvetica,sans-Serif" font-size="10.00">+ Blob()</text>
<text text-anchor="start" x="745.45" y="-707.5" font-family="Helvetica,sans-Serif" font-size="10.00">+ Blob()</text>
<text text-anchor="start" x="745.45" y="-696.5" font-family="Helvetica,sans-Serif" font-size="10.00">+ Blob()</text>
<text text-anchor="start" x="745.45" y="-685.5" font-family="Helvetica,sans-Serif" font-size="10.00">+ Blob()</text>
<text text-anchor="start" x="745.45" y="-674.5" font-family="Helvetica,sans-Serif" font-size="10.00">+ Blob()</text>
<text text-anchor="start" x="745.45" y="-663.5" font-family="Helvetica,sans-Serif" font-size="10.00">+ operator=()</text>
<text text-anchor="start" x="745.45" y="-652.5" font-family="Helvetica,sans-Serif" font-size="10.00">+ operator=()</text>
<text text-anchor="start" x="745.45" y="-641.5" font-family="Helvetica,sans-Serif" font-size="10.00">+ reverse()</text>
<text text-anchor="start" x="745.45" y="-630.5" font-family="Helvetica,sans-Serif" font-size="10.00">+ operator~()</text>
<text text-anchor="start" x="745.45" y="-619.5" font-family="Helvetica,sans-Serif" font-size="10.00">+ asVector()</text>
<text text-anchor="start" x="745.45" y="-608.5" font-family="Helvetica,sans-Serif" font-size="10.00">+ asString()</text>
<text text-anchor="start" x="745.45" y="-597.5" font-family="Helvetica,sans-Serif" font-size="10.00">+ operator[]()</text>
<text text-anchor="start" x="745.45" y="-586.5" font-family="Helvetica,sans-Serif" font-size="10.00">+ operator[]()</text>
<text text-anchor="start" x="745.45" y="-575.5" font-family="Helvetica,sans-Serif" font-size="10.00">+ compareTo()</text>
</a>
</g>
</g>
<!-- Node14&#45;&gt;Node13 -->
<g id="edge17" class="edge">
<title>Node14&#45;&gt;Node13</title>
<path fill="none" stroke="#404040" d="M809.33,-568.47C810.5,-548.43 811.66,-528.3 812.69,-510.66"/>
<polygon fill="none" stroke="#404040" points="812.69,-510.57 809.05,-504.35 813.39,-498.59 817.03,-504.81 812.69,-510.57"/>
<text text-anchor="middle" x="832.95" y="-531" font-family="Helvetica,sans-Serif" font-size="10.00"> +subject</text>
</g>
<!-- Node15 -->
<g id="node15" class="node">
<title>Node15</title>
<g id="a_node15"><a xlink:href="structaltintegration_1_1Blob.html" target="_top" xlink:title="Contiguous byte array of fixed size.">
<polygon fill="white" stroke="black" points="818.95,-838.5 818.95,-1049.5 938.95,-1049.5 938.95,-838.5 818.95,-838.5"/>
<text text-anchor="middle" x="878.95" y="-1037.5" font-family="Helvetica,sans-Serif" font-size="10.00">altintegration::Blob&lt; N &gt;</text>
<polyline fill="none" stroke="black" points="818.95,-1030.5 938.95,-1030.5 "/>
<text text-anchor="start" x="826.95" y="-1018.5" font-family="Helvetica,sans-Serif" font-size="10.00">+ data_</text>
<text text-anchor="start" x="826.95" y="-1007.5" font-family="Helvetica,sans-Serif" font-size="10.00">+ this</text>
<polyline fill="none" stroke="black" points="818.95,-1000.5 938.95,-1000.5 "/>
<text text-anchor="start" x="826.95" y="-988.5" font-family="Helvetica,sans-Serif" font-size="10.00">+ Blob()</text>
<text text-anchor="start" x="826.95" y="-977.5" font-family="Helvetica,sans-Serif" font-size="10.00">+ Blob()</text>
<text text-anchor="start" x="826.95" y="-966.5" font-family="Helvetica,sans-Serif" font-size="10.00">+ Blob()</text>
<text text-anchor="start" x="826.95" y="-955.5" font-family="Helvetica,sans-Serif" font-size="10.00">+ Blob()</text>
<text text-anchor="start" x="826.95" y="-944.5" font-family="Helvetica,sans-Serif" font-size="10.00">+ Blob()</text>
<text text-anchor="start" x="826.95" y="-933.5" font-family="Helvetica,sans-Serif" font-size="10.00">+ operator=()</text>
<text text-anchor="start" x="826.95" y="-922.5" font-family="Helvetica,sans-Serif" font-size="10.00">+ operator=()</text>
<text text-anchor="start" x="826.95" y="-911.5" font-family="Helvetica,sans-Serif" font-size="10.00">+ reverse()</text>
<text text-anchor="start" x="826.95" y="-900.5" font-family="Helvetica,sans-Serif" font-size="10.00">+ operator~()</text>
<text text-anchor="start" x="826.95" y="-889.5" font-family="Helvetica,sans-Serif" font-size="10.00">+ asVector()</text>
<text text-anchor="start" x="826.95" y="-878.5" font-family="Helvetica,sans-Serif" font-size="10.00">+ asString()</text>
<text text-anchor="start" x="826.95" y="-867.5" font-family="Helvetica,sans-Serif" font-size="10.00">+ operator[]()</text>
<text text-anchor="start" x="826.95" y="-856.5" font-family="Helvetica,sans-Serif" font-size="10.00">+ operator[]()</text>
<text text-anchor="start" x="826.95" y="-845.5" font-family="Helvetica,sans-Serif" font-size="10.00">+ compareTo()</text>
</a>
</g>
</g>
<!-- Node15&#45;&gt;Node14 -->
<g id="edge18" class="edge">
<title>Node15&#45;&gt;Node14</title>
<path fill="none" stroke="orange" d="M814.64,-844.09C811.22,-836.14 808.25,-828.07 805.95,-820 803.25,-810.57 801.33,-800.63 800.01,-790.58"/>
<polygon fill="orange" stroke="orange" points="811.52,-845.69 818.84,-853.35 817.9,-842.8 811.52,-845.69"/>
<text text-anchor="middle" x="864.45" y="-812" font-family="Helvetica,sans-Serif" font-size="10.00"> &lt; SHA256_HASH_SIZE &gt;</text>
</g>
<!-- Node15&#45;&gt;Node16 -->
<g id="edge20" class="edge">
<title>Node15&#45;&gt;Node16</title>
<path fill="none" stroke="#404040" d="M921.47,-838.5C923.45,-832.28 925.3,-826.08 926.95,-820 935.33,-789.01 940.9,-753.22 944.33,-725.66"/>
<polygon fill="none" stroke="#404040" points="944.34,-725.53 941.08,-719.1 945.76,-713.62 949.02,-720.05 944.34,-725.53"/>
<text text-anchor="middle" x="953.45" y="-812" font-family="Helvetica,sans-Serif" font-size="10.00"> +elements</text>
</g>
<!-- Node16&#45;&gt;Node13 -->
<g id="edge19" class="edge">
<title>Node16&#45;&gt;Node13</title>
<path fill="none" stroke="#404040" d="M930.87,-645.36C912.73,-612.46 883.73,-560.76 856.95,-517 855.35,-514.39 853.69,-511.72 852.01,-509.04"/>
<polygon fill="none" stroke="#404040" points="851.85,-508.79 845.26,-505.88 845.41,-498.67 852.01,-501.58 851.85,-508.79"/>
<text text-anchor="middle" x="892.95" y="-531" font-family="Helvetica,sans-Serif" font-size="10.00"> +layers</text>
</g>
<!-- Node17 -->
<g id="node17" class="node">
<title>Node17</title>
<g id="a_node17"><a xlink:href="structaltintegration_1_1VbkBlock.html" target="_top" xlink:title="Veriblock block.">
<polygon fill="white" stroke="black" points="829.45,-182.5 829.45,-360.5 948.45,-360.5 948.45,-182.5 829.45,-182.5"/>
<text text-anchor="middle" x="888.95" y="-348.5" font-family="Helvetica,sans-Serif" font-size="10.00">altintegration::VbkBlock</text>
<polyline fill="none" stroke="black" points="829.45,-341.5 948.45,-341.5 "/>
<text text-anchor="middle" x="888.95" y="-329.5" font-family="Helvetica,sans-Serif" font-size="10.00"> </text>
<polyline fill="none" stroke="black" points="829.45,-322.5 948.45,-322.5 "/>
<text text-anchor="start" x="837.45" y="-310.5" font-family="Helvetica,sans-Serif" font-size="10.00">+ toPrettyString()</text>
<text text-anchor="start" x="837.45" y="-299.5" font-family="Helvetica,sans-Serif" font-size="10.00">+ toShortPrettyString()</text>
<text text-anchor="start" x="837.45" y="-288.5" font-family="Helvetica,sans-Serif" font-size="10.00">+ toRaw()</text>
<text text-anchor="start" x="837.45" y="-277.5" font-family="Helvetica,sans-Serif" font-size="10.00">+ toVbkEncoding()</text>
<text text-anchor="start" x="837.45" y="-266.5" font-family="Helvetica,sans-Serif" font-size="10.00">+ toRaw()</text>
<text text-anchor="start" x="837.45" y="-255.5" font-family="Helvetica,sans-Serif" font-size="10.00">+ toVbkEncoding()</text>
<text text-anchor="start" x="837.45" y="-244.5" font-family="Helvetica,sans-Serif" font-size="10.00">+ estimateSize()</text>
<text text-anchor="start" x="837.45" y="-233.5" font-family="Helvetica,sans-Serif" font-size="10.00">+ getBlockTime()</text>
<text text-anchor="start" x="837.45" y="-222.5" font-family="Helvetica,sans-Serif" font-size="10.00">+ calculateHash()</text>
<text text-anchor="start" x="837.45" y="-211.5" font-family="Helvetica,sans-Serif" font-size="10.00">+ getHash()</text>
<text text-anchor="start" x="837.45" y="-200.5" font-family="Helvetica,sans-Serif" font-size="10.00">and 22 more...</text>
<text text-anchor="start" x="837.45" y="-189.5" font-family="Helvetica,sans-Serif" font-size="10.00">+ name()</text>
</a>
</g>
</g>
<!-- Node17&#45;&gt;Node1 -->
<g id="edge22" class="edge">
<title>Node17&#45;&gt;Node1</title>
<path fill="none" stroke="#404040" d="M829.69,-182.49C821.25,-169.95 812.62,-157.13 804.34,-144.84"/>
<polygon fill="none" stroke="#404040" points="804.18,-144.6 797.52,-141.86 797.48,-134.65 804.15,-137.39 804.18,-144.6"/>
<text text-anchor="middle" x="849.95" y="-156" font-family="Helvetica,sans-Serif" font-size="10.00"> +blockOfProof</text>
</g>
</g>
</svg>
        <g id="navigator" transform="translate(0 0)" fill="#404254">
                <rect fill="#f2f5e9" fill-opacity="0.5" stroke="#606060" stroke-width=".5" x="0" y="0" width="60" height="60"/>
                <use id="zoomplus" xlink:href="#zoomPlus" x="17" y="9" onmousedown="handleZoom(evt,'in')"/>
                <use id="zoomminus" xlink:href="#zoomMin" x="42" y="9" onmousedown="handleZoom(evt,'out')"/>
                <use id="reset" xlink:href="#resetDef" x="30" y="36" onmousedown="handleReset()"/>
                <g id="arrowUp" xlink:href="#dirArrow" transform="translate(30 24)" onmousedown="handlePan(0,-1)">
                  <use xlink:href="#rim" fill="#404040">
                        <set attributeName="fill" to="#808080" begin="arrowUp.mouseover" end="arrowUp.mouseout"/>
                  </use>
                  <path fill="none" stroke="white" stroke-width="1.5" d="M0,-3.0v7 M-2.5,-0.5L0,-3.0L2.5,-0.5"/>
                </g>
                <g id="arrowRight" xlink:href="#dirArrow" transform="rotate(90) translate(36 -43)" onmousedown="handlePan(1,0)">
                  <use xlink:href="#rim" fill="#404040">
                        <set attributeName="fill" to="#808080" begin="arrowRight.mouseover" end="arrowRight.mouseout"/>
                  </use>
                  <path fill="none" stroke="white" stroke-width="1.5" d="M0,-3.0v7 M-2.5,-0.5L0,-3.0L2.5,-0.5"/>
                </g>
                <g id="arrowDown" xlink:href="#dirArrow" transform="rotate(180) translate(-30 -48)" onmousedown="handlePan(0,1)">
                  <use xlink:href="#rim" fill="#404040">
                        <set attributeName="fill" to="#808080" begin="arrowDown.mouseover" end="arrowDown.mouseout"/>
                  </use>
                  <path fill="none" stroke="white" stroke-width="1.5" d="M0,-3.0v7 M-2.5,-0.5L0,-3.0L2.5,-0.5"/>
                </g>
                <g id="arrowLeft" xlink:href="#dirArrow" transform="rotate(270) translate(-36 17)" onmousedown="handlePan(-1,0)">
                  <use xlink:href="#rim" fill="#404040">
                        <set attributeName="fill" to="#808080" begin="arrowLeft.mouseover" end="arrowLeft.mouseout"/>
                  </use>
                  <path fill="none" stroke="white" stroke-width="1.5" d="M0,-3.0v7 M-2.5,-0.5L0,-3.0L2.5,-0.5"/>
                </g>
        </g>
        <svg viewBox="0 0 15 15" width="100%" height="30px" preserveAspectRatio="xMaxYMin meet">
         <g id="arrow_out" transform="scale(0.3 0.3)">
          <a xlink:href="structaltintegration_1_1ATV__coll__graph_org.svg" target="_base">
           <rect id="button" ry="5" rx="5" y="6" x="6" height="38" width="38"
                fill="#f2f5e9" fill-opacity="0.5" stroke="#606060" stroke-width="1.0"/>
           <path id="arrow"
             d="M 11.500037,31.436501 C 11.940474,20.09759 22.043105,11.32322 32.158766,21.979434 L 37.068811,17.246167 C 37.068811,17.246167 37.088388,32 37.088388,32 L 22.160133,31.978069 C 22.160133,31.978069 26.997745,27.140456 26.997745,27.140456 C 18.528582,18.264221 13.291696,25.230495 11.500037,31.436501 z"
             style="fill:#404040;"/>
          </a>
         </g>
        </svg>
</svg>
