<?xml version="1.0" encoding="UTF-8" standalone="no"?>
<!DOCTYPE svg PUBLIC "-//W3C//DTD SVG 1.1//EN"
 "http://www.w3.org/Graphics/SVG/1.1/DTD/svg11.dtd">
<!-- Generated by graphviz version 2.44.0 ()
 -->
<!-- Title: altintegration::MerklePath Pages: 1 -->
<svg width="366pt" height="733pt"
 viewBox="0.00 0.00 365.50 733.00" xmlns="http://www.w3.org/2000/svg" xmlns:xlink="http://www.w3.org/1999/xlink">
<g id="graph0" class="graph" transform="scale(1 1) rotate(0) translate(4 729)">
<title>altintegration::MerklePath</title>
<polygon fill="white" stroke="transparent" points="-4,4 -4,-729 361.5,-729 361.5,4 -4,4"/>
<!-- Node1 -->
<g id="node1" class="node">
<title>Node1</title>
<g id="a_node1"><a xlink:title="Path in Merkle tree which proves that subject is inside this tree.">
<polygon fill="#bfbfbf" stroke="black" points="85.5,-0.5 85.5,-90.5 211.5,-90.5 211.5,-0.5 85.5,-0.5"/>
<text text-anchor="middle" x="148.5" y="-78.5" font-family="Helvetica,sans-Serif" font-size="10.00">altintegration::MerklePath</text>
<polyline fill="none" stroke="black" points="85.5,-71.5 211.5,-71.5 "/>
<text text-anchor="start" x="93.5" y="-59.5" font-family="Helvetica,sans-Serif" font-size="10.00">+ index</text>
<polyline fill="none" stroke="black" points="85.5,-52.5 211.5,-52.5 "/>
<text text-anchor="start" x="93.5" y="-40.5" font-family="Helvetica,sans-Serif" font-size="10.00">+ toRaw()</text>
<text text-anchor="start" x="93.5" y="-29.5" font-family="Helvetica,sans-Serif" font-size="10.00">+ toVbkEncoding()</text>
<text text-anchor="start" x="93.5" y="-18.5" font-family="Helvetica,sans-Serif" font-size="10.00">+ estimateSize()</text>
<text text-anchor="start" x="93.5" y="-7.5" font-family="Helvetica,sans-Serif" font-size="10.00">+ calculateMerkleRoot()</text>
</a>
</g>
</g>
<!-- Node2 -->
<g id="node2" class="node">
<title>Node2</title>
<g id="a_node2"><a xlink:title=" ">
<polygon fill="white" stroke="#bfbfbf" points="149,-215.5 149,-283.5 274,-283.5 274,-215.5 149,-215.5"/>
<text text-anchor="start" x="157" y="-271.5" font-family="Helvetica,sans-Serif" font-size="10.00">std::vector&lt; altintegration</text>
<text text-anchor="middle" x="211.5" y="-260.5" font-family="Helvetica,sans-Serif" font-size="10.00">::Blob &gt;</text>
<polyline fill="none" stroke="#bfbfbf" points="149,-253.5 274,-253.5 "/>
<text text-anchor="middle" x="211.5" y="-241.5" font-family="Helvetica,sans-Serif" font-size="10.00"> </text>
<polyline fill="none" stroke="#bfbfbf" points="149,-234.5 274,-234.5 "/>
<text text-anchor="middle" x="211.5" y="-222.5" font-family="Helvetica,sans-Serif" font-size="10.00"> </text>
</a>
</g>
</g>
<!-- Node2&#45;&gt;Node1 -->
<g id="edge1" class="edge">
<title>Node2&#45;&gt;Node1</title>
<path fill="none" stroke="#404040" d="M201.1,-215.14C191.55,-184.54 177.22,-138.6 165.93,-102.39"/>
<polygon fill="none" stroke="#404040" points="165.8,-101.97 160.2,-97.44 162.23,-90.52 167.83,-95.05 165.8,-101.97"/>
<text text-anchor="middle" x="188.5" y="-112" font-family="Helvetica,sans-Serif" font-size="10.00"> +layers</text>
</g>
<!-- Node3 -->
<g id="node3" class="node">
<title>Node3</title>
<g id="a_node3"><a xlink:href="structaltintegration_1_1Blob.html" target="_top" xlink:title="Contiguous byte array of fixed size.">
<polygon fill="white" stroke="black" points="51.5,-408.5 51.5,-619.5 171.5,-619.5 171.5,-408.5 51.5,-408.5"/>
<text text-anchor="middle" x="111.5" y="-607.5" font-family="Helvetica,sans-Serif" font-size="10.00">altintegration::Blob&lt; N &gt;</text>
<polyline fill="none" stroke="black" points="51.5,-600.5 171.5,-600.5 "/>
<text text-anchor="start" x="59.5" y="-588.5" font-family="Helvetica,sans-Serif" font-size="10.00">+ data_</text>
<text text-anchor="start" x="59.5" y="-577.5" font-family="Helvetica,sans-Serif" font-size="10.00">+ this</text>
<polyline fill="none" stroke="black" points="51.5,-570.5 171.5,-570.5 "/>
<text text-anchor="start" x="59.5" y="-558.5" font-family="Helvetica,sans-Serif" font-size="10.00">+ Blob()</text>
<text text-anchor="start" x="59.5" y="-547.5" font-family="Helvetica,sans-Serif" font-size="10.00">+ Blob()</text>
<text text-anchor="start" x="59.5" y="-536.5" font-family="Helvetica,sans-Serif" font-size="10.00">+ Blob()</text>
<text text-anchor="start" x="59.5" y="-525.5" font-family="Helvetica,sans-Serif" font-size="10.00">+ Blob()</text>
<text text-anchor="start" x="59.5" y="-514.5" font-family="Helvetica,sans-Serif" font-size="10.00">+ Blob()</text>
<text text-anchor="start" x="59.5" y="-503.5" font-family="Helvetica,sans-Serif" font-size="10.00">+ operator=()</text>
<text text-anchor="start" x="59.5" y="-492.5" font-family="Helvetica,sans-Serif" font-size="10.00">+ operator=()</text>
<text text-anchor="start" x="59.5" y="-481.5" font-family="Helvetica,sans-Serif" font-size="10.00">+ reverse()</text>
<text text-anchor="start" x="59.5" y="-470.5" font-family="Helvetica,sans-Serif" font-size="10.00">+ operator~()</text>
<text text-anchor="start" x="59.5" y="-459.5" font-family="Helvetica,sans-Serif" font-size="10.00">+ asVector()</text>
<text text-anchor="start" x="59.5" y="-448.5" font-family="Helvetica,sans-Serif" font-size="10.00">+ asString()</text>
<text text-anchor="start" x="59.5" y="-437.5" font-family="Helvetica,sans-Serif" font-size="10.00">+ operator[]()</text>
<text text-anchor="start" x="59.5" y="-426.5" font-family="Helvetica,sans-Serif" font-size="10.00">+ operator[]()</text>
<text text-anchor="start" x="59.5" y="-415.5" font-family="Helvetica,sans-Serif" font-size="10.00">+ compareTo()</text>
</a>
</g>
</g>
<!-- Node3&#45;&gt;Node2 -->
<g id="edge2" class="edge">
<title>Node3&#45;&gt;Node2</title>
<path fill="none" stroke="#404040" d="M171.59,-417.13C176.01,-408.14 180.07,-399.02 183.5,-390 195.05,-359.67 202.12,-323.73 206.26,-295.93"/>
<polygon fill="none" stroke="#404040" points="206.3,-295.66 203.17,-289.16 207.97,-283.77 211.1,-290.27 206.3,-295.66"/>
<text text-anchor="middle" x="212" y="-382" font-family="Helvetica,sans-Serif" font-size="10.00"> +elements</text>
</g>
<!-- Node6 -->
<g id="node6" class="node">
<title>Node6</title>
<g id="a_node6"><a xlink:href="structaltintegration_1_1Blob.html" target="_top" xlink:title=" ">
<polygon fill="white" stroke="black" points="0,-138.5 0,-360.5 131,-360.5 131,-138.5 0,-138.5"/>
<text text-anchor="start" x="8" y="-348.5" font-family="Helvetica,sans-Serif" font-size="10.00">altintegration::Blob</text>
<text text-anchor="middle" x="65.5" y="-337.5" font-family="Helvetica,sans-Serif" font-size="10.00">&lt; SHA256_HASH_SIZE &gt;</text>
<polyline fill="none" stroke="black" points="0,-330.5 131,-330.5 "/>
<text text-anchor="start" x="8" y="-318.5" font-family="Helvetica,sans-Serif" font-size="10.00">+ data_</text>
<text text-anchor="start" x="8" y="-307.5" font-family="Helvetica,sans-Serif" font-size="10.00">+ this</text>
<polyline fill="none" stroke="black" points="0,-300.5 131,-300.5 "/>
<text text-anchor="start" x="8" y="-288.5" font-family="Helvetica,sans-Serif" font-size="10.00">+ Blob()</text>
<text text-anchor="start" x="8" y="-277.5" font-family="Helvetica,sans-Serif" font-size="10.00">+ Blob()</text>
<text text-anchor="start" x="8" y="-266.5" font-family="Helvetica,sans-Serif" font-size="10.00">+ Blob()</text>
<text text-anchor="start" x="8" y="-255.5" font-family="Helvetica,sans-Serif" font-size="10.00">+ Blob()</text>
<text text-anchor="start" x="8" y="-244.5" font-family="Helvetica,sans-Serif" font-size="10.00">+ Blob()</text>
<text text-anchor="start" x="8" y="-233.5" font-family="Helvetica,sans-Serif" font-size="10.00">+ operator=()</text>
<text text-anchor="start" x="8" y="-222.5" font-family="Helvetica,sans-Serif" font-size="10.00">+ operator=()</text>
<text text-anchor="start" x="8" y="-211.5" font-family="Helvetica,sans-Serif" font-size="10.00">+ reverse()</text>
<text text-anchor="start" x="8" y="-200.5" font-family="Helvetica,sans-Serif" font-size="10.00">+ operator~()</text>
<text text-anchor="start" x="8" y="-189.5" font-family="Helvetica,sans-Serif" font-size="10.00">+ asVector()</text>
<text text-anchor="start" x="8" y="-178.5" font-family="Helvetica,sans-Serif" font-size="10.00">+ asString()</text>
<text text-anchor="start" x="8" y="-167.5" font-family="Helvetica,sans-Serif" font-size="10.00">+ operator[]()</text>
<text text-anchor="start" x="8" y="-156.5" font-family="Helvetica,sans-Serif" font-size="10.00">+ operator[]()</text>
<text text-anchor="start" x="8" y="-145.5" font-family="Helvetica,sans-Serif" font-size="10.00">+ compareTo()</text>
</a>
</g>
</g>
<!-- Node3&#45;&gt;Node6 -->
<g id="edge6" class="edge">
<title>Node3&#45;&gt;Node6</title>
<path fill="none" stroke="orange" d="M68.21,-398.55C67.58,-395.68 67.01,-392.83 66.5,-390 64.8,-380.59 63.6,-370.76 62.78,-360.86"/>
<polygon fill="orange" stroke="orange" points="64.81,-399.39 70.52,-408.32 71.62,-397.78 64.81,-399.39"/>
<text text-anchor="middle" x="125" y="-382" font-family="Helvetica,sans-Serif" font-size="10.00"> &lt; SHA256_HASH_SIZE &gt;</text>
</g>
<!-- Node4 -->
<g id="node4" class="node">
<title>Node4</title>
<g id="a_node4"><a xlink:title=" ">
<polygon fill="white" stroke="#bfbfbf" points="235.5,-485.5 235.5,-542.5 319.5,-542.5 319.5,-485.5 235.5,-485.5"/>
<text text-anchor="middle" x="277.5" y="-530.5" font-family="Helvetica,sans-Serif" font-size="10.00">std::vector&lt; T &gt;</text>
<polyline fill="none" stroke="#bfbfbf" points="235.5,-523.5 319.5,-523.5 "/>
<text text-anchor="middle" x="277.5" y="-511.5" font-family="Helvetica,sans-Serif" font-size="10.00"> </text>
<polyline fill="none" stroke="#bfbfbf" points="235.5,-504.5 319.5,-504.5 "/>
<text text-anchor="middle" x="277.5" y="-492.5" font-family="Helvetica,sans-Serif" font-size="10.00"> </text>
</a>
</g>
</g>
<!-- Node4&#45;&gt;Node2 -->
<g id="edge3" class="edge">
<title>Node4&#45;&gt;Node2</title>
<path fill="none" stroke="orange" d="M272.99,-475.07C269.37,-448.04 263.54,-410.99 255.5,-379 247.19,-345.95 234.24,-309.27 224.54,-283.59"/>
<polygon fill="orange" stroke="orange" points="269.56,-475.8 274.32,-485.26 276.5,-474.9 269.56,-475.8"/>
<text text-anchor="middle" x="308" y="-382" font-family="Helvetica,sans-Serif" font-size="10.00"> &lt; altintegration::Blob &gt;</text>
</g>
<!-- Node5 -->
<g id="node5" class="node">
<title>Node5</title>
<g id="a_node5"><a xlink:title=" ">
<polygon fill="white" stroke="#bfbfbf" points="263,-667.5 263,-724.5 292,-724.5 292,-667.5 263,-667.5"/>
<text text-anchor="middle" x="277.5" y="-712.5" font-family="Helvetica,sans-Serif" font-size="10.00">T</text>
<polyline fill="none" stroke="#bfbfbf" points="263,-705.5 292,-705.5 "/>
<text text-anchor="middle" x="277.5" y="-693.5" font-family="Helvetica,sans-Serif" font-size="10.00"> </text>
<polyline fill="none" stroke="#bfbfbf" points="263,-686.5 292,-686.5 "/>
<text text-anchor="middle" x="277.5" y="-674.5" font-family="Helvetica,sans-Serif" font-size="10.00"> </text>
</a>
</g>
</g>
<!-- Node5&#45;&gt;Node4 -->
<g id="edge4" class="edge">
<title>Node5&#45;&gt;Node4</title>
<path fill="none" stroke="#404040" d="M277.5,-667.27C277.5,-637.28 277.5,-589.18 277.5,-555.08"/>
<polygon fill="none" stroke="#404040" points="277.5,-554.76 273.5,-548.76 277.5,-542.76 281.5,-548.76 277.5,-554.76"/>
<text text-anchor="middle" x="302" y="-641" font-family="Helvetica,sans-Serif" font-size="10.00"> +elements</text>
</g>
<!-- Node6&#45;&gt;Node1 -->
<g id="edge5" class="edge">
<title>Node6&#45;&gt;Node1</title>
<path fill="none" stroke="#404040" d="M110.76,-138.34C115.89,-125.87 120.94,-113.59 125.59,-102.26"/>
<polygon fill="none" stroke="#404040" points="125.72,-101.93 124.3,-94.86 130.28,-90.83 131.7,-97.9 125.72,-101.93"/>
<text text-anchor="middle" x="142.5" y="-112" font-family="Helvetica,sans-Serif" font-size="10.00"> +subject</text>
</g>
</g>
</svg>
