<?xml version="1.0" encoding="UTF-8" standalone="no"?>
<!DOCTYPE svg PUBLIC "-//W3C//DTD SVG 1.1//EN"
 "http://www.w3.org/Graphics/SVG/1.1/DTD/svg11.dtd">
<!-- Generated by graphviz version 3.0.0 (20220413.0242)
 -->
<!-- Title: altintegration::adaptors::WriteBatch Pages: 1 -->
<svg width="406pt" height="237pt"
 viewBox="0.00 0.00 405.50 237.00" xmlns="http://www.w3.org/2000/svg" xmlns:xlink="http://www.w3.org/1999/xlink">
<g id="graph0" class="graph" transform="scale(1 1) rotate(0) translate(4 233)">
<title>altintegration::adaptors::WriteBatch</title>
<polygon fill="white" stroke="transparent" points="-4,4 -4,-233 401.5,-233 401.5,4 -4,4"/>
<!-- Node1 -->
<g id="node1" class="node">
<title>Node1</title>
<g id="a_node1"><a xlink:title=" ">
<polygon fill="#bfbfbf" stroke="black" points="136,-138.5 136,-228.5 250,-228.5 250,-138.5 136,-138.5"/>
<text text-anchor="start" x="144" y="-216.5" font-family="Helvetica,sans-Serif" font-size="10.00">altintegration::adaptors</text>
<text text-anchor="middle" x="193" y="-205.5" font-family="Helvetica,sans-Serif" font-size="10.00">::WriteBatch</text>
<polyline fill="none" stroke="black" points="136,-198.5 250,-198.5 "/>
<text text-anchor="middle" x="193" y="-186.5" font-family="Helvetica,sans-Serif" font-size="10.00"> </text>
<polyline fill="none" stroke="black" points="136,-179.5 250,-179.5 "/>
<text text-anchor="start" x="144" y="-167.5" font-family="Helvetica,sans-Serif" font-size="10.00">+ ~WriteBatch()</text>
<text text-anchor="start" x="144" y="-156.5" font-family="Helvetica,sans-Serif" font-size="10.00">+ write()</text>
<text text-anchor="start" x="144" y="-145.5" font-family="Helvetica,sans-Serif" font-size="10.00">+ writeBatch()</text>
</a>
</g>
</g>
<!-- Node2 -->
<g id="node2" class="node">
<title>Node2</title>
<g id="a_node2"><a xlink:href="structaltintegration_1_1adaptors_1_1InmemWriteBatch.html" target="_top" xlink:title=" ">
<polygon fill="white" stroke="#bfbfbf" points="0,-0.5 0,-101.5 114,-101.5 114,-0.5 0,-0.5"/>
<text text-anchor="start" x="8" y="-89.5" font-family="Helvetica,sans-Serif" font-size="10.00">altintegration::adaptors</text>
<text text-anchor="middle" x="57" y="-78.5" font-family="Helvetica,sans-Serif" font-size="10.00">::InmemWriteBatch</text>
<polyline fill="none" stroke="#bfbfbf" points="0,-71.5 114,-71.5 "/>
<text text-anchor="middle" x="57" y="-59.5" font-family="Helvetica,sans-Serif" font-size="10.00"> </text>
<polyline fill="none" stroke="#bfbfbf" points="0,-52.5 114,-52.5 "/>
<text text-anchor="start" x="8" y="-40.5" font-family="Helvetica,sans-Serif" font-size="10.00">+ ~InmemWriteBatch()</text>
<text text-anchor="start" x="8" y="-29.5" font-family="Helvetica,sans-Serif" font-size="10.00">+ InmemWriteBatch()</text>
<text text-anchor="start" x="8" y="-18.5" font-family="Helvetica,sans-Serif" font-size="10.00">+ write()</text>
<text text-anchor="start" x="8" y="-7.5" font-family="Helvetica,sans-Serif" font-size="10.00">+ writeBatch()</text>
</a>
</g>
</g>
<!-- Node1&#45;&gt;Node2 -->
<g id="edge1" class="edge">
<title>Node1&#45;&gt;Node2</title>
<path fill="none" stroke="midnightblue" d="M139.62,-131.28C129.42,-121.49 118.76,-111.26 108.61,-101.52"/>
<polygon fill="none" stroke="midnightblue" points="137.32,-133.92 146.96,-138.32 142.16,-128.87 137.32,-133.92"/>
</g>
<!-- Node3 -->
<g id="node3" class="node">
<title>Node3</title>
<g id="a_node3"><a xlink:href="structaltintegration_1_1adaptors_1_1LevelDBWriteBatch.html" target="_top" xlink:title=" ">
<polygon fill="white" stroke="#bfbfbf" points="132,-0.5 132,-101.5 254,-101.5 254,-0.5 132,-0.5"/>
<text text-anchor="start" x="140" y="-89.5" font-family="Helvetica,sans-Serif" font-size="10.00">altintegration::adaptors</text>
<text text-anchor="middle" x="193" y="-78.5" font-family="Helvetica,sans-Serif" font-size="10.00">::LevelDBWriteBatch</text>
<polyline fill="none" stroke="#bfbfbf" points="132,-71.5 254,-71.5 "/>
<text text-anchor="middle" x="193" y="-59.5" font-family="Helvetica,sans-Serif" font-size="10.00"> </text>
<polyline fill="none" stroke="#bfbfbf" points="132,-52.5 254,-52.5 "/>
<text text-anchor="start" x="140" y="-40.5" font-family="Helvetica,sans-Serif" font-size="10.00">+ ~LevelDBWriteBatch()</text>
<text text-anchor="start" x="140" y="-29.5" font-family="Helvetica,sans-Serif" font-size="10.00">+ LevelDBWriteBatch()</text>
<text text-anchor="start" x="140" y="-18.5" font-family="Helvetica,sans-Serif" font-size="10.00">+ write()</text>
<text text-anchor="start" x="140" y="-7.5" font-family="Helvetica,sans-Serif" font-size="10.00">+ writeBatch()</text>
</a>
</g>
</g>
<!-- Node1&#45;&gt;Node3 -->
<g id="edge2" class="edge">
<title>Node1&#45;&gt;Node3</title>
<path fill="none" stroke="midnightblue" d="M193,-128.13C193,-119.31 193,-110.22 193,-101.52"/>
<polygon fill="none" stroke="midnightblue" points="189.5,-128.32 193,-138.32 196.5,-128.32 189.5,-128.32"/>
</g>
<!-- Node4 -->
<g id="node4" class="node">
<title>Node4</title>
<g id="a_node4"><a xlink:href="structaltintegration_1_1adaptors_1_1RocksDBWriteBatch.html" target="_top" xlink:title=" ">
<polygon fill="white" stroke="#bfbfbf" points="272.5,-0.5 272.5,-101.5 397.5,-101.5 397.5,-0.5 272.5,-0.5"/>
<text text-anchor="start" x="280.5" y="-89.5" font-family="Helvetica,sans-Serif" font-size="10.00">altintegration::adaptors</text>
<text text-anchor="middle" x="335" y="-78.5" font-family="Helvetica,sans-Serif" font-size="10.00">::RocksDBWriteBatch</text>
<polyline fill="none" stroke="#bfbfbf" points="272.5,-71.5 397.5,-71.5 "/>
<text text-anchor="middle" x="335" y="-59.5" font-family="Helvetica,sans-Serif" font-size="10.00"> </text>
<polyline fill="none" stroke="#bfbfbf" points="272.5,-52.5 397.5,-52.5 "/>
<text text-anchor="start" x="280.5" y="-40.5" font-family="Helvetica,sans-Serif" font-size="10.00">+ ~RocksDBWriteBatch()</text>
<text text-anchor="start" x="280.5" y="-29.5" font-family="Helvetica,sans-Serif" font-size="10.00">+ RocksDBWriteBatch()</text>
<text text-anchor="start" x="280.5" y="-18.5" font-family="Helvetica,sans-Serif" font-size="10.00">+ write()</text>
<text text-anchor="start" x="280.5" y="-7.5" font-family="Helvetica,sans-Serif" font-size="10.00">+ writeBatch()</text>
</a>
</g>
</g>
<!-- Node1&#45;&gt;Node4 -->
<g id="edge3" class="edge">
<title>Node1&#45;&gt;Node4</title>
<path fill="none" stroke="midnightblue" d="M248.73,-131.28C259.39,-121.49 270.52,-111.26 281.11,-101.52"/>
<polygon fill="none" stroke="midnightblue" points="246.07,-128.97 241.07,-138.32 250.81,-134.13 246.07,-128.97"/>
</g>
</g>
</svg>
