<?xml version="1.0" encoding="UTF-8" standalone="no"?>
<!DOCTYPE svg PUBLIC "-//W3C//DTD SVG 1.1//EN"
 "http://www.w3.org/Graphics/SVG/1.1/DTD/svg11.dtd">
<!-- Generated by graphviz version 2.44.0 ()
 -->
<!-- Title: altintegration::VbkPopTx Pages: 1 -->
<svg width="1049pt" height="1158pt"
 viewBox="0.00 0.00 1048.50 1158.00" xmlns="http://www.w3.org/2000/svg" xmlns:xlink="http://www.w3.org/1999/xlink">
<g id="graph0" class="graph" transform="scale(1 1) rotate(0) translate(4 1154)">
<title>altintegration::VbkPopTx</title>
<polygon fill="white" stroke="transparent" points="-4,4 -4,-1154 1044.5,-1154 1044.5,4 -4,4"/>
<!-- Node1 -->
<g id="node1" class="node">
<title>Node1</title>
<g id="a_node1"><a xlink:title="Veriblock POP transaction, which endorses VBK block in BTC blockchain.">
<polygon fill="#bfbfbf" stroke="black" points="378,-0.5 378,-90.5 500,-90.5 500,-0.5 378,-0.5"/>
<text text-anchor="middle" x="439" y="-78.5" font-family="Helvetica,sans-Serif" font-size="10.00">altintegration::VbkPopTx</text>
<polyline fill="none" stroke="black" points="378,-71.5 500,-71.5 "/>
<text text-anchor="middle" x="439" y="-59.5" font-family="Helvetica,sans-Serif" font-size="10.00"> </text>
<polyline fill="none" stroke="black" points="378,-52.5 500,-52.5 "/>
<text text-anchor="start" x="386" y="-40.5" font-family="Helvetica,sans-Serif" font-size="10.00">+ toVbkEncoding()</text>
<text text-anchor="start" x="386" y="-29.5" font-family="Helvetica,sans-Serif" font-size="10.00">+ estimateSize()</text>
<text text-anchor="start" x="386" y="-18.5" font-family="Helvetica,sans-Serif" font-size="10.00">+ getHash()</text>
<text text-anchor="start" x="386" y="-7.5" font-family="Helvetica,sans-Serif" font-size="10.00">+ toPrettyString()</text>
</a>
</g>
</g>
<!-- Node2 -->
<g id="node2" class="node">
<title>Node2</title>
<g id="a_node2"><a xlink:href="namespacealtintegration.html#structaltintegration_1_1NetworkBytePair" target="_top" xlink:title="Stores pair of TxType and VBK network byte.">
<polygon fill="white" stroke="black" points="1,-204.5 1,-261.5 151,-261.5 151,-204.5 1,-204.5"/>
<text text-anchor="middle" x="76" y="-249.5" font-family="Helvetica,sans-Serif" font-size="10.00">altintegration::NetworkBytePair</text>
<polyline fill="none" stroke="black" points="1,-242.5 151,-242.5 "/>
<text text-anchor="start" x="9" y="-230.5" font-family="Helvetica,sans-Serif" font-size="10.00">+ typeId</text>
<polyline fill="none" stroke="black" points="1,-223.5 151,-223.5 "/>
<text text-anchor="middle" x="76" y="-211.5" font-family="Helvetica,sans-Serif" font-size="10.00"> </text>
</a>
</g>
</g>
<!-- Node2&#45;&gt;Node1 -->
<g id="edge1" class="edge">
<title>Node2&#45;&gt;Node1</title>
<path fill="none" stroke="#404040" d="M78.38,-204.37C82.35,-176.09 92.91,-133 121,-109 157.05,-78.2 283.45,-60.87 365.62,-52.62"/>
<polygon fill="none" stroke="#404040" points="365.71,-52.61 371.3,-48.04 377.66,-51.44 372.07,-56.01 365.71,-52.61"/>
<text text-anchor="middle" x="158.5" y="-112" font-family="Helvetica,sans-Serif" font-size="10.00"> +networkOrType</text>
</g>
<!-- Node3 -->
<g id="node3" class="node">
<title>Node3</title>
<g id="a_node3"><a xlink:href="structaltintegration_1_1VbkNetworkType.html" target="_top" xlink:title="works as optional&lt;uint8_t&gt;">
<polygon fill="white" stroke="black" points="0,-436 0,-537 152,-537 152,-436 0,-436"/>
<text text-anchor="middle" x="76" y="-525" font-family="Helvetica,sans-Serif" font-size="10.00">altintegration::VbkNetworkType</text>
<polyline fill="none" stroke="black" points="0,-518 152,-518 "/>
<text text-anchor="start" x="8" y="-506" font-family="Helvetica,sans-Serif" font-size="10.00">+ hasValue</text>
<text text-anchor="start" x="8" y="-495" font-family="Helvetica,sans-Serif" font-size="10.00">+ value</text>
<polyline fill="none" stroke="black" points="0,-488 152,-488 "/>
<text text-anchor="start" x="8" y="-476" font-family="Helvetica,sans-Serif" font-size="10.00">+ operator bool()</text>
<text text-anchor="start" x="8" y="-465" font-family="Helvetica,sans-Serif" font-size="10.00">+ operator==()</text>
<text text-anchor="start" x="8" y="-454" font-family="Helvetica,sans-Serif" font-size="10.00">+ toPrettyString()</text>
<text text-anchor="start" x="8" y="-443" font-family="Helvetica,sans-Serif" font-size="10.00">+ putJson()</text>
</a>
</g>
</g>
<!-- Node3&#45;&gt;Node2 -->
<g id="edge2" class="edge">
<title>Node3&#45;&gt;Node2</title>
<path fill="none" stroke="#404040" d="M76,-435.81C76,-388.39 76,-317.84 76,-273.95"/>
<polygon fill="none" stroke="#404040" points="76,-273.78 72,-267.78 76,-261.78 80,-267.78 76,-273.78"/>
<text text-anchor="middle" x="108" y="-349" font-family="Helvetica,sans-Serif" font-size="10.00"> +networkType</text>
</g>
<!-- Node4 -->
<g id="node4" class="node">
<title>Node4</title>
<g id="a_node4"><a xlink:title=" ">
<polygon fill="white" stroke="#bfbfbf" points="253.5,-458 253.5,-515 360.5,-515 360.5,-458 253.5,-458"/>
<text text-anchor="middle" x="307" y="-503" font-family="Helvetica,sans-Serif" font-size="10.00">std::vector&lt; uint8_t &gt;</text>
<polyline fill="none" stroke="#bfbfbf" points="253.5,-496 360.5,-496 "/>
<text text-anchor="start" x="261.5" y="-484" font-family="Helvetica,sans-Serif" font-size="10.00">+ elements</text>
<polyline fill="none" stroke="#bfbfbf" points="253.5,-477 360.5,-477 "/>
<text text-anchor="middle" x="307" y="-465" font-family="Helvetica,sans-Serif" font-size="10.00"> </text>
</a>
</g>
</g>
<!-- Node4&#45;&gt;Node1 -->
<g id="edge3" class="edge">
<title>Node4&#45;&gt;Node1</title>
<path fill="none" stroke="#404040" d="M303.22,-457.56C296.23,-396.11 286.49,-246.08 340,-138 347.12,-123.63 357.52,-110.39 368.93,-98.71"/>
<polygon fill="none" stroke="#404040" points="369.21,-98.45 370.73,-91.4 377.83,-90.1 376.3,-97.14 369.21,-98.45"/>
<text text-anchor="middle" x="365.5" y="-236" font-family="Helvetica,sans-Serif" font-size="10.00"> +publicKey</text>
<text text-anchor="middle" x="365.5" y="-225" font-family="Helvetica,sans-Serif" font-size="10.00">+signature</text>
</g>
<!-- Node16 -->
<g id="node16" class="node">
<title>Node16</title>
<g id="a_node16"><a xlink:href="structaltintegration_1_1BtcTx.html" target="_top" xlink:title="Bitcoin transaction representation.">
<polygon fill="white" stroke="black" points="169,-171.5 169,-294.5 271,-294.5 271,-171.5 169,-171.5"/>
<text text-anchor="middle" x="220" y="-282.5" font-family="Helvetica,sans-Serif" font-size="10.00">altintegration::BtcTx</text>
<polyline fill="none" stroke="black" points="169,-275.5 271,-275.5 "/>
<text text-anchor="middle" x="220" y="-263.5" font-family="Helvetica,sans-Serif" font-size="10.00"> </text>
<polyline fill="none" stroke="black" points="169,-256.5 271,-256.5 "/>
<text text-anchor="start" x="177" y="-244.5" font-family="Helvetica,sans-Serif" font-size="10.00">+ BtcTx()</text>
<text text-anchor="start" x="177" y="-233.5" font-family="Helvetica,sans-Serif" font-size="10.00">+ BtcTx()</text>
<text text-anchor="start" x="177" y="-222.5" font-family="Helvetica,sans-Serif" font-size="10.00">+ BtcTx()</text>
<text text-anchor="start" x="177" y="-211.5" font-family="Helvetica,sans-Serif" font-size="10.00">+ toVbkEncoding()</text>
<text text-anchor="start" x="177" y="-200.5" font-family="Helvetica,sans-Serif" font-size="10.00">+ toRaw()</text>
<text text-anchor="start" x="177" y="-189.5" font-family="Helvetica,sans-Serif" font-size="10.00">+ estimateSize()</text>
<text text-anchor="start" x="177" y="-178.5" font-family="Helvetica,sans-Serif" font-size="10.00">+ getHash()</text>
</a>
</g>
</g>
<!-- Node4&#45;&gt;Node16 -->
<g id="edge21" class="edge">
<title>Node4&#45;&gt;Node16</title>
<path fill="none" stroke="#404040" d="M297.36,-457.62C284.82,-421.38 262.46,-356.73 244.99,-306.24"/>
<polygon fill="none" stroke="#404040" points="244.93,-306.06 239.19,-301.7 241,-294.72 246.75,-299.08 244.93,-306.06"/>
<text text-anchor="middle" x="269" y="-349" font-family="Helvetica,sans-Serif" font-size="10.00"> +tx</text>
</g>
<!-- Node5 -->
<g id="node5" class="node">
<title>Node5</title>
<g id="a_node5"><a xlink:title=" ">
<polygon fill="white" stroke="#bfbfbf" points="522,-711.5 522,-768.5 606,-768.5 606,-711.5 522,-711.5"/>
<text text-anchor="middle" x="564" y="-756.5" font-family="Helvetica,sans-Serif" font-size="10.00">std::vector&lt; T &gt;</text>
<polyline fill="none" stroke="#bfbfbf" points="522,-749.5 606,-749.5 "/>
<text text-anchor="middle" x="564" y="-737.5" font-family="Helvetica,sans-Serif" font-size="10.00"> </text>
<polyline fill="none" stroke="#bfbfbf" points="522,-730.5 606,-730.5 "/>
<text text-anchor="middle" x="564" y="-718.5" font-family="Helvetica,sans-Serif" font-size="10.00"> </text>
</a>
</g>
</g>
<!-- Node5&#45;&gt;Node4 -->
<g id="edge4" class="edge">
<title>Node5&#45;&gt;Node4</title>
<path fill="none" stroke="orange" d="M513.34,-709.49C472.12,-683.74 414.23,-643.46 373,-598 350.33,-573.01 331.44,-539.05 319.76,-515.4"/>
<polygon fill="orange" stroke="orange" points="511.52,-712.48 521.87,-714.76 515.2,-706.52 511.52,-712.48"/>
<text text-anchor="middle" x="425.5" y="-619" font-family="Helvetica,sans-Serif" font-size="10.00"> &lt; uint8_t &gt;</text>
</g>
<!-- Node8 -->
<g id="node8" class="node">
<title>Node8</title>
<g id="a_node8"><a xlink:title=" ">
<polygon fill="white" stroke="#bfbfbf" points="673.5,-452.5 673.5,-520.5 798.5,-520.5 798.5,-452.5 673.5,-452.5"/>
<text text-anchor="start" x="681.5" y="-508.5" font-family="Helvetica,sans-Serif" font-size="10.00">std::vector&lt; altintegration</text>
<text text-anchor="middle" x="736" y="-497.5" font-family="Helvetica,sans-Serif" font-size="10.00">::Blob &gt;</text>
<polyline fill="none" stroke="#bfbfbf" points="673.5,-490.5 798.5,-490.5 "/>
<text text-anchor="middle" x="736" y="-478.5" font-family="Helvetica,sans-Serif" font-size="10.00"> </text>
<polyline fill="none" stroke="#bfbfbf" points="673.5,-471.5 798.5,-471.5 "/>
<text text-anchor="middle" x="736" y="-459.5" font-family="Helvetica,sans-Serif" font-size="10.00"> </text>
</a>
</g>
</g>
<!-- Node5&#45;&gt;Node8 -->
<g id="edge12" class="edge">
<title>Node5&#45;&gt;Node8</title>
<path fill="none" stroke="orange" d="M579.27,-702.14C591.27,-676.12 609.81,-641.48 633,-616 642.46,-605.6 649.05,-607.92 659,-598 682.18,-574.89 703.04,-544.01 717.18,-520.77"/>
<polygon fill="orange" stroke="orange" points="576.06,-700.75 575.15,-711.3 582.44,-703.62 576.06,-700.75"/>
<text text-anchor="middle" x="682.5" y="-619" font-family="Helvetica,sans-Serif" font-size="10.00"> &lt; altintegration::Blob &gt;</text>
</g>
<!-- Node14 -->
<g id="node14" class="node">
<title>Node14</title>
<g id="a_node14"><a xlink:title=" ">
<polygon fill="white" stroke="#bfbfbf" points="478.5,-199 478.5,-267 603.5,-267 603.5,-199 478.5,-199"/>
<text text-anchor="start" x="486.5" y="-255" font-family="Helvetica,sans-Serif" font-size="10.00">std::vector&lt; altintegration</text>
<text text-anchor="middle" x="541" y="-244" font-family="Helvetica,sans-Serif" font-size="10.00">::BtcBlock &gt;</text>
<polyline fill="none" stroke="#bfbfbf" points="478.5,-237 603.5,-237 "/>
<text text-anchor="middle" x="541" y="-225" font-family="Helvetica,sans-Serif" font-size="10.00"> </text>
<polyline fill="none" stroke="#bfbfbf" points="478.5,-218 603.5,-218 "/>
<text text-anchor="middle" x="541" y="-206" font-family="Helvetica,sans-Serif" font-size="10.00"> </text>
</a>
</g>
</g>
<!-- Node5&#45;&gt;Node14 -->
<g id="edge18" class="edge">
<title>Node5&#45;&gt;Node14</title>
<path fill="none" stroke="orange" d="M558.02,-701.38C553.8,-673.04 548.48,-633.19 546,-598 537.43,-476.32 538.94,-331.22 540.2,-267.18"/>
<polygon fill="orange" stroke="orange" points="554.56,-701.9 559.52,-711.27 561.48,-700.86 554.56,-701.9"/>
<text text-anchor="middle" x="605.5" y="-484" font-family="Helvetica,sans-Serif" font-size="10.00"> &lt; altintegration::BtcBlock &gt;</text>
</g>
<!-- Node6 -->
<g id="node6" class="node">
<title>Node6</title>
<g id="a_node6"><a xlink:title=" ">
<polygon fill="white" stroke="#bfbfbf" points="579.5,-1092.5 579.5,-1149.5 608.5,-1149.5 608.5,-1092.5 579.5,-1092.5"/>
<text text-anchor="middle" x="594" y="-1137.5" font-family="Helvetica,sans-Serif" font-size="10.00">T</text>
<polyline fill="none" stroke="#bfbfbf" points="579.5,-1130.5 608.5,-1130.5 "/>
<text text-anchor="middle" x="594" y="-1118.5" font-family="Helvetica,sans-Serif" font-size="10.00"> </text>
<polyline fill="none" stroke="#bfbfbf" points="579.5,-1111.5 608.5,-1111.5 "/>
<text text-anchor="middle" x="594" y="-1099.5" font-family="Helvetica,sans-Serif" font-size="10.00"> </text>
</a>
</g>
</g>
<!-- Node6&#45;&gt;Node5 -->
<g id="edge5" class="edge">
<title>Node6&#45;&gt;Node5</title>
<path fill="none" stroke="#404040" d="M591.82,-1092.44C586.58,-1026.2 573.25,-857.86 567.14,-780.72"/>
<polygon fill="none" stroke="#404040" points="567.14,-780.68 562.68,-775.01 566.19,-768.71 570.65,-774.38 567.14,-780.68"/>
<text text-anchor="middle" x="605.5" y="-961" font-family="Helvetica,sans-Serif" font-size="10.00"> +elements</text>
</g>
<!-- Node11 -->
<g id="node11" class="node">
<title>Node11</title>
<g id="a_node11"><a xlink:title=" ">
<polygon fill="white" stroke="#bfbfbf" points="608,-987.5 608,-1044.5 686,-1044.5 686,-987.5 608,-987.5"/>
<text text-anchor="middle" x="647" y="-1032.5" font-family="Helvetica,sans-Serif" font-size="10.00">std::array&lt; T &gt;</text>
<polyline fill="none" stroke="#bfbfbf" points="608,-1025.5 686,-1025.5 "/>
<text text-anchor="middle" x="647" y="-1013.5" font-family="Helvetica,sans-Serif" font-size="10.00"> </text>
<polyline fill="none" stroke="#bfbfbf" points="608,-1006.5 686,-1006.5 "/>
<text text-anchor="middle" x="647" y="-994.5" font-family="Helvetica,sans-Serif" font-size="10.00"> </text>
</a>
</g>
</g>
<!-- Node6&#45;&gt;Node11 -->
<g id="edge11" class="edge">
<title>Node6&#45;&gt;Node11</title>
<path fill="none" stroke="#404040" d="M608.2,-1092.4C614.03,-1081.08 620.86,-1067.79 627.17,-1055.54"/>
<polygon fill="none" stroke="#404040" points="627.27,-1055.35 626.46,-1048.18 632.76,-1044.68 633.57,-1051.84 627.27,-1055.35"/>
<text text-anchor="middle" x="646.5" y="-1066" font-family="Helvetica,sans-Serif" font-size="10.00"> +elements</text>
</g>
<!-- Node7 -->
<g id="node7" class="node">
<title>Node7</title>
<g id="a_node7"><a xlink:href="structaltintegration_1_1MerklePath.html" target="_top" xlink:title="Path in Merkle tree which proves that subject is inside this tree.">
<polygon fill="white" stroke="black" points="777,-188 777,-278 903,-278 903,-188 777,-188"/>
<text text-anchor="middle" x="840" y="-266" font-family="Helvetica,sans-Serif" font-size="10.00">altintegration::MerklePath</text>
<polyline fill="none" stroke="black" points="777,-259 903,-259 "/>
<text text-anchor="start" x="785" y="-247" font-family="Helvetica,sans-Serif" font-size="10.00">+ index</text>
<polyline fill="none" stroke="black" points="777,-240 903,-240 "/>
<text text-anchor="start" x="785" y="-228" font-family="Helvetica,sans-Serif" font-size="10.00">+ toRaw()</text>
<text text-anchor="start" x="785" y="-217" font-family="Helvetica,sans-Serif" font-size="10.00">+ toVbkEncoding()</text>
<text text-anchor="start" x="785" y="-206" font-family="Helvetica,sans-Serif" font-size="10.00">+ estimateSize()</text>
<text text-anchor="start" x="785" y="-195" font-family="Helvetica,sans-Serif" font-size="10.00">+ calculateMerkleRoot()</text>
</a>
</g>
</g>
<!-- Node7&#45;&gt;Node1 -->
<g id="edge6" class="edge">
<title>Node7&#45;&gt;Node1</title>
<path fill="none" stroke="#404040" d="M815.07,-187.99C802.95,-170.14 786.91,-150.77 768,-138 690.38,-85.55 583.24,-62.99 512.59,-53.4"/>
<polygon fill="none" stroke="#404040" points="512.17,-53.35 505.71,-56.55 500.27,-51.81 506.73,-48.61 512.17,-53.35"/>
<text text-anchor="middle" x="765" y="-112" font-family="Helvetica,sans-Serif" font-size="10.00"> +merklePath</text>
</g>
<!-- Node8&#45;&gt;Node7 -->
<g id="edge7" class="edge">
<title>Node8&#45;&gt;Node7</title>
<path fill="none" stroke="#404040" d="M749.7,-452.36C766.85,-410.91 796.45,-339.32 817.07,-289.46"/>
<polygon fill="none" stroke="#404040" points="817.13,-289.32 815.72,-282.24 821.71,-278.23 823.12,-285.3 817.13,-289.32"/>
<text text-anchor="middle" x="808" y="-349" font-family="Helvetica,sans-Serif" font-size="10.00"> +layers</text>
</g>
<!-- Node9 -->
<g id="node9" class="node">
<title>Node9</title>
<g id="a_node9"><a xlink:href="structaltintegration_1_1Blob.html" target="_top" xlink:title="Contiguous byte array of fixed size.">
<polygon fill="white" stroke="black" points="676,-645.5 676,-834.5 796,-834.5 796,-645.5 676,-645.5"/>
<text text-anchor="middle" x="736" y="-822.5" font-family="Helvetica,sans-Serif" font-size="10.00">altintegration::Blob&lt; N &gt;</text>
<polyline fill="none" stroke="black" points="676,-815.5 796,-815.5 "/>
<text text-anchor="start" x="684" y="-803.5" font-family="Helvetica,sans-Serif" font-size="10.00">+ this</text>
<polyline fill="none" stroke="black" points="676,-796.5 796,-796.5 "/>
<text text-anchor="start" x="684" y="-784.5" font-family="Helvetica,sans-Serif" font-size="10.00">+ Blob()</text>
<text text-anchor="start" x="684" y="-773.5" font-family="Helvetica,sans-Serif" font-size="10.00">+ Blob()</text>
<text text-anchor="start" x="684" y="-762.5" font-family="Helvetica,sans-Serif" font-size="10.00">+ Blob()</text>
<text text-anchor="start" x="684" y="-751.5" font-family="Helvetica,sans-Serif" font-size="10.00">+ Blob()</text>
<text text-anchor="start" x="684" y="-740.5" font-family="Helvetica,sans-Serif" font-size="10.00">+ Blob()</text>
<text text-anchor="start" x="684" y="-729.5" font-family="Helvetica,sans-Serif" font-size="10.00">+ operator=()</text>
<text text-anchor="start" x="684" y="-718.5" font-family="Helvetica,sans-Serif" font-size="10.00">+ operator=()</text>
<text text-anchor="start" x="684" y="-707.5" font-family="Helvetica,sans-Serif" font-size="10.00">+ reverse()</text>
<text text-anchor="start" x="684" y="-696.5" font-family="Helvetica,sans-Serif" font-size="10.00">+ operator~()</text>
<text text-anchor="start" x="684" y="-685.5" font-family="Helvetica,sans-Serif" font-size="10.00">+ asVector()</text>
<text text-anchor="start" x="684" y="-674.5" font-family="Helvetica,sans-Serif" font-size="10.00">and 9 more...</text>
<text text-anchor="start" x="684" y="-663.5" font-family="Helvetica,sans-Serif" font-size="10.00"># assign()</text>
<text text-anchor="start" x="684" y="-652.5" font-family="Helvetica,sans-Serif" font-size="10.00"># assign()</text>
</a>
</g>
</g>
<!-- Node9&#45;&gt;Node8 -->
<g id="edge8" class="edge">
<title>Node9&#45;&gt;Node8</title>
<path fill="none" stroke="#404040" d="M736,-645.35C736,-606.93 736,-564.23 736,-532.93"/>
<polygon fill="none" stroke="#404040" points="736,-532.69 732,-526.69 736,-520.69 740,-526.69 736,-532.69"/>
<text text-anchor="middle" x="760.5" y="-619" font-family="Helvetica,sans-Serif" font-size="10.00"> +elements</text>
</g>
<!-- Node12 -->
<g id="node12" class="node">
<title>Node12</title>
<g id="a_node12"><a xlink:href="structaltintegration_1_1Blob.html" target="_top" xlink:title=" ">
<polygon fill="white" stroke="black" points="816.5,-375.5 816.5,-597.5 947.5,-597.5 947.5,-375.5 816.5,-375.5"/>
<text text-anchor="start" x="824.5" y="-585.5" font-family="Helvetica,sans-Serif" font-size="10.00">altintegration::Blob</text>
<text text-anchor="middle" x="882" y="-574.5" font-family="Helvetica,sans-Serif" font-size="10.00">&lt; SHA256_HASH_SIZE &gt;</text>
<polyline fill="none" stroke="black" points="816.5,-567.5 947.5,-567.5 "/>
<text text-anchor="start" x="824.5" y="-555.5" font-family="Helvetica,sans-Serif" font-size="10.00">+ data_</text>
<text text-anchor="start" x="824.5" y="-544.5" font-family="Helvetica,sans-Serif" font-size="10.00">+ this</text>
<text text-anchor="start" x="824.5" y="-533.5" font-family="Helvetica,sans-Serif" font-size="10.00"># data_</text>
<polyline fill="none" stroke="black" points="816.5,-526.5 947.5,-526.5 "/>
<text text-anchor="start" x="824.5" y="-514.5" font-family="Helvetica,sans-Serif" font-size="10.00">+ Blob()</text>
<text text-anchor="start" x="824.5" y="-503.5" font-family="Helvetica,sans-Serif" font-size="10.00">+ Blob()</text>
<text text-anchor="start" x="824.5" y="-492.5" font-family="Helvetica,sans-Serif" font-size="10.00">+ Blob()</text>
<text text-anchor="start" x="824.5" y="-481.5" font-family="Helvetica,sans-Serif" font-size="10.00">+ Blob()</text>
<text text-anchor="start" x="824.5" y="-470.5" font-family="Helvetica,sans-Serif" font-size="10.00">+ Blob()</text>
<text text-anchor="start" x="824.5" y="-459.5" font-family="Helvetica,sans-Serif" font-size="10.00">+ operator=()</text>
<text text-anchor="start" x="824.5" y="-448.5" font-family="Helvetica,sans-Serif" font-size="10.00">+ operator=()</text>
<text text-anchor="start" x="824.5" y="-437.5" font-family="Helvetica,sans-Serif" font-size="10.00">+ reverse()</text>
<text text-anchor="start" x="824.5" y="-426.5" font-family="Helvetica,sans-Serif" font-size="10.00">+ operator~()</text>
<text text-anchor="start" x="824.5" y="-415.5" font-family="Helvetica,sans-Serif" font-size="10.00">+ asVector()</text>
<text text-anchor="start" x="824.5" y="-404.5" font-family="Helvetica,sans-Serif" font-size="10.00">and 9 more...</text>
<text text-anchor="start" x="824.5" y="-393.5" font-family="Helvetica,sans-Serif" font-size="10.00"># assign()</text>
<text text-anchor="start" x="824.5" y="-382.5" font-family="Helvetica,sans-Serif" font-size="10.00"># assign()</text>
</a>
</g>
</g>
<!-- Node9&#45;&gt;Node12 -->
<g id="edge14" class="edge">
<title>Node9&#45;&gt;Node12</title>
<path fill="none" stroke="orange" d="M795.47,-636.56C802.88,-623.79 810.5,-610.67 817.98,-597.78"/>
<polygon fill="orange" stroke="orange" points="792.36,-634.95 790.37,-645.35 798.41,-638.46 792.36,-634.95"/>
<text text-anchor="middle" x="862.5" y="-619" font-family="Helvetica,sans-Serif" font-size="10.00"> &lt; SHA256_HASH_SIZE &gt;</text>
</g>
<!-- Node10 -->
<g id="node10" class="node">
<title>Node10</title>
<g id="a_node10"><a xlink:title=" ">
<polygon fill="white" stroke="#bfbfbf" points="613.5,-882.5 613.5,-939.5 744.5,-939.5 744.5,-882.5 613.5,-882.5"/>
<text text-anchor="middle" x="679" y="-927.5" font-family="Helvetica,sans-Serif" font-size="10.00">std::array&lt; value_type, N &gt;</text>
<polyline fill="none" stroke="#bfbfbf" points="613.5,-920.5 744.5,-920.5 "/>
<text text-anchor="start" x="621.5" y="-908.5" font-family="Helvetica,sans-Serif" font-size="10.00">+ elements</text>
<polyline fill="none" stroke="#bfbfbf" points="613.5,-901.5 744.5,-901.5 "/>
<text text-anchor="middle" x="679" y="-889.5" font-family="Helvetica,sans-Serif" font-size="10.00"> </text>
</a>
</g>
</g>
<!-- Node10&#45;&gt;Node9 -->
<g id="edge9" class="edge">
<title>Node10&#45;&gt;Node9</title>
<path fill="none" stroke="#404040" d="M688.28,-882.47C691.77,-872.13 695.98,-859.65 700.44,-846.44"/>
<polygon fill="none" stroke="#404040" points="700.57,-846.06 698.69,-839.09 704.4,-834.69 706.27,-841.65 700.57,-846.06"/>
<text text-anchor="middle" x="713" y="-856" font-family="Helvetica,sans-Serif" font-size="10.00"> #data_</text>
</g>
<!-- Node11&#45;&gt;Node10 -->
<g id="edge10" class="edge">
<title>Node11&#45;&gt;Node10</title>
<path fill="none" stroke="orange" d="M658.6,-977.66C662.5,-965.11 666.78,-951.35 670.4,-939.68"/>
<polygon fill="orange" stroke="orange" points="655.2,-976.81 655.58,-987.4 661.88,-978.89 655.2,-976.81"/>
<text text-anchor="middle" x="702.5" y="-961" font-family="Helvetica,sans-Serif" font-size="10.00"> &lt; value_type, N &gt;</text>
</g>
<!-- Node12&#45;&gt;Node7 -->
<g id="edge13" class="edge">
<title>Node12&#45;&gt;Node7</title>
<path fill="none" stroke="#404040" d="M863.58,-375.19C858.65,-345.7 853.54,-315.06 849.33,-289.89"/>
<polygon fill="none" stroke="#404040" points="849.32,-289.84 844.39,-284.58 847.35,-278 852.28,-283.26 849.32,-289.84"/>
<text text-anchor="middle" x="879" y="-349" font-family="Helvetica,sans-Serif" font-size="10.00"> +subject</text>
</g>
<!-- Node13 -->
<g id="node13" class="node">
<title>Node13</title>
<g id="a_node13"><a xlink:href="structaltintegration_1_1BtcBlock.html" target="_top" xlink:title="Bitcoin block.">
<polygon fill="white" stroke="black" points="382,-397.5 382,-575.5 498,-575.5 498,-397.5 382,-397.5"/>
<text text-anchor="middle" x="440" y="-563.5" font-family="Helvetica,sans-Serif" font-size="10.00">altintegration::BtcBlock</text>
<polyline fill="none" stroke="black" points="382,-556.5 498,-556.5 "/>
<text text-anchor="middle" x="440" y="-544.5" font-family="Helvetica,sans-Serif" font-size="10.00"> </text>
<polyline fill="none" stroke="black" points="382,-537.5 498,-537.5 "/>
<text text-anchor="start" x="390" y="-525.5" font-family="Helvetica,sans-Serif" font-size="10.00">+ BtcBlock()</text>
<text text-anchor="start" x="390" y="-514.5" font-family="Helvetica,sans-Serif" font-size="10.00">+ BtcBlock()</text>
<text text-anchor="start" x="390" y="-503.5" font-family="Helvetica,sans-Serif" font-size="10.00">+ toRaw()</text>
<text text-anchor="start" x="390" y="-492.5" font-family="Helvetica,sans-Serif" font-size="10.00">+ toVbkEncoding()</text>
<text text-anchor="start" x="390" y="-481.5" font-family="Helvetica,sans-Serif" font-size="10.00">+ estimateSize()</text>
<text text-anchor="start" x="390" y="-470.5" font-family="Helvetica,sans-Serif" font-size="10.00">+ calculateHash()</text>
<text text-anchor="start" x="390" y="-459.5" font-family="Helvetica,sans-Serif" font-size="10.00">+ getHash()</text>
<text text-anchor="start" x="390" y="-448.5" font-family="Helvetica,sans-Serif" font-size="10.00">+ toPrettyString()</text>
<text text-anchor="start" x="390" y="-437.5" font-family="Helvetica,sans-Serif" font-size="10.00">+ getVersion()</text>
<text text-anchor="start" x="390" y="-426.5" font-family="Helvetica,sans-Serif" font-size="10.00">+ getPreviousBlock()</text>
<text text-anchor="start" x="390" y="-415.5" font-family="Helvetica,sans-Serif" font-size="10.00">and 10 more...</text>
<text text-anchor="start" x="390" y="-404.5" font-family="Helvetica,sans-Serif" font-size="10.00">+ name()</text>
</a>
</g>
</g>
<!-- Node13&#45;&gt;Node1 -->
<g id="edge15" class="edge">
<title>Node13&#45;&gt;Node1</title>
<path fill="none" stroke="#404040" d="M416.2,-397.39C411.14,-374.93 406.56,-350.72 404,-328 394.53,-244.09 388.66,-221.04 404,-138 406.2,-126.08 409.89,-113.71 414.06,-102.06"/>
<polygon fill="none" stroke="#404040" points="414.12,-101.92 412.5,-94.89 418.37,-90.7 419.98,-97.72 414.12,-101.92"/>
<text text-anchor="middle" x="437" y="-230.5" font-family="Helvetica,sans-Serif" font-size="10.00"> +blockOfProof</text>
</g>
<!-- Node13&#45;&gt;Node14 -->
<g id="edge17" class="edge">
<title>Node13&#45;&gt;Node14</title>
<path fill="none" stroke="#404040" d="M456.39,-397.48C460.85,-380.11 466.35,-362.23 473,-346 482.77,-322.16 497.21,-297.49 510.27,-277.4"/>
<polygon fill="none" stroke="#404040" points="510.31,-277.33 510.29,-270.12 516.94,-267.33 516.96,-274.54 510.31,-277.33"/>
<text text-anchor="middle" x="497.5" y="-349" font-family="Helvetica,sans-Serif" font-size="10.00"> +elements</text>
</g>
<!-- Node14&#45;&gt;Node1 -->
<g id="edge16" class="edge">
<title>Node14&#45;&gt;Node1</title>
<path fill="none" stroke="#404040" d="M522.76,-198.84C507.9,-171.8 486.59,-133.06 469.19,-101.41"/>
<polygon fill="none" stroke="#404040" points="469,-101.05 462.6,-97.72 463.22,-90.54 469.61,-93.87 469,-101.05"/>
<text text-anchor="middle" x="526.5" y="-112" font-family="Helvetica,sans-Serif" font-size="10.00"> +blockOfProofContext</text>
</g>
<!-- Node15 -->
<g id="node15" class="node">
<title>Node15</title>
<g id="a_node15"><a xlink:href="structaltintegration_1_1Address.html" target="_top" xlink:title="Represents address on VBK chain.">
<polygon fill="white" stroke="black" points="621.5,-138.5 621.5,-327.5 758.5,-327.5 758.5,-138.5 621.5,-138.5"/>
<text text-anchor="middle" x="690" y="-315.5" font-family="Helvetica,sans-Serif" font-size="10.00">altintegration::Address</text>
<polyline fill="none" stroke="black" points="621.5,-308.5 758.5,-308.5 "/>
<text text-anchor="middle" x="690" y="-296.5" font-family="Helvetica,sans-Serif" font-size="10.00"> </text>
<polyline fill="none" stroke="black" points="621.5,-289.5 758.5,-289.5 "/>
<text text-anchor="start" x="629.5" y="-277.5" font-family="Helvetica,sans-Serif" font-size="10.00">+ Address()</text>
<text text-anchor="start" x="629.5" y="-266.5" font-family="Helvetica,sans-Serif" font-size="10.00">+ operator==()</text>
<text text-anchor="start" x="629.5" y="-255.5" font-family="Helvetica,sans-Serif" font-size="10.00">+ operator!=()</text>
<text text-anchor="start" x="629.5" y="-244.5" font-family="Helvetica,sans-Serif" font-size="10.00">+ operator==()</text>
<text text-anchor="start" x="629.5" y="-233.5" font-family="Helvetica,sans-Serif" font-size="10.00">+ getType()</text>
<text text-anchor="start" x="629.5" y="-222.5" font-family="Helvetica,sans-Serif" font-size="10.00">+ getPopBytes()</text>
<text text-anchor="start" x="629.5" y="-211.5" font-family="Helvetica,sans-Serif" font-size="10.00">+ isDerivedFromPublicKey()</text>
<text text-anchor="start" x="629.5" y="-200.5" font-family="Helvetica,sans-Serif" font-size="10.00">+ fromString()</text>
<text text-anchor="start" x="629.5" y="-189.5" font-family="Helvetica,sans-Serif" font-size="10.00">+ toString()</text>
<text text-anchor="start" x="629.5" y="-178.5" font-family="Helvetica,sans-Serif" font-size="10.00">+ toVbkEncoding()</text>
<text text-anchor="start" x="629.5" y="-167.5" font-family="Helvetica,sans-Serif" font-size="10.00">+ estimateSize()</text>
<text text-anchor="start" x="629.5" y="-156.5" font-family="Helvetica,sans-Serif" font-size="10.00">+ fromPublicKey()</text>
<text text-anchor="start" x="629.5" y="-145.5" font-family="Helvetica,sans-Serif" font-size="10.00">+ assertFromString()</text>
</a>
</g>
</g>
<!-- Node15&#45;&gt;Node1 -->
<g id="edge19" class="edge">
<title>Node15&#45;&gt;Node1</title>
<path fill="none" stroke="#404040" d="M621.37,-146.89C618.58,-143.86 615.78,-140.88 613,-138 599.43,-123.96 596.45,-119.52 580,-109 558.77,-95.42 534.1,-83.38 511.38,-73.58"/>
<polygon fill="none" stroke="#404040" points="511.12,-73.47 504.04,-74.83 500.06,-68.81 507.15,-67.46 511.12,-73.47"/>
<text text-anchor="middle" x="615.5" y="-112" font-family="Helvetica,sans-Serif" font-size="10.00"> +address</text>
</g>
<!-- Node16&#45;&gt;Node1 -->
<g id="edge20" class="edge">
<title>Node16&#45;&gt;Node1</title>
<path fill="none" stroke="#404040" d="M195.8,-171.23C191.3,-149.69 191.57,-126.49 205,-109 224.66,-83.4 304.89,-66.03 365.97,-56.22"/>
<polygon fill="none" stroke="#404040" points="366.05,-56.21 371.37,-51.33 377.91,-54.36 372.6,-59.24 366.05,-56.21"/>
<text text-anchor="middle" x="249" y="-112" font-family="Helvetica,sans-Serif" font-size="10.00"> +bitcoinTransaction</text>
</g>
<!-- Node17 -->
<g id="node17" class="node">
<title>Node17</title>
<g id="a_node17"><a xlink:href="structaltintegration_1_1VbkBlock.html" target="_top" xlink:title="Veriblock block.">
<polygon fill="white" stroke="black" points="921.5,-144 921.5,-322 1040.5,-322 1040.5,-144 921.5,-144"/>
<text text-anchor="middle" x="981" y="-310" font-family="Helvetica,sans-Serif" font-size="10.00">altintegration::VbkBlock</text>
<polyline fill="none" stroke="black" points="921.5,-303 1040.5,-303 "/>
<text text-anchor="middle" x="981" y="-291" font-family="Helvetica,sans-Serif" font-size="10.00"> </text>
<polyline fill="none" stroke="black" points="921.5,-284 1040.5,-284 "/>
<text text-anchor="start" x="929.5" y="-272" font-family="Helvetica,sans-Serif" font-size="10.00">+ toPrettyString()</text>
<text text-anchor="start" x="929.5" y="-261" font-family="Helvetica,sans-Serif" font-size="10.00">+ toShortPrettyString()</text>
<text text-anchor="start" x="929.5" y="-250" font-family="Helvetica,sans-Serif" font-size="10.00">+ toRaw()</text>
<text text-anchor="start" x="929.5" y="-239" font-family="Helvetica,sans-Serif" font-size="10.00">+ toVbkEncoding()</text>
<text text-anchor="start" x="929.5" y="-228" font-family="Helvetica,sans-Serif" font-size="10.00">+ toRaw()</text>
<text text-anchor="start" x="929.5" y="-217" font-family="Helvetica,sans-Serif" font-size="10.00">+ toVbkEncoding()</text>
<text text-anchor="start" x="929.5" y="-206" font-family="Helvetica,sans-Serif" font-size="10.00">+ estimateSize()</text>
<text text-anchor="start" x="929.5" y="-195" font-family="Helvetica,sans-Serif" font-size="10.00">+ getBlockTime()</text>
<text text-anchor="start" x="929.5" y="-184" font-family="Helvetica,sans-Serif" font-size="10.00">+ calculateHash()</text>
<text text-anchor="start" x="929.5" y="-173" font-family="Helvetica,sans-Serif" font-size="10.00">+ getHash()</text>
<text text-anchor="start" x="929.5" y="-162" font-family="Helvetica,sans-Serif" font-size="10.00">and 22 more...</text>
<text text-anchor="start" x="929.5" y="-151" font-family="Helvetica,sans-Serif" font-size="10.00">+ name()</text>
</a>
</g>
</g>
<!-- Node17&#45;&gt;Node1 -->
<g id="edge22" class="edge">
<title>Node17&#45;&gt;Node1</title>
<path fill="none" stroke="#404040" d="M921.28,-145.01C918.28,-142.5 915.19,-140.15 912,-138 847.77,-94.68 628.81,-66.14 512.7,-53.68"/>
<polygon fill="none" stroke="#404040" points="512.36,-53.64 505.97,-56.99 500.42,-52.38 506.81,-49.03 512.36,-53.64"/>
<text text-anchor="middle" x="905.5" y="-112" font-family="Helvetica,sans-Serif" font-size="10.00"> +publishedBlock</text>
</g>
</g>
</svg>
