<?xml version="1.0" encoding="UTF-8" standalone="no"?>
<!DOCTYPE svg PUBLIC "-//W3C//DTD SVG 1.1//EN"
 "http://www.w3.org/Graphics/SVG/1.1/DTD/svg11.dtd">
<!-- Generated by graphviz version 2.49.3 (20211027.1534)
 -->
<!-- Title: altintegration::btc::CmpctBlockMsg Pages: 1 -->
<!--zoomable 1175 -->
<svg id="main" version="1.1" xmlns="http://www.w3.org/2000/svg" xmlns:xlink="http://www.w3.org/1999/xlink" xml:space="preserve" onload="init(evt)">
<style type="text/css"><![CDATA[
.edge:hover path { stroke: red; }
.edge:hover polygon { stroke: red; fill: red; }
]]></style>
<script type="text/javascript"><![CDATA[
var edges = document.getElementsByTagName('g');
if (edges && edges.length) {
  for (var i=0;i<edges.length;i++) {
    if (edges[i].id.substr(0,4)=='edge') {
      edges[i].setAttribute('class','edge');
    }
  }
}
]]></script>
        <defs>
                <circle id="rim" cx="0" cy="0" r="7"/>
                <circle id="rim2" cx="0" cy="0" r="3.5"/>
                <g id="zoomPlus">
                        <use xlink:href="#rim" fill="#404040">
                                <set attributeName="fill" to="#808080" begin="zoomplus.mouseover" end="zoomplus.mouseout"/>
                        </use>
                        <path d="M-4,0h8M0,-4v8" fill="none" stroke="white" stroke-width="1.5" pointer-events="none"/>
                </g>
                <g id="zoomMin">
                        <use xlink:href="#rim" fill="#404040">
                                <set attributeName="fill" to="#808080" begin="zoomminus.mouseover" end="zoomminus.mouseout"/>
                        </use>
                        <path d="M-4,0h8" fill="none" stroke="white" stroke-width="1.5" pointer-events="none"/>
                </g>
                <g id="dirArrow">
                        <path fill="none" stroke="white" stroke-width="1.5" d="M0,-3.0v7 M-2.5,-0.5L0,-3.0L2.5,-0.5"/>
                </g>
               <g id="resetDef">
                       <use xlink:href="#rim2" fill="#404040">
                               <set attributeName="fill" to="#808080" begin="reset.mouseover" end="reset.mouseout"/>
                       </use>
               </g>
        </defs>

<script type="text/javascript">
var viewWidth = 341;
var viewHeight = 1175;
var sectionId = 'dynsection-0';
</script>
<script xlink:href="svgpan.js"/>
<svg id="graph" class="graph">
<g id="viewport">
<title>altintegration::btc::CmpctBlockMsg</title>
<polygon fill="white" stroke="transparent" points="-4,4 -4,-1171 336.5,-1171 336.5,4 -4,4"/>
<!-- Node1 -->
<g id="node1" class="node">
<title>Node1</title>
<g id="a_node1"><a xlink:title=" ">
<polygon fill="#bfbfbf" stroke="black" points="35,-0.5 35,-68.5 190,-68.5 190,-0.5 35,-0.5"/>
<text text-anchor="start" x="43" y="-56.5" font-family="Helvetica,sans-Serif" font-size="10.00">altintegration::btc</text>
<text text-anchor="middle" x="112.5" y="-45.5" font-family="Helvetica,sans-Serif" font-size="10.00">::CmpctBlockMsg</text>
<polyline fill="none" stroke="black" points="35,-38.5 190,-38.5 "/>
<text text-anchor="start" x="43" y="-26.5" font-family="Helvetica,sans-Serif" font-size="10.00">+ ADD_SERIALIZE_METHODS</text>
<polyline fill="none" stroke="black" points="35,-19.5 190,-19.5 "/>
<text text-anchor="start" x="43" y="-7.5" font-family="Helvetica,sans-Serif" font-size="10.00">+ SerializationOp()</text>
</a>
</g>
</g>
<!-- Node2 -->
<g id="node2" class="node">
<title>Node2</title>
<g id="a_node2"><a xlink:href="structaltintegration_1_1btc_1_1BlockHeaderAndShortTxIDs.html" target="_top" xlink:title=" ">
<polygon fill="white" stroke="black" points="35,-116.5 35,-228.5 190,-228.5 190,-116.5 35,-116.5"/>
<text text-anchor="start" x="43" y="-216.5" font-family="Helvetica,sans-Serif" font-size="10.00">altintegration::btc</text>
<text text-anchor="middle" x="112.5" y="-205.5" font-family="Helvetica,sans-Serif" font-size="10.00">::BlockHeaderAndShortTxIDs</text>
<polyline fill="none" stroke="black" points="35,-198.5 190,-198.5 "/>
<text text-anchor="start" x="43" y="-186.5" font-family="Helvetica,sans-Serif" font-size="10.00">+ nonce</text>
<text text-anchor="start" x="43" y="-175.5" font-family="Helvetica,sans-Serif" font-size="10.00">+ shorttxids</text>
<text text-anchor="start" x="43" y="-164.5" font-family="Helvetica,sans-Serif" font-size="10.00">+ prefilledtxn</text>
<text text-anchor="start" x="43" y="-153.5" font-family="Helvetica,sans-Serif" font-size="10.00">+ ADD_SERIALIZE_METHODS</text>
<text text-anchor="start" x="43" y="-142.5" font-family="Helvetica,sans-Serif" font-size="10.00">+ SHORTTXIDS_LENGTH</text>
<polyline fill="none" stroke="black" points="35,-135.5 190,-135.5 "/>
<text text-anchor="start" x="43" y="-123.5" font-family="Helvetica,sans-Serif" font-size="10.00">+ SerializationOp()</text>
</a>
</g>
</g>
<!-- Node2&#45;&gt;Node1 -->
<g id="edge1" class="edge">
<title>Node2&#45;&gt;Node1</title>
<path fill="none" stroke="#404040" d="M112.5,-116.18C112.5,-104.43 112.5,-92.15 112.5,-80.82"/>
<polygon fill="none" stroke="#404040" points="112.5,-80.51 108.5,-74.51 112.5,-68.51 116.5,-74.51 112.5,-80.51"/>
<text text-anchor="middle" x="146" y="-90" font-family="Helvetica,sans-Serif" font-size="10.00"> +block_header</text>
</g>
<!-- Node3 -->
<g id="node3" class="node">
<title>Node3</title>
<g id="a_node3"><a xlink:href="structaltintegration_1_1btc_1_1BlockHeader.html" target="_top" xlink:title=" ">
<polygon fill="white" stroke="black" points="35,-276.5 35,-366.5 190,-366.5 190,-276.5 35,-276.5"/>
<text text-anchor="start" x="43" y="-354.5" font-family="Helvetica,sans-Serif" font-size="10.00">altintegration::btc</text>
<text text-anchor="middle" x="112.5" y="-343.5" font-family="Helvetica,sans-Serif" font-size="10.00">::BlockHeader</text>
<polyline fill="none" stroke="black" points="35,-336.5 190,-336.5 "/>
<text text-anchor="start" x="43" y="-324.5" font-family="Helvetica,sans-Serif" font-size="10.00">+ ADD_SERIALIZE_METHODS</text>
<polyline fill="none" stroke="black" points="35,-317.5 190,-317.5 "/>
<text text-anchor="start" x="43" y="-305.5" font-family="Helvetica,sans-Serif" font-size="10.00">+ BlockHeader()</text>
<text text-anchor="start" x="43" y="-294.5" font-family="Helvetica,sans-Serif" font-size="10.00">+ BlockHeader()</text>
<text text-anchor="start" x="43" y="-283.5" font-family="Helvetica,sans-Serif" font-size="10.00">+ SerializationOp()</text>
</a>
</g>
</g>
<!-- Node3&#45;&gt;Node2 -->
<g id="edge2" class="edge">
<title>Node3&#45;&gt;Node2</title>
<path fill="none" stroke="#404040" d="M112.5,-276.4C112.5,-265.11 112.5,-252.71 112.5,-240.55"/>
<polygon fill="none" stroke="#404040" points="112.5,-240.52 108.5,-234.52 112.5,-228.52 116.5,-234.52 112.5,-240.52"/>
<text text-anchor="middle" x="131.5" y="-250" font-family="Helvetica,sans-Serif" font-size="10.00"> +header</text>
</g>
<!-- Node4 -->
<g id="node4" class="node">
<title>Node4</title>
<g id="a_node4"><a xlink:href="structaltintegration_1_1BtcBlock.html" target="_top" xlink:title="Bitcoin block.">
<polygon fill="white" stroke="black" points="54.5,-404.5 54.5,-626.5 170.5,-626.5 170.5,-404.5 54.5,-404.5"/>
<text text-anchor="middle" x="112.5" y="-614.5" font-family="Helvetica,sans-Serif" font-size="10.00">altintegration::BtcBlock</text>
<polyline fill="none" stroke="black" points="54.5,-607.5 170.5,-607.5 "/>
<text text-anchor="start" x="62.5" y="-595.5" font-family="Helvetica,sans-Serif" font-size="10.00"># version</text>
<text text-anchor="start" x="62.5" y="-584.5" font-family="Helvetica,sans-Serif" font-size="10.00"># timestamp</text>
<text text-anchor="start" x="62.5" y="-573.5" font-family="Helvetica,sans-Serif" font-size="10.00"># bits</text>
<text text-anchor="start" x="62.5" y="-562.5" font-family="Helvetica,sans-Serif" font-size="10.00"># nonce</text>
<polyline fill="none" stroke="black" points="54.5,-555.5 170.5,-555.5 "/>
<text text-anchor="start" x="62.5" y="-543.5" font-family="Helvetica,sans-Serif" font-size="10.00">+ BtcBlock()</text>
<text text-anchor="start" x="62.5" y="-532.5" font-family="Helvetica,sans-Serif" font-size="10.00">+ BtcBlock()</text>
<text text-anchor="start" x="62.5" y="-521.5" font-family="Helvetica,sans-Serif" font-size="10.00">+ toRaw()</text>
<text text-anchor="start" x="62.5" y="-510.5" font-family="Helvetica,sans-Serif" font-size="10.00">+ toVbkEncoding()</text>
<text text-anchor="start" x="62.5" y="-499.5" font-family="Helvetica,sans-Serif" font-size="10.00">+ estimateSize()</text>
<text text-anchor="start" x="62.5" y="-488.5" font-family="Helvetica,sans-Serif" font-size="10.00">+ calculateHash()</text>
<text text-anchor="start" x="62.5" y="-477.5" font-family="Helvetica,sans-Serif" font-size="10.00">+ getHash()</text>
<text text-anchor="start" x="62.5" y="-466.5" font-family="Helvetica,sans-Serif" font-size="10.00">+ toPrettyString()</text>
<text text-anchor="start" x="62.5" y="-455.5" font-family="Helvetica,sans-Serif" font-size="10.00">+ getVersion()</text>
<text text-anchor="start" x="62.5" y="-444.5" font-family="Helvetica,sans-Serif" font-size="10.00">+ getPreviousBlock()</text>
<text text-anchor="start" x="62.5" y="-433.5" font-family="Helvetica,sans-Serif" font-size="10.00">and 10 more...</text>
<text text-anchor="start" x="62.5" y="-422.5" font-family="Helvetica,sans-Serif" font-size="10.00">+ name()</text>
<text text-anchor="start" x="62.5" y="-411.5" font-family="Helvetica,sans-Serif" font-size="10.00"># invalidateHash()</text>
</a>
</g>
</g>
<!-- Node4&#45;&gt;Node3 -->
<g id="edge3" class="edge">
<title>Node4&#45;&gt;Node3</title>
<path fill="none" stroke="midnightblue" d="M112.5,-394.33C112.5,-384.7 112.5,-375.41 112.5,-366.89"/>
<polygon fill="none" stroke="midnightblue" points="109,-394.48 112.5,-404.48 116,-394.48 109,-394.48"/>
</g>
<!-- Node5 -->
<g id="node5" class="node">
<title>Node5</title>
<g id="a_node5"><a xlink:title=" ">
<polygon fill="white" stroke="#bfbfbf" points="17,-768 17,-825 76,-825 76,-768 17,-768"/>
<text text-anchor="middle" x="46.5" y="-813" font-family="Helvetica,sans-Serif" font-size="10.00">std::string</text>
<polyline fill="none" stroke="#bfbfbf" points="17,-806 76,-806 "/>
<text text-anchor="middle" x="46.5" y="-794" font-family="Helvetica,sans-Serif" font-size="10.00"> </text>
<polyline fill="none" stroke="#bfbfbf" points="17,-787 76,-787 "/>
<text text-anchor="middle" x="46.5" y="-775" font-family="Helvetica,sans-Serif" font-size="10.00"> </text>
</a>
</g>
</g>
<!-- Node5&#45;&gt;Node4 -->
<g id="edge4" class="edge">
<title>Node5&#45;&gt;Node4</title>
<path fill="none" stroke="#404040" d="M46.96,-767.93C47.99,-737.45 51.26,-687.1 61.5,-645 62.03,-642.82 62.59,-640.63 63.17,-638.43"/>
<polygon fill="none" stroke="#404040" points="63.25,-638.15 61.05,-631.28 66.54,-626.61 68.75,-633.48 63.25,-638.15"/>
<text text-anchor="middle" x="80" y="-653.5" font-family="Helvetica,sans-Serif" font-size="10.00"> #_name</text>
</g>
<!-- Node6 -->
<g id="node6" class="node">
<title>Node6</title>
<g id="a_node6"><a xlink:title=" ">
<polygon fill="white" stroke="#bfbfbf" points="0,-1027 0,-1095 93,-1095 93,-1027 0,-1027"/>
<text text-anchor="start" x="8" y="-1083" font-family="Helvetica,sans-Serif" font-size="10.00">std::basic_string&lt;</text>
<text text-anchor="middle" x="46.5" y="-1072" font-family="Helvetica,sans-Serif" font-size="10.00"> Char &gt;</text>
<polyline fill="none" stroke="#bfbfbf" points="0,-1065 93,-1065 "/>
<text text-anchor="middle" x="46.5" y="-1053" font-family="Helvetica,sans-Serif" font-size="10.00"> </text>
<polyline fill="none" stroke="#bfbfbf" points="0,-1046 93,-1046 "/>
<text text-anchor="middle" x="46.5" y="-1034" font-family="Helvetica,sans-Serif" font-size="10.00"> </text>
</a>
</g>
</g>
<!-- Node6&#45;&gt;Node5 -->
<g id="edge5" class="edge">
<title>Node6&#45;&gt;Node5</title>
<path fill="none" stroke="midnightblue" d="M46.5,-1016.75C46.5,-962.49 46.5,-871.02 46.5,-825.29"/>
<polygon fill="none" stroke="midnightblue" points="43,-1016.75 46.5,-1026.75 50,-1016.75 43,-1016.75"/>
</g>
<!-- Node7 -->
<g id="node7" class="node">
<title>Node7</title>
<g id="a_node7"><a xlink:href="structaltintegration_1_1Blob.html" target="_top" xlink:title=" ">
<polygon fill="white" stroke="black" points="165,-685.5 165,-907.5 296,-907.5 296,-685.5 165,-685.5"/>
<text text-anchor="start" x="173" y="-895.5" font-family="Helvetica,sans-Serif" font-size="10.00">altintegration::Blob</text>
<text text-anchor="middle" x="230.5" y="-884.5" font-family="Helvetica,sans-Serif" font-size="10.00">&lt; SHA256_HASH_SIZE &gt;</text>
<polyline fill="none" stroke="black" points="165,-877.5 296,-877.5 "/>
<text text-anchor="start" x="173" y="-865.5" font-family="Helvetica,sans-Serif" font-size="10.00">+ data_</text>
<text text-anchor="start" x="173" y="-854.5" font-family="Helvetica,sans-Serif" font-size="10.00">+ this</text>
<polyline fill="none" stroke="black" points="165,-847.5 296,-847.5 "/>
<text text-anchor="start" x="173" y="-835.5" font-family="Helvetica,sans-Serif" font-size="10.00">+ Blob()</text>
<text text-anchor="start" x="173" y="-824.5" font-family="Helvetica,sans-Serif" font-size="10.00">+ Blob()</text>
<text text-anchor="start" x="173" y="-813.5" font-family="Helvetica,sans-Serif" font-size="10.00">+ Blob()</text>
<text text-anchor="start" x="173" y="-802.5" font-family="Helvetica,sans-Serif" font-size="10.00">+ Blob()</text>
<text text-anchor="start" x="173" y="-791.5" font-family="Helvetica,sans-Serif" font-size="10.00">+ Blob()</text>
<text text-anchor="start" x="173" y="-780.5" font-family="Helvetica,sans-Serif" font-size="10.00">+ operator=()</text>
<text text-anchor="start" x="173" y="-769.5" font-family="Helvetica,sans-Serif" font-size="10.00">+ operator=()</text>
<text text-anchor="start" x="173" y="-758.5" font-family="Helvetica,sans-Serif" font-size="10.00">+ reverse()</text>
<text text-anchor="start" x="173" y="-747.5" font-family="Helvetica,sans-Serif" font-size="10.00">+ operator~()</text>
<text text-anchor="start" x="173" y="-736.5" font-family="Helvetica,sans-Serif" font-size="10.00">+ asVector()</text>
<text text-anchor="start" x="173" y="-725.5" font-family="Helvetica,sans-Serif" font-size="10.00">+ asString()</text>
<text text-anchor="start" x="173" y="-714.5" font-family="Helvetica,sans-Serif" font-size="10.00">+ operator[]()</text>
<text text-anchor="start" x="173" y="-703.5" font-family="Helvetica,sans-Serif" font-size="10.00">+ operator[]()</text>
<text text-anchor="start" x="173" y="-692.5" font-family="Helvetica,sans-Serif" font-size="10.00">+ compareTo()</text>
</a>
</g>
</g>
<!-- Node7&#45;&gt;Node4 -->
<g id="edge6" class="edge">
<title>Node7&#45;&gt;Node4</title>
<path fill="none" stroke="#404040" d="M183.86,-685.23C177.33,-669.79 170.59,-653.84 163.97,-638.2"/>
<polygon fill="none" stroke="#404040" points="163.86,-637.93 157.84,-633.97 159.18,-626.88 165.21,-630.85 163.86,-637.93"/>
<text text-anchor="middle" x="208" y="-659" font-family="Helvetica,sans-Serif" font-size="10.00"> #merkleRoot</text>
<text text-anchor="middle" x="208" y="-648" font-family="Helvetica,sans-Serif" font-size="10.00">#previousBlock</text>
</g>
<!-- Node8 -->
<g id="node8" class="node">
<title>Node8</title>
<g id="a_node8"><a xlink:href="structaltintegration_1_1Blob.html" target="_top" xlink:title="Contiguous byte array of fixed size.">
<polygon fill="white" stroke="black" points="140.5,-955.5 140.5,-1166.5 260.5,-1166.5 260.5,-955.5 140.5,-955.5"/>
<text text-anchor="middle" x="200.5" y="-1154.5" font-family="Helvetica,sans-Serif" font-size="10.00">altintegration::Blob&lt; N &gt;</text>
<polyline fill="none" stroke="black" points="140.5,-1147.5 260.5,-1147.5 "/>
<text text-anchor="start" x="148.5" y="-1135.5" font-family="Helvetica,sans-Serif" font-size="10.00">+ data_</text>
<text text-anchor="start" x="148.5" y="-1124.5" font-family="Helvetica,sans-Serif" font-size="10.00">+ this</text>
<polyline fill="none" stroke="black" points="140.5,-1117.5 260.5,-1117.5 "/>
<text text-anchor="start" x="148.5" y="-1105.5" font-family="Helvetica,sans-Serif" font-size="10.00">+ Blob()</text>
<text text-anchor="start" x="148.5" y="-1094.5" font-family="Helvetica,sans-Serif" font-size="10.00">+ Blob()</text>
<text text-anchor="start" x="148.5" y="-1083.5" font-family="Helvetica,sans-Serif" font-size="10.00">+ Blob()</text>
<text text-anchor="start" x="148.5" y="-1072.5" font-family="Helvetica,sans-Serif" font-size="10.00">+ Blob()</text>
<text text-anchor="start" x="148.5" y="-1061.5" font-family="Helvetica,sans-Serif" font-size="10.00">+ Blob()</text>
<text text-anchor="start" x="148.5" y="-1050.5" font-family="Helvetica,sans-Serif" font-size="10.00">+ operator=()</text>
<text text-anchor="start" x="148.5" y="-1039.5" font-family="Helvetica,sans-Serif" font-size="10.00">+ operator=()</text>
<text text-anchor="start" x="148.5" y="-1028.5" font-family="Helvetica,sans-Serif" font-size="10.00">+ reverse()</text>
<text text-anchor="start" x="148.5" y="-1017.5" font-family="Helvetica,sans-Serif" font-size="10.00">+ operator~()</text>
<text text-anchor="start" x="148.5" y="-1006.5" font-family="Helvetica,sans-Serif" font-size="10.00">+ asVector()</text>
<text text-anchor="start" x="148.5" y="-995.5" font-family="Helvetica,sans-Serif" font-size="10.00">+ asString()</text>
<text text-anchor="start" x="148.5" y="-984.5" font-family="Helvetica,sans-Serif" font-size="10.00">+ operator[]()</text>
<text text-anchor="start" x="148.5" y="-973.5" font-family="Helvetica,sans-Serif" font-size="10.00">+ operator[]()</text>
<text text-anchor="start" x="148.5" y="-962.5" font-family="Helvetica,sans-Serif" font-size="10.00">+ compareTo()</text>
</a>
</g>
</g>
<!-- Node8&#45;&gt;Node4 -->
<g id="edge8" class="edge">
<title>Node8&#45;&gt;Node4</title>
<path fill="none" stroke="#404040" d="M140.47,-959.95C132.74,-943.11 125.97,-925.43 121.5,-908 98.93,-820.02 97.46,-717.24 101.22,-639.07"/>
<polygon fill="none" stroke="#404040" points="101.24,-638.72 97.56,-632.52 101.87,-626.74 105.55,-632.94 101.24,-638.72"/>
<text text-anchor="middle" x="138.5" y="-794" font-family="Helvetica,sans-Serif" font-size="10.00"> #hash_</text>
</g>
<!-- Node8&#45;&gt;Node7 -->
<g id="edge7" class="edge">
<title>Node8&#45;&gt;Node7</title>
<path fill="none" stroke="orange" d="M213.59,-945.48C215.02,-932.93 216.48,-920.17 217.91,-907.67"/>
<polygon fill="orange" stroke="orange" points="210.1,-945.17 212.44,-955.5 217.06,-945.96 210.1,-945.17"/>
<text text-anchor="middle" x="274" y="-929" font-family="Helvetica,sans-Serif" font-size="10.00"> &lt; SHA256_HASH_SIZE &gt;</text>
</g>
</g>
</svg>
        <g id="navigator" transform="translate(0 0)" fill="#404254">
                <rect fill="#f2f5e9" fill-opacity="0.5" stroke="#606060" stroke-width=".5" x="0" y="0" width="60" height="60"/>
                <use id="zoomplus" xlink:href="#zoomPlus" x="17" y="9" onmousedown="handleZoom(evt,'in')"/>
                <use id="zoomminus" xlink:href="#zoomMin" x="42" y="9" onmousedown="handleZoom(evt,'out')"/>
                <use id="reset" xlink:href="#resetDef" x="30" y="36" onmousedown="handleReset()"/>
                <g id="arrowUp" xlink:href="#dirArrow" transform="translate(30 24)" onmousedown="handlePan(0,-1)">
                  <use xlink:href="#rim" fill="#404040">
                        <set attributeName="fill" to="#808080" begin="arrowUp.mouseover" end="arrowUp.mouseout"/>
                  </use>
                  <path fill="none" stroke="white" stroke-width="1.5" d="M0,-3.0v7 M-2.5,-0.5L0,-3.0L2.5,-0.5"/>
                </g>
                <g id="arrowRight" xlink:href="#dirArrow" transform="rotate(90) translate(36 -43)" onmousedown="handlePan(1,0)">
                  <use xlink:href="#rim" fill="#404040">
                        <set attributeName="fill" to="#808080" begin="arrowRight.mouseover" end="arrowRight.mouseout"/>
                  </use>
                  <path fill="none" stroke="white" stroke-width="1.5" d="M0,-3.0v7 M-2.5,-0.5L0,-3.0L2.5,-0.5"/>
                </g>
                <g id="arrowDown" xlink:href="#dirArrow" transform="rotate(180) translate(-30 -48)" onmousedown="handlePan(0,1)">
                  <use xlink:href="#rim" fill="#404040">
                        <set attributeName="fill" to="#808080" begin="arrowDown.mouseover" end="arrowDown.mouseout"/>
                  </use>
                  <path fill="none" stroke="white" stroke-width="1.5" d="M0,-3.0v7 M-2.5,-0.5L0,-3.0L2.5,-0.5"/>
                </g>
                <g id="arrowLeft" xlink:href="#dirArrow" transform="rotate(270) translate(-36 17)" onmousedown="handlePan(-1,0)">
                  <use xlink:href="#rim" fill="#404040">
                        <set attributeName="fill" to="#808080" begin="arrowLeft.mouseover" end="arrowLeft.mouseout"/>
                  </use>
                  <path fill="none" stroke="white" stroke-width="1.5" d="M0,-3.0v7 M-2.5,-0.5L0,-3.0L2.5,-0.5"/>
                </g>
        </g>
        <svg viewBox="0 0 15 15" width="100%" height="30px" preserveAspectRatio="xMaxYMin meet">
         <g id="arrow_out" transform="scale(0.3 0.3)">
          <a xlink:href="structaltintegration_1_1btc_1_1CmpctBlockMsg__coll__graph_org.svg" target="_base">
           <rect id="button" ry="5" rx="5" y="6" x="6" height="38" width="38"
                fill="#f2f5e9" fill-opacity="0.5" stroke="#606060" stroke-width="1.0"/>
           <path id="arrow"
             d="M 11.500037,31.436501 C 11.940474,20.09759 22.043105,11.32322 32.158766,21.979434 L 37.068811,17.246167 C 37.068811,17.246167 37.088388,32 37.088388,32 L 22.160133,31.978069 C 22.160133,31.978069 26.997745,27.140456 26.997745,27.140456 C 18.528582,18.264221 13.291696,25.230495 11.500037,31.436501 z"
             style="fill:#404040;"/>
          </a>
         </g>
        </svg>
</svg>
