<?xml version="1.0" encoding="UTF-8" standalone="no"?>
<!DOCTYPE svg PUBLIC "-//W3C//DTD SVG 1.1//EN"
 "http://www.w3.org/Graphics/SVG/1.1/DTD/svg11.dtd">
<!-- Generated by graphviz version 2.50.0 (20220203.2022)
 -->
<!-- Title: altintegration::AltChainParams Pages: 1 -->
<svg width="425pt" height="1180pt"
 viewBox="0.00 0.00 425.00 1180.00" xmlns="http://www.w3.org/2000/svg" xmlns:xlink="http://www.w3.org/1999/xlink">
<g id="graph0" class="graph" transform="scale(1 1) rotate(0) translate(4 1176)">
<title>altintegration::AltChainParams</title>
<polygon fill="white" stroke="transparent" points="-4,4 -4,-1176 421,-1176 421,4 -4,4"/>
<!-- Node1 -->
<g id="node1" class="node">
<title>Node1</title>
<g id="a_node1"><a xlink:title="Base class for all Altchain&#45;related configs.">
<polygon fill="#bfbfbf" stroke="black" points="0,-0.5 0,-288.5 170,-288.5 170,-0.5 0,-0.5"/>
<text text-anchor="start" x="8" y="-276.5" font-family="Helvetica,sans-Serif" font-size="10.00">altintegration::AltChain</text>
<text text-anchor="middle" x="85" y="-265.5" font-family="Helvetica,sans-Serif" font-size="10.00">Params</text>
<polyline fill="none" stroke="black" points="0,-258.5 170,-258.5 "/>
<text text-anchor="start" x="8" y="-246.5" font-family="Helvetica,sans-Serif" font-size="10.00">+ mMaxReorgBlocks</text>
<text text-anchor="start" x="8" y="-235.5" font-family="Helvetica,sans-Serif" font-size="10.00">+ mMaxAltchainFutureBlockTime</text>
<text text-anchor="start" x="8" y="-224.5" font-family="Helvetica,sans-Serif" font-size="10.00">+ mKeystoneInterval</text>
<text text-anchor="start" x="8" y="-213.5" font-family="Helvetica,sans-Serif" font-size="10.00">+ mFinalityDelay</text>
<text text-anchor="start" x="8" y="-202.5" font-family="Helvetica,sans-Serif" font-size="10.00">+ mEndorsementSettlementInterval</text>
<text text-anchor="start" x="8" y="-191.5" font-family="Helvetica,sans-Serif" font-size="10.00">+ mPreserveBlocksBehindFinal</text>
<text text-anchor="start" x="8" y="-180.5" font-family="Helvetica,sans-Serif" font-size="10.00">+ mMaxPopDataSize</text>
<text text-anchor="start" x="8" y="-169.5" font-family="Helvetica,sans-Serif" font-size="10.00">+ mMaxVbkBlocksInAltBlock</text>
<text text-anchor="start" x="8" y="-158.5" font-family="Helvetica,sans-Serif" font-size="10.00">+ mMaxVTBsInAltBlock</text>
<text text-anchor="start" x="8" y="-147.5" font-family="Helvetica,sans-Serif" font-size="10.00">+ mMaxATVsInAltBlock</text>
<polyline fill="none" stroke="black" points="0,-140.5 170,-140.5 "/>
<text text-anchor="start" x="8" y="-128.5" font-family="Helvetica,sans-Serif" font-size="10.00">+ ~AltChainParams()</text>
<text text-anchor="start" x="8" y="-117.5" font-family="Helvetica,sans-Serif" font-size="10.00">+ maxWorkerQueueSize()</text>
<text text-anchor="start" x="8" y="-106.5" font-family="Helvetica,sans-Serif" font-size="10.00">+ getKeystoneInterval()</text>
<text text-anchor="start" x="8" y="-95.5" font-family="Helvetica,sans-Serif" font-size="10.00">+ getFinalityDelay()</text>
<text text-anchor="start" x="8" y="-84.5" font-family="Helvetica,sans-Serif" font-size="10.00">+ getForkResolutionLookUpTable()</text>
<text text-anchor="start" x="8" y="-73.5" font-family="Helvetica,sans-Serif" font-size="10.00">+ getEndorsementSettlement</text>
<text text-anchor="start" x="8" y="-62.5" font-family="Helvetica,sans-Serif" font-size="10.00">Interval()</text>
<text text-anchor="start" x="8" y="-51.5" font-family="Helvetica,sans-Serif" font-size="10.00">+ getPayoutParams()</text>
<text text-anchor="start" x="8" y="-40.5" font-family="Helvetica,sans-Serif" font-size="10.00">+ getMaxVbkBlocksInAltBlock()</text>
<text text-anchor="start" x="8" y="-29.5" font-family="Helvetica,sans-Serif" font-size="10.00">+ getMaxVTBsInAltBlock()</text>
<text text-anchor="start" x="8" y="-18.5" font-family="Helvetica,sans-Serif" font-size="10.00">+ getMaxATVsInAltBlock()</text>
<text text-anchor="start" x="8" y="-7.5" font-family="Helvetica,sans-Serif" font-size="10.00">and 8 more...</text>
</a>
</g>
</g>
<!-- Node2 -->
<g id="node2" class="node">
<title>Node2</title>
<g id="a_node2"><a xlink:title=" ">
<polygon fill="white" stroke="black" points="161,-336.5 161,-404.5 305,-404.5 305,-336.5 161,-336.5"/>
<text text-anchor="start" x="169" y="-392.5" font-family="Helvetica,sans-Serif" font-size="10.00">std::shared_ptr&lt; altintegration</text>
<text text-anchor="middle" x="233" y="-381.5" font-family="Helvetica,sans-Serif" font-size="10.00">::PopPayoutsParams &gt;</text>
<polyline fill="none" stroke="black" points="161,-374.5 305,-374.5 "/>
<text text-anchor="middle" x="233" y="-362.5" font-family="Helvetica,sans-Serif" font-size="10.00"> </text>
<polyline fill="none" stroke="black" points="161,-355.5 305,-355.5 "/>
<text text-anchor="start" x="169" y="-343.5" font-family="Helvetica,sans-Serif" font-size="10.00">+ operator&#45;&gt;()</text>
</a>
</g>
</g>
<!-- Node2&#45;&gt;Node1 -->
<g id="edge1" class="edge">
<title>Node2&#45;&gt;Node1</title>
<path fill="none" stroke="#404040" d="M211.16,-336.45C201.58,-321.94 189.61,-303.83 176.9,-284.59"/>
<polygon fill="none" stroke="#404040" points="176.81,-284.45 170.16,-281.65 170.19,-274.44 176.84,-277.24 176.81,-284.45"/>
<text text-anchor="middle" x="249.5" y="-310" font-family="Helvetica,sans-Serif" font-size="10.00"> +mPopPayoutsParams</text>
</g>
<!-- Node3 -->
<g id="node3" class="node">
<title>Node3</title>
<g id="a_node3"><a xlink:href="structaltintegration_1_1PopPayoutsParams.html" target="_top" xlink:title="Defines config for POP payouts.">
<polygon fill="white" stroke="black" points="97,-452.5 97,-762.5 257,-762.5 257,-452.5 97,-452.5"/>
<text text-anchor="start" x="105" y="-750.5" font-family="Helvetica,sans-Serif" font-size="10.00">altintegration::PopPayouts</text>
<text text-anchor="middle" x="177" y="-739.5" font-family="Helvetica,sans-Serif" font-size="10.00">Params</text>
<polyline fill="none" stroke="black" points="97,-732.5 257,-732.5 "/>
<text text-anchor="start" x="105" y="-720.5" font-family="Helvetica,sans-Serif" font-size="10.00">+ mStartOfSlope</text>
<text text-anchor="start" x="105" y="-709.5" font-family="Helvetica,sans-Serif" font-size="10.00">+ mSlopeNormal</text>
<text text-anchor="start" x="105" y="-698.5" font-family="Helvetica,sans-Serif" font-size="10.00">+ mSlopeKeystone</text>
<text text-anchor="start" x="105" y="-687.5" font-family="Helvetica,sans-Serif" font-size="10.00">+ mKeystoneRound</text>
<text text-anchor="start" x="105" y="-676.5" font-family="Helvetica,sans-Serif" font-size="10.00">+ mPayoutRounds</text>
<text text-anchor="start" x="105" y="-665.5" font-family="Helvetica,sans-Serif" font-size="10.00">+ mFlatScoreRound</text>
<text text-anchor="start" x="105" y="-654.5" font-family="Helvetica,sans-Serif" font-size="10.00">+ mUseFlatScoreRound</text>
<text text-anchor="start" x="105" y="-643.5" font-family="Helvetica,sans-Serif" font-size="10.00">+ mMaxScoreThresholdNormal</text>
<text text-anchor="start" x="105" y="-632.5" font-family="Helvetica,sans-Serif" font-size="10.00">+ mMaxScoreThresholdKeystone</text>
<text text-anchor="start" x="105" y="-621.5" font-family="Helvetica,sans-Serif" font-size="10.00">+ mDifficultyAveragingInterval</text>
<text text-anchor="start" x="105" y="-610.5" font-family="Helvetica,sans-Serif" font-size="10.00">+ mPopPayoutDelay</text>
<polyline fill="none" stroke="black" points="97,-603.5 257,-603.5 "/>
<text text-anchor="start" x="105" y="-591.5" font-family="Helvetica,sans-Serif" font-size="10.00">+ startOfSlope()</text>
<text text-anchor="start" x="105" y="-580.5" font-family="Helvetica,sans-Serif" font-size="10.00">+ slopeNormal()</text>
<text text-anchor="start" x="105" y="-569.5" font-family="Helvetica,sans-Serif" font-size="10.00">+ slopeKeystone()</text>
<text text-anchor="start" x="105" y="-558.5" font-family="Helvetica,sans-Serif" font-size="10.00">+ keystoneRound()</text>
<text text-anchor="start" x="105" y="-547.5" font-family="Helvetica,sans-Serif" font-size="10.00">+ payoutRounds()</text>
<text text-anchor="start" x="105" y="-536.5" font-family="Helvetica,sans-Serif" font-size="10.00">+ flatScoreRound()</text>
<text text-anchor="start" x="105" y="-525.5" font-family="Helvetica,sans-Serif" font-size="10.00">+ useFlatScoreRound()</text>
<text text-anchor="start" x="105" y="-514.5" font-family="Helvetica,sans-Serif" font-size="10.00">+ roundRatios()</text>
<text text-anchor="start" x="105" y="-503.5" font-family="Helvetica,sans-Serif" font-size="10.00">+ maxScoreThresholdNormal()</text>
<text text-anchor="start" x="105" y="-492.5" font-family="Helvetica,sans-Serif" font-size="10.00">+ maxScoreThresholdKeystone()</text>
<text text-anchor="start" x="105" y="-481.5" font-family="Helvetica,sans-Serif" font-size="10.00">+ difficultyAveragingInterval()</text>
<text text-anchor="start" x="105" y="-470.5" font-family="Helvetica,sans-Serif" font-size="10.00">+ relativeScoreLookupTable()</text>
<text text-anchor="start" x="105" y="-459.5" font-family="Helvetica,sans-Serif" font-size="10.00">+ getPopPayoutDelay()</text>
</a>
</g>
</g>
<!-- Node3&#45;&gt;Node2 -->
<g id="edge2" class="edge">
<title>Node3&#45;&gt;Node2</title>
<path fill="none" stroke="#404040" d="M213.73,-452.37C216.81,-439.43 219.74,-427.14 222.34,-416.23"/>
<polygon fill="none" stroke="#404040" points="222.35,-416.21 219.85,-409.44 225.13,-404.54 227.63,-411.3 222.35,-416.21"/>
<text text-anchor="middle" x="230" y="-426" font-family="Helvetica,sans-Serif" font-size="10.00"> +ptr</text>
</g>
<!-- Node4 -->
<g id="node4" class="node">
<title>Node4</title>
<g id="a_node4"><a xlink:title=" ">
<polygon fill="white" stroke="black" points="123.5,-857.5 123.5,-914.5 230.5,-914.5 230.5,-857.5 123.5,-857.5"/>
<text text-anchor="middle" x="177" y="-902.5" font-family="Helvetica,sans-Serif" font-size="10.00">std::vector&lt; double &gt;</text>
<polyline fill="none" stroke="black" points="123.5,-895.5 230.5,-895.5 "/>
<text text-anchor="start" x="131.5" y="-883.5" font-family="Helvetica,sans-Serif" font-size="10.00">+ elements</text>
<polyline fill="none" stroke="black" points="123.5,-876.5 230.5,-876.5 "/>
<text text-anchor="middle" x="177" y="-864.5" font-family="Helvetica,sans-Serif" font-size="10.00"> </text>
</a>
</g>
</g>
<!-- Node4&#45;&gt;Node3 -->
<g id="edge3" class="edge">
<title>Node4&#45;&gt;Node3</title>
<path fill="none" stroke="#404040" d="M177,-857.48C177,-836.95 177,-807.01 177,-774.97"/>
<polygon fill="none" stroke="#404040" points="177,-774.6 173,-768.6 177,-762.6 181,-768.6 177,-774.6"/>
<text text-anchor="middle" x="213.5" y="-813" font-family="Helvetica,sans-Serif" font-size="10.00"> +mLookupTable</text>
<text text-anchor="middle" x="213.5" y="-802" font-family="Helvetica,sans-Serif" font-size="10.00">+mRoundRatios</text>
</g>
<!-- Node5 -->
<g id="node5" class="node">
<title>Node5</title>
<g id="a_node5"><a xlink:title=" ">
<polygon fill="white" stroke="black" points="135,-1009.5 135,-1066.5 219,-1066.5 219,-1009.5 135,-1009.5"/>
<text text-anchor="middle" x="177" y="-1054.5" font-family="Helvetica,sans-Serif" font-size="10.00">std::vector&lt; T &gt;</text>
<polyline fill="none" stroke="black" points="135,-1047.5 219,-1047.5 "/>
<text text-anchor="middle" x="177" y="-1035.5" font-family="Helvetica,sans-Serif" font-size="10.00"> </text>
<polyline fill="none" stroke="black" points="135,-1028.5 219,-1028.5 "/>
<text text-anchor="middle" x="177" y="-1016.5" font-family="Helvetica,sans-Serif" font-size="10.00"> </text>
</a>
</g>
</g>
<!-- Node5&#45;&gt;Node4 -->
<g id="edge4" class="edge">
<title>Node5&#45;&gt;Node4</title>
<path fill="none" stroke="orange" d="M175.23,-999.23C175.14,-996.45 175.06,-993.68 175,-991 174.44,-965.23 174.44,-958.77 175,-933 175.13,-927.09 175.35,-920.75 175.6,-914.72"/>
<polygon fill="orange" stroke="orange" points="171.73,-999.41 175.6,-1009.28 178.73,-999.15 171.73,-999.41"/>
<text text-anchor="middle" x="199" y="-959.5" font-family="Helvetica,sans-Serif" font-size="10.00"> &lt; double &gt;</text>
</g>
<!-- Node8 -->
<g id="node8" class="node">
<title>Node8</title>
<g id="a_node8"><a xlink:title=" ">
<polygon fill="white" stroke="black" points="25.5,-781.5 25.5,-838.5 138.5,-838.5 138.5,-781.5 25.5,-781.5"/>
<text text-anchor="middle" x="82" y="-826.5" font-family="Helvetica,sans-Serif" font-size="10.00">std::vector&lt; uint32_t &gt;</text>
<polyline fill="none" stroke="black" points="25.5,-819.5 138.5,-819.5 "/>
<text text-anchor="start" x="33.5" y="-807.5" font-family="Helvetica,sans-Serif" font-size="10.00">+ elements</text>
<polyline fill="none" stroke="black" points="25.5,-800.5 138.5,-800.5 "/>
<text text-anchor="middle" x="82" y="-788.5" font-family="Helvetica,sans-Serif" font-size="10.00"> </text>
</a>
</g>
</g>
<!-- Node5&#45;&gt;Node8 -->
<g id="edge9" class="edge">
<title>Node5&#45;&gt;Node8</title>
<path fill="none" stroke="orange" d="M127.36,-1004.1C123.45,-1000.05 119.89,-995.67 117,-991 87.5,-943.36 82.02,-876.15 81.48,-838.79"/>
<polygon fill="orange" stroke="orange" points="125.06,-1006.74 134.75,-1011.03 129.85,-1001.63 125.06,-1006.74"/>
<text text-anchor="middle" x="144" y="-959.5" font-family="Helvetica,sans-Serif" font-size="10.00"> &lt; uint32_t &gt;</text>
</g>
<!-- Node6 -->
<g id="node6" class="node">
<title>Node6</title>
<g id="a_node6"><a xlink:title=" ">
<polygon fill="white" stroke="#bfbfbf" points="216.5,-1114.5 216.5,-1171.5 245.5,-1171.5 245.5,-1114.5 216.5,-1114.5"/>
<text text-anchor="middle" x="231" y="-1159.5" font-family="Helvetica,sans-Serif" font-size="10.00">T</text>
<polyline fill="none" stroke="#bfbfbf" points="216.5,-1152.5 245.5,-1152.5 "/>
<text text-anchor="middle" x="231" y="-1140.5" font-family="Helvetica,sans-Serif" font-size="10.00"> </text>
<polyline fill="none" stroke="#bfbfbf" points="216.5,-1133.5 245.5,-1133.5 "/>
<text text-anchor="middle" x="231" y="-1121.5" font-family="Helvetica,sans-Serif" font-size="10.00"> </text>
</a>
</g>
</g>
<!-- Node6&#45;&gt;Node5 -->
<g id="edge5" class="edge">
<title>Node6&#45;&gt;Node5</title>
<path fill="none" stroke="#404040" d="M216.43,-1116.84C212.63,-1110.11 208.6,-1102.82 205,-1096 201.88,-1090.09 198.67,-1083.78 195.58,-1077.59"/>
<polygon fill="none" stroke="#404040" points="195.52,-1077.47 189.28,-1073.86 190.21,-1066.7 196.45,-1070.32 195.52,-1077.47"/>
<text text-anchor="middle" x="229.5" y="-1088" font-family="Helvetica,sans-Serif" font-size="10.00"> +elements</text>
</g>
<!-- Node7 -->
<g id="node7" class="node">
<title>Node7</title>
<g id="a_node7"><a xlink:title=" ">
<polygon fill="white" stroke="black" points="232.5,-933.5 232.5,-990.5 335.5,-990.5 335.5,-933.5 232.5,-933.5"/>
<text text-anchor="middle" x="284" y="-978.5" font-family="Helvetica,sans-Serif" font-size="10.00">std::shared_ptr&lt; T &gt;</text>
<polyline fill="none" stroke="black" points="232.5,-971.5 335.5,-971.5 "/>
<text text-anchor="middle" x="284" y="-959.5" font-family="Helvetica,sans-Serif" font-size="10.00"> </text>
<polyline fill="none" stroke="black" points="232.5,-952.5 335.5,-952.5 "/>
<text text-anchor="start" x="240.5" y="-940.5" font-family="Helvetica,sans-Serif" font-size="10.00">+ operator&#45;&gt;()</text>
</a>
</g>
</g>
<!-- Node6&#45;&gt;Node7 -->
<g id="edge7" class="edge">
<title>Node6&#45;&gt;Node7</title>
<path fill="none" stroke="#404040" d="M245.5,-1115.72C248.61,-1109.39 251.66,-1102.56 254,-1096 264.92,-1065.4 272.75,-1029.38 277.67,-1002.55"/>
<polygon fill="none" stroke="#404040" points="277.7,-1002.36 274.81,-995.76 279.79,-990.55 282.69,-997.15 277.7,-1002.36"/>
<text text-anchor="middle" x="268" y="-1088" font-family="Helvetica,sans-Serif" font-size="10.00"> +ptr</text>
</g>
<!-- Node7&#45;&gt;Node2 -->
<g id="edge6" class="edge">
<title>Node7&#45;&gt;Node2</title>
<path fill="none" stroke="orange" d="M287.15,-923.29C293.29,-838.12 303.23,-624.8 266,-452 262.53,-435.91 256.04,-418.92 249.72,-404.73"/>
<polygon fill="orange" stroke="orange" points="283.66,-923.04 286.4,-933.27 290.64,-923.56 283.66,-923.04"/>
<text text-anchor="start" x="293" y="-813" font-family="Helvetica,sans-Serif" font-size="10.00"> &lt; altintegration::PopPayouts</text>
<text text-anchor="middle" x="355" y="-802" font-family="Helvetica,sans-Serif" font-size="10.00">Params &gt;</text>
</g>
<!-- Node8&#45;&gt;Node1 -->
<g id="edge8" class="edge">
<title>Node8&#45;&gt;Node1</title>
<path fill="none" stroke="#404040" d="M80.81,-781.38C78.24,-718.03 72.58,-557.36 75,-423 75.71,-383.47 76.99,-340.78 78.41,-301.02"/>
<polygon fill="none" stroke="#404040" points="78.42,-300.78 74.64,-294.64 78.85,-288.79 82.63,-294.93 78.42,-300.78"/>
<text text-anchor="middle" x="145.5" y="-426" font-family="Helvetica,sans-Serif" font-size="10.00"> +mForkResolutionLookUpTable</text>
</g>
</g>
</svg>
