<?xml version="1.0" encoding="UTF-8" standalone="no"?>
<!DOCTYPE svg PUBLIC "-//W3C//DTD SVG 1.1//EN"
 "http://www.w3.org/Graphics/SVG/1.1/DTD/svg11.dtd">
<!-- Generated by graphviz version 3.0.0 (20220413.0242)
 -->
<!-- Title: altintegration::VbkMerklePath Pages: 1 -->
<svg width="366pt" height="744pt"
 viewBox="0.00 0.00 365.50 744.00" xmlns="http://www.w3.org/2000/svg" xmlns:xlink="http://www.w3.org/1999/xlink">
<g id="graph0" class="graph" transform="scale(1 1) rotate(0) translate(4 740)">
<title>altintegration::VbkMerklePath</title>
<polygon fill="white" stroke="transparent" points="-4,4 -4,-740 361.5,-740 361.5,4 -4,4"/>
<!-- Node1 -->
<g id="node1" class="node">
<title>Node1</title>
<g id="a_node1"><a xlink:title="Path in Merkle tree, which proves that subject exists in the tree.">
<polygon fill="#bfbfbf" stroke="black" points="66,-0.5 66,-101.5 209,-101.5 209,-0.5 66,-0.5"/>
<text text-anchor="middle" x="137.5" y="-89.5" font-family="Helvetica,sans-Serif" font-size="10.00">altintegration::VbkMerklePath</text>
<polyline fill="none" stroke="black" points="66,-82.5 209,-82.5 "/>
<text text-anchor="start" x="74" y="-70.5" font-family="Helvetica,sans-Serif" font-size="10.00">+ treeIndex</text>
<text text-anchor="start" x="74" y="-59.5" font-family="Helvetica,sans-Serif" font-size="10.00">+ index</text>
<polyline fill="none" stroke="black" points="66,-52.5 209,-52.5 "/>
<text text-anchor="start" x="74" y="-40.5" font-family="Helvetica,sans-Serif" font-size="10.00">+ toVbkEncoding()</text>
<text text-anchor="start" x="74" y="-29.5" font-family="Helvetica,sans-Serif" font-size="10.00">+ estimateSize()</text>
<text text-anchor="start" x="74" y="-18.5" font-family="Helvetica,sans-Serif" font-size="10.00">+ calculateMerkleRoot()</text>
<text text-anchor="start" x="74" y="-7.5" font-family="Helvetica,sans-Serif" font-size="10.00">+ equalLayerIndexes()</text>
</a>
</g>
</g>
<!-- Node2 -->
<g id="node2" class="node">
<title>Node2</title>
<g id="a_node2"><a xlink:href="structaltintegration_1_1Blob.html" target="_top" xlink:title=" ">
<polygon fill="white" stroke="black" points="0,-149.5 0,-371.5 131,-371.5 131,-149.5 0,-149.5"/>
<text text-anchor="start" x="8" y="-359.5" font-family="Helvetica,sans-Serif" font-size="10.00">altintegration::Blob</text>
<text text-anchor="middle" x="65.5" y="-348.5" font-family="Helvetica,sans-Serif" font-size="10.00">&lt; SHA256_HASH_SIZE &gt;</text>
<polyline fill="none" stroke="black" points="0,-341.5 131,-341.5 "/>
<text text-anchor="start" x="8" y="-329.5" font-family="Helvetica,sans-Serif" font-size="10.00">+ data_</text>
<text text-anchor="start" x="8" y="-318.5" font-family="Helvetica,sans-Serif" font-size="10.00">+ this</text>
<polyline fill="none" stroke="black" points="0,-311.5 131,-311.5 "/>
<text text-anchor="start" x="8" y="-299.5" font-family="Helvetica,sans-Serif" font-size="10.00">+ Blob()</text>
<text text-anchor="start" x="8" y="-288.5" font-family="Helvetica,sans-Serif" font-size="10.00">+ Blob()</text>
<text text-anchor="start" x="8" y="-277.5" font-family="Helvetica,sans-Serif" font-size="10.00">+ Blob()</text>
<text text-anchor="start" x="8" y="-266.5" font-family="Helvetica,sans-Serif" font-size="10.00">+ Blob()</text>
<text text-anchor="start" x="8" y="-255.5" font-family="Helvetica,sans-Serif" font-size="10.00">+ Blob()</text>
<text text-anchor="start" x="8" y="-244.5" font-family="Helvetica,sans-Serif" font-size="10.00">+ operator=()</text>
<text text-anchor="start" x="8" y="-233.5" font-family="Helvetica,sans-Serif" font-size="10.00">+ operator=()</text>
<text text-anchor="start" x="8" y="-222.5" font-family="Helvetica,sans-Serif" font-size="10.00">+ reverse()</text>
<text text-anchor="start" x="8" y="-211.5" font-family="Helvetica,sans-Serif" font-size="10.00">+ operator~()</text>
<text text-anchor="start" x="8" y="-200.5" font-family="Helvetica,sans-Serif" font-size="10.00">+ asVector()</text>
<text text-anchor="start" x="8" y="-189.5" font-family="Helvetica,sans-Serif" font-size="10.00">+ asString()</text>
<text text-anchor="start" x="8" y="-178.5" font-family="Helvetica,sans-Serif" font-size="10.00">+ operator[]()</text>
<text text-anchor="start" x="8" y="-167.5" font-family="Helvetica,sans-Serif" font-size="10.00">+ operator[]()</text>
<text text-anchor="start" x="8" y="-156.5" font-family="Helvetica,sans-Serif" font-size="10.00">+ compareTo()</text>
</a>
</g>
</g>
<!-- Node2&#45;&gt;Node1 -->
<g id="edge1" class="edge">
<title>Node2&#45;&gt;Node1</title>
<path fill="none" stroke="#404040" d="M103.71,-149.37C108.01,-136.99 112.26,-124.73 116.23,-113.3"/>
<polygon fill="none" stroke="#404040" points="116.32,-113.05 114.5,-106.07 120.25,-101.72 122.06,-108.7 116.32,-113.05"/>
<text text-anchor="middle" x="132.5" y="-123" font-family="Helvetica,sans-Serif" font-size="10.00"> +subject</text>
</g>
<!-- Node3 -->
<g id="node3" class="node">
<title>Node3</title>
<g id="a_node3"><a xlink:href="structaltintegration_1_1Blob.html" target="_top" xlink:title="Contiguous byte array of fixed size.">
<polygon fill="white" stroke="black" points="51.5,-419.5 51.5,-630.5 171.5,-630.5 171.5,-419.5 51.5,-419.5"/>
<text text-anchor="middle" x="111.5" y="-618.5" font-family="Helvetica,sans-Serif" font-size="10.00">altintegration::Blob&lt; N &gt;</text>
<polyline fill="none" stroke="black" points="51.5,-611.5 171.5,-611.5 "/>
<text text-anchor="start" x="59.5" y="-599.5" font-family="Helvetica,sans-Serif" font-size="10.00">+ data_</text>
<text text-anchor="start" x="59.5" y="-588.5" font-family="Helvetica,sans-Serif" font-size="10.00">+ this</text>
<polyline fill="none" stroke="black" points="51.5,-581.5 171.5,-581.5 "/>
<text text-anchor="start" x="59.5" y="-569.5" font-family="Helvetica,sans-Serif" font-size="10.00">+ Blob()</text>
<text text-anchor="start" x="59.5" y="-558.5" font-family="Helvetica,sans-Serif" font-size="10.00">+ Blob()</text>
<text text-anchor="start" x="59.5" y="-547.5" font-family="Helvetica,sans-Serif" font-size="10.00">+ Blob()</text>
<text text-anchor="start" x="59.5" y="-536.5" font-family="Helvetica,sans-Serif" font-size="10.00">+ Blob()</text>
<text text-anchor="start" x="59.5" y="-525.5" font-family="Helvetica,sans-Serif" font-size="10.00">+ Blob()</text>
<text text-anchor="start" x="59.5" y="-514.5" font-family="Helvetica,sans-Serif" font-size="10.00">+ operator=()</text>
<text text-anchor="start" x="59.5" y="-503.5" font-family="Helvetica,sans-Serif" font-size="10.00">+ operator=()</text>
<text text-anchor="start" x="59.5" y="-492.5" font-family="Helvetica,sans-Serif" font-size="10.00">+ reverse()</text>
<text text-anchor="start" x="59.5" y="-481.5" font-family="Helvetica,sans-Serif" font-size="10.00">+ operator~()</text>
<text text-anchor="start" x="59.5" y="-470.5" font-family="Helvetica,sans-Serif" font-size="10.00">+ asVector()</text>
<text text-anchor="start" x="59.5" y="-459.5" font-family="Helvetica,sans-Serif" font-size="10.00">+ asString()</text>
<text text-anchor="start" x="59.5" y="-448.5" font-family="Helvetica,sans-Serif" font-size="10.00">+ operator[]()</text>
<text text-anchor="start" x="59.5" y="-437.5" font-family="Helvetica,sans-Serif" font-size="10.00">+ operator[]()</text>
<text text-anchor="start" x="59.5" y="-426.5" font-family="Helvetica,sans-Serif" font-size="10.00">+ compareTo()</text>
</a>
</g>
</g>
<!-- Node3&#45;&gt;Node2 -->
<g id="edge2" class="edge">
<title>Node3&#45;&gt;Node2</title>
<path fill="none" stroke="orange" d="M68.21,-409.55C67.58,-406.68 67.01,-403.83 66.5,-401 64.8,-391.59 63.6,-381.76 62.78,-371.86"/>
<polygon fill="orange" stroke="orange" points="64.81,-410.39 70.52,-419.32 71.62,-408.78 64.81,-410.39"/>
<text text-anchor="middle" x="125" y="-393" font-family="Helvetica,sans-Serif" font-size="10.00"> &lt; SHA256_HASH_SIZE &gt;</text>
</g>
<!-- Node4 -->
<g id="node4" class="node">
<title>Node4</title>
<g id="a_node4"><a xlink:title=" ">
<polygon fill="white" stroke="black" points="149,-226.5 149,-294.5 274,-294.5 274,-226.5 149,-226.5"/>
<text text-anchor="start" x="157" y="-282.5" font-family="Helvetica,sans-Serif" font-size="10.00">std::vector&lt; altintegration</text>
<text text-anchor="middle" x="211.5" y="-271.5" font-family="Helvetica,sans-Serif" font-size="10.00">::Blob &gt;</text>
<polyline fill="none" stroke="black" points="149,-264.5 274,-264.5 "/>
<text text-anchor="middle" x="211.5" y="-252.5" font-family="Helvetica,sans-Serif" font-size="10.00"> </text>
<polyline fill="none" stroke="black" points="149,-245.5 274,-245.5 "/>
<text text-anchor="middle" x="211.5" y="-233.5" font-family="Helvetica,sans-Serif" font-size="10.00"> </text>
</a>
</g>
</g>
<!-- Node3&#45;&gt;Node4 -->
<g id="edge4" class="edge">
<title>Node3&#45;&gt;Node4</title>
<path fill="none" stroke="#404040" d="M171.59,-428.13C176.01,-419.14 180.07,-410.02 183.5,-401 195.05,-370.67 202.12,-334.73 206.26,-306.93"/>
<polygon fill="none" stroke="#404040" points="206.3,-306.66 203.17,-300.16 207.97,-294.77 211.1,-301.27 206.3,-306.66"/>
<text text-anchor="middle" x="212" y="-393" font-family="Helvetica,sans-Serif" font-size="10.00"> +elements</text>
</g>
<!-- Node4&#45;&gt;Node1 -->
<g id="edge3" class="edge">
<title>Node4&#45;&gt;Node1</title>
<path fill="none" stroke="#404040" d="M199.61,-226.16C188.77,-195.77 172.49,-150.11 159.32,-113.17"/>
<polygon fill="none" stroke="#404040" points="159.19,-112.82 153.41,-108.51 155.16,-101.52 160.94,-105.82 159.19,-112.82"/>
<text text-anchor="middle" x="181.5" y="-123" font-family="Helvetica,sans-Serif" font-size="10.00"> +layers</text>
</g>
<!-- Node5 -->
<g id="node5" class="node">
<title>Node5</title>
<g id="a_node5"><a xlink:title=" ">
<polygon fill="white" stroke="black" points="235.5,-496.5 235.5,-553.5 319.5,-553.5 319.5,-496.5 235.5,-496.5"/>
<text text-anchor="middle" x="277.5" y="-541.5" font-family="Helvetica,sans-Serif" font-size="10.00">std::vector&lt; T &gt;</text>
<polyline fill="none" stroke="black" points="235.5,-534.5 319.5,-534.5 "/>
<text text-anchor="middle" x="277.5" y="-522.5" font-family="Helvetica,sans-Serif" font-size="10.00"> </text>
<polyline fill="none" stroke="black" points="235.5,-515.5 319.5,-515.5 "/>
<text text-anchor="middle" x="277.5" y="-503.5" font-family="Helvetica,sans-Serif" font-size="10.00"> </text>
</a>
</g>
</g>
<!-- Node5&#45;&gt;Node4 -->
<g id="edge5" class="edge">
<title>Node5&#45;&gt;Node4</title>
<path fill="none" stroke="orange" d="M272.99,-486.07C269.37,-459.04 263.54,-421.99 255.5,-390 247.19,-356.95 234.24,-320.27 224.54,-294.59"/>
<polygon fill="orange" stroke="orange" points="269.56,-486.8 274.32,-496.26 276.5,-485.9 269.56,-486.8"/>
<text text-anchor="middle" x="308" y="-393" font-family="Helvetica,sans-Serif" font-size="10.00"> &lt; altintegration::Blob &gt;</text>
</g>
<!-- Node6 -->
<g id="node6" class="node">
<title>Node6</title>
<g id="a_node6"><a xlink:title=" ">
<polygon fill="white" stroke="#bfbfbf" points="263,-678.5 263,-735.5 292,-735.5 292,-678.5 263,-678.5"/>
<text text-anchor="middle" x="277.5" y="-723.5" font-family="Helvetica,sans-Serif" font-size="10.00">T</text>
<polyline fill="none" stroke="#bfbfbf" points="263,-716.5 292,-716.5 "/>
<text text-anchor="middle" x="277.5" y="-704.5" font-family="Helvetica,sans-Serif" font-size="10.00"> </text>
<polyline fill="none" stroke="#bfbfbf" points="263,-697.5 292,-697.5 "/>
<text text-anchor="middle" x="277.5" y="-685.5" font-family="Helvetica,sans-Serif" font-size="10.00"> </text>
</a>
</g>
</g>
<!-- Node6&#45;&gt;Node5 -->
<g id="edge6" class="edge">
<title>Node6&#45;&gt;Node5</title>
<path fill="none" stroke="#404040" d="M277.5,-678.27C277.5,-648.28 277.5,-600.18 277.5,-566.08"/>
<polygon fill="none" stroke="#404040" points="277.5,-565.76 273.5,-559.76 277.5,-553.76 281.5,-559.76 277.5,-565.76"/>
<text text-anchor="middle" x="302" y="-652" font-family="Helvetica,sans-Serif" font-size="10.00"> +elements</text>
</g>
</g>
</svg>
