<?xml version="1.0" encoding="UTF-8" standalone="no"?>
<!DOCTYPE svg PUBLIC "-//W3C//DTD SVG 1.1//EN"
 "http://www.w3.org/Graphics/SVG/1.1/DTD/svg11.dtd">
<!-- Generated by graphviz version 2.50.0 (20220203.2022)
 -->
<!-- Title: altintegration::AltBlockTree Pages: 1 -->
<svg width="861pt" height="1776pt"
 viewBox="0.00 0.00 860.50 1776.00" xmlns="http://www.w3.org/2000/svg" xmlns:xlink="http://www.w3.org/1999/xlink">
<g id="graph0" class="graph" transform="scale(1 1) rotate(0) translate(4 1772)">
<title>altintegration::AltBlockTree</title>
<polygon fill="white" stroke="transparent" points="-4,4 -4,-1772 856.5,-1772 856.5,4 -4,4"/>
<!-- Node1 -->
<g id="node1" class="node">
<title>Node1</title>
<g id="a_node1"><a xlink:title="Represents simplified view on Altchain&#39;s block tree, maintains VBK tree and BTC tree.">
<polygon fill="#bfbfbf" stroke="black" points="378,-0.5 378,-244.5 527,-244.5 527,-0.5 378,-0.5"/>
<text text-anchor="middle" x="452.5" y="-232.5" font-family="Helvetica,sans-Serif" font-size="10.00">altintegration::AltBlockTree</text>
<polyline fill="none" stroke="black" points="378,-225.5 527,-225.5 "/>
<text text-anchor="start" x="386" y="-213.5" font-family="Helvetica,sans-Serif" font-size="10.00">+ onInvalidBlockConnected</text>
<text text-anchor="start" x="386" y="-202.5" font-family="Helvetica,sans-Serif" font-size="10.00">+ onBlockConnected</text>
<text text-anchor="start" x="386" y="-191.5" font-family="Helvetica,sans-Serif" font-size="10.00">+ onBeforeOverrideTip</text>
<polyline fill="none" stroke="black" points="378,-184.5 527,-184.5 "/>
<text text-anchor="start" x="386" y="-172.5" font-family="Helvetica,sans-Serif" font-size="10.00">+ ~AltBlockTree()</text>
<text text-anchor="start" x="386" y="-161.5" font-family="Helvetica,sans-Serif" font-size="10.00">+ AltBlockTree()</text>
<text text-anchor="start" x="386" y="-150.5" font-family="Helvetica,sans-Serif" font-size="10.00">+ acceptBlockHeader()</text>
<text text-anchor="start" x="386" y="-139.5" font-family="Helvetica,sans-Serif" font-size="10.00">+ acceptBlock()</text>
<text text-anchor="start" x="386" y="-128.5" font-family="Helvetica,sans-Serif" font-size="10.00">+ acceptBlock()</text>
<text text-anchor="start" x="386" y="-117.5" font-family="Helvetica,sans-Serif" font-size="10.00">+ acceptBlock()</text>
<text text-anchor="start" x="386" y="-106.5" font-family="Helvetica,sans-Serif" font-size="10.00">+ makeConnectedLeafPayload</text>
<text text-anchor="start" x="386" y="-95.5" font-family="Helvetica,sans-Serif" font-size="10.00">Mutator()</text>
<text text-anchor="start" x="386" y="-84.5" font-family="Helvetica,sans-Serif" font-size="10.00">+ getConnectedTipsAfter()</text>
<text text-anchor="start" x="386" y="-73.5" font-family="Helvetica,sans-Serif" font-size="10.00">+ loadBlockForward()</text>
<text text-anchor="start" x="386" y="-62.5" font-family="Helvetica,sans-Serif" font-size="10.00">+ loadTip()</text>
<text text-anchor="start" x="386" y="-51.5" font-family="Helvetica,sans-Serif" font-size="10.00">+ comparePopScore()</text>
<text text-anchor="start" x="386" y="-40.5" font-family="Helvetica,sans-Serif" font-size="10.00">+ setState()</text>
<text text-anchor="start" x="386" y="-29.5" font-family="Helvetica,sans-Serif" font-size="10.00">+ vbk()</text>
<text text-anchor="start" x="386" y="-18.5" font-family="Helvetica,sans-Serif" font-size="10.00">+ btc()</text>
<text text-anchor="start" x="386" y="-7.5" font-family="Helvetica,sans-Serif" font-size="10.00">+ getParams()</text>
</a>
</g>
</g>
<!-- Node2 -->
<g id="node2" class="node">
<title>Node2</title>
<g id="a_node2"><a xlink:href="structaltintegration_1_1BaseBlockTree.html" target="_top" xlink:title=" ">
<polygon fill="white" stroke="black" points="376.5,-282.5 376.5,-548.5 528.5,-548.5 528.5,-282.5 376.5,-282.5"/>
<text text-anchor="start" x="384.5" y="-536.5" font-family="Helvetica,sans-Serif" font-size="10.00">altintegration::BaseBlock</text>
<text text-anchor="middle" x="452.5" y="-525.5" font-family="Helvetica,sans-Serif" font-size="10.00">Tree&lt; AltBlock &gt;</text>
<polyline fill="none" stroke="black" points="376.5,-518.5 528.5,-518.5 "/>
<text text-anchor="start" x="384.5" y="-506.5" font-family="Helvetica,sans-Serif" font-size="10.00"># isLoadingBlocks_</text>
<text text-anchor="start" x="384.5" y="-495.5" font-family="Helvetica,sans-Serif" font-size="10.00"># isLoaded_</text>
<text text-anchor="start" x="384.5" y="-484.5" font-family="Helvetica,sans-Serif" font-size="10.00"># validity_sig_</text>
<polyline fill="none" stroke="black" points="376.5,-477.5 528.5,-477.5 "/>
<text text-anchor="start" x="384.5" y="-465.5" font-family="Helvetica,sans-Serif" font-size="10.00">+ getTips()</text>
<text text-anchor="start" x="384.5" y="-454.5" font-family="Helvetica,sans-Serif" font-size="10.00">+ getBlocks()</text>
<text text-anchor="start" x="384.5" y="-443.5" font-family="Helvetica,sans-Serif" font-size="10.00">+ getAllBlocks()</text>
<text text-anchor="start" x="384.5" y="-432.5" font-family="Helvetica,sans-Serif" font-size="10.00">+ getBlockProvider()</text>
<text text-anchor="start" x="384.5" y="-421.5" font-family="Helvetica,sans-Serif" font-size="10.00">+ ~BaseBlockTree()</text>
<text text-anchor="start" x="384.5" y="-410.5" font-family="Helvetica,sans-Serif" font-size="10.00">+ BaseBlockTree()</text>
<text text-anchor="start" x="384.5" y="-399.5" font-family="Helvetica,sans-Serif" font-size="10.00">+ BaseBlockTree()</text>
<text text-anchor="start" x="384.5" y="-388.5" font-family="Helvetica,sans-Serif" font-size="10.00">+ BaseBlockTree()</text>
<text text-anchor="start" x="384.5" y="-377.5" font-family="Helvetica,sans-Serif" font-size="10.00">+ operator=()</text>
<text text-anchor="start" x="384.5" y="-366.5" font-family="Helvetica,sans-Serif" font-size="10.00">+ operator=()</text>
<text text-anchor="start" x="384.5" y="-355.5" font-family="Helvetica,sans-Serif" font-size="10.00">and 25 more...</text>
<text text-anchor="start" x="384.5" y="-344.5" font-family="Helvetica,sans-Serif" font-size="10.00"># eraseBlock()</text>
<text text-anchor="start" x="384.5" y="-333.5" font-family="Helvetica,sans-Serif" font-size="10.00"># toPrettyString()</text>
<text text-anchor="start" x="384.5" y="-322.5" font-family="Helvetica,sans-Serif" font-size="10.00"># decreaseAppliedBlockCount()</text>
<text text-anchor="start" x="384.5" y="-311.5" font-family="Helvetica,sans-Serif" font-size="10.00"># decreaseAppliedBlockCount()</text>
<text text-anchor="start" x="384.5" y="-300.5" font-family="Helvetica,sans-Serif" font-size="10.00"># increaseAppliedBlockCount()</text>
<text text-anchor="start" x="384.5" y="-289.5" font-family="Helvetica,sans-Serif" font-size="10.00"># increaseAppliedBlockCount()</text>
</a>
</g>
</g>
<!-- Node2&#45;&gt;Node1 -->
<g id="edge1" class="edge">
<title>Node2&#45;&gt;Node1</title>
<path fill="none" stroke="midnightblue" d="M452.5,-271.95C452.5,-262.87 452.5,-253.77 452.5,-244.79"/>
<polygon fill="none" stroke="midnightblue" points="449,-272.2 452.5,-282.2 456,-272.2 449,-272.2"/>
</g>
<!-- Node3 -->
<g id="node3" class="node">
<title>Node3</title>
<g id="a_node3"><a xlink:title=" ">
<polygon fill="white" stroke="black" points="35,-960 35,-1039 172,-1039 172,-960 35,-960"/>
<text text-anchor="start" x="43" y="-1027" font-family="Helvetica,sans-Serif" font-size="10.00">std::unordered_map</text>
<text text-anchor="start" x="43" y="-1016" font-family="Helvetica,sans-Serif" font-size="10.00">&lt; prev_block_hash_t,</text>
<text text-anchor="middle" x="103.5" y="-1005" font-family="Helvetica,sans-Serif" font-size="10.00"> std::unique_ptr&lt; index_t &gt; &gt;</text>
<polyline fill="none" stroke="black" points="35,-998 172,-998 "/>
<text text-anchor="start" x="43" y="-986" font-family="Helvetica,sans-Serif" font-size="10.00">+ keys</text>
<polyline fill="none" stroke="black" points="35,-979 172,-979 "/>
<text text-anchor="middle" x="103.5" y="-967" font-family="Helvetica,sans-Serif" font-size="10.00"> </text>
</a>
</g>
</g>
<!-- Node3&#45;&gt;Node2 -->
<g id="edge2" class="edge">
<title>Node3&#45;&gt;Node2</title>
<path fill="none" stroke="#404040" d="M113.3,-959.86C133.51,-884.99 184.86,-716.89 266.5,-596 294.17,-555.03 332.46,-516.09 367.12,-485.01"/>
<polygon fill="none" stroke="#404040" points="367.33,-484.82 369.17,-477.85 376.31,-476.87 374.47,-483.84 367.33,-484.82"/>
<text text-anchor="middle" x="287.5" y="-727" font-family="Helvetica,sans-Serif" font-size="10.00"> #blocks_</text>
</g>
<!-- Node20 -->
<g id="node20" class="node">
<title>Node20</title>
<g id="a_node20"><a xlink:href="structaltintegration_1_1BaseBlockTree.html" target="_top" xlink:title="Base block tree that stores all blocks, maintains tree tips, maintains active chain.">
<polygon fill="white" stroke="black" points="376.5,-596.5 376.5,-862.5 528.5,-862.5 528.5,-596.5 376.5,-596.5"/>
<text text-anchor="start" x="384.5" y="-850.5" font-family="Helvetica,sans-Serif" font-size="10.00">altintegration::BaseBlock</text>
<text text-anchor="middle" x="452.5" y="-839.5" font-family="Helvetica,sans-Serif" font-size="10.00">Tree&lt; Block &gt;</text>
<polyline fill="none" stroke="black" points="376.5,-832.5 528.5,-832.5 "/>
<text text-anchor="start" x="384.5" y="-820.5" font-family="Helvetica,sans-Serif" font-size="10.00"># isLoadingBlocks_</text>
<text text-anchor="start" x="384.5" y="-809.5" font-family="Helvetica,sans-Serif" font-size="10.00"># isLoaded_</text>
<text text-anchor="start" x="384.5" y="-798.5" font-family="Helvetica,sans-Serif" font-size="10.00"># validity_sig_</text>
<polyline fill="none" stroke="black" points="376.5,-791.5 528.5,-791.5 "/>
<text text-anchor="start" x="384.5" y="-779.5" font-family="Helvetica,sans-Serif" font-size="10.00">+ getTips()</text>
<text text-anchor="start" x="384.5" y="-768.5" font-family="Helvetica,sans-Serif" font-size="10.00">+ getBlocks()</text>
<text text-anchor="start" x="384.5" y="-757.5" font-family="Helvetica,sans-Serif" font-size="10.00">+ getAllBlocks()</text>
<text text-anchor="start" x="384.5" y="-746.5" font-family="Helvetica,sans-Serif" font-size="10.00">+ getBlockProvider()</text>
<text text-anchor="start" x="384.5" y="-735.5" font-family="Helvetica,sans-Serif" font-size="10.00">+ ~BaseBlockTree()</text>
<text text-anchor="start" x="384.5" y="-724.5" font-family="Helvetica,sans-Serif" font-size="10.00">+ BaseBlockTree()</text>
<text text-anchor="start" x="384.5" y="-713.5" font-family="Helvetica,sans-Serif" font-size="10.00">+ BaseBlockTree()</text>
<text text-anchor="start" x="384.5" y="-702.5" font-family="Helvetica,sans-Serif" font-size="10.00">+ operator=()</text>
<text text-anchor="start" x="384.5" y="-691.5" font-family="Helvetica,sans-Serif" font-size="10.00">+ BaseBlockTree()</text>
<text text-anchor="start" x="384.5" y="-680.5" font-family="Helvetica,sans-Serif" font-size="10.00">+ operator=()</text>
<text text-anchor="start" x="384.5" y="-669.5" font-family="Helvetica,sans-Serif" font-size="10.00">and 25 more...</text>
<text text-anchor="start" x="384.5" y="-658.5" font-family="Helvetica,sans-Serif" font-size="10.00"># eraseBlock()</text>
<text text-anchor="start" x="384.5" y="-647.5" font-family="Helvetica,sans-Serif" font-size="10.00"># toPrettyString()</text>
<text text-anchor="start" x="384.5" y="-636.5" font-family="Helvetica,sans-Serif" font-size="10.00"># decreaseAppliedBlockCount()</text>
<text text-anchor="start" x="384.5" y="-625.5" font-family="Helvetica,sans-Serif" font-size="10.00"># increaseAppliedBlockCount()</text>
<text text-anchor="start" x="384.5" y="-614.5" font-family="Helvetica,sans-Serif" font-size="10.00"># decreaseAppliedBlockCount()</text>
<text text-anchor="start" x="384.5" y="-603.5" font-family="Helvetica,sans-Serif" font-size="10.00"># increaseAppliedBlockCount()</text>
</a>
</g>
</g>
<!-- Node3&#45;&gt;Node20 -->
<g id="edge26" class="edge">
<title>Node3&#45;&gt;Node20</title>
<path fill="none" stroke="#404040" d="M161.07,-959.82C186.21,-943.6 216.33,-925.05 244.5,-910 289.6,-885.91 309.28,-894.57 349.5,-863 355.81,-858.04 361.96,-852.62 367.91,-846.89"/>
<polygon fill="none" stroke="#404040" points="368,-846.79 369.4,-839.72 376.46,-838.29 375.07,-845.36 368,-846.79"/>
<text text-anchor="middle" x="341.5" y="-884" font-family="Helvetica,sans-Serif" font-size="10.00"> #blocks_</text>
</g>
<!-- Node4 -->
<g id="node4" class="node">
<title>Node4</title>
<g id="a_node4"><a xlink:title=" ">
<polygon fill="white" stroke="black" points="0,-1377.5 0,-1434.5 127,-1434.5 127,-1377.5 0,-1377.5"/>
<text text-anchor="middle" x="63.5" y="-1422.5" font-family="Helvetica,sans-Serif" font-size="10.00">std::unique_ptr&lt; index_t &gt;</text>
<polyline fill="none" stroke="black" points="0,-1415.5 127,-1415.5 "/>
<text text-anchor="start" x="8" y="-1403.5" font-family="Helvetica,sans-Serif" font-size="10.00">+ ptr</text>
<polyline fill="none" stroke="black" points="0,-1396.5 127,-1396.5 "/>
<text text-anchor="start" x="8" y="-1384.5" font-family="Helvetica,sans-Serif" font-size="10.00">+ operator&#45;&gt;()</text>
</a>
</g>
</g>
<!-- Node4&#45;&gt;Node3 -->
<g id="edge3" class="edge">
<title>Node4&#45;&gt;Node3</title>
<path fill="none" stroke="#404040" d="M55.8,-1377.46C54.43,-1371.42 53.21,-1365.03 52.5,-1359 41.47,-1265.43 36.79,-1239.9 52.5,-1147 58.1,-1113.89 70.34,-1078.28 81.43,-1050.46"/>
<polygon fill="none" stroke="#404040" points="81.55,-1050.15 80.12,-1043.09 86.09,-1039.04 87.52,-1046.11 81.55,-1050.15"/>
<text text-anchor="middle" x="77" y="-1250.5" font-family="Helvetica,sans-Serif" font-size="10.00"> +elements</text>
</g>
<!-- Node5 -->
<g id="node5" class="node">
<title>Node5</title>
<g id="a_node5"><a xlink:title=" ">
<polygon fill="white" stroke="black" points="34.5,-1529.5 34.5,-1586.5 136.5,-1586.5 136.5,-1529.5 34.5,-1529.5"/>
<text text-anchor="middle" x="85.5" y="-1574.5" font-family="Helvetica,sans-Serif" font-size="10.00">std::unique_ptr&lt; T &gt;</text>
<polyline fill="none" stroke="black" points="34.5,-1567.5 136.5,-1567.5 "/>
<text text-anchor="middle" x="85.5" y="-1555.5" font-family="Helvetica,sans-Serif" font-size="10.00"> </text>
<polyline fill="none" stroke="black" points="34.5,-1548.5 136.5,-1548.5 "/>
<text text-anchor="start" x="42.5" y="-1536.5" font-family="Helvetica,sans-Serif" font-size="10.00">+ operator&#45;&gt;()</text>
</a>
</g>
</g>
<!-- Node5&#45;&gt;Node4 -->
<g id="edge4" class="edge">
<title>Node5&#45;&gt;Node4</title>
<path fill="none" stroke="orange" d="M80,-1519.47C76.13,-1493.11 71.04,-1458.43 67.55,-1434.59"/>
<polygon fill="orange" stroke="orange" points="76.55,-1520.1 81.46,-1529.49 83.48,-1519.09 76.55,-1520.1"/>
<text text-anchor="middle" x="103.5" y="-1479.5" font-family="Helvetica,sans-Serif" font-size="10.00"> &lt; index_t &gt;</text>
</g>
<!-- Node6 -->
<g id="node6" class="node">
<title>Node6</title>
<g id="a_node6"><a xlink:title=" ">
<polygon fill="white" stroke="#bfbfbf" points="147,-1710.5 147,-1767.5 176,-1767.5 176,-1710.5 147,-1710.5"/>
<text text-anchor="middle" x="161.5" y="-1755.5" font-family="Helvetica,sans-Serif" font-size="10.00">T</text>
<polyline fill="none" stroke="#bfbfbf" points="147,-1748.5 176,-1748.5 "/>
<text text-anchor="middle" x="161.5" y="-1736.5" font-family="Helvetica,sans-Serif" font-size="10.00"> </text>
<polyline fill="none" stroke="#bfbfbf" points="147,-1729.5 176,-1729.5 "/>
<text text-anchor="middle" x="161.5" y="-1717.5" font-family="Helvetica,sans-Serif" font-size="10.00"> </text>
</a>
</g>
</g>
<!-- Node6&#45;&gt;Node5 -->
<g id="edge5" class="edge">
<title>Node6&#45;&gt;Node5</title>
<path fill="none" stroke="#404040" d="M146.81,-1720.98C140.2,-1712.67 132.73,-1702.26 127.5,-1692 112.25,-1662.06 101.19,-1625.51 94.26,-1598.3"/>
<polygon fill="none" stroke="#404040" points="94.23,-1598.17 88.92,-1593.3 91.37,-1586.52 96.68,-1591.39 94.23,-1598.17"/>
<text text-anchor="middle" x="137.5" y="-1684" font-family="Helvetica,sans-Serif" font-size="10.00"> +ptr</text>
</g>
<!-- Node7 -->
<g id="node7" class="node">
<title>Node7</title>
<g id="a_node7"><a xlink:title=" ">
<polygon fill="white" stroke="black" points="111,-1219 111,-1287 212,-1287 212,-1219 111,-1219"/>
<text text-anchor="start" x="119" y="-1275" font-family="Helvetica,sans-Serif" font-size="10.00">std::unordered_map</text>
<text text-anchor="middle" x="161.5" y="-1264" font-family="Helvetica,sans-Serif" font-size="10.00">&lt; K, T &gt;</text>
<polyline fill="none" stroke="black" points="111,-1257 212,-1257 "/>
<text text-anchor="middle" x="161.5" y="-1245" font-family="Helvetica,sans-Serif" font-size="10.00"> </text>
<polyline fill="none" stroke="black" points="111,-1238 212,-1238 "/>
<text text-anchor="middle" x="161.5" y="-1226" font-family="Helvetica,sans-Serif" font-size="10.00"> </text>
</a>
</g>
</g>
<!-- Node6&#45;&gt;Node7 -->
<g id="edge8" class="edge">
<title>Node6&#45;&gt;Node7</title>
<path fill="none" stroke="#404040" d="M161.5,-1710.24C161.5,-1630.19 161.5,-1398.33 161.5,-1299.5"/>
<polygon fill="none" stroke="#404040" points="161.5,-1299.29 157.5,-1293.29 161.5,-1287.29 165.5,-1293.29 161.5,-1299.29"/>
<text text-anchor="middle" x="186" y="-1555.5" font-family="Helvetica,sans-Serif" font-size="10.00"> +elements</text>
</g>
<!-- Node15 -->
<g id="node15" class="node">
<title>Node15</title>
<g id="a_node15"><a xlink:title=" ">
<polygon fill="white" stroke="black" points="229,-1605.5 229,-1662.5 332,-1662.5 332,-1605.5 229,-1605.5"/>
<text text-anchor="middle" x="280.5" y="-1650.5" font-family="Helvetica,sans-Serif" font-size="10.00">std::shared_ptr&lt; T &gt;</text>
<polyline fill="none" stroke="black" points="229,-1643.5 332,-1643.5 "/>
<text text-anchor="middle" x="280.5" y="-1631.5" font-family="Helvetica,sans-Serif" font-size="10.00"> </text>
<polyline fill="none" stroke="black" points="229,-1624.5 332,-1624.5 "/>
<text text-anchor="start" x="237" y="-1612.5" font-family="Helvetica,sans-Serif" font-size="10.00">+ operator&#45;&gt;()</text>
</a>
</g>
</g>
<!-- Node6&#45;&gt;Node15 -->
<g id="edge19" class="edge">
<title>Node6&#45;&gt;Node15</title>
<path fill="none" stroke="#404040" d="M176.09,-1725.37C191.73,-1711.83 217.27,-1689.73 239.17,-1670.77"/>
<polygon fill="none" stroke="#404040" points="239.22,-1670.73 241.14,-1663.78 248.3,-1662.87 246.38,-1669.82 239.22,-1670.73"/>
<text text-anchor="middle" x="235.5" y="-1684" font-family="Helvetica,sans-Serif" font-size="10.00"> +ptr</text>
</g>
<!-- Node7&#45;&gt;Node3 -->
<g id="edge6" class="edge">
<title>Node7&#45;&gt;Node3</title>
<path fill="none" stroke="orange" d="M133.23,-1210.03C119.51,-1187.14 104.52,-1157.69 97.5,-1129 90.26,-1099.39 92.44,-1064.82 96.06,-1039"/>
<polygon fill="orange" stroke="orange" points="130.38,-1212.08 138.6,-1218.77 136.35,-1208.42 130.38,-1212.08"/>
<text text-anchor="start" x="97.5" y="-1121" font-family="Helvetica,sans-Serif" font-size="10.00"> &lt; prev_block_hash_t,</text>
<text text-anchor="middle" x="158" y="-1110" font-family="Helvetica,sans-Serif" font-size="10.00"> std::unique_ptr&lt; index_t &gt; &gt;</text>
</g>
<!-- Node8 -->
<g id="node8" class="node">
<title>Node8</title>
<g id="a_node8"><a xlink:title=" ">
<polygon fill="white" stroke="#bfbfbf" points="275,-1453.5 275,-1510.5 304,-1510.5 304,-1453.5 275,-1453.5"/>
<text text-anchor="middle" x="289.5" y="-1498.5" font-family="Helvetica,sans-Serif" font-size="10.00">K</text>
<polyline fill="none" stroke="#bfbfbf" points="275,-1491.5 304,-1491.5 "/>
<text text-anchor="middle" x="289.5" y="-1479.5" font-family="Helvetica,sans-Serif" font-size="10.00"> </text>
<polyline fill="none" stroke="#bfbfbf" points="275,-1472.5 304,-1472.5 "/>
<text text-anchor="middle" x="289.5" y="-1460.5" font-family="Helvetica,sans-Serif" font-size="10.00"> </text>
</a>
</g>
</g>
<!-- Node8&#45;&gt;Node7 -->
<g id="edge7" class="edge">
<title>Node8&#45;&gt;Node7</title>
<path fill="none" stroke="#404040" d="M274.75,-1461.71C268.82,-1453.63 262.07,-1444.03 256.5,-1435 228.55,-1389.7 200.74,-1335.35 182.5,-1298.11"/>
<polygon fill="none" stroke="#404040" points="182.41,-1297.92 176.19,-1294.27 177.16,-1287.13 183.38,-1290.77 182.41,-1297.92"/>
<text text-anchor="middle" x="271" y="-1403.5" font-family="Helvetica,sans-Serif" font-size="10.00"> +keys</text>
</g>
<!-- Node13 -->
<g id="node13" class="node">
<title>Node13</title>
<g id="a_node13"><a xlink:title=" ">
<polygon fill="white" stroke="black" points="367,-1224.5 367,-1281.5 438,-1281.5 438,-1224.5 367,-1224.5"/>
<text text-anchor="middle" x="402.5" y="-1269.5" font-family="Helvetica,sans-Serif" font-size="10.00">std::set&lt; K &gt;</text>
<polyline fill="none" stroke="black" points="367,-1262.5 438,-1262.5 "/>
<text text-anchor="middle" x="402.5" y="-1250.5" font-family="Helvetica,sans-Serif" font-size="10.00"> </text>
<polyline fill="none" stroke="black" points="367,-1243.5 438,-1243.5 "/>
<text text-anchor="middle" x="402.5" y="-1231.5" font-family="Helvetica,sans-Serif" font-size="10.00"> </text>
</a>
</g>
</g>
<!-- Node8&#45;&gt;Node13 -->
<g id="edge16" class="edge">
<title>Node8&#45;&gt;Node13</title>
<path fill="none" stroke="#404040" d="M304.15,-1462.3C310.21,-1454.15 317.06,-1444.34 322.5,-1435 349.7,-1388.24 373.71,-1330.53 388.16,-1293.02"/>
<polygon fill="none" stroke="#404040" points="388.24,-1292.81 386.63,-1285.78 392.51,-1281.6 394.11,-1288.63 388.24,-1292.81"/>
<text text-anchor="middle" x="368" y="-1403.5" font-family="Helvetica,sans-Serif" font-size="10.00"> +keys</text>
</g>
<!-- Node16 -->
<g id="node16" class="node">
<title>Node16</title>
<g id="a_node16"><a xlink:title=" ">
<polygon fill="white" stroke="black" points="230,-1224.5 230,-1281.5 349,-1281.5 349,-1224.5 230,-1224.5"/>
<text text-anchor="middle" x="289.5" y="-1269.5" font-family="Helvetica,sans-Serif" font-size="10.00">std::unordered_set&lt; K &gt;</text>
<polyline fill="none" stroke="black" points="230,-1262.5 349,-1262.5 "/>
<text text-anchor="middle" x="289.5" y="-1250.5" font-family="Helvetica,sans-Serif" font-size="10.00"> </text>
<polyline fill="none" stroke="black" points="230,-1243.5 349,-1243.5 "/>
<text text-anchor="middle" x="289.5" y="-1231.5" font-family="Helvetica,sans-Serif" font-size="10.00"> </text>
</a>
</g>
</g>
<!-- Node8&#45;&gt;Node16 -->
<g id="edge21" class="edge">
<title>Node8&#45;&gt;Node16</title>
<path fill="none" stroke="#404040" d="M289.5,-1453.17C289.5,-1413.23 289.5,-1339.48 289.5,-1293.8"/>
<polygon fill="none" stroke="#404040" points="289.5,-1293.71 285.5,-1287.71 289.5,-1281.71 293.5,-1287.71 289.5,-1293.71"/>
<text text-anchor="middle" x="304" y="-1403.5" font-family="Helvetica,sans-Serif" font-size="10.00"> +keys</text>
</g>
<!-- Node9 -->
<g id="node9" class="node">
<title>Node9</title>
<g id="a_node9"><a xlink:title=" ">
<polygon fill="white" stroke="black" points="254,-965.5 254,-1033.5 401,-1033.5 401,-965.5 254,-965.5"/>
<text text-anchor="start" x="262" y="-1021.5" font-family="Helvetica,sans-Serif" font-size="10.00">std::unordered_set</text>
<text text-anchor="middle" x="327.5" y="-1010.5" font-family="Helvetica,sans-Serif" font-size="10.00">&lt; altintegration::BlockIndex * &gt;</text>
<polyline fill="none" stroke="black" points="254,-1003.5 401,-1003.5 "/>
<text text-anchor="middle" x="327.5" y="-991.5" font-family="Helvetica,sans-Serif" font-size="10.00"> </text>
<polyline fill="none" stroke="black" points="254,-984.5 401,-984.5 "/>
<text text-anchor="middle" x="327.5" y="-972.5" font-family="Helvetica,sans-Serif" font-size="10.00"> </text>
</a>
</g>
</g>
<!-- Node9&#45;&gt;Node2 -->
<g id="edge9" class="edge">
<title>Node9&#45;&gt;Node2</title>
<path fill="none" stroke="#404040" d="M322.6,-965.47C313.45,-895.48 298.15,-727.85 338.5,-596 345.82,-572.08 357.25,-548.24 370.11,-526.12"/>
<polygon fill="none" stroke="#404040" points="370.15,-526.05 369.8,-518.85 376.31,-515.75 376.67,-522.95 370.15,-526.05"/>
<text text-anchor="middle" x="353" y="-727" font-family="Helvetica,sans-Serif" font-size="10.00"> #tips_</text>
</g>
<!-- Node9&#45;&gt;Node20 -->
<g id="edge27" class="edge">
<title>Node9&#45;&gt;Node20</title>
<path fill="none" stroke="#404040" d="M350,-965.38C363.38,-944.82 380.11,-917.53 392.5,-892 395.36,-886.11 398.16,-880.05 400.91,-873.89"/>
<polygon fill="none" stroke="#404040" points="400.99,-873.71 399.71,-866.62 405.78,-862.71 407.05,-869.81 400.99,-873.71"/>
<text text-anchor="middle" x="411" y="-884" font-family="Helvetica,sans-Serif" font-size="10.00"> #tips_</text>
</g>
<!-- Node10 -->
<g id="node10" class="node">
<title>Node10</title>
<g id="a_node10"><a xlink:href="structaltintegration_1_1BlockIndex.html" target="_top" xlink:title="A node in a block tree.">
<polygon fill="white" stroke="black" points="456,-1147.5 456,-1358.5 581,-1358.5 581,-1147.5 456,-1147.5"/>
<text text-anchor="start" x="464" y="-1346.5" font-family="Helvetica,sans-Serif" font-size="10.00">altintegration::BlockIndex</text>
<text text-anchor="middle" x="518.5" y="-1335.5" font-family="Helvetica,sans-Serif" font-size="10.00">&lt; Block &gt;</text>
<polyline fill="none" stroke="black" points="456,-1328.5 581,-1328.5 "/>
<text text-anchor="start" x="464" y="-1316.5" font-family="Helvetica,sans-Serif" font-size="10.00">+ finalized</text>
<text text-anchor="start" x="464" y="-1305.5" font-family="Helvetica,sans-Serif" font-size="10.00"># height</text>
<text text-anchor="start" x="464" y="-1294.5" font-family="Helvetica,sans-Serif" font-size="10.00"># status</text>
<text text-anchor="start" x="464" y="-1283.5" font-family="Helvetica,sans-Serif" font-size="10.00"># dirty</text>
<polyline fill="none" stroke="black" points="456,-1276.5 581,-1276.5 "/>
<text text-anchor="start" x="464" y="-1264.5" font-family="Helvetica,sans-Serif" font-size="10.00">+ BlockIndex()</text>
<text text-anchor="start" x="464" y="-1253.5" font-family="Helvetica,sans-Serif" font-size="10.00">+ BlockIndex()</text>
<text text-anchor="start" x="464" y="-1242.5" font-family="Helvetica,sans-Serif" font-size="10.00">+ ~BlockIndex()</text>
<text text-anchor="start" x="464" y="-1231.5" font-family="Helvetica,sans-Serif" font-size="10.00">+ BlockIndex()</text>
<text text-anchor="start" x="464" y="-1220.5" font-family="Helvetica,sans-Serif" font-size="10.00">+ operator=()</text>
<text text-anchor="start" x="464" y="-1209.5" font-family="Helvetica,sans-Serif" font-size="10.00">+ isDeleted()</text>
<text text-anchor="start" x="464" y="-1198.5" font-family="Helvetica,sans-Serif" font-size="10.00">+ isRoot()</text>
<text text-anchor="start" x="464" y="-1187.5" font-family="Helvetica,sans-Serif" font-size="10.00">+ restore()</text>
<text text-anchor="start" x="464" y="-1176.5" font-family="Helvetica,sans-Serif" font-size="10.00">+ deleteTemporarily()</text>
<text text-anchor="start" x="464" y="-1165.5" font-family="Helvetica,sans-Serif" font-size="10.00">+ mergeFrom()</text>
<text text-anchor="start" x="464" y="-1154.5" font-family="Helvetica,sans-Serif" font-size="10.00">and 40 more...</text>
</a>
</g>
</g>
<!-- Node10&#45;&gt;Node9 -->
<g id="edge10" class="edge">
<title>Node10&#45;&gt;Node9</title>
<path fill="none" stroke="#404040" d="M455.77,-1154.67C452.78,-1151.95 449.68,-1149.39 446.5,-1147 425.92,-1131.58 410.96,-1145.81 391.5,-1129 366.17,-1107.12 349.8,-1072.82 339.96,-1045.17"/>
<polygon fill="none" stroke="#404040" points="339.96,-1045.15 334.26,-1040.74 336.14,-1033.78 341.84,-1038.19 339.96,-1045.15"/>
<text text-anchor="middle" x="406" y="-1115.5" font-family="Helvetica,sans-Serif" font-size="10.00"> +keys</text>
</g>
<!-- Node10&#45;&gt;Node10 -->
<g id="edge12" class="edge">
<title>Node10&#45;&gt;Node10</title>
<path fill="none" stroke="#404040" d="M581.28,-1276.35C591.76,-1273.08 599,-1265.3 599,-1253 599,-1245.5 596.31,-1239.69 591.84,-1235.54"/>
<polygon fill="none" stroke="#404040" points="591.76,-1235.5 584.57,-1236.06 581.28,-1229.65 588.47,-1229.08 591.76,-1235.5"/>
<text text-anchor="middle" x="615.5" y="-1250.5" font-family="Helvetica,sans-Serif" font-size="10.00"> +pprev</text>
</g>
<!-- Node12 -->
<g id="node12" class="node">
<title>Node12</title>
<g id="a_node12"><a xlink:title=" ">
<polygon fill="white" stroke="black" points="430.5,-965.5 430.5,-1033.5 542.5,-1033.5 542.5,-965.5 430.5,-965.5"/>
<text text-anchor="start" x="438.5" y="-1021.5" font-family="Helvetica,sans-Serif" font-size="10.00">std::set&lt; altintegration</text>
<text text-anchor="middle" x="486.5" y="-1010.5" font-family="Helvetica,sans-Serif" font-size="10.00">::BlockIndex * &gt;</text>
<polyline fill="none" stroke="black" points="430.5,-1003.5 542.5,-1003.5 "/>
<text text-anchor="middle" x="486.5" y="-991.5" font-family="Helvetica,sans-Serif" font-size="10.00"> </text>
<polyline fill="none" stroke="black" points="430.5,-984.5 542.5,-984.5 "/>
<text text-anchor="middle" x="486.5" y="-972.5" font-family="Helvetica,sans-Serif" font-size="10.00"> </text>
</a>
</g>
</g>
<!-- Node10&#45;&gt;Node12 -->
<g id="edge14" class="edge">
<title>Node10&#45;&gt;Node12</title>
<path fill="none" stroke="#404040" d="M581.3,-1201.43C608.94,-1172.99 630.66,-1137.23 608.5,-1107 592.8,-1085.57 573.1,-1104.47 551.5,-1089 535.1,-1077.25 521.15,-1060.1 510.43,-1044.01"/>
<polygon fill="none" stroke="#404040" points="510.29,-1043.79 503.7,-1040.87 503.86,-1033.66 510.45,-1036.58 510.29,-1043.79"/>
<text text-anchor="middle" x="631" y="-1115.5" font-family="Helvetica,sans-Serif" font-size="10.00"> +keys</text>
</g>
<!-- Node11 -->
<g id="node11" class="node">
<title>Node11</title>
<g id="a_node11"><a xlink:title=" ">
<polygon fill="white" stroke="#bfbfbf" points="478.5,-1453.5 478.5,-1510.5 558.5,-1510.5 558.5,-1453.5 478.5,-1453.5"/>
<text text-anchor="middle" x="518.5" y="-1498.5" font-family="Helvetica,sans-Serif" font-size="10.00">Block::addon_t</text>
<polyline fill="none" stroke="#bfbfbf" points="478.5,-1491.5 558.5,-1491.5 "/>
<text text-anchor="middle" x="518.5" y="-1479.5" font-family="Helvetica,sans-Serif" font-size="10.00"> </text>
<polyline fill="none" stroke="#bfbfbf" points="478.5,-1472.5 558.5,-1472.5 "/>
<text text-anchor="middle" x="518.5" y="-1460.5" font-family="Helvetica,sans-Serif" font-size="10.00"> </text>
</a>
</g>
</g>
<!-- Node11&#45;&gt;Node10 -->
<g id="edge11" class="edge">
<title>Node11&#45;&gt;Node10</title>
<path fill="none" stroke="midnightblue" d="M518.5,-1443.05C518.5,-1419.79 518.5,-1388.76 518.5,-1358.58"/>
<polygon fill="none" stroke="midnightblue" points="515,-1443.17 518.5,-1453.17 522,-1443.17 515,-1443.17"/>
</g>
<!-- Node12&#45;&gt;Node10 -->
<g id="edge13" class="edge">
<title>Node12&#45;&gt;Node10</title>
<path fill="none" stroke="#404040" d="M509.86,-1033.83C521.93,-1050.66 537.11,-1071.21 551.5,-1089 558.23,-1097.32 563.7,-1097 567.5,-1107 570.95,-1116.08 572.42,-1125.53 572.4,-1135.05"/>
<polygon fill="none" stroke="#404040" points="572.39,-1135.15 575.99,-1141.39 571.61,-1147.12 568.01,-1140.87 572.39,-1135.15"/>
<text text-anchor="middle" x="588.5" y="-1115.5" font-family="Helvetica,sans-Serif" font-size="10.00"> +pnext</text>
</g>
<!-- Node13&#45;&gt;Node12 -->
<g id="edge15" class="edge">
<title>Node13&#45;&gt;Node12</title>
<path fill="none" stroke="orange" d="M406.68,-1214.41C410.72,-1184.66 418.09,-1142.38 430.5,-1107 439.49,-1081.37 453.79,-1054.31 465.69,-1033.88"/>
<polygon fill="orange" stroke="orange" points="403.2,-1214.01 405.39,-1224.38 410.15,-1214.91 403.2,-1214.01"/>
<text text-anchor="middle" x="497" y="-1115.5" font-family="Helvetica,sans-Serif" font-size="10.00"> &lt; altintegration::BlockIndex * &gt;</text>
</g>
<!-- Node14 -->
<g id="node14" class="node">
<title>Node14</title>
<g id="a_node14"><a xlink:title=" ">
<polygon fill="white" stroke="black" points="327.5,-1453.5 327.5,-1510.5 455.5,-1510.5 455.5,-1453.5 327.5,-1453.5"/>
<text text-anchor="middle" x="391.5" y="-1498.5" font-family="Helvetica,sans-Serif" font-size="10.00">std::shared_ptr&lt; block_t &gt;</text>
<polyline fill="none" stroke="black" points="327.5,-1491.5 455.5,-1491.5 "/>
<text text-anchor="start" x="335.5" y="-1479.5" font-family="Helvetica,sans-Serif" font-size="10.00">+ ptr</text>
<polyline fill="none" stroke="black" points="327.5,-1472.5 455.5,-1472.5 "/>
<text text-anchor="start" x="335.5" y="-1460.5" font-family="Helvetica,sans-Serif" font-size="10.00">+ operator&#45;&gt;()</text>
</a>
</g>
</g>
<!-- Node14&#45;&gt;Node10 -->
<g id="edge17" class="edge">
<title>Node14&#45;&gt;Node10</title>
<path fill="none" stroke="#404040" d="M407.07,-1453.17C419.06,-1431.73 436.51,-1400.56 454.05,-1369.21"/>
<polygon fill="none" stroke="#404040" points="454.13,-1369.05 453.57,-1361.87 459.99,-1358.58 460.55,-1365.77 454.13,-1369.05"/>
<text text-anchor="middle" x="466" y="-1403.5" font-family="Helvetica,sans-Serif" font-size="10.00"> #header</text>
</g>
<!-- Node15&#45;&gt;Node14 -->
<g id="edge18" class="edge">
<title>Node15&#45;&gt;Node14</title>
<path fill="none" stroke="orange" d="M306.98,-1597.21C326.64,-1570.65 353.05,-1534.96 371.08,-1510.59"/>
<polygon fill="orange" stroke="orange" points="303.99,-1595.37 300.86,-1605.49 309.62,-1599.53 303.99,-1595.37"/>
<text text-anchor="middle" x="382" y="-1555.5" font-family="Helvetica,sans-Serif" font-size="10.00"> &lt; block_t &gt;</text>
</g>
<!-- Node16&#45;&gt;Node9 -->
<g id="edge20" class="edge">
<title>Node16&#45;&gt;Node9</title>
<path fill="none" stroke="orange" d="M257.32,-1216.55C234.89,-1187.34 211.45,-1144.75 226.5,-1107 238.06,-1078 261.69,-1052.37 283.18,-1033.52"/>
<polygon fill="orange" stroke="orange" points="254.62,-1218.77 263.59,-1224.41 260.1,-1214.41 254.62,-1218.77"/>
<text text-anchor="middle" x="293" y="-1115.5" font-family="Helvetica,sans-Serif" font-size="10.00"> &lt; altintegration::BlockIndex * &gt;</text>
</g>
<!-- Node17 -->
<g id="node17" class="node">
<title>Node17</title>
<g id="a_node17"><a xlink:href="structaltintegration_1_1Chain.html" target="_top" xlink:title=" ">
<polygon fill="white" stroke="black" points="561,-910.5 561,-1088.5 702,-1088.5 702,-910.5 561,-910.5"/>
<text text-anchor="start" x="569" y="-1076.5" font-family="Helvetica,sans-Serif" font-size="10.00">altintegration::Chain</text>
<text text-anchor="middle" x="631.5" y="-1065.5" font-family="Helvetica,sans-Serif" font-size="10.00">&lt; altintegration::BlockIndex &gt;</text>
<polyline fill="none" stroke="black" points="561,-1058.5 702,-1058.5 "/>
<text text-anchor="middle" x="631.5" y="-1046.5" font-family="Helvetica,sans-Serif" font-size="10.00"> </text>
<polyline fill="none" stroke="black" points="561,-1039.5 702,-1039.5 "/>
<text text-anchor="start" x="569" y="-1027.5" font-family="Helvetica,sans-Serif" font-size="10.00">+ Chain()</text>
<text text-anchor="start" x="569" y="-1016.5" font-family="Helvetica,sans-Serif" font-size="10.00">+ Chain()</text>
<text text-anchor="start" x="569" y="-1005.5" font-family="Helvetica,sans-Serif" font-size="10.00">+ Chain()</text>
<text text-anchor="start" x="569" y="-994.5" font-family="Helvetica,sans-Serif" font-size="10.00">+ getStartHeight()</text>
<text text-anchor="start" x="569" y="-983.5" font-family="Helvetica,sans-Serif" font-size="10.00">+ firstHeight()</text>
<text text-anchor="start" x="569" y="-972.5" font-family="Helvetica,sans-Serif" font-size="10.00">+ contains()</text>
<text text-anchor="start" x="569" y="-961.5" font-family="Helvetica,sans-Serif" font-size="10.00">+ operator[]()</text>
<text text-anchor="start" x="569" y="-950.5" font-family="Helvetica,sans-Serif" font-size="10.00">+ next()</text>
<text text-anchor="start" x="569" y="-939.5" font-family="Helvetica,sans-Serif" font-size="10.00">+ chainHeight()</text>
<text text-anchor="start" x="569" y="-928.5" font-family="Helvetica,sans-Serif" font-size="10.00">+ empty()</text>
<text text-anchor="start" x="569" y="-917.5" font-family="Helvetica,sans-Serif" font-size="10.00">and 15 more...</text>
</a>
</g>
</g>
<!-- Node17&#45;&gt;Node2 -->
<g id="edge22" class="edge">
<title>Node17&#45;&gt;Node2</title>
<path fill="none" stroke="#404040" d="M631.1,-910.33C630.28,-900.4 629.12,-890.46 627.5,-881 608.33,-769.3 562.67,-649.78 522.8,-559.95"/>
<polygon fill="none" stroke="#404040" points="522.74,-559.82 516.64,-555.98 517.84,-548.87 523.94,-552.71 522.74,-559.82"/>
<text text-anchor="middle" x="654.5" y="-727" font-family="Helvetica,sans-Serif" font-size="10.00"> #activeChain_</text>
</g>
<!-- Node17&#45;&gt;Node20 -->
<g id="edge28" class="edge">
<title>Node17&#45;&gt;Node20</title>
<path fill="none" stroke="#404040" d="M560.74,-915.9C557.72,-913.79 554.64,-911.81 551.5,-910 518.43,-890.91 492.85,-920.55 467.5,-892 462.59,-886.47 458.53,-880.37 455.19,-873.89"/>
<polygon fill="none" stroke="#404040" points="455.08,-873.62 449,-869.73 450.25,-862.63 456.32,-866.52 455.08,-873.62"/>
<text text-anchor="middle" x="499.5" y="-884" font-family="Helvetica,sans-Serif" font-size="10.00"> #activeChain_</text>
</g>
<!-- Node18 -->
<g id="node18" class="node">
<title>Node18</title>
<g id="a_node18"><a xlink:href="structaltintegration_1_1Chain.html" target="_top" xlink:title="Fully in&#45;memory chain representation.">
<polygon fill="white" stroke="black" points="650,-1164 650,-1342 751,-1342 751,-1164 650,-1164"/>
<text text-anchor="start" x="658" y="-1330" font-family="Helvetica,sans-Serif" font-size="10.00">altintegration::Chain</text>
<text text-anchor="middle" x="700.5" y="-1319" font-family="Helvetica,sans-Serif" font-size="10.00">&lt; BlockIndexT &gt;</text>
<polyline fill="none" stroke="black" points="650,-1312 751,-1312 "/>
<text text-anchor="middle" x="700.5" y="-1300" font-family="Helvetica,sans-Serif" font-size="10.00"> </text>
<polyline fill="none" stroke="black" points="650,-1293 751,-1293 "/>
<text text-anchor="start" x="658" y="-1281" font-family="Helvetica,sans-Serif" font-size="10.00">+ Chain()</text>
<text text-anchor="start" x="658" y="-1270" font-family="Helvetica,sans-Serif" font-size="10.00">+ Chain()</text>
<text text-anchor="start" x="658" y="-1259" font-family="Helvetica,sans-Serif" font-size="10.00">+ Chain()</text>
<text text-anchor="start" x="658" y="-1248" font-family="Helvetica,sans-Serif" font-size="10.00">+ getStartHeight()</text>
<text text-anchor="start" x="658" y="-1237" font-family="Helvetica,sans-Serif" font-size="10.00">+ firstHeight()</text>
<text text-anchor="start" x="658" y="-1226" font-family="Helvetica,sans-Serif" font-size="10.00">+ contains()</text>
<text text-anchor="start" x="658" y="-1215" font-family="Helvetica,sans-Serif" font-size="10.00">+ operator[]()</text>
<text text-anchor="start" x="658" y="-1204" font-family="Helvetica,sans-Serif" font-size="10.00">+ next()</text>
<text text-anchor="start" x="658" y="-1193" font-family="Helvetica,sans-Serif" font-size="10.00">+ chainHeight()</text>
<text text-anchor="start" x="658" y="-1182" font-family="Helvetica,sans-Serif" font-size="10.00">+ empty()</text>
<text text-anchor="start" x="658" y="-1171" font-family="Helvetica,sans-Serif" font-size="10.00">and 15 more...</text>
</a>
</g>
</g>
<!-- Node18&#45;&gt;Node17 -->
<g id="edge23" class="edge">
<title>Node18&#45;&gt;Node17</title>
<path fill="none" stroke="orange" d="M673.58,-1153.89C667.68,-1132.36 661.46,-1109.7 655.67,-1088.6"/>
<polygon fill="orange" stroke="orange" points="670.25,-1154.97 676.27,-1163.68 677,-1153.11 670.25,-1154.97"/>
<text text-anchor="middle" x="729" y="-1115.5" font-family="Helvetica,sans-Serif" font-size="10.00"> &lt; altintegration::BlockIndex &gt;</text>
</g>
<!-- Node19 -->
<g id="node19" class="node">
<title>Node19</title>
<g id="a_node19"><a xlink:href="structaltintegration_1_1BlockReader.html" target="_top" xlink:title="An abstraction over on&#45;disk storage iterator.">
<polygon fill="white" stroke="black" points="720.5,-916 720.5,-1083 852.5,-1083 852.5,-916 720.5,-916"/>
<text text-anchor="middle" x="786.5" y="-1071" font-family="Helvetica,sans-Serif" font-size="10.00">altintegration::BlockReader</text>
<polyline fill="none" stroke="black" points="720.5,-1064 852.5,-1064 "/>
<text text-anchor="middle" x="786.5" y="-1052" font-family="Helvetica,sans-Serif" font-size="10.00"> </text>
<polyline fill="none" stroke="black" points="720.5,-1045 852.5,-1045 "/>
<text text-anchor="start" x="728.5" y="-1033" font-family="Helvetica,sans-Serif" font-size="10.00">+ ~BlockReader()</text>
<text text-anchor="start" x="728.5" y="-1022" font-family="Helvetica,sans-Serif" font-size="10.00">+ getAltTip()</text>
<text text-anchor="start" x="728.5" y="-1011" font-family="Helvetica,sans-Serif" font-size="10.00">+ getVbkTip()</text>
<text text-anchor="start" x="728.5" y="-1000" font-family="Helvetica,sans-Serif" font-size="10.00">+ getBtcTip()</text>
<text text-anchor="start" x="728.5" y="-989" font-family="Helvetica,sans-Serif" font-size="10.00">+ getBlock()</text>
<text text-anchor="start" x="728.5" y="-978" font-family="Helvetica,sans-Serif" font-size="10.00">+ getBlock()</text>
<text text-anchor="start" x="728.5" y="-967" font-family="Helvetica,sans-Serif" font-size="10.00">+ getBlock()</text>
<text text-anchor="start" x="728.5" y="-956" font-family="Helvetica,sans-Serif" font-size="10.00">+ getAltBlockIterator()</text>
<text text-anchor="start" x="728.5" y="-945" font-family="Helvetica,sans-Serif" font-size="10.00">+ getVbkBlockIterator()</text>
<text text-anchor="start" x="728.5" y="-934" font-family="Helvetica,sans-Serif" font-size="10.00">+ getBtcBlockIterator()</text>
<text text-anchor="start" x="728.5" y="-923" font-family="Helvetica,sans-Serif" font-size="10.00">and 6 more...</text>
</a>
</g>
</g>
<!-- Node19&#45;&gt;Node2 -->
<g id="edge24" class="edge">
<title>Node19&#45;&gt;Node2</title>
<path fill="none" stroke="#404040" d="M783.01,-915.74C775.87,-829.54 754.41,-693.69 690.5,-596 652.99,-538.67 590.63,-492.63 539.15,-461.54"/>
<polygon fill="none" stroke="#404040" points="539,-461.45 531.8,-461.83 528.68,-455.33 535.88,-454.95 539,-461.45"/>
<text text-anchor="middle" x="813" y="-727" font-family="Helvetica,sans-Serif" font-size="10.00"> #blockProvider_</text>
</g>
<!-- Node19&#45;&gt;Node20 -->
<g id="edge29" class="edge">
<title>Node19&#45;&gt;Node20</title>
<path fill="none" stroke="#404040" d="M720.39,-917.5C717.47,-914.89 714.5,-912.38 711.5,-910 693.51,-895.74 638.81,-875.42 619.5,-863 592.04,-845.34 563.67,-824.11 538.28,-803.88"/>
<polygon fill="none" stroke="#404040" points="538.05,-803.7 530.87,-803.06 528.7,-796.18 535.88,-796.82 538.05,-803.7"/>
<text text-anchor="middle" x="715" y="-884" font-family="Helvetica,sans-Serif" font-size="10.00"> #blockProvider_</text>
</g>
<!-- Node20&#45;&gt;Node2 -->
<g id="edge25" class="edge">
<title>Node20&#45;&gt;Node2</title>
<path fill="none" stroke="orange" d="M452.5,-586.16C452.5,-573.62 452.5,-560.97 452.5,-548.52"/>
<polygon fill="orange" stroke="orange" points="449,-586.18 452.5,-596.18 456,-586.18 449,-586.18"/>
<text text-anchor="middle" x="480.5" y="-570" font-family="Helvetica,sans-Serif" font-size="10.00"> &lt; AltBlock &gt;</text>
</g>
</g>
</svg>
