<?xml version="1.0" encoding="UTF-8" standalone="no"?>
<!DOCTYPE svg PUBLIC "-//W3C//DTD SVG 1.1//EN"
 "http://www.w3.org/Graphics/SVG/1.1/DTD/svg11.dtd">
<!-- Generated by graphviz version 2.50.0 (20220203.2022)
 -->
<!-- Title: altintegration::VTB Pages: 1 -->
<!--zoomable 1328 -->
<svg id="main" version="1.1" xmlns="http://www.w3.org/2000/svg" xmlns:xlink="http://www.w3.org/1999/xlink" xml:space="preserve" onload="init(evt)">
<style type="text/css"><![CDATA[
.edge:hover path { stroke: red; }
.edge:hover polygon { stroke: red; fill: red; }
]]></style>
<script type="text/javascript"><![CDATA[
var edges = document.getElementsByTagName('g');
if (edges && edges.length) {
  for (var i=0;i<edges.length;i++) {
    if (edges[i].id.substr(0,4)=='edge') {
      edges[i].setAttribute('class','edge');
    }
  }
}
]]></script>
        <defs>
                <circle id="rim" cx="0" cy="0" r="7"/>
                <circle id="rim2" cx="0" cy="0" r="3.5"/>
                <g id="zoomPlus">
                        <use xlink:href="#rim" fill="#404040">
                                <set attributeName="fill" to="#808080" begin="zoomplus.mouseover" end="zoomplus.mouseout"/>
                        </use>
                        <path d="M-4,0h8M0,-4v8" fill="none" stroke="white" stroke-width="1.5" pointer-events="none"/>
                </g>
                <g id="zoomMin">
                        <use xlink:href="#rim" fill="#404040">
                                <set attributeName="fill" to="#808080" begin="zoomminus.mouseover" end="zoomminus.mouseout"/>
                        </use>
                        <path d="M-4,0h8" fill="none" stroke="white" stroke-width="1.5" pointer-events="none"/>
                </g>
                <g id="dirArrow">
                        <path fill="none" stroke="white" stroke-width="1.5" d="M0,-3.0v7 M-2.5,-0.5L0,-3.0L2.5,-0.5"/>
                </g>
               <g id="resetDef">
                       <use xlink:href="#rim2" fill="#404040">
                               <set attributeName="fill" to="#808080" begin="reset.mouseover" end="reset.mouseout"/>
                       </use>
               </g>
        </defs>

<script type="text/javascript">
var viewWidth = 1223;
var viewHeight = 1328;
var sectionId = 'dynsection-0';
</script>
<script xlink:href="svgpan.js"/>
<svg id="graph" class="graph">
<g id="viewport">
<title>altintegration::VTB</title>
<polygon fill="white" stroke="transparent" points="-4,4 -4,-1324 1218.5,-1324 1218.5,4 -4,4"/>
<!-- Node1 -->
<g id="node1" class="node">
<title>Node1</title>
<g id="a_node1"><a xlink:title="Veriblock to Bitcoin publication, committed to Veriblock blockchain in containingBlock.">
<polygon fill="#bfbfbf" stroke="black" points="472,-0.5 472,-134.5 585,-134.5 585,-0.5 472,-0.5"/>
<text text-anchor="middle" x="528.5" y="-122.5" font-family="Helvetica,sans-Serif" font-size="10.00">altintegration::VTB</text>
<polyline fill="none" stroke="black" points="472,-115.5 585,-115.5 "/>
<text text-anchor="start" x="480" y="-103.5" font-family="Helvetica,sans-Serif" font-size="10.00">+ version</text>
<text text-anchor="start" x="480" y="-92.5" font-family="Helvetica,sans-Serif" font-size="10.00">+ checked</text>
<polyline fill="none" stroke="black" points="472,-85.5 585,-85.5 "/>
<text text-anchor="start" x="480" y="-73.5" font-family="Helvetica,sans-Serif" font-size="10.00">+ toPrettyString()</text>
<text text-anchor="start" x="480" y="-62.5" font-family="Helvetica,sans-Serif" font-size="10.00">+ toShortPrettyString()</text>
<text text-anchor="start" x="480" y="-51.5" font-family="Helvetica,sans-Serif" font-size="10.00">+ toVbkEncoding()</text>
<text text-anchor="start" x="480" y="-40.5" font-family="Helvetica,sans-Serif" font-size="10.00">+ toVbkEncoding()</text>
<text text-anchor="start" x="480" y="-29.5" font-family="Helvetica,sans-Serif" font-size="10.00">+ estimateSize()</text>
<text text-anchor="start" x="480" y="-18.5" font-family="Helvetica,sans-Serif" font-size="10.00">+ getId()</text>
<text text-anchor="start" x="480" y="-7.5" font-family="Helvetica,sans-Serif" font-size="10.00">+ name()</text>
</a>
</g>
</g>
<!-- Node2 -->
<g id="node2" class="node">
<title>Node2</title>
<g id="a_node2"><a xlink:href="structaltintegration_1_1VbkPopTx.html" target="_top" xlink:title="Veriblock POP transaction, which endorses VBK block in BTC blockchain.">
<polygon fill="white" stroke="black" points="467.5,-182.5 467.5,-272.5 589.5,-272.5 589.5,-182.5 467.5,-182.5"/>
<text text-anchor="middle" x="528.5" y="-260.5" font-family="Helvetica,sans-Serif" font-size="10.00">altintegration::VbkPopTx</text>
<polyline fill="none" stroke="black" points="467.5,-253.5 589.5,-253.5 "/>
<text text-anchor="middle" x="528.5" y="-241.5" font-family="Helvetica,sans-Serif" font-size="10.00"> </text>
<polyline fill="none" stroke="black" points="467.5,-234.5 589.5,-234.5 "/>
<text text-anchor="start" x="475.5" y="-222.5" font-family="Helvetica,sans-Serif" font-size="10.00">+ toVbkEncoding()</text>
<text text-anchor="start" x="475.5" y="-211.5" font-family="Helvetica,sans-Serif" font-size="10.00">+ estimateSize()</text>
<text text-anchor="start" x="475.5" y="-200.5" font-family="Helvetica,sans-Serif" font-size="10.00">+ getHash()</text>
<text text-anchor="start" x="475.5" y="-189.5" font-family="Helvetica,sans-Serif" font-size="10.00">+ toPrettyString()</text>
</a>
</g>
</g>
<!-- Node2&#45;&gt;Node1 -->
<g id="edge1" class="edge">
<title>Node2&#45;&gt;Node1</title>
<path fill="none" stroke="#404040" d="M528.5,-182.49C528.5,-171.39 528.5,-159.15 528.5,-146.92"/>
<polygon fill="none" stroke="#404040" points="528.5,-146.74 524.5,-140.74 528.5,-134.74 532.5,-140.74 528.5,-146.74"/>
<text text-anchor="middle" x="557" y="-156" font-family="Helvetica,sans-Serif" font-size="10.00"> +transaction</text>
</g>
<!-- Node3 -->
<g id="node3" class="node">
<title>Node3</title>
<g id="a_node3"><a xlink:href="namespacealtintegration.html#structaltintegration_1_1NetworkBytePair" target="_top" xlink:title="Stores pair of TxType and VBK network byte.">
<polygon fill="white" stroke="black" points="540.5,-386.5 540.5,-443.5 690.5,-443.5 690.5,-386.5 540.5,-386.5"/>
<text text-anchor="middle" x="615.5" y="-431.5" font-family="Helvetica,sans-Serif" font-size="10.00">altintegration::NetworkBytePair</text>
<polyline fill="none" stroke="black" points="540.5,-424.5 690.5,-424.5 "/>
<text text-anchor="start" x="548.5" y="-412.5" font-family="Helvetica,sans-Serif" font-size="10.00">+ typeId</text>
<polyline fill="none" stroke="black" points="540.5,-405.5 690.5,-405.5 "/>
<text text-anchor="middle" x="615.5" y="-393.5" font-family="Helvetica,sans-Serif" font-size="10.00"> </text>
</a>
</g>
</g>
<!-- Node3&#45;&gt;Node2 -->
<g id="edge2" class="edge">
<title>Node3&#45;&gt;Node2</title>
<path fill="none" stroke="#404040" d="M602.48,-386.23C589.83,-359.26 570.27,-317.56 554.44,-283.81"/>
<polygon fill="none" stroke="#404040" points="554.33,-283.57 548.16,-279.83 549.23,-272.7 555.4,-276.43 554.33,-283.57"/>
<text text-anchor="middle" x="600" y="-294" font-family="Helvetica,sans-Serif" font-size="10.00"> +networkOrType</text>
</g>
<!-- Node4 -->
<g id="node4" class="node">
<title>Node4</title>
<g id="a_node4"><a xlink:href="structaltintegration_1_1VbkNetworkType.html" target="_top" xlink:title="works as optional&lt;uint8_t&gt;">
<polygon fill="white" stroke="black" points="607.5,-618 607.5,-719 759.5,-719 759.5,-618 607.5,-618"/>
<text text-anchor="middle" x="683.5" y="-707" font-family="Helvetica,sans-Serif" font-size="10.00">altintegration::VbkNetworkType</text>
<polyline fill="none" stroke="black" points="607.5,-700 759.5,-700 "/>
<text text-anchor="start" x="615.5" y="-688" font-family="Helvetica,sans-Serif" font-size="10.00">+ hasValue</text>
<text text-anchor="start" x="615.5" y="-677" font-family="Helvetica,sans-Serif" font-size="10.00">+ value</text>
<polyline fill="none" stroke="black" points="607.5,-670 759.5,-670 "/>
<text text-anchor="start" x="615.5" y="-658" font-family="Helvetica,sans-Serif" font-size="10.00">+ operator bool()</text>
<text text-anchor="start" x="615.5" y="-647" font-family="Helvetica,sans-Serif" font-size="10.00">+ operator==()</text>
<text text-anchor="start" x="615.5" y="-636" font-family="Helvetica,sans-Serif" font-size="10.00">+ toPrettyString()</text>
<text text-anchor="start" x="615.5" y="-625" font-family="Helvetica,sans-Serif" font-size="10.00">+ putJson()</text>
</a>
</g>
</g>
<!-- Node4&#45;&gt;Node3 -->
<g id="edge3" class="edge">
<title>Node4&#45;&gt;Node3</title>
<path fill="none" stroke="#404040" d="M670.07,-617.81C657.19,-570.18 638,-499.23 626.15,-455.38"/>
<polygon fill="none" stroke="#404040" points="626.14,-455.36 620.72,-450.61 623.01,-443.78 628.44,-448.53 626.14,-455.36"/>
<text text-anchor="middle" x="679.5" y="-531" font-family="Helvetica,sans-Serif" font-size="10.00"> +networkType</text>
</g>
<!-- Node5 -->
<g id="node5" class="node">
<title>Node5</title>
<g id="a_node5"><a xlink:href="structaltintegration_1_1Address.html" target="_top" xlink:title="Represents address on VBK chain.">
<polygon fill="white" stroke="black" points="709,-320.5 709,-509.5 846,-509.5 846,-320.5 709,-320.5"/>
<text text-anchor="middle" x="777.5" y="-497.5" font-family="Helvetica,sans-Serif" font-size="10.00">altintegration::Address</text>
<polyline fill="none" stroke="black" points="709,-490.5 846,-490.5 "/>
<text text-anchor="middle" x="777.5" y="-478.5" font-family="Helvetica,sans-Serif" font-size="10.00"> </text>
<polyline fill="none" stroke="black" points="709,-471.5 846,-471.5 "/>
<text text-anchor="start" x="717" y="-459.5" font-family="Helvetica,sans-Serif" font-size="10.00">+ Address()</text>
<text text-anchor="start" x="717" y="-448.5" font-family="Helvetica,sans-Serif" font-size="10.00">+ operator==()</text>
<text text-anchor="start" x="717" y="-437.5" font-family="Helvetica,sans-Serif" font-size="10.00">+ operator!=()</text>
<text text-anchor="start" x="717" y="-426.5" font-family="Helvetica,sans-Serif" font-size="10.00">+ operator==()</text>
<text text-anchor="start" x="717" y="-415.5" font-family="Helvetica,sans-Serif" font-size="10.00">+ getType()</text>
<text text-anchor="start" x="717" y="-404.5" font-family="Helvetica,sans-Serif" font-size="10.00">+ getPopBytes()</text>
<text text-anchor="start" x="717" y="-393.5" font-family="Helvetica,sans-Serif" font-size="10.00">+ isDerivedFromPublicKey()</text>
<text text-anchor="start" x="717" y="-382.5" font-family="Helvetica,sans-Serif" font-size="10.00">+ fromString()</text>
<text text-anchor="start" x="717" y="-371.5" font-family="Helvetica,sans-Serif" font-size="10.00">+ toString()</text>
<text text-anchor="start" x="717" y="-360.5" font-family="Helvetica,sans-Serif" font-size="10.00">+ toVbkEncoding()</text>
<text text-anchor="start" x="717" y="-349.5" font-family="Helvetica,sans-Serif" font-size="10.00">+ estimateSize()</text>
<text text-anchor="start" x="717" y="-338.5" font-family="Helvetica,sans-Serif" font-size="10.00">+ fromPublicKey()</text>
<text text-anchor="start" x="717" y="-327.5" font-family="Helvetica,sans-Serif" font-size="10.00">+ assertFromString()</text>
</a>
</g>
</g>
<!-- Node5&#45;&gt;Node2 -->
<g id="edge4" class="edge">
<title>Node5&#45;&gt;Node2</title>
<path fill="none" stroke="#404040" d="M708.75,-328.03C705.71,-325.24 702.62,-322.55 699.5,-320 669.87,-295.81 632.86,-275.07 600.86,-259.48"/>
<polygon fill="none" stroke="#404040" points="600.6,-259.35 593.46,-260.38 589.77,-254.18 596.91,-253.16 600.6,-259.35"/>
<text text-anchor="middle" x="696" y="-294" font-family="Helvetica,sans-Serif" font-size="10.00"> +address</text>
</g>
<!-- Node6 -->
<g id="node6" class="node">
<title>Node6</title>
<g id="a_node6"><a xlink:href="structaltintegration_1_1VbkBlock.html" target="_top" xlink:title="Veriblock block.">
<polygon fill="white" stroke="black" points="0,-326 0,-504 119,-504 119,-326 0,-326"/>
<text text-anchor="middle" x="59.5" y="-492" font-family="Helvetica,sans-Serif" font-size="10.00">altintegration::VbkBlock</text>
<polyline fill="none" stroke="black" points="0,-485 119,-485 "/>
<text text-anchor="middle" x="59.5" y="-473" font-family="Helvetica,sans-Serif" font-size="10.00"> </text>
<polyline fill="none" stroke="black" points="0,-466 119,-466 "/>
<text text-anchor="start" x="8" y="-454" font-family="Helvetica,sans-Serif" font-size="10.00">+ toPrettyString()</text>
<text text-anchor="start" x="8" y="-443" font-family="Helvetica,sans-Serif" font-size="10.00">+ toShortPrettyString()</text>
<text text-anchor="start" x="8" y="-432" font-family="Helvetica,sans-Serif" font-size="10.00">+ toRaw()</text>
<text text-anchor="start" x="8" y="-421" font-family="Helvetica,sans-Serif" font-size="10.00">+ toVbkEncoding()</text>
<text text-anchor="start" x="8" y="-410" font-family="Helvetica,sans-Serif" font-size="10.00">+ toRaw()</text>
<text text-anchor="start" x="8" y="-399" font-family="Helvetica,sans-Serif" font-size="10.00">+ toVbkEncoding()</text>
<text text-anchor="start" x="8" y="-388" font-family="Helvetica,sans-Serif" font-size="10.00">+ estimateSize()</text>
<text text-anchor="start" x="8" y="-377" font-family="Helvetica,sans-Serif" font-size="10.00">+ getBlockTime()</text>
<text text-anchor="start" x="8" y="-366" font-family="Helvetica,sans-Serif" font-size="10.00">+ calculateHash()</text>
<text text-anchor="start" x="8" y="-355" font-family="Helvetica,sans-Serif" font-size="10.00">+ getHash()</text>
<text text-anchor="start" x="8" y="-344" font-family="Helvetica,sans-Serif" font-size="10.00">and 22 more...</text>
<text text-anchor="start" x="8" y="-333" font-family="Helvetica,sans-Serif" font-size="10.00">+ name()</text>
</a>
</g>
</g>
<!-- Node6&#45;&gt;Node1 -->
<g id="edge28" class="edge">
<title>Node6&#45;&gt;Node1</title>
<path fill="none" stroke="#404040" d="M53.95,-325.87C56.29,-313.44 60.5,-301.38 67.5,-291 158.51,-155.96 355.43,-100.24 460.01,-79.48"/>
<polygon fill="none" stroke="#404040" points="460.2,-79.44 465.34,-74.38 471.99,-77.17 466.85,-82.23 460.2,-79.44"/>
<text text-anchor="middle" x="222.5" y="-225" font-family="Helvetica,sans-Serif" font-size="10.00"> +containingBlock</text>
</g>
<!-- Node6&#45;&gt;Node2 -->
<g id="edge5" class="edge">
<title>Node6&#45;&gt;Node2</title>
<path fill="none" stroke="#404040" d="M59.84,-325.93C63.59,-312.81 69.75,-300.53 79.5,-291 105.89,-265.21 334.62,-243.66 455.04,-233.98"/>
<polygon fill="none" stroke="#404040" points="455.09,-233.98 460.75,-229.52 467.05,-233.03 461.39,-237.49 455.09,-233.98"/>
<text text-anchor="middle" x="117" y="-294" font-family="Helvetica,sans-Serif" font-size="10.00"> +publishedBlock</text>
</g>
<!-- Node7 -->
<g id="node7" class="node">
<title>Node7</title>
<g id="a_node7"><a xlink:href="structaltintegration_1_1BtcTx.html" target="_top" xlink:title="Bitcoin transaction representation.">
<polygon fill="white" stroke="black" points="1112.5,-353.5 1112.5,-476.5 1214.5,-476.5 1214.5,-353.5 1112.5,-353.5"/>
<text text-anchor="middle" x="1163.5" y="-464.5" font-family="Helvetica,sans-Serif" font-size="10.00">altintegration::BtcTx</text>
<polyline fill="none" stroke="black" points="1112.5,-457.5 1214.5,-457.5 "/>
<text text-anchor="middle" x="1163.5" y="-445.5" font-family="Helvetica,sans-Serif" font-size="10.00"> </text>
<polyline fill="none" stroke="black" points="1112.5,-438.5 1214.5,-438.5 "/>
<text text-anchor="start" x="1120.5" y="-426.5" font-family="Helvetica,sans-Serif" font-size="10.00">+ BtcTx()</text>
<text text-anchor="start" x="1120.5" y="-415.5" font-family="Helvetica,sans-Serif" font-size="10.00">+ BtcTx()</text>
<text text-anchor="start" x="1120.5" y="-404.5" font-family="Helvetica,sans-Serif" font-size="10.00">+ BtcTx()</text>
<text text-anchor="start" x="1120.5" y="-393.5" font-family="Helvetica,sans-Serif" font-size="10.00">+ toVbkEncoding()</text>
<text text-anchor="start" x="1120.5" y="-382.5" font-family="Helvetica,sans-Serif" font-size="10.00">+ toRaw()</text>
<text text-anchor="start" x="1120.5" y="-371.5" font-family="Helvetica,sans-Serif" font-size="10.00">+ estimateSize()</text>
<text text-anchor="start" x="1120.5" y="-360.5" font-family="Helvetica,sans-Serif" font-size="10.00">+ getHash()</text>
</a>
</g>
</g>
<!-- Node7&#45;&gt;Node2 -->
<g id="edge6" class="edge">
<title>Node7&#45;&gt;Node2</title>
<path fill="none" stroke="#404040" d="M1128.77,-353.42C1110.44,-328.23 1085.32,-302.27 1054.5,-291 973,-261.2 725.82,-241.37 601.52,-233.01"/>
<polygon fill="none" stroke="#404040" points="601.49,-233.01 595.24,-236.6 589.52,-232.21 595.77,-228.62 601.49,-233.01"/>
<text text-anchor="middle" x="1117.5" y="-294" font-family="Helvetica,sans-Serif" font-size="10.00"> +bitcoinTransaction</text>
</g>
<!-- Node8 -->
<g id="node8" class="node">
<title>Node8</title>
<g id="a_node8"><a xlink:title=" ">
<polygon fill="white" stroke="black" points="997,-640 997,-697 1104,-697 1104,-640 997,-640"/>
<text text-anchor="middle" x="1050.5" y="-685" font-family="Helvetica,sans-Serif" font-size="10.00">std::vector&lt; uint8_t &gt;</text>
<polyline fill="none" stroke="black" points="997,-678 1104,-678 "/>
<text text-anchor="start" x="1005" y="-666" font-family="Helvetica,sans-Serif" font-size="10.00">+ elements</text>
<polyline fill="none" stroke="black" points="997,-659 1104,-659 "/>
<text text-anchor="middle" x="1050.5" y="-647" font-family="Helvetica,sans-Serif" font-size="10.00"> </text>
</a>
</g>
</g>
<!-- Node8&#45;&gt;Node2 -->
<g id="edge24" class="edge">
<title>Node8&#45;&gt;Node2</title>
<path fill="none" stroke="#404040" d="M1049.67,-639.87C1047.08,-561.75 1037.97,-343.44 1016.5,-320 961.76,-260.23 724.14,-238.9 601.84,-231.79"/>
<polygon fill="none" stroke="#404040" points="601.64,-231.77 595.42,-235.43 589.66,-231.1 595.87,-227.44 601.64,-231.77"/>
<text text-anchor="middle" x="1068" y="-418" font-family="Helvetica,sans-Serif" font-size="10.00"> +publicKey</text>
<text text-anchor="middle" x="1068" y="-407" font-family="Helvetica,sans-Serif" font-size="10.00">+signature</text>
</g>
<!-- Node8&#45;&gt;Node7 -->
<g id="edge7" class="edge">
<title>Node8&#45;&gt;Node7</title>
<path fill="none" stroke="#404040" d="M1063.02,-639.62C1079.35,-603.3 1108.48,-538.46 1131.18,-487.92"/>
<polygon fill="none" stroke="#404040" points="1131.3,-487.67 1130.11,-480.55 1136.22,-476.72 1137.41,-483.83 1131.3,-487.67"/>
<text text-anchor="middle" x="1117.5" y="-531" font-family="Helvetica,sans-Serif" font-size="10.00"> +tx</text>
</g>
<!-- Node9 -->
<g id="node9" class="node">
<title>Node9</title>
<g id="a_node9"><a xlink:title=" ">
<polygon fill="white" stroke="black" points="887.5,-921 887.5,-978 971.5,-978 971.5,-921 887.5,-921"/>
<text text-anchor="middle" x="929.5" y="-966" font-family="Helvetica,sans-Serif" font-size="10.00">std::vector&lt; T &gt;</text>
<polyline fill="none" stroke="black" points="887.5,-959 971.5,-959 "/>
<text text-anchor="middle" x="929.5" y="-947" font-family="Helvetica,sans-Serif" font-size="10.00"> </text>
<polyline fill="none" stroke="black" points="887.5,-940 971.5,-940 "/>
<text text-anchor="middle" x="929.5" y="-928" font-family="Helvetica,sans-Serif" font-size="10.00"> </text>
</a>
</g>
</g>
<!-- Node9&#45;&gt;Node8 -->
<g id="edge8" class="edge">
<title>Node9&#45;&gt;Node8</title>
<path fill="none" stroke="orange" d="M963.09,-913.37C984.38,-889.05 1010.62,-854.9 1025.5,-820 1042.75,-779.56 1048.14,-728.28 1049.8,-697.23"/>
<polygon fill="orange" stroke="orange" points="960.42,-911.11 956.38,-920.9 965.64,-915.76 960.42,-911.11"/>
<text text-anchor="middle" x="1057" y="-806.5" font-family="Helvetica,sans-Serif" font-size="10.00"> &lt; uint8_t &gt;</text>
</g>
<!-- Node14 -->
<g id="node14" class="node">
<title>Node14</title>
<g id="a_node14"><a xlink:title=" ">
<polygon fill="white" stroke="black" points="854,-634.5 854,-702.5 979,-702.5 979,-634.5 854,-634.5"/>
<text text-anchor="start" x="862" y="-690.5" font-family="Helvetica,sans-Serif" font-size="10.00">std::vector&lt; altintegration</text>
<text text-anchor="middle" x="916.5" y="-679.5" font-family="Helvetica,sans-Serif" font-size="10.00">::Blob &gt;</text>
<polyline fill="none" stroke="black" points="854,-672.5 979,-672.5 "/>
<text text-anchor="middle" x="916.5" y="-660.5" font-family="Helvetica,sans-Serif" font-size="10.00"> </text>
<polyline fill="none" stroke="black" points="854,-653.5 979,-653.5 "/>
<text text-anchor="middle" x="916.5" y="-641.5" font-family="Helvetica,sans-Serif" font-size="10.00"> </text>
</a>
</g>
</g>
<!-- Node9&#45;&gt;Node14 -->
<g id="edge15" class="edge">
<title>Node9&#45;&gt;Node14</title>
<path fill="none" stroke="orange" d="M927.75,-910.99C925.2,-856.2 920.49,-755.12 918.05,-702.81"/>
<polygon fill="orange" stroke="orange" points="924.26,-911.16 928.22,-920.98 931.25,-910.83 924.26,-911.16"/>
<text text-anchor="middle" x="973" y="-806.5" font-family="Helvetica,sans-Serif" font-size="10.00"> &lt; altintegration::Blob &gt;</text>
</g>
<!-- Node18 -->
<g id="node18" class="node">
<title>Node18</title>
<g id="a_node18"><a xlink:title=" ">
<polygon fill="white" stroke="black" points="253,-381 253,-449 378,-449 378,-381 253,-381"/>
<text text-anchor="start" x="261" y="-437" font-family="Helvetica,sans-Serif" font-size="10.00">std::vector&lt; altintegration</text>
<text text-anchor="middle" x="315.5" y="-426" font-family="Helvetica,sans-Serif" font-size="10.00">::BtcBlock &gt;</text>
<polyline fill="none" stroke="black" points="253,-419 378,-419 "/>
<text text-anchor="middle" x="315.5" y="-407" font-family="Helvetica,sans-Serif" font-size="10.00"> </text>
<polyline fill="none" stroke="black" points="253,-400 378,-400 "/>
<text text-anchor="middle" x="315.5" y="-388" font-family="Helvetica,sans-Serif" font-size="10.00"> </text>
</a>
</g>
</g>
<!-- Node9&#45;&gt;Node18 -->
<g id="edge23" class="edge">
<title>Node9&#45;&gt;Node18</title>
<path fill="none" stroke="orange" d="M910.48,-912.05C895.47,-887.06 872.13,-855.4 842.5,-838 701.63,-755.25 593.85,-896.69 479.5,-780 409.47,-708.53 498.76,-643.53 448.5,-557 431.31,-527.41 411.67,-534.24 387.5,-510 368.92,-491.37 350.92,-467.87 337.57,-449.03"/>
<polygon fill="orange" stroke="orange" points="907.59,-914.02 915.64,-920.91 913.64,-910.5 907.59,-914.02"/>
<text text-anchor="middle" x="539" y="-666" font-family="Helvetica,sans-Serif" font-size="10.00"> &lt; altintegration::BtcBlock &gt;</text>
</g>
<!-- Node10 -->
<g id="node10" class="node">
<title>Node10</title>
<g id="a_node10"><a xlink:title=" ">
<polygon fill="white" stroke="#bfbfbf" points="915,-1185.5 915,-1242.5 944,-1242.5 944,-1185.5 915,-1185.5"/>
<text text-anchor="middle" x="929.5" y="-1230.5" font-family="Helvetica,sans-Serif" font-size="10.00">T</text>
<polyline fill="none" stroke="#bfbfbf" points="915,-1223.5 944,-1223.5 "/>
<text text-anchor="middle" x="929.5" y="-1211.5" font-family="Helvetica,sans-Serif" font-size="10.00"> </text>
<polyline fill="none" stroke="#bfbfbf" points="915,-1204.5 944,-1204.5 "/>
<text text-anchor="middle" x="929.5" y="-1192.5" font-family="Helvetica,sans-Serif" font-size="10.00"> </text>
</a>
</g>
</g>
<!-- Node10&#45;&gt;Node9 -->
<g id="edge9" class="edge">
<title>Node10&#45;&gt;Node9</title>
<path fill="none" stroke="#404040" d="M929.5,-1185.4C929.5,-1138.73 929.5,-1044.04 929.5,-990.23"/>
<polygon fill="none" stroke="#404040" points="929.5,-990.12 925.5,-984.12 929.5,-978.12 933.5,-984.12 929.5,-990.12"/>
<text text-anchor="middle" x="954" y="-1082" font-family="Helvetica,sans-Serif" font-size="10.00"> +elements</text>
</g>
<!-- Node11 -->
<g id="node11" class="node">
<title>Node11</title>
<g id="a_node11"><a xlink:href="structaltintegration_1_1MerklePath.html" target="_top" xlink:title="Path in Merkle tree which proves that subject is inside this tree.">
<polygon fill="white" stroke="black" points="396.5,-370 396.5,-460 522.5,-460 522.5,-370 396.5,-370"/>
<text text-anchor="middle" x="459.5" y="-448" font-family="Helvetica,sans-Serif" font-size="10.00">altintegration::MerklePath</text>
<polyline fill="none" stroke="black" points="396.5,-441 522.5,-441 "/>
<text text-anchor="start" x="404.5" y="-429" font-family="Helvetica,sans-Serif" font-size="10.00">+ index</text>
<polyline fill="none" stroke="black" points="396.5,-422 522.5,-422 "/>
<text text-anchor="start" x="404.5" y="-410" font-family="Helvetica,sans-Serif" font-size="10.00">+ toRaw()</text>
<text text-anchor="start" x="404.5" y="-399" font-family="Helvetica,sans-Serif" font-size="10.00">+ toVbkEncoding()</text>
<text text-anchor="start" x="404.5" y="-388" font-family="Helvetica,sans-Serif" font-size="10.00">+ estimateSize()</text>
<text text-anchor="start" x="404.5" y="-377" font-family="Helvetica,sans-Serif" font-size="10.00">+ calculateMerkleRoot()</text>
</a>
</g>
</g>
<!-- Node11&#45;&gt;Node2 -->
<g id="edge10" class="edge">
<title>Node11&#45;&gt;Node2</title>
<path fill="none" stroke="#404040" d="M471.84,-369.93C478.87,-346.25 488.31,-316.72 498.5,-291 499.47,-288.55 500.5,-286.05 501.56,-283.55"/>
<polygon fill="none" stroke="#404040" points="501.57,-283.52 500.33,-276.42 506.41,-272.54 507.65,-279.65 501.57,-283.52"/>
<text text-anchor="middle" x="527.5" y="-294" font-family="Helvetica,sans-Serif" font-size="10.00"> +merklePath</text>
</g>
<!-- Node12 -->
<g id="node12" class="node">
<title>Node12</title>
<g id="a_node12"><a xlink:href="structaltintegration_1_1Blob.html" target="_top" xlink:title=" ">
<polygon fill="white" stroke="black" points="332,-838.5 332,-1060.5 463,-1060.5 463,-838.5 332,-838.5"/>
<text text-anchor="start" x="340" y="-1048.5" font-family="Helvetica,sans-Serif" font-size="10.00">altintegration::Blob</text>
<text text-anchor="middle" x="397.5" y="-1037.5" font-family="Helvetica,sans-Serif" font-size="10.00">&lt; SHA256_HASH_SIZE &gt;</text>
<polyline fill="none" stroke="black" points="332,-1030.5 463,-1030.5 "/>
<text text-anchor="start" x="340" y="-1018.5" font-family="Helvetica,sans-Serif" font-size="10.00">+ data_</text>
<text text-anchor="start" x="340" y="-1007.5" font-family="Helvetica,sans-Serif" font-size="10.00">+ this</text>
<polyline fill="none" stroke="black" points="332,-1000.5 463,-1000.5 "/>
<text text-anchor="start" x="340" y="-988.5" font-family="Helvetica,sans-Serif" font-size="10.00">+ Blob()</text>
<text text-anchor="start" x="340" y="-977.5" font-family="Helvetica,sans-Serif" font-size="10.00">+ Blob()</text>
<text text-anchor="start" x="340" y="-966.5" font-family="Helvetica,sans-Serif" font-size="10.00">+ Blob()</text>
<text text-anchor="start" x="340" y="-955.5" font-family="Helvetica,sans-Serif" font-size="10.00">+ Blob()</text>
<text text-anchor="start" x="340" y="-944.5" font-family="Helvetica,sans-Serif" font-size="10.00">+ Blob()</text>
<text text-anchor="start" x="340" y="-933.5" font-family="Helvetica,sans-Serif" font-size="10.00">+ operator=()</text>
<text text-anchor="start" x="340" y="-922.5" font-family="Helvetica,sans-Serif" font-size="10.00">+ operator=()</text>
<text text-anchor="start" x="340" y="-911.5" font-family="Helvetica,sans-Serif" font-size="10.00">+ reverse()</text>
<text text-anchor="start" x="340" y="-900.5" font-family="Helvetica,sans-Serif" font-size="10.00">+ operator~()</text>
<text text-anchor="start" x="340" y="-889.5" font-family="Helvetica,sans-Serif" font-size="10.00">+ asVector()</text>
<text text-anchor="start" x="340" y="-878.5" font-family="Helvetica,sans-Serif" font-size="10.00">+ asString()</text>
<text text-anchor="start" x="340" y="-867.5" font-family="Helvetica,sans-Serif" font-size="10.00">+ operator[]()</text>
<text text-anchor="start" x="340" y="-856.5" font-family="Helvetica,sans-Serif" font-size="10.00">+ operator[]()</text>
<text text-anchor="start" x="340" y="-845.5" font-family="Helvetica,sans-Serif" font-size="10.00">+ compareTo()</text>
</a>
</g>
</g>
<!-- Node12&#45;&gt;Node11 -->
<g id="edge11" class="edge">
<title>Node12&#45;&gt;Node11</title>
<path fill="none" stroke="#404040" d="M391.31,-838.23C389.12,-759.23 390.72,-650.69 408.5,-557 414.01,-527.95 424.68,-496.91 434.83,-471.38"/>
<polygon fill="none" stroke="#404040" points="434.92,-471.17 433.48,-464.11 439.44,-460.06 440.89,-467.12 434.92,-471.17"/>
<text text-anchor="middle" x="428.5" y="-666" font-family="Helvetica,sans-Serif" font-size="10.00"> +subject</text>
</g>
<!-- Node15 -->
<g id="node15" class="node">
<title>Node15</title>
<g id="a_node15"><a xlink:href="structaltintegration_1_1BtcBlock.html" target="_top" xlink:title="Bitcoin block.">
<polygon fill="white" stroke="black" points="221.5,-557.5 221.5,-779.5 337.5,-779.5 337.5,-557.5 221.5,-557.5"/>
<text text-anchor="middle" x="279.5" y="-767.5" font-family="Helvetica,sans-Serif" font-size="10.00">altintegration::BtcBlock</text>
<polyline fill="none" stroke="black" points="221.5,-760.5 337.5,-760.5 "/>
<text text-anchor="start" x="229.5" y="-748.5" font-family="Helvetica,sans-Serif" font-size="10.00"># version</text>
<text text-anchor="start" x="229.5" y="-737.5" font-family="Helvetica,sans-Serif" font-size="10.00"># timestamp</text>
<text text-anchor="start" x="229.5" y="-726.5" font-family="Helvetica,sans-Serif" font-size="10.00"># bits</text>
<text text-anchor="start" x="229.5" y="-715.5" font-family="Helvetica,sans-Serif" font-size="10.00"># nonce</text>
<polyline fill="none" stroke="black" points="221.5,-708.5 337.5,-708.5 "/>
<text text-anchor="start" x="229.5" y="-696.5" font-family="Helvetica,sans-Serif" font-size="10.00">+ BtcBlock()</text>
<text text-anchor="start" x="229.5" y="-685.5" font-family="Helvetica,sans-Serif" font-size="10.00">+ BtcBlock()</text>
<text text-anchor="start" x="229.5" y="-674.5" font-family="Helvetica,sans-Serif" font-size="10.00">+ toRaw()</text>
<text text-anchor="start" x="229.5" y="-663.5" font-family="Helvetica,sans-Serif" font-size="10.00">+ toVbkEncoding()</text>
<text text-anchor="start" x="229.5" y="-652.5" font-family="Helvetica,sans-Serif" font-size="10.00">+ estimateSize()</text>
<text text-anchor="start" x="229.5" y="-641.5" font-family="Helvetica,sans-Serif" font-size="10.00">+ calculateHash()</text>
<text text-anchor="start" x="229.5" y="-630.5" font-family="Helvetica,sans-Serif" font-size="10.00">+ getHash()</text>
<text text-anchor="start" x="229.5" y="-619.5" font-family="Helvetica,sans-Serif" font-size="10.00">+ toPrettyString()</text>
<text text-anchor="start" x="229.5" y="-608.5" font-family="Helvetica,sans-Serif" font-size="10.00">+ getVersion()</text>
<text text-anchor="start" x="229.5" y="-597.5" font-family="Helvetica,sans-Serif" font-size="10.00">+ getPreviousBlock()</text>
<text text-anchor="start" x="229.5" y="-586.5" font-family="Helvetica,sans-Serif" font-size="10.00">and 10 more...</text>
<text text-anchor="start" x="229.5" y="-575.5" font-family="Helvetica,sans-Serif" font-size="10.00">+ name()</text>
<text text-anchor="start" x="229.5" y="-564.5" font-family="Helvetica,sans-Serif" font-size="10.00"># invalidateHash()</text>
</a>
</g>
</g>
<!-- Node12&#45;&gt;Node15 -->
<g id="edge19" class="edge">
<title>Node12&#45;&gt;Node15</title>
<path fill="none" stroke="#404040" d="M331.96,-856.63C325.07,-844.65 318.7,-832.27 313.5,-820 309.63,-810.87 306.17,-801.23 303.09,-791.43"/>
<polygon fill="none" stroke="#404040" points="303.06,-791.36 297.51,-786.75 299.63,-779.86 305.18,-784.46 303.06,-791.36"/>
<text text-anchor="middle" x="347" y="-812" font-family="Helvetica,sans-Serif" font-size="10.00"> #merkleRoot</text>
<text text-anchor="middle" x="347" y="-801" font-family="Helvetica,sans-Serif" font-size="10.00">#previousBlock</text>
</g>
<!-- Node19 -->
<g id="node19" class="node">
<title>Node19</title>
<g id="a_node19"><a xlink:href="structaltintegration_1_1VbkMerklePath.html" target="_top" xlink:title="Path in Merkle tree, which proves that subject exists in the tree.">
<polygon fill="white" stroke="black" points="864,-370 864,-460 1007,-460 1007,-370 864,-370"/>
<text text-anchor="middle" x="935.5" y="-448" font-family="Helvetica,sans-Serif" font-size="10.00">altintegration::VbkMerklePath</text>
<polyline fill="none" stroke="black" points="864,-441 1007,-441 "/>
<text text-anchor="start" x="872" y="-429" font-family="Helvetica,sans-Serif" font-size="10.00">+ treeIndex</text>
<text text-anchor="start" x="872" y="-418" font-family="Helvetica,sans-Serif" font-size="10.00">+ index</text>
<polyline fill="none" stroke="black" points="864,-411 1007,-411 "/>
<text text-anchor="start" x="872" y="-399" font-family="Helvetica,sans-Serif" font-size="10.00">+ toVbkEncoding()</text>
<text text-anchor="start" x="872" y="-388" font-family="Helvetica,sans-Serif" font-size="10.00">+ estimateSize()</text>
<text text-anchor="start" x="872" y="-377" font-family="Helvetica,sans-Serif" font-size="10.00">+ calculateMerkleRoot()</text>
</a>
</g>
</g>
<!-- Node12&#45;&gt;Node19 -->
<g id="edge26" class="edge">
<title>Node12&#45;&gt;Node19</title>
<path fill="none" stroke="#404040" d="M463.23,-897.14C492.12,-876.48 527.22,-853.85 561.5,-838 648.22,-797.91 704.87,-851.27 768.5,-780 835.36,-705.11 757.41,-645.67 804.5,-557 818.8,-530.06 833.41,-532.03 854.5,-510 866.73,-497.23 879.44,-482.99 891.07,-469.53"/>
<polygon fill="none" stroke="#404040" points="891.11,-469.48 891.98,-462.32 898.93,-460.37 898.06,-467.53 891.11,-469.48"/>
<text text-anchor="middle" x="824.5" y="-666" font-family="Helvetica,sans-Serif" font-size="10.00"> +subject</text>
</g>
<!-- Node13 -->
<g id="node13" class="node">
<title>Node13</title>
<g id="a_node13"><a xlink:href="structaltintegration_1_1Blob.html" target="_top" xlink:title="Contiguous byte array of fixed size.">
<polygon fill="white" stroke="black" points="337.5,-1108.5 337.5,-1319.5 457.5,-1319.5 457.5,-1108.5 337.5,-1108.5"/>
<text text-anchor="middle" x="397.5" y="-1307.5" font-family="Helvetica,sans-Serif" font-size="10.00">altintegration::Blob&lt; N &gt;</text>
<polyline fill="none" stroke="black" points="337.5,-1300.5 457.5,-1300.5 "/>
<text text-anchor="start" x="345.5" y="-1288.5" font-family="Helvetica,sans-Serif" font-size="10.00">+ data_</text>
<text text-anchor="start" x="345.5" y="-1277.5" font-family="Helvetica,sans-Serif" font-size="10.00">+ this</text>
<polyline fill="none" stroke="black" points="337.5,-1270.5 457.5,-1270.5 "/>
<text text-anchor="start" x="345.5" y="-1258.5" font-family="Helvetica,sans-Serif" font-size="10.00">+ Blob()</text>
<text text-anchor="start" x="345.5" y="-1247.5" font-family="Helvetica,sans-Serif" font-size="10.00">+ Blob()</text>
<text text-anchor="start" x="345.5" y="-1236.5" font-family="Helvetica,sans-Serif" font-size="10.00">+ Blob()</text>
<text text-anchor="start" x="345.5" y="-1225.5" font-family="Helvetica,sans-Serif" font-size="10.00">+ Blob()</text>
<text text-anchor="start" x="345.5" y="-1214.5" font-family="Helvetica,sans-Serif" font-size="10.00">+ Blob()</text>
<text text-anchor="start" x="345.5" y="-1203.5" font-family="Helvetica,sans-Serif" font-size="10.00">+ operator=()</text>
<text text-anchor="start" x="345.5" y="-1192.5" font-family="Helvetica,sans-Serif" font-size="10.00">+ operator=()</text>
<text text-anchor="start" x="345.5" y="-1181.5" font-family="Helvetica,sans-Serif" font-size="10.00">+ reverse()</text>
<text text-anchor="start" x="345.5" y="-1170.5" font-family="Helvetica,sans-Serif" font-size="10.00">+ operator~()</text>
<text text-anchor="start" x="345.5" y="-1159.5" font-family="Helvetica,sans-Serif" font-size="10.00">+ asVector()</text>
<text text-anchor="start" x="345.5" y="-1148.5" font-family="Helvetica,sans-Serif" font-size="10.00">+ asString()</text>
<text text-anchor="start" x="345.5" y="-1137.5" font-family="Helvetica,sans-Serif" font-size="10.00">+ operator[]()</text>
<text text-anchor="start" x="345.5" y="-1126.5" font-family="Helvetica,sans-Serif" font-size="10.00">+ operator[]()</text>
<text text-anchor="start" x="345.5" y="-1115.5" font-family="Helvetica,sans-Serif" font-size="10.00">+ compareTo()</text>
</a>
</g>
</g>
<!-- Node13&#45;&gt;Node12 -->
<g id="edge12" class="edge">
<title>Node13&#45;&gt;Node12</title>
<path fill="none" stroke="orange" d="M397.5,-1098.48C397.5,-1085.93 397.5,-1073.17 397.5,-1060.67"/>
<polygon fill="orange" stroke="orange" points="394,-1098.5 397.5,-1108.5 401,-1098.5 394,-1098.5"/>
<text text-anchor="middle" x="456" y="-1082" font-family="Helvetica,sans-Serif" font-size="10.00"> &lt; SHA256_HASH_SIZE &gt;</text>
</g>
<!-- Node13&#45;&gt;Node14 -->
<g id="edge14" class="edge">
<title>Node13&#45;&gt;Node14</title>
<path fill="none" stroke="#404040" d="M457.84,-1159.09C539.54,-1085.19 688.67,-947.1 806.5,-820 837.63,-786.42 867.96,-743.98 888.86,-712.73"/>
<polygon fill="none" stroke="#404040" points="888.94,-712.6 888.92,-705.39 895.57,-702.59 895.59,-709.81 888.94,-712.6"/>
<text text-anchor="middle" x="814" y="-947" font-family="Helvetica,sans-Serif" font-size="10.00"> +elements</text>
</g>
<!-- Node13&#45;&gt;Node15 -->
<g id="edge20" class="edge">
<title>Node13&#45;&gt;Node15</title>
<path fill="none" stroke="#404040" d="M337.45,-1147.52C318.06,-1122.33 298.9,-1092.11 288.5,-1061 272.43,-1012.92 272.03,-888.01 274.49,-792.1"/>
<polygon fill="none" stroke="#404040" points="274.5,-791.95 270.66,-785.85 274.83,-779.96 278.66,-786.06 274.5,-791.95"/>
<text text-anchor="middle" x="305.5" y="-947" font-family="Helvetica,sans-Serif" font-size="10.00"> #hash_</text>
</g>
<!-- Node14&#45;&gt;Node11 -->
<g id="edge13" class="edge">
<title>Node14&#45;&gt;Node11</title>
<path fill="none" stroke="#404040" d="M901.72,-634.44C888.82,-609.41 867.75,-576.16 839.5,-557 792.66,-525.23 771.34,-537.22 715.5,-528 674.96,-521.31 567.41,-529.96 531.5,-510 514.7,-500.66 500.56,-485.6 489.39,-470.25"/>
<polygon fill="none" stroke="#404040" points="489.27,-470.07 482.57,-467.38 482.48,-460.17 489.17,-462.85 489.27,-470.07"/>
<text text-anchor="middle" x="820.5" y="-531" font-family="Helvetica,sans-Serif" font-size="10.00"> +layers</text>
</g>
<!-- Node14&#45;&gt;Node19 -->
<g id="edge27" class="edge">
<title>Node14&#45;&gt;Node19</title>
<path fill="none" stroke="#404040" d="M919,-634.36C922.12,-593.17 927.48,-522.22 931.24,-472.41"/>
<polygon fill="none" stroke="#404040" points="931.25,-472.19 927.72,-465.91 932.16,-460.23 935.7,-466.51 931.25,-472.19"/>
<text text-anchor="middle" x="944.5" y="-531" font-family="Helvetica,sans-Serif" font-size="10.00"> +layers</text>
</g>
<!-- Node15&#45;&gt;Node2 -->
<g id="edge16" class="edge">
<title>Node15&#45;&gt;Node2</title>
<path fill="none" stroke="#404040" d="M221.28,-591.13C171.21,-515.44 115.99,-399.6 177.5,-320 211.17,-276.42 362.67,-249.68 455.27,-237.11"/>
<polygon fill="none" stroke="#404040" points="455.48,-237.08 460.9,-232.33 467.38,-235.5 461.95,-240.26 455.48,-237.08"/>
<text text-anchor="middle" x="210.5" y="-412.5" font-family="Helvetica,sans-Serif" font-size="10.00"> +blockOfProof</text>
</g>
<!-- Node15&#45;&gt;Node18 -->
<g id="edge22" class="edge">
<title>Node15&#45;&gt;Node18</title>
<path fill="none" stroke="#404040" d="M295.29,-557.19C300.13,-523.35 305.19,-488 309.04,-461.13"/>
<polygon fill="none" stroke="#404040" points="309.07,-460.92 305.96,-454.42 310.77,-449.04 313.88,-455.55 309.07,-460.92"/>
<text text-anchor="middle" x="324" y="-531" font-family="Helvetica,sans-Serif" font-size="10.00"> +elements</text>
</g>
<!-- Node16 -->
<g id="node16" class="node">
<title>Node16</title>
<g id="a_node16"><a xlink:title=" ">
<polygon fill="white" stroke="black" points="184,-921 184,-978 243,-978 243,-921 184,-921"/>
<text text-anchor="middle" x="213.5" y="-966" font-family="Helvetica,sans-Serif" font-size="10.00">std::string</text>
<polyline fill="none" stroke="black" points="184,-959 243,-959 "/>
<text text-anchor="middle" x="213.5" y="-947" font-family="Helvetica,sans-Serif" font-size="10.00"> </text>
<polyline fill="none" stroke="black" points="184,-940 243,-940 "/>
<text text-anchor="middle" x="213.5" y="-928" font-family="Helvetica,sans-Serif" font-size="10.00"> </text>
</a>
</g>
</g>
<!-- Node16&#45;&gt;Node15 -->
<g id="edge17" class="edge">
<title>Node16&#45;&gt;Node15</title>
<path fill="none" stroke="#404040" d="M213.96,-920.93C214.99,-890.45 218.26,-840.1 228.5,-798 229.03,-795.82 229.59,-793.63 230.17,-791.43"/>
<polygon fill="none" stroke="#404040" points="230.25,-791.15 228.05,-784.28 233.54,-779.61 235.75,-786.48 230.25,-791.15"/>
<text text-anchor="middle" x="247" y="-806.5" font-family="Helvetica,sans-Serif" font-size="10.00"> #_name</text>
</g>
<!-- Node17 -->
<g id="node17" class="node">
<title>Node17</title>
<g id="a_node17"><a xlink:title=" ">
<polygon fill="white" stroke="black" points="167,-1180 167,-1248 260,-1248 260,-1180 167,-1180"/>
<text text-anchor="start" x="175" y="-1236" font-family="Helvetica,sans-Serif" font-size="10.00">std::basic_string&lt;</text>
<text text-anchor="middle" x="213.5" y="-1225" font-family="Helvetica,sans-Serif" font-size="10.00"> Char &gt;</text>
<polyline fill="none" stroke="black" points="167,-1218 260,-1218 "/>
<text text-anchor="middle" x="213.5" y="-1206" font-family="Helvetica,sans-Serif" font-size="10.00"> </text>
<polyline fill="none" stroke="black" points="167,-1199 260,-1199 "/>
<text text-anchor="middle" x="213.5" y="-1187" font-family="Helvetica,sans-Serif" font-size="10.00"> </text>
</a>
</g>
</g>
<!-- Node17&#45;&gt;Node16 -->
<g id="edge18" class="edge">
<title>Node17&#45;&gt;Node16</title>
<path fill="none" stroke="midnightblue" d="M213.5,-1169.75C213.5,-1115.49 213.5,-1024.02 213.5,-978.29"/>
<polygon fill="none" stroke="midnightblue" points="210,-1169.75 213.5,-1179.75 217,-1169.75 210,-1169.75"/>
</g>
<!-- Node18&#45;&gt;Node2 -->
<g id="edge21" class="edge">
<title>Node18&#45;&gt;Node2</title>
<path fill="none" stroke="#404040" d="M329.7,-380.76C342.7,-353.64 364.21,-315.87 392.5,-291 410.78,-274.93 433.89,-262.25 455.85,-252.64"/>
<polygon fill="none" stroke="#404040" points="456.13,-252.52 460.12,-246.51 467.2,-247.88 463.21,-253.89 456.13,-252.52"/>
<text text-anchor="middle" x="442" y="-294" font-family="Helvetica,sans-Serif" font-size="10.00"> +blockOfProofContext</text>
</g>
<!-- Node19&#45;&gt;Node1 -->
<g id="edge25" class="edge">
<title>Node19&#45;&gt;Node1</title>
<path fill="none" stroke="#404040" d="M965.24,-369.52C979.94,-351.14 999.3,-331.48 1021.5,-320 1079.5,-290.02 1203.29,-344.23 1165.5,-291 1033.32,-104.82 733.15,-73.16 597.42,-68.66"/>
<polygon fill="none" stroke="#404040" points="597.19,-68.65 591.08,-72.48 585.2,-68.31 591.31,-64.48 597.19,-68.65"/>
<text text-anchor="middle" x="1175.5" y="-225" font-family="Helvetica,sans-Serif" font-size="10.00"> +merklePath</text>
</g>
</g>
</svg>
        <g id="navigator" transform="translate(0 0)" fill="#404254">
                <rect fill="#f2f5e9" fill-opacity="0.5" stroke="#606060" stroke-width=".5" x="0" y="0" width="60" height="60"/>
                <use id="zoomplus" xlink:href="#zoomPlus" x="17" y="9" onmousedown="handleZoom(evt,'in')"/>
                <use id="zoomminus" xlink:href="#zoomMin" x="42" y="9" onmousedown="handleZoom(evt,'out')"/>
                <use id="reset" xlink:href="#resetDef" x="30" y="36" onmousedown="handleReset()"/>
                <g id="arrowUp" xlink:href="#dirArrow" transform="translate(30 24)" onmousedown="handlePan(0,-1)">
                  <use xlink:href="#rim" fill="#404040">
                        <set attributeName="fill" to="#808080" begin="arrowUp.mouseover" end="arrowUp.mouseout"/>
                  </use>
                  <path fill="none" stroke="white" stroke-width="1.5" d="M0,-3.0v7 M-2.5,-0.5L0,-3.0L2.5,-0.5"/>
                </g>
                <g id="arrowRight" xlink:href="#dirArrow" transform="rotate(90) translate(36 -43)" onmousedown="handlePan(1,0)">
                  <use xlink:href="#rim" fill="#404040">
                        <set attributeName="fill" to="#808080" begin="arrowRight.mouseover" end="arrowRight.mouseout"/>
                  </use>
                  <path fill="none" stroke="white" stroke-width="1.5" d="M0,-3.0v7 M-2.5,-0.5L0,-3.0L2.5,-0.5"/>
                </g>
                <g id="arrowDown" xlink:href="#dirArrow" transform="rotate(180) translate(-30 -48)" onmousedown="handlePan(0,1)">
                  <use xlink:href="#rim" fill="#404040">
                        <set attributeName="fill" to="#808080" begin="arrowDown.mouseover" end="arrowDown.mouseout"/>
                  </use>
                  <path fill="none" stroke="white" stroke-width="1.5" d="M0,-3.0v7 M-2.5,-0.5L0,-3.0L2.5,-0.5"/>
                </g>
                <g id="arrowLeft" xlink:href="#dirArrow" transform="rotate(270) translate(-36 17)" onmousedown="handlePan(-1,0)">
                  <use xlink:href="#rim" fill="#404040">
                        <set attributeName="fill" to="#808080" begin="arrowLeft.mouseover" end="arrowLeft.mouseout"/>
                  </use>
                  <path fill="none" stroke="white" stroke-width="1.5" d="M0,-3.0v7 M-2.5,-0.5L0,-3.0L2.5,-0.5"/>
                </g>
        </g>
        <svg viewBox="0 0 15 15" width="100%" height="30px" preserveAspectRatio="xMaxYMin meet">
         <g id="arrow_out" transform="scale(0.3 0.3)">
          <a xlink:href="structaltintegration_1_1VTB__coll__graph_org.svg" target="_base">
           <rect id="button" ry="5" rx="5" y="6" x="6" height="38" width="38"
                fill="#f2f5e9" fill-opacity="0.5" stroke="#606060" stroke-width="1.0"/>
           <path id="arrow"
             d="M 11.500037,31.436501 C 11.940474,20.09759 22.043105,11.32322 32.158766,21.979434 L 37.068811,17.246167 C 37.068811,17.246167 37.088388,32 37.088388,32 L 22.160133,31.978069 C 22.160133,31.978069 26.997745,27.140456 26.997745,27.140456 C 18.528582,18.264221 13.291696,25.230495 11.500037,31.436501 z"
             style="fill:#404040;"/>
          </a>
         </g>
        </svg>
</svg>
