<?xml version="1.0" encoding="UTF-8" standalone="no"?>
<!DOCTYPE svg PUBLIC "-//W3C//DTD SVG 1.1//EN"
 "http://www.w3.org/Graphics/SVG/1.1/DTD/svg11.dtd">
<!-- Generated by graphviz version 2.44.0 ()
 -->
<!-- Title: altintegration::BlockTree&lt; Block, ChainParams &gt; Pages: 1 -->
<!--zoomable 1429 -->
<svg id="main" version="1.1" xmlns="http://www.w3.org/2000/svg" xmlns:xlink="http://www.w3.org/1999/xlink" xml:space="preserve" onload="init(evt)">
<style type="text/css"><![CDATA[
.edge:hover path { stroke: red; }
.edge:hover polygon { stroke: red; fill: red; }
]]></style>
<script type="text/javascript"><![CDATA[
var edges = document.getElementsByTagName('g');
if (edges && edges.length) {
  for (var i=0;i<edges.length;i++) {
    if (edges[i].id.substr(0,4)=='edge') {
      edges[i].setAttribute('class','edge');
    }
  }
}
]]></script>
        <defs>
                <circle id="rim" cx="0" cy="0" r="7"/>
                <circle id="rim2" cx="0" cy="0" r="3.5"/>
                <g id="zoomPlus">
                        <use xlink:href="#rim" fill="#404040">
                                <set attributeName="fill" to="#808080" begin="zoomplus.mouseover" end="zoomplus.mouseout"/>
                        </use>
                        <path d="M-4,0h8M0,-4v8" fill="none" stroke="white" stroke-width="1.5" pointer-events="none"/>
                </g>
                <g id="zoomMin">
                        <use xlink:href="#rim" fill="#404040">
                                <set attributeName="fill" to="#808080" begin="zoomminus.mouseover" end="zoomminus.mouseout"/>
                        </use>
                        <path d="M-4,0h8" fill="none" stroke="white" stroke-width="1.5" pointer-events="none"/>
                </g>
                <g id="dirArrow">
                        <path fill="none" stroke="white" stroke-width="1.5" d="M0,-3.0v7 M-2.5,-0.5L0,-3.0L2.5,-0.5"/>
                </g>
               <g id="resetDef">
                       <use xlink:href="#rim2" fill="#404040">
                               <set attributeName="fill" to="#808080" begin="reset.mouseover" end="reset.mouseout"/>
                       </use>
               </g>
        </defs>

<script type="text/javascript">
var viewWidth = 847;
var viewHeight = 1429;
var sectionId = 'dynsection-1';
</script>
<script xlink:href="svgpan.js"/>
<svg id="graph" class="graph">
<g id="viewport">
<title>altintegration::BlockTree&lt; Block, ChainParams &gt;</title>
<polygon fill="white" stroke="transparent" points="-4,4 -4,-1425 843,-1425 843,4 -4,4"/>
<!-- Node1 -->
<g id="node1" class="node">
<title>Node1</title>
<g id="a_node1"><a xlink:title="BlockTree is a tree of blocks with single &quot;bootstrap&quot; block as root.">
<polygon fill="#bfbfbf" stroke="black" points="161.5,-0.5 161.5,-255.5 295.5,-255.5 295.5,-0.5 161.5,-0.5"/>
<text text-anchor="start" x="169.5" y="-243.5" font-family="Helvetica,sans-Serif" font-size="10.00">altintegration::BlockTree</text>
<text text-anchor="middle" x="228.5" y="-232.5" font-family="Helvetica,sans-Serif" font-size="10.00">&lt; Block, ChainParams &gt;</text>
<polyline fill="none" stroke="black" points="161.5,-225.5 295.5,-225.5 "/>
<text text-anchor="start" x="169.5" y="-213.5" font-family="Helvetica,sans-Serif" font-size="10.00"># param_</text>
<polyline fill="none" stroke="black" points="161.5,-206.5 295.5,-206.5 "/>
<text text-anchor="start" x="169.5" y="-194.5" font-family="Helvetica,sans-Serif" font-size="10.00">+ ~BlockTree()</text>
<text text-anchor="start" x="169.5" y="-183.5" font-family="Helvetica,sans-Serif" font-size="10.00">+ BlockTree()</text>
<text text-anchor="start" x="169.5" y="-172.5" font-family="Helvetica,sans-Serif" font-size="10.00">+ getParams()</text>
<text text-anchor="start" x="169.5" y="-161.5" font-family="Helvetica,sans-Serif" font-size="10.00">+ bootstrapWithGenesis()</text>
<text text-anchor="start" x="169.5" y="-150.5" font-family="Helvetica,sans-Serif" font-size="10.00">+ bootstrapWithChain()</text>
<text text-anchor="start" x="169.5" y="-139.5" font-family="Helvetica,sans-Serif" font-size="10.00">+ acceptBlockHeader()</text>
<text text-anchor="start" x="169.5" y="-128.5" font-family="Helvetica,sans-Serif" font-size="10.00">+ acceptBlockHeader()</text>
<text text-anchor="start" x="169.5" y="-117.5" font-family="Helvetica,sans-Serif" font-size="10.00">+ toPrettyString()</text>
<text text-anchor="start" x="169.5" y="-106.5" font-family="Helvetica,sans-Serif" font-size="10.00">+ loadBlock()</text>
<text text-anchor="start" x="169.5" y="-95.5" font-family="Helvetica,sans-Serif" font-size="10.00">+ isBlockOld()</text>
<text text-anchor="start" x="169.5" y="-84.5" font-family="Helvetica,sans-Serif" font-size="10.00">+ isBlockOld()</text>
<text text-anchor="start" x="169.5" y="-73.5" font-family="Helvetica,sans-Serif" font-size="10.00">+ finalizeBlock()</text>
<text text-anchor="start" x="169.5" y="-62.5" font-family="Helvetica,sans-Serif" font-size="10.00"># acceptBlockHeaderImpl()</text>
<text text-anchor="start" x="169.5" y="-51.5" font-family="Helvetica,sans-Serif" font-size="10.00"># bootstrap()</text>
<text text-anchor="start" x="169.5" y="-40.5" font-family="Helvetica,sans-Serif" font-size="10.00"># bootstrap()</text>
<text text-anchor="start" x="169.5" y="-29.5" font-family="Helvetica,sans-Serif" font-size="10.00"># validateAndAddBlock()</text>
<text text-anchor="start" x="169.5" y="-18.5" font-family="Helvetica,sans-Serif" font-size="10.00"># determineBestChain()</text>
<text text-anchor="start" x="169.5" y="-7.5" font-family="Helvetica,sans-Serif" font-size="10.00"># onBlockInserted()</text>
</a>
</g>
</g>
<!-- Node2 -->
<g id="node2" class="node">
<title>Node2</title>
<g id="a_node2"><a xlink:href="structaltintegration_1_1BaseBlockTree.html" target="_top" xlink:title="Base block tree that stores all blocks, maintains tree tips, maintains active chain.">
<polygon fill="white" stroke="black" points="157.5,-293.5 157.5,-515.5 299.5,-515.5 299.5,-293.5 157.5,-293.5"/>
<text text-anchor="start" x="165.5" y="-503.5" font-family="Helvetica,sans-Serif" font-size="10.00">altintegration::BaseBlock</text>
<text text-anchor="middle" x="228.5" y="-492.5" font-family="Helvetica,sans-Serif" font-size="10.00">Tree&lt; Block &gt;</text>
<polyline fill="none" stroke="black" points="157.5,-485.5 299.5,-485.5 "/>
<text text-anchor="start" x="165.5" y="-473.5" font-family="Helvetica,sans-Serif" font-size="10.00"># validity_sig_</text>
<polyline fill="none" stroke="black" points="157.5,-466.5 299.5,-466.5 "/>
<text text-anchor="start" x="165.5" y="-454.5" font-family="Helvetica,sans-Serif" font-size="10.00">+ getTips()</text>
<text text-anchor="start" x="165.5" y="-443.5" font-family="Helvetica,sans-Serif" font-size="10.00">+ getBlocks()</text>
<text text-anchor="start" x="165.5" y="-432.5" font-family="Helvetica,sans-Serif" font-size="10.00">+ ~BaseBlockTree()</text>
<text text-anchor="start" x="165.5" y="-421.5" font-family="Helvetica,sans-Serif" font-size="10.00">+ BaseBlockTree()</text>
<text text-anchor="start" x="165.5" y="-410.5" font-family="Helvetica,sans-Serif" font-size="10.00">+ BaseBlockTree()</text>
<text text-anchor="start" x="165.5" y="-399.5" font-family="Helvetica,sans-Serif" font-size="10.00">+ operator=()</text>
<text text-anchor="start" x="165.5" y="-388.5" font-family="Helvetica,sans-Serif" font-size="10.00">+ BaseBlockTree()</text>
<text text-anchor="start" x="165.5" y="-377.5" font-family="Helvetica,sans-Serif" font-size="10.00">+ operator=()</text>
<text text-anchor="start" x="165.5" y="-366.5" font-family="Helvetica,sans-Serif" font-size="10.00">+ getBestChain()</text>
<text text-anchor="start" x="165.5" y="-355.5" font-family="Helvetica,sans-Serif" font-size="10.00">+ makePrevHash()</text>
<text text-anchor="start" x="165.5" y="-344.5" font-family="Helvetica,sans-Serif" font-size="10.00">and 22 more...</text>
<text text-anchor="start" x="165.5" y="-333.5" font-family="Helvetica,sans-Serif" font-size="10.00"># eraseBlock()</text>
<text text-anchor="start" x="165.5" y="-322.5" font-family="Helvetica,sans-Serif" font-size="10.00"># toPrettyString()</text>
<text text-anchor="start" x="165.5" y="-311.5" font-family="Helvetica,sans-Serif" font-size="10.00"># reduceAppliedBlockCount()</text>
<text text-anchor="start" x="165.5" y="-300.5" font-family="Helvetica,sans-Serif" font-size="10.00"># reduceAppliedBlockCount()</text>
</a>
</g>
</g>
<!-- Node2&#45;&gt;Node1 -->
<g id="edge1" class="edge">
<title>Node2&#45;&gt;Node1</title>
<path fill="none" stroke="midnightblue" d="M228.5,-283.22C228.5,-274.12 228.5,-264.93 228.5,-255.79"/>
<polygon fill="none" stroke="midnightblue" points="225,-283.43 228.5,-293.43 232,-283.43 225,-283.43"/>
</g>
<!-- Node3 -->
<g id="node3" class="node">
<title>Node3</title>
<g id="a_node3"><a xlink:href="structaltintegration_1_1Chain.html" target="_top" xlink:title=" ">
<polygon fill="white" stroke="black" points="0,-563.5 0,-741.5 141,-741.5 141,-563.5 0,-563.5"/>
<text text-anchor="start" x="8" y="-729.5" font-family="Helvetica,sans-Serif" font-size="10.00">altintegration::Chain</text>
<text text-anchor="middle" x="70.5" y="-718.5" font-family="Helvetica,sans-Serif" font-size="10.00">&lt; altintegration::BlockIndex &gt;</text>
<polyline fill="none" stroke="black" points="0,-711.5 141,-711.5 "/>
<text text-anchor="middle" x="70.5" y="-699.5" font-family="Helvetica,sans-Serif" font-size="10.00"> </text>
<polyline fill="none" stroke="black" points="0,-692.5 141,-692.5 "/>
<text text-anchor="start" x="8" y="-680.5" font-family="Helvetica,sans-Serif" font-size="10.00">+ Chain()</text>
<text text-anchor="start" x="8" y="-669.5" font-family="Helvetica,sans-Serif" font-size="10.00">+ Chain()</text>
<text text-anchor="start" x="8" y="-658.5" font-family="Helvetica,sans-Serif" font-size="10.00">+ Chain()</text>
<text text-anchor="start" x="8" y="-647.5" font-family="Helvetica,sans-Serif" font-size="10.00">+ getStartHeight()</text>
<text text-anchor="start" x="8" y="-636.5" font-family="Helvetica,sans-Serif" font-size="10.00">+ firstHeight()</text>
<text text-anchor="start" x="8" y="-625.5" font-family="Helvetica,sans-Serif" font-size="10.00">+ contains()</text>
<text text-anchor="start" x="8" y="-614.5" font-family="Helvetica,sans-Serif" font-size="10.00">+ operator[]()</text>
<text text-anchor="start" x="8" y="-603.5" font-family="Helvetica,sans-Serif" font-size="10.00">+ next()</text>
<text text-anchor="start" x="8" y="-592.5" font-family="Helvetica,sans-Serif" font-size="10.00">+ chainHeight()</text>
<text text-anchor="start" x="8" y="-581.5" font-family="Helvetica,sans-Serif" font-size="10.00">+ empty()</text>
<text text-anchor="start" x="8" y="-570.5" font-family="Helvetica,sans-Serif" font-size="10.00">and 14 more...</text>
</a>
</g>
</g>
<!-- Node3&#45;&gt;Node2 -->
<g id="edge2" class="edge">
<title>Node3&#45;&gt;Node2</title>
<path fill="none" stroke="#404040" d="M127.1,-563.38C134.92,-551.2 143.07,-538.52 151.19,-525.87"/>
<polygon fill="none" stroke="#404040" points="151.2,-525.85 151.08,-518.64 157.69,-515.75 157.81,-522.96 151.2,-525.85"/>
<text text-anchor="middle" x="177.5" y="-537" font-family="Helvetica,sans-Serif" font-size="10.00"> #activeChain_</text>
</g>
<!-- Node4 -->
<g id="node4" class="node">
<title>Node4</title>
<g id="a_node4"><a xlink:href="structaltintegration_1_1Chain.html" target="_top" xlink:title="Fully in&#45;memory chain representation.">
<polygon fill="white" stroke="black" points="19,-817 19,-995 120,-995 120,-817 19,-817"/>
<text text-anchor="start" x="27" y="-983" font-family="Helvetica,sans-Serif" font-size="10.00">altintegration::Chain</text>
<text text-anchor="middle" x="69.5" y="-972" font-family="Helvetica,sans-Serif" font-size="10.00">&lt; BlockIndexT &gt;</text>
<polyline fill="none" stroke="black" points="19,-965 120,-965 "/>
<text text-anchor="middle" x="69.5" y="-953" font-family="Helvetica,sans-Serif" font-size="10.00"> </text>
<polyline fill="none" stroke="black" points="19,-946 120,-946 "/>
<text text-anchor="start" x="27" y="-934" font-family="Helvetica,sans-Serif" font-size="10.00">+ Chain()</text>
<text text-anchor="start" x="27" y="-923" font-family="Helvetica,sans-Serif" font-size="10.00">+ Chain()</text>
<text text-anchor="start" x="27" y="-912" font-family="Helvetica,sans-Serif" font-size="10.00">+ Chain()</text>
<text text-anchor="start" x="27" y="-901" font-family="Helvetica,sans-Serif" font-size="10.00">+ getStartHeight()</text>
<text text-anchor="start" x="27" y="-890" font-family="Helvetica,sans-Serif" font-size="10.00">+ firstHeight()</text>
<text text-anchor="start" x="27" y="-879" font-family="Helvetica,sans-Serif" font-size="10.00">+ contains()</text>
<text text-anchor="start" x="27" y="-868" font-family="Helvetica,sans-Serif" font-size="10.00">+ operator[]()</text>
<text text-anchor="start" x="27" y="-857" font-family="Helvetica,sans-Serif" font-size="10.00">+ next()</text>
<text text-anchor="start" x="27" y="-846" font-family="Helvetica,sans-Serif" font-size="10.00">+ chainHeight()</text>
<text text-anchor="start" x="27" y="-835" font-family="Helvetica,sans-Serif" font-size="10.00">+ empty()</text>
<text text-anchor="start" x="27" y="-824" font-family="Helvetica,sans-Serif" font-size="10.00">and 14 more...</text>
</a>
</g>
</g>
<!-- Node4&#45;&gt;Node3 -->
<g id="edge3" class="edge">
<title>Node4&#45;&gt;Node3</title>
<path fill="none" stroke="orange" d="M69.89,-806.59C69.98,-785.16 70.07,-762.61 70.15,-741.6"/>
<polygon fill="orange" stroke="orange" points="66.39,-806.67 69.85,-816.68 73.39,-806.7 66.39,-806.67"/>
<text text-anchor="middle" x="134" y="-768.5" font-family="Helvetica,sans-Serif" font-size="10.00"> &lt; altintegration::BlockIndex &gt;</text>
</g>
<!-- Node5 -->
<g id="node5" class="node">
<title>Node5</title>
<g id="a_node5"><a xlink:title=" ">
<polygon fill="white" stroke="#bfbfbf" points="160,-613 160,-692 297,-692 297,-613 160,-613"/>
<text text-anchor="start" x="168" y="-680" font-family="Helvetica,sans-Serif" font-size="10.00">std::unordered_map</text>
<text text-anchor="start" x="168" y="-669" font-family="Helvetica,sans-Serif" font-size="10.00">&lt; prev_block_hash_t,</text>
<text text-anchor="middle" x="228.5" y="-658" font-family="Helvetica,sans-Serif" font-size="10.00"> std::unique_ptr&lt; index_t &gt; &gt;</text>
<polyline fill="none" stroke="#bfbfbf" points="160,-651 297,-651 "/>
<text text-anchor="start" x="168" y="-639" font-family="Helvetica,sans-Serif" font-size="10.00">+ keys</text>
<polyline fill="none" stroke="#bfbfbf" points="160,-632 297,-632 "/>
<text text-anchor="middle" x="228.5" y="-620" font-family="Helvetica,sans-Serif" font-size="10.00"> </text>
</a>
</g>
</g>
<!-- Node5&#45;&gt;Node2 -->
<g id="edge4" class="edge">
<title>Node5&#45;&gt;Node2</title>
<path fill="none" stroke="#404040" d="M228.5,-612.79C228.5,-589.62 228.5,-558.75 228.5,-527.94"/>
<polygon fill="none" stroke="#404040" points="228.5,-527.68 224.5,-521.68 228.5,-515.68 232.5,-521.68 228.5,-527.68"/>
<text text-anchor="middle" x="249.5" y="-537" font-family="Helvetica,sans-Serif" font-size="10.00"> #blocks_</text>
</g>
<!-- Node6 -->
<g id="node6" class="node">
<title>Node6</title>
<g id="a_node6"><a xlink:title=" ">
<polygon fill="white" stroke="#bfbfbf" points="168,-1030.5 168,-1087.5 295,-1087.5 295,-1030.5 168,-1030.5"/>
<text text-anchor="middle" x="231.5" y="-1075.5" font-family="Helvetica,sans-Serif" font-size="10.00">std::unique_ptr&lt; index_t &gt;</text>
<polyline fill="none" stroke="#bfbfbf" points="168,-1068.5 295,-1068.5 "/>
<text text-anchor="start" x="176" y="-1056.5" font-family="Helvetica,sans-Serif" font-size="10.00">+ ptr</text>
<polyline fill="none" stroke="#bfbfbf" points="168,-1049.5 295,-1049.5 "/>
<text text-anchor="start" x="176" y="-1037.5" font-family="Helvetica,sans-Serif" font-size="10.00">+ operator&#45;&gt;()</text>
</a>
</g>
</g>
<!-- Node6&#45;&gt;Node5 -->
<g id="edge5" class="edge">
<title>Node6&#45;&gt;Node5</title>
<path fill="none" stroke="#404040" d="M223.8,-1030.46C222.43,-1024.42 221.21,-1018.03 220.5,-1012 207.65,-903.01 216.29,-774.14 222.92,-704.44"/>
<polygon fill="none" stroke="#404040" points="222.95,-704.07 219.56,-697.71 224.13,-692.13 227.52,-698.49 222.95,-704.07"/>
<text text-anchor="middle" x="245" y="-903.5" font-family="Helvetica,sans-Serif" font-size="10.00"> +elements</text>
</g>
<!-- Node7 -->
<g id="node7" class="node">
<title>Node7</title>
<g id="a_node7"><a xlink:title=" ">
<polygon fill="white" stroke="#bfbfbf" points="197.5,-1182.5 197.5,-1239.5 299.5,-1239.5 299.5,-1182.5 197.5,-1182.5"/>
<text text-anchor="middle" x="248.5" y="-1227.5" font-family="Helvetica,sans-Serif" font-size="10.00">std::unique_ptr&lt; T &gt;</text>
<polyline fill="none" stroke="#bfbfbf" points="197.5,-1220.5 299.5,-1220.5 "/>
<text text-anchor="middle" x="248.5" y="-1208.5" font-family="Helvetica,sans-Serif" font-size="10.00"> </text>
<polyline fill="none" stroke="#bfbfbf" points="197.5,-1201.5 299.5,-1201.5 "/>
<text text-anchor="start" x="205.5" y="-1189.5" font-family="Helvetica,sans-Serif" font-size="10.00">+ operator&#45;&gt;()</text>
</a>
</g>
</g>
<!-- Node7&#45;&gt;Node6 -->
<g id="edge6" class="edge">
<title>Node7&#45;&gt;Node6</title>
<path fill="none" stroke="orange" d="M244.25,-1172.47C241.26,-1146.11 237.33,-1111.43 234.63,-1087.59"/>
<polygon fill="orange" stroke="orange" points="240.78,-1172.95 245.38,-1182.49 247.73,-1172.16 240.78,-1172.95"/>
<text text-anchor="middle" x="268.5" y="-1132.5" font-family="Helvetica,sans-Serif" font-size="10.00"> &lt; index_t &gt;</text>
</g>
<!-- Node8 -->
<g id="node8" class="node">
<title>Node8</title>
<g id="a_node8"><a xlink:title=" ">
<polygon fill="white" stroke="#bfbfbf" points="315,-1363.5 315,-1420.5 344,-1420.5 344,-1363.5 315,-1363.5"/>
<text text-anchor="middle" x="329.5" y="-1408.5" font-family="Helvetica,sans-Serif" font-size="10.00">T</text>
<polyline fill="none" stroke="#bfbfbf" points="315,-1401.5 344,-1401.5 "/>
<text text-anchor="middle" x="329.5" y="-1389.5" font-family="Helvetica,sans-Serif" font-size="10.00"> </text>
<polyline fill="none" stroke="#bfbfbf" points="315,-1382.5 344,-1382.5 "/>
<text text-anchor="middle" x="329.5" y="-1370.5" font-family="Helvetica,sans-Serif" font-size="10.00"> </text>
</a>
</g>
</g>
<!-- Node8&#45;&gt;Node7 -->
<g id="edge7" class="edge">
<title>Node8&#45;&gt;Node7</title>
<path fill="none" stroke="#404040" d="M314.96,-1373.9C308.39,-1365.57 300.9,-1355.17 295.5,-1345 279.62,-1315.08 267.18,-1278.67 259.09,-1251.51"/>
<polygon fill="none" stroke="#404040" points="259.02,-1251.27 253.52,-1246.62 255.69,-1239.74 261.2,-1244.39 259.02,-1251.27"/>
<text text-anchor="middle" x="305.5" y="-1337" font-family="Helvetica,sans-Serif" font-size="10.00"> +ptr</text>
</g>
<!-- Node9 -->
<g id="node9" class="node">
<title>Node9</title>
<g id="a_node9"><a xlink:title=" ">
<polygon fill="white" stroke="#bfbfbf" points="279,-872 279,-940 380,-940 380,-872 279,-872"/>
<text text-anchor="start" x="287" y="-928" font-family="Helvetica,sans-Serif" font-size="10.00">std::unordered_map</text>
<text text-anchor="middle" x="329.5" y="-917" font-family="Helvetica,sans-Serif" font-size="10.00">&lt; K, T &gt;</text>
<polyline fill="none" stroke="#bfbfbf" points="279,-910 380,-910 "/>
<text text-anchor="middle" x="329.5" y="-898" font-family="Helvetica,sans-Serif" font-size="10.00"> </text>
<polyline fill="none" stroke="#bfbfbf" points="279,-891 380,-891 "/>
<text text-anchor="middle" x="329.5" y="-879" font-family="Helvetica,sans-Serif" font-size="10.00"> </text>
</a>
</g>
</g>
<!-- Node8&#45;&gt;Node9 -->
<g id="edge10" class="edge">
<title>Node8&#45;&gt;Node9</title>
<path fill="none" stroke="#404040" d="M329.5,-1363.24C329.5,-1283.19 329.5,-1051.33 329.5,-952.5"/>
<polygon fill="none" stroke="#404040" points="329.5,-952.29 325.5,-946.29 329.5,-940.29 333.5,-946.29 329.5,-952.29"/>
<text text-anchor="middle" x="354" y="-1208.5" font-family="Helvetica,sans-Serif" font-size="10.00"> +elements</text>
</g>
<!-- Node15 -->
<g id="node15" class="node">
<title>Node15</title>
<g id="a_node15"><a xlink:title=" ">
<polygon fill="white" stroke="#bfbfbf" points="394,-1258.5 394,-1315.5 497,-1315.5 497,-1258.5 394,-1258.5"/>
<text text-anchor="middle" x="445.5" y="-1303.5" font-family="Helvetica,sans-Serif" font-size="10.00">std::shared_ptr&lt; T &gt;</text>
<polyline fill="none" stroke="#bfbfbf" points="394,-1296.5 497,-1296.5 "/>
<text text-anchor="middle" x="445.5" y="-1284.5" font-family="Helvetica,sans-Serif" font-size="10.00"> </text>
<polyline fill="none" stroke="#bfbfbf" points="394,-1277.5 497,-1277.5 "/>
<text text-anchor="start" x="402" y="-1265.5" font-family="Helvetica,sans-Serif" font-size="10.00">+ operator&#45;&gt;()</text>
</a>
</g>
</g>
<!-- Node8&#45;&gt;Node15 -->
<g id="edge16" class="edge">
<title>Node8&#45;&gt;Node15</title>
<path fill="none" stroke="#404040" d="M344.19,-1377.95C359.49,-1364.37 384.12,-1342.51 405.26,-1323.73"/>
<polygon fill="none" stroke="#404040" points="405.4,-1323.6 407.23,-1316.63 414.38,-1315.64 412.55,-1322.61 405.4,-1323.6"/>
<text text-anchor="middle" x="401.5" y="-1337" font-family="Helvetica,sans-Serif" font-size="10.00"> +ptr</text>
</g>
<!-- Node9&#45;&gt;Node5 -->
<g id="edge8" class="edge">
<title>Node9&#45;&gt;Node5</title>
<path fill="none" stroke="orange" d="M302.36,-863.21C288.27,-840.03 271.71,-810.25 260.5,-782 248.89,-752.72 240.54,-717.98 235.29,-692.01"/>
<polygon fill="orange" stroke="orange" points="299.4,-865.07 307.62,-871.75 305.36,-861.4 299.4,-865.07"/>
<text text-anchor="start" x="260.5" y="-774" font-family="Helvetica,sans-Serif" font-size="10.00"> &lt; prev_block_hash_t,</text>
<text text-anchor="middle" x="321" y="-763" font-family="Helvetica,sans-Serif" font-size="10.00"> std::unique_ptr&lt; index_t &gt; &gt;</text>
</g>
<!-- Node10 -->
<g id="node10" class="node">
<title>Node10</title>
<g id="a_node10"><a xlink:title=" ">
<polygon fill="white" stroke="#bfbfbf" points="443,-1106.5 443,-1163.5 472,-1163.5 472,-1106.5 443,-1106.5"/>
<text text-anchor="middle" x="457.5" y="-1151.5" font-family="Helvetica,sans-Serif" font-size="10.00">K</text>
<polyline fill="none" stroke="#bfbfbf" points="443,-1144.5 472,-1144.5 "/>
<text text-anchor="middle" x="457.5" y="-1132.5" font-family="Helvetica,sans-Serif" font-size="10.00"> </text>
<polyline fill="none" stroke="#bfbfbf" points="443,-1125.5 472,-1125.5 "/>
<text text-anchor="middle" x="457.5" y="-1113.5" font-family="Helvetica,sans-Serif" font-size="10.00"> </text>
</a>
</g>
</g>
<!-- Node10&#45;&gt;Node9 -->
<g id="edge9" class="edge">
<title>Node10&#45;&gt;Node9</title>
<path fill="none" stroke="#404040" d="M442.75,-1114.71C436.82,-1106.63 430.07,-1097.03 424.5,-1088 396.55,-1042.7 368.74,-988.35 350.5,-951.11"/>
<polygon fill="none" stroke="#404040" points="350.41,-950.92 344.19,-947.27 345.16,-940.13 351.38,-943.77 350.41,-950.92"/>
<text text-anchor="middle" x="439" y="-1056.5" font-family="Helvetica,sans-Serif" font-size="10.00"> +keys</text>
</g>
<!-- Node17 -->
<g id="node17" class="node">
<title>Node17</title>
<g id="a_node17"><a xlink:title=" ">
<polygon fill="white" stroke="#bfbfbf" points="548,-877.5 548,-934.5 619,-934.5 619,-877.5 548,-877.5"/>
<text text-anchor="middle" x="583.5" y="-922.5" font-family="Helvetica,sans-Serif" font-size="10.00">std::set&lt; K &gt;</text>
<polyline fill="none" stroke="#bfbfbf" points="548,-915.5 619,-915.5 "/>
<text text-anchor="middle" x="583.5" y="-903.5" font-family="Helvetica,sans-Serif" font-size="10.00"> </text>
<polyline fill="none" stroke="#bfbfbf" points="548,-896.5 619,-896.5 "/>
<text text-anchor="middle" x="583.5" y="-884.5" font-family="Helvetica,sans-Serif" font-size="10.00"> </text>
</a>
</g>
</g>
<!-- Node10&#45;&gt;Node17 -->
<g id="edge21" class="edge">
<title>Node10&#45;&gt;Node17</title>
<path fill="none" stroke="#404040" d="M472.29,-1114.74C478.23,-1106.66 484.97,-1097.06 490.5,-1088 519.55,-1040.46 548.09,-982.81 565.74,-945.55"/>
<polygon fill="none" stroke="#404040" points="565.75,-945.53 564.68,-938.4 570.85,-934.67 571.92,-941.8 565.75,-945.53"/>
<text text-anchor="middle" x="535" y="-1056.5" font-family="Helvetica,sans-Serif" font-size="10.00"> +keys</text>
</g>
<!-- Node18 -->
<g id="node18" class="node">
<title>Node18</title>
<g id="a_node18"><a xlink:title=" ">
<polygon fill="white" stroke="#bfbfbf" points="398,-877.5 398,-934.5 517,-934.5 517,-877.5 398,-877.5"/>
<text text-anchor="middle" x="457.5" y="-922.5" font-family="Helvetica,sans-Serif" font-size="10.00">std::unordered_set&lt; K &gt;</text>
<polyline fill="none" stroke="#bfbfbf" points="398,-915.5 517,-915.5 "/>
<text text-anchor="middle" x="457.5" y="-903.5" font-family="Helvetica,sans-Serif" font-size="10.00"> </text>
<polyline fill="none" stroke="#bfbfbf" points="398,-896.5 517,-896.5 "/>
<text text-anchor="middle" x="457.5" y="-884.5" font-family="Helvetica,sans-Serif" font-size="10.00"> </text>
</a>
</g>
</g>
<!-- Node10&#45;&gt;Node18 -->
<g id="edge23" class="edge">
<title>Node10&#45;&gt;Node18</title>
<path fill="none" stroke="#404040" d="M457.5,-1106.17C457.5,-1066.23 457.5,-992.48 457.5,-946.8"/>
<polygon fill="none" stroke="#404040" points="457.5,-946.71 453.5,-940.71 457.5,-934.71 461.5,-940.71 457.5,-946.71"/>
<text text-anchor="middle" x="472" y="-1056.5" font-family="Helvetica,sans-Serif" font-size="10.00"> +keys</text>
</g>
<!-- Node11 -->
<g id="node11" class="node">
<title>Node11</title>
<g id="a_node11"><a xlink:title=" ">
<polygon fill="white" stroke="#bfbfbf" points="315,-618.5 315,-686.5 462,-686.5 462,-618.5 315,-618.5"/>
<text text-anchor="start" x="323" y="-674.5" font-family="Helvetica,sans-Serif" font-size="10.00">std::unordered_set</text>
<text text-anchor="middle" x="388.5" y="-663.5" font-family="Helvetica,sans-Serif" font-size="10.00">&lt; altintegration::BlockIndex * &gt;</text>
<polyline fill="none" stroke="#bfbfbf" points="315,-656.5 462,-656.5 "/>
<text text-anchor="middle" x="388.5" y="-644.5" font-family="Helvetica,sans-Serif" font-size="10.00"> </text>
<polyline fill="none" stroke="#bfbfbf" points="315,-637.5 462,-637.5 "/>
<text text-anchor="middle" x="388.5" y="-625.5" font-family="Helvetica,sans-Serif" font-size="10.00"> </text>
</a>
</g>
</g>
<!-- Node11&#45;&gt;Node2 -->
<g id="edge11" class="edge">
<title>Node11&#45;&gt;Node2</title>
<path fill="none" stroke="#404040" d="M366.92,-618.32C351.08,-593.97 328.53,-559.3 306.21,-524.98"/>
<polygon fill="none" stroke="#404040" points="306.16,-524.9 299.54,-522.05 299.62,-514.84 306.24,-517.69 306.16,-524.9"/>
<text text-anchor="middle" x="333" y="-537" font-family="Helvetica,sans-Serif" font-size="10.00"> #tips_</text>
</g>
<!-- Node12 -->
<g id="node12" class="node">
<title>Node12</title>
<g id="a_node12"><a xlink:href="structaltintegration_1_1BlockIndex.html" target="_top" xlink:title="A node in a block tree.">
<polygon fill="white" stroke="black" points="663,-800.5 663,-1011.5 788,-1011.5 788,-800.5 663,-800.5"/>
<text text-anchor="start" x="671" y="-999.5" font-family="Helvetica,sans-Serif" font-size="10.00">altintegration::BlockIndex</text>
<text text-anchor="middle" x="725.5" y="-988.5" font-family="Helvetica,sans-Serif" font-size="10.00">&lt; Block &gt;</text>
<polyline fill="none" stroke="black" points="663,-981.5 788,-981.5 "/>
<text text-anchor="start" x="671" y="-969.5" font-family="Helvetica,sans-Serif" font-size="10.00">+ finalized</text>
<text text-anchor="start" x="671" y="-958.5" font-family="Helvetica,sans-Serif" font-size="10.00"># height</text>
<text text-anchor="start" x="671" y="-947.5" font-family="Helvetica,sans-Serif" font-size="10.00"># status</text>
<text text-anchor="start" x="671" y="-936.5" font-family="Helvetica,sans-Serif" font-size="10.00"># dirty</text>
<polyline fill="none" stroke="black" points="663,-929.5 788,-929.5 "/>
<text text-anchor="start" x="671" y="-917.5" font-family="Helvetica,sans-Serif" font-size="10.00">+ BlockIndex()</text>
<text text-anchor="start" x="671" y="-906.5" font-family="Helvetica,sans-Serif" font-size="10.00">+ BlockIndex()</text>
<text text-anchor="start" x="671" y="-895.5" font-family="Helvetica,sans-Serif" font-size="10.00">+ ~BlockIndex()</text>
<text text-anchor="start" x="671" y="-884.5" font-family="Helvetica,sans-Serif" font-size="10.00">+ BlockIndex()</text>
<text text-anchor="start" x="671" y="-873.5" font-family="Helvetica,sans-Serif" font-size="10.00">+ operator=()</text>
<text text-anchor="start" x="671" y="-862.5" font-family="Helvetica,sans-Serif" font-size="10.00">+ isDeleted()</text>
<text text-anchor="start" x="671" y="-851.5" font-family="Helvetica,sans-Serif" font-size="10.00">+ restore()</text>
<text text-anchor="start" x="671" y="-840.5" font-family="Helvetica,sans-Serif" font-size="10.00">+ deleteTemporarily()</text>
<text text-anchor="start" x="671" y="-829.5" font-family="Helvetica,sans-Serif" font-size="10.00">+ mergeFrom()</text>
<text text-anchor="start" x="671" y="-818.5" font-family="Helvetica,sans-Serif" font-size="10.00">+ toStoredBlockIndex()</text>
<text text-anchor="start" x="671" y="-807.5" font-family="Helvetica,sans-Serif" font-size="10.00">and 39 more...</text>
</a>
</g>
</g>
<!-- Node12&#45;&gt;Node11 -->
<g id="edge12" class="edge">
<title>Node12&#45;&gt;Node11</title>
<path fill="none" stroke="#404040" d="M662.82,-826.41C652.21,-816.45 640.66,-807.23 628.5,-800 600.52,-783.36 586.82,-796.14 557.5,-782 532.37,-769.89 477.88,-727.17 437.53,-694.28"/>
<polygon fill="none" stroke="#404040" points="437.4,-694.18 430.23,-693.48 428.12,-686.58 435.29,-687.29 437.4,-694.18"/>
<text text-anchor="middle" x="572" y="-768.5" font-family="Helvetica,sans-Serif" font-size="10.00"> +keys</text>
</g>
<!-- Node12&#45;&gt;Node12 -->
<g id="edge17" class="edge">
<title>Node12&#45;&gt;Node12</title>
<path fill="none" stroke="#404040" d="M788.28,-929.35C798.76,-926.08 806,-918.3 806,-906 806,-898.5 803.31,-892.69 798.84,-888.54"/>
<polygon fill="none" stroke="#404040" points="798.76,-888.5 791.57,-889.06 788.28,-882.65 795.47,-882.08 798.76,-888.5"/>
<text text-anchor="middle" x="822.5" y="-903.5" font-family="Helvetica,sans-Serif" font-size="10.00"> +pprev</text>
</g>
<!-- Node16 -->
<g id="node16" class="node">
<title>Node16</title>
<g id="a_node16"><a xlink:title=" ">
<polygon fill="white" stroke="#bfbfbf" points="696.5,-618.5 696.5,-686.5 808.5,-686.5 808.5,-618.5 696.5,-618.5"/>
<text text-anchor="start" x="704.5" y="-674.5" font-family="Helvetica,sans-Serif" font-size="10.00">std::set&lt; altintegration</text>
<text text-anchor="middle" x="752.5" y="-663.5" font-family="Helvetica,sans-Serif" font-size="10.00">::BlockIndex * &gt;</text>
<polyline fill="none" stroke="#bfbfbf" points="696.5,-656.5 808.5,-656.5 "/>
<text text-anchor="middle" x="752.5" y="-644.5" font-family="Helvetica,sans-Serif" font-size="10.00"> </text>
<polyline fill="none" stroke="#bfbfbf" points="696.5,-637.5 808.5,-637.5 "/>
<text text-anchor="middle" x="752.5" y="-625.5" font-family="Helvetica,sans-Serif" font-size="10.00"> </text>
</a>
</g>
</g>
<!-- Node12&#45;&gt;Node16 -->
<g id="edge19" class="edge">
<title>Node12&#45;&gt;Node16</title>
<path fill="none" stroke="#404040" d="M736.75,-800.16C740.54,-764.86 744.58,-727.3 747.61,-699.03"/>
<polygon fill="none" stroke="#404040" points="747.65,-698.67 744.31,-692.27 748.93,-686.74 752.27,-693.13 747.65,-698.67"/>
<text text-anchor="middle" x="755" y="-768.5" font-family="Helvetica,sans-Serif" font-size="10.00"> +keys</text>
</g>
<!-- Node13 -->
<g id="node13" class="node">
<title>Node13</title>
<g id="a_node13"><a xlink:title=" ">
<polygon fill="white" stroke="#bfbfbf" points="685.5,-1106.5 685.5,-1163.5 765.5,-1163.5 765.5,-1106.5 685.5,-1106.5"/>
<text text-anchor="middle" x="725.5" y="-1151.5" font-family="Helvetica,sans-Serif" font-size="10.00">Block::addon_t</text>
<polyline fill="none" stroke="#bfbfbf" points="685.5,-1144.5 765.5,-1144.5 "/>
<text text-anchor="middle" x="725.5" y="-1132.5" font-family="Helvetica,sans-Serif" font-size="10.00"> </text>
<polyline fill="none" stroke="#bfbfbf" points="685.5,-1125.5 765.5,-1125.5 "/>
<text text-anchor="middle" x="725.5" y="-1113.5" font-family="Helvetica,sans-Serif" font-size="10.00"> </text>
</a>
</g>
</g>
<!-- Node13&#45;&gt;Node12 -->
<g id="edge13" class="edge">
<title>Node13&#45;&gt;Node12</title>
<path fill="none" stroke="midnightblue" d="M725.5,-1096.05C725.5,-1072.79 725.5,-1041.76 725.5,-1011.58"/>
<polygon fill="none" stroke="midnightblue" points="722,-1096.17 725.5,-1106.17 729,-1096.17 722,-1096.17"/>
</g>
<!-- Node14 -->
<g id="node14" class="node">
<title>Node14</title>
<g id="a_node14"><a xlink:title=" ">
<polygon fill="white" stroke="#bfbfbf" points="515.5,-1106.5 515.5,-1163.5 643.5,-1163.5 643.5,-1106.5 515.5,-1106.5"/>
<text text-anchor="middle" x="579.5" y="-1151.5" font-family="Helvetica,sans-Serif" font-size="10.00">std::shared_ptr&lt; block_t &gt;</text>
<polyline fill="none" stroke="#bfbfbf" points="515.5,-1144.5 643.5,-1144.5 "/>
<text text-anchor="start" x="523.5" y="-1132.5" font-family="Helvetica,sans-Serif" font-size="10.00">+ ptr</text>
<polyline fill="none" stroke="#bfbfbf" points="515.5,-1125.5 643.5,-1125.5 "/>
<text text-anchor="start" x="523.5" y="-1113.5" font-family="Helvetica,sans-Serif" font-size="10.00">+ operator&#45;&gt;()</text>
</a>
</g>
</g>
<!-- Node14&#45;&gt;Node12 -->
<g id="edge14" class="edge">
<title>Node14&#45;&gt;Node12</title>
<path fill="none" stroke="#404040" d="M597.4,-1106.17C612.27,-1083.04 634.44,-1048.58 656.17,-1014.8"/>
<polygon fill="none" stroke="#404040" points="656.4,-1014.44 656.28,-1007.23 662.89,-1004.35 663.01,-1011.56 656.4,-1014.44"/>
<text text-anchor="middle" x="662" y="-1056.5" font-family="Helvetica,sans-Serif" font-size="10.00"> #header</text>
</g>
<!-- Node15&#45;&gt;Node14 -->
<g id="edge15" class="edge">
<title>Node15&#45;&gt;Node14</title>
<path fill="none" stroke="orange" d="M476.86,-1250.9C500.65,-1224.27 532.89,-1188.17 554.85,-1163.59"/>
<polygon fill="orange" stroke="orange" points="474.13,-1248.7 470.08,-1258.49 479.35,-1253.36 474.13,-1248.7"/>
<text text-anchor="middle" x="561" y="-1208.5" font-family="Helvetica,sans-Serif" font-size="10.00"> &lt; block_t &gt;</text>
</g>
<!-- Node16&#45;&gt;Node12 -->
<g id="edge18" class="edge">
<title>Node16&#45;&gt;Node12</title>
<path fill="none" stroke="#404040" d="M768.56,-686.73C779.08,-712.64 789.65,-749.56 782.5,-782 782.02,-784.19 781.49,-786.39 780.93,-788.59"/>
<polygon fill="none" stroke="#404040" points="780.86,-788.83 783.05,-795.7 777.56,-800.37 775.36,-793.5 780.86,-788.83"/>
<text text-anchor="middle" x="800.5" y="-768.5" font-family="Helvetica,sans-Serif" font-size="10.00"> +pnext</text>
</g>
<!-- Node17&#45;&gt;Node16 -->
<g id="edge20" class="edge">
<title>Node17&#45;&gt;Node16</title>
<path fill="none" stroke="orange" d="M580.11,-866.85C579.18,-835.92 582.13,-792.31 601.5,-760 623.35,-723.54 663.04,-696.29 696.24,-678.49"/>
<polygon fill="orange" stroke="orange" points="576.63,-867.4 580.58,-877.23 583.62,-867.08 576.63,-867.4"/>
<text text-anchor="middle" x="668" y="-768.5" font-family="Helvetica,sans-Serif" font-size="10.00"> &lt; altintegration::BlockIndex * &gt;</text>
</g>
<!-- Node18&#45;&gt;Node11 -->
<g id="edge22" class="edge">
<title>Node18&#45;&gt;Node11</title>
<path fill="none" stroke="orange" d="M431.19,-868.85C415.76,-845.37 397.73,-813.39 389.5,-782 381.21,-750.38 382.08,-712.87 384.34,-686.57"/>
<polygon fill="orange" stroke="orange" points="428.47,-871.06 436.95,-877.41 434.28,-867.16 428.47,-871.06"/>
<text text-anchor="middle" x="456" y="-768.5" font-family="Helvetica,sans-Serif" font-size="10.00"> &lt; altintegration::BlockIndex * &gt;</text>
</g>
</g>
</svg>
        <g id="navigator" transform="translate(0 0)" fill="#404254">
                <rect fill="#f2f5e9" fill-opacity="0.5" stroke="#606060" stroke-width=".5" x="0" y="0" width="60" height="60"/>
                <use id="zoomplus" xlink:href="#zoomPlus" x="17" y="9" onmousedown="handleZoom(evt,'in')"/>
                <use id="zoomminus" xlink:href="#zoomMin" x="42" y="9" onmousedown="handleZoom(evt,'out')"/>
                <use id="reset" xlink:href="#resetDef" x="30" y="36" onmousedown="handleReset()"/>
                <g id="arrowUp" xlink:href="#dirArrow" transform="translate(30 24)" onmousedown="handlePan(0,-1)">
                  <use xlink:href="#rim" fill="#404040">
                        <set attributeName="fill" to="#808080" begin="arrowUp.mouseover" end="arrowUp.mouseout"/>
                  </use>
                  <path fill="none" stroke="white" stroke-width="1.5" d="M0,-3.0v7 M-2.5,-0.5L0,-3.0L2.5,-0.5"/>
                </g>
                <g id="arrowRight" xlink:href="#dirArrow" transform="rotate(90) translate(36 -43)" onmousedown="handlePan(1,0)">
                  <use xlink:href="#rim" fill="#404040">
                        <set attributeName="fill" to="#808080" begin="arrowRight.mouseover" end="arrowRight.mouseout"/>
                  </use>
                  <path fill="none" stroke="white" stroke-width="1.5" d="M0,-3.0v7 M-2.5,-0.5L0,-3.0L2.5,-0.5"/>
                </g>
                <g id="arrowDown" xlink:href="#dirArrow" transform="rotate(180) translate(-30 -48)" onmousedown="handlePan(0,1)">
                  <use xlink:href="#rim" fill="#404040">
                        <set attributeName="fill" to="#808080" begin="arrowDown.mouseover" end="arrowDown.mouseout"/>
                  </use>
                  <path fill="none" stroke="white" stroke-width="1.5" d="M0,-3.0v7 M-2.5,-0.5L0,-3.0L2.5,-0.5"/>
                </g>
                <g id="arrowLeft" xlink:href="#dirArrow" transform="rotate(270) translate(-36 17)" onmousedown="handlePan(-1,0)">
                  <use xlink:href="#rim" fill="#404040">
                        <set attributeName="fill" to="#808080" begin="arrowLeft.mouseover" end="arrowLeft.mouseout"/>
                  </use>
                  <path fill="none" stroke="white" stroke-width="1.5" d="M0,-3.0v7 M-2.5,-0.5L0,-3.0L2.5,-0.5"/>
                </g>
        </g>
        <svg viewBox="0 0 15 15" width="100%" height="30px" preserveAspectRatio="xMaxYMin meet">
         <g id="arrow_out" transform="scale(0.3 0.3)">
          <a xlink:href="structaltintegration_1_1BlockTree__coll__graph_org.svg" target="_base">
           <rect id="button" ry="5" rx="5" y="6" x="6" height="38" width="38"
                fill="#f2f5e9" fill-opacity="0.5" stroke="#606060" stroke-width="1.0"/>
           <path id="arrow"
             d="M 11.500037,31.436501 C 11.940474,20.09759 22.043105,11.32322 32.158766,21.979434 L 37.068811,17.246167 C 37.068811,17.246167 37.088388,32 37.088388,32 L 22.160133,31.978069 C 22.160133,31.978069 26.997745,27.140456 26.997745,27.140456 C 18.528582,18.264221 13.291696,25.230495 11.500037,31.436501 z"
             style="fill:#404040;"/>
          </a>
         </g>
        </svg>
</svg>
