<?xml version="1.0" encoding="UTF-8" standalone="no"?>
<!DOCTYPE svg PUBLIC "-//W3C//DTD SVG 1.1//EN"
 "http://www.w3.org/Graphics/SVG/1.1/DTD/svg11.dtd">
<!-- Generated by graphviz version 2.44.0 ()
 -->
<!-- Title: altintegration::BlockTree&lt; Block, ChainParams &gt; Pages: 1 -->
<!--zoomable 1473 -->
<svg id="main" version="1.1" xmlns="http://www.w3.org/2000/svg" xmlns:xlink="http://www.w3.org/1999/xlink" xml:space="preserve" onload="init(evt)">
<style type="text/css"><![CDATA[
.edge:hover path { stroke: red; }
.edge:hover polygon { stroke: red; fill: red; }
]]></style>
<script type="text/javascript"><![CDATA[
var edges = document.getElementsByTagName('g');
if (edges && edges.length) {
  for (var i=0;i<edges.length;i++) {
    if (edges[i].id.substr(0,4)=='edge') {
      edges[i].setAttribute('class','edge');
    }
  }
}
]]></script>
        <defs>
                <circle id="rim" cx="0" cy="0" r="7"/>
                <circle id="rim2" cx="0" cy="0" r="3.5"/>
                <g id="zoomPlus">
                        <use xlink:href="#rim" fill="#404040">
                                <set attributeName="fill" to="#808080" begin="zoomplus.mouseover" end="zoomplus.mouseout"/>
                        </use>
                        <path d="M-4,0h8M0,-4v8" fill="none" stroke="white" stroke-width="1.5" pointer-events="none"/>
                </g>
                <g id="zoomMin">
                        <use xlink:href="#rim" fill="#404040">
                                <set attributeName="fill" to="#808080" begin="zoomminus.mouseover" end="zoomminus.mouseout"/>
                        </use>
                        <path d="M-4,0h8" fill="none" stroke="white" stroke-width="1.5" pointer-events="none"/>
                </g>
                <g id="dirArrow">
                        <path fill="none" stroke="white" stroke-width="1.5" d="M0,-3.0v7 M-2.5,-0.5L0,-3.0L2.5,-0.5"/>
                </g>
               <g id="resetDef">
                       <use xlink:href="#rim2" fill="#404040">
                               <set attributeName="fill" to="#808080" begin="reset.mouseover" end="reset.mouseout"/>
                       </use>
               </g>
        </defs>

<script type="text/javascript">
var viewWidth = 998;
var viewHeight = 1473;
var sectionId = 'dynsection-1';
</script>
<script xlink:href="svgpan.js"/>
<svg id="graph" class="graph">
<g id="viewport">
<title>altintegration::BlockTree&lt; Block, ChainParams &gt;</title>
<polygon fill="white" stroke="transparent" points="-4,4 -4,-1469 993.5,-1469 993.5,4 -4,4"/>
<!-- Node1 -->
<g id="node1" class="node">
<title>Node1</title>
<g id="a_node1"><a xlink:title="BlockTree is a tree of blocks with single &quot;bootstrap&quot; block as root.">
<polygon fill="#bfbfbf" stroke="black" points="232,-0.5 232,-255.5 366,-255.5 366,-0.5 232,-0.5"/>
<text text-anchor="start" x="240" y="-243.5" font-family="Helvetica,sans-Serif" font-size="10.00">altintegration::BlockTree</text>
<text text-anchor="middle" x="299" y="-232.5" font-family="Helvetica,sans-Serif" font-size="10.00">&lt; Block, ChainParams &gt;</text>
<polyline fill="none" stroke="black" points="232,-225.5 366,-225.5 "/>
<text text-anchor="start" x="240" y="-213.5" font-family="Helvetica,sans-Serif" font-size="10.00"># param_</text>
<polyline fill="none" stroke="black" points="232,-206.5 366,-206.5 "/>
<text text-anchor="start" x="240" y="-194.5" font-family="Helvetica,sans-Serif" font-size="10.00">+ ~BlockTree()</text>
<text text-anchor="start" x="240" y="-183.5" font-family="Helvetica,sans-Serif" font-size="10.00">+ BlockTree()</text>
<text text-anchor="start" x="240" y="-172.5" font-family="Helvetica,sans-Serif" font-size="10.00">+ getParams()</text>
<text text-anchor="start" x="240" y="-161.5" font-family="Helvetica,sans-Serif" font-size="10.00">+ bootstrapWithGenesis()</text>
<text text-anchor="start" x="240" y="-150.5" font-family="Helvetica,sans-Serif" font-size="10.00">+ bootstrapWithChain()</text>
<text text-anchor="start" x="240" y="-139.5" font-family="Helvetica,sans-Serif" font-size="10.00">+ acceptBlockHeader()</text>
<text text-anchor="start" x="240" y="-128.5" font-family="Helvetica,sans-Serif" font-size="10.00">+ acceptBlockHeader()</text>
<text text-anchor="start" x="240" y="-117.5" font-family="Helvetica,sans-Serif" font-size="10.00">+ toPrettyString()</text>
<text text-anchor="start" x="240" y="-106.5" font-family="Helvetica,sans-Serif" font-size="10.00">+ loadBlockForward()</text>
<text text-anchor="start" x="240" y="-95.5" font-family="Helvetica,sans-Serif" font-size="10.00">+ isBlockOld()</text>
<text text-anchor="start" x="240" y="-84.5" font-family="Helvetica,sans-Serif" font-size="10.00">+ isBlockOld()</text>
<text text-anchor="start" x="240" y="-73.5" font-family="Helvetica,sans-Serif" font-size="10.00">+ finalizeBlock()</text>
<text text-anchor="start" x="240" y="-62.5" font-family="Helvetica,sans-Serif" font-size="10.00"># acceptBlockHeaderImpl()</text>
<text text-anchor="start" x="240" y="-51.5" font-family="Helvetica,sans-Serif" font-size="10.00"># bootstrap()</text>
<text text-anchor="start" x="240" y="-40.5" font-family="Helvetica,sans-Serif" font-size="10.00"># bootstrap()</text>
<text text-anchor="start" x="240" y="-29.5" font-family="Helvetica,sans-Serif" font-size="10.00"># validateAndAddBlock()</text>
<text text-anchor="start" x="240" y="-18.5" font-family="Helvetica,sans-Serif" font-size="10.00"># determineBestChain()</text>
<text text-anchor="start" x="240" y="-7.5" font-family="Helvetica,sans-Serif" font-size="10.00"># onBlockInserted()</text>
</a>
</g>
</g>
<!-- Node2 -->
<g id="node2" class="node">
<title>Node2</title>
<g id="a_node2"><a xlink:href="structaltintegration_1_1BaseBlockTree.html" target="_top" xlink:title="Base block tree that stores all blocks, maintains tree tips, maintains active chain.">
<polygon fill="white" stroke="black" points="223,-293.5 223,-559.5 375,-559.5 375,-293.5 223,-293.5"/>
<text text-anchor="start" x="231" y="-547.5" font-family="Helvetica,sans-Serif" font-size="10.00">altintegration::BaseBlock</text>
<text text-anchor="middle" x="299" y="-536.5" font-family="Helvetica,sans-Serif" font-size="10.00">Tree&lt; Block &gt;</text>
<polyline fill="none" stroke="black" points="223,-529.5 375,-529.5 "/>
<text text-anchor="start" x="231" y="-517.5" font-family="Helvetica,sans-Serif" font-size="10.00"># isLoadingBlocks_</text>
<text text-anchor="start" x="231" y="-506.5" font-family="Helvetica,sans-Serif" font-size="10.00"># isLoaded_</text>
<text text-anchor="start" x="231" y="-495.5" font-family="Helvetica,sans-Serif" font-size="10.00"># validity_sig_</text>
<polyline fill="none" stroke="black" points="223,-488.5 375,-488.5 "/>
<text text-anchor="start" x="231" y="-476.5" font-family="Helvetica,sans-Serif" font-size="10.00">+ getTips()</text>
<text text-anchor="start" x="231" y="-465.5" font-family="Helvetica,sans-Serif" font-size="10.00">+ getBlocks()</text>
<text text-anchor="start" x="231" y="-454.5" font-family="Helvetica,sans-Serif" font-size="10.00">+ getAllBlocks()</text>
<text text-anchor="start" x="231" y="-443.5" font-family="Helvetica,sans-Serif" font-size="10.00">+ getBlockProvider()</text>
<text text-anchor="start" x="231" y="-432.5" font-family="Helvetica,sans-Serif" font-size="10.00">+ ~BaseBlockTree()</text>
<text text-anchor="start" x="231" y="-421.5" font-family="Helvetica,sans-Serif" font-size="10.00">+ BaseBlockTree()</text>
<text text-anchor="start" x="231" y="-410.5" font-family="Helvetica,sans-Serif" font-size="10.00">+ BaseBlockTree()</text>
<text text-anchor="start" x="231" y="-399.5" font-family="Helvetica,sans-Serif" font-size="10.00">+ operator=()</text>
<text text-anchor="start" x="231" y="-388.5" font-family="Helvetica,sans-Serif" font-size="10.00">+ BaseBlockTree()</text>
<text text-anchor="start" x="231" y="-377.5" font-family="Helvetica,sans-Serif" font-size="10.00">+ operator=()</text>
<text text-anchor="start" x="231" y="-366.5" font-family="Helvetica,sans-Serif" font-size="10.00">and 25 more...</text>
<text text-anchor="start" x="231" y="-355.5" font-family="Helvetica,sans-Serif" font-size="10.00"># eraseBlock()</text>
<text text-anchor="start" x="231" y="-344.5" font-family="Helvetica,sans-Serif" font-size="10.00"># toPrettyString()</text>
<text text-anchor="start" x="231" y="-333.5" font-family="Helvetica,sans-Serif" font-size="10.00"># decreaseAppliedBlockCount()</text>
<text text-anchor="start" x="231" y="-322.5" font-family="Helvetica,sans-Serif" font-size="10.00"># increaseAppliedBlockCount()</text>
<text text-anchor="start" x="231" y="-311.5" font-family="Helvetica,sans-Serif" font-size="10.00"># decreaseAppliedBlockCount()</text>
<text text-anchor="start" x="231" y="-300.5" font-family="Helvetica,sans-Serif" font-size="10.00"># increaseAppliedBlockCount()</text>
</a>
</g>
</g>
<!-- Node2&#45;&gt;Node1 -->
<g id="edge1" class="edge">
<title>Node2&#45;&gt;Node1</title>
<path fill="none" stroke="midnightblue" d="M299,-283C299,-273.87 299,-264.72 299,-255.67"/>
<polygon fill="none" stroke="midnightblue" points="295.5,-283.29 299,-293.29 302.5,-283.29 295.5,-283.29"/>
</g>
<!-- Node3 -->
<g id="node3" class="node">
<title>Node3</title>
<g id="a_node3"><a xlink:href="structaltintegration_1_1BlockReader.html" target="_top" xlink:title="An abstraction over on&#45;disk storage iterator.">
<polygon fill="white" stroke="black" points="0,-613 0,-780 132,-780 132,-613 0,-613"/>
<text text-anchor="middle" x="66" y="-768" font-family="Helvetica,sans-Serif" font-size="10.00">altintegration::BlockReader</text>
<polyline fill="none" stroke="black" points="0,-761 132,-761 "/>
<text text-anchor="middle" x="66" y="-749" font-family="Helvetica,sans-Serif" font-size="10.00"> </text>
<polyline fill="none" stroke="black" points="0,-742 132,-742 "/>
<text text-anchor="start" x="8" y="-730" font-family="Helvetica,sans-Serif" font-size="10.00">+ ~BlockReader()</text>
<text text-anchor="start" x="8" y="-719" font-family="Helvetica,sans-Serif" font-size="10.00">+ getAltTip()</text>
<text text-anchor="start" x="8" y="-708" font-family="Helvetica,sans-Serif" font-size="10.00">+ getVbkTip()</text>
<text text-anchor="start" x="8" y="-697" font-family="Helvetica,sans-Serif" font-size="10.00">+ getBtcTip()</text>
<text text-anchor="start" x="8" y="-686" font-family="Helvetica,sans-Serif" font-size="10.00">+ getBlock()</text>
<text text-anchor="start" x="8" y="-675" font-family="Helvetica,sans-Serif" font-size="10.00">+ getBlock()</text>
<text text-anchor="start" x="8" y="-664" font-family="Helvetica,sans-Serif" font-size="10.00">+ getBlock()</text>
<text text-anchor="start" x="8" y="-653" font-family="Helvetica,sans-Serif" font-size="10.00">+ getAltBlockIterator()</text>
<text text-anchor="start" x="8" y="-642" font-family="Helvetica,sans-Serif" font-size="10.00">+ getVbkBlockIterator()</text>
<text text-anchor="start" x="8" y="-631" font-family="Helvetica,sans-Serif" font-size="10.00">+ getBtcBlockIterator()</text>
<text text-anchor="start" x="8" y="-620" font-family="Helvetica,sans-Serif" font-size="10.00">and 6 more...</text>
</a>
</g>
</g>
<!-- Node3&#45;&gt;Node2 -->
<g id="edge2" class="edge">
<title>Node3&#45;&gt;Node2</title>
<path fill="none" stroke="#404040" d="M132.17,-617.25C135.15,-613.78 138.1,-610.35 141,-607 164.77,-579.48 190.77,-549.77 214.7,-522.6"/>
<polygon fill="none" stroke="#404040" points="214.79,-522.5 215.76,-515.35 222.73,-513.49 221.76,-520.64 214.79,-522.5"/>
<text text-anchor="middle" x="199.5" y="-581" font-family="Helvetica,sans-Serif" font-size="10.00"> #blockProvider_</text>
</g>
<!-- Node4 -->
<g id="node4" class="node">
<title>Node4</title>
<g id="a_node4"><a xlink:href="structaltintegration_1_1Chain.html" target="_top" xlink:title=" ">
<polygon fill="white" stroke="black" points="150.5,-607.5 150.5,-785.5 291.5,-785.5 291.5,-607.5 150.5,-607.5"/>
<text text-anchor="start" x="158.5" y="-773.5" font-family="Helvetica,sans-Serif" font-size="10.00">altintegration::Chain</text>
<text text-anchor="middle" x="221" y="-762.5" font-family="Helvetica,sans-Serif" font-size="10.00">&lt; altintegration::BlockIndex &gt;</text>
<polyline fill="none" stroke="black" points="150.5,-755.5 291.5,-755.5 "/>
<text text-anchor="middle" x="221" y="-743.5" font-family="Helvetica,sans-Serif" font-size="10.00"> </text>
<polyline fill="none" stroke="black" points="150.5,-736.5 291.5,-736.5 "/>
<text text-anchor="start" x="158.5" y="-724.5" font-family="Helvetica,sans-Serif" font-size="10.00">+ Chain()</text>
<text text-anchor="start" x="158.5" y="-713.5" font-family="Helvetica,sans-Serif" font-size="10.00">+ Chain()</text>
<text text-anchor="start" x="158.5" y="-702.5" font-family="Helvetica,sans-Serif" font-size="10.00">+ Chain()</text>
<text text-anchor="start" x="158.5" y="-691.5" font-family="Helvetica,sans-Serif" font-size="10.00">+ getStartHeight()</text>
<text text-anchor="start" x="158.5" y="-680.5" font-family="Helvetica,sans-Serif" font-size="10.00">+ firstHeight()</text>
<text text-anchor="start" x="158.5" y="-669.5" font-family="Helvetica,sans-Serif" font-size="10.00">+ contains()</text>
<text text-anchor="start" x="158.5" y="-658.5" font-family="Helvetica,sans-Serif" font-size="10.00">+ operator[]()</text>
<text text-anchor="start" x="158.5" y="-647.5" font-family="Helvetica,sans-Serif" font-size="10.00">+ next()</text>
<text text-anchor="start" x="158.5" y="-636.5" font-family="Helvetica,sans-Serif" font-size="10.00">+ chainHeight()</text>
<text text-anchor="start" x="158.5" y="-625.5" font-family="Helvetica,sans-Serif" font-size="10.00">+ empty()</text>
<text text-anchor="start" x="158.5" y="-614.5" font-family="Helvetica,sans-Serif" font-size="10.00">and 15 more...</text>
</a>
</g>
</g>
<!-- Node4&#45;&gt;Node2 -->
<g id="edge3" class="edge">
<title>Node4&#45;&gt;Node2</title>
<path fill="none" stroke="#404040" d="M246.65,-607.38C250.01,-595.81 253.53,-583.73 257.08,-571.54"/>
<polygon fill="none" stroke="#404040" points="257.13,-571.36 254.97,-564.48 260.48,-559.83 262.65,-566.71 257.13,-571.36"/>
<text text-anchor="middle" x="286" y="-581" font-family="Helvetica,sans-Serif" font-size="10.00"> #activeChain_</text>
</g>
<!-- Node5 -->
<g id="node5" class="node">
<title>Node5</title>
<g id="a_node5"><a xlink:href="structaltintegration_1_1Chain.html" target="_top" xlink:title="Fully in&#45;memory chain representation.">
<polygon fill="white" stroke="black" points="169.5,-861 169.5,-1039 270.5,-1039 270.5,-861 169.5,-861"/>
<text text-anchor="start" x="177.5" y="-1027" font-family="Helvetica,sans-Serif" font-size="10.00">altintegration::Chain</text>
<text text-anchor="middle" x="220" y="-1016" font-family="Helvetica,sans-Serif" font-size="10.00">&lt; BlockIndexT &gt;</text>
<polyline fill="none" stroke="black" points="169.5,-1009 270.5,-1009 "/>
<text text-anchor="middle" x="220" y="-997" font-family="Helvetica,sans-Serif" font-size="10.00"> </text>
<polyline fill="none" stroke="black" points="169.5,-990 270.5,-990 "/>
<text text-anchor="start" x="177.5" y="-978" font-family="Helvetica,sans-Serif" font-size="10.00">+ Chain()</text>
<text text-anchor="start" x="177.5" y="-967" font-family="Helvetica,sans-Serif" font-size="10.00">+ Chain()</text>
<text text-anchor="start" x="177.5" y="-956" font-family="Helvetica,sans-Serif" font-size="10.00">+ Chain()</text>
<text text-anchor="start" x="177.5" y="-945" font-family="Helvetica,sans-Serif" font-size="10.00">+ getStartHeight()</text>
<text text-anchor="start" x="177.5" y="-934" font-family="Helvetica,sans-Serif" font-size="10.00">+ firstHeight()</text>
<text text-anchor="start" x="177.5" y="-923" font-family="Helvetica,sans-Serif" font-size="10.00">+ contains()</text>
<text text-anchor="start" x="177.5" y="-912" font-family="Helvetica,sans-Serif" font-size="10.00">+ operator[]()</text>
<text text-anchor="start" x="177.5" y="-901" font-family="Helvetica,sans-Serif" font-size="10.00">+ next()</text>
<text text-anchor="start" x="177.5" y="-890" font-family="Helvetica,sans-Serif" font-size="10.00">+ chainHeight()</text>
<text text-anchor="start" x="177.5" y="-879" font-family="Helvetica,sans-Serif" font-size="10.00">+ empty()</text>
<text text-anchor="start" x="177.5" y="-868" font-family="Helvetica,sans-Serif" font-size="10.00">and 15 more...</text>
</a>
</g>
</g>
<!-- Node5&#45;&gt;Node4 -->
<g id="edge4" class="edge">
<title>Node5&#45;&gt;Node4</title>
<path fill="none" stroke="orange" d="M220.39,-850.59C220.48,-829.16 220.57,-806.61 220.65,-785.6"/>
<polygon fill="orange" stroke="orange" points="216.89,-850.67 220.35,-860.68 223.89,-850.7 216.89,-850.67"/>
<text text-anchor="middle" x="284.5" y="-812.5" font-family="Helvetica,sans-Serif" font-size="10.00"> &lt; altintegration::BlockIndex &gt;</text>
</g>
<!-- Node6 -->
<g id="node6" class="node">
<title>Node6</title>
<g id="a_node6"><a xlink:title=" ">
<polygon fill="white" stroke="#bfbfbf" points="309.5,-657 309.5,-736 446.5,-736 446.5,-657 309.5,-657"/>
<text text-anchor="start" x="317.5" y="-724" font-family="Helvetica,sans-Serif" font-size="10.00">std::unordered_map</text>
<text text-anchor="start" x="317.5" y="-713" font-family="Helvetica,sans-Serif" font-size="10.00">&lt; prev_block_hash_t,</text>
<text text-anchor="middle" x="378" y="-702" font-family="Helvetica,sans-Serif" font-size="10.00"> std::unique_ptr&lt; index_t &gt; &gt;</text>
<polyline fill="none" stroke="#bfbfbf" points="309.5,-695 446.5,-695 "/>
<text text-anchor="start" x="317.5" y="-683" font-family="Helvetica,sans-Serif" font-size="10.00">+ keys</text>
<polyline fill="none" stroke="#bfbfbf" points="309.5,-676 446.5,-676 "/>
<text text-anchor="middle" x="378" y="-664" font-family="Helvetica,sans-Serif" font-size="10.00"> </text>
</a>
</g>
</g>
<!-- Node6&#45;&gt;Node2 -->
<g id="edge5" class="edge">
<title>Node6&#45;&gt;Node2</title>
<path fill="none" stroke="#404040" d="M366.6,-656.82C359.8,-633.77 350.71,-602.93 341.4,-571.35"/>
<polygon fill="none" stroke="#404040" points="341.36,-571.21 335.83,-566.59 337.97,-559.7 343.5,-564.32 341.36,-571.21"/>
<text text-anchor="middle" x="367" y="-581" font-family="Helvetica,sans-Serif" font-size="10.00"> #blocks_</text>
</g>
<!-- Node7 -->
<g id="node7" class="node">
<title>Node7</title>
<g id="a_node7"><a xlink:title=" ">
<polygon fill="white" stroke="#bfbfbf" points="318.5,-1074.5 318.5,-1131.5 445.5,-1131.5 445.5,-1074.5 318.5,-1074.5"/>
<text text-anchor="middle" x="382" y="-1119.5" font-family="Helvetica,sans-Serif" font-size="10.00">std::unique_ptr&lt; index_t &gt;</text>
<polyline fill="none" stroke="#bfbfbf" points="318.5,-1112.5 445.5,-1112.5 "/>
<text text-anchor="start" x="326.5" y="-1100.5" font-family="Helvetica,sans-Serif" font-size="10.00">+ ptr</text>
<polyline fill="none" stroke="#bfbfbf" points="318.5,-1093.5 445.5,-1093.5 "/>
<text text-anchor="start" x="326.5" y="-1081.5" font-family="Helvetica,sans-Serif" font-size="10.00">+ operator&#45;&gt;()</text>
</a>
</g>
</g>
<!-- Node7&#45;&gt;Node6 -->
<g id="edge6" class="edge">
<title>Node7&#45;&gt;Node6</title>
<path fill="none" stroke="#404040" d="M374.3,-1074.46C372.93,-1068.42 371.71,-1062.03 371,-1056 358.15,-947.02 366.32,-818.14 372.65,-748.44"/>
<polygon fill="none" stroke="#404040" points="372.68,-748.08 369.26,-741.73 373.8,-736.13 377.23,-742.48 372.68,-748.08"/>
<text text-anchor="middle" x="395.5" y="-947.5" font-family="Helvetica,sans-Serif" font-size="10.00"> +elements</text>
</g>
<!-- Node8 -->
<g id="node8" class="node">
<title>Node8</title>
<g id="a_node8"><a xlink:title=" ">
<polygon fill="white" stroke="#bfbfbf" points="348,-1226.5 348,-1283.5 450,-1283.5 450,-1226.5 348,-1226.5"/>
<text text-anchor="middle" x="399" y="-1271.5" font-family="Helvetica,sans-Serif" font-size="10.00">std::unique_ptr&lt; T &gt;</text>
<polyline fill="none" stroke="#bfbfbf" points="348,-1264.5 450,-1264.5 "/>
<text text-anchor="middle" x="399" y="-1252.5" font-family="Helvetica,sans-Serif" font-size="10.00"> </text>
<polyline fill="none" stroke="#bfbfbf" points="348,-1245.5 450,-1245.5 "/>
<text text-anchor="start" x="356" y="-1233.5" font-family="Helvetica,sans-Serif" font-size="10.00">+ operator&#45;&gt;()</text>
</a>
</g>
</g>
<!-- Node8&#45;&gt;Node7 -->
<g id="edge7" class="edge">
<title>Node8&#45;&gt;Node7</title>
<path fill="none" stroke="orange" d="M394.75,-1216.47C391.76,-1190.11 387.83,-1155.43 385.13,-1131.59"/>
<polygon fill="orange" stroke="orange" points="391.28,-1216.95 395.88,-1226.49 398.23,-1216.16 391.28,-1216.95"/>
<text text-anchor="middle" x="419" y="-1176.5" font-family="Helvetica,sans-Serif" font-size="10.00"> &lt; index_t &gt;</text>
</g>
<!-- Node9 -->
<g id="node9" class="node">
<title>Node9</title>
<g id="a_node9"><a xlink:title=" ">
<polygon fill="white" stroke="#bfbfbf" points="465.5,-1407.5 465.5,-1464.5 494.5,-1464.5 494.5,-1407.5 465.5,-1407.5"/>
<text text-anchor="middle" x="480" y="-1452.5" font-family="Helvetica,sans-Serif" font-size="10.00">T</text>
<polyline fill="none" stroke="#bfbfbf" points="465.5,-1445.5 494.5,-1445.5 "/>
<text text-anchor="middle" x="480" y="-1433.5" font-family="Helvetica,sans-Serif" font-size="10.00"> </text>
<polyline fill="none" stroke="#bfbfbf" points="465.5,-1426.5 494.5,-1426.5 "/>
<text text-anchor="middle" x="480" y="-1414.5" font-family="Helvetica,sans-Serif" font-size="10.00"> </text>
</a>
</g>
</g>
<!-- Node9&#45;&gt;Node8 -->
<g id="edge8" class="edge">
<title>Node9&#45;&gt;Node8</title>
<path fill="none" stroke="#404040" d="M465.46,-1417.9C458.89,-1409.57 451.4,-1399.17 446,-1389 430.12,-1359.08 417.68,-1322.67 409.59,-1295.51"/>
<polygon fill="none" stroke="#404040" points="409.52,-1295.27 404.02,-1290.62 406.19,-1283.74 411.7,-1288.39 409.52,-1295.27"/>
<text text-anchor="middle" x="456" y="-1381" font-family="Helvetica,sans-Serif" font-size="10.00"> +ptr</text>
</g>
<!-- Node10 -->
<g id="node10" class="node">
<title>Node10</title>
<g id="a_node10"><a xlink:title=" ">
<polygon fill="white" stroke="#bfbfbf" points="429.5,-916 429.5,-984 530.5,-984 530.5,-916 429.5,-916"/>
<text text-anchor="start" x="437.5" y="-972" font-family="Helvetica,sans-Serif" font-size="10.00">std::unordered_map</text>
<text text-anchor="middle" x="480" y="-961" font-family="Helvetica,sans-Serif" font-size="10.00">&lt; K, T &gt;</text>
<polyline fill="none" stroke="#bfbfbf" points="429.5,-954 530.5,-954 "/>
<text text-anchor="middle" x="480" y="-942" font-family="Helvetica,sans-Serif" font-size="10.00"> </text>
<polyline fill="none" stroke="#bfbfbf" points="429.5,-935 530.5,-935 "/>
<text text-anchor="middle" x="480" y="-923" font-family="Helvetica,sans-Serif" font-size="10.00"> </text>
</a>
</g>
</g>
<!-- Node9&#45;&gt;Node10 -->
<g id="edge11" class="edge">
<title>Node9&#45;&gt;Node10</title>
<path fill="none" stroke="#404040" d="M480,-1407.24C480,-1327.19 480,-1095.33 480,-996.5"/>
<polygon fill="none" stroke="#404040" points="480,-996.29 476,-990.29 480,-984.29 484,-990.29 480,-996.29"/>
<text text-anchor="middle" x="504.5" y="-1252.5" font-family="Helvetica,sans-Serif" font-size="10.00"> +elements</text>
</g>
<!-- Node16 -->
<g id="node16" class="node">
<title>Node16</title>
<g id="a_node16"><a xlink:title=" ">
<polygon fill="white" stroke="#bfbfbf" points="577.5,-1302.5 577.5,-1359.5 680.5,-1359.5 680.5,-1302.5 577.5,-1302.5"/>
<text text-anchor="middle" x="629" y="-1347.5" font-family="Helvetica,sans-Serif" font-size="10.00">std::shared_ptr&lt; T &gt;</text>
<polyline fill="none" stroke="#bfbfbf" points="577.5,-1340.5 680.5,-1340.5 "/>
<text text-anchor="middle" x="629" y="-1328.5" font-family="Helvetica,sans-Serif" font-size="10.00"> </text>
<polyline fill="none" stroke="#bfbfbf" points="577.5,-1321.5 680.5,-1321.5 "/>
<text text-anchor="start" x="585.5" y="-1309.5" font-family="Helvetica,sans-Serif" font-size="10.00">+ operator&#45;&gt;()</text>
</a>
</g>
</g>
<!-- Node9&#45;&gt;Node16 -->
<g id="edge17" class="edge">
<title>Node9&#45;&gt;Node16</title>
<path fill="none" stroke="#404040" d="M494.56,-1424.94C513.95,-1411.53 549.24,-1387.14 578.8,-1366.7"/>
<polygon fill="none" stroke="#404040" points="579.11,-1366.49 581.77,-1359.79 588.98,-1359.67 586.32,-1366.37 579.11,-1366.49"/>
<text text-anchor="middle" x="569" y="-1381" font-family="Helvetica,sans-Serif" font-size="10.00"> +ptr</text>
</g>
<!-- Node10&#45;&gt;Node6 -->
<g id="edge9" class="edge">
<title>Node10&#45;&gt;Node6</title>
<path fill="none" stroke="orange" d="M453.09,-907.42C439,-884.2 422.35,-854.31 411,-826 399.3,-796.82 390.7,-762.22 385.21,-736.28"/>
<polygon fill="orange" stroke="orange" points="450.14,-909.29 458.36,-915.98 456.1,-905.63 450.14,-909.29"/>
<text text-anchor="start" x="411" y="-818" font-family="Helvetica,sans-Serif" font-size="10.00"> &lt; prev_block_hash_t,</text>
<text text-anchor="middle" x="471.5" y="-807" font-family="Helvetica,sans-Serif" font-size="10.00"> std::unique_ptr&lt; index_t &gt; &gt;</text>
</g>
<!-- Node11 -->
<g id="node11" class="node">
<title>Node11</title>
<g id="a_node11"><a xlink:title=" ">
<polygon fill="white" stroke="#bfbfbf" points="593.5,-1150.5 593.5,-1207.5 622.5,-1207.5 622.5,-1150.5 593.5,-1150.5"/>
<text text-anchor="middle" x="608" y="-1195.5" font-family="Helvetica,sans-Serif" font-size="10.00">K</text>
<polyline fill="none" stroke="#bfbfbf" points="593.5,-1188.5 622.5,-1188.5 "/>
<text text-anchor="middle" x="608" y="-1176.5" font-family="Helvetica,sans-Serif" font-size="10.00"> </text>
<polyline fill="none" stroke="#bfbfbf" points="593.5,-1169.5 622.5,-1169.5 "/>
<text text-anchor="middle" x="608" y="-1157.5" font-family="Helvetica,sans-Serif" font-size="10.00"> </text>
</a>
</g>
</g>
<!-- Node11&#45;&gt;Node10 -->
<g id="edge10" class="edge">
<title>Node11&#45;&gt;Node10</title>
<path fill="none" stroke="#404040" d="M593.25,-1158.71C587.32,-1150.63 580.57,-1141.03 575,-1132 547.05,-1086.7 519.24,-1032.35 501,-995.11"/>
<polygon fill="none" stroke="#404040" points="500.91,-994.92 494.69,-991.27 495.66,-984.13 501.88,-987.77 500.91,-994.92"/>
<text text-anchor="middle" x="589.5" y="-1100.5" font-family="Helvetica,sans-Serif" font-size="10.00"> +keys</text>
</g>
<!-- Node18 -->
<g id="node18" class="node">
<title>Node18</title>
<g id="a_node18"><a xlink:title=" ">
<polygon fill="white" stroke="#bfbfbf" points="698.5,-921.5 698.5,-978.5 769.5,-978.5 769.5,-921.5 698.5,-921.5"/>
<text text-anchor="middle" x="734" y="-966.5" font-family="Helvetica,sans-Serif" font-size="10.00">std::set&lt; K &gt;</text>
<polyline fill="none" stroke="#bfbfbf" points="698.5,-959.5 769.5,-959.5 "/>
<text text-anchor="middle" x="734" y="-947.5" font-family="Helvetica,sans-Serif" font-size="10.00"> </text>
<polyline fill="none" stroke="#bfbfbf" points="698.5,-940.5 769.5,-940.5 "/>
<text text-anchor="middle" x="734" y="-928.5" font-family="Helvetica,sans-Serif" font-size="10.00"> </text>
</a>
</g>
</g>
<!-- Node11&#45;&gt;Node18 -->
<g id="edge22" class="edge">
<title>Node11&#45;&gt;Node18</title>
<path fill="none" stroke="#404040" d="M622.79,-1158.74C628.73,-1150.66 635.47,-1141.06 641,-1132 670.05,-1084.46 698.59,-1026.81 716.24,-989.55"/>
<polygon fill="none" stroke="#404040" points="716.25,-989.53 715.18,-982.4 721.35,-978.67 722.42,-985.8 716.25,-989.53"/>
<text text-anchor="middle" x="685.5" y="-1100.5" font-family="Helvetica,sans-Serif" font-size="10.00"> +keys</text>
</g>
<!-- Node19 -->
<g id="node19" class="node">
<title>Node19</title>
<g id="a_node19"><a xlink:title=" ">
<polygon fill="white" stroke="#bfbfbf" points="548.5,-921.5 548.5,-978.5 667.5,-978.5 667.5,-921.5 548.5,-921.5"/>
<text text-anchor="middle" x="608" y="-966.5" font-family="Helvetica,sans-Serif" font-size="10.00">std::unordered_set&lt; K &gt;</text>
<polyline fill="none" stroke="#bfbfbf" points="548.5,-959.5 667.5,-959.5 "/>
<text text-anchor="middle" x="608" y="-947.5" font-family="Helvetica,sans-Serif" font-size="10.00"> </text>
<polyline fill="none" stroke="#bfbfbf" points="548.5,-940.5 667.5,-940.5 "/>
<text text-anchor="middle" x="608" y="-928.5" font-family="Helvetica,sans-Serif" font-size="10.00"> </text>
</a>
</g>
</g>
<!-- Node11&#45;&gt;Node19 -->
<g id="edge24" class="edge">
<title>Node11&#45;&gt;Node19</title>
<path fill="none" stroke="#404040" d="M608,-1150.17C608,-1110.23 608,-1036.48 608,-990.8"/>
<polygon fill="none" stroke="#404040" points="608,-990.71 604,-984.71 608,-978.71 612,-984.71 608,-990.71"/>
<text text-anchor="middle" x="622.5" y="-1100.5" font-family="Helvetica,sans-Serif" font-size="10.00"> +keys</text>
</g>
<!-- Node12 -->
<g id="node12" class="node">
<title>Node12</title>
<g id="a_node12"><a xlink:title=" ">
<polygon fill="white" stroke="#bfbfbf" points="465.5,-662.5 465.5,-730.5 612.5,-730.5 612.5,-662.5 465.5,-662.5"/>
<text text-anchor="start" x="473.5" y="-718.5" font-family="Helvetica,sans-Serif" font-size="10.00">std::unordered_set</text>
<text text-anchor="middle" x="539" y="-707.5" font-family="Helvetica,sans-Serif" font-size="10.00">&lt; altintegration::BlockIndex * &gt;</text>
<polyline fill="none" stroke="#bfbfbf" points="465.5,-700.5 612.5,-700.5 "/>
<text text-anchor="middle" x="539" y="-688.5" font-family="Helvetica,sans-Serif" font-size="10.00"> </text>
<polyline fill="none" stroke="#bfbfbf" points="465.5,-681.5 612.5,-681.5 "/>
<text text-anchor="middle" x="539" y="-669.5" font-family="Helvetica,sans-Serif" font-size="10.00"> </text>
</a>
</g>
</g>
<!-- Node12&#45;&gt;Node2 -->
<g id="edge12" class="edge">
<title>Node12&#45;&gt;Node2</title>
<path fill="none" stroke="#404040" d="M509.33,-662.37C477.98,-627.37 427.12,-570.57 383.26,-521.59"/>
<polygon fill="none" stroke="#404040" points="383.17,-521.48 376.18,-519.68 375.16,-512.55 382.14,-514.35 383.17,-521.48"/>
<text text-anchor="middle" x="455.5" y="-581" font-family="Helvetica,sans-Serif" font-size="10.00"> #tips_</text>
</g>
<!-- Node13 -->
<g id="node13" class="node">
<title>Node13</title>
<g id="a_node13"><a xlink:href="structaltintegration_1_1BlockIndex.html" target="_top" xlink:title="A node in a block tree.">
<polygon fill="white" stroke="black" points="813.5,-844.5 813.5,-1055.5 938.5,-1055.5 938.5,-844.5 813.5,-844.5"/>
<text text-anchor="start" x="821.5" y="-1043.5" font-family="Helvetica,sans-Serif" font-size="10.00">altintegration::BlockIndex</text>
<text text-anchor="middle" x="876" y="-1032.5" font-family="Helvetica,sans-Serif" font-size="10.00">&lt; Block &gt;</text>
<polyline fill="none" stroke="black" points="813.5,-1025.5 938.5,-1025.5 "/>
<text text-anchor="start" x="821.5" y="-1013.5" font-family="Helvetica,sans-Serif" font-size="10.00">+ finalized</text>
<text text-anchor="start" x="821.5" y="-1002.5" font-family="Helvetica,sans-Serif" font-size="10.00"># height</text>
<text text-anchor="start" x="821.5" y="-991.5" font-family="Helvetica,sans-Serif" font-size="10.00"># status</text>
<text text-anchor="start" x="821.5" y="-980.5" font-family="Helvetica,sans-Serif" font-size="10.00"># dirty</text>
<polyline fill="none" stroke="black" points="813.5,-973.5 938.5,-973.5 "/>
<text text-anchor="start" x="821.5" y="-961.5" font-family="Helvetica,sans-Serif" font-size="10.00">+ BlockIndex()</text>
<text text-anchor="start" x="821.5" y="-950.5" font-family="Helvetica,sans-Serif" font-size="10.00">+ BlockIndex()</text>
<text text-anchor="start" x="821.5" y="-939.5" font-family="Helvetica,sans-Serif" font-size="10.00">+ ~BlockIndex()</text>
<text text-anchor="start" x="821.5" y="-928.5" font-family="Helvetica,sans-Serif" font-size="10.00">+ BlockIndex()</text>
<text text-anchor="start" x="821.5" y="-917.5" font-family="Helvetica,sans-Serif" font-size="10.00">+ operator=()</text>
<text text-anchor="start" x="821.5" y="-906.5" font-family="Helvetica,sans-Serif" font-size="10.00">+ isDeleted()</text>
<text text-anchor="start" x="821.5" y="-895.5" font-family="Helvetica,sans-Serif" font-size="10.00">+ isRoot()</text>
<text text-anchor="start" x="821.5" y="-884.5" font-family="Helvetica,sans-Serif" font-size="10.00">+ restore()</text>
<text text-anchor="start" x="821.5" y="-873.5" font-family="Helvetica,sans-Serif" font-size="10.00">+ deleteTemporarily()</text>
<text text-anchor="start" x="821.5" y="-862.5" font-family="Helvetica,sans-Serif" font-size="10.00">+ mergeFrom()</text>
<text text-anchor="start" x="821.5" y="-851.5" font-family="Helvetica,sans-Serif" font-size="10.00">and 40 more...</text>
</a>
</g>
</g>
<!-- Node13&#45;&gt;Node12 -->
<g id="edge13" class="edge">
<title>Node13&#45;&gt;Node12</title>
<path fill="none" stroke="#404040" d="M813.32,-870.41C802.71,-860.45 791.16,-851.23 779,-844 751.02,-827.36 737.32,-840.14 708,-826 682.87,-813.89 628.38,-771.17 588.03,-738.28"/>
<polygon fill="none" stroke="#404040" points="587.9,-738.18 580.73,-737.48 578.62,-730.58 585.79,-731.29 587.9,-738.18"/>
<text text-anchor="middle" x="722.5" y="-812.5" font-family="Helvetica,sans-Serif" font-size="10.00"> +keys</text>
</g>
<!-- Node13&#45;&gt;Node13 -->
<g id="edge18" class="edge">
<title>Node13&#45;&gt;Node13</title>
<path fill="none" stroke="#404040" d="M938.78,-973.35C949.26,-970.08 956.5,-962.3 956.5,-950 956.5,-942.5 953.81,-936.69 949.34,-932.54"/>
<polygon fill="none" stroke="#404040" points="949.26,-932.5 942.07,-933.06 938.78,-926.65 945.97,-926.08 949.26,-932.5"/>
<text text-anchor="middle" x="973" y="-947.5" font-family="Helvetica,sans-Serif" font-size="10.00"> +pprev</text>
</g>
<!-- Node17 -->
<g id="node17" class="node">
<title>Node17</title>
<g id="a_node17"><a xlink:title=" ">
<polygon fill="white" stroke="#bfbfbf" points="847,-662.5 847,-730.5 959,-730.5 959,-662.5 847,-662.5"/>
<text text-anchor="start" x="855" y="-718.5" font-family="Helvetica,sans-Serif" font-size="10.00">std::set&lt; altintegration</text>
<text text-anchor="middle" x="903" y="-707.5" font-family="Helvetica,sans-Serif" font-size="10.00">::BlockIndex * &gt;</text>
<polyline fill="none" stroke="#bfbfbf" points="847,-700.5 959,-700.5 "/>
<text text-anchor="middle" x="903" y="-688.5" font-family="Helvetica,sans-Serif" font-size="10.00"> </text>
<polyline fill="none" stroke="#bfbfbf" points="847,-681.5 959,-681.5 "/>
<text text-anchor="middle" x="903" y="-669.5" font-family="Helvetica,sans-Serif" font-size="10.00"> </text>
</a>
</g>
</g>
<!-- Node13&#45;&gt;Node17 -->
<g id="edge20" class="edge">
<title>Node13&#45;&gt;Node17</title>
<path fill="none" stroke="#404040" d="M887.25,-844.16C891.04,-808.86 895.08,-771.3 898.11,-743.03"/>
<polygon fill="none" stroke="#404040" points="898.15,-742.67 894.81,-736.27 899.43,-730.74 902.77,-737.13 898.15,-742.67"/>
<text text-anchor="middle" x="905.5" y="-812.5" font-family="Helvetica,sans-Serif" font-size="10.00"> +keys</text>
</g>
<!-- Node14 -->
<g id="node14" class="node">
<title>Node14</title>
<g id="a_node14"><a xlink:title=" ">
<polygon fill="white" stroke="#bfbfbf" points="714,-1150.5 714,-1207.5 794,-1207.5 794,-1150.5 714,-1150.5"/>
<text text-anchor="middle" x="754" y="-1195.5" font-family="Helvetica,sans-Serif" font-size="10.00">Block::addon_t</text>
<polyline fill="none" stroke="#bfbfbf" points="714,-1188.5 794,-1188.5 "/>
<text text-anchor="middle" x="754" y="-1176.5" font-family="Helvetica,sans-Serif" font-size="10.00"> </text>
<polyline fill="none" stroke="#bfbfbf" points="714,-1169.5 794,-1169.5 "/>
<text text-anchor="middle" x="754" y="-1157.5" font-family="Helvetica,sans-Serif" font-size="10.00"> </text>
</a>
</g>
</g>
<!-- Node14&#45;&gt;Node13 -->
<g id="edge14" class="edge">
<title>Node14&#45;&gt;Node13</title>
<path fill="none" stroke="midnightblue" d="M773.72,-1141.3C786.3,-1117.91 803.28,-1086.31 819.79,-1055.58"/>
<polygon fill="none" stroke="midnightblue" points="770.61,-1139.7 768.96,-1150.17 776.78,-1143.01 770.61,-1139.7"/>
</g>
<!-- Node15 -->
<g id="node15" class="node">
<title>Node15</title>
<g id="a_node15"><a xlink:title=" ">
<polygon fill="white" stroke="#bfbfbf" points="812,-1150.5 812,-1207.5 940,-1207.5 940,-1150.5 812,-1150.5"/>
<text text-anchor="middle" x="876" y="-1195.5" font-family="Helvetica,sans-Serif" font-size="10.00">std::shared_ptr&lt; block_t &gt;</text>
<polyline fill="none" stroke="#bfbfbf" points="812,-1188.5 940,-1188.5 "/>
<text text-anchor="start" x="820" y="-1176.5" font-family="Helvetica,sans-Serif" font-size="10.00">+ ptr</text>
<polyline fill="none" stroke="#bfbfbf" points="812,-1169.5 940,-1169.5 "/>
<text text-anchor="start" x="820" y="-1157.5" font-family="Helvetica,sans-Serif" font-size="10.00">+ operator&#45;&gt;()</text>
</a>
</g>
</g>
<!-- Node15&#45;&gt;Node13 -->
<g id="edge15" class="edge">
<title>Node15&#45;&gt;Node13</title>
<path fill="none" stroke="#404040" d="M876,-1150.17C876,-1129.11 876,-1098.64 876,-1067.84"/>
<polygon fill="none" stroke="#404040" points="876,-1067.58 872,-1061.58 876,-1055.58 880,-1061.58 876,-1067.58"/>
<text text-anchor="middle" x="894.5" y="-1100.5" font-family="Helvetica,sans-Serif" font-size="10.00"> #header</text>
</g>
<!-- Node16&#45;&gt;Node15 -->
<g id="edge16" class="edge">
<title>Node16&#45;&gt;Node15</title>
<path fill="none" stroke="orange" d="M682.89,-1297.27C727.06,-1270.45 788.87,-1232.91 830.57,-1207.59"/>
<polygon fill="orange" stroke="orange" points="681.03,-1294.31 674.3,-1302.49 684.67,-1300.29 681.03,-1294.31"/>
<text text-anchor="middle" x="821.5" y="-1252.5" font-family="Helvetica,sans-Serif" font-size="10.00"> &lt; block_t &gt;</text>
</g>
<!-- Node17&#45;&gt;Node13 -->
<g id="edge19" class="edge">
<title>Node17&#45;&gt;Node13</title>
<path fill="none" stroke="#404040" d="M919.06,-730.73C929.58,-756.64 940.15,-793.56 933,-826 932.52,-828.19 931.99,-830.39 931.43,-832.59"/>
<polygon fill="none" stroke="#404040" points="931.36,-832.83 933.55,-839.7 928.06,-844.37 925.86,-837.5 931.36,-832.83"/>
<text text-anchor="middle" x="951" y="-812.5" font-family="Helvetica,sans-Serif" font-size="10.00"> +pnext</text>
</g>
<!-- Node18&#45;&gt;Node17 -->
<g id="edge21" class="edge">
<title>Node18&#45;&gt;Node17</title>
<path fill="none" stroke="orange" d="M730.61,-910.85C729.68,-879.92 732.63,-836.31 752,-804 773.85,-767.54 813.54,-740.29 846.74,-722.49"/>
<polygon fill="orange" stroke="orange" points="727.13,-911.4 731.08,-921.23 734.12,-911.08 727.13,-911.4"/>
<text text-anchor="middle" x="818.5" y="-812.5" font-family="Helvetica,sans-Serif" font-size="10.00"> &lt; altintegration::BlockIndex * &gt;</text>
</g>
<!-- Node19&#45;&gt;Node12 -->
<g id="edge23" class="edge">
<title>Node19&#45;&gt;Node12</title>
<path fill="none" stroke="orange" d="M581.69,-912.85C566.26,-889.37 548.23,-857.39 540,-826 531.71,-794.38 532.58,-756.87 534.84,-730.57"/>
<polygon fill="orange" stroke="orange" points="578.97,-915.06 587.45,-921.41 584.78,-911.16 578.97,-915.06"/>
<text text-anchor="middle" x="606.5" y="-812.5" font-family="Helvetica,sans-Serif" font-size="10.00"> &lt; altintegration::BlockIndex * &gt;</text>
</g>
</g>
</svg>
        <g id="navigator" transform="translate(0 0)" fill="#404254">
                <rect fill="#f2f5e9" fill-opacity="0.5" stroke="#606060" stroke-width=".5" x="0" y="0" width="60" height="60"/>
                <use id="zoomplus" xlink:href="#zoomPlus" x="17" y="9" onmousedown="handleZoom(evt,'in')"/>
                <use id="zoomminus" xlink:href="#zoomMin" x="42" y="9" onmousedown="handleZoom(evt,'out')"/>
                <use id="reset" xlink:href="#resetDef" x="30" y="36" onmousedown="handleReset()"/>
                <g id="arrowUp" xlink:href="#dirArrow" transform="translate(30 24)" onmousedown="handlePan(0,-1)">
                  <use xlink:href="#rim" fill="#404040">
                        <set attributeName="fill" to="#808080" begin="arrowUp.mouseover" end="arrowUp.mouseout"/>
                  </use>
                  <path fill="none" stroke="white" stroke-width="1.5" d="M0,-3.0v7 M-2.5,-0.5L0,-3.0L2.5,-0.5"/>
                </g>
                <g id="arrowRight" xlink:href="#dirArrow" transform="rotate(90) translate(36 -43)" onmousedown="handlePan(1,0)">
                  <use xlink:href="#rim" fill="#404040">
                        <set attributeName="fill" to="#808080" begin="arrowRight.mouseover" end="arrowRight.mouseout"/>
                  </use>
                  <path fill="none" stroke="white" stroke-width="1.5" d="M0,-3.0v7 M-2.5,-0.5L0,-3.0L2.5,-0.5"/>
                </g>
                <g id="arrowDown" xlink:href="#dirArrow" transform="rotate(180) translate(-30 -48)" onmousedown="handlePan(0,1)">
                  <use xlink:href="#rim" fill="#404040">
                        <set attributeName="fill" to="#808080" begin="arrowDown.mouseover" end="arrowDown.mouseout"/>
                  </use>
                  <path fill="none" stroke="white" stroke-width="1.5" d="M0,-3.0v7 M-2.5,-0.5L0,-3.0L2.5,-0.5"/>
                </g>
                <g id="arrowLeft" xlink:href="#dirArrow" transform="rotate(270) translate(-36 17)" onmousedown="handlePan(-1,0)">
                  <use xlink:href="#rim" fill="#404040">
                        <set attributeName="fill" to="#808080" begin="arrowLeft.mouseover" end="arrowLeft.mouseout"/>
                  </use>
                  <path fill="none" stroke="white" stroke-width="1.5" d="M0,-3.0v7 M-2.5,-0.5L0,-3.0L2.5,-0.5"/>
                </g>
        </g>
        <svg viewBox="0 0 15 15" width="100%" height="30px" preserveAspectRatio="xMaxYMin meet">
         <g id="arrow_out" transform="scale(0.3 0.3)">
          <a xlink:href="structaltintegration_1_1BlockTree__coll__graph_org.svg" target="_base">
           <rect id="button" ry="5" rx="5" y="6" x="6" height="38" width="38"
                fill="#f2f5e9" fill-opacity="0.5" stroke="#606060" stroke-width="1.0"/>
           <path id="arrow"
             d="M 11.500037,31.436501 C 11.940474,20.09759 22.043105,11.32322 32.158766,21.979434 L 37.068811,17.246167 C 37.068811,17.246167 37.088388,32 37.088388,32 L 22.160133,31.978069 C 22.160133,31.978069 26.997745,27.140456 26.997745,27.140456 C 18.528582,18.264221 13.291696,25.230495 11.500037,31.436501 z"
             style="fill:#404040;"/>
          </a>
         </g>
        </svg>
</svg>
