<?xml version="1.0" encoding="UTF-8" standalone="no"?>
<!DOCTYPE svg PUBLIC "-//W3C//DTD SVG 1.1//EN"
 "http://www.w3.org/Graphics/SVG/1.1/DTD/svg11.dtd">
<!-- Generated by graphviz version 3.0.0 (20220413.0242)
 -->
<!-- Title: altintegration::btc::GetHeadersMsg Pages: 1 -->
<svg width="368pt" height="929pt"
 viewBox="0.00 0.00 367.50 929.00" xmlns="http://www.w3.org/2000/svg" xmlns:xlink="http://www.w3.org/1999/xlink">
<g id="graph0" class="graph" transform="scale(1 1) rotate(0) translate(4 925)">
<title>altintegration::btc::GetHeadersMsg</title>
<polygon fill="white" stroke="transparent" points="-4,4 -4,-925 363.5,-925 363.5,4 -4,4"/>
<!-- Node1 -->
<g id="node1" class="node">
<title>Node1</title>
<g id="a_node1"><a xlink:title=" ">
<polygon fill="#bfbfbf" stroke="black" points="32,-0.5 32,-68.5 187,-68.5 187,-0.5 32,-0.5"/>
<text text-anchor="start" x="40" y="-56.5" font-family="Helvetica,sans-Serif" font-size="10.00">altintegration::btc</text>
<text text-anchor="middle" x="109.5" y="-45.5" font-family="Helvetica,sans-Serif" font-size="10.00">::GetHeadersMsg</text>
<polyline fill="none" stroke="black" points="32,-38.5 187,-38.5 "/>
<text text-anchor="start" x="40" y="-26.5" font-family="Helvetica,sans-Serif" font-size="10.00">+ ADD_SERIALIZE_METHODS</text>
<polyline fill="none" stroke="black" points="32,-19.5 187,-19.5 "/>
<text text-anchor="start" x="40" y="-7.5" font-family="Helvetica,sans-Serif" font-size="10.00">+ SerializationOp()</text>
</a>
</g>
</g>
<!-- Node2 -->
<g id="node2" class="node">
<title>Node2</title>
<g id="a_node2"><a xlink:href="structaltintegration_1_1btc_1_1BlockLocator.html" target="_top" xlink:title=" ">
<polygon fill="white" stroke="#bfbfbf" points="134,-116.5 134,-206.5 289,-206.5 289,-116.5 134,-116.5"/>
<text text-anchor="start" x="142" y="-194.5" font-family="Helvetica,sans-Serif" font-size="10.00">altintegration::btc</text>
<text text-anchor="middle" x="211.5" y="-183.5" font-family="Helvetica,sans-Serif" font-size="10.00">::BlockLocator</text>
<polyline fill="none" stroke="#bfbfbf" points="134,-176.5 289,-176.5 "/>
<text text-anchor="start" x="142" y="-164.5" font-family="Helvetica,sans-Serif" font-size="10.00">+ ADD_SERIALIZE_METHODS</text>
<polyline fill="none" stroke="#bfbfbf" points="134,-157.5 289,-157.5 "/>
<text text-anchor="start" x="142" y="-145.5" font-family="Helvetica,sans-Serif" font-size="10.00">+ BlockLocator()</text>
<text text-anchor="start" x="142" y="-134.5" font-family="Helvetica,sans-Serif" font-size="10.00">+ BlockLocator()</text>
<text text-anchor="start" x="142" y="-123.5" font-family="Helvetica,sans-Serif" font-size="10.00">+ SerializationOp()</text>
</a>
</g>
</g>
<!-- Node2&#45;&gt;Node1 -->
<g id="edge1" class="edge">
<title>Node2&#45;&gt;Node1</title>
<path fill="none" stroke="#404040" d="M175.54,-116.43C165.4,-104.01 154.39,-90.52 144.32,-78.17"/>
<polygon fill="none" stroke="#404040" points="144.07,-77.86 137.18,-75.74 136.48,-68.57 143.38,-70.69 144.07,-77.86"/>
<text text-anchor="middle" x="179.5" y="-90" font-family="Helvetica,sans-Serif" font-size="10.00"> +locator</text>
</g>
<!-- Node3 -->
<g id="node3" class="node">
<title>Node3</title>
<g id="a_node3"><a xlink:title=" ">
<polygon fill="white" stroke="black" points="149,-477.5 149,-545.5 274,-545.5 274,-477.5 149,-477.5"/>
<text text-anchor="start" x="157" y="-533.5" font-family="Helvetica,sans-Serif" font-size="10.00">std::vector&lt; altintegration</text>
<text text-anchor="middle" x="211.5" y="-522.5" font-family="Helvetica,sans-Serif" font-size="10.00">::Blob &gt;</text>
<polyline fill="none" stroke="black" points="149,-515.5 274,-515.5 "/>
<text text-anchor="middle" x="211.5" y="-503.5" font-family="Helvetica,sans-Serif" font-size="10.00"> </text>
<polyline fill="none" stroke="black" points="149,-496.5 274,-496.5 "/>
<text text-anchor="middle" x="211.5" y="-484.5" font-family="Helvetica,sans-Serif" font-size="10.00"> </text>
</a>
</g>
</g>
<!-- Node3&#45;&gt;Node2 -->
<g id="edge2" class="edge">
<title>Node3&#45;&gt;Node2</title>
<path fill="none" stroke="#404040" d="M211.5,-477.45C211.5,-417.95 211.5,-292.19 211.5,-218.86"/>
<polygon fill="none" stroke="#404040" points="211.5,-218.68 207.5,-212.68 211.5,-206.68 215.5,-212.68 211.5,-218.68"/>
<text text-anchor="middle" x="230" y="-339.5" font-family="Helvetica,sans-Serif" font-size="10.00"> +vHave</text>
</g>
<!-- Node4 -->
<g id="node4" class="node">
<title>Node4</title>
<g id="a_node4"><a xlink:href="structaltintegration_1_1Blob.html" target="_top" xlink:title="Contiguous byte array of fixed size.">
<polygon fill="white" stroke="black" points="51.5,-593.5 51.5,-815.5 171.5,-815.5 171.5,-593.5 51.5,-593.5"/>
<text text-anchor="middle" x="111.5" y="-803.5" font-family="Helvetica,sans-Serif" font-size="10.00">altintegration::Blob&lt; N &gt;</text>
<polyline fill="none" stroke="black" points="51.5,-796.5 171.5,-796.5 "/>
<text text-anchor="start" x="59.5" y="-784.5" font-family="Helvetica,sans-Serif" font-size="10.00">+ data_</text>
<text text-anchor="start" x="59.5" y="-773.5" font-family="Helvetica,sans-Serif" font-size="10.00">+ this</text>
<polyline fill="none" stroke="black" points="51.5,-766.5 171.5,-766.5 "/>
<text text-anchor="start" x="59.5" y="-754.5" font-family="Helvetica,sans-Serif" font-size="10.00">+ Blob()</text>
<text text-anchor="start" x="59.5" y="-743.5" font-family="Helvetica,sans-Serif" font-size="10.00">+ Blob()</text>
<text text-anchor="start" x="59.5" y="-732.5" font-family="Helvetica,sans-Serif" font-size="10.00">+ Blob()</text>
<text text-anchor="start" x="59.5" y="-721.5" font-family="Helvetica,sans-Serif" font-size="10.00">+ Blob()</text>
<text text-anchor="start" x="59.5" y="-710.5" font-family="Helvetica,sans-Serif" font-size="10.00">+ Blob()</text>
<text text-anchor="start" x="59.5" y="-699.5" font-family="Helvetica,sans-Serif" font-size="10.00">+ operator std::vector</text>
<text text-anchor="start" x="59.5" y="-688.5" font-family="Helvetica,sans-Serif" font-size="10.00">&lt; uint8_t &gt;()</text>
<text text-anchor="start" x="59.5" y="-677.5" font-family="Helvetica,sans-Serif" font-size="10.00">+ fill()</text>
<text text-anchor="start" x="59.5" y="-666.5" font-family="Helvetica,sans-Serif" font-size="10.00">+ begin()</text>
<text text-anchor="start" x="59.5" y="-655.5" font-family="Helvetica,sans-Serif" font-size="10.00">+ begin()</text>
<text text-anchor="start" x="59.5" y="-644.5" font-family="Helvetica,sans-Serif" font-size="10.00">+ end()</text>
<text text-anchor="start" x="59.5" y="-633.5" font-family="Helvetica,sans-Serif" font-size="10.00">and 20 more...</text>
<text text-anchor="start" x="59.5" y="-622.5" font-family="Helvetica,sans-Serif" font-size="10.00">+ size()</text>
<text text-anchor="start" x="59.5" y="-611.5" font-family="Helvetica,sans-Serif" font-size="10.00">+ fromHex()</text>
<text text-anchor="start" x="59.5" y="-600.5" font-family="Helvetica,sans-Serif" font-size="10.00">+ assertFromHex()</text>
</a>
</g>
</g>
<!-- Node4&#45;&gt;Node3 -->
<g id="edge3" class="edge">
<title>Node4&#45;&gt;Node3</title>
<path fill="none" stroke="#404040" d="M171.59,-598.02C175.7,-590.27 179.71,-582.54 183.5,-575 186.47,-569.09 189.47,-562.8 192.35,-556.57"/>
<polygon fill="none" stroke="#404040" points="192.41,-556.45 191.25,-549.33 197.37,-545.52 198.53,-552.64 192.41,-556.45"/>
<text text-anchor="middle" x="213" y="-567" font-family="Helvetica,sans-Serif" font-size="10.00"> +elements</text>
</g>
<!-- Node7 -->
<g id="node7" class="node">
<title>Node7</title>
<g id="a_node7"><a xlink:href="structaltintegration_1_1Blob.html" target="_top" xlink:title=" ">
<polygon fill="white" stroke="black" points="0,-225.5 0,-458.5 131,-458.5 131,-225.5 0,-225.5"/>
<text text-anchor="start" x="8" y="-446.5" font-family="Helvetica,sans-Serif" font-size="10.00">altintegration::Blob</text>
<text text-anchor="middle" x="65.5" y="-435.5" font-family="Helvetica,sans-Serif" font-size="10.00">&lt; SHA256_HASH_SIZE &gt;</text>
<polyline fill="none" stroke="black" points="0,-428.5 131,-428.5 "/>
<text text-anchor="start" x="8" y="-416.5" font-family="Helvetica,sans-Serif" font-size="10.00">+ data_</text>
<text text-anchor="start" x="8" y="-405.5" font-family="Helvetica,sans-Serif" font-size="10.00">+ this</text>
<polyline fill="none" stroke="black" points="0,-398.5 131,-398.5 "/>
<text text-anchor="start" x="8" y="-386.5" font-family="Helvetica,sans-Serif" font-size="10.00">+ Blob()</text>
<text text-anchor="start" x="8" y="-375.5" font-family="Helvetica,sans-Serif" font-size="10.00">+ Blob()</text>
<text text-anchor="start" x="8" y="-364.5" font-family="Helvetica,sans-Serif" font-size="10.00">+ Blob()</text>
<text text-anchor="start" x="8" y="-353.5" font-family="Helvetica,sans-Serif" font-size="10.00">+ Blob()</text>
<text text-anchor="start" x="8" y="-342.5" font-family="Helvetica,sans-Serif" font-size="10.00">+ Blob()</text>
<text text-anchor="start" x="8" y="-331.5" font-family="Helvetica,sans-Serif" font-size="10.00">+ operator std::vector</text>
<text text-anchor="start" x="8" y="-320.5" font-family="Helvetica,sans-Serif" font-size="10.00">&lt; uint8_t &gt;()</text>
<text text-anchor="start" x="8" y="-309.5" font-family="Helvetica,sans-Serif" font-size="10.00">+ fill()</text>
<text text-anchor="start" x="8" y="-298.5" font-family="Helvetica,sans-Serif" font-size="10.00">+ begin()</text>
<text text-anchor="start" x="8" y="-287.5" font-family="Helvetica,sans-Serif" font-size="10.00">+ begin()</text>
<text text-anchor="start" x="8" y="-276.5" font-family="Helvetica,sans-Serif" font-size="10.00">+ end()</text>
<text text-anchor="start" x="8" y="-265.5" font-family="Helvetica,sans-Serif" font-size="10.00">and 20 more...</text>
<text text-anchor="start" x="8" y="-254.5" font-family="Helvetica,sans-Serif" font-size="10.00">+ size()</text>
<text text-anchor="start" x="8" y="-243.5" font-family="Helvetica,sans-Serif" font-size="10.00">+ fromHex()</text>
<text text-anchor="start" x="8" y="-232.5" font-family="Helvetica,sans-Serif" font-size="10.00">+ assertFromHex()</text>
</a>
</g>
</g>
<!-- Node4&#45;&gt;Node7 -->
<g id="edge7" class="edge">
<title>Node4&#45;&gt;Node7</title>
<path fill="none" stroke="orange" d="M64.26,-583.63C63.62,-580.74 63.03,-577.86 62.5,-575 55.59,-537.47 54.2,-495.93 55.2,-458.51"/>
<polygon fill="orange" stroke="orange" points="60.89,-584.59 66.64,-593.49 67.69,-582.95 60.89,-584.59"/>
<text text-anchor="middle" x="121" y="-567" font-family="Helvetica,sans-Serif" font-size="10.00"> &lt; SHA256_HASH_SIZE &gt;</text>
</g>
<!-- Node5 -->
<g id="node5" class="node">
<title>Node5</title>
<g id="a_node5"><a xlink:title=" ">
<polygon fill="white" stroke="black" points="235.5,-676 235.5,-733 319.5,-733 319.5,-676 235.5,-676"/>
<text text-anchor="middle" x="277.5" y="-721" font-family="Helvetica,sans-Serif" font-size="10.00">std::vector&lt; T &gt;</text>
<polyline fill="none" stroke="black" points="235.5,-714 319.5,-714 "/>
<text text-anchor="middle" x="277.5" y="-702" font-family="Helvetica,sans-Serif" font-size="10.00"> </text>
<polyline fill="none" stroke="black" points="235.5,-695 319.5,-695 "/>
<text text-anchor="middle" x="277.5" y="-683" font-family="Helvetica,sans-Serif" font-size="10.00"> </text>
</a>
</g>
</g>
<!-- Node5&#45;&gt;Node3 -->
<g id="edge4" class="edge">
<title>Node5&#45;&gt;Node3</title>
<path fill="none" stroke="orange" d="M277.06,-665.61C275.44,-636.6 270.35,-596.23 255.5,-564 252.55,-557.59 248.56,-551.36 244.19,-545.57"/>
<polygon fill="orange" stroke="orange" points="273.57,-665.91 277.51,-675.75 280.56,-665.6 273.57,-665.91"/>
<text text-anchor="middle" x="310" y="-567" font-family="Helvetica,sans-Serif" font-size="10.00"> &lt; altintegration::Blob &gt;</text>
</g>
<!-- Node6 -->
<g id="node6" class="node">
<title>Node6</title>
<g id="a_node6"><a xlink:title=" ">
<polygon fill="white" stroke="#bfbfbf" points="263,-863.5 263,-920.5 292,-920.5 292,-863.5 263,-863.5"/>
<text text-anchor="middle" x="277.5" y="-908.5" font-family="Helvetica,sans-Serif" font-size="10.00">T</text>
<polyline fill="none" stroke="#bfbfbf" points="263,-901.5 292,-901.5 "/>
<text text-anchor="middle" x="277.5" y="-889.5" font-family="Helvetica,sans-Serif" font-size="10.00"> </text>
<polyline fill="none" stroke="#bfbfbf" points="263,-882.5 292,-882.5 "/>
<text text-anchor="middle" x="277.5" y="-870.5" font-family="Helvetica,sans-Serif" font-size="10.00"> </text>
</a>
</g>
</g>
<!-- Node6&#45;&gt;Node5 -->
<g id="edge5" class="edge">
<title>Node6&#45;&gt;Node5</title>
<path fill="none" stroke="#404040" d="M277.5,-863.23C277.5,-831.99 277.5,-781 277.5,-745.48"/>
<polygon fill="none" stroke="#404040" points="277.5,-745.16 273.5,-739.16 277.5,-733.16 281.5,-739.16 277.5,-745.16"/>
<text text-anchor="middle" x="302" y="-837" font-family="Helvetica,sans-Serif" font-size="10.00"> +elements</text>
</g>
<!-- Node7&#45;&gt;Node1 -->
<g id="edge6" class="edge">
<title>Node7&#45;&gt;Node1</title>
<path fill="none" stroke="#404040" d="M61.97,-225.46C63.05,-189.98 66.47,-151.06 74.5,-116 77.28,-103.86 81.85,-91.26 86.79,-79.74"/>
<polygon fill="none" stroke="#404040" points="86.87,-79.57 85.69,-72.46 91.8,-68.63 92.98,-75.74 86.87,-79.57"/>
<text text-anchor="middle" x="99.5" y="-159" font-family="Helvetica,sans-Serif" font-size="10.00"> +hashStop</text>
</g>
</g>
</svg>
