<?xml version="1.0" encoding="UTF-8" standalone="no"?>
<!DOCTYPE svg PUBLIC "-//W3C//DTD SVG 1.1//EN"
 "http://www.w3.org/Graphics/SVG/1.1/DTD/svg11.dtd">
<!-- Generated by graphviz version 3.0.0 (20220413.0242)
 -->
<!-- Title: altintegration::AuthenticatedContextInfoContainer Pages: 1 -->
<svg width="335pt" height="1009pt"
 viewBox="0.00 0.00 335.00 1009.00" xmlns="http://www.w3.org/2000/svg" xmlns:xlink="http://www.w3.org/1999/xlink">
<g id="graph0" class="graph" transform="scale(1 1) rotate(0) translate(4 1005)">
<title>altintegration::AuthenticatedContextInfoContainer</title>
<polygon fill="white" stroke="transparent" points="-4,4 -4,-1005 331,-1005 331,4 -4,4"/>
<!-- Node1 -->
<g id="node1" class="node">
<title>Node1</title>
<g id="a_node1"><a xlink:title="Contains ContextInfoContainer and merkle path which authenticates hash of ContextInfoContainer to a b...">
<polygon fill="#bfbfbf" stroke="black" points="67.5,-0.5 67.5,-123.5 204.5,-123.5 204.5,-0.5 67.5,-0.5"/>
<text text-anchor="start" x="75.5" y="-111.5" font-family="Helvetica,sans-Serif" font-size="10.00">altintegration::Authenticated</text>
<text text-anchor="middle" x="136" y="-100.5" font-family="Helvetica,sans-Serif" font-size="10.00">ContextInfoContainer</text>
<polyline fill="none" stroke="black" points="67.5,-93.5 204.5,-93.5 "/>
<text text-anchor="middle" x="136" y="-81.5" font-family="Helvetica,sans-Serif" font-size="10.00"> </text>
<polyline fill="none" stroke="black" points="67.5,-74.5 204.5,-74.5 "/>
<text text-anchor="start" x="75.5" y="-62.5" font-family="Helvetica,sans-Serif" font-size="10.00">+ operator==()</text>
<text text-anchor="start" x="75.5" y="-51.5" font-family="Helvetica,sans-Serif" font-size="10.00">+ toVbkEncoding()</text>
<text text-anchor="start" x="75.5" y="-40.5" font-family="Helvetica,sans-Serif" font-size="10.00">+ estimateSize()</text>
<text text-anchor="start" x="75.5" y="-29.5" font-family="Helvetica,sans-Serif" font-size="10.00">+ getTopLevelMerkleRoot()</text>
<text text-anchor="start" x="75.5" y="-18.5" font-family="Helvetica,sans-Serif" font-size="10.00">+ createFromPrevious()</text>
<text text-anchor="start" x="75.5" y="-7.5" font-family="Helvetica,sans-Serif" font-size="10.00">+ createFromPrevious()</text>
</a>
</g>
</g>
<!-- Node2 -->
<g id="node2" class="node">
<title>Node2</title>
<g id="a_node2"><a xlink:href="structaltintegration_1_1ContextInfoContainer.html" target="_top" xlink:title="Container of context info for endorsed block.">
<polygon fill="white" stroke="black" points="0,-221 0,-355 126,-355 126,-221 0,-221"/>
<text text-anchor="start" x="8" y="-343" font-family="Helvetica,sans-Serif" font-size="10.00">altintegration::ContextInfo</text>
<text text-anchor="middle" x="63" y="-332" font-family="Helvetica,sans-Serif" font-size="10.00">Container</text>
<polyline fill="none" stroke="black" points="0,-325 126,-325 "/>
<text text-anchor="start" x="8" y="-313" font-family="Helvetica,sans-Serif" font-size="10.00">+ height</text>
<polyline fill="none" stroke="black" points="0,-306 126,-306 "/>
<text text-anchor="start" x="8" y="-294" font-family="Helvetica,sans-Serif" font-size="10.00">+ getHash()</text>
<text text-anchor="start" x="8" y="-283" font-family="Helvetica,sans-Serif" font-size="10.00">+ toVbkEncoding()</text>
<text text-anchor="start" x="8" y="-272" font-family="Helvetica,sans-Serif" font-size="10.00">+ estimateSize()</text>
<text text-anchor="start" x="8" y="-261" font-family="Helvetica,sans-Serif" font-size="10.00">+ operator==()</text>
<text text-anchor="start" x="8" y="-250" font-family="Helvetica,sans-Serif" font-size="10.00">+ operator!=()</text>
<text text-anchor="start" x="8" y="-239" font-family="Helvetica,sans-Serif" font-size="10.00">+ toPrettyString()</text>
<text text-anchor="start" x="8" y="-228" font-family="Helvetica,sans-Serif" font-size="10.00">+ createFromPrevious()</text>
</a>
</g>
</g>
<!-- Node2&#45;&gt;Node1 -->
<g id="edge1" class="edge">
<title>Node2&#45;&gt;Node1</title>
<path fill="none" stroke="#404040" d="M84.61,-220.7C93.36,-193.84 103.5,-162.74 112.44,-135.29"/>
<polygon fill="none" stroke="#404040" points="112.48,-135.18 110.53,-128.24 116.19,-123.77 118.14,-130.72 112.48,-135.18"/>
<text text-anchor="middle" x="120" y="-145" font-family="Helvetica,sans-Serif" font-size="10.00"> +ctx</text>
</g>
<!-- Node3 -->
<g id="node3" class="node">
<title>Node3</title>
<g id="a_node3"><a xlink:href="structaltintegration_1_1KeystoneContainer.html" target="_top" xlink:title="A container for two previous keystones of endorsed block.">
<polygon fill="white" stroke="black" points="3.5,-513 3.5,-614 122.5,-614 122.5,-513 3.5,-513"/>
<text text-anchor="start" x="11.5" y="-602" font-family="Helvetica,sans-Serif" font-size="10.00">altintegration::Keystone</text>
<text text-anchor="middle" x="63" y="-591" font-family="Helvetica,sans-Serif" font-size="10.00">Container</text>
<polyline fill="none" stroke="black" points="3.5,-584 122.5,-584 "/>
<text text-anchor="middle" x="63" y="-572" font-family="Helvetica,sans-Serif" font-size="10.00"> </text>
<polyline fill="none" stroke="black" points="3.5,-565 122.5,-565 "/>
<text text-anchor="start" x="11.5" y="-553" font-family="Helvetica,sans-Serif" font-size="10.00">+ toVbkEncoding()</text>
<text text-anchor="start" x="11.5" y="-542" font-family="Helvetica,sans-Serif" font-size="10.00">+ estimateSize()</text>
<text text-anchor="start" x="11.5" y="-531" font-family="Helvetica,sans-Serif" font-size="10.00">+ operator==()</text>
<text text-anchor="start" x="11.5" y="-520" font-family="Helvetica,sans-Serif" font-size="10.00">+ createFromPrevious()</text>
</a>
</g>
</g>
<!-- Node3&#45;&gt;Node2 -->
<g id="edge2" class="edge">
<title>Node3&#45;&gt;Node2</title>
<path fill="none" stroke="#404040" d="M63,-512.97C63,-472.42 63,-414.29 63,-367.42"/>
<polygon fill="none" stroke="#404040" points="63,-367.15 59,-361.15 63,-355.15 67,-361.15 63,-367.15"/>
<text text-anchor="middle" x="89.5" y="-426" font-family="Helvetica,sans-Serif" font-size="10.00"> +keystones</text>
</g>
<!-- Node4 -->
<g id="node4" class="node">
<title>Node4</title>
<g id="a_node4"><a xlink:title=" ">
<polygon fill="white" stroke="black" points="9.5,-733.5 9.5,-790.5 116.5,-790.5 116.5,-733.5 9.5,-733.5"/>
<text text-anchor="middle" x="63" y="-778.5" font-family="Helvetica,sans-Serif" font-size="10.00">std::vector&lt; uint8_t &gt;</text>
<polyline fill="none" stroke="black" points="9.5,-771.5 116.5,-771.5 "/>
<text text-anchor="start" x="17.5" y="-759.5" font-family="Helvetica,sans-Serif" font-size="10.00">+ elements</text>
<polyline fill="none" stroke="black" points="9.5,-752.5 116.5,-752.5 "/>
<text text-anchor="middle" x="63" y="-740.5" font-family="Helvetica,sans-Serif" font-size="10.00"> </text>
</a>
</g>
</g>
<!-- Node4&#45;&gt;Node3 -->
<g id="edge3" class="edge">
<title>Node4&#45;&gt;Node3</title>
<path fill="none" stroke="#404040" d="M63,-733.26C63,-705.63 63,-662.27 63,-626.42"/>
<polygon fill="none" stroke="#404040" points="63,-626.09 59,-620.09 63,-614.09 67,-620.09 63,-626.09"/>
<text text-anchor="middle" x="121.5" y="-707" font-family="Helvetica,sans-Serif" font-size="10.00"> +firstPreviousKeystone</text>
<text text-anchor="middle" x="121.5" y="-696" font-family="Helvetica,sans-Serif" font-size="10.00">+secondPreviousKeystone</text>
</g>
<!-- Node5 -->
<g id="node5" class="node">
<title>Node5</title>
<g id="a_node5"><a xlink:title=" ">
<polygon fill="white" stroke="black" points="21,-838.5 21,-895.5 105,-895.5 105,-838.5 21,-838.5"/>
<text text-anchor="middle" x="63" y="-883.5" font-family="Helvetica,sans-Serif" font-size="10.00">std::vector&lt; T &gt;</text>
<polyline fill="none" stroke="black" points="21,-876.5 105,-876.5 "/>
<text text-anchor="middle" x="63" y="-864.5" font-family="Helvetica,sans-Serif" font-size="10.00"> </text>
<polyline fill="none" stroke="black" points="21,-857.5 105,-857.5 "/>
<text text-anchor="middle" x="63" y="-845.5" font-family="Helvetica,sans-Serif" font-size="10.00"> </text>
</a>
</g>
</g>
<!-- Node5&#45;&gt;Node4 -->
<g id="edge4" class="edge">
<title>Node5&#45;&gt;Node4</title>
<path fill="none" stroke="orange" d="M63,-828.29C63,-815.84 63,-802.23 63,-790.68"/>
<polygon fill="orange" stroke="orange" points="59.5,-828.4 63,-838.4 66.5,-828.4 59.5,-828.4"/>
<text text-anchor="middle" x="87.5" y="-812" font-family="Helvetica,sans-Serif" font-size="10.00"> &lt; uint8_t &gt;</text>
</g>
<!-- Node6 -->
<g id="node6" class="node">
<title>Node6</title>
<g id="a_node6"><a xlink:title=" ">
<polygon fill="white" stroke="#bfbfbf" points="48.5,-943.5 48.5,-1000.5 77.5,-1000.5 77.5,-943.5 48.5,-943.5"/>
<text text-anchor="middle" x="63" y="-988.5" font-family="Helvetica,sans-Serif" font-size="10.00">T</text>
<polyline fill="none" stroke="#bfbfbf" points="48.5,-981.5 77.5,-981.5 "/>
<text text-anchor="middle" x="63" y="-969.5" font-family="Helvetica,sans-Serif" font-size="10.00"> </text>
<polyline fill="none" stroke="#bfbfbf" points="48.5,-962.5 77.5,-962.5 "/>
<text text-anchor="middle" x="63" y="-950.5" font-family="Helvetica,sans-Serif" font-size="10.00"> </text>
</a>
</g>
</g>
<!-- Node6&#45;&gt;Node5 -->
<g id="edge5" class="edge">
<title>Node6&#45;&gt;Node5</title>
<path fill="none" stroke="#404040" d="M63,-943.4C63,-932.55 63,-919.87 63,-908.05"/>
<polygon fill="none" stroke="#404040" points="63,-907.68 59,-901.68 63,-895.68 67,-901.68 63,-907.68"/>
<text text-anchor="middle" x="87.5" y="-917" font-family="Helvetica,sans-Serif" font-size="10.00"> +elements</text>
</g>
<!-- Node7 -->
<g id="node7" class="node">
<title>Node7</title>
<g id="a_node7"><a xlink:href="structaltintegration_1_1Blob.html" target="_top" xlink:title=" ">
<polygon fill="white" stroke="black" points="144.5,-171.5 144.5,-404.5 275.5,-404.5 275.5,-171.5 144.5,-171.5"/>
<text text-anchor="start" x="152.5" y="-392.5" font-family="Helvetica,sans-Serif" font-size="10.00">altintegration::Blob</text>
<text text-anchor="middle" x="210" y="-381.5" font-family="Helvetica,sans-Serif" font-size="10.00">&lt; SHA256_HASH_SIZE &gt;</text>
<polyline fill="none" stroke="black" points="144.5,-374.5 275.5,-374.5 "/>
<text text-anchor="start" x="152.5" y="-362.5" font-family="Helvetica,sans-Serif" font-size="10.00">+ data_</text>
<text text-anchor="start" x="152.5" y="-351.5" font-family="Helvetica,sans-Serif" font-size="10.00">+ this</text>
<polyline fill="none" stroke="black" points="144.5,-344.5 275.5,-344.5 "/>
<text text-anchor="start" x="152.5" y="-332.5" font-family="Helvetica,sans-Serif" font-size="10.00">+ Blob()</text>
<text text-anchor="start" x="152.5" y="-321.5" font-family="Helvetica,sans-Serif" font-size="10.00">+ Blob()</text>
<text text-anchor="start" x="152.5" y="-310.5" font-family="Helvetica,sans-Serif" font-size="10.00">+ Blob()</text>
<text text-anchor="start" x="152.5" y="-299.5" font-family="Helvetica,sans-Serif" font-size="10.00">+ Blob()</text>
<text text-anchor="start" x="152.5" y="-288.5" font-family="Helvetica,sans-Serif" font-size="10.00">+ Blob()</text>
<text text-anchor="start" x="152.5" y="-277.5" font-family="Helvetica,sans-Serif" font-size="10.00">+ operator std::vector</text>
<text text-anchor="start" x="152.5" y="-266.5" font-family="Helvetica,sans-Serif" font-size="10.00">&lt; uint8_t &gt;()</text>
<text text-anchor="start" x="152.5" y="-255.5" font-family="Helvetica,sans-Serif" font-size="10.00">+ fill()</text>
<text text-anchor="start" x="152.5" y="-244.5" font-family="Helvetica,sans-Serif" font-size="10.00">+ begin()</text>
<text text-anchor="start" x="152.5" y="-233.5" font-family="Helvetica,sans-Serif" font-size="10.00">+ begin()</text>
<text text-anchor="start" x="152.5" y="-222.5" font-family="Helvetica,sans-Serif" font-size="10.00">+ end()</text>
<text text-anchor="start" x="152.5" y="-211.5" font-family="Helvetica,sans-Serif" font-size="10.00">and 20 more...</text>
<text text-anchor="start" x="152.5" y="-200.5" font-family="Helvetica,sans-Serif" font-size="10.00">+ size()</text>
<text text-anchor="start" x="152.5" y="-189.5" font-family="Helvetica,sans-Serif" font-size="10.00">+ fromHex()</text>
<text text-anchor="start" x="152.5" y="-178.5" font-family="Helvetica,sans-Serif" font-size="10.00">+ assertFromHex()</text>
</a>
</g>
</g>
<!-- Node7&#45;&gt;Node1 -->
<g id="edge6" class="edge">
<title>Node7&#45;&gt;Node1</title>
<path fill="none" stroke="#404040" d="M171.81,-171.39C167.77,-159.16 163.75,-146.99 159.94,-135.47"/>
<polygon fill="none" stroke="#404040" points="159.82,-135.1 154.14,-130.66 156.06,-123.71 161.74,-128.15 159.82,-135.1"/>
<text text-anchor="middle" x="190.5" y="-145" font-family="Helvetica,sans-Serif" font-size="10.00"> +stateRoot</text>
</g>
<!-- Node8 -->
<g id="node8" class="node">
<title>Node8</title>
<g id="a_node8"><a xlink:href="structaltintegration_1_1Blob.html" target="_top" xlink:title="Contiguous byte array of fixed size.">
<polygon fill="white" stroke="black" points="150,-452.5 150,-674.5 270,-674.5 270,-452.5 150,-452.5"/>
<text text-anchor="middle" x="210" y="-662.5" font-family="Helvetica,sans-Serif" font-size="10.00">altintegration::Blob&lt; N &gt;</text>
<polyline fill="none" stroke="black" points="150,-655.5 270,-655.5 "/>
<text text-anchor="start" x="158" y="-643.5" font-family="Helvetica,sans-Serif" font-size="10.00">+ data_</text>
<text text-anchor="start" x="158" y="-632.5" font-family="Helvetica,sans-Serif" font-size="10.00">+ this</text>
<polyline fill="none" stroke="black" points="150,-625.5 270,-625.5 "/>
<text text-anchor="start" x="158" y="-613.5" font-family="Helvetica,sans-Serif" font-size="10.00">+ Blob()</text>
<text text-anchor="start" x="158" y="-602.5" font-family="Helvetica,sans-Serif" font-size="10.00">+ Blob()</text>
<text text-anchor="start" x="158" y="-591.5" font-family="Helvetica,sans-Serif" font-size="10.00">+ Blob()</text>
<text text-anchor="start" x="158" y="-580.5" font-family="Helvetica,sans-Serif" font-size="10.00">+ Blob()</text>
<text text-anchor="start" x="158" y="-569.5" font-family="Helvetica,sans-Serif" font-size="10.00">+ Blob()</text>
<text text-anchor="start" x="158" y="-558.5" font-family="Helvetica,sans-Serif" font-size="10.00">+ operator std::vector</text>
<text text-anchor="start" x="158" y="-547.5" font-family="Helvetica,sans-Serif" font-size="10.00">&lt; uint8_t &gt;()</text>
<text text-anchor="start" x="158" y="-536.5" font-family="Helvetica,sans-Serif" font-size="10.00">+ fill()</text>
<text text-anchor="start" x="158" y="-525.5" font-family="Helvetica,sans-Serif" font-size="10.00">+ begin()</text>
<text text-anchor="start" x="158" y="-514.5" font-family="Helvetica,sans-Serif" font-size="10.00">+ begin()</text>
<text text-anchor="start" x="158" y="-503.5" font-family="Helvetica,sans-Serif" font-size="10.00">+ end()</text>
<text text-anchor="start" x="158" y="-492.5" font-family="Helvetica,sans-Serif" font-size="10.00">and 20 more...</text>
<text text-anchor="start" x="158" y="-481.5" font-family="Helvetica,sans-Serif" font-size="10.00">+ size()</text>
<text text-anchor="start" x="158" y="-470.5" font-family="Helvetica,sans-Serif" font-size="10.00">+ fromHex()</text>
<text text-anchor="start" x="158" y="-459.5" font-family="Helvetica,sans-Serif" font-size="10.00">+ assertFromHex()</text>
</a>
</g>
</g>
<!-- Node8&#45;&gt;Node7 -->
<g id="edge7" class="edge">
<title>Node8&#45;&gt;Node7</title>
<path fill="none" stroke="orange" d="M210,-442.43C210,-429.88 210,-417.14 210,-404.64"/>
<polygon fill="orange" stroke="orange" points="206.5,-442.44 210,-452.44 213.5,-442.44 206.5,-442.44"/>
<text text-anchor="middle" x="268.5" y="-426" font-family="Helvetica,sans-Serif" font-size="10.00"> &lt; SHA256_HASH_SIZE &gt;</text>
</g>
</g>
</svg>
