<?xml version="1.0" encoding="UTF-8" standalone="no"?>
<!DOCTYPE svg PUBLIC "-//W3C//DTD SVG 1.1//EN"
 "http://www.w3.org/Graphics/SVG/1.1/DTD/svg11.dtd">
<!-- Generated by graphviz version 2.44.0 ()
 -->
<!-- Title: altintegration::btc::GetHeadersMsg Pages: 1 -->
<svg width="368pt" height="907pt"
 viewBox="0.00 0.00 367.50 907.00" xmlns="http://www.w3.org/2000/svg" xmlns:xlink="http://www.w3.org/1999/xlink">
<g id="graph0" class="graph" transform="scale(1 1) rotate(0) translate(4 903)">
<title>altintegration::btc::GetHeadersMsg</title>
<polygon fill="white" stroke="transparent" points="-4,4 -4,-903 363.5,-903 363.5,4 -4,4"/>
<!-- Node1 -->
<g id="node1" class="node">
<title>Node1</title>
<g id="a_node1"><a xlink:title=" ">
<polygon fill="#bfbfbf" stroke="black" points="32,-0.5 32,-68.5 187,-68.5 187,-0.5 32,-0.5"/>
<text text-anchor="start" x="40" y="-56.5" font-family="Helvetica,sans-Serif" font-size="10.00">altintegration::btc</text>
<text text-anchor="middle" x="109.5" y="-45.5" font-family="Helvetica,sans-Serif" font-size="10.00">::GetHeadersMsg</text>
<polyline fill="none" stroke="black" points="32,-38.5 187,-38.5 "/>
<text text-anchor="start" x="40" y="-26.5" font-family="Helvetica,sans-Serif" font-size="10.00">+ ADD_SERIALIZE_METHODS</text>
<polyline fill="none" stroke="black" points="32,-19.5 187,-19.5 "/>
<text text-anchor="start" x="40" y="-7.5" font-family="Helvetica,sans-Serif" font-size="10.00">+ SerializationOp()</text>
</a>
</g>
</g>
<!-- Node2 -->
<g id="node2" class="node">
<title>Node2</title>
<g id="a_node2"><a xlink:href="structaltintegration_1_1btc_1_1BlockLocator.html" target="_top" xlink:title=" ">
<polygon fill="white" stroke="black" points="134,-116.5 134,-206.5 289,-206.5 289,-116.5 134,-116.5"/>
<text text-anchor="start" x="142" y="-194.5" font-family="Helvetica,sans-Serif" font-size="10.00">altintegration::btc</text>
<text text-anchor="middle" x="211.5" y="-183.5" font-family="Helvetica,sans-Serif" font-size="10.00">::BlockLocator</text>
<polyline fill="none" stroke="black" points="134,-176.5 289,-176.5 "/>
<text text-anchor="start" x="142" y="-164.5" font-family="Helvetica,sans-Serif" font-size="10.00">+ ADD_SERIALIZE_METHODS</text>
<polyline fill="none" stroke="black" points="134,-157.5 289,-157.5 "/>
<text text-anchor="start" x="142" y="-145.5" font-family="Helvetica,sans-Serif" font-size="10.00">+ BlockLocator()</text>
<text text-anchor="start" x="142" y="-134.5" font-family="Helvetica,sans-Serif" font-size="10.00">+ BlockLocator()</text>
<text text-anchor="start" x="142" y="-123.5" font-family="Helvetica,sans-Serif" font-size="10.00">+ SerializationOp()</text>
</a>
</g>
</g>
<!-- Node2&#45;&gt;Node1 -->
<g id="edge1" class="edge">
<title>Node2&#45;&gt;Node1</title>
<path fill="none" stroke="#404040" d="M175.54,-116.43C165.4,-104.01 154.39,-90.52 144.32,-78.17"/>
<polygon fill="none" stroke="#404040" points="144.07,-77.86 137.18,-75.74 136.48,-68.57 143.38,-70.69 144.07,-77.86"/>
<text text-anchor="middle" x="179.5" y="-90" font-family="Helvetica,sans-Serif" font-size="10.00"> +locator</text>
</g>
<!-- Node3 -->
<g id="node3" class="node">
<title>Node3</title>
<g id="a_node3"><a xlink:title=" ">
<polygon fill="white" stroke="#bfbfbf" points="149,-466.5 149,-534.5 274,-534.5 274,-466.5 149,-466.5"/>
<text text-anchor="start" x="157" y="-522.5" font-family="Helvetica,sans-Serif" font-size="10.00">std::vector&lt; altintegration</text>
<text text-anchor="middle" x="211.5" y="-511.5" font-family="Helvetica,sans-Serif" font-size="10.00">::Blob &gt;</text>
<polyline fill="none" stroke="#bfbfbf" points="149,-504.5 274,-504.5 "/>
<text text-anchor="middle" x="211.5" y="-492.5" font-family="Helvetica,sans-Serif" font-size="10.00"> </text>
<polyline fill="none" stroke="#bfbfbf" points="149,-485.5 274,-485.5 "/>
<text text-anchor="middle" x="211.5" y="-473.5" font-family="Helvetica,sans-Serif" font-size="10.00"> </text>
</a>
</g>
</g>
<!-- Node3&#45;&gt;Node2 -->
<g id="edge2" class="edge">
<title>Node3&#45;&gt;Node2</title>
<path fill="none" stroke="#404040" d="M211.5,-466.26C211.5,-408.62 211.5,-289.49 211.5,-218.76"/>
<polygon fill="none" stroke="#404040" points="211.5,-218.57 207.5,-212.57 211.5,-206.57 215.5,-212.57 211.5,-218.57"/>
<text text-anchor="middle" x="230" y="-334" font-family="Helvetica,sans-Serif" font-size="10.00"> +vHave</text>
</g>
<!-- Node4 -->
<g id="node4" class="node">
<title>Node4</title>
<g id="a_node4"><a xlink:href="structaltintegration_1_1Blob.html" target="_top" xlink:title="Contiguous byte array of fixed size.">
<polygon fill="white" stroke="black" points="51.5,-582.5 51.5,-793.5 171.5,-793.5 171.5,-582.5 51.5,-582.5"/>
<text text-anchor="middle" x="111.5" y="-781.5" font-family="Helvetica,sans-Serif" font-size="10.00">altintegration::Blob&lt; N &gt;</text>
<polyline fill="none" stroke="black" points="51.5,-774.5 171.5,-774.5 "/>
<text text-anchor="start" x="59.5" y="-762.5" font-family="Helvetica,sans-Serif" font-size="10.00">+ data_</text>
<text text-anchor="start" x="59.5" y="-751.5" font-family="Helvetica,sans-Serif" font-size="10.00">+ this</text>
<polyline fill="none" stroke="black" points="51.5,-744.5 171.5,-744.5 "/>
<text text-anchor="start" x="59.5" y="-732.5" font-family="Helvetica,sans-Serif" font-size="10.00">+ Blob()</text>
<text text-anchor="start" x="59.5" y="-721.5" font-family="Helvetica,sans-Serif" font-size="10.00">+ Blob()</text>
<text text-anchor="start" x="59.5" y="-710.5" font-family="Helvetica,sans-Serif" font-size="10.00">+ Blob()</text>
<text text-anchor="start" x="59.5" y="-699.5" font-family="Helvetica,sans-Serif" font-size="10.00">+ Blob()</text>
<text text-anchor="start" x="59.5" y="-688.5" font-family="Helvetica,sans-Serif" font-size="10.00">+ Blob()</text>
<text text-anchor="start" x="59.5" y="-677.5" font-family="Helvetica,sans-Serif" font-size="10.00">+ operator=()</text>
<text text-anchor="start" x="59.5" y="-666.5" font-family="Helvetica,sans-Serif" font-size="10.00">+ operator=()</text>
<text text-anchor="start" x="59.5" y="-655.5" font-family="Helvetica,sans-Serif" font-size="10.00">+ reverse()</text>
<text text-anchor="start" x="59.5" y="-644.5" font-family="Helvetica,sans-Serif" font-size="10.00">+ operator~()</text>
<text text-anchor="start" x="59.5" y="-633.5" font-family="Helvetica,sans-Serif" font-size="10.00">+ asVector()</text>
<text text-anchor="start" x="59.5" y="-622.5" font-family="Helvetica,sans-Serif" font-size="10.00">+ asString()</text>
<text text-anchor="start" x="59.5" y="-611.5" font-family="Helvetica,sans-Serif" font-size="10.00">+ operator[]()</text>
<text text-anchor="start" x="59.5" y="-600.5" font-family="Helvetica,sans-Serif" font-size="10.00">+ operator[]()</text>
<text text-anchor="start" x="59.5" y="-589.5" font-family="Helvetica,sans-Serif" font-size="10.00">+ compareTo()</text>
</a>
</g>
</g>
<!-- Node4&#45;&gt;Node3 -->
<g id="edge3" class="edge">
<title>Node4&#45;&gt;Node3</title>
<path fill="none" stroke="#404040" d="M171.53,-586.47C175.67,-578.92 179.71,-571.37 183.5,-564 186.53,-558.12 189.56,-551.84 192.45,-545.62"/>
<polygon fill="none" stroke="#404040" points="192.51,-545.5 191.36,-538.38 197.48,-534.58 198.64,-541.7 192.51,-545.5"/>
<text text-anchor="middle" x="213" y="-556" font-family="Helvetica,sans-Serif" font-size="10.00"> +elements</text>
</g>
<!-- Node7 -->
<g id="node7" class="node">
<title>Node7</title>
<g id="a_node7"><a xlink:href="structaltintegration_1_1Blob.html" target="_top" xlink:title=" ">
<polygon fill="white" stroke="black" points="0,-225.5 0,-447.5 131,-447.5 131,-225.5 0,-225.5"/>
<text text-anchor="start" x="8" y="-435.5" font-family="Helvetica,sans-Serif" font-size="10.00">altintegration::Blob</text>
<text text-anchor="middle" x="65.5" y="-424.5" font-family="Helvetica,sans-Serif" font-size="10.00">&lt; SHA256_HASH_SIZE &gt;</text>
<polyline fill="none" stroke="black" points="0,-417.5 131,-417.5 "/>
<text text-anchor="start" x="8" y="-405.5" font-family="Helvetica,sans-Serif" font-size="10.00">+ data_</text>
<text text-anchor="start" x="8" y="-394.5" font-family="Helvetica,sans-Serif" font-size="10.00">+ this</text>
<polyline fill="none" stroke="black" points="0,-387.5 131,-387.5 "/>
<text text-anchor="start" x="8" y="-375.5" font-family="Helvetica,sans-Serif" font-size="10.00">+ Blob()</text>
<text text-anchor="start" x="8" y="-364.5" font-family="Helvetica,sans-Serif" font-size="10.00">+ Blob()</text>
<text text-anchor="start" x="8" y="-353.5" font-family="Helvetica,sans-Serif" font-size="10.00">+ Blob()</text>
<text text-anchor="start" x="8" y="-342.5" font-family="Helvetica,sans-Serif" font-size="10.00">+ Blob()</text>
<text text-anchor="start" x="8" y="-331.5" font-family="Helvetica,sans-Serif" font-size="10.00">+ Blob()</text>
<text text-anchor="start" x="8" y="-320.5" font-family="Helvetica,sans-Serif" font-size="10.00">+ operator=()</text>
<text text-anchor="start" x="8" y="-309.5" font-family="Helvetica,sans-Serif" font-size="10.00">+ operator=()</text>
<text text-anchor="start" x="8" y="-298.5" font-family="Helvetica,sans-Serif" font-size="10.00">+ reverse()</text>
<text text-anchor="start" x="8" y="-287.5" font-family="Helvetica,sans-Serif" font-size="10.00">+ operator~()</text>
<text text-anchor="start" x="8" y="-276.5" font-family="Helvetica,sans-Serif" font-size="10.00">+ asVector()</text>
<text text-anchor="start" x="8" y="-265.5" font-family="Helvetica,sans-Serif" font-size="10.00">+ asString()</text>
<text text-anchor="start" x="8" y="-254.5" font-family="Helvetica,sans-Serif" font-size="10.00">+ operator[]()</text>
<text text-anchor="start" x="8" y="-243.5" font-family="Helvetica,sans-Serif" font-size="10.00">+ operator[]()</text>
<text text-anchor="start" x="8" y="-232.5" font-family="Helvetica,sans-Serif" font-size="10.00">+ compareTo()</text>
</a>
</g>
</g>
<!-- Node4&#45;&gt;Node7 -->
<g id="edge7" class="edge">
<title>Node4&#45;&gt;Node7</title>
<path fill="none" stroke="orange" d="M64.33,-572.62C63.66,-569.73 63.05,-566.86 62.5,-564 55.31,-526.54 54,-484.94 55.15,-447.73"/>
<polygon fill="orange" stroke="orange" points="60.98,-573.62 66.83,-582.45 67.76,-571.89 60.98,-573.62"/>
<text text-anchor="middle" x="121" y="-556" font-family="Helvetica,sans-Serif" font-size="10.00"> &lt; SHA256_HASH_SIZE &gt;</text>
</g>
<!-- Node5 -->
<g id="node5" class="node">
<title>Node5</title>
<g id="a_node5"><a xlink:title=" ">
<polygon fill="white" stroke="#bfbfbf" points="235.5,-659.5 235.5,-716.5 319.5,-716.5 319.5,-659.5 235.5,-659.5"/>
<text text-anchor="middle" x="277.5" y="-704.5" font-family="Helvetica,sans-Serif" font-size="10.00">std::vector&lt; T &gt;</text>
<polyline fill="none" stroke="#bfbfbf" points="235.5,-697.5 319.5,-697.5 "/>
<text text-anchor="middle" x="277.5" y="-685.5" font-family="Helvetica,sans-Serif" font-size="10.00"> </text>
<polyline fill="none" stroke="#bfbfbf" points="235.5,-678.5 319.5,-678.5 "/>
<text text-anchor="middle" x="277.5" y="-666.5" font-family="Helvetica,sans-Serif" font-size="10.00"> </text>
</a>
</g>
</g>
<!-- Node5&#45;&gt;Node3 -->
<g id="edge4" class="edge">
<title>Node5&#45;&gt;Node3</title>
<path fill="none" stroke="orange" d="M276.7,-649.2C274.85,-621.44 269.64,-583.43 255.5,-553 252.53,-546.6 248.53,-540.37 244.15,-534.59"/>
<polygon fill="orange" stroke="orange" points="273.21,-649.5 277.25,-659.3 280.2,-649.12 273.21,-649.5"/>
<text text-anchor="middle" x="310" y="-556" font-family="Helvetica,sans-Serif" font-size="10.00"> &lt; altintegration::Blob &gt;</text>
</g>
<!-- Node6 -->
<g id="node6" class="node">
<title>Node6</title>
<g id="a_node6"><a xlink:title=" ">
<polygon fill="white" stroke="#bfbfbf" points="263,-841.5 263,-898.5 292,-898.5 292,-841.5 263,-841.5"/>
<text text-anchor="middle" x="277.5" y="-886.5" font-family="Helvetica,sans-Serif" font-size="10.00">T</text>
<polyline fill="none" stroke="#bfbfbf" points="263,-879.5 292,-879.5 "/>
<text text-anchor="middle" x="277.5" y="-867.5" font-family="Helvetica,sans-Serif" font-size="10.00"> </text>
<polyline fill="none" stroke="#bfbfbf" points="263,-860.5 292,-860.5 "/>
<text text-anchor="middle" x="277.5" y="-848.5" font-family="Helvetica,sans-Serif" font-size="10.00"> </text>
</a>
</g>
</g>
<!-- Node6&#45;&gt;Node5 -->
<g id="edge5" class="edge">
<title>Node6&#45;&gt;Node5</title>
<path fill="none" stroke="#404040" d="M277.5,-841.27C277.5,-811.28 277.5,-763.18 277.5,-729.08"/>
<polygon fill="none" stroke="#404040" points="277.5,-728.76 273.5,-722.76 277.5,-716.76 281.5,-722.76 277.5,-728.76"/>
<text text-anchor="middle" x="302" y="-815" font-family="Helvetica,sans-Serif" font-size="10.00"> +elements</text>
</g>
<!-- Node7&#45;&gt;Node1 -->
<g id="edge6" class="edge">
<title>Node7&#45;&gt;Node1</title>
<path fill="none" stroke="#404040" d="M62.11,-225.31C63.12,-190.03 66.46,-151.04 74.5,-116 77.29,-103.86 81.86,-91.26 86.8,-79.74"/>
<polygon fill="none" stroke="#404040" points="86.88,-79.57 85.69,-72.46 91.81,-68.63 92.99,-75.74 86.88,-79.57"/>
<text text-anchor="middle" x="99.5" y="-159" font-family="Helvetica,sans-Serif" font-size="10.00"> +hashStop</text>
</g>
</g>
</svg>
