<?xml version="1.0" encoding="UTF-8" standalone="no"?>
<!DOCTYPE svg PUBLIC "-//W3C//DTD SVG 1.1//EN"
 "http://www.w3.org/Graphics/SVG/1.1/DTD/svg11.dtd">
<!-- Generated by graphviz version 2.44.0 ()
 -->
<!-- Title: altintegration::BaseBlockTree&lt; Block &gt; Pages: 1 -->
<svg width="998pt" height="1180pt"
 viewBox="0.00 0.00 997.50 1180.00" xmlns="http://www.w3.org/2000/svg" xmlns:xlink="http://www.w3.org/1999/xlink">
<g id="graph0" class="graph" transform="scale(1 1) rotate(0) translate(4 1176)">
<title>altintegration::BaseBlockTree&lt; Block &gt;</title>
<polygon fill="white" stroke="transparent" points="-4,4 -4,-1176 993.5,-1176 993.5,4 -4,4"/>
<!-- Node1 -->
<g id="node1" class="node">
<title>Node1</title>
<g id="a_node1"><a xlink:title="Base block tree that stores all blocks, maintains tree tips, maintains active chain.">
<polygon fill="#bfbfbf" stroke="black" points="223,-0.5 223,-266.5 375,-266.5 375,-0.5 223,-0.5"/>
<text text-anchor="start" x="231" y="-254.5" font-family="Helvetica,sans-Serif" font-size="10.00">altintegration::BaseBlock</text>
<text text-anchor="middle" x="299" y="-243.5" font-family="Helvetica,sans-Serif" font-size="10.00">Tree&lt; Block &gt;</text>
<polyline fill="none" stroke="black" points="223,-236.5 375,-236.5 "/>
<text text-anchor="start" x="231" y="-224.5" font-family="Helvetica,sans-Serif" font-size="10.00"># validity_sig_</text>
<polyline fill="none" stroke="black" points="223,-217.5 375,-217.5 "/>
<text text-anchor="start" x="231" y="-205.5" font-family="Helvetica,sans-Serif" font-size="10.00">+ getTips()</text>
<text text-anchor="start" x="231" y="-194.5" font-family="Helvetica,sans-Serif" font-size="10.00">+ getBlocks()</text>
<text text-anchor="start" x="231" y="-183.5" font-family="Helvetica,sans-Serif" font-size="10.00">+ getAllBlocks()</text>
<text text-anchor="start" x="231" y="-172.5" font-family="Helvetica,sans-Serif" font-size="10.00">+ getBlockProvider()</text>
<text text-anchor="start" x="231" y="-161.5" font-family="Helvetica,sans-Serif" font-size="10.00">+ ~BaseBlockTree()</text>
<text text-anchor="start" x="231" y="-150.5" font-family="Helvetica,sans-Serif" font-size="10.00">+ BaseBlockTree()</text>
<text text-anchor="start" x="231" y="-139.5" font-family="Helvetica,sans-Serif" font-size="10.00">+ BaseBlockTree()</text>
<text text-anchor="start" x="231" y="-128.5" font-family="Helvetica,sans-Serif" font-size="10.00">+ operator=()</text>
<text text-anchor="start" x="231" y="-117.5" font-family="Helvetica,sans-Serif" font-size="10.00">+ BaseBlockTree()</text>
<text text-anchor="start" x="231" y="-106.5" font-family="Helvetica,sans-Serif" font-size="10.00">+ operator=()</text>
<text text-anchor="start" x="231" y="-95.5" font-family="Helvetica,sans-Serif" font-size="10.00">and 26 more...</text>
<text text-anchor="start" x="231" y="-84.5" font-family="Helvetica,sans-Serif" font-size="10.00"># removeSubtree()</text>
<text text-anchor="start" x="231" y="-73.5" font-family="Helvetica,sans-Serif" font-size="10.00"># removeSubtree()</text>
<text text-anchor="start" x="231" y="-62.5" font-family="Helvetica,sans-Serif" font-size="10.00"># eraseBlock()</text>
<text text-anchor="start" x="231" y="-51.5" font-family="Helvetica,sans-Serif" font-size="10.00"># toPrettyString()</text>
<text text-anchor="start" x="231" y="-40.5" font-family="Helvetica,sans-Serif" font-size="10.00"># decreaseAppliedBlockCount()</text>
<text text-anchor="start" x="231" y="-29.5" font-family="Helvetica,sans-Serif" font-size="10.00"># increaseAppliedBlockCount()</text>
<text text-anchor="start" x="231" y="-18.5" font-family="Helvetica,sans-Serif" font-size="10.00"># decreaseAppliedBlockCount()</text>
<text text-anchor="start" x="231" y="-7.5" font-family="Helvetica,sans-Serif" font-size="10.00"># increaseAppliedBlockCount()</text>
</a>
</g>
</g>
<!-- Node2 -->
<g id="node2" class="node">
<title>Node2</title>
<g id="a_node2"><a xlink:href="structaltintegration_1_1BlockReader.html" target="_top" xlink:title="An abstraction over on&#45;disk storage iterator.">
<polygon fill="white" stroke="black" points="0,-320 0,-487 132,-487 132,-320 0,-320"/>
<text text-anchor="middle" x="66" y="-475" font-family="Helvetica,sans-Serif" font-size="10.00">altintegration::BlockReader</text>
<polyline fill="none" stroke="black" points="0,-468 132,-468 "/>
<text text-anchor="middle" x="66" y="-456" font-family="Helvetica,sans-Serif" font-size="10.00"> </text>
<polyline fill="none" stroke="black" points="0,-449 132,-449 "/>
<text text-anchor="start" x="8" y="-437" font-family="Helvetica,sans-Serif" font-size="10.00">+ ~BlockReader()</text>
<text text-anchor="start" x="8" y="-426" font-family="Helvetica,sans-Serif" font-size="10.00">+ getAltTip()</text>
<text text-anchor="start" x="8" y="-415" font-family="Helvetica,sans-Serif" font-size="10.00">+ getVbkTip()</text>
<text text-anchor="start" x="8" y="-404" font-family="Helvetica,sans-Serif" font-size="10.00">+ getBtcTip()</text>
<text text-anchor="start" x="8" y="-393" font-family="Helvetica,sans-Serif" font-size="10.00">+ getBlock()</text>
<text text-anchor="start" x="8" y="-382" font-family="Helvetica,sans-Serif" font-size="10.00">+ getBlock()</text>
<text text-anchor="start" x="8" y="-371" font-family="Helvetica,sans-Serif" font-size="10.00">+ getBlock()</text>
<text text-anchor="start" x="8" y="-360" font-family="Helvetica,sans-Serif" font-size="10.00">+ getAltBlockIterator()</text>
<text text-anchor="start" x="8" y="-349" font-family="Helvetica,sans-Serif" font-size="10.00">+ getVbkBlockIterator()</text>
<text text-anchor="start" x="8" y="-338" font-family="Helvetica,sans-Serif" font-size="10.00">+ getBtcBlockIterator()</text>
<text text-anchor="start" x="8" y="-327" font-family="Helvetica,sans-Serif" font-size="10.00">and 6 more...</text>
</a>
</g>
</g>
<!-- Node2&#45;&gt;Node1 -->
<g id="edge1" class="edge">
<title>Node2&#45;&gt;Node1</title>
<path fill="none" stroke="#404040" d="M132.17,-324.25C135.15,-320.78 138.1,-317.35 141,-314 164.77,-286.48 190.77,-256.77 214.7,-229.6"/>
<polygon fill="none" stroke="#404040" points="214.79,-229.5 215.76,-222.35 222.73,-220.49 221.76,-227.64 214.79,-229.5"/>
<text text-anchor="middle" x="199.5" y="-288" font-family="Helvetica,sans-Serif" font-size="10.00"> #blockProvider_</text>
</g>
<!-- Node3 -->
<g id="node3" class="node">
<title>Node3</title>
<g id="a_node3"><a xlink:href="structaltintegration_1_1Chain.html" target="_top" xlink:title=" ">
<polygon fill="white" stroke="black" points="150.5,-314.5 150.5,-492.5 291.5,-492.5 291.5,-314.5 150.5,-314.5"/>
<text text-anchor="start" x="158.5" y="-480.5" font-family="Helvetica,sans-Serif" font-size="10.00">altintegration::Chain</text>
<text text-anchor="middle" x="221" y="-469.5" font-family="Helvetica,sans-Serif" font-size="10.00">&lt; altintegration::BlockIndex &gt;</text>
<polyline fill="none" stroke="black" points="150.5,-462.5 291.5,-462.5 "/>
<text text-anchor="middle" x="221" y="-450.5" font-family="Helvetica,sans-Serif" font-size="10.00"> </text>
<polyline fill="none" stroke="black" points="150.5,-443.5 291.5,-443.5 "/>
<text text-anchor="start" x="158.5" y="-431.5" font-family="Helvetica,sans-Serif" font-size="10.00">+ Chain()</text>
<text text-anchor="start" x="158.5" y="-420.5" font-family="Helvetica,sans-Serif" font-size="10.00">+ Chain()</text>
<text text-anchor="start" x="158.5" y="-409.5" font-family="Helvetica,sans-Serif" font-size="10.00">+ Chain()</text>
<text text-anchor="start" x="158.5" y="-398.5" font-family="Helvetica,sans-Serif" font-size="10.00">+ getStartHeight()</text>
<text text-anchor="start" x="158.5" y="-387.5" font-family="Helvetica,sans-Serif" font-size="10.00">+ firstHeight()</text>
<text text-anchor="start" x="158.5" y="-376.5" font-family="Helvetica,sans-Serif" font-size="10.00">+ contains()</text>
<text text-anchor="start" x="158.5" y="-365.5" font-family="Helvetica,sans-Serif" font-size="10.00">+ operator[]()</text>
<text text-anchor="start" x="158.5" y="-354.5" font-family="Helvetica,sans-Serif" font-size="10.00">+ next()</text>
<text text-anchor="start" x="158.5" y="-343.5" font-family="Helvetica,sans-Serif" font-size="10.00">+ chainHeight()</text>
<text text-anchor="start" x="158.5" y="-332.5" font-family="Helvetica,sans-Serif" font-size="10.00">+ empty()</text>
<text text-anchor="start" x="158.5" y="-321.5" font-family="Helvetica,sans-Serif" font-size="10.00">and 15 more...</text>
</a>
</g>
</g>
<!-- Node3&#45;&gt;Node1 -->
<g id="edge2" class="edge">
<title>Node3&#45;&gt;Node1</title>
<path fill="none" stroke="#404040" d="M246.65,-314.38C250.01,-302.81 253.53,-290.73 257.08,-278.54"/>
<polygon fill="none" stroke="#404040" points="257.13,-278.36 254.97,-271.48 260.48,-266.83 262.65,-273.71 257.13,-278.36"/>
<text text-anchor="middle" x="286" y="-288" font-family="Helvetica,sans-Serif" font-size="10.00"> #activeChain_</text>
</g>
<!-- Node4 -->
<g id="node4" class="node">
<title>Node4</title>
<g id="a_node4"><a xlink:href="structaltintegration_1_1Chain.html" target="_top" xlink:title="Fully in&#45;memory chain representation.">
<polygon fill="white" stroke="black" points="169.5,-568 169.5,-746 270.5,-746 270.5,-568 169.5,-568"/>
<text text-anchor="start" x="177.5" y="-734" font-family="Helvetica,sans-Serif" font-size="10.00">altintegration::Chain</text>
<text text-anchor="middle" x="220" y="-723" font-family="Helvetica,sans-Serif" font-size="10.00">&lt; BlockIndexT &gt;</text>
<polyline fill="none" stroke="black" points="169.5,-716 270.5,-716 "/>
<text text-anchor="middle" x="220" y="-704" font-family="Helvetica,sans-Serif" font-size="10.00"> </text>
<polyline fill="none" stroke="black" points="169.5,-697 270.5,-697 "/>
<text text-anchor="start" x="177.5" y="-685" font-family="Helvetica,sans-Serif" font-size="10.00">+ Chain()</text>
<text text-anchor="start" x="177.5" y="-674" font-family="Helvetica,sans-Serif" font-size="10.00">+ Chain()</text>
<text text-anchor="start" x="177.5" y="-663" font-family="Helvetica,sans-Serif" font-size="10.00">+ Chain()</text>
<text text-anchor="start" x="177.5" y="-652" font-family="Helvetica,sans-Serif" font-size="10.00">+ getStartHeight()</text>
<text text-anchor="start" x="177.5" y="-641" font-family="Helvetica,sans-Serif" font-size="10.00">+ firstHeight()</text>
<text text-anchor="start" x="177.5" y="-630" font-family="Helvetica,sans-Serif" font-size="10.00">+ contains()</text>
<text text-anchor="start" x="177.5" y="-619" font-family="Helvetica,sans-Serif" font-size="10.00">+ operator[]()</text>
<text text-anchor="start" x="177.5" y="-608" font-family="Helvetica,sans-Serif" font-size="10.00">+ next()</text>
<text text-anchor="start" x="177.5" y="-597" font-family="Helvetica,sans-Serif" font-size="10.00">+ chainHeight()</text>
<text text-anchor="start" x="177.5" y="-586" font-family="Helvetica,sans-Serif" font-size="10.00">+ empty()</text>
<text text-anchor="start" x="177.5" y="-575" font-family="Helvetica,sans-Serif" font-size="10.00">and 15 more...</text>
</a>
</g>
</g>
<!-- Node4&#45;&gt;Node3 -->
<g id="edge3" class="edge">
<title>Node4&#45;&gt;Node3</title>
<path fill="none" stroke="orange" d="M220.39,-557.59C220.48,-536.16 220.57,-513.61 220.65,-492.6"/>
<polygon fill="orange" stroke="orange" points="216.89,-557.67 220.35,-567.68 223.89,-557.7 216.89,-557.67"/>
<text text-anchor="middle" x="284.5" y="-519.5" font-family="Helvetica,sans-Serif" font-size="10.00"> &lt; altintegration::BlockIndex &gt;</text>
</g>
<!-- Node5 -->
<g id="node5" class="node">
<title>Node5</title>
<g id="a_node5"><a xlink:title=" ">
<polygon fill="white" stroke="#bfbfbf" points="309.5,-364 309.5,-443 446.5,-443 446.5,-364 309.5,-364"/>
<text text-anchor="start" x="317.5" y="-431" font-family="Helvetica,sans-Serif" font-size="10.00">std::unordered_map</text>
<text text-anchor="start" x="317.5" y="-420" font-family="Helvetica,sans-Serif" font-size="10.00">&lt; prev_block_hash_t,</text>
<text text-anchor="middle" x="378" y="-409" font-family="Helvetica,sans-Serif" font-size="10.00"> std::unique_ptr&lt; index_t &gt; &gt;</text>
<polyline fill="none" stroke="#bfbfbf" points="309.5,-402 446.5,-402 "/>
<text text-anchor="start" x="317.5" y="-390" font-family="Helvetica,sans-Serif" font-size="10.00">+ keys</text>
<polyline fill="none" stroke="#bfbfbf" points="309.5,-383 446.5,-383 "/>
<text text-anchor="middle" x="378" y="-371" font-family="Helvetica,sans-Serif" font-size="10.00"> </text>
</a>
</g>
</g>
<!-- Node5&#45;&gt;Node1 -->
<g id="edge4" class="edge">
<title>Node5&#45;&gt;Node1</title>
<path fill="none" stroke="#404040" d="M366.6,-363.82C359.8,-340.77 350.71,-309.93 341.4,-278.35"/>
<polygon fill="none" stroke="#404040" points="341.36,-278.21 335.83,-273.59 337.97,-266.7 343.5,-271.32 341.36,-278.21"/>
<text text-anchor="middle" x="367" y="-288" font-family="Helvetica,sans-Serif" font-size="10.00"> #blocks_</text>
</g>
<!-- Node6 -->
<g id="node6" class="node">
<title>Node6</title>
<g id="a_node6"><a xlink:title=" ">
<polygon fill="white" stroke="#bfbfbf" points="318.5,-781.5 318.5,-838.5 445.5,-838.5 445.5,-781.5 318.5,-781.5"/>
<text text-anchor="middle" x="382" y="-826.5" font-family="Helvetica,sans-Serif" font-size="10.00">std::unique_ptr&lt; index_t &gt;</text>
<polyline fill="none" stroke="#bfbfbf" points="318.5,-819.5 445.5,-819.5 "/>
<text text-anchor="start" x="326.5" y="-807.5" font-family="Helvetica,sans-Serif" font-size="10.00">+ ptr</text>
<polyline fill="none" stroke="#bfbfbf" points="318.5,-800.5 445.5,-800.5 "/>
<text text-anchor="start" x="326.5" y="-788.5" font-family="Helvetica,sans-Serif" font-size="10.00">+ operator&#45;&gt;()</text>
</a>
</g>
</g>
<!-- Node6&#45;&gt;Node5 -->
<g id="edge5" class="edge">
<title>Node6&#45;&gt;Node5</title>
<path fill="none" stroke="#404040" d="M374.3,-781.46C372.93,-775.42 371.71,-769.03 371,-763 358.15,-654.02 366.32,-525.14 372.65,-455.44"/>
<polygon fill="none" stroke="#404040" points="372.68,-455.08 369.26,-448.73 373.8,-443.13 377.23,-449.48 372.68,-455.08"/>
<text text-anchor="middle" x="395.5" y="-654.5" font-family="Helvetica,sans-Serif" font-size="10.00"> +elements</text>
</g>
<!-- Node7 -->
<g id="node7" class="node">
<title>Node7</title>
<g id="a_node7"><a xlink:title=" ">
<polygon fill="white" stroke="#bfbfbf" points="348,-933.5 348,-990.5 450,-990.5 450,-933.5 348,-933.5"/>
<text text-anchor="middle" x="399" y="-978.5" font-family="Helvetica,sans-Serif" font-size="10.00">std::unique_ptr&lt; T &gt;</text>
<polyline fill="none" stroke="#bfbfbf" points="348,-971.5 450,-971.5 "/>
<text text-anchor="middle" x="399" y="-959.5" font-family="Helvetica,sans-Serif" font-size="10.00"> </text>
<polyline fill="none" stroke="#bfbfbf" points="348,-952.5 450,-952.5 "/>
<text text-anchor="start" x="356" y="-940.5" font-family="Helvetica,sans-Serif" font-size="10.00">+ operator&#45;&gt;()</text>
</a>
</g>
</g>
<!-- Node7&#45;&gt;Node6 -->
<g id="edge6" class="edge">
<title>Node7&#45;&gt;Node6</title>
<path fill="none" stroke="orange" d="M394.75,-923.47C391.76,-897.11 387.83,-862.43 385.13,-838.59"/>
<polygon fill="orange" stroke="orange" points="391.28,-923.95 395.88,-933.49 398.23,-923.16 391.28,-923.95"/>
<text text-anchor="middle" x="419" y="-883.5" font-family="Helvetica,sans-Serif" font-size="10.00"> &lt; index_t &gt;</text>
</g>
<!-- Node8 -->
<g id="node8" class="node">
<title>Node8</title>
<g id="a_node8"><a xlink:title=" ">
<polygon fill="white" stroke="#bfbfbf" points="465.5,-1114.5 465.5,-1171.5 494.5,-1171.5 494.5,-1114.5 465.5,-1114.5"/>
<text text-anchor="middle" x="480" y="-1159.5" font-family="Helvetica,sans-Serif" font-size="10.00">T</text>
<polyline fill="none" stroke="#bfbfbf" points="465.5,-1152.5 494.5,-1152.5 "/>
<text text-anchor="middle" x="480" y="-1140.5" font-family="Helvetica,sans-Serif" font-size="10.00"> </text>
<polyline fill="none" stroke="#bfbfbf" points="465.5,-1133.5 494.5,-1133.5 "/>
<text text-anchor="middle" x="480" y="-1121.5" font-family="Helvetica,sans-Serif" font-size="10.00"> </text>
</a>
</g>
</g>
<!-- Node8&#45;&gt;Node7 -->
<g id="edge7" class="edge">
<title>Node8&#45;&gt;Node7</title>
<path fill="none" stroke="#404040" d="M465.46,-1124.9C458.89,-1116.57 451.4,-1106.17 446,-1096 430.12,-1066.08 417.68,-1029.67 409.59,-1002.51"/>
<polygon fill="none" stroke="#404040" points="409.52,-1002.27 404.02,-997.62 406.19,-990.74 411.7,-995.39 409.52,-1002.27"/>
<text text-anchor="middle" x="456" y="-1088" font-family="Helvetica,sans-Serif" font-size="10.00"> +ptr</text>
</g>
<!-- Node9 -->
<g id="node9" class="node">
<title>Node9</title>
<g id="a_node9"><a xlink:title=" ">
<polygon fill="white" stroke="#bfbfbf" points="429.5,-623 429.5,-691 530.5,-691 530.5,-623 429.5,-623"/>
<text text-anchor="start" x="437.5" y="-679" font-family="Helvetica,sans-Serif" font-size="10.00">std::unordered_map</text>
<text text-anchor="middle" x="480" y="-668" font-family="Helvetica,sans-Serif" font-size="10.00">&lt; K, T &gt;</text>
<polyline fill="none" stroke="#bfbfbf" points="429.5,-661 530.5,-661 "/>
<text text-anchor="middle" x="480" y="-649" font-family="Helvetica,sans-Serif" font-size="10.00"> </text>
<polyline fill="none" stroke="#bfbfbf" points="429.5,-642 530.5,-642 "/>
<text text-anchor="middle" x="480" y="-630" font-family="Helvetica,sans-Serif" font-size="10.00"> </text>
</a>
</g>
</g>
<!-- Node8&#45;&gt;Node9 -->
<g id="edge10" class="edge">
<title>Node8&#45;&gt;Node9</title>
<path fill="none" stroke="#404040" d="M480,-1114.24C480,-1034.19 480,-802.33 480,-703.5"/>
<polygon fill="none" stroke="#404040" points="480,-703.29 476,-697.29 480,-691.29 484,-697.29 480,-703.29"/>
<text text-anchor="middle" x="504.5" y="-959.5" font-family="Helvetica,sans-Serif" font-size="10.00"> +elements</text>
</g>
<!-- Node15 -->
<g id="node15" class="node">
<title>Node15</title>
<g id="a_node15"><a xlink:title=" ">
<polygon fill="white" stroke="#bfbfbf" points="577.5,-1009.5 577.5,-1066.5 680.5,-1066.5 680.5,-1009.5 577.5,-1009.5"/>
<text text-anchor="middle" x="629" y="-1054.5" font-family="Helvetica,sans-Serif" font-size="10.00">std::shared_ptr&lt; T &gt;</text>
<polyline fill="none" stroke="#bfbfbf" points="577.5,-1047.5 680.5,-1047.5 "/>
<text text-anchor="middle" x="629" y="-1035.5" font-family="Helvetica,sans-Serif" font-size="10.00"> </text>
<polyline fill="none" stroke="#bfbfbf" points="577.5,-1028.5 680.5,-1028.5 "/>
<text text-anchor="start" x="585.5" y="-1016.5" font-family="Helvetica,sans-Serif" font-size="10.00">+ operator&#45;&gt;()</text>
</a>
</g>
</g>
<!-- Node8&#45;&gt;Node15 -->
<g id="edge16" class="edge">
<title>Node8&#45;&gt;Node15</title>
<path fill="none" stroke="#404040" d="M494.56,-1131.94C513.95,-1118.53 549.24,-1094.14 578.8,-1073.7"/>
<polygon fill="none" stroke="#404040" points="579.11,-1073.49 581.77,-1066.79 588.98,-1066.67 586.32,-1073.37 579.11,-1073.49"/>
<text text-anchor="middle" x="569" y="-1088" font-family="Helvetica,sans-Serif" font-size="10.00"> +ptr</text>
</g>
<!-- Node9&#45;&gt;Node5 -->
<g id="edge8" class="edge">
<title>Node9&#45;&gt;Node5</title>
<path fill="none" stroke="orange" d="M453.09,-614.42C439,-591.2 422.35,-561.31 411,-533 399.3,-503.82 390.7,-469.22 385.21,-443.28"/>
<polygon fill="orange" stroke="orange" points="450.14,-616.29 458.36,-622.98 456.1,-612.63 450.14,-616.29"/>
<text text-anchor="start" x="411" y="-525" font-family="Helvetica,sans-Serif" font-size="10.00"> &lt; prev_block_hash_t,</text>
<text text-anchor="middle" x="471.5" y="-514" font-family="Helvetica,sans-Serif" font-size="10.00"> std::unique_ptr&lt; index_t &gt; &gt;</text>
</g>
<!-- Node10 -->
<g id="node10" class="node">
<title>Node10</title>
<g id="a_node10"><a xlink:title=" ">
<polygon fill="white" stroke="#bfbfbf" points="593.5,-857.5 593.5,-914.5 622.5,-914.5 622.5,-857.5 593.5,-857.5"/>
<text text-anchor="middle" x="608" y="-902.5" font-family="Helvetica,sans-Serif" font-size="10.00">K</text>
<polyline fill="none" stroke="#bfbfbf" points="593.5,-895.5 622.5,-895.5 "/>
<text text-anchor="middle" x="608" y="-883.5" font-family="Helvetica,sans-Serif" font-size="10.00"> </text>
<polyline fill="none" stroke="#bfbfbf" points="593.5,-876.5 622.5,-876.5 "/>
<text text-anchor="middle" x="608" y="-864.5" font-family="Helvetica,sans-Serif" font-size="10.00"> </text>
</a>
</g>
</g>
<!-- Node10&#45;&gt;Node9 -->
<g id="edge9" class="edge">
<title>Node10&#45;&gt;Node9</title>
<path fill="none" stroke="#404040" d="M593.25,-865.71C587.32,-857.63 580.57,-848.03 575,-839 547.05,-793.7 519.24,-739.35 501,-702.11"/>
<polygon fill="none" stroke="#404040" points="500.91,-701.92 494.69,-698.27 495.66,-691.13 501.88,-694.77 500.91,-701.92"/>
<text text-anchor="middle" x="589.5" y="-807.5" font-family="Helvetica,sans-Serif" font-size="10.00"> +keys</text>
</g>
<!-- Node17 -->
<g id="node17" class="node">
<title>Node17</title>
<g id="a_node17"><a xlink:title=" ">
<polygon fill="white" stroke="#bfbfbf" points="698.5,-628.5 698.5,-685.5 769.5,-685.5 769.5,-628.5 698.5,-628.5"/>
<text text-anchor="middle" x="734" y="-673.5" font-family="Helvetica,sans-Serif" font-size="10.00">std::set&lt; K &gt;</text>
<polyline fill="none" stroke="#bfbfbf" points="698.5,-666.5 769.5,-666.5 "/>
<text text-anchor="middle" x="734" y="-654.5" font-family="Helvetica,sans-Serif" font-size="10.00"> </text>
<polyline fill="none" stroke="#bfbfbf" points="698.5,-647.5 769.5,-647.5 "/>
<text text-anchor="middle" x="734" y="-635.5" font-family="Helvetica,sans-Serif" font-size="10.00"> </text>
</a>
</g>
</g>
<!-- Node10&#45;&gt;Node17 -->
<g id="edge21" class="edge">
<title>Node10&#45;&gt;Node17</title>
<path fill="none" stroke="#404040" d="M622.79,-865.74C628.73,-857.66 635.47,-848.06 641,-839 670.05,-791.46 698.59,-733.81 716.24,-696.55"/>
<polygon fill="none" stroke="#404040" points="716.25,-696.53 715.18,-689.4 721.35,-685.67 722.42,-692.8 716.25,-696.53"/>
<text text-anchor="middle" x="685.5" y="-807.5" font-family="Helvetica,sans-Serif" font-size="10.00"> +keys</text>
</g>
<!-- Node18 -->
<g id="node18" class="node">
<title>Node18</title>
<g id="a_node18"><a xlink:title=" ">
<polygon fill="white" stroke="#bfbfbf" points="548.5,-628.5 548.5,-685.5 667.5,-685.5 667.5,-628.5 548.5,-628.5"/>
<text text-anchor="middle" x="608" y="-673.5" font-family="Helvetica,sans-Serif" font-size="10.00">std::unordered_set&lt; K &gt;</text>
<polyline fill="none" stroke="#bfbfbf" points="548.5,-666.5 667.5,-666.5 "/>
<text text-anchor="middle" x="608" y="-654.5" font-family="Helvetica,sans-Serif" font-size="10.00"> </text>
<polyline fill="none" stroke="#bfbfbf" points="548.5,-647.5 667.5,-647.5 "/>
<text text-anchor="middle" x="608" y="-635.5" font-family="Helvetica,sans-Serif" font-size="10.00"> </text>
</a>
</g>
</g>
<!-- Node10&#45;&gt;Node18 -->
<g id="edge23" class="edge">
<title>Node10&#45;&gt;Node18</title>
<path fill="none" stroke="#404040" d="M608,-857.17C608,-817.23 608,-743.48 608,-697.8"/>
<polygon fill="none" stroke="#404040" points="608,-697.71 604,-691.71 608,-685.71 612,-691.71 608,-697.71"/>
<text text-anchor="middle" x="622.5" y="-807.5" font-family="Helvetica,sans-Serif" font-size="10.00"> +keys</text>
</g>
<!-- Node11 -->
<g id="node11" class="node">
<title>Node11</title>
<g id="a_node11"><a xlink:title=" ">
<polygon fill="white" stroke="#bfbfbf" points="465.5,-369.5 465.5,-437.5 612.5,-437.5 612.5,-369.5 465.5,-369.5"/>
<text text-anchor="start" x="473.5" y="-425.5" font-family="Helvetica,sans-Serif" font-size="10.00">std::unordered_set</text>
<text text-anchor="middle" x="539" y="-414.5" font-family="Helvetica,sans-Serif" font-size="10.00">&lt; altintegration::BlockIndex * &gt;</text>
<polyline fill="none" stroke="#bfbfbf" points="465.5,-407.5 612.5,-407.5 "/>
<text text-anchor="middle" x="539" y="-395.5" font-family="Helvetica,sans-Serif" font-size="10.00"> </text>
<polyline fill="none" stroke="#bfbfbf" points="465.5,-388.5 612.5,-388.5 "/>
<text text-anchor="middle" x="539" y="-376.5" font-family="Helvetica,sans-Serif" font-size="10.00"> </text>
</a>
</g>
</g>
<!-- Node11&#45;&gt;Node1 -->
<g id="edge11" class="edge">
<title>Node11&#45;&gt;Node1</title>
<path fill="none" stroke="#404040" d="M509.33,-369.37C477.98,-334.37 427.12,-277.57 383.26,-228.59"/>
<polygon fill="none" stroke="#404040" points="383.17,-228.48 376.18,-226.68 375.16,-219.55 382.14,-221.35 383.17,-228.48"/>
<text text-anchor="middle" x="455.5" y="-288" font-family="Helvetica,sans-Serif" font-size="10.00"> #tips_</text>
</g>
<!-- Node12 -->
<g id="node12" class="node">
<title>Node12</title>
<g id="a_node12"><a xlink:href="structaltintegration_1_1BlockIndex.html" target="_top" xlink:title="A node in a block tree.">
<polygon fill="white" stroke="black" points="813.5,-551.5 813.5,-762.5 938.5,-762.5 938.5,-551.5 813.5,-551.5"/>
<text text-anchor="start" x="821.5" y="-750.5" font-family="Helvetica,sans-Serif" font-size="10.00">altintegration::BlockIndex</text>
<text text-anchor="middle" x="876" y="-739.5" font-family="Helvetica,sans-Serif" font-size="10.00">&lt; Block &gt;</text>
<polyline fill="none" stroke="black" points="813.5,-732.5 938.5,-732.5 "/>
<text text-anchor="start" x="821.5" y="-720.5" font-family="Helvetica,sans-Serif" font-size="10.00">+ finalized</text>
<text text-anchor="start" x="821.5" y="-709.5" font-family="Helvetica,sans-Serif" font-size="10.00"># height</text>
<text text-anchor="start" x="821.5" y="-698.5" font-family="Helvetica,sans-Serif" font-size="10.00"># status</text>
<text text-anchor="start" x="821.5" y="-687.5" font-family="Helvetica,sans-Serif" font-size="10.00"># dirty</text>
<polyline fill="none" stroke="black" points="813.5,-680.5 938.5,-680.5 "/>
<text text-anchor="start" x="821.5" y="-668.5" font-family="Helvetica,sans-Serif" font-size="10.00">+ BlockIndex()</text>
<text text-anchor="start" x="821.5" y="-657.5" font-family="Helvetica,sans-Serif" font-size="10.00">+ BlockIndex()</text>
<text text-anchor="start" x="821.5" y="-646.5" font-family="Helvetica,sans-Serif" font-size="10.00">+ ~BlockIndex()</text>
<text text-anchor="start" x="821.5" y="-635.5" font-family="Helvetica,sans-Serif" font-size="10.00">+ BlockIndex()</text>
<text text-anchor="start" x="821.5" y="-624.5" font-family="Helvetica,sans-Serif" font-size="10.00">+ operator=()</text>
<text text-anchor="start" x="821.5" y="-613.5" font-family="Helvetica,sans-Serif" font-size="10.00">+ isDeleted()</text>
<text text-anchor="start" x="821.5" y="-602.5" font-family="Helvetica,sans-Serif" font-size="10.00">+ isRoot()</text>
<text text-anchor="start" x="821.5" y="-591.5" font-family="Helvetica,sans-Serif" font-size="10.00">+ restore()</text>
<text text-anchor="start" x="821.5" y="-580.5" font-family="Helvetica,sans-Serif" font-size="10.00">+ deleteTemporarily()</text>
<text text-anchor="start" x="821.5" y="-569.5" font-family="Helvetica,sans-Serif" font-size="10.00">+ mergeFrom()</text>
<text text-anchor="start" x="821.5" y="-558.5" font-family="Helvetica,sans-Serif" font-size="10.00">and 40 more...</text>
</a>
</g>
</g>
<!-- Node12&#45;&gt;Node11 -->
<g id="edge12" class="edge">
<title>Node12&#45;&gt;Node11</title>
<path fill="none" stroke="#404040" d="M813.32,-577.41C802.71,-567.45 791.16,-558.23 779,-551 751.02,-534.36 737.32,-547.14 708,-533 682.87,-520.89 628.38,-478.17 588.03,-445.28"/>
<polygon fill="none" stroke="#404040" points="587.9,-445.18 580.73,-444.48 578.62,-437.58 585.79,-438.29 587.9,-445.18"/>
<text text-anchor="middle" x="722.5" y="-519.5" font-family="Helvetica,sans-Serif" font-size="10.00"> +keys</text>
</g>
<!-- Node12&#45;&gt;Node12 -->
<g id="edge17" class="edge">
<title>Node12&#45;&gt;Node12</title>
<path fill="none" stroke="#404040" d="M938.78,-680.35C949.26,-677.08 956.5,-669.3 956.5,-657 956.5,-649.5 953.81,-643.69 949.34,-639.54"/>
<polygon fill="none" stroke="#404040" points="949.26,-639.5 942.07,-640.06 938.78,-633.65 945.97,-633.08 949.26,-639.5"/>
<text text-anchor="middle" x="973" y="-654.5" font-family="Helvetica,sans-Serif" font-size="10.00"> +pprev</text>
</g>
<!-- Node16 -->
<g id="node16" class="node">
<title>Node16</title>
<g id="a_node16"><a xlink:title=" ">
<polygon fill="white" stroke="#bfbfbf" points="847,-369.5 847,-437.5 959,-437.5 959,-369.5 847,-369.5"/>
<text text-anchor="start" x="855" y="-425.5" font-family="Helvetica,sans-Serif" font-size="10.00">std::set&lt; altintegration</text>
<text text-anchor="middle" x="903" y="-414.5" font-family="Helvetica,sans-Serif" font-size="10.00">::BlockIndex * &gt;</text>
<polyline fill="none" stroke="#bfbfbf" points="847,-407.5 959,-407.5 "/>
<text text-anchor="middle" x="903" y="-395.5" font-family="Helvetica,sans-Serif" font-size="10.00"> </text>
<polyline fill="none" stroke="#bfbfbf" points="847,-388.5 959,-388.5 "/>
<text text-anchor="middle" x="903" y="-376.5" font-family="Helvetica,sans-Serif" font-size="10.00"> </text>
</a>
</g>
</g>
<!-- Node12&#45;&gt;Node16 -->
<g id="edge19" class="edge">
<title>Node12&#45;&gt;Node16</title>
<path fill="none" stroke="#404040" d="M887.25,-551.16C891.04,-515.86 895.08,-478.3 898.11,-450.03"/>
<polygon fill="none" stroke="#404040" points="898.15,-449.67 894.81,-443.27 899.43,-437.74 902.77,-444.13 898.15,-449.67"/>
<text text-anchor="middle" x="905.5" y="-519.5" font-family="Helvetica,sans-Serif" font-size="10.00"> +keys</text>
</g>
<!-- Node13 -->
<g id="node13" class="node">
<title>Node13</title>
<g id="a_node13"><a xlink:title=" ">
<polygon fill="white" stroke="#bfbfbf" points="714,-857.5 714,-914.5 794,-914.5 794,-857.5 714,-857.5"/>
<text text-anchor="middle" x="754" y="-902.5" font-family="Helvetica,sans-Serif" font-size="10.00">Block::addon_t</text>
<polyline fill="none" stroke="#bfbfbf" points="714,-895.5 794,-895.5 "/>
<text text-anchor="middle" x="754" y="-883.5" font-family="Helvetica,sans-Serif" font-size="10.00"> </text>
<polyline fill="none" stroke="#bfbfbf" points="714,-876.5 794,-876.5 "/>
<text text-anchor="middle" x="754" y="-864.5" font-family="Helvetica,sans-Serif" font-size="10.00"> </text>
</a>
</g>
</g>
<!-- Node13&#45;&gt;Node12 -->
<g id="edge13" class="edge">
<title>Node13&#45;&gt;Node12</title>
<path fill="none" stroke="midnightblue" d="M773.72,-848.3C786.3,-824.91 803.28,-793.31 819.79,-762.58"/>
<polygon fill="none" stroke="midnightblue" points="770.61,-846.7 768.96,-857.17 776.78,-850.01 770.61,-846.7"/>
</g>
<!-- Node14 -->
<g id="node14" class="node">
<title>Node14</title>
<g id="a_node14"><a xlink:title=" ">
<polygon fill="white" stroke="#bfbfbf" points="812,-857.5 812,-914.5 940,-914.5 940,-857.5 812,-857.5"/>
<text text-anchor="middle" x="876" y="-902.5" font-family="Helvetica,sans-Serif" font-size="10.00">std::shared_ptr&lt; block_t &gt;</text>
<polyline fill="none" stroke="#bfbfbf" points="812,-895.5 940,-895.5 "/>
<text text-anchor="start" x="820" y="-883.5" font-family="Helvetica,sans-Serif" font-size="10.00">+ ptr</text>
<polyline fill="none" stroke="#bfbfbf" points="812,-876.5 940,-876.5 "/>
<text text-anchor="start" x="820" y="-864.5" font-family="Helvetica,sans-Serif" font-size="10.00">+ operator&#45;&gt;()</text>
</a>
</g>
</g>
<!-- Node14&#45;&gt;Node12 -->
<g id="edge14" class="edge">
<title>Node14&#45;&gt;Node12</title>
<path fill="none" stroke="#404040" d="M876,-857.17C876,-836.11 876,-805.64 876,-774.84"/>
<polygon fill="none" stroke="#404040" points="876,-774.58 872,-768.58 876,-762.58 880,-768.58 876,-774.58"/>
<text text-anchor="middle" x="894.5" y="-807.5" font-family="Helvetica,sans-Serif" font-size="10.00"> #header</text>
</g>
<!-- Node15&#45;&gt;Node14 -->
<g id="edge15" class="edge">
<title>Node15&#45;&gt;Node14</title>
<path fill="none" stroke="orange" d="M682.89,-1004.27C727.06,-977.45 788.87,-939.91 830.57,-914.59"/>
<polygon fill="orange" stroke="orange" points="681.03,-1001.31 674.3,-1009.49 684.67,-1007.29 681.03,-1001.31"/>
<text text-anchor="middle" x="821.5" y="-959.5" font-family="Helvetica,sans-Serif" font-size="10.00"> &lt; block_t &gt;</text>
</g>
<!-- Node16&#45;&gt;Node12 -->
<g id="edge18" class="edge">
<title>Node16&#45;&gt;Node12</title>
<path fill="none" stroke="#404040" d="M919.06,-437.73C929.58,-463.64 940.15,-500.56 933,-533 932.52,-535.19 931.99,-537.39 931.43,-539.59"/>
<polygon fill="none" stroke="#404040" points="931.36,-539.83 933.55,-546.7 928.06,-551.37 925.86,-544.5 931.36,-539.83"/>
<text text-anchor="middle" x="951" y="-519.5" font-family="Helvetica,sans-Serif" font-size="10.00"> +pnext</text>
</g>
<!-- Node17&#45;&gt;Node16 -->
<g id="edge20" class="edge">
<title>Node17&#45;&gt;Node16</title>
<path fill="none" stroke="orange" d="M730.61,-617.85C729.68,-586.92 732.63,-543.31 752,-511 773.85,-474.54 813.54,-447.29 846.74,-429.49"/>
<polygon fill="orange" stroke="orange" points="727.13,-618.4 731.08,-628.23 734.12,-618.08 727.13,-618.4"/>
<text text-anchor="middle" x="818.5" y="-519.5" font-family="Helvetica,sans-Serif" font-size="10.00"> &lt; altintegration::BlockIndex * &gt;</text>
</g>
<!-- Node18&#45;&gt;Node11 -->
<g id="edge22" class="edge">
<title>Node18&#45;&gt;Node11</title>
<path fill="none" stroke="orange" d="M581.69,-619.85C566.26,-596.37 548.23,-564.39 540,-533 531.71,-501.38 532.58,-463.87 534.84,-437.57"/>
<polygon fill="orange" stroke="orange" points="578.97,-622.06 587.45,-628.41 584.78,-618.16 578.97,-622.06"/>
<text text-anchor="middle" x="606.5" y="-519.5" font-family="Helvetica,sans-Serif" font-size="10.00"> &lt; altintegration::BlockIndex * &gt;</text>
</g>
</g>
</svg>
