<?xml version="1.0" encoding="UTF-8" standalone="no"?>
<!DOCTYPE svg PUBLIC "-//W3C//DTD SVG 1.1//EN"
 "http://www.w3.org/Graphics/SVG/1.1/DTD/svg11.dtd">
<!-- Generated by graphviz version 2.44.0 ()
 -->
<!-- Title: altintegration::AltBlockTree Pages: 1 -->
<svg width="866pt" height="1721pt"
 viewBox="0.00 0.00 865.50 1721.00" xmlns="http://www.w3.org/2000/svg" xmlns:xlink="http://www.w3.org/1999/xlink">
<g id="graph0" class="graph" transform="scale(1 1) rotate(0) translate(4 1717)">
<title>altintegration::AltBlockTree</title>
<polygon fill="white" stroke="transparent" points="-4,4 -4,-1717 861.5,-1717 861.5,4 -4,4"/>
<!-- Node1 -->
<g id="node1" class="node">
<title>Node1</title>
<g id="a_node1"><a xlink:title="Represents simplified view on Altchain&#39;s block tree, maintains VBK tree and BTC tree.">
<polygon fill="#bfbfbf" stroke="black" points="345,-0.5 345,-233.5 480,-233.5 480,-0.5 345,-0.5"/>
<text text-anchor="middle" x="412.5" y="-221.5" font-family="Helvetica,sans-Serif" font-size="10.00">altintegration::AltBlockTree</text>
<polyline fill="none" stroke="black" points="345,-214.5 480,-214.5 "/>
<text text-anchor="start" x="353" y="-202.5" font-family="Helvetica,sans-Serif" font-size="10.00">+ onInvalidBlockConnected</text>
<text text-anchor="start" x="353" y="-191.5" font-family="Helvetica,sans-Serif" font-size="10.00">+ onBlockConnected</text>
<text text-anchor="start" x="353" y="-180.5" font-family="Helvetica,sans-Serif" font-size="10.00">+ onBeforeOverrideTip</text>
<polyline fill="none" stroke="black" points="345,-173.5 480,-173.5 "/>
<text text-anchor="start" x="353" y="-161.5" font-family="Helvetica,sans-Serif" font-size="10.00">+ ~AltBlockTree()</text>
<text text-anchor="start" x="353" y="-150.5" font-family="Helvetica,sans-Serif" font-size="10.00">+ AltBlockTree()</text>
<text text-anchor="start" x="353" y="-139.5" font-family="Helvetica,sans-Serif" font-size="10.00">+ acceptBlockHeader()</text>
<text text-anchor="start" x="353" y="-128.5" font-family="Helvetica,sans-Serif" font-size="10.00">+ acceptBlock()</text>
<text text-anchor="start" x="353" y="-117.5" font-family="Helvetica,sans-Serif" font-size="10.00">+ acceptBlock()</text>
<text text-anchor="start" x="353" y="-106.5" font-family="Helvetica,sans-Serif" font-size="10.00">+ acceptBlock()</text>
<text text-anchor="start" x="353" y="-95.5" font-family="Helvetica,sans-Serif" font-size="10.00">+ getConnectedTipsAfter()</text>
<text text-anchor="start" x="353" y="-84.5" font-family="Helvetica,sans-Serif" font-size="10.00">+ loadBlock()</text>
<text text-anchor="start" x="353" y="-73.5" font-family="Helvetica,sans-Serif" font-size="10.00">+ loadTip()</text>
<text text-anchor="start" x="353" y="-62.5" font-family="Helvetica,sans-Serif" font-size="10.00">+ comparePopScore()</text>
<text text-anchor="start" x="353" y="-51.5" font-family="Helvetica,sans-Serif" font-size="10.00">+ setState()</text>
<text text-anchor="start" x="353" y="-40.5" font-family="Helvetica,sans-Serif" font-size="10.00">+ removeSubtree()</text>
<text text-anchor="start" x="353" y="-29.5" font-family="Helvetica,sans-Serif" font-size="10.00">+ vbk()</text>
<text text-anchor="start" x="353" y="-18.5" font-family="Helvetica,sans-Serif" font-size="10.00">+ btc()</text>
<text text-anchor="start" x="353" y="-7.5" font-family="Helvetica,sans-Serif" font-size="10.00">+ getParams()</text>
</a>
</g>
</g>
<!-- Node2 -->
<g id="node2" class="node">
<title>Node2</title>
<g id="a_node2"><a xlink:href="structaltintegration_1_1BaseBlockTree.html" target="_top" xlink:title=" ">
<polygon fill="white" stroke="black" points="336.5,-271.5 336.5,-515.5 488.5,-515.5 488.5,-271.5 336.5,-271.5"/>
<text text-anchor="start" x="344.5" y="-503.5" font-family="Helvetica,sans-Serif" font-size="10.00">altintegration::BaseBlock</text>
<text text-anchor="middle" x="412.5" y="-492.5" font-family="Helvetica,sans-Serif" font-size="10.00">Tree&lt; AltBlock &gt;</text>
<polyline fill="none" stroke="black" points="336.5,-485.5 488.5,-485.5 "/>
<text text-anchor="start" x="344.5" y="-473.5" font-family="Helvetica,sans-Serif" font-size="10.00"># validity_sig_</text>
<polyline fill="none" stroke="black" points="336.5,-466.5 488.5,-466.5 "/>
<text text-anchor="start" x="344.5" y="-454.5" font-family="Helvetica,sans-Serif" font-size="10.00">+ getTips()</text>
<text text-anchor="start" x="344.5" y="-443.5" font-family="Helvetica,sans-Serif" font-size="10.00">+ getBlocks()</text>
<text text-anchor="start" x="344.5" y="-432.5" font-family="Helvetica,sans-Serif" font-size="10.00">+ getBlockProvider()</text>
<text text-anchor="start" x="344.5" y="-421.5" font-family="Helvetica,sans-Serif" font-size="10.00">+ ~BaseBlockTree()</text>
<text text-anchor="start" x="344.5" y="-410.5" font-family="Helvetica,sans-Serif" font-size="10.00">+ BaseBlockTree()</text>
<text text-anchor="start" x="344.5" y="-399.5" font-family="Helvetica,sans-Serif" font-size="10.00">+ BaseBlockTree()</text>
<text text-anchor="start" x="344.5" y="-388.5" font-family="Helvetica,sans-Serif" font-size="10.00">+ BaseBlockTree()</text>
<text text-anchor="start" x="344.5" y="-377.5" font-family="Helvetica,sans-Serif" font-size="10.00">+ operator=()</text>
<text text-anchor="start" x="344.5" y="-366.5" font-family="Helvetica,sans-Serif" font-size="10.00">+ operator=()</text>
<text text-anchor="start" x="344.5" y="-355.5" font-family="Helvetica,sans-Serif" font-size="10.00">+ getBestChain()</text>
<text text-anchor="start" x="344.5" y="-344.5" font-family="Helvetica,sans-Serif" font-size="10.00">and 26 more...</text>
<text text-anchor="start" x="344.5" y="-333.5" font-family="Helvetica,sans-Serif" font-size="10.00"># eraseBlock()</text>
<text text-anchor="start" x="344.5" y="-322.5" font-family="Helvetica,sans-Serif" font-size="10.00"># toPrettyString()</text>
<text text-anchor="start" x="344.5" y="-311.5" font-family="Helvetica,sans-Serif" font-size="10.00"># decreaseAppliedBlockCount()</text>
<text text-anchor="start" x="344.5" y="-300.5" font-family="Helvetica,sans-Serif" font-size="10.00"># decreaseAppliedBlockCount()</text>
<text text-anchor="start" x="344.5" y="-289.5" font-family="Helvetica,sans-Serif" font-size="10.00"># increaseAppliedBlockCount()</text>
<text text-anchor="start" x="344.5" y="-278.5" font-family="Helvetica,sans-Serif" font-size="10.00"># increaseAppliedBlockCount()</text>
</a>
</g>
</g>
<!-- Node2&#45;&gt;Node1 -->
<g id="edge1" class="edge">
<title>Node2&#45;&gt;Node1</title>
<path fill="none" stroke="midnightblue" d="M412.5,-261.02C412.5,-251.89 412.5,-242.73 412.5,-233.7"/>
<polygon fill="none" stroke="midnightblue" points="409,-261.3 412.5,-271.3 416,-261.3 409,-261.3"/>
</g>
<!-- Node3 -->
<g id="node3" class="node">
<title>Node3</title>
<g id="a_node3"><a xlink:href="structaltintegration_1_1BlockReader.html" target="_top" xlink:title="An abstraction over on&#45;disk storage iterator.">
<polygon fill="white" stroke="black" points="159.5,-861 159.5,-1028 291.5,-1028 291.5,-861 159.5,-861"/>
<text text-anchor="middle" x="225.5" y="-1016" font-family="Helvetica,sans-Serif" font-size="10.00">altintegration::BlockReader</text>
<polyline fill="none" stroke="black" points="159.5,-1009 291.5,-1009 "/>
<text text-anchor="middle" x="225.5" y="-997" font-family="Helvetica,sans-Serif" font-size="10.00"> </text>
<polyline fill="none" stroke="black" points="159.5,-990 291.5,-990 "/>
<text text-anchor="start" x="167.5" y="-978" font-family="Helvetica,sans-Serif" font-size="10.00">+ ~BlockReader()</text>
<text text-anchor="start" x="167.5" y="-967" font-family="Helvetica,sans-Serif" font-size="10.00">+ getAltTip()</text>
<text text-anchor="start" x="167.5" y="-956" font-family="Helvetica,sans-Serif" font-size="10.00">+ getVbkTip()</text>
<text text-anchor="start" x="167.5" y="-945" font-family="Helvetica,sans-Serif" font-size="10.00">+ getBtcTip()</text>
<text text-anchor="start" x="167.5" y="-934" font-family="Helvetica,sans-Serif" font-size="10.00">+ getBlock()</text>
<text text-anchor="start" x="167.5" y="-923" font-family="Helvetica,sans-Serif" font-size="10.00">+ getBlock()</text>
<text text-anchor="start" x="167.5" y="-912" font-family="Helvetica,sans-Serif" font-size="10.00">+ getBlock()</text>
<text text-anchor="start" x="167.5" y="-901" font-family="Helvetica,sans-Serif" font-size="10.00">+ getAltBlockIterator()</text>
<text text-anchor="start" x="167.5" y="-890" font-family="Helvetica,sans-Serif" font-size="10.00">+ getVbkBlockIterator()</text>
<text text-anchor="start" x="167.5" y="-879" font-family="Helvetica,sans-Serif" font-size="10.00">+ getBtcBlockIterator()</text>
<text text-anchor="start" x="167.5" y="-868" font-family="Helvetica,sans-Serif" font-size="10.00">and 6 more...</text>
</a>
</g>
</g>
<!-- Node3&#45;&gt;Node2 -->
<g id="edge2" class="edge">
<title>Node3&#45;&gt;Node2</title>
<path fill="none" stroke="#404040" d="M215.61,-860.71C215.65,-849 216.47,-837.16 218.5,-826 237.8,-719.94 288.3,-609.21 332.94,-526.48"/>
<polygon fill="none" stroke="#404040" points="333.04,-526.31 332.39,-519.12 338.77,-515.77 339.42,-522.95 333.04,-526.31"/>
<text text-anchor="middle" x="349" y="-683" font-family="Helvetica,sans-Serif" font-size="10.00"> #blockProvider_</text>
</g>
<!-- Node20 -->
<g id="node20" class="node">
<title>Node20</title>
<g id="a_node20"><a xlink:href="structaltintegration_1_1BaseBlockTree.html" target="_top" xlink:title="Base block tree that stores all blocks, maintains tree tips, maintains active chain.">
<polygon fill="white" stroke="black" points="459.5,-563.5 459.5,-807.5 611.5,-807.5 611.5,-563.5 459.5,-563.5"/>
<text text-anchor="start" x="467.5" y="-795.5" font-family="Helvetica,sans-Serif" font-size="10.00">altintegration::BaseBlock</text>
<text text-anchor="middle" x="535.5" y="-784.5" font-family="Helvetica,sans-Serif" font-size="10.00">Tree&lt; Block &gt;</text>
<polyline fill="none" stroke="black" points="459.5,-777.5 611.5,-777.5 "/>
<text text-anchor="start" x="467.5" y="-765.5" font-family="Helvetica,sans-Serif" font-size="10.00"># validity_sig_</text>
<polyline fill="none" stroke="black" points="459.5,-758.5 611.5,-758.5 "/>
<text text-anchor="start" x="467.5" y="-746.5" font-family="Helvetica,sans-Serif" font-size="10.00">+ getTips()</text>
<text text-anchor="start" x="467.5" y="-735.5" font-family="Helvetica,sans-Serif" font-size="10.00">+ getBlocks()</text>
<text text-anchor="start" x="467.5" y="-724.5" font-family="Helvetica,sans-Serif" font-size="10.00">+ getBlockProvider()</text>
<text text-anchor="start" x="467.5" y="-713.5" font-family="Helvetica,sans-Serif" font-size="10.00">+ ~BaseBlockTree()</text>
<text text-anchor="start" x="467.5" y="-702.5" font-family="Helvetica,sans-Serif" font-size="10.00">+ BaseBlockTree()</text>
<text text-anchor="start" x="467.5" y="-691.5" font-family="Helvetica,sans-Serif" font-size="10.00">+ BaseBlockTree()</text>
<text text-anchor="start" x="467.5" y="-680.5" font-family="Helvetica,sans-Serif" font-size="10.00">+ operator=()</text>
<text text-anchor="start" x="467.5" y="-669.5" font-family="Helvetica,sans-Serif" font-size="10.00">+ BaseBlockTree()</text>
<text text-anchor="start" x="467.5" y="-658.5" font-family="Helvetica,sans-Serif" font-size="10.00">+ operator=()</text>
<text text-anchor="start" x="467.5" y="-647.5" font-family="Helvetica,sans-Serif" font-size="10.00">+ getBestChain()</text>
<text text-anchor="start" x="467.5" y="-636.5" font-family="Helvetica,sans-Serif" font-size="10.00">and 26 more...</text>
<text text-anchor="start" x="467.5" y="-625.5" font-family="Helvetica,sans-Serif" font-size="10.00"># eraseBlock()</text>
<text text-anchor="start" x="467.5" y="-614.5" font-family="Helvetica,sans-Serif" font-size="10.00"># toPrettyString()</text>
<text text-anchor="start" x="467.5" y="-603.5" font-family="Helvetica,sans-Serif" font-size="10.00"># decreaseAppliedBlockCount()</text>
<text text-anchor="start" x="467.5" y="-592.5" font-family="Helvetica,sans-Serif" font-size="10.00"># increaseAppliedBlockCount()</text>
<text text-anchor="start" x="467.5" y="-581.5" font-family="Helvetica,sans-Serif" font-size="10.00"># decreaseAppliedBlockCount()</text>
<text text-anchor="start" x="467.5" y="-570.5" font-family="Helvetica,sans-Serif" font-size="10.00"># increaseAppliedBlockCount()</text>
</a>
</g>
</g>
<!-- Node3&#45;&gt;Node20 -->
<g id="edge26" class="edge">
<title>Node3&#45;&gt;Node20</title>
<path fill="none" stroke="#404040" d="M291.63,-861.49C294.53,-859.19 297.49,-857.02 300.5,-855 356.77,-817.27 390.5,-847.55 445.5,-808 447,-806.92 448.48,-805.81 449.95,-804.67"/>
<polygon fill="none" stroke="#404040" points="450.23,-804.44 452.26,-797.53 459.43,-796.74 457.4,-803.66 450.23,-804.44"/>
<text text-anchor="middle" x="446" y="-829" font-family="Helvetica,sans-Serif" font-size="10.00"> #blockProvider_</text>
</g>
<!-- Node4 -->
<g id="node4" class="node">
<title>Node4</title>
<g id="a_node4"><a xlink:href="structaltintegration_1_1Chain.html" target="_top" xlink:title=" ">
<polygon fill="white" stroke="black" points="0,-855.5 0,-1033.5 141,-1033.5 141,-855.5 0,-855.5"/>
<text text-anchor="start" x="8" y="-1021.5" font-family="Helvetica,sans-Serif" font-size="10.00">altintegration::Chain</text>
<text text-anchor="middle" x="70.5" y="-1010.5" font-family="Helvetica,sans-Serif" font-size="10.00">&lt; altintegration::BlockIndex &gt;</text>
<polyline fill="none" stroke="black" points="0,-1003.5 141,-1003.5 "/>
<text text-anchor="middle" x="70.5" y="-991.5" font-family="Helvetica,sans-Serif" font-size="10.00"> </text>
<polyline fill="none" stroke="black" points="0,-984.5 141,-984.5 "/>
<text text-anchor="start" x="8" y="-972.5" font-family="Helvetica,sans-Serif" font-size="10.00">+ Chain()</text>
<text text-anchor="start" x="8" y="-961.5" font-family="Helvetica,sans-Serif" font-size="10.00">+ Chain()</text>
<text text-anchor="start" x="8" y="-950.5" font-family="Helvetica,sans-Serif" font-size="10.00">+ Chain()</text>
<text text-anchor="start" x="8" y="-939.5" font-family="Helvetica,sans-Serif" font-size="10.00">+ getStartHeight()</text>
<text text-anchor="start" x="8" y="-928.5" font-family="Helvetica,sans-Serif" font-size="10.00">+ firstHeight()</text>
<text text-anchor="start" x="8" y="-917.5" font-family="Helvetica,sans-Serif" font-size="10.00">+ contains()</text>
<text text-anchor="start" x="8" y="-906.5" font-family="Helvetica,sans-Serif" font-size="10.00">+ operator[]()</text>
<text text-anchor="start" x="8" y="-895.5" font-family="Helvetica,sans-Serif" font-size="10.00">+ next()</text>
<text text-anchor="start" x="8" y="-884.5" font-family="Helvetica,sans-Serif" font-size="10.00">+ chainHeight()</text>
<text text-anchor="start" x="8" y="-873.5" font-family="Helvetica,sans-Serif" font-size="10.00">+ empty()</text>
<text text-anchor="start" x="8" y="-862.5" font-family="Helvetica,sans-Serif" font-size="10.00">and 15 more...</text>
</a>
</g>
</g>
<!-- Node4&#45;&gt;Node2 -->
<g id="edge3" class="edge">
<title>Node4&#45;&gt;Node2</title>
<path fill="none" stroke="#404040" d="M71.73,-855.22C76.89,-772.92 95.24,-650.12 155.5,-563 197.26,-502.63 268.36,-458.48 325.2,-430.56"/>
<polygon fill="none" stroke="#404040" points="325.55,-430.39 329.23,-424.18 336.37,-425.19 332.69,-431.39 325.55,-430.39"/>
<text text-anchor="middle" x="187.5" y="-683" font-family="Helvetica,sans-Serif" font-size="10.00"> #activeChain_</text>
</g>
<!-- Node4&#45;&gt;Node20 -->
<g id="edge27" class="edge">
<title>Node4&#45;&gt;Node20</title>
<path fill="none" stroke="#404040" d="M141.05,-861.17C144.14,-858.96 147.29,-856.9 150.5,-855 198.86,-826.43 218.12,-835.39 273.5,-826 311.39,-819.58 412.13,-827.05 445.5,-808 446.7,-807.32 447.88,-806.61 449.06,-805.88"/>
<polygon fill="none" stroke="#404040" points="449.46,-805.61 452.11,-798.9 459.32,-798.77 456.67,-805.48 449.46,-805.61"/>
<text text-anchor="middle" x="305.5" y="-829" font-family="Helvetica,sans-Serif" font-size="10.00"> #activeChain_</text>
</g>
<!-- Node5 -->
<g id="node5" class="node">
<title>Node5</title>
<g id="a_node5"><a xlink:href="structaltintegration_1_1Chain.html" target="_top" xlink:title="Fully in&#45;memory chain representation.">
<polygon fill="white" stroke="black" points="15,-1109 15,-1287 116,-1287 116,-1109 15,-1109"/>
<text text-anchor="start" x="23" y="-1275" font-family="Helvetica,sans-Serif" font-size="10.00">altintegration::Chain</text>
<text text-anchor="middle" x="65.5" y="-1264" font-family="Helvetica,sans-Serif" font-size="10.00">&lt; BlockIndexT &gt;</text>
<polyline fill="none" stroke="black" points="15,-1257 116,-1257 "/>
<text text-anchor="middle" x="65.5" y="-1245" font-family="Helvetica,sans-Serif" font-size="10.00"> </text>
<polyline fill="none" stroke="black" points="15,-1238 116,-1238 "/>
<text text-anchor="start" x="23" y="-1226" font-family="Helvetica,sans-Serif" font-size="10.00">+ Chain()</text>
<text text-anchor="start" x="23" y="-1215" font-family="Helvetica,sans-Serif" font-size="10.00">+ Chain()</text>
<text text-anchor="start" x="23" y="-1204" font-family="Helvetica,sans-Serif" font-size="10.00">+ Chain()</text>
<text text-anchor="start" x="23" y="-1193" font-family="Helvetica,sans-Serif" font-size="10.00">+ getStartHeight()</text>
<text text-anchor="start" x="23" y="-1182" font-family="Helvetica,sans-Serif" font-size="10.00">+ firstHeight()</text>
<text text-anchor="start" x="23" y="-1171" font-family="Helvetica,sans-Serif" font-size="10.00">+ contains()</text>
<text text-anchor="start" x="23" y="-1160" font-family="Helvetica,sans-Serif" font-size="10.00">+ operator[]()</text>
<text text-anchor="start" x="23" y="-1149" font-family="Helvetica,sans-Serif" font-size="10.00">+ next()</text>
<text text-anchor="start" x="23" y="-1138" font-family="Helvetica,sans-Serif" font-size="10.00">+ chainHeight()</text>
<text text-anchor="start" x="23" y="-1127" font-family="Helvetica,sans-Serif" font-size="10.00">+ empty()</text>
<text text-anchor="start" x="23" y="-1116" font-family="Helvetica,sans-Serif" font-size="10.00">and 15 more...</text>
</a>
</g>
</g>
<!-- Node5&#45;&gt;Node4 -->
<g id="edge4" class="edge">
<title>Node5&#45;&gt;Node4</title>
<path fill="none" stroke="orange" d="M65.77,-1098.63C65.93,-1083.03 66.17,-1067.07 66.5,-1052 66.63,-1045.99 66.8,-1039.79 66.98,-1033.54"/>
<polygon fill="orange" stroke="orange" points="62.27,-1098.78 65.68,-1108.81 69.27,-1098.85 62.27,-1098.78"/>
<text text-anchor="middle" x="130" y="-1060.5" font-family="Helvetica,sans-Serif" font-size="10.00"> &lt; altintegration::BlockIndex &gt;</text>
</g>
<!-- Node6 -->
<g id="node6" class="node">
<title>Node6</title>
<g id="a_node6"><a xlink:title=" ">
<polygon fill="white" stroke="#bfbfbf" points="608,-905 608,-984 745,-984 745,-905 608,-905"/>
<text text-anchor="start" x="616" y="-972" font-family="Helvetica,sans-Serif" font-size="10.00">std::unordered_map</text>
<text text-anchor="start" x="616" y="-961" font-family="Helvetica,sans-Serif" font-size="10.00">&lt; prev_block_hash_t,</text>
<text text-anchor="middle" x="676.5" y="-950" font-family="Helvetica,sans-Serif" font-size="10.00"> std::unique_ptr&lt; index_t &gt; &gt;</text>
<polyline fill="none" stroke="#bfbfbf" points="608,-943 745,-943 "/>
<text text-anchor="start" x="616" y="-931" font-family="Helvetica,sans-Serif" font-size="10.00">+ keys</text>
<polyline fill="none" stroke="#bfbfbf" points="608,-924 745,-924 "/>
<text text-anchor="middle" x="676.5" y="-912" font-family="Helvetica,sans-Serif" font-size="10.00"> </text>
</a>
</g>
</g>
<!-- Node6&#45;&gt;Node2 -->
<g id="edge5" class="edge">
<title>Node6&#45;&gt;Node2</title>
<path fill="none" stroke="#404040" d="M679.65,-904.93C683.74,-832.72 683.98,-674.38 620.5,-563 592,-512.99 542.39,-471.93 498.77,-442.87"/>
<polygon fill="none" stroke="#404040" points="498.75,-442.85 491.54,-442.93 488.7,-436.3 495.91,-436.23 498.75,-442.85"/>
<text text-anchor="middle" x="700.5" y="-683" font-family="Helvetica,sans-Serif" font-size="10.00"> #blocks_</text>
</g>
<!-- Node6&#45;&gt;Node20 -->
<g id="edge28" class="edge">
<title>Node6&#45;&gt;Node20</title>
<path fill="none" stroke="#404040" d="M648.73,-904.95C634.97,-885.1 618.56,-860.25 605.5,-837 602.11,-830.96 598.74,-824.74 595.42,-818.4"/>
<polygon fill="none" stroke="#404040" points="595.38,-818.33 589.07,-814.83 589.87,-807.67 596.18,-811.16 595.38,-818.33"/>
<text text-anchor="middle" x="626.5" y="-829" font-family="Helvetica,sans-Serif" font-size="10.00"> #blocks_</text>
</g>
<!-- Node7 -->
<g id="node7" class="node">
<title>Node7</title>
<g id="a_node7"><a xlink:title=" ">
<polygon fill="white" stroke="#bfbfbf" points="624,-1322.5 624,-1379.5 751,-1379.5 751,-1322.5 624,-1322.5"/>
<text text-anchor="middle" x="687.5" y="-1367.5" font-family="Helvetica,sans-Serif" font-size="10.00">std::unique_ptr&lt; index_t &gt;</text>
<polyline fill="none" stroke="#bfbfbf" points="624,-1360.5 751,-1360.5 "/>
<text text-anchor="start" x="632" y="-1348.5" font-family="Helvetica,sans-Serif" font-size="10.00">+ ptr</text>
<polyline fill="none" stroke="#bfbfbf" points="624,-1341.5 751,-1341.5 "/>
<text text-anchor="start" x="632" y="-1329.5" font-family="Helvetica,sans-Serif" font-size="10.00">+ operator&#45;&gt;()</text>
</a>
</g>
</g>
<!-- Node7&#45;&gt;Node6 -->
<g id="edge6" class="edge">
<title>Node7&#45;&gt;Node6</title>
<path fill="none" stroke="#404040" d="M686.74,-1322.2C684.91,-1254.91 680.23,-1082.51 677.88,-996.25"/>
<polygon fill="none" stroke="#404040" points="677.88,-996.16 673.72,-990.28 677.55,-984.17 681.71,-990.06 677.88,-996.16"/>
<text text-anchor="middle" x="710" y="-1195.5" font-family="Helvetica,sans-Serif" font-size="10.00"> +elements</text>
</g>
<!-- Node8 -->
<g id="node8" class="node">
<title>Node8</title>
<g id="a_node8"><a xlink:title=" ">
<polygon fill="white" stroke="#bfbfbf" points="636.5,-1474.5 636.5,-1531.5 738.5,-1531.5 738.5,-1474.5 636.5,-1474.5"/>
<text text-anchor="middle" x="687.5" y="-1519.5" font-family="Helvetica,sans-Serif" font-size="10.00">std::unique_ptr&lt; T &gt;</text>
<polyline fill="none" stroke="#bfbfbf" points="636.5,-1512.5 738.5,-1512.5 "/>
<text text-anchor="middle" x="687.5" y="-1500.5" font-family="Helvetica,sans-Serif" font-size="10.00"> </text>
<polyline fill="none" stroke="#bfbfbf" points="636.5,-1493.5 738.5,-1493.5 "/>
<text text-anchor="start" x="644.5" y="-1481.5" font-family="Helvetica,sans-Serif" font-size="10.00">+ operator&#45;&gt;()</text>
</a>
</g>
</g>
<!-- Node8&#45;&gt;Node7 -->
<g id="edge7" class="edge">
<title>Node8&#45;&gt;Node7</title>
<path fill="none" stroke="orange" d="M687.5,-1464.47C687.5,-1438.11 687.5,-1403.43 687.5,-1379.59"/>
<polygon fill="orange" stroke="orange" points="684,-1464.49 687.5,-1474.49 691,-1464.49 684,-1464.49"/>
<text text-anchor="middle" x="712.5" y="-1424.5" font-family="Helvetica,sans-Serif" font-size="10.00"> &lt; index_t &gt;</text>
</g>
<!-- Node9 -->
<g id="node9" class="node">
<title>Node9</title>
<g id="a_node9"><a xlink:title=" ">
<polygon fill="white" stroke="#bfbfbf" points="673,-1655.5 673,-1712.5 702,-1712.5 702,-1655.5 673,-1655.5"/>
<text text-anchor="middle" x="687.5" y="-1700.5" font-family="Helvetica,sans-Serif" font-size="10.00">T</text>
<polyline fill="none" stroke="#bfbfbf" points="673,-1693.5 702,-1693.5 "/>
<text text-anchor="middle" x="687.5" y="-1681.5" font-family="Helvetica,sans-Serif" font-size="10.00"> </text>
<polyline fill="none" stroke="#bfbfbf" points="673,-1674.5 702,-1674.5 "/>
<text text-anchor="middle" x="687.5" y="-1662.5" font-family="Helvetica,sans-Serif" font-size="10.00"> </text>
</a>
</g>
</g>
<!-- Node9&#45;&gt;Node8 -->
<g id="edge8" class="edge">
<title>Node9&#45;&gt;Node8</title>
<path fill="none" stroke="#404040" d="M687.5,-1655.42C687.5,-1625.6 687.5,-1577.77 687.5,-1543.86"/>
<polygon fill="none" stroke="#404040" points="687.5,-1543.61 683.5,-1537.61 687.5,-1531.61 691.5,-1537.61 687.5,-1543.61"/>
<text text-anchor="middle" x="697.5" y="-1629" font-family="Helvetica,sans-Serif" font-size="10.00"> +ptr</text>
</g>
<!-- Node10 -->
<g id="node10" class="node">
<title>Node10</title>
<g id="a_node10"><a xlink:title=" ">
<polygon fill="white" stroke="#bfbfbf" points="746,-1164 746,-1232 847,-1232 847,-1164 746,-1164"/>
<text text-anchor="start" x="754" y="-1220" font-family="Helvetica,sans-Serif" font-size="10.00">std::unordered_map</text>
<text text-anchor="middle" x="796.5" y="-1209" font-family="Helvetica,sans-Serif" font-size="10.00">&lt; K, T &gt;</text>
<polyline fill="none" stroke="#bfbfbf" points="746,-1202 847,-1202 "/>
<text text-anchor="middle" x="796.5" y="-1190" font-family="Helvetica,sans-Serif" font-size="10.00"> </text>
<polyline fill="none" stroke="#bfbfbf" points="746,-1183 847,-1183 "/>
<text text-anchor="middle" x="796.5" y="-1171" font-family="Helvetica,sans-Serif" font-size="10.00"> </text>
</a>
</g>
</g>
<!-- Node9&#45;&gt;Node10 -->
<g id="edge11" class="edge">
<title>Node9&#45;&gt;Node10</title>
<path fill="none" stroke="#404040" d="M702.15,-1656.57C705.42,-1650.25 708.73,-1643.46 711.5,-1637 730.97,-1591.67 735.86,-1579.94 747.5,-1532 772.06,-1430.85 786.16,-1309.24 792.47,-1244.62"/>
<polygon fill="none" stroke="#404040" points="792.49,-1244.42 789.08,-1238.07 793.63,-1232.47 797.04,-1238.83 792.49,-1244.42"/>
<text text-anchor="middle" x="784" y="-1500.5" font-family="Helvetica,sans-Serif" font-size="10.00"> +elements</text>
</g>
<!-- Node16 -->
<g id="node16" class="node">
<title>Node16</title>
<g id="a_node16"><a xlink:title=" ">
<polygon fill="white" stroke="#bfbfbf" points="508,-1550.5 508,-1607.5 611,-1607.5 611,-1550.5 508,-1550.5"/>
<text text-anchor="middle" x="559.5" y="-1595.5" font-family="Helvetica,sans-Serif" font-size="10.00">std::shared_ptr&lt; T &gt;</text>
<polyline fill="none" stroke="#bfbfbf" points="508,-1588.5 611,-1588.5 "/>
<text text-anchor="middle" x="559.5" y="-1576.5" font-family="Helvetica,sans-Serif" font-size="10.00"> </text>
<polyline fill="none" stroke="#bfbfbf" points="508,-1569.5 611,-1569.5 "/>
<text text-anchor="start" x="516" y="-1557.5" font-family="Helvetica,sans-Serif" font-size="10.00">+ operator&#45;&gt;()</text>
</a>
</g>
</g>
<!-- Node9&#45;&gt;Node16 -->
<g id="edge17" class="edge">
<title>Node9&#45;&gt;Node16</title>
<path fill="none" stroke="#404040" d="M672.82,-1671.18C655.95,-1657.61 627.48,-1634.7 603.3,-1615.24"/>
<polygon fill="none" stroke="#404040" points="603.28,-1615.23 596.1,-1614.58 593.93,-1607.71 601.11,-1608.35 603.28,-1615.23"/>
<text text-anchor="middle" x="636.5" y="-1629" font-family="Helvetica,sans-Serif" font-size="10.00"> +ptr</text>
</g>
<!-- Node10&#45;&gt;Node6 -->
<g id="edge9" class="edge">
<title>Node10&#45;&gt;Node6</title>
<path fill="none" stroke="orange" d="M776.33,-1154.73C753.58,-1107.06 716.9,-1030.17 694.9,-984.07"/>
<polygon fill="orange" stroke="orange" points="773.22,-1156.34 780.69,-1163.86 779.54,-1153.33 773.22,-1156.34"/>
<text text-anchor="start" x="736.5" y="-1066" font-family="Helvetica,sans-Serif" font-size="10.00"> &lt; prev_block_hash_t,</text>
<text text-anchor="middle" x="797" y="-1055" font-family="Helvetica,sans-Serif" font-size="10.00"> std::unique_ptr&lt; index_t &gt; &gt;</text>
</g>
<!-- Node11 -->
<g id="node11" class="node">
<title>Node11</title>
<g id="a_node11"><a xlink:title=" ">
<polygon fill="white" stroke="#bfbfbf" points="523,-1398.5 523,-1455.5 552,-1455.5 552,-1398.5 523,-1398.5"/>
<text text-anchor="middle" x="537.5" y="-1443.5" font-family="Helvetica,sans-Serif" font-size="10.00">K</text>
<polyline fill="none" stroke="#bfbfbf" points="523,-1436.5 552,-1436.5 "/>
<text text-anchor="middle" x="537.5" y="-1424.5" font-family="Helvetica,sans-Serif" font-size="10.00"> </text>
<polyline fill="none" stroke="#bfbfbf" points="523,-1417.5 552,-1417.5 "/>
<text text-anchor="middle" x="537.5" y="-1405.5" font-family="Helvetica,sans-Serif" font-size="10.00"> </text>
</a>
</g>
</g>
<!-- Node11&#45;&gt;Node10 -->
<g id="edge10" class="edge">
<title>Node11&#45;&gt;Node10</title>
<path fill="none" stroke="#404040" d="M552.13,-1406.06C557.46,-1398.21 563.21,-1388.94 567.5,-1380 579.23,-1355.54 565.56,-1339.24 586.5,-1322 636.63,-1280.72 676.83,-1339.04 731.5,-1304 753.63,-1289.81 769.48,-1265.13 779.98,-1243.25"/>
<polygon fill="none" stroke="#404040" points="780.06,-1243.08 778.87,-1235.97 784.99,-1232.14 786.17,-1239.25 780.06,-1243.08"/>
<text text-anchor="middle" x="601" y="-1348.5" font-family="Helvetica,sans-Serif" font-size="10.00"> +keys</text>
</g>
<!-- Node18 -->
<g id="node18" class="node">
<title>Node18</title>
<g id="a_node18"><a xlink:title=" ">
<polygon fill="white" stroke="#bfbfbf" points="394,-1169.5 394,-1226.5 465,-1226.5 465,-1169.5 394,-1169.5"/>
<text text-anchor="middle" x="429.5" y="-1214.5" font-family="Helvetica,sans-Serif" font-size="10.00">std::set&lt; K &gt;</text>
<polyline fill="none" stroke="#bfbfbf" points="394,-1207.5 465,-1207.5 "/>
<text text-anchor="middle" x="429.5" y="-1195.5" font-family="Helvetica,sans-Serif" font-size="10.00"> </text>
<polyline fill="none" stroke="#bfbfbf" points="394,-1188.5 465,-1188.5 "/>
<text text-anchor="middle" x="429.5" y="-1176.5" font-family="Helvetica,sans-Serif" font-size="10.00"> </text>
</a>
</g>
</g>
<!-- Node11&#45;&gt;Node18 -->
<g id="edge22" class="edge">
<title>Node11&#45;&gt;Node18</title>
<path fill="none" stroke="#404040" d="M522.67,-1407.4C516.59,-1399.27 509.75,-1389.45 504.5,-1380 478.47,-1333.19 456.09,-1275.49 442.71,-1238"/>
<polygon fill="none" stroke="#404040" points="442.68,-1237.9 436.91,-1233.57 438.69,-1226.58 444.46,-1230.91 442.68,-1237.9"/>
<text text-anchor="middle" x="519" y="-1348.5" font-family="Helvetica,sans-Serif" font-size="10.00"> +keys</text>
</g>
<!-- Node19 -->
<g id="node19" class="node">
<title>Node19</title>
<g id="a_node19"><a xlink:title=" ">
<polygon fill="white" stroke="#bfbfbf" points="483,-1169.5 483,-1226.5 602,-1226.5 602,-1169.5 483,-1169.5"/>
<text text-anchor="middle" x="542.5" y="-1214.5" font-family="Helvetica,sans-Serif" font-size="10.00">std::unordered_set&lt; K &gt;</text>
<polyline fill="none" stroke="#bfbfbf" points="483,-1207.5 602,-1207.5 "/>
<text text-anchor="middle" x="542.5" y="-1195.5" font-family="Helvetica,sans-Serif" font-size="10.00"> </text>
<polyline fill="none" stroke="#bfbfbf" points="483,-1188.5 602,-1188.5 "/>
<text text-anchor="middle" x="542.5" y="-1176.5" font-family="Helvetica,sans-Serif" font-size="10.00"> </text>
</a>
</g>
</g>
<!-- Node11&#45;&gt;Node19 -->
<g id="edge24" class="edge">
<title>Node11&#45;&gt;Node19</title>
<path fill="none" stroke="#404040" d="M537.59,-1398.19C537.71,-1377.24 537.96,-1347.81 538.5,-1322 539.08,-1294.3 540.1,-1263.1 540.97,-1239.05"/>
<polygon fill="none" stroke="#404040" points="540.97,-1238.83 537.2,-1232.69 541.41,-1226.84 545.19,-1232.98 540.97,-1238.83"/>
<text text-anchor="middle" x="553" y="-1348.5" font-family="Helvetica,sans-Serif" font-size="10.00"> +keys</text>
</g>
<!-- Node12 -->
<g id="node12" class="node">
<title>Node12</title>
<g id="a_node12"><a xlink:title=" ">
<polygon fill="white" stroke="#bfbfbf" points="442,-910.5 442,-978.5 589,-978.5 589,-910.5 442,-910.5"/>
<text text-anchor="start" x="450" y="-966.5" font-family="Helvetica,sans-Serif" font-size="10.00">std::unordered_set</text>
<text text-anchor="middle" x="515.5" y="-955.5" font-family="Helvetica,sans-Serif" font-size="10.00">&lt; altintegration::BlockIndex * &gt;</text>
<polyline fill="none" stroke="#bfbfbf" points="442,-948.5 589,-948.5 "/>
<text text-anchor="middle" x="515.5" y="-936.5" font-family="Helvetica,sans-Serif" font-size="10.00"> </text>
<polyline fill="none" stroke="#bfbfbf" points="442,-929.5 589,-929.5 "/>
<text text-anchor="middle" x="515.5" y="-917.5" font-family="Helvetica,sans-Serif" font-size="10.00"> </text>
</a>
</g>
</g>
<!-- Node12&#45;&gt;Node2 -->
<g id="edge12" class="edge">
<title>Node12&#45;&gt;Node2</title>
<path fill="none" stroke="#404040" d="M484.12,-910.36C462,-884.65 434.15,-846.94 421.5,-808 392.16,-717.69 390.73,-610.34 396.21,-527.65"/>
<polygon fill="none" stroke="#404040" points="396.21,-527.61 392.65,-521.34 397.06,-515.64 400.62,-521.9 396.21,-527.61"/>
<text text-anchor="middle" x="436" y="-683" font-family="Helvetica,sans-Serif" font-size="10.00"> #tips_</text>
</g>
<!-- Node12&#45;&gt;Node20 -->
<g id="edge29" class="edge">
<title>Node12&#45;&gt;Node20</title>
<path fill="none" stroke="#404040" d="M518.07,-910.43C519.91,-886.84 522.51,-853.43 525.14,-819.59"/>
<polygon fill="none" stroke="#404040" points="525.14,-819.58 521.62,-813.29 526.07,-807.61 529.6,-813.91 525.14,-819.58"/>
<text text-anchor="middle" x="538" y="-829" font-family="Helvetica,sans-Serif" font-size="10.00"> #tips_</text>
</g>
<!-- Node13 -->
<g id="node13" class="node">
<title>Node13</title>
<g id="a_node13"><a xlink:href="structaltintegration_1_1BlockIndex.html" target="_top" xlink:title="A node in a block tree.">
<polygon fill="white" stroke="black" points="200,-1092.5 200,-1303.5 325,-1303.5 325,-1092.5 200,-1092.5"/>
<text text-anchor="start" x="208" y="-1291.5" font-family="Helvetica,sans-Serif" font-size="10.00">altintegration::BlockIndex</text>
<text text-anchor="middle" x="262.5" y="-1280.5" font-family="Helvetica,sans-Serif" font-size="10.00">&lt; Block &gt;</text>
<polyline fill="none" stroke="black" points="200,-1273.5 325,-1273.5 "/>
<text text-anchor="start" x="208" y="-1261.5" font-family="Helvetica,sans-Serif" font-size="10.00">+ finalized</text>
<text text-anchor="start" x="208" y="-1250.5" font-family="Helvetica,sans-Serif" font-size="10.00"># height</text>
<text text-anchor="start" x="208" y="-1239.5" font-family="Helvetica,sans-Serif" font-size="10.00"># status</text>
<text text-anchor="start" x="208" y="-1228.5" font-family="Helvetica,sans-Serif" font-size="10.00"># dirty</text>
<polyline fill="none" stroke="black" points="200,-1221.5 325,-1221.5 "/>
<text text-anchor="start" x="208" y="-1209.5" font-family="Helvetica,sans-Serif" font-size="10.00">+ BlockIndex()</text>
<text text-anchor="start" x="208" y="-1198.5" font-family="Helvetica,sans-Serif" font-size="10.00">+ BlockIndex()</text>
<text text-anchor="start" x="208" y="-1187.5" font-family="Helvetica,sans-Serif" font-size="10.00">+ ~BlockIndex()</text>
<text text-anchor="start" x="208" y="-1176.5" font-family="Helvetica,sans-Serif" font-size="10.00">+ BlockIndex()</text>
<text text-anchor="start" x="208" y="-1165.5" font-family="Helvetica,sans-Serif" font-size="10.00">+ operator=()</text>
<text text-anchor="start" x="208" y="-1154.5" font-family="Helvetica,sans-Serif" font-size="10.00">+ isDeleted()</text>
<text text-anchor="start" x="208" y="-1143.5" font-family="Helvetica,sans-Serif" font-size="10.00">+ restore()</text>
<text text-anchor="start" x="208" y="-1132.5" font-family="Helvetica,sans-Serif" font-size="10.00">+ deleteTemporarily()</text>
<text text-anchor="start" x="208" y="-1121.5" font-family="Helvetica,sans-Serif" font-size="10.00">+ mergeFrom()</text>
<text text-anchor="start" x="208" y="-1110.5" font-family="Helvetica,sans-Serif" font-size="10.00">+ toStoredBlockIndex()</text>
<text text-anchor="start" x="208" y="-1099.5" font-family="Helvetica,sans-Serif" font-size="10.00">and 39 more...</text>
</a>
</g>
</g>
<!-- Node13&#45;&gt;Node12 -->
<g id="edge13" class="edge">
<title>Node13&#45;&gt;Node12</title>
<path fill="none" stroke="#404040" d="M313.21,-1092.18C324.37,-1076.93 337.44,-1062.78 352.5,-1052 381.43,-1031.3 399.56,-1051.56 430.5,-1034 450.63,-1022.57 468.99,-1004.9 483.45,-988.34"/>
<polygon fill="none" stroke="#404040" points="483.77,-987.96 484.58,-980.79 491.5,-978.78 490.7,-985.95 483.77,-987.96"/>
<text text-anchor="middle" x="367" y="-1060.5" font-family="Helvetica,sans-Serif" font-size="10.00"> +keys</text>
</g>
<!-- Node13&#45;&gt;Node13 -->
<g id="edge18" class="edge">
<title>Node13&#45;&gt;Node13</title>
<path fill="none" stroke="#404040" d="M325.28,-1221.35C335.76,-1218.08 343,-1210.3 343,-1198 343,-1190.5 340.31,-1184.69 335.84,-1180.54"/>
<polygon fill="none" stroke="#404040" points="335.76,-1180.5 328.57,-1181.06 325.28,-1174.65 332.47,-1174.08 335.76,-1180.5"/>
<text text-anchor="middle" x="359.5" y="-1195.5" font-family="Helvetica,sans-Serif" font-size="10.00"> +pprev</text>
</g>
<!-- Node17 -->
<g id="node17" class="node">
<title>Node17</title>
<g id="a_node17"><a xlink:title=" ">
<polygon fill="white" stroke="#bfbfbf" points="309.5,-910.5 309.5,-978.5 421.5,-978.5 421.5,-910.5 309.5,-910.5"/>
<text text-anchor="start" x="317.5" y="-966.5" font-family="Helvetica,sans-Serif" font-size="10.00">std::set&lt; altintegration</text>
<text text-anchor="middle" x="365.5" y="-955.5" font-family="Helvetica,sans-Serif" font-size="10.00">::BlockIndex * &gt;</text>
<polyline fill="none" stroke="#bfbfbf" points="309.5,-948.5 421.5,-948.5 "/>
<text text-anchor="middle" x="365.5" y="-936.5" font-family="Helvetica,sans-Serif" font-size="10.00"> </text>
<polyline fill="none" stroke="#bfbfbf" points="309.5,-929.5 421.5,-929.5 "/>
<text text-anchor="middle" x="365.5" y="-917.5" font-family="Helvetica,sans-Serif" font-size="10.00"> </text>
</a>
</g>
</g>
<!-- Node13&#45;&gt;Node17 -->
<g id="edge20" class="edge">
<title>Node13&#45;&gt;Node17</title>
<path fill="none" stroke="#404040" d="M214.52,-1092.18C213.97,-1077.74 217.2,-1063.83 226.5,-1052 247.42,-1025.39 272.34,-1052.77 300.5,-1034 317.42,-1022.72 331.52,-1005.49 342.21,-989.21"/>
<polygon fill="none" stroke="#404040" points="342.4,-988.91 342.18,-981.7 348.75,-978.72 348.97,-985.93 342.4,-988.91"/>
<text text-anchor="middle" x="241" y="-1060.5" font-family="Helvetica,sans-Serif" font-size="10.00"> +keys</text>
</g>
<!-- Node14 -->
<g id="node14" class="node">
<title>Node14</title>
<g id="a_node14"><a xlink:title=" ">
<polygon fill="white" stroke="#bfbfbf" points="222.5,-1398.5 222.5,-1455.5 302.5,-1455.5 302.5,-1398.5 222.5,-1398.5"/>
<text text-anchor="middle" x="262.5" y="-1443.5" font-family="Helvetica,sans-Serif" font-size="10.00">Block::addon_t</text>
<polyline fill="none" stroke="#bfbfbf" points="222.5,-1436.5 302.5,-1436.5 "/>
<text text-anchor="middle" x="262.5" y="-1424.5" font-family="Helvetica,sans-Serif" font-size="10.00"> </text>
<polyline fill="none" stroke="#bfbfbf" points="222.5,-1417.5 302.5,-1417.5 "/>
<text text-anchor="middle" x="262.5" y="-1405.5" font-family="Helvetica,sans-Serif" font-size="10.00"> </text>
</a>
</g>
</g>
<!-- Node14&#45;&gt;Node13 -->
<g id="edge14" class="edge">
<title>Node14&#45;&gt;Node13</title>
<path fill="none" stroke="midnightblue" d="M262.5,-1388.05C262.5,-1364.79 262.5,-1333.76 262.5,-1303.58"/>
<polygon fill="none" stroke="midnightblue" points="259,-1388.17 262.5,-1398.17 266,-1388.17 259,-1388.17"/>
</g>
<!-- Node15 -->
<g id="node15" class="node">
<title>Node15</title>
<g id="a_node15"><a xlink:title=" ">
<polygon fill="white" stroke="#bfbfbf" points="369.5,-1398.5 369.5,-1455.5 497.5,-1455.5 497.5,-1398.5 369.5,-1398.5"/>
<text text-anchor="middle" x="433.5" y="-1443.5" font-family="Helvetica,sans-Serif" font-size="10.00">std::shared_ptr&lt; block_t &gt;</text>
<polyline fill="none" stroke="#bfbfbf" points="369.5,-1436.5 497.5,-1436.5 "/>
<text text-anchor="start" x="377.5" y="-1424.5" font-family="Helvetica,sans-Serif" font-size="10.00">+ ptr</text>
<polyline fill="none" stroke="#bfbfbf" points="369.5,-1417.5 497.5,-1417.5 "/>
<text text-anchor="start" x="377.5" y="-1405.5" font-family="Helvetica,sans-Serif" font-size="10.00">+ operator&#45;&gt;()</text>
</a>
</g>
</g>
<!-- Node15&#45;&gt;Node13 -->
<g id="edge15" class="edge">
<title>Node15&#45;&gt;Node13</title>
<path fill="none" stroke="#404040" d="M412.53,-1398.17C392.51,-1371.59 361.21,-1330.03 332.36,-1291.74"/>
<polygon fill="none" stroke="#404040" points="332.31,-1291.67 325.5,-1289.29 325.09,-1282.09 331.89,-1284.47 332.31,-1291.67"/>
<text text-anchor="middle" x="416" y="-1348.5" font-family="Helvetica,sans-Serif" font-size="10.00"> #header</text>
</g>
<!-- Node16&#45;&gt;Node15 -->
<g id="edge16" class="edge">
<title>Node16&#45;&gt;Node15</title>
<path fill="none" stroke="orange" d="M529.73,-1542.56C507.39,-1515.96 477.24,-1480.07 456.68,-1455.59"/>
<polygon fill="orange" stroke="orange" points="527.28,-1545.08 536.39,-1550.49 532.64,-1540.58 527.28,-1545.08"/>
<text text-anchor="middle" x="544" y="-1500.5" font-family="Helvetica,sans-Serif" font-size="10.00"> &lt; block_t &gt;</text>
</g>
<!-- Node17&#45;&gt;Node13 -->
<g id="edge19" class="edge">
<title>Node17&#45;&gt;Node13</title>
<path fill="none" stroke="#404040" d="M345.87,-978.89C334.25,-996.73 318.34,-1018.2 300.5,-1034 288.28,-1044.82 277.03,-1038.09 268.5,-1052 263.15,-1060.72 259.35,-1070.33 256.74,-1080.31"/>
<polygon fill="none" stroke="#404040" points="256.71,-1080.45 259.37,-1087.15 254.2,-1092.18 251.54,-1085.48 256.71,-1080.45"/>
<text text-anchor="middle" x="284.5" y="-1060.5" font-family="Helvetica,sans-Serif" font-size="10.00"> +pnext</text>
</g>
<!-- Node18&#45;&gt;Node17 -->
<g id="edge21" class="edge">
<title>Node18&#45;&gt;Node17</title>
<path fill="none" stroke="orange" d="M416.06,-1159.94C407.62,-1135.72 396.96,-1103.26 389.5,-1074 381.32,-1041.89 374.66,-1004.61 370.45,-978.5"/>
<polygon fill="orange" stroke="orange" points="412.78,-1161.19 419.41,-1169.46 419.39,-1158.86 412.78,-1161.19"/>
<text text-anchor="middle" x="456" y="-1060.5" font-family="Helvetica,sans-Serif" font-size="10.00"> &lt; altintegration::BlockIndex * &gt;</text>
</g>
<!-- Node19&#45;&gt;Node12 -->
<g id="edge23" class="edge">
<title>Node19&#45;&gt;Node12</title>
<path fill="none" stroke="orange" d="M538.41,-1158.92C533.14,-1109.83 524.06,-1025.25 519.06,-978.67"/>
<polygon fill="orange" stroke="orange" points="534.96,-1159.55 539.51,-1169.12 541.92,-1158.81 534.96,-1159.55"/>
<text text-anchor="middle" x="595" y="-1060.5" font-family="Helvetica,sans-Serif" font-size="10.00"> &lt; altintegration::BlockIndex * &gt;</text>
</g>
<!-- Node20&#45;&gt;Node2 -->
<g id="edge25" class="edge">
<title>Node20&#45;&gt;Node2</title>
<path fill="none" stroke="orange" d="M480.14,-553.97C474.75,-541.26 469.29,-528.4 463.94,-515.79"/>
<polygon fill="orange" stroke="orange" points="476.92,-555.35 484.05,-563.19 483.37,-552.62 476.92,-555.35"/>
<text text-anchor="middle" x="501.5" y="-537" font-family="Helvetica,sans-Serif" font-size="10.00"> &lt; AltBlock &gt;</text>
</g>
</g>
</svg>
