<?xml version="1.0" encoding="UTF-8" standalone="no"?>
<!DOCTYPE svg PUBLIC "-//W3C//DTD SVG 1.1//EN"
 "http://www.w3.org/Graphics/SVG/1.1/DTD/svg11.dtd">
<!-- Generated by graphviz version 2.44.0 ()
 -->
<!-- Title: altintegration::VbkPopTx Pages: 1 -->
<!--zoomable 1146 -->
<svg id="main" version="1.1" xmlns="http://www.w3.org/2000/svg" xmlns:xlink="http://www.w3.org/1999/xlink" xml:space="preserve" onload="init(evt)">
<style type="text/css"><![CDATA[
.edge:hover path { stroke: red; }
.edge:hover polygon { stroke: red; fill: red; }
]]></style>
<script type="text/javascript"><![CDATA[
var edges = document.getElementsByTagName('g');
if (edges && edges.length) {
  for (var i=0;i<edges.length;i++) {
    if (edges[i].id.substr(0,4)=='edge') {
      edges[i].setAttribute('class','edge');
    }
  }
}
]]></script>
        <defs>
                <circle id="rim" cx="0" cy="0" r="7"/>
                <circle id="rim2" cx="0" cy="0" r="3.5"/>
                <g id="zoomPlus">
                        <use xlink:href="#rim" fill="#404040">
                                <set attributeName="fill" to="#808080" begin="zoomplus.mouseover" end="zoomplus.mouseout"/>
                        </use>
                        <path d="M-4,0h8M0,-4v8" fill="none" stroke="white" stroke-width="1.5" pointer-events="none"/>
                </g>
                <g id="zoomMin">
                        <use xlink:href="#rim" fill="#404040">
                                <set attributeName="fill" to="#808080" begin="zoomminus.mouseover" end="zoomminus.mouseout"/>
                        </use>
                        <path d="M-4,0h8" fill="none" stroke="white" stroke-width="1.5" pointer-events="none"/>
                </g>
                <g id="dirArrow">
                        <path fill="none" stroke="white" stroke-width="1.5" d="M0,-3.0v7 M-2.5,-0.5L0,-3.0L2.5,-0.5"/>
                </g>
               <g id="resetDef">
                       <use xlink:href="#rim2" fill="#404040">
                               <set attributeName="fill" to="#808080" begin="reset.mouseover" end="reset.mouseout"/>
                       </use>
               </g>
        </defs>

<script type="text/javascript">
var viewWidth = 1049;
var viewHeight = 1146;
var sectionId = 'dynsection-0';
</script>
<script xlink:href="svgpan.js"/>
<svg id="graph" class="graph">
<g id="viewport">
<title>altintegration::VbkPopTx</title>
<polygon fill="white" stroke="transparent" points="-4,4 -4,-1142 1044.5,-1142 1044.5,4 -4,4"/>
<!-- Node1 -->
<g id="node1" class="node">
<title>Node1</title>
<g id="a_node1"><a xlink:title="Veriblock POP transaction, which endorses VBK block in BTC blockchain.">
<polygon fill="#bfbfbf" stroke="black" points="450,-0.5 450,-90.5 572,-90.5 572,-0.5 450,-0.5"/>
<text text-anchor="middle" x="511" y="-78.5" font-family="Helvetica,sans-Serif" font-size="10.00">altintegration::VbkPopTx</text>
<polyline fill="none" stroke="black" points="450,-71.5 572,-71.5 "/>
<text text-anchor="middle" x="511" y="-59.5" font-family="Helvetica,sans-Serif" font-size="10.00"> </text>
<polyline fill="none" stroke="black" points="450,-52.5 572,-52.5 "/>
<text text-anchor="start" x="458" y="-40.5" font-family="Helvetica,sans-Serif" font-size="10.00">+ toVbkEncoding()</text>
<text text-anchor="start" x="458" y="-29.5" font-family="Helvetica,sans-Serif" font-size="10.00">+ estimateSize()</text>
<text text-anchor="start" x="458" y="-18.5" font-family="Helvetica,sans-Serif" font-size="10.00">+ getHash()</text>
<text text-anchor="start" x="458" y="-7.5" font-family="Helvetica,sans-Serif" font-size="10.00">+ toPrettyString()</text>
</a>
</g>
</g>
<!-- Node2 -->
<g id="node2" class="node">
<title>Node2</title>
<g id="a_node2"><a xlink:href="namespacealtintegration.html#structaltintegration_1_1NetworkBytePair" target="_top" xlink:title="Stores pair of TxType and VBK network byte.">
<polygon fill="white" stroke="black" points="1,-204.5 1,-261.5 151,-261.5 151,-204.5 1,-204.5"/>
<text text-anchor="middle" x="76" y="-249.5" font-family="Helvetica,sans-Serif" font-size="10.00">altintegration::NetworkBytePair</text>
<polyline fill="none" stroke="black" points="1,-242.5 151,-242.5 "/>
<text text-anchor="start" x="9" y="-230.5" font-family="Helvetica,sans-Serif" font-size="10.00">+ typeId</text>
<polyline fill="none" stroke="black" points="1,-223.5 151,-223.5 "/>
<text text-anchor="middle" x="76" y="-211.5" font-family="Helvetica,sans-Serif" font-size="10.00"> </text>
</a>
</g>
</g>
<!-- Node2&#45;&gt;Node1 -->
<g id="edge1" class="edge">
<title>Node2&#45;&gt;Node1</title>
<path fill="none" stroke="#404040" d="M77.94,-204.44C81.5,-176.02 91.56,-132.61 120,-109 167.16,-69.85 338.32,-54.92 437.86,-49.46"/>
<polygon fill="none" stroke="#404040" points="437.94,-49.45 443.72,-45.14 449.93,-48.82 444.14,-53.13 437.94,-49.45"/>
<text text-anchor="middle" x="157.5" y="-112" font-family="Helvetica,sans-Serif" font-size="10.00"> +networkOrType</text>
</g>
<!-- Node3 -->
<g id="node3" class="node">
<title>Node3</title>
<g id="a_node3"><a xlink:href="structaltintegration_1_1VbkNetworkType.html" target="_top" xlink:title="works as optional&lt;uint8_t&gt;">
<polygon fill="white" stroke="black" points="0,-436 0,-537 152,-537 152,-436 0,-436"/>
<text text-anchor="middle" x="76" y="-525" font-family="Helvetica,sans-Serif" font-size="10.00">altintegration::VbkNetworkType</text>
<polyline fill="none" stroke="black" points="0,-518 152,-518 "/>
<text text-anchor="start" x="8" y="-506" font-family="Helvetica,sans-Serif" font-size="10.00">+ hasValue</text>
<text text-anchor="start" x="8" y="-495" font-family="Helvetica,sans-Serif" font-size="10.00">+ value</text>
<polyline fill="none" stroke="black" points="0,-488 152,-488 "/>
<text text-anchor="start" x="8" y="-476" font-family="Helvetica,sans-Serif" font-size="10.00">+ operator bool()</text>
<text text-anchor="start" x="8" y="-465" font-family="Helvetica,sans-Serif" font-size="10.00">+ operator==()</text>
<text text-anchor="start" x="8" y="-454" font-family="Helvetica,sans-Serif" font-size="10.00">+ toPrettyString()</text>
<text text-anchor="start" x="8" y="-443" font-family="Helvetica,sans-Serif" font-size="10.00">+ putJson()</text>
</a>
</g>
</g>
<!-- Node3&#45;&gt;Node2 -->
<g id="edge2" class="edge">
<title>Node3&#45;&gt;Node2</title>
<path fill="none" stroke="#404040" d="M76,-435.81C76,-388.39 76,-317.84 76,-273.95"/>
<polygon fill="none" stroke="#404040" points="76,-273.78 72,-267.78 76,-261.78 80,-267.78 76,-273.78"/>
<text text-anchor="middle" x="108" y="-349" font-family="Helvetica,sans-Serif" font-size="10.00"> +networkType</text>
</g>
<!-- Node4 -->
<g id="node4" class="node">
<title>Node4</title>
<g id="a_node4"><a xlink:title=" ">
<polygon fill="white" stroke="#bfbfbf" points="251.5,-458 251.5,-515 358.5,-515 358.5,-458 251.5,-458"/>
<text text-anchor="middle" x="305" y="-503" font-family="Helvetica,sans-Serif" font-size="10.00">std::vector&lt; uint8_t &gt;</text>
<polyline fill="none" stroke="#bfbfbf" points="251.5,-496 358.5,-496 "/>
<text text-anchor="start" x="259.5" y="-484" font-family="Helvetica,sans-Serif" font-size="10.00">+ elements</text>
<polyline fill="none" stroke="#bfbfbf" points="251.5,-477 358.5,-477 "/>
<text text-anchor="middle" x="305" y="-465" font-family="Helvetica,sans-Serif" font-size="10.00"> </text>
</a>
</g>
</g>
<!-- Node4&#45;&gt;Node1 -->
<g id="edge3" class="edge">
<title>Node4&#45;&gt;Node1</title>
<path fill="none" stroke="#404040" d="M302.28,-457.92C295.66,-385.18 281.67,-190.19 316,-138 343.3,-96.5 394.76,-73.44 437.97,-60.84"/>
<polygon fill="none" stroke="#404040" points="438.05,-60.82 442.77,-55.37 449.62,-57.64 444.89,-63.09 438.05,-60.82"/>
<text text-anchor="middle" x="341.5" y="-236" font-family="Helvetica,sans-Serif" font-size="10.00"> +publicKey</text>
<text text-anchor="middle" x="341.5" y="-225" font-family="Helvetica,sans-Serif" font-size="10.00">+signature</text>
</g>
<!-- Node16 -->
<g id="node16" class="node">
<title>Node16</title>
<g id="a_node16"><a xlink:href="structaltintegration_1_1BtcTx.html" target="_top" xlink:title="Bitcoin transaction representation.">
<polygon fill="white" stroke="black" points="169,-171.5 169,-294.5 271,-294.5 271,-171.5 169,-171.5"/>
<text text-anchor="middle" x="220" y="-282.5" font-family="Helvetica,sans-Serif" font-size="10.00">altintegration::BtcTx</text>
<polyline fill="none" stroke="black" points="169,-275.5 271,-275.5 "/>
<text text-anchor="middle" x="220" y="-263.5" font-family="Helvetica,sans-Serif" font-size="10.00"> </text>
<polyline fill="none" stroke="black" points="169,-256.5 271,-256.5 "/>
<text text-anchor="start" x="177" y="-244.5" font-family="Helvetica,sans-Serif" font-size="10.00">+ BtcTx()</text>
<text text-anchor="start" x="177" y="-233.5" font-family="Helvetica,sans-Serif" font-size="10.00">+ BtcTx()</text>
<text text-anchor="start" x="177" y="-222.5" font-family="Helvetica,sans-Serif" font-size="10.00">+ BtcTx()</text>
<text text-anchor="start" x="177" y="-211.5" font-family="Helvetica,sans-Serif" font-size="10.00">+ toVbkEncoding()</text>
<text text-anchor="start" x="177" y="-200.5" font-family="Helvetica,sans-Serif" font-size="10.00">+ toRaw()</text>
<text text-anchor="start" x="177" y="-189.5" font-family="Helvetica,sans-Serif" font-size="10.00">+ estimateSize()</text>
<text text-anchor="start" x="177" y="-178.5" font-family="Helvetica,sans-Serif" font-size="10.00">+ getHash()</text>
</a>
</g>
</g>
<!-- Node4&#45;&gt;Node16 -->
<g id="edge22" class="edge">
<title>Node4&#45;&gt;Node16</title>
<path fill="none" stroke="#404040" d="M295.58,-457.62C283.33,-421.38 261.48,-356.73 244.42,-306.24"/>
<polygon fill="none" stroke="#404040" points="244.36,-306.09 238.65,-301.68 240.52,-294.72 246.23,-299.12 244.36,-306.09"/>
<text text-anchor="middle" x="268" y="-349" font-family="Helvetica,sans-Serif" font-size="10.00"> +tx</text>
</g>
<!-- Node5 -->
<g id="node5" class="node">
<title>Node5</title>
<g id="a_node5"><a xlink:title=" ">
<polygon fill="white" stroke="#bfbfbf" points="357,-739 357,-796 441,-796 441,-739 357,-739"/>
<text text-anchor="middle" x="399" y="-784" font-family="Helvetica,sans-Serif" font-size="10.00">std::vector&lt; T &gt;</text>
<polyline fill="none" stroke="#bfbfbf" points="357,-777 441,-777 "/>
<text text-anchor="middle" x="399" y="-765" font-family="Helvetica,sans-Serif" font-size="10.00"> </text>
<polyline fill="none" stroke="#bfbfbf" points="357,-758 441,-758 "/>
<text text-anchor="middle" x="399" y="-746" font-family="Helvetica,sans-Serif" font-size="10.00"> </text>
</a>
</g>
</g>
<!-- Node5&#45;&gt;Node4 -->
<g id="edge4" class="edge">
<title>Node5&#45;&gt;Node4</title>
<path fill="none" stroke="orange" d="M381.89,-729.6C370.51,-704.19 355.74,-669.48 345,-638 330.6,-595.78 318.14,-545.46 311.11,-515.03"/>
<polygon fill="orange" stroke="orange" points="378.77,-731.18 386.07,-738.85 385.15,-728.3 378.77,-731.18"/>
<text text-anchor="middle" x="369.5" y="-624.5" font-family="Helvetica,sans-Serif" font-size="10.00"> &lt; uint8_t &gt;</text>
</g>
<!-- Node8 -->
<g id="node8" class="node">
<title>Node8</title>
<g id="a_node8"><a xlink:title=" ">
<polygon fill="white" stroke="#bfbfbf" points="376.5,-452.5 376.5,-520.5 501.5,-520.5 501.5,-452.5 376.5,-452.5"/>
<text text-anchor="start" x="384.5" y="-508.5" font-family="Helvetica,sans-Serif" font-size="10.00">std::vector&lt; altintegration</text>
<text text-anchor="middle" x="439" y="-497.5" font-family="Helvetica,sans-Serif" font-size="10.00">::Blob &gt;</text>
<polyline fill="none" stroke="#bfbfbf" points="376.5,-490.5 501.5,-490.5 "/>
<text text-anchor="middle" x="439" y="-478.5" font-family="Helvetica,sans-Serif" font-size="10.00"> </text>
<polyline fill="none" stroke="#bfbfbf" points="376.5,-471.5 501.5,-471.5 "/>
<text text-anchor="middle" x="439" y="-459.5" font-family="Helvetica,sans-Serif" font-size="10.00"> </text>
</a>
</g>
</g>
<!-- Node5&#45;&gt;Node8 -->
<g id="edge9" class="edge">
<title>Node5&#45;&gt;Node8</title>
<path fill="none" stroke="orange" d="M396.26,-728.63C394.76,-698.05 394.23,-654.01 400,-616 405.04,-582.81 416.75,-546.3 426.03,-520.71"/>
<polygon fill="orange" stroke="orange" points="392.78,-729.06 396.82,-738.85 399.77,-728.67 392.78,-729.06"/>
<text text-anchor="middle" x="449.5" y="-624.5" font-family="Helvetica,sans-Serif" font-size="10.00"> &lt; altintegration::Blob &gt;</text>
</g>
<!-- Node14 -->
<g id="node14" class="node">
<title>Node14</title>
<g id="a_node14"><a xlink:title=" ">
<polygon fill="white" stroke="#bfbfbf" points="520.5,-199 520.5,-267 645.5,-267 645.5,-199 520.5,-199"/>
<text text-anchor="start" x="528.5" y="-255" font-family="Helvetica,sans-Serif" font-size="10.00">std::vector&lt; altintegration</text>
<text text-anchor="middle" x="583" y="-244" font-family="Helvetica,sans-Serif" font-size="10.00">::BtcBlock &gt;</text>
<polyline fill="none" stroke="#bfbfbf" points="520.5,-237 645.5,-237 "/>
<text text-anchor="middle" x="583" y="-225" font-family="Helvetica,sans-Serif" font-size="10.00"> </text>
<polyline fill="none" stroke="#bfbfbf" points="520.5,-218 645.5,-218 "/>
<text text-anchor="middle" x="583" y="-206" font-family="Helvetica,sans-Serif" font-size="10.00"> </text>
</a>
</g>
</g>
<!-- Node5&#45;&gt;Node14 -->
<g id="edge19" class="edge">
<title>Node5&#45;&gt;Node14</title>
<path fill="none" stroke="orange" d="M429.29,-730.93C458.23,-696.66 498.16,-648.49 503,-638 552.82,-530.04 528.34,-491.52 552,-375 559.51,-338.03 568.9,-295.8 575.37,-267.27"/>
<polygon fill="orange" stroke="orange" points="426.35,-728.99 422.57,-738.88 431.7,-733.51 426.35,-728.99"/>
<text text-anchor="middle" x="611.5" y="-484" font-family="Helvetica,sans-Serif" font-size="10.00"> &lt; altintegration::BtcBlock &gt;</text>
</g>
<!-- Node6 -->
<g id="node6" class="node">
<title>Node6</title>
<g id="a_node6"><a xlink:title=" ">
<polygon fill="white" stroke="#bfbfbf" points="384.5,-1003.5 384.5,-1060.5 413.5,-1060.5 413.5,-1003.5 384.5,-1003.5"/>
<text text-anchor="middle" x="399" y="-1048.5" font-family="Helvetica,sans-Serif" font-size="10.00">T</text>
<polyline fill="none" stroke="#bfbfbf" points="384.5,-1041.5 413.5,-1041.5 "/>
<text text-anchor="middle" x="399" y="-1029.5" font-family="Helvetica,sans-Serif" font-size="10.00"> </text>
<polyline fill="none" stroke="#bfbfbf" points="384.5,-1022.5 413.5,-1022.5 "/>
<text text-anchor="middle" x="399" y="-1010.5" font-family="Helvetica,sans-Serif" font-size="10.00"> </text>
</a>
</g>
</g>
<!-- Node6&#45;&gt;Node5 -->
<g id="edge5" class="edge">
<title>Node6&#45;&gt;Node5</title>
<path fill="none" stroke="#404040" d="M399,-1003.4C399,-956.73 399,-862.04 399,-808.23"/>
<polygon fill="none" stroke="#404040" points="399,-808.12 395,-802.12 399,-796.12 403,-802.12 399,-808.12"/>
<text text-anchor="middle" x="423.5" y="-900" font-family="Helvetica,sans-Serif" font-size="10.00"> +elements</text>
</g>
<!-- Node7 -->
<g id="node7" class="node">
<title>Node7</title>
<g id="a_node7"><a xlink:href="structaltintegration_1_1MerklePath.html" target="_top" xlink:title="Path in Merkle tree which proves that subject is inside this tree.">
<polygon fill="white" stroke="black" points="376,-188 376,-278 502,-278 502,-188 376,-188"/>
<text text-anchor="middle" x="439" y="-266" font-family="Helvetica,sans-Serif" font-size="10.00">altintegration::MerklePath</text>
<polyline fill="none" stroke="black" points="376,-259 502,-259 "/>
<text text-anchor="start" x="384" y="-247" font-family="Helvetica,sans-Serif" font-size="10.00">+ index</text>
<polyline fill="none" stroke="black" points="376,-240 502,-240 "/>
<text text-anchor="start" x="384" y="-228" font-family="Helvetica,sans-Serif" font-size="10.00">+ toRaw()</text>
<text text-anchor="start" x="384" y="-217" font-family="Helvetica,sans-Serif" font-size="10.00">+ toVbkEncoding()</text>
<text text-anchor="start" x="384" y="-206" font-family="Helvetica,sans-Serif" font-size="10.00">+ estimateSize()</text>
<text text-anchor="start" x="384" y="-195" font-family="Helvetica,sans-Serif" font-size="10.00">+ calculateMerkleRoot()</text>
</a>
</g>
</g>
<!-- Node7&#45;&gt;Node1 -->
<g id="edge6" class="edge">
<title>Node7&#45;&gt;Node1</title>
<path fill="none" stroke="#404040" d="M447.49,-187.96C452.92,-164.03 461.03,-134.24 472,-109 473.08,-106.52 474.24,-104.03 475.47,-101.54"/>
<polygon fill="none" stroke="#404040" points="475.6,-101.29 474.88,-94.12 481.22,-90.69 481.95,-97.87 475.6,-101.29"/>
<text text-anchor="middle" x="501" y="-112" font-family="Helvetica,sans-Serif" font-size="10.00"> +merklePath</text>
</g>
<!-- Node8&#45;&gt;Node7 -->
<g id="edge7" class="edge">
<title>Node8&#45;&gt;Node7</title>
<path fill="none" stroke="#404040" d="M439,-452.36C439,-411.17 439,-340.22 439,-290.41"/>
<polygon fill="none" stroke="#404040" points="439,-290.23 435,-284.23 439,-278.23 443,-284.23 439,-290.23"/>
<text text-anchor="middle" x="456" y="-349" font-family="Helvetica,sans-Serif" font-size="10.00"> +layers</text>
</g>
<!-- Node9 -->
<g id="node9" class="node">
<title>Node9</title>
<g id="a_node9"><a xlink:href="structaltintegration_1_1Blob.html" target="_top" xlink:title="Contiguous byte array of fixed size.">
<polygon fill="white" stroke="black" points="616,-926.5 616,-1137.5 736,-1137.5 736,-926.5 616,-926.5"/>
<text text-anchor="middle" x="676" y="-1125.5" font-family="Helvetica,sans-Serif" font-size="10.00">altintegration::Blob&lt; N &gt;</text>
<polyline fill="none" stroke="black" points="616,-1118.5 736,-1118.5 "/>
<text text-anchor="start" x="624" y="-1106.5" font-family="Helvetica,sans-Serif" font-size="10.00">+ data_</text>
<text text-anchor="start" x="624" y="-1095.5" font-family="Helvetica,sans-Serif" font-size="10.00">+ this</text>
<polyline fill="none" stroke="black" points="616,-1088.5 736,-1088.5 "/>
<text text-anchor="start" x="624" y="-1076.5" font-family="Helvetica,sans-Serif" font-size="10.00">+ Blob()</text>
<text text-anchor="start" x="624" y="-1065.5" font-family="Helvetica,sans-Serif" font-size="10.00">+ Blob()</text>
<text text-anchor="start" x="624" y="-1054.5" font-family="Helvetica,sans-Serif" font-size="10.00">+ Blob()</text>
<text text-anchor="start" x="624" y="-1043.5" font-family="Helvetica,sans-Serif" font-size="10.00">+ Blob()</text>
<text text-anchor="start" x="624" y="-1032.5" font-family="Helvetica,sans-Serif" font-size="10.00">+ Blob()</text>
<text text-anchor="start" x="624" y="-1021.5" font-family="Helvetica,sans-Serif" font-size="10.00">+ operator=()</text>
<text text-anchor="start" x="624" y="-1010.5" font-family="Helvetica,sans-Serif" font-size="10.00">+ operator=()</text>
<text text-anchor="start" x="624" y="-999.5" font-family="Helvetica,sans-Serif" font-size="10.00">+ reverse()</text>
<text text-anchor="start" x="624" y="-988.5" font-family="Helvetica,sans-Serif" font-size="10.00">+ operator~()</text>
<text text-anchor="start" x="624" y="-977.5" font-family="Helvetica,sans-Serif" font-size="10.00">+ asVector()</text>
<text text-anchor="start" x="624" y="-966.5" font-family="Helvetica,sans-Serif" font-size="10.00">+ asString()</text>
<text text-anchor="start" x="624" y="-955.5" font-family="Helvetica,sans-Serif" font-size="10.00">+ operator[]()</text>
<text text-anchor="start" x="624" y="-944.5" font-family="Helvetica,sans-Serif" font-size="10.00">+ operator[]()</text>
<text text-anchor="start" x="624" y="-933.5" font-family="Helvetica,sans-Serif" font-size="10.00">+ compareTo()</text>
</a>
</g>
</g>
<!-- Node9&#45;&gt;Node8 -->
<g id="edge8" class="edge">
<title>Node9&#45;&gt;Node8</title>
<path fill="none" stroke="#404040" d="M615.99,-956.91C598.91,-933.1 581.56,-905.9 569,-879 517.84,-769.4 540.3,-729.69 499,-616 488.5,-587.1 473.97,-555.82 461.84,-531.36"/>
<polygon fill="none" stroke="#404040" points="461.83,-531.36 455.57,-527.79 456.45,-520.63 462.72,-524.2 461.83,-531.36"/>
<text text-anchor="middle" x="593.5" y="-765" font-family="Helvetica,sans-Serif" font-size="10.00"> +elements</text>
</g>
<!-- Node10 -->
<g id="node10" class="node">
<title>Node10</title>
<g id="a_node10"><a xlink:href="structaltintegration_1_1Blob.html" target="_top" xlink:title=" ">
<polygon fill="white" stroke="black" points="627.5,-656.5 627.5,-878.5 758.5,-878.5 758.5,-656.5 627.5,-656.5"/>
<text text-anchor="start" x="635.5" y="-866.5" font-family="Helvetica,sans-Serif" font-size="10.00">altintegration::Blob</text>
<text text-anchor="middle" x="693" y="-855.5" font-family="Helvetica,sans-Serif" font-size="10.00">&lt; SHA256_HASH_SIZE &gt;</text>
<polyline fill="none" stroke="black" points="627.5,-848.5 758.5,-848.5 "/>
<text text-anchor="start" x="635.5" y="-836.5" font-family="Helvetica,sans-Serif" font-size="10.00">+ data_</text>
<text text-anchor="start" x="635.5" y="-825.5" font-family="Helvetica,sans-Serif" font-size="10.00">+ this</text>
<polyline fill="none" stroke="black" points="627.5,-818.5 758.5,-818.5 "/>
<text text-anchor="start" x="635.5" y="-806.5" font-family="Helvetica,sans-Serif" font-size="10.00">+ Blob()</text>
<text text-anchor="start" x="635.5" y="-795.5" font-family="Helvetica,sans-Serif" font-size="10.00">+ Blob()</text>
<text text-anchor="start" x="635.5" y="-784.5" font-family="Helvetica,sans-Serif" font-size="10.00">+ Blob()</text>
<text text-anchor="start" x="635.5" y="-773.5" font-family="Helvetica,sans-Serif" font-size="10.00">+ Blob()</text>
<text text-anchor="start" x="635.5" y="-762.5" font-family="Helvetica,sans-Serif" font-size="10.00">+ Blob()</text>
<text text-anchor="start" x="635.5" y="-751.5" font-family="Helvetica,sans-Serif" font-size="10.00">+ operator=()</text>
<text text-anchor="start" x="635.5" y="-740.5" font-family="Helvetica,sans-Serif" font-size="10.00">+ operator=()</text>
<text text-anchor="start" x="635.5" y="-729.5" font-family="Helvetica,sans-Serif" font-size="10.00">+ reverse()</text>
<text text-anchor="start" x="635.5" y="-718.5" font-family="Helvetica,sans-Serif" font-size="10.00">+ operator~()</text>
<text text-anchor="start" x="635.5" y="-707.5" font-family="Helvetica,sans-Serif" font-size="10.00">+ asVector()</text>
<text text-anchor="start" x="635.5" y="-696.5" font-family="Helvetica,sans-Serif" font-size="10.00">+ asString()</text>
<text text-anchor="start" x="635.5" y="-685.5" font-family="Helvetica,sans-Serif" font-size="10.00">+ operator[]()</text>
<text text-anchor="start" x="635.5" y="-674.5" font-family="Helvetica,sans-Serif" font-size="10.00">+ operator[]()</text>
<text text-anchor="start" x="635.5" y="-663.5" font-family="Helvetica,sans-Serif" font-size="10.00">+ compareTo()</text>
</a>
</g>
</g>
<!-- Node9&#45;&gt;Node10 -->
<g id="edge11" class="edge">
<title>Node9&#45;&gt;Node10</title>
<path fill="none" stroke="orange" d="M675.98,-916.14C676.25,-909.66 676.59,-903.25 677,-897 677.39,-891.06 677.87,-884.96 678.42,-878.82"/>
<polygon fill="orange" stroke="orange" points="672.48,-916.23 675.61,-926.35 679.47,-916.49 672.48,-916.23"/>
<text text-anchor="middle" x="735.5" y="-900" font-family="Helvetica,sans-Serif" font-size="10.00"> &lt; SHA256_HASH_SIZE &gt;</text>
</g>
<!-- Node11 -->
<g id="node11" class="node">
<title>Node11</title>
<g id="a_node11"><a xlink:href="structaltintegration_1_1BtcBlock.html" target="_top" xlink:title="Bitcoin block.">
<polygon fill="white" stroke="black" points="751,-375.5 751,-597.5 867,-597.5 867,-375.5 751,-375.5"/>
<text text-anchor="middle" x="809" y="-585.5" font-family="Helvetica,sans-Serif" font-size="10.00">altintegration::BtcBlock</text>
<polyline fill="none" stroke="black" points="751,-578.5 867,-578.5 "/>
<text text-anchor="start" x="759" y="-566.5" font-family="Helvetica,sans-Serif" font-size="10.00"># version</text>
<text text-anchor="start" x="759" y="-555.5" font-family="Helvetica,sans-Serif" font-size="10.00"># timestamp</text>
<text text-anchor="start" x="759" y="-544.5" font-family="Helvetica,sans-Serif" font-size="10.00"># bits</text>
<text text-anchor="start" x="759" y="-533.5" font-family="Helvetica,sans-Serif" font-size="10.00"># nonce</text>
<polyline fill="none" stroke="black" points="751,-526.5 867,-526.5 "/>
<text text-anchor="start" x="759" y="-514.5" font-family="Helvetica,sans-Serif" font-size="10.00">+ BtcBlock()</text>
<text text-anchor="start" x="759" y="-503.5" font-family="Helvetica,sans-Serif" font-size="10.00">+ BtcBlock()</text>
<text text-anchor="start" x="759" y="-492.5" font-family="Helvetica,sans-Serif" font-size="10.00">+ toRaw()</text>
<text text-anchor="start" x="759" y="-481.5" font-family="Helvetica,sans-Serif" font-size="10.00">+ toVbkEncoding()</text>
<text text-anchor="start" x="759" y="-470.5" font-family="Helvetica,sans-Serif" font-size="10.00">+ estimateSize()</text>
<text text-anchor="start" x="759" y="-459.5" font-family="Helvetica,sans-Serif" font-size="10.00">+ calculateHash()</text>
<text text-anchor="start" x="759" y="-448.5" font-family="Helvetica,sans-Serif" font-size="10.00">+ getHash()</text>
<text text-anchor="start" x="759" y="-437.5" font-family="Helvetica,sans-Serif" font-size="10.00">+ toPrettyString()</text>
<text text-anchor="start" x="759" y="-426.5" font-family="Helvetica,sans-Serif" font-size="10.00">+ getVersion()</text>
<text text-anchor="start" x="759" y="-415.5" font-family="Helvetica,sans-Serif" font-size="10.00">+ getPreviousBlock()</text>
<text text-anchor="start" x="759" y="-404.5" font-family="Helvetica,sans-Serif" font-size="10.00">and 10 more...</text>
<text text-anchor="start" x="759" y="-393.5" font-family="Helvetica,sans-Serif" font-size="10.00">+ name()</text>
<text text-anchor="start" x="759" y="-382.5" font-family="Helvetica,sans-Serif" font-size="10.00"># invalidateHash()</text>
</a>
</g>
</g>
<!-- Node9&#45;&gt;Node11 -->
<g id="edge13" class="edge">
<title>Node9&#45;&gt;Node11</title>
<path fill="none" stroke="#404040" d="M736.23,-984.72C758.6,-963.92 781.55,-937.43 794,-908 815.9,-856.23 816.89,-714.72 814.19,-610.09"/>
<polygon fill="none" stroke="#404040" points="814.19,-609.84 810.02,-603.95 813.86,-597.84 818.02,-603.73 814.19,-609.84"/>
<text text-anchor="middle" x="832" y="-765" font-family="Helvetica,sans-Serif" font-size="10.00"> #hash_</text>
</g>
<!-- Node10&#45;&gt;Node7 -->
<g id="edge10" class="edge">
<title>Node10&#45;&gt;Node7</title>
<path fill="none" stroke="#404040" d="M693.21,-656.15C692.41,-548.11 688.16,-396.63 671,-375 624.94,-316.93 572.11,-369.94 511,-328 495.85,-317.6 482.5,-303.01 471.55,-288.42"/>
<polygon fill="none" stroke="#404040" points="471.34,-288.12 464.59,-285.57 464.35,-278.36 471.1,-280.91 471.34,-288.12"/>
<text text-anchor="middle" x="713" y="-484" font-family="Helvetica,sans-Serif" font-size="10.00"> +subject</text>
</g>
<!-- Node10&#45;&gt;Node11 -->
<g id="edge14" class="edge">
<title>Node10&#45;&gt;Node11</title>
<path fill="none" stroke="#404040" d="M713.26,-656.2C717.14,-642.43 721.69,-628.73 727,-616 728.75,-611.81 735.46,-600.62 744.34,-586.49"/>
<polygon fill="none" stroke="#404040" points="744.38,-586.43 744.21,-579.22 750.8,-576.29 750.97,-583.5 744.38,-586.43"/>
<text text-anchor="middle" x="760.5" y="-630" font-family="Helvetica,sans-Serif" font-size="10.00"> #merkleRoot</text>
<text text-anchor="middle" x="760.5" y="-619" font-family="Helvetica,sans-Serif" font-size="10.00">#previousBlock</text>
</g>
<!-- Node11&#45;&gt;Node1 -->
<g id="edge12" class="edge">
<title>Node11&#45;&gt;Node1</title>
<path fill="none" stroke="#404040" d="M823.17,-375.25C831.92,-287.81 836.95,-174.44 810,-138 782.98,-101.47 663.44,-73.59 583.93,-58.67"/>
<polygon fill="none" stroke="#404040" points="583.83,-58.65 577.2,-61.49 572.02,-56.47 578.65,-53.62 583.83,-58.65"/>
<text text-anchor="middle" x="863" y="-230.5" font-family="Helvetica,sans-Serif" font-size="10.00"> +blockOfProof</text>
</g>
<!-- Node11&#45;&gt;Node14 -->
<g id="edge18" class="edge">
<title>Node11&#45;&gt;Node14</title>
<path fill="none" stroke="#404040" d="M750.81,-392.73C746.29,-386.62 741.66,-380.65 737,-375 725.2,-360.7 722.83,-355.66 707,-346 685.76,-333.04 674.16,-342.57 654,-328 635.57,-314.68 619.76,-295.2 607.76,-277.43"/>
<polygon fill="none" stroke="#404040" points="607.67,-277.29 601.05,-274.43 601.15,-267.22 607.77,-270.08 607.67,-277.29"/>
<text text-anchor="middle" x="746.5" y="-349" font-family="Helvetica,sans-Serif" font-size="10.00"> +elements</text>
</g>
<!-- Node12 -->
<g id="node12" class="node">
<title>Node12</title>
<g id="a_node12"><a xlink:title=" ">
<polygon fill="white" stroke="#bfbfbf" points="860.5,-739 860.5,-796 919.5,-796 919.5,-739 860.5,-739"/>
<text text-anchor="middle" x="890" y="-784" font-family="Helvetica,sans-Serif" font-size="10.00">std::string</text>
<polyline fill="none" stroke="#bfbfbf" points="860.5,-777 919.5,-777 "/>
<text text-anchor="middle" x="890" y="-765" font-family="Helvetica,sans-Serif" font-size="10.00"> </text>
<polyline fill="none" stroke="#bfbfbf" points="860.5,-758 919.5,-758 "/>
<text text-anchor="middle" x="890" y="-746" font-family="Helvetica,sans-Serif" font-size="10.00"> </text>
</a>
</g>
</g>
<!-- Node12&#45;&gt;Node11 -->
<g id="edge15" class="edge">
<title>Node12&#45;&gt;Node11</title>
<path fill="none" stroke="#404040" d="M882.01,-738.98C873.18,-708.57 858.35,-657.47 844.35,-609.25"/>
<polygon fill="none" stroke="#404040" points="844.35,-609.25 838.83,-604.6 841,-597.73 846.52,-602.37 844.35,-609.25"/>
<text text-anchor="middle" x="869.5" y="-624.5" font-family="Helvetica,sans-Serif" font-size="10.00"> #_name</text>
</g>
<!-- Node13 -->
<g id="node13" class="node">
<title>Node13</title>
<g id="a_node13"><a xlink:title=" ">
<polygon fill="white" stroke="#bfbfbf" points="843.5,-998 843.5,-1066 936.5,-1066 936.5,-998 843.5,-998"/>
<text text-anchor="start" x="851.5" y="-1054" font-family="Helvetica,sans-Serif" font-size="10.00">std::basic_string&lt;</text>
<text text-anchor="middle" x="890" y="-1043" font-family="Helvetica,sans-Serif" font-size="10.00"> Char &gt;</text>
<polyline fill="none" stroke="#bfbfbf" points="843.5,-1036 936.5,-1036 "/>
<text text-anchor="middle" x="890" y="-1024" font-family="Helvetica,sans-Serif" font-size="10.00"> </text>
<polyline fill="none" stroke="#bfbfbf" points="843.5,-1017 936.5,-1017 "/>
<text text-anchor="middle" x="890" y="-1005" font-family="Helvetica,sans-Serif" font-size="10.00"> </text>
</a>
</g>
</g>
<!-- Node13&#45;&gt;Node12 -->
<g id="edge16" class="edge">
<title>Node13&#45;&gt;Node12</title>
<path fill="none" stroke="midnightblue" d="M890,-987.75C890,-933.49 890,-842.02 890,-796.29"/>
<polygon fill="none" stroke="midnightblue" points="886.5,-987.75 890,-997.75 893.5,-987.75 886.5,-987.75"/>
</g>
<!-- Node14&#45;&gt;Node1 -->
<g id="edge17" class="edge">
<title>Node14&#45;&gt;Node1</title>
<path fill="none" stroke="#404040" d="M570.13,-198.84C559.68,-171.92 544.73,-133.39 532.47,-101.82"/>
<polygon fill="none" stroke="#404040" points="532.44,-101.72 526.54,-97.58 528.09,-90.54 533.99,-94.68 532.44,-101.72"/>
<text text-anchor="middle" x="588.5" y="-112" font-family="Helvetica,sans-Serif" font-size="10.00"> +blockOfProofContext</text>
</g>
<!-- Node15 -->
<g id="node15" class="node">
<title>Node15</title>
<g id="a_node15"><a xlink:href="structaltintegration_1_1Address.html" target="_top" xlink:title="Represents address on VBK chain.">
<polygon fill="white" stroke="black" points="663.5,-138.5 663.5,-327.5 800.5,-327.5 800.5,-138.5 663.5,-138.5"/>
<text text-anchor="middle" x="732" y="-315.5" font-family="Helvetica,sans-Serif" font-size="10.00">altintegration::Address</text>
<polyline fill="none" stroke="black" points="663.5,-308.5 800.5,-308.5 "/>
<text text-anchor="middle" x="732" y="-296.5" font-family="Helvetica,sans-Serif" font-size="10.00"> </text>
<polyline fill="none" stroke="black" points="663.5,-289.5 800.5,-289.5 "/>
<text text-anchor="start" x="671.5" y="-277.5" font-family="Helvetica,sans-Serif" font-size="10.00">+ Address()</text>
<text text-anchor="start" x="671.5" y="-266.5" font-family="Helvetica,sans-Serif" font-size="10.00">+ operator==()</text>
<text text-anchor="start" x="671.5" y="-255.5" font-family="Helvetica,sans-Serif" font-size="10.00">+ operator!=()</text>
<text text-anchor="start" x="671.5" y="-244.5" font-family="Helvetica,sans-Serif" font-size="10.00">+ operator==()</text>
<text text-anchor="start" x="671.5" y="-233.5" font-family="Helvetica,sans-Serif" font-size="10.00">+ getType()</text>
<text text-anchor="start" x="671.5" y="-222.5" font-family="Helvetica,sans-Serif" font-size="10.00">+ getPopBytes()</text>
<text text-anchor="start" x="671.5" y="-211.5" font-family="Helvetica,sans-Serif" font-size="10.00">+ isDerivedFromPublicKey()</text>
<text text-anchor="start" x="671.5" y="-200.5" font-family="Helvetica,sans-Serif" font-size="10.00">+ fromString()</text>
<text text-anchor="start" x="671.5" y="-189.5" font-family="Helvetica,sans-Serif" font-size="10.00">+ toString()</text>
<text text-anchor="start" x="671.5" y="-178.5" font-family="Helvetica,sans-Serif" font-size="10.00">+ toVbkEncoding()</text>
<text text-anchor="start" x="671.5" y="-167.5" font-family="Helvetica,sans-Serif" font-size="10.00">+ estimateSize()</text>
<text text-anchor="start" x="671.5" y="-156.5" font-family="Helvetica,sans-Serif" font-size="10.00">+ fromPublicKey()</text>
<text text-anchor="start" x="671.5" y="-145.5" font-family="Helvetica,sans-Serif" font-size="10.00">+ assertFromString()</text>
</a>
</g>
</g>
<!-- Node15&#45;&gt;Node1 -->
<g id="edge20" class="edge">
<title>Node15&#45;&gt;Node1</title>
<path fill="none" stroke="#404040" d="M671.28,-138.27C662.21,-127.67 652.39,-117.61 642,-109 624.65,-94.62 603.43,-82.66 583.17,-73.18"/>
<polygon fill="none" stroke="#404040" points="582.98,-73.1 575.87,-74.28 572.04,-68.17 579.15,-66.99 582.98,-73.1"/>
<text text-anchor="middle" x="673.5" y="-112" font-family="Helvetica,sans-Serif" font-size="10.00"> +address</text>
</g>
<!-- Node16&#45;&gt;Node1 -->
<g id="edge21" class="edge">
<title>Node16&#45;&gt;Node1</title>
<path fill="none" stroke="#404040" d="M195.38,-171.42C190.68,-149.65 190.92,-126.25 205,-109 233.82,-73.69 356.76,-57.8 437.77,-51.06"/>
<polygon fill="none" stroke="#404040" points="437.93,-51.04 443.59,-46.58 449.89,-50.09 444.23,-54.55 437.93,-51.04"/>
<text text-anchor="middle" x="249" y="-112" font-family="Helvetica,sans-Serif" font-size="10.00"> +bitcoinTransaction</text>
</g>
<!-- Node17 -->
<g id="node17" class="node">
<title>Node17</title>
<g id="a_node17"><a xlink:href="structaltintegration_1_1VbkBlock.html" target="_top" xlink:title="Veriblock block.">
<polygon fill="white" stroke="black" points="921.5,-144 921.5,-322 1040.5,-322 1040.5,-144 921.5,-144"/>
<text text-anchor="middle" x="981" y="-310" font-family="Helvetica,sans-Serif" font-size="10.00">altintegration::VbkBlock</text>
<polyline fill="none" stroke="black" points="921.5,-303 1040.5,-303 "/>
<text text-anchor="middle" x="981" y="-291" font-family="Helvetica,sans-Serif" font-size="10.00"> </text>
<polyline fill="none" stroke="black" points="921.5,-284 1040.5,-284 "/>
<text text-anchor="start" x="929.5" y="-272" font-family="Helvetica,sans-Serif" font-size="10.00">+ toPrettyString()</text>
<text text-anchor="start" x="929.5" y="-261" font-family="Helvetica,sans-Serif" font-size="10.00">+ toShortPrettyString()</text>
<text text-anchor="start" x="929.5" y="-250" font-family="Helvetica,sans-Serif" font-size="10.00">+ toRaw()</text>
<text text-anchor="start" x="929.5" y="-239" font-family="Helvetica,sans-Serif" font-size="10.00">+ toVbkEncoding()</text>
<text text-anchor="start" x="929.5" y="-228" font-family="Helvetica,sans-Serif" font-size="10.00">+ toRaw()</text>
<text text-anchor="start" x="929.5" y="-217" font-family="Helvetica,sans-Serif" font-size="10.00">+ toVbkEncoding()</text>
<text text-anchor="start" x="929.5" y="-206" font-family="Helvetica,sans-Serif" font-size="10.00">+ estimateSize()</text>
<text text-anchor="start" x="929.5" y="-195" font-family="Helvetica,sans-Serif" font-size="10.00">+ getBlockTime()</text>
<text text-anchor="start" x="929.5" y="-184" font-family="Helvetica,sans-Serif" font-size="10.00">+ calculateHash()</text>
<text text-anchor="start" x="929.5" y="-173" font-family="Helvetica,sans-Serif" font-size="10.00">+ getHash()</text>
<text text-anchor="start" x="929.5" y="-162" font-family="Helvetica,sans-Serif" font-size="10.00">and 22 more...</text>
<text text-anchor="start" x="929.5" y="-151" font-family="Helvetica,sans-Serif" font-size="10.00">+ name()</text>
</a>
</g>
</g>
<!-- Node17&#45;&gt;Node1 -->
<g id="edge23" class="edge">
<title>Node17&#45;&gt;Node1</title>
<path fill="none" stroke="#404040" d="M921.49,-151.31C916.81,-146.59 911.96,-142.1 907,-138 885.4,-120.14 877.52,-118.08 851,-109 761.95,-78.52 654.4,-61.93 584.44,-53.65"/>
<polygon fill="none" stroke="#404040" points="584.18,-53.62 577.76,-56.9 572.26,-52.24 578.68,-48.96 584.18,-53.62"/>
<text text-anchor="middle" x="916.5" y="-112" font-family="Helvetica,sans-Serif" font-size="10.00"> +publishedBlock</text>
</g>
</g>
</svg>
        <g id="navigator" transform="translate(0 0)" fill="#404254">
                <rect fill="#f2f5e9" fill-opacity="0.5" stroke="#606060" stroke-width=".5" x="0" y="0" width="60" height="60"/>
                <use id="zoomplus" xlink:href="#zoomPlus" x="17" y="9" onmousedown="handleZoom(evt,'in')"/>
                <use id="zoomminus" xlink:href="#zoomMin" x="42" y="9" onmousedown="handleZoom(evt,'out')"/>
                <use id="reset" xlink:href="#resetDef" x="30" y="36" onmousedown="handleReset()"/>
                <g id="arrowUp" xlink:href="#dirArrow" transform="translate(30 24)" onmousedown="handlePan(0,-1)">
                  <use xlink:href="#rim" fill="#404040">
                        <set attributeName="fill" to="#808080" begin="arrowUp.mouseover" end="arrowUp.mouseout"/>
                  </use>
                  <path fill="none" stroke="white" stroke-width="1.5" d="M0,-3.0v7 M-2.5,-0.5L0,-3.0L2.5,-0.5"/>
                </g>
                <g id="arrowRight" xlink:href="#dirArrow" transform="rotate(90) translate(36 -43)" onmousedown="handlePan(1,0)">
                  <use xlink:href="#rim" fill="#404040">
                        <set attributeName="fill" to="#808080" begin="arrowRight.mouseover" end="arrowRight.mouseout"/>
                  </use>
                  <path fill="none" stroke="white" stroke-width="1.5" d="M0,-3.0v7 M-2.5,-0.5L0,-3.0L2.5,-0.5"/>
                </g>
                <g id="arrowDown" xlink:href="#dirArrow" transform="rotate(180) translate(-30 -48)" onmousedown="handlePan(0,1)">
                  <use xlink:href="#rim" fill="#404040">
                        <set attributeName="fill" to="#808080" begin="arrowDown.mouseover" end="arrowDown.mouseout"/>
                  </use>
                  <path fill="none" stroke="white" stroke-width="1.5" d="M0,-3.0v7 M-2.5,-0.5L0,-3.0L2.5,-0.5"/>
                </g>
                <g id="arrowLeft" xlink:href="#dirArrow" transform="rotate(270) translate(-36 17)" onmousedown="handlePan(-1,0)">
                  <use xlink:href="#rim" fill="#404040">
                        <set attributeName="fill" to="#808080" begin="arrowLeft.mouseover" end="arrowLeft.mouseout"/>
                  </use>
                  <path fill="none" stroke="white" stroke-width="1.5" d="M0,-3.0v7 M-2.5,-0.5L0,-3.0L2.5,-0.5"/>
                </g>
        </g>
        <svg viewBox="0 0 15 15" width="100%" height="30px" preserveAspectRatio="xMaxYMin meet">
         <g id="arrow_out" transform="scale(0.3 0.3)">
          <a xlink:href="structaltintegration_1_1VbkPopTx__coll__graph_org.svg" target="_base">
           <rect id="button" ry="5" rx="5" y="6" x="6" height="38" width="38"
                fill="#f2f5e9" fill-opacity="0.5" stroke="#606060" stroke-width="1.0"/>
           <path id="arrow"
             d="M 11.500037,31.436501 C 11.940474,20.09759 22.043105,11.32322 32.158766,21.979434 L 37.068811,17.246167 C 37.068811,17.246167 37.088388,32 37.088388,32 L 22.160133,31.978069 C 22.160133,31.978069 26.997745,27.140456 26.997745,27.140456 C 18.528582,18.264221 13.291696,25.230495 11.500037,31.436501 z"
             style="fill:#404040;"/>
          </a>
         </g>
        </svg>
</svg>
