<?xml version="1.0" encoding="UTF-8" standalone="no"?>
<!DOCTYPE svg PUBLIC "-//W3C//DTD SVG 1.1//EN"
 "http://www.w3.org/Graphics/SVG/1.1/DTD/svg11.dtd">
<!-- Generated by graphviz version 2.44.0 ()
 -->
<!-- Title: altintegration::AltBlockTree Pages: 1 -->
<svg width="866pt" height="1677pt"
 viewBox="0.00 0.00 865.50 1677.00" xmlns="http://www.w3.org/2000/svg" xmlns:xlink="http://www.w3.org/1999/xlink">
<g id="graph0" class="graph" transform="scale(1 1) rotate(0) translate(4 1673)">
<title>altintegration::AltBlockTree</title>
<polygon fill="white" stroke="transparent" points="-4,4 -4,-1673 861.5,-1673 861.5,4 -4,4"/>
<!-- Node1 -->
<g id="node1" class="node">
<title>Node1</title>
<g id="a_node1"><a xlink:title="Represents simplified view on Altchain&#39;s block tree, maintains VBK tree and BTC tree.">
<polygon fill="#bfbfbf" stroke="black" points="338,-0.5 338,-189.5 487,-189.5 487,-0.5 338,-0.5"/>
<text text-anchor="middle" x="412.5" y="-177.5" font-family="Helvetica,sans-Serif" font-size="10.00">altintegration::AltBlockTree</text>
<polyline fill="none" stroke="black" points="338,-170.5 487,-170.5 "/>
<text text-anchor="start" x="346" y="-158.5" font-family="Helvetica,sans-Serif" font-size="10.00">+ onInvalidBlockConnected</text>
<text text-anchor="start" x="346" y="-147.5" font-family="Helvetica,sans-Serif" font-size="10.00">+ onBlockConnected</text>
<polyline fill="none" stroke="black" points="338,-140.5 487,-140.5 "/>
<text text-anchor="start" x="346" y="-128.5" font-family="Helvetica,sans-Serif" font-size="10.00">+ ~AltBlockTree()</text>
<text text-anchor="start" x="346" y="-117.5" font-family="Helvetica,sans-Serif" font-size="10.00">+ AltBlockTree()</text>
<text text-anchor="start" x="346" y="-106.5" font-family="Helvetica,sans-Serif" font-size="10.00">+ acceptBlockHeader()</text>
<text text-anchor="start" x="346" y="-95.5" font-family="Helvetica,sans-Serif" font-size="10.00">+ acceptBlock()</text>
<text text-anchor="start" x="346" y="-84.5" font-family="Helvetica,sans-Serif" font-size="10.00">+ acceptBlock()</text>
<text text-anchor="start" x="346" y="-73.5" font-family="Helvetica,sans-Serif" font-size="10.00">+ acceptBlock()</text>
<text text-anchor="start" x="346" y="-62.5" font-family="Helvetica,sans-Serif" font-size="10.00">+ makeConnectedLeafPayload</text>
<text text-anchor="start" x="346" y="-51.5" font-family="Helvetica,sans-Serif" font-size="10.00">Mutator()</text>
<text text-anchor="start" x="346" y="-40.5" font-family="Helvetica,sans-Serif" font-size="10.00">+ getConnectedTipsAfter()</text>
<text text-anchor="start" x="346" y="-29.5" font-family="Helvetica,sans-Serif" font-size="10.00">+ loadBlockForward()</text>
<text text-anchor="start" x="346" y="-18.5" font-family="Helvetica,sans-Serif" font-size="10.00">+ loadTip()</text>
<text text-anchor="start" x="346" y="-7.5" font-family="Helvetica,sans-Serif" font-size="10.00">and 7 more...</text>
</a>
</g>
</g>
<!-- Node2 -->
<g id="node2" class="node">
<title>Node2</title>
<g id="a_node2"><a xlink:href="structaltintegration_1_1BaseBlockTree.html" target="_top" xlink:title=" ">
<polygon fill="white" stroke="black" points="336.5,-227.5 336.5,-471.5 488.5,-471.5 488.5,-227.5 336.5,-227.5"/>
<text text-anchor="start" x="344.5" y="-459.5" font-family="Helvetica,sans-Serif" font-size="10.00">altintegration::BaseBlock</text>
<text text-anchor="middle" x="412.5" y="-448.5" font-family="Helvetica,sans-Serif" font-size="10.00">Tree&lt; AltBlock &gt;</text>
<polyline fill="none" stroke="black" points="336.5,-441.5 488.5,-441.5 "/>
<text text-anchor="start" x="344.5" y="-429.5" font-family="Helvetica,sans-Serif" font-size="10.00"># validity_sig_</text>
<polyline fill="none" stroke="black" points="336.5,-422.5 488.5,-422.5 "/>
<text text-anchor="start" x="344.5" y="-410.5" font-family="Helvetica,sans-Serif" font-size="10.00">+ getTips()</text>
<text text-anchor="start" x="344.5" y="-399.5" font-family="Helvetica,sans-Serif" font-size="10.00">+ getBlocks()</text>
<text text-anchor="start" x="344.5" y="-388.5" font-family="Helvetica,sans-Serif" font-size="10.00">+ getBlockProvider()</text>
<text text-anchor="start" x="344.5" y="-377.5" font-family="Helvetica,sans-Serif" font-size="10.00">+ ~BaseBlockTree()</text>
<text text-anchor="start" x="344.5" y="-366.5" font-family="Helvetica,sans-Serif" font-size="10.00">+ BaseBlockTree()</text>
<text text-anchor="start" x="344.5" y="-355.5" font-family="Helvetica,sans-Serif" font-size="10.00">+ BaseBlockTree()</text>
<text text-anchor="start" x="344.5" y="-344.5" font-family="Helvetica,sans-Serif" font-size="10.00">+ BaseBlockTree()</text>
<text text-anchor="start" x="344.5" y="-333.5" font-family="Helvetica,sans-Serif" font-size="10.00">+ operator=()</text>
<text text-anchor="start" x="344.5" y="-322.5" font-family="Helvetica,sans-Serif" font-size="10.00">+ operator=()</text>
<text text-anchor="start" x="344.5" y="-311.5" font-family="Helvetica,sans-Serif" font-size="10.00">+ getBestChain()</text>
<text text-anchor="start" x="344.5" y="-300.5" font-family="Helvetica,sans-Serif" font-size="10.00">and 23 more...</text>
<text text-anchor="start" x="344.5" y="-289.5" font-family="Helvetica,sans-Serif" font-size="10.00"># eraseBlock()</text>
<text text-anchor="start" x="344.5" y="-278.5" font-family="Helvetica,sans-Serif" font-size="10.00"># toPrettyString()</text>
<text text-anchor="start" x="344.5" y="-267.5" font-family="Helvetica,sans-Serif" font-size="10.00"># decreaseAppliedBlockCount()</text>
<text text-anchor="start" x="344.5" y="-256.5" font-family="Helvetica,sans-Serif" font-size="10.00"># decreaseAppliedBlockCount()</text>
<text text-anchor="start" x="344.5" y="-245.5" font-family="Helvetica,sans-Serif" font-size="10.00"># increaseAppliedBlockCount()</text>
<text text-anchor="start" x="344.5" y="-234.5" font-family="Helvetica,sans-Serif" font-size="10.00"># increaseAppliedBlockCount()</text>
</a>
</g>
</g>
<!-- Node2&#45;&gt;Node1 -->
<g id="edge1" class="edge">
<title>Node2&#45;&gt;Node1</title>
<path fill="none" stroke="midnightblue" d="M412.5,-217.34C412.5,-208.04 412.5,-198.78 412.5,-189.76"/>
<polygon fill="none" stroke="midnightblue" points="409,-217.43 412.5,-227.43 416,-217.43 409,-217.43"/>
</g>
<!-- Node3 -->
<g id="node3" class="node">
<title>Node3</title>
<g id="a_node3"><a xlink:href="structaltintegration_1_1BlockReader.html" target="_top" xlink:title="An abstraction over on&#45;disk storage iterator.">
<polygon fill="white" stroke="black" points="159.5,-817 159.5,-984 291.5,-984 291.5,-817 159.5,-817"/>
<text text-anchor="middle" x="225.5" y="-972" font-family="Helvetica,sans-Serif" font-size="10.00">altintegration::BlockReader</text>
<polyline fill="none" stroke="black" points="159.5,-965 291.5,-965 "/>
<text text-anchor="middle" x="225.5" y="-953" font-family="Helvetica,sans-Serif" font-size="10.00"> </text>
<polyline fill="none" stroke="black" points="159.5,-946 291.5,-946 "/>
<text text-anchor="start" x="167.5" y="-934" font-family="Helvetica,sans-Serif" font-size="10.00">+ ~BlockReader()</text>
<text text-anchor="start" x="167.5" y="-923" font-family="Helvetica,sans-Serif" font-size="10.00">+ getAltTip()</text>
<text text-anchor="start" x="167.5" y="-912" font-family="Helvetica,sans-Serif" font-size="10.00">+ getVbkTip()</text>
<text text-anchor="start" x="167.5" y="-901" font-family="Helvetica,sans-Serif" font-size="10.00">+ getBtcTip()</text>
<text text-anchor="start" x="167.5" y="-890" font-family="Helvetica,sans-Serif" font-size="10.00">+ getBlock()</text>
<text text-anchor="start" x="167.5" y="-879" font-family="Helvetica,sans-Serif" font-size="10.00">+ getBlock()</text>
<text text-anchor="start" x="167.5" y="-868" font-family="Helvetica,sans-Serif" font-size="10.00">+ getBlock()</text>
<text text-anchor="start" x="167.5" y="-857" font-family="Helvetica,sans-Serif" font-size="10.00">+ getAltBlockIterator()</text>
<text text-anchor="start" x="167.5" y="-846" font-family="Helvetica,sans-Serif" font-size="10.00">+ getVbkBlockIterator()</text>
<text text-anchor="start" x="167.5" y="-835" font-family="Helvetica,sans-Serif" font-size="10.00">+ getBtcBlockIterator()</text>
<text text-anchor="start" x="167.5" y="-824" font-family="Helvetica,sans-Serif" font-size="10.00">and 6 more...</text>
</a>
</g>
</g>
<!-- Node3&#45;&gt;Node2 -->
<g id="edge2" class="edge">
<title>Node3&#45;&gt;Node2</title>
<path fill="none" stroke="#404040" d="M215.61,-816.71C215.65,-805 216.47,-793.16 218.5,-782 237.8,-675.94 288.3,-565.21 332.94,-482.48"/>
<polygon fill="none" stroke="#404040" points="333.04,-482.31 332.39,-475.12 338.77,-471.77 339.42,-478.95 333.04,-482.31"/>
<text text-anchor="middle" x="349" y="-639" font-family="Helvetica,sans-Serif" font-size="10.00"> #blockProvider_</text>
</g>
<!-- Node20 -->
<g id="node20" class="node">
<title>Node20</title>
<g id="a_node20"><a xlink:href="structaltintegration_1_1BaseBlockTree.html" target="_top" xlink:title="Base block tree that stores all blocks, maintains tree tips, maintains active chain.">
<polygon fill="white" stroke="black" points="459.5,-519.5 459.5,-763.5 611.5,-763.5 611.5,-519.5 459.5,-519.5"/>
<text text-anchor="start" x="467.5" y="-751.5" font-family="Helvetica,sans-Serif" font-size="10.00">altintegration::BaseBlock</text>
<text text-anchor="middle" x="535.5" y="-740.5" font-family="Helvetica,sans-Serif" font-size="10.00">Tree&lt; Block &gt;</text>
<polyline fill="none" stroke="black" points="459.5,-733.5 611.5,-733.5 "/>
<text text-anchor="start" x="467.5" y="-721.5" font-family="Helvetica,sans-Serif" font-size="10.00"># validity_sig_</text>
<polyline fill="none" stroke="black" points="459.5,-714.5 611.5,-714.5 "/>
<text text-anchor="start" x="467.5" y="-702.5" font-family="Helvetica,sans-Serif" font-size="10.00">+ getTips()</text>
<text text-anchor="start" x="467.5" y="-691.5" font-family="Helvetica,sans-Serif" font-size="10.00">+ getBlocks()</text>
<text text-anchor="start" x="467.5" y="-680.5" font-family="Helvetica,sans-Serif" font-size="10.00">+ getBlockProvider()</text>
<text text-anchor="start" x="467.5" y="-669.5" font-family="Helvetica,sans-Serif" font-size="10.00">+ ~BaseBlockTree()</text>
<text text-anchor="start" x="467.5" y="-658.5" font-family="Helvetica,sans-Serif" font-size="10.00">+ BaseBlockTree()</text>
<text text-anchor="start" x="467.5" y="-647.5" font-family="Helvetica,sans-Serif" font-size="10.00">+ BaseBlockTree()</text>
<text text-anchor="start" x="467.5" y="-636.5" font-family="Helvetica,sans-Serif" font-size="10.00">+ operator=()</text>
<text text-anchor="start" x="467.5" y="-625.5" font-family="Helvetica,sans-Serif" font-size="10.00">+ BaseBlockTree()</text>
<text text-anchor="start" x="467.5" y="-614.5" font-family="Helvetica,sans-Serif" font-size="10.00">+ operator=()</text>
<text text-anchor="start" x="467.5" y="-603.5" font-family="Helvetica,sans-Serif" font-size="10.00">+ getBestChain()</text>
<text text-anchor="start" x="467.5" y="-592.5" font-family="Helvetica,sans-Serif" font-size="10.00">and 23 more...</text>
<text text-anchor="start" x="467.5" y="-581.5" font-family="Helvetica,sans-Serif" font-size="10.00"># eraseBlock()</text>
<text text-anchor="start" x="467.5" y="-570.5" font-family="Helvetica,sans-Serif" font-size="10.00"># toPrettyString()</text>
<text text-anchor="start" x="467.5" y="-559.5" font-family="Helvetica,sans-Serif" font-size="10.00"># decreaseAppliedBlockCount()</text>
<text text-anchor="start" x="467.5" y="-548.5" font-family="Helvetica,sans-Serif" font-size="10.00"># increaseAppliedBlockCount()</text>
<text text-anchor="start" x="467.5" y="-537.5" font-family="Helvetica,sans-Serif" font-size="10.00"># decreaseAppliedBlockCount()</text>
<text text-anchor="start" x="467.5" y="-526.5" font-family="Helvetica,sans-Serif" font-size="10.00"># increaseAppliedBlockCount()</text>
</a>
</g>
</g>
<!-- Node3&#45;&gt;Node20 -->
<g id="edge26" class="edge">
<title>Node3&#45;&gt;Node20</title>
<path fill="none" stroke="#404040" d="M291.63,-817.49C294.53,-815.19 297.49,-813.02 300.5,-811 356.77,-773.27 390.5,-803.55 445.5,-764 447,-762.92 448.48,-761.81 449.95,-760.67"/>
<polygon fill="none" stroke="#404040" points="450.23,-760.44 452.26,-753.53 459.43,-752.74 457.4,-759.66 450.23,-760.44"/>
<text text-anchor="middle" x="446" y="-785" font-family="Helvetica,sans-Serif" font-size="10.00"> #blockProvider_</text>
</g>
<!-- Node4 -->
<g id="node4" class="node">
<title>Node4</title>
<g id="a_node4"><a xlink:href="structaltintegration_1_1Chain.html" target="_top" xlink:title=" ">
<polygon fill="white" stroke="black" points="0,-811.5 0,-989.5 141,-989.5 141,-811.5 0,-811.5"/>
<text text-anchor="start" x="8" y="-977.5" font-family="Helvetica,sans-Serif" font-size="10.00">altintegration::Chain</text>
<text text-anchor="middle" x="70.5" y="-966.5" font-family="Helvetica,sans-Serif" font-size="10.00">&lt; altintegration::BlockIndex &gt;</text>
<polyline fill="none" stroke="black" points="0,-959.5 141,-959.5 "/>
<text text-anchor="middle" x="70.5" y="-947.5" font-family="Helvetica,sans-Serif" font-size="10.00"> </text>
<polyline fill="none" stroke="black" points="0,-940.5 141,-940.5 "/>
<text text-anchor="start" x="8" y="-928.5" font-family="Helvetica,sans-Serif" font-size="10.00">+ Chain()</text>
<text text-anchor="start" x="8" y="-917.5" font-family="Helvetica,sans-Serif" font-size="10.00">+ Chain()</text>
<text text-anchor="start" x="8" y="-906.5" font-family="Helvetica,sans-Serif" font-size="10.00">+ Chain()</text>
<text text-anchor="start" x="8" y="-895.5" font-family="Helvetica,sans-Serif" font-size="10.00">+ getStartHeight()</text>
<text text-anchor="start" x="8" y="-884.5" font-family="Helvetica,sans-Serif" font-size="10.00">+ firstHeight()</text>
<text text-anchor="start" x="8" y="-873.5" font-family="Helvetica,sans-Serif" font-size="10.00">+ contains()</text>
<text text-anchor="start" x="8" y="-862.5" font-family="Helvetica,sans-Serif" font-size="10.00">+ operator[]()</text>
<text text-anchor="start" x="8" y="-851.5" font-family="Helvetica,sans-Serif" font-size="10.00">+ next()</text>
<text text-anchor="start" x="8" y="-840.5" font-family="Helvetica,sans-Serif" font-size="10.00">+ chainHeight()</text>
<text text-anchor="start" x="8" y="-829.5" font-family="Helvetica,sans-Serif" font-size="10.00">+ empty()</text>
<text text-anchor="start" x="8" y="-818.5" font-family="Helvetica,sans-Serif" font-size="10.00">and 15 more...</text>
</a>
</g>
</g>
<!-- Node4&#45;&gt;Node2 -->
<g id="edge3" class="edge">
<title>Node4&#45;&gt;Node2</title>
<path fill="none" stroke="#404040" d="M71.73,-811.22C76.89,-728.92 95.24,-606.12 155.5,-519 197.26,-458.63 268.36,-414.48 325.2,-386.56"/>
<polygon fill="none" stroke="#404040" points="325.55,-386.39 329.23,-380.18 336.37,-381.19 332.69,-387.39 325.55,-386.39"/>
<text text-anchor="middle" x="187.5" y="-639" font-family="Helvetica,sans-Serif" font-size="10.00"> #activeChain_</text>
</g>
<!-- Node4&#45;&gt;Node20 -->
<g id="edge27" class="edge">
<title>Node4&#45;&gt;Node20</title>
<path fill="none" stroke="#404040" d="M141.05,-817.17C144.14,-814.96 147.29,-812.9 150.5,-811 198.86,-782.43 218.12,-791.39 273.5,-782 311.39,-775.58 412.13,-783.05 445.5,-764 446.7,-763.32 447.88,-762.61 449.06,-761.88"/>
<polygon fill="none" stroke="#404040" points="449.46,-761.61 452.11,-754.9 459.32,-754.77 456.67,-761.48 449.46,-761.61"/>
<text text-anchor="middle" x="305.5" y="-785" font-family="Helvetica,sans-Serif" font-size="10.00"> #activeChain_</text>
</g>
<!-- Node5 -->
<g id="node5" class="node">
<title>Node5</title>
<g id="a_node5"><a xlink:href="structaltintegration_1_1Chain.html" target="_top" xlink:title="Fully in&#45;memory chain representation.">
<polygon fill="white" stroke="black" points="15,-1065 15,-1243 116,-1243 116,-1065 15,-1065"/>
<text text-anchor="start" x="23" y="-1231" font-family="Helvetica,sans-Serif" font-size="10.00">altintegration::Chain</text>
<text text-anchor="middle" x="65.5" y="-1220" font-family="Helvetica,sans-Serif" font-size="10.00">&lt; BlockIndexT &gt;</text>
<polyline fill="none" stroke="black" points="15,-1213 116,-1213 "/>
<text text-anchor="middle" x="65.5" y="-1201" font-family="Helvetica,sans-Serif" font-size="10.00"> </text>
<polyline fill="none" stroke="black" points="15,-1194 116,-1194 "/>
<text text-anchor="start" x="23" y="-1182" font-family="Helvetica,sans-Serif" font-size="10.00">+ Chain()</text>
<text text-anchor="start" x="23" y="-1171" font-family="Helvetica,sans-Serif" font-size="10.00">+ Chain()</text>
<text text-anchor="start" x="23" y="-1160" font-family="Helvetica,sans-Serif" font-size="10.00">+ Chain()</text>
<text text-anchor="start" x="23" y="-1149" font-family="Helvetica,sans-Serif" font-size="10.00">+ getStartHeight()</text>
<text text-anchor="start" x="23" y="-1138" font-family="Helvetica,sans-Serif" font-size="10.00">+ firstHeight()</text>
<text text-anchor="start" x="23" y="-1127" font-family="Helvetica,sans-Serif" font-size="10.00">+ contains()</text>
<text text-anchor="start" x="23" y="-1116" font-family="Helvetica,sans-Serif" font-size="10.00">+ operator[]()</text>
<text text-anchor="start" x="23" y="-1105" font-family="Helvetica,sans-Serif" font-size="10.00">+ next()</text>
<text text-anchor="start" x="23" y="-1094" font-family="Helvetica,sans-Serif" font-size="10.00">+ chainHeight()</text>
<text text-anchor="start" x="23" y="-1083" font-family="Helvetica,sans-Serif" font-size="10.00">+ empty()</text>
<text text-anchor="start" x="23" y="-1072" font-family="Helvetica,sans-Serif" font-size="10.00">and 15 more...</text>
</a>
</g>
</g>
<!-- Node5&#45;&gt;Node4 -->
<g id="edge4" class="edge">
<title>Node5&#45;&gt;Node4</title>
<path fill="none" stroke="orange" d="M65.77,-1054.63C65.93,-1039.03 66.17,-1023.07 66.5,-1008 66.63,-1001.99 66.8,-995.79 66.98,-989.54"/>
<polygon fill="orange" stroke="orange" points="62.27,-1054.78 65.68,-1064.81 69.27,-1054.85 62.27,-1054.78"/>
<text text-anchor="middle" x="130" y="-1016.5" font-family="Helvetica,sans-Serif" font-size="10.00"> &lt; altintegration::BlockIndex &gt;</text>
</g>
<!-- Node6 -->
<g id="node6" class="node">
<title>Node6</title>
<g id="a_node6"><a xlink:title=" ">
<polygon fill="white" stroke="#bfbfbf" points="608,-861 608,-940 745,-940 745,-861 608,-861"/>
<text text-anchor="start" x="616" y="-928" font-family="Helvetica,sans-Serif" font-size="10.00">std::unordered_map</text>
<text text-anchor="start" x="616" y="-917" font-family="Helvetica,sans-Serif" font-size="10.00">&lt; prev_block_hash_t,</text>
<text text-anchor="middle" x="676.5" y="-906" font-family="Helvetica,sans-Serif" font-size="10.00"> std::unique_ptr&lt; index_t &gt; &gt;</text>
<polyline fill="none" stroke="#bfbfbf" points="608,-899 745,-899 "/>
<text text-anchor="start" x="616" y="-887" font-family="Helvetica,sans-Serif" font-size="10.00">+ keys</text>
<polyline fill="none" stroke="#bfbfbf" points="608,-880 745,-880 "/>
<text text-anchor="middle" x="676.5" y="-868" font-family="Helvetica,sans-Serif" font-size="10.00"> </text>
</a>
</g>
</g>
<!-- Node6&#45;&gt;Node2 -->
<g id="edge5" class="edge">
<title>Node6&#45;&gt;Node2</title>
<path fill="none" stroke="#404040" d="M679.65,-860.93C683.74,-788.72 683.98,-630.38 620.5,-519 592,-468.99 542.39,-427.93 498.77,-398.87"/>
<polygon fill="none" stroke="#404040" points="498.75,-398.85 491.54,-398.93 488.7,-392.3 495.91,-392.23 498.75,-398.85"/>
<text text-anchor="middle" x="700.5" y="-639" font-family="Helvetica,sans-Serif" font-size="10.00"> #blocks_</text>
</g>
<!-- Node6&#45;&gt;Node20 -->
<g id="edge28" class="edge">
<title>Node6&#45;&gt;Node20</title>
<path fill="none" stroke="#404040" d="M648.73,-860.95C634.97,-841.1 618.56,-816.25 605.5,-793 602.11,-786.96 598.74,-780.74 595.42,-774.4"/>
<polygon fill="none" stroke="#404040" points="595.38,-774.33 589.07,-770.83 589.87,-763.67 596.18,-767.16 595.38,-774.33"/>
<text text-anchor="middle" x="626.5" y="-785" font-family="Helvetica,sans-Serif" font-size="10.00"> #blocks_</text>
</g>
<!-- Node7 -->
<g id="node7" class="node">
<title>Node7</title>
<g id="a_node7"><a xlink:title=" ">
<polygon fill="white" stroke="#bfbfbf" points="624,-1278.5 624,-1335.5 751,-1335.5 751,-1278.5 624,-1278.5"/>
<text text-anchor="middle" x="687.5" y="-1323.5" font-family="Helvetica,sans-Serif" font-size="10.00">std::unique_ptr&lt; index_t &gt;</text>
<polyline fill="none" stroke="#bfbfbf" points="624,-1316.5 751,-1316.5 "/>
<text text-anchor="start" x="632" y="-1304.5" font-family="Helvetica,sans-Serif" font-size="10.00">+ ptr</text>
<polyline fill="none" stroke="#bfbfbf" points="624,-1297.5 751,-1297.5 "/>
<text text-anchor="start" x="632" y="-1285.5" font-family="Helvetica,sans-Serif" font-size="10.00">+ operator&#45;&gt;()</text>
</a>
</g>
</g>
<!-- Node7&#45;&gt;Node6 -->
<g id="edge6" class="edge">
<title>Node7&#45;&gt;Node6</title>
<path fill="none" stroke="#404040" d="M686.74,-1278.2C684.91,-1210.91 680.23,-1038.51 677.88,-952.25"/>
<polygon fill="none" stroke="#404040" points="677.88,-952.16 673.72,-946.28 677.55,-940.17 681.71,-946.06 677.88,-952.16"/>
<text text-anchor="middle" x="710" y="-1151.5" font-family="Helvetica,sans-Serif" font-size="10.00"> +elements</text>
</g>
<!-- Node8 -->
<g id="node8" class="node">
<title>Node8</title>
<g id="a_node8"><a xlink:title=" ">
<polygon fill="white" stroke="#bfbfbf" points="636.5,-1430.5 636.5,-1487.5 738.5,-1487.5 738.5,-1430.5 636.5,-1430.5"/>
<text text-anchor="middle" x="687.5" y="-1475.5" font-family="Helvetica,sans-Serif" font-size="10.00">std::unique_ptr&lt; T &gt;</text>
<polyline fill="none" stroke="#bfbfbf" points="636.5,-1468.5 738.5,-1468.5 "/>
<text text-anchor="middle" x="687.5" y="-1456.5" font-family="Helvetica,sans-Serif" font-size="10.00"> </text>
<polyline fill="none" stroke="#bfbfbf" points="636.5,-1449.5 738.5,-1449.5 "/>
<text text-anchor="start" x="644.5" y="-1437.5" font-family="Helvetica,sans-Serif" font-size="10.00">+ operator&#45;&gt;()</text>
</a>
</g>
</g>
<!-- Node8&#45;&gt;Node7 -->
<g id="edge7" class="edge">
<title>Node8&#45;&gt;Node7</title>
<path fill="none" stroke="orange" d="M687.5,-1420.47C687.5,-1394.11 687.5,-1359.43 687.5,-1335.59"/>
<polygon fill="orange" stroke="orange" points="684,-1420.49 687.5,-1430.49 691,-1420.49 684,-1420.49"/>
<text text-anchor="middle" x="712.5" y="-1380.5" font-family="Helvetica,sans-Serif" font-size="10.00"> &lt; index_t &gt;</text>
</g>
<!-- Node9 -->
<g id="node9" class="node">
<title>Node9</title>
<g id="a_node9"><a xlink:title=" ">
<polygon fill="white" stroke="#bfbfbf" points="673,-1611.5 673,-1668.5 702,-1668.5 702,-1611.5 673,-1611.5"/>
<text text-anchor="middle" x="687.5" y="-1656.5" font-family="Helvetica,sans-Serif" font-size="10.00">T</text>
<polyline fill="none" stroke="#bfbfbf" points="673,-1649.5 702,-1649.5 "/>
<text text-anchor="middle" x="687.5" y="-1637.5" font-family="Helvetica,sans-Serif" font-size="10.00"> </text>
<polyline fill="none" stroke="#bfbfbf" points="673,-1630.5 702,-1630.5 "/>
<text text-anchor="middle" x="687.5" y="-1618.5" font-family="Helvetica,sans-Serif" font-size="10.00"> </text>
</a>
</g>
</g>
<!-- Node9&#45;&gt;Node8 -->
<g id="edge8" class="edge">
<title>Node9&#45;&gt;Node8</title>
<path fill="none" stroke="#404040" d="M687.5,-1611.42C687.5,-1581.6 687.5,-1533.77 687.5,-1499.86"/>
<polygon fill="none" stroke="#404040" points="687.5,-1499.61 683.5,-1493.61 687.5,-1487.61 691.5,-1493.61 687.5,-1499.61"/>
<text text-anchor="middle" x="697.5" y="-1585" font-family="Helvetica,sans-Serif" font-size="10.00"> +ptr</text>
</g>
<!-- Node10 -->
<g id="node10" class="node">
<title>Node10</title>
<g id="a_node10"><a xlink:title=" ">
<polygon fill="white" stroke="#bfbfbf" points="746,-1120 746,-1188 847,-1188 847,-1120 746,-1120"/>
<text text-anchor="start" x="754" y="-1176" font-family="Helvetica,sans-Serif" font-size="10.00">std::unordered_map</text>
<text text-anchor="middle" x="796.5" y="-1165" font-family="Helvetica,sans-Serif" font-size="10.00">&lt; K, T &gt;</text>
<polyline fill="none" stroke="#bfbfbf" points="746,-1158 847,-1158 "/>
<text text-anchor="middle" x="796.5" y="-1146" font-family="Helvetica,sans-Serif" font-size="10.00"> </text>
<polyline fill="none" stroke="#bfbfbf" points="746,-1139 847,-1139 "/>
<text text-anchor="middle" x="796.5" y="-1127" font-family="Helvetica,sans-Serif" font-size="10.00"> </text>
</a>
</g>
</g>
<!-- Node9&#45;&gt;Node10 -->
<g id="edge11" class="edge">
<title>Node9&#45;&gt;Node10</title>
<path fill="none" stroke="#404040" d="M702.15,-1612.57C705.42,-1606.25 708.73,-1599.46 711.5,-1593 730.97,-1547.67 735.86,-1535.94 747.5,-1488 772.06,-1386.85 786.16,-1265.24 792.47,-1200.62"/>
<polygon fill="none" stroke="#404040" points="792.49,-1200.42 789.08,-1194.07 793.63,-1188.47 797.04,-1194.83 792.49,-1200.42"/>
<text text-anchor="middle" x="784" y="-1456.5" font-family="Helvetica,sans-Serif" font-size="10.00"> +elements</text>
</g>
<!-- Node16 -->
<g id="node16" class="node">
<title>Node16</title>
<g id="a_node16"><a xlink:title=" ">
<polygon fill="white" stroke="#bfbfbf" points="508,-1506.5 508,-1563.5 611,-1563.5 611,-1506.5 508,-1506.5"/>
<text text-anchor="middle" x="559.5" y="-1551.5" font-family="Helvetica,sans-Serif" font-size="10.00">std::shared_ptr&lt; T &gt;</text>
<polyline fill="none" stroke="#bfbfbf" points="508,-1544.5 611,-1544.5 "/>
<text text-anchor="middle" x="559.5" y="-1532.5" font-family="Helvetica,sans-Serif" font-size="10.00"> </text>
<polyline fill="none" stroke="#bfbfbf" points="508,-1525.5 611,-1525.5 "/>
<text text-anchor="start" x="516" y="-1513.5" font-family="Helvetica,sans-Serif" font-size="10.00">+ operator&#45;&gt;()</text>
</a>
</g>
</g>
<!-- Node9&#45;&gt;Node16 -->
<g id="edge17" class="edge">
<title>Node9&#45;&gt;Node16</title>
<path fill="none" stroke="#404040" d="M672.82,-1627.18C655.95,-1613.61 627.48,-1590.7 603.3,-1571.24"/>
<polygon fill="none" stroke="#404040" points="603.28,-1571.23 596.1,-1570.58 593.93,-1563.71 601.11,-1564.35 603.28,-1571.23"/>
<text text-anchor="middle" x="636.5" y="-1585" font-family="Helvetica,sans-Serif" font-size="10.00"> +ptr</text>
</g>
<!-- Node10&#45;&gt;Node6 -->
<g id="edge9" class="edge">
<title>Node10&#45;&gt;Node6</title>
<path fill="none" stroke="orange" d="M776.33,-1110.73C753.58,-1063.06 716.9,-986.17 694.9,-940.07"/>
<polygon fill="orange" stroke="orange" points="773.22,-1112.34 780.69,-1119.86 779.54,-1109.33 773.22,-1112.34"/>
<text text-anchor="start" x="736.5" y="-1022" font-family="Helvetica,sans-Serif" font-size="10.00"> &lt; prev_block_hash_t,</text>
<text text-anchor="middle" x="797" y="-1011" font-family="Helvetica,sans-Serif" font-size="10.00"> std::unique_ptr&lt; index_t &gt; &gt;</text>
</g>
<!-- Node11 -->
<g id="node11" class="node">
<title>Node11</title>
<g id="a_node11"><a xlink:title=" ">
<polygon fill="white" stroke="#bfbfbf" points="523,-1354.5 523,-1411.5 552,-1411.5 552,-1354.5 523,-1354.5"/>
<text text-anchor="middle" x="537.5" y="-1399.5" font-family="Helvetica,sans-Serif" font-size="10.00">K</text>
<polyline fill="none" stroke="#bfbfbf" points="523,-1392.5 552,-1392.5 "/>
<text text-anchor="middle" x="537.5" y="-1380.5" font-family="Helvetica,sans-Serif" font-size="10.00"> </text>
<polyline fill="none" stroke="#bfbfbf" points="523,-1373.5 552,-1373.5 "/>
<text text-anchor="middle" x="537.5" y="-1361.5" font-family="Helvetica,sans-Serif" font-size="10.00"> </text>
</a>
</g>
</g>
<!-- Node11&#45;&gt;Node10 -->
<g id="edge10" class="edge">
<title>Node11&#45;&gt;Node10</title>
<path fill="none" stroke="#404040" d="M552.13,-1362.06C557.46,-1354.21 563.21,-1344.94 567.5,-1336 579.23,-1311.54 565.56,-1295.24 586.5,-1278 636.63,-1236.72 676.83,-1295.04 731.5,-1260 753.63,-1245.81 769.48,-1221.13 779.98,-1199.25"/>
<polygon fill="none" stroke="#404040" points="780.06,-1199.08 778.87,-1191.97 784.99,-1188.14 786.17,-1195.25 780.06,-1199.08"/>
<text text-anchor="middle" x="601" y="-1304.5" font-family="Helvetica,sans-Serif" font-size="10.00"> +keys</text>
</g>
<!-- Node18 -->
<g id="node18" class="node">
<title>Node18</title>
<g id="a_node18"><a xlink:title=" ">
<polygon fill="white" stroke="#bfbfbf" points="394,-1125.5 394,-1182.5 465,-1182.5 465,-1125.5 394,-1125.5"/>
<text text-anchor="middle" x="429.5" y="-1170.5" font-family="Helvetica,sans-Serif" font-size="10.00">std::set&lt; K &gt;</text>
<polyline fill="none" stroke="#bfbfbf" points="394,-1163.5 465,-1163.5 "/>
<text text-anchor="middle" x="429.5" y="-1151.5" font-family="Helvetica,sans-Serif" font-size="10.00"> </text>
<polyline fill="none" stroke="#bfbfbf" points="394,-1144.5 465,-1144.5 "/>
<text text-anchor="middle" x="429.5" y="-1132.5" font-family="Helvetica,sans-Serif" font-size="10.00"> </text>
</a>
</g>
</g>
<!-- Node11&#45;&gt;Node18 -->
<g id="edge22" class="edge">
<title>Node11&#45;&gt;Node18</title>
<path fill="none" stroke="#404040" d="M522.67,-1363.4C516.59,-1355.27 509.75,-1345.45 504.5,-1336 478.47,-1289.19 456.09,-1231.49 442.71,-1194"/>
<polygon fill="none" stroke="#404040" points="442.68,-1193.9 436.91,-1189.57 438.69,-1182.58 444.46,-1186.91 442.68,-1193.9"/>
<text text-anchor="middle" x="519" y="-1304.5" font-family="Helvetica,sans-Serif" font-size="10.00"> +keys</text>
</g>
<!-- Node19 -->
<g id="node19" class="node">
<title>Node19</title>
<g id="a_node19"><a xlink:title=" ">
<polygon fill="white" stroke="#bfbfbf" points="483,-1125.5 483,-1182.5 602,-1182.5 602,-1125.5 483,-1125.5"/>
<text text-anchor="middle" x="542.5" y="-1170.5" font-family="Helvetica,sans-Serif" font-size="10.00">std::unordered_set&lt; K &gt;</text>
<polyline fill="none" stroke="#bfbfbf" points="483,-1163.5 602,-1163.5 "/>
<text text-anchor="middle" x="542.5" y="-1151.5" font-family="Helvetica,sans-Serif" font-size="10.00"> </text>
<polyline fill="none" stroke="#bfbfbf" points="483,-1144.5 602,-1144.5 "/>
<text text-anchor="middle" x="542.5" y="-1132.5" font-family="Helvetica,sans-Serif" font-size="10.00"> </text>
</a>
</g>
</g>
<!-- Node11&#45;&gt;Node19 -->
<g id="edge24" class="edge">
<title>Node11&#45;&gt;Node19</title>
<path fill="none" stroke="#404040" d="M537.59,-1354.19C537.71,-1333.24 537.96,-1303.81 538.5,-1278 539.08,-1250.3 540.1,-1219.1 540.97,-1195.05"/>
<polygon fill="none" stroke="#404040" points="540.97,-1194.83 537.2,-1188.69 541.41,-1182.84 545.19,-1188.98 540.97,-1194.83"/>
<text text-anchor="middle" x="553" y="-1304.5" font-family="Helvetica,sans-Serif" font-size="10.00"> +keys</text>
</g>
<!-- Node12 -->
<g id="node12" class="node">
<title>Node12</title>
<g id="a_node12"><a xlink:title=" ">
<polygon fill="white" stroke="#bfbfbf" points="442,-866.5 442,-934.5 589,-934.5 589,-866.5 442,-866.5"/>
<text text-anchor="start" x="450" y="-922.5" font-family="Helvetica,sans-Serif" font-size="10.00">std::unordered_set</text>
<text text-anchor="middle" x="515.5" y="-911.5" font-family="Helvetica,sans-Serif" font-size="10.00">&lt; altintegration::BlockIndex * &gt;</text>
<polyline fill="none" stroke="#bfbfbf" points="442,-904.5 589,-904.5 "/>
<text text-anchor="middle" x="515.5" y="-892.5" font-family="Helvetica,sans-Serif" font-size="10.00"> </text>
<polyline fill="none" stroke="#bfbfbf" points="442,-885.5 589,-885.5 "/>
<text text-anchor="middle" x="515.5" y="-873.5" font-family="Helvetica,sans-Serif" font-size="10.00"> </text>
</a>
</g>
</g>
<!-- Node12&#45;&gt;Node2 -->
<g id="edge12" class="edge">
<title>Node12&#45;&gt;Node2</title>
<path fill="none" stroke="#404040" d="M484.12,-866.36C462,-840.65 434.15,-802.94 421.5,-764 392.16,-673.69 390.73,-566.34 396.21,-483.65"/>
<polygon fill="none" stroke="#404040" points="396.21,-483.61 392.65,-477.34 397.06,-471.64 400.62,-477.9 396.21,-483.61"/>
<text text-anchor="middle" x="436" y="-639" font-family="Helvetica,sans-Serif" font-size="10.00"> #tips_</text>
</g>
<!-- Node12&#45;&gt;Node20 -->
<g id="edge29" class="edge">
<title>Node12&#45;&gt;Node20</title>
<path fill="none" stroke="#404040" d="M518.07,-866.43C519.91,-842.84 522.51,-809.43 525.14,-775.59"/>
<polygon fill="none" stroke="#404040" points="525.14,-775.58 521.62,-769.29 526.07,-763.61 529.6,-769.91 525.14,-775.58"/>
<text text-anchor="middle" x="538" y="-785" font-family="Helvetica,sans-Serif" font-size="10.00"> #tips_</text>
</g>
<!-- Node13 -->
<g id="node13" class="node">
<title>Node13</title>
<g id="a_node13"><a xlink:href="structaltintegration_1_1BlockIndex.html" target="_top" xlink:title="A node in a block tree.">
<polygon fill="white" stroke="black" points="200,-1048.5 200,-1259.5 325,-1259.5 325,-1048.5 200,-1048.5"/>
<text text-anchor="start" x="208" y="-1247.5" font-family="Helvetica,sans-Serif" font-size="10.00">altintegration::BlockIndex</text>
<text text-anchor="middle" x="262.5" y="-1236.5" font-family="Helvetica,sans-Serif" font-size="10.00">&lt; Block &gt;</text>
<polyline fill="none" stroke="black" points="200,-1229.5 325,-1229.5 "/>
<text text-anchor="start" x="208" y="-1217.5" font-family="Helvetica,sans-Serif" font-size="10.00">+ finalized</text>
<text text-anchor="start" x="208" y="-1206.5" font-family="Helvetica,sans-Serif" font-size="10.00"># height</text>
<text text-anchor="start" x="208" y="-1195.5" font-family="Helvetica,sans-Serif" font-size="10.00"># status</text>
<text text-anchor="start" x="208" y="-1184.5" font-family="Helvetica,sans-Serif" font-size="10.00"># dirty</text>
<polyline fill="none" stroke="black" points="200,-1177.5 325,-1177.5 "/>
<text text-anchor="start" x="208" y="-1165.5" font-family="Helvetica,sans-Serif" font-size="10.00">+ BlockIndex()</text>
<text text-anchor="start" x="208" y="-1154.5" font-family="Helvetica,sans-Serif" font-size="10.00">+ BlockIndex()</text>
<text text-anchor="start" x="208" y="-1143.5" font-family="Helvetica,sans-Serif" font-size="10.00">+ ~BlockIndex()</text>
<text text-anchor="start" x="208" y="-1132.5" font-family="Helvetica,sans-Serif" font-size="10.00">+ BlockIndex()</text>
<text text-anchor="start" x="208" y="-1121.5" font-family="Helvetica,sans-Serif" font-size="10.00">+ operator=()</text>
<text text-anchor="start" x="208" y="-1110.5" font-family="Helvetica,sans-Serif" font-size="10.00">+ isDeleted()</text>
<text text-anchor="start" x="208" y="-1099.5" font-family="Helvetica,sans-Serif" font-size="10.00">+ isRoot()</text>
<text text-anchor="start" x="208" y="-1088.5" font-family="Helvetica,sans-Serif" font-size="10.00">+ restore()</text>
<text text-anchor="start" x="208" y="-1077.5" font-family="Helvetica,sans-Serif" font-size="10.00">+ deleteTemporarily()</text>
<text text-anchor="start" x="208" y="-1066.5" font-family="Helvetica,sans-Serif" font-size="10.00">+ mergeFrom()</text>
<text text-anchor="start" x="208" y="-1055.5" font-family="Helvetica,sans-Serif" font-size="10.00">and 38 more...</text>
</a>
</g>
</g>
<!-- Node13&#45;&gt;Node12 -->
<g id="edge13" class="edge">
<title>Node13&#45;&gt;Node12</title>
<path fill="none" stroke="#404040" d="M313.21,-1048.18C324.37,-1032.93 337.44,-1018.78 352.5,-1008 381.43,-987.3 399.56,-1007.56 430.5,-990 450.63,-978.57 468.99,-960.9 483.45,-944.34"/>
<polygon fill="none" stroke="#404040" points="483.77,-943.96 484.58,-936.79 491.5,-934.78 490.7,-941.95 483.77,-943.96"/>
<text text-anchor="middle" x="367" y="-1016.5" font-family="Helvetica,sans-Serif" font-size="10.00"> +keys</text>
</g>
<!-- Node13&#45;&gt;Node13 -->
<g id="edge18" class="edge">
<title>Node13&#45;&gt;Node13</title>
<path fill="none" stroke="#404040" d="M325.28,-1177.35C335.76,-1174.08 343,-1166.3 343,-1154 343,-1146.5 340.31,-1140.69 335.84,-1136.54"/>
<polygon fill="none" stroke="#404040" points="335.76,-1136.5 328.57,-1137.06 325.28,-1130.65 332.47,-1130.08 335.76,-1136.5"/>
<text text-anchor="middle" x="359.5" y="-1151.5" font-family="Helvetica,sans-Serif" font-size="10.00"> +pprev</text>
</g>
<!-- Node17 -->
<g id="node17" class="node">
<title>Node17</title>
<g id="a_node17"><a xlink:title=" ">
<polygon fill="white" stroke="#bfbfbf" points="309.5,-866.5 309.5,-934.5 421.5,-934.5 421.5,-866.5 309.5,-866.5"/>
<text text-anchor="start" x="317.5" y="-922.5" font-family="Helvetica,sans-Serif" font-size="10.00">std::set&lt; altintegration</text>
<text text-anchor="middle" x="365.5" y="-911.5" font-family="Helvetica,sans-Serif" font-size="10.00">::BlockIndex * &gt;</text>
<polyline fill="none" stroke="#bfbfbf" points="309.5,-904.5 421.5,-904.5 "/>
<text text-anchor="middle" x="365.5" y="-892.5" font-family="Helvetica,sans-Serif" font-size="10.00"> </text>
<polyline fill="none" stroke="#bfbfbf" points="309.5,-885.5 421.5,-885.5 "/>
<text text-anchor="middle" x="365.5" y="-873.5" font-family="Helvetica,sans-Serif" font-size="10.00"> </text>
</a>
</g>
</g>
<!-- Node13&#45;&gt;Node17 -->
<g id="edge20" class="edge">
<title>Node13&#45;&gt;Node17</title>
<path fill="none" stroke="#404040" d="M214.52,-1048.18C213.97,-1033.74 217.2,-1019.83 226.5,-1008 247.42,-981.39 272.34,-1008.77 300.5,-990 317.42,-978.72 331.52,-961.49 342.21,-945.21"/>
<polygon fill="none" stroke="#404040" points="342.4,-944.91 342.18,-937.7 348.75,-934.72 348.97,-941.93 342.4,-944.91"/>
<text text-anchor="middle" x="241" y="-1016.5" font-family="Helvetica,sans-Serif" font-size="10.00"> +keys</text>
</g>
<!-- Node14 -->
<g id="node14" class="node">
<title>Node14</title>
<g id="a_node14"><a xlink:title=" ">
<polygon fill="white" stroke="#bfbfbf" points="222.5,-1354.5 222.5,-1411.5 302.5,-1411.5 302.5,-1354.5 222.5,-1354.5"/>
<text text-anchor="middle" x="262.5" y="-1399.5" font-family="Helvetica,sans-Serif" font-size="10.00">Block::addon_t</text>
<polyline fill="none" stroke="#bfbfbf" points="222.5,-1392.5 302.5,-1392.5 "/>
<text text-anchor="middle" x="262.5" y="-1380.5" font-family="Helvetica,sans-Serif" font-size="10.00"> </text>
<polyline fill="none" stroke="#bfbfbf" points="222.5,-1373.5 302.5,-1373.5 "/>
<text text-anchor="middle" x="262.5" y="-1361.5" font-family="Helvetica,sans-Serif" font-size="10.00"> </text>
</a>
</g>
</g>
<!-- Node14&#45;&gt;Node13 -->
<g id="edge14" class="edge">
<title>Node14&#45;&gt;Node13</title>
<path fill="none" stroke="midnightblue" d="M262.5,-1344.05C262.5,-1320.79 262.5,-1289.76 262.5,-1259.58"/>
<polygon fill="none" stroke="midnightblue" points="259,-1344.17 262.5,-1354.17 266,-1344.17 259,-1344.17"/>
</g>
<!-- Node15 -->
<g id="node15" class="node">
<title>Node15</title>
<g id="a_node15"><a xlink:title=" ">
<polygon fill="white" stroke="#bfbfbf" points="369.5,-1354.5 369.5,-1411.5 497.5,-1411.5 497.5,-1354.5 369.5,-1354.5"/>
<text text-anchor="middle" x="433.5" y="-1399.5" font-family="Helvetica,sans-Serif" font-size="10.00">std::shared_ptr&lt; block_t &gt;</text>
<polyline fill="none" stroke="#bfbfbf" points="369.5,-1392.5 497.5,-1392.5 "/>
<text text-anchor="start" x="377.5" y="-1380.5" font-family="Helvetica,sans-Serif" font-size="10.00">+ ptr</text>
<polyline fill="none" stroke="#bfbfbf" points="369.5,-1373.5 497.5,-1373.5 "/>
<text text-anchor="start" x="377.5" y="-1361.5" font-family="Helvetica,sans-Serif" font-size="10.00">+ operator&#45;&gt;()</text>
</a>
</g>
</g>
<!-- Node15&#45;&gt;Node13 -->
<g id="edge15" class="edge">
<title>Node15&#45;&gt;Node13</title>
<path fill="none" stroke="#404040" d="M412.53,-1354.17C392.51,-1327.59 361.21,-1286.03 332.36,-1247.74"/>
<polygon fill="none" stroke="#404040" points="332.31,-1247.67 325.5,-1245.29 325.09,-1238.09 331.89,-1240.47 332.31,-1247.67"/>
<text text-anchor="middle" x="416" y="-1304.5" font-family="Helvetica,sans-Serif" font-size="10.00"> #header</text>
</g>
<!-- Node16&#45;&gt;Node15 -->
<g id="edge16" class="edge">
<title>Node16&#45;&gt;Node15</title>
<path fill="none" stroke="orange" d="M529.73,-1498.56C507.39,-1471.96 477.24,-1436.07 456.68,-1411.59"/>
<polygon fill="orange" stroke="orange" points="527.28,-1501.08 536.39,-1506.49 532.64,-1496.58 527.28,-1501.08"/>
<text text-anchor="middle" x="544" y="-1456.5" font-family="Helvetica,sans-Serif" font-size="10.00"> &lt; block_t &gt;</text>
</g>
<!-- Node17&#45;&gt;Node13 -->
<g id="edge19" class="edge">
<title>Node17&#45;&gt;Node13</title>
<path fill="none" stroke="#404040" d="M345.87,-934.89C334.25,-952.73 318.34,-974.2 300.5,-990 288.28,-1000.82 277.03,-994.09 268.5,-1008 263.15,-1016.72 259.35,-1026.33 256.74,-1036.31"/>
<polygon fill="none" stroke="#404040" points="256.71,-1036.45 259.37,-1043.15 254.2,-1048.18 251.54,-1041.48 256.71,-1036.45"/>
<text text-anchor="middle" x="284.5" y="-1016.5" font-family="Helvetica,sans-Serif" font-size="10.00"> +pnext</text>
</g>
<!-- Node18&#45;&gt;Node17 -->
<g id="edge21" class="edge">
<title>Node18&#45;&gt;Node17</title>
<path fill="none" stroke="orange" d="M416.06,-1115.94C407.62,-1091.72 396.96,-1059.26 389.5,-1030 381.32,-997.89 374.66,-960.61 370.45,-934.5"/>
<polygon fill="orange" stroke="orange" points="412.78,-1117.19 419.41,-1125.46 419.39,-1114.86 412.78,-1117.19"/>
<text text-anchor="middle" x="456" y="-1016.5" font-family="Helvetica,sans-Serif" font-size="10.00"> &lt; altintegration::BlockIndex * &gt;</text>
</g>
<!-- Node19&#45;&gt;Node12 -->
<g id="edge23" class="edge">
<title>Node19&#45;&gt;Node12</title>
<path fill="none" stroke="orange" d="M538.41,-1114.92C533.14,-1065.83 524.06,-981.25 519.06,-934.67"/>
<polygon fill="orange" stroke="orange" points="534.96,-1115.55 539.51,-1125.12 541.92,-1114.81 534.96,-1115.55"/>
<text text-anchor="middle" x="595" y="-1016.5" font-family="Helvetica,sans-Serif" font-size="10.00"> &lt; altintegration::BlockIndex * &gt;</text>
</g>
<!-- Node20&#45;&gt;Node2 -->
<g id="edge25" class="edge">
<title>Node20&#45;&gt;Node2</title>
<path fill="none" stroke="orange" d="M480.14,-509.97C474.75,-497.26 469.29,-484.4 463.94,-471.79"/>
<polygon fill="orange" stroke="orange" points="476.92,-511.35 484.05,-519.19 483.37,-508.62 476.92,-511.35"/>
<text text-anchor="middle" x="501.5" y="-493" font-family="Helvetica,sans-Serif" font-size="10.00"> &lt; AltBlock &gt;</text>
</g>
</g>
</svg>
