<?xml version="1.0" encoding="UTF-8" standalone="no"?>
<!DOCTYPE svg PUBLIC "-//W3C//DTD SVG 1.1//EN"
 "http://www.w3.org/Graphics/SVG/1.1/DTD/svg11.dtd">
<!-- Generated by graphviz version 3.0.0 (20220413.0106)
 -->
<!-- Title: altintegration::btc::BlockTransactions Pages: 1 -->
<svg width="860pt" height="1357pt"
 viewBox="0.00 0.00 860.00 1357.00" xmlns="http://www.w3.org/2000/svg" xmlns:xlink="http://www.w3.org/1999/xlink">
<g id="graph0" class="graph" transform="scale(1 1) rotate(0) translate(4 1353)">
<title>altintegration::btc::BlockTransactions</title>
<polygon fill="white" stroke="transparent" points="-4,4 -4,-1353 856,-1353 856,4 -4,4"/>
<!-- Node1 -->
<g id="node1" class="node">
<title>Node1</title>
<g id="a_node1"><a xlink:title=" ">
<polygon fill="#bfbfbf" stroke="black" points="433.5,-0.5 433.5,-68.5 588.5,-68.5 588.5,-0.5 433.5,-0.5"/>
<text text-anchor="start" x="441.5" y="-56.5" font-family="Helvetica,sans-Serif" font-size="10.00">altintegration::btc</text>
<text text-anchor="middle" x="511" y="-45.5" font-family="Helvetica,sans-Serif" font-size="10.00">::BlockTransactions</text>
<polyline fill="none" stroke="black" points="433.5,-38.5 588.5,-38.5 "/>
<text text-anchor="start" x="441.5" y="-26.5" font-family="Helvetica,sans-Serif" font-size="10.00">+ ADD_SERIALIZE_METHODS</text>
<polyline fill="none" stroke="black" points="433.5,-19.5 588.5,-19.5 "/>
<text text-anchor="start" x="441.5" y="-7.5" font-family="Helvetica,sans-Serif" font-size="10.00">+ SerializationOp()</text>
</a>
</g>
</g>
<!-- Node2 -->
<g id="node2" class="node">
<title>Node2</title>
<g id="a_node2"><a xlink:href="structaltintegration_1_1Blob.html" target="_top" xlink:title=" ">
<polygon fill="white" stroke="black" points="669.5,-762.5 669.5,-984.5 800.5,-984.5 800.5,-762.5 669.5,-762.5"/>
<text text-anchor="start" x="677.5" y="-972.5" font-family="Helvetica,sans-Serif" font-size="10.00">altintegration::Blob</text>
<text text-anchor="middle" x="735" y="-961.5" font-family="Helvetica,sans-Serif" font-size="10.00">&lt; SHA256_HASH_SIZE &gt;</text>
<polyline fill="none" stroke="black" points="669.5,-954.5 800.5,-954.5 "/>
<text text-anchor="start" x="677.5" y="-942.5" font-family="Helvetica,sans-Serif" font-size="10.00">+ data_</text>
<text text-anchor="start" x="677.5" y="-931.5" font-family="Helvetica,sans-Serif" font-size="10.00">+ this</text>
<polyline fill="none" stroke="black" points="669.5,-924.5 800.5,-924.5 "/>
<text text-anchor="start" x="677.5" y="-912.5" font-family="Helvetica,sans-Serif" font-size="10.00">+ Blob()</text>
<text text-anchor="start" x="677.5" y="-901.5" font-family="Helvetica,sans-Serif" font-size="10.00">+ Blob()</text>
<text text-anchor="start" x="677.5" y="-890.5" font-family="Helvetica,sans-Serif" font-size="10.00">+ Blob()</text>
<text text-anchor="start" x="677.5" y="-879.5" font-family="Helvetica,sans-Serif" font-size="10.00">+ Blob()</text>
<text text-anchor="start" x="677.5" y="-868.5" font-family="Helvetica,sans-Serif" font-size="10.00">+ Blob()</text>
<text text-anchor="start" x="677.5" y="-857.5" font-family="Helvetica,sans-Serif" font-size="10.00">+ operator=()</text>
<text text-anchor="start" x="677.5" y="-846.5" font-family="Helvetica,sans-Serif" font-size="10.00">+ operator=()</text>
<text text-anchor="start" x="677.5" y="-835.5" font-family="Helvetica,sans-Serif" font-size="10.00">+ reverse()</text>
<text text-anchor="start" x="677.5" y="-824.5" font-family="Helvetica,sans-Serif" font-size="10.00">+ operator~()</text>
<text text-anchor="start" x="677.5" y="-813.5" font-family="Helvetica,sans-Serif" font-size="10.00">+ asVector()</text>
<text text-anchor="start" x="677.5" y="-802.5" font-family="Helvetica,sans-Serif" font-size="10.00">+ asString()</text>
<text text-anchor="start" x="677.5" y="-791.5" font-family="Helvetica,sans-Serif" font-size="10.00">+ operator[]()</text>
<text text-anchor="start" x="677.5" y="-780.5" font-family="Helvetica,sans-Serif" font-size="10.00">+ operator[]()</text>
<text text-anchor="start" x="677.5" y="-769.5" font-family="Helvetica,sans-Serif" font-size="10.00">+ compareTo()</text>
</a>
</g>
</g>
<!-- Node2&#45;&gt;Node1 -->
<g id="edge1" class="edge">
<title>Node2&#45;&gt;Node1</title>
<path fill="none" stroke="#404040" d="M754.69,-762.47C758.85,-731.09 762,-696.79 762,-665 762,-665 762,-665 762,-149.5 762,-76.55 673.01,-50.05 601,-40.56"/>
<polygon fill="none" stroke="#404040" points="600.61,-40.51 594.18,-43.76 588.7,-39.07 595.13,-35.82 600.61,-40.51"/>
<text text-anchor="middle" x="788.5" y="-413" font-family="Helvetica,sans-Serif" font-size="10.00"> +blockhash</text>
</g>
<!-- Node8 -->
<g id="node8" class="node">
<title>Node8</title>
<g id="a_node8"><a xlink:href="structaltintegration_1_1btc_1_1OutPoint.html" target="_top" xlink:title="An outpoint &#45; a combination of a transaction hash and an index n into its vout.">
<polygon fill="white" stroke="black" points="578.5,-624.5 578.5,-703.5 733.5,-703.5 733.5,-624.5 578.5,-624.5"/>
<text text-anchor="start" x="586.5" y="-691.5" font-family="Helvetica,sans-Serif" font-size="10.00">altintegration::btc</text>
<text text-anchor="middle" x="656" y="-680.5" font-family="Helvetica,sans-Serif" font-size="10.00">::OutPoint</text>
<polyline fill="none" stroke="black" points="578.5,-673.5 733.5,-673.5 "/>
<text text-anchor="start" x="586.5" y="-661.5" font-family="Helvetica,sans-Serif" font-size="10.00">+ n</text>
<text text-anchor="start" x="586.5" y="-650.5" font-family="Helvetica,sans-Serif" font-size="10.00">+ ADD_SERIALIZE_METHODS</text>
<polyline fill="none" stroke="black" points="578.5,-643.5 733.5,-643.5 "/>
<text text-anchor="start" x="586.5" y="-631.5" font-family="Helvetica,sans-Serif" font-size="10.00">+ SerializationOp()</text>
</a>
</g>
</g>
<!-- Node2&#45;&gt;Node8 -->
<g id="edge8" class="edge">
<title>Node2&#45;&gt;Node8</title>
<path fill="none" stroke="#404040" d="M693.07,-762.37C686.78,-745.85 680.57,-729.55 675.09,-715.14"/>
<polygon fill="none" stroke="#404040" points="674.94,-714.74 669.07,-710.56 670.67,-703.53 676.54,-707.71 674.94,-714.74"/>
<text text-anchor="middle" x="699" y="-730.5" font-family="Helvetica,sans-Serif" font-size="10.00"> +hash</text>
</g>
<!-- Node3 -->
<g id="node3" class="node">
<title>Node3</title>
<g id="a_node3"><a xlink:href="structaltintegration_1_1Blob.html" target="_top" xlink:title="Contiguous byte array of fixed size.">
<polygon fill="white" stroke="black" points="675,-1032.5 675,-1243.5 795,-1243.5 795,-1032.5 675,-1032.5"/>
<text text-anchor="middle" x="735" y="-1231.5" font-family="Helvetica,sans-Serif" font-size="10.00">altintegration::Blob&lt; N &gt;</text>
<polyline fill="none" stroke="black" points="675,-1224.5 795,-1224.5 "/>
<text text-anchor="start" x="683" y="-1212.5" font-family="Helvetica,sans-Serif" font-size="10.00">+ data_</text>
<text text-anchor="start" x="683" y="-1201.5" font-family="Helvetica,sans-Serif" font-size="10.00">+ this</text>
<polyline fill="none" stroke="black" points="675,-1194.5 795,-1194.5 "/>
<text text-anchor="start" x="683" y="-1182.5" font-family="Helvetica,sans-Serif" font-size="10.00">+ Blob()</text>
<text text-anchor="start" x="683" y="-1171.5" font-family="Helvetica,sans-Serif" font-size="10.00">+ Blob()</text>
<text text-anchor="start" x="683" y="-1160.5" font-family="Helvetica,sans-Serif" font-size="10.00">+ Blob()</text>
<text text-anchor="start" x="683" y="-1149.5" font-family="Helvetica,sans-Serif" font-size="10.00">+ Blob()</text>
<text text-anchor="start" x="683" y="-1138.5" font-family="Helvetica,sans-Serif" font-size="10.00">+ Blob()</text>
<text text-anchor="start" x="683" y="-1127.5" font-family="Helvetica,sans-Serif" font-size="10.00">+ operator=()</text>
<text text-anchor="start" x="683" y="-1116.5" font-family="Helvetica,sans-Serif" font-size="10.00">+ operator=()</text>
<text text-anchor="start" x="683" y="-1105.5" font-family="Helvetica,sans-Serif" font-size="10.00">+ reverse()</text>
<text text-anchor="start" x="683" y="-1094.5" font-family="Helvetica,sans-Serif" font-size="10.00">+ operator~()</text>
<text text-anchor="start" x="683" y="-1083.5" font-family="Helvetica,sans-Serif" font-size="10.00">+ asVector()</text>
<text text-anchor="start" x="683" y="-1072.5" font-family="Helvetica,sans-Serif" font-size="10.00">+ asString()</text>
<text text-anchor="start" x="683" y="-1061.5" font-family="Helvetica,sans-Serif" font-size="10.00">+ operator[]()</text>
<text text-anchor="start" x="683" y="-1050.5" font-family="Helvetica,sans-Serif" font-size="10.00">+ operator[]()</text>
<text text-anchor="start" x="683" y="-1039.5" font-family="Helvetica,sans-Serif" font-size="10.00">+ compareTo()</text>
</a>
</g>
</g>
<!-- Node3&#45;&gt;Node2 -->
<g id="edge2" class="edge">
<title>Node3&#45;&gt;Node2</title>
<path fill="none" stroke="orange" d="M735,-1022.48C735,-1009.93 735,-997.17 735,-984.67"/>
<polygon fill="orange" stroke="orange" points="731.5,-1022.5 735,-1032.5 738.5,-1022.5 731.5,-1022.5"/>
<text text-anchor="middle" x="793.5" y="-1006" font-family="Helvetica,sans-Serif" font-size="10.00"> &lt; SHA256_HASH_SIZE &gt;</text>
</g>
<!-- Node4 -->
<g id="node4" class="node">
<title>Node4</title>
<g id="a_node4"><a xlink:title=" ">
<polygon fill="white" stroke="black" points="185.5,-116.5 185.5,-184.5 310.5,-184.5 310.5,-116.5 185.5,-116.5"/>
<text text-anchor="start" x="193.5" y="-172.5" font-family="Helvetica,sans-Serif" font-size="10.00">std::vector&lt; altintegration</text>
<text text-anchor="middle" x="248" y="-161.5" font-family="Helvetica,sans-Serif" font-size="10.00">::btc::Transaction &gt;</text>
<polyline fill="none" stroke="black" points="185.5,-154.5 310.5,-154.5 "/>
<text text-anchor="middle" x="248" y="-142.5" font-family="Helvetica,sans-Serif" font-size="10.00"> </text>
<polyline fill="none" stroke="black" points="185.5,-135.5 310.5,-135.5 "/>
<text text-anchor="middle" x="248" y="-123.5" font-family="Helvetica,sans-Serif" font-size="10.00"> </text>
</a>
</g>
</g>
<!-- Node4&#45;&gt;Node1 -->
<g id="edge3" class="edge">
<title>Node4&#45;&gt;Node1</title>
<path fill="none" stroke="#404040" d="M310.66,-122.34C344.39,-107.72 386.55,-89.45 423.47,-73.44"/>
<polygon fill="none" stroke="#404040" points="423.74,-73.33 427.65,-67.27 434.75,-68.55 430.83,-74.61 423.74,-73.33"/>
<text text-anchor="middle" x="399" y="-90" font-family="Helvetica,sans-Serif" font-size="10.00"> +txn</text>
</g>
<!-- Node5 -->
<g id="node5" class="node">
<title>Node5</title>
<g id="a_node5"><a xlink:href="structaltintegration_1_1btc_1_1Transaction.html" target="_top" xlink:title="The basic transaction that is broadcasted on the network and contained in blocks.">
<polygon fill="white" stroke="black" points="203,-232.5 203,-333.5 293,-333.5 293,-232.5 203,-232.5"/>
<text text-anchor="start" x="211" y="-321.5" font-family="Helvetica,sans-Serif" font-size="10.00">altintegration::btc</text>
<text text-anchor="middle" x="248" y="-310.5" font-family="Helvetica,sans-Serif" font-size="10.00">::Transaction</text>
<polyline fill="none" stroke="black" points="203,-303.5 293,-303.5 "/>
<text text-anchor="start" x="211" y="-291.5" font-family="Helvetica,sans-Serif" font-size="10.00">+ nVersion</text>
<text text-anchor="start" x="211" y="-280.5" font-family="Helvetica,sans-Serif" font-size="10.00">+ nLockTime</text>
<polyline fill="none" stroke="black" points="203,-273.5 293,-273.5 "/>
<text text-anchor="start" x="211" y="-261.5" font-family="Helvetica,sans-Serif" font-size="10.00">+ Serialize()</text>
<text text-anchor="start" x="211" y="-250.5" font-family="Helvetica,sans-Serif" font-size="10.00">+ Unserialize()</text>
<text text-anchor="start" x="211" y="-239.5" font-family="Helvetica,sans-Serif" font-size="10.00">+ HasWitness()</text>
</a>
</g>
</g>
<!-- Node5&#45;&gt;Node4 -->
<g id="edge4" class="edge">
<title>Node5&#45;&gt;Node4</title>
<path fill="none" stroke="#404040" d="M248,-232.29C248,-220.55 248,-208.09 248,-196.57"/>
<polygon fill="none" stroke="#404040" points="248,-196.51 244,-190.51 248,-184.51 252,-190.51 248,-196.51"/>
<text text-anchor="middle" x="272.5" y="-206" font-family="Helvetica,sans-Serif" font-size="10.00"> +elements</text>
</g>
<!-- Node6 -->
<g id="node6" class="node">
<title>Node6</title>
<g id="a_node6"><a xlink:title=" ">
<polygon fill="white" stroke="black" points="306.5,-381.5 306.5,-449.5 431.5,-449.5 431.5,-381.5 306.5,-381.5"/>
<text text-anchor="start" x="314.5" y="-437.5" font-family="Helvetica,sans-Serif" font-size="10.00">std::vector&lt; altintegration</text>
<text text-anchor="middle" x="369" y="-426.5" font-family="Helvetica,sans-Serif" font-size="10.00">::btc::TxIn &gt;</text>
<polyline fill="none" stroke="black" points="306.5,-419.5 431.5,-419.5 "/>
<text text-anchor="middle" x="369" y="-407.5" font-family="Helvetica,sans-Serif" font-size="10.00"> </text>
<polyline fill="none" stroke="black" points="306.5,-400.5 431.5,-400.5 "/>
<text text-anchor="middle" x="369" y="-388.5" font-family="Helvetica,sans-Serif" font-size="10.00"> </text>
</a>
</g>
</g>
<!-- Node6&#45;&gt;Node5 -->
<g id="edge5" class="edge">
<title>Node6&#45;&gt;Node5</title>
<path fill="none" stroke="#404040" d="M338.15,-381.23C327.12,-369.33 314.33,-355.54 301.92,-342.15"/>
<polygon fill="none" stroke="#404040" points="301.57,-341.78 294.56,-340.1 293.41,-332.98 300.42,-334.66 301.57,-341.78"/>
<text text-anchor="middle" x="331" y="-355" font-family="Helvetica,sans-Serif" font-size="10.00"> +vin</text>
</g>
<!-- Node7 -->
<g id="node7" class="node">
<title>Node7</title>
<g id="a_node7"><a xlink:href="structaltintegration_1_1btc_1_1TxIn.html" target="_top" xlink:title="An input of a transaction.">
<polygon fill="white" stroke="black" points="291.5,-497.5 291.5,-576.5 446.5,-576.5 446.5,-497.5 291.5,-497.5"/>
<text text-anchor="start" x="299.5" y="-564.5" font-family="Helvetica,sans-Serif" font-size="10.00">altintegration::btc</text>
<text text-anchor="middle" x="369" y="-553.5" font-family="Helvetica,sans-Serif" font-size="10.00">::TxIn</text>
<polyline fill="none" stroke="black" points="291.5,-546.5 446.5,-546.5 "/>
<text text-anchor="start" x="299.5" y="-534.5" font-family="Helvetica,sans-Serif" font-size="10.00">+ nSequence</text>
<text text-anchor="start" x="299.5" y="-523.5" font-family="Helvetica,sans-Serif" font-size="10.00">+ ADD_SERIALIZE_METHODS</text>
<polyline fill="none" stroke="black" points="291.5,-516.5 446.5,-516.5 "/>
<text text-anchor="start" x="299.5" y="-504.5" font-family="Helvetica,sans-Serif" font-size="10.00">+ SerializationOp()</text>
</a>
</g>
</g>
<!-- Node7&#45;&gt;Node6 -->
<g id="edge6" class="edge">
<title>Node7&#45;&gt;Node6</title>
<path fill="none" stroke="#404040" d="M369,-497.2C369,-485.99 369,-473.65 369,-462.07"/>
<polygon fill="none" stroke="#404040" points="369,-461.89 365,-455.89 369,-449.89 373,-455.89 369,-461.89"/>
<text text-anchor="middle" x="393.5" y="-471" font-family="Helvetica,sans-Serif" font-size="10.00"> +elements</text>
</g>
<!-- Node8&#45;&gt;Node7 -->
<g id="edge7" class="edge">
<title>Node8&#45;&gt;Node7</title>
<path fill="none" stroke="#404040" d="M578.33,-629.17C541.16,-612.98 496.47,-593.52 457.94,-576.74"/>
<polygon fill="none" stroke="#404040" points="457.73,-576.65 450.63,-577.92 446.73,-571.85 453.83,-570.58 457.73,-576.65"/>
<text text-anchor="middle" x="542.5" y="-598" font-family="Helvetica,sans-Serif" font-size="10.00"> +prevout</text>
</g>
<!-- Node9 -->
<g id="node9" class="node">
<title>Node9</title>
<g id="a_node9"><a xlink:title=" ">
<polygon fill="white" stroke="black" points="204.5,-845 204.5,-902 311.5,-902 311.5,-845 204.5,-845"/>
<text text-anchor="middle" x="258" y="-890" font-family="Helvetica,sans-Serif" font-size="10.00">std::vector&lt; uint8_t &gt;</text>
<polyline fill="none" stroke="black" points="204.5,-883 311.5,-883 "/>
<text text-anchor="start" x="212.5" y="-871" font-family="Helvetica,sans-Serif" font-size="10.00">+ elements</text>
<polyline fill="none" stroke="black" points="204.5,-864 311.5,-864 "/>
<text text-anchor="middle" x="258" y="-852" font-family="Helvetica,sans-Serif" font-size="10.00"> </text>
</a>
</g>
</g>
<!-- Node9&#45;&gt;Node7 -->
<g id="edge9" class="edge">
<title>Node9&#45;&gt;Node7</title>
<path fill="none" stroke="#404040" d="M256.22,-844.65C253.06,-788.14 248.43,-662.13 267,-624 274.22,-609.17 285.32,-595.94 297.58,-584.56"/>
<polygon fill="none" stroke="#404040" points="297.64,-584.5 299.52,-577.54 306.67,-576.6 304.79,-583.56 297.64,-584.5"/>
<text text-anchor="middle" x="290.5" y="-661.5" font-family="Helvetica,sans-Serif" font-size="10.00"> +scriptSig</text>
</g>
<!-- Node12 -->
<g id="node12" class="node">
<title>Node12</title>
<g id="a_node12"><a xlink:title=" ">
<polygon fill="white" stroke="black" points="323.5,-630 323.5,-698 438.5,-698 438.5,-630 323.5,-630"/>
<text text-anchor="start" x="331.5" y="-686" font-family="Helvetica,sans-Serif" font-size="10.00">std::vector&lt; std::vector</text>
<text text-anchor="middle" x="381" y="-675" font-family="Helvetica,sans-Serif" font-size="10.00">&lt; uint8_t &gt; &gt;</text>
<polyline fill="none" stroke="black" points="323.5,-668 438.5,-668 "/>
<text text-anchor="middle" x="381" y="-656" font-family="Helvetica,sans-Serif" font-size="10.00"> </text>
<polyline fill="none" stroke="black" points="323.5,-649 438.5,-649 "/>
<text text-anchor="middle" x="381" y="-637" font-family="Helvetica,sans-Serif" font-size="10.00"> </text>
</a>
</g>
</g>
<!-- Node9&#45;&gt;Node12 -->
<g id="edge13" class="edge">
<title>Node9&#45;&gt;Node12</title>
<path fill="none" stroke="#404040" d="M259.37,-844.8C262.19,-812.61 270.79,-759.17 297,-722 301.71,-715.32 307.47,-709.19 313.74,-703.63"/>
<polygon fill="none" stroke="#404040" points="313.93,-703.48 316.06,-696.59 323.23,-695.9 321.11,-702.79 313.93,-703.48"/>
<text text-anchor="middle" x="321.5" y="-730.5" font-family="Helvetica,sans-Serif" font-size="10.00"> +elements</text>
</g>
<!-- Node14 -->
<g id="node14" class="node">
<title>Node14</title>
<g id="a_node14"><a xlink:href="structaltintegration_1_1btc_1_1TxOut.html" target="_top" xlink:title="An output of a transaction.">
<polygon fill="white" stroke="black" points="66.5,-624.5 66.5,-703.5 221.5,-703.5 221.5,-624.5 66.5,-624.5"/>
<text text-anchor="start" x="74.5" y="-691.5" font-family="Helvetica,sans-Serif" font-size="10.00">altintegration::btc</text>
<text text-anchor="middle" x="144" y="-680.5" font-family="Helvetica,sans-Serif" font-size="10.00">::TxOut</text>
<polyline fill="none" stroke="black" points="66.5,-673.5 221.5,-673.5 "/>
<text text-anchor="start" x="74.5" y="-661.5" font-family="Helvetica,sans-Serif" font-size="10.00">+ nValue</text>
<text text-anchor="start" x="74.5" y="-650.5" font-family="Helvetica,sans-Serif" font-size="10.00">+ ADD_SERIALIZE_METHODS</text>
<polyline fill="none" stroke="black" points="66.5,-643.5 221.5,-643.5 "/>
<text text-anchor="start" x="74.5" y="-631.5" font-family="Helvetica,sans-Serif" font-size="10.00">+ SerializationOp()</text>
</a>
</g>
</g>
<!-- Node9&#45;&gt;Node14 -->
<g id="edge18" class="edge">
<title>Node9&#45;&gt;Node14</title>
<path fill="none" stroke="#404040" d="M238.59,-844.72C221.23,-819.22 195.72,-780.04 177,-744 172.22,-734.8 167.6,-724.76 163.4,-715.01"/>
<polygon fill="none" stroke="#404040" points="163.33,-714.83 157.32,-710.84 158.69,-703.76 164.7,-707.75 163.33,-714.83"/>
<text text-anchor="middle" x="210.5" y="-730.5" font-family="Helvetica,sans-Serif" font-size="10.00"> +scriptPubKey</text>
</g>
<!-- Node10 -->
<g id="node10" class="node">
<title>Node10</title>
<g id="a_node10"><a xlink:title=" ">
<polygon fill="white" stroke="black" points="216,-1109.5 216,-1166.5 300,-1166.5 300,-1109.5 216,-1109.5"/>
<text text-anchor="middle" x="258" y="-1154.5" font-family="Helvetica,sans-Serif" font-size="10.00">std::vector&lt; T &gt;</text>
<polyline fill="none" stroke="black" points="216,-1147.5 300,-1147.5 "/>
<text text-anchor="middle" x="258" y="-1135.5" font-family="Helvetica,sans-Serif" font-size="10.00"> </text>
<polyline fill="none" stroke="black" points="216,-1128.5 300,-1128.5 "/>
<text text-anchor="middle" x="258" y="-1116.5" font-family="Helvetica,sans-Serif" font-size="10.00"> </text>
</a>
</g>
</g>
<!-- Node10&#45;&gt;Node4 -->
<g id="edge20" class="edge">
<title>Node10&#45;&gt;Node4</title>
<path fill="none" stroke="orange" d="M206.64,-1113.47C131.39,-1075.04 0,-991.24 0,-874.5 0,-874.5 0,-874.5 0,-282 0,-198.32 111.95,-168.17 185.42,-157.4"/>
<polygon fill="orange" stroke="orange" points="205.47,-1116.79 215.97,-1118.15 208.6,-1110.54 205.47,-1116.79"/>
<text text-anchor="start" x="0" y="-540" font-family="Helvetica,sans-Serif" font-size="10.00"> &lt; altintegration::btc</text>
<text text-anchor="middle" x="42.5" y="-529" font-family="Helvetica,sans-Serif" font-size="10.00">::Transaction &gt;</text>
</g>
<!-- Node10&#45;&gt;Node6 -->
<g id="edge15" class="edge">
<title>Node10&#45;&gt;Node6</title>
<path fill="none" stroke="orange" d="M309.23,-1112.93C356.35,-1087.93 424.06,-1044.15 459,-985 484.24,-942.27 475,-924.12 475,-874.5 475,-874.5 475,-874.5 475,-536 475,-500.5 448.5,-470.63 422,-449.63"/>
<polygon fill="orange" stroke="orange" points="307.35,-1109.97 300.09,-1117.68 310.58,-1116.18 307.35,-1109.97"/>
<text text-anchor="start" x="475" y="-667" font-family="Helvetica,sans-Serif" font-size="10.00"> &lt; altintegration::btc</text>
<text text-anchor="middle" x="517.5" y="-656" font-family="Helvetica,sans-Serif" font-size="10.00">::TxIn &gt;</text>
</g>
<!-- Node10&#45;&gt;Node9 -->
<g id="edge10" class="edge">
<title>Node10&#45;&gt;Node9</title>
<path fill="none" stroke="orange" d="M258,-1099.32C258,-1045.9 258,-949.4 258,-902.12"/>
<polygon fill="orange" stroke="orange" points="254.5,-1099.4 258,-1109.4 261.5,-1099.4 254.5,-1099.4"/>
<text text-anchor="middle" x="282.5" y="-1006" font-family="Helvetica,sans-Serif" font-size="10.00"> &lt; uint8_t &gt;</text>
</g>
<!-- Node10&#45;&gt;Node12 -->
<g id="edge14" class="edge">
<title>Node10&#45;&gt;Node12</title>
<path fill="none" stroke="orange" d="M275.02,-1100.31C285.96,-1076.07 300.12,-1043.46 311,-1014 352.22,-902.41 371.03,-761.31 377.83,-698.17"/>
<polygon fill="orange" stroke="orange" points="271.8,-1098.94 270.85,-1109.49 278.17,-1101.84 271.8,-1098.94"/>
<text text-anchor="start" x="370" y="-876.5" font-family="Helvetica,sans-Serif" font-size="10.00"> &lt; std::vector&lt; uint8</text>
<text text-anchor="middle" x="412.5" y="-865.5" font-family="Helvetica,sans-Serif" font-size="10.00">_t &gt; &gt;</text>
</g>
<!-- Node13 -->
<g id="node13" class="node">
<title>Node13</title>
<g id="a_node13"><a xlink:title=" ">
<polygon fill="white" stroke="black" points="103.5,-503 103.5,-571 228.5,-571 228.5,-503 103.5,-503"/>
<text text-anchor="start" x="111.5" y="-559" font-family="Helvetica,sans-Serif" font-size="10.00">std::vector&lt; altintegration</text>
<text text-anchor="middle" x="166" y="-548" font-family="Helvetica,sans-Serif" font-size="10.00">::btc::TxOut &gt;</text>
<polyline fill="none" stroke="black" points="103.5,-541 228.5,-541 "/>
<text text-anchor="middle" x="166" y="-529" font-family="Helvetica,sans-Serif" font-size="10.00"> </text>
<polyline fill="none" stroke="black" points="103.5,-522 228.5,-522 "/>
<text text-anchor="middle" x="166" y="-510" font-family="Helvetica,sans-Serif" font-size="10.00"> </text>
</a>
</g>
</g>
<!-- Node10&#45;&gt;Node13 -->
<g id="edge19" class="edge">
<title>Node10&#45;&gt;Node13</title>
<path fill="none" stroke="orange" d="M234.24,-1100.42C188.93,-1028.22 91.61,-860.77 57,-704 49.33,-669.28 41.49,-655.99 57,-624 67.41,-602.53 86.07,-584.8 105.04,-571.13"/>
<polygon fill="orange" stroke="orange" points="231.46,-1102.57 239.76,-1109.15 237.38,-1098.83 231.46,-1102.57"/>
<text text-anchor="start" x="67" y="-736" font-family="Helvetica,sans-Serif" font-size="10.00"> &lt; altintegration::btc</text>
<text text-anchor="middle" x="109.5" y="-725" font-family="Helvetica,sans-Serif" font-size="10.00">::TxOut &gt;</text>
</g>
<!-- Node11 -->
<g id="node11" class="node">
<title>Node11</title>
<g id="a_node11"><a xlink:title=" ">
<polygon fill="white" stroke="#bfbfbf" points="243.5,-1291.5 243.5,-1348.5 272.5,-1348.5 272.5,-1291.5 243.5,-1291.5"/>
<text text-anchor="middle" x="258" y="-1336.5" font-family="Helvetica,sans-Serif" font-size="10.00">T</text>
<polyline fill="none" stroke="#bfbfbf" points="243.5,-1329.5 272.5,-1329.5 "/>
<text text-anchor="middle" x="258" y="-1317.5" font-family="Helvetica,sans-Serif" font-size="10.00"> </text>
<polyline fill="none" stroke="#bfbfbf" points="243.5,-1310.5 272.5,-1310.5 "/>
<text text-anchor="middle" x="258" y="-1298.5" font-family="Helvetica,sans-Serif" font-size="10.00"> </text>
</a>
</g>
</g>
<!-- Node11&#45;&gt;Node10 -->
<g id="edge11" class="edge">
<title>Node11&#45;&gt;Node10</title>
<path fill="none" stroke="#404040" d="M258,-1291.27C258,-1261.28 258,-1213.18 258,-1179.08"/>
<polygon fill="none" stroke="#404040" points="258,-1178.76 254,-1172.76 258,-1166.76 262,-1172.76 258,-1178.76"/>
<text text-anchor="middle" x="282.5" y="-1265" font-family="Helvetica,sans-Serif" font-size="10.00"> +elements</text>
</g>
<!-- Node12&#45;&gt;Node7 -->
<g id="edge12" class="edge">
<title>Node12&#45;&gt;Node7</title>
<path fill="none" stroke="#404040" d="M377.82,-629.83C376.61,-617.32 375.22,-602.77 373.9,-589"/>
<polygon fill="none" stroke="#404040" points="373.86,-588.59 369.3,-583 372.71,-576.65 377.27,-582.24 373.86,-588.59"/>
<text text-anchor="middle" x="410" y="-598" font-family="Helvetica,sans-Serif" font-size="10.00"> +scriptWitness</text>
</g>
<!-- Node13&#45;&gt;Node5 -->
<g id="edge16" class="edge">
<title>Node13&#45;&gt;Node5</title>
<path fill="none" stroke="#404040" d="M176.8,-502.8C189.81,-462.83 211.91,-394.92 228.04,-345.33"/>
<polygon fill="none" stroke="#404040" points="228.09,-345.2 226.14,-338.25 231.8,-333.78 233.75,-340.73 228.09,-345.2"/>
<text text-anchor="middle" x="230" y="-413" font-family="Helvetica,sans-Serif" font-size="10.00"> +vout</text>
</g>
<!-- Node14&#45;&gt;Node13 -->
<g id="edge17" class="edge">
<title>Node14&#45;&gt;Node13</title>
<path fill="none" stroke="#404040" d="M150.78,-624.48C153.08,-611.4 155.67,-596.68 158.05,-583.14"/>
<polygon fill="none" stroke="#404040" points="158.09,-582.94 155.19,-576.34 160.17,-571.12 163.07,-577.72 158.09,-582.94"/>
<text text-anchor="middle" x="180.5" y="-598" font-family="Helvetica,sans-Serif" font-size="10.00"> +elements</text>
</g>
</g>
</svg>
