<?xml version="1.0" encoding="UTF-8" standalone="no"?>
<!DOCTYPE svg PUBLIC "-//W3C//DTD SVG 1.1//EN"
 "http://www.w3.org/Graphics/SVG/1.1/DTD/svg11.dtd">
<!-- Generated by graphviz version 2.49.3 (20211027.1534)
 -->
<!-- Title: altintegration::VbkBlockTree Pages: 1 -->
<svg width="370pt" height="1661pt"
 viewBox="0.00 0.00 370.00 1661.00" xmlns="http://www.w3.org/2000/svg" xmlns:xlink="http://www.w3.org/1999/xlink">
<g id="graph0" class="graph" transform="scale(1 1) rotate(0) translate(4 1657)">
<title>altintegration::VbkBlockTree</title>
<polygon fill="white" stroke="transparent" points="-4,4 -4,-1657 366,-1657 366,4 -4,4"/>
<!-- Node1 -->
<g id="node1" class="node">
<title>Node1</title>
<g id="a_node1"><a xlink:title="Veriblock block tree.">
<polygon fill="#bfbfbf" stroke="black" points="97,-0.5 97,-167.5 235,-167.5 235,-0.5 97,-0.5"/>
<text text-anchor="middle" x="166" y="-155.5" font-family="Helvetica,sans-Serif" font-size="10.00">altintegration::VbkBlockTree</text>
<polyline fill="none" stroke="black" points="97,-148.5 235,-148.5 "/>
<text text-anchor="middle" x="166" y="-136.5" font-family="Helvetica,sans-Serif" font-size="10.00"> </text>
<polyline fill="none" stroke="black" points="97,-129.5 235,-129.5 "/>
<text text-anchor="start" x="105" y="-117.5" font-family="Helvetica,sans-Serif" font-size="10.00">+ ~VbkBlockTree()</text>
<text text-anchor="start" x="105" y="-106.5" font-family="Helvetica,sans-Serif" font-size="10.00">+ VbkBlockTree()</text>
<text text-anchor="start" x="105" y="-95.5" font-family="Helvetica,sans-Serif" font-size="10.00">+ loadBlockForward()</text>
<text text-anchor="start" x="105" y="-84.5" font-family="Helvetica,sans-Serif" font-size="10.00">+ btc()</text>
<text text-anchor="start" x="105" y="-73.5" font-family="Helvetica,sans-Serif" font-size="10.00">+ btc()</text>
<text text-anchor="start" x="105" y="-62.5" font-family="Helvetica,sans-Serif" font-size="10.00">+ getComparator()</text>
<text text-anchor="start" x="105" y="-51.5" font-family="Helvetica,sans-Serif" font-size="10.00">+ getComparator()</text>
<text text-anchor="start" x="105" y="-40.5" font-family="Helvetica,sans-Serif" font-size="10.00">+ loadTip()</text>
<text text-anchor="start" x="105" y="-29.5" font-family="Helvetica,sans-Serif" font-size="10.00">+ addPayloads()</text>
<text text-anchor="start" x="105" y="-18.5" font-family="Helvetica,sans-Serif" font-size="10.00">+ removePayloads()</text>
<text text-anchor="start" x="105" y="-7.5" font-family="Helvetica,sans-Serif" font-size="10.00">and 7 more...</text>
</a>
</g>
</g>
<!-- Node2 -->
<g id="node2" class="node">
<title>Node2</title>
<g id="a_node2"><a xlink:href="structaltintegration_1_1BlockTree.html" target="_top" xlink:title=" ">
<polygon fill="white" stroke="black" points="88,-205.5 88,-460.5 244,-460.5 244,-205.5 88,-205.5"/>
<text text-anchor="start" x="96" y="-448.5" font-family="Helvetica,sans-Serif" font-size="10.00">altintegration::BlockTree</text>
<text text-anchor="middle" x="166" y="-437.5" font-family="Helvetica,sans-Serif" font-size="10.00">&lt; VbkBlock, VbkChainParams &gt;</text>
<polyline fill="none" stroke="black" points="88,-430.5 244,-430.5 "/>
<text text-anchor="start" x="96" y="-418.5" font-family="Helvetica,sans-Serif" font-size="10.00"># param_</text>
<polyline fill="none" stroke="black" points="88,-411.5 244,-411.5 "/>
<text text-anchor="start" x="96" y="-399.5" font-family="Helvetica,sans-Serif" font-size="10.00">+ ~BlockTree()</text>
<text text-anchor="start" x="96" y="-388.5" font-family="Helvetica,sans-Serif" font-size="10.00">+ BlockTree()</text>
<text text-anchor="start" x="96" y="-377.5" font-family="Helvetica,sans-Serif" font-size="10.00">+ getParams()</text>
<text text-anchor="start" x="96" y="-366.5" font-family="Helvetica,sans-Serif" font-size="10.00">+ bootstrapWithGenesis()</text>
<text text-anchor="start" x="96" y="-355.5" font-family="Helvetica,sans-Serif" font-size="10.00">+ bootstrapWithChain()</text>
<text text-anchor="start" x="96" y="-344.5" font-family="Helvetica,sans-Serif" font-size="10.00">+ acceptBlockHeader()</text>
<text text-anchor="start" x="96" y="-333.5" font-family="Helvetica,sans-Serif" font-size="10.00">+ acceptBlockHeader()</text>
<text text-anchor="start" x="96" y="-322.5" font-family="Helvetica,sans-Serif" font-size="10.00">+ toPrettyString()</text>
<text text-anchor="start" x="96" y="-311.5" font-family="Helvetica,sans-Serif" font-size="10.00">+ loadBlockForward()</text>
<text text-anchor="start" x="96" y="-300.5" font-family="Helvetica,sans-Serif" font-size="10.00">+ isBlockOld()</text>
<text text-anchor="start" x="96" y="-289.5" font-family="Helvetica,sans-Serif" font-size="10.00">+ isBlockOld()</text>
<text text-anchor="start" x="96" y="-278.5" font-family="Helvetica,sans-Serif" font-size="10.00">+ finalizeBlocks()</text>
<text text-anchor="start" x="96" y="-267.5" font-family="Helvetica,sans-Serif" font-size="10.00"># acceptBlockHeaderImpl()</text>
<text text-anchor="start" x="96" y="-256.5" font-family="Helvetica,sans-Serif" font-size="10.00"># bootstrap()</text>
<text text-anchor="start" x="96" y="-245.5" font-family="Helvetica,sans-Serif" font-size="10.00"># bootstrap()</text>
<text text-anchor="start" x="96" y="-234.5" font-family="Helvetica,sans-Serif" font-size="10.00"># validateAndAddBlock()</text>
<text text-anchor="start" x="96" y="-223.5" font-family="Helvetica,sans-Serif" font-size="10.00"># determineBestChain()</text>
<text text-anchor="start" x="96" y="-212.5" font-family="Helvetica,sans-Serif" font-size="10.00"># onBlockInserted()</text>
</a>
</g>
</g>
<!-- Node2&#45;&gt;Node1 -->
<g id="edge1" class="edge">
<title>Node2&#45;&gt;Node1</title>
<path fill="none" stroke="midnightblue" d="M166,-195.07C166,-185.72 166,-176.48 166,-167.56"/>
<polygon fill="none" stroke="midnightblue" points="162.5,-195.24 166,-205.24 169.5,-195.24 162.5,-195.24"/>
</g>
<!-- Node3 -->
<g id="node3" class="node">
<title>Node3</title>
<g id="a_node3"><a xlink:href="structaltintegration_1_1BaseBlockTree.html" target="_top" xlink:title="Base block tree that stores all blocks, maintains tree tips, maintains active chain.">
<polygon fill="white" stroke="black" points="37,-801.5 37,-1111.5 189,-1111.5 189,-801.5 37,-801.5"/>
<text text-anchor="start" x="45" y="-1099.5" font-family="Helvetica,sans-Serif" font-size="10.00">altintegration::BaseBlock</text>
<text text-anchor="middle" x="113" y="-1088.5" font-family="Helvetica,sans-Serif" font-size="10.00">Tree&lt; Block &gt;</text>
<polyline fill="none" stroke="black" points="37,-1081.5 189,-1081.5 "/>
<text text-anchor="start" x="45" y="-1069.5" font-family="Helvetica,sans-Serif" font-size="10.00">+ onBlockBeforeDeallocated</text>
<text text-anchor="start" x="45" y="-1058.5" font-family="Helvetica,sans-Serif" font-size="10.00">+ onBlockValidityChanged</text>
<text text-anchor="start" x="45" y="-1047.5" font-family="Helvetica,sans-Serif" font-size="10.00">+ onBeforeOverrideTip</text>
<text text-anchor="start" x="45" y="-1036.5" font-family="Helvetica,sans-Serif" font-size="10.00"># isLoadingBlocks_</text>
<text text-anchor="start" x="45" y="-1025.5" font-family="Helvetica,sans-Serif" font-size="10.00"># isLoaded_</text>
<text text-anchor="start" x="45" y="-1014.5" font-family="Helvetica,sans-Serif" font-size="10.00"># tips_</text>
<text text-anchor="start" x="45" y="-1003.5" font-family="Helvetica,sans-Serif" font-size="10.00"># activeChain_</text>
<text text-anchor="start" x="45" y="-992.5" font-family="Helvetica,sans-Serif" font-size="10.00"># finalizedPayloadsIndex_</text>
<text text-anchor="start" x="45" y="-981.5" font-family="Helvetica,sans-Serif" font-size="10.00"># payloadsIndex_</text>
<polyline fill="none" stroke="black" points="37,-974.5 189,-974.5 "/>
<text text-anchor="start" x="45" y="-962.5" font-family="Helvetica,sans-Serif" font-size="10.00">+ getTips()</text>
<text text-anchor="start" x="45" y="-951.5" font-family="Helvetica,sans-Serif" font-size="10.00">+ getBlocks()</text>
<text text-anchor="start" x="45" y="-940.5" font-family="Helvetica,sans-Serif" font-size="10.00">+ getAllBlocks()</text>
<text text-anchor="start" x="45" y="-929.5" font-family="Helvetica,sans-Serif" font-size="10.00">+ getBlockProvider()</text>
<text text-anchor="start" x="45" y="-918.5" font-family="Helvetica,sans-Serif" font-size="10.00">+ ~BaseBlockTree()</text>
<text text-anchor="start" x="45" y="-907.5" font-family="Helvetica,sans-Serif" font-size="10.00">+ BaseBlockTree()</text>
<text text-anchor="start" x="45" y="-896.5" font-family="Helvetica,sans-Serif" font-size="10.00">+ BaseBlockTree()</text>
<text text-anchor="start" x="45" y="-885.5" font-family="Helvetica,sans-Serif" font-size="10.00">+ operator=()</text>
<text text-anchor="start" x="45" y="-874.5" font-family="Helvetica,sans-Serif" font-size="10.00">+ BaseBlockTree()</text>
<text text-anchor="start" x="45" y="-863.5" font-family="Helvetica,sans-Serif" font-size="10.00">+ operator=()</text>
<text text-anchor="start" x="45" y="-852.5" font-family="Helvetica,sans-Serif" font-size="10.00">and 25 more...</text>
<text text-anchor="start" x="45" y="-841.5" font-family="Helvetica,sans-Serif" font-size="10.00"># deallocateBlock()</text>
<text text-anchor="start" x="45" y="-830.5" font-family="Helvetica,sans-Serif" font-size="10.00"># toPrettyString()</text>
<text text-anchor="start" x="45" y="-819.5" font-family="Helvetica,sans-Serif" font-size="10.00"># decreaseAppliedBlockCount()</text>
<text text-anchor="start" x="45" y="-808.5" font-family="Helvetica,sans-Serif" font-size="10.00"># decreaseAppliedBlockCount()</text>
</a>
</g>
</g>
<!-- Node3&#45;&gt;Node2 -->
<g id="edge2" class="edge">
<title>Node3&#45;&gt;Node2</title>
<path fill="none" stroke="midnightblue" d="M127.01,-791.22C135.84,-687.69 147.07,-556.04 155.2,-460.62"/>
<polygon fill="none" stroke="midnightblue" points="123.5,-791.21 126.14,-801.47 130.47,-791.81 123.5,-791.21"/>
</g>
<!-- Node4 -->
<g id="node4" class="node">
<title>Node4</title>
<g id="a_node4"><a xlink:title=" ">
<polygon fill="white" stroke="#bfbfbf" points="48.5,-1203.5 48.5,-1282.5 185.5,-1282.5 185.5,-1203.5 48.5,-1203.5"/>
<text text-anchor="start" x="56.5" y="-1270.5" font-family="Helvetica,sans-Serif" font-size="10.00">std::unordered_map</text>
<text text-anchor="start" x="56.5" y="-1259.5" font-family="Helvetica,sans-Serif" font-size="10.00">&lt; prev_block_hash_t,</text>
<text text-anchor="middle" x="117" y="-1248.5" font-family="Helvetica,sans-Serif" font-size="10.00"> std::unique_ptr&lt; index_t &gt; &gt;</text>
<polyline fill="none" stroke="#bfbfbf" points="48.5,-1241.5 185.5,-1241.5 "/>
<text text-anchor="start" x="56.5" y="-1229.5" font-family="Helvetica,sans-Serif" font-size="10.00">+ keys</text>
<polyline fill="none" stroke="#bfbfbf" points="48.5,-1222.5 185.5,-1222.5 "/>
<text text-anchor="middle" x="117" y="-1210.5" font-family="Helvetica,sans-Serif" font-size="10.00"> </text>
</a>
</g>
</g>
<!-- Node4&#45;&gt;Node3 -->
<g id="edge3" class="edge">
<title>Node4&#45;&gt;Node3</title>
<path fill="none" stroke="#404040" d="M102.16,-1203.3C95.82,-1184.75 89.16,-1162.04 86,-1141 85.15,-1135.33 84.55,-1129.56 84.16,-1123.73"/>
<polygon fill="none" stroke="#404040" points="84.16,-1123.68 79.92,-1117.85 83.67,-1111.69 87.92,-1117.53 84.16,-1123.68"/>
<text text-anchor="middle" x="107" y="-1133" font-family="Helvetica,sans-Serif" font-size="10.00"> #blocks_</text>
</g>
<!-- Node12 -->
<g id="node12" class="node">
<title>Node12</title>
<g id="a_node12"><a xlink:href="structaltintegration_1_1BaseBlockTree.html" target="_top" xlink:title="Base block tree that stores all blocks, maintains tree tips, maintains active chain.">
<polygon fill="white" stroke="black" points="207,-801.5 207,-1111.5 359,-1111.5 359,-801.5 207,-801.5"/>
<text text-anchor="start" x="215" y="-1099.5" font-family="Helvetica,sans-Serif" font-size="10.00">altintegration::BaseBlock</text>
<text text-anchor="middle" x="283" y="-1088.5" font-family="Helvetica,sans-Serif" font-size="10.00">Tree&lt; Block &gt;</text>
<polyline fill="none" stroke="black" points="207,-1081.5 359,-1081.5 "/>
<text text-anchor="start" x="215" y="-1069.5" font-family="Helvetica,sans-Serif" font-size="10.00">+ onBlockBeforeDeallocated</text>
<text text-anchor="start" x="215" y="-1058.5" font-family="Helvetica,sans-Serif" font-size="10.00">+ onBlockValidityChanged</text>
<text text-anchor="start" x="215" y="-1047.5" font-family="Helvetica,sans-Serif" font-size="10.00">+ onBeforeOverrideTip</text>
<text text-anchor="start" x="215" y="-1036.5" font-family="Helvetica,sans-Serif" font-size="10.00"># isLoadingBlocks_</text>
<text text-anchor="start" x="215" y="-1025.5" font-family="Helvetica,sans-Serif" font-size="10.00"># isLoaded_</text>
<text text-anchor="start" x="215" y="-1014.5" font-family="Helvetica,sans-Serif" font-size="10.00"># tips_</text>
<text text-anchor="start" x="215" y="-1003.5" font-family="Helvetica,sans-Serif" font-size="10.00"># activeChain_</text>
<text text-anchor="start" x="215" y="-992.5" font-family="Helvetica,sans-Serif" font-size="10.00"># finalizedPayloadsIndex_</text>
<text text-anchor="start" x="215" y="-981.5" font-family="Helvetica,sans-Serif" font-size="10.00"># payloadsIndex_</text>
<polyline fill="none" stroke="black" points="207,-974.5 359,-974.5 "/>
<text text-anchor="start" x="215" y="-962.5" font-family="Helvetica,sans-Serif" font-size="10.00">+ getTips()</text>
<text text-anchor="start" x="215" y="-951.5" font-family="Helvetica,sans-Serif" font-size="10.00">+ getBlocks()</text>
<text text-anchor="start" x="215" y="-940.5" font-family="Helvetica,sans-Serif" font-size="10.00">+ getAllBlocks()</text>
<text text-anchor="start" x="215" y="-929.5" font-family="Helvetica,sans-Serif" font-size="10.00">+ getBlockProvider()</text>
<text text-anchor="start" x="215" y="-918.5" font-family="Helvetica,sans-Serif" font-size="10.00">+ ~BaseBlockTree()</text>
<text text-anchor="start" x="215" y="-907.5" font-family="Helvetica,sans-Serif" font-size="10.00">+ BaseBlockTree()</text>
<text text-anchor="start" x="215" y="-896.5" font-family="Helvetica,sans-Serif" font-size="10.00">+ BaseBlockTree()</text>
<text text-anchor="start" x="215" y="-885.5" font-family="Helvetica,sans-Serif" font-size="10.00">+ operator=()</text>
<text text-anchor="start" x="215" y="-874.5" font-family="Helvetica,sans-Serif" font-size="10.00">+ BaseBlockTree()</text>
<text text-anchor="start" x="215" y="-863.5" font-family="Helvetica,sans-Serif" font-size="10.00">+ operator=()</text>
<text text-anchor="start" x="215" y="-852.5" font-family="Helvetica,sans-Serif" font-size="10.00">and 25 more...</text>
<text text-anchor="start" x="215" y="-841.5" font-family="Helvetica,sans-Serif" font-size="10.00"># deallocateBlock()</text>
<text text-anchor="start" x="215" y="-830.5" font-family="Helvetica,sans-Serif" font-size="10.00"># toPrettyString()</text>
<text text-anchor="start" x="215" y="-819.5" font-family="Helvetica,sans-Serif" font-size="10.00"># decreaseAppliedBlockCount()</text>
<text text-anchor="start" x="215" y="-808.5" font-family="Helvetica,sans-Serif" font-size="10.00"># decreaseAppliedBlockCount()</text>
</a>
</g>
</g>
<!-- Node4&#45;&gt;Node12 -->
<g id="edge13" class="edge">
<title>Node4&#45;&gt;Node12</title>
<path fill="none" stroke="#404040" d="M120.2,-1203.24C124.06,-1179.46 132.51,-1149.85 151,-1130 166.25,-1113.63 181.14,-1126.7 198,-1112 198.09,-1111.92 198.19,-1111.84 198.28,-1111.75"/>
<polygon fill="none" stroke="#404040" points="198.01,-1112.01 199.64,-1104.98 206.75,-1103.78 205.12,-1110.8 198.01,-1112.01"/>
<text text-anchor="middle" x="172" y="-1133" font-family="Helvetica,sans-Serif" font-size="10.00"> #blocks_</text>
</g>
<!-- Node5 -->
<g id="node5" class="node">
<title>Node5</title>
<g id="a_node5"><a xlink:title=" ">
<polygon fill="white" stroke="#bfbfbf" points="2.5,-1374.5 2.5,-1431.5 129.5,-1431.5 129.5,-1374.5 2.5,-1374.5"/>
<text text-anchor="middle" x="66" y="-1419.5" font-family="Helvetica,sans-Serif" font-size="10.00">std::unique_ptr&lt; index_t &gt;</text>
<polyline fill="none" stroke="#bfbfbf" points="2.5,-1412.5 129.5,-1412.5 "/>
<text text-anchor="start" x="10.5" y="-1400.5" font-family="Helvetica,sans-Serif" font-size="10.00">+ ptr</text>
<polyline fill="none" stroke="#bfbfbf" points="2.5,-1393.5 129.5,-1393.5 "/>
<text text-anchor="start" x="10.5" y="-1381.5" font-family="Helvetica,sans-Serif" font-size="10.00">+ operator&#45;&gt;()</text>
</a>
</g>
</g>
<!-- Node5&#45;&gt;Node4 -->
<g id="edge4" class="edge">
<title>Node5&#45;&gt;Node4</title>
<path fill="none" stroke="#404040" d="M74.88,-1374.48C82.02,-1352.37 92.23,-1320.75 100.81,-1294.17"/>
<polygon fill="none" stroke="#404040" points="100.81,-1294.17 98.84,-1287.23 104.49,-1282.75 106.46,-1289.68 100.81,-1294.17"/>
<text text-anchor="middle" x="108.5" y="-1348" font-family="Helvetica,sans-Serif" font-size="10.00"> +elements</text>
</g>
<!-- Node6 -->
<g id="node6" class="node">
<title>Node6</title>
<g id="a_node6"><a xlink:title=" ">
<polygon fill="white" stroke="#bfbfbf" points="0,-1485 0,-1542 102,-1542 102,-1485 0,-1485"/>
<text text-anchor="middle" x="51" y="-1530" font-family="Helvetica,sans-Serif" font-size="10.00">std::unique_ptr&lt; T &gt;</text>
<polyline fill="none" stroke="#bfbfbf" points="0,-1523 102,-1523 "/>
<text text-anchor="middle" x="51" y="-1511" font-family="Helvetica,sans-Serif" font-size="10.00"> </text>
<polyline fill="none" stroke="#bfbfbf" points="0,-1504 102,-1504 "/>
<text text-anchor="start" x="8" y="-1492" font-family="Helvetica,sans-Serif" font-size="10.00">+ operator&#45;&gt;()</text>
</a>
</g>
</g>
<!-- Node6&#45;&gt;Node5 -->
<g id="edge5" class="edge">
<title>Node6&#45;&gt;Node5</title>
<path fill="none" stroke="orange" d="M56.2,-1474.85C58.17,-1460.64 60.37,-1444.74 62.18,-1431.61"/>
<polygon fill="orange" stroke="orange" points="52.73,-1474.46 54.82,-1484.84 59.66,-1475.41 52.73,-1474.46"/>
<text text-anchor="middle" x="85" y="-1453" font-family="Helvetica,sans-Serif" font-size="10.00"> &lt; index_t &gt;</text>
</g>
<!-- Node7 -->
<g id="node7" class="node">
<title>Node7</title>
<g id="a_node7"><a xlink:title=" ">
<polygon fill="white" stroke="#bfbfbf" points="62.5,-1595.5 62.5,-1652.5 91.5,-1652.5 91.5,-1595.5 62.5,-1595.5"/>
<text text-anchor="middle" x="77" y="-1640.5" font-family="Helvetica,sans-Serif" font-size="10.00">T</text>
<polyline fill="none" stroke="#bfbfbf" points="62.5,-1633.5 91.5,-1633.5 "/>
<text text-anchor="middle" x="77" y="-1621.5" font-family="Helvetica,sans-Serif" font-size="10.00"> </text>
<polyline fill="none" stroke="#bfbfbf" points="62.5,-1614.5 91.5,-1614.5 "/>
<text text-anchor="middle" x="77" y="-1602.5" font-family="Helvetica,sans-Serif" font-size="10.00"> </text>
</a>
</g>
</g>
<!-- Node7&#45;&gt;Node6 -->
<g id="edge6" class="edge">
<title>Node7&#45;&gt;Node6</title>
<path fill="none" stroke="#404040" d="M62.51,-1595.35C59.94,-1589.43 57.59,-1583.12 56,-1577 54.12,-1569.76 52.89,-1561.9 52.09,-1554.28"/>
<polygon fill="none" stroke="#404040" points="52.09,-1554.19 47.63,-1548.52 51.15,-1542.22 55.61,-1547.89 52.09,-1554.19"/>
<text text-anchor="middle" x="66" y="-1569" font-family="Helvetica,sans-Serif" font-size="10.00"> +ptr</text>
</g>
<!-- Node8 -->
<g id="node8" class="node">
<title>Node8</title>
<g id="a_node8"><a xlink:title=" ">
<polygon fill="white" stroke="#bfbfbf" points="120.5,-1479.5 120.5,-1547.5 221.5,-1547.5 221.5,-1479.5 120.5,-1479.5"/>
<text text-anchor="start" x="128.5" y="-1535.5" font-family="Helvetica,sans-Serif" font-size="10.00">std::unordered_map</text>
<text text-anchor="middle" x="171" y="-1524.5" font-family="Helvetica,sans-Serif" font-size="10.00">&lt; K, T &gt;</text>
<polyline fill="none" stroke="#bfbfbf" points="120.5,-1517.5 221.5,-1517.5 "/>
<text text-anchor="middle" x="171" y="-1505.5" font-family="Helvetica,sans-Serif" font-size="10.00"> </text>
<polyline fill="none" stroke="#bfbfbf" points="120.5,-1498.5 221.5,-1498.5 "/>
<text text-anchor="middle" x="171" y="-1486.5" font-family="Helvetica,sans-Serif" font-size="10.00"> </text>
</a>
</g>
</g>
<!-- Node7&#45;&gt;Node8 -->
<g id="edge9" class="edge">
<title>Node7&#45;&gt;Node8</title>
<path fill="none" stroke="#404040" d="M91.52,-1600.94C99,-1590.07 108.53,-1576.99 118,-1566 120.72,-1562.84 123.61,-1559.66 126.57,-1556.5"/>
<polygon fill="none" stroke="#404040" points="126.7,-1556.36 128,-1549.27 135.05,-1547.74 133.75,-1554.83 126.7,-1556.36"/>
<text text-anchor="middle" x="142.5" y="-1569" font-family="Helvetica,sans-Serif" font-size="10.00"> +elements</text>
</g>
<!-- Node8&#45;&gt;Node4 -->
<g id="edge7" class="edge">
<title>Node8&#45;&gt;Node4</title>
<path fill="none" stroke="orange" d="M162.35,-1469.47C151.98,-1417.93 134.77,-1332.33 124.79,-1282.76"/>
<polygon fill="orange" stroke="orange" points="158.92,-1470.19 164.32,-1479.31 165.78,-1468.81 158.92,-1470.19"/>
<text text-anchor="start" x="155" y="-1406" font-family="Helvetica,sans-Serif" font-size="10.00"> &lt; prev_block_hash_t,</text>
<text text-anchor="middle" x="215.5" y="-1395" font-family="Helvetica,sans-Serif" font-size="10.00"> std::unique_ptr&lt; index_t &gt; &gt;</text>
</g>
<!-- Node9 -->
<g id="node9" class="node">
<title>Node9</title>
<g id="a_node9"><a xlink:title=" ">
<polygon fill="white" stroke="#bfbfbf" points="156.5,-1595.5 156.5,-1652.5 185.5,-1652.5 185.5,-1595.5 156.5,-1595.5"/>
<text text-anchor="middle" x="171" y="-1640.5" font-family="Helvetica,sans-Serif" font-size="10.00">K</text>
<polyline fill="none" stroke="#bfbfbf" points="156.5,-1633.5 185.5,-1633.5 "/>
<text text-anchor="middle" x="171" y="-1621.5" font-family="Helvetica,sans-Serif" font-size="10.00"> </text>
<polyline fill="none" stroke="#bfbfbf" points="156.5,-1614.5 185.5,-1614.5 "/>
<text text-anchor="middle" x="171" y="-1602.5" font-family="Helvetica,sans-Serif" font-size="10.00"> </text>
</a>
</g>
</g>
<!-- Node9&#45;&gt;Node8 -->
<g id="edge8" class="edge">
<title>Node9&#45;&gt;Node8</title>
<path fill="none" stroke="#404040" d="M171,-1595.34C171,-1584.53 171,-1571.85 171,-1559.77"/>
<polygon fill="none" stroke="#404040" points="171,-1559.52 167,-1553.52 171,-1547.52 175,-1553.52 171,-1559.52"/>
<text text-anchor="middle" x="185.5" y="-1569" font-family="Helvetica,sans-Serif" font-size="10.00"> +keys</text>
</g>
<!-- Node10 -->
<g id="node10" class="node">
<title>Node10</title>
<g id="a_node10"><a xlink:href="structaltintegration_1_1BlockReader.html" target="_top" xlink:title="An abstraction over on&#45;disk storage iterator.">
<polygon fill="white" stroke="black" points="224,-1159.5 224,-1326.5 356,-1326.5 356,-1159.5 224,-1159.5"/>
<text text-anchor="middle" x="290" y="-1314.5" font-family="Helvetica,sans-Serif" font-size="10.00">altintegration::BlockReader</text>
<polyline fill="none" stroke="black" points="224,-1307.5 356,-1307.5 "/>
<text text-anchor="middle" x="290" y="-1295.5" font-family="Helvetica,sans-Serif" font-size="10.00"> </text>
<polyline fill="none" stroke="black" points="224,-1288.5 356,-1288.5 "/>
<text text-anchor="start" x="232" y="-1276.5" font-family="Helvetica,sans-Serif" font-size="10.00">+ ~BlockReader()</text>
<text text-anchor="start" x="232" y="-1265.5" font-family="Helvetica,sans-Serif" font-size="10.00">+ getAltTip()</text>
<text text-anchor="start" x="232" y="-1254.5" font-family="Helvetica,sans-Serif" font-size="10.00">+ getVbkTip()</text>
<text text-anchor="start" x="232" y="-1243.5" font-family="Helvetica,sans-Serif" font-size="10.00">+ getBtcTip()</text>
<text text-anchor="start" x="232" y="-1232.5" font-family="Helvetica,sans-Serif" font-size="10.00">+ getBlock()</text>
<text text-anchor="start" x="232" y="-1221.5" font-family="Helvetica,sans-Serif" font-size="10.00">+ getBlock()</text>
<text text-anchor="start" x="232" y="-1210.5" font-family="Helvetica,sans-Serif" font-size="10.00">+ getBlock()</text>
<text text-anchor="start" x="232" y="-1199.5" font-family="Helvetica,sans-Serif" font-size="10.00">+ getAltBlockIterator()</text>
<text text-anchor="start" x="232" y="-1188.5" font-family="Helvetica,sans-Serif" font-size="10.00">+ getVbkBlockIterator()</text>
<text text-anchor="start" x="232" y="-1177.5" font-family="Helvetica,sans-Serif" font-size="10.00">+ getBtcBlockIterator()</text>
<text text-anchor="start" x="232" y="-1166.5" font-family="Helvetica,sans-Serif" font-size="10.00">and 6 more...</text>
</a>
</g>
</g>
<!-- Node10&#45;&gt;Node3 -->
<g id="edge10" class="edge">
<title>Node10&#45;&gt;Node3</title>
<path fill="none" stroke="#404040" d="M224.42,-1159.28C220.11,-1153.17 215.92,-1147.04 212,-1141 206.41,-1132.4 200.85,-1123.45 195.37,-1114.35"/>
<polygon fill="none" stroke="#404040" points="195.36,-1114.32 188.85,-1111.2 189.23,-1104 195.73,-1107.12 195.36,-1114.32"/>
<text text-anchor="middle" x="248.5" y="-1133" font-family="Helvetica,sans-Serif" font-size="10.00"> #blockProvider_</text>
</g>
<!-- Node10&#45;&gt;Node12 -->
<g id="edge14" class="edge">
<title>Node10&#45;&gt;Node12</title>
<path fill="none" stroke="#404040" d="M289.5,-1159.42C289.37,-1149.51 289.21,-1139.53 289,-1130 288.95,-1127.94 288.91,-1125.87 288.86,-1123.78"/>
<polygon fill="none" stroke="#404040" points="288.86,-1123.73 284.71,-1117.83 288.56,-1111.73 292.71,-1117.63 288.86,-1123.73"/>
<text text-anchor="middle" x="325.5" y="-1133" font-family="Helvetica,sans-Serif" font-size="10.00"> #blockProvider_</text>
</g>
<!-- Node11 -->
<g id="node11" class="node">
<title>Node11</title>
<g id="a_node11"><a xlink:href="structaltintegration_1_1BlockTree.html" target="_top" xlink:title="BlockTree is a tree of blocks with single &quot;bootstrap&quot; block as root.">
<polygon fill="white" stroke="black" points="197,-508.5 197,-763.5 331,-763.5 331,-508.5 197,-508.5"/>
<text text-anchor="start" x="205" y="-751.5" font-family="Helvetica,sans-Serif" font-size="10.00">altintegration::BlockTree</text>
<text text-anchor="middle" x="264" y="-740.5" font-family="Helvetica,sans-Serif" font-size="10.00">&lt; Block, ChainParams &gt;</text>
<polyline fill="none" stroke="black" points="197,-733.5 331,-733.5 "/>
<text text-anchor="start" x="205" y="-721.5" font-family="Helvetica,sans-Serif" font-size="10.00"># param_</text>
<polyline fill="none" stroke="black" points="197,-714.5 331,-714.5 "/>
<text text-anchor="start" x="205" y="-702.5" font-family="Helvetica,sans-Serif" font-size="10.00">+ ~BlockTree()</text>
<text text-anchor="start" x="205" y="-691.5" font-family="Helvetica,sans-Serif" font-size="10.00">+ BlockTree()</text>
<text text-anchor="start" x="205" y="-680.5" font-family="Helvetica,sans-Serif" font-size="10.00">+ getParams()</text>
<text text-anchor="start" x="205" y="-669.5" font-family="Helvetica,sans-Serif" font-size="10.00">+ bootstrapWithGenesis()</text>
<text text-anchor="start" x="205" y="-658.5" font-family="Helvetica,sans-Serif" font-size="10.00">+ bootstrapWithChain()</text>
<text text-anchor="start" x="205" y="-647.5" font-family="Helvetica,sans-Serif" font-size="10.00">+ acceptBlockHeader()</text>
<text text-anchor="start" x="205" y="-636.5" font-family="Helvetica,sans-Serif" font-size="10.00">+ acceptBlockHeader()</text>
<text text-anchor="start" x="205" y="-625.5" font-family="Helvetica,sans-Serif" font-size="10.00">+ toPrettyString()</text>
<text text-anchor="start" x="205" y="-614.5" font-family="Helvetica,sans-Serif" font-size="10.00">+ loadBlockForward()</text>
<text text-anchor="start" x="205" y="-603.5" font-family="Helvetica,sans-Serif" font-size="10.00">+ isBlockOld()</text>
<text text-anchor="start" x="205" y="-592.5" font-family="Helvetica,sans-Serif" font-size="10.00">+ isBlockOld()</text>
<text text-anchor="start" x="205" y="-581.5" font-family="Helvetica,sans-Serif" font-size="10.00">+ finalizeBlocks()</text>
<text text-anchor="start" x="205" y="-570.5" font-family="Helvetica,sans-Serif" font-size="10.00"># acceptBlockHeaderImpl()</text>
<text text-anchor="start" x="205" y="-559.5" font-family="Helvetica,sans-Serif" font-size="10.00"># bootstrap()</text>
<text text-anchor="start" x="205" y="-548.5" font-family="Helvetica,sans-Serif" font-size="10.00"># bootstrap()</text>
<text text-anchor="start" x="205" y="-537.5" font-family="Helvetica,sans-Serif" font-size="10.00"># validateAndAddBlock()</text>
<text text-anchor="start" x="205" y="-526.5" font-family="Helvetica,sans-Serif" font-size="10.00"># determineBestChain()</text>
<text text-anchor="start" x="205" y="-515.5" font-family="Helvetica,sans-Serif" font-size="10.00"># onBlockInserted()</text>
</a>
</g>
</g>
<!-- Node11&#45;&gt;Node2 -->
<g id="edge11" class="edge">
<title>Node11&#45;&gt;Node2</title>
<path fill="none" stroke="orange" d="M219.59,-498.59C215.47,-485.95 211.31,-473.18 207.23,-460.63"/>
<polygon fill="orange" stroke="orange" points="216.3,-499.8 222.72,-508.22 222.96,-497.63 216.3,-499.8"/>
<text text-anchor="middle" x="286" y="-482" font-family="Helvetica,sans-Serif" font-size="10.00"> &lt; VbkBlock, VbkChainParams &gt;</text>
</g>
<!-- Node12&#45;&gt;Node11 -->
<g id="edge12" class="edge">
<title>Node12&#45;&gt;Node11</title>
<path fill="none" stroke="midnightblue" d="M273.21,-791.38C272.66,-782.17 272.11,-772.98 271.57,-763.93"/>
<polygon fill="none" stroke="midnightblue" points="269.72,-791.61 273.81,-801.38 276.7,-791.19 269.72,-791.61"/>
</g>
</g>
</svg>
