<?xml version="1.0" encoding="UTF-8" standalone="no"?>
<!DOCTYPE svg PUBLIC "-//W3C//DTD SVG 1.1//EN"
 "http://www.w3.org/Graphics/SVG/1.1/DTD/svg11.dtd">
<!-- Generated by graphviz version 2.44.0 ()
 -->
<!-- Title: altintegration::Config Pages: 1 -->
<svg width="492pt" height="825pt"
 viewBox="0.00 0.00 491.50 825.00" xmlns="http://www.w3.org/2000/svg" xmlns:xlink="http://www.w3.org/1999/xlink">
<g id="graph0" class="graph" transform="scale(1 1) rotate(0) translate(4 821)">
<title>altintegration::Config</title>
<polygon fill="white" stroke="transparent" points="-4,4 -4,-821 487.5,-821 487.5,4 -4,4"/>
<!-- Node1 -->
<g id="node1" class="node">
<title>Node1</title>
<g id="a_node1"><a xlink:title="A container for Bitcoin and Veriblock configuration data.">
<polygon fill="#bfbfbf" stroke="black" points="165.5,-0.5 165.5,-145.5 275.5,-145.5 275.5,-0.5 165.5,-0.5"/>
<text text-anchor="middle" x="220.5" y="-133.5" font-family="Helvetica,sans-Serif" font-size="10.00">altintegration::Config</text>
<polyline fill="none" stroke="black" points="165.5,-126.5 275.5,-126.5 "/>
<text text-anchor="middle" x="220.5" y="-114.5" font-family="Helvetica,sans-Serif" font-size="10.00"> </text>
<polyline fill="none" stroke="black" points="165.5,-107.5 275.5,-107.5 "/>
<text text-anchor="start" x="173.5" y="-95.5" font-family="Helvetica,sans-Serif" font-size="10.00">+ getBtcParams()</text>
<text text-anchor="start" x="173.5" y="-84.5" font-family="Helvetica,sans-Serif" font-size="10.00">+ getVbkParams()</text>
<text text-anchor="start" x="173.5" y="-73.5" font-family="Helvetica,sans-Serif" font-size="10.00">+ getAltParams()</text>
<text text-anchor="start" x="173.5" y="-62.5" font-family="Helvetica,sans-Serif" font-size="10.00">+ validate()</text>
<text text-anchor="start" x="173.5" y="-51.5" font-family="Helvetica,sans-Serif" font-size="10.00">+ SelectBtcParams()</text>
<text text-anchor="start" x="173.5" y="-40.5" font-family="Helvetica,sans-Serif" font-size="10.00">+ SelectVbkParams()</text>
<text text-anchor="start" x="173.5" y="-29.5" font-family="Helvetica,sans-Serif" font-size="10.00">+ SelectAltParams()</text>
<text text-anchor="start" x="173.5" y="-18.5" font-family="Helvetica,sans-Serif" font-size="10.00">+ setBTC()</text>
<text text-anchor="start" x="173.5" y="-7.5" font-family="Helvetica,sans-Serif" font-size="10.00">+ setVBK()</text>
</a>
</g>
</g>
<!-- Node2 -->
<g id="node2" class="node">
<title>Node2</title>
<g id="a_node2"><a xlink:href="structaltintegration_1_1Config_1_1Bootstrap.html" target="_top" xlink:title=" ">
<polygon fill="white" stroke="black" points="0,-193.5 0,-305.5 127,-305.5 127,-193.5 0,-193.5"/>
<text text-anchor="start" x="8" y="-293.5" font-family="Helvetica,sans-Serif" font-size="10.00">altintegration::Config</text>
<text text-anchor="start" x="8" y="-282.5" font-family="Helvetica,sans-Serif" font-size="10.00">::Bootstrap&lt; altintegration</text>
<text text-anchor="start" x="8" y="-271.5" font-family="Helvetica,sans-Serif" font-size="10.00">::VbkBlock, altintegration</text>
<text text-anchor="middle" x="63.5" y="-260.5" font-family="Helvetica,sans-Serif" font-size="10.00">::VbkChainParams &gt;</text>
<polyline fill="none" stroke="black" points="0,-253.5 127,-253.5 "/>
<text text-anchor="start" x="8" y="-241.5" font-family="Helvetica,sans-Serif" font-size="10.00">+ startHeight</text>
<text text-anchor="start" x="8" y="-230.5" font-family="Helvetica,sans-Serif" font-size="10.00">+ blocks</text>
<text text-anchor="start" x="8" y="-219.5" font-family="Helvetica,sans-Serif" font-size="10.00">+ params</text>
<polyline fill="none" stroke="black" points="0,-212.5 127,-212.5 "/>
<text text-anchor="start" x="8" y="-200.5" font-family="Helvetica,sans-Serif" font-size="10.00">+ create()</text>
</a>
</g>
</g>
<!-- Node2&#45;&gt;Node1 -->
<g id="edge1" class="edge">
<title>Node2&#45;&gt;Node1</title>
<path fill="none" stroke="#404040" d="M113.18,-193.29C127.2,-177.7 142.65,-160.53 157.35,-144.19"/>
<polygon fill="none" stroke="#404040" points="157.4,-144.14 158.44,-137 165.42,-135.22 164.38,-142.35 157.4,-144.14"/>
<text text-anchor="middle" x="150" y="-167" font-family="Helvetica,sans-Serif" font-size="10.00"> +vbk</text>
</g>
<!-- Node3 -->
<g id="node3" class="node">
<title>Node3</title>
<g id="a_node3"><a xlink:href="structaltintegration_1_1Config_1_1Bootstrap.html" target="_top" xlink:title="per&#45;chain bootstrap config">
<polygon fill="white" stroke="black" points="114.5,-364.5 114.5,-432.5 282.5,-432.5 282.5,-364.5 114.5,-364.5"/>
<text text-anchor="start" x="122.5" y="-420.5" font-family="Helvetica,sans-Serif" font-size="10.00">altintegration::Config</text>
<text text-anchor="middle" x="198.5" y="-409.5" font-family="Helvetica,sans-Serif" font-size="10.00">::Bootstrap&lt; Block, ChainParams &gt;</text>
<polyline fill="none" stroke="black" points="114.5,-402.5 282.5,-402.5 "/>
<text text-anchor="start" x="122.5" y="-390.5" font-family="Helvetica,sans-Serif" font-size="10.00">+ startHeight</text>
<polyline fill="none" stroke="black" points="114.5,-383.5 282.5,-383.5 "/>
<text text-anchor="start" x="122.5" y="-371.5" font-family="Helvetica,sans-Serif" font-size="10.00">+ create()</text>
</a>
</g>
</g>
<!-- Node3&#45;&gt;Node2 -->
<g id="edge2" class="edge">
<title>Node3&#45;&gt;Node2</title>
<path fill="none" stroke="orange" d="M104.87,-382.04C85.52,-374.38 67.43,-362.98 55.5,-346 47.37,-334.43 45.52,-320.01 46.68,-305.92"/>
<polygon fill="orange" stroke="orange" points="103.85,-385.39 114.44,-385.5 106.23,-378.81 103.85,-385.39"/>
<text text-anchor="start" x="55.5" y="-338" font-family="Helvetica,sans-Serif" font-size="10.00"> &lt; altintegration::VbkBlock,</text>
<text text-anchor="middle" x="129" y="-327" font-family="Helvetica,sans-Serif" font-size="10.00"> altintegration::VbkChainParams &gt;</text>
</g>
<!-- Node9 -->
<g id="node9" class="node">
<title>Node9</title>
<g id="a_node9"><a xlink:href="structaltintegration_1_1Config_1_1Bootstrap.html" target="_top" xlink:title=" ">
<polygon fill="white" stroke="black" points="157,-193.5 157,-305.5 284,-305.5 284,-193.5 157,-193.5"/>
<text text-anchor="start" x="165" y="-293.5" font-family="Helvetica,sans-Serif" font-size="10.00">altintegration::Config</text>
<text text-anchor="start" x="165" y="-282.5" font-family="Helvetica,sans-Serif" font-size="10.00">::Bootstrap&lt; altintegration</text>
<text text-anchor="start" x="165" y="-271.5" font-family="Helvetica,sans-Serif" font-size="10.00">::BtcBlock, altintegration</text>
<text text-anchor="middle" x="220.5" y="-260.5" font-family="Helvetica,sans-Serif" font-size="10.00">::BtcChainParams &gt;</text>
<polyline fill="none" stroke="black" points="157,-253.5 284,-253.5 "/>
<text text-anchor="start" x="165" y="-241.5" font-family="Helvetica,sans-Serif" font-size="10.00">+ startHeight</text>
<text text-anchor="start" x="165" y="-230.5" font-family="Helvetica,sans-Serif" font-size="10.00">+ blocks</text>
<text text-anchor="start" x="165" y="-219.5" font-family="Helvetica,sans-Serif" font-size="10.00">+ params</text>
<polyline fill="none" stroke="black" points="157,-212.5 284,-212.5 "/>
<text text-anchor="start" x="165" y="-200.5" font-family="Helvetica,sans-Serif" font-size="10.00">+ create()</text>
</a>
</g>
</g>
<!-- Node3&#45;&gt;Node9 -->
<g id="edge10" class="edge">
<title>Node3&#45;&gt;Node9</title>
<path fill="none" stroke="orange" d="M205.01,-354.01C207.28,-338.85 209.86,-321.62 212.25,-305.64"/>
<polygon fill="orange" stroke="orange" points="201.51,-353.74 203.49,-364.14 208.43,-354.77 201.51,-353.74"/>
<text text-anchor="start" x="209.5" y="-338" font-family="Helvetica,sans-Serif" font-size="10.00"> &lt; altintegration::BtcBlock,</text>
<text text-anchor="middle" x="282" y="-327" font-family="Helvetica,sans-Serif" font-size="10.00"> altintegration::BtcChainParams &gt;</text>
</g>
<!-- Node4 -->
<g id="node4" class="node">
<title>Node4</title>
<g id="a_node4"><a xlink:title=" ">
<polygon fill="white" stroke="#bfbfbf" points="84,-538.5 84,-595.5 187,-595.5 187,-538.5 84,-538.5"/>
<text text-anchor="middle" x="135.5" y="-583.5" font-family="Helvetica,sans-Serif" font-size="10.00">std::vector&lt; Block &gt;</text>
<polyline fill="none" stroke="#bfbfbf" points="84,-576.5 187,-576.5 "/>
<text text-anchor="start" x="92" y="-564.5" font-family="Helvetica,sans-Serif" font-size="10.00">+ elements</text>
<polyline fill="none" stroke="#bfbfbf" points="84,-557.5 187,-557.5 "/>
<text text-anchor="middle" x="135.5" y="-545.5" font-family="Helvetica,sans-Serif" font-size="10.00"> </text>
</a>
</g>
</g>
<!-- Node4&#45;&gt;Node3 -->
<g id="edge3" class="edge">
<title>Node4&#45;&gt;Node3</title>
<path fill="none" stroke="#404040" d="M146.04,-538.13C155.75,-512.47 170.33,-473.96 181.65,-444.03"/>
<polygon fill="none" stroke="#404040" points="181.72,-443.84 180.1,-436.82 185.97,-432.62 187.59,-439.65 181.72,-443.84"/>
<text text-anchor="middle" x="197" y="-483" font-family="Helvetica,sans-Serif" font-size="10.00"> +blocks</text>
</g>
<!-- Node5 -->
<g id="node5" class="node">
<title>Node5</title>
<g id="a_node5"><a xlink:title=" ">
<polygon fill="white" stroke="#bfbfbf" points="119.5,-654.5 119.5,-711.5 203.5,-711.5 203.5,-654.5 119.5,-654.5"/>
<text text-anchor="middle" x="161.5" y="-699.5" font-family="Helvetica,sans-Serif" font-size="10.00">std::vector&lt; T &gt;</text>
<polyline fill="none" stroke="#bfbfbf" points="119.5,-692.5 203.5,-692.5 "/>
<text text-anchor="middle" x="161.5" y="-680.5" font-family="Helvetica,sans-Serif" font-size="10.00"> </text>
<polyline fill="none" stroke="#bfbfbf" points="119.5,-673.5 203.5,-673.5 "/>
<text text-anchor="middle" x="161.5" y="-661.5" font-family="Helvetica,sans-Serif" font-size="10.00"> </text>
</a>
</g>
</g>
<!-- Node5&#45;&gt;Node4 -->
<g id="edge4" class="edge">
<title>Node5&#45;&gt;Node4</title>
<path fill="none" stroke="orange" d="M152.92,-644.36C149.3,-628.5 145.16,-610.35 141.83,-595.74"/>
<polygon fill="orange" stroke="orange" points="149.57,-645.43 155.21,-654.4 156.39,-643.88 149.57,-645.43"/>
<text text-anchor="middle" x="173.5" y="-622.5" font-family="Helvetica,sans-Serif" font-size="10.00"> &lt; Block &gt;</text>
</g>
<!-- Node6 -->
<g id="node6" class="node">
<title>Node6</title>
<g id="a_node6"><a xlink:title=" ">
<polygon fill="white" stroke="#bfbfbf" points="203,-759.5 203,-816.5 232,-816.5 232,-759.5 203,-759.5"/>
<text text-anchor="middle" x="217.5" y="-804.5" font-family="Helvetica,sans-Serif" font-size="10.00">T</text>
<polyline fill="none" stroke="#bfbfbf" points="203,-797.5 232,-797.5 "/>
<text text-anchor="middle" x="217.5" y="-785.5" font-family="Helvetica,sans-Serif" font-size="10.00"> </text>
<polyline fill="none" stroke="#bfbfbf" points="203,-778.5 232,-778.5 "/>
<text text-anchor="middle" x="217.5" y="-766.5" font-family="Helvetica,sans-Serif" font-size="10.00"> </text>
</a>
</g>
</g>
<!-- Node6&#45;&gt;Node5 -->
<g id="edge5" class="edge">
<title>Node6&#45;&gt;Node5</title>
<path fill="none" stroke="#404040" d="M202.93,-760.21C196.67,-748.68 189.22,-734.99 182.39,-722.42"/>
<polygon fill="none" stroke="#404040" points="182.31,-722.28 175.93,-718.92 176.58,-711.74 182.96,-715.1 182.31,-722.28"/>
<text text-anchor="middle" x="216" y="-733" font-family="Helvetica,sans-Serif" font-size="10.00"> +elements</text>
</g>
<!-- Node8 -->
<g id="node8" class="node">
<title>Node8</title>
<g id="a_node8"><a xlink:title=" ">
<polygon fill="white" stroke="#bfbfbf" points="231,-654.5 231,-711.5 334,-711.5 334,-654.5 231,-654.5"/>
<text text-anchor="middle" x="282.5" y="-699.5" font-family="Helvetica,sans-Serif" font-size="10.00">std::shared_ptr&lt; T &gt;</text>
<polyline fill="none" stroke="#bfbfbf" points="231,-692.5 334,-692.5 "/>
<text text-anchor="middle" x="282.5" y="-680.5" font-family="Helvetica,sans-Serif" font-size="10.00"> </text>
<polyline fill="none" stroke="#bfbfbf" points="231,-673.5 334,-673.5 "/>
<text text-anchor="start" x="239" y="-661.5" font-family="Helvetica,sans-Serif" font-size="10.00">+ operator&#45;&gt;()</text>
</a>
</g>
</g>
<!-- Node6&#45;&gt;Node8 -->
<g id="edge8" class="edge">
<title>Node6&#45;&gt;Node8</title>
<path fill="none" stroke="#404040" d="M232.09,-763.88C239.84,-751.6 249.58,-736.17 258.42,-722.16"/>
<polygon fill="none" stroke="#404040" points="258.55,-721.95 258.37,-714.74 264.96,-711.8 265.14,-719.01 258.55,-721.95"/>
<text text-anchor="middle" x="262.5" y="-733" font-family="Helvetica,sans-Serif" font-size="10.00"> +ptr</text>
</g>
<!-- Node7 -->
<g id="node7" class="node">
<title>Node7</title>
<g id="a_node7"><a xlink:title=" ">
<polygon fill="white" stroke="#bfbfbf" points="205,-538.5 205,-595.5 360,-595.5 360,-538.5 205,-538.5"/>
<text text-anchor="middle" x="282.5" y="-583.5" font-family="Helvetica,sans-Serif" font-size="10.00">std::shared_ptr&lt; ChainParams &gt;</text>
<polyline fill="none" stroke="#bfbfbf" points="205,-576.5 360,-576.5 "/>
<text text-anchor="start" x="213" y="-564.5" font-family="Helvetica,sans-Serif" font-size="10.00">+ ptr</text>
<polyline fill="none" stroke="#bfbfbf" points="205,-557.5 360,-557.5 "/>
<text text-anchor="start" x="213" y="-545.5" font-family="Helvetica,sans-Serif" font-size="10.00">+ operator&#45;&gt;()</text>
</a>
</g>
</g>
<!-- Node7&#45;&gt;Node3 -->
<g id="edge6" class="edge">
<title>Node7&#45;&gt;Node3</title>
<path fill="none" stroke="#404040" d="M268.44,-538.13C255.44,-512.36 235.89,-473.62 220.77,-443.64"/>
<polygon fill="none" stroke="#404040" points="220.61,-443.33 214.34,-439.78 215.21,-432.62 221.48,-436.18 220.61,-443.33"/>
<text text-anchor="middle" x="279" y="-483" font-family="Helvetica,sans-Serif" font-size="10.00"> +params</text>
</g>
<!-- Node8&#45;&gt;Node7 -->
<g id="edge7" class="edge">
<title>Node8&#45;&gt;Node7</title>
<path fill="none" stroke="orange" d="M282.5,-644.36C282.5,-628.5 282.5,-610.35 282.5,-595.74"/>
<polygon fill="orange" stroke="orange" points="279,-644.4 282.5,-654.4 286,-644.4 279,-644.4"/>
<text text-anchor="middle" x="321.5" y="-622.5" font-family="Helvetica,sans-Serif" font-size="10.00"> &lt; ChainParams &gt;</text>
</g>
<!-- Node10 -->
<g id="node10" class="node">
<title>Node10</title>
<g id="a_node10"><a xlink:title=" ">
<polygon fill="white" stroke="#bfbfbf" points="316.5,-451.5 316.5,-519.5 460.5,-519.5 460.5,-451.5 316.5,-451.5"/>
<text text-anchor="start" x="324.5" y="-507.5" font-family="Helvetica,sans-Serif" font-size="10.00">std::shared_ptr&lt; altintegration</text>
<text text-anchor="middle" x="388.5" y="-496.5" font-family="Helvetica,sans-Serif" font-size="10.00">::AltChainParams &gt;</text>
<polyline fill="none" stroke="#bfbfbf" points="316.5,-489.5 460.5,-489.5 "/>
<text text-anchor="start" x="324.5" y="-477.5" font-family="Helvetica,sans-Serif" font-size="10.00">+ ptr</text>
<polyline fill="none" stroke="#bfbfbf" points="316.5,-470.5 460.5,-470.5 "/>
<text text-anchor="start" x="324.5" y="-458.5" font-family="Helvetica,sans-Serif" font-size="10.00">+ operator&#45;&gt;()</text>
</a>
</g>
</g>
<!-- Node8&#45;&gt;Node10 -->
<g id="edge12" class="edge">
<title>Node8&#45;&gt;Node10</title>
<path fill="none" stroke="orange" d="M342.63,-656.94C351.04,-651.16 358.75,-644.23 364.5,-636 388.5,-601.62 391.91,-552.05 391.07,-519.56"/>
<polygon fill="orange" stroke="orange" points="340.64,-654.06 334.03,-662.35 344.36,-659.99 340.64,-654.06"/>
<text text-anchor="start" x="375.5" y="-628" font-family="Helvetica,sans-Serif" font-size="10.00"> &lt; altintegration::AltChain</text>
<text text-anchor="middle" x="429.5" y="-617" font-family="Helvetica,sans-Serif" font-size="10.00">Params &gt;</text>
</g>
<!-- Node9&#45;&gt;Node1 -->
<g id="edge9" class="edge">
<title>Node9&#45;&gt;Node1</title>
<path fill="none" stroke="#404040" d="M220.5,-193.29C220.5,-182.1 220.5,-170.09 220.5,-158.16"/>
<polygon fill="none" stroke="#404040" points="220.5,-157.79 216.5,-151.79 220.5,-145.79 224.5,-151.79 220.5,-157.79"/>
<text text-anchor="middle" x="231.5" y="-167" font-family="Helvetica,sans-Serif" font-size="10.00"> +btc</text>
</g>
<!-- Node10&#45;&gt;Node1 -->
<g id="edge11" class="edge">
<title>Node10&#45;&gt;Node1</title>
<path fill="none" stroke="#404040" d="M385.06,-451.23C381,-418.27 372.92,-366.7 358.5,-324 338.51,-264.83 304.78,-203.36 275.67,-156.18"/>
<polygon fill="none" stroke="#404040" points="275.5,-155.91 268.93,-152.93 269.15,-145.72 275.72,-148.7 275.5,-155.91"/>
<text text-anchor="middle" x="374" y="-332.5" font-family="Helvetica,sans-Serif" font-size="10.00"> +alt</text>
</g>
</g>
</svg>
