<?xml version="1.0" encoding="UTF-8" standalone="no"?>
<!DOCTYPE svg PUBLIC "-//W3C//DTD SVG 1.1//EN"
 "http://www.w3.org/Graphics/SVG/1.1/DTD/svg11.dtd">
<!-- Generated by graphviz version 2.44.0 ()
 -->
<!-- Title: altintegration::AltChainParams Pages: 1 -->
<svg width="337pt" height="645pt"
 viewBox="0.00 0.00 336.50 645.00" xmlns="http://www.w3.org/2000/svg" xmlns:xlink="http://www.w3.org/1999/xlink">
<g id="graph0" class="graph" transform="scale(1 1) rotate(0) translate(4 641)">
<title>altintegration::AltChainParams</title>
<polygon fill="white" stroke="transparent" points="-4,4 -4,-641 332.5,-641 332.5,4 -4,4"/>
<!-- Node1 -->
<g id="node1" class="node">
<title>Node1</title>
<g id="a_node1"><a xlink:title="Base class for all Altchain&#45;related configs.">
<polygon fill="#bfbfbf" stroke="black" points="45.5,-0.5 45.5,-299.5 215.5,-299.5 215.5,-0.5 45.5,-0.5"/>
<text text-anchor="start" x="53.5" y="-287.5" font-family="Helvetica,sans-Serif" font-size="10.00">altintegration::AltChain</text>
<text text-anchor="middle" x="130.5" y="-276.5" font-family="Helvetica,sans-Serif" font-size="10.00">Params</text>
<polyline fill="none" stroke="black" points="45.5,-269.5 215.5,-269.5 "/>
<text text-anchor="start" x="53.5" y="-257.5" font-family="Helvetica,sans-Serif" font-size="10.00">+ mMaxReorgDistance</text>
<text text-anchor="start" x="53.5" y="-246.5" font-family="Helvetica,sans-Serif" font-size="10.00">+ mMaxAltchainFutureBlockTime</text>
<text text-anchor="start" x="53.5" y="-235.5" font-family="Helvetica,sans-Serif" font-size="10.00">+ mKeystoneInterval</text>
<text text-anchor="start" x="53.5" y="-224.5" font-family="Helvetica,sans-Serif" font-size="10.00">+ mFinalityDelay</text>
<text text-anchor="start" x="53.5" y="-213.5" font-family="Helvetica,sans-Serif" font-size="10.00">+ mEndorsementSettlementInterval</text>
<text text-anchor="start" x="53.5" y="-202.5" font-family="Helvetica,sans-Serif" font-size="10.00">+ mPreserveBlocksBehindFinal</text>
<text text-anchor="start" x="53.5" y="-191.5" font-family="Helvetica,sans-Serif" font-size="10.00">+ mMaxPopDataSize</text>
<text text-anchor="start" x="53.5" y="-180.5" font-family="Helvetica,sans-Serif" font-size="10.00">+ mMaxVbkBlocksInAltBlock</text>
<text text-anchor="start" x="53.5" y="-169.5" font-family="Helvetica,sans-Serif" font-size="10.00">+ mMaxVTBsInAltBlock</text>
<text text-anchor="start" x="53.5" y="-158.5" font-family="Helvetica,sans-Serif" font-size="10.00">+ mMaxATVsInAltBlock</text>
<text text-anchor="start" x="53.5" y="-147.5" font-family="Helvetica,sans-Serif" font-size="10.00">+ mAltBlockHashSize</text>
<polyline fill="none" stroke="black" points="45.5,-140.5 215.5,-140.5 "/>
<text text-anchor="start" x="53.5" y="-128.5" font-family="Helvetica,sans-Serif" font-size="10.00">+ ~AltChainParams()</text>
<text text-anchor="start" x="53.5" y="-117.5" font-family="Helvetica,sans-Serif" font-size="10.00">+ maxWorkerQueueSize()</text>
<text text-anchor="start" x="53.5" y="-106.5" font-family="Helvetica,sans-Serif" font-size="10.00">+ getKeystoneInterval()</text>
<text text-anchor="start" x="53.5" y="-95.5" font-family="Helvetica,sans-Serif" font-size="10.00">+ getFinalityDelay()</text>
<text text-anchor="start" x="53.5" y="-84.5" font-family="Helvetica,sans-Serif" font-size="10.00">+ getForkResolutionLookUpTable()</text>
<text text-anchor="start" x="53.5" y="-73.5" font-family="Helvetica,sans-Serif" font-size="10.00">+ getEndorsementSettlement</text>
<text text-anchor="start" x="53.5" y="-62.5" font-family="Helvetica,sans-Serif" font-size="10.00">Interval()</text>
<text text-anchor="start" x="53.5" y="-51.5" font-family="Helvetica,sans-Serif" font-size="10.00">+ getPayoutParams()</text>
<text text-anchor="start" x="53.5" y="-40.5" font-family="Helvetica,sans-Serif" font-size="10.00">+ getMaxVbkBlocksInAltBlock()</text>
<text text-anchor="start" x="53.5" y="-29.5" font-family="Helvetica,sans-Serif" font-size="10.00">+ getMaxVTBsInAltBlock()</text>
<text text-anchor="start" x="53.5" y="-18.5" font-family="Helvetica,sans-Serif" font-size="10.00">+ getMaxATVsInAltBlock()</text>
<text text-anchor="start" x="53.5" y="-7.5" font-family="Helvetica,sans-Serif" font-size="10.00">and 8 more...</text>
</a>
</g>
</g>
<!-- Node2 -->
<g id="node2" class="node">
<title>Node2</title>
<g id="a_node2"><a xlink:title=" ">
<polygon fill="white" stroke="#bfbfbf" points="0,-353 0,-410 113,-410 113,-353 0,-353"/>
<text text-anchor="middle" x="56.5" y="-398" font-family="Helvetica,sans-Serif" font-size="10.00">std::vector&lt; uint32_t &gt;</text>
<polyline fill="none" stroke="#bfbfbf" points="0,-391 113,-391 "/>
<text text-anchor="start" x="8" y="-379" font-family="Helvetica,sans-Serif" font-size="10.00">+ elements</text>
<polyline fill="none" stroke="#bfbfbf" points="0,-372 113,-372 "/>
<text text-anchor="middle" x="56.5" y="-360" font-family="Helvetica,sans-Serif" font-size="10.00"> </text>
</a>
</g>
</g>
<!-- Node2&#45;&gt;Node1 -->
<g id="edge1" class="edge">
<title>Node2&#45;&gt;Node1</title>
<path fill="none" stroke="#404040" d="M49.44,-352.89C47.66,-341.93 46.91,-329.28 49.5,-318 50.01,-315.8 50.54,-313.59 51.11,-311.39"/>
<polygon fill="none" stroke="#404040" points="51.19,-311.11 48.96,-304.25 54.44,-299.56 56.67,-306.42 51.19,-311.11"/>
<text text-anchor="middle" x="120" y="-321" font-family="Helvetica,sans-Serif" font-size="10.00"> +mForkResolutionLookUpTable</text>
</g>
<!-- Node3 -->
<g id="node3" class="node">
<title>Node3</title>
<g id="a_node3"><a xlink:title=" ">
<polygon fill="white" stroke="#bfbfbf" points="40.5,-474.5 40.5,-531.5 124.5,-531.5 124.5,-474.5 40.5,-474.5"/>
<text text-anchor="middle" x="82.5" y="-519.5" font-family="Helvetica,sans-Serif" font-size="10.00">std::vector&lt; T &gt;</text>
<polyline fill="none" stroke="#bfbfbf" points="40.5,-512.5 124.5,-512.5 "/>
<text text-anchor="middle" x="82.5" y="-500.5" font-family="Helvetica,sans-Serif" font-size="10.00"> </text>
<polyline fill="none" stroke="#bfbfbf" points="40.5,-493.5 124.5,-493.5 "/>
<text text-anchor="middle" x="82.5" y="-481.5" font-family="Helvetica,sans-Serif" font-size="10.00"> </text>
</a>
</g>
</g>
<!-- Node3&#45;&gt;Node2 -->
<g id="edge2" class="edge">
<title>Node3&#45;&gt;Node2</title>
<path fill="none" stroke="orange" d="M74.3,-464.33C70.48,-446.74 66,-426.18 62.5,-410.07"/>
<polygon fill="orange" stroke="orange" points="70.92,-465.26 76.47,-474.28 77.76,-463.77 70.92,-465.26"/>
<text text-anchor="middle" x="99.5" y="-442.5" font-family="Helvetica,sans-Serif" font-size="10.00"> &lt; uint32_t &gt;</text>
</g>
<!-- Node4 -->
<g id="node4" class="node">
<title>Node4</title>
<g id="a_node4"><a xlink:title=" ">
<polygon fill="white" stroke="#bfbfbf" points="124,-579.5 124,-636.5 153,-636.5 153,-579.5 124,-579.5"/>
<text text-anchor="middle" x="138.5" y="-624.5" font-family="Helvetica,sans-Serif" font-size="10.00">T</text>
<polyline fill="none" stroke="#bfbfbf" points="124,-617.5 153,-617.5 "/>
<text text-anchor="middle" x="138.5" y="-605.5" font-family="Helvetica,sans-Serif" font-size="10.00"> </text>
<polyline fill="none" stroke="#bfbfbf" points="124,-598.5 153,-598.5 "/>
<text text-anchor="middle" x="138.5" y="-586.5" font-family="Helvetica,sans-Serif" font-size="10.00"> </text>
</a>
</g>
</g>
<!-- Node4&#45;&gt;Node3 -->
<g id="edge3" class="edge">
<title>Node4&#45;&gt;Node3</title>
<path fill="none" stroke="#404040" d="M123.93,-580.21C117.67,-568.68 110.22,-554.99 103.39,-542.42"/>
<polygon fill="none" stroke="#404040" points="103.31,-542.28 96.93,-538.92 97.58,-531.74 103.96,-535.1 103.31,-542.28"/>
<text text-anchor="middle" x="137" y="-553" font-family="Helvetica,sans-Serif" font-size="10.00"> +elements</text>
</g>
<!-- Node6 -->
<g id="node6" class="node">
<title>Node6</title>
<g id="a_node6"><a xlink:title=" ">
<polygon fill="white" stroke="#bfbfbf" points="147,-474.5 147,-531.5 250,-531.5 250,-474.5 147,-474.5"/>
<text text-anchor="middle" x="198.5" y="-519.5" font-family="Helvetica,sans-Serif" font-size="10.00">std::shared_ptr&lt; T &gt;</text>
<polyline fill="none" stroke="#bfbfbf" points="147,-512.5 250,-512.5 "/>
<text text-anchor="middle" x="198.5" y="-500.5" font-family="Helvetica,sans-Serif" font-size="10.00"> </text>
<polyline fill="none" stroke="#bfbfbf" points="147,-493.5 250,-493.5 "/>
<text text-anchor="start" x="155" y="-481.5" font-family="Helvetica,sans-Serif" font-size="10.00">+ operator&#45;&gt;()</text>
</a>
</g>
</g>
<!-- Node4&#45;&gt;Node6 -->
<g id="edge6" class="edge">
<title>Node4&#45;&gt;Node6</title>
<path fill="none" stroke="#404040" d="M153.02,-582.07C160.03,-570.04 168.59,-555.35 176.38,-541.97"/>
<polygon fill="none" stroke="#404040" points="176.38,-541.97 175.94,-534.77 182.42,-531.6 182.86,-538.8 176.38,-541.97"/>
<text text-anchor="middle" x="180.5" y="-553" font-family="Helvetica,sans-Serif" font-size="10.00"> +ptr</text>
</g>
<!-- Node5 -->
<g id="node5" class="node">
<title>Node5</title>
<g id="a_node5"><a xlink:title=" ">
<polygon fill="white" stroke="#bfbfbf" points="135.5,-347.5 135.5,-415.5 279.5,-415.5 279.5,-347.5 135.5,-347.5"/>
<text text-anchor="start" x="143.5" y="-403.5" font-family="Helvetica,sans-Serif" font-size="10.00">std::shared_ptr&lt; altintegration</text>
<text text-anchor="middle" x="207.5" y="-392.5" font-family="Helvetica,sans-Serif" font-size="10.00">::PopPayoutsParams &gt;</text>
<polyline fill="none" stroke="#bfbfbf" points="135.5,-385.5 279.5,-385.5 "/>
<text text-anchor="start" x="143.5" y="-373.5" font-family="Helvetica,sans-Serif" font-size="10.00">+ ptr</text>
<polyline fill="none" stroke="#bfbfbf" points="135.5,-366.5 279.5,-366.5 "/>
<text text-anchor="start" x="143.5" y="-354.5" font-family="Helvetica,sans-Serif" font-size="10.00">+ operator&#45;&gt;()</text>
</a>
</g>
</g>
<!-- Node5&#45;&gt;Node1 -->
<g id="edge4" class="edge">
<title>Node5&#45;&gt;Node1</title>
<path fill="none" stroke="#404040" d="M198.99,-347.27C196.41,-337.77 193.47,-327.44 190.5,-318 189.79,-315.74 189.07,-313.47 188.33,-311.18"/>
<polygon fill="none" stroke="#404040" points="188.3,-311.08 182.64,-306.61 184.59,-299.67 190.25,-304.14 188.3,-311.08"/>
<text text-anchor="middle" x="246" y="-321" font-family="Helvetica,sans-Serif" font-size="10.00"> +mPopPayoutsParams</text>
</g>
<!-- Node6&#45;&gt;Node5 -->
<g id="edge5" class="edge">
<title>Node6&#45;&gt;Node5</title>
<path fill="none" stroke="orange" d="M201.37,-463.95C202.54,-448.4 203.88,-430.58 205.01,-415.59"/>
<polygon fill="orange" stroke="orange" points="197.85,-464.05 200.59,-474.28 204.83,-464.58 197.85,-464.05"/>
<text text-anchor="start" x="204.5" y="-448" font-family="Helvetica,sans-Serif" font-size="10.00"> &lt; altintegration::PopPayouts</text>
<text text-anchor="middle" x="266.5" y="-437" font-family="Helvetica,sans-Serif" font-size="10.00">Params &gt;</text>
</g>
</g>
</svg>
