<?xml version="1.0" encoding="UTF-8" standalone="no"?>
<!DOCTYPE svg PUBLIC "-//W3C//DTD SVG 1.1//EN"
 "http://www.w3.org/Graphics/SVG/1.1/DTD/svg11.dtd">
<!-- Generated by graphviz version 2.49.3 (20211027.1534)
 -->
<!-- Title: altintegration::VTB Pages: 1 -->
<!--zoomable 1204 -->
<svg id="main" version="1.1" xmlns="http://www.w3.org/2000/svg" xmlns:xlink="http://www.w3.org/1999/xlink" xml:space="preserve" onload="init(evt)">
<style type="text/css"><![CDATA[
.edge:hover path { stroke: red; }
.edge:hover polygon { stroke: red; fill: red; }
]]></style>
<script type="text/javascript"><![CDATA[
var edges = document.getElementsByTagName('g');
if (edges && edges.length) {
  for (var i=0;i<edges.length;i++) {
    if (edges[i].id.substr(0,4)=='edge') {
      edges[i].setAttribute('class','edge');
    }
  }
}
]]></script>
        <defs>
                <circle id="rim" cx="0" cy="0" r="7"/>
                <circle id="rim2" cx="0" cy="0" r="3.5"/>
                <g id="zoomPlus">
                        <use xlink:href="#rim" fill="#404040">
                                <set attributeName="fill" to="#808080" begin="zoomplus.mouseover" end="zoomplus.mouseout"/>
                        </use>
                        <path d="M-4,0h8M0,-4v8" fill="none" stroke="white" stroke-width="1.5" pointer-events="none"/>
                </g>
                <g id="zoomMin">
                        <use xlink:href="#rim" fill="#404040">
                                <set attributeName="fill" to="#808080" begin="zoomminus.mouseover" end="zoomminus.mouseout"/>
                        </use>
                        <path d="M-4,0h8" fill="none" stroke="white" stroke-width="1.5" pointer-events="none"/>
                </g>
                <g id="dirArrow">
                        <path fill="none" stroke="white" stroke-width="1.5" d="M0,-3.0v7 M-2.5,-0.5L0,-3.0L2.5,-0.5"/>
                </g>
               <g id="resetDef">
                       <use xlink:href="#rim2" fill="#404040">
                               <set attributeName="fill" to="#808080" begin="reset.mouseover" end="reset.mouseout"/>
                       </use>
               </g>
        </defs>

<script type="text/javascript">
var viewWidth = 949;
var viewHeight = 1204;
var sectionId = 'dynsection-0';
</script>
<script xlink:href="svgpan.js"/>
<svg id="graph" class="graph">
<g id="viewport">
<title>altintegration::VTB</title>
<polygon fill="white" stroke="transparent" points="-4,4 -4,-1200 945,-1200 945,4 -4,4"/>
<!-- Node1 -->
<g id="node1" class="node">
<title>Node1</title>
<g id="a_node1"><a xlink:title="Veriblock to Bitcoin publication, committed to Veriblock blockchain in containingBlock.">
<polygon fill="#bfbfbf" stroke="black" points="371,-0.5 371,-134.5 484,-134.5 484,-0.5 371,-0.5"/>
<text text-anchor="middle" x="427.5" y="-122.5" font-family="Helvetica,sans-Serif" font-size="10.00">altintegration::VTB</text>
<polyline fill="none" stroke="black" points="371,-115.5 484,-115.5 "/>
<text text-anchor="start" x="379" y="-103.5" font-family="Helvetica,sans-Serif" font-size="10.00">+ version</text>
<text text-anchor="start" x="379" y="-92.5" font-family="Helvetica,sans-Serif" font-size="10.00">+ checked</text>
<polyline fill="none" stroke="black" points="371,-85.5 484,-85.5 "/>
<text text-anchor="start" x="379" y="-73.5" font-family="Helvetica,sans-Serif" font-size="10.00">+ toPrettyString()</text>
<text text-anchor="start" x="379" y="-62.5" font-family="Helvetica,sans-Serif" font-size="10.00">+ toShortPrettyString()</text>
<text text-anchor="start" x="379" y="-51.5" font-family="Helvetica,sans-Serif" font-size="10.00">+ toVbkEncoding()</text>
<text text-anchor="start" x="379" y="-40.5" font-family="Helvetica,sans-Serif" font-size="10.00">+ toVbkEncoding()</text>
<text text-anchor="start" x="379" y="-29.5" font-family="Helvetica,sans-Serif" font-size="10.00">+ estimateSize()</text>
<text text-anchor="start" x="379" y="-18.5" font-family="Helvetica,sans-Serif" font-size="10.00">+ getId()</text>
<text text-anchor="start" x="379" y="-7.5" font-family="Helvetica,sans-Serif" font-size="10.00">+ name()</text>
</a>
</g>
</g>
<!-- Node2 -->
<g id="node2" class="node">
<title>Node2</title>
<g id="a_node2"><a xlink:href="structaltintegration_1_1VbkPopTx.html" target="_top" xlink:title="Veriblock POP transaction, which endorses VBK block in BTC blockchain.">
<polygon fill="white" stroke="black" points="366.5,-182.5 366.5,-294.5 488.5,-294.5 488.5,-182.5 366.5,-182.5"/>
<text text-anchor="middle" x="427.5" y="-282.5" font-family="Helvetica,sans-Serif" font-size="10.00">altintegration::VbkPopTx</text>
<polyline fill="none" stroke="black" points="366.5,-275.5 488.5,-275.5 "/>
<text text-anchor="start" x="374.5" y="-263.5" font-family="Helvetica,sans-Serif" font-size="10.00">+ blockOfProofContext</text>
<text text-anchor="start" x="374.5" y="-252.5" font-family="Helvetica,sans-Serif" font-size="10.00">+ signature</text>
<text text-anchor="start" x="374.5" y="-241.5" font-family="Helvetica,sans-Serif" font-size="10.00">+ publicKey</text>
<polyline fill="none" stroke="black" points="366.5,-234.5 488.5,-234.5 "/>
<text text-anchor="start" x="374.5" y="-222.5" font-family="Helvetica,sans-Serif" font-size="10.00">+ toVbkEncoding()</text>
<text text-anchor="start" x="374.5" y="-211.5" font-family="Helvetica,sans-Serif" font-size="10.00">+ estimateSize()</text>
<text text-anchor="start" x="374.5" y="-200.5" font-family="Helvetica,sans-Serif" font-size="10.00">+ getHash()</text>
<text text-anchor="start" x="374.5" y="-189.5" font-family="Helvetica,sans-Serif" font-size="10.00">+ toPrettyString()</text>
</a>
</g>
</g>
<!-- Node2&#45;&gt;Node1 -->
<g id="edge1" class="edge">
<title>Node2&#45;&gt;Node1</title>
<path fill="none" stroke="#404040" d="M427.5,-182.16C427.5,-170.87 427.5,-158.79 427.5,-146.88"/>
<polygon fill="none" stroke="#404040" points="427.5,-146.56 423.5,-140.56 427.5,-134.56 431.5,-140.56 427.5,-146.56"/>
<text text-anchor="middle" x="456" y="-156" font-family="Helvetica,sans-Serif" font-size="10.00"> +transaction</text>
</g>
<!-- Node3 -->
<g id="node3" class="node">
<title>Node3</title>
<g id="a_node3"><a xlink:href="namespacealtintegration.html#structaltintegration_1_1NetworkBytePair" target="_top" xlink:title="Stores pair of TxType and VBK network byte.">
<polygon fill="white" stroke="black" points="137.5,-516 137.5,-573 287.5,-573 287.5,-516 137.5,-516"/>
<text text-anchor="middle" x="212.5" y="-561" font-family="Helvetica,sans-Serif" font-size="10.00">altintegration::NetworkBytePair</text>
<polyline fill="none" stroke="black" points="137.5,-554 287.5,-554 "/>
<text text-anchor="start" x="145.5" y="-542" font-family="Helvetica,sans-Serif" font-size="10.00">+ typeId</text>
<polyline fill="none" stroke="black" points="137.5,-535 287.5,-535 "/>
<text text-anchor="middle" x="212.5" y="-523" font-family="Helvetica,sans-Serif" font-size="10.00"> </text>
</a>
</g>
</g>
<!-- Node3&#45;&gt;Node2 -->
<g id="edge2" class="edge">
<title>Node3&#45;&gt;Node2</title>
<path fill="none" stroke="#404040" d="M219.99,-516C233.62,-469.89 266.1,-375.89 319.5,-313 329.91,-300.74 342.84,-289.63 356.1,-279.98"/>
<polygon fill="none" stroke="#404040" points="356.42,-279.75 359.05,-273.04 366.26,-272.88 363.63,-279.6 356.42,-279.75"/>
<text text-anchor="middle" x="357" y="-361.5" font-family="Helvetica,sans-Serif" font-size="10.00"> +networkOrType</text>
</g>
<!-- Node4 -->
<g id="node4" class="node">
<title>Node4</title>
<g id="a_node4"><a xlink:href="structaltintegration_1_1VbkNetworkType.html" target="_top" xlink:title="works as optional&lt;uint8_t&gt;">
<polygon fill="white" stroke="black" points="136.5,-775 136.5,-876 288.5,-876 288.5,-775 136.5,-775"/>
<text text-anchor="middle" x="212.5" y="-864" font-family="Helvetica,sans-Serif" font-size="10.00">altintegration::VbkNetworkType</text>
<polyline fill="none" stroke="black" points="136.5,-857 288.5,-857 "/>
<text text-anchor="start" x="144.5" y="-845" font-family="Helvetica,sans-Serif" font-size="10.00">+ hasValue</text>
<text text-anchor="start" x="144.5" y="-834" font-family="Helvetica,sans-Serif" font-size="10.00">+ value</text>
<polyline fill="none" stroke="black" points="136.5,-827 288.5,-827 "/>
<text text-anchor="start" x="144.5" y="-815" font-family="Helvetica,sans-Serif" font-size="10.00">+ operator bool()</text>
<text text-anchor="start" x="144.5" y="-804" font-family="Helvetica,sans-Serif" font-size="10.00">+ operator==()</text>
<text text-anchor="start" x="144.5" y="-793" font-family="Helvetica,sans-Serif" font-size="10.00">+ toPrettyString()</text>
<text text-anchor="start" x="144.5" y="-782" font-family="Helvetica,sans-Serif" font-size="10.00">+ putJson()</text>
</a>
</g>
</g>
<!-- Node4&#45;&gt;Node3 -->
<g id="edge3" class="edge">
<title>Node4&#45;&gt;Node3</title>
<path fill="none" stroke="#404040" d="M212.5,-774.94C212.5,-720.78 212.5,-635.08 212.5,-585.18"/>
<polygon fill="none" stroke="#404040" points="212.5,-585 208.5,-579 212.5,-573 216.5,-579 212.5,-585"/>
<text text-anchor="middle" x="244.5" y="-682.5" font-family="Helvetica,sans-Serif" font-size="10.00"> +networkType</text>
</g>
<!-- Node5 -->
<g id="node5" class="node">
<title>Node5</title>
<g id="a_node5"><a xlink:href="structaltintegration_1_1Address.html" target="_top" xlink:title="Represents address on VBK chain.">
<polygon fill="white" stroke="black" points="306,-450 306,-639 443,-639 443,-450 306,-450"/>
<text text-anchor="middle" x="374.5" y="-627" font-family="Helvetica,sans-Serif" font-size="10.00">altintegration::Address</text>
<polyline fill="none" stroke="black" points="306,-620 443,-620 "/>
<text text-anchor="middle" x="374.5" y="-608" font-family="Helvetica,sans-Serif" font-size="10.00"> </text>
<polyline fill="none" stroke="black" points="306,-601 443,-601 "/>
<text text-anchor="start" x="314" y="-589" font-family="Helvetica,sans-Serif" font-size="10.00">+ Address()</text>
<text text-anchor="start" x="314" y="-578" font-family="Helvetica,sans-Serif" font-size="10.00">+ operator==()</text>
<text text-anchor="start" x="314" y="-567" font-family="Helvetica,sans-Serif" font-size="10.00">+ operator!=()</text>
<text text-anchor="start" x="314" y="-556" font-family="Helvetica,sans-Serif" font-size="10.00">+ operator==()</text>
<text text-anchor="start" x="314" y="-545" font-family="Helvetica,sans-Serif" font-size="10.00">+ getType()</text>
<text text-anchor="start" x="314" y="-534" font-family="Helvetica,sans-Serif" font-size="10.00">+ getPopBytes()</text>
<text text-anchor="start" x="314" y="-523" font-family="Helvetica,sans-Serif" font-size="10.00">+ isDerivedFromPublicKey()</text>
<text text-anchor="start" x="314" y="-512" font-family="Helvetica,sans-Serif" font-size="10.00">+ fromString()</text>
<text text-anchor="start" x="314" y="-501" font-family="Helvetica,sans-Serif" font-size="10.00">+ toString()</text>
<text text-anchor="start" x="314" y="-490" font-family="Helvetica,sans-Serif" font-size="10.00">+ toVbkEncoding()</text>
<text text-anchor="start" x="314" y="-479" font-family="Helvetica,sans-Serif" font-size="10.00">+ estimateSize()</text>
<text text-anchor="start" x="314" y="-468" font-family="Helvetica,sans-Serif" font-size="10.00">+ fromPublicKey()</text>
<text text-anchor="start" x="314" y="-457" font-family="Helvetica,sans-Serif" font-size="10.00">+ assertFromString()</text>
</a>
</g>
</g>
<!-- Node5&#45;&gt;Node2 -->
<g id="edge4" class="edge">
<title>Node5&#45;&gt;Node2</title>
<path fill="none" stroke="#404040" d="M390.83,-449.81C398.89,-403.6 408.42,-348.92 415.75,-306.9"/>
<polygon fill="none" stroke="#404040" points="415.79,-306.67 412.88,-300.07 417.85,-294.85 420.76,-301.45 415.79,-306.67"/>
<text text-anchor="middle" x="435" y="-361.5" font-family="Helvetica,sans-Serif" font-size="10.00"> +address</text>
</g>
<!-- Node6 -->
<g id="node6" class="node">
<title>Node6</title>
<g id="a_node6"><a xlink:href="structaltintegration_1_1VbkBlock.html" target="_top" xlink:title="Veriblock block.">
<polygon fill="white" stroke="black" points="0,-455.5 0,-633.5 119,-633.5 119,-455.5 0,-455.5"/>
<text text-anchor="middle" x="59.5" y="-621.5" font-family="Helvetica,sans-Serif" font-size="10.00">altintegration::VbkBlock</text>
<polyline fill="none" stroke="black" points="0,-614.5 119,-614.5 "/>
<text text-anchor="middle" x="59.5" y="-602.5" font-family="Helvetica,sans-Serif" font-size="10.00"> </text>
<polyline fill="none" stroke="black" points="0,-595.5 119,-595.5 "/>
<text text-anchor="start" x="8" y="-583.5" font-family="Helvetica,sans-Serif" font-size="10.00">+ toPrettyString()</text>
<text text-anchor="start" x="8" y="-572.5" font-family="Helvetica,sans-Serif" font-size="10.00">+ toShortPrettyString()</text>
<text text-anchor="start" x="8" y="-561.5" font-family="Helvetica,sans-Serif" font-size="10.00">+ toRaw()</text>
<text text-anchor="start" x="8" y="-550.5" font-family="Helvetica,sans-Serif" font-size="10.00">+ toVbkEncoding()</text>
<text text-anchor="start" x="8" y="-539.5" font-family="Helvetica,sans-Serif" font-size="10.00">+ toRaw()</text>
<text text-anchor="start" x="8" y="-528.5" font-family="Helvetica,sans-Serif" font-size="10.00">+ toVbkEncoding()</text>
<text text-anchor="start" x="8" y="-517.5" font-family="Helvetica,sans-Serif" font-size="10.00">+ estimateSize()</text>
<text text-anchor="start" x="8" y="-506.5" font-family="Helvetica,sans-Serif" font-size="10.00">+ getBlockTime()</text>
<text text-anchor="start" x="8" y="-495.5" font-family="Helvetica,sans-Serif" font-size="10.00">+ calculateHash()</text>
<text text-anchor="start" x="8" y="-484.5" font-family="Helvetica,sans-Serif" font-size="10.00">+ getHash()</text>
<text text-anchor="start" x="8" y="-473.5" font-family="Helvetica,sans-Serif" font-size="10.00">and 22 more...</text>
<text text-anchor="start" x="8" y="-462.5" font-family="Helvetica,sans-Serif" font-size="10.00">+ name()</text>
</a>
</g>
</g>
<!-- Node6&#45;&gt;Node1 -->
<g id="edge17" class="edge">
<title>Node6&#45;&gt;Node1</title>
<path fill="none" stroke="#404040" d="M60.47,-455.4C64.55,-409.98 75.3,-355.38 101.5,-313 163.82,-212.2 284.17,-138.63 359.92,-99.81"/>
<polygon fill="none" stroke="#404040" points="360.04,-99.75 363.6,-93.47 370.76,-94.34 367.2,-100.61 360.04,-99.75"/>
<text text-anchor="middle" x="263.5" y="-236" font-family="Helvetica,sans-Serif" font-size="10.00"> +containingBlock</text>
</g>
<!-- Node6&#45;&gt;Node2 -->
<g id="edge5" class="edge">
<title>Node6&#45;&gt;Node2</title>
<path fill="none" stroke="#404040" d="M86.3,-455.23C105.18,-406.91 135.12,-349.59 179.5,-313 229.08,-272.12 300.73,-253.98 354.27,-245.92"/>
<polygon fill="none" stroke="#404040" points="354.56,-245.89 359.94,-241.09 366.44,-244.22 361.05,-249.01 354.56,-245.89"/>
<text text-anchor="middle" x="217" y="-361.5" font-family="Helvetica,sans-Serif" font-size="10.00"> +publishedBlock</text>
</g>
<!-- Node7 -->
<g id="node7" class="node">
<title>Node7</title>
<g id="a_node7"><a xlink:href="structaltintegration_1_1BtcTx.html" target="_top" xlink:title="Bitcoin transaction representation.">
<polygon fill="white" stroke="black" points="595.5,-483 595.5,-606 697.5,-606 697.5,-483 595.5,-483"/>
<text text-anchor="middle" x="646.5" y="-594" font-family="Helvetica,sans-Serif" font-size="10.00">altintegration::BtcTx</text>
<polyline fill="none" stroke="black" points="595.5,-587 697.5,-587 "/>
<text text-anchor="start" x="603.5" y="-575" font-family="Helvetica,sans-Serif" font-size="10.00">+ tx</text>
<polyline fill="none" stroke="black" points="595.5,-568 697.5,-568 "/>
<text text-anchor="start" x="603.5" y="-556" font-family="Helvetica,sans-Serif" font-size="10.00">+ BtcTx()</text>
<text text-anchor="start" x="603.5" y="-545" font-family="Helvetica,sans-Serif" font-size="10.00">+ BtcTx()</text>
<text text-anchor="start" x="603.5" y="-534" font-family="Helvetica,sans-Serif" font-size="10.00">+ BtcTx()</text>
<text text-anchor="start" x="603.5" y="-523" font-family="Helvetica,sans-Serif" font-size="10.00">+ toVbkEncoding()</text>
<text text-anchor="start" x="603.5" y="-512" font-family="Helvetica,sans-Serif" font-size="10.00">+ toRaw()</text>
<text text-anchor="start" x="603.5" y="-501" font-family="Helvetica,sans-Serif" font-size="10.00">+ estimateSize()</text>
<text text-anchor="start" x="603.5" y="-490" font-family="Helvetica,sans-Serif" font-size="10.00">+ getHash()</text>
</a>
</g>
</g>
<!-- Node7&#45;&gt;Node2 -->
<g id="edge6" class="edge">
<title>Node7&#45;&gt;Node2</title>
<path fill="none" stroke="#404040" d="M635.39,-482.94C623.56,-432.65 600.55,-361.72 558.5,-313 542.54,-294.51 520.72,-279.71 499.46,-268.37"/>
<polygon fill="none" stroke="#404040" points="499.46,-268.37 492.3,-269.21 488.77,-262.92 495.93,-262.08 499.46,-268.37"/>
<text text-anchor="middle" x="657.5" y="-361.5" font-family="Helvetica,sans-Serif" font-size="10.00"> +bitcoinTransaction</text>
</g>
<!-- Node8 -->
<g id="node8" class="node">
<title>Node8</title>
<g id="a_node8"><a xlink:href="structaltintegration_1_1MerklePath.html" target="_top" xlink:title="Path in Merkle tree which proves that subject is inside this tree.">
<polygon fill="white" stroke="black" points="715.5,-494 715.5,-595 841.5,-595 841.5,-494 715.5,-494"/>
<text text-anchor="middle" x="778.5" y="-583" font-family="Helvetica,sans-Serif" font-size="10.00">altintegration::MerklePath</text>
<polyline fill="none" stroke="black" points="715.5,-576 841.5,-576 "/>
<text text-anchor="start" x="723.5" y="-564" font-family="Helvetica,sans-Serif" font-size="10.00">+ index</text>
<text text-anchor="start" x="723.5" y="-553" font-family="Helvetica,sans-Serif" font-size="10.00">+ layers</text>
<polyline fill="none" stroke="black" points="715.5,-546 841.5,-546 "/>
<text text-anchor="start" x="723.5" y="-534" font-family="Helvetica,sans-Serif" font-size="10.00">+ toRaw()</text>
<text text-anchor="start" x="723.5" y="-523" font-family="Helvetica,sans-Serif" font-size="10.00">+ toVbkEncoding()</text>
<text text-anchor="start" x="723.5" y="-512" font-family="Helvetica,sans-Serif" font-size="10.00">+ estimateSize()</text>
<text text-anchor="start" x="723.5" y="-501" font-family="Helvetica,sans-Serif" font-size="10.00">+ calculateMerkleRoot()</text>
</a>
</g>
</g>
<!-- Node8&#45;&gt;Node2 -->
<g id="edge7" class="edge">
<title>Node8&#45;&gt;Node2</title>
<path fill="none" stroke="#404040" d="M759.01,-493.86C750.06,-470.18 739.65,-441.32 731.5,-415 717.67,-370.31 738.43,-346.23 705.5,-313 677.01,-284.26 573.11,-262.44 500.74,-250.31"/>
<polygon fill="none" stroke="#404040" points="500.36,-250.25 493.79,-253.22 488.52,-248.3 495.09,-245.33 500.36,-250.25"/>
<text text-anchor="middle" x="760.5" y="-361.5" font-family="Helvetica,sans-Serif" font-size="10.00"> +merklePath</text>
</g>
<!-- Node9 -->
<g id="node9" class="node">
<title>Node9</title>
<g id="a_node9"><a xlink:href="structaltintegration_1_1Blob.html" target="_top" xlink:title=" ">
<polygon fill="white" stroke="black" points="665,-714.5 665,-936.5 796,-936.5 796,-714.5 665,-714.5"/>
<text text-anchor="start" x="673" y="-924.5" font-family="Helvetica,sans-Serif" font-size="10.00">altintegration::Blob</text>
<text text-anchor="middle" x="730.5" y="-913.5" font-family="Helvetica,sans-Serif" font-size="10.00">&lt; SHA256_HASH_SIZE &gt;</text>
<polyline fill="none" stroke="black" points="665,-906.5 796,-906.5 "/>
<text text-anchor="start" x="673" y="-894.5" font-family="Helvetica,sans-Serif" font-size="10.00">+ data_</text>
<text text-anchor="start" x="673" y="-883.5" font-family="Helvetica,sans-Serif" font-size="10.00">+ this</text>
<polyline fill="none" stroke="black" points="665,-876.5 796,-876.5 "/>
<text text-anchor="start" x="673" y="-864.5" font-family="Helvetica,sans-Serif" font-size="10.00">+ Blob()</text>
<text text-anchor="start" x="673" y="-853.5" font-family="Helvetica,sans-Serif" font-size="10.00">+ Blob()</text>
<text text-anchor="start" x="673" y="-842.5" font-family="Helvetica,sans-Serif" font-size="10.00">+ Blob()</text>
<text text-anchor="start" x="673" y="-831.5" font-family="Helvetica,sans-Serif" font-size="10.00">+ Blob()</text>
<text text-anchor="start" x="673" y="-820.5" font-family="Helvetica,sans-Serif" font-size="10.00">+ Blob()</text>
<text text-anchor="start" x="673" y="-809.5" font-family="Helvetica,sans-Serif" font-size="10.00">+ operator=()</text>
<text text-anchor="start" x="673" y="-798.5" font-family="Helvetica,sans-Serif" font-size="10.00">+ operator=()</text>
<text text-anchor="start" x="673" y="-787.5" font-family="Helvetica,sans-Serif" font-size="10.00">+ reverse()</text>
<text text-anchor="start" x="673" y="-776.5" font-family="Helvetica,sans-Serif" font-size="10.00">+ operator~()</text>
<text text-anchor="start" x="673" y="-765.5" font-family="Helvetica,sans-Serif" font-size="10.00">+ asVector()</text>
<text text-anchor="start" x="673" y="-754.5" font-family="Helvetica,sans-Serif" font-size="10.00">+ asString()</text>
<text text-anchor="start" x="673" y="-743.5" font-family="Helvetica,sans-Serif" font-size="10.00">+ operator[]()</text>
<text text-anchor="start" x="673" y="-732.5" font-family="Helvetica,sans-Serif" font-size="10.00">+ operator[]()</text>
<text text-anchor="start" x="673" y="-721.5" font-family="Helvetica,sans-Serif" font-size="10.00">+ compareTo()</text>
</a>
</g>
</g>
<!-- Node9&#45;&gt;Node8 -->
<g id="edge8" class="edge">
<title>Node9&#45;&gt;Node8</title>
<path fill="none" stroke="#404040" d="M749.47,-714.23C755.74,-677.79 762.49,-638.57 767.9,-607.11"/>
<polygon fill="none" stroke="#404040" points="767.95,-606.85 765.02,-600.26 769.98,-595.02 772.9,-601.61 767.95,-606.85"/>
<text text-anchor="middle" x="775.5" y="-682.5" font-family="Helvetica,sans-Serif" font-size="10.00"> +subject</text>
</g>
<!-- Node11 -->
<g id="node11" class="node">
<title>Node11</title>
<g id="a_node11"><a xlink:href="structaltintegration_1_1BtcBlock.html" target="_top" xlink:title="Bitcoin block.">
<polygon fill="white" stroke="black" points="461.5,-433.5 461.5,-655.5 577.5,-655.5 577.5,-433.5 461.5,-433.5"/>
<text text-anchor="middle" x="519.5" y="-643.5" font-family="Helvetica,sans-Serif" font-size="10.00">altintegration::BtcBlock</text>
<polyline fill="none" stroke="black" points="461.5,-636.5 577.5,-636.5 "/>
<text text-anchor="start" x="469.5" y="-624.5" font-family="Helvetica,sans-Serif" font-size="10.00"># version</text>
<text text-anchor="start" x="469.5" y="-613.5" font-family="Helvetica,sans-Serif" font-size="10.00"># timestamp</text>
<text text-anchor="start" x="469.5" y="-602.5" font-family="Helvetica,sans-Serif" font-size="10.00"># bits</text>
<text text-anchor="start" x="469.5" y="-591.5" font-family="Helvetica,sans-Serif" font-size="10.00"># nonce</text>
<polyline fill="none" stroke="black" points="461.5,-584.5 577.5,-584.5 "/>
<text text-anchor="start" x="469.5" y="-572.5" font-family="Helvetica,sans-Serif" font-size="10.00">+ BtcBlock()</text>
<text text-anchor="start" x="469.5" y="-561.5" font-family="Helvetica,sans-Serif" font-size="10.00">+ BtcBlock()</text>
<text text-anchor="start" x="469.5" y="-550.5" font-family="Helvetica,sans-Serif" font-size="10.00">+ toRaw()</text>
<text text-anchor="start" x="469.5" y="-539.5" font-family="Helvetica,sans-Serif" font-size="10.00">+ toVbkEncoding()</text>
<text text-anchor="start" x="469.5" y="-528.5" font-family="Helvetica,sans-Serif" font-size="10.00">+ estimateSize()</text>
<text text-anchor="start" x="469.5" y="-517.5" font-family="Helvetica,sans-Serif" font-size="10.00">+ calculateHash()</text>
<text text-anchor="start" x="469.5" y="-506.5" font-family="Helvetica,sans-Serif" font-size="10.00">+ getHash()</text>
<text text-anchor="start" x="469.5" y="-495.5" font-family="Helvetica,sans-Serif" font-size="10.00">+ toPrettyString()</text>
<text text-anchor="start" x="469.5" y="-484.5" font-family="Helvetica,sans-Serif" font-size="10.00">+ getVersion()</text>
<text text-anchor="start" x="469.5" y="-473.5" font-family="Helvetica,sans-Serif" font-size="10.00">+ getPreviousBlock()</text>
<text text-anchor="start" x="469.5" y="-462.5" font-family="Helvetica,sans-Serif" font-size="10.00">and 10 more...</text>
<text text-anchor="start" x="469.5" y="-451.5" font-family="Helvetica,sans-Serif" font-size="10.00">+ name()</text>
<text text-anchor="start" x="469.5" y="-440.5" font-family="Helvetica,sans-Serif" font-size="10.00"># invalidateHash()</text>
</a>
</g>
</g>
<!-- Node9&#45;&gt;Node11 -->
<g id="edge13" class="edge">
<title>Node9&#45;&gt;Node11</title>
<path fill="none" stroke="#404040" d="M664.97,-742.85C656.82,-733.05 648.53,-723.25 640.5,-714 624.62,-695.71 620.04,-691.69 603.5,-674 595.99,-665.96 593.17,-664.75 586.5,-656 585.94,-655.26 585.38,-654.52 584.82,-653.78"/>
<polygon fill="none" stroke="#404040" points="584.66,-653.56 577.9,-651.06 577.6,-643.85 584.37,-646.35 584.66,-653.56"/>
<text text-anchor="middle" x="657" y="-688" font-family="Helvetica,sans-Serif" font-size="10.00"> #merkleRoot</text>
<text text-anchor="middle" x="657" y="-677" font-family="Helvetica,sans-Serif" font-size="10.00">#previousBlock</text>
</g>
<!-- Node14 -->
<g id="node14" class="node">
<title>Node14</title>
<g id="a_node14"><a xlink:href="structaltintegration_1_1VbkMerklePath.html" target="_top" xlink:title="Path in Merkle tree, which proves that subject exists in the tree.">
<polygon fill="white" stroke="black" points="798,-313.5 798,-414.5 941,-414.5 941,-313.5 798,-313.5"/>
<text text-anchor="middle" x="869.5" y="-402.5" font-family="Helvetica,sans-Serif" font-size="10.00">altintegration::VbkMerklePath</text>
<polyline fill="none" stroke="black" points="798,-395.5 941,-395.5 "/>
<text text-anchor="start" x="806" y="-383.5" font-family="Helvetica,sans-Serif" font-size="10.00">+ treeIndex</text>
<text text-anchor="start" x="806" y="-372.5" font-family="Helvetica,sans-Serif" font-size="10.00">+ index</text>
<text text-anchor="start" x="806" y="-361.5" font-family="Helvetica,sans-Serif" font-size="10.00">+ layers</text>
<polyline fill="none" stroke="black" points="798,-354.5 941,-354.5 "/>
<text text-anchor="start" x="806" y="-342.5" font-family="Helvetica,sans-Serif" font-size="10.00">+ toVbkEncoding()</text>
<text text-anchor="start" x="806" y="-331.5" font-family="Helvetica,sans-Serif" font-size="10.00">+ estimateSize()</text>
<text text-anchor="start" x="806" y="-320.5" font-family="Helvetica,sans-Serif" font-size="10.00">+ calculateMerkleRoot()</text>
</a>
</g>
</g>
<!-- Node9&#45;&gt;Node14 -->
<g id="edge16" class="edge">
<title>Node9&#45;&gt;Node14</title>
<path fill="none" stroke="#404040" d="M796.14,-751.15C817.3,-723.28 838.39,-690 850.5,-656 877.37,-580.52 878.28,-487.17 875.06,-426.87"/>
<polygon fill="none" stroke="#404040" points="875.04,-426.51 870.68,-420.76 874.32,-414.53 878.67,-420.28 875.04,-426.51"/>
<text text-anchor="middle" x="862.5" y="-682.5" font-family="Helvetica,sans-Serif" font-size="10.00"> +subject</text>
</g>
<!-- Node10 -->
<g id="node10" class="node">
<title>Node10</title>
<g id="a_node10"><a xlink:href="structaltintegration_1_1Blob.html" target="_top" xlink:title="Contiguous byte array of fixed size.">
<polygon fill="white" stroke="black" points="638.5,-984.5 638.5,-1195.5 758.5,-1195.5 758.5,-984.5 638.5,-984.5"/>
<text text-anchor="middle" x="698.5" y="-1183.5" font-family="Helvetica,sans-Serif" font-size="10.00">altintegration::Blob&lt; N &gt;</text>
<polyline fill="none" stroke="black" points="638.5,-1176.5 758.5,-1176.5 "/>
<text text-anchor="start" x="646.5" y="-1164.5" font-family="Helvetica,sans-Serif" font-size="10.00">+ data_</text>
<text text-anchor="start" x="646.5" y="-1153.5" font-family="Helvetica,sans-Serif" font-size="10.00">+ this</text>
<polyline fill="none" stroke="black" points="638.5,-1146.5 758.5,-1146.5 "/>
<text text-anchor="start" x="646.5" y="-1134.5" font-family="Helvetica,sans-Serif" font-size="10.00">+ Blob()</text>
<text text-anchor="start" x="646.5" y="-1123.5" font-family="Helvetica,sans-Serif" font-size="10.00">+ Blob()</text>
<text text-anchor="start" x="646.5" y="-1112.5" font-family="Helvetica,sans-Serif" font-size="10.00">+ Blob()</text>
<text text-anchor="start" x="646.5" y="-1101.5" font-family="Helvetica,sans-Serif" font-size="10.00">+ Blob()</text>
<text text-anchor="start" x="646.5" y="-1090.5" font-family="Helvetica,sans-Serif" font-size="10.00">+ Blob()</text>
<text text-anchor="start" x="646.5" y="-1079.5" font-family="Helvetica,sans-Serif" font-size="10.00">+ operator=()</text>
<text text-anchor="start" x="646.5" y="-1068.5" font-family="Helvetica,sans-Serif" font-size="10.00">+ operator=()</text>
<text text-anchor="start" x="646.5" y="-1057.5" font-family="Helvetica,sans-Serif" font-size="10.00">+ reverse()</text>
<text text-anchor="start" x="646.5" y="-1046.5" font-family="Helvetica,sans-Serif" font-size="10.00">+ operator~()</text>
<text text-anchor="start" x="646.5" y="-1035.5" font-family="Helvetica,sans-Serif" font-size="10.00">+ asVector()</text>
<text text-anchor="start" x="646.5" y="-1024.5" font-family="Helvetica,sans-Serif" font-size="10.00">+ asString()</text>
<text text-anchor="start" x="646.5" y="-1013.5" font-family="Helvetica,sans-Serif" font-size="10.00">+ operator[]()</text>
<text text-anchor="start" x="646.5" y="-1002.5" font-family="Helvetica,sans-Serif" font-size="10.00">+ operator[]()</text>
<text text-anchor="start" x="646.5" y="-991.5" font-family="Helvetica,sans-Serif" font-size="10.00">+ compareTo()</text>
</a>
</g>
</g>
<!-- Node10&#45;&gt;Node9 -->
<g id="edge9" class="edge">
<title>Node10&#45;&gt;Node9</title>
<path fill="none" stroke="orange" d="M712.46,-974.48C713.99,-961.93 715.55,-949.17 717.07,-936.67"/>
<polygon fill="orange" stroke="orange" points="708.98,-974.15 711.24,-984.5 715.92,-975 708.98,-974.15"/>
<text text-anchor="middle" x="773" y="-958" font-family="Helvetica,sans-Serif" font-size="10.00"> &lt; SHA256_HASH_SIZE &gt;</text>
</g>
<!-- Node10&#45;&gt;Node11 -->
<g id="edge14" class="edge">
<title>Node10&#45;&gt;Node11</title>
<path fill="none" stroke="#404040" d="M638.41,-1053.41C599.63,-1026.76 552.3,-986.46 529.5,-937 490.85,-853.16 490.39,-748.12 498.48,-667.96"/>
<polygon fill="none" stroke="#404040" points="498.5,-667.75 495.17,-661.35 499.79,-655.81 503.12,-662.21 498.5,-667.75"/>
<text text-anchor="middle" x="546.5" y="-823" font-family="Helvetica,sans-Serif" font-size="10.00"> #hash_</text>
</g>
<!-- Node11&#45;&gt;Node2 -->
<g id="edge10" class="edge">
<title>Node11&#45;&gt;Node2</title>
<path fill="none" stroke="#404040" d="M493.67,-433.22C483.8,-394.82 471.7,-351.69 458.5,-313 457.7,-310.64 456.85,-308.26 455.98,-305.86"/>
<polygon fill="none" stroke="#404040" points="455.95,-305.79 450.09,-301.59 451.7,-294.56 457.57,-298.76 455.95,-305.79"/>
<text text-anchor="middle" x="521.5" y="-361.5" font-family="Helvetica,sans-Serif" font-size="10.00"> +blockOfProof</text>
</g>
<!-- Node12 -->
<g id="node12" class="node">
<title>Node12</title>
<g id="a_node12"><a xlink:title=" ">
<polygon fill="white" stroke="#bfbfbf" points="572,-797 572,-854 631,-854 631,-797 572,-797"/>
<text text-anchor="middle" x="601.5" y="-842" font-family="Helvetica,sans-Serif" font-size="10.00">std::string</text>
<polyline fill="none" stroke="#bfbfbf" points="572,-835 631,-835 "/>
<text text-anchor="middle" x="601.5" y="-823" font-family="Helvetica,sans-Serif" font-size="10.00"> </text>
<polyline fill="none" stroke="#bfbfbf" points="572,-816 631,-816 "/>
<text text-anchor="middle" x="601.5" y="-804" font-family="Helvetica,sans-Serif" font-size="10.00"> </text>
</a>
</g>
</g>
<!-- Node12&#45;&gt;Node11 -->
<g id="edge11" class="edge">
<title>Node12&#45;&gt;Node11</title>
<path fill="none" stroke="#404040" d="M593.41,-796.98C584.47,-766.57 569.46,-715.47 555.28,-667.25"/>
<polygon fill="none" stroke="#404040" points="555.28,-667.24 549.75,-662.61 551.9,-655.73 557.43,-660.35 555.28,-667.24"/>
<text text-anchor="middle" x="581" y="-682.5" font-family="Helvetica,sans-Serif" font-size="10.00"> #_name</text>
</g>
<!-- Node13 -->
<g id="node13" class="node">
<title>Node13</title>
<g id="a_node13"><a xlink:title=" ">
<polygon fill="white" stroke="#bfbfbf" points="448,-1056 448,-1124 541,-1124 541,-1056 448,-1056"/>
<text text-anchor="start" x="456" y="-1112" font-family="Helvetica,sans-Serif" font-size="10.00">std::basic_string&lt;</text>
<text text-anchor="middle" x="494.5" y="-1101" font-family="Helvetica,sans-Serif" font-size="10.00"> Char &gt;</text>
<polyline fill="none" stroke="#bfbfbf" points="448,-1094 541,-1094 "/>
<text text-anchor="middle" x="494.5" y="-1082" font-family="Helvetica,sans-Serif" font-size="10.00"> </text>
<polyline fill="none" stroke="#bfbfbf" points="448,-1075 541,-1075 "/>
<text text-anchor="middle" x="494.5" y="-1063" font-family="Helvetica,sans-Serif" font-size="10.00"> </text>
</a>
</g>
</g>
<!-- Node13&#45;&gt;Node12 -->
<g id="edge12" class="edge">
<title>Node13&#45;&gt;Node12</title>
<path fill="none" stroke="midnightblue" d="M512.35,-1046.39C525.05,-1015.95 542.46,-974.01 557.5,-937 568.93,-908.88 581.74,-876.62 590.58,-854.24"/>
<polygon fill="none" stroke="midnightblue" points="509.02,-1045.27 508.4,-1055.85 515.48,-1047.97 509.02,-1045.27"/>
</g>
<!-- Node14&#45;&gt;Node1 -->
<g id="edge15" class="edge">
<title>Node14&#45;&gt;Node1</title>
<path fill="none" stroke="#404040" d="M797.99,-315.36C714.11,-259.47 576.14,-167.54 494.33,-113.03"/>
<polygon fill="none" stroke="#404040" points="494.14,-112.9 486.93,-112.9 484.15,-106.25 491.36,-106.24 494.14,-112.9"/>
<text text-anchor="middle" x="794.5" y="-236" font-family="Helvetica,sans-Serif" font-size="10.00"> +merklePath</text>
</g>
</g>
</svg>
        <g id="navigator" transform="translate(0 0)" fill="#404254">
                <rect fill="#f2f5e9" fill-opacity="0.5" stroke="#606060" stroke-width=".5" x="0" y="0" width="60" height="60"/>
                <use id="zoomplus" xlink:href="#zoomPlus" x="17" y="9" onmousedown="handleZoom(evt,'in')"/>
                <use id="zoomminus" xlink:href="#zoomMin" x="42" y="9" onmousedown="handleZoom(evt,'out')"/>
                <use id="reset" xlink:href="#resetDef" x="30" y="36" onmousedown="handleReset()"/>
                <g id="arrowUp" xlink:href="#dirArrow" transform="translate(30 24)" onmousedown="handlePan(0,-1)">
                  <use xlink:href="#rim" fill="#404040">
                        <set attributeName="fill" to="#808080" begin="arrowUp.mouseover" end="arrowUp.mouseout"/>
                  </use>
                  <path fill="none" stroke="white" stroke-width="1.5" d="M0,-3.0v7 M-2.5,-0.5L0,-3.0L2.5,-0.5"/>
                </g>
                <g id="arrowRight" xlink:href="#dirArrow" transform="rotate(90) translate(36 -43)" onmousedown="handlePan(1,0)">
                  <use xlink:href="#rim" fill="#404040">
                        <set attributeName="fill" to="#808080" begin="arrowRight.mouseover" end="arrowRight.mouseout"/>
                  </use>
                  <path fill="none" stroke="white" stroke-width="1.5" d="M0,-3.0v7 M-2.5,-0.5L0,-3.0L2.5,-0.5"/>
                </g>
                <g id="arrowDown" xlink:href="#dirArrow" transform="rotate(180) translate(-30 -48)" onmousedown="handlePan(0,1)">
                  <use xlink:href="#rim" fill="#404040">
                        <set attributeName="fill" to="#808080" begin="arrowDown.mouseover" end="arrowDown.mouseout"/>
                  </use>
                  <path fill="none" stroke="white" stroke-width="1.5" d="M0,-3.0v7 M-2.5,-0.5L0,-3.0L2.5,-0.5"/>
                </g>
                <g id="arrowLeft" xlink:href="#dirArrow" transform="rotate(270) translate(-36 17)" onmousedown="handlePan(-1,0)">
                  <use xlink:href="#rim" fill="#404040">
                        <set attributeName="fill" to="#808080" begin="arrowLeft.mouseover" end="arrowLeft.mouseout"/>
                  </use>
                  <path fill="none" stroke="white" stroke-width="1.5" d="M0,-3.0v7 M-2.5,-0.5L0,-3.0L2.5,-0.5"/>
                </g>
        </g>
        <svg viewBox="0 0 15 15" width="100%" height="30px" preserveAspectRatio="xMaxYMin meet">
         <g id="arrow_out" transform="scale(0.3 0.3)">
          <a xlink:href="structaltintegration_1_1VTB__coll__graph_org.svg" target="_base">
           <rect id="button" ry="5" rx="5" y="6" x="6" height="38" width="38"
                fill="#f2f5e9" fill-opacity="0.5" stroke="#606060" stroke-width="1.0"/>
           <path id="arrow"
             d="M 11.500037,31.436501 C 11.940474,20.09759 22.043105,11.32322 32.158766,21.979434 L 37.068811,17.246167 C 37.068811,17.246167 37.088388,32 37.088388,32 L 22.160133,31.978069 C 22.160133,31.978069 26.997745,27.140456 26.997745,27.140456 C 18.528582,18.264221 13.291696,25.230495 11.500037,31.436501 z"
             style="fill:#404040;"/>
          </a>
         </g>
        </svg>
</svg>
