<?xml version="1.0" encoding="UTF-8" standalone="no"?>
<!DOCTYPE svg PUBLIC "-//W3C//DTD SVG 1.1//EN"
 "http://www.w3.org/Graphics/SVG/1.1/DTD/svg11.dtd">
<!-- Generated by graphviz version 2.50.0 (20220203.2022)
 -->
<!-- Title: altintegration::VbkChainParamsRegTest Pages: 1 -->
<svg width="233pt" height="773pt"
 viewBox="0.00 0.00 233.00 773.00" xmlns="http://www.w3.org/2000/svg" xmlns:xlink="http://www.w3.org/1999/xlink">
<g id="graph0" class="graph" transform="scale(1 1) rotate(0) translate(4 769)">
<title>altintegration::VbkChainParamsRegTest</title>
<polygon fill="white" stroke="transparent" points="-4,4 -4,-769 229,-769 229,4 -4,4"/>
<!-- Node1 -->
<g id="node1" class="node">
<title>Node1</title>
<g id="a_node1"><a xlink:title="RegTest VBK config.">
<polygon fill="#bfbfbf" stroke="black" points="0,-0.5 0,-189.5 182,-189.5 182,-0.5 0,-0.5"/>
<text text-anchor="start" x="8" y="-177.5" font-family="Helvetica,sans-Serif" font-size="10.00">altintegration::VbkChain</text>
<text text-anchor="middle" x="91" y="-166.5" font-family="Helvetica,sans-Serif" font-size="10.00">ParamsRegTest</text>
<polyline fill="none" stroke="black" points="0,-159.5 182,-159.5 "/>
<text text-anchor="middle" x="91" y="-147.5" font-family="Helvetica,sans-Serif" font-size="10.00"> </text>
<polyline fill="none" stroke="black" points="0,-140.5 182,-140.5 "/>
<text text-anchor="start" x="8" y="-128.5" font-family="Helvetica,sans-Serif" font-size="10.00">+ ~VbkChainParamsRegTest()</text>
<text text-anchor="start" x="8" y="-117.5" font-family="Helvetica,sans-Serif" font-size="10.00">+ getProgPowForkHeight()</text>
<text text-anchor="start" x="8" y="-106.5" font-family="Helvetica,sans-Serif" font-size="10.00">+ getProgPowStartTimeEpoch()</text>
<text text-anchor="start" x="8" y="-95.5" font-family="Helvetica,sans-Serif" font-size="10.00">+ isProgPowStartTimeEpochEnabled()</text>
<text text-anchor="start" x="8" y="-84.5" font-family="Helvetica,sans-Serif" font-size="10.00">+ networkName()</text>
<text text-anchor="start" x="8" y="-73.5" font-family="Helvetica,sans-Serif" font-size="10.00">+ numBlocksForBootstrap()</text>
<text text-anchor="start" x="8" y="-62.5" font-family="Helvetica,sans-Serif" font-size="10.00">+ getMinimumDifficulty()</text>
<text text-anchor="start" x="8" y="-51.5" font-family="Helvetica,sans-Serif" font-size="10.00">+ getTransactionMagicByte()</text>
<text text-anchor="start" x="8" y="-40.5" font-family="Helvetica,sans-Serif" font-size="10.00">+ EnableTimeAdjustment()</text>
<text text-anchor="start" x="8" y="-29.5" font-family="Helvetica,sans-Serif" font-size="10.00">+ getPowNoRetargeting()</text>
<text text-anchor="start" x="8" y="-18.5" font-family="Helvetica,sans-Serif" font-size="10.00">+ getRetargetPeriod()</text>
<text text-anchor="start" x="8" y="-7.5" font-family="Helvetica,sans-Serif" font-size="10.00">+ getTargetBlockTime()</text>
</a>
</g>
</g>
<!-- Node2 -->
<g id="node2" class="node">
<title>Node2</title>
<g id="a_node2"><a xlink:href="structaltintegration_1_1VbkChainParams.html" target="_top" xlink:title="VeriBlock chain parameters.">
<polygon fill="white" stroke="black" points="0,-227.5 0,-449.5 182,-449.5 182,-227.5 0,-227.5"/>
<text text-anchor="start" x="8" y="-437.5" font-family="Helvetica,sans-Serif" font-size="10.00">altintegration::VbkChain</text>
<text text-anchor="middle" x="91" y="-426.5" font-family="Helvetica,sans-Serif" font-size="10.00">Params</text>
<polyline fill="none" stroke="black" points="0,-419.5 182,-419.5 "/>
<text text-anchor="start" x="8" y="-407.5" font-family="Helvetica,sans-Serif" font-size="10.00">+ mOldBlocksWindow</text>
<text text-anchor="start" x="8" y="-396.5" font-family="Helvetica,sans-Serif" font-size="10.00">+ mEndorsementSettlementInterval</text>
<text text-anchor="start" x="8" y="-385.5" font-family="Helvetica,sans-Serif" font-size="10.00">+ mPreserveBlocksBehindFinal</text>
<text text-anchor="start" x="8" y="-374.5" font-family="Helvetica,sans-Serif" font-size="10.00">+ mMaxReorgBlocks</text>
<text text-anchor="start" x="8" y="-363.5" font-family="Helvetica,sans-Serif" font-size="10.00"># mMaxFutureBlockTime</text>
<polyline fill="none" stroke="black" points="0,-356.5 182,-356.5 "/>
<text text-anchor="start" x="8" y="-344.5" font-family="Helvetica,sans-Serif" font-size="10.00">+ ~VbkChainParams()</text>
<text text-anchor="start" x="8" y="-333.5" font-family="Helvetica,sans-Serif" font-size="10.00">+ getProgPowForkHeight()</text>
<text text-anchor="start" x="8" y="-322.5" font-family="Helvetica,sans-Serif" font-size="10.00">+ getProgPowStartTimeEpoch()</text>
<text text-anchor="start" x="8" y="-311.5" font-family="Helvetica,sans-Serif" font-size="10.00">+ isProgPowStartTimeEpochEnabled()</text>
<text text-anchor="start" x="8" y="-300.5" font-family="Helvetica,sans-Serif" font-size="10.00">+ networkName()</text>
<text text-anchor="start" x="8" y="-289.5" font-family="Helvetica,sans-Serif" font-size="10.00">+ getMinimumDifficulty()</text>
<text text-anchor="start" x="8" y="-278.5" font-family="Helvetica,sans-Serif" font-size="10.00">+ getTransactionMagicByte()</text>
<text text-anchor="start" x="8" y="-267.5" font-family="Helvetica,sans-Serif" font-size="10.00">+ getPowNoRetargeting()</text>
<text text-anchor="start" x="8" y="-256.5" font-family="Helvetica,sans-Serif" font-size="10.00">+ getRetargetPeriod()</text>
<text text-anchor="start" x="8" y="-245.5" font-family="Helvetica,sans-Serif" font-size="10.00">+ getTargetBlockTime()</text>
<text text-anchor="start" x="8" y="-234.5" font-family="Helvetica,sans-Serif" font-size="10.00">and 10 more...</text>
</a>
</g>
</g>
<!-- Node2&#45;&gt;Node1 -->
<g id="edge1" class="edge">
<title>Node2&#45;&gt;Node1</title>
<path fill="none" stroke="midnightblue" d="M91,-217.32C91,-208.06 91,-198.79 91,-189.74"/>
<polygon fill="none" stroke="midnightblue" points="87.5,-217.35 91,-227.35 94.5,-217.35 87.5,-217.35"/>
</g>
<!-- Node3 -->
<g id="node3" class="node">
<title>Node3</title>
<g id="a_node3"><a xlink:title=" ">
<polygon fill="white" stroke="black" points="34.5,-497.5 34.5,-554.5 147.5,-554.5 147.5,-497.5 34.5,-497.5"/>
<text text-anchor="middle" x="91" y="-542.5" font-family="Helvetica,sans-Serif" font-size="10.00">std::vector&lt; uint32_t &gt;</text>
<polyline fill="none" stroke="black" points="34.5,-535.5 147.5,-535.5 "/>
<text text-anchor="start" x="42.5" y="-523.5" font-family="Helvetica,sans-Serif" font-size="10.00">+ elements</text>
<polyline fill="none" stroke="black" points="34.5,-516.5 147.5,-516.5 "/>
<text text-anchor="middle" x="91" y="-504.5" font-family="Helvetica,sans-Serif" font-size="10.00"> </text>
</a>
</g>
</g>
<!-- Node3&#45;&gt;Node2 -->
<g id="edge2" class="edge">
<title>Node3&#45;&gt;Node2</title>
<path fill="none" stroke="#404040" d="M91,-497.23C91,-487.09 91,-474.87 91,-461.78"/>
<polygon fill="none" stroke="#404040" points="91,-461.54 87,-455.54 91,-449.54 95,-455.54 91,-461.54"/>
<text text-anchor="middle" x="158" y="-471" font-family="Helvetica,sans-Serif" font-size="10.00"> #forkResolutionLookUpTable_</text>
</g>
<!-- Node4 -->
<g id="node4" class="node">
<title>Node4</title>
<g id="a_node4"><a xlink:title=" ">
<polygon fill="white" stroke="black" points="49,-602.5 49,-659.5 133,-659.5 133,-602.5 49,-602.5"/>
<text text-anchor="middle" x="91" y="-647.5" font-family="Helvetica,sans-Serif" font-size="10.00">std::vector&lt; T &gt;</text>
<polyline fill="none" stroke="black" points="49,-640.5 133,-640.5 "/>
<text text-anchor="middle" x="91" y="-628.5" font-family="Helvetica,sans-Serif" font-size="10.00"> </text>
<polyline fill="none" stroke="black" points="49,-621.5 133,-621.5 "/>
<text text-anchor="middle" x="91" y="-609.5" font-family="Helvetica,sans-Serif" font-size="10.00"> </text>
</a>
</g>
</g>
<!-- Node4&#45;&gt;Node3 -->
<g id="edge3" class="edge">
<title>Node4&#45;&gt;Node3</title>
<path fill="none" stroke="orange" d="M91,-592.29C91,-579.84 91,-566.23 91,-554.68"/>
<polygon fill="orange" stroke="orange" points="87.5,-592.4 91,-602.4 94.5,-592.4 87.5,-592.4"/>
<text text-anchor="middle" x="118" y="-576" font-family="Helvetica,sans-Serif" font-size="10.00"> &lt; uint32_t &gt;</text>
</g>
<!-- Node5 -->
<g id="node5" class="node">
<title>Node5</title>
<g id="a_node5"><a xlink:title=" ">
<polygon fill="white" stroke="#bfbfbf" points="76.5,-707.5 76.5,-764.5 105.5,-764.5 105.5,-707.5 76.5,-707.5"/>
<text text-anchor="middle" x="91" y="-752.5" font-family="Helvetica,sans-Serif" font-size="10.00">T</text>
<polyline fill="none" stroke="#bfbfbf" points="76.5,-745.5 105.5,-745.5 "/>
<text text-anchor="middle" x="91" y="-733.5" font-family="Helvetica,sans-Serif" font-size="10.00"> </text>
<polyline fill="none" stroke="#bfbfbf" points="76.5,-726.5 105.5,-726.5 "/>
<text text-anchor="middle" x="91" y="-714.5" font-family="Helvetica,sans-Serif" font-size="10.00"> </text>
</a>
</g>
</g>
<!-- Node5&#45;&gt;Node4 -->
<g id="edge4" class="edge">
<title>Node5&#45;&gt;Node4</title>
<path fill="none" stroke="#404040" d="M91,-707.4C91,-696.55 91,-683.87 91,-672.05"/>
<polygon fill="none" stroke="#404040" points="91,-671.68 87,-665.68 91,-659.68 95,-665.68 91,-671.68"/>
<text text-anchor="middle" x="115.5" y="-681" font-family="Helvetica,sans-Serif" font-size="10.00"> +elements</text>
</g>
</g>
</svg>
