<?xml version="1.0" encoding="UTF-8" standalone="no"?>
<!DOCTYPE svg PUBLIC "-//W3C//DTD SVG 1.1//EN"
 "http://www.w3.org/Graphics/SVG/1.1/DTD/svg11.dtd">
<!-- Generated by graphviz version 2.50.0 (20220203.2022)
 -->
<!-- Title: altintegration::AltBlockTree Pages: 1 -->
<svg width="861pt" height="1798pt"
 viewBox="0.00 0.00 860.50 1798.00" xmlns="http://www.w3.org/2000/svg" xmlns:xlink="http://www.w3.org/1999/xlink">
<g id="graph0" class="graph" transform="scale(1 1) rotate(0) translate(4 1794)">
<title>altintegration::AltBlockTree</title>
<polygon fill="white" stroke="transparent" points="-4,4 -4,-1794 856.5,-1794 856.5,4 -4,4"/>
<!-- Node1 -->
<g id="node1" class="node">
<title>Node1</title>
<g id="a_node1"><a xlink:title="Represents simplified view on Altchain&#39;s block tree, maintains VBK tree and BTC tree.">
<polygon fill="#bfbfbf" stroke="black" points="378,-0.5 378,-244.5 527,-244.5 527,-0.5 378,-0.5"/>
<text text-anchor="middle" x="452.5" y="-232.5" font-family="Helvetica,sans-Serif" font-size="10.00">altintegration::AltBlockTree</text>
<polyline fill="none" stroke="black" points="378,-225.5 527,-225.5 "/>
<text text-anchor="start" x="386" y="-213.5" font-family="Helvetica,sans-Serif" font-size="10.00">+ onInvalidBlockConnected</text>
<text text-anchor="start" x="386" y="-202.5" font-family="Helvetica,sans-Serif" font-size="10.00">+ onBlockConnected</text>
<text text-anchor="start" x="386" y="-191.5" font-family="Helvetica,sans-Serif" font-size="10.00">+ onBeforeOverrideTip</text>
<polyline fill="none" stroke="black" points="378,-184.5 527,-184.5 "/>
<text text-anchor="start" x="386" y="-172.5" font-family="Helvetica,sans-Serif" font-size="10.00">+ ~AltBlockTree()</text>
<text text-anchor="start" x="386" y="-161.5" font-family="Helvetica,sans-Serif" font-size="10.00">+ AltBlockTree()</text>
<text text-anchor="start" x="386" y="-150.5" font-family="Helvetica,sans-Serif" font-size="10.00">+ acceptBlockHeader()</text>
<text text-anchor="start" x="386" y="-139.5" font-family="Helvetica,sans-Serif" font-size="10.00">+ acceptBlock()</text>
<text text-anchor="start" x="386" y="-128.5" font-family="Helvetica,sans-Serif" font-size="10.00">+ acceptBlock()</text>
<text text-anchor="start" x="386" y="-117.5" font-family="Helvetica,sans-Serif" font-size="10.00">+ acceptBlock()</text>
<text text-anchor="start" x="386" y="-106.5" font-family="Helvetica,sans-Serif" font-size="10.00">+ makeConnectedLeafPayload</text>
<text text-anchor="start" x="386" y="-95.5" font-family="Helvetica,sans-Serif" font-size="10.00">Mutator()</text>
<text text-anchor="start" x="386" y="-84.5" font-family="Helvetica,sans-Serif" font-size="10.00">+ getConnectedTipsAfter()</text>
<text text-anchor="start" x="386" y="-73.5" font-family="Helvetica,sans-Serif" font-size="10.00">+ loadBlockForward()</text>
<text text-anchor="start" x="386" y="-62.5" font-family="Helvetica,sans-Serif" font-size="10.00">+ loadTip()</text>
<text text-anchor="start" x="386" y="-51.5" font-family="Helvetica,sans-Serif" font-size="10.00">+ comparePopScore()</text>
<text text-anchor="start" x="386" y="-40.5" font-family="Helvetica,sans-Serif" font-size="10.00">+ setState()</text>
<text text-anchor="start" x="386" y="-29.5" font-family="Helvetica,sans-Serif" font-size="10.00">+ vbk()</text>
<text text-anchor="start" x="386" y="-18.5" font-family="Helvetica,sans-Serif" font-size="10.00">+ btc()</text>
<text text-anchor="start" x="386" y="-7.5" font-family="Helvetica,sans-Serif" font-size="10.00">+ getParams()</text>
</a>
</g>
</g>
<!-- Node2 -->
<g id="node2" class="node">
<title>Node2</title>
<g id="a_node2"><a xlink:href="structaltintegration_1_1BaseBlockTree.html" target="_top" xlink:title=" ">
<polygon fill="white" stroke="black" points="376.5,-282.5 376.5,-559.5 528.5,-559.5 528.5,-282.5 376.5,-282.5"/>
<text text-anchor="start" x="384.5" y="-547.5" font-family="Helvetica,sans-Serif" font-size="10.00">altintegration::BaseBlock</text>
<text text-anchor="middle" x="452.5" y="-536.5" font-family="Helvetica,sans-Serif" font-size="10.00">Tree&lt; AltBlock &gt;</text>
<polyline fill="none" stroke="black" points="376.5,-529.5 528.5,-529.5 "/>
<text text-anchor="start" x="384.5" y="-517.5" font-family="Helvetica,sans-Serif" font-size="10.00">+ onBlockBeforeDeallocated</text>
<text text-anchor="start" x="384.5" y="-506.5" font-family="Helvetica,sans-Serif" font-size="10.00">+ onBlockValidityChanged</text>
<text text-anchor="start" x="384.5" y="-495.5" font-family="Helvetica,sans-Serif" font-size="10.00"># isLoadingBlocks_</text>
<text text-anchor="start" x="384.5" y="-484.5" font-family="Helvetica,sans-Serif" font-size="10.00"># isLoaded_</text>
<polyline fill="none" stroke="black" points="376.5,-477.5 528.5,-477.5 "/>
<text text-anchor="start" x="384.5" y="-465.5" font-family="Helvetica,sans-Serif" font-size="10.00">+ getTips()</text>
<text text-anchor="start" x="384.5" y="-454.5" font-family="Helvetica,sans-Serif" font-size="10.00">+ getBlocks()</text>
<text text-anchor="start" x="384.5" y="-443.5" font-family="Helvetica,sans-Serif" font-size="10.00">+ getAllBlocks()</text>
<text text-anchor="start" x="384.5" y="-432.5" font-family="Helvetica,sans-Serif" font-size="10.00">+ getBlockProvider()</text>
<text text-anchor="start" x="384.5" y="-421.5" font-family="Helvetica,sans-Serif" font-size="10.00">+ ~BaseBlockTree()</text>
<text text-anchor="start" x="384.5" y="-410.5" font-family="Helvetica,sans-Serif" font-size="10.00">+ BaseBlockTree()</text>
<text text-anchor="start" x="384.5" y="-399.5" font-family="Helvetica,sans-Serif" font-size="10.00">+ BaseBlockTree()</text>
<text text-anchor="start" x="384.5" y="-388.5" font-family="Helvetica,sans-Serif" font-size="10.00">+ BaseBlockTree()</text>
<text text-anchor="start" x="384.5" y="-377.5" font-family="Helvetica,sans-Serif" font-size="10.00">+ operator=()</text>
<text text-anchor="start" x="384.5" y="-366.5" font-family="Helvetica,sans-Serif" font-size="10.00">+ operator=()</text>
<text text-anchor="start" x="384.5" y="-355.5" font-family="Helvetica,sans-Serif" font-size="10.00">and 23 more...</text>
<text text-anchor="start" x="384.5" y="-344.5" font-family="Helvetica,sans-Serif" font-size="10.00"># deallocateBlock()</text>
<text text-anchor="start" x="384.5" y="-333.5" font-family="Helvetica,sans-Serif" font-size="10.00"># toPrettyString()</text>
<text text-anchor="start" x="384.5" y="-322.5" font-family="Helvetica,sans-Serif" font-size="10.00"># decreaseAppliedBlockCount()</text>
<text text-anchor="start" x="384.5" y="-311.5" font-family="Helvetica,sans-Serif" font-size="10.00"># decreaseAppliedBlockCount()</text>
<text text-anchor="start" x="384.5" y="-300.5" font-family="Helvetica,sans-Serif" font-size="10.00"># increaseAppliedBlockCount()</text>
<text text-anchor="start" x="384.5" y="-289.5" font-family="Helvetica,sans-Serif" font-size="10.00"># increaseAppliedBlockCount()</text>
</a>
</g>
</g>
<!-- Node2&#45;&gt;Node1 -->
<g id="edge1" class="edge">
<title>Node2&#45;&gt;Node1</title>
<path fill="none" stroke="midnightblue" d="M452.5,-272.15C452.5,-262.91 452.5,-253.67 452.5,-244.57"/>
<polygon fill="none" stroke="midnightblue" points="449,-272.17 452.5,-282.17 456,-272.17 449,-272.17"/>
</g>
<!-- Node3 -->
<g id="node3" class="node">
<title>Node3</title>
<g id="a_node3"><a xlink:title=" ">
<polygon fill="white" stroke="black" points="35,-982 35,-1061 172,-1061 172,-982 35,-982"/>
<text text-anchor="start" x="43" y="-1049" font-family="Helvetica,sans-Serif" font-size="10.00">std::unordered_map</text>
<text text-anchor="start" x="43" y="-1038" font-family="Helvetica,sans-Serif" font-size="10.00">&lt; prev_block_hash_t,</text>
<text text-anchor="middle" x="103.5" y="-1027" font-family="Helvetica,sans-Serif" font-size="10.00"> std::unique_ptr&lt; index_t &gt; &gt;</text>
<polyline fill="none" stroke="black" points="35,-1020 172,-1020 "/>
<text text-anchor="start" x="43" y="-1008" font-family="Helvetica,sans-Serif" font-size="10.00">+ keys</text>
<polyline fill="none" stroke="black" points="35,-1001 172,-1001 "/>
<text text-anchor="middle" x="103.5" y="-989" font-family="Helvetica,sans-Serif" font-size="10.00"> </text>
</a>
</g>
</g>
<!-- Node3&#45;&gt;Node2 -->
<g id="edge2" class="edge">
<title>Node3&#45;&gt;Node2</title>
<path fill="none" stroke="#404040" d="M113,-981.79C132.91,-905.49 184.13,-732.23 266.5,-607 294.07,-565.08 332.35,-524.99 367.02,-492.9"/>
<polygon fill="none" stroke="#404040" points="367.36,-492.59 369.09,-485.59 376.22,-484.5 374.49,-491.5 367.36,-492.59"/>
<text text-anchor="middle" x="287.5" y="-743.5" font-family="Helvetica,sans-Serif" font-size="10.00"> #blocks_</text>
</g>
<!-- Node20 -->
<g id="node20" class="node">
<title>Node20</title>
<g id="a_node20"><a xlink:href="structaltintegration_1_1BaseBlockTree.html" target="_top" xlink:title="Base block tree that stores all blocks, maintains tree tips, maintains active chain.">
<polygon fill="white" stroke="black" points="376.5,-607.5 376.5,-884.5 528.5,-884.5 528.5,-607.5 376.5,-607.5"/>
<text text-anchor="start" x="384.5" y="-872.5" font-family="Helvetica,sans-Serif" font-size="10.00">altintegration::BaseBlock</text>
<text text-anchor="middle" x="452.5" y="-861.5" font-family="Helvetica,sans-Serif" font-size="10.00">Tree&lt; Block &gt;</text>
<polyline fill="none" stroke="black" points="376.5,-854.5 528.5,-854.5 "/>
<text text-anchor="start" x="384.5" y="-842.5" font-family="Helvetica,sans-Serif" font-size="10.00">+ onBlockBeforeDeallocated</text>
<text text-anchor="start" x="384.5" y="-831.5" font-family="Helvetica,sans-Serif" font-size="10.00">+ onBlockValidityChanged</text>
<text text-anchor="start" x="384.5" y="-820.5" font-family="Helvetica,sans-Serif" font-size="10.00"># isLoadingBlocks_</text>
<text text-anchor="start" x="384.5" y="-809.5" font-family="Helvetica,sans-Serif" font-size="10.00"># isLoaded_</text>
<polyline fill="none" stroke="black" points="376.5,-802.5 528.5,-802.5 "/>
<text text-anchor="start" x="384.5" y="-790.5" font-family="Helvetica,sans-Serif" font-size="10.00">+ getTips()</text>
<text text-anchor="start" x="384.5" y="-779.5" font-family="Helvetica,sans-Serif" font-size="10.00">+ getBlocks()</text>
<text text-anchor="start" x="384.5" y="-768.5" font-family="Helvetica,sans-Serif" font-size="10.00">+ getAllBlocks()</text>
<text text-anchor="start" x="384.5" y="-757.5" font-family="Helvetica,sans-Serif" font-size="10.00">+ getBlockProvider()</text>
<text text-anchor="start" x="384.5" y="-746.5" font-family="Helvetica,sans-Serif" font-size="10.00">+ ~BaseBlockTree()</text>
<text text-anchor="start" x="384.5" y="-735.5" font-family="Helvetica,sans-Serif" font-size="10.00">+ BaseBlockTree()</text>
<text text-anchor="start" x="384.5" y="-724.5" font-family="Helvetica,sans-Serif" font-size="10.00">+ BaseBlockTree()</text>
<text text-anchor="start" x="384.5" y="-713.5" font-family="Helvetica,sans-Serif" font-size="10.00">+ operator=()</text>
<text text-anchor="start" x="384.5" y="-702.5" font-family="Helvetica,sans-Serif" font-size="10.00">+ BaseBlockTree()</text>
<text text-anchor="start" x="384.5" y="-691.5" font-family="Helvetica,sans-Serif" font-size="10.00">+ operator=()</text>
<text text-anchor="start" x="384.5" y="-680.5" font-family="Helvetica,sans-Serif" font-size="10.00">and 23 more...</text>
<text text-anchor="start" x="384.5" y="-669.5" font-family="Helvetica,sans-Serif" font-size="10.00"># deallocateBlock()</text>
<text text-anchor="start" x="384.5" y="-658.5" font-family="Helvetica,sans-Serif" font-size="10.00"># toPrettyString()</text>
<text text-anchor="start" x="384.5" y="-647.5" font-family="Helvetica,sans-Serif" font-size="10.00"># decreaseAppliedBlockCount()</text>
<text text-anchor="start" x="384.5" y="-636.5" font-family="Helvetica,sans-Serif" font-size="10.00"># increaseAppliedBlockCount()</text>
<text text-anchor="start" x="384.5" y="-625.5" font-family="Helvetica,sans-Serif" font-size="10.00"># decreaseAppliedBlockCount()</text>
<text text-anchor="start" x="384.5" y="-614.5" font-family="Helvetica,sans-Serif" font-size="10.00"># increaseAppliedBlockCount()</text>
</a>
</g>
</g>
<!-- Node3&#45;&gt;Node20 -->
<g id="edge26" class="edge">
<title>Node3&#45;&gt;Node20</title>
<path fill="none" stroke="#404040" d="M161.07,-981.82C186.21,-965.6 216.33,-947.05 244.5,-932 289.6,-907.91 309.59,-916.96 349.5,-885 355.77,-879.98 361.86,-874.49 367.74,-868.69"/>
<polygon fill="none" stroke="#404040" points="367.83,-868.59 369.14,-861.5 376.19,-859.98 374.88,-867.07 367.83,-868.59"/>
<text text-anchor="middle" x="341.5" y="-906" font-family="Helvetica,sans-Serif" font-size="10.00"> #blocks_</text>
</g>
<!-- Node4 -->
<g id="node4" class="node">
<title>Node4</title>
<g id="a_node4"><a xlink:title=" ">
<polygon fill="white" stroke="black" points="0,-1399.5 0,-1456.5 127,-1456.5 127,-1399.5 0,-1399.5"/>
<text text-anchor="middle" x="63.5" y="-1444.5" font-family="Helvetica,sans-Serif" font-size="10.00">std::unique_ptr&lt; index_t &gt;</text>
<polyline fill="none" stroke="black" points="0,-1437.5 127,-1437.5 "/>
<text text-anchor="start" x="8" y="-1425.5" font-family="Helvetica,sans-Serif" font-size="10.00">+ ptr</text>
<polyline fill="none" stroke="black" points="0,-1418.5 127,-1418.5 "/>
<text text-anchor="start" x="8" y="-1406.5" font-family="Helvetica,sans-Serif" font-size="10.00">+ operator&#45;&gt;()</text>
</a>
</g>
</g>
<!-- Node4&#45;&gt;Node3 -->
<g id="edge3" class="edge">
<title>Node4&#45;&gt;Node3</title>
<path fill="none" stroke="#404040" d="M55.8,-1399.46C54.43,-1393.42 53.21,-1387.03 52.5,-1381 41.47,-1287.43 36.79,-1261.9 52.5,-1169 58.1,-1135.89 70.34,-1100.28 81.43,-1072.46"/>
<polygon fill="none" stroke="#404040" points="81.55,-1072.15 80.12,-1065.09 86.09,-1061.04 87.52,-1068.11 81.55,-1072.15"/>
<text text-anchor="middle" x="77" y="-1272.5" font-family="Helvetica,sans-Serif" font-size="10.00"> +elements</text>
</g>
<!-- Node5 -->
<g id="node5" class="node">
<title>Node5</title>
<g id="a_node5"><a xlink:title=" ">
<polygon fill="white" stroke="black" points="34.5,-1551.5 34.5,-1608.5 136.5,-1608.5 136.5,-1551.5 34.5,-1551.5"/>
<text text-anchor="middle" x="85.5" y="-1596.5" font-family="Helvetica,sans-Serif" font-size="10.00">std::unique_ptr&lt; T &gt;</text>
<polyline fill="none" stroke="black" points="34.5,-1589.5 136.5,-1589.5 "/>
<text text-anchor="middle" x="85.5" y="-1577.5" font-family="Helvetica,sans-Serif" font-size="10.00"> </text>
<polyline fill="none" stroke="black" points="34.5,-1570.5 136.5,-1570.5 "/>
<text text-anchor="start" x="42.5" y="-1558.5" font-family="Helvetica,sans-Serif" font-size="10.00">+ operator&#45;&gt;()</text>
</a>
</g>
</g>
<!-- Node5&#45;&gt;Node4 -->
<g id="edge4" class="edge">
<title>Node5&#45;&gt;Node4</title>
<path fill="none" stroke="orange" d="M80,-1541.47C76.13,-1515.11 71.04,-1480.43 67.55,-1456.59"/>
<polygon fill="orange" stroke="orange" points="76.55,-1542.1 81.46,-1551.49 83.48,-1541.09 76.55,-1542.1"/>
<text text-anchor="middle" x="103.5" y="-1501.5" font-family="Helvetica,sans-Serif" font-size="10.00"> &lt; index_t &gt;</text>
</g>
<!-- Node6 -->
<g id="node6" class="node">
<title>Node6</title>
<g id="a_node6"><a xlink:title=" ">
<polygon fill="white" stroke="#bfbfbf" points="147,-1732.5 147,-1789.5 176,-1789.5 176,-1732.5 147,-1732.5"/>
<text text-anchor="middle" x="161.5" y="-1777.5" font-family="Helvetica,sans-Serif" font-size="10.00">T</text>
<polyline fill="none" stroke="#bfbfbf" points="147,-1770.5 176,-1770.5 "/>
<text text-anchor="middle" x="161.5" y="-1758.5" font-family="Helvetica,sans-Serif" font-size="10.00"> </text>
<polyline fill="none" stroke="#bfbfbf" points="147,-1751.5 176,-1751.5 "/>
<text text-anchor="middle" x="161.5" y="-1739.5" font-family="Helvetica,sans-Serif" font-size="10.00"> </text>
</a>
</g>
</g>
<!-- Node6&#45;&gt;Node5 -->
<g id="edge5" class="edge">
<title>Node6&#45;&gt;Node5</title>
<path fill="none" stroke="#404040" d="M146.81,-1742.98C140.2,-1734.67 132.73,-1724.26 127.5,-1714 112.25,-1684.06 101.19,-1647.51 94.26,-1620.3"/>
<polygon fill="none" stroke="#404040" points="94.23,-1620.17 88.92,-1615.3 91.37,-1608.52 96.68,-1613.39 94.23,-1620.17"/>
<text text-anchor="middle" x="137.5" y="-1706" font-family="Helvetica,sans-Serif" font-size="10.00"> +ptr</text>
</g>
<!-- Node7 -->
<g id="node7" class="node">
<title>Node7</title>
<g id="a_node7"><a xlink:title=" ">
<polygon fill="white" stroke="black" points="111,-1241 111,-1309 212,-1309 212,-1241 111,-1241"/>
<text text-anchor="start" x="119" y="-1297" font-family="Helvetica,sans-Serif" font-size="10.00">std::unordered_map</text>
<text text-anchor="middle" x="161.5" y="-1286" font-family="Helvetica,sans-Serif" font-size="10.00">&lt; K, T &gt;</text>
<polyline fill="none" stroke="black" points="111,-1279 212,-1279 "/>
<text text-anchor="middle" x="161.5" y="-1267" font-family="Helvetica,sans-Serif" font-size="10.00"> </text>
<polyline fill="none" stroke="black" points="111,-1260 212,-1260 "/>
<text text-anchor="middle" x="161.5" y="-1248" font-family="Helvetica,sans-Serif" font-size="10.00"> </text>
</a>
</g>
</g>
<!-- Node6&#45;&gt;Node7 -->
<g id="edge8" class="edge">
<title>Node6&#45;&gt;Node7</title>
<path fill="none" stroke="#404040" d="M161.5,-1732.24C161.5,-1652.19 161.5,-1420.33 161.5,-1321.5"/>
<polygon fill="none" stroke="#404040" points="161.5,-1321.29 157.5,-1315.29 161.5,-1309.29 165.5,-1315.29 161.5,-1321.29"/>
<text text-anchor="middle" x="186" y="-1577.5" font-family="Helvetica,sans-Serif" font-size="10.00"> +elements</text>
</g>
<!-- Node15 -->
<g id="node15" class="node">
<title>Node15</title>
<g id="a_node15"><a xlink:title=" ">
<polygon fill="white" stroke="black" points="229,-1627.5 229,-1684.5 332,-1684.5 332,-1627.5 229,-1627.5"/>
<text text-anchor="middle" x="280.5" y="-1672.5" font-family="Helvetica,sans-Serif" font-size="10.00">std::shared_ptr&lt; T &gt;</text>
<polyline fill="none" stroke="black" points="229,-1665.5 332,-1665.5 "/>
<text text-anchor="middle" x="280.5" y="-1653.5" font-family="Helvetica,sans-Serif" font-size="10.00"> </text>
<polyline fill="none" stroke="black" points="229,-1646.5 332,-1646.5 "/>
<text text-anchor="start" x="237" y="-1634.5" font-family="Helvetica,sans-Serif" font-size="10.00">+ operator&#45;&gt;()</text>
</a>
</g>
</g>
<!-- Node6&#45;&gt;Node15 -->
<g id="edge19" class="edge">
<title>Node6&#45;&gt;Node15</title>
<path fill="none" stroke="#404040" d="M176.09,-1747.37C191.73,-1733.83 217.27,-1711.73 239.17,-1692.77"/>
<polygon fill="none" stroke="#404040" points="239.22,-1692.73 241.14,-1685.78 248.3,-1684.87 246.38,-1691.82 239.22,-1692.73"/>
<text text-anchor="middle" x="235.5" y="-1706" font-family="Helvetica,sans-Serif" font-size="10.00"> +ptr</text>
</g>
<!-- Node7&#45;&gt;Node3 -->
<g id="edge6" class="edge">
<title>Node7&#45;&gt;Node3</title>
<path fill="none" stroke="orange" d="M133.23,-1232.03C119.51,-1209.14 104.52,-1179.69 97.5,-1151 90.26,-1121.39 92.44,-1086.82 96.06,-1061"/>
<polygon fill="orange" stroke="orange" points="130.38,-1234.08 138.6,-1240.77 136.35,-1230.42 130.38,-1234.08"/>
<text text-anchor="start" x="97.5" y="-1143" font-family="Helvetica,sans-Serif" font-size="10.00"> &lt; prev_block_hash_t,</text>
<text text-anchor="middle" x="158" y="-1132" font-family="Helvetica,sans-Serif" font-size="10.00"> std::unique_ptr&lt; index_t &gt; &gt;</text>
</g>
<!-- Node8 -->
<g id="node8" class="node">
<title>Node8</title>
<g id="a_node8"><a xlink:title=" ">
<polygon fill="white" stroke="#bfbfbf" points="275,-1475.5 275,-1532.5 304,-1532.5 304,-1475.5 275,-1475.5"/>
<text text-anchor="middle" x="289.5" y="-1520.5" font-family="Helvetica,sans-Serif" font-size="10.00">K</text>
<polyline fill="none" stroke="#bfbfbf" points="275,-1513.5 304,-1513.5 "/>
<text text-anchor="middle" x="289.5" y="-1501.5" font-family="Helvetica,sans-Serif" font-size="10.00"> </text>
<polyline fill="none" stroke="#bfbfbf" points="275,-1494.5 304,-1494.5 "/>
<text text-anchor="middle" x="289.5" y="-1482.5" font-family="Helvetica,sans-Serif" font-size="10.00"> </text>
</a>
</g>
</g>
<!-- Node8&#45;&gt;Node7 -->
<g id="edge7" class="edge">
<title>Node8&#45;&gt;Node7</title>
<path fill="none" stroke="#404040" d="M274.75,-1483.71C268.82,-1475.63 262.07,-1466.03 256.5,-1457 228.55,-1411.7 200.74,-1357.35 182.5,-1320.11"/>
<polygon fill="none" stroke="#404040" points="182.41,-1319.92 176.19,-1316.27 177.16,-1309.13 183.38,-1312.77 182.41,-1319.92"/>
<text text-anchor="middle" x="271" y="-1425.5" font-family="Helvetica,sans-Serif" font-size="10.00"> +keys</text>
</g>
<!-- Node13 -->
<g id="node13" class="node">
<title>Node13</title>
<g id="a_node13"><a xlink:title=" ">
<polygon fill="white" stroke="black" points="367,-1246.5 367,-1303.5 438,-1303.5 438,-1246.5 367,-1246.5"/>
<text text-anchor="middle" x="402.5" y="-1291.5" font-family="Helvetica,sans-Serif" font-size="10.00">std::set&lt; K &gt;</text>
<polyline fill="none" stroke="black" points="367,-1284.5 438,-1284.5 "/>
<text text-anchor="middle" x="402.5" y="-1272.5" font-family="Helvetica,sans-Serif" font-size="10.00"> </text>
<polyline fill="none" stroke="black" points="367,-1265.5 438,-1265.5 "/>
<text text-anchor="middle" x="402.5" y="-1253.5" font-family="Helvetica,sans-Serif" font-size="10.00"> </text>
</a>
</g>
</g>
<!-- Node8&#45;&gt;Node13 -->
<g id="edge16" class="edge">
<title>Node8&#45;&gt;Node13</title>
<path fill="none" stroke="#404040" d="M304.15,-1484.3C310.21,-1476.15 317.06,-1466.34 322.5,-1457 349.7,-1410.24 373.71,-1352.53 388.16,-1315.02"/>
<polygon fill="none" stroke="#404040" points="388.24,-1314.81 386.63,-1307.78 392.51,-1303.6 394.11,-1310.63 388.24,-1314.81"/>
<text text-anchor="middle" x="368" y="-1425.5" font-family="Helvetica,sans-Serif" font-size="10.00"> +keys</text>
</g>
<!-- Node16 -->
<g id="node16" class="node">
<title>Node16</title>
<g id="a_node16"><a xlink:title=" ">
<polygon fill="white" stroke="black" points="230,-1246.5 230,-1303.5 349,-1303.5 349,-1246.5 230,-1246.5"/>
<text text-anchor="middle" x="289.5" y="-1291.5" font-family="Helvetica,sans-Serif" font-size="10.00">std::unordered_set&lt; K &gt;</text>
<polyline fill="none" stroke="black" points="230,-1284.5 349,-1284.5 "/>
<text text-anchor="middle" x="289.5" y="-1272.5" font-family="Helvetica,sans-Serif" font-size="10.00"> </text>
<polyline fill="none" stroke="black" points="230,-1265.5 349,-1265.5 "/>
<text text-anchor="middle" x="289.5" y="-1253.5" font-family="Helvetica,sans-Serif" font-size="10.00"> </text>
</a>
</g>
</g>
<!-- Node8&#45;&gt;Node16 -->
<g id="edge21" class="edge">
<title>Node8&#45;&gt;Node16</title>
<path fill="none" stroke="#404040" d="M289.5,-1475.17C289.5,-1435.23 289.5,-1361.48 289.5,-1315.8"/>
<polygon fill="none" stroke="#404040" points="289.5,-1315.71 285.5,-1309.71 289.5,-1303.71 293.5,-1309.71 289.5,-1315.71"/>
<text text-anchor="middle" x="304" y="-1425.5" font-family="Helvetica,sans-Serif" font-size="10.00"> +keys</text>
</g>
<!-- Node9 -->
<g id="node9" class="node">
<title>Node9</title>
<g id="a_node9"><a xlink:title=" ">
<polygon fill="white" stroke="black" points="254,-987.5 254,-1055.5 401,-1055.5 401,-987.5 254,-987.5"/>
<text text-anchor="start" x="262" y="-1043.5" font-family="Helvetica,sans-Serif" font-size="10.00">std::unordered_set</text>
<text text-anchor="middle" x="327.5" y="-1032.5" font-family="Helvetica,sans-Serif" font-size="10.00">&lt; altintegration::BlockIndex * &gt;</text>
<polyline fill="none" stroke="black" points="254,-1025.5 401,-1025.5 "/>
<text text-anchor="middle" x="327.5" y="-1013.5" font-family="Helvetica,sans-Serif" font-size="10.00"> </text>
<polyline fill="none" stroke="black" points="254,-1006.5 401,-1006.5 "/>
<text text-anchor="middle" x="327.5" y="-994.5" font-family="Helvetica,sans-Serif" font-size="10.00"> </text>
</a>
</g>
</g>
<!-- Node9&#45;&gt;Node2 -->
<g id="edge9" class="edge">
<title>Node9&#45;&gt;Node2</title>
<path fill="none" stroke="#404040" d="M322.68,-987.43C313.52,-916.1 297.89,-743.27 338.5,-607 345.8,-582.5 357.23,-558.01 370.08,-535.23"/>
<polygon fill="none" stroke="#404040" points="370.26,-534.93 369.81,-527.73 376.28,-524.55 376.73,-531.75 370.26,-534.93"/>
<text text-anchor="middle" x="353" y="-743.5" font-family="Helvetica,sans-Serif" font-size="10.00"> #tips_</text>
</g>
<!-- Node9&#45;&gt;Node20 -->
<g id="edge27" class="edge">
<title>Node9&#45;&gt;Node20</title>
<path fill="none" stroke="#404040" d="M350.09,-987.43C363.51,-966.88 380.25,-939.59 392.5,-914 395.33,-908.1 398.1,-902.02 400.8,-895.84"/>
<polygon fill="none" stroke="#404040" points="400.88,-895.66 399.56,-888.57 405.6,-884.63 406.92,-891.72 400.88,-895.66"/>
<text text-anchor="middle" x="412" y="-906" font-family="Helvetica,sans-Serif" font-size="10.00"> #tips_</text>
</g>
<!-- Node10 -->
<g id="node10" class="node">
<title>Node10</title>
<g id="a_node10"><a xlink:href="structaltintegration_1_1BlockIndex.html" target="_top" xlink:title="A node in a block tree.">
<polygon fill="white" stroke="black" points="456,-1169.5 456,-1380.5 581,-1380.5 581,-1169.5 456,-1169.5"/>
<text text-anchor="start" x="464" y="-1368.5" font-family="Helvetica,sans-Serif" font-size="10.00">altintegration::BlockIndex</text>
<text text-anchor="middle" x="518.5" y="-1357.5" font-family="Helvetica,sans-Serif" font-size="10.00">&lt; Block &gt;</text>
<polyline fill="none" stroke="black" points="456,-1350.5 581,-1350.5 "/>
<text text-anchor="start" x="464" y="-1338.5" font-family="Helvetica,sans-Serif" font-size="10.00">+ finalized</text>
<text text-anchor="start" x="464" y="-1327.5" font-family="Helvetica,sans-Serif" font-size="10.00"># height</text>
<text text-anchor="start" x="464" y="-1316.5" font-family="Helvetica,sans-Serif" font-size="10.00"># status</text>
<text text-anchor="start" x="464" y="-1305.5" font-family="Helvetica,sans-Serif" font-size="10.00"># dirty</text>
<polyline fill="none" stroke="black" points="456,-1298.5 581,-1298.5 "/>
<text text-anchor="start" x="464" y="-1286.5" font-family="Helvetica,sans-Serif" font-size="10.00">+ BlockIndex()</text>
<text text-anchor="start" x="464" y="-1275.5" font-family="Helvetica,sans-Serif" font-size="10.00">+ BlockIndex()</text>
<text text-anchor="start" x="464" y="-1264.5" font-family="Helvetica,sans-Serif" font-size="10.00">+ ~BlockIndex()</text>
<text text-anchor="start" x="464" y="-1253.5" font-family="Helvetica,sans-Serif" font-size="10.00">+ disconnectFromPrev()</text>
<text text-anchor="start" x="464" y="-1242.5" font-family="Helvetica,sans-Serif" font-size="10.00">+ isTip()</text>
<text text-anchor="start" x="464" y="-1231.5" font-family="Helvetica,sans-Serif" font-size="10.00">+ BlockIndex()</text>
<text text-anchor="start" x="464" y="-1220.5" font-family="Helvetica,sans-Serif" font-size="10.00">+ operator=()</text>
<text text-anchor="start" x="464" y="-1209.5" font-family="Helvetica,sans-Serif" font-size="10.00">+ isDeleted()</text>
<text text-anchor="start" x="464" y="-1198.5" font-family="Helvetica,sans-Serif" font-size="10.00">+ isRoot()</text>
<text text-anchor="start" x="464" y="-1187.5" font-family="Helvetica,sans-Serif" font-size="10.00">+ restore()</text>
<text text-anchor="start" x="464" y="-1176.5" font-family="Helvetica,sans-Serif" font-size="10.00">and 42 more...</text>
</a>
</g>
</g>
<!-- Node10&#45;&gt;Node9 -->
<g id="edge10" class="edge">
<title>Node10&#45;&gt;Node9</title>
<path fill="none" stroke="#404040" d="M455.77,-1176.67C452.78,-1173.95 449.68,-1171.39 446.5,-1169 425.92,-1153.58 410.96,-1167.81 391.5,-1151 366.17,-1129.12 349.8,-1094.82 339.96,-1067.17"/>
<polygon fill="none" stroke="#404040" points="339.96,-1067.15 334.26,-1062.74 336.14,-1055.78 341.84,-1060.19 339.96,-1067.15"/>
<text text-anchor="middle" x="406" y="-1137.5" font-family="Helvetica,sans-Serif" font-size="10.00"> +keys</text>
</g>
<!-- Node10&#45;&gt;Node10 -->
<g id="edge12" class="edge">
<title>Node10&#45;&gt;Node10</title>
<path fill="none" stroke="#404040" d="M581.28,-1298.35C591.76,-1295.08 599,-1287.3 599,-1275 599,-1267.5 596.31,-1261.69 591.84,-1257.54"/>
<polygon fill="none" stroke="#404040" points="591.76,-1257.5 584.57,-1258.06 581.28,-1251.65 588.47,-1251.08 591.76,-1257.5"/>
<text text-anchor="middle" x="615.5" y="-1272.5" font-family="Helvetica,sans-Serif" font-size="10.00"> +pprev</text>
</g>
<!-- Node12 -->
<g id="node12" class="node">
<title>Node12</title>
<g id="a_node12"><a xlink:title=" ">
<polygon fill="white" stroke="black" points="430.5,-987.5 430.5,-1055.5 542.5,-1055.5 542.5,-987.5 430.5,-987.5"/>
<text text-anchor="start" x="438.5" y="-1043.5" font-family="Helvetica,sans-Serif" font-size="10.00">std::set&lt; altintegration</text>
<text text-anchor="middle" x="486.5" y="-1032.5" font-family="Helvetica,sans-Serif" font-size="10.00">::BlockIndex * &gt;</text>
<polyline fill="none" stroke="black" points="430.5,-1025.5 542.5,-1025.5 "/>
<text text-anchor="middle" x="486.5" y="-1013.5" font-family="Helvetica,sans-Serif" font-size="10.00"> </text>
<polyline fill="none" stroke="black" points="430.5,-1006.5 542.5,-1006.5 "/>
<text text-anchor="middle" x="486.5" y="-994.5" font-family="Helvetica,sans-Serif" font-size="10.00"> </text>
</a>
</g>
</g>
<!-- Node10&#45;&gt;Node12 -->
<g id="edge14" class="edge">
<title>Node10&#45;&gt;Node12</title>
<path fill="none" stroke="#404040" d="M581.3,-1223.43C608.94,-1194.99 630.66,-1159.23 608.5,-1129 592.8,-1107.57 573.1,-1126.47 551.5,-1111 535.1,-1099.25 521.15,-1082.1 510.43,-1066.01"/>
<polygon fill="none" stroke="#404040" points="510.29,-1065.79 503.7,-1062.87 503.86,-1055.66 510.45,-1058.58 510.29,-1065.79"/>
<text text-anchor="middle" x="631" y="-1137.5" font-family="Helvetica,sans-Serif" font-size="10.00"> +keys</text>
</g>
<!-- Node11 -->
<g id="node11" class="node">
<title>Node11</title>
<g id="a_node11"><a xlink:title=" ">
<polygon fill="white" stroke="#bfbfbf" points="478.5,-1475.5 478.5,-1532.5 558.5,-1532.5 558.5,-1475.5 478.5,-1475.5"/>
<text text-anchor="middle" x="518.5" y="-1520.5" font-family="Helvetica,sans-Serif" font-size="10.00">Block::addon_t</text>
<polyline fill="none" stroke="#bfbfbf" points="478.5,-1513.5 558.5,-1513.5 "/>
<text text-anchor="middle" x="518.5" y="-1501.5" font-family="Helvetica,sans-Serif" font-size="10.00"> </text>
<polyline fill="none" stroke="#bfbfbf" points="478.5,-1494.5 558.5,-1494.5 "/>
<text text-anchor="middle" x="518.5" y="-1482.5" font-family="Helvetica,sans-Serif" font-size="10.00"> </text>
</a>
</g>
</g>
<!-- Node11&#45;&gt;Node10 -->
<g id="edge11" class="edge">
<title>Node11&#45;&gt;Node10</title>
<path fill="none" stroke="midnightblue" d="M518.5,-1465.05C518.5,-1441.79 518.5,-1410.76 518.5,-1380.58"/>
<polygon fill="none" stroke="midnightblue" points="515,-1465.17 518.5,-1475.17 522,-1465.17 515,-1465.17"/>
</g>
<!-- Node12&#45;&gt;Node10 -->
<g id="edge13" class="edge">
<title>Node12&#45;&gt;Node10</title>
<path fill="none" stroke="#404040" d="M509.86,-1055.83C521.93,-1072.66 537.11,-1093.21 551.5,-1111 558.23,-1119.32 563.7,-1119 567.5,-1129 570.95,-1138.08 572.42,-1147.53 572.4,-1157.05"/>
<polygon fill="none" stroke="#404040" points="572.39,-1157.15 575.99,-1163.39 571.61,-1169.12 568.01,-1162.87 572.39,-1157.15"/>
<text text-anchor="middle" x="588.5" y="-1137.5" font-family="Helvetica,sans-Serif" font-size="10.00"> +pnext</text>
</g>
<!-- Node13&#45;&gt;Node12 -->
<g id="edge15" class="edge">
<title>Node13&#45;&gt;Node12</title>
<path fill="none" stroke="orange" d="M406.68,-1236.41C410.72,-1206.66 418.09,-1164.38 430.5,-1129 439.49,-1103.37 453.79,-1076.31 465.69,-1055.88"/>
<polygon fill="orange" stroke="orange" points="403.2,-1236.01 405.39,-1246.38 410.15,-1236.91 403.2,-1236.01"/>
<text text-anchor="middle" x="497" y="-1137.5" font-family="Helvetica,sans-Serif" font-size="10.00"> &lt; altintegration::BlockIndex * &gt;</text>
</g>
<!-- Node14 -->
<g id="node14" class="node">
<title>Node14</title>
<g id="a_node14"><a xlink:title=" ">
<polygon fill="white" stroke="black" points="327.5,-1475.5 327.5,-1532.5 455.5,-1532.5 455.5,-1475.5 327.5,-1475.5"/>
<text text-anchor="middle" x="391.5" y="-1520.5" font-family="Helvetica,sans-Serif" font-size="10.00">std::shared_ptr&lt; block_t &gt;</text>
<polyline fill="none" stroke="black" points="327.5,-1513.5 455.5,-1513.5 "/>
<text text-anchor="start" x="335.5" y="-1501.5" font-family="Helvetica,sans-Serif" font-size="10.00">+ ptr</text>
<polyline fill="none" stroke="black" points="327.5,-1494.5 455.5,-1494.5 "/>
<text text-anchor="start" x="335.5" y="-1482.5" font-family="Helvetica,sans-Serif" font-size="10.00">+ operator&#45;&gt;()</text>
</a>
</g>
</g>
<!-- Node14&#45;&gt;Node10 -->
<g id="edge17" class="edge">
<title>Node14&#45;&gt;Node10</title>
<path fill="none" stroke="#404040" d="M407.07,-1475.17C419.06,-1453.73 436.51,-1422.56 454.05,-1391.21"/>
<polygon fill="none" stroke="#404040" points="454.13,-1391.05 453.57,-1383.87 459.99,-1380.58 460.55,-1387.77 454.13,-1391.05"/>
<text text-anchor="middle" x="466" y="-1425.5" font-family="Helvetica,sans-Serif" font-size="10.00"> #header</text>
</g>
<!-- Node15&#45;&gt;Node14 -->
<g id="edge18" class="edge">
<title>Node15&#45;&gt;Node14</title>
<path fill="none" stroke="orange" d="M306.98,-1619.21C326.64,-1592.65 353.05,-1556.96 371.08,-1532.59"/>
<polygon fill="orange" stroke="orange" points="303.99,-1617.37 300.86,-1627.49 309.62,-1621.53 303.99,-1617.37"/>
<text text-anchor="middle" x="382" y="-1577.5" font-family="Helvetica,sans-Serif" font-size="10.00"> &lt; block_t &gt;</text>
</g>
<!-- Node16&#45;&gt;Node9 -->
<g id="edge20" class="edge">
<title>Node16&#45;&gt;Node9</title>
<path fill="none" stroke="orange" d="M257.32,-1238.55C234.89,-1209.34 211.45,-1166.75 226.5,-1129 238.06,-1100 261.69,-1074.37 283.18,-1055.52"/>
<polygon fill="orange" stroke="orange" points="254.62,-1240.77 263.59,-1246.41 260.1,-1236.41 254.62,-1240.77"/>
<text text-anchor="middle" x="293" y="-1137.5" font-family="Helvetica,sans-Serif" font-size="10.00"> &lt; altintegration::BlockIndex * &gt;</text>
</g>
<!-- Node17 -->
<g id="node17" class="node">
<title>Node17</title>
<g id="a_node17"><a xlink:href="structaltintegration_1_1Chain.html" target="_top" xlink:title=" ">
<polygon fill="white" stroke="black" points="561,-932.5 561,-1110.5 702,-1110.5 702,-932.5 561,-932.5"/>
<text text-anchor="start" x="569" y="-1098.5" font-family="Helvetica,sans-Serif" font-size="10.00">altintegration::Chain</text>
<text text-anchor="middle" x="631.5" y="-1087.5" font-family="Helvetica,sans-Serif" font-size="10.00">&lt; altintegration::BlockIndex &gt;</text>
<polyline fill="none" stroke="black" points="561,-1080.5 702,-1080.5 "/>
<text text-anchor="middle" x="631.5" y="-1068.5" font-family="Helvetica,sans-Serif" font-size="10.00"> </text>
<polyline fill="none" stroke="black" points="561,-1061.5 702,-1061.5 "/>
<text text-anchor="start" x="569" y="-1049.5" font-family="Helvetica,sans-Serif" font-size="10.00">+ Chain()</text>
<text text-anchor="start" x="569" y="-1038.5" font-family="Helvetica,sans-Serif" font-size="10.00">+ Chain()</text>
<text text-anchor="start" x="569" y="-1027.5" font-family="Helvetica,sans-Serif" font-size="10.00">+ Chain()</text>
<text text-anchor="start" x="569" y="-1016.5" font-family="Helvetica,sans-Serif" font-size="10.00">+ getStartHeight()</text>
<text text-anchor="start" x="569" y="-1005.5" font-family="Helvetica,sans-Serif" font-size="10.00">+ firstHeight()</text>
<text text-anchor="start" x="569" y="-994.5" font-family="Helvetica,sans-Serif" font-size="10.00">+ contains()</text>
<text text-anchor="start" x="569" y="-983.5" font-family="Helvetica,sans-Serif" font-size="10.00">+ operator[]()</text>
<text text-anchor="start" x="569" y="-972.5" font-family="Helvetica,sans-Serif" font-size="10.00">+ next()</text>
<text text-anchor="start" x="569" y="-961.5" font-family="Helvetica,sans-Serif" font-size="10.00">+ chainHeight()</text>
<text text-anchor="start" x="569" y="-950.5" font-family="Helvetica,sans-Serif" font-size="10.00">+ empty()</text>
<text text-anchor="start" x="569" y="-939.5" font-family="Helvetica,sans-Serif" font-size="10.00">and 15 more...</text>
</a>
</g>
</g>
<!-- Node17&#45;&gt;Node2 -->
<g id="edge22" class="edge">
<title>Node17&#45;&gt;Node2</title>
<path fill="none" stroke="#404040" d="M631,-932.35C630.2,-922.41 629.07,-912.46 627.5,-903 608.35,-787.7 562.68,-663.91 522.8,-570.79"/>
<polygon fill="none" stroke="#404040" points="522.72,-570.6 516.67,-566.68 517.97,-559.58 524.02,-563.51 522.72,-570.6"/>
<text text-anchor="middle" x="654.5" y="-743.5" font-family="Helvetica,sans-Serif" font-size="10.00"> #activeChain_</text>
</g>
<!-- Node17&#45;&gt;Node20 -->
<g id="edge28" class="edge">
<title>Node17&#45;&gt;Node20</title>
<path fill="none" stroke="#404040" d="M560.74,-937.9C557.72,-935.79 554.64,-933.81 551.5,-932 518.43,-912.91 492.81,-942.59 467.5,-914 462.62,-908.48 458.55,-902.43 455.19,-895.99"/>
<polygon fill="none" stroke="#404040" points="455.1,-895.78 448.99,-891.94 450.19,-884.83 456.29,-888.66 455.1,-895.78"/>
<text text-anchor="middle" x="499.5" y="-906" font-family="Helvetica,sans-Serif" font-size="10.00"> #activeChain_</text>
</g>
<!-- Node18 -->
<g id="node18" class="node">
<title>Node18</title>
<g id="a_node18"><a xlink:href="structaltintegration_1_1Chain.html" target="_top" xlink:title="Fully in&#45;memory chain representation.">
<polygon fill="white" stroke="black" points="650,-1186 650,-1364 751,-1364 751,-1186 650,-1186"/>
<text text-anchor="start" x="658" y="-1352" font-family="Helvetica,sans-Serif" font-size="10.00">altintegration::Chain</text>
<text text-anchor="middle" x="700.5" y="-1341" font-family="Helvetica,sans-Serif" font-size="10.00">&lt; BlockIndexT &gt;</text>
<polyline fill="none" stroke="black" points="650,-1334 751,-1334 "/>
<text text-anchor="middle" x="700.5" y="-1322" font-family="Helvetica,sans-Serif" font-size="10.00"> </text>
<polyline fill="none" stroke="black" points="650,-1315 751,-1315 "/>
<text text-anchor="start" x="658" y="-1303" font-family="Helvetica,sans-Serif" font-size="10.00">+ Chain()</text>
<text text-anchor="start" x="658" y="-1292" font-family="Helvetica,sans-Serif" font-size="10.00">+ Chain()</text>
<text text-anchor="start" x="658" y="-1281" font-family="Helvetica,sans-Serif" font-size="10.00">+ Chain()</text>
<text text-anchor="start" x="658" y="-1270" font-family="Helvetica,sans-Serif" font-size="10.00">+ getStartHeight()</text>
<text text-anchor="start" x="658" y="-1259" font-family="Helvetica,sans-Serif" font-size="10.00">+ firstHeight()</text>
<text text-anchor="start" x="658" y="-1248" font-family="Helvetica,sans-Serif" font-size="10.00">+ contains()</text>
<text text-anchor="start" x="658" y="-1237" font-family="Helvetica,sans-Serif" font-size="10.00">+ operator[]()</text>
<text text-anchor="start" x="658" y="-1226" font-family="Helvetica,sans-Serif" font-size="10.00">+ next()</text>
<text text-anchor="start" x="658" y="-1215" font-family="Helvetica,sans-Serif" font-size="10.00">+ chainHeight()</text>
<text text-anchor="start" x="658" y="-1204" font-family="Helvetica,sans-Serif" font-size="10.00">+ empty()</text>
<text text-anchor="start" x="658" y="-1193" font-family="Helvetica,sans-Serif" font-size="10.00">and 15 more...</text>
</a>
</g>
</g>
<!-- Node18&#45;&gt;Node17 -->
<g id="edge23" class="edge">
<title>Node18&#45;&gt;Node17</title>
<path fill="none" stroke="orange" d="M673.58,-1175.89C667.68,-1154.36 661.46,-1131.7 655.67,-1110.6"/>
<polygon fill="orange" stroke="orange" points="670.25,-1176.97 676.27,-1185.68 677,-1175.11 670.25,-1176.97"/>
<text text-anchor="middle" x="729" y="-1137.5" font-family="Helvetica,sans-Serif" font-size="10.00"> &lt; altintegration::BlockIndex &gt;</text>
</g>
<!-- Node19 -->
<g id="node19" class="node">
<title>Node19</title>
<g id="a_node19"><a xlink:href="structaltintegration_1_1BlockReader.html" target="_top" xlink:title="An abstraction over on&#45;disk storage iterator.">
<polygon fill="white" stroke="black" points="720.5,-938 720.5,-1105 852.5,-1105 852.5,-938 720.5,-938"/>
<text text-anchor="middle" x="786.5" y="-1093" font-family="Helvetica,sans-Serif" font-size="10.00">altintegration::BlockReader</text>
<polyline fill="none" stroke="black" points="720.5,-1086 852.5,-1086 "/>
<text text-anchor="middle" x="786.5" y="-1074" font-family="Helvetica,sans-Serif" font-size="10.00"> </text>
<polyline fill="none" stroke="black" points="720.5,-1067 852.5,-1067 "/>
<text text-anchor="start" x="728.5" y="-1055" font-family="Helvetica,sans-Serif" font-size="10.00">+ ~BlockReader()</text>
<text text-anchor="start" x="728.5" y="-1044" font-family="Helvetica,sans-Serif" font-size="10.00">+ getAltTip()</text>
<text text-anchor="start" x="728.5" y="-1033" font-family="Helvetica,sans-Serif" font-size="10.00">+ getVbkTip()</text>
<text text-anchor="start" x="728.5" y="-1022" font-family="Helvetica,sans-Serif" font-size="10.00">+ getBtcTip()</text>
<text text-anchor="start" x="728.5" y="-1011" font-family="Helvetica,sans-Serif" font-size="10.00">+ getBlock()</text>
<text text-anchor="start" x="728.5" y="-1000" font-family="Helvetica,sans-Serif" font-size="10.00">+ getBlock()</text>
<text text-anchor="start" x="728.5" y="-989" font-family="Helvetica,sans-Serif" font-size="10.00">+ getBlock()</text>
<text text-anchor="start" x="728.5" y="-978" font-family="Helvetica,sans-Serif" font-size="10.00">+ getAltBlockIterator()</text>
<text text-anchor="start" x="728.5" y="-967" font-family="Helvetica,sans-Serif" font-size="10.00">+ getVbkBlockIterator()</text>
<text text-anchor="start" x="728.5" y="-956" font-family="Helvetica,sans-Serif" font-size="10.00">+ getBtcBlockIterator()</text>
<text text-anchor="start" x="728.5" y="-945" font-family="Helvetica,sans-Serif" font-size="10.00">and 6 more...</text>
</a>
</g>
</g>
<!-- Node19&#45;&gt;Node2 -->
<g id="edge24" class="edge">
<title>Node19&#45;&gt;Node2</title>
<path fill="none" stroke="#404040" d="M783.42,-937.72C776.65,-849.45 755.53,-708.66 690.5,-607 653.1,-548.54 590.58,-501 539.01,-468.76"/>
<polygon fill="none" stroke="#404040" points="538.74,-468.59 531.53,-468.86 528.51,-462.31 535.72,-462.04 538.74,-468.59"/>
<text text-anchor="middle" x="814" y="-743.5" font-family="Helvetica,sans-Serif" font-size="10.00"> #blockProvider_</text>
</g>
<!-- Node19&#45;&gt;Node20 -->
<g id="edge29" class="edge">
<title>Node19&#45;&gt;Node20</title>
<path fill="none" stroke="#404040" d="M720.39,-939.5C717.47,-936.89 714.5,-934.38 711.5,-932 693.51,-917.74 638.69,-897.61 619.5,-885 591.79,-866.79 563.35,-844.75 537.98,-823.68"/>
<polygon fill="none" stroke="#404040" points="537.98,-823.68 530.81,-822.89 528.78,-815.97 535.95,-816.76 537.98,-823.68"/>
<text text-anchor="middle" x="715" y="-906" font-family="Helvetica,sans-Serif" font-size="10.00"> #blockProvider_</text>
</g>
<!-- Node20&#45;&gt;Node2 -->
<g id="edge25" class="edge">
<title>Node20&#45;&gt;Node2</title>
<path fill="none" stroke="orange" d="M452.5,-596.75C452.5,-584.41 452.5,-571.97 452.5,-559.71"/>
<polygon fill="orange" stroke="orange" points="449,-597.08 452.5,-607.08 456,-597.08 449,-597.08"/>
<text text-anchor="middle" x="480.5" y="-581" font-family="Helvetica,sans-Serif" font-size="10.00"> &lt; AltBlock &gt;</text>
</g>
</g>
</svg>
