<?xml version="1.0" encoding="UTF-8" standalone="no"?>
<!DOCTYPE svg PUBLIC "-//W3C//DTD SVG 1.1//EN"
 "http://www.w3.org/Graphics/SVG/1.1/DTD/svg11.dtd">
<!-- Generated by graphviz version 3.0.0 (20220413.0106)
 -->
<!-- Title: altintegration::PopPayoutsParams Pages: 1 -->
<svg width="168pt" height="645pt"
 viewBox="0.00 0.00 168.00 645.00" xmlns="http://www.w3.org/2000/svg" xmlns:xlink="http://www.w3.org/1999/xlink">
<g id="graph0" class="graph" transform="scale(1 1) rotate(0) translate(4 641)">
<title>altintegration::PopPayoutsParams</title>
<polygon fill="white" stroke="transparent" points="-4,4 -4,-641 164,-641 164,4 -4,4"/>
<!-- Node1 -->
<g id="node1" class="node">
<title>Node1</title>
<g id="a_node1"><a xlink:title="Defines config for POP payouts.">
<polygon fill="#bfbfbf" stroke="black" points="0,-0.5 0,-310.5 160,-310.5 160,-0.5 0,-0.5"/>
<text text-anchor="start" x="8" y="-298.5" font-family="Helvetica,sans-Serif" font-size="10.00">altintegration::PopPayouts</text>
<text text-anchor="middle" x="80" y="-287.5" font-family="Helvetica,sans-Serif" font-size="10.00">Params</text>
<polyline fill="none" stroke="black" points="0,-280.5 160,-280.5 "/>
<text text-anchor="start" x="8" y="-268.5" font-family="Helvetica,sans-Serif" font-size="10.00">+ mStartOfSlope</text>
<text text-anchor="start" x="8" y="-257.5" font-family="Helvetica,sans-Serif" font-size="10.00">+ mSlopeNormal</text>
<text text-anchor="start" x="8" y="-246.5" font-family="Helvetica,sans-Serif" font-size="10.00">+ mSlopeKeystone</text>
<text text-anchor="start" x="8" y="-235.5" font-family="Helvetica,sans-Serif" font-size="10.00">+ mKeystoneRound</text>
<text text-anchor="start" x="8" y="-224.5" font-family="Helvetica,sans-Serif" font-size="10.00">+ mPayoutRounds</text>
<text text-anchor="start" x="8" y="-213.5" font-family="Helvetica,sans-Serif" font-size="10.00">+ mFlatScoreRound</text>
<text text-anchor="start" x="8" y="-202.5" font-family="Helvetica,sans-Serif" font-size="10.00">+ mUseFlatScoreRound</text>
<text text-anchor="start" x="8" y="-191.5" font-family="Helvetica,sans-Serif" font-size="10.00">+ mMaxScoreThresholdNormal</text>
<text text-anchor="start" x="8" y="-180.5" font-family="Helvetica,sans-Serif" font-size="10.00">+ mMaxScoreThresholdKeystone</text>
<text text-anchor="start" x="8" y="-169.5" font-family="Helvetica,sans-Serif" font-size="10.00">+ mDifficultyAveragingInterval</text>
<text text-anchor="start" x="8" y="-158.5" font-family="Helvetica,sans-Serif" font-size="10.00">+ mPopPayoutDelay</text>
<polyline fill="none" stroke="black" points="0,-151.5 160,-151.5 "/>
<text text-anchor="start" x="8" y="-139.5" font-family="Helvetica,sans-Serif" font-size="10.00">+ startOfSlope()</text>
<text text-anchor="start" x="8" y="-128.5" font-family="Helvetica,sans-Serif" font-size="10.00">+ slopeNormal()</text>
<text text-anchor="start" x="8" y="-117.5" font-family="Helvetica,sans-Serif" font-size="10.00">+ slopeKeystone()</text>
<text text-anchor="start" x="8" y="-106.5" font-family="Helvetica,sans-Serif" font-size="10.00">+ keystoneRound()</text>
<text text-anchor="start" x="8" y="-95.5" font-family="Helvetica,sans-Serif" font-size="10.00">+ payoutRounds()</text>
<text text-anchor="start" x="8" y="-84.5" font-family="Helvetica,sans-Serif" font-size="10.00">+ flatScoreRound()</text>
<text text-anchor="start" x="8" y="-73.5" font-family="Helvetica,sans-Serif" font-size="10.00">+ useFlatScoreRound()</text>
<text text-anchor="start" x="8" y="-62.5" font-family="Helvetica,sans-Serif" font-size="10.00">+ roundRatios()</text>
<text text-anchor="start" x="8" y="-51.5" font-family="Helvetica,sans-Serif" font-size="10.00">+ maxScoreThresholdNormal()</text>
<text text-anchor="start" x="8" y="-40.5" font-family="Helvetica,sans-Serif" font-size="10.00">+ maxScoreThresholdKeystone()</text>
<text text-anchor="start" x="8" y="-29.5" font-family="Helvetica,sans-Serif" font-size="10.00">+ difficultyAveragingInterval()</text>
<text text-anchor="start" x="8" y="-18.5" font-family="Helvetica,sans-Serif" font-size="10.00">+ relativeScoreLookupTable()</text>
<text text-anchor="start" x="8" y="-7.5" font-family="Helvetica,sans-Serif" font-size="10.00">+ getPopPayoutDelay()</text>
</a>
</g>
</g>
<!-- Node2 -->
<g id="node2" class="node">
<title>Node2</title>
<g id="a_node2"><a xlink:title=" ">
<polygon fill="white" stroke="black" points="26.5,-369.5 26.5,-426.5 133.5,-426.5 133.5,-369.5 26.5,-369.5"/>
<text text-anchor="middle" x="80" y="-414.5" font-family="Helvetica,sans-Serif" font-size="10.00">std::vector&lt; double &gt;</text>
<polyline fill="none" stroke="black" points="26.5,-407.5 133.5,-407.5 "/>
<text text-anchor="start" x="34.5" y="-395.5" font-family="Helvetica,sans-Serif" font-size="10.00">+ elements</text>
<polyline fill="none" stroke="black" points="26.5,-388.5 133.5,-388.5 "/>
<text text-anchor="middle" x="80" y="-376.5" font-family="Helvetica,sans-Serif" font-size="10.00"> </text>
</a>
</g>
</g>
<!-- Node2&#45;&gt;Node1 -->
<g id="edge1" class="edge">
<title>Node2&#45;&gt;Node1</title>
<path fill="none" stroke="#404040" d="M80,-369.41C80,-356.72 80,-340.53 80,-322.77"/>
<polygon fill="none" stroke="#404040" points="80,-322.57 76,-316.57 80,-310.57 84,-316.57 80,-322.57"/>
<text text-anchor="middle" x="116.5" y="-343" font-family="Helvetica,sans-Serif" font-size="10.00"> +mLookupTable</text>
<text text-anchor="middle" x="116.5" y="-332" font-family="Helvetica,sans-Serif" font-size="10.00">+mRoundRatios</text>
</g>
<!-- Node3 -->
<g id="node3" class="node">
<title>Node3</title>
<g id="a_node3"><a xlink:title=" ">
<polygon fill="white" stroke="black" points="38,-474.5 38,-531.5 122,-531.5 122,-474.5 38,-474.5"/>
<text text-anchor="middle" x="80" y="-519.5" font-family="Helvetica,sans-Serif" font-size="10.00">std::vector&lt; T &gt;</text>
<polyline fill="none" stroke="black" points="38,-512.5 122,-512.5 "/>
<text text-anchor="middle" x="80" y="-500.5" font-family="Helvetica,sans-Serif" font-size="10.00"> </text>
<polyline fill="none" stroke="black" points="38,-493.5 122,-493.5 "/>
<text text-anchor="middle" x="80" y="-481.5" font-family="Helvetica,sans-Serif" font-size="10.00"> </text>
</a>
</g>
</g>
<!-- Node3&#45;&gt;Node2 -->
<g id="edge2" class="edge">
<title>Node3&#45;&gt;Node2</title>
<path fill="none" stroke="orange" d="M80,-464.29C80,-451.84 80,-438.23 80,-426.68"/>
<polygon fill="orange" stroke="orange" points="76.5,-464.4 80,-474.4 83.5,-464.4 76.5,-464.4"/>
<text text-anchor="middle" x="104" y="-448" font-family="Helvetica,sans-Serif" font-size="10.00"> &lt; double &gt;</text>
</g>
<!-- Node4 -->
<g id="node4" class="node">
<title>Node4</title>
<g id="a_node4"><a xlink:title=" ">
<polygon fill="white" stroke="#bfbfbf" points="65.5,-579.5 65.5,-636.5 94.5,-636.5 94.5,-579.5 65.5,-579.5"/>
<text text-anchor="middle" x="80" y="-624.5" font-family="Helvetica,sans-Serif" font-size="10.00">T</text>
<polyline fill="none" stroke="#bfbfbf" points="65.5,-617.5 94.5,-617.5 "/>
<text text-anchor="middle" x="80" y="-605.5" font-family="Helvetica,sans-Serif" font-size="10.00"> </text>
<polyline fill="none" stroke="#bfbfbf" points="65.5,-598.5 94.5,-598.5 "/>
<text text-anchor="middle" x="80" y="-586.5" font-family="Helvetica,sans-Serif" font-size="10.00"> </text>
</a>
</g>
</g>
<!-- Node4&#45;&gt;Node3 -->
<g id="edge3" class="edge">
<title>Node4&#45;&gt;Node3</title>
<path fill="none" stroke="#404040" d="M80,-579.4C80,-568.55 80,-555.87 80,-544.05"/>
<polygon fill="none" stroke="#404040" points="80,-543.68 76,-537.68 80,-531.68 84,-537.68 80,-543.68"/>
<text text-anchor="middle" x="104.5" y="-553" font-family="Helvetica,sans-Serif" font-size="10.00"> +elements</text>
</g>
</g>
</svg>
