<?xml version="1.0" encoding="UTF-8" standalone="no"?>
<!DOCTYPE svg PUBLIC "-//W3C//DTD SVG 1.1//EN"
 "http://www.w3.org/Graphics/SVG/1.1/DTD/svg11.dtd">
<!-- Generated by graphviz version 2.50.0 (20220203.2022)
 -->
<!-- Title: altintegration::btc::CmpctBlockMsg Pages: 1 -->
<svg width="1165pt" height="1881pt"
 viewBox="0.00 0.00 1165.00 1881.00" xmlns="http://www.w3.org/2000/svg" xmlns:xlink="http://www.w3.org/1999/xlink">
<g id="graph0" class="graph" transform="scale(1 1) rotate(0) translate(4 1877)">
<title>altintegration::btc::CmpctBlockMsg</title>
<polygon fill="white" stroke="transparent" points="-4,4 -4,-1877 1161,-1877 1161,4 -4,4"/>
<!-- Node1 -->
<g id="node1" class="node">
<title>Node1</title>
<g id="a_node1"><a xlink:title=" ">
<polygon fill="#bfbfbf" stroke="black" points="694,-0.5 694,-68.5 849,-68.5 849,-0.5 694,-0.5"/>
<text text-anchor="start" x="702" y="-56.5" font-family="Helvetica,sans-Serif" font-size="10.00">altintegration::btc</text>
<text text-anchor="middle" x="771.5" y="-45.5" font-family="Helvetica,sans-Serif" font-size="10.00">::CmpctBlockMsg</text>
<polyline fill="none" stroke="black" points="694,-38.5 849,-38.5 "/>
<text text-anchor="start" x="702" y="-26.5" font-family="Helvetica,sans-Serif" font-size="10.00">+ ADD_SERIALIZE_METHODS</text>
<polyline fill="none" stroke="black" points="694,-19.5 849,-19.5 "/>
<text text-anchor="start" x="702" y="-7.5" font-family="Helvetica,sans-Serif" font-size="10.00">+ SerializationOp()</text>
</a>
</g>
</g>
<!-- Node2 -->
<g id="node2" class="node">
<title>Node2</title>
<g id="a_node2"><a xlink:href="structaltintegration_1_1btc_1_1BlockHeaderAndShortTxIDs.html" target="_top" xlink:title=" ">
<polygon fill="white" stroke="#bfbfbf" points="694,-116.5 694,-206.5 849,-206.5 849,-116.5 694,-116.5"/>
<text text-anchor="start" x="702" y="-194.5" font-family="Helvetica,sans-Serif" font-size="10.00">altintegration::btc</text>
<text text-anchor="middle" x="771.5" y="-183.5" font-family="Helvetica,sans-Serif" font-size="10.00">::BlockHeaderAndShortTxIDs</text>
<polyline fill="none" stroke="#bfbfbf" points="694,-176.5 849,-176.5 "/>
<text text-anchor="start" x="702" y="-164.5" font-family="Helvetica,sans-Serif" font-size="10.00">+ nonce</text>
<text text-anchor="start" x="702" y="-153.5" font-family="Helvetica,sans-Serif" font-size="10.00">+ ADD_SERIALIZE_METHODS</text>
<text text-anchor="start" x="702" y="-142.5" font-family="Helvetica,sans-Serif" font-size="10.00">+ SHORTTXIDS_LENGTH</text>
<polyline fill="none" stroke="#bfbfbf" points="694,-135.5 849,-135.5 "/>
<text text-anchor="start" x="702" y="-123.5" font-family="Helvetica,sans-Serif" font-size="10.00">+ SerializationOp()</text>
</a>
</g>
</g>
<!-- Node2&#45;&gt;Node1 -->
<g id="edge1" class="edge">
<title>Node2&#45;&gt;Node1</title>
<path fill="none" stroke="#404040" d="M771.5,-116.43C771.5,-104.87 771.5,-92.38 771.5,-80.76"/>
<polygon fill="none" stroke="#404040" points="771.5,-80.57 767.5,-74.57 771.5,-68.57 775.5,-74.57 771.5,-80.57"/>
<text text-anchor="middle" x="805" y="-90" font-family="Helvetica,sans-Serif" font-size="10.00"> +block_header</text>
</g>
<!-- Node3 -->
<g id="node3" class="node">
<title>Node3</title>
<g id="a_node3"><a xlink:href="structaltintegration_1_1btc_1_1BlockHeader.html" target="_top" xlink:title=" ">
<polygon fill="white" stroke="#bfbfbf" points="829,-733.5 829,-823.5 984,-823.5 984,-733.5 829,-733.5"/>
<text text-anchor="start" x="837" y="-811.5" font-family="Helvetica,sans-Serif" font-size="10.00">altintegration::btc</text>
<text text-anchor="middle" x="906.5" y="-800.5" font-family="Helvetica,sans-Serif" font-size="10.00">::BlockHeader</text>
<polyline fill="none" stroke="#bfbfbf" points="829,-793.5 984,-793.5 "/>
<text text-anchor="start" x="837" y="-781.5" font-family="Helvetica,sans-Serif" font-size="10.00">+ ADD_SERIALIZE_METHODS</text>
<polyline fill="none" stroke="#bfbfbf" points="829,-774.5 984,-774.5 "/>
<text text-anchor="start" x="837" y="-762.5" font-family="Helvetica,sans-Serif" font-size="10.00">+ BlockHeader()</text>
<text text-anchor="start" x="837" y="-751.5" font-family="Helvetica,sans-Serif" font-size="10.00">+ BlockHeader()</text>
<text text-anchor="start" x="837" y="-740.5" font-family="Helvetica,sans-Serif" font-size="10.00">+ SerializationOp()</text>
</a>
</g>
</g>
<!-- Node3&#45;&gt;Node2 -->
<g id="edge2" class="edge">
<title>Node3&#45;&gt;Node2</title>
<path fill="none" stroke="#404040" d="M881.12,-733.21C866.3,-703.24 850.5,-662.19 850.5,-623.5 850.5,-623.5 850.5,-623.5 850.5,-287.5 850.5,-261.8 838.42,-237.08 823.7,-216.51"/>
<polygon fill="none" stroke="#404040" points="823.56,-216.32 816.75,-213.96 816.31,-206.76 823.12,-209.12 823.56,-216.32"/>
<text text-anchor="middle" x="869.5" y="-471" font-family="Helvetica,sans-Serif" font-size="10.00"> +header</text>
</g>
<!-- Node4 -->
<g id="node4" class="node">
<title>Node4</title>
<g id="a_node4"><a xlink:href="structaltintegration_1_1BtcBlock.html" target="_top" xlink:title="Bitcoin block.">
<polygon fill="white" stroke="black" points="973.5,-969.5 973.5,-1191.5 1089.5,-1191.5 1089.5,-969.5 973.5,-969.5"/>
<text text-anchor="middle" x="1031.5" y="-1179.5" font-family="Helvetica,sans-Serif" font-size="10.00">altintegration::BtcBlock</text>
<polyline fill="none" stroke="black" points="973.5,-1172.5 1089.5,-1172.5 "/>
<text text-anchor="start" x="981.5" y="-1160.5" font-family="Helvetica,sans-Serif" font-size="10.00"># version</text>
<text text-anchor="start" x="981.5" y="-1149.5" font-family="Helvetica,sans-Serif" font-size="10.00"># timestamp</text>
<text text-anchor="start" x="981.5" y="-1138.5" font-family="Helvetica,sans-Serif" font-size="10.00"># bits</text>
<text text-anchor="start" x="981.5" y="-1127.5" font-family="Helvetica,sans-Serif" font-size="10.00"># nonce</text>
<polyline fill="none" stroke="black" points="973.5,-1120.5 1089.5,-1120.5 "/>
<text text-anchor="start" x="981.5" y="-1108.5" font-family="Helvetica,sans-Serif" font-size="10.00">+ BtcBlock()</text>
<text text-anchor="start" x="981.5" y="-1097.5" font-family="Helvetica,sans-Serif" font-size="10.00">+ BtcBlock()</text>
<text text-anchor="start" x="981.5" y="-1086.5" font-family="Helvetica,sans-Serif" font-size="10.00">+ toRaw()</text>
<text text-anchor="start" x="981.5" y="-1075.5" font-family="Helvetica,sans-Serif" font-size="10.00">+ toVbkEncoding()</text>
<text text-anchor="start" x="981.5" y="-1064.5" font-family="Helvetica,sans-Serif" font-size="10.00">+ estimateSize()</text>
<text text-anchor="start" x="981.5" y="-1053.5" font-family="Helvetica,sans-Serif" font-size="10.00">+ calculateHash()</text>
<text text-anchor="start" x="981.5" y="-1042.5" font-family="Helvetica,sans-Serif" font-size="10.00">+ getHash()</text>
<text text-anchor="start" x="981.5" y="-1031.5" font-family="Helvetica,sans-Serif" font-size="10.00">+ toPrettyString()</text>
<text text-anchor="start" x="981.5" y="-1020.5" font-family="Helvetica,sans-Serif" font-size="10.00">+ getVersion()</text>
<text text-anchor="start" x="981.5" y="-1009.5" font-family="Helvetica,sans-Serif" font-size="10.00">+ getPreviousBlock()</text>
<text text-anchor="start" x="981.5" y="-998.5" font-family="Helvetica,sans-Serif" font-size="10.00">and 10 more...</text>
<text text-anchor="start" x="981.5" y="-987.5" font-family="Helvetica,sans-Serif" font-size="10.00">+ name()</text>
<text text-anchor="start" x="981.5" y="-976.5" font-family="Helvetica,sans-Serif" font-size="10.00"># invalidateHash()</text>
</a>
</g>
</g>
<!-- Node4&#45;&gt;Node3 -->
<g id="edge3" class="edge">
<title>Node4&#45;&gt;Node3</title>
<path fill="none" stroke="midnightblue" d="M981.81,-960.26C961.77,-912.16 939.89,-859.65 924.91,-823.68"/>
<polygon fill="none" stroke="midnightblue" points="978.59,-961.61 985.66,-969.49 985.05,-958.92 978.59,-961.61"/>
</g>
<!-- Node5 -->
<g id="node5" class="node">
<title>Node5</title>
<g id="a_node5"><a xlink:title=" ">
<polygon fill="white" stroke="black" points="1081,-1369 1081,-1426 1140,-1426 1140,-1369 1081,-1369"/>
<text text-anchor="middle" x="1110.5" y="-1414" font-family="Helvetica,sans-Serif" font-size="10.00">std::string</text>
<polyline fill="none" stroke="black" points="1081,-1407 1140,-1407 "/>
<text text-anchor="middle" x="1110.5" y="-1395" font-family="Helvetica,sans-Serif" font-size="10.00"> </text>
<polyline fill="none" stroke="black" points="1081,-1388 1140,-1388 "/>
<text text-anchor="middle" x="1110.5" y="-1376" font-family="Helvetica,sans-Serif" font-size="10.00"> </text>
</a>
</g>
</g>
<!-- Node5&#45;&gt;Node4 -->
<g id="edge4" class="edge">
<title>Node5&#45;&gt;Node4</title>
<path fill="none" stroke="#404040" d="M1103.56,-1368.82C1094.29,-1331.88 1077.29,-1264.07 1062.12,-1203.6"/>
<polygon fill="none" stroke="#404040" points="1062.04,-1203.26 1056.7,-1198.41 1059.12,-1191.62 1064.46,-1196.46 1062.04,-1203.26"/>
<text text-anchor="middle" x="1096" y="-1236.5" font-family="Helvetica,sans-Serif" font-size="10.00"> #_name</text>
</g>
<!-- Node6 -->
<g id="node6" class="node">
<title>Node6</title>
<g id="a_node6"><a xlink:title=" ">
<polygon fill="white" stroke="black" points="1064,-1628 1064,-1696 1157,-1696 1157,-1628 1064,-1628"/>
<text text-anchor="start" x="1072" y="-1684" font-family="Helvetica,sans-Serif" font-size="10.00">std::basic_string&lt;</text>
<text text-anchor="middle" x="1110.5" y="-1673" font-family="Helvetica,sans-Serif" font-size="10.00"> Char &gt;</text>
<polyline fill="none" stroke="black" points="1064,-1666 1157,-1666 "/>
<text text-anchor="middle" x="1110.5" y="-1654" font-family="Helvetica,sans-Serif" font-size="10.00"> </text>
<polyline fill="none" stroke="black" points="1064,-1647 1157,-1647 "/>
<text text-anchor="middle" x="1110.5" y="-1635" font-family="Helvetica,sans-Serif" font-size="10.00"> </text>
</a>
</g>
</g>
<!-- Node6&#45;&gt;Node5 -->
<g id="edge5" class="edge">
<title>Node6&#45;&gt;Node5</title>
<path fill="none" stroke="midnightblue" d="M1110.5,-1617.75C1110.5,-1563.49 1110.5,-1472.02 1110.5,-1426.29"/>
<polygon fill="none" stroke="midnightblue" points="1107,-1617.75 1110.5,-1627.75 1114,-1617.75 1107,-1617.75"/>
</g>
<!-- Node7 -->
<g id="node7" class="node">
<title>Node7</title>
<g id="a_node7"><a xlink:href="structaltintegration_1_1Blob.html" target="_top" xlink:title=" ">
<polygon fill="white" stroke="black" points="831,-1286.5 831,-1508.5 962,-1508.5 962,-1286.5 831,-1286.5"/>
<text text-anchor="start" x="839" y="-1496.5" font-family="Helvetica,sans-Serif" font-size="10.00">altintegration::Blob</text>
<text text-anchor="middle" x="896.5" y="-1485.5" font-family="Helvetica,sans-Serif" font-size="10.00">&lt; SHA256_HASH_SIZE &gt;</text>
<polyline fill="none" stroke="black" points="831,-1478.5 962,-1478.5 "/>
<text text-anchor="start" x="839" y="-1466.5" font-family="Helvetica,sans-Serif" font-size="10.00">+ data_</text>
<text text-anchor="start" x="839" y="-1455.5" font-family="Helvetica,sans-Serif" font-size="10.00">+ this</text>
<polyline fill="none" stroke="black" points="831,-1448.5 962,-1448.5 "/>
<text text-anchor="start" x="839" y="-1436.5" font-family="Helvetica,sans-Serif" font-size="10.00">+ Blob()</text>
<text text-anchor="start" x="839" y="-1425.5" font-family="Helvetica,sans-Serif" font-size="10.00">+ Blob()</text>
<text text-anchor="start" x="839" y="-1414.5" font-family="Helvetica,sans-Serif" font-size="10.00">+ Blob()</text>
<text text-anchor="start" x="839" y="-1403.5" font-family="Helvetica,sans-Serif" font-size="10.00">+ Blob()</text>
<text text-anchor="start" x="839" y="-1392.5" font-family="Helvetica,sans-Serif" font-size="10.00">+ Blob()</text>
<text text-anchor="start" x="839" y="-1381.5" font-family="Helvetica,sans-Serif" font-size="10.00">+ operator=()</text>
<text text-anchor="start" x="839" y="-1370.5" font-family="Helvetica,sans-Serif" font-size="10.00">+ operator=()</text>
<text text-anchor="start" x="839" y="-1359.5" font-family="Helvetica,sans-Serif" font-size="10.00">+ reverse()</text>
<text text-anchor="start" x="839" y="-1348.5" font-family="Helvetica,sans-Serif" font-size="10.00">+ operator~()</text>
<text text-anchor="start" x="839" y="-1337.5" font-family="Helvetica,sans-Serif" font-size="10.00">+ asVector()</text>
<text text-anchor="start" x="839" y="-1326.5" font-family="Helvetica,sans-Serif" font-size="10.00">+ asString()</text>
<text text-anchor="start" x="839" y="-1315.5" font-family="Helvetica,sans-Serif" font-size="10.00">+ operator[]()</text>
<text text-anchor="start" x="839" y="-1304.5" font-family="Helvetica,sans-Serif" font-size="10.00">+ operator[]()</text>
<text text-anchor="start" x="839" y="-1293.5" font-family="Helvetica,sans-Serif" font-size="10.00">+ compareTo()</text>
</a>
</g>
</g>
<!-- Node7&#45;&gt;Node4 -->
<g id="edge6" class="edge">
<title>Node7&#45;&gt;Node4</title>
<path fill="none" stroke="#404040" d="M917.02,-1286.45C924.43,-1260.4 934.35,-1233.41 947.5,-1210 952.89,-1200.41 957.83,-1200.75 964.5,-1192 965.06,-1191.26 965.62,-1190.52 966.18,-1189.78"/>
<polygon fill="none" stroke="#404040" points="966.34,-1189.56 966.63,-1182.35 973.4,-1179.85 973.1,-1187.06 966.34,-1189.56"/>
<text text-anchor="middle" x="981" y="-1242" font-family="Helvetica,sans-Serif" font-size="10.00"> #merkleRoot</text>
<text text-anchor="middle" x="981" y="-1231" font-family="Helvetica,sans-Serif" font-size="10.00">#previousBlock</text>
</g>
<!-- Node17 -->
<g id="node17" class="node">
<title>Node17</title>
<g id="a_node17"><a xlink:href="structaltintegration_1_1btc_1_1OutPoint.html" target="_top" xlink:title="An outpoint &#45; a combination of a transaction hash and an index n into its vout.">
<polygon fill="white" stroke="black" points="800,-1041 800,-1120 955,-1120 955,-1041 800,-1041"/>
<text text-anchor="start" x="808" y="-1108" font-family="Helvetica,sans-Serif" font-size="10.00">altintegration::btc</text>
<text text-anchor="middle" x="877.5" y="-1097" font-family="Helvetica,sans-Serif" font-size="10.00">::OutPoint</text>
<polyline fill="none" stroke="black" points="800,-1090 955,-1090 "/>
<text text-anchor="start" x="808" y="-1078" font-family="Helvetica,sans-Serif" font-size="10.00">+ n</text>
<text text-anchor="start" x="808" y="-1067" font-family="Helvetica,sans-Serif" font-size="10.00">+ ADD_SERIALIZE_METHODS</text>
<polyline fill="none" stroke="black" points="800,-1060 955,-1060 "/>
<text text-anchor="start" x="808" y="-1048" font-family="Helvetica,sans-Serif" font-size="10.00">+ SerializationOp()</text>
</a>
</g>
</g>
<!-- Node7&#45;&gt;Node17 -->
<g id="edge18" class="edge">
<title>Node7&#45;&gt;Node17</title>
<path fill="none" stroke="#404040" d="M889.85,-1286.33C886.69,-1233.8 883.05,-1173.53 880.55,-1132.04"/>
<polygon fill="none" stroke="#404040" points="880.55,-1132.03 876.19,-1126.29 879.83,-1120.06 884.18,-1125.8 880.55,-1132.03"/>
<text text-anchor="middle" x="904.5" y="-1236.5" font-family="Helvetica,sans-Serif" font-size="10.00"> +hash</text>
</g>
<!-- Node8 -->
<g id="node8" class="node">
<title>Node8</title>
<g id="a_node8"><a xlink:href="structaltintegration_1_1Blob.html" target="_top" xlink:title="Contiguous byte array of fixed size.">
<polygon fill="white" stroke="black" points="881.5,-1556.5 881.5,-1767.5 1001.5,-1767.5 1001.5,-1556.5 881.5,-1556.5"/>
<text text-anchor="middle" x="941.5" y="-1755.5" font-family="Helvetica,sans-Serif" font-size="10.00">altintegration::Blob&lt; N &gt;</text>
<polyline fill="none" stroke="black" points="881.5,-1748.5 1001.5,-1748.5 "/>
<text text-anchor="start" x="889.5" y="-1736.5" font-family="Helvetica,sans-Serif" font-size="10.00">+ data_</text>
<text text-anchor="start" x="889.5" y="-1725.5" font-family="Helvetica,sans-Serif" font-size="10.00">+ this</text>
<polyline fill="none" stroke="black" points="881.5,-1718.5 1001.5,-1718.5 "/>
<text text-anchor="start" x="889.5" y="-1706.5" font-family="Helvetica,sans-Serif" font-size="10.00">+ Blob()</text>
<text text-anchor="start" x="889.5" y="-1695.5" font-family="Helvetica,sans-Serif" font-size="10.00">+ Blob()</text>
<text text-anchor="start" x="889.5" y="-1684.5" font-family="Helvetica,sans-Serif" font-size="10.00">+ Blob()</text>
<text text-anchor="start" x="889.5" y="-1673.5" font-family="Helvetica,sans-Serif" font-size="10.00">+ Blob()</text>
<text text-anchor="start" x="889.5" y="-1662.5" font-family="Helvetica,sans-Serif" font-size="10.00">+ Blob()</text>
<text text-anchor="start" x="889.5" y="-1651.5" font-family="Helvetica,sans-Serif" font-size="10.00">+ operator=()</text>
<text text-anchor="start" x="889.5" y="-1640.5" font-family="Helvetica,sans-Serif" font-size="10.00">+ operator=()</text>
<text text-anchor="start" x="889.5" y="-1629.5" font-family="Helvetica,sans-Serif" font-size="10.00">+ reverse()</text>
<text text-anchor="start" x="889.5" y="-1618.5" font-family="Helvetica,sans-Serif" font-size="10.00">+ operator~()</text>
<text text-anchor="start" x="889.5" y="-1607.5" font-family="Helvetica,sans-Serif" font-size="10.00">+ asVector()</text>
<text text-anchor="start" x="889.5" y="-1596.5" font-family="Helvetica,sans-Serif" font-size="10.00">+ asString()</text>
<text text-anchor="start" x="889.5" y="-1585.5" font-family="Helvetica,sans-Serif" font-size="10.00">+ operator[]()</text>
<text text-anchor="start" x="889.5" y="-1574.5" font-family="Helvetica,sans-Serif" font-size="10.00">+ operator[]()</text>
<text text-anchor="start" x="889.5" y="-1563.5" font-family="Helvetica,sans-Serif" font-size="10.00">+ compareTo()</text>
</a>
</g>
</g>
<!-- Node8&#45;&gt;Node4 -->
<g id="edge8" class="edge">
<title>Node8&#45;&gt;Node4</title>
<path fill="none" stroke="#404040" d="M1001.6,-1570.95C1006.75,-1560.19 1011.24,-1549.08 1014.5,-1538 1032.24,-1477.76 1034.54,-1317.38 1033.71,-1203.79"/>
<polygon fill="none" stroke="#404040" points="1033.71,-1203.56 1029.66,-1197.6 1033.61,-1191.56 1037.66,-1197.53 1033.71,-1203.56"/>
<text text-anchor="middle" x="1050.5" y="-1395" font-family="Helvetica,sans-Serif" font-size="10.00"> #hash_</text>
</g>
<!-- Node8&#45;&gt;Node7 -->
<g id="edge7" class="edge">
<title>Node8&#45;&gt;Node7</title>
<path fill="none" stroke="orange" d="M899.17,-1546.53C898.56,-1543.67 898,-1540.83 897.5,-1538 895.83,-1528.58 894.65,-1518.75 893.85,-1508.85"/>
<polygon fill="orange" stroke="orange" points="895.76,-1547.34 901.43,-1556.29 902.58,-1545.76 895.76,-1547.34"/>
<text text-anchor="middle" x="956" y="-1530" font-family="Helvetica,sans-Serif" font-size="10.00"> &lt; SHA256_HASH_SIZE &gt;</text>
</g>
<!-- Node9 -->
<g id="node9" class="node">
<title>Node9</title>
<g id="a_node9"><a xlink:title=" ">
<polygon fill="white" stroke="black" points="696,-1210.5 696,-1267.5 809,-1267.5 809,-1210.5 696,-1210.5"/>
<text text-anchor="middle" x="752.5" y="-1255.5" font-family="Helvetica,sans-Serif" font-size="10.00">std::vector&lt; uint64_t &gt;</text>
<polyline fill="none" stroke="black" points="696,-1248.5 809,-1248.5 "/>
<text text-anchor="start" x="704" y="-1236.5" font-family="Helvetica,sans-Serif" font-size="10.00">+ elements</text>
<polyline fill="none" stroke="black" points="696,-1229.5 809,-1229.5 "/>
<text text-anchor="middle" x="752.5" y="-1217.5" font-family="Helvetica,sans-Serif" font-size="10.00"> </text>
</a>
</g>
</g>
<!-- Node9&#45;&gt;Node2 -->
<g id="edge9" class="edge">
<title>Node9&#45;&gt;Node2</title>
<path fill="none" stroke="#404040" d="M755.51,-1210.31C760.87,-1158.55 771.5,-1043.62 771.5,-946.5 771.5,-946.5 771.5,-946.5 771.5,-287.5 771.5,-265.1 771.5,-240.43 771.5,-218.98"/>
<polygon fill="none" stroke="#404040" points="771.5,-218.76 767.5,-212.76 771.5,-206.76 775.5,-212.76 771.5,-218.76"/>
<text text-anchor="middle" x="797" y="-620" font-family="Helvetica,sans-Serif" font-size="10.00"> +shorttxids</text>
</g>
<!-- Node10 -->
<g id="node10" class="node">
<title>Node10</title>
<g id="a_node10"><a xlink:title=" ">
<polygon fill="white" stroke="black" points="468.5,-1633.5 468.5,-1690.5 552.5,-1690.5 552.5,-1633.5 468.5,-1633.5"/>
<text text-anchor="middle" x="510.5" y="-1678.5" font-family="Helvetica,sans-Serif" font-size="10.00">std::vector&lt; T &gt;</text>
<polyline fill="none" stroke="black" points="468.5,-1671.5 552.5,-1671.5 "/>
<text text-anchor="middle" x="510.5" y="-1659.5" font-family="Helvetica,sans-Serif" font-size="10.00"> </text>
<polyline fill="none" stroke="black" points="468.5,-1652.5 552.5,-1652.5 "/>
<text text-anchor="middle" x="510.5" y="-1640.5" font-family="Helvetica,sans-Serif" font-size="10.00"> </text>
</a>
</g>
</g>
<!-- Node10&#45;&gt;Node9 -->
<g id="edge10" class="edge">
<title>Node10&#45;&gt;Node9</title>
<path fill="none" stroke="orange" d="M561.64,-1633.99C597.47,-1612.53 643.73,-1579.31 671.5,-1538 729.83,-1451.24 746.3,-1323.75 750.83,-1267.92"/>
<polygon fill="orange" stroke="orange" points="559.63,-1631.11 552.77,-1639.18 563.17,-1637.15 559.63,-1631.11"/>
<text text-anchor="middle" x="705.5" y="-1530" font-family="Helvetica,sans-Serif" font-size="10.00"> &lt; uint64_t &gt;</text>
</g>
<!-- Node12 -->
<g id="node12" class="node">
<title>Node12</title>
<g id="a_node12"><a xlink:title=" ">
<polygon fill="white" stroke="black" points="591,-254.5 591,-322.5 724,-322.5 724,-254.5 591,-254.5"/>
<text text-anchor="start" x="599" y="-310.5" font-family="Helvetica,sans-Serif" font-size="10.00">std::vector&lt; altintegration</text>
<text text-anchor="middle" x="657.5" y="-299.5" font-family="Helvetica,sans-Serif" font-size="10.00">::btc::PrefilledTransaction &gt;</text>
<polyline fill="none" stroke="black" points="591,-292.5 724,-292.5 "/>
<text text-anchor="middle" x="657.5" y="-280.5" font-family="Helvetica,sans-Serif" font-size="10.00"> </text>
<polyline fill="none" stroke="black" points="591,-273.5 724,-273.5 "/>
<text text-anchor="middle" x="657.5" y="-261.5" font-family="Helvetica,sans-Serif" font-size="10.00"> </text>
</a>
</g>
</g>
<!-- Node10&#45;&gt;Node12 -->
<g id="edge29" class="edge">
<title>Node10&#45;&gt;Node12</title>
<path fill="none" stroke="orange" d="M551.66,-1626.59C582.39,-1598.36 622.56,-1555.58 643.5,-1509 663.8,-1463.85 657.5,-1448 657.5,-1398.5 657.5,-1398.5 657.5,-1398.5 657.5,-409 657.5,-379.85 657.5,-346.7 657.5,-322.73"/>
<polygon fill="orange" stroke="orange" points="549.14,-1624.15 544.06,-1633.45 553.83,-1629.34 549.14,-1624.15"/>
<text text-anchor="start" x="657.5" y="-781.5" font-family="Helvetica,sans-Serif" font-size="10.00"> &lt; altintegration::btc</text>
<text text-anchor="middle" x="707" y="-770.5" font-family="Helvetica,sans-Serif" font-size="10.00">::PrefilledTransaction &gt;</text>
</g>
<!-- Node15 -->
<g id="node15" class="node">
<title>Node15</title>
<g id="a_node15"><a xlink:title=" ">
<polygon fill="white" stroke="black" points="216,-646.5 216,-714.5 341,-714.5 341,-646.5 216,-646.5"/>
<text text-anchor="start" x="224" y="-702.5" font-family="Helvetica,sans-Serif" font-size="10.00">std::vector&lt; altintegration</text>
<text text-anchor="middle" x="278.5" y="-691.5" font-family="Helvetica,sans-Serif" font-size="10.00">::btc::TxIn &gt;</text>
<polyline fill="none" stroke="black" points="216,-684.5 341,-684.5 "/>
<text text-anchor="middle" x="278.5" y="-672.5" font-family="Helvetica,sans-Serif" font-size="10.00"> </text>
<polyline fill="none" stroke="black" points="216,-665.5 341,-665.5 "/>
<text text-anchor="middle" x="278.5" y="-653.5" font-family="Helvetica,sans-Serif" font-size="10.00"> </text>
</a>
</g>
</g>
<!-- Node10&#45;&gt;Node15 -->
<g id="edge24" class="edge">
<title>Node10&#45;&gt;Node15</title>
<path fill="none" stroke="orange" d="M458.69,-1648.76C359.72,-1621.97 153.5,-1548.18 153.5,-1398.5 153.5,-1398.5 153.5,-1398.5 153.5,-881 153.5,-814.17 204.49,-751.33 241.33,-714.64"/>
<polygon fill="orange" stroke="orange" points="457.94,-1652.18 468.5,-1651.36 459.73,-1645.42 457.94,-1652.18"/>
<text text-anchor="start" x="153.5" y="-1083.5" font-family="Helvetica,sans-Serif" font-size="10.00"> &lt; altintegration::btc</text>
<text text-anchor="middle" x="196" y="-1072.5" font-family="Helvetica,sans-Serif" font-size="10.00">::TxIn &gt;</text>
</g>
<!-- Node18 -->
<g id="node18" class="node">
<title>Node18</title>
<g id="a_node18"><a xlink:title=" ">
<polygon fill="white" stroke="black" points="398,-1369 398,-1426 505,-1426 505,-1369 398,-1369"/>
<text text-anchor="middle" x="451.5" y="-1414" font-family="Helvetica,sans-Serif" font-size="10.00">std::vector&lt; uint8_t &gt;</text>
<polyline fill="none" stroke="black" points="398,-1407 505,-1407 "/>
<text text-anchor="start" x="406" y="-1395" font-family="Helvetica,sans-Serif" font-size="10.00">+ elements</text>
<polyline fill="none" stroke="black" points="398,-1388 505,-1388 "/>
<text text-anchor="middle" x="451.5" y="-1376" font-family="Helvetica,sans-Serif" font-size="10.00"> </text>
</a>
</g>
</g>
<!-- Node10&#45;&gt;Node18 -->
<g id="edge20" class="edge">
<title>Node10&#45;&gt;Node18</title>
<path fill="none" stroke="orange" d="M501.41,-1623.29C495.59,-1598.98 487.96,-1566.65 481.5,-1538 472.76,-1499.21 463.19,-1454.23 457.26,-1426.06"/>
<polygon fill="orange" stroke="orange" points="498.04,-1624.28 503.78,-1633.19 504.85,-1622.65 498.04,-1624.28"/>
<text text-anchor="middle" x="506" y="-1530" font-family="Helvetica,sans-Serif" font-size="10.00"> &lt; uint8_t &gt;</text>
</g>
<!-- Node19 -->
<g id="node19" class="node">
<title>Node19</title>
<g id="a_node19"><a xlink:title=" ">
<polygon fill="white" stroke="black" points="514,-1046.5 514,-1114.5 629,-1114.5 629,-1046.5 514,-1046.5"/>
<text text-anchor="start" x="522" y="-1102.5" font-family="Helvetica,sans-Serif" font-size="10.00">std::vector&lt; std::vector</text>
<text text-anchor="middle" x="571.5" y="-1091.5" font-family="Helvetica,sans-Serif" font-size="10.00">&lt; uint8_t &gt; &gt;</text>
<polyline fill="none" stroke="black" points="514,-1084.5 629,-1084.5 "/>
<text text-anchor="middle" x="571.5" y="-1072.5" font-family="Helvetica,sans-Serif" font-size="10.00"> </text>
<polyline fill="none" stroke="black" points="514,-1065.5 629,-1065.5 "/>
<text text-anchor="middle" x="571.5" y="-1053.5" font-family="Helvetica,sans-Serif" font-size="10.00"> </text>
</a>
</g>
</g>
<!-- Node10&#45;&gt;Node19 -->
<g id="edge23" class="edge">
<title>Node10&#45;&gt;Node19</title>
<path fill="none" stroke="orange" d="M517.34,-1623.35C521.57,-1599.05 526.88,-1566.74 530.5,-1538 550.43,-1379.91 564.27,-1189.82 569.35,-1114.53"/>
<polygon fill="orange" stroke="orange" points="513.89,-1622.78 515.6,-1633.24 520.78,-1624 513.89,-1622.78"/>
<text text-anchor="start" x="556.5" y="-1400.5" font-family="Helvetica,sans-Serif" font-size="10.00"> &lt; std::vector&lt; uint8</text>
<text text-anchor="middle" x="599" y="-1389.5" font-family="Helvetica,sans-Serif" font-size="10.00">_t &gt; &gt;</text>
</g>
<!-- Node20 -->
<g id="node20" class="node">
<title>Node20</title>
<g id="a_node20"><a xlink:title=" ">
<polygon fill="white" stroke="black" points="0,-848 0,-916 125,-916 125,-848 0,-848"/>
<text text-anchor="start" x="8" y="-904" font-family="Helvetica,sans-Serif" font-size="10.00">std::vector&lt; altintegration</text>
<text text-anchor="middle" x="62.5" y="-893" font-family="Helvetica,sans-Serif" font-size="10.00">::btc::TxOut &gt;</text>
<polyline fill="none" stroke="black" points="0,-886 125,-886 "/>
<text text-anchor="middle" x="62.5" y="-874" font-family="Helvetica,sans-Serif" font-size="10.00"> </text>
<polyline fill="none" stroke="black" points="0,-867 125,-867 "/>
<text text-anchor="middle" x="62.5" y="-855" font-family="Helvetica,sans-Serif" font-size="10.00"> </text>
</a>
</g>
</g>
<!-- Node10&#45;&gt;Node20 -->
<g id="edge28" class="edge">
<title>Node10&#45;&gt;Node20</title>
<path fill="none" stroke="orange" d="M458.19,-1658.26C378.43,-1651.25 226.54,-1626.37 139.5,-1538 -32.44,-1363.43 29.27,-1023.01 54.15,-916.01"/>
<polygon fill="orange" stroke="orange" points="458.23,-1661.77 468.48,-1659.1 458.8,-1654.8 458.23,-1661.77"/>
<text text-anchor="start" x="27.5" y="-1242" font-family="Helvetica,sans-Serif" font-size="10.00"> &lt; altintegration::btc</text>
<text text-anchor="middle" x="70" y="-1231" font-family="Helvetica,sans-Serif" font-size="10.00">::TxOut &gt;</text>
</g>
<!-- Node11 -->
<g id="node11" class="node">
<title>Node11</title>
<g id="a_node11"><a xlink:title=" ">
<polygon fill="white" stroke="#bfbfbf" points="496,-1815.5 496,-1872.5 525,-1872.5 525,-1815.5 496,-1815.5"/>
<text text-anchor="middle" x="510.5" y="-1860.5" font-family="Helvetica,sans-Serif" font-size="10.00">T</text>
<polyline fill="none" stroke="#bfbfbf" points="496,-1853.5 525,-1853.5 "/>
<text text-anchor="middle" x="510.5" y="-1841.5" font-family="Helvetica,sans-Serif" font-size="10.00"> </text>
<polyline fill="none" stroke="#bfbfbf" points="496,-1834.5 525,-1834.5 "/>
<text text-anchor="middle" x="510.5" y="-1822.5" font-family="Helvetica,sans-Serif" font-size="10.00"> </text>
</a>
</g>
</g>
<!-- Node11&#45;&gt;Node10 -->
<g id="edge11" class="edge">
<title>Node11&#45;&gt;Node10</title>
<path fill="none" stroke="#404040" d="M510.5,-1815.27C510.5,-1785.28 510.5,-1737.18 510.5,-1703.08"/>
<polygon fill="none" stroke="#404040" points="510.5,-1702.76 506.5,-1696.76 510.5,-1690.76 514.5,-1696.76 510.5,-1702.76"/>
<text text-anchor="middle" x="535" y="-1789" font-family="Helvetica,sans-Serif" font-size="10.00"> +elements</text>
</g>
<!-- Node12&#45;&gt;Node2 -->
<g id="edge12" class="edge">
<title>Node12&#45;&gt;Node2</title>
<path fill="none" stroke="#404040" d="M679.38,-254.38C686.36,-244.59 694.39,-234.07 702.5,-225 705.42,-221.74 708.49,-218.46 711.65,-215.22"/>
<polygon fill="none" stroke="#404040" points="711.68,-215.19 713.12,-208.12 720.19,-206.72 718.76,-213.79 711.68,-215.19"/>
<text text-anchor="middle" x="730" y="-228" font-family="Helvetica,sans-Serif" font-size="10.00"> +prefilledtxn</text>
</g>
<!-- Node13 -->
<g id="node13" class="node">
<title>Node13</title>
<g id="a_node13"><a xlink:href="structaltintegration_1_1btc_1_1PrefilledTransaction.html" target="_top" xlink:title=" ">
<polygon fill="white" stroke="#bfbfbf" points="201,-370.5 201,-449.5 356,-449.5 356,-370.5 201,-370.5"/>
<text text-anchor="start" x="209" y="-437.5" font-family="Helvetica,sans-Serif" font-size="10.00">altintegration::btc</text>
<text text-anchor="middle" x="278.5" y="-426.5" font-family="Helvetica,sans-Serif" font-size="10.00">::PrefilledTransaction</text>
<polyline fill="none" stroke="#bfbfbf" points="201,-419.5 356,-419.5 "/>
<text text-anchor="start" x="209" y="-407.5" font-family="Helvetica,sans-Serif" font-size="10.00">+ index</text>
<text text-anchor="start" x="209" y="-396.5" font-family="Helvetica,sans-Serif" font-size="10.00">+ ADD_SERIALIZE_METHODS</text>
<polyline fill="none" stroke="#bfbfbf" points="201,-389.5 356,-389.5 "/>
<text text-anchor="start" x="209" y="-377.5" font-family="Helvetica,sans-Serif" font-size="10.00">+ SerializationOp()</text>
</a>
</g>
</g>
<!-- Node13&#45;&gt;Node12 -->
<g id="edge13" class="edge">
<title>Node13&#45;&gt;Node12</title>
<path fill="none" stroke="#404040" d="M356.11,-384.53C421.28,-363.98 513.96,-334.76 579.3,-314.16"/>
<polygon fill="none" stroke="#404040" points="579.31,-314.15 583.83,-308.53 590.76,-310.54 586.24,-316.16 579.31,-314.15"/>
<text text-anchor="middle" x="516" y="-344" font-family="Helvetica,sans-Serif" font-size="10.00"> +elements</text>
</g>
<!-- Node14 -->
<g id="node14" class="node">
<title>Node14</title>
<g id="a_node14"><a xlink:href="structaltintegration_1_1btc_1_1Transaction.html" target="_top" xlink:title="The basic transaction that is broadcasted on the network and contained in blocks.">
<polygon fill="white" stroke="black" points="233.5,-497.5 233.5,-598.5 323.5,-598.5 323.5,-497.5 233.5,-497.5"/>
<text text-anchor="start" x="241.5" y="-586.5" font-family="Helvetica,sans-Serif" font-size="10.00">altintegration::btc</text>
<text text-anchor="middle" x="278.5" y="-575.5" font-family="Helvetica,sans-Serif" font-size="10.00">::Transaction</text>
<polyline fill="none" stroke="black" points="233.5,-568.5 323.5,-568.5 "/>
<text text-anchor="start" x="241.5" y="-556.5" font-family="Helvetica,sans-Serif" font-size="10.00">+ nVersion</text>
<text text-anchor="start" x="241.5" y="-545.5" font-family="Helvetica,sans-Serif" font-size="10.00">+ nLockTime</text>
<polyline fill="none" stroke="black" points="233.5,-538.5 323.5,-538.5 "/>
<text text-anchor="start" x="241.5" y="-526.5" font-family="Helvetica,sans-Serif" font-size="10.00">+ Serialize()</text>
<text text-anchor="start" x="241.5" y="-515.5" font-family="Helvetica,sans-Serif" font-size="10.00">+ Unserialize()</text>
<text text-anchor="start" x="241.5" y="-504.5" font-family="Helvetica,sans-Serif" font-size="10.00">+ HasWitness()</text>
</a>
</g>
</g>
<!-- Node14&#45;&gt;Node13 -->
<g id="edge14" class="edge">
<title>Node14&#45;&gt;Node13</title>
<path fill="none" stroke="#404040" d="M278.5,-497.13C278.5,-485.66 278.5,-473.45 278.5,-461.94"/>
<polygon fill="none" stroke="#404040" points="278.5,-461.79 274.5,-455.79 278.5,-449.79 282.5,-455.79 278.5,-461.79"/>
<text text-anchor="middle" x="286.5" y="-471" font-family="Helvetica,sans-Serif" font-size="10.00"> +tx</text>
</g>
<!-- Node15&#45;&gt;Node14 -->
<g id="edge15" class="edge">
<title>Node15&#45;&gt;Node14</title>
<path fill="none" stroke="#404040" d="M278.5,-646.23C278.5,-635.47 278.5,-623.17 278.5,-611.02"/>
<polygon fill="none" stroke="#404040" points="278.5,-610.98 274.5,-604.98 278.5,-598.98 282.5,-604.98 278.5,-610.98"/>
<text text-anchor="middle" x="289.5" y="-620" font-family="Helvetica,sans-Serif" font-size="10.00"> +vin</text>
</g>
<!-- Node16 -->
<g id="node16" class="node">
<title>Node16</title>
<g id="a_node16"><a xlink:href="structaltintegration_1_1btc_1_1TxIn.html" target="_top" xlink:title="An input of a transaction.">
<polygon fill="white" stroke="black" points="423,-842.5 423,-921.5 578,-921.5 578,-842.5 423,-842.5"/>
<text text-anchor="start" x="431" y="-909.5" font-family="Helvetica,sans-Serif" font-size="10.00">altintegration::btc</text>
<text text-anchor="middle" x="500.5" y="-898.5" font-family="Helvetica,sans-Serif" font-size="10.00">::TxIn</text>
<polyline fill="none" stroke="black" points="423,-891.5 578,-891.5 "/>
<text text-anchor="start" x="431" y="-879.5" font-family="Helvetica,sans-Serif" font-size="10.00">+ nSequence</text>
<text text-anchor="start" x="431" y="-868.5" font-family="Helvetica,sans-Serif" font-size="10.00">+ ADD_SERIALIZE_METHODS</text>
<polyline fill="none" stroke="black" points="423,-861.5 578,-861.5 "/>
<text text-anchor="start" x="431" y="-849.5" font-family="Helvetica,sans-Serif" font-size="10.00">+ SerializationOp()</text>
</a>
</g>
</g>
<!-- Node16&#45;&gt;Node15 -->
<g id="edge16" class="edge">
<title>Node16&#45;&gt;Node15</title>
<path fill="none" stroke="#404040" d="M457.43,-842.3C419.26,-807.99 363.67,-758.04 324.61,-722.94"/>
<polygon fill="none" stroke="#404040" points="324.48,-722.82 317.34,-721.78 315.55,-714.8 322.69,-715.83 324.48,-722.82"/>
<text text-anchor="middle" x="460" y="-776" font-family="Helvetica,sans-Serif" font-size="10.00"> +elements</text>
</g>
<!-- Node17&#45;&gt;Node16 -->
<g id="edge17" class="edge">
<title>Node17&#45;&gt;Node16</title>
<path fill="none" stroke="#404040" d="M803.47,-1040.91C740.8,-1008.25 650.97,-961.43 585.4,-927.25"/>
<polygon fill="none" stroke="#404040" points="585.33,-927.21 578.16,-927.99 574.69,-921.67 581.86,-920.89 585.33,-927.21"/>
<text text-anchor="middle" x="643" y="-943" font-family="Helvetica,sans-Serif" font-size="10.00"> +prevout</text>
</g>
<!-- Node18&#45;&gt;Node16 -->
<g id="edge19" class="edge">
<title>Node18&#45;&gt;Node16</title>
<path fill="none" stroke="#404040" d="M447.71,-1368.96C439.14,-1300.24 421.68,-1116.12 457.5,-969 460.49,-956.71 465.48,-944.16 471.02,-932.58"/>
<polygon fill="none" stroke="#404040" points="471.05,-932.53 470.18,-925.37 476.46,-921.82 477.32,-928.98 471.05,-932.53"/>
<text text-anchor="middle" x="481" y="-1078" font-family="Helvetica,sans-Serif" font-size="10.00"> +scriptSig</text>
</g>
<!-- Node18&#45;&gt;Node19 -->
<g id="edge22" class="edge">
<title>Node18&#45;&gt;Node19</title>
<path fill="none" stroke="#404040" d="M451.16,-1368.73C451.77,-1330.88 456.74,-1261.89 482.5,-1210 487.39,-1200.14 492.69,-1200.64 499.5,-1192 516.03,-1171.02 532.45,-1146.21 545.42,-1125.42"/>
<polygon fill="none" stroke="#404040" points="545.57,-1125.17 545.32,-1117.96 551.87,-1114.96 552.13,-1122.16 545.57,-1125.17"/>
<text text-anchor="middle" x="507" y="-1236.5" font-family="Helvetica,sans-Serif" font-size="10.00"> +elements</text>
</g>
<!-- Node21 -->
<g id="node21" class="node">
<title>Node21</title>
<g id="a_node21"><a xlink:href="structaltintegration_1_1btc_1_1TxOut.html" target="_top" xlink:title="An output of a transaction.">
<polygon fill="white" stroke="black" points="257,-1041 257,-1120 412,-1120 412,-1041 257,-1041"/>
<text text-anchor="start" x="265" y="-1108" font-family="Helvetica,sans-Serif" font-size="10.00">altintegration::btc</text>
<text text-anchor="middle" x="334.5" y="-1097" font-family="Helvetica,sans-Serif" font-size="10.00">::TxOut</text>
<polyline fill="none" stroke="black" points="257,-1090 412,-1090 "/>
<text text-anchor="start" x="265" y="-1078" font-family="Helvetica,sans-Serif" font-size="10.00">+ nValue</text>
<text text-anchor="start" x="265" y="-1067" font-family="Helvetica,sans-Serif" font-size="10.00">+ ADD_SERIALIZE_METHODS</text>
<polyline fill="none" stroke="black" points="257,-1060 412,-1060 "/>
<text text-anchor="start" x="265" y="-1048" font-family="Helvetica,sans-Serif" font-size="10.00">+ SerializationOp()</text>
</a>
</g>
</g>
<!-- Node18&#45;&gt;Node21 -->
<g id="edge27" class="edge">
<title>Node18&#45;&gt;Node21</title>
<path fill="none" stroke="#404040" d="M428.56,-1368.76C409.23,-1343.91 382.42,-1305.67 367.5,-1268 350.15,-1224.19 341.89,-1170.99 337.97,-1132.64"/>
<polygon fill="none" stroke="#404040" points="337.93,-1132.18 333.38,-1126.58 336.8,-1120.24 341.35,-1125.83 337.93,-1132.18"/>
<text text-anchor="middle" x="401" y="-1236.5" font-family="Helvetica,sans-Serif" font-size="10.00"> +scriptPubKey</text>
</g>
<!-- Node19&#45;&gt;Node16 -->
<g id="edge21" class="edge">
<title>Node19&#45;&gt;Node16</title>
<path fill="none" stroke="#404040" d="M559.46,-1046.17C548.26,-1015.18 531.43,-968.59 518.61,-933.12"/>
<polygon fill="none" stroke="#404040" points="518.51,-932.85 512.71,-928.56 514.43,-921.56 520.23,-925.84 518.51,-932.85"/>
<text text-anchor="middle" x="557.5" y="-943" font-family="Helvetica,sans-Serif" font-size="10.00"> +scriptWitness</text>
</g>
<!-- Node20&#45;&gt;Node14 -->
<g id="edge25" class="edge">
<title>Node20&#45;&gt;Node14</title>
<path fill="none" stroke="#404040" d="M74.66,-847.87C92.94,-800.49 130.55,-711.83 178.5,-646 191.72,-627.86 208.5,-610.12 224.51,-594.88"/>
<polygon fill="none" stroke="#404040" points="224.53,-594.86 226.19,-587.84 233.31,-586.68 231.65,-593.7 224.53,-594.86"/>
<text text-anchor="middle" x="192.5" y="-678" font-family="Helvetica,sans-Serif" font-size="10.00"> +vout</text>
</g>
<!-- Node21&#45;&gt;Node20 -->
<g id="edge26" class="edge">
<title>Node21&#45;&gt;Node20</title>
<path fill="none" stroke="#404040" d="M308.77,-1040.82C291.98,-1017.76 268.41,-989.15 242.5,-969 210.82,-944.35 170.93,-924.4 136.76,-909.94"/>
<polygon fill="none" stroke="#404040" points="136.5,-909.83 129.42,-911.23 125.41,-905.24 132.48,-903.84 136.5,-909.83"/>
<text text-anchor="middle" x="241" y="-943" font-family="Helvetica,sans-Serif" font-size="10.00"> +elements</text>
</g>
</g>
</svg>
