<?xml version="1.0" encoding="UTF-8" standalone="no"?>
<!DOCTYPE svg PUBLIC "-//W3C//DTD SVG 1.1//EN"
 "http://www.w3.org/Graphics/SVG/1.1/DTD/svg11.dtd">
<!-- Generated by graphviz version 3.0.0 (20220413.0242)
 -->
<!-- Title: altintegration::ATV Pages: 1 -->
<!--zoomable 1174 -->
<svg id="main" version="1.1" xmlns="http://www.w3.org/2000/svg" xmlns:xlink="http://www.w3.org/1999/xlink" xml:space="preserve" onload="init(evt)">
<style type="text/css"><![CDATA[
.edge:hover path { stroke: red; }
.edge:hover polygon { stroke: red; fill: red; }
]]></style>
<script type="text/javascript"><![CDATA[
var edges = document.getElementsByTagName('g');
if (edges && edges.length) {
  for (var i=0;i<edges.length;i++) {
    if (edges[i].id.substr(0,4)=='edge') {
      edges[i].setAttribute('class','edge');
    }
  }
}
]]></script>
        <defs>
                <circle id="rim" cx="0" cy="0" r="7"/>
                <circle id="rim2" cx="0" cy="0" r="3.5"/>
                <g id="zoomPlus">
                        <use xlink:href="#rim" fill="#404040">
                                <set attributeName="fill" to="#808080" begin="zoomplus.mouseover" end="zoomplus.mouseout"/>
                        </use>
                        <path d="M-4,0h8M0,-4v8" fill="none" stroke="white" stroke-width="1.5" pointer-events="none"/>
                </g>
                <g id="zoomMin">
                        <use xlink:href="#rim" fill="#404040">
                                <set attributeName="fill" to="#808080" begin="zoomminus.mouseover" end="zoomminus.mouseout"/>
                        </use>
                        <path d="M-4,0h8" fill="none" stroke="white" stroke-width="1.5" pointer-events="none"/>
                </g>
                <g id="dirArrow">
                        <path fill="none" stroke="white" stroke-width="1.5" d="M0,-3.0v7 M-2.5,-0.5L0,-3.0L2.5,-0.5"/>
                </g>
               <g id="resetDef">
                       <use xlink:href="#rim2" fill="#404040">
                               <set attributeName="fill" to="#808080" begin="reset.mouseover" end="reset.mouseout"/>
                       </use>
               </g>
        </defs>

<script type="text/javascript">
var viewWidth = 1021;
var viewHeight = 1174;
var sectionId = 'dynsection-0';
</script>
<script xlink:href="svgpan.js"/>
<svg id="graph" class="graph">
<g id="viewport">
<title>altintegration::ATV</title>
<polygon fill="white" stroke="transparent" points="-4,4 -4,-1170 1016.53,-1170 1016.53,4 -4,4"/>
<!-- Node1 -->
<g id="node1" class="node">
<title>Node1</title>
<g id="a_node1"><a xlink:title="Atlchain endorsement.">
<polygon fill="#bfbfbf" stroke="black" points="697.53,-0.5 697.53,-134.5 810.53,-134.5 810.53,-0.5 697.53,-0.5"/>
<text text-anchor="middle" x="754.03" y="-122.5" font-family="Helvetica,sans-Serif" font-size="10.00">altintegration::ATV</text>
<polyline fill="none" stroke="black" points="697.53,-115.5 810.53,-115.5 "/>
<text text-anchor="start" x="705.53" y="-103.5" font-family="Helvetica,sans-Serif" font-size="10.00">+ version</text>
<text text-anchor="start" x="705.53" y="-92.5" font-family="Helvetica,sans-Serif" font-size="10.00">+ checked</text>
<polyline fill="none" stroke="black" points="697.53,-85.5 810.53,-85.5 "/>
<text text-anchor="start" x="705.53" y="-73.5" font-family="Helvetica,sans-Serif" font-size="10.00">+ toPrettyString()</text>
<text text-anchor="start" x="705.53" y="-62.5" font-family="Helvetica,sans-Serif" font-size="10.00">+ toShortPrettyString()</text>
<text text-anchor="start" x="705.53" y="-51.5" font-family="Helvetica,sans-Serif" font-size="10.00">+ toVbkEncoding()</text>
<text text-anchor="start" x="705.53" y="-40.5" font-family="Helvetica,sans-Serif" font-size="10.00">+ toVbkEncoding()</text>
<text text-anchor="start" x="705.53" y="-29.5" font-family="Helvetica,sans-Serif" font-size="10.00">+ estimateSize()</text>
<text text-anchor="start" x="705.53" y="-18.5" font-family="Helvetica,sans-Serif" font-size="10.00">+ getId()</text>
<text text-anchor="start" x="705.53" y="-7.5" font-family="Helvetica,sans-Serif" font-size="10.00">+ name()</text>
</a>
</g>
</g>
<!-- Node2 -->
<g id="node2" class="node">
<title>Node2</title>
<g id="a_node2"><a xlink:href="structaltintegration_1_1VbkTx.html" target="_top" xlink:title="Veriblock transaction, which endorses ALT block in VBK blockchain.">
<polygon fill="white" stroke="black" points="350.03,-221 350.03,-322 454.03,-322 454.03,-221 350.03,-221"/>
<text text-anchor="middle" x="402.03" y="-310" font-family="Helvetica,sans-Serif" font-size="10.00">altintegration::VbkTx</text>
<polyline fill="none" stroke="black" points="350.03,-303 454.03,-303 "/>
<text text-anchor="start" x="358.03" y="-291" font-family="Helvetica,sans-Serif" font-size="10.00">+ signatureIndex</text>
<polyline fill="none" stroke="black" points="350.03,-284 454.03,-284 "/>
<text text-anchor="start" x="358.03" y="-272" font-family="Helvetica,sans-Serif" font-size="10.00">+ toVbkEncoding()</text>
<text text-anchor="start" x="358.03" y="-261" font-family="Helvetica,sans-Serif" font-size="10.00">+ toVbkEncoding()</text>
<text text-anchor="start" x="358.03" y="-250" font-family="Helvetica,sans-Serif" font-size="10.00">+ estimateSize()</text>
<text text-anchor="start" x="358.03" y="-239" font-family="Helvetica,sans-Serif" font-size="10.00">+ getHash()</text>
<text text-anchor="start" x="358.03" y="-228" font-family="Helvetica,sans-Serif" font-size="10.00">+ calculateTxFee()</text>
</a>
</g>
</g>
<!-- Node2&#45;&gt;Node1 -->
<g id="edge1" class="edge">
<title>Node2&#45;&gt;Node1</title>
<path fill="none" stroke="#404040" d="M454.35,-240.48C516.15,-205.01 619.11,-145.92 686.79,-107.09"/>
<polygon fill="none" stroke="#404040" points="686.93,-107.01 690.14,-100.55 697.34,-101.03 694.12,-107.49 686.93,-107.01"/>
<text text-anchor="middle" x="628.53" y="-156" font-family="Helvetica,sans-Serif" font-size="10.00"> +transaction</text>
</g>
<!-- Node3 -->
<g id="node3" class="node">
<title>Node3</title>
<g id="a_node3"><a xlink:href="namespacealtintegration.html#structaltintegration_1_1NetworkBytePair" target="_top" xlink:title="Stores pair of TxType and VBK network byte.">
<polygon fill="white" stroke="black" points="327.03,-430.5 327.03,-487.5 477.03,-487.5 477.03,-430.5 327.03,-430.5"/>
<text text-anchor="middle" x="402.03" y="-475.5" font-family="Helvetica,sans-Serif" font-size="10.00">altintegration::NetworkBytePair</text>
<polyline fill="none" stroke="black" points="327.03,-468.5 477.03,-468.5 "/>
<text text-anchor="start" x="335.03" y="-456.5" font-family="Helvetica,sans-Serif" font-size="10.00">+ typeId</text>
<polyline fill="none" stroke="black" points="327.03,-449.5 477.03,-449.5 "/>
<text text-anchor="middle" x="402.03" y="-437.5" font-family="Helvetica,sans-Serif" font-size="10.00"> </text>
</a>
</g>
</g>
<!-- Node3&#45;&gt;Node2 -->
<g id="edge2" class="edge">
<title>Node3&#45;&gt;Node2</title>
<path fill="none" stroke="#404040" d="M402.03,-430.23C402.03,-404.96 402.03,-366.75 402.03,-334.27"/>
<polygon fill="none" stroke="#404040" points="402.03,-334.14 398.03,-328.14 402.03,-322.14 406.03,-328.14 402.03,-334.14"/>
<text text-anchor="middle" x="439.53" y="-382" font-family="Helvetica,sans-Serif" font-size="10.00"> +networkOrType</text>
</g>
<!-- Node4 -->
<g id="node4" class="node">
<title>Node4</title>
<g id="a_node4"><a xlink:href="structaltintegration_1_1VbkNetworkType.html" target="_top" xlink:title="works as optional&lt;uint8_t&gt;">
<polygon fill="white" stroke="black" points="431.03,-640 431.03,-741 583.03,-741 583.03,-640 431.03,-640"/>
<text text-anchor="middle" x="507.03" y="-729" font-family="Helvetica,sans-Serif" font-size="10.00">altintegration::VbkNetworkType</text>
<polyline fill="none" stroke="black" points="431.03,-722 583.03,-722 "/>
<text text-anchor="start" x="439.03" y="-710" font-family="Helvetica,sans-Serif" font-size="10.00">+ hasValue</text>
<text text-anchor="start" x="439.03" y="-699" font-family="Helvetica,sans-Serif" font-size="10.00">+ value</text>
<polyline fill="none" stroke="black" points="431.03,-692 583.03,-692 "/>
<text text-anchor="start" x="439.03" y="-680" font-family="Helvetica,sans-Serif" font-size="10.00">+ operator bool()</text>
<text text-anchor="start" x="439.03" y="-669" font-family="Helvetica,sans-Serif" font-size="10.00">+ operator==()</text>
<text text-anchor="start" x="439.03" y="-658" font-family="Helvetica,sans-Serif" font-size="10.00">+ toPrettyString()</text>
<text text-anchor="start" x="439.03" y="-647" font-family="Helvetica,sans-Serif" font-size="10.00">+ putJson()</text>
</a>
</g>
</g>
<!-- Node4&#45;&gt;Node3 -->
<g id="edge3" class="edge">
<title>Node4&#45;&gt;Node3</title>
<path fill="none" stroke="#404040" d="M476.13,-639.7C462.43,-616.35 446.79,-587.82 435.03,-561 426.3,-541.09 418.61,-518.1 412.86,-499.09"/>
<polygon fill="none" stroke="#404040" points="412.84,-499.05 407.31,-494.43 409.45,-487.54 414.98,-492.17 412.84,-499.05"/>
<text text-anchor="middle" x="467.03" y="-542" font-family="Helvetica,sans-Serif" font-size="10.00"> +networkType</text>
</g>
<!-- Node5 -->
<g id="node5" class="node">
<title>Node5</title>
<g id="a_node5"><a xlink:href="structaltintegration_1_1Address.html" target="_top" xlink:title="Represents address on VBK chain.">
<polygon fill="white" stroke="black" points="130.53,-860.5 130.53,-1049.5 267.53,-1049.5 267.53,-860.5 130.53,-860.5"/>
<text text-anchor="middle" x="199.03" y="-1037.5" font-family="Helvetica,sans-Serif" font-size="10.00">altintegration::Address</text>
<polyline fill="none" stroke="black" points="130.53,-1030.5 267.53,-1030.5 "/>
<text text-anchor="middle" x="199.03" y="-1018.5" font-family="Helvetica,sans-Serif" font-size="10.00"> </text>
<polyline fill="none" stroke="black" points="130.53,-1011.5 267.53,-1011.5 "/>
<text text-anchor="start" x="138.53" y="-999.5" font-family="Helvetica,sans-Serif" font-size="10.00">+ Address()</text>
<text text-anchor="start" x="138.53" y="-988.5" font-family="Helvetica,sans-Serif" font-size="10.00">+ operator==()</text>
<text text-anchor="start" x="138.53" y="-977.5" font-family="Helvetica,sans-Serif" font-size="10.00">+ operator!=()</text>
<text text-anchor="start" x="138.53" y="-966.5" font-family="Helvetica,sans-Serif" font-size="10.00">+ operator==()</text>
<text text-anchor="start" x="138.53" y="-955.5" font-family="Helvetica,sans-Serif" font-size="10.00">+ getType()</text>
<text text-anchor="start" x="138.53" y="-944.5" font-family="Helvetica,sans-Serif" font-size="10.00">+ getPopBytes()</text>
<text text-anchor="start" x="138.53" y="-933.5" font-family="Helvetica,sans-Serif" font-size="10.00">+ isDerivedFromPublicKey()</text>
<text text-anchor="start" x="138.53" y="-922.5" font-family="Helvetica,sans-Serif" font-size="10.00">+ fromString()</text>
<text text-anchor="start" x="138.53" y="-911.5" font-family="Helvetica,sans-Serif" font-size="10.00">+ toString()</text>
<text text-anchor="start" x="138.53" y="-900.5" font-family="Helvetica,sans-Serif" font-size="10.00">+ toVbkEncoding()</text>
<text text-anchor="start" x="138.53" y="-889.5" font-family="Helvetica,sans-Serif" font-size="10.00">+ estimateSize()</text>
<text text-anchor="start" x="138.53" y="-878.5" font-family="Helvetica,sans-Serif" font-size="10.00">+ fromPublicKey()</text>
<text text-anchor="start" x="138.53" y="-867.5" font-family="Helvetica,sans-Serif" font-size="10.00">+ assertFromString()</text>
</a>
</g>
</g>
<!-- Node5&#45;&gt;Node2 -->
<g id="edge4" class="edge">
<title>Node5&#45;&gt;Node2</title>
<path fill="none" stroke="#404040" d="M209.59,-860.34C224.34,-749.24 256.49,-559.97 318.03,-408 328.61,-381.86 344.08,-355.06 358.86,-332.27"/>
<polygon fill="none" stroke="#404040" points="358.97,-332.11 358.94,-324.9 365.59,-322.1 365.62,-329.31 358.97,-332.11"/>
<text text-anchor="middle" x="314.03" y="-542" font-family="Helvetica,sans-Serif" font-size="10.00"> +sourceAddress</text>
</g>
<!-- Node8 -->
<g id="node8" class="node">
<title>Node8</title>
<g id="a_node8"><a xlink:href="structaltintegration_1_1Output.html" target="_top" xlink:title="Single spending output.">
<polygon fill="white" stroke="black" points="81.03,-634.5 81.03,-746.5 187.03,-746.5 187.03,-634.5 81.03,-634.5"/>
<text text-anchor="middle" x="134.03" y="-734.5" font-family="Helvetica,sans-Serif" font-size="10.00">altintegration::Output</text>
<polyline fill="none" stroke="black" points="81.03,-727.5 187.03,-727.5 "/>
<text text-anchor="middle" x="134.03" y="-715.5" font-family="Helvetica,sans-Serif" font-size="10.00"> </text>
<polyline fill="none" stroke="black" points="81.03,-708.5 187.03,-708.5 "/>
<text text-anchor="start" x="89.03" y="-696.5" font-family="Helvetica,sans-Serif" font-size="10.00">+ Output()</text>
<text text-anchor="start" x="89.03" y="-685.5" font-family="Helvetica,sans-Serif" font-size="10.00">+ Output()</text>
<text text-anchor="start" x="89.03" y="-674.5" font-family="Helvetica,sans-Serif" font-size="10.00">+ operator==()</text>
<text text-anchor="start" x="89.03" y="-663.5" font-family="Helvetica,sans-Serif" font-size="10.00">+ toVbkEncoding()</text>
<text text-anchor="start" x="89.03" y="-652.5" font-family="Helvetica,sans-Serif" font-size="10.00">+ estimateSize()</text>
<text text-anchor="start" x="89.03" y="-641.5" font-family="Helvetica,sans-Serif" font-size="10.00">+ toPrettyString()</text>
</a>
</g>
</g>
<!-- Node5&#45;&gt;Node8 -->
<g id="edge8" class="edge">
<title>Node5&#45;&gt;Node8</title>
<path fill="none" stroke="#404040" d="M166.21,-860.41C163.23,-850.54 160.44,-840.61 158.03,-831 152.17,-807.67 147.28,-781.78 143.48,-758.7"/>
<polygon fill="none" stroke="#404040" points="143.43,-758.41 138.53,-753.12 141.53,-746.56 146.43,-751.85 143.43,-758.41"/>
<text text-anchor="middle" x="179.53" y="-823" font-family="Helvetica,sans-Serif" font-size="10.00"> +address</text>
</g>
<!-- Node6 -->
<g id="node6" class="node">
<title>Node6</title>
<g id="a_node6"><a xlink:href="structaltintegration_1_1Coin.html" target="_top" xlink:title="represents VBK atomic units">
<polygon fill="white" stroke="black" points="8.03,-899 8.03,-1011 104.03,-1011 104.03,-899 8.03,-899"/>
<text text-anchor="middle" x="56.03" y="-999" font-family="Helvetica,sans-Serif" font-size="10.00">altintegration::Coin</text>
<polyline fill="none" stroke="black" points="8.03,-992 104.03,-992 "/>
<text text-anchor="start" x="16.03" y="-980" font-family="Helvetica,sans-Serif" font-size="10.00">+ units</text>
<polyline fill="none" stroke="black" points="8.03,-973 104.03,-973 "/>
<text text-anchor="start" x="16.03" y="-961" font-family="Helvetica,sans-Serif" font-size="10.00">+ Coin()</text>
<text text-anchor="start" x="16.03" y="-950" font-family="Helvetica,sans-Serif" font-size="10.00">+ toPrettyString()</text>
<text text-anchor="start" x="16.03" y="-939" font-family="Helvetica,sans-Serif" font-size="10.00">+ Coin()</text>
<text text-anchor="start" x="16.03" y="-928" font-family="Helvetica,sans-Serif" font-size="10.00">+ toVbkEncoding()</text>
<text text-anchor="start" x="16.03" y="-917" font-family="Helvetica,sans-Serif" font-size="10.00">+ estimateSize()</text>
<text text-anchor="start" x="16.03" y="-906" font-family="Helvetica,sans-Serif" font-size="10.00">+ operator==()</text>
</a>
</g>
</g>
<!-- Node6&#45;&gt;Node2 -->
<g id="edge5" class="edge">
<title>Node6&#45;&gt;Node2</title>
<path fill="none" stroke="#404040" d="M38.33,-898.64C8.07,-792.49 -40.69,-557.63 65.03,-408 127.71,-319.27 258.66,-288.6 337.59,-278.03"/>
<polygon fill="none" stroke="#404040" points="337.89,-277.99 343.35,-273.28 349.8,-276.5 344.34,-281.21 337.89,-277.99"/>
<text text-anchor="middle" x="49.03" y="-542" font-family="Helvetica,sans-Serif" font-size="10.00"> +sourceAmount</text>
</g>
<!-- Node6&#45;&gt;Node8 -->
<g id="edge9" class="edge">
<title>Node6&#45;&gt;Node8</title>
<path fill="none" stroke="#404040" d="M72.38,-898.97C84.53,-858.07 101.18,-802.06 114.11,-758.54"/>
<polygon fill="none" stroke="#404040" points="114.15,-758.41 112.02,-751.52 117.56,-746.91 119.69,-753.8 114.15,-758.41"/>
<text text-anchor="middle" x="108.53" y="-823" font-family="Helvetica,sans-Serif" font-size="10.00"> +coin</text>
</g>
<!-- Node7 -->
<g id="node7" class="node">
<title>Node7</title>
<g id="a_node7"><a xlink:title=" ">
<polygon fill="white" stroke="black" points="74.53,-425 74.53,-493 199.53,-493 199.53,-425 74.53,-425"/>
<text text-anchor="start" x="82.53" y="-481" font-family="Helvetica,sans-Serif" font-size="10.00">std::vector&lt; altintegration</text>
<text text-anchor="middle" x="137.03" y="-470" font-family="Helvetica,sans-Serif" font-size="10.00">::Output &gt;</text>
<polyline fill="none" stroke="black" points="74.53,-463 199.53,-463 "/>
<text text-anchor="middle" x="137.03" y="-451" font-family="Helvetica,sans-Serif" font-size="10.00"> </text>
<polyline fill="none" stroke="black" points="74.53,-444 199.53,-444 "/>
<text text-anchor="middle" x="137.03" y="-432" font-family="Helvetica,sans-Serif" font-size="10.00"> </text>
</a>
</g>
</g>
<!-- Node7&#45;&gt;Node2 -->
<g id="edge6" class="edge">
<title>Node7&#45;&gt;Node2</title>
<path fill="none" stroke="#404040" d="M146.21,-424.89C151.87,-409.4 160.5,-391.62 173.03,-379 218.63,-333.04 287.82,-304.67 338.2,-288.88"/>
<polygon fill="none" stroke="#404040" points="338.46,-288.81 343.04,-283.24 349.94,-285.33 345.36,-290.9 338.46,-288.81"/>
<text text-anchor="middle" x="193.53" y="-382" font-family="Helvetica,sans-Serif" font-size="10.00"> +outputs</text>
</g>
<!-- Node8&#45;&gt;Node7 -->
<g id="edge7" class="edge">
<title>Node8&#45;&gt;Node7</title>
<path fill="none" stroke="#404040" d="M134.75,-634.24C135.26,-594.85 135.95,-542.53 136.43,-505.54"/>
<polygon fill="none" stroke="#404040" points="136.44,-505.13 132.52,-499.08 136.59,-493.14 140.52,-499.19 136.44,-505.13"/>
<text text-anchor="middle" x="161.53" y="-542" font-family="Helvetica,sans-Serif" font-size="10.00"> +elements</text>
</g>
<!-- Node9 -->
<g id="node9" class="node">
<title>Node9</title>
<g id="a_node9"><a xlink:title=" ">
<polygon fill="white" stroke="black" points="574.03,-926.5 574.03,-983.5 658.03,-983.5 658.03,-926.5 574.03,-926.5"/>
<text text-anchor="middle" x="616.03" y="-971.5" font-family="Helvetica,sans-Serif" font-size="10.00">std::vector&lt; T &gt;</text>
<polyline fill="none" stroke="black" points="574.03,-964.5 658.03,-964.5 "/>
<text text-anchor="middle" x="616.03" y="-952.5" font-family="Helvetica,sans-Serif" font-size="10.00"> </text>
<polyline fill="none" stroke="black" points="574.03,-945.5 658.03,-945.5 "/>
<text text-anchor="middle" x="616.03" y="-933.5" font-family="Helvetica,sans-Serif" font-size="10.00"> </text>
</a>
</g>
</g>
<!-- Node9&#45;&gt;Node7 -->
<g id="edge10" class="edge">
<title>Node9&#45;&gt;Node7</title>
<path fill="none" stroke="orange" d="M564,-944.17C493.96,-927.93 371.41,-888.3 313.03,-802 278.79,-751.39 325.44,-577.8 290.03,-528 268.97,-498.39 232,-481.48 199.67,-471.93"/>
<polygon fill="orange" stroke="orange" points="563.41,-947.63 573.94,-946.4 564.95,-940.8 563.41,-947.63"/>
<text text-anchor="middle" x="367.53" y="-688" font-family="Helvetica,sans-Serif" font-size="10.00"> &lt; altintegration::Output &gt;</text>
</g>
<!-- Node12 -->
<g id="node12" class="node">
<title>Node12</title>
<g id="a_node12"><a xlink:title=" ">
<polygon fill="white" stroke="black" points="601.53,-662 601.53,-719 708.53,-719 708.53,-662 601.53,-662"/>
<text text-anchor="middle" x="655.03" y="-707" font-family="Helvetica,sans-Serif" font-size="10.00">std::vector&lt; uint8_t &gt;</text>
<polyline fill="none" stroke="black" points="601.53,-700 708.53,-700 "/>
<text text-anchor="start" x="609.53" y="-688" font-family="Helvetica,sans-Serif" font-size="10.00">+ elements</text>
<polyline fill="none" stroke="black" points="601.53,-681 708.53,-681 "/>
<text text-anchor="middle" x="655.03" y="-669" font-family="Helvetica,sans-Serif" font-size="10.00"> </text>
</a>
</g>
</g>
<!-- Node9&#45;&gt;Node12 -->
<g id="edge14" class="edge">
<title>Node9&#45;&gt;Node12</title>
<path fill="none" stroke="orange" d="M613.51,-916.2C612.39,-889.23 612.24,-852.2 617.03,-820 622.33,-784.33 635.14,-744.75 644.42,-719.07"/>
<polygon fill="orange" stroke="orange" points="610.02,-916.54 613.99,-926.37 617.01,-916.21 610.02,-916.54"/>
<text text-anchor="middle" x="641.53" y="-823" font-family="Helvetica,sans-Serif" font-size="10.00"> &lt; uint8_t &gt;</text>
</g>
<!-- Node16 -->
<g id="node16" class="node">
<title>Node16</title>
<g id="a_node16"><a xlink:title=" ">
<polygon fill="white" stroke="black" points="887.53,-656.5 887.53,-724.5 1012.53,-724.5 1012.53,-656.5 887.53,-656.5"/>
<text text-anchor="start" x="895.53" y="-712.5" font-family="Helvetica,sans-Serif" font-size="10.00">std::vector&lt; altintegration</text>
<text text-anchor="middle" x="950.03" y="-701.5" font-family="Helvetica,sans-Serif" font-size="10.00">::Blob &gt;</text>
<polyline fill="none" stroke="black" points="887.53,-694.5 1012.53,-694.5 "/>
<text text-anchor="middle" x="950.03" y="-682.5" font-family="Helvetica,sans-Serif" font-size="10.00"> </text>
<polyline fill="none" stroke="black" points="887.53,-675.5 1012.53,-675.5 "/>
<text text-anchor="middle" x="950.03" y="-663.5" font-family="Helvetica,sans-Serif" font-size="10.00"> </text>
</a>
</g>
</g>
<!-- Node9&#45;&gt;Node16 -->
<g id="edge21" class="edge">
<title>Node9&#45;&gt;Node16</title>
<path fill="none" stroke="orange" d="M629.17,-916.95C642.41,-885.51 666.06,-842.1 702.03,-820 769.02,-778.83 810.9,-842.94 878.03,-802 906.86,-784.42 926.37,-750.41 937.73,-724.75"/>
<polygon fill="orange" stroke="orange" points="625.9,-915.7 625.39,-926.29 632.39,-918.33 625.9,-915.7"/>
<text text-anchor="middle" x="751.53" y="-823" font-family="Helvetica,sans-Serif" font-size="10.00"> &lt; altintegration::Blob &gt;</text>
</g>
<!-- Node10 -->
<g id="node10" class="node">
<title>Node10</title>
<g id="a_node10"><a xlink:title=" ">
<polygon fill="white" stroke="#bfbfbf" points="601.53,-1108.5 601.53,-1165.5 630.53,-1165.5 630.53,-1108.5 601.53,-1108.5"/>
<text text-anchor="middle" x="616.03" y="-1153.5" font-family="Helvetica,sans-Serif" font-size="10.00">T</text>
<polyline fill="none" stroke="#bfbfbf" points="601.53,-1146.5 630.53,-1146.5 "/>
<text text-anchor="middle" x="616.03" y="-1134.5" font-family="Helvetica,sans-Serif" font-size="10.00"> </text>
<polyline fill="none" stroke="#bfbfbf" points="601.53,-1127.5 630.53,-1127.5 "/>
<text text-anchor="middle" x="616.03" y="-1115.5" font-family="Helvetica,sans-Serif" font-size="10.00"> </text>
</a>
</g>
</g>
<!-- Node10&#45;&gt;Node9 -->
<g id="edge11" class="edge">
<title>Node10&#45;&gt;Node9</title>
<path fill="none" stroke="#404040" d="M616.03,-1108.27C616.03,-1078.28 616.03,-1030.18 616.03,-996.08"/>
<polygon fill="none" stroke="#404040" points="616.03,-995.76 612.03,-989.76 616.03,-983.76 620.03,-989.76 616.03,-995.76"/>
<text text-anchor="middle" x="640.53" y="-1082" font-family="Helvetica,sans-Serif" font-size="10.00"> +elements</text>
</g>
<!-- Node11 -->
<g id="node11" class="node">
<title>Node11</title>
<g id="a_node11"><a xlink:href="structaltintegration_1_1PublicationData.html" target="_top" xlink:title="Publication data about ALT block inside VBK blockchain.">
<polygon fill="white" stroke="black" points="582.53,-419.5 582.53,-498.5 727.53,-498.5 727.53,-419.5 582.53,-419.5"/>
<text text-anchor="middle" x="655.03" y="-486.5" font-family="Helvetica,sans-Serif" font-size="10.00">altintegration::PublicationData</text>
<polyline fill="none" stroke="black" points="582.53,-479.5 727.53,-479.5 "/>
<text text-anchor="start" x="590.53" y="-467.5" font-family="Helvetica,sans-Serif" font-size="10.00">+ identifier</text>
<polyline fill="none" stroke="black" points="582.53,-460.5 727.53,-460.5 "/>
<text text-anchor="start" x="590.53" y="-448.5" font-family="Helvetica,sans-Serif" font-size="10.00">+ toPrettyString()</text>
<text text-anchor="start" x="590.53" y="-437.5" font-family="Helvetica,sans-Serif" font-size="10.00">+ toVbkEncoding()</text>
<text text-anchor="start" x="590.53" y="-426.5" font-family="Helvetica,sans-Serif" font-size="10.00">+ estimateSize()</text>
</a>
</g>
</g>
<!-- Node11&#45;&gt;Node2 -->
<g id="edge12" class="edge">
<title>Node11&#45;&gt;Node2</title>
<path fill="none" stroke="#404040" d="M602.3,-419.34C562.08,-389.85 506.56,-349.14 464.18,-318.07"/>
<polygon fill="none" stroke="#404040" points="463.93,-317.89 456.73,-317.57 454.26,-310.79 461.46,-311.12 463.93,-317.89"/>
<text text-anchor="middle" x="597.03" y="-382" font-family="Helvetica,sans-Serif" font-size="10.00"> +publicationData</text>
</g>
<!-- Node12&#45;&gt;Node2 -->
<g id="edge15" class="edge">
<title>Node12&#45;&gt;Node2</title>
<path fill="none" stroke="#404040" d="M641.95,-661.86C630.38,-638.68 612.22,-605.26 592.03,-579 565.4,-544.37 544.78,-547.29 522.03,-510 490.25,-457.92 508.7,-433.37 481.03,-379 472.88,-363 462.37,-346.86 451.68,-332.15"/>
<polygon fill="none" stroke="#404040" points="451.45,-331.85 444.66,-329.42 444.28,-322.22 451.08,-324.64 451.45,-331.85"/>
<text text-anchor="middle" x="547.53" y="-462" font-family="Helvetica,sans-Serif" font-size="10.00"> +publicKey</text>
<text text-anchor="middle" x="547.53" y="-451" font-family="Helvetica,sans-Serif" font-size="10.00">+signature</text>
</g>
<!-- Node12&#45;&gt;Node11 -->
<g id="edge13" class="edge">
<title>Node12&#45;&gt;Node11</title>
<path fill="none" stroke="#404040" d="M655.03,-661.82C655.03,-624.58 655.03,-557.66 655.03,-511.14"/>
<polygon fill="none" stroke="#404040" points="655.03,-510.89 651.03,-504.89 655.03,-498.89 659.03,-504.89 655.03,-510.89"/>
<text text-anchor="middle" x="683.53" y="-553" font-family="Helvetica,sans-Serif" font-size="10.00"> +contextInfo</text>
<text text-anchor="middle" x="683.53" y="-542" font-family="Helvetica,sans-Serif" font-size="10.00">+header</text>
<text text-anchor="middle" x="683.53" y="-531" font-family="Helvetica,sans-Serif" font-size="10.00">+payoutInfo</text>
</g>
<!-- Node13 -->
<g id="node13" class="node">
<title>Node13</title>
<g id="a_node13"><a xlink:href="structaltintegration_1_1VbkMerklePath.html" target="_top" xlink:title="Path in Merkle tree, which proves that subject exists in the tree.">
<polygon fill="white" stroke="black" points="745.53,-408.5 745.53,-509.5 888.53,-509.5 888.53,-408.5 745.53,-408.5"/>
<text text-anchor="middle" x="817.03" y="-497.5" font-family="Helvetica,sans-Serif" font-size="10.00">altintegration::VbkMerklePath</text>
<polyline fill="none" stroke="black" points="745.53,-490.5 888.53,-490.5 "/>
<text text-anchor="start" x="753.53" y="-478.5" font-family="Helvetica,sans-Serif" font-size="10.00">+ treeIndex</text>
<text text-anchor="start" x="753.53" y="-467.5" font-family="Helvetica,sans-Serif" font-size="10.00">+ index</text>
<polyline fill="none" stroke="black" points="745.53,-460.5 888.53,-460.5 "/>
<text text-anchor="start" x="753.53" y="-448.5" font-family="Helvetica,sans-Serif" font-size="10.00">+ toVbkEncoding()</text>
<text text-anchor="start" x="753.53" y="-437.5" font-family="Helvetica,sans-Serif" font-size="10.00">+ estimateSize()</text>
<text text-anchor="start" x="753.53" y="-426.5" font-family="Helvetica,sans-Serif" font-size="10.00">+ calculateMerkleRoot()</text>
<text text-anchor="start" x="753.53" y="-415.5" font-family="Helvetica,sans-Serif" font-size="10.00">+ equalLayerIndexes()</text>
</a>
</g>
</g>
<!-- Node13&#45;&gt;Node1 -->
<g id="edge16" class="edge">
<title>Node13&#45;&gt;Node1</title>
<path fill="none" stroke="#404040" d="M783.47,-408.38C775.24,-393.73 767.52,-377.26 763.03,-361 743.52,-290.33 743.14,-206.39 746.53,-146.59"/>
<polygon fill="none" stroke="#404040" points="746.53,-146.57 742.91,-140.33 747.28,-134.59 750.9,-140.83 746.53,-146.57"/>
<text text-anchor="middle" x="792.03" y="-269" font-family="Helvetica,sans-Serif" font-size="10.00"> +merklePath</text>
</g>
<!-- Node14 -->
<g id="node14" class="node">
<title>Node14</title>
<g id="a_node14"><a xlink:href="structaltintegration_1_1Blob.html" target="_top" xlink:title=" ">
<polygon fill="white" stroke="black" points="738.53,-579.5 738.53,-801.5 869.53,-801.5 869.53,-579.5 738.53,-579.5"/>
<text text-anchor="start" x="746.53" y="-789.5" font-family="Helvetica,sans-Serif" font-size="10.00">altintegration::Blob</text>
<text text-anchor="middle" x="804.03" y="-778.5" font-family="Helvetica,sans-Serif" font-size="10.00">&lt; SHA256_HASH_SIZE &gt;</text>
<polyline fill="none" stroke="black" points="738.53,-771.5 869.53,-771.5 "/>
<text text-anchor="start" x="746.53" y="-759.5" font-family="Helvetica,sans-Serif" font-size="10.00">+ data_</text>
<text text-anchor="start" x="746.53" y="-748.5" font-family="Helvetica,sans-Serif" font-size="10.00">+ this</text>
<polyline fill="none" stroke="black" points="738.53,-741.5 869.53,-741.5 "/>
<text text-anchor="start" x="746.53" y="-729.5" font-family="Helvetica,sans-Serif" font-size="10.00">+ Blob()</text>
<text text-anchor="start" x="746.53" y="-718.5" font-family="Helvetica,sans-Serif" font-size="10.00">+ Blob()</text>
<text text-anchor="start" x="746.53" y="-707.5" font-family="Helvetica,sans-Serif" font-size="10.00">+ Blob()</text>
<text text-anchor="start" x="746.53" y="-696.5" font-family="Helvetica,sans-Serif" font-size="10.00">+ Blob()</text>
<text text-anchor="start" x="746.53" y="-685.5" font-family="Helvetica,sans-Serif" font-size="10.00">+ Blob()</text>
<text text-anchor="start" x="746.53" y="-674.5" font-family="Helvetica,sans-Serif" font-size="10.00">+ operator=()</text>
<text text-anchor="start" x="746.53" y="-663.5" font-family="Helvetica,sans-Serif" font-size="10.00">+ operator=()</text>
<text text-anchor="start" x="746.53" y="-652.5" font-family="Helvetica,sans-Serif" font-size="10.00">+ reverse()</text>
<text text-anchor="start" x="746.53" y="-641.5" font-family="Helvetica,sans-Serif" font-size="10.00">+ operator~()</text>
<text text-anchor="start" x="746.53" y="-630.5" font-family="Helvetica,sans-Serif" font-size="10.00">+ asVector()</text>
<text text-anchor="start" x="746.53" y="-619.5" font-family="Helvetica,sans-Serif" font-size="10.00">+ asString()</text>
<text text-anchor="start" x="746.53" y="-608.5" font-family="Helvetica,sans-Serif" font-size="10.00">+ operator[]()</text>
<text text-anchor="start" x="746.53" y="-597.5" font-family="Helvetica,sans-Serif" font-size="10.00">+ operator[]()</text>
<text text-anchor="start" x="746.53" y="-586.5" font-family="Helvetica,sans-Serif" font-size="10.00">+ compareTo()</text>
</a>
</g>
</g>
<!-- Node14&#45;&gt;Node13 -->
<g id="edge17" class="edge">
<title>Node14&#45;&gt;Node13</title>
<path fill="none" stroke="#404040" d="M810.26,-579.46C811.39,-559.55 812.53,-539.45 813.54,-521.56"/>
<polygon fill="none" stroke="#404040" points="813.54,-521.55 809.89,-515.33 814.22,-509.57 817.87,-515.78 813.54,-521.55"/>
<text text-anchor="middle" x="833.03" y="-542" font-family="Helvetica,sans-Serif" font-size="10.00"> +subject</text>
</g>
<!-- Node15 -->
<g id="node15" class="node">
<title>Node15</title>
<g id="a_node15"><a xlink:href="structaltintegration_1_1Blob.html" target="_top" xlink:title="Contiguous byte array of fixed size.">
<polygon fill="white" stroke="black" points="820.03,-849.5 820.03,-1060.5 940.03,-1060.5 940.03,-849.5 820.03,-849.5"/>
<text text-anchor="middle" x="880.03" y="-1048.5" font-family="Helvetica,sans-Serif" font-size="10.00">altintegration::Blob&lt; N &gt;</text>
<polyline fill="none" stroke="black" points="820.03,-1041.5 940.03,-1041.5 "/>
<text text-anchor="start" x="828.03" y="-1029.5" font-family="Helvetica,sans-Serif" font-size="10.00">+ data_</text>
<text text-anchor="start" x="828.03" y="-1018.5" font-family="Helvetica,sans-Serif" font-size="10.00">+ this</text>
<polyline fill="none" stroke="black" points="820.03,-1011.5 940.03,-1011.5 "/>
<text text-anchor="start" x="828.03" y="-999.5" font-family="Helvetica,sans-Serif" font-size="10.00">+ Blob()</text>
<text text-anchor="start" x="828.03" y="-988.5" font-family="Helvetica,sans-Serif" font-size="10.00">+ Blob()</text>
<text text-anchor="start" x="828.03" y="-977.5" font-family="Helvetica,sans-Serif" font-size="10.00">+ Blob()</text>
<text text-anchor="start" x="828.03" y="-966.5" font-family="Helvetica,sans-Serif" font-size="10.00">+ Blob()</text>
<text text-anchor="start" x="828.03" y="-955.5" font-family="Helvetica,sans-Serif" font-size="10.00">+ Blob()</text>
<text text-anchor="start" x="828.03" y="-944.5" font-family="Helvetica,sans-Serif" font-size="10.00">+ operator=()</text>
<text text-anchor="start" x="828.03" y="-933.5" font-family="Helvetica,sans-Serif" font-size="10.00">+ operator=()</text>
<text text-anchor="start" x="828.03" y="-922.5" font-family="Helvetica,sans-Serif" font-size="10.00">+ reverse()</text>
<text text-anchor="start" x="828.03" y="-911.5" font-family="Helvetica,sans-Serif" font-size="10.00">+ operator~()</text>
<text text-anchor="start" x="828.03" y="-900.5" font-family="Helvetica,sans-Serif" font-size="10.00">+ asVector()</text>
<text text-anchor="start" x="828.03" y="-889.5" font-family="Helvetica,sans-Serif" font-size="10.00">+ asString()</text>
<text text-anchor="start" x="828.03" y="-878.5" font-family="Helvetica,sans-Serif" font-size="10.00">+ operator[]()</text>
<text text-anchor="start" x="828.03" y="-867.5" font-family="Helvetica,sans-Serif" font-size="10.00">+ operator[]()</text>
<text text-anchor="start" x="828.03" y="-856.5" font-family="Helvetica,sans-Serif" font-size="10.00">+ compareTo()</text>
</a>
</g>
</g>
<!-- Node15&#45;&gt;Node14 -->
<g id="edge18" class="edge">
<title>Node15&#45;&gt;Node14</title>
<path fill="none" stroke="orange" d="M815.72,-855.09C812.3,-847.14 809.33,-839.07 807.03,-831 804.33,-821.57 802.41,-811.63 801.09,-801.58"/>
<polygon fill="orange" stroke="orange" points="812.6,-856.69 819.92,-864.35 818.98,-853.8 812.6,-856.69"/>
<text text-anchor="middle" x="865.53" y="-823" font-family="Helvetica,sans-Serif" font-size="10.00"> &lt; SHA256_HASH_SIZE &gt;</text>
</g>
<!-- Node15&#45;&gt;Node16 -->
<g id="edge20" class="edge">
<title>Node15&#45;&gt;Node16</title>
<path fill="none" stroke="#404040" d="M922.55,-849.5C924.53,-843.28 926.38,-837.08 928.03,-831 936.41,-800.01 941.98,-764.22 945.41,-736.66"/>
<polygon fill="none" stroke="#404040" points="945.42,-736.53 942.16,-730.1 946.84,-724.62 950.1,-731.05 945.42,-736.53"/>
<text text-anchor="middle" x="954.53" y="-823" font-family="Helvetica,sans-Serif" font-size="10.00"> +elements</text>
</g>
<!-- Node16&#45;&gt;Node13 -->
<g id="edge19" class="edge">
<title>Node16&#45;&gt;Node13</title>
<path fill="none" stroke="#404040" d="M931.06,-656.35C912.33,-623.67 882.82,-572.32 857.03,-528 855.52,-525.41 853.98,-522.77 852.42,-520.1"/>
<polygon fill="none" stroke="#404040" points="852.42,-520.09 845.93,-516.93 846.35,-509.73 852.84,-512.89 852.42,-520.09"/>
<text text-anchor="middle" x="892.03" y="-542" font-family="Helvetica,sans-Serif" font-size="10.00"> +layers</text>
</g>
<!-- Node17 -->
<g id="node17" class="node">
<title>Node17</title>
<g id="a_node17"><a xlink:href="structaltintegration_1_1VbkBlock.html" target="_top" xlink:title="Veriblock block.">
<polygon fill="white" stroke="black" points="830.53,-182.5 830.53,-360.5 949.53,-360.5 949.53,-182.5 830.53,-182.5"/>
<text text-anchor="middle" x="890.03" y="-348.5" font-family="Helvetica,sans-Serif" font-size="10.00">altintegration::VbkBlock</text>
<polyline fill="none" stroke="black" points="830.53,-341.5 949.53,-341.5 "/>
<text text-anchor="middle" x="890.03" y="-329.5" font-family="Helvetica,sans-Serif" font-size="10.00"> </text>
<polyline fill="none" stroke="black" points="830.53,-322.5 949.53,-322.5 "/>
<text text-anchor="start" x="838.53" y="-310.5" font-family="Helvetica,sans-Serif" font-size="10.00">+ toPrettyString()</text>
<text text-anchor="start" x="838.53" y="-299.5" font-family="Helvetica,sans-Serif" font-size="10.00">+ toShortPrettyString()</text>
<text text-anchor="start" x="838.53" y="-288.5" font-family="Helvetica,sans-Serif" font-size="10.00">+ toRaw()</text>
<text text-anchor="start" x="838.53" y="-277.5" font-family="Helvetica,sans-Serif" font-size="10.00">+ toVbkEncoding()</text>
<text text-anchor="start" x="838.53" y="-266.5" font-family="Helvetica,sans-Serif" font-size="10.00">+ toRaw()</text>
<text text-anchor="start" x="838.53" y="-255.5" font-family="Helvetica,sans-Serif" font-size="10.00">+ toVbkEncoding()</text>
<text text-anchor="start" x="838.53" y="-244.5" font-family="Helvetica,sans-Serif" font-size="10.00">+ estimateSize()</text>
<text text-anchor="start" x="838.53" y="-233.5" font-family="Helvetica,sans-Serif" font-size="10.00">+ getBlockTime()</text>
<text text-anchor="start" x="838.53" y="-222.5" font-family="Helvetica,sans-Serif" font-size="10.00">+ calculateHash()</text>
<text text-anchor="start" x="838.53" y="-211.5" font-family="Helvetica,sans-Serif" font-size="10.00">+ getHash()</text>
<text text-anchor="start" x="838.53" y="-200.5" font-family="Helvetica,sans-Serif" font-size="10.00">and 22 more...</text>
<text text-anchor="start" x="838.53" y="-189.5" font-family="Helvetica,sans-Serif" font-size="10.00">+ name()</text>
</a>
</g>
</g>
<!-- Node17&#45;&gt;Node1 -->
<g id="edge22" class="edge">
<title>Node17&#45;&gt;Node1</title>
<path fill="none" stroke="#404040" d="M830.77,-182.49C822.33,-169.95 813.7,-157.13 805.42,-144.84"/>
<polygon fill="none" stroke="#404040" points="805.27,-144.6 798.6,-141.86 798.56,-134.65 805.23,-137.39 805.27,-144.6"/>
<text text-anchor="middle" x="851.03" y="-156" font-family="Helvetica,sans-Serif" font-size="10.00"> +blockOfProof</text>
</g>
</g>
</svg>
        <g id="navigator" transform="translate(0 0)" fill="#404254">
                <rect fill="#f2f5e9" fill-opacity="0.5" stroke="#606060" stroke-width=".5" x="0" y="0" width="60" height="60"/>
                <use id="zoomplus" xlink:href="#zoomPlus" x="17" y="9" onmousedown="handleZoom(evt,'in')"/>
                <use id="zoomminus" xlink:href="#zoomMin" x="42" y="9" onmousedown="handleZoom(evt,'out')"/>
                <use id="reset" xlink:href="#resetDef" x="30" y="36" onmousedown="handleReset()"/>
                <g id="arrowUp" xlink:href="#dirArrow" transform="translate(30 24)" onmousedown="handlePan(0,-1)">
                  <use xlink:href="#rim" fill="#404040">
                        <set attributeName="fill" to="#808080" begin="arrowUp.mouseover" end="arrowUp.mouseout"/>
                  </use>
                  <path fill="none" stroke="white" stroke-width="1.5" d="M0,-3.0v7 M-2.5,-0.5L0,-3.0L2.5,-0.5"/>
                </g>
                <g id="arrowRight" xlink:href="#dirArrow" transform="rotate(90) translate(36 -43)" onmousedown="handlePan(1,0)">
                  <use xlink:href="#rim" fill="#404040">
                        <set attributeName="fill" to="#808080" begin="arrowRight.mouseover" end="arrowRight.mouseout"/>
                  </use>
                  <path fill="none" stroke="white" stroke-width="1.5" d="M0,-3.0v7 M-2.5,-0.5L0,-3.0L2.5,-0.5"/>
                </g>
                <g id="arrowDown" xlink:href="#dirArrow" transform="rotate(180) translate(-30 -48)" onmousedown="handlePan(0,1)">
                  <use xlink:href="#rim" fill="#404040">
                        <set attributeName="fill" to="#808080" begin="arrowDown.mouseover" end="arrowDown.mouseout"/>
                  </use>
                  <path fill="none" stroke="white" stroke-width="1.5" d="M0,-3.0v7 M-2.5,-0.5L0,-3.0L2.5,-0.5"/>
                </g>
                <g id="arrowLeft" xlink:href="#dirArrow" transform="rotate(270) translate(-36 17)" onmousedown="handlePan(-1,0)">
                  <use xlink:href="#rim" fill="#404040">
                        <set attributeName="fill" to="#808080" begin="arrowLeft.mouseover" end="arrowLeft.mouseout"/>
                  </use>
                  <path fill="none" stroke="white" stroke-width="1.5" d="M0,-3.0v7 M-2.5,-0.5L0,-3.0L2.5,-0.5"/>
                </g>
        </g>
        <svg viewBox="0 0 15 15" width="100%" height="30px" preserveAspectRatio="xMaxYMin meet">
         <g id="arrow_out" transform="scale(0.3 0.3)">
          <a xlink:href="structaltintegration_1_1ATV__coll__graph_org.svg" target="_base">
           <rect id="button" ry="5" rx="5" y="6" x="6" height="38" width="38"
                fill="#f2f5e9" fill-opacity="0.5" stroke="#606060" stroke-width="1.0"/>
           <path id="arrow"
             d="M 11.500037,31.436501 C 11.940474,20.09759 22.043105,11.32322 32.158766,21.979434 L 37.068811,17.246167 C 37.068811,17.246167 37.088388,32 37.088388,32 L 22.160133,31.978069 C 22.160133,31.978069 26.997745,27.140456 26.997745,27.140456 C 18.528582,18.264221 13.291696,25.230495 11.500037,31.436501 z"
             style="fill:#404040;"/>
          </a>
         </g>
        </svg>
</svg>
