<?xml version="1.0" encoding="UTF-8" standalone="no"?>
<!DOCTYPE svg PUBLIC "-//W3C//DTD SVG 1.1//EN"
 "http://www.w3.org/Graphics/SVG/1.1/DTD/svg11.dtd">
<!-- Generated by graphviz version 3.0.0 (20220413.0106)
 -->
<!-- Title: altintegration::PublicationData Pages: 1 -->
<svg width="153pt" height="425pt"
 viewBox="0.00 0.00 153.00 425.00" xmlns="http://www.w3.org/2000/svg" xmlns:xlink="http://www.w3.org/1999/xlink">
<g id="graph0" class="graph" transform="scale(1 1) rotate(0) translate(4 421)">
<title>altintegration::PublicationData</title>
<polygon fill="white" stroke="transparent" points="-4,4 -4,-421 149,-421 149,4 -4,4"/>
<!-- Node1 -->
<g id="node1" class="node">
<title>Node1</title>
<g id="a_node1"><a xlink:title="Publication data about ALT block inside VBK blockchain.">
<polygon fill="#bfbfbf" stroke="black" points="0,-0.5 0,-79.5 145,-79.5 145,-0.5 0,-0.5"/>
<text text-anchor="middle" x="72.5" y="-67.5" font-family="Helvetica,sans-Serif" font-size="10.00">altintegration::PublicationData</text>
<polyline fill="none" stroke="black" points="0,-60.5 145,-60.5 "/>
<text text-anchor="start" x="8" y="-48.5" font-family="Helvetica,sans-Serif" font-size="10.00">+ identifier</text>
<polyline fill="none" stroke="black" points="0,-41.5 145,-41.5 "/>
<text text-anchor="start" x="8" y="-29.5" font-family="Helvetica,sans-Serif" font-size="10.00">+ toPrettyString()</text>
<text text-anchor="start" x="8" y="-18.5" font-family="Helvetica,sans-Serif" font-size="10.00">+ toVbkEncoding()</text>
<text text-anchor="start" x="8" y="-7.5" font-family="Helvetica,sans-Serif" font-size="10.00">+ estimateSize()</text>
</a>
</g>
</g>
<!-- Node2 -->
<g id="node2" class="node">
<title>Node2</title>
<g id="a_node2"><a xlink:title=" ">
<polygon fill="white" stroke="black" points="19,-149.5 19,-206.5 126,-206.5 126,-149.5 19,-149.5"/>
<text text-anchor="middle" x="72.5" y="-194.5" font-family="Helvetica,sans-Serif" font-size="10.00">std::vector&lt; uint8_t &gt;</text>
<polyline fill="none" stroke="black" points="19,-187.5 126,-187.5 "/>
<text text-anchor="start" x="27" y="-175.5" font-family="Helvetica,sans-Serif" font-size="10.00">+ elements</text>
<polyline fill="none" stroke="black" points="19,-168.5 126,-168.5 "/>
<text text-anchor="middle" x="72.5" y="-156.5" font-family="Helvetica,sans-Serif" font-size="10.00"> </text>
</a>
</g>
</g>
<!-- Node2&#45;&gt;Node1 -->
<g id="edge1" class="edge">
<title>Node2&#45;&gt;Node1</title>
<path fill="none" stroke="#404040" d="M72.5,-149.48C72.5,-132.91 72.5,-111.3 72.5,-91.73"/>
<polygon fill="none" stroke="#404040" points="72.5,-91.56 68.5,-85.56 72.5,-79.56 76.5,-85.56 72.5,-91.56"/>
<text text-anchor="middle" x="101" y="-123" font-family="Helvetica,sans-Serif" font-size="10.00"> +contextInfo</text>
<text text-anchor="middle" x="101" y="-112" font-family="Helvetica,sans-Serif" font-size="10.00">+header</text>
<text text-anchor="middle" x="101" y="-101" font-family="Helvetica,sans-Serif" font-size="10.00">+payoutInfo</text>
</g>
<!-- Node3 -->
<g id="node3" class="node">
<title>Node3</title>
<g id="a_node3"><a xlink:title=" ">
<polygon fill="white" stroke="black" points="30.5,-254.5 30.5,-311.5 114.5,-311.5 114.5,-254.5 30.5,-254.5"/>
<text text-anchor="middle" x="72.5" y="-299.5" font-family="Helvetica,sans-Serif" font-size="10.00">std::vector&lt; T &gt;</text>
<polyline fill="none" stroke="black" points="30.5,-292.5 114.5,-292.5 "/>
<text text-anchor="middle" x="72.5" y="-280.5" font-family="Helvetica,sans-Serif" font-size="10.00"> </text>
<polyline fill="none" stroke="black" points="30.5,-273.5 114.5,-273.5 "/>
<text text-anchor="middle" x="72.5" y="-261.5" font-family="Helvetica,sans-Serif" font-size="10.00"> </text>
</a>
</g>
</g>
<!-- Node3&#45;&gt;Node2 -->
<g id="edge2" class="edge">
<title>Node3&#45;&gt;Node2</title>
<path fill="none" stroke="orange" d="M72.5,-244.29C72.5,-231.84 72.5,-218.23 72.5,-206.68"/>
<polygon fill="orange" stroke="orange" points="69,-244.4 72.5,-254.4 76,-244.4 69,-244.4"/>
<text text-anchor="middle" x="97" y="-228" font-family="Helvetica,sans-Serif" font-size="10.00"> &lt; uint8_t &gt;</text>
</g>
<!-- Node4 -->
<g id="node4" class="node">
<title>Node4</title>
<g id="a_node4"><a xlink:title=" ">
<polygon fill="white" stroke="#bfbfbf" points="58,-359.5 58,-416.5 87,-416.5 87,-359.5 58,-359.5"/>
<text text-anchor="middle" x="72.5" y="-404.5" font-family="Helvetica,sans-Serif" font-size="10.00">T</text>
<polyline fill="none" stroke="#bfbfbf" points="58,-397.5 87,-397.5 "/>
<text text-anchor="middle" x="72.5" y="-385.5" font-family="Helvetica,sans-Serif" font-size="10.00"> </text>
<polyline fill="none" stroke="#bfbfbf" points="58,-378.5 87,-378.5 "/>
<text text-anchor="middle" x="72.5" y="-366.5" font-family="Helvetica,sans-Serif" font-size="10.00"> </text>
</a>
</g>
</g>
<!-- Node4&#45;&gt;Node3 -->
<g id="edge3" class="edge">
<title>Node4&#45;&gt;Node3</title>
<path fill="none" stroke="#404040" d="M72.5,-359.4C72.5,-348.55 72.5,-335.87 72.5,-324.05"/>
<polygon fill="none" stroke="#404040" points="72.5,-323.68 68.5,-317.68 72.5,-311.68 76.5,-317.68 72.5,-323.68"/>
<text text-anchor="middle" x="97" y="-333" font-family="Helvetica,sans-Serif" font-size="10.00"> +elements</text>
</g>
</g>
</svg>
