<?xml version="1.0" encoding="UTF-8" standalone="no"?>
<!DOCTYPE svg PUBLIC "-//W3C//DTD SVG 1.1//EN"
 "http://www.w3.org/Graphics/SVG/1.1/DTD/svg11.dtd">
<!-- Generated by graphviz version 2.44.0 ()
 -->
<!-- Title: altintegration::btc::BlockHeaderAndShortTxIDs Pages: 1 -->
<!--zoomable 1765 -->
<svg id="main" version="1.1" xmlns="http://www.w3.org/2000/svg" xmlns:xlink="http://www.w3.org/1999/xlink" xml:space="preserve" onload="init(evt)">
<style type="text/css"><![CDATA[
.edge:hover path { stroke: red; }
.edge:hover polygon { stroke: red; fill: red; }
]]></style>
<script type="text/javascript"><![CDATA[
var edges = document.getElementsByTagName('g');
if (edges && edges.length) {
  for (var i=0;i<edges.length;i++) {
    if (edges[i].id.substr(0,4)=='edge') {
      edges[i].setAttribute('class','edge');
    }
  }
}
]]></script>
        <defs>
                <circle id="rim" cx="0" cy="0" r="7"/>
                <circle id="rim2" cx="0" cy="0" r="3.5"/>
                <g id="zoomPlus">
                        <use xlink:href="#rim" fill="#404040">
                                <set attributeName="fill" to="#808080" begin="zoomplus.mouseover" end="zoomplus.mouseout"/>
                        </use>
                        <path d="M-4,0h8M0,-4v8" fill="none" stroke="white" stroke-width="1.5" pointer-events="none"/>
                </g>
                <g id="zoomMin">
                        <use xlink:href="#rim" fill="#404040">
                                <set attributeName="fill" to="#808080" begin="zoomminus.mouseover" end="zoomminus.mouseout"/>
                        </use>
                        <path d="M-4,0h8" fill="none" stroke="white" stroke-width="1.5" pointer-events="none"/>
                </g>
                <g id="dirArrow">
                        <path fill="none" stroke="white" stroke-width="1.5" d="M0,-3.0v7 M-2.5,-0.5L0,-3.0L2.5,-0.5"/>
                </g>
               <g id="resetDef">
                       <use xlink:href="#rim2" fill="#404040">
                               <set attributeName="fill" to="#808080" begin="reset.mouseover" end="reset.mouseout"/>
                       </use>
               </g>
        </defs>

<script type="text/javascript">
var viewWidth = 1080;
var viewHeight = 1765;
var sectionId = 'dynsection-0';
</script>
<script xlink:href="svgpan.js"/>
<svg id="graph" class="graph">
<g id="viewport">
<title>altintegration::btc::BlockHeaderAndShortTxIDs</title>
<polygon fill="white" stroke="transparent" points="-4,4 -4,-1761 1075.5,-1761 1075.5,4 -4,4"/>
<!-- Node1 -->
<g id="node1" class="node">
<title>Node1</title>
<g id="a_node1"><a xlink:title=" ">
<polygon fill="#bfbfbf" stroke="black" points="608.5,-0.5 608.5,-90.5 763.5,-90.5 763.5,-0.5 608.5,-0.5"/>
<text text-anchor="start" x="616.5" y="-78.5" font-family="Helvetica,sans-Serif" font-size="10.00">altintegration::btc</text>
<text text-anchor="middle" x="686" y="-67.5" font-family="Helvetica,sans-Serif" font-size="10.00">::BlockHeaderAndShortTxIDs</text>
<polyline fill="none" stroke="black" points="608.5,-60.5 763.5,-60.5 "/>
<text text-anchor="start" x="616.5" y="-48.5" font-family="Helvetica,sans-Serif" font-size="10.00">+ nonce</text>
<text text-anchor="start" x="616.5" y="-37.5" font-family="Helvetica,sans-Serif" font-size="10.00">+ ADD_SERIALIZE_METHODS</text>
<text text-anchor="start" x="616.5" y="-26.5" font-family="Helvetica,sans-Serif" font-size="10.00">+ SHORTTXIDS_LENGTH</text>
<polyline fill="none" stroke="black" points="608.5,-19.5 763.5,-19.5 "/>
<text text-anchor="start" x="616.5" y="-7.5" font-family="Helvetica,sans-Serif" font-size="10.00">+ SerializationOp()</text>
</a>
</g>
</g>
<!-- Node2 -->
<g id="node2" class="node">
<title>Node2</title>
<g id="a_node2"><a xlink:title=" ">
<polygon fill="white" stroke="#bfbfbf" points="75.5,-138.5 75.5,-206.5 208.5,-206.5 208.5,-138.5 75.5,-138.5"/>
<text text-anchor="start" x="83.5" y="-194.5" font-family="Helvetica,sans-Serif" font-size="10.00">std::vector&lt; altintegration</text>
<text text-anchor="middle" x="142" y="-183.5" font-family="Helvetica,sans-Serif" font-size="10.00">::btc::PrefilledTransaction &gt;</text>
<polyline fill="none" stroke="#bfbfbf" points="75.5,-176.5 208.5,-176.5 "/>
<text text-anchor="middle" x="142" y="-164.5" font-family="Helvetica,sans-Serif" font-size="10.00"> </text>
<polyline fill="none" stroke="#bfbfbf" points="75.5,-157.5 208.5,-157.5 "/>
<text text-anchor="middle" x="142" y="-145.5" font-family="Helvetica,sans-Serif" font-size="10.00"> </text>
</a>
</g>
</g>
<!-- Node2&#45;&gt;Node1 -->
<g id="edge1" class="edge">
<title>Node2&#45;&gt;Node1</title>
<path fill="none" stroke="#404040" d="M208.71,-156.17C306.06,-133.8 487.3,-92.16 596.26,-67.12"/>
<polygon fill="none" stroke="#404040" points="596.51,-67.06 601.46,-61.82 608.2,-64.38 603.25,-69.62 596.51,-67.06"/>
<text text-anchor="middle" x="441.5" y="-112" font-family="Helvetica,sans-Serif" font-size="10.00"> +prefilledtxn</text>
</g>
<!-- Node3 -->
<g id="node3" class="node">
<title>Node3</title>
<g id="a_node3"><a xlink:href="structaltintegration_1_1btc_1_1PrefilledTransaction.html" target="_top" xlink:title=" ">
<polygon fill="white" stroke="black" points="64.5,-254.5 64.5,-333.5 219.5,-333.5 219.5,-254.5 64.5,-254.5"/>
<text text-anchor="start" x="72.5" y="-321.5" font-family="Helvetica,sans-Serif" font-size="10.00">altintegration::btc</text>
<text text-anchor="middle" x="142" y="-310.5" font-family="Helvetica,sans-Serif" font-size="10.00">::PrefilledTransaction</text>
<polyline fill="none" stroke="black" points="64.5,-303.5 219.5,-303.5 "/>
<text text-anchor="start" x="72.5" y="-291.5" font-family="Helvetica,sans-Serif" font-size="10.00">+ index</text>
<text text-anchor="start" x="72.5" y="-280.5" font-family="Helvetica,sans-Serif" font-size="10.00">+ ADD_SERIALIZE_METHODS</text>
<polyline fill="none" stroke="black" points="64.5,-273.5 219.5,-273.5 "/>
<text text-anchor="start" x="72.5" y="-261.5" font-family="Helvetica,sans-Serif" font-size="10.00">+ SerializationOp()</text>
</a>
</g>
</g>
<!-- Node3&#45;&gt;Node2 -->
<g id="edge2" class="edge">
<title>Node3&#45;&gt;Node2</title>
<path fill="none" stroke="#404040" d="M142,-254.2C142,-242.99 142,-230.65 142,-219.07"/>
<polygon fill="none" stroke="#404040" points="142,-218.89 138,-212.89 142,-206.89 146,-212.89 142,-218.89"/>
<text text-anchor="middle" x="166.5" y="-228" font-family="Helvetica,sans-Serif" font-size="10.00"> +elements</text>
</g>
<!-- Node4 -->
<g id="node4" class="node">
<title>Node4</title>
<g id="a_node4"><a xlink:href="structaltintegration_1_1btc_1_1Transaction.html" target="_top" xlink:title="The basic transaction that is broadcasted on the network and contained in blocks.">
<polygon fill="white" stroke="black" points="97,-381.5 97,-482.5 187,-482.5 187,-381.5 97,-381.5"/>
<text text-anchor="start" x="105" y="-470.5" font-family="Helvetica,sans-Serif" font-size="10.00">altintegration::btc</text>
<text text-anchor="middle" x="142" y="-459.5" font-family="Helvetica,sans-Serif" font-size="10.00">::Transaction</text>
<polyline fill="none" stroke="black" points="97,-452.5 187,-452.5 "/>
<text text-anchor="start" x="105" y="-440.5" font-family="Helvetica,sans-Serif" font-size="10.00">+ nVersion</text>
<text text-anchor="start" x="105" y="-429.5" font-family="Helvetica,sans-Serif" font-size="10.00">+ nLockTime</text>
<polyline fill="none" stroke="black" points="97,-422.5 187,-422.5 "/>
<text text-anchor="start" x="105" y="-410.5" font-family="Helvetica,sans-Serif" font-size="10.00">+ Serialize()</text>
<text text-anchor="start" x="105" y="-399.5" font-family="Helvetica,sans-Serif" font-size="10.00">+ Unserialize()</text>
<text text-anchor="start" x="105" y="-388.5" font-family="Helvetica,sans-Serif" font-size="10.00">+ HasWitness()</text>
</a>
</g>
</g>
<!-- Node4&#45;&gt;Node3 -->
<g id="edge3" class="edge">
<title>Node4&#45;&gt;Node3</title>
<path fill="none" stroke="#404040" d="M142,-381.13C142,-369.66 142,-357.45 142,-345.94"/>
<polygon fill="none" stroke="#404040" points="142,-345.79 138,-339.79 142,-333.79 146,-339.79 142,-345.79"/>
<text text-anchor="middle" x="150" y="-355" font-family="Helvetica,sans-Serif" font-size="10.00"> +tx</text>
</g>
<!-- Node5 -->
<g id="node5" class="node">
<title>Node5</title>
<g id="a_node5"><a xlink:title=" ">
<polygon fill="white" stroke="#bfbfbf" points="28.5,-732 28.5,-800 153.5,-800 153.5,-732 28.5,-732"/>
<text text-anchor="start" x="36.5" y="-788" font-family="Helvetica,sans-Serif" font-size="10.00">std::vector&lt; altintegration</text>
<text text-anchor="middle" x="91" y="-777" font-family="Helvetica,sans-Serif" font-size="10.00">::btc::TxOut &gt;</text>
<polyline fill="none" stroke="#bfbfbf" points="28.5,-770 153.5,-770 "/>
<text text-anchor="middle" x="91" y="-758" font-family="Helvetica,sans-Serif" font-size="10.00"> </text>
<polyline fill="none" stroke="#bfbfbf" points="28.5,-751 153.5,-751 "/>
<text text-anchor="middle" x="91" y="-739" font-family="Helvetica,sans-Serif" font-size="10.00"> </text>
</a>
</g>
</g>
<!-- Node5&#45;&gt;Node4 -->
<g id="edge4" class="edge">
<title>Node5&#45;&gt;Node4</title>
<path fill="none" stroke="#404040" d="M96.39,-731.87C97.62,-724.05 98.89,-715.74 100,-708 111.33,-629.04 110.22,-608.74 123,-530 124.86,-518.56 127.06,-506.4 129.29,-494.71"/>
<polygon fill="none" stroke="#404040" points="129.33,-494.51 126.54,-487.86 131.61,-482.73 134.4,-489.39 129.33,-494.51"/>
<text text-anchor="middle" x="137" y="-562" font-family="Helvetica,sans-Serif" font-size="10.00"> +vout</text>
</g>
<!-- Node6 -->
<g id="node6" class="node">
<title>Node6</title>
<g id="a_node6"><a xlink:href="structaltintegration_1_1btc_1_1TxOut.html" target="_top" xlink:title="An output of a transaction.">
<polygon fill="white" stroke="black" points="285.5,-925 285.5,-1004 440.5,-1004 440.5,-925 285.5,-925"/>
<text text-anchor="start" x="293.5" y="-992" font-family="Helvetica,sans-Serif" font-size="10.00">altintegration::btc</text>
<text text-anchor="middle" x="363" y="-981" font-family="Helvetica,sans-Serif" font-size="10.00">::TxOut</text>
<polyline fill="none" stroke="black" points="285.5,-974 440.5,-974 "/>
<text text-anchor="start" x="293.5" y="-962" font-family="Helvetica,sans-Serif" font-size="10.00">+ nValue</text>
<text text-anchor="start" x="293.5" y="-951" font-family="Helvetica,sans-Serif" font-size="10.00">+ ADD_SERIALIZE_METHODS</text>
<polyline fill="none" stroke="black" points="285.5,-944 440.5,-944 "/>
<text text-anchor="start" x="293.5" y="-932" font-family="Helvetica,sans-Serif" font-size="10.00">+ SerializationOp()</text>
</a>
</g>
</g>
<!-- Node6&#45;&gt;Node5 -->
<g id="edge5" class="edge">
<title>Node6&#45;&gt;Node5</title>
<path fill="none" stroke="#404040" d="M337.27,-924.82C320.48,-901.76 296.91,-873.15 271,-853 239.32,-828.35 199.43,-808.4 165.26,-793.94"/>
<polygon fill="none" stroke="#404040" points="165,-793.83 157.92,-795.23 153.91,-789.24 160.98,-787.84 165,-793.83"/>
<text text-anchor="middle" x="269.5" y="-827" font-family="Helvetica,sans-Serif" font-size="10.00"> +elements</text>
</g>
<!-- Node7 -->
<g id="node7" class="node">
<title>Node7</title>
<g id="a_node7"><a xlink:title=" ">
<polygon fill="white" stroke="#bfbfbf" points="386.5,-1253 386.5,-1310 493.5,-1310 493.5,-1253 386.5,-1253"/>
<text text-anchor="middle" x="440" y="-1298" font-family="Helvetica,sans-Serif" font-size="10.00">std::vector&lt; uint8_t &gt;</text>
<polyline fill="none" stroke="#bfbfbf" points="386.5,-1291 493.5,-1291 "/>
<text text-anchor="start" x="394.5" y="-1279" font-family="Helvetica,sans-Serif" font-size="10.00">+ elements</text>
<polyline fill="none" stroke="#bfbfbf" points="386.5,-1272 493.5,-1272 "/>
<text text-anchor="middle" x="440" y="-1260" font-family="Helvetica,sans-Serif" font-size="10.00"> </text>
</a>
</g>
</g>
<!-- Node7&#45;&gt;Node6 -->
<g id="edge6" class="edge">
<title>Node7&#45;&gt;Node6</title>
<path fill="none" stroke="#404040" d="M429.12,-1252.8C419.34,-1227.03 405.13,-1187.39 396,-1152 384.3,-1106.66 375.41,-1054.05 369.82,-1016.3"/>
<polygon fill="none" stroke="#404040" points="369.77,-1015.97 364.95,-1010.6 368.05,-1004.09 372.87,-1009.46 369.77,-1015.97"/>
<text text-anchor="middle" x="429.5" y="-1120.5" font-family="Helvetica,sans-Serif" font-size="10.00"> +scriptPubKey</text>
</g>
<!-- Node11 -->
<g id="node11" class="node">
<title>Node11</title>
<g id="a_node11"><a xlink:href="structaltintegration_1_1btc_1_1TxIn.html" target="_top" xlink:title="An input of a transaction.">
<polygon fill="white" stroke="black" points="451.5,-726.5 451.5,-805.5 606.5,-805.5 606.5,-726.5 451.5,-726.5"/>
<text text-anchor="start" x="459.5" y="-793.5" font-family="Helvetica,sans-Serif" font-size="10.00">altintegration::btc</text>
<text text-anchor="middle" x="529" y="-782.5" font-family="Helvetica,sans-Serif" font-size="10.00">::TxIn</text>
<polyline fill="none" stroke="black" points="451.5,-775.5 606.5,-775.5 "/>
<text text-anchor="start" x="459.5" y="-763.5" font-family="Helvetica,sans-Serif" font-size="10.00">+ nSequence</text>
<text text-anchor="start" x="459.5" y="-752.5" font-family="Helvetica,sans-Serif" font-size="10.00">+ ADD_SERIALIZE_METHODS</text>
<polyline fill="none" stroke="black" points="451.5,-745.5 606.5,-745.5 "/>
<text text-anchor="start" x="459.5" y="-733.5" font-family="Helvetica,sans-Serif" font-size="10.00">+ SerializationOp()</text>
</a>
</g>
</g>
<!-- Node7&#45;&gt;Node11 -->
<g id="edge12" class="edge">
<title>Node7&#45;&gt;Node11</title>
<path fill="none" stroke="#404040" d="M445.79,-1252.8C451.01,-1226.86 458.54,-1186.96 463,-1152 479.87,-1019.79 450.42,-981.45 486,-853 489.41,-840.69 494.63,-828.05 500.26,-816.38"/>
<polygon fill="none" stroke="#404040" points="500.33,-816.24 499.47,-809.08 505.75,-805.53 506.61,-812.69 500.33,-816.24"/>
<text text-anchor="middle" x="509.5" y="-962" font-family="Helvetica,sans-Serif" font-size="10.00"> +scriptSig</text>
</g>
<!-- Node12 -->
<g id="node12" class="node">
<title>Node12</title>
<g id="a_node12"><a xlink:title=" ">
<polygon fill="white" stroke="#bfbfbf" points="542.5,-930.5 542.5,-998.5 657.5,-998.5 657.5,-930.5 542.5,-930.5"/>
<text text-anchor="start" x="550.5" y="-986.5" font-family="Helvetica,sans-Serif" font-size="10.00">std::vector&lt; std::vector</text>
<text text-anchor="middle" x="600" y="-975.5" font-family="Helvetica,sans-Serif" font-size="10.00">&lt; uint8_t &gt; &gt;</text>
<polyline fill="none" stroke="#bfbfbf" points="542.5,-968.5 657.5,-968.5 "/>
<text text-anchor="middle" x="600" y="-956.5" font-family="Helvetica,sans-Serif" font-size="10.00"> </text>
<polyline fill="none" stroke="#bfbfbf" points="542.5,-949.5 657.5,-949.5 "/>
<text text-anchor="middle" x="600" y="-937.5" font-family="Helvetica,sans-Serif" font-size="10.00"> </text>
</a>
</g>
</g>
<!-- Node7&#45;&gt;Node12 -->
<g id="edge14" class="edge">
<title>Node7&#45;&gt;Node12</title>
<path fill="none" stroke="#404040" d="M450.38,-1252.82C469.55,-1201.74 508.78,-1097.54 511,-1094 516.85,-1084.68 521.19,-1084.64 528,-1076 544.53,-1055.02 560.95,-1030.21 573.92,-1009.42"/>
<polygon fill="none" stroke="#404040" points="574.07,-1009.17 573.82,-1001.96 580.37,-998.96 580.63,-1006.16 574.07,-1009.17"/>
<text text-anchor="middle" x="535.5" y="-1120.5" font-family="Helvetica,sans-Serif" font-size="10.00"> +elements</text>
</g>
<!-- Node8 -->
<g id="node8" class="node">
<title>Node8</title>
<g id="a_node8"><a xlink:title=" ">
<polygon fill="white" stroke="#bfbfbf" points="177,-1517.5 177,-1574.5 261,-1574.5 261,-1517.5 177,-1517.5"/>
<text text-anchor="middle" x="219" y="-1562.5" font-family="Helvetica,sans-Serif" font-size="10.00">std::vector&lt; T &gt;</text>
<polyline fill="none" stroke="#bfbfbf" points="177,-1555.5 261,-1555.5 "/>
<text text-anchor="middle" x="219" y="-1543.5" font-family="Helvetica,sans-Serif" font-size="10.00"> </text>
<polyline fill="none" stroke="#bfbfbf" points="177,-1536.5 261,-1536.5 "/>
<text text-anchor="middle" x="219" y="-1524.5" font-family="Helvetica,sans-Serif" font-size="10.00"> </text>
</a>
</g>
</g>
<!-- Node8&#45;&gt;Node2 -->
<g id="edge20" class="edge">
<title>Node8&#45;&gt;Node2</title>
<path fill="none" stroke="orange" d="M168.31,-1514.79C103.62,-1471.95 0,-1387.01 0,-1282.5 0,-1282.5 0,-1282.5 0,-293 0,-250.15 38.33,-219.57 75.16,-200.07"/>
<polygon fill="orange" stroke="orange" points="166.49,-1517.78 176.77,-1520.3 170.31,-1511.91 166.49,-1517.78"/>
<text text-anchor="start" x="0" y="-665.5" font-family="Helvetica,sans-Serif" font-size="10.00"> &lt; altintegration::btc</text>
<text text-anchor="middle" x="49.5" y="-654.5" font-family="Helvetica,sans-Serif" font-size="10.00">::PrefilledTransaction &gt;</text>
</g>
<!-- Node8&#45;&gt;Node5 -->
<g id="edge9" class="edge">
<title>Node8&#45;&gt;Node5</title>
<path fill="none" stroke="orange" d="M202.76,-1508.23C192.29,-1483.96 178.68,-1451.34 168,-1422 124.98,-1303.78 102.11,-1276.35 83,-1152 79.08,-1126.52 82.68,-1119.78 83,-1094 84.31,-986.68 88.05,-859.59 89.91,-800.42"/>
<polygon fill="orange" stroke="orange" points="199.56,-1509.65 206.75,-1517.43 205.98,-1506.86 199.56,-1509.65"/>
<text text-anchor="start" x="83" y="-1126" font-family="Helvetica,sans-Serif" font-size="10.00"> &lt; altintegration::btc</text>
<text text-anchor="middle" x="125.5" y="-1115" font-family="Helvetica,sans-Serif" font-size="10.00">::TxOut &gt;</text>
</g>
<!-- Node8&#45;&gt;Node7 -->
<g id="edge7" class="edge">
<title>Node8&#45;&gt;Node7</title>
<path fill="none" stroke="orange" d="M248.78,-1509.63C293.32,-1456.73 376.36,-1358.09 416.75,-1310.12"/>
<polygon fill="orange" stroke="orange" points="246,-1507.5 242.23,-1517.4 251.35,-1512.01 246,-1507.5"/>
<text text-anchor="middle" x="354.5" y="-1414" font-family="Helvetica,sans-Serif" font-size="10.00"> &lt; uint8_t &gt;</text>
</g>
<!-- Node10 -->
<g id="node10" class="node">
<title>Node10</title>
<g id="a_node10"><a xlink:title=" ">
<polygon fill="white" stroke="#bfbfbf" points="160.5,-530.5 160.5,-598.5 285.5,-598.5 285.5,-530.5 160.5,-530.5"/>
<text text-anchor="start" x="168.5" y="-586.5" font-family="Helvetica,sans-Serif" font-size="10.00">std::vector&lt; altintegration</text>
<text text-anchor="middle" x="223" y="-575.5" font-family="Helvetica,sans-Serif" font-size="10.00">::btc::TxIn &gt;</text>
<polyline fill="none" stroke="#bfbfbf" points="160.5,-568.5 285.5,-568.5 "/>
<text text-anchor="middle" x="223" y="-556.5" font-family="Helvetica,sans-Serif" font-size="10.00"> </text>
<polyline fill="none" stroke="#bfbfbf" points="160.5,-549.5 285.5,-549.5 "/>
<text text-anchor="middle" x="223" y="-537.5" font-family="Helvetica,sans-Serif" font-size="10.00"> </text>
</a>
</g>
</g>
<!-- Node8&#45;&gt;Node10 -->
<g id="edge19" class="edge">
<title>Node8&#45;&gt;Node10</title>
<path fill="none" stroke="orange" d="M210.31,-1507.34C199.37,-1456.58 182,-1363.23 182,-1282.5 182,-1282.5 182,-1282.5 182,-765 182,-705.42 199.76,-637.84 211.9,-598.61"/>
<polygon fill="orange" stroke="orange" points="206.91,-1508.19 212.47,-1517.21 213.75,-1506.69 206.91,-1508.19"/>
<text text-anchor="start" x="182" y="-967.5" font-family="Helvetica,sans-Serif" font-size="10.00"> &lt; altintegration::btc</text>
<text text-anchor="middle" x="224.5" y="-956.5" font-family="Helvetica,sans-Serif" font-size="10.00">::TxIn &gt;</text>
</g>
<!-- Node8&#45;&gt;Node12 -->
<g id="edge15" class="edge">
<title>Node8&#45;&gt;Node12</title>
<path fill="none" stroke="orange" d="M271.17,-1531.27C335.45,-1511.6 443.31,-1469.08 502,-1393 550.31,-1330.37 584.75,-1087.85 596.02,-998.66"/>
<polygon fill="orange" stroke="orange" points="269.83,-1528.02 261.24,-1534.24 271.83,-1534.73 269.83,-1528.02"/>
<text text-anchor="start" x="569" y="-1284.5" font-family="Helvetica,sans-Serif" font-size="10.00"> &lt; std::vector&lt; uint8</text>
<text text-anchor="middle" x="611.5" y="-1273.5" font-family="Helvetica,sans-Serif" font-size="10.00">_t &gt; &gt;</text>
</g>
<!-- Node20 -->
<g id="node20" class="node">
<title>Node20</title>
<g id="a_node20"><a xlink:title=" ">
<polygon fill="white" stroke="#bfbfbf" points="629.5,-1094.5 629.5,-1151.5 742.5,-1151.5 742.5,-1094.5 629.5,-1094.5"/>
<text text-anchor="middle" x="686" y="-1139.5" font-family="Helvetica,sans-Serif" font-size="10.00">std::vector&lt; uint64_t &gt;</text>
<polyline fill="none" stroke="#bfbfbf" points="629.5,-1132.5 742.5,-1132.5 "/>
<text text-anchor="start" x="637.5" y="-1120.5" font-family="Helvetica,sans-Serif" font-size="10.00">+ elements</text>
<polyline fill="none" stroke="#bfbfbf" points="629.5,-1113.5 742.5,-1113.5 "/>
<text text-anchor="middle" x="686" y="-1101.5" font-family="Helvetica,sans-Serif" font-size="10.00"> </text>
</a>
</g>
</g>
<!-- Node8&#45;&gt;Node20 -->
<g id="edge28" class="edge">
<title>Node8&#45;&gt;Node20</title>
<path fill="none" stroke="orange" d="M271.13,-1544.7C366.82,-1541.01 569.25,-1517.99 663,-1393 717.28,-1320.63 702.79,-1204.49 692.37,-1151.71"/>
<polygon fill="orange" stroke="orange" points="270.98,-1541.2 261.11,-1545.03 271.22,-1548.2 270.98,-1541.2"/>
<text text-anchor="middle" x="673" y="-1414" font-family="Helvetica,sans-Serif" font-size="10.00"> &lt; uint64_t &gt;</text>
</g>
<!-- Node9 -->
<g id="node9" class="node">
<title>Node9</title>
<g id="a_node9"><a xlink:title=" ">
<polygon fill="white" stroke="#bfbfbf" points="204.5,-1699.5 204.5,-1756.5 233.5,-1756.5 233.5,-1699.5 204.5,-1699.5"/>
<text text-anchor="middle" x="219" y="-1744.5" font-family="Helvetica,sans-Serif" font-size="10.00">T</text>
<polyline fill="none" stroke="#bfbfbf" points="204.5,-1737.5 233.5,-1737.5 "/>
<text text-anchor="middle" x="219" y="-1725.5" font-family="Helvetica,sans-Serif" font-size="10.00"> </text>
<polyline fill="none" stroke="#bfbfbf" points="204.5,-1718.5 233.5,-1718.5 "/>
<text text-anchor="middle" x="219" y="-1706.5" font-family="Helvetica,sans-Serif" font-size="10.00"> </text>
</a>
</g>
</g>
<!-- Node9&#45;&gt;Node8 -->
<g id="edge8" class="edge">
<title>Node9&#45;&gt;Node8</title>
<path fill="none" stroke="#404040" d="M219,-1699.27C219,-1669.28 219,-1621.18 219,-1587.08"/>
<polygon fill="none" stroke="#404040" points="219,-1586.76 215,-1580.76 219,-1574.76 223,-1580.76 219,-1586.76"/>
<text text-anchor="middle" x="243.5" y="-1673" font-family="Helvetica,sans-Serif" font-size="10.00"> +elements</text>
</g>
<!-- Node10&#45;&gt;Node4 -->
<g id="edge10" class="edge">
<title>Node10&#45;&gt;Node4</title>
<path fill="none" stroke="#404040" d="M202.35,-530.23C195.39,-519.02 187.4,-506.14 179.55,-493.5"/>
<polygon fill="none" stroke="#404040" points="179.35,-493.17 172.78,-490.18 173.02,-482.98 179.58,-485.96 179.35,-493.17"/>
<text text-anchor="middle" x="201" y="-504" font-family="Helvetica,sans-Serif" font-size="10.00"> +vin</text>
</g>
<!-- Node11&#45;&gt;Node10 -->
<g id="edge11" class="edge">
<title>Node11&#45;&gt;Node10</title>
<path fill="none" stroke="#404040" d="M469.64,-726.3C416.25,-691.49 338.13,-640.56 284.19,-605.39"/>
<polygon fill="none" stroke="#404040" points="284.12,-605.35 276.91,-605.42 274.07,-598.8 281.28,-598.72 284.12,-605.35"/>
<text text-anchor="middle" x="463.5" y="-660" font-family="Helvetica,sans-Serif" font-size="10.00"> +elements</text>
</g>
<!-- Node12&#45;&gt;Node11 -->
<g id="edge13" class="edge">
<title>Node12&#45;&gt;Node11</title>
<path fill="none" stroke="#404040" d="M587.96,-930.17C576.76,-899.18 559.93,-852.59 547.11,-817.12"/>
<polygon fill="none" stroke="#404040" points="547.01,-816.85 541.21,-812.56 542.93,-805.56 548.73,-809.84 547.01,-816.85"/>
<text text-anchor="middle" x="586" y="-827" font-family="Helvetica,sans-Serif" font-size="10.00"> +scriptWitness</text>
</g>
<!-- Node13 -->
<g id="node13" class="node">
<title>Node13</title>
<g id="a_node13"><a xlink:href="structaltintegration_1_1btc_1_1OutPoint.html" target="_top" xlink:title="An outpoint &#45; a combination of a transaction hash and an index n into its vout.">
<polygon fill="white" stroke="black" points="714.5,-925 714.5,-1004 869.5,-1004 869.5,-925 714.5,-925"/>
<text text-anchor="start" x="722.5" y="-992" font-family="Helvetica,sans-Serif" font-size="10.00">altintegration::btc</text>
<text text-anchor="middle" x="792" y="-981" font-family="Helvetica,sans-Serif" font-size="10.00">::OutPoint</text>
<polyline fill="none" stroke="black" points="714.5,-974 869.5,-974 "/>
<text text-anchor="start" x="722.5" y="-962" font-family="Helvetica,sans-Serif" font-size="10.00">+ n</text>
<text text-anchor="start" x="722.5" y="-951" font-family="Helvetica,sans-Serif" font-size="10.00">+ ADD_SERIALIZE_METHODS</text>
<polyline fill="none" stroke="black" points="714.5,-944 869.5,-944 "/>
<text text-anchor="start" x="722.5" y="-932" font-family="Helvetica,sans-Serif" font-size="10.00">+ SerializationOp()</text>
</a>
</g>
</g>
<!-- Node13&#45;&gt;Node11 -->
<g id="edge16" class="edge">
<title>Node13&#45;&gt;Node11</title>
<path fill="none" stroke="#404040" d="M750.46,-924.91C726.38,-903.09 695.14,-875.72 666,-853 648.11,-839.05 643.07,-836.29 624,-824 617.79,-820 611.31,-815.92 604.78,-811.87"/>
<polygon fill="none" stroke="#404040" points="604.72,-811.83 597.51,-812.1 594.5,-805.55 601.7,-805.28 604.72,-811.83"/>
<text text-anchor="middle" x="661.5" y="-827" font-family="Helvetica,sans-Serif" font-size="10.00"> +prevout</text>
</g>
<!-- Node14 -->
<g id="node14" class="node">
<title>Node14</title>
<g id="a_node14"><a xlink:href="structaltintegration_1_1Blob.html" target="_top" xlink:title=" ">
<polygon fill="white" stroke="black" points="745.5,-1170.5 745.5,-1392.5 876.5,-1392.5 876.5,-1170.5 745.5,-1170.5"/>
<text text-anchor="start" x="753.5" y="-1380.5" font-family="Helvetica,sans-Serif" font-size="10.00">altintegration::Blob</text>
<text text-anchor="middle" x="811" y="-1369.5" font-family="Helvetica,sans-Serif" font-size="10.00">&lt; SHA256_HASH_SIZE &gt;</text>
<polyline fill="none" stroke="black" points="745.5,-1362.5 876.5,-1362.5 "/>
<text text-anchor="start" x="753.5" y="-1350.5" font-family="Helvetica,sans-Serif" font-size="10.00">+ data_</text>
<text text-anchor="start" x="753.5" y="-1339.5" font-family="Helvetica,sans-Serif" font-size="10.00">+ this</text>
<polyline fill="none" stroke="black" points="745.5,-1332.5 876.5,-1332.5 "/>
<text text-anchor="start" x="753.5" y="-1320.5" font-family="Helvetica,sans-Serif" font-size="10.00">+ Blob()</text>
<text text-anchor="start" x="753.5" y="-1309.5" font-family="Helvetica,sans-Serif" font-size="10.00">+ Blob()</text>
<text text-anchor="start" x="753.5" y="-1298.5" font-family="Helvetica,sans-Serif" font-size="10.00">+ Blob()</text>
<text text-anchor="start" x="753.5" y="-1287.5" font-family="Helvetica,sans-Serif" font-size="10.00">+ Blob()</text>
<text text-anchor="start" x="753.5" y="-1276.5" font-family="Helvetica,sans-Serif" font-size="10.00">+ Blob()</text>
<text text-anchor="start" x="753.5" y="-1265.5" font-family="Helvetica,sans-Serif" font-size="10.00">+ operator=()</text>
<text text-anchor="start" x="753.5" y="-1254.5" font-family="Helvetica,sans-Serif" font-size="10.00">+ operator=()</text>
<text text-anchor="start" x="753.5" y="-1243.5" font-family="Helvetica,sans-Serif" font-size="10.00">+ reverse()</text>
<text text-anchor="start" x="753.5" y="-1232.5" font-family="Helvetica,sans-Serif" font-size="10.00">+ operator~()</text>
<text text-anchor="start" x="753.5" y="-1221.5" font-family="Helvetica,sans-Serif" font-size="10.00">+ asVector()</text>
<text text-anchor="start" x="753.5" y="-1210.5" font-family="Helvetica,sans-Serif" font-size="10.00">+ asString()</text>
<text text-anchor="start" x="753.5" y="-1199.5" font-family="Helvetica,sans-Serif" font-size="10.00">+ operator[]()</text>
<text text-anchor="start" x="753.5" y="-1188.5" font-family="Helvetica,sans-Serif" font-size="10.00">+ operator[]()</text>
<text text-anchor="start" x="753.5" y="-1177.5" font-family="Helvetica,sans-Serif" font-size="10.00">+ compareTo()</text>
</a>
</g>
</g>
<!-- Node14&#45;&gt;Node13 -->
<g id="edge17" class="edge">
<title>Node14&#45;&gt;Node13</title>
<path fill="none" stroke="#404040" d="M804.35,-1170.33C801.19,-1117.8 797.55,-1057.53 795.05,-1016.04"/>
<polygon fill="none" stroke="#404040" points="795.05,-1016.03 790.69,-1010.29 794.33,-1004.06 798.68,-1009.8 795.05,-1016.03"/>
<text text-anchor="middle" x="819" y="-1120.5" font-family="Helvetica,sans-Serif" font-size="10.00"> +hash</text>
</g>
<!-- Node17 -->
<g id="node17" class="node">
<title>Node17</title>
<g id="a_node17"><a xlink:href="structaltintegration_1_1BtcBlock.html" target="_top" xlink:title="Bitcoin block.">
<polygon fill="white" stroke="black" points="888,-853.5 888,-1075.5 1004,-1075.5 1004,-853.5 888,-853.5"/>
<text text-anchor="middle" x="946" y="-1063.5" font-family="Helvetica,sans-Serif" font-size="10.00">altintegration::BtcBlock</text>
<polyline fill="none" stroke="black" points="888,-1056.5 1004,-1056.5 "/>
<text text-anchor="start" x="896" y="-1044.5" font-family="Helvetica,sans-Serif" font-size="10.00"># version</text>
<text text-anchor="start" x="896" y="-1033.5" font-family="Helvetica,sans-Serif" font-size="10.00"># timestamp</text>
<text text-anchor="start" x="896" y="-1022.5" font-family="Helvetica,sans-Serif" font-size="10.00"># bits</text>
<text text-anchor="start" x="896" y="-1011.5" font-family="Helvetica,sans-Serif" font-size="10.00"># nonce</text>
<polyline fill="none" stroke="black" points="888,-1004.5 1004,-1004.5 "/>
<text text-anchor="start" x="896" y="-992.5" font-family="Helvetica,sans-Serif" font-size="10.00">+ BtcBlock()</text>
<text text-anchor="start" x="896" y="-981.5" font-family="Helvetica,sans-Serif" font-size="10.00">+ BtcBlock()</text>
<text text-anchor="start" x="896" y="-970.5" font-family="Helvetica,sans-Serif" font-size="10.00">+ toRaw()</text>
<text text-anchor="start" x="896" y="-959.5" font-family="Helvetica,sans-Serif" font-size="10.00">+ toVbkEncoding()</text>
<text text-anchor="start" x="896" y="-948.5" font-family="Helvetica,sans-Serif" font-size="10.00">+ estimateSize()</text>
<text text-anchor="start" x="896" y="-937.5" font-family="Helvetica,sans-Serif" font-size="10.00">+ calculateHash()</text>
<text text-anchor="start" x="896" y="-926.5" font-family="Helvetica,sans-Serif" font-size="10.00">+ getHash()</text>
<text text-anchor="start" x="896" y="-915.5" font-family="Helvetica,sans-Serif" font-size="10.00">+ toPrettyString()</text>
<text text-anchor="start" x="896" y="-904.5" font-family="Helvetica,sans-Serif" font-size="10.00">+ getVersion()</text>
<text text-anchor="start" x="896" y="-893.5" font-family="Helvetica,sans-Serif" font-size="10.00">+ getPreviousBlock()</text>
<text text-anchor="start" x="896" y="-882.5" font-family="Helvetica,sans-Serif" font-size="10.00">and 10 more...</text>
<text text-anchor="start" x="896" y="-871.5" font-family="Helvetica,sans-Serif" font-size="10.00">+ name()</text>
<text text-anchor="start" x="896" y="-860.5" font-family="Helvetica,sans-Serif" font-size="10.00"># invalidateHash()</text>
</a>
</g>
</g>
<!-- Node14&#45;&gt;Node17 -->
<g id="edge24" class="edge">
<title>Node14&#45;&gt;Node17</title>
<path fill="none" stroke="#404040" d="M832.16,-1170.24C839.54,-1144.34 849.28,-1117.46 862,-1094 867.1,-1084.59 871.62,-1084.59 878,-1076 878.93,-1074.75 879.85,-1073.5 880.78,-1072.23"/>
<polygon fill="none" stroke="#404040" points="880.88,-1072.08 881.09,-1064.87 887.83,-1062.29 887.61,-1069.5 880.88,-1072.08"/>
<text text-anchor="middle" x="895.5" y="-1126" font-family="Helvetica,sans-Serif" font-size="10.00"> #merkleRoot</text>
<text text-anchor="middle" x="895.5" y="-1115" font-family="Helvetica,sans-Serif" font-size="10.00">#previousBlock</text>
</g>
<!-- Node15 -->
<g id="node15" class="node">
<title>Node15</title>
<g id="a_node15"><a xlink:href="structaltintegration_1_1Blob.html" target="_top" xlink:title="Contiguous byte array of fixed size.">
<polygon fill="white" stroke="black" points="796,-1440.5 796,-1651.5 916,-1651.5 916,-1440.5 796,-1440.5"/>
<text text-anchor="middle" x="856" y="-1639.5" font-family="Helvetica,sans-Serif" font-size="10.00">altintegration::Blob&lt; N &gt;</text>
<polyline fill="none" stroke="black" points="796,-1632.5 916,-1632.5 "/>
<text text-anchor="start" x="804" y="-1620.5" font-family="Helvetica,sans-Serif" font-size="10.00">+ data_</text>
<text text-anchor="start" x="804" y="-1609.5" font-family="Helvetica,sans-Serif" font-size="10.00">+ this</text>
<polyline fill="none" stroke="black" points="796,-1602.5 916,-1602.5 "/>
<text text-anchor="start" x="804" y="-1590.5" font-family="Helvetica,sans-Serif" font-size="10.00">+ Blob()</text>
<text text-anchor="start" x="804" y="-1579.5" font-family="Helvetica,sans-Serif" font-size="10.00">+ Blob()</text>
<text text-anchor="start" x="804" y="-1568.5" font-family="Helvetica,sans-Serif" font-size="10.00">+ Blob()</text>
<text text-anchor="start" x="804" y="-1557.5" font-family="Helvetica,sans-Serif" font-size="10.00">+ Blob()</text>
<text text-anchor="start" x="804" y="-1546.5" font-family="Helvetica,sans-Serif" font-size="10.00">+ Blob()</text>
<text text-anchor="start" x="804" y="-1535.5" font-family="Helvetica,sans-Serif" font-size="10.00">+ operator=()</text>
<text text-anchor="start" x="804" y="-1524.5" font-family="Helvetica,sans-Serif" font-size="10.00">+ operator=()</text>
<text text-anchor="start" x="804" y="-1513.5" font-family="Helvetica,sans-Serif" font-size="10.00">+ reverse()</text>
<text text-anchor="start" x="804" y="-1502.5" font-family="Helvetica,sans-Serif" font-size="10.00">+ operator~()</text>
<text text-anchor="start" x="804" y="-1491.5" font-family="Helvetica,sans-Serif" font-size="10.00">+ asVector()</text>
<text text-anchor="start" x="804" y="-1480.5" font-family="Helvetica,sans-Serif" font-size="10.00">+ asString()</text>
<text text-anchor="start" x="804" y="-1469.5" font-family="Helvetica,sans-Serif" font-size="10.00">+ operator[]()</text>
<text text-anchor="start" x="804" y="-1458.5" font-family="Helvetica,sans-Serif" font-size="10.00">+ operator[]()</text>
<text text-anchor="start" x="804" y="-1447.5" font-family="Helvetica,sans-Serif" font-size="10.00">+ compareTo()</text>
</a>
</g>
</g>
<!-- Node15&#45;&gt;Node14 -->
<g id="edge18" class="edge">
<title>Node15&#45;&gt;Node14</title>
<path fill="none" stroke="orange" d="M813.67,-1430.53C813.06,-1427.67 812.5,-1424.83 812,-1422 810.33,-1412.58 809.15,-1402.75 808.35,-1392.85"/>
<polygon fill="orange" stroke="orange" points="810.26,-1431.34 815.93,-1440.29 817.08,-1429.76 810.26,-1431.34"/>
<text text-anchor="middle" x="870.5" y="-1414" font-family="Helvetica,sans-Serif" font-size="10.00"> &lt; SHA256_HASH_SIZE &gt;</text>
</g>
<!-- Node15&#45;&gt;Node17 -->
<g id="edge23" class="edge">
<title>Node15&#45;&gt;Node17</title>
<path fill="none" stroke="#404040" d="M916.1,-1454.95C921.25,-1444.19 925.74,-1433.08 929,-1422 946.74,-1361.76 949.04,-1201.38 948.21,-1087.79"/>
<polygon fill="none" stroke="#404040" points="948.21,-1087.56 944.16,-1081.6 948.11,-1075.56 952.16,-1081.53 948.21,-1087.56"/>
<text text-anchor="middle" x="966" y="-1279" font-family="Helvetica,sans-Serif" font-size="10.00"> #hash_</text>
</g>
<!-- Node16 -->
<g id="node16" class="node">
<title>Node16</title>
<g id="a_node16"><a xlink:href="structaltintegration_1_1btc_1_1BlockHeader.html" target="_top" xlink:title=" ">
<polygon fill="white" stroke="black" points="719.5,-617.5 719.5,-707.5 874.5,-707.5 874.5,-617.5 719.5,-617.5"/>
<text text-anchor="start" x="727.5" y="-695.5" font-family="Helvetica,sans-Serif" font-size="10.00">altintegration::btc</text>
<text text-anchor="middle" x="797" y="-684.5" font-family="Helvetica,sans-Serif" font-size="10.00">::BlockHeader</text>
<polyline fill="none" stroke="black" points="719.5,-677.5 874.5,-677.5 "/>
<text text-anchor="start" x="727.5" y="-665.5" font-family="Helvetica,sans-Serif" font-size="10.00">+ ADD_SERIALIZE_METHODS</text>
<polyline fill="none" stroke="black" points="719.5,-658.5 874.5,-658.5 "/>
<text text-anchor="start" x="727.5" y="-646.5" font-family="Helvetica,sans-Serif" font-size="10.00">+ BlockHeader()</text>
<text text-anchor="start" x="727.5" y="-635.5" font-family="Helvetica,sans-Serif" font-size="10.00">+ BlockHeader()</text>
<text text-anchor="start" x="727.5" y="-624.5" font-family="Helvetica,sans-Serif" font-size="10.00">+ SerializationOp()</text>
</a>
</g>
</g>
<!-- Node16&#45;&gt;Node1 -->
<g id="edge21" class="edge">
<title>Node16&#45;&gt;Node1</title>
<path fill="none" stroke="#404040" d="M786.84,-617.28C780.68,-586.64 774,-544.81 774,-507.5 774,-507.5 774,-507.5 774,-171.5 774,-145.15 760.77,-120.44 744.56,-100.06"/>
<polygon fill="none" stroke="#404040" points="744.42,-99.89 737.49,-97.88 736.68,-90.71 743.61,-92.72 744.42,-99.89"/>
<text text-anchor="middle" x="793" y="-355" font-family="Helvetica,sans-Serif" font-size="10.00"> +header</text>
</g>
<!-- Node17&#45;&gt;Node16 -->
<g id="edge22" class="edge">
<title>Node17&#45;&gt;Node16</title>
<path fill="none" stroke="midnightblue" d="M886.78,-844.26C862.89,-796.16 836.81,-743.65 818.94,-707.68"/>
<polygon fill="none" stroke="midnightblue" points="883.78,-846.1 891.36,-853.49 890.05,-842.98 883.78,-846.1"/>
</g>
<!-- Node18 -->
<g id="node18" class="node">
<title>Node18</title>
<g id="a_node18"><a xlink:title=" ">
<polygon fill="white" stroke="#bfbfbf" points="995.5,-1253 995.5,-1310 1054.5,-1310 1054.5,-1253 995.5,-1253"/>
<text text-anchor="middle" x="1025" y="-1298" font-family="Helvetica,sans-Serif" font-size="10.00">std::string</text>
<polyline fill="none" stroke="#bfbfbf" points="995.5,-1291 1054.5,-1291 "/>
<text text-anchor="middle" x="1025" y="-1279" font-family="Helvetica,sans-Serif" font-size="10.00"> </text>
<polyline fill="none" stroke="#bfbfbf" points="995.5,-1272 1054.5,-1272 "/>
<text text-anchor="middle" x="1025" y="-1260" font-family="Helvetica,sans-Serif" font-size="10.00"> </text>
</a>
</g>
</g>
<!-- Node18&#45;&gt;Node17 -->
<g id="edge25" class="edge">
<title>Node18&#45;&gt;Node17</title>
<path fill="none" stroke="#404040" d="M1018.06,-1252.82C1008.79,-1215.88 991.79,-1148.07 976.62,-1087.6"/>
<polygon fill="none" stroke="#404040" points="976.54,-1087.26 971.2,-1082.41 973.62,-1075.62 978.96,-1080.46 976.54,-1087.26"/>
<text text-anchor="middle" x="1011.5" y="-1120.5" font-family="Helvetica,sans-Serif" font-size="10.00"> #_name</text>
</g>
<!-- Node19 -->
<g id="node19" class="node">
<title>Node19</title>
<g id="a_node19"><a xlink:title=" ">
<polygon fill="white" stroke="#bfbfbf" points="978.5,-1512 978.5,-1580 1071.5,-1580 1071.5,-1512 978.5,-1512"/>
<text text-anchor="start" x="986.5" y="-1568" font-family="Helvetica,sans-Serif" font-size="10.00">std::basic_string&lt;</text>
<text text-anchor="middle" x="1025" y="-1557" font-family="Helvetica,sans-Serif" font-size="10.00"> Char &gt;</text>
<polyline fill="none" stroke="#bfbfbf" points="978.5,-1550 1071.5,-1550 "/>
<text text-anchor="middle" x="1025" y="-1538" font-family="Helvetica,sans-Serif" font-size="10.00"> </text>
<polyline fill="none" stroke="#bfbfbf" points="978.5,-1531 1071.5,-1531 "/>
<text text-anchor="middle" x="1025" y="-1519" font-family="Helvetica,sans-Serif" font-size="10.00"> </text>
</a>
</g>
</g>
<!-- Node19&#45;&gt;Node18 -->
<g id="edge26" class="edge">
<title>Node19&#45;&gt;Node18</title>
<path fill="none" stroke="midnightblue" d="M1025,-1501.75C1025,-1447.49 1025,-1356.02 1025,-1310.29"/>
<polygon fill="none" stroke="midnightblue" points="1021.5,-1501.75 1025,-1511.75 1028.5,-1501.75 1021.5,-1501.75"/>
</g>
<!-- Node20&#45;&gt;Node1 -->
<g id="edge27" class="edge">
<title>Node20&#45;&gt;Node1</title>
<path fill="none" stroke="#404040" d="M686,-1094.27C686,-1042.45 686,-927.41 686,-830.5 686,-830.5 686,-830.5 686,-171.5 686,-149.1 686,-124.43 686,-102.98"/>
<polygon fill="none" stroke="#404040" points="686,-102.76 682,-96.76 686,-90.76 690,-96.76 686,-102.76"/>
<text text-anchor="middle" x="711.5" y="-504" font-family="Helvetica,sans-Serif" font-size="10.00"> +shorttxids</text>
</g>
</g>
</svg>
        <g id="navigator" transform="translate(0 0)" fill="#404254">
                <rect fill="#f2f5e9" fill-opacity="0.5" stroke="#606060" stroke-width=".5" x="0" y="0" width="60" height="60"/>
                <use id="zoomplus" xlink:href="#zoomPlus" x="17" y="9" onmousedown="handleZoom(evt,'in')"/>
                <use id="zoomminus" xlink:href="#zoomMin" x="42" y="9" onmousedown="handleZoom(evt,'out')"/>
                <use id="reset" xlink:href="#resetDef" x="30" y="36" onmousedown="handleReset()"/>
                <g id="arrowUp" xlink:href="#dirArrow" transform="translate(30 24)" onmousedown="handlePan(0,-1)">
                  <use xlink:href="#rim" fill="#404040">
                        <set attributeName="fill" to="#808080" begin="arrowUp.mouseover" end="arrowUp.mouseout"/>
                  </use>
                  <path fill="none" stroke="white" stroke-width="1.5" d="M0,-3.0v7 M-2.5,-0.5L0,-3.0L2.5,-0.5"/>
                </g>
                <g id="arrowRight" xlink:href="#dirArrow" transform="rotate(90) translate(36 -43)" onmousedown="handlePan(1,0)">
                  <use xlink:href="#rim" fill="#404040">
                        <set attributeName="fill" to="#808080" begin="arrowRight.mouseover" end="arrowRight.mouseout"/>
                  </use>
                  <path fill="none" stroke="white" stroke-width="1.5" d="M0,-3.0v7 M-2.5,-0.5L0,-3.0L2.5,-0.5"/>
                </g>
                <g id="arrowDown" xlink:href="#dirArrow" transform="rotate(180) translate(-30 -48)" onmousedown="handlePan(0,1)">
                  <use xlink:href="#rim" fill="#404040">
                        <set attributeName="fill" to="#808080" begin="arrowDown.mouseover" end="arrowDown.mouseout"/>
                  </use>
                  <path fill="none" stroke="white" stroke-width="1.5" d="M0,-3.0v7 M-2.5,-0.5L0,-3.0L2.5,-0.5"/>
                </g>
                <g id="arrowLeft" xlink:href="#dirArrow" transform="rotate(270) translate(-36 17)" onmousedown="handlePan(-1,0)">
                  <use xlink:href="#rim" fill="#404040">
                        <set attributeName="fill" to="#808080" begin="arrowLeft.mouseover" end="arrowLeft.mouseout"/>
                  </use>
                  <path fill="none" stroke="white" stroke-width="1.5" d="M0,-3.0v7 M-2.5,-0.5L0,-3.0L2.5,-0.5"/>
                </g>
        </g>
        <svg viewBox="0 0 15 15" width="100%" height="30px" preserveAspectRatio="xMaxYMin meet">
         <g id="arrow_out" transform="scale(0.3 0.3)">
          <a xlink:href="structaltintegration_1_1btc_1_1BlockHeaderAndShortTxIDs__coll__graph_org.svg" target="_base">
           <rect id="button" ry="5" rx="5" y="6" x="6" height="38" width="38"
                fill="#f2f5e9" fill-opacity="0.5" stroke="#606060" stroke-width="1.0"/>
           <path id="arrow"
             d="M 11.500037,31.436501 C 11.940474,20.09759 22.043105,11.32322 32.158766,21.979434 L 37.068811,17.246167 C 37.068811,17.246167 37.088388,32 37.088388,32 L 22.160133,31.978069 C 22.160133,31.978069 26.997745,27.140456 26.997745,27.140456 C 18.528582,18.264221 13.291696,25.230495 11.500037,31.436501 z"
             style="fill:#404040;"/>
          </a>
         </g>
        </svg>
</svg>
