<?xml version="1.0" encoding="UTF-8" standalone="no"?>
<!DOCTYPE svg PUBLIC "-//W3C//DTD SVG 1.1//EN"
 "http://www.w3.org/Graphics/SVG/1.1/DTD/svg11.dtd">
<!-- Generated by graphviz version 2.44.0 ()
 -->
<!-- Title: altintegration::btc::GetBlockTxnMsg Pages: 1 -->
<svg width="322pt" height="827pt"
 viewBox="0.00 0.00 321.50 827.00" xmlns="http://www.w3.org/2000/svg" xmlns:xlink="http://www.w3.org/1999/xlink">
<g id="graph0" class="graph" transform="scale(1 1) rotate(0) translate(4 823)">
<title>altintegration::btc::GetBlockTxnMsg</title>
<polygon fill="white" stroke="transparent" points="-4,4 -4,-823 317.5,-823 317.5,4 -4,4"/>
<!-- Node1 -->
<g id="node1" class="node">
<title>Node1</title>
<g id="a_node1"><a xlink:title=" ">
<polygon fill="#bfbfbf" stroke="black" points="48,-0.5 48,-68.5 203,-68.5 203,-0.5 48,-0.5"/>
<text text-anchor="start" x="56" y="-56.5" font-family="Helvetica,sans-Serif" font-size="10.00">altintegration::btc</text>
<text text-anchor="middle" x="125.5" y="-45.5" font-family="Helvetica,sans-Serif" font-size="10.00">::GetBlockTxnMsg</text>
<polyline fill="none" stroke="black" points="48,-38.5 203,-38.5 "/>
<text text-anchor="start" x="56" y="-26.5" font-family="Helvetica,sans-Serif" font-size="10.00">+ ADD_SERIALIZE_METHODS</text>
<polyline fill="none" stroke="black" points="48,-19.5 203,-19.5 "/>
<text text-anchor="start" x="56" y="-7.5" font-family="Helvetica,sans-Serif" font-size="10.00">+ SerializationOp()</text>
</a>
</g>
</g>
<!-- Node2 -->
<g id="node2" class="node">
<title>Node2</title>
<g id="a_node2"><a xlink:href="structaltintegration_1_1btc_1_1BlockTransactionsRequest.html" target="_top" xlink:title=" ">
<polygon fill="white" stroke="black" points="48,-116.5 48,-184.5 203,-184.5 203,-116.5 48,-116.5"/>
<text text-anchor="start" x="56" y="-172.5" font-family="Helvetica,sans-Serif" font-size="10.00">altintegration::btc</text>
<text text-anchor="middle" x="125.5" y="-161.5" font-family="Helvetica,sans-Serif" font-size="10.00">::BlockTransactionsRequest</text>
<polyline fill="none" stroke="black" points="48,-154.5 203,-154.5 "/>
<text text-anchor="start" x="56" y="-142.5" font-family="Helvetica,sans-Serif" font-size="10.00">+ ADD_SERIALIZE_METHODS</text>
<polyline fill="none" stroke="black" points="48,-135.5 203,-135.5 "/>
<text text-anchor="start" x="56" y="-123.5" font-family="Helvetica,sans-Serif" font-size="10.00">+ SerializationOp()</text>
</a>
</g>
</g>
<!-- Node2&#45;&gt;Node1 -->
<g id="edge1" class="edge">
<title>Node2&#45;&gt;Node1</title>
<path fill="none" stroke="#404040" d="M125.5,-116.22C125.5,-105.1 125.5,-92.51 125.5,-80.64"/>
<polygon fill="none" stroke="#404040" points="125.5,-80.62 121.5,-74.62 125.5,-68.62 129.5,-74.62 125.5,-80.62"/>
<text text-anchor="middle" x="136.5" y="-90" font-family="Helvetica,sans-Serif" font-size="10.00"> +req</text>
</g>
<!-- Node3 -->
<g id="node3" class="node">
<title>Node3</title>
<g id="a_node3"><a xlink:title=" ">
<polygon fill="white" stroke="#bfbfbf" points="0,-315 0,-372 113,-372 113,-315 0,-315"/>
<text text-anchor="middle" x="56.5" y="-360" font-family="Helvetica,sans-Serif" font-size="10.00">std::vector&lt; uint16_t &gt;</text>
<polyline fill="none" stroke="#bfbfbf" points="0,-353 113,-353 "/>
<text text-anchor="start" x="8" y="-341" font-family="Helvetica,sans-Serif" font-size="10.00">+ elements</text>
<polyline fill="none" stroke="#bfbfbf" points="0,-334 113,-334 "/>
<text text-anchor="middle" x="56.5" y="-322" font-family="Helvetica,sans-Serif" font-size="10.00"> </text>
</a>
</g>
</g>
<!-- Node3&#45;&gt;Node2 -->
<g id="edge2" class="edge">
<title>Node3&#45;&gt;Node2</title>
<path fill="none" stroke="#404040" d="M66.53,-314.73C77.76,-283.64 96.12,-232.82 109.37,-196.14"/>
<polygon fill="none" stroke="#404040" points="109.4,-196.05 107.68,-189.05 113.48,-184.77 115.2,-191.77 109.4,-196.05"/>
<text text-anchor="middle" x="126.5" y="-206" font-family="Helvetica,sans-Serif" font-size="10.00"> +indexes</text>
</g>
<!-- Node4 -->
<g id="node4" class="node">
<title>Node4</title>
<g id="a_node4"><a xlink:title=" ">
<polygon fill="white" stroke="#bfbfbf" points="14.5,-579.5 14.5,-636.5 98.5,-636.5 98.5,-579.5 14.5,-579.5"/>
<text text-anchor="middle" x="56.5" y="-624.5" font-family="Helvetica,sans-Serif" font-size="10.00">std::vector&lt; T &gt;</text>
<polyline fill="none" stroke="#bfbfbf" points="14.5,-617.5 98.5,-617.5 "/>
<text text-anchor="middle" x="56.5" y="-605.5" font-family="Helvetica,sans-Serif" font-size="10.00"> </text>
<polyline fill="none" stroke="#bfbfbf" points="14.5,-598.5 98.5,-598.5 "/>
<text text-anchor="middle" x="56.5" y="-586.5" font-family="Helvetica,sans-Serif" font-size="10.00"> </text>
</a>
</g>
</g>
<!-- Node4&#45;&gt;Node3 -->
<g id="edge3" class="edge">
<title>Node4&#45;&gt;Node3</title>
<path fill="none" stroke="orange" d="M56.5,-569.32C56.5,-515.9 56.5,-419.4 56.5,-372.12"/>
<polygon fill="orange" stroke="orange" points="53,-569.4 56.5,-579.4 60,-569.4 53,-569.4"/>
<text text-anchor="middle" x="83.5" y="-476" font-family="Helvetica,sans-Serif" font-size="10.00"> &lt; uint16_t &gt;</text>
</g>
<!-- Node5 -->
<g id="node5" class="node">
<title>Node5</title>
<g id="a_node5"><a xlink:title=" ">
<polygon fill="white" stroke="#bfbfbf" points="42,-761.5 42,-818.5 71,-818.5 71,-761.5 42,-761.5"/>
<text text-anchor="middle" x="56.5" y="-806.5" font-family="Helvetica,sans-Serif" font-size="10.00">T</text>
<polyline fill="none" stroke="#bfbfbf" points="42,-799.5 71,-799.5 "/>
<text text-anchor="middle" x="56.5" y="-787.5" font-family="Helvetica,sans-Serif" font-size="10.00"> </text>
<polyline fill="none" stroke="#bfbfbf" points="42,-780.5 71,-780.5 "/>
<text text-anchor="middle" x="56.5" y="-768.5" font-family="Helvetica,sans-Serif" font-size="10.00"> </text>
</a>
</g>
</g>
<!-- Node5&#45;&gt;Node4 -->
<g id="edge4" class="edge">
<title>Node5&#45;&gt;Node4</title>
<path fill="none" stroke="#404040" d="M56.5,-761.27C56.5,-731.28 56.5,-683.18 56.5,-649.08"/>
<polygon fill="none" stroke="#404040" points="56.5,-648.76 52.5,-642.76 56.5,-636.76 60.5,-642.76 56.5,-648.76"/>
<text text-anchor="middle" x="81" y="-735" font-family="Helvetica,sans-Serif" font-size="10.00"> +elements</text>
</g>
<!-- Node6 -->
<g id="node6" class="node">
<title>Node6</title>
<g id="a_node6"><a xlink:href="structaltintegration_1_1Blob.html" target="_top" xlink:title=" ">
<polygon fill="white" stroke="black" points="131,-232.5 131,-454.5 262,-454.5 262,-232.5 131,-232.5"/>
<text text-anchor="start" x="139" y="-442.5" font-family="Helvetica,sans-Serif" font-size="10.00">altintegration::Blob</text>
<text text-anchor="middle" x="196.5" y="-431.5" font-family="Helvetica,sans-Serif" font-size="10.00">&lt; SHA256_HASH_SIZE &gt;</text>
<polyline fill="none" stroke="black" points="131,-424.5 262,-424.5 "/>
<text text-anchor="start" x="139" y="-412.5" font-family="Helvetica,sans-Serif" font-size="10.00">+ data_</text>
<text text-anchor="start" x="139" y="-401.5" font-family="Helvetica,sans-Serif" font-size="10.00">+ this</text>
<polyline fill="none" stroke="black" points="131,-394.5 262,-394.5 "/>
<text text-anchor="start" x="139" y="-382.5" font-family="Helvetica,sans-Serif" font-size="10.00">+ Blob()</text>
<text text-anchor="start" x="139" y="-371.5" font-family="Helvetica,sans-Serif" font-size="10.00">+ Blob()</text>
<text text-anchor="start" x="139" y="-360.5" font-family="Helvetica,sans-Serif" font-size="10.00">+ Blob()</text>
<text text-anchor="start" x="139" y="-349.5" font-family="Helvetica,sans-Serif" font-size="10.00">+ Blob()</text>
<text text-anchor="start" x="139" y="-338.5" font-family="Helvetica,sans-Serif" font-size="10.00">+ Blob()</text>
<text text-anchor="start" x="139" y="-327.5" font-family="Helvetica,sans-Serif" font-size="10.00">+ operator=()</text>
<text text-anchor="start" x="139" y="-316.5" font-family="Helvetica,sans-Serif" font-size="10.00">+ operator=()</text>
<text text-anchor="start" x="139" y="-305.5" font-family="Helvetica,sans-Serif" font-size="10.00">+ reverse()</text>
<text text-anchor="start" x="139" y="-294.5" font-family="Helvetica,sans-Serif" font-size="10.00">+ operator~()</text>
<text text-anchor="start" x="139" y="-283.5" font-family="Helvetica,sans-Serif" font-size="10.00">+ asVector()</text>
<text text-anchor="start" x="139" y="-272.5" font-family="Helvetica,sans-Serif" font-size="10.00">+ asString()</text>
<text text-anchor="start" x="139" y="-261.5" font-family="Helvetica,sans-Serif" font-size="10.00">+ operator[]()</text>
<text text-anchor="start" x="139" y="-250.5" font-family="Helvetica,sans-Serif" font-size="10.00">+ operator[]()</text>
<text text-anchor="start" x="139" y="-239.5" font-family="Helvetica,sans-Serif" font-size="10.00">+ compareTo()</text>
</a>
</g>
</g>
<!-- Node6&#45;&gt;Node2 -->
<g id="edge5" class="edge">
<title>Node6&#45;&gt;Node2</title>
<path fill="none" stroke="#404040" d="M162.71,-232.26C159.13,-222.29 155.37,-212.42 151.5,-203 150.5,-200.55 149.42,-198.06 148.3,-195.57"/>
<polygon fill="none" stroke="#404040" points="148.29,-195.53 142.12,-191.8 143.19,-184.67 149.36,-188.4 148.29,-195.53"/>
<text text-anchor="middle" x="181" y="-206" font-family="Helvetica,sans-Serif" font-size="10.00"> +blockhash</text>
</g>
<!-- Node7 -->
<g id="node7" class="node">
<title>Node7</title>
<g id="a_node7"><a xlink:href="structaltintegration_1_1Blob.html" target="_top" xlink:title="Contiguous byte array of fixed size.">
<polygon fill="white" stroke="black" points="136.5,-502.5 136.5,-713.5 256.5,-713.5 256.5,-502.5 136.5,-502.5"/>
<text text-anchor="middle" x="196.5" y="-701.5" font-family="Helvetica,sans-Serif" font-size="10.00">altintegration::Blob&lt; N &gt;</text>
<polyline fill="none" stroke="black" points="136.5,-694.5 256.5,-694.5 "/>
<text text-anchor="start" x="144.5" y="-682.5" font-family="Helvetica,sans-Serif" font-size="10.00">+ data_</text>
<text text-anchor="start" x="144.5" y="-671.5" font-family="Helvetica,sans-Serif" font-size="10.00">+ this</text>
<polyline fill="none" stroke="black" points="136.5,-664.5 256.5,-664.5 "/>
<text text-anchor="start" x="144.5" y="-652.5" font-family="Helvetica,sans-Serif" font-size="10.00">+ Blob()</text>
<text text-anchor="start" x="144.5" y="-641.5" font-family="Helvetica,sans-Serif" font-size="10.00">+ Blob()</text>
<text text-anchor="start" x="144.5" y="-630.5" font-family="Helvetica,sans-Serif" font-size="10.00">+ Blob()</text>
<text text-anchor="start" x="144.5" y="-619.5" font-family="Helvetica,sans-Serif" font-size="10.00">+ Blob()</text>
<text text-anchor="start" x="144.5" y="-608.5" font-family="Helvetica,sans-Serif" font-size="10.00">+ Blob()</text>
<text text-anchor="start" x="144.5" y="-597.5" font-family="Helvetica,sans-Serif" font-size="10.00">+ operator=()</text>
<text text-anchor="start" x="144.5" y="-586.5" font-family="Helvetica,sans-Serif" font-size="10.00">+ operator=()</text>
<text text-anchor="start" x="144.5" y="-575.5" font-family="Helvetica,sans-Serif" font-size="10.00">+ reverse()</text>
<text text-anchor="start" x="144.5" y="-564.5" font-family="Helvetica,sans-Serif" font-size="10.00">+ operator~()</text>
<text text-anchor="start" x="144.5" y="-553.5" font-family="Helvetica,sans-Serif" font-size="10.00">+ asVector()</text>
<text text-anchor="start" x="144.5" y="-542.5" font-family="Helvetica,sans-Serif" font-size="10.00">+ asString()</text>
<text text-anchor="start" x="144.5" y="-531.5" font-family="Helvetica,sans-Serif" font-size="10.00">+ operator[]()</text>
<text text-anchor="start" x="144.5" y="-520.5" font-family="Helvetica,sans-Serif" font-size="10.00">+ operator[]()</text>
<text text-anchor="start" x="144.5" y="-509.5" font-family="Helvetica,sans-Serif" font-size="10.00">+ compareTo()</text>
</a>
</g>
</g>
<!-- Node7&#45;&gt;Node6 -->
<g id="edge6" class="edge">
<title>Node7&#45;&gt;Node6</title>
<path fill="none" stroke="orange" d="M196.5,-492.48C196.5,-479.93 196.5,-467.17 196.5,-454.67"/>
<polygon fill="orange" stroke="orange" points="193,-492.5 196.5,-502.5 200,-492.5 193,-492.5"/>
<text text-anchor="middle" x="255" y="-476" font-family="Helvetica,sans-Serif" font-size="10.00"> &lt; SHA256_HASH_SIZE &gt;</text>
</g>
</g>
</svg>
