<?xml version="1.0" encoding="UTF-8" standalone="no"?>
<!DOCTYPE svg PUBLIC "-//W3C//DTD SVG 1.1//EN"
 "http://www.w3.org/Graphics/SVG/1.1/DTD/svg11.dtd">
<!-- Generated by graphviz version 3.0.0 (20220413.0106)
 -->
<!-- Title: altintegration::StorageIOException Pages: 1 -->
<svg width="171pt" height="348pt"
 viewBox="0.00 0.00 171.00 348.00" xmlns="http://www.w3.org/2000/svg" xmlns:xlink="http://www.w3.org/1999/xlink">
<g id="graph0" class="graph" transform="scale(1 1) rotate(0) translate(4 344)">
<title>altintegration::StorageIOException</title>
<polygon fill="white" stroke="transparent" points="-4,4 -4,-344 167,-344 167,4 -4,4"/>
<!-- Node1 -->
<g id="node1" class="node">
<title>Node1</title>
<g id="a_node1"><a xlink:title="exception which is thrown on any IO errors.">
<polygon fill="#bfbfbf" stroke="black" points="0,-0.5 0,-57.5 163,-57.5 163,-0.5 0,-0.5"/>
<text text-anchor="middle" x="81.5" y="-45.5" font-family="Helvetica,sans-Serif" font-size="10.00">altintegration::StorageIOException</text>
<polyline fill="none" stroke="black" points="0,-38.5 163,-38.5 "/>
<text text-anchor="middle" x="81.5" y="-26.5" font-family="Helvetica,sans-Serif" font-size="10.00"> </text>
<polyline fill="none" stroke="black" points="0,-19.5 163,-19.5 "/>
<text text-anchor="start" x="8" y="-7.5" font-family="Helvetica,sans-Serif" font-size="10.00">+ StorageIOException()</text>
</a>
</g>
</g>
<!-- Node2 -->
<g id="node2" class="node">
<title>Node2</title>
<g id="a_node2"><a xlink:title=" ">
<polygon fill="white" stroke="black" points="36,-94.5 36,-151.5 127,-151.5 127,-94.5 36,-94.5"/>
<text text-anchor="middle" x="81.5" y="-139.5" font-family="Helvetica,sans-Serif" font-size="10.00">std::domain_error</text>
<polyline fill="none" stroke="black" points="36,-132.5 127,-132.5 "/>
<text text-anchor="middle" x="81.5" y="-120.5" font-family="Helvetica,sans-Serif" font-size="10.00"> </text>
<polyline fill="none" stroke="black" points="36,-113.5 127,-113.5 "/>
<text text-anchor="middle" x="81.5" y="-101.5" font-family="Helvetica,sans-Serif" font-size="10.00"> </text>
</a>
</g>
</g>
<!-- Node2&#45;&gt;Node1 -->
<g id="edge1" class="edge">
<title>Node2&#45;&gt;Node1</title>
<path fill="none" stroke="midnightblue" d="M81.5,-84.21C81.5,-75.29 81.5,-65.95 81.5,-57.58"/>
<polygon fill="none" stroke="midnightblue" points="78,-84.4 81.5,-94.4 85,-84.4 78,-84.4"/>
</g>
<!-- Node3 -->
<g id="node3" class="node">
<title>Node3</title>
<g id="a_node3"><a xlink:title=" ">
<polygon fill="white" stroke="black" points="41.5,-188.5 41.5,-245.5 121.5,-245.5 121.5,-188.5 41.5,-188.5"/>
<text text-anchor="middle" x="81.5" y="-233.5" font-family="Helvetica,sans-Serif" font-size="10.00">std::logic_error</text>
<polyline fill="none" stroke="black" points="41.5,-226.5 121.5,-226.5 "/>
<text text-anchor="middle" x="81.5" y="-214.5" font-family="Helvetica,sans-Serif" font-size="10.00"> </text>
<polyline fill="none" stroke="black" points="41.5,-207.5 121.5,-207.5 "/>
<text text-anchor="middle" x="81.5" y="-195.5" font-family="Helvetica,sans-Serif" font-size="10.00"> </text>
</a>
</g>
</g>
<!-- Node3&#45;&gt;Node2 -->
<g id="edge2" class="edge">
<title>Node3&#45;&gt;Node2</title>
<path fill="none" stroke="midnightblue" d="M81.5,-178.21C81.5,-169.29 81.5,-159.95 81.5,-151.58"/>
<polygon fill="none" stroke="midnightblue" points="78,-178.4 81.5,-188.4 85,-178.4 78,-178.4"/>
</g>
<!-- Node4 -->
<g id="node4" class="node">
<title>Node4</title>
<g id="a_node4"><a xlink:title=" ">
<polygon fill="white" stroke="black" points="43.5,-282.5 43.5,-339.5 119.5,-339.5 119.5,-282.5 43.5,-282.5"/>
<text text-anchor="middle" x="81.5" y="-327.5" font-family="Helvetica,sans-Serif" font-size="10.00">std::exception</text>
<polyline fill="none" stroke="black" points="43.5,-320.5 119.5,-320.5 "/>
<text text-anchor="middle" x="81.5" y="-308.5" font-family="Helvetica,sans-Serif" font-size="10.00"> </text>
<polyline fill="none" stroke="black" points="43.5,-301.5 119.5,-301.5 "/>
<text text-anchor="middle" x="81.5" y="-289.5" font-family="Helvetica,sans-Serif" font-size="10.00"> </text>
</a>
</g>
</g>
<!-- Node4&#45;&gt;Node3 -->
<g id="edge3" class="edge">
<title>Node4&#45;&gt;Node3</title>
<path fill="none" stroke="midnightblue" d="M81.5,-272.21C81.5,-263.29 81.5,-253.95 81.5,-245.58"/>
<polygon fill="none" stroke="midnightblue" points="78,-272.4 81.5,-282.4 85,-272.4 78,-272.4"/>
</g>
</g>
</svg>
