<?xml version="1.0" encoding="UTF-8" standalone="no"?>
<!DOCTYPE svg PUBLIC "-//W3C//DTD SVG 1.1//EN"
 "http://www.w3.org/Graphics/SVG/1.1/DTD/svg11.dtd">
<!-- Generated by graphviz version 2.50.0 (20220203.2022)
 -->
<!-- Title: altintegration::AltBlockTree Pages: 1 -->
<!--zoomable 1754 -->
<svg id="main" version="1.1" xmlns="http://www.w3.org/2000/svg" xmlns:xlink="http://www.w3.org/1999/xlink" xml:space="preserve" onload="init(evt)">
<style type="text/css"><![CDATA[
.edge:hover path { stroke: red; }
.edge:hover polygon { stroke: red; fill: red; }
]]></style>
<script type="text/javascript"><![CDATA[
var edges = document.getElementsByTagName('g');
if (edges && edges.length) {
  for (var i=0;i<edges.length;i++) {
    if (edges[i].id.substr(0,4)=='edge') {
      edges[i].setAttribute('class','edge');
    }
  }
}
]]></script>
        <defs>
                <circle id="rim" cx="0" cy="0" r="7"/>
                <circle id="rim2" cx="0" cy="0" r="3.5"/>
                <g id="zoomPlus">
                        <use xlink:href="#rim" fill="#404040">
                                <set attributeName="fill" to="#808080" begin="zoomplus.mouseover" end="zoomplus.mouseout"/>
                        </use>
                        <path d="M-4,0h8M0,-4v8" fill="none" stroke="white" stroke-width="1.5" pointer-events="none"/>
                </g>
                <g id="zoomMin">
                        <use xlink:href="#rim" fill="#404040">
                                <set attributeName="fill" to="#808080" begin="zoomminus.mouseover" end="zoomminus.mouseout"/>
                        </use>
                        <path d="M-4,0h8" fill="none" stroke="white" stroke-width="1.5" pointer-events="none"/>
                </g>
                <g id="dirArrow">
                        <path fill="none" stroke="white" stroke-width="1.5" d="M0,-3.0v7 M-2.5,-0.5L0,-3.0L2.5,-0.5"/>
                </g>
               <g id="resetDef">
                       <use xlink:href="#rim2" fill="#404040">
                               <set attributeName="fill" to="#808080" begin="reset.mouseover" end="reset.mouseout"/>
                       </use>
               </g>
        </defs>

<script type="text/javascript">
var viewWidth = 861;
var viewHeight = 1754;
var sectionId = 'dynsection-1';
</script>
<script xlink:href="svgpan.js"/>
<svg id="graph" class="graph">
<g id="viewport">
<title>altintegration::AltBlockTree</title>
<polygon fill="white" stroke="transparent" points="-4,4 -4,-1750 856.5,-1750 856.5,4 -4,4"/>
<!-- Node1 -->
<g id="node1" class="node">
<title>Node1</title>
<g id="a_node1"><a xlink:title="Represents simplified view on Altchain&#39;s block tree, maintains VBK tree and BTC tree.">
<polygon fill="#bfbfbf" stroke="black" points="378,-0.5 378,-200.5 527,-200.5 527,-0.5 378,-0.5"/>
<text text-anchor="middle" x="452.5" y="-188.5" font-family="Helvetica,sans-Serif" font-size="10.00">altintegration::AltBlockTree</text>
<polyline fill="none" stroke="black" points="378,-181.5 527,-181.5 "/>
<text text-anchor="start" x="386" y="-169.5" font-family="Helvetica,sans-Serif" font-size="10.00">+ onInvalidBlockConnected</text>
<text text-anchor="start" x="386" y="-158.5" font-family="Helvetica,sans-Serif" font-size="10.00">+ onBlockConnected</text>
<text text-anchor="start" x="386" y="-147.5" font-family="Helvetica,sans-Serif" font-size="10.00">+ onBeforeOverrideTip</text>
<polyline fill="none" stroke="black" points="378,-140.5 527,-140.5 "/>
<text text-anchor="start" x="386" y="-128.5" font-family="Helvetica,sans-Serif" font-size="10.00">+ ~AltBlockTree()</text>
<text text-anchor="start" x="386" y="-117.5" font-family="Helvetica,sans-Serif" font-size="10.00">+ AltBlockTree()</text>
<text text-anchor="start" x="386" y="-106.5" font-family="Helvetica,sans-Serif" font-size="10.00">+ bootstrap()</text>
<text text-anchor="start" x="386" y="-95.5" font-family="Helvetica,sans-Serif" font-size="10.00">+ acceptBlockHeader()</text>
<text text-anchor="start" x="386" y="-84.5" font-family="Helvetica,sans-Serif" font-size="10.00">+ acceptBlock()</text>
<text text-anchor="start" x="386" y="-73.5" font-family="Helvetica,sans-Serif" font-size="10.00">+ acceptBlock()</text>
<text text-anchor="start" x="386" y="-62.5" font-family="Helvetica,sans-Serif" font-size="10.00">+ acceptBlock()</text>
<text text-anchor="start" x="386" y="-51.5" font-family="Helvetica,sans-Serif" font-size="10.00">+ makeConnectedLeafPayload</text>
<text text-anchor="start" x="386" y="-40.5" font-family="Helvetica,sans-Serif" font-size="10.00">Mutator()</text>
<text text-anchor="start" x="386" y="-29.5" font-family="Helvetica,sans-Serif" font-size="10.00">+ getConnectedTipsAfter()</text>
<text text-anchor="start" x="386" y="-18.5" font-family="Helvetica,sans-Serif" font-size="10.00">+ loadBlockForward()</text>
<text text-anchor="start" x="386" y="-7.5" font-family="Helvetica,sans-Serif" font-size="10.00">and 6 more...</text>
</a>
</g>
</g>
<!-- Node2 -->
<g id="node2" class="node">
<title>Node2</title>
<g id="a_node2"><a xlink:href="structaltintegration_1_1BaseBlockTree.html" target="_top" xlink:title=" ">
<polygon fill="white" stroke="black" points="376.5,-238.5 376.5,-515.5 528.5,-515.5 528.5,-238.5 376.5,-238.5"/>
<text text-anchor="start" x="384.5" y="-503.5" font-family="Helvetica,sans-Serif" font-size="10.00">altintegration::BaseBlock</text>
<text text-anchor="middle" x="452.5" y="-492.5" font-family="Helvetica,sans-Serif" font-size="10.00">Tree&lt; AltBlock &gt;</text>
<polyline fill="none" stroke="black" points="376.5,-485.5 528.5,-485.5 "/>
<text text-anchor="start" x="384.5" y="-473.5" font-family="Helvetica,sans-Serif" font-size="10.00">+ onBlockBeforeDeallocated</text>
<text text-anchor="start" x="384.5" y="-462.5" font-family="Helvetica,sans-Serif" font-size="10.00">+ onBlockValidityChanged</text>
<text text-anchor="start" x="384.5" y="-451.5" font-family="Helvetica,sans-Serif" font-size="10.00"># isLoadingBlocks_</text>
<text text-anchor="start" x="384.5" y="-440.5" font-family="Helvetica,sans-Serif" font-size="10.00"># isLoaded_</text>
<polyline fill="none" stroke="black" points="376.5,-433.5 528.5,-433.5 "/>
<text text-anchor="start" x="384.5" y="-421.5" font-family="Helvetica,sans-Serif" font-size="10.00">+ getTips()</text>
<text text-anchor="start" x="384.5" y="-410.5" font-family="Helvetica,sans-Serif" font-size="10.00">+ getBlocks()</text>
<text text-anchor="start" x="384.5" y="-399.5" font-family="Helvetica,sans-Serif" font-size="10.00">+ getAllBlocks()</text>
<text text-anchor="start" x="384.5" y="-388.5" font-family="Helvetica,sans-Serif" font-size="10.00">+ getBlockProvider()</text>
<text text-anchor="start" x="384.5" y="-377.5" font-family="Helvetica,sans-Serif" font-size="10.00">+ ~BaseBlockTree()</text>
<text text-anchor="start" x="384.5" y="-366.5" font-family="Helvetica,sans-Serif" font-size="10.00">+ BaseBlockTree()</text>
<text text-anchor="start" x="384.5" y="-355.5" font-family="Helvetica,sans-Serif" font-size="10.00">+ BaseBlockTree()</text>
<text text-anchor="start" x="384.5" y="-344.5" font-family="Helvetica,sans-Serif" font-size="10.00">+ BaseBlockTree()</text>
<text text-anchor="start" x="384.5" y="-333.5" font-family="Helvetica,sans-Serif" font-size="10.00">+ operator=()</text>
<text text-anchor="start" x="384.5" y="-322.5" font-family="Helvetica,sans-Serif" font-size="10.00">+ operator=()</text>
<text text-anchor="start" x="384.5" y="-311.5" font-family="Helvetica,sans-Serif" font-size="10.00">and 23 more...</text>
<text text-anchor="start" x="384.5" y="-300.5" font-family="Helvetica,sans-Serif" font-size="10.00"># deallocateBlock()</text>
<text text-anchor="start" x="384.5" y="-289.5" font-family="Helvetica,sans-Serif" font-size="10.00"># toPrettyString()</text>
<text text-anchor="start" x="384.5" y="-278.5" font-family="Helvetica,sans-Serif" font-size="10.00"># decreaseAppliedBlockCount()</text>
<text text-anchor="start" x="384.5" y="-267.5" font-family="Helvetica,sans-Serif" font-size="10.00"># decreaseAppliedBlockCount()</text>
<text text-anchor="start" x="384.5" y="-256.5" font-family="Helvetica,sans-Serif" font-size="10.00"># increaseAppliedBlockCount()</text>
<text text-anchor="start" x="384.5" y="-245.5" font-family="Helvetica,sans-Serif" font-size="10.00"># increaseAppliedBlockCount()</text>
</a>
</g>
</g>
<!-- Node2&#45;&gt;Node1 -->
<g id="edge1" class="edge">
<title>Node2&#45;&gt;Node1</title>
<path fill="none" stroke="midnightblue" d="M452.5,-228.23C452.5,-218.92 452.5,-209.68 452.5,-200.67"/>
<polygon fill="none" stroke="midnightblue" points="449,-228.35 452.5,-238.35 456,-228.35 449,-228.35"/>
</g>
<!-- Node3 -->
<g id="node3" class="node">
<title>Node3</title>
<g id="a_node3"><a xlink:title=" ">
<polygon fill="white" stroke="black" points="35,-938 35,-1017 172,-1017 172,-938 35,-938"/>
<text text-anchor="start" x="43" y="-1005" font-family="Helvetica,sans-Serif" font-size="10.00">std::unordered_map</text>
<text text-anchor="start" x="43" y="-994" font-family="Helvetica,sans-Serif" font-size="10.00">&lt; prev_block_hash_t,</text>
<text text-anchor="middle" x="103.5" y="-983" font-family="Helvetica,sans-Serif" font-size="10.00"> std::unique_ptr&lt; index_t &gt; &gt;</text>
<polyline fill="none" stroke="black" points="35,-976 172,-976 "/>
<text text-anchor="start" x="43" y="-964" font-family="Helvetica,sans-Serif" font-size="10.00">+ keys</text>
<polyline fill="none" stroke="black" points="35,-957 172,-957 "/>
<text text-anchor="middle" x="103.5" y="-945" font-family="Helvetica,sans-Serif" font-size="10.00"> </text>
</a>
</g>
</g>
<!-- Node3&#45;&gt;Node2 -->
<g id="edge2" class="edge">
<title>Node3&#45;&gt;Node2</title>
<path fill="none" stroke="#404040" d="M113,-937.79C132.91,-861.49 184.13,-688.23 266.5,-563 294.07,-521.08 332.35,-480.99 367.02,-448.9"/>
<polygon fill="none" stroke="#404040" points="367.36,-448.59 369.09,-441.59 376.22,-440.5 374.49,-447.5 367.36,-448.59"/>
<text text-anchor="middle" x="287.5" y="-699.5" font-family="Helvetica,sans-Serif" font-size="10.00"> #blocks_</text>
</g>
<!-- Node20 -->
<g id="node20" class="node">
<title>Node20</title>
<g id="a_node20"><a xlink:href="structaltintegration_1_1BaseBlockTree.html" target="_top" xlink:title="Base block tree that stores all blocks, maintains tree tips, maintains active chain.">
<polygon fill="white" stroke="black" points="376.5,-563.5 376.5,-840.5 528.5,-840.5 528.5,-563.5 376.5,-563.5"/>
<text text-anchor="start" x="384.5" y="-828.5" font-family="Helvetica,sans-Serif" font-size="10.00">altintegration::BaseBlock</text>
<text text-anchor="middle" x="452.5" y="-817.5" font-family="Helvetica,sans-Serif" font-size="10.00">Tree&lt; Block &gt;</text>
<polyline fill="none" stroke="black" points="376.5,-810.5 528.5,-810.5 "/>
<text text-anchor="start" x="384.5" y="-798.5" font-family="Helvetica,sans-Serif" font-size="10.00">+ onBlockBeforeDeallocated</text>
<text text-anchor="start" x="384.5" y="-787.5" font-family="Helvetica,sans-Serif" font-size="10.00">+ onBlockValidityChanged</text>
<text text-anchor="start" x="384.5" y="-776.5" font-family="Helvetica,sans-Serif" font-size="10.00"># isLoadingBlocks_</text>
<text text-anchor="start" x="384.5" y="-765.5" font-family="Helvetica,sans-Serif" font-size="10.00"># isLoaded_</text>
<polyline fill="none" stroke="black" points="376.5,-758.5 528.5,-758.5 "/>
<text text-anchor="start" x="384.5" y="-746.5" font-family="Helvetica,sans-Serif" font-size="10.00">+ getTips()</text>
<text text-anchor="start" x="384.5" y="-735.5" font-family="Helvetica,sans-Serif" font-size="10.00">+ getBlocks()</text>
<text text-anchor="start" x="384.5" y="-724.5" font-family="Helvetica,sans-Serif" font-size="10.00">+ getAllBlocks()</text>
<text text-anchor="start" x="384.5" y="-713.5" font-family="Helvetica,sans-Serif" font-size="10.00">+ getBlockProvider()</text>
<text text-anchor="start" x="384.5" y="-702.5" font-family="Helvetica,sans-Serif" font-size="10.00">+ ~BaseBlockTree()</text>
<text text-anchor="start" x="384.5" y="-691.5" font-family="Helvetica,sans-Serif" font-size="10.00">+ BaseBlockTree()</text>
<text text-anchor="start" x="384.5" y="-680.5" font-family="Helvetica,sans-Serif" font-size="10.00">+ BaseBlockTree()</text>
<text text-anchor="start" x="384.5" y="-669.5" font-family="Helvetica,sans-Serif" font-size="10.00">+ operator=()</text>
<text text-anchor="start" x="384.5" y="-658.5" font-family="Helvetica,sans-Serif" font-size="10.00">+ BaseBlockTree()</text>
<text text-anchor="start" x="384.5" y="-647.5" font-family="Helvetica,sans-Serif" font-size="10.00">+ operator=()</text>
<text text-anchor="start" x="384.5" y="-636.5" font-family="Helvetica,sans-Serif" font-size="10.00">and 23 more...</text>
<text text-anchor="start" x="384.5" y="-625.5" font-family="Helvetica,sans-Serif" font-size="10.00"># deallocateBlock()</text>
<text text-anchor="start" x="384.5" y="-614.5" font-family="Helvetica,sans-Serif" font-size="10.00"># toPrettyString()</text>
<text text-anchor="start" x="384.5" y="-603.5" font-family="Helvetica,sans-Serif" font-size="10.00"># decreaseAppliedBlockCount()</text>
<text text-anchor="start" x="384.5" y="-592.5" font-family="Helvetica,sans-Serif" font-size="10.00"># increaseAppliedBlockCount()</text>
<text text-anchor="start" x="384.5" y="-581.5" font-family="Helvetica,sans-Serif" font-size="10.00"># decreaseAppliedBlockCount()</text>
<text text-anchor="start" x="384.5" y="-570.5" font-family="Helvetica,sans-Serif" font-size="10.00"># increaseAppliedBlockCount()</text>
</a>
</g>
</g>
<!-- Node3&#45;&gt;Node20 -->
<g id="edge26" class="edge">
<title>Node3&#45;&gt;Node20</title>
<path fill="none" stroke="#404040" d="M161.07,-937.82C186.21,-921.6 216.33,-903.05 244.5,-888 289.6,-863.91 309.59,-872.96 349.5,-841 355.77,-835.98 361.86,-830.49 367.74,-824.69"/>
<polygon fill="none" stroke="#404040" points="367.83,-824.59 369.14,-817.5 376.19,-815.98 374.88,-823.07 367.83,-824.59"/>
<text text-anchor="middle" x="341.5" y="-862" font-family="Helvetica,sans-Serif" font-size="10.00"> #blocks_</text>
</g>
<!-- Node4 -->
<g id="node4" class="node">
<title>Node4</title>
<g id="a_node4"><a xlink:title=" ">
<polygon fill="white" stroke="black" points="0,-1355.5 0,-1412.5 127,-1412.5 127,-1355.5 0,-1355.5"/>
<text text-anchor="middle" x="63.5" y="-1400.5" font-family="Helvetica,sans-Serif" font-size="10.00">std::unique_ptr&lt; index_t &gt;</text>
<polyline fill="none" stroke="black" points="0,-1393.5 127,-1393.5 "/>
<text text-anchor="start" x="8" y="-1381.5" font-family="Helvetica,sans-Serif" font-size="10.00">+ ptr</text>
<polyline fill="none" stroke="black" points="0,-1374.5 127,-1374.5 "/>
<text text-anchor="start" x="8" y="-1362.5" font-family="Helvetica,sans-Serif" font-size="10.00">+ operator&#45;&gt;()</text>
</a>
</g>
</g>
<!-- Node4&#45;&gt;Node3 -->
<g id="edge3" class="edge">
<title>Node4&#45;&gt;Node3</title>
<path fill="none" stroke="#404040" d="M55.8,-1355.46C54.43,-1349.42 53.21,-1343.03 52.5,-1337 41.47,-1243.43 36.79,-1217.9 52.5,-1125 58.1,-1091.89 70.34,-1056.28 81.43,-1028.46"/>
<polygon fill="none" stroke="#404040" points="81.55,-1028.15 80.12,-1021.09 86.09,-1017.04 87.52,-1024.11 81.55,-1028.15"/>
<text text-anchor="middle" x="77" y="-1228.5" font-family="Helvetica,sans-Serif" font-size="10.00"> +elements</text>
</g>
<!-- Node5 -->
<g id="node5" class="node">
<title>Node5</title>
<g id="a_node5"><a xlink:title=" ">
<polygon fill="white" stroke="black" points="34.5,-1507.5 34.5,-1564.5 136.5,-1564.5 136.5,-1507.5 34.5,-1507.5"/>
<text text-anchor="middle" x="85.5" y="-1552.5" font-family="Helvetica,sans-Serif" font-size="10.00">std::unique_ptr&lt; T &gt;</text>
<polyline fill="none" stroke="black" points="34.5,-1545.5 136.5,-1545.5 "/>
<text text-anchor="middle" x="85.5" y="-1533.5" font-family="Helvetica,sans-Serif" font-size="10.00"> </text>
<polyline fill="none" stroke="black" points="34.5,-1526.5 136.5,-1526.5 "/>
<text text-anchor="start" x="42.5" y="-1514.5" font-family="Helvetica,sans-Serif" font-size="10.00">+ operator&#45;&gt;()</text>
</a>
</g>
</g>
<!-- Node5&#45;&gt;Node4 -->
<g id="edge4" class="edge">
<title>Node5&#45;&gt;Node4</title>
<path fill="none" stroke="orange" d="M80,-1497.47C76.13,-1471.11 71.04,-1436.43 67.55,-1412.59"/>
<polygon fill="orange" stroke="orange" points="76.55,-1498.1 81.46,-1507.49 83.48,-1497.09 76.55,-1498.1"/>
<text text-anchor="middle" x="103.5" y="-1457.5" font-family="Helvetica,sans-Serif" font-size="10.00"> &lt; index_t &gt;</text>
</g>
<!-- Node6 -->
<g id="node6" class="node">
<title>Node6</title>
<g id="a_node6"><a xlink:title=" ">
<polygon fill="white" stroke="#bfbfbf" points="147,-1688.5 147,-1745.5 176,-1745.5 176,-1688.5 147,-1688.5"/>
<text text-anchor="middle" x="161.5" y="-1733.5" font-family="Helvetica,sans-Serif" font-size="10.00">T</text>
<polyline fill="none" stroke="#bfbfbf" points="147,-1726.5 176,-1726.5 "/>
<text text-anchor="middle" x="161.5" y="-1714.5" font-family="Helvetica,sans-Serif" font-size="10.00"> </text>
<polyline fill="none" stroke="#bfbfbf" points="147,-1707.5 176,-1707.5 "/>
<text text-anchor="middle" x="161.5" y="-1695.5" font-family="Helvetica,sans-Serif" font-size="10.00"> </text>
</a>
</g>
</g>
<!-- Node6&#45;&gt;Node5 -->
<g id="edge5" class="edge">
<title>Node6&#45;&gt;Node5</title>
<path fill="none" stroke="#404040" d="M146.81,-1698.98C140.2,-1690.67 132.73,-1680.26 127.5,-1670 112.25,-1640.06 101.19,-1603.51 94.26,-1576.3"/>
<polygon fill="none" stroke="#404040" points="94.23,-1576.17 88.92,-1571.3 91.37,-1564.52 96.68,-1569.39 94.23,-1576.17"/>
<text text-anchor="middle" x="137.5" y="-1662" font-family="Helvetica,sans-Serif" font-size="10.00"> +ptr</text>
</g>
<!-- Node7 -->
<g id="node7" class="node">
<title>Node7</title>
<g id="a_node7"><a xlink:title=" ">
<polygon fill="white" stroke="black" points="111,-1197 111,-1265 212,-1265 212,-1197 111,-1197"/>
<text text-anchor="start" x="119" y="-1253" font-family="Helvetica,sans-Serif" font-size="10.00">std::unordered_map</text>
<text text-anchor="middle" x="161.5" y="-1242" font-family="Helvetica,sans-Serif" font-size="10.00">&lt; K, T &gt;</text>
<polyline fill="none" stroke="black" points="111,-1235 212,-1235 "/>
<text text-anchor="middle" x="161.5" y="-1223" font-family="Helvetica,sans-Serif" font-size="10.00"> </text>
<polyline fill="none" stroke="black" points="111,-1216 212,-1216 "/>
<text text-anchor="middle" x="161.5" y="-1204" font-family="Helvetica,sans-Serif" font-size="10.00"> </text>
</a>
</g>
</g>
<!-- Node6&#45;&gt;Node7 -->
<g id="edge8" class="edge">
<title>Node6&#45;&gt;Node7</title>
<path fill="none" stroke="#404040" d="M161.5,-1688.24C161.5,-1608.19 161.5,-1376.33 161.5,-1277.5"/>
<polygon fill="none" stroke="#404040" points="161.5,-1277.29 157.5,-1271.29 161.5,-1265.29 165.5,-1271.29 161.5,-1277.29"/>
<text text-anchor="middle" x="186" y="-1533.5" font-family="Helvetica,sans-Serif" font-size="10.00"> +elements</text>
</g>
<!-- Node15 -->
<g id="node15" class="node">
<title>Node15</title>
<g id="a_node15"><a xlink:title=" ">
<polygon fill="white" stroke="black" points="229,-1583.5 229,-1640.5 332,-1640.5 332,-1583.5 229,-1583.5"/>
<text text-anchor="middle" x="280.5" y="-1628.5" font-family="Helvetica,sans-Serif" font-size="10.00">std::shared_ptr&lt; T &gt;</text>
<polyline fill="none" stroke="black" points="229,-1621.5 332,-1621.5 "/>
<text text-anchor="middle" x="280.5" y="-1609.5" font-family="Helvetica,sans-Serif" font-size="10.00"> </text>
<polyline fill="none" stroke="black" points="229,-1602.5 332,-1602.5 "/>
<text text-anchor="start" x="237" y="-1590.5" font-family="Helvetica,sans-Serif" font-size="10.00">+ operator&#45;&gt;()</text>
</a>
</g>
</g>
<!-- Node6&#45;&gt;Node15 -->
<g id="edge19" class="edge">
<title>Node6&#45;&gt;Node15</title>
<path fill="none" stroke="#404040" d="M176.09,-1703.37C191.73,-1689.83 217.27,-1667.73 239.17,-1648.77"/>
<polygon fill="none" stroke="#404040" points="239.22,-1648.73 241.14,-1641.78 248.3,-1640.87 246.38,-1647.82 239.22,-1648.73"/>
<text text-anchor="middle" x="235.5" y="-1662" font-family="Helvetica,sans-Serif" font-size="10.00"> +ptr</text>
</g>
<!-- Node7&#45;&gt;Node3 -->
<g id="edge6" class="edge">
<title>Node7&#45;&gt;Node3</title>
<path fill="none" stroke="orange" d="M133.23,-1188.03C119.51,-1165.14 104.52,-1135.69 97.5,-1107 90.26,-1077.39 92.44,-1042.82 96.06,-1017"/>
<polygon fill="orange" stroke="orange" points="130.38,-1190.08 138.6,-1196.77 136.35,-1186.42 130.38,-1190.08"/>
<text text-anchor="start" x="97.5" y="-1099" font-family="Helvetica,sans-Serif" font-size="10.00"> &lt; prev_block_hash_t,</text>
<text text-anchor="middle" x="158" y="-1088" font-family="Helvetica,sans-Serif" font-size="10.00"> std::unique_ptr&lt; index_t &gt; &gt;</text>
</g>
<!-- Node8 -->
<g id="node8" class="node">
<title>Node8</title>
<g id="a_node8"><a xlink:title=" ">
<polygon fill="white" stroke="#bfbfbf" points="275,-1431.5 275,-1488.5 304,-1488.5 304,-1431.5 275,-1431.5"/>
<text text-anchor="middle" x="289.5" y="-1476.5" font-family="Helvetica,sans-Serif" font-size="10.00">K</text>
<polyline fill="none" stroke="#bfbfbf" points="275,-1469.5 304,-1469.5 "/>
<text text-anchor="middle" x="289.5" y="-1457.5" font-family="Helvetica,sans-Serif" font-size="10.00"> </text>
<polyline fill="none" stroke="#bfbfbf" points="275,-1450.5 304,-1450.5 "/>
<text text-anchor="middle" x="289.5" y="-1438.5" font-family="Helvetica,sans-Serif" font-size="10.00"> </text>
</a>
</g>
</g>
<!-- Node8&#45;&gt;Node7 -->
<g id="edge7" class="edge">
<title>Node8&#45;&gt;Node7</title>
<path fill="none" stroke="#404040" d="M274.75,-1439.71C268.82,-1431.63 262.07,-1422.03 256.5,-1413 228.55,-1367.7 200.74,-1313.35 182.5,-1276.11"/>
<polygon fill="none" stroke="#404040" points="182.41,-1275.92 176.19,-1272.27 177.16,-1265.13 183.38,-1268.77 182.41,-1275.92"/>
<text text-anchor="middle" x="271" y="-1381.5" font-family="Helvetica,sans-Serif" font-size="10.00"> +keys</text>
</g>
<!-- Node13 -->
<g id="node13" class="node">
<title>Node13</title>
<g id="a_node13"><a xlink:title=" ">
<polygon fill="white" stroke="black" points="367,-1202.5 367,-1259.5 438,-1259.5 438,-1202.5 367,-1202.5"/>
<text text-anchor="middle" x="402.5" y="-1247.5" font-family="Helvetica,sans-Serif" font-size="10.00">std::set&lt; K &gt;</text>
<polyline fill="none" stroke="black" points="367,-1240.5 438,-1240.5 "/>
<text text-anchor="middle" x="402.5" y="-1228.5" font-family="Helvetica,sans-Serif" font-size="10.00"> </text>
<polyline fill="none" stroke="black" points="367,-1221.5 438,-1221.5 "/>
<text text-anchor="middle" x="402.5" y="-1209.5" font-family="Helvetica,sans-Serif" font-size="10.00"> </text>
</a>
</g>
</g>
<!-- Node8&#45;&gt;Node13 -->
<g id="edge16" class="edge">
<title>Node8&#45;&gt;Node13</title>
<path fill="none" stroke="#404040" d="M304.15,-1440.3C310.21,-1432.15 317.06,-1422.34 322.5,-1413 349.7,-1366.24 373.71,-1308.53 388.16,-1271.02"/>
<polygon fill="none" stroke="#404040" points="388.24,-1270.81 386.63,-1263.78 392.51,-1259.6 394.11,-1266.63 388.24,-1270.81"/>
<text text-anchor="middle" x="368" y="-1381.5" font-family="Helvetica,sans-Serif" font-size="10.00"> +keys</text>
</g>
<!-- Node16 -->
<g id="node16" class="node">
<title>Node16</title>
<g id="a_node16"><a xlink:title=" ">
<polygon fill="white" stroke="black" points="230,-1202.5 230,-1259.5 349,-1259.5 349,-1202.5 230,-1202.5"/>
<text text-anchor="middle" x="289.5" y="-1247.5" font-family="Helvetica,sans-Serif" font-size="10.00">std::unordered_set&lt; K &gt;</text>
<polyline fill="none" stroke="black" points="230,-1240.5 349,-1240.5 "/>
<text text-anchor="middle" x="289.5" y="-1228.5" font-family="Helvetica,sans-Serif" font-size="10.00"> </text>
<polyline fill="none" stroke="black" points="230,-1221.5 349,-1221.5 "/>
<text text-anchor="middle" x="289.5" y="-1209.5" font-family="Helvetica,sans-Serif" font-size="10.00"> </text>
</a>
</g>
</g>
<!-- Node8&#45;&gt;Node16 -->
<g id="edge21" class="edge">
<title>Node8&#45;&gt;Node16</title>
<path fill="none" stroke="#404040" d="M289.5,-1431.17C289.5,-1391.23 289.5,-1317.48 289.5,-1271.8"/>
<polygon fill="none" stroke="#404040" points="289.5,-1271.71 285.5,-1265.71 289.5,-1259.71 293.5,-1265.71 289.5,-1271.71"/>
<text text-anchor="middle" x="304" y="-1381.5" font-family="Helvetica,sans-Serif" font-size="10.00"> +keys</text>
</g>
<!-- Node9 -->
<g id="node9" class="node">
<title>Node9</title>
<g id="a_node9"><a xlink:title=" ">
<polygon fill="white" stroke="black" points="254,-943.5 254,-1011.5 401,-1011.5 401,-943.5 254,-943.5"/>
<text text-anchor="start" x="262" y="-999.5" font-family="Helvetica,sans-Serif" font-size="10.00">std::unordered_set</text>
<text text-anchor="middle" x="327.5" y="-988.5" font-family="Helvetica,sans-Serif" font-size="10.00">&lt; altintegration::BlockIndex * &gt;</text>
<polyline fill="none" stroke="black" points="254,-981.5 401,-981.5 "/>
<text text-anchor="middle" x="327.5" y="-969.5" font-family="Helvetica,sans-Serif" font-size="10.00"> </text>
<polyline fill="none" stroke="black" points="254,-962.5 401,-962.5 "/>
<text text-anchor="middle" x="327.5" y="-950.5" font-family="Helvetica,sans-Serif" font-size="10.00"> </text>
</a>
</g>
</g>
<!-- Node9&#45;&gt;Node2 -->
<g id="edge9" class="edge">
<title>Node9&#45;&gt;Node2</title>
<path fill="none" stroke="#404040" d="M322.68,-943.43C313.52,-872.1 297.89,-699.27 338.5,-563 345.8,-538.5 357.23,-514.01 370.08,-491.23"/>
<polygon fill="none" stroke="#404040" points="370.26,-490.93 369.81,-483.73 376.28,-480.55 376.73,-487.75 370.26,-490.93"/>
<text text-anchor="middle" x="353" y="-699.5" font-family="Helvetica,sans-Serif" font-size="10.00"> #tips_</text>
</g>
<!-- Node9&#45;&gt;Node20 -->
<g id="edge27" class="edge">
<title>Node9&#45;&gt;Node20</title>
<path fill="none" stroke="#404040" d="M350.09,-943.43C363.51,-922.88 380.25,-895.59 392.5,-870 395.33,-864.1 398.1,-858.02 400.8,-851.84"/>
<polygon fill="none" stroke="#404040" points="400.88,-851.66 399.56,-844.57 405.6,-840.63 406.92,-847.72 400.88,-851.66"/>
<text text-anchor="middle" x="412" y="-862" font-family="Helvetica,sans-Serif" font-size="10.00"> #tips_</text>
</g>
<!-- Node10 -->
<g id="node10" class="node">
<title>Node10</title>
<g id="a_node10"><a xlink:href="structaltintegration_1_1BlockIndex.html" target="_top" xlink:title="A node in a block tree.">
<polygon fill="white" stroke="black" points="456,-1125.5 456,-1336.5 581,-1336.5 581,-1125.5 456,-1125.5"/>
<text text-anchor="start" x="464" y="-1324.5" font-family="Helvetica,sans-Serif" font-size="10.00">altintegration::BlockIndex</text>
<text text-anchor="middle" x="518.5" y="-1313.5" font-family="Helvetica,sans-Serif" font-size="10.00">&lt; Block &gt;</text>
<polyline fill="none" stroke="black" points="456,-1306.5 581,-1306.5 "/>
<text text-anchor="start" x="464" y="-1294.5" font-family="Helvetica,sans-Serif" font-size="10.00">+ finalized</text>
<text text-anchor="start" x="464" y="-1283.5" font-family="Helvetica,sans-Serif" font-size="10.00"># height</text>
<text text-anchor="start" x="464" y="-1272.5" font-family="Helvetica,sans-Serif" font-size="10.00"># status</text>
<text text-anchor="start" x="464" y="-1261.5" font-family="Helvetica,sans-Serif" font-size="10.00"># dirty</text>
<polyline fill="none" stroke="black" points="456,-1254.5 581,-1254.5 "/>
<text text-anchor="start" x="464" y="-1242.5" font-family="Helvetica,sans-Serif" font-size="10.00">+ BlockIndex()</text>
<text text-anchor="start" x="464" y="-1231.5" font-family="Helvetica,sans-Serif" font-size="10.00">+ BlockIndex()</text>
<text text-anchor="start" x="464" y="-1220.5" font-family="Helvetica,sans-Serif" font-size="10.00">+ ~BlockIndex()</text>
<text text-anchor="start" x="464" y="-1209.5" font-family="Helvetica,sans-Serif" font-size="10.00">+ disconnectFromPrev()</text>
<text text-anchor="start" x="464" y="-1198.5" font-family="Helvetica,sans-Serif" font-size="10.00">+ isTip()</text>
<text text-anchor="start" x="464" y="-1187.5" font-family="Helvetica,sans-Serif" font-size="10.00">+ BlockIndex()</text>
<text text-anchor="start" x="464" y="-1176.5" font-family="Helvetica,sans-Serif" font-size="10.00">+ operator=()</text>
<text text-anchor="start" x="464" y="-1165.5" font-family="Helvetica,sans-Serif" font-size="10.00">+ isDeleted()</text>
<text text-anchor="start" x="464" y="-1154.5" font-family="Helvetica,sans-Serif" font-size="10.00">+ isRoot()</text>
<text text-anchor="start" x="464" y="-1143.5" font-family="Helvetica,sans-Serif" font-size="10.00">+ restore()</text>
<text text-anchor="start" x="464" y="-1132.5" font-family="Helvetica,sans-Serif" font-size="10.00">and 42 more...</text>
</a>
</g>
</g>
<!-- Node10&#45;&gt;Node9 -->
<g id="edge10" class="edge">
<title>Node10&#45;&gt;Node9</title>
<path fill="none" stroke="#404040" d="M455.77,-1132.67C452.78,-1129.95 449.68,-1127.39 446.5,-1125 425.92,-1109.58 410.96,-1123.81 391.5,-1107 366.17,-1085.12 349.8,-1050.82 339.96,-1023.17"/>
<polygon fill="none" stroke="#404040" points="339.96,-1023.15 334.26,-1018.74 336.14,-1011.78 341.84,-1016.19 339.96,-1023.15"/>
<text text-anchor="middle" x="406" y="-1093.5" font-family="Helvetica,sans-Serif" font-size="10.00"> +keys</text>
</g>
<!-- Node10&#45;&gt;Node10 -->
<g id="edge12" class="edge">
<title>Node10&#45;&gt;Node10</title>
<path fill="none" stroke="#404040" d="M581.28,-1254.35C591.76,-1251.08 599,-1243.3 599,-1231 599,-1223.5 596.31,-1217.69 591.84,-1213.54"/>
<polygon fill="none" stroke="#404040" points="591.76,-1213.5 584.57,-1214.06 581.28,-1207.65 588.47,-1207.08 591.76,-1213.5"/>
<text text-anchor="middle" x="615.5" y="-1228.5" font-family="Helvetica,sans-Serif" font-size="10.00"> +pprev</text>
</g>
<!-- Node12 -->
<g id="node12" class="node">
<title>Node12</title>
<g id="a_node12"><a xlink:title=" ">
<polygon fill="white" stroke="black" points="430.5,-943.5 430.5,-1011.5 542.5,-1011.5 542.5,-943.5 430.5,-943.5"/>
<text text-anchor="start" x="438.5" y="-999.5" font-family="Helvetica,sans-Serif" font-size="10.00">std::set&lt; altintegration</text>
<text text-anchor="middle" x="486.5" y="-988.5" font-family="Helvetica,sans-Serif" font-size="10.00">::BlockIndex * &gt;</text>
<polyline fill="none" stroke="black" points="430.5,-981.5 542.5,-981.5 "/>
<text text-anchor="middle" x="486.5" y="-969.5" font-family="Helvetica,sans-Serif" font-size="10.00"> </text>
<polyline fill="none" stroke="black" points="430.5,-962.5 542.5,-962.5 "/>
<text text-anchor="middle" x="486.5" y="-950.5" font-family="Helvetica,sans-Serif" font-size="10.00"> </text>
</a>
</g>
</g>
<!-- Node10&#45;&gt;Node12 -->
<g id="edge14" class="edge">
<title>Node10&#45;&gt;Node12</title>
<path fill="none" stroke="#404040" d="M581.3,-1179.43C608.94,-1150.99 630.66,-1115.23 608.5,-1085 592.8,-1063.57 573.1,-1082.47 551.5,-1067 535.1,-1055.25 521.15,-1038.1 510.43,-1022.01"/>
<polygon fill="none" stroke="#404040" points="510.29,-1021.79 503.7,-1018.87 503.86,-1011.66 510.45,-1014.58 510.29,-1021.79"/>
<text text-anchor="middle" x="631" y="-1093.5" font-family="Helvetica,sans-Serif" font-size="10.00"> +keys</text>
</g>
<!-- Node11 -->
<g id="node11" class="node">
<title>Node11</title>
<g id="a_node11"><a xlink:title=" ">
<polygon fill="white" stroke="#bfbfbf" points="478.5,-1431.5 478.5,-1488.5 558.5,-1488.5 558.5,-1431.5 478.5,-1431.5"/>
<text text-anchor="middle" x="518.5" y="-1476.5" font-family="Helvetica,sans-Serif" font-size="10.00">Block::addon_t</text>
<polyline fill="none" stroke="#bfbfbf" points="478.5,-1469.5 558.5,-1469.5 "/>
<text text-anchor="middle" x="518.5" y="-1457.5" font-family="Helvetica,sans-Serif" font-size="10.00"> </text>
<polyline fill="none" stroke="#bfbfbf" points="478.5,-1450.5 558.5,-1450.5 "/>
<text text-anchor="middle" x="518.5" y="-1438.5" font-family="Helvetica,sans-Serif" font-size="10.00"> </text>
</a>
</g>
</g>
<!-- Node11&#45;&gt;Node10 -->
<g id="edge11" class="edge">
<title>Node11&#45;&gt;Node10</title>
<path fill="none" stroke="midnightblue" d="M518.5,-1421.05C518.5,-1397.79 518.5,-1366.76 518.5,-1336.58"/>
<polygon fill="none" stroke="midnightblue" points="515,-1421.17 518.5,-1431.17 522,-1421.17 515,-1421.17"/>
</g>
<!-- Node12&#45;&gt;Node10 -->
<g id="edge13" class="edge">
<title>Node12&#45;&gt;Node10</title>
<path fill="none" stroke="#404040" d="M509.86,-1011.83C521.93,-1028.66 537.11,-1049.21 551.5,-1067 558.23,-1075.32 563.7,-1075 567.5,-1085 570.95,-1094.08 572.42,-1103.53 572.4,-1113.05"/>
<polygon fill="none" stroke="#404040" points="572.39,-1113.15 575.99,-1119.39 571.61,-1125.12 568.01,-1118.87 572.39,-1113.15"/>
<text text-anchor="middle" x="588.5" y="-1093.5" font-family="Helvetica,sans-Serif" font-size="10.00"> +pnext</text>
</g>
<!-- Node13&#45;&gt;Node12 -->
<g id="edge15" class="edge">
<title>Node13&#45;&gt;Node12</title>
<path fill="none" stroke="orange" d="M406.68,-1192.41C410.72,-1162.66 418.09,-1120.38 430.5,-1085 439.49,-1059.37 453.79,-1032.31 465.69,-1011.88"/>
<polygon fill="orange" stroke="orange" points="403.2,-1192.01 405.39,-1202.38 410.15,-1192.91 403.2,-1192.01"/>
<text text-anchor="middle" x="497" y="-1093.5" font-family="Helvetica,sans-Serif" font-size="10.00"> &lt; altintegration::BlockIndex * &gt;</text>
</g>
<!-- Node14 -->
<g id="node14" class="node">
<title>Node14</title>
<g id="a_node14"><a xlink:title=" ">
<polygon fill="white" stroke="black" points="327.5,-1431.5 327.5,-1488.5 455.5,-1488.5 455.5,-1431.5 327.5,-1431.5"/>
<text text-anchor="middle" x="391.5" y="-1476.5" font-family="Helvetica,sans-Serif" font-size="10.00">std::shared_ptr&lt; block_t &gt;</text>
<polyline fill="none" stroke="black" points="327.5,-1469.5 455.5,-1469.5 "/>
<text text-anchor="start" x="335.5" y="-1457.5" font-family="Helvetica,sans-Serif" font-size="10.00">+ ptr</text>
<polyline fill="none" stroke="black" points="327.5,-1450.5 455.5,-1450.5 "/>
<text text-anchor="start" x="335.5" y="-1438.5" font-family="Helvetica,sans-Serif" font-size="10.00">+ operator&#45;&gt;()</text>
</a>
</g>
</g>
<!-- Node14&#45;&gt;Node10 -->
<g id="edge17" class="edge">
<title>Node14&#45;&gt;Node10</title>
<path fill="none" stroke="#404040" d="M407.07,-1431.17C419.06,-1409.73 436.51,-1378.56 454.05,-1347.21"/>
<polygon fill="none" stroke="#404040" points="454.13,-1347.05 453.57,-1339.87 459.99,-1336.58 460.55,-1343.77 454.13,-1347.05"/>
<text text-anchor="middle" x="466" y="-1381.5" font-family="Helvetica,sans-Serif" font-size="10.00"> #header</text>
</g>
<!-- Node15&#45;&gt;Node14 -->
<g id="edge18" class="edge">
<title>Node15&#45;&gt;Node14</title>
<path fill="none" stroke="orange" d="M306.98,-1575.21C326.64,-1548.65 353.05,-1512.96 371.08,-1488.59"/>
<polygon fill="orange" stroke="orange" points="303.99,-1573.37 300.86,-1583.49 309.62,-1577.53 303.99,-1573.37"/>
<text text-anchor="middle" x="382" y="-1533.5" font-family="Helvetica,sans-Serif" font-size="10.00"> &lt; block_t &gt;</text>
</g>
<!-- Node16&#45;&gt;Node9 -->
<g id="edge20" class="edge">
<title>Node16&#45;&gt;Node9</title>
<path fill="none" stroke="orange" d="M257.32,-1194.55C234.89,-1165.34 211.45,-1122.75 226.5,-1085 238.06,-1056 261.69,-1030.37 283.18,-1011.52"/>
<polygon fill="orange" stroke="orange" points="254.62,-1196.77 263.59,-1202.41 260.1,-1192.41 254.62,-1196.77"/>
<text text-anchor="middle" x="293" y="-1093.5" font-family="Helvetica,sans-Serif" font-size="10.00"> &lt; altintegration::BlockIndex * &gt;</text>
</g>
<!-- Node17 -->
<g id="node17" class="node">
<title>Node17</title>
<g id="a_node17"><a xlink:href="structaltintegration_1_1Chain.html" target="_top" xlink:title=" ">
<polygon fill="white" stroke="black" points="561,-888.5 561,-1066.5 702,-1066.5 702,-888.5 561,-888.5"/>
<text text-anchor="start" x="569" y="-1054.5" font-family="Helvetica,sans-Serif" font-size="10.00">altintegration::Chain</text>
<text text-anchor="middle" x="631.5" y="-1043.5" font-family="Helvetica,sans-Serif" font-size="10.00">&lt; altintegration::BlockIndex &gt;</text>
<polyline fill="none" stroke="black" points="561,-1036.5 702,-1036.5 "/>
<text text-anchor="middle" x="631.5" y="-1024.5" font-family="Helvetica,sans-Serif" font-size="10.00"> </text>
<polyline fill="none" stroke="black" points="561,-1017.5 702,-1017.5 "/>
<text text-anchor="start" x="569" y="-1005.5" font-family="Helvetica,sans-Serif" font-size="10.00">+ Chain()</text>
<text text-anchor="start" x="569" y="-994.5" font-family="Helvetica,sans-Serif" font-size="10.00">+ Chain()</text>
<text text-anchor="start" x="569" y="-983.5" font-family="Helvetica,sans-Serif" font-size="10.00">+ Chain()</text>
<text text-anchor="start" x="569" y="-972.5" font-family="Helvetica,sans-Serif" font-size="10.00">+ getStartHeight()</text>
<text text-anchor="start" x="569" y="-961.5" font-family="Helvetica,sans-Serif" font-size="10.00">+ firstHeight()</text>
<text text-anchor="start" x="569" y="-950.5" font-family="Helvetica,sans-Serif" font-size="10.00">+ contains()</text>
<text text-anchor="start" x="569" y="-939.5" font-family="Helvetica,sans-Serif" font-size="10.00">+ operator[]()</text>
<text text-anchor="start" x="569" y="-928.5" font-family="Helvetica,sans-Serif" font-size="10.00">+ next()</text>
<text text-anchor="start" x="569" y="-917.5" font-family="Helvetica,sans-Serif" font-size="10.00">+ chainHeight()</text>
<text text-anchor="start" x="569" y="-906.5" font-family="Helvetica,sans-Serif" font-size="10.00">+ empty()</text>
<text text-anchor="start" x="569" y="-895.5" font-family="Helvetica,sans-Serif" font-size="10.00">and 15 more...</text>
</a>
</g>
</g>
<!-- Node17&#45;&gt;Node2 -->
<g id="edge22" class="edge">
<title>Node17&#45;&gt;Node2</title>
<path fill="none" stroke="#404040" d="M631,-888.35C630.2,-878.41 629.07,-868.46 627.5,-859 608.35,-743.7 562.68,-619.91 522.8,-526.79"/>
<polygon fill="none" stroke="#404040" points="522.72,-526.6 516.67,-522.68 517.97,-515.58 524.02,-519.51 522.72,-526.6"/>
<text text-anchor="middle" x="654.5" y="-699.5" font-family="Helvetica,sans-Serif" font-size="10.00"> #activeChain_</text>
</g>
<!-- Node17&#45;&gt;Node20 -->
<g id="edge28" class="edge">
<title>Node17&#45;&gt;Node20</title>
<path fill="none" stroke="#404040" d="M560.74,-893.9C557.72,-891.79 554.64,-889.81 551.5,-888 518.43,-868.91 492.81,-898.59 467.5,-870 462.62,-864.48 458.55,-858.43 455.19,-851.99"/>
<polygon fill="none" stroke="#404040" points="455.1,-851.78 448.99,-847.94 450.19,-840.83 456.29,-844.66 455.1,-851.78"/>
<text text-anchor="middle" x="499.5" y="-862" font-family="Helvetica,sans-Serif" font-size="10.00"> #activeChain_</text>
</g>
<!-- Node18 -->
<g id="node18" class="node">
<title>Node18</title>
<g id="a_node18"><a xlink:href="structaltintegration_1_1Chain.html" target="_top" xlink:title="Fully in&#45;memory chain representation.">
<polygon fill="white" stroke="black" points="650,-1142 650,-1320 751,-1320 751,-1142 650,-1142"/>
<text text-anchor="start" x="658" y="-1308" font-family="Helvetica,sans-Serif" font-size="10.00">altintegration::Chain</text>
<text text-anchor="middle" x="700.5" y="-1297" font-family="Helvetica,sans-Serif" font-size="10.00">&lt; BlockIndexT &gt;</text>
<polyline fill="none" stroke="black" points="650,-1290 751,-1290 "/>
<text text-anchor="middle" x="700.5" y="-1278" font-family="Helvetica,sans-Serif" font-size="10.00"> </text>
<polyline fill="none" stroke="black" points="650,-1271 751,-1271 "/>
<text text-anchor="start" x="658" y="-1259" font-family="Helvetica,sans-Serif" font-size="10.00">+ Chain()</text>
<text text-anchor="start" x="658" y="-1248" font-family="Helvetica,sans-Serif" font-size="10.00">+ Chain()</text>
<text text-anchor="start" x="658" y="-1237" font-family="Helvetica,sans-Serif" font-size="10.00">+ Chain()</text>
<text text-anchor="start" x="658" y="-1226" font-family="Helvetica,sans-Serif" font-size="10.00">+ getStartHeight()</text>
<text text-anchor="start" x="658" y="-1215" font-family="Helvetica,sans-Serif" font-size="10.00">+ firstHeight()</text>
<text text-anchor="start" x="658" y="-1204" font-family="Helvetica,sans-Serif" font-size="10.00">+ contains()</text>
<text text-anchor="start" x="658" y="-1193" font-family="Helvetica,sans-Serif" font-size="10.00">+ operator[]()</text>
<text text-anchor="start" x="658" y="-1182" font-family="Helvetica,sans-Serif" font-size="10.00">+ next()</text>
<text text-anchor="start" x="658" y="-1171" font-family="Helvetica,sans-Serif" font-size="10.00">+ chainHeight()</text>
<text text-anchor="start" x="658" y="-1160" font-family="Helvetica,sans-Serif" font-size="10.00">+ empty()</text>
<text text-anchor="start" x="658" y="-1149" font-family="Helvetica,sans-Serif" font-size="10.00">and 15 more...</text>
</a>
</g>
</g>
<!-- Node18&#45;&gt;Node17 -->
<g id="edge23" class="edge">
<title>Node18&#45;&gt;Node17</title>
<path fill="none" stroke="orange" d="M673.58,-1131.89C667.68,-1110.36 661.46,-1087.7 655.67,-1066.6"/>
<polygon fill="orange" stroke="orange" points="670.25,-1132.97 676.27,-1141.68 677,-1131.11 670.25,-1132.97"/>
<text text-anchor="middle" x="729" y="-1093.5" font-family="Helvetica,sans-Serif" font-size="10.00"> &lt; altintegration::BlockIndex &gt;</text>
</g>
<!-- Node19 -->
<g id="node19" class="node">
<title>Node19</title>
<g id="a_node19"><a xlink:href="structaltintegration_1_1BlockReader.html" target="_top" xlink:title="An abstraction over on&#45;disk storage iterator.">
<polygon fill="white" stroke="black" points="720.5,-894 720.5,-1061 852.5,-1061 852.5,-894 720.5,-894"/>
<text text-anchor="middle" x="786.5" y="-1049" font-family="Helvetica,sans-Serif" font-size="10.00">altintegration::BlockReader</text>
<polyline fill="none" stroke="black" points="720.5,-1042 852.5,-1042 "/>
<text text-anchor="middle" x="786.5" y="-1030" font-family="Helvetica,sans-Serif" font-size="10.00"> </text>
<polyline fill="none" stroke="black" points="720.5,-1023 852.5,-1023 "/>
<text text-anchor="start" x="728.5" y="-1011" font-family="Helvetica,sans-Serif" font-size="10.00">+ ~BlockReader()</text>
<text text-anchor="start" x="728.5" y="-1000" font-family="Helvetica,sans-Serif" font-size="10.00">+ getAltTip()</text>
<text text-anchor="start" x="728.5" y="-989" font-family="Helvetica,sans-Serif" font-size="10.00">+ getVbkTip()</text>
<text text-anchor="start" x="728.5" y="-978" font-family="Helvetica,sans-Serif" font-size="10.00">+ getBtcTip()</text>
<text text-anchor="start" x="728.5" y="-967" font-family="Helvetica,sans-Serif" font-size="10.00">+ getBlock()</text>
<text text-anchor="start" x="728.5" y="-956" font-family="Helvetica,sans-Serif" font-size="10.00">+ getBlock()</text>
<text text-anchor="start" x="728.5" y="-945" font-family="Helvetica,sans-Serif" font-size="10.00">+ getBlock()</text>
<text text-anchor="start" x="728.5" y="-934" font-family="Helvetica,sans-Serif" font-size="10.00">+ getAltBlockIterator()</text>
<text text-anchor="start" x="728.5" y="-923" font-family="Helvetica,sans-Serif" font-size="10.00">+ getVbkBlockIterator()</text>
<text text-anchor="start" x="728.5" y="-912" font-family="Helvetica,sans-Serif" font-size="10.00">+ getBtcBlockIterator()</text>
<text text-anchor="start" x="728.5" y="-901" font-family="Helvetica,sans-Serif" font-size="10.00">and 6 more...</text>
</a>
</g>
</g>
<!-- Node19&#45;&gt;Node2 -->
<g id="edge24" class="edge">
<title>Node19&#45;&gt;Node2</title>
<path fill="none" stroke="#404040" d="M783.42,-893.72C776.65,-805.45 755.53,-664.66 690.5,-563 653.1,-504.54 590.58,-457 539.01,-424.76"/>
<polygon fill="none" stroke="#404040" points="538.74,-424.59 531.53,-424.86 528.51,-418.31 535.72,-418.04 538.74,-424.59"/>
<text text-anchor="middle" x="814" y="-699.5" font-family="Helvetica,sans-Serif" font-size="10.00"> #blockProvider_</text>
</g>
<!-- Node19&#45;&gt;Node20 -->
<g id="edge29" class="edge">
<title>Node19&#45;&gt;Node20</title>
<path fill="none" stroke="#404040" d="M720.39,-895.5C717.47,-892.89 714.5,-890.38 711.5,-888 693.51,-873.74 638.69,-853.61 619.5,-841 591.79,-822.79 563.35,-800.75 537.98,-779.68"/>
<polygon fill="none" stroke="#404040" points="537.98,-779.68 530.81,-778.89 528.78,-771.97 535.95,-772.76 537.98,-779.68"/>
<text text-anchor="middle" x="715" y="-862" font-family="Helvetica,sans-Serif" font-size="10.00"> #blockProvider_</text>
</g>
<!-- Node20&#45;&gt;Node2 -->
<g id="edge25" class="edge">
<title>Node20&#45;&gt;Node2</title>
<path fill="none" stroke="orange" d="M452.5,-552.75C452.5,-540.41 452.5,-527.97 452.5,-515.71"/>
<polygon fill="orange" stroke="orange" points="449,-553.08 452.5,-563.08 456,-553.08 449,-553.08"/>
<text text-anchor="middle" x="480.5" y="-537" font-family="Helvetica,sans-Serif" font-size="10.00"> &lt; AltBlock &gt;</text>
</g>
</g>
</svg>
        <g id="navigator" transform="translate(0 0)" fill="#404254">
                <rect fill="#f2f5e9" fill-opacity="0.5" stroke="#606060" stroke-width=".5" x="0" y="0" width="60" height="60"/>
                <use id="zoomplus" xlink:href="#zoomPlus" x="17" y="9" onmousedown="handleZoom(evt,'in')"/>
                <use id="zoomminus" xlink:href="#zoomMin" x="42" y="9" onmousedown="handleZoom(evt,'out')"/>
                <use id="reset" xlink:href="#resetDef" x="30" y="36" onmousedown="handleReset()"/>
                <g id="arrowUp" xlink:href="#dirArrow" transform="translate(30 24)" onmousedown="handlePan(0,-1)">
                  <use xlink:href="#rim" fill="#404040">
                        <set attributeName="fill" to="#808080" begin="arrowUp.mouseover" end="arrowUp.mouseout"/>
                  </use>
                  <path fill="none" stroke="white" stroke-width="1.5" d="M0,-3.0v7 M-2.5,-0.5L0,-3.0L2.5,-0.5"/>
                </g>
                <g id="arrowRight" xlink:href="#dirArrow" transform="rotate(90) translate(36 -43)" onmousedown="handlePan(1,0)">
                  <use xlink:href="#rim" fill="#404040">
                        <set attributeName="fill" to="#808080" begin="arrowRight.mouseover" end="arrowRight.mouseout"/>
                  </use>
                  <path fill="none" stroke="white" stroke-width="1.5" d="M0,-3.0v7 M-2.5,-0.5L0,-3.0L2.5,-0.5"/>
                </g>
                <g id="arrowDown" xlink:href="#dirArrow" transform="rotate(180) translate(-30 -48)" onmousedown="handlePan(0,1)">
                  <use xlink:href="#rim" fill="#404040">
                        <set attributeName="fill" to="#808080" begin="arrowDown.mouseover" end="arrowDown.mouseout"/>
                  </use>
                  <path fill="none" stroke="white" stroke-width="1.5" d="M0,-3.0v7 M-2.5,-0.5L0,-3.0L2.5,-0.5"/>
                </g>
                <g id="arrowLeft" xlink:href="#dirArrow" transform="rotate(270) translate(-36 17)" onmousedown="handlePan(-1,0)">
                  <use xlink:href="#rim" fill="#404040">
                        <set attributeName="fill" to="#808080" begin="arrowLeft.mouseover" end="arrowLeft.mouseout"/>
                  </use>
                  <path fill="none" stroke="white" stroke-width="1.5" d="M0,-3.0v7 M-2.5,-0.5L0,-3.0L2.5,-0.5"/>
                </g>
        </g>
        <svg viewBox="0 0 15 15" width="100%" height="30px" preserveAspectRatio="xMaxYMin meet">
         <g id="arrow_out" transform="scale(0.3 0.3)">
          <a xlink:href="structaltintegration_1_1AltBlockTree__coll__graph_org.svg" target="_base">
           <rect id="button" ry="5" rx="5" y="6" x="6" height="38" width="38"
                fill="#f2f5e9" fill-opacity="0.5" stroke="#606060" stroke-width="1.0"/>
           <path id="arrow"
             d="M 11.500037,31.436501 C 11.940474,20.09759 22.043105,11.32322 32.158766,21.979434 L 37.068811,17.246167 C 37.068811,17.246167 37.088388,32 37.088388,32 L 22.160133,31.978069 C 22.160133,31.978069 26.997745,27.140456 26.997745,27.140456 C 18.528582,18.264221 13.291696,25.230495 11.500037,31.436501 z"
             style="fill:#404040;"/>
          </a>
         </g>
        </svg>
</svg>
