<?xml version="1.0" encoding="UTF-8" standalone="no"?>
<!DOCTYPE svg PUBLIC "-//W3C//DTD SVG 1.1//EN"
 "http://www.w3.org/Graphics/SVG/1.1/DTD/svg11.dtd">
<!-- Generated by graphviz version 3.0.0 (20220413.0242)
 -->
<!-- Title: altintegration::btc::BlockTxnMsg Pages: 1 -->
<svg width="860pt" height="1495pt"
 viewBox="0.00 0.00 860.00 1495.00" xmlns="http://www.w3.org/2000/svg" xmlns:xlink="http://www.w3.org/1999/xlink">
<g id="graph0" class="graph" transform="scale(1 1) rotate(0) translate(4 1491)">
<title>altintegration::btc::BlockTxnMsg</title>
<polygon fill="white" stroke="transparent" points="-4,4 -4,-1491 856,-1491 856,4 -4,4"/>
<!-- Node1 -->
<g id="node1" class="node">
<title>Node1</title>
<g id="a_node1"><a xlink:title=" ">
<polygon fill="#bfbfbf" stroke="black" points="433.5,-0.5 433.5,-68.5 588.5,-68.5 588.5,-0.5 433.5,-0.5"/>
<text text-anchor="start" x="441.5" y="-56.5" font-family="Helvetica,sans-Serif" font-size="10.00">altintegration::btc</text>
<text text-anchor="middle" x="511" y="-45.5" font-family="Helvetica,sans-Serif" font-size="10.00">::BlockTxnMsg</text>
<polyline fill="none" stroke="black" points="433.5,-38.5 588.5,-38.5 "/>
<text text-anchor="start" x="441.5" y="-26.5" font-family="Helvetica,sans-Serif" font-size="10.00">+ ADD_SERIALIZE_METHODS</text>
<polyline fill="none" stroke="black" points="433.5,-19.5 588.5,-19.5 "/>
<text text-anchor="start" x="441.5" y="-7.5" font-family="Helvetica,sans-Serif" font-size="10.00">+ SerializationOp()</text>
</a>
</g>
</g>
<!-- Node2 -->
<g id="node2" class="node">
<title>Node2</title>
<g id="a_node2"><a xlink:href="structaltintegration_1_1btc_1_1BlockTransactions.html" target="_top" xlink:title=" ">
<polygon fill="white" stroke="#bfbfbf" points="433.5,-116.5 433.5,-184.5 588.5,-184.5 588.5,-116.5 433.5,-116.5"/>
<text text-anchor="start" x="441.5" y="-172.5" font-family="Helvetica,sans-Serif" font-size="10.00">altintegration::btc</text>
<text text-anchor="middle" x="511" y="-161.5" font-family="Helvetica,sans-Serif" font-size="10.00">::BlockTransactions</text>
<polyline fill="none" stroke="#bfbfbf" points="433.5,-154.5 588.5,-154.5 "/>
<text text-anchor="start" x="441.5" y="-142.5" font-family="Helvetica,sans-Serif" font-size="10.00">+ ADD_SERIALIZE_METHODS</text>
<polyline fill="none" stroke="#bfbfbf" points="433.5,-135.5 588.5,-135.5 "/>
<text text-anchor="start" x="441.5" y="-123.5" font-family="Helvetica,sans-Serif" font-size="10.00">+ SerializationOp()</text>
</a>
</g>
</g>
<!-- Node2&#45;&gt;Node1 -->
<g id="edge1" class="edge">
<title>Node2&#45;&gt;Node1</title>
<path fill="none" stroke="#404040" d="M511,-116.22C511,-105.1 511,-92.51 511,-80.64"/>
<polygon fill="none" stroke="#404040" points="511,-80.62 507,-74.62 511,-68.62 515,-74.62 511,-80.62"/>
<text text-anchor="middle" x="525" y="-90" font-family="Helvetica,sans-Serif" font-size="10.00"> +resp</text>
</g>
<!-- Node3 -->
<g id="node3" class="node">
<title>Node3</title>
<g id="a_node3"><a xlink:href="structaltintegration_1_1Blob.html" target="_top" xlink:title=" ">
<polygon fill="white" stroke="black" points="669.5,-878.5 669.5,-1111.5 800.5,-1111.5 800.5,-878.5 669.5,-878.5"/>
<text text-anchor="start" x="677.5" y="-1099.5" font-family="Helvetica,sans-Serif" font-size="10.00">altintegration::Blob</text>
<text text-anchor="middle" x="735" y="-1088.5" font-family="Helvetica,sans-Serif" font-size="10.00">&lt; SHA256_HASH_SIZE &gt;</text>
<polyline fill="none" stroke="black" points="669.5,-1081.5 800.5,-1081.5 "/>
<text text-anchor="start" x="677.5" y="-1069.5" font-family="Helvetica,sans-Serif" font-size="10.00">+ data_</text>
<text text-anchor="start" x="677.5" y="-1058.5" font-family="Helvetica,sans-Serif" font-size="10.00">+ this</text>
<polyline fill="none" stroke="black" points="669.5,-1051.5 800.5,-1051.5 "/>
<text text-anchor="start" x="677.5" y="-1039.5" font-family="Helvetica,sans-Serif" font-size="10.00">+ Blob()</text>
<text text-anchor="start" x="677.5" y="-1028.5" font-family="Helvetica,sans-Serif" font-size="10.00">+ Blob()</text>
<text text-anchor="start" x="677.5" y="-1017.5" font-family="Helvetica,sans-Serif" font-size="10.00">+ Blob()</text>
<text text-anchor="start" x="677.5" y="-1006.5" font-family="Helvetica,sans-Serif" font-size="10.00">+ Blob()</text>
<text text-anchor="start" x="677.5" y="-995.5" font-family="Helvetica,sans-Serif" font-size="10.00">+ Blob()</text>
<text text-anchor="start" x="677.5" y="-984.5" font-family="Helvetica,sans-Serif" font-size="10.00">+ operator std::vector</text>
<text text-anchor="start" x="677.5" y="-973.5" font-family="Helvetica,sans-Serif" font-size="10.00">&lt; uint8_t &gt;()</text>
<text text-anchor="start" x="677.5" y="-962.5" font-family="Helvetica,sans-Serif" font-size="10.00">+ fill()</text>
<text text-anchor="start" x="677.5" y="-951.5" font-family="Helvetica,sans-Serif" font-size="10.00">+ begin()</text>
<text text-anchor="start" x="677.5" y="-940.5" font-family="Helvetica,sans-Serif" font-size="10.00">+ begin()</text>
<text text-anchor="start" x="677.5" y="-929.5" font-family="Helvetica,sans-Serif" font-size="10.00">+ end()</text>
<text text-anchor="start" x="677.5" y="-918.5" font-family="Helvetica,sans-Serif" font-size="10.00">and 20 more...</text>
<text text-anchor="start" x="677.5" y="-907.5" font-family="Helvetica,sans-Serif" font-size="10.00">+ size()</text>
<text text-anchor="start" x="677.5" y="-896.5" font-family="Helvetica,sans-Serif" font-size="10.00">+ fromHex()</text>
<text text-anchor="start" x="677.5" y="-885.5" font-family="Helvetica,sans-Serif" font-size="10.00">+ assertFromHex()</text>
</a>
</g>
</g>
<!-- Node3&#45;&gt;Node2 -->
<g id="edge2" class="edge">
<title>Node3&#45;&gt;Node2</title>
<path fill="none" stroke="#404040" d="M755.05,-878.26C759.02,-846.81 762,-812.68 762,-781 762,-781 762,-781 762,-265.5 762,-192.55 673.01,-166.05 601,-156.56"/>
<polygon fill="none" stroke="#404040" points="600.61,-156.51 594.18,-159.76 588.7,-155.07 595.13,-151.82 600.61,-156.51"/>
<text text-anchor="middle" x="788.5" y="-529" font-family="Helvetica,sans-Serif" font-size="10.00"> +blockhash</text>
</g>
<!-- Node9 -->
<g id="node9" class="node">
<title>Node9</title>
<g id="a_node9"><a xlink:href="structaltintegration_1_1btc_1_1OutPoint.html" target="_top" xlink:title="An outpoint &#45; a combination of a transaction hash and an index n into its vout.">
<polygon fill="white" stroke="black" points="578.5,-740.5 578.5,-819.5 733.5,-819.5 733.5,-740.5 578.5,-740.5"/>
<text text-anchor="start" x="586.5" y="-807.5" font-family="Helvetica,sans-Serif" font-size="10.00">altintegration::btc</text>
<text text-anchor="middle" x="656" y="-796.5" font-family="Helvetica,sans-Serif" font-size="10.00">::OutPoint</text>
<polyline fill="none" stroke="black" points="578.5,-789.5 733.5,-789.5 "/>
<text text-anchor="start" x="586.5" y="-777.5" font-family="Helvetica,sans-Serif" font-size="10.00">+ n</text>
<text text-anchor="start" x="586.5" y="-766.5" font-family="Helvetica,sans-Serif" font-size="10.00">+ ADD_SERIALIZE_METHODS</text>
<polyline fill="none" stroke="black" points="578.5,-759.5 733.5,-759.5 "/>
<text text-anchor="start" x="586.5" y="-747.5" font-family="Helvetica,sans-Serif" font-size="10.00">+ SerializationOp()</text>
</a>
</g>
</g>
<!-- Node3&#45;&gt;Node9 -->
<g id="edge9" class="edge">
<title>Node3&#45;&gt;Node9</title>
<path fill="none" stroke="#404040" d="M692.15,-878.46C686.03,-861.96 680.01,-845.75 674.7,-831.43"/>
<polygon fill="none" stroke="#404040" points="674.59,-831.13 668.76,-826.89 670.42,-819.88 676.26,-824.11 674.59,-831.13"/>
<text text-anchor="middle" x="699" y="-846.5" font-family="Helvetica,sans-Serif" font-size="10.00"> +hash</text>
</g>
<!-- Node4 -->
<g id="node4" class="node">
<title>Node4</title>
<g id="a_node4"><a xlink:href="structaltintegration_1_1Blob.html" target="_top" xlink:title="Contiguous byte array of fixed size.">
<polygon fill="white" stroke="black" points="675,-1159.5 675,-1381.5 795,-1381.5 795,-1159.5 675,-1159.5"/>
<text text-anchor="middle" x="735" y="-1369.5" font-family="Helvetica,sans-Serif" font-size="10.00">altintegration::Blob&lt; N &gt;</text>
<polyline fill="none" stroke="black" points="675,-1362.5 795,-1362.5 "/>
<text text-anchor="start" x="683" y="-1350.5" font-family="Helvetica,sans-Serif" font-size="10.00">+ data_</text>
<text text-anchor="start" x="683" y="-1339.5" font-family="Helvetica,sans-Serif" font-size="10.00">+ this</text>
<polyline fill="none" stroke="black" points="675,-1332.5 795,-1332.5 "/>
<text text-anchor="start" x="683" y="-1320.5" font-family="Helvetica,sans-Serif" font-size="10.00">+ Blob()</text>
<text text-anchor="start" x="683" y="-1309.5" font-family="Helvetica,sans-Serif" font-size="10.00">+ Blob()</text>
<text text-anchor="start" x="683" y="-1298.5" font-family="Helvetica,sans-Serif" font-size="10.00">+ Blob()</text>
<text text-anchor="start" x="683" y="-1287.5" font-family="Helvetica,sans-Serif" font-size="10.00">+ Blob()</text>
<text text-anchor="start" x="683" y="-1276.5" font-family="Helvetica,sans-Serif" font-size="10.00">+ Blob()</text>
<text text-anchor="start" x="683" y="-1265.5" font-family="Helvetica,sans-Serif" font-size="10.00">+ operator std::vector</text>
<text text-anchor="start" x="683" y="-1254.5" font-family="Helvetica,sans-Serif" font-size="10.00">&lt; uint8_t &gt;()</text>
<text text-anchor="start" x="683" y="-1243.5" font-family="Helvetica,sans-Serif" font-size="10.00">+ fill()</text>
<text text-anchor="start" x="683" y="-1232.5" font-family="Helvetica,sans-Serif" font-size="10.00">+ begin()</text>
<text text-anchor="start" x="683" y="-1221.5" font-family="Helvetica,sans-Serif" font-size="10.00">+ begin()</text>
<text text-anchor="start" x="683" y="-1210.5" font-family="Helvetica,sans-Serif" font-size="10.00">+ end()</text>
<text text-anchor="start" x="683" y="-1199.5" font-family="Helvetica,sans-Serif" font-size="10.00">and 20 more...</text>
<text text-anchor="start" x="683" y="-1188.5" font-family="Helvetica,sans-Serif" font-size="10.00">+ size()</text>
<text text-anchor="start" x="683" y="-1177.5" font-family="Helvetica,sans-Serif" font-size="10.00">+ fromHex()</text>
<text text-anchor="start" x="683" y="-1166.5" font-family="Helvetica,sans-Serif" font-size="10.00">+ assertFromHex()</text>
</a>
</g>
</g>
<!-- Node4&#45;&gt;Node3 -->
<g id="edge3" class="edge">
<title>Node4&#45;&gt;Node3</title>
<path fill="none" stroke="orange" d="M735,-1149.43C735,-1136.88 735,-1124.14 735,-1111.64"/>
<polygon fill="orange" stroke="orange" points="731.5,-1149.44 735,-1159.44 738.5,-1149.44 731.5,-1149.44"/>
<text text-anchor="middle" x="793.5" y="-1133" font-family="Helvetica,sans-Serif" font-size="10.00"> &lt; SHA256_HASH_SIZE &gt;</text>
</g>
<!-- Node5 -->
<g id="node5" class="node">
<title>Node5</title>
<g id="a_node5"><a xlink:title=" ">
<polygon fill="white" stroke="black" points="185.5,-232.5 185.5,-300.5 310.5,-300.5 310.5,-232.5 185.5,-232.5"/>
<text text-anchor="start" x="193.5" y="-288.5" font-family="Helvetica,sans-Serif" font-size="10.00">std::vector&lt; altintegration</text>
<text text-anchor="middle" x="248" y="-277.5" font-family="Helvetica,sans-Serif" font-size="10.00">::btc::Transaction &gt;</text>
<polyline fill="none" stroke="black" points="185.5,-270.5 310.5,-270.5 "/>
<text text-anchor="middle" x="248" y="-258.5" font-family="Helvetica,sans-Serif" font-size="10.00"> </text>
<polyline fill="none" stroke="black" points="185.5,-251.5 310.5,-251.5 "/>
<text text-anchor="middle" x="248" y="-239.5" font-family="Helvetica,sans-Serif" font-size="10.00"> </text>
</a>
</g>
</g>
<!-- Node5&#45;&gt;Node2 -->
<g id="edge4" class="edge">
<title>Node5&#45;&gt;Node2</title>
<path fill="none" stroke="#404040" d="M310.66,-238.34C344.39,-223.72 386.55,-205.45 423.47,-189.44"/>
<polygon fill="none" stroke="#404040" points="423.74,-189.33 427.65,-183.27 434.75,-184.55 430.83,-190.61 423.74,-189.33"/>
<text text-anchor="middle" x="399" y="-206" font-family="Helvetica,sans-Serif" font-size="10.00"> +txn</text>
</g>
<!-- Node6 -->
<g id="node6" class="node">
<title>Node6</title>
<g id="a_node6"><a xlink:href="structaltintegration_1_1btc_1_1Transaction.html" target="_top" xlink:title="The basic transaction that is broadcasted on the network and contained in blocks.">
<polygon fill="white" stroke="black" points="203,-348.5 203,-449.5 293,-449.5 293,-348.5 203,-348.5"/>
<text text-anchor="start" x="211" y="-437.5" font-family="Helvetica,sans-Serif" font-size="10.00">altintegration::btc</text>
<text text-anchor="middle" x="248" y="-426.5" font-family="Helvetica,sans-Serif" font-size="10.00">::Transaction</text>
<polyline fill="none" stroke="black" points="203,-419.5 293,-419.5 "/>
<text text-anchor="start" x="211" y="-407.5" font-family="Helvetica,sans-Serif" font-size="10.00">+ nVersion</text>
<text text-anchor="start" x="211" y="-396.5" font-family="Helvetica,sans-Serif" font-size="10.00">+ nLockTime</text>
<polyline fill="none" stroke="black" points="203,-389.5 293,-389.5 "/>
<text text-anchor="start" x="211" y="-377.5" font-family="Helvetica,sans-Serif" font-size="10.00">+ Serialize()</text>
<text text-anchor="start" x="211" y="-366.5" font-family="Helvetica,sans-Serif" font-size="10.00">+ Unserialize()</text>
<text text-anchor="start" x="211" y="-355.5" font-family="Helvetica,sans-Serif" font-size="10.00">+ HasWitness()</text>
</a>
</g>
</g>
<!-- Node6&#45;&gt;Node5 -->
<g id="edge5" class="edge">
<title>Node6&#45;&gt;Node5</title>
<path fill="none" stroke="#404040" d="M248,-348.29C248,-336.55 248,-324.09 248,-312.57"/>
<polygon fill="none" stroke="#404040" points="248,-312.51 244,-306.51 248,-300.51 252,-306.51 248,-312.51"/>
<text text-anchor="middle" x="272.5" y="-322" font-family="Helvetica,sans-Serif" font-size="10.00"> +elements</text>
</g>
<!-- Node7 -->
<g id="node7" class="node">
<title>Node7</title>
<g id="a_node7"><a xlink:title=" ">
<polygon fill="white" stroke="black" points="306.5,-497.5 306.5,-565.5 431.5,-565.5 431.5,-497.5 306.5,-497.5"/>
<text text-anchor="start" x="314.5" y="-553.5" font-family="Helvetica,sans-Serif" font-size="10.00">std::vector&lt; altintegration</text>
<text text-anchor="middle" x="369" y="-542.5" font-family="Helvetica,sans-Serif" font-size="10.00">::btc::TxIn &gt;</text>
<polyline fill="none" stroke="black" points="306.5,-535.5 431.5,-535.5 "/>
<text text-anchor="middle" x="369" y="-523.5" font-family="Helvetica,sans-Serif" font-size="10.00"> </text>
<polyline fill="none" stroke="black" points="306.5,-516.5 431.5,-516.5 "/>
<text text-anchor="middle" x="369" y="-504.5" font-family="Helvetica,sans-Serif" font-size="10.00"> </text>
</a>
</g>
</g>
<!-- Node7&#45;&gt;Node6 -->
<g id="edge6" class="edge">
<title>Node7&#45;&gt;Node6</title>
<path fill="none" stroke="#404040" d="M338.15,-497.23C327.12,-485.33 314.33,-471.54 301.92,-458.15"/>
<polygon fill="none" stroke="#404040" points="301.57,-457.78 294.56,-456.1 293.41,-448.98 300.42,-450.66 301.57,-457.78"/>
<text text-anchor="middle" x="331" y="-471" font-family="Helvetica,sans-Serif" font-size="10.00"> +vin</text>
</g>
<!-- Node8 -->
<g id="node8" class="node">
<title>Node8</title>
<g id="a_node8"><a xlink:href="structaltintegration_1_1btc_1_1TxIn.html" target="_top" xlink:title="An input of a transaction.">
<polygon fill="white" stroke="black" points="291.5,-613.5 291.5,-692.5 446.5,-692.5 446.5,-613.5 291.5,-613.5"/>
<text text-anchor="start" x="299.5" y="-680.5" font-family="Helvetica,sans-Serif" font-size="10.00">altintegration::btc</text>
<text text-anchor="middle" x="369" y="-669.5" font-family="Helvetica,sans-Serif" font-size="10.00">::TxIn</text>
<polyline fill="none" stroke="black" points="291.5,-662.5 446.5,-662.5 "/>
<text text-anchor="start" x="299.5" y="-650.5" font-family="Helvetica,sans-Serif" font-size="10.00">+ nSequence</text>
<text text-anchor="start" x="299.5" y="-639.5" font-family="Helvetica,sans-Serif" font-size="10.00">+ ADD_SERIALIZE_METHODS</text>
<polyline fill="none" stroke="black" points="291.5,-632.5 446.5,-632.5 "/>
<text text-anchor="start" x="299.5" y="-620.5" font-family="Helvetica,sans-Serif" font-size="10.00">+ SerializationOp()</text>
</a>
</g>
</g>
<!-- Node8&#45;&gt;Node7 -->
<g id="edge7" class="edge">
<title>Node8&#45;&gt;Node7</title>
<path fill="none" stroke="#404040" d="M369,-613.2C369,-601.99 369,-589.65 369,-578.07"/>
<polygon fill="none" stroke="#404040" points="369,-577.89 365,-571.89 369,-565.89 373,-571.89 369,-577.89"/>
<text text-anchor="middle" x="393.5" y="-587" font-family="Helvetica,sans-Serif" font-size="10.00"> +elements</text>
</g>
<!-- Node9&#45;&gt;Node8 -->
<g id="edge8" class="edge">
<title>Node9&#45;&gt;Node8</title>
<path fill="none" stroke="#404040" d="M578.33,-745.17C541.16,-728.98 496.47,-709.52 457.94,-692.74"/>
<polygon fill="none" stroke="#404040" points="457.73,-692.65 450.63,-693.92 446.73,-687.85 453.83,-686.58 457.73,-692.65"/>
<text text-anchor="middle" x="542.5" y="-714" font-family="Helvetica,sans-Serif" font-size="10.00"> +prevout</text>
</g>
<!-- Node10 -->
<g id="node10" class="node">
<title>Node10</title>
<g id="a_node10"><a xlink:title=" ">
<polygon fill="white" stroke="black" points="204.5,-966.5 204.5,-1023.5 311.5,-1023.5 311.5,-966.5 204.5,-966.5"/>
<text text-anchor="middle" x="258" y="-1011.5" font-family="Helvetica,sans-Serif" font-size="10.00">std::vector&lt; uint8_t &gt;</text>
<polyline fill="none" stroke="black" points="204.5,-1004.5 311.5,-1004.5 "/>
<text text-anchor="start" x="212.5" y="-992.5" font-family="Helvetica,sans-Serif" font-size="10.00">+ elements</text>
<polyline fill="none" stroke="black" points="204.5,-985.5 311.5,-985.5 "/>
<text text-anchor="middle" x="258" y="-973.5" font-family="Helvetica,sans-Serif" font-size="10.00"> </text>
</a>
</g>
</g>
<!-- Node10&#45;&gt;Node8 -->
<g id="edge10" class="edge">
<title>Node10&#45;&gt;Node8</title>
<path fill="none" stroke="#404040" d="M256.21,-966.41C252.93,-909.08 247.94,-779.18 267,-740 274.22,-725.17 285.31,-711.93 297.57,-700.55"/>
<polygon fill="none" stroke="#404040" points="297.63,-700.5 299.51,-693.54 306.66,-692.6 304.78,-699.56 297.63,-700.5"/>
<text text-anchor="middle" x="290.5" y="-777.5" font-family="Helvetica,sans-Serif" font-size="10.00"> +scriptSig</text>
</g>
<!-- Node13 -->
<g id="node13" class="node">
<title>Node13</title>
<g id="a_node13"><a xlink:title=" ">
<polygon fill="white" stroke="black" points="323.5,-746 323.5,-814 438.5,-814 438.5,-746 323.5,-746"/>
<text text-anchor="start" x="331.5" y="-802" font-family="Helvetica,sans-Serif" font-size="10.00">std::vector&lt; std::vector</text>
<text text-anchor="middle" x="381" y="-791" font-family="Helvetica,sans-Serif" font-size="10.00">&lt; uint8_t &gt; &gt;</text>
<polyline fill="none" stroke="black" points="323.5,-784 438.5,-784 "/>
<text text-anchor="middle" x="381" y="-772" font-family="Helvetica,sans-Serif" font-size="10.00"> </text>
<polyline fill="none" stroke="black" points="323.5,-765 438.5,-765 "/>
<text text-anchor="middle" x="381" y="-753" font-family="Helvetica,sans-Serif" font-size="10.00"> </text>
</a>
</g>
</g>
<!-- Node10&#45;&gt;Node13 -->
<g id="edge14" class="edge">
<title>Node10&#45;&gt;Node13</title>
<path fill="none" stroke="#404040" d="M259.02,-966.48C261.49,-933.26 269.74,-877.02 297,-838 301.68,-831.3 307.42,-825.16 313.68,-819.59"/>
<polygon fill="none" stroke="#404040" points="313.87,-819.44 315.99,-812.55 323.17,-811.85 321.05,-818.74 313.87,-819.44"/>
<text text-anchor="middle" x="321.5" y="-846.5" font-family="Helvetica,sans-Serif" font-size="10.00"> +elements</text>
</g>
<!-- Node15 -->
<g id="node15" class="node">
<title>Node15</title>
<g id="a_node15"><a xlink:href="structaltintegration_1_1btc_1_1TxOut.html" target="_top" xlink:title="An output of a transaction.">
<polygon fill="white" stroke="black" points="66.5,-740.5 66.5,-819.5 221.5,-819.5 221.5,-740.5 66.5,-740.5"/>
<text text-anchor="start" x="74.5" y="-807.5" font-family="Helvetica,sans-Serif" font-size="10.00">altintegration::btc</text>
<text text-anchor="middle" x="144" y="-796.5" font-family="Helvetica,sans-Serif" font-size="10.00">::TxOut</text>
<polyline fill="none" stroke="black" points="66.5,-789.5 221.5,-789.5 "/>
<text text-anchor="start" x="74.5" y="-777.5" font-family="Helvetica,sans-Serif" font-size="10.00">+ nValue</text>
<text text-anchor="start" x="74.5" y="-766.5" font-family="Helvetica,sans-Serif" font-size="10.00">+ ADD_SERIALIZE_METHODS</text>
<polyline fill="none" stroke="black" points="66.5,-759.5 221.5,-759.5 "/>
<text text-anchor="start" x="74.5" y="-747.5" font-family="Helvetica,sans-Serif" font-size="10.00">+ SerializationOp()</text>
</a>
</g>
</g>
<!-- Node10&#45;&gt;Node15 -->
<g id="edge19" class="edge">
<title>Node10&#45;&gt;Node15</title>
<path fill="none" stroke="#404040" d="M239.69,-966.45C222.41,-939.83 196.32,-898.06 177,-860 172.31,-850.76 167.73,-840.69 163.54,-830.94"/>
<polygon fill="none" stroke="#404040" points="163.47,-830.76 157.46,-826.77 158.82,-819.69 164.83,-823.68 163.47,-830.76"/>
<text text-anchor="middle" x="210.5" y="-846.5" font-family="Helvetica,sans-Serif" font-size="10.00"> +scriptPubKey</text>
</g>
<!-- Node11 -->
<g id="node11" class="node">
<title>Node11</title>
<g id="a_node11"><a xlink:title=" ">
<polygon fill="white" stroke="black" points="216,-1242 216,-1299 300,-1299 300,-1242 216,-1242"/>
<text text-anchor="middle" x="258" y="-1287" font-family="Helvetica,sans-Serif" font-size="10.00">std::vector&lt; T &gt;</text>
<polyline fill="none" stroke="black" points="216,-1280 300,-1280 "/>
<text text-anchor="middle" x="258" y="-1268" font-family="Helvetica,sans-Serif" font-size="10.00"> </text>
<polyline fill="none" stroke="black" points="216,-1261 300,-1261 "/>
<text text-anchor="middle" x="258" y="-1249" font-family="Helvetica,sans-Serif" font-size="10.00"> </text>
</a>
</g>
</g>
<!-- Node11&#45;&gt;Node5 -->
<g id="edge21" class="edge">
<title>Node11&#45;&gt;Node5</title>
<path fill="none" stroke="orange" d="M207.1,-1244.64C131.92,-1203.94 0,-1115.49 0,-996 0,-996 0,-996 0,-398 0,-314.32 111.95,-284.17 185.42,-273.4"/>
<polygon fill="orange" stroke="orange" points="205.5,-1247.76 215.97,-1249.37 208.79,-1241.58 205.5,-1247.76"/>
<text text-anchor="start" x="0" y="-656" font-family="Helvetica,sans-Serif" font-size="10.00"> &lt; altintegration::btc</text>
<text text-anchor="middle" x="42.5" y="-645" font-family="Helvetica,sans-Serif" font-size="10.00">::Transaction &gt;</text>
</g>
<!-- Node11&#45;&gt;Node7 -->
<g id="edge16" class="edge">
<title>Node11&#45;&gt;Node7</title>
<path fill="none" stroke="orange" d="M308.99,-1244.67C356.54,-1218.62 425.21,-1172.96 460,-1112 485.77,-1066.85 475,-1047.98 475,-996 475,-996 475,-996 475,-652 475,-616.5 448.5,-586.63 422,-565.63"/>
<polygon fill="orange" stroke="orange" points="307.22,-1241.65 300.07,-1249.46 310.54,-1247.81 307.22,-1241.65"/>
<text text-anchor="start" x="475" y="-783" font-family="Helvetica,sans-Serif" font-size="10.00"> &lt; altintegration::btc</text>
<text text-anchor="middle" x="517.5" y="-772" font-family="Helvetica,sans-Serif" font-size="10.00">::TxIn &gt;</text>
</g>
<!-- Node11&#45;&gt;Node10 -->
<g id="edge11" class="edge">
<title>Node11&#45;&gt;Node10</title>
<path fill="none" stroke="orange" d="M258,-1231.61C258,-1175.88 258,-1073.1 258,-1023.8"/>
<polygon fill="orange" stroke="orange" points="254.5,-1231.77 258,-1241.77 261.5,-1231.77 254.5,-1231.77"/>
<text text-anchor="middle" x="282.5" y="-1133" font-family="Helvetica,sans-Serif" font-size="10.00"> &lt; uint8_t &gt;</text>
</g>
<!-- Node11&#45;&gt;Node13 -->
<g id="edge15" class="edge">
<title>Node11&#45;&gt;Node13</title>
<path fill="none" stroke="orange" d="M274.23,-1232.67C285.21,-1207.16 299.71,-1172.3 311,-1141 352.79,-1025.1 371.4,-878.73 377.99,-814.17"/>
<polygon fill="orange" stroke="orange" points="270.97,-1231.39 270.21,-1241.96 277.39,-1234.17 270.97,-1231.39"/>
<text text-anchor="start" x="371" y="-998" font-family="Helvetica,sans-Serif" font-size="10.00"> &lt; std::vector&lt; uint8</text>
<text text-anchor="middle" x="413.5" y="-987" font-family="Helvetica,sans-Serif" font-size="10.00">_t &gt; &gt;</text>
</g>
<!-- Node14 -->
<g id="node14" class="node">
<title>Node14</title>
<g id="a_node14"><a xlink:title=" ">
<polygon fill="white" stroke="black" points="103.5,-619 103.5,-687 228.5,-687 228.5,-619 103.5,-619"/>
<text text-anchor="start" x="111.5" y="-675" font-family="Helvetica,sans-Serif" font-size="10.00">std::vector&lt; altintegration</text>
<text text-anchor="middle" x="166" y="-664" font-family="Helvetica,sans-Serif" font-size="10.00">::btc::TxOut &gt;</text>
<polyline fill="none" stroke="black" points="103.5,-657 228.5,-657 "/>
<text text-anchor="middle" x="166" y="-645" font-family="Helvetica,sans-Serif" font-size="10.00"> </text>
<polyline fill="none" stroke="black" points="103.5,-638 228.5,-638 "/>
<text text-anchor="middle" x="166" y="-626" font-family="Helvetica,sans-Serif" font-size="10.00"> </text>
</a>
</g>
</g>
<!-- Node11&#45;&gt;Node14 -->
<g id="edge20" class="edge">
<title>Node11&#45;&gt;Node14</title>
<path fill="none" stroke="orange" d="M235.07,-1232.77C190.12,-1158.34 91.77,-982.95 57,-820 49.58,-785.23 41.49,-771.99 57,-740 67.41,-718.53 86.07,-700.8 105.04,-687.13"/>
<polygon fill="orange" stroke="orange" points="232.35,-1235.03 240.53,-1241.75 238.33,-1231.39 232.35,-1235.03"/>
<text text-anchor="start" x="67" y="-852" font-family="Helvetica,sans-Serif" font-size="10.00"> &lt; altintegration::btc</text>
<text text-anchor="middle" x="109.5" y="-841" font-family="Helvetica,sans-Serif" font-size="10.00">::TxOut &gt;</text>
</g>
<!-- Node12 -->
<g id="node12" class="node">
<title>Node12</title>
<g id="a_node12"><a xlink:title=" ">
<polygon fill="white" stroke="#bfbfbf" points="243.5,-1429.5 243.5,-1486.5 272.5,-1486.5 272.5,-1429.5 243.5,-1429.5"/>
<text text-anchor="middle" x="258" y="-1474.5" font-family="Helvetica,sans-Serif" font-size="10.00">T</text>
<polyline fill="none" stroke="#bfbfbf" points="243.5,-1467.5 272.5,-1467.5 "/>
<text text-anchor="middle" x="258" y="-1455.5" font-family="Helvetica,sans-Serif" font-size="10.00"> </text>
<polyline fill="none" stroke="#bfbfbf" points="243.5,-1448.5 272.5,-1448.5 "/>
<text text-anchor="middle" x="258" y="-1436.5" font-family="Helvetica,sans-Serif" font-size="10.00"> </text>
</a>
</g>
</g>
<!-- Node12&#45;&gt;Node11 -->
<g id="edge12" class="edge">
<title>Node12&#45;&gt;Node11</title>
<path fill="none" stroke="#404040" d="M258,-1429.23C258,-1397.99 258,-1347 258,-1311.48"/>
<polygon fill="none" stroke="#404040" points="258,-1311.16 254,-1305.16 258,-1299.16 262,-1305.16 258,-1311.16"/>
<text text-anchor="middle" x="282.5" y="-1403" font-family="Helvetica,sans-Serif" font-size="10.00"> +elements</text>
</g>
<!-- Node13&#45;&gt;Node8 -->
<g id="edge13" class="edge">
<title>Node13&#45;&gt;Node8</title>
<path fill="none" stroke="#404040" d="M377.82,-745.83C376.61,-733.32 375.22,-718.77 373.9,-705"/>
<polygon fill="none" stroke="#404040" points="373.86,-704.59 369.3,-699 372.71,-692.65 377.27,-698.24 373.86,-704.59"/>
<text text-anchor="middle" x="410" y="-714" font-family="Helvetica,sans-Serif" font-size="10.00"> +scriptWitness</text>
</g>
<!-- Node14&#45;&gt;Node6 -->
<g id="edge17" class="edge">
<title>Node14&#45;&gt;Node6</title>
<path fill="none" stroke="#404040" d="M176.8,-618.8C189.81,-578.83 211.91,-510.92 228.04,-461.33"/>
<polygon fill="none" stroke="#404040" points="228.09,-461.2 226.14,-454.25 231.8,-449.78 233.75,-456.73 228.09,-461.2"/>
<text text-anchor="middle" x="230" y="-529" font-family="Helvetica,sans-Serif" font-size="10.00"> +vout</text>
</g>
<!-- Node15&#45;&gt;Node14 -->
<g id="edge18" class="edge">
<title>Node15&#45;&gt;Node14</title>
<path fill="none" stroke="#404040" d="M150.78,-740.48C153.08,-727.4 155.67,-712.68 158.05,-699.14"/>
<polygon fill="none" stroke="#404040" points="158.09,-698.94 155.19,-692.34 160.17,-687.12 163.07,-693.72 158.09,-698.94"/>
<text text-anchor="middle" x="180.5" y="-714" font-family="Helvetica,sans-Serif" font-size="10.00"> +elements</text>
</g>
</g>
</svg>
