<?xml version="1.0" encoding="UTF-8" standalone="no"?>
<!DOCTYPE svg PUBLIC "-//W3C//DTD SVG 1.1//EN"
 "http://www.w3.org/Graphics/SVG/1.1/DTD/svg11.dtd">
<!-- Generated by graphviz version 3.0.0 (20220413.0106)
 -->
<!-- Title: altintegration::adaptors::BlockIteratorImpl&lt; BlockT &gt; Pages: 1 -->
<svg width="151pt" height="303pt"
 viewBox="0.00 0.00 151.00 303.00" xmlns="http://www.w3.org/2000/svg" xmlns:xlink="http://www.w3.org/1999/xlink">
<g id="graph0" class="graph" transform="scale(1 1) rotate(0) translate(4 299)">
<title>altintegration::adaptors::BlockIteratorImpl&lt; BlockT &gt;</title>
<polygon fill="white" stroke="transparent" points="-4,4 -4,-299 147,-299 147,4 -4,4"/>
<!-- Node1 -->
<g id="node1" class="node">
<title>Node1</title>
<g id="a_node1"><a xlink:title=" ">
<polygon fill="#bfbfbf" stroke="black" points="0,-0.5 0,-134.5 143,-134.5 143,-0.5 0,-0.5"/>
<text text-anchor="start" x="8" y="-122.5" font-family="Helvetica,sans-Serif" font-size="10.00">altintegration::adaptors</text>
<text text-anchor="middle" x="71.5" y="-111.5" font-family="Helvetica,sans-Serif" font-size="10.00">::BlockIteratorImpl&lt; BlockT &gt;</text>
<polyline fill="none" stroke="black" points="0,-104.5 143,-104.5 "/>
<text text-anchor="middle" x="71.5" y="-92.5" font-family="Helvetica,sans-Serif" font-size="10.00"> </text>
<polyline fill="none" stroke="black" points="0,-85.5 143,-85.5 "/>
<text text-anchor="start" x="8" y="-73.5" font-family="Helvetica,sans-Serif" font-size="10.00">+ ~BlockIteratorImpl()</text>
<text text-anchor="start" x="8" y="-62.5" font-family="Helvetica,sans-Serif" font-size="10.00">+ BlockIteratorImpl()</text>
<text text-anchor="start" x="8" y="-51.5" font-family="Helvetica,sans-Serif" font-size="10.00">+ next()</text>
<text text-anchor="start" x="8" y="-40.5" font-family="Helvetica,sans-Serif" font-size="10.00">+ value()</text>
<text text-anchor="start" x="8" y="-29.5" font-family="Helvetica,sans-Serif" font-size="10.00">+ key()</text>
<text text-anchor="start" x="8" y="-18.5" font-family="Helvetica,sans-Serif" font-size="10.00">+ valid()</text>
<text text-anchor="start" x="8" y="-7.5" font-family="Helvetica,sans-Serif" font-size="10.00">+ seek_start()</text>
</a>
</g>
</g>
<!-- Node2 -->
<g id="node2" class="node">
<title>Node2</title>
<g id="a_node2"><a xlink:href="structaltintegration_1_1BlockIterator.html" target="_top" xlink:title="An abstraction over on&#45;disk storage block iterator.">
<polygon fill="white" stroke="black" points="5.5,-171.5 5.5,-294.5 137.5,-294.5 137.5,-171.5 5.5,-171.5"/>
<text text-anchor="start" x="13.5" y="-282.5" font-family="Helvetica,sans-Serif" font-size="10.00">altintegration::BlockIterator</text>
<text text-anchor="middle" x="71.5" y="-271.5" font-family="Helvetica,sans-Serif" font-size="10.00">&lt; BlockT &gt;</text>
<polyline fill="none" stroke="black" points="5.5,-264.5 137.5,-264.5 "/>
<text text-anchor="middle" x="71.5" y="-252.5" font-family="Helvetica,sans-Serif" font-size="10.00"> </text>
<polyline fill="none" stroke="black" points="5.5,-245.5 137.5,-245.5 "/>
<text text-anchor="start" x="13.5" y="-233.5" font-family="Helvetica,sans-Serif" font-size="10.00">+ ~BlockIterator()</text>
<text text-anchor="start" x="13.5" y="-222.5" font-family="Helvetica,sans-Serif" font-size="10.00">+ next()</text>
<text text-anchor="start" x="13.5" y="-211.5" font-family="Helvetica,sans-Serif" font-size="10.00">+ value()</text>
<text text-anchor="start" x="13.5" y="-200.5" font-family="Helvetica,sans-Serif" font-size="10.00">+ key()</text>
<text text-anchor="start" x="13.5" y="-189.5" font-family="Helvetica,sans-Serif" font-size="10.00">+ valid()</text>
<text text-anchor="start" x="13.5" y="-178.5" font-family="Helvetica,sans-Serif" font-size="10.00">+ seek_start()</text>
</a>
</g>
</g>
<!-- Node2&#45;&gt;Node1 -->
<g id="edge1" class="edge">
<title>Node2&#45;&gt;Node1</title>
<path fill="none" stroke="midnightblue" d="M71.5,-160.96C71.5,-152.22 71.5,-143.31 71.5,-134.64"/>
<polygon fill="none" stroke="midnightblue" points="68,-161.12 71.5,-171.12 75,-161.12 68,-161.12"/>
</g>
</g>
</svg>
