<?xml version="1.0" encoding="UTF-8" standalone="no"?>
<!DOCTYPE svg PUBLIC "-//W3C//DTD SVG 1.1//EN"
 "http://www.w3.org/Graphics/SVG/1.1/DTD/svg11.dtd">
<!-- Generated by graphviz version 3.0.0 (20220413.0242)
 -->
<!-- Title: altintegration::BtcTx Pages: 1 -->
<svg width="115pt" height="447pt"
 viewBox="0.00 0.00 115.00 447.00" xmlns="http://www.w3.org/2000/svg" xmlns:xlink="http://www.w3.org/1999/xlink">
<g id="graph0" class="graph" transform="scale(1 1) rotate(0) translate(4 443)">
<title>altintegration::BtcTx</title>
<polygon fill="white" stroke="transparent" points="-4,4 -4,-443 111,-443 111,4 -4,4"/>
<!-- Node1 -->
<g id="node1" class="node">
<title>Node1</title>
<g id="a_node1"><a xlink:title="Bitcoin transaction representation.">
<polygon fill="#bfbfbf" stroke="black" points="2.5,-0.5 2.5,-123.5 104.5,-123.5 104.5,-0.5 2.5,-0.5"/>
<text text-anchor="middle" x="53.5" y="-111.5" font-family="Helvetica,sans-Serif" font-size="10.00">altintegration::BtcTx</text>
<polyline fill="none" stroke="black" points="2.5,-104.5 104.5,-104.5 "/>
<text text-anchor="middle" x="53.5" y="-92.5" font-family="Helvetica,sans-Serif" font-size="10.00"> </text>
<polyline fill="none" stroke="black" points="2.5,-85.5 104.5,-85.5 "/>
<text text-anchor="start" x="10.5" y="-73.5" font-family="Helvetica,sans-Serif" font-size="10.00">+ BtcTx()</text>
<text text-anchor="start" x="10.5" y="-62.5" font-family="Helvetica,sans-Serif" font-size="10.00">+ BtcTx()</text>
<text text-anchor="start" x="10.5" y="-51.5" font-family="Helvetica,sans-Serif" font-size="10.00">+ BtcTx()</text>
<text text-anchor="start" x="10.5" y="-40.5" font-family="Helvetica,sans-Serif" font-size="10.00">+ toVbkEncoding()</text>
<text text-anchor="start" x="10.5" y="-29.5" font-family="Helvetica,sans-Serif" font-size="10.00">+ toRaw()</text>
<text text-anchor="start" x="10.5" y="-18.5" font-family="Helvetica,sans-Serif" font-size="10.00">+ estimateSize()</text>
<text text-anchor="start" x="10.5" y="-7.5" font-family="Helvetica,sans-Serif" font-size="10.00">+ getHash()</text>
</a>
</g>
</g>
<!-- Node2 -->
<g id="node2" class="node">
<title>Node2</title>
<g id="a_node2"><a xlink:title=" ">
<polygon fill="white" stroke="black" points="0,-171.5 0,-228.5 107,-228.5 107,-171.5 0,-171.5"/>
<text text-anchor="middle" x="53.5" y="-216.5" font-family="Helvetica,sans-Serif" font-size="10.00">std::vector&lt; uint8_t &gt;</text>
<polyline fill="none" stroke="black" points="0,-209.5 107,-209.5 "/>
<text text-anchor="start" x="8" y="-197.5" font-family="Helvetica,sans-Serif" font-size="10.00">+ elements</text>
<polyline fill="none" stroke="black" points="0,-190.5 107,-190.5 "/>
<text text-anchor="middle" x="53.5" y="-178.5" font-family="Helvetica,sans-Serif" font-size="10.00"> </text>
</a>
</g>
</g>
<!-- Node2&#45;&gt;Node1 -->
<g id="edge1" class="edge">
<title>Node2&#45;&gt;Node1</title>
<path fill="none" stroke="#404040" d="M53.5,-171.48C53.5,-161.01 53.5,-148.53 53.5,-135.82"/>
<polygon fill="none" stroke="#404040" points="53.5,-135.62 49.5,-129.62 53.5,-123.62 57.5,-129.62 53.5,-135.62"/>
<text text-anchor="middle" x="61.5" y="-145" font-family="Helvetica,sans-Serif" font-size="10.00"> +tx</text>
</g>
<!-- Node3 -->
<g id="node3" class="node">
<title>Node3</title>
<g id="a_node3"><a xlink:title=" ">
<polygon fill="white" stroke="black" points="11.5,-276.5 11.5,-333.5 95.5,-333.5 95.5,-276.5 11.5,-276.5"/>
<text text-anchor="middle" x="53.5" y="-321.5" font-family="Helvetica,sans-Serif" font-size="10.00">std::vector&lt; T &gt;</text>
<polyline fill="none" stroke="black" points="11.5,-314.5 95.5,-314.5 "/>
<text text-anchor="middle" x="53.5" y="-302.5" font-family="Helvetica,sans-Serif" font-size="10.00"> </text>
<polyline fill="none" stroke="black" points="11.5,-295.5 95.5,-295.5 "/>
<text text-anchor="middle" x="53.5" y="-283.5" font-family="Helvetica,sans-Serif" font-size="10.00"> </text>
</a>
</g>
</g>
<!-- Node3&#45;&gt;Node2 -->
<g id="edge2" class="edge">
<title>Node3&#45;&gt;Node2</title>
<path fill="none" stroke="orange" d="M53.5,-266.29C53.5,-253.84 53.5,-240.23 53.5,-228.68"/>
<polygon fill="orange" stroke="orange" points="50,-266.4 53.5,-276.4 57,-266.4 50,-266.4"/>
<text text-anchor="middle" x="78" y="-250" font-family="Helvetica,sans-Serif" font-size="10.00"> &lt; uint8_t &gt;</text>
</g>
<!-- Node4 -->
<g id="node4" class="node">
<title>Node4</title>
<g id="a_node4"><a xlink:title=" ">
<polygon fill="white" stroke="#bfbfbf" points="39,-381.5 39,-438.5 68,-438.5 68,-381.5 39,-381.5"/>
<text text-anchor="middle" x="53.5" y="-426.5" font-family="Helvetica,sans-Serif" font-size="10.00">T</text>
<polyline fill="none" stroke="#bfbfbf" points="39,-419.5 68,-419.5 "/>
<text text-anchor="middle" x="53.5" y="-407.5" font-family="Helvetica,sans-Serif" font-size="10.00"> </text>
<polyline fill="none" stroke="#bfbfbf" points="39,-400.5 68,-400.5 "/>
<text text-anchor="middle" x="53.5" y="-388.5" font-family="Helvetica,sans-Serif" font-size="10.00"> </text>
</a>
</g>
</g>
<!-- Node4&#45;&gt;Node3 -->
<g id="edge3" class="edge">
<title>Node4&#45;&gt;Node3</title>
<path fill="none" stroke="#404040" d="M53.5,-381.4C53.5,-370.55 53.5,-357.87 53.5,-346.05"/>
<polygon fill="none" stroke="#404040" points="53.5,-345.68 49.5,-339.68 53.5,-333.68 57.5,-339.68 53.5,-345.68"/>
<text text-anchor="middle" x="78" y="-355" font-family="Helvetica,sans-Serif" font-size="10.00"> +elements</text>
</g>
</g>
</svg>
