<?xml version="1.0" encoding="UTF-8" standalone="no"?>
<!DOCTYPE svg PUBLIC "-//W3C//DTD SVG 1.1//EN"
 "http://www.w3.org/Graphics/SVG/1.1/DTD/svg11.dtd">
<!-- Generated by graphviz version 2.49.3 (20211027.1534)
 -->
<!-- Title: altintegration::btc::BlockHeaderAndShortTxIDs Pages: 1 -->
<!--zoomable 1059 -->
<svg id="main" version="1.1" xmlns="http://www.w3.org/2000/svg" xmlns:xlink="http://www.w3.org/1999/xlink" xml:space="preserve" onload="init(evt)">
<style type="text/css"><![CDATA[
.edge:hover path { stroke: red; }
.edge:hover polygon { stroke: red; fill: red; }
]]></style>
<script type="text/javascript"><![CDATA[
var edges = document.getElementsByTagName('g');
if (edges && edges.length) {
  for (var i=0;i<edges.length;i++) {
    if (edges[i].id.substr(0,4)=='edge') {
      edges[i].setAttribute('class','edge');
    }
  }
}
]]></script>
        <defs>
                <circle id="rim" cx="0" cy="0" r="7"/>
                <circle id="rim2" cx="0" cy="0" r="3.5"/>
                <g id="zoomPlus">
                        <use xlink:href="#rim" fill="#404040">
                                <set attributeName="fill" to="#808080" begin="zoomplus.mouseover" end="zoomplus.mouseout"/>
                        </use>
                        <path d="M-4,0h8M0,-4v8" fill="none" stroke="white" stroke-width="1.5" pointer-events="none"/>
                </g>
                <g id="zoomMin">
                        <use xlink:href="#rim" fill="#404040">
                                <set attributeName="fill" to="#808080" begin="zoomminus.mouseover" end="zoomminus.mouseout"/>
                        </use>
                        <path d="M-4,0h8" fill="none" stroke="white" stroke-width="1.5" pointer-events="none"/>
                </g>
                <g id="dirArrow">
                        <path fill="none" stroke="white" stroke-width="1.5" d="M0,-3.0v7 M-2.5,-0.5L0,-3.0L2.5,-0.5"/>
                </g>
               <g id="resetDef">
                       <use xlink:href="#rim2" fill="#404040">
                               <set attributeName="fill" to="#808080" begin="reset.mouseover" end="reset.mouseout"/>
                       </use>
               </g>
        </defs>

<script type="text/javascript">
var viewWidth = 341;
var viewHeight = 1059;
var sectionId = 'dynsection-0';
</script>
<script xlink:href="svgpan.js"/>
<svg id="graph" class="graph">
<g id="viewport">
<title>altintegration::btc::BlockHeaderAndShortTxIDs</title>
<polygon fill="white" stroke="transparent" points="-4,4 -4,-1055 336.5,-1055 336.5,4 -4,4"/>
<!-- Node1 -->
<g id="node1" class="node">
<title>Node1</title>
<g id="a_node1"><a xlink:title=" ">
<polygon fill="#bfbfbf" stroke="black" points="35,-0.5 35,-112.5 190,-112.5 190,-0.5 35,-0.5"/>
<text text-anchor="start" x="43" y="-100.5" font-family="Helvetica,sans-Serif" font-size="10.00">altintegration::btc</text>
<text text-anchor="middle" x="112.5" y="-89.5" font-family="Helvetica,sans-Serif" font-size="10.00">::BlockHeaderAndShortTxIDs</text>
<polyline fill="none" stroke="black" points="35,-82.5 190,-82.5 "/>
<text text-anchor="start" x="43" y="-70.5" font-family="Helvetica,sans-Serif" font-size="10.00">+ nonce</text>
<text text-anchor="start" x="43" y="-59.5" font-family="Helvetica,sans-Serif" font-size="10.00">+ shorttxids</text>
<text text-anchor="start" x="43" y="-48.5" font-family="Helvetica,sans-Serif" font-size="10.00">+ prefilledtxn</text>
<text text-anchor="start" x="43" y="-37.5" font-family="Helvetica,sans-Serif" font-size="10.00">+ ADD_SERIALIZE_METHODS</text>
<text text-anchor="start" x="43" y="-26.5" font-family="Helvetica,sans-Serif" font-size="10.00">+ SHORTTXIDS_LENGTH</text>
<polyline fill="none" stroke="black" points="35,-19.5 190,-19.5 "/>
<text text-anchor="start" x="43" y="-7.5" font-family="Helvetica,sans-Serif" font-size="10.00">+ SerializationOp()</text>
</a>
</g>
</g>
<!-- Node2 -->
<g id="node2" class="node">
<title>Node2</title>
<g id="a_node2"><a xlink:href="structaltintegration_1_1btc_1_1BlockHeader.html" target="_top" xlink:title=" ">
<polygon fill="white" stroke="black" points="35,-160.5 35,-250.5 190,-250.5 190,-160.5 35,-160.5"/>
<text text-anchor="start" x="43" y="-238.5" font-family="Helvetica,sans-Serif" font-size="10.00">altintegration::btc</text>
<text text-anchor="middle" x="112.5" y="-227.5" font-family="Helvetica,sans-Serif" font-size="10.00">::BlockHeader</text>
<polyline fill="none" stroke="black" points="35,-220.5 190,-220.5 "/>
<text text-anchor="start" x="43" y="-208.5" font-family="Helvetica,sans-Serif" font-size="10.00">+ ADD_SERIALIZE_METHODS</text>
<polyline fill="none" stroke="black" points="35,-201.5 190,-201.5 "/>
<text text-anchor="start" x="43" y="-189.5" font-family="Helvetica,sans-Serif" font-size="10.00">+ BlockHeader()</text>
<text text-anchor="start" x="43" y="-178.5" font-family="Helvetica,sans-Serif" font-size="10.00">+ BlockHeader()</text>
<text text-anchor="start" x="43" y="-167.5" font-family="Helvetica,sans-Serif" font-size="10.00">+ SerializationOp()</text>
</a>
</g>
</g>
<!-- Node2&#45;&gt;Node1 -->
<g id="edge1" class="edge">
<title>Node2&#45;&gt;Node1</title>
<path fill="none" stroke="#404040" d="M112.5,-160.4C112.5,-149.11 112.5,-136.71 112.5,-124.55"/>
<polygon fill="none" stroke="#404040" points="112.5,-124.52 108.5,-118.52 112.5,-112.52 116.5,-118.52 112.5,-124.52"/>
<text text-anchor="middle" x="131.5" y="-134" font-family="Helvetica,sans-Serif" font-size="10.00"> +header</text>
</g>
<!-- Node3 -->
<g id="node3" class="node">
<title>Node3</title>
<g id="a_node3"><a xlink:href="structaltintegration_1_1BtcBlock.html" target="_top" xlink:title="Bitcoin block.">
<polygon fill="white" stroke="black" points="54.5,-288.5 54.5,-510.5 170.5,-510.5 170.5,-288.5 54.5,-288.5"/>
<text text-anchor="middle" x="112.5" y="-498.5" font-family="Helvetica,sans-Serif" font-size="10.00">altintegration::BtcBlock</text>
<polyline fill="none" stroke="black" points="54.5,-491.5 170.5,-491.5 "/>
<text text-anchor="start" x="62.5" y="-479.5" font-family="Helvetica,sans-Serif" font-size="10.00"># version</text>
<text text-anchor="start" x="62.5" y="-468.5" font-family="Helvetica,sans-Serif" font-size="10.00"># timestamp</text>
<text text-anchor="start" x="62.5" y="-457.5" font-family="Helvetica,sans-Serif" font-size="10.00"># bits</text>
<text text-anchor="start" x="62.5" y="-446.5" font-family="Helvetica,sans-Serif" font-size="10.00"># nonce</text>
<polyline fill="none" stroke="black" points="54.5,-439.5 170.5,-439.5 "/>
<text text-anchor="start" x="62.5" y="-427.5" font-family="Helvetica,sans-Serif" font-size="10.00">+ BtcBlock()</text>
<text text-anchor="start" x="62.5" y="-416.5" font-family="Helvetica,sans-Serif" font-size="10.00">+ BtcBlock()</text>
<text text-anchor="start" x="62.5" y="-405.5" font-family="Helvetica,sans-Serif" font-size="10.00">+ toRaw()</text>
<text text-anchor="start" x="62.5" y="-394.5" font-family="Helvetica,sans-Serif" font-size="10.00">+ toVbkEncoding()</text>
<text text-anchor="start" x="62.5" y="-383.5" font-family="Helvetica,sans-Serif" font-size="10.00">+ estimateSize()</text>
<text text-anchor="start" x="62.5" y="-372.5" font-family="Helvetica,sans-Serif" font-size="10.00">+ calculateHash()</text>
<text text-anchor="start" x="62.5" y="-361.5" font-family="Helvetica,sans-Serif" font-size="10.00">+ getHash()</text>
<text text-anchor="start" x="62.5" y="-350.5" font-family="Helvetica,sans-Serif" font-size="10.00">+ toPrettyString()</text>
<text text-anchor="start" x="62.5" y="-339.5" font-family="Helvetica,sans-Serif" font-size="10.00">+ getVersion()</text>
<text text-anchor="start" x="62.5" y="-328.5" font-family="Helvetica,sans-Serif" font-size="10.00">+ getPreviousBlock()</text>
<text text-anchor="start" x="62.5" y="-317.5" font-family="Helvetica,sans-Serif" font-size="10.00">and 10 more...</text>
<text text-anchor="start" x="62.5" y="-306.5" font-family="Helvetica,sans-Serif" font-size="10.00">+ name()</text>
<text text-anchor="start" x="62.5" y="-295.5" font-family="Helvetica,sans-Serif" font-size="10.00"># invalidateHash()</text>
</a>
</g>
</g>
<!-- Node3&#45;&gt;Node2 -->
<g id="edge2" class="edge">
<title>Node3&#45;&gt;Node2</title>
<path fill="none" stroke="midnightblue" d="M112.5,-278.33C112.5,-268.7 112.5,-259.41 112.5,-250.89"/>
<polygon fill="none" stroke="midnightblue" points="109,-278.48 112.5,-288.48 116,-278.48 109,-278.48"/>
</g>
<!-- Node4 -->
<g id="node4" class="node">
<title>Node4</title>
<g id="a_node4"><a xlink:title=" ">
<polygon fill="white" stroke="#bfbfbf" points="17,-652 17,-709 76,-709 76,-652 17,-652"/>
<text text-anchor="middle" x="46.5" y="-697" font-family="Helvetica,sans-Serif" font-size="10.00">std::string</text>
<polyline fill="none" stroke="#bfbfbf" points="17,-690 76,-690 "/>
<text text-anchor="middle" x="46.5" y="-678" font-family="Helvetica,sans-Serif" font-size="10.00"> </text>
<polyline fill="none" stroke="#bfbfbf" points="17,-671 76,-671 "/>
<text text-anchor="middle" x="46.5" y="-659" font-family="Helvetica,sans-Serif" font-size="10.00"> </text>
</a>
</g>
</g>
<!-- Node4&#45;&gt;Node3 -->
<g id="edge3" class="edge">
<title>Node4&#45;&gt;Node3</title>
<path fill="none" stroke="#404040" d="M46.96,-651.93C47.99,-621.45 51.26,-571.1 61.5,-529 62.03,-526.82 62.59,-524.63 63.17,-522.43"/>
<polygon fill="none" stroke="#404040" points="63.25,-522.15 61.05,-515.28 66.54,-510.61 68.75,-517.48 63.25,-522.15"/>
<text text-anchor="middle" x="80" y="-537.5" font-family="Helvetica,sans-Serif" font-size="10.00"> #_name</text>
</g>
<!-- Node5 -->
<g id="node5" class="node">
<title>Node5</title>
<g id="a_node5"><a xlink:title=" ">
<polygon fill="white" stroke="#bfbfbf" points="0,-911 0,-979 93,-979 93,-911 0,-911"/>
<text text-anchor="start" x="8" y="-967" font-family="Helvetica,sans-Serif" font-size="10.00">std::basic_string&lt;</text>
<text text-anchor="middle" x="46.5" y="-956" font-family="Helvetica,sans-Serif" font-size="10.00"> Char &gt;</text>
<polyline fill="none" stroke="#bfbfbf" points="0,-949 93,-949 "/>
<text text-anchor="middle" x="46.5" y="-937" font-family="Helvetica,sans-Serif" font-size="10.00"> </text>
<polyline fill="none" stroke="#bfbfbf" points="0,-930 93,-930 "/>
<text text-anchor="middle" x="46.5" y="-918" font-family="Helvetica,sans-Serif" font-size="10.00"> </text>
</a>
</g>
</g>
<!-- Node5&#45;&gt;Node4 -->
<g id="edge4" class="edge">
<title>Node5&#45;&gt;Node4</title>
<path fill="none" stroke="midnightblue" d="M46.5,-900.75C46.5,-846.49 46.5,-755.02 46.5,-709.29"/>
<polygon fill="none" stroke="midnightblue" points="43,-900.75 46.5,-910.75 50,-900.75 43,-900.75"/>
</g>
<!-- Node6 -->
<g id="node6" class="node">
<title>Node6</title>
<g id="a_node6"><a xlink:href="structaltintegration_1_1Blob.html" target="_top" xlink:title=" ">
<polygon fill="white" stroke="black" points="165,-569.5 165,-791.5 296,-791.5 296,-569.5 165,-569.5"/>
<text text-anchor="start" x="173" y="-779.5" font-family="Helvetica,sans-Serif" font-size="10.00">altintegration::Blob</text>
<text text-anchor="middle" x="230.5" y="-768.5" font-family="Helvetica,sans-Serif" font-size="10.00">&lt; SHA256_HASH_SIZE &gt;</text>
<polyline fill="none" stroke="black" points="165,-761.5 296,-761.5 "/>
<text text-anchor="start" x="173" y="-749.5" font-family="Helvetica,sans-Serif" font-size="10.00">+ data_</text>
<text text-anchor="start" x="173" y="-738.5" font-family="Helvetica,sans-Serif" font-size="10.00">+ this</text>
<polyline fill="none" stroke="black" points="165,-731.5 296,-731.5 "/>
<text text-anchor="start" x="173" y="-719.5" font-family="Helvetica,sans-Serif" font-size="10.00">+ Blob()</text>
<text text-anchor="start" x="173" y="-708.5" font-family="Helvetica,sans-Serif" font-size="10.00">+ Blob()</text>
<text text-anchor="start" x="173" y="-697.5" font-family="Helvetica,sans-Serif" font-size="10.00">+ Blob()</text>
<text text-anchor="start" x="173" y="-686.5" font-family="Helvetica,sans-Serif" font-size="10.00">+ Blob()</text>
<text text-anchor="start" x="173" y="-675.5" font-family="Helvetica,sans-Serif" font-size="10.00">+ Blob()</text>
<text text-anchor="start" x="173" y="-664.5" font-family="Helvetica,sans-Serif" font-size="10.00">+ operator=()</text>
<text text-anchor="start" x="173" y="-653.5" font-family="Helvetica,sans-Serif" font-size="10.00">+ operator=()</text>
<text text-anchor="start" x="173" y="-642.5" font-family="Helvetica,sans-Serif" font-size="10.00">+ reverse()</text>
<text text-anchor="start" x="173" y="-631.5" font-family="Helvetica,sans-Serif" font-size="10.00">+ operator~()</text>
<text text-anchor="start" x="173" y="-620.5" font-family="Helvetica,sans-Serif" font-size="10.00">+ asVector()</text>
<text text-anchor="start" x="173" y="-609.5" font-family="Helvetica,sans-Serif" font-size="10.00">+ asString()</text>
<text text-anchor="start" x="173" y="-598.5" font-family="Helvetica,sans-Serif" font-size="10.00">+ operator[]()</text>
<text text-anchor="start" x="173" y="-587.5" font-family="Helvetica,sans-Serif" font-size="10.00">+ operator[]()</text>
<text text-anchor="start" x="173" y="-576.5" font-family="Helvetica,sans-Serif" font-size="10.00">+ compareTo()</text>
</a>
</g>
</g>
<!-- Node6&#45;&gt;Node3 -->
<g id="edge5" class="edge">
<title>Node6&#45;&gt;Node3</title>
<path fill="none" stroke="#404040" d="M183.86,-569.23C177.33,-553.79 170.59,-537.84 163.97,-522.2"/>
<polygon fill="none" stroke="#404040" points="163.86,-521.93 157.84,-517.97 159.18,-510.88 165.21,-514.85 163.86,-521.93"/>
<text text-anchor="middle" x="208" y="-543" font-family="Helvetica,sans-Serif" font-size="10.00"> #merkleRoot</text>
<text text-anchor="middle" x="208" y="-532" font-family="Helvetica,sans-Serif" font-size="10.00">#previousBlock</text>
</g>
<!-- Node7 -->
<g id="node7" class="node">
<title>Node7</title>
<g id="a_node7"><a xlink:href="structaltintegration_1_1Blob.html" target="_top" xlink:title="Contiguous byte array of fixed size.">
<polygon fill="white" stroke="black" points="140.5,-839.5 140.5,-1050.5 260.5,-1050.5 260.5,-839.5 140.5,-839.5"/>
<text text-anchor="middle" x="200.5" y="-1038.5" font-family="Helvetica,sans-Serif" font-size="10.00">altintegration::Blob&lt; N &gt;</text>
<polyline fill="none" stroke="black" points="140.5,-1031.5 260.5,-1031.5 "/>
<text text-anchor="start" x="148.5" y="-1019.5" font-family="Helvetica,sans-Serif" font-size="10.00">+ data_</text>
<text text-anchor="start" x="148.5" y="-1008.5" font-family="Helvetica,sans-Serif" font-size="10.00">+ this</text>
<polyline fill="none" stroke="black" points="140.5,-1001.5 260.5,-1001.5 "/>
<text text-anchor="start" x="148.5" y="-989.5" font-family="Helvetica,sans-Serif" font-size="10.00">+ Blob()</text>
<text text-anchor="start" x="148.5" y="-978.5" font-family="Helvetica,sans-Serif" font-size="10.00">+ Blob()</text>
<text text-anchor="start" x="148.5" y="-967.5" font-family="Helvetica,sans-Serif" font-size="10.00">+ Blob()</text>
<text text-anchor="start" x="148.5" y="-956.5" font-family="Helvetica,sans-Serif" font-size="10.00">+ Blob()</text>
<text text-anchor="start" x="148.5" y="-945.5" font-family="Helvetica,sans-Serif" font-size="10.00">+ Blob()</text>
<text text-anchor="start" x="148.5" y="-934.5" font-family="Helvetica,sans-Serif" font-size="10.00">+ operator=()</text>
<text text-anchor="start" x="148.5" y="-923.5" font-family="Helvetica,sans-Serif" font-size="10.00">+ operator=()</text>
<text text-anchor="start" x="148.5" y="-912.5" font-family="Helvetica,sans-Serif" font-size="10.00">+ reverse()</text>
<text text-anchor="start" x="148.5" y="-901.5" font-family="Helvetica,sans-Serif" font-size="10.00">+ operator~()</text>
<text text-anchor="start" x="148.5" y="-890.5" font-family="Helvetica,sans-Serif" font-size="10.00">+ asVector()</text>
<text text-anchor="start" x="148.5" y="-879.5" font-family="Helvetica,sans-Serif" font-size="10.00">+ asString()</text>
<text text-anchor="start" x="148.5" y="-868.5" font-family="Helvetica,sans-Serif" font-size="10.00">+ operator[]()</text>
<text text-anchor="start" x="148.5" y="-857.5" font-family="Helvetica,sans-Serif" font-size="10.00">+ operator[]()</text>
<text text-anchor="start" x="148.5" y="-846.5" font-family="Helvetica,sans-Serif" font-size="10.00">+ compareTo()</text>
</a>
</g>
</g>
<!-- Node7&#45;&gt;Node3 -->
<g id="edge7" class="edge">
<title>Node7&#45;&gt;Node3</title>
<path fill="none" stroke="#404040" d="M140.47,-843.95C132.74,-827.11 125.97,-809.43 121.5,-792 98.93,-704.02 97.46,-601.24 101.22,-523.07"/>
<polygon fill="none" stroke="#404040" points="101.24,-522.72 97.56,-516.52 101.87,-510.74 105.55,-516.94 101.24,-522.72"/>
<text text-anchor="middle" x="138.5" y="-678" font-family="Helvetica,sans-Serif" font-size="10.00"> #hash_</text>
</g>
<!-- Node7&#45;&gt;Node6 -->
<g id="edge6" class="edge">
<title>Node7&#45;&gt;Node6</title>
<path fill="none" stroke="orange" d="M213.59,-829.48C215.02,-816.93 216.48,-804.17 217.91,-791.67"/>
<polygon fill="orange" stroke="orange" points="210.1,-829.17 212.44,-839.5 217.06,-829.96 210.1,-829.17"/>
<text text-anchor="middle" x="274" y="-813" font-family="Helvetica,sans-Serif" font-size="10.00"> &lt; SHA256_HASH_SIZE &gt;</text>
</g>
</g>
</svg>
        <g id="navigator" transform="translate(0 0)" fill="#404254">
                <rect fill="#f2f5e9" fill-opacity="0.5" stroke="#606060" stroke-width=".5" x="0" y="0" width="60" height="60"/>
                <use id="zoomplus" xlink:href="#zoomPlus" x="17" y="9" onmousedown="handleZoom(evt,'in')"/>
                <use id="zoomminus" xlink:href="#zoomMin" x="42" y="9" onmousedown="handleZoom(evt,'out')"/>
                <use id="reset" xlink:href="#resetDef" x="30" y="36" onmousedown="handleReset()"/>
                <g id="arrowUp" xlink:href="#dirArrow" transform="translate(30 24)" onmousedown="handlePan(0,-1)">
                  <use xlink:href="#rim" fill="#404040">
                        <set attributeName="fill" to="#808080" begin="arrowUp.mouseover" end="arrowUp.mouseout"/>
                  </use>
                  <path fill="none" stroke="white" stroke-width="1.5" d="M0,-3.0v7 M-2.5,-0.5L0,-3.0L2.5,-0.5"/>
                </g>
                <g id="arrowRight" xlink:href="#dirArrow" transform="rotate(90) translate(36 -43)" onmousedown="handlePan(1,0)">
                  <use xlink:href="#rim" fill="#404040">
                        <set attributeName="fill" to="#808080" begin="arrowRight.mouseover" end="arrowRight.mouseout"/>
                  </use>
                  <path fill="none" stroke="white" stroke-width="1.5" d="M0,-3.0v7 M-2.5,-0.5L0,-3.0L2.5,-0.5"/>
                </g>
                <g id="arrowDown" xlink:href="#dirArrow" transform="rotate(180) translate(-30 -48)" onmousedown="handlePan(0,1)">
                  <use xlink:href="#rim" fill="#404040">
                        <set attributeName="fill" to="#808080" begin="arrowDown.mouseover" end="arrowDown.mouseout"/>
                  </use>
                  <path fill="none" stroke="white" stroke-width="1.5" d="M0,-3.0v7 M-2.5,-0.5L0,-3.0L2.5,-0.5"/>
                </g>
                <g id="arrowLeft" xlink:href="#dirArrow" transform="rotate(270) translate(-36 17)" onmousedown="handlePan(-1,0)">
                  <use xlink:href="#rim" fill="#404040">
                        <set attributeName="fill" to="#808080" begin="arrowLeft.mouseover" end="arrowLeft.mouseout"/>
                  </use>
                  <path fill="none" stroke="white" stroke-width="1.5" d="M0,-3.0v7 M-2.5,-0.5L0,-3.0L2.5,-0.5"/>
                </g>
        </g>
        <svg viewBox="0 0 15 15" width="100%" height="30px" preserveAspectRatio="xMaxYMin meet">
         <g id="arrow_out" transform="scale(0.3 0.3)">
          <a xlink:href="structaltintegration_1_1btc_1_1BlockHeaderAndShortTxIDs__coll__graph_org.svg" target="_base">
           <rect id="button" ry="5" rx="5" y="6" x="6" height="38" width="38"
                fill="#f2f5e9" fill-opacity="0.5" stroke="#606060" stroke-width="1.0"/>
           <path id="arrow"
             d="M 11.500037,31.436501 C 11.940474,20.09759 22.043105,11.32322 32.158766,21.979434 L 37.068811,17.246167 C 37.068811,17.246167 37.088388,32 37.088388,32 L 22.160133,31.978069 C 22.160133,31.978069 26.997745,27.140456 26.997745,27.140456 C 18.528582,18.264221 13.291696,25.230495 11.500037,31.436501 z"
             style="fill:#404040;"/>
          </a>
         </g>
        </svg>
</svg>
