<?xml version="1.0" encoding="UTF-8" standalone="no"?>
<!DOCTYPE svg PUBLIC "-//W3C//DTD SVG 1.1//EN"
 "http://www.w3.org/Graphics/SVG/1.1/DTD/svg11.dtd">
<!-- Generated by graphviz version 3.0.0 (20220413.0106)
 -->
<!-- Title: altintegration::btc::SubNet Pages: 1 -->
<svg width="163pt" height="226pt"
 viewBox="0.00 0.00 163.00 226.00" xmlns="http://www.w3.org/2000/svg" xmlns:xlink="http://www.w3.org/1999/xlink">
<g id="graph0" class="graph" transform="scale(1 1) rotate(0) translate(4 222)">
<title>altintegration::btc::SubNet</title>
<polygon fill="white" stroke="transparent" points="-4,4 -4,-222 159,-222 159,4 -4,4"/>
<!-- Node1 -->
<g id="node1" class="node">
<title>Node1</title>
<g id="a_node1"><a xlink:title=" ">
<polygon fill="#bfbfbf" stroke="black" points="0,-0.5 0,-90.5 155,-90.5 155,-0.5 0,-0.5"/>
<text text-anchor="start" x="8" y="-78.5" font-family="Helvetica,sans-Serif" font-size="10.00">altintegration::btc</text>
<text text-anchor="middle" x="77.5" y="-67.5" font-family="Helvetica,sans-Serif" font-size="10.00">::SubNet</text>
<polyline fill="none" stroke="black" points="0,-60.5 155,-60.5 "/>
<text text-anchor="start" x="8" y="-48.5" font-family="Helvetica,sans-Serif" font-size="10.00">+ netmask</text>
<text text-anchor="start" x="8" y="-37.5" font-family="Helvetica,sans-Serif" font-size="10.00">+ valid</text>
<text text-anchor="start" x="8" y="-26.5" font-family="Helvetica,sans-Serif" font-size="10.00">+ ADD_SERIALIZE_METHODS</text>
<polyline fill="none" stroke="black" points="0,-19.5 155,-19.5 "/>
<text text-anchor="start" x="8" y="-7.5" font-family="Helvetica,sans-Serif" font-size="10.00">+ SerializationOp()</text>
</a>
</g>
</g>
<!-- Node2 -->
<g id="node2" class="node">
<title>Node2</title>
<g id="a_node2"><a xlink:href="structaltintegration_1_1btc_1_1NetAddr.html" target="_top" xlink:title="IP address (IPv6, or IPv4 using mapped IPv6 range.">
<polygon fill="white" stroke="black" points="0,-138.5 0,-217.5 155,-217.5 155,-138.5 0,-138.5"/>
<text text-anchor="start" x="8" y="-205.5" font-family="Helvetica,sans-Serif" font-size="10.00">altintegration::btc</text>
<text text-anchor="middle" x="77.5" y="-194.5" font-family="Helvetica,sans-Serif" font-size="10.00">::NetAddr</text>
<polyline fill="none" stroke="black" points="0,-187.5 155,-187.5 "/>
<text text-anchor="start" x="8" y="-175.5" font-family="Helvetica,sans-Serif" font-size="10.00">+ ip</text>
<text text-anchor="start" x="8" y="-164.5" font-family="Helvetica,sans-Serif" font-size="10.00">+ ADD_SERIALIZE_METHODS</text>
<polyline fill="none" stroke="black" points="0,-157.5 155,-157.5 "/>
<text text-anchor="start" x="8" y="-145.5" font-family="Helvetica,sans-Serif" font-size="10.00">+ SerializationOp()</text>
</a>
</g>
</g>
<!-- Node2&#45;&gt;Node1 -->
<g id="edge1" class="edge">
<title>Node2&#45;&gt;Node1</title>
<path fill="none" stroke="#404040" d="M77.5,-138.2C77.5,-127.16 77.5,-114.9 77.5,-103.04"/>
<polygon fill="none" stroke="#404040" points="77.5,-102.88 73.5,-96.88 77.5,-90.88 81.5,-96.88 77.5,-102.88"/>
<text text-anchor="middle" x="99" y="-112" font-family="Helvetica,sans-Serif" font-size="10.00"> +network</text>
</g>
</g>
</svg>
