<?xml version="1.0" encoding="UTF-8" standalone="no"?>
<!DOCTYPE svg PUBLIC "-//W3C//DTD SVG 1.1//EN"
 "http://www.w3.org/Graphics/SVG/1.1/DTD/svg11.dtd">
<!-- Generated by graphviz version 2.50.0 (20220203.2022)
 -->
<!-- Title: altintegration::KeystoneContainer Pages: 1 -->
<svg width="185pt" height="436pt"
 viewBox="0.00 0.00 184.50 436.00" xmlns="http://www.w3.org/2000/svg" xmlns:xlink="http://www.w3.org/1999/xlink">
<g id="graph0" class="graph" transform="scale(1 1) rotate(0) translate(4 432)">
<title>altintegration::KeystoneContainer</title>
<polygon fill="white" stroke="transparent" points="-4,4 -4,-432 180.5,-432 180.5,4 -4,4"/>
<!-- Node1 -->
<g id="node1" class="node">
<title>Node1</title>
<g id="a_node1"><a xlink:title="A container for two previous keystones of endorsed block.">
<polygon fill="#bfbfbf" stroke="black" points="0,-0.5 0,-101.5 119,-101.5 119,-0.5 0,-0.5"/>
<text text-anchor="start" x="8" y="-89.5" font-family="Helvetica,sans-Serif" font-size="10.00">altintegration::Keystone</text>
<text text-anchor="middle" x="59.5" y="-78.5" font-family="Helvetica,sans-Serif" font-size="10.00">Container</text>
<polyline fill="none" stroke="black" points="0,-71.5 119,-71.5 "/>
<text text-anchor="middle" x="59.5" y="-59.5" font-family="Helvetica,sans-Serif" font-size="10.00"> </text>
<polyline fill="none" stroke="black" points="0,-52.5 119,-52.5 "/>
<text text-anchor="start" x="8" y="-40.5" font-family="Helvetica,sans-Serif" font-size="10.00">+ toVbkEncoding()</text>
<text text-anchor="start" x="8" y="-29.5" font-family="Helvetica,sans-Serif" font-size="10.00">+ estimateSize()</text>
<text text-anchor="start" x="8" y="-18.5" font-family="Helvetica,sans-Serif" font-size="10.00">+ operator==()</text>
<text text-anchor="start" x="8" y="-7.5" font-family="Helvetica,sans-Serif" font-size="10.00">+ createFromPrevious()</text>
</a>
</g>
</g>
<!-- Node2 -->
<g id="node2" class="node">
<title>Node2</title>
<g id="a_node2"><a xlink:title=" ">
<polygon fill="white" stroke="black" points="6,-160.5 6,-217.5 113,-217.5 113,-160.5 6,-160.5"/>
<text text-anchor="middle" x="59.5" y="-205.5" font-family="Helvetica,sans-Serif" font-size="10.00">std::vector&lt; uint8_t &gt;</text>
<polyline fill="none" stroke="black" points="6,-198.5 113,-198.5 "/>
<text text-anchor="start" x="14" y="-186.5" font-family="Helvetica,sans-Serif" font-size="10.00">+ elements</text>
<polyline fill="none" stroke="black" points="6,-179.5 113,-179.5 "/>
<text text-anchor="middle" x="59.5" y="-167.5" font-family="Helvetica,sans-Serif" font-size="10.00"> </text>
</a>
</g>
</g>
<!-- Node2&#45;&gt;Node1 -->
<g id="edge1" class="edge">
<title>Node2&#45;&gt;Node1</title>
<path fill="none" stroke="#404040" d="M59.5,-160.48C59.5,-147.06 59.5,-130.33 59.5,-114.06"/>
<polygon fill="none" stroke="#404040" points="59.5,-113.76 55.5,-107.76 59.5,-101.76 63.5,-107.76 59.5,-113.76"/>
<text text-anchor="middle" x="118" y="-134" font-family="Helvetica,sans-Serif" font-size="10.00"> +firstPreviousKeystone</text>
<text text-anchor="middle" x="118" y="-123" font-family="Helvetica,sans-Serif" font-size="10.00">+secondPreviousKeystone</text>
</g>
<!-- Node3 -->
<g id="node3" class="node">
<title>Node3</title>
<g id="a_node3"><a xlink:title=" ">
<polygon fill="white" stroke="black" points="17.5,-265.5 17.5,-322.5 101.5,-322.5 101.5,-265.5 17.5,-265.5"/>
<text text-anchor="middle" x="59.5" y="-310.5" font-family="Helvetica,sans-Serif" font-size="10.00">std::vector&lt; T &gt;</text>
<polyline fill="none" stroke="black" points="17.5,-303.5 101.5,-303.5 "/>
<text text-anchor="middle" x="59.5" y="-291.5" font-family="Helvetica,sans-Serif" font-size="10.00"> </text>
<polyline fill="none" stroke="black" points="17.5,-284.5 101.5,-284.5 "/>
<text text-anchor="middle" x="59.5" y="-272.5" font-family="Helvetica,sans-Serif" font-size="10.00"> </text>
</a>
</g>
</g>
<!-- Node3&#45;&gt;Node2 -->
<g id="edge2" class="edge">
<title>Node3&#45;&gt;Node2</title>
<path fill="none" stroke="orange" d="M59.5,-255.29C59.5,-242.84 59.5,-229.23 59.5,-217.68"/>
<polygon fill="orange" stroke="orange" points="56,-255.4 59.5,-265.4 63,-255.4 56,-255.4"/>
<text text-anchor="middle" x="84" y="-239" font-family="Helvetica,sans-Serif" font-size="10.00"> &lt; uint8_t &gt;</text>
</g>
<!-- Node4 -->
<g id="node4" class="node">
<title>Node4</title>
<g id="a_node4"><a xlink:title=" ">
<polygon fill="white" stroke="#bfbfbf" points="45,-370.5 45,-427.5 74,-427.5 74,-370.5 45,-370.5"/>
<text text-anchor="middle" x="59.5" y="-415.5" font-family="Helvetica,sans-Serif" font-size="10.00">T</text>
<polyline fill="none" stroke="#bfbfbf" points="45,-408.5 74,-408.5 "/>
<text text-anchor="middle" x="59.5" y="-396.5" font-family="Helvetica,sans-Serif" font-size="10.00"> </text>
<polyline fill="none" stroke="#bfbfbf" points="45,-389.5 74,-389.5 "/>
<text text-anchor="middle" x="59.5" y="-377.5" font-family="Helvetica,sans-Serif" font-size="10.00"> </text>
</a>
</g>
</g>
<!-- Node4&#45;&gt;Node3 -->
<g id="edge3" class="edge">
<title>Node4&#45;&gt;Node3</title>
<path fill="none" stroke="#404040" d="M59.5,-370.4C59.5,-359.55 59.5,-346.87 59.5,-335.05"/>
<polygon fill="none" stroke="#404040" points="59.5,-334.68 55.5,-328.68 59.5,-322.68 63.5,-328.68 59.5,-334.68"/>
<text text-anchor="middle" x="84" y="-344" font-family="Helvetica,sans-Serif" font-size="10.00"> +elements</text>
</g>
</g>
</svg>
