<?xml version="1.0" encoding="UTF-8" standalone="no"?>
<!DOCTYPE svg PUBLIC "-//W3C//DTD SVG 1.1//EN"
 "http://www.w3.org/Graphics/SVG/1.1/DTD/svg11.dtd">
<!-- Generated by graphviz version 3.0.0 (20220413.0106)
 -->
<!-- Title: altintegration::Config::Bootstrap&lt; Block, ChainParams &gt; Pages: 1 -->
<svg width="284pt" height="392pt"
 viewBox="0.00 0.00 284.00 392.00" xmlns="http://www.w3.org/2000/svg" xmlns:xlink="http://www.w3.org/1999/xlink">
<g id="graph0" class="graph" transform="scale(1 1) rotate(0) translate(4 388)">
<title>altintegration::Config::Bootstrap&lt; Block, ChainParams &gt;</title>
<polygon fill="white" stroke="transparent" points="-4,4 -4,-388 280,-388 280,4 -4,4"/>
<!-- Node1 -->
<g id="node1" class="node">
<title>Node1</title>
<g id="a_node1"><a xlink:title="per&#45;chain bootstrap config">
<polygon fill="#bfbfbf" stroke="black" points="40.5,-0.5 40.5,-68.5 208.5,-68.5 208.5,-0.5 40.5,-0.5"/>
<text text-anchor="start" x="48.5" y="-56.5" font-family="Helvetica,sans-Serif" font-size="10.00">altintegration::Config</text>
<text text-anchor="middle" x="124.5" y="-45.5" font-family="Helvetica,sans-Serif" font-size="10.00">::Bootstrap&lt; Block, ChainParams &gt;</text>
<polyline fill="none" stroke="black" points="40.5,-38.5 208.5,-38.5 "/>
<text text-anchor="start" x="48.5" y="-26.5" font-family="Helvetica,sans-Serif" font-size="10.00">+ startHeight</text>
<polyline fill="none" stroke="black" points="40.5,-19.5 208.5,-19.5 "/>
<text text-anchor="start" x="48.5" y="-7.5" font-family="Helvetica,sans-Serif" font-size="10.00">+ create()</text>
</a>
</g>
</g>
<!-- Node2 -->
<g id="node2" class="node">
<title>Node2</title>
<g id="a_node2"><a xlink:title=" ">
<polygon fill="white" stroke="black" points="0,-116.5 0,-173.5 103,-173.5 103,-116.5 0,-116.5"/>
<text text-anchor="middle" x="51.5" y="-161.5" font-family="Helvetica,sans-Serif" font-size="10.00">std::vector&lt; Block &gt;</text>
<polyline fill="none" stroke="black" points="0,-154.5 103,-154.5 "/>
<text text-anchor="start" x="8" y="-142.5" font-family="Helvetica,sans-Serif" font-size="10.00">+ elements</text>
<polyline fill="none" stroke="black" points="0,-135.5 103,-135.5 "/>
<text text-anchor="middle" x="51.5" y="-123.5" font-family="Helvetica,sans-Serif" font-size="10.00"> </text>
</a>
</g>
</g>
<!-- Node2&#45;&gt;Node1 -->
<g id="edge1" class="edge">
<title>Node2&#45;&gt;Node1</title>
<path fill="none" stroke="#404040" d="M70.11,-116.34C77.84,-104.85 87,-91.24 95.57,-78.5"/>
<polygon fill="none" stroke="#404040" points="95.59,-78.47 95.62,-71.26 102.28,-68.52 102.25,-75.73 95.59,-78.47"/>
<text text-anchor="middle" x="107" y="-90" font-family="Helvetica,sans-Serif" font-size="10.00"> +blocks</text>
</g>
<!-- Node3 -->
<g id="node3" class="node">
<title>Node3</title>
<g id="a_node3"><a xlink:title=" ">
<polygon fill="white" stroke="black" points="35.5,-221.5 35.5,-278.5 119.5,-278.5 119.5,-221.5 35.5,-221.5"/>
<text text-anchor="middle" x="77.5" y="-266.5" font-family="Helvetica,sans-Serif" font-size="10.00">std::vector&lt; T &gt;</text>
<polyline fill="none" stroke="black" points="35.5,-259.5 119.5,-259.5 "/>
<text text-anchor="middle" x="77.5" y="-247.5" font-family="Helvetica,sans-Serif" font-size="10.00"> </text>
<polyline fill="none" stroke="black" points="35.5,-240.5 119.5,-240.5 "/>
<text text-anchor="middle" x="77.5" y="-228.5" font-family="Helvetica,sans-Serif" font-size="10.00"> </text>
</a>
</g>
</g>
<!-- Node3&#45;&gt;Node2 -->
<g id="edge2" class="edge">
<title>Node3&#45;&gt;Node2</title>
<path fill="none" stroke="orange" d="M68.07,-211.66C64.91,-199.11 61.43,-185.35 58.49,-173.68"/>
<polygon fill="orange" stroke="orange" points="64.69,-212.56 70.53,-221.4 71.48,-210.85 64.69,-212.56"/>
<text text-anchor="middle" x="87.5" y="-195" font-family="Helvetica,sans-Serif" font-size="10.00"> &lt; Block &gt;</text>
</g>
<!-- Node4 -->
<g id="node4" class="node">
<title>Node4</title>
<g id="a_node4"><a xlink:title=" ">
<polygon fill="white" stroke="#bfbfbf" points="119,-326.5 119,-383.5 148,-383.5 148,-326.5 119,-326.5"/>
<text text-anchor="middle" x="133.5" y="-371.5" font-family="Helvetica,sans-Serif" font-size="10.00">T</text>
<polyline fill="none" stroke="#bfbfbf" points="119,-364.5 148,-364.5 "/>
<text text-anchor="middle" x="133.5" y="-352.5" font-family="Helvetica,sans-Serif" font-size="10.00"> </text>
<polyline fill="none" stroke="#bfbfbf" points="119,-345.5 148,-345.5 "/>
<text text-anchor="middle" x="133.5" y="-333.5" font-family="Helvetica,sans-Serif" font-size="10.00"> </text>
</a>
</g>
</g>
<!-- Node4&#45;&gt;Node3 -->
<g id="edge3" class="edge">
<title>Node4&#45;&gt;Node3</title>
<path fill="none" stroke="#404040" d="M118.93,-327.21C112.67,-315.68 105.22,-301.99 98.39,-289.42"/>
<polygon fill="none" stroke="#404040" points="98.31,-289.28 91.93,-285.92 92.58,-278.74 98.96,-282.1 98.31,-289.28"/>
<text text-anchor="middle" x="132" y="-300" font-family="Helvetica,sans-Serif" font-size="10.00"> +elements</text>
</g>
<!-- Node6 -->
<g id="node6" class="node">
<title>Node6</title>
<g id="a_node6"><a xlink:title=" ">
<polygon fill="white" stroke="black" points="142,-221.5 142,-278.5 245,-278.5 245,-221.5 142,-221.5"/>
<text text-anchor="middle" x="193.5" y="-266.5" font-family="Helvetica,sans-Serif" font-size="10.00">std::shared_ptr&lt; T &gt;</text>
<polyline fill="none" stroke="black" points="142,-259.5 245,-259.5 "/>
<text text-anchor="middle" x="193.5" y="-247.5" font-family="Helvetica,sans-Serif" font-size="10.00"> </text>
<polyline fill="none" stroke="black" points="142,-240.5 245,-240.5 "/>
<text text-anchor="start" x="150" y="-228.5" font-family="Helvetica,sans-Serif" font-size="10.00">+ operator&#45;&gt;()</text>
</a>
</g>
</g>
<!-- Node4&#45;&gt;Node6 -->
<g id="edge6" class="edge">
<title>Node4&#45;&gt;Node6</title>
<path fill="none" stroke="#404040" d="M148.02,-329.07C155.03,-317.04 163.59,-302.35 171.38,-288.97"/>
<polygon fill="none" stroke="#404040" points="171.38,-288.97 170.94,-281.77 177.42,-278.6 177.86,-285.8 171.38,-288.97"/>
<text text-anchor="middle" x="175.5" y="-300" font-family="Helvetica,sans-Serif" font-size="10.00"> +ptr</text>
</g>
<!-- Node5 -->
<g id="node5" class="node">
<title>Node5</title>
<g id="a_node5"><a xlink:title=" ">
<polygon fill="white" stroke="black" points="121,-116.5 121,-173.5 276,-173.5 276,-116.5 121,-116.5"/>
<text text-anchor="middle" x="198.5" y="-161.5" font-family="Helvetica,sans-Serif" font-size="10.00">std::shared_ptr&lt; ChainParams &gt;</text>
<polyline fill="none" stroke="black" points="121,-154.5 276,-154.5 "/>
<text text-anchor="start" x="129" y="-142.5" font-family="Helvetica,sans-Serif" font-size="10.00">+ ptr</text>
<polyline fill="none" stroke="black" points="121,-135.5 276,-135.5 "/>
<text text-anchor="start" x="129" y="-123.5" font-family="Helvetica,sans-Serif" font-size="10.00">+ operator&#45;&gt;()</text>
</a>
</g>
</g>
<!-- Node5&#45;&gt;Node1 -->
<g id="edge4" class="edge">
<title>Node5&#45;&gt;Node1</title>
<path fill="none" stroke="#404040" d="M179.64,-116.34C171.8,-104.85 162.51,-91.24 153.82,-78.5"/>
<polygon fill="none" stroke="#404040" points="153.78,-78.43 147.1,-75.73 147.02,-68.52 153.7,-71.22 153.78,-78.43"/>
<text text-anchor="middle" x="187" y="-90" font-family="Helvetica,sans-Serif" font-size="10.00"> +params</text>
</g>
<!-- Node6&#45;&gt;Node5 -->
<g id="edge5" class="edge">
<title>Node6&#45;&gt;Node5</title>
<path fill="none" stroke="orange" d="M195.33,-211.29C195.93,-198.84 196.6,-185.23 197.16,-173.68"/>
<polygon fill="orange" stroke="orange" points="191.83,-211.24 194.84,-221.4 198.82,-211.58 191.83,-211.24"/>
<text text-anchor="middle" x="234.5" y="-195" font-family="Helvetica,sans-Serif" font-size="10.00"> &lt; ChainParams &gt;</text>
</g>
</g>
</svg>
