<?xml version="1.0" encoding="UTF-8" standalone="no"?>
<!DOCTYPE svg PUBLIC "-//W3C//DTD SVG 1.1//EN"
 "http://www.w3.org/Graphics/SVG/1.1/DTD/svg11.dtd">
<!-- Generated by graphviz version 3.0.0 (20220413.0106)
 -->
<!-- Title: altintegration::btc::BlockHeaderAndShortTxIDs Pages: 1 -->
<!--zoomable 1765 -->
<svg id="main" version="1.1" xmlns="http://www.w3.org/2000/svg" xmlns:xlink="http://www.w3.org/1999/xlink" xml:space="preserve" onload="init(evt)">
<style type="text/css"><![CDATA[
.edge:hover path { stroke: red; }
.edge:hover polygon { stroke: red; fill: red; }
]]></style>
<script type="text/javascript"><![CDATA[
var edges = document.getElementsByTagName('g');
if (edges && edges.length) {
  for (var i=0;i<edges.length;i++) {
    if (edges[i].id.substr(0,4)=='edge') {
      edges[i].setAttribute('class','edge');
    }
  }
}
]]></script>
        <defs>
                <circle id="rim" cx="0" cy="0" r="7"/>
                <circle id="rim2" cx="0" cy="0" r="3.5"/>
                <g id="zoomPlus">
                        <use xlink:href="#rim" fill="#404040">
                                <set attributeName="fill" to="#808080" begin="zoomplus.mouseover" end="zoomplus.mouseout"/>
                        </use>
                        <path d="M-4,0h8M0,-4v8" fill="none" stroke="white" stroke-width="1.5" pointer-events="none"/>
                </g>
                <g id="zoomMin">
                        <use xlink:href="#rim" fill="#404040">
                                <set attributeName="fill" to="#808080" begin="zoomminus.mouseover" end="zoomminus.mouseout"/>
                        </use>
                        <path d="M-4,0h8" fill="none" stroke="white" stroke-width="1.5" pointer-events="none"/>
                </g>
                <g id="dirArrow">
                        <path fill="none" stroke="white" stroke-width="1.5" d="M0,-3.0v7 M-2.5,-0.5L0,-3.0L2.5,-0.5"/>
                </g>
               <g id="resetDef">
                       <use xlink:href="#rim2" fill="#404040">
                               <set attributeName="fill" to="#808080" begin="reset.mouseover" end="reset.mouseout"/>
                       </use>
               </g>
        </defs>

<script type="text/javascript">
var viewWidth = 1165;
var viewHeight = 1765;
var sectionId = 'dynsection-0';
</script>
<script xlink:href="svgpan.js"/>
<svg id="graph" class="graph">
<g id="viewport">
<title>altintegration::btc::BlockHeaderAndShortTxIDs</title>
<polygon fill="white" stroke="transparent" points="-4,4 -4,-1761 1161,-1761 1161,4 -4,4"/>
<!-- Node1 -->
<g id="node1" class="node">
<title>Node1</title>
<g id="a_node1"><a xlink:title=" ">
<polygon fill="#bfbfbf" stroke="black" points="694,-0.5 694,-90.5 849,-90.5 849,-0.5 694,-0.5"/>
<text text-anchor="start" x="702" y="-78.5" font-family="Helvetica,sans-Serif" font-size="10.00">altintegration::btc</text>
<text text-anchor="middle" x="771.5" y="-67.5" font-family="Helvetica,sans-Serif" font-size="10.00">::BlockHeaderAndShortTxIDs</text>
<polyline fill="none" stroke="black" points="694,-60.5 849,-60.5 "/>
<text text-anchor="start" x="702" y="-48.5" font-family="Helvetica,sans-Serif" font-size="10.00">+ nonce</text>
<text text-anchor="start" x="702" y="-37.5" font-family="Helvetica,sans-Serif" font-size="10.00">+ ADD_SERIALIZE_METHODS</text>
<text text-anchor="start" x="702" y="-26.5" font-family="Helvetica,sans-Serif" font-size="10.00">+ SHORTTXIDS_LENGTH</text>
<polyline fill="none" stroke="black" points="694,-19.5 849,-19.5 "/>
<text text-anchor="start" x="702" y="-7.5" font-family="Helvetica,sans-Serif" font-size="10.00">+ SerializationOp()</text>
</a>
</g>
</g>
<!-- Node2 -->
<g id="node2" class="node">
<title>Node2</title>
<g id="a_node2"><a xlink:href="structaltintegration_1_1btc_1_1BlockHeader.html" target="_top" xlink:title=" ">
<polygon fill="white" stroke="#bfbfbf" points="829,-617.5 829,-707.5 984,-707.5 984,-617.5 829,-617.5"/>
<text text-anchor="start" x="837" y="-695.5" font-family="Helvetica,sans-Serif" font-size="10.00">altintegration::btc</text>
<text text-anchor="middle" x="906.5" y="-684.5" font-family="Helvetica,sans-Serif" font-size="10.00">::BlockHeader</text>
<polyline fill="none" stroke="#bfbfbf" points="829,-677.5 984,-677.5 "/>
<text text-anchor="start" x="837" y="-665.5" font-family="Helvetica,sans-Serif" font-size="10.00">+ ADD_SERIALIZE_METHODS</text>
<polyline fill="none" stroke="#bfbfbf" points="829,-658.5 984,-658.5 "/>
<text text-anchor="start" x="837" y="-646.5" font-family="Helvetica,sans-Serif" font-size="10.00">+ BlockHeader()</text>
<text text-anchor="start" x="837" y="-635.5" font-family="Helvetica,sans-Serif" font-size="10.00">+ BlockHeader()</text>
<text text-anchor="start" x="837" y="-624.5" font-family="Helvetica,sans-Serif" font-size="10.00">+ SerializationOp()</text>
</a>
</g>
</g>
<!-- Node2&#45;&gt;Node1 -->
<g id="edge1" class="edge">
<title>Node2&#45;&gt;Node1</title>
<path fill="none" stroke="#404040" d="M881.12,-617.21C866.3,-587.24 850.5,-546.19 850.5,-507.5 850.5,-507.5 850.5,-507.5 850.5,-171.5 850.5,-145.8 838.42,-121.08 823.7,-100.51"/>
<polygon fill="none" stroke="#404040" points="823.56,-100.32 816.75,-97.96 816.31,-90.76 823.12,-93.12 823.56,-100.32"/>
<text text-anchor="middle" x="869.5" y="-355" font-family="Helvetica,sans-Serif" font-size="10.00"> +header</text>
</g>
<!-- Node3 -->
<g id="node3" class="node">
<title>Node3</title>
<g id="a_node3"><a xlink:href="structaltintegration_1_1BtcBlock.html" target="_top" xlink:title="Bitcoin block.">
<polygon fill="white" stroke="black" points="973.5,-853.5 973.5,-1075.5 1089.5,-1075.5 1089.5,-853.5 973.5,-853.5"/>
<text text-anchor="middle" x="1031.5" y="-1063.5" font-family="Helvetica,sans-Serif" font-size="10.00">altintegration::BtcBlock</text>
<polyline fill="none" stroke="black" points="973.5,-1056.5 1089.5,-1056.5 "/>
<text text-anchor="start" x="981.5" y="-1044.5" font-family="Helvetica,sans-Serif" font-size="10.00"># version</text>
<text text-anchor="start" x="981.5" y="-1033.5" font-family="Helvetica,sans-Serif" font-size="10.00"># timestamp</text>
<text text-anchor="start" x="981.5" y="-1022.5" font-family="Helvetica,sans-Serif" font-size="10.00"># bits</text>
<text text-anchor="start" x="981.5" y="-1011.5" font-family="Helvetica,sans-Serif" font-size="10.00"># nonce</text>
<polyline fill="none" stroke="black" points="973.5,-1004.5 1089.5,-1004.5 "/>
<text text-anchor="start" x="981.5" y="-992.5" font-family="Helvetica,sans-Serif" font-size="10.00">+ BtcBlock()</text>
<text text-anchor="start" x="981.5" y="-981.5" font-family="Helvetica,sans-Serif" font-size="10.00">+ BtcBlock()</text>
<text text-anchor="start" x="981.5" y="-970.5" font-family="Helvetica,sans-Serif" font-size="10.00">+ toRaw()</text>
<text text-anchor="start" x="981.5" y="-959.5" font-family="Helvetica,sans-Serif" font-size="10.00">+ toVbkEncoding()</text>
<text text-anchor="start" x="981.5" y="-948.5" font-family="Helvetica,sans-Serif" font-size="10.00">+ estimateSize()</text>
<text text-anchor="start" x="981.5" y="-937.5" font-family="Helvetica,sans-Serif" font-size="10.00">+ calculateHash()</text>
<text text-anchor="start" x="981.5" y="-926.5" font-family="Helvetica,sans-Serif" font-size="10.00">+ getHash()</text>
<text text-anchor="start" x="981.5" y="-915.5" font-family="Helvetica,sans-Serif" font-size="10.00">+ toPrettyString()</text>
<text text-anchor="start" x="981.5" y="-904.5" font-family="Helvetica,sans-Serif" font-size="10.00">+ getVersion()</text>
<text text-anchor="start" x="981.5" y="-893.5" font-family="Helvetica,sans-Serif" font-size="10.00">+ getPreviousBlock()</text>
<text text-anchor="start" x="981.5" y="-882.5" font-family="Helvetica,sans-Serif" font-size="10.00">and 10 more...</text>
<text text-anchor="start" x="981.5" y="-871.5" font-family="Helvetica,sans-Serif" font-size="10.00">+ name()</text>
<text text-anchor="start" x="981.5" y="-860.5" font-family="Helvetica,sans-Serif" font-size="10.00"># invalidateHash()</text>
</a>
</g>
</g>
<!-- Node3&#45;&gt;Node2 -->
<g id="edge2" class="edge">
<title>Node3&#45;&gt;Node2</title>
<path fill="none" stroke="midnightblue" d="M981.81,-844.26C961.77,-796.16 939.89,-743.65 924.91,-707.68"/>
<polygon fill="none" stroke="midnightblue" points="978.59,-845.61 985.66,-853.49 985.05,-842.92 978.59,-845.61"/>
</g>
<!-- Node4 -->
<g id="node4" class="node">
<title>Node4</title>
<g id="a_node4"><a xlink:title=" ">
<polygon fill="white" stroke="black" points="1081,-1253 1081,-1310 1140,-1310 1140,-1253 1081,-1253"/>
<text text-anchor="middle" x="1110.5" y="-1298" font-family="Helvetica,sans-Serif" font-size="10.00">std::string</text>
<polyline fill="none" stroke="black" points="1081,-1291 1140,-1291 "/>
<text text-anchor="middle" x="1110.5" y="-1279" font-family="Helvetica,sans-Serif" font-size="10.00"> </text>
<polyline fill="none" stroke="black" points="1081,-1272 1140,-1272 "/>
<text text-anchor="middle" x="1110.5" y="-1260" font-family="Helvetica,sans-Serif" font-size="10.00"> </text>
</a>
</g>
</g>
<!-- Node4&#45;&gt;Node3 -->
<g id="edge3" class="edge">
<title>Node4&#45;&gt;Node3</title>
<path fill="none" stroke="#404040" d="M1103.56,-1252.82C1094.29,-1215.88 1077.29,-1148.07 1062.12,-1087.6"/>
<polygon fill="none" stroke="#404040" points="1062.04,-1087.26 1056.7,-1082.41 1059.12,-1075.62 1064.46,-1080.46 1062.04,-1087.26"/>
<text text-anchor="middle" x="1096" y="-1120.5" font-family="Helvetica,sans-Serif" font-size="10.00"> #_name</text>
</g>
<!-- Node5 -->
<g id="node5" class="node">
<title>Node5</title>
<g id="a_node5"><a xlink:title=" ">
<polygon fill="white" stroke="black" points="1064,-1512 1064,-1580 1157,-1580 1157,-1512 1064,-1512"/>
<text text-anchor="start" x="1072" y="-1568" font-family="Helvetica,sans-Serif" font-size="10.00">std::basic_string&lt;</text>
<text text-anchor="middle" x="1110.5" y="-1557" font-family="Helvetica,sans-Serif" font-size="10.00"> Char &gt;</text>
<polyline fill="none" stroke="black" points="1064,-1550 1157,-1550 "/>
<text text-anchor="middle" x="1110.5" y="-1538" font-family="Helvetica,sans-Serif" font-size="10.00"> </text>
<polyline fill="none" stroke="black" points="1064,-1531 1157,-1531 "/>
<text text-anchor="middle" x="1110.5" y="-1519" font-family="Helvetica,sans-Serif" font-size="10.00"> </text>
</a>
</g>
</g>
<!-- Node5&#45;&gt;Node4 -->
<g id="edge4" class="edge">
<title>Node5&#45;&gt;Node4</title>
<path fill="none" stroke="midnightblue" d="M1110.5,-1501.75C1110.5,-1447.49 1110.5,-1356.02 1110.5,-1310.29"/>
<polygon fill="none" stroke="midnightblue" points="1107,-1501.75 1110.5,-1511.75 1114,-1501.75 1107,-1501.75"/>
</g>
<!-- Node6 -->
<g id="node6" class="node">
<title>Node6</title>
<g id="a_node6"><a xlink:href="structaltintegration_1_1Blob.html" target="_top" xlink:title=" ">
<polygon fill="white" stroke="black" points="831,-1170.5 831,-1392.5 962,-1392.5 962,-1170.5 831,-1170.5"/>
<text text-anchor="start" x="839" y="-1380.5" font-family="Helvetica,sans-Serif" font-size="10.00">altintegration::Blob</text>
<text text-anchor="middle" x="896.5" y="-1369.5" font-family="Helvetica,sans-Serif" font-size="10.00">&lt; SHA256_HASH_SIZE &gt;</text>
<polyline fill="none" stroke="black" points="831,-1362.5 962,-1362.5 "/>
<text text-anchor="start" x="839" y="-1350.5" font-family="Helvetica,sans-Serif" font-size="10.00">+ data_</text>
<text text-anchor="start" x="839" y="-1339.5" font-family="Helvetica,sans-Serif" font-size="10.00">+ this</text>
<polyline fill="none" stroke="black" points="831,-1332.5 962,-1332.5 "/>
<text text-anchor="start" x="839" y="-1320.5" font-family="Helvetica,sans-Serif" font-size="10.00">+ Blob()</text>
<text text-anchor="start" x="839" y="-1309.5" font-family="Helvetica,sans-Serif" font-size="10.00">+ Blob()</text>
<text text-anchor="start" x="839" y="-1298.5" font-family="Helvetica,sans-Serif" font-size="10.00">+ Blob()</text>
<text text-anchor="start" x="839" y="-1287.5" font-family="Helvetica,sans-Serif" font-size="10.00">+ Blob()</text>
<text text-anchor="start" x="839" y="-1276.5" font-family="Helvetica,sans-Serif" font-size="10.00">+ Blob()</text>
<text text-anchor="start" x="839" y="-1265.5" font-family="Helvetica,sans-Serif" font-size="10.00">+ operator=()</text>
<text text-anchor="start" x="839" y="-1254.5" font-family="Helvetica,sans-Serif" font-size="10.00">+ operator=()</text>
<text text-anchor="start" x="839" y="-1243.5" font-family="Helvetica,sans-Serif" font-size="10.00">+ reverse()</text>
<text text-anchor="start" x="839" y="-1232.5" font-family="Helvetica,sans-Serif" font-size="10.00">+ operator~()</text>
<text text-anchor="start" x="839" y="-1221.5" font-family="Helvetica,sans-Serif" font-size="10.00">+ asVector()</text>
<text text-anchor="start" x="839" y="-1210.5" font-family="Helvetica,sans-Serif" font-size="10.00">+ asString()</text>
<text text-anchor="start" x="839" y="-1199.5" font-family="Helvetica,sans-Serif" font-size="10.00">+ operator[]()</text>
<text text-anchor="start" x="839" y="-1188.5" font-family="Helvetica,sans-Serif" font-size="10.00">+ operator[]()</text>
<text text-anchor="start" x="839" y="-1177.5" font-family="Helvetica,sans-Serif" font-size="10.00">+ compareTo()</text>
</a>
</g>
</g>
<!-- Node6&#45;&gt;Node3 -->
<g id="edge5" class="edge">
<title>Node6&#45;&gt;Node3</title>
<path fill="none" stroke="#404040" d="M917.02,-1170.45C924.43,-1144.4 934.35,-1117.41 947.5,-1094 952.89,-1084.41 957.83,-1084.75 964.5,-1076 965.06,-1075.26 965.62,-1074.52 966.18,-1073.78"/>
<polygon fill="none" stroke="#404040" points="966.34,-1073.56 966.63,-1066.35 973.4,-1063.85 973.1,-1071.06 966.34,-1073.56"/>
<text text-anchor="middle" x="981" y="-1126" font-family="Helvetica,sans-Serif" font-size="10.00"> #merkleRoot</text>
<text text-anchor="middle" x="981" y="-1115" font-family="Helvetica,sans-Serif" font-size="10.00">#previousBlock</text>
</g>
<!-- Node16 -->
<g id="node16" class="node">
<title>Node16</title>
<g id="a_node16"><a xlink:href="structaltintegration_1_1btc_1_1OutPoint.html" target="_top" xlink:title="An outpoint &#45; a combination of a transaction hash and an index n into its vout.">
<polygon fill="white" stroke="black" points="800,-925 800,-1004 955,-1004 955,-925 800,-925"/>
<text text-anchor="start" x="808" y="-992" font-family="Helvetica,sans-Serif" font-size="10.00">altintegration::btc</text>
<text text-anchor="middle" x="877.5" y="-981" font-family="Helvetica,sans-Serif" font-size="10.00">::OutPoint</text>
<polyline fill="none" stroke="black" points="800,-974 955,-974 "/>
<text text-anchor="start" x="808" y="-962" font-family="Helvetica,sans-Serif" font-size="10.00">+ n</text>
<text text-anchor="start" x="808" y="-951" font-family="Helvetica,sans-Serif" font-size="10.00">+ ADD_SERIALIZE_METHODS</text>
<polyline fill="none" stroke="black" points="800,-944 955,-944 "/>
<text text-anchor="start" x="808" y="-932" font-family="Helvetica,sans-Serif" font-size="10.00">+ SerializationOp()</text>
</a>
</g>
</g>
<!-- Node6&#45;&gt;Node16 -->
<g id="edge17" class="edge">
<title>Node6&#45;&gt;Node16</title>
<path fill="none" stroke="#404040" d="M889.85,-1170.33C886.69,-1117.8 883.05,-1057.53 880.55,-1016.04"/>
<polygon fill="none" stroke="#404040" points="880.55,-1016.03 876.19,-1010.29 879.83,-1004.06 884.18,-1009.8 880.55,-1016.03"/>
<text text-anchor="middle" x="904.5" y="-1120.5" font-family="Helvetica,sans-Serif" font-size="10.00"> +hash</text>
</g>
<!-- Node7 -->
<g id="node7" class="node">
<title>Node7</title>
<g id="a_node7"><a xlink:href="structaltintegration_1_1Blob.html" target="_top" xlink:title="Contiguous byte array of fixed size.">
<polygon fill="white" stroke="black" points="881.5,-1440.5 881.5,-1651.5 1001.5,-1651.5 1001.5,-1440.5 881.5,-1440.5"/>
<text text-anchor="middle" x="941.5" y="-1639.5" font-family="Helvetica,sans-Serif" font-size="10.00">altintegration::Blob&lt; N &gt;</text>
<polyline fill="none" stroke="black" points="881.5,-1632.5 1001.5,-1632.5 "/>
<text text-anchor="start" x="889.5" y="-1620.5" font-family="Helvetica,sans-Serif" font-size="10.00">+ data_</text>
<text text-anchor="start" x="889.5" y="-1609.5" font-family="Helvetica,sans-Serif" font-size="10.00">+ this</text>
<polyline fill="none" stroke="black" points="881.5,-1602.5 1001.5,-1602.5 "/>
<text text-anchor="start" x="889.5" y="-1590.5" font-family="Helvetica,sans-Serif" font-size="10.00">+ Blob()</text>
<text text-anchor="start" x="889.5" y="-1579.5" font-family="Helvetica,sans-Serif" font-size="10.00">+ Blob()</text>
<text text-anchor="start" x="889.5" y="-1568.5" font-family="Helvetica,sans-Serif" font-size="10.00">+ Blob()</text>
<text text-anchor="start" x="889.5" y="-1557.5" font-family="Helvetica,sans-Serif" font-size="10.00">+ Blob()</text>
<text text-anchor="start" x="889.5" y="-1546.5" font-family="Helvetica,sans-Serif" font-size="10.00">+ Blob()</text>
<text text-anchor="start" x="889.5" y="-1535.5" font-family="Helvetica,sans-Serif" font-size="10.00">+ operator=()</text>
<text text-anchor="start" x="889.5" y="-1524.5" font-family="Helvetica,sans-Serif" font-size="10.00">+ operator=()</text>
<text text-anchor="start" x="889.5" y="-1513.5" font-family="Helvetica,sans-Serif" font-size="10.00">+ reverse()</text>
<text text-anchor="start" x="889.5" y="-1502.5" font-family="Helvetica,sans-Serif" font-size="10.00">+ operator~()</text>
<text text-anchor="start" x="889.5" y="-1491.5" font-family="Helvetica,sans-Serif" font-size="10.00">+ asVector()</text>
<text text-anchor="start" x="889.5" y="-1480.5" font-family="Helvetica,sans-Serif" font-size="10.00">+ asString()</text>
<text text-anchor="start" x="889.5" y="-1469.5" font-family="Helvetica,sans-Serif" font-size="10.00">+ operator[]()</text>
<text text-anchor="start" x="889.5" y="-1458.5" font-family="Helvetica,sans-Serif" font-size="10.00">+ operator[]()</text>
<text text-anchor="start" x="889.5" y="-1447.5" font-family="Helvetica,sans-Serif" font-size="10.00">+ compareTo()</text>
</a>
</g>
</g>
<!-- Node7&#45;&gt;Node3 -->
<g id="edge7" class="edge">
<title>Node7&#45;&gt;Node3</title>
<path fill="none" stroke="#404040" d="M1001.6,-1454.95C1006.75,-1444.19 1011.24,-1433.08 1014.5,-1422 1032.24,-1361.76 1034.54,-1201.38 1033.71,-1087.79"/>
<polygon fill="none" stroke="#404040" points="1033.71,-1087.56 1029.66,-1081.6 1033.61,-1075.56 1037.66,-1081.53 1033.71,-1087.56"/>
<text text-anchor="middle" x="1050.5" y="-1279" font-family="Helvetica,sans-Serif" font-size="10.00"> #hash_</text>
</g>
<!-- Node7&#45;&gt;Node6 -->
<g id="edge6" class="edge">
<title>Node7&#45;&gt;Node6</title>
<path fill="none" stroke="orange" d="M899.17,-1430.53C898.56,-1427.67 898,-1424.83 897.5,-1422 895.83,-1412.58 894.65,-1402.75 893.85,-1392.85"/>
<polygon fill="orange" stroke="orange" points="895.76,-1431.34 901.43,-1440.29 902.58,-1429.76 895.76,-1431.34"/>
<text text-anchor="middle" x="956" y="-1414" font-family="Helvetica,sans-Serif" font-size="10.00"> &lt; SHA256_HASH_SIZE &gt;</text>
</g>
<!-- Node8 -->
<g id="node8" class="node">
<title>Node8</title>
<g id="a_node8"><a xlink:title=" ">
<polygon fill="white" stroke="black" points="696,-1094.5 696,-1151.5 809,-1151.5 809,-1094.5 696,-1094.5"/>
<text text-anchor="middle" x="752.5" y="-1139.5" font-family="Helvetica,sans-Serif" font-size="10.00">std::vector&lt; uint64_t &gt;</text>
<polyline fill="none" stroke="black" points="696,-1132.5 809,-1132.5 "/>
<text text-anchor="start" x="704" y="-1120.5" font-family="Helvetica,sans-Serif" font-size="10.00">+ elements</text>
<polyline fill="none" stroke="black" points="696,-1113.5 809,-1113.5 "/>
<text text-anchor="middle" x="752.5" y="-1101.5" font-family="Helvetica,sans-Serif" font-size="10.00"> </text>
</a>
</g>
</g>
<!-- Node8&#45;&gt;Node1 -->
<g id="edge8" class="edge">
<title>Node8&#45;&gt;Node1</title>
<path fill="none" stroke="#404040" d="M755.51,-1094.31C760.87,-1042.55 771.5,-927.62 771.5,-830.5 771.5,-830.5 771.5,-830.5 771.5,-171.5 771.5,-149.1 771.5,-124.43 771.5,-102.98"/>
<polygon fill="none" stroke="#404040" points="771.5,-102.76 767.5,-96.76 771.5,-90.76 775.5,-96.76 771.5,-102.76"/>
<text text-anchor="middle" x="797" y="-504" font-family="Helvetica,sans-Serif" font-size="10.00"> +shorttxids</text>
</g>
<!-- Node9 -->
<g id="node9" class="node">
<title>Node9</title>
<g id="a_node9"><a xlink:title=" ">
<polygon fill="white" stroke="black" points="468.5,-1517.5 468.5,-1574.5 552.5,-1574.5 552.5,-1517.5 468.5,-1517.5"/>
<text text-anchor="middle" x="510.5" y="-1562.5" font-family="Helvetica,sans-Serif" font-size="10.00">std::vector&lt; T &gt;</text>
<polyline fill="none" stroke="black" points="468.5,-1555.5 552.5,-1555.5 "/>
<text text-anchor="middle" x="510.5" y="-1543.5" font-family="Helvetica,sans-Serif" font-size="10.00"> </text>
<polyline fill="none" stroke="black" points="468.5,-1536.5 552.5,-1536.5 "/>
<text text-anchor="middle" x="510.5" y="-1524.5" font-family="Helvetica,sans-Serif" font-size="10.00"> </text>
</a>
</g>
</g>
<!-- Node9&#45;&gt;Node8 -->
<g id="edge9" class="edge">
<title>Node9&#45;&gt;Node8</title>
<path fill="none" stroke="orange" d="M561.64,-1517.99C597.47,-1496.53 643.73,-1463.31 671.5,-1422 729.83,-1335.24 746.3,-1207.75 750.83,-1151.92"/>
<polygon fill="orange" stroke="orange" points="559.63,-1515.11 552.77,-1523.18 563.17,-1521.15 559.63,-1515.11"/>
<text text-anchor="middle" x="705.5" y="-1414" font-family="Helvetica,sans-Serif" font-size="10.00"> &lt; uint64_t &gt;</text>
</g>
<!-- Node11 -->
<g id="node11" class="node">
<title>Node11</title>
<g id="a_node11"><a xlink:title=" ">
<polygon fill="white" stroke="black" points="591,-138.5 591,-206.5 724,-206.5 724,-138.5 591,-138.5"/>
<text text-anchor="start" x="599" y="-194.5" font-family="Helvetica,sans-Serif" font-size="10.00">std::vector&lt; altintegration</text>
<text text-anchor="middle" x="657.5" y="-183.5" font-family="Helvetica,sans-Serif" font-size="10.00">::btc::PrefilledTransaction &gt;</text>
<polyline fill="none" stroke="black" points="591,-176.5 724,-176.5 "/>
<text text-anchor="middle" x="657.5" y="-164.5" font-family="Helvetica,sans-Serif" font-size="10.00"> </text>
<polyline fill="none" stroke="black" points="591,-157.5 724,-157.5 "/>
<text text-anchor="middle" x="657.5" y="-145.5" font-family="Helvetica,sans-Serif" font-size="10.00"> </text>
</a>
</g>
</g>
<!-- Node9&#45;&gt;Node11 -->
<g id="edge28" class="edge">
<title>Node9&#45;&gt;Node11</title>
<path fill="none" stroke="orange" d="M551.66,-1510.59C582.39,-1482.36 622.56,-1439.58 643.5,-1393 663.8,-1347.85 657.5,-1332 657.5,-1282.5 657.5,-1282.5 657.5,-1282.5 657.5,-293 657.5,-263.85 657.5,-230.7 657.5,-206.73"/>
<polygon fill="orange" stroke="orange" points="549.14,-1508.15 544.06,-1517.45 553.83,-1513.34 549.14,-1508.15"/>
<text text-anchor="start" x="657.5" y="-665.5" font-family="Helvetica,sans-Serif" font-size="10.00"> &lt; altintegration::btc</text>
<text text-anchor="middle" x="707" y="-654.5" font-family="Helvetica,sans-Serif" font-size="10.00">::PrefilledTransaction &gt;</text>
</g>
<!-- Node14 -->
<g id="node14" class="node">
<title>Node14</title>
<g id="a_node14"><a xlink:title=" ">
<polygon fill="white" stroke="black" points="216,-530.5 216,-598.5 341,-598.5 341,-530.5 216,-530.5"/>
<text text-anchor="start" x="224" y="-586.5" font-family="Helvetica,sans-Serif" font-size="10.00">std::vector&lt; altintegration</text>
<text text-anchor="middle" x="278.5" y="-575.5" font-family="Helvetica,sans-Serif" font-size="10.00">::btc::TxIn &gt;</text>
<polyline fill="none" stroke="black" points="216,-568.5 341,-568.5 "/>
<text text-anchor="middle" x="278.5" y="-556.5" font-family="Helvetica,sans-Serif" font-size="10.00"> </text>
<polyline fill="none" stroke="black" points="216,-549.5 341,-549.5 "/>
<text text-anchor="middle" x="278.5" y="-537.5" font-family="Helvetica,sans-Serif" font-size="10.00"> </text>
</a>
</g>
</g>
<!-- Node9&#45;&gt;Node14 -->
<g id="edge23" class="edge">
<title>Node9&#45;&gt;Node14</title>
<path fill="none" stroke="orange" d="M458.69,-1532.76C359.72,-1505.97 153.5,-1432.18 153.5,-1282.5 153.5,-1282.5 153.5,-1282.5 153.5,-765 153.5,-698.17 204.49,-635.33 241.33,-598.64"/>
<polygon fill="orange" stroke="orange" points="457.94,-1536.18 468.5,-1535.36 459.73,-1529.42 457.94,-1536.18"/>
<text text-anchor="start" x="153.5" y="-967.5" font-family="Helvetica,sans-Serif" font-size="10.00"> &lt; altintegration::btc</text>
<text text-anchor="middle" x="196" y="-956.5" font-family="Helvetica,sans-Serif" font-size="10.00">::TxIn &gt;</text>
</g>
<!-- Node17 -->
<g id="node17" class="node">
<title>Node17</title>
<g id="a_node17"><a xlink:title=" ">
<polygon fill="white" stroke="black" points="398,-1253 398,-1310 505,-1310 505,-1253 398,-1253"/>
<text text-anchor="middle" x="451.5" y="-1298" font-family="Helvetica,sans-Serif" font-size="10.00">std::vector&lt; uint8_t &gt;</text>
<polyline fill="none" stroke="black" points="398,-1291 505,-1291 "/>
<text text-anchor="start" x="406" y="-1279" font-family="Helvetica,sans-Serif" font-size="10.00">+ elements</text>
<polyline fill="none" stroke="black" points="398,-1272 505,-1272 "/>
<text text-anchor="middle" x="451.5" y="-1260" font-family="Helvetica,sans-Serif" font-size="10.00"> </text>
</a>
</g>
</g>
<!-- Node9&#45;&gt;Node17 -->
<g id="edge19" class="edge">
<title>Node9&#45;&gt;Node17</title>
<path fill="none" stroke="orange" d="M501.41,-1507.29C495.59,-1482.98 487.96,-1450.65 481.5,-1422 472.76,-1383.21 463.19,-1338.23 457.26,-1310.06"/>
<polygon fill="orange" stroke="orange" points="498.04,-1508.28 503.78,-1517.19 504.85,-1506.65 498.04,-1508.28"/>
<text text-anchor="middle" x="506" y="-1414" font-family="Helvetica,sans-Serif" font-size="10.00"> &lt; uint8_t &gt;</text>
</g>
<!-- Node18 -->
<g id="node18" class="node">
<title>Node18</title>
<g id="a_node18"><a xlink:title=" ">
<polygon fill="white" stroke="black" points="514,-930.5 514,-998.5 629,-998.5 629,-930.5 514,-930.5"/>
<text text-anchor="start" x="522" y="-986.5" font-family="Helvetica,sans-Serif" font-size="10.00">std::vector&lt; std::vector</text>
<text text-anchor="middle" x="571.5" y="-975.5" font-family="Helvetica,sans-Serif" font-size="10.00">&lt; uint8_t &gt; &gt;</text>
<polyline fill="none" stroke="black" points="514,-968.5 629,-968.5 "/>
<text text-anchor="middle" x="571.5" y="-956.5" font-family="Helvetica,sans-Serif" font-size="10.00"> </text>
<polyline fill="none" stroke="black" points="514,-949.5 629,-949.5 "/>
<text text-anchor="middle" x="571.5" y="-937.5" font-family="Helvetica,sans-Serif" font-size="10.00"> </text>
</a>
</g>
</g>
<!-- Node9&#45;&gt;Node18 -->
<g id="edge22" class="edge">
<title>Node9&#45;&gt;Node18</title>
<path fill="none" stroke="orange" d="M517.34,-1507.35C521.57,-1483.05 526.88,-1450.74 530.5,-1422 550.43,-1263.91 564.27,-1073.82 569.35,-998.53"/>
<polygon fill="orange" stroke="orange" points="513.89,-1506.78 515.6,-1517.24 520.78,-1508 513.89,-1506.78"/>
<text text-anchor="start" x="556.5" y="-1284.5" font-family="Helvetica,sans-Serif" font-size="10.00"> &lt; std::vector&lt; uint8</text>
<text text-anchor="middle" x="599" y="-1273.5" font-family="Helvetica,sans-Serif" font-size="10.00">_t &gt; &gt;</text>
</g>
<!-- Node19 -->
<g id="node19" class="node">
<title>Node19</title>
<g id="a_node19"><a xlink:title=" ">
<polygon fill="white" stroke="black" points="0,-732 0,-800 125,-800 125,-732 0,-732"/>
<text text-anchor="start" x="8" y="-788" font-family="Helvetica,sans-Serif" font-size="10.00">std::vector&lt; altintegration</text>
<text text-anchor="middle" x="62.5" y="-777" font-family="Helvetica,sans-Serif" font-size="10.00">::btc::TxOut &gt;</text>
<polyline fill="none" stroke="black" points="0,-770 125,-770 "/>
<text text-anchor="middle" x="62.5" y="-758" font-family="Helvetica,sans-Serif" font-size="10.00"> </text>
<polyline fill="none" stroke="black" points="0,-751 125,-751 "/>
<text text-anchor="middle" x="62.5" y="-739" font-family="Helvetica,sans-Serif" font-size="10.00"> </text>
</a>
</g>
</g>
<!-- Node9&#45;&gt;Node19 -->
<g id="edge27" class="edge">
<title>Node9&#45;&gt;Node19</title>
<path fill="none" stroke="orange" d="M458.19,-1542.26C378.43,-1535.25 226.54,-1510.37 139.5,-1422 -32.44,-1247.43 29.27,-907.01 54.15,-800.01"/>
<polygon fill="orange" stroke="orange" points="458.23,-1545.77 468.48,-1543.1 458.8,-1538.8 458.23,-1545.77"/>
<text text-anchor="start" x="27.5" y="-1126" font-family="Helvetica,sans-Serif" font-size="10.00"> &lt; altintegration::btc</text>
<text text-anchor="middle" x="70" y="-1115" font-family="Helvetica,sans-Serif" font-size="10.00">::TxOut &gt;</text>
</g>
<!-- Node10 -->
<g id="node10" class="node">
<title>Node10</title>
<g id="a_node10"><a xlink:title=" ">
<polygon fill="white" stroke="#bfbfbf" points="496,-1699.5 496,-1756.5 525,-1756.5 525,-1699.5 496,-1699.5"/>
<text text-anchor="middle" x="510.5" y="-1744.5" font-family="Helvetica,sans-Serif" font-size="10.00">T</text>
<polyline fill="none" stroke="#bfbfbf" points="496,-1737.5 525,-1737.5 "/>
<text text-anchor="middle" x="510.5" y="-1725.5" font-family="Helvetica,sans-Serif" font-size="10.00"> </text>
<polyline fill="none" stroke="#bfbfbf" points="496,-1718.5 525,-1718.5 "/>
<text text-anchor="middle" x="510.5" y="-1706.5" font-family="Helvetica,sans-Serif" font-size="10.00"> </text>
</a>
</g>
</g>
<!-- Node10&#45;&gt;Node9 -->
<g id="edge10" class="edge">
<title>Node10&#45;&gt;Node9</title>
<path fill="none" stroke="#404040" d="M510.5,-1699.27C510.5,-1669.28 510.5,-1621.18 510.5,-1587.08"/>
<polygon fill="none" stroke="#404040" points="510.5,-1586.76 506.5,-1580.76 510.5,-1574.76 514.5,-1580.76 510.5,-1586.76"/>
<text text-anchor="middle" x="535" y="-1673" font-family="Helvetica,sans-Serif" font-size="10.00"> +elements</text>
</g>
<!-- Node11&#45;&gt;Node1 -->
<g id="edge11" class="edge">
<title>Node11&#45;&gt;Node1</title>
<path fill="none" stroke="#404040" d="M679.38,-138.38C686.36,-128.59 694.39,-118.07 702.5,-109 705.42,-105.74 708.49,-102.46 711.65,-99.22"/>
<polygon fill="none" stroke="#404040" points="711.68,-99.19 713.12,-92.12 720.19,-90.72 718.76,-97.79 711.68,-99.19"/>
<text text-anchor="middle" x="730" y="-112" font-family="Helvetica,sans-Serif" font-size="10.00"> +prefilledtxn</text>
</g>
<!-- Node12 -->
<g id="node12" class="node">
<title>Node12</title>
<g id="a_node12"><a xlink:href="structaltintegration_1_1btc_1_1PrefilledTransaction.html" target="_top" xlink:title=" ">
<polygon fill="white" stroke="#bfbfbf" points="201,-254.5 201,-333.5 356,-333.5 356,-254.5 201,-254.5"/>
<text text-anchor="start" x="209" y="-321.5" font-family="Helvetica,sans-Serif" font-size="10.00">altintegration::btc</text>
<text text-anchor="middle" x="278.5" y="-310.5" font-family="Helvetica,sans-Serif" font-size="10.00">::PrefilledTransaction</text>
<polyline fill="none" stroke="#bfbfbf" points="201,-303.5 356,-303.5 "/>
<text text-anchor="start" x="209" y="-291.5" font-family="Helvetica,sans-Serif" font-size="10.00">+ index</text>
<text text-anchor="start" x="209" y="-280.5" font-family="Helvetica,sans-Serif" font-size="10.00">+ ADD_SERIALIZE_METHODS</text>
<polyline fill="none" stroke="#bfbfbf" points="201,-273.5 356,-273.5 "/>
<text text-anchor="start" x="209" y="-261.5" font-family="Helvetica,sans-Serif" font-size="10.00">+ SerializationOp()</text>
</a>
</g>
</g>
<!-- Node12&#45;&gt;Node11 -->
<g id="edge12" class="edge">
<title>Node12&#45;&gt;Node11</title>
<path fill="none" stroke="#404040" d="M356.11,-268.53C421.28,-247.98 513.96,-218.76 579.3,-198.16"/>
<polygon fill="none" stroke="#404040" points="579.31,-198.15 583.83,-192.53 590.76,-194.54 586.24,-200.16 579.31,-198.15"/>
<text text-anchor="middle" x="516" y="-228" font-family="Helvetica,sans-Serif" font-size="10.00"> +elements</text>
</g>
<!-- Node13 -->
<g id="node13" class="node">
<title>Node13</title>
<g id="a_node13"><a xlink:href="structaltintegration_1_1btc_1_1Transaction.html" target="_top" xlink:title="The basic transaction that is broadcasted on the network and contained in blocks.">
<polygon fill="white" stroke="black" points="233.5,-381.5 233.5,-482.5 323.5,-482.5 323.5,-381.5 233.5,-381.5"/>
<text text-anchor="start" x="241.5" y="-470.5" font-family="Helvetica,sans-Serif" font-size="10.00">altintegration::btc</text>
<text text-anchor="middle" x="278.5" y="-459.5" font-family="Helvetica,sans-Serif" font-size="10.00">::Transaction</text>
<polyline fill="none" stroke="black" points="233.5,-452.5 323.5,-452.5 "/>
<text text-anchor="start" x="241.5" y="-440.5" font-family="Helvetica,sans-Serif" font-size="10.00">+ nVersion</text>
<text text-anchor="start" x="241.5" y="-429.5" font-family="Helvetica,sans-Serif" font-size="10.00">+ nLockTime</text>
<polyline fill="none" stroke="black" points="233.5,-422.5 323.5,-422.5 "/>
<text text-anchor="start" x="241.5" y="-410.5" font-family="Helvetica,sans-Serif" font-size="10.00">+ Serialize()</text>
<text text-anchor="start" x="241.5" y="-399.5" font-family="Helvetica,sans-Serif" font-size="10.00">+ Unserialize()</text>
<text text-anchor="start" x="241.5" y="-388.5" font-family="Helvetica,sans-Serif" font-size="10.00">+ HasWitness()</text>
</a>
</g>
</g>
<!-- Node13&#45;&gt;Node12 -->
<g id="edge13" class="edge">
<title>Node13&#45;&gt;Node12</title>
<path fill="none" stroke="#404040" d="M278.5,-381.13C278.5,-369.66 278.5,-357.45 278.5,-345.94"/>
<polygon fill="none" stroke="#404040" points="278.5,-345.79 274.5,-339.79 278.5,-333.79 282.5,-339.79 278.5,-345.79"/>
<text text-anchor="middle" x="286.5" y="-355" font-family="Helvetica,sans-Serif" font-size="10.00"> +tx</text>
</g>
<!-- Node14&#45;&gt;Node13 -->
<g id="edge14" class="edge">
<title>Node14&#45;&gt;Node13</title>
<path fill="none" stroke="#404040" d="M278.5,-530.23C278.5,-519.47 278.5,-507.17 278.5,-495.02"/>
<polygon fill="none" stroke="#404040" points="278.5,-494.98 274.5,-488.98 278.5,-482.98 282.5,-488.98 278.5,-494.98"/>
<text text-anchor="middle" x="289.5" y="-504" font-family="Helvetica,sans-Serif" font-size="10.00"> +vin</text>
</g>
<!-- Node15 -->
<g id="node15" class="node">
<title>Node15</title>
<g id="a_node15"><a xlink:href="structaltintegration_1_1btc_1_1TxIn.html" target="_top" xlink:title="An input of a transaction.">
<polygon fill="white" stroke="black" points="423,-726.5 423,-805.5 578,-805.5 578,-726.5 423,-726.5"/>
<text text-anchor="start" x="431" y="-793.5" font-family="Helvetica,sans-Serif" font-size="10.00">altintegration::btc</text>
<text text-anchor="middle" x="500.5" y="-782.5" font-family="Helvetica,sans-Serif" font-size="10.00">::TxIn</text>
<polyline fill="none" stroke="black" points="423,-775.5 578,-775.5 "/>
<text text-anchor="start" x="431" y="-763.5" font-family="Helvetica,sans-Serif" font-size="10.00">+ nSequence</text>
<text text-anchor="start" x="431" y="-752.5" font-family="Helvetica,sans-Serif" font-size="10.00">+ ADD_SERIALIZE_METHODS</text>
<polyline fill="none" stroke="black" points="423,-745.5 578,-745.5 "/>
<text text-anchor="start" x="431" y="-733.5" font-family="Helvetica,sans-Serif" font-size="10.00">+ SerializationOp()</text>
</a>
</g>
</g>
<!-- Node15&#45;&gt;Node14 -->
<g id="edge15" class="edge">
<title>Node15&#45;&gt;Node14</title>
<path fill="none" stroke="#404040" d="M457.43,-726.3C419.26,-691.99 363.67,-642.04 324.61,-606.94"/>
<polygon fill="none" stroke="#404040" points="324.48,-606.82 317.34,-605.78 315.55,-598.8 322.69,-599.83 324.48,-606.82"/>
<text text-anchor="middle" x="460" y="-660" font-family="Helvetica,sans-Serif" font-size="10.00"> +elements</text>
</g>
<!-- Node16&#45;&gt;Node15 -->
<g id="edge16" class="edge">
<title>Node16&#45;&gt;Node15</title>
<path fill="none" stroke="#404040" d="M803.47,-924.91C740.8,-892.25 650.97,-845.43 585.4,-811.25"/>
<polygon fill="none" stroke="#404040" points="585.33,-811.21 578.16,-811.99 574.69,-805.67 581.86,-804.89 585.33,-811.21"/>
<text text-anchor="middle" x="643" y="-827" font-family="Helvetica,sans-Serif" font-size="10.00"> +prevout</text>
</g>
<!-- Node17&#45;&gt;Node15 -->
<g id="edge18" class="edge">
<title>Node17&#45;&gt;Node15</title>
<path fill="none" stroke="#404040" d="M447.71,-1252.96C439.14,-1184.24 421.68,-1000.12 457.5,-853 460.49,-840.71 465.48,-828.16 471.02,-816.58"/>
<polygon fill="none" stroke="#404040" points="471.05,-816.53 470.18,-809.37 476.46,-805.82 477.32,-812.98 471.05,-816.53"/>
<text text-anchor="middle" x="481" y="-962" font-family="Helvetica,sans-Serif" font-size="10.00"> +scriptSig</text>
</g>
<!-- Node17&#45;&gt;Node18 -->
<g id="edge21" class="edge">
<title>Node17&#45;&gt;Node18</title>
<path fill="none" stroke="#404040" d="M451.16,-1252.73C451.77,-1214.88 456.74,-1145.89 482.5,-1094 487.39,-1084.14 492.69,-1084.64 499.5,-1076 516.03,-1055.02 532.45,-1030.21 545.42,-1009.42"/>
<polygon fill="none" stroke="#404040" points="545.57,-1009.17 545.32,-1001.96 551.87,-998.96 552.13,-1006.16 545.57,-1009.17"/>
<text text-anchor="middle" x="507" y="-1120.5" font-family="Helvetica,sans-Serif" font-size="10.00"> +elements</text>
</g>
<!-- Node20 -->
<g id="node20" class="node">
<title>Node20</title>
<g id="a_node20"><a xlink:href="structaltintegration_1_1btc_1_1TxOut.html" target="_top" xlink:title="An output of a transaction.">
<polygon fill="white" stroke="black" points="257,-925 257,-1004 412,-1004 412,-925 257,-925"/>
<text text-anchor="start" x="265" y="-992" font-family="Helvetica,sans-Serif" font-size="10.00">altintegration::btc</text>
<text text-anchor="middle" x="334.5" y="-981" font-family="Helvetica,sans-Serif" font-size="10.00">::TxOut</text>
<polyline fill="none" stroke="black" points="257,-974 412,-974 "/>
<text text-anchor="start" x="265" y="-962" font-family="Helvetica,sans-Serif" font-size="10.00">+ nValue</text>
<text text-anchor="start" x="265" y="-951" font-family="Helvetica,sans-Serif" font-size="10.00">+ ADD_SERIALIZE_METHODS</text>
<polyline fill="none" stroke="black" points="257,-944 412,-944 "/>
<text text-anchor="start" x="265" y="-932" font-family="Helvetica,sans-Serif" font-size="10.00">+ SerializationOp()</text>
</a>
</g>
</g>
<!-- Node17&#45;&gt;Node20 -->
<g id="edge26" class="edge">
<title>Node17&#45;&gt;Node20</title>
<path fill="none" stroke="#404040" d="M428.56,-1252.76C409.23,-1227.91 382.42,-1189.67 367.5,-1152 350.15,-1108.19 341.89,-1054.99 337.97,-1016.64"/>
<polygon fill="none" stroke="#404040" points="337.93,-1016.18 333.38,-1010.58 336.8,-1004.24 341.35,-1009.83 337.93,-1016.18"/>
<text text-anchor="middle" x="401" y="-1120.5" font-family="Helvetica,sans-Serif" font-size="10.00"> +scriptPubKey</text>
</g>
<!-- Node18&#45;&gt;Node15 -->
<g id="edge20" class="edge">
<title>Node18&#45;&gt;Node15</title>
<path fill="none" stroke="#404040" d="M559.46,-930.17C548.26,-899.18 531.43,-852.59 518.61,-817.12"/>
<polygon fill="none" stroke="#404040" points="518.51,-816.85 512.71,-812.56 514.43,-805.56 520.23,-809.84 518.51,-816.85"/>
<text text-anchor="middle" x="557.5" y="-827" font-family="Helvetica,sans-Serif" font-size="10.00"> +scriptWitness</text>
</g>
<!-- Node19&#45;&gt;Node13 -->
<g id="edge24" class="edge">
<title>Node19&#45;&gt;Node13</title>
<path fill="none" stroke="#404040" d="M74.66,-731.87C92.94,-684.49 130.55,-595.83 178.5,-530 191.72,-511.86 208.5,-494.12 224.51,-478.88"/>
<polygon fill="none" stroke="#404040" points="224.53,-478.86 226.19,-471.84 233.31,-470.68 231.65,-477.7 224.53,-478.86"/>
<text text-anchor="middle" x="192.5" y="-562" font-family="Helvetica,sans-Serif" font-size="10.00"> +vout</text>
</g>
<!-- Node20&#45;&gt;Node19 -->
<g id="edge25" class="edge">
<title>Node20&#45;&gt;Node19</title>
<path fill="none" stroke="#404040" d="M308.77,-924.82C291.98,-901.76 268.41,-873.15 242.5,-853 210.82,-828.35 170.93,-808.4 136.76,-793.94"/>
<polygon fill="none" stroke="#404040" points="136.5,-793.83 129.42,-795.23 125.41,-789.24 132.48,-787.84 136.5,-793.83"/>
<text text-anchor="middle" x="241" y="-827" font-family="Helvetica,sans-Serif" font-size="10.00"> +elements</text>
</g>
</g>
</svg>
        <g id="navigator" transform="translate(0 0)" fill="#404254">
                <rect fill="#f2f5e9" fill-opacity="0.5" stroke="#606060" stroke-width=".5" x="0" y="0" width="60" height="60"/>
                <use id="zoomplus" xlink:href="#zoomPlus" x="17" y="9" onmousedown="handleZoom(evt,'in')"/>
                <use id="zoomminus" xlink:href="#zoomMin" x="42" y="9" onmousedown="handleZoom(evt,'out')"/>
                <use id="reset" xlink:href="#resetDef" x="30" y="36" onmousedown="handleReset()"/>
                <g id="arrowUp" xlink:href="#dirArrow" transform="translate(30 24)" onmousedown="handlePan(0,-1)">
                  <use xlink:href="#rim" fill="#404040">
                        <set attributeName="fill" to="#808080" begin="arrowUp.mouseover" end="arrowUp.mouseout"/>
                  </use>
                  <path fill="none" stroke="white" stroke-width="1.5" d="M0,-3.0v7 M-2.5,-0.5L0,-3.0L2.5,-0.5"/>
                </g>
                <g id="arrowRight" xlink:href="#dirArrow" transform="rotate(90) translate(36 -43)" onmousedown="handlePan(1,0)">
                  <use xlink:href="#rim" fill="#404040">
                        <set attributeName="fill" to="#808080" begin="arrowRight.mouseover" end="arrowRight.mouseout"/>
                  </use>
                  <path fill="none" stroke="white" stroke-width="1.5" d="M0,-3.0v7 M-2.5,-0.5L0,-3.0L2.5,-0.5"/>
                </g>
                <g id="arrowDown" xlink:href="#dirArrow" transform="rotate(180) translate(-30 -48)" onmousedown="handlePan(0,1)">
                  <use xlink:href="#rim" fill="#404040">
                        <set attributeName="fill" to="#808080" begin="arrowDown.mouseover" end="arrowDown.mouseout"/>
                  </use>
                  <path fill="none" stroke="white" stroke-width="1.5" d="M0,-3.0v7 M-2.5,-0.5L0,-3.0L2.5,-0.5"/>
                </g>
                <g id="arrowLeft" xlink:href="#dirArrow" transform="rotate(270) translate(-36 17)" onmousedown="handlePan(-1,0)">
                  <use xlink:href="#rim" fill="#404040">
                        <set attributeName="fill" to="#808080" begin="arrowLeft.mouseover" end="arrowLeft.mouseout"/>
                  </use>
                  <path fill="none" stroke="white" stroke-width="1.5" d="M0,-3.0v7 M-2.5,-0.5L0,-3.0L2.5,-0.5"/>
                </g>
        </g>
        <svg viewBox="0 0 15 15" width="100%" height="30px" preserveAspectRatio="xMaxYMin meet">
         <g id="arrow_out" transform="scale(0.3 0.3)">
          <a xlink:href="structaltintegration_1_1btc_1_1BlockHeaderAndShortTxIDs__coll__graph_org.svg" target="_base">
           <rect id="button" ry="5" rx="5" y="6" x="6" height="38" width="38"
                fill="#f2f5e9" fill-opacity="0.5" stroke="#606060" stroke-width="1.0"/>
           <path id="arrow"
             d="M 11.500037,31.436501 C 11.940474,20.09759 22.043105,11.32322 32.158766,21.979434 L 37.068811,17.246167 C 37.068811,17.246167 37.088388,32 37.088388,32 L 22.160133,31.978069 C 22.160133,31.978069 26.997745,27.140456 26.997745,27.140456 C 18.528582,18.264221 13.291696,25.230495 11.500037,31.436501 z"
             style="fill:#404040;"/>
          </a>
         </g>
        </svg>
</svg>
