<?xml version="1.0" encoding="UTF-8" standalone="no"?>
<!DOCTYPE svg PUBLIC "-//W3C//DTD SVG 1.1//EN"
 "http://www.w3.org/Graphics/SVG/1.1/DTD/svg11.dtd">
<!-- Generated by graphviz version 2.47.0 (20210407.0042)
 -->
<!-- Title: altintegration::StoredBlockIndex&lt; Block &gt; Pages: 1 -->
<svg width="138pt" height="447pt"
 viewBox="0.00 0.00 138.00 447.00" xmlns="http://www.w3.org/2000/svg" xmlns:xlink="http://www.w3.org/1999/xlink">
<g id="graph0" class="graph" transform="scale(1 1) rotate(0) translate(4 443)">
<title>altintegration::StoredBlockIndex&lt; Block &gt;</title>
<polygon fill="white" stroke="transparent" points="-4,4 -4,-443 134,-443 134,4 -4,4"/>
<!-- Node1 -->
<g id="node1" class="node">
<title>Node1</title>
<g id="a_node1"><a xlink:title=" ">
<polygon fill="#bfbfbf" stroke="black" points="0,-0.5 0,-123.5 130,-123.5 130,-0.5 0,-0.5"/>
<text text-anchor="start" x="8" y="-111.5" font-family="Helvetica,sans-Serif" font-size="10.00">altintegration::StoredBlock</text>
<text text-anchor="middle" x="65" y="-100.5" font-family="Helvetica,sans-Serif" font-size="10.00">Index&lt; Block &gt;</text>
<polyline fill="none" stroke="black" points="0,-93.5 130,-93.5 "/>
<text text-anchor="start" x="8" y="-81.5" font-family="Helvetica,sans-Serif" font-size="10.00">+ height</text>
<text text-anchor="start" x="8" y="-70.5" font-family="Helvetica,sans-Serif" font-size="10.00">+ status</text>
<text text-anchor="start" x="8" y="-59.5" font-family="Helvetica,sans-Serif" font-size="10.00">+ addon</text>
<polyline fill="none" stroke="black" points="0,-52.5 130,-52.5 "/>
<text text-anchor="start" x="8" y="-40.5" font-family="Helvetica,sans-Serif" font-size="10.00">+ ~StoredBlockIndex()</text>
<text text-anchor="start" x="8" y="-29.5" font-family="Helvetica,sans-Serif" font-size="10.00">+ toVbkEncoding()</text>
<text text-anchor="start" x="8" y="-18.5" font-family="Helvetica,sans-Serif" font-size="10.00">+ toVbkEncoding()</text>
<text text-anchor="start" x="8" y="-7.5" font-family="Helvetica,sans-Serif" font-size="10.00">+ toPrettyString()</text>
</a>
</g>
</g>
<!-- Node2 -->
<g id="node2" class="node">
<title>Node2</title>
<g id="a_node2"><a xlink:title=" ">
<polygon fill="white" stroke="#bfbfbf" points="1,-171.5 1,-228.5 129,-228.5 129,-171.5 1,-171.5"/>
<text text-anchor="middle" x="65" y="-216.5" font-family="Helvetica,sans-Serif" font-size="10.00">std::shared_ptr&lt; block_t &gt;</text>
<polyline fill="none" stroke="#bfbfbf" points="1,-209.5 129,-209.5 "/>
<text text-anchor="start" x="9" y="-197.5" font-family="Helvetica,sans-Serif" font-size="10.00">+ ptr</text>
<polyline fill="none" stroke="#bfbfbf" points="1,-190.5 129,-190.5 "/>
<text text-anchor="start" x="9" y="-178.5" font-family="Helvetica,sans-Serif" font-size="10.00">+ operator&#45;&gt;()</text>
</a>
</g>
</g>
<!-- Node2&#45;&gt;Node1 -->
<g id="edge1" class="edge">
<title>Node2&#45;&gt;Node1</title>
<path fill="none" stroke="#404040" d="M65,-171.48C65,-161.01 65,-148.53 65,-135.82"/>
<polygon fill="none" stroke="#404040" points="65,-135.62 61,-129.62 65,-123.62 69,-129.62 65,-135.62"/>
<text text-anchor="middle" x="84" y="-145" font-family="Helvetica,sans-Serif" font-size="10.00"> +header</text>
</g>
<!-- Node3 -->
<g id="node3" class="node">
<title>Node3</title>
<g id="a_node3"><a xlink:title=" ">
<polygon fill="white" stroke="#bfbfbf" points="13.5,-276.5 13.5,-333.5 116.5,-333.5 116.5,-276.5 13.5,-276.5"/>
<text text-anchor="middle" x="65" y="-321.5" font-family="Helvetica,sans-Serif" font-size="10.00">std::shared_ptr&lt; T &gt;</text>
<polyline fill="none" stroke="#bfbfbf" points="13.5,-314.5 116.5,-314.5 "/>
<text text-anchor="middle" x="65" y="-302.5" font-family="Helvetica,sans-Serif" font-size="10.00"> </text>
<polyline fill="none" stroke="#bfbfbf" points="13.5,-295.5 116.5,-295.5 "/>
<text text-anchor="start" x="21.5" y="-283.5" font-family="Helvetica,sans-Serif" font-size="10.00">+ operator&#45;&gt;()</text>
</a>
</g>
</g>
<!-- Node3&#45;&gt;Node2 -->
<g id="edge2" class="edge">
<title>Node3&#45;&gt;Node2</title>
<path fill="none" stroke="orange" d="M65,-266.29C65,-253.84 65,-240.23 65,-228.68"/>
<polygon fill="orange" stroke="orange" points="61.5,-266.4 65,-276.4 68.5,-266.4 61.5,-266.4"/>
<text text-anchor="middle" x="90.5" y="-250" font-family="Helvetica,sans-Serif" font-size="10.00"> &lt; block_t &gt;</text>
</g>
<!-- Node4 -->
<g id="node4" class="node">
<title>Node4</title>
<g id="a_node4"><a xlink:title=" ">
<polygon fill="white" stroke="#bfbfbf" points="50.5,-381.5 50.5,-438.5 79.5,-438.5 79.5,-381.5 50.5,-381.5"/>
<text text-anchor="middle" x="65" y="-426.5" font-family="Helvetica,sans-Serif" font-size="10.00">T</text>
<polyline fill="none" stroke="#bfbfbf" points="50.5,-419.5 79.5,-419.5 "/>
<text text-anchor="middle" x="65" y="-407.5" font-family="Helvetica,sans-Serif" font-size="10.00"> </text>
<polyline fill="none" stroke="#bfbfbf" points="50.5,-400.5 79.5,-400.5 "/>
<text text-anchor="middle" x="65" y="-388.5" font-family="Helvetica,sans-Serif" font-size="10.00"> </text>
</a>
</g>
</g>
<!-- Node4&#45;&gt;Node3 -->
<g id="edge3" class="edge">
<title>Node4&#45;&gt;Node3</title>
<path fill="none" stroke="#404040" d="M65,-381.4C65,-370.55 65,-357.87 65,-346.05"/>
<polygon fill="none" stroke="#404040" points="65,-345.68 61,-339.68 65,-333.68 69,-339.68 65,-345.68"/>
<text text-anchor="middle" x="75" y="-355" font-family="Helvetica,sans-Serif" font-size="10.00"> +ptr</text>
</g>
</g>
</svg>
