<?xml version="1.0" encoding="UTF-8" standalone="no"?>
<!DOCTYPE svg PUBLIC "-//W3C//DTD SVG 1.1//EN"
 "http://www.w3.org/Graphics/SVG/1.1/DTD/svg11.dtd">
<!-- Generated by graphviz version 3.0.0 (20220413.0106)
 -->
<!-- Title: altintegration::btc::AddrMsg Pages: 1 -->
<svg width="278pt" height="586pt"
 viewBox="0.00 0.00 277.50 586.00" xmlns="http://www.w3.org/2000/svg" xmlns:xlink="http://www.w3.org/1999/xlink">
<g id="graph0" class="graph" transform="scale(1 1) rotate(0) translate(4 582)">
<title>altintegration::btc::AddrMsg</title>
<polygon fill="white" stroke="transparent" points="-4,4 -4,-582 273.5,-582 273.5,4 -4,4"/>
<!-- Node1 -->
<g id="node1" class="node">
<title>Node1</title>
<g id="a_node1"><a xlink:title=" ">
<polygon fill="#bfbfbf" stroke="black" points="69,-0.5 69,-68.5 224,-68.5 224,-0.5 69,-0.5"/>
<text text-anchor="start" x="77" y="-56.5" font-family="Helvetica,sans-Serif" font-size="10.00">altintegration::btc</text>
<text text-anchor="middle" x="146.5" y="-45.5" font-family="Helvetica,sans-Serif" font-size="10.00">::AddrMsg</text>
<polyline fill="none" stroke="black" points="69,-38.5 224,-38.5 "/>
<text text-anchor="start" x="77" y="-26.5" font-family="Helvetica,sans-Serif" font-size="10.00">+ ADD_SERIALIZE_METHODS</text>
<polyline fill="none" stroke="black" points="69,-19.5 224,-19.5 "/>
<text text-anchor="start" x="77" y="-7.5" font-family="Helvetica,sans-Serif" font-size="10.00">+ SerializationOp()</text>
</a>
</g>
</g>
<!-- Node2 -->
<g id="node2" class="node">
<title>Node2</title>
<g id="a_node2"><a xlink:title=" ">
<polygon fill="white" stroke="black" points="84,-116.5 84,-184.5 209,-184.5 209,-116.5 84,-116.5"/>
<text text-anchor="start" x="92" y="-172.5" font-family="Helvetica,sans-Serif" font-size="10.00">std::vector&lt; altintegration</text>
<text text-anchor="middle" x="146.5" y="-161.5" font-family="Helvetica,sans-Serif" font-size="10.00">::btc::Address &gt;</text>
<polyline fill="none" stroke="black" points="84,-154.5 209,-154.5 "/>
<text text-anchor="middle" x="146.5" y="-142.5" font-family="Helvetica,sans-Serif" font-size="10.00"> </text>
<polyline fill="none" stroke="black" points="84,-135.5 209,-135.5 "/>
<text text-anchor="middle" x="146.5" y="-123.5" font-family="Helvetica,sans-Serif" font-size="10.00"> </text>
</a>
</g>
</g>
<!-- Node2&#45;&gt;Node1 -->
<g id="edge1" class="edge">
<title>Node2&#45;&gt;Node1</title>
<path fill="none" stroke="#404040" d="M146.5,-116.22C146.5,-105.1 146.5,-92.51 146.5,-80.64"/>
<polygon fill="none" stroke="#404040" points="146.5,-80.62 142.5,-74.62 146.5,-68.62 150.5,-74.62 146.5,-80.62"/>
<text text-anchor="middle" x="163.5" y="-90" font-family="Helvetica,sans-Serif" font-size="10.00"> +vAddr</text>
</g>
<!-- Node3 -->
<g id="node3" class="node">
<title>Node3</title>
<g id="a_node3"><a xlink:href="structaltintegration_1_1btc_1_1Address.html" target="_top" xlink:title=" ">
<polygon fill="white" stroke="#bfbfbf" points="0,-243.5 0,-333.5 155,-333.5 155,-243.5 0,-243.5"/>
<text text-anchor="start" x="8" y="-321.5" font-family="Helvetica,sans-Serif" font-size="10.00">altintegration::btc</text>
<text text-anchor="middle" x="77.5" y="-310.5" font-family="Helvetica,sans-Serif" font-size="10.00">::Address</text>
<polyline fill="none" stroke="#bfbfbf" points="0,-303.5 155,-303.5 "/>
<text text-anchor="start" x="8" y="-291.5" font-family="Helvetica,sans-Serif" font-size="10.00">+ nServices</text>
<text text-anchor="start" x="8" y="-280.5" font-family="Helvetica,sans-Serif" font-size="10.00">+ nTime</text>
<text text-anchor="start" x="8" y="-269.5" font-family="Helvetica,sans-Serif" font-size="10.00">+ ADD_SERIALIZE_METHODS</text>
<polyline fill="none" stroke="#bfbfbf" points="0,-262.5 155,-262.5 "/>
<text text-anchor="start" x="8" y="-250.5" font-family="Helvetica,sans-Serif" font-size="10.00">+ SerializationOp()</text>
</a>
</g>
</g>
<!-- Node3&#45;&gt;Node2 -->
<g id="edge2" class="edge">
<title>Node3&#45;&gt;Node2</title>
<path fill="none" stroke="#404040" d="M99.9,-243.34C107.69,-227.99 116.42,-210.78 124.2,-195.44"/>
<polygon fill="none" stroke="#404040" points="124.25,-195.36 123.39,-188.2 129.68,-184.66 130.53,-191.82 124.25,-195.36"/>
<text text-anchor="middle" x="145" y="-211.5" font-family="Helvetica,sans-Serif" font-size="10.00"> +elements</text>
</g>
<!-- Node4 -->
<g id="node4" class="node">
<title>Node4</title>
<g id="a_node4"><a xlink:href="structaltintegration_1_1btc_1_1Service.html" target="_top" xlink:title="A combination of a network address (CNetAddr) and a (TCP) port.">
<polygon fill="white" stroke="black" points="0,-381.5 0,-460.5 155,-460.5 155,-381.5 0,-381.5"/>
<text text-anchor="start" x="8" y="-448.5" font-family="Helvetica,sans-Serif" font-size="10.00">altintegration::btc</text>
<text text-anchor="middle" x="77.5" y="-437.5" font-family="Helvetica,sans-Serif" font-size="10.00">::Service</text>
<polyline fill="none" stroke="black" points="0,-430.5 155,-430.5 "/>
<text text-anchor="start" x="8" y="-418.5" font-family="Helvetica,sans-Serif" font-size="10.00">+ port</text>
<text text-anchor="start" x="8" y="-407.5" font-family="Helvetica,sans-Serif" font-size="10.00">+ ADD_SERIALIZE_METHODS</text>
<polyline fill="none" stroke="black" points="0,-400.5 155,-400.5 "/>
<text text-anchor="start" x="8" y="-388.5" font-family="Helvetica,sans-Serif" font-size="10.00">+ SerializationOp()</text>
</a>
</g>
</g>
<!-- Node4&#45;&gt;Node3 -->
<g id="edge3" class="edge">
<title>Node4&#45;&gt;Node3</title>
<path fill="none" stroke="midnightblue" d="M77.5,-371.16C77.5,-358.93 77.5,-345.88 77.5,-333.88"/>
<polygon fill="none" stroke="midnightblue" points="74,-371.2 77.5,-381.2 81,-371.2 74,-371.2"/>
</g>
<!-- Node5 -->
<g id="node5" class="node">
<title>Node5</title>
<g id="a_node5"><a xlink:href="structaltintegration_1_1btc_1_1NetAddr.html" target="_top" xlink:title="IP address (IPv6, or IPv4 using mapped IPv6 range.">
<polygon fill="white" stroke="black" points="0,-498.5 0,-577.5 155,-577.5 155,-498.5 0,-498.5"/>
<text text-anchor="start" x="8" y="-565.5" font-family="Helvetica,sans-Serif" font-size="10.00">altintegration::btc</text>
<text text-anchor="middle" x="77.5" y="-554.5" font-family="Helvetica,sans-Serif" font-size="10.00">::NetAddr</text>
<polyline fill="none" stroke="black" points="0,-547.5 155,-547.5 "/>
<text text-anchor="start" x="8" y="-535.5" font-family="Helvetica,sans-Serif" font-size="10.00">+ ip</text>
<text text-anchor="start" x="8" y="-524.5" font-family="Helvetica,sans-Serif" font-size="10.00">+ ADD_SERIALIZE_METHODS</text>
<polyline fill="none" stroke="black" points="0,-517.5 155,-517.5 "/>
<text text-anchor="start" x="8" y="-505.5" font-family="Helvetica,sans-Serif" font-size="10.00">+ SerializationOp()</text>
</a>
</g>
</g>
<!-- Node5&#45;&gt;Node4 -->
<g id="edge4" class="edge">
<title>Node5&#45;&gt;Node4</title>
<path fill="none" stroke="midnightblue" d="M77.5,-488.2C77.5,-479.02 77.5,-469.53 77.5,-460.71"/>
<polygon fill="none" stroke="midnightblue" points="74,-488.39 77.5,-498.39 81,-488.39 74,-488.39"/>
</g>
<!-- Node6 -->
<g id="node6" class="node">
<title>Node6</title>
<g id="a_node6"><a xlink:title=" ">
<polygon fill="white" stroke="black" points="173.5,-260 173.5,-317 257.5,-317 257.5,-260 173.5,-260"/>
<text text-anchor="middle" x="215.5" y="-305" font-family="Helvetica,sans-Serif" font-size="10.00">std::vector&lt; T &gt;</text>
<polyline fill="none" stroke="black" points="173.5,-298 257.5,-298 "/>
<text text-anchor="middle" x="215.5" y="-286" font-family="Helvetica,sans-Serif" font-size="10.00"> </text>
<polyline fill="none" stroke="black" points="173.5,-279 257.5,-279 "/>
<text text-anchor="middle" x="215.5" y="-267" font-family="Helvetica,sans-Serif" font-size="10.00"> </text>
</a>
</g>
</g>
<!-- Node6&#45;&gt;Node2 -->
<g id="edge5" class="edge">
<title>Node6&#45;&gt;Node2</title>
<path fill="none" stroke="orange" d="M197.24,-250.32C189.93,-235.55 181.38,-218.44 173.5,-203 170.47,-197.07 167.21,-190.77 164.03,-184.69"/>
<polygon fill="orange" stroke="orange" points="194.27,-252.23 201.84,-259.64 200.55,-249.13 194.27,-252.23"/>
<text text-anchor="start" x="184.5" y="-217" font-family="Helvetica,sans-Serif" font-size="10.00"> &lt; altintegration::btc</text>
<text text-anchor="middle" x="227" y="-206" font-family="Helvetica,sans-Serif" font-size="10.00">::Address &gt;</text>
</g>
<!-- Node7 -->
<g id="node7" class="node">
<title>Node7</title>
<g id="a_node7"><a xlink:title=" ">
<polygon fill="white" stroke="#bfbfbf" points="201,-392.5 201,-449.5 230,-449.5 230,-392.5 201,-392.5"/>
<text text-anchor="middle" x="215.5" y="-437.5" font-family="Helvetica,sans-Serif" font-size="10.00">T</text>
<polyline fill="none" stroke="#bfbfbf" points="201,-430.5 230,-430.5 "/>
<text text-anchor="middle" x="215.5" y="-418.5" font-family="Helvetica,sans-Serif" font-size="10.00"> </text>
<polyline fill="none" stroke="#bfbfbf" points="201,-411.5 230,-411.5 "/>
<text text-anchor="middle" x="215.5" y="-399.5" font-family="Helvetica,sans-Serif" font-size="10.00"> </text>
</a>
</g>
</g>
<!-- Node7&#45;&gt;Node6 -->
<g id="edge6" class="edge">
<title>Node7&#45;&gt;Node6</title>
<path fill="none" stroke="#404040" d="M215.5,-392.32C215.5,-373.98 215.5,-349.64 215.5,-329.24"/>
<polygon fill="none" stroke="#404040" points="215.5,-329.14 211.5,-323.14 215.5,-317.14 219.5,-323.14 215.5,-329.14"/>
<text text-anchor="middle" x="240" y="-355" font-family="Helvetica,sans-Serif" font-size="10.00"> +elements</text>
</g>
</g>
</svg>
