<?xml version="1.0" encoding="UTF-8" standalone="no"?>
<!DOCTYPE svg PUBLIC "-//W3C//DTD SVG 1.1//EN"
 "http://www.w3.org/Graphics/SVG/1.1/DTD/svg11.dtd">
<!-- Generated by graphviz version 2.49.3 (20211027.1534)
 -->
<!-- Title: altintegration::PopRewardsParams Pages: 1 -->
<svg width="166pt" height="347pt"
 viewBox="0.00 0.00 166.00 347.00" xmlns="http://www.w3.org/2000/svg" xmlns:xlink="http://www.w3.org/1999/xlink">
<g id="graph0" class="graph" transform="scale(1 1) rotate(0) translate(4 343)">
<title>altintegration::PopRewardsParams</title>
<polygon fill="white" stroke="transparent" points="-4,4 -4,-343 162,-343 162,4 -4,4"/>
<!-- Node1 -->
<g id="node1" class="node">
<title>Node1</title>
<g id="a_node1"><a xlink:title="A container for PoP rewards params.">
<polygon fill="#bfbfbf" stroke="black" points="0,-0.5 0,-189.5 158,-189.5 158,-0.5 0,-0.5"/>
<text text-anchor="start" x="8" y="-177.5" font-family="Helvetica,sans-Serif" font-size="10.00">altintegration::PopRewards</text>
<text text-anchor="middle" x="79" y="-166.5" font-family="Helvetica,sans-Serif" font-size="10.00">Params</text>
<polyline fill="none" stroke="black" points="0,-159.5 158,-159.5 "/>
<text text-anchor="middle" x="79" y="-147.5" font-family="Helvetica,sans-Serif" font-size="10.00"> </text>
<polyline fill="none" stroke="black" points="0,-140.5 158,-140.5 "/>
<text text-anchor="start" x="8" y="-128.5" font-family="Helvetica,sans-Serif" font-size="10.00">+ ~PopRewardsParams()</text>
<text text-anchor="start" x="8" y="-117.5" font-family="Helvetica,sans-Serif" font-size="10.00">+ keystoneRound()</text>
<text text-anchor="start" x="8" y="-106.5" font-family="Helvetica,sans-Serif" font-size="10.00">+ payoutRounds()</text>
<text text-anchor="start" x="8" y="-95.5" font-family="Helvetica,sans-Serif" font-size="10.00">+ flatScoreRound()</text>
<text text-anchor="start" x="8" y="-84.5" font-family="Helvetica,sans-Serif" font-size="10.00">+ flatScoreRoundUse()</text>
<text text-anchor="start" x="8" y="-73.5" font-family="Helvetica,sans-Serif" font-size="10.00">+ roundRatios()</text>
<text text-anchor="start" x="8" y="-62.5" font-family="Helvetica,sans-Serif" font-size="10.00">+ maxScoreThresholdNormal()</text>
<text text-anchor="start" x="8" y="-51.5" font-family="Helvetica,sans-Serif" font-size="10.00">+ maxScoreThresholdKeystone()</text>
<text text-anchor="start" x="8" y="-40.5" font-family="Helvetica,sans-Serif" font-size="10.00">+ difficultyAveragingInterval()</text>
<text text-anchor="start" x="8" y="-29.5" font-family="Helvetica,sans-Serif" font-size="10.00">+ rewardSettlementInterval()</text>
<text text-anchor="start" x="8" y="-18.5" font-family="Helvetica,sans-Serif" font-size="10.00">+ getCurveParams()</text>
<text text-anchor="start" x="8" y="-7.5" font-family="Helvetica,sans-Serif" font-size="10.00">+ relativeScoreLookupTable()</text>
</a>
</g>
</g>
<!-- Node2 -->
<g id="node2" class="node">
<title>Node2</title>
<g id="a_node2"><a xlink:href="structaltintegration_1_1PopRewardsCurveParams.html" target="_top" xlink:title="A container for curve params.">
<polygon fill="white" stroke="black" points="3.5,-237.5 3.5,-338.5 154.5,-338.5 154.5,-237.5 3.5,-237.5"/>
<text text-anchor="start" x="11.5" y="-326.5" font-family="Helvetica,sans-Serif" font-size="10.00">altintegration::PopRewards</text>
<text text-anchor="middle" x="79" y="-315.5" font-family="Helvetica,sans-Serif" font-size="10.00">CurveParams</text>
<polyline fill="none" stroke="black" points="3.5,-308.5 154.5,-308.5 "/>
<text text-anchor="middle" x="79" y="-296.5" font-family="Helvetica,sans-Serif" font-size="10.00"> </text>
<polyline fill="none" stroke="black" points="3.5,-289.5 154.5,-289.5 "/>
<text text-anchor="start" x="11.5" y="-277.5" font-family="Helvetica,sans-Serif" font-size="10.00">+ ~PopRewardsCurveParams()</text>
<text text-anchor="start" x="11.5" y="-266.5" font-family="Helvetica,sans-Serif" font-size="10.00">+ startOfSlope()</text>
<text text-anchor="start" x="11.5" y="-255.5" font-family="Helvetica,sans-Serif" font-size="10.00">+ slopeNormal()</text>
<text text-anchor="start" x="11.5" y="-244.5" font-family="Helvetica,sans-Serif" font-size="10.00">+ slopeKeystone()</text>
</a>
</g>
</g>
<!-- Node2&#45;&gt;Node1 -->
<g id="edge1" class="edge">
<title>Node2&#45;&gt;Node1</title>
<path fill="none" stroke="#404040" d="M79,-237.32C79,-226.37 79,-214.38 79,-202.15"/>
<polygon fill="none" stroke="#404040" points="79,-201.87 75,-195.87 79,-189.87 83,-195.87 79,-201.87"/>
<text text-anchor="middle" x="109.5" y="-211" font-family="Helvetica,sans-Serif" font-size="10.00"> #curveParms</text>
</g>
</g>
</svg>
