<?xml version="1.0" encoding="UTF-8" standalone="no"?>
<!DOCTYPE svg PUBLIC "-//W3C//DTD SVG 1.1//EN"
 "http://www.w3.org/Graphics/SVG/1.1/DTD/svg11.dtd">
<!-- Generated by graphviz version 2.47.0 (20210316.2052)
 -->
<!-- Title: altintegration::BaseBlockTree&lt; Block &gt; Pages: 1 -->
<!--zoomable 1114 -->
<svg id="main" version="1.1" xmlns="http://www.w3.org/2000/svg" xmlns:xlink="http://www.w3.org/1999/xlink" xml:space="preserve" onload="init(evt)">
<style type="text/css"><![CDATA[
.edge:hover path { stroke: red; }
.edge:hover polygon { stroke: red; fill: red; }
]]></style>
<script type="text/javascript"><![CDATA[
var edges = document.getElementsByTagName('g');
if (edges && edges.length) {
  for (var i=0;i<edges.length;i++) {
    if (edges[i].id.substr(0,4)=='edge') {
      edges[i].setAttribute('class','edge');
    }
  }
}
]]></script>
        <defs>
                <circle id="rim" cx="0" cy="0" r="7"/>
                <circle id="rim2" cx="0" cy="0" r="3.5"/>
                <g id="zoomPlus">
                        <use xlink:href="#rim" fill="#404040">
                                <set attributeName="fill" to="#808080" begin="zoomplus.mouseover" end="zoomplus.mouseout"/>
                        </use>
                        <path d="M-4,0h8M0,-4v8" fill="none" stroke="white" stroke-width="1.5" pointer-events="none"/>
                </g>
                <g id="zoomMin">
                        <use xlink:href="#rim" fill="#404040">
                                <set attributeName="fill" to="#808080" begin="zoomminus.mouseover" end="zoomminus.mouseout"/>
                        </use>
                        <path d="M-4,0h8" fill="none" stroke="white" stroke-width="1.5" pointer-events="none"/>
                </g>
                <g id="dirArrow">
                        <path fill="none" stroke="white" stroke-width="1.5" d="M0,-3.0v7 M-2.5,-0.5L0,-3.0L2.5,-0.5"/>
                </g>
               <g id="resetDef">
                       <use xlink:href="#rim2" fill="#404040">
                               <set attributeName="fill" to="#808080" begin="reset.mouseover" end="reset.mouseout"/>
                       </use>
               </g>
        </defs>

<script type="text/javascript">
var viewWidth = 847;
var viewHeight = 1114;
var sectionId = 'dynsection-1';
</script>
<script xlink:href="svgpan.js"/>
<svg id="graph" class="graph">
<g id="viewport">
<title>altintegration::BaseBlockTree&lt; Block &gt;</title>
<polygon fill="white" stroke="transparent" points="-4,4 -4,-1110 843,-1110 843,4 -4,4"/>
<!-- Node1 -->
<g id="node1" class="node">
<title>Node1</title>
<g id="a_node1"><a xlink:title="Base block tree that stores all blocks, maintains tree tips, maintains active chain.">
<polygon fill="#bfbfbf" stroke="black" points="166.5,-0.5 166.5,-189.5 290.5,-189.5 290.5,-0.5 166.5,-0.5"/>
<text text-anchor="start" x="174.5" y="-177.5" font-family="Helvetica,sans-Serif" font-size="10.00">altintegration::BaseBlock</text>
<text text-anchor="middle" x="228.5" y="-166.5" font-family="Helvetica,sans-Serif" font-size="10.00">Tree&lt; Block &gt;</text>
<polyline fill="none" stroke="black" points="166.5,-159.5 290.5,-159.5 "/>
<text text-anchor="start" x="174.5" y="-147.5" font-family="Helvetica,sans-Serif" font-size="10.00"># validity_sig_</text>
<polyline fill="none" stroke="black" points="166.5,-140.5 290.5,-140.5 "/>
<text text-anchor="start" x="174.5" y="-128.5" font-family="Helvetica,sans-Serif" font-size="10.00">+ getTips()</text>
<text text-anchor="start" x="174.5" y="-117.5" font-family="Helvetica,sans-Serif" font-size="10.00">+ getBlocks()</text>
<text text-anchor="start" x="174.5" y="-106.5" font-family="Helvetica,sans-Serif" font-size="10.00">+ ~BaseBlockTree()</text>
<text text-anchor="start" x="174.5" y="-95.5" font-family="Helvetica,sans-Serif" font-size="10.00">+ BaseBlockTree()</text>
<text text-anchor="start" x="174.5" y="-84.5" font-family="Helvetica,sans-Serif" font-size="10.00">+ BaseBlockTree()</text>
<text text-anchor="start" x="174.5" y="-73.5" font-family="Helvetica,sans-Serif" font-size="10.00">+ operator=()</text>
<text text-anchor="start" x="174.5" y="-62.5" font-family="Helvetica,sans-Serif" font-size="10.00">+ BaseBlockTree()</text>
<text text-anchor="start" x="174.5" y="-51.5" font-family="Helvetica,sans-Serif" font-size="10.00">+ operator=()</text>
<text text-anchor="start" x="174.5" y="-40.5" font-family="Helvetica,sans-Serif" font-size="10.00">+ getBestChain()</text>
<text text-anchor="start" x="174.5" y="-29.5" font-family="Helvetica,sans-Serif" font-size="10.00">+ makePrevHash()</text>
<text text-anchor="start" x="174.5" y="-18.5" font-family="Helvetica,sans-Serif" font-size="10.00">and 20 more...</text>
<text text-anchor="start" x="174.5" y="-7.5" font-family="Helvetica,sans-Serif" font-size="10.00"># toPrettyString()</text>
</a>
</g>
</g>
<!-- Node2 -->
<g id="node2" class="node">
<title>Node2</title>
<g id="a_node2"><a xlink:href="structaltintegration_1_1Chain.html" target="_top" xlink:title=" ">
<polygon fill="white" stroke="black" points="0,-248.5 0,-426.5 141,-426.5 141,-248.5 0,-248.5"/>
<text text-anchor="start" x="8" y="-414.5" font-family="Helvetica,sans-Serif" font-size="10.00">altintegration::Chain</text>
<text text-anchor="middle" x="70.5" y="-403.5" font-family="Helvetica,sans-Serif" font-size="10.00">&lt; altintegration::BlockIndex &gt;</text>
<polyline fill="none" stroke="black" points="0,-396.5 141,-396.5 "/>
<text text-anchor="middle" x="70.5" y="-384.5" font-family="Helvetica,sans-Serif" font-size="10.00"> </text>
<polyline fill="none" stroke="black" points="0,-377.5 141,-377.5 "/>
<text text-anchor="start" x="8" y="-365.5" font-family="Helvetica,sans-Serif" font-size="10.00">+ Chain()</text>
<text text-anchor="start" x="8" y="-354.5" font-family="Helvetica,sans-Serif" font-size="10.00">+ Chain()</text>
<text text-anchor="start" x="8" y="-343.5" font-family="Helvetica,sans-Serif" font-size="10.00">+ Chain()</text>
<text text-anchor="start" x="8" y="-332.5" font-family="Helvetica,sans-Serif" font-size="10.00">+ getStartHeight()</text>
<text text-anchor="start" x="8" y="-321.5" font-family="Helvetica,sans-Serif" font-size="10.00">+ firstHeight()</text>
<text text-anchor="start" x="8" y="-310.5" font-family="Helvetica,sans-Serif" font-size="10.00">+ contains()</text>
<text text-anchor="start" x="8" y="-299.5" font-family="Helvetica,sans-Serif" font-size="10.00">+ operator[]()</text>
<text text-anchor="start" x="8" y="-288.5" font-family="Helvetica,sans-Serif" font-size="10.00">+ next()</text>
<text text-anchor="start" x="8" y="-277.5" font-family="Helvetica,sans-Serif" font-size="10.00">+ chainHeight()</text>
<text text-anchor="start" x="8" y="-266.5" font-family="Helvetica,sans-Serif" font-size="10.00">+ empty()</text>
<text text-anchor="start" x="8" y="-255.5" font-family="Helvetica,sans-Serif" font-size="10.00">and 14 more...</text>
</a>
</g>
</g>
<!-- Node2&#45;&gt;Node1 -->
<g id="edge1" class="edge">
<title>Node2&#45;&gt;Node1</title>
<path fill="none" stroke="#404040" d="M128.44,-248.31C138.7,-232.7 149.47,-216.3 159.98,-200.29"/>
<polygon fill="none" stroke="#404040" points="160.26,-199.87 160.21,-192.66 166.85,-189.84 166.9,-197.05 160.26,-199.87"/>
<text text-anchor="middle" x="186.5" y="-216.5" font-family="Helvetica,sans-Serif" font-size="10.00"> #activeChain_</text>
</g>
<!-- Node3 -->
<g id="node3" class="node">
<title>Node3</title>
<g id="a_node3"><a xlink:href="structaltintegration_1_1Chain.html" target="_top" xlink:title="Fully in&#45;memory chain representation.">
<polygon fill="white" stroke="black" points="19,-502 19,-680 120,-680 120,-502 19,-502"/>
<text text-anchor="start" x="27" y="-668" font-family="Helvetica,sans-Serif" font-size="10.00">altintegration::Chain</text>
<text text-anchor="middle" x="69.5" y="-657" font-family="Helvetica,sans-Serif" font-size="10.00">&lt; BlockIndexT &gt;</text>
<polyline fill="none" stroke="black" points="19,-650 120,-650 "/>
<text text-anchor="middle" x="69.5" y="-638" font-family="Helvetica,sans-Serif" font-size="10.00"> </text>
<polyline fill="none" stroke="black" points="19,-631 120,-631 "/>
<text text-anchor="start" x="27" y="-619" font-family="Helvetica,sans-Serif" font-size="10.00">+ Chain()</text>
<text text-anchor="start" x="27" y="-608" font-family="Helvetica,sans-Serif" font-size="10.00">+ Chain()</text>
<text text-anchor="start" x="27" y="-597" font-family="Helvetica,sans-Serif" font-size="10.00">+ Chain()</text>
<text text-anchor="start" x="27" y="-586" font-family="Helvetica,sans-Serif" font-size="10.00">+ getStartHeight()</text>
<text text-anchor="start" x="27" y="-575" font-family="Helvetica,sans-Serif" font-size="10.00">+ firstHeight()</text>
<text text-anchor="start" x="27" y="-564" font-family="Helvetica,sans-Serif" font-size="10.00">+ contains()</text>
<text text-anchor="start" x="27" y="-553" font-family="Helvetica,sans-Serif" font-size="10.00">+ operator[]()</text>
<text text-anchor="start" x="27" y="-542" font-family="Helvetica,sans-Serif" font-size="10.00">+ next()</text>
<text text-anchor="start" x="27" y="-531" font-family="Helvetica,sans-Serif" font-size="10.00">+ chainHeight()</text>
<text text-anchor="start" x="27" y="-520" font-family="Helvetica,sans-Serif" font-size="10.00">+ empty()</text>
<text text-anchor="start" x="27" y="-509" font-family="Helvetica,sans-Serif" font-size="10.00">and 14 more...</text>
</a>
</g>
</g>
<!-- Node3&#45;&gt;Node2 -->
<g id="edge2" class="edge">
<title>Node3&#45;&gt;Node2</title>
<path fill="none" stroke="orange" d="M69.89,-491.59C69.98,-470.16 70.07,-447.61 70.15,-426.6"/>
<polygon fill="orange" stroke="orange" points="66.39,-491.67 69.85,-501.68 73.39,-491.7 66.39,-491.67"/>
<text text-anchor="middle" x="134" y="-453.5" font-family="Helvetica,sans-Serif" font-size="10.00"> &lt; altintegration::BlockIndex &gt;</text>
</g>
<!-- Node4 -->
<g id="node4" class="node">
<title>Node4</title>
<g id="a_node4"><a xlink:title=" ">
<polygon fill="white" stroke="#bfbfbf" points="160,-298 160,-377 297,-377 297,-298 160,-298"/>
<text text-anchor="start" x="168" y="-365" font-family="Helvetica,sans-Serif" font-size="10.00">std::unordered_map</text>
<text text-anchor="start" x="168" y="-354" font-family="Helvetica,sans-Serif" font-size="10.00">&lt; prev_block_hash_t,</text>
<text text-anchor="middle" x="228.5" y="-343" font-family="Helvetica,sans-Serif" font-size="10.00"> std::unique_ptr&lt; index_t &gt; &gt;</text>
<polyline fill="none" stroke="#bfbfbf" points="160,-336 297,-336 "/>
<text text-anchor="start" x="168" y="-324" font-family="Helvetica,sans-Serif" font-size="10.00">+ keys</text>
<polyline fill="none" stroke="#bfbfbf" points="160,-317 297,-317 "/>
<text text-anchor="middle" x="228.5" y="-305" font-family="Helvetica,sans-Serif" font-size="10.00"> </text>
</a>
</g>
</g>
<!-- Node4&#45;&gt;Node1 -->
<g id="edge3" class="edge">
<title>Node4&#45;&gt;Node1</title>
<path fill="none" stroke="#404040" d="M228.5,-297.86C228.5,-271.73 228.5,-235.86 228.5,-201.61"/>
<polygon fill="none" stroke="#404040" points="228.5,-201.58 224.5,-195.58 228.5,-189.58 232.5,-195.58 228.5,-201.58"/>
<text text-anchor="middle" x="253" y="-222" font-family="Helvetica,sans-Serif" font-size="10.00"> #blocks_</text>
<text text-anchor="middle" x="253" y="-211" font-family="Helvetica,sans-Serif" font-size="10.00">#removed_</text>
</g>
<!-- Node5 -->
<g id="node5" class="node">
<title>Node5</title>
<g id="a_node5"><a xlink:title=" ">
<polygon fill="white" stroke="#bfbfbf" points="168,-715.5 168,-772.5 295,-772.5 295,-715.5 168,-715.5"/>
<text text-anchor="middle" x="231.5" y="-760.5" font-family="Helvetica,sans-Serif" font-size="10.00">std::unique_ptr&lt; index_t &gt;</text>
<polyline fill="none" stroke="#bfbfbf" points="168,-753.5 295,-753.5 "/>
<text text-anchor="start" x="176" y="-741.5" font-family="Helvetica,sans-Serif" font-size="10.00">+ ptr</text>
<polyline fill="none" stroke="#bfbfbf" points="168,-734.5 295,-734.5 "/>
<text text-anchor="start" x="176" y="-722.5" font-family="Helvetica,sans-Serif" font-size="10.00">+ operator&#45;&gt;()</text>
</a>
</g>
</g>
<!-- Node5&#45;&gt;Node4 -->
<g id="edge4" class="edge">
<title>Node5&#45;&gt;Node4</title>
<path fill="none" stroke="#404040" d="M223.8,-715.46C222.43,-709.42 221.21,-703.03 220.5,-697 207.65,-588.01 216.29,-459.14 222.92,-389.44"/>
<polygon fill="none" stroke="#404040" points="222.95,-389.07 219.56,-382.71 224.13,-377.13 227.52,-383.49 222.95,-389.07"/>
<text text-anchor="middle" x="245" y="-588.5" font-family="Helvetica,sans-Serif" font-size="10.00"> +elements</text>
</g>
<!-- Node6 -->
<g id="node6" class="node">
<title>Node6</title>
<g id="a_node6"><a xlink:title=" ">
<polygon fill="white" stroke="#bfbfbf" points="197.5,-867.5 197.5,-924.5 299.5,-924.5 299.5,-867.5 197.5,-867.5"/>
<text text-anchor="middle" x="248.5" y="-912.5" font-family="Helvetica,sans-Serif" font-size="10.00">std::unique_ptr&lt; T &gt;</text>
<polyline fill="none" stroke="#bfbfbf" points="197.5,-905.5 299.5,-905.5 "/>
<text text-anchor="middle" x="248.5" y="-893.5" font-family="Helvetica,sans-Serif" font-size="10.00"> </text>
<polyline fill="none" stroke="#bfbfbf" points="197.5,-886.5 299.5,-886.5 "/>
<text text-anchor="start" x="205.5" y="-874.5" font-family="Helvetica,sans-Serif" font-size="10.00">+ operator&#45;&gt;()</text>
</a>
</g>
</g>
<!-- Node6&#45;&gt;Node5 -->
<g id="edge5" class="edge">
<title>Node6&#45;&gt;Node5</title>
<path fill="none" stroke="orange" d="M244.25,-857.47C241.26,-831.11 237.33,-796.43 234.63,-772.59"/>
<polygon fill="orange" stroke="orange" points="240.78,-857.95 245.38,-867.49 247.73,-857.16 240.78,-857.95"/>
<text text-anchor="middle" x="268.5" y="-817.5" font-family="Helvetica,sans-Serif" font-size="10.00"> &lt; index_t &gt;</text>
</g>
<!-- Node7 -->
<g id="node7" class="node">
<title>Node7</title>
<g id="a_node7"><a xlink:title=" ">
<polygon fill="white" stroke="#bfbfbf" points="315,-1048.5 315,-1105.5 344,-1105.5 344,-1048.5 315,-1048.5"/>
<text text-anchor="middle" x="329.5" y="-1093.5" font-family="Helvetica,sans-Serif" font-size="10.00">T</text>
<polyline fill="none" stroke="#bfbfbf" points="315,-1086.5 344,-1086.5 "/>
<text text-anchor="middle" x="329.5" y="-1074.5" font-family="Helvetica,sans-Serif" font-size="10.00"> </text>
<polyline fill="none" stroke="#bfbfbf" points="315,-1067.5 344,-1067.5 "/>
<text text-anchor="middle" x="329.5" y="-1055.5" font-family="Helvetica,sans-Serif" font-size="10.00"> </text>
</a>
</g>
</g>
<!-- Node7&#45;&gt;Node6 -->
<g id="edge6" class="edge">
<title>Node7&#45;&gt;Node6</title>
<path fill="none" stroke="#404040" d="M314.96,-1058.9C308.39,-1050.57 300.9,-1040.17 295.5,-1030 279.62,-1000.08 267.18,-963.67 259.09,-936.51"/>
<polygon fill="none" stroke="#404040" points="259.02,-936.27 253.52,-931.62 255.69,-924.74 261.2,-929.39 259.02,-936.27"/>
<text text-anchor="middle" x="305.5" y="-1022" font-family="Helvetica,sans-Serif" font-size="10.00"> +ptr</text>
</g>
<!-- Node8 -->
<g id="node8" class="node">
<title>Node8</title>
<g id="a_node8"><a xlink:title=" ">
<polygon fill="white" stroke="#bfbfbf" points="279,-557 279,-625 380,-625 380,-557 279,-557"/>
<text text-anchor="start" x="287" y="-613" font-family="Helvetica,sans-Serif" font-size="10.00">std::unordered_map</text>
<text text-anchor="middle" x="329.5" y="-602" font-family="Helvetica,sans-Serif" font-size="10.00">&lt; K, T &gt;</text>
<polyline fill="none" stroke="#bfbfbf" points="279,-595 380,-595 "/>
<text text-anchor="middle" x="329.5" y="-583" font-family="Helvetica,sans-Serif" font-size="10.00"> </text>
<polyline fill="none" stroke="#bfbfbf" points="279,-576 380,-576 "/>
<text text-anchor="middle" x="329.5" y="-564" font-family="Helvetica,sans-Serif" font-size="10.00"> </text>
</a>
</g>
</g>
<!-- Node7&#45;&gt;Node8 -->
<g id="edge9" class="edge">
<title>Node7&#45;&gt;Node8</title>
<path fill="none" stroke="#404040" d="M329.5,-1048.24C329.5,-968.19 329.5,-736.33 329.5,-637.5"/>
<polygon fill="none" stroke="#404040" points="329.5,-637.29 325.5,-631.29 329.5,-625.29 333.5,-631.29 329.5,-637.29"/>
<text text-anchor="middle" x="354" y="-893.5" font-family="Helvetica,sans-Serif" font-size="10.00"> +elements</text>
</g>
<!-- Node14 -->
<g id="node14" class="node">
<title>Node14</title>
<g id="a_node14"><a xlink:title=" ">
<polygon fill="white" stroke="#bfbfbf" points="394,-943.5 394,-1000.5 497,-1000.5 497,-943.5 394,-943.5"/>
<text text-anchor="middle" x="445.5" y="-988.5" font-family="Helvetica,sans-Serif" font-size="10.00">std::shared_ptr&lt; T &gt;</text>
<polyline fill="none" stroke="#bfbfbf" points="394,-981.5 497,-981.5 "/>
<text text-anchor="middle" x="445.5" y="-969.5" font-family="Helvetica,sans-Serif" font-size="10.00"> </text>
<polyline fill="none" stroke="#bfbfbf" points="394,-962.5 497,-962.5 "/>
<text text-anchor="start" x="402" y="-950.5" font-family="Helvetica,sans-Serif" font-size="10.00">+ operator&#45;&gt;()</text>
</a>
</g>
</g>
<!-- Node7&#45;&gt;Node14 -->
<g id="edge15" class="edge">
<title>Node7&#45;&gt;Node14</title>
<path fill="none" stroke="#404040" d="M344.19,-1062.95C359.49,-1049.37 384.12,-1027.51 405.26,-1008.73"/>
<polygon fill="none" stroke="#404040" points="405.4,-1008.6 407.23,-1001.63 414.38,-1000.64 412.55,-1007.61 405.4,-1008.6"/>
<text text-anchor="middle" x="401.5" y="-1022" font-family="Helvetica,sans-Serif" font-size="10.00"> +ptr</text>
</g>
<!-- Node8&#45;&gt;Node4 -->
<g id="edge7" class="edge">
<title>Node8&#45;&gt;Node4</title>
<path fill="none" stroke="orange" d="M302.36,-548.21C288.27,-525.03 271.71,-495.25 260.5,-467 248.89,-437.72 240.54,-402.98 235.29,-377.01"/>
<polygon fill="orange" stroke="orange" points="299.4,-550.07 307.62,-556.75 305.36,-546.4 299.4,-550.07"/>
<text text-anchor="start" x="260.5" y="-459" font-family="Helvetica,sans-Serif" font-size="10.00"> &lt; prev_block_hash_t,</text>
<text text-anchor="middle" x="321" y="-448" font-family="Helvetica,sans-Serif" font-size="10.00"> std::unique_ptr&lt; index_t &gt; &gt;</text>
</g>
<!-- Node9 -->
<g id="node9" class="node">
<title>Node9</title>
<g id="a_node9"><a xlink:title=" ">
<polygon fill="white" stroke="#bfbfbf" points="443,-791.5 443,-848.5 472,-848.5 472,-791.5 443,-791.5"/>
<text text-anchor="middle" x="457.5" y="-836.5" font-family="Helvetica,sans-Serif" font-size="10.00">K</text>
<polyline fill="none" stroke="#bfbfbf" points="443,-829.5 472,-829.5 "/>
<text text-anchor="middle" x="457.5" y="-817.5" font-family="Helvetica,sans-Serif" font-size="10.00"> </text>
<polyline fill="none" stroke="#bfbfbf" points="443,-810.5 472,-810.5 "/>
<text text-anchor="middle" x="457.5" y="-798.5" font-family="Helvetica,sans-Serif" font-size="10.00"> </text>
</a>
</g>
</g>
<!-- Node9&#45;&gt;Node8 -->
<g id="edge8" class="edge">
<title>Node9&#45;&gt;Node8</title>
<path fill="none" stroke="#404040" d="M442.75,-799.71C436.82,-791.63 430.07,-782.03 424.5,-773 396.55,-727.7 368.74,-673.35 350.5,-636.11"/>
<polygon fill="none" stroke="#404040" points="350.41,-635.92 344.19,-632.27 345.16,-625.13 351.38,-628.77 350.41,-635.92"/>
<text text-anchor="middle" x="439" y="-741.5" font-family="Helvetica,sans-Serif" font-size="10.00"> +keys</text>
</g>
<!-- Node16 -->
<g id="node16" class="node">
<title>Node16</title>
<g id="a_node16"><a xlink:title=" ">
<polygon fill="white" stroke="#bfbfbf" points="548,-562.5 548,-619.5 619,-619.5 619,-562.5 548,-562.5"/>
<text text-anchor="middle" x="583.5" y="-607.5" font-family="Helvetica,sans-Serif" font-size="10.00">std::set&lt; K &gt;</text>
<polyline fill="none" stroke="#bfbfbf" points="548,-600.5 619,-600.5 "/>
<text text-anchor="middle" x="583.5" y="-588.5" font-family="Helvetica,sans-Serif" font-size="10.00"> </text>
<polyline fill="none" stroke="#bfbfbf" points="548,-581.5 619,-581.5 "/>
<text text-anchor="middle" x="583.5" y="-569.5" font-family="Helvetica,sans-Serif" font-size="10.00"> </text>
</a>
</g>
</g>
<!-- Node9&#45;&gt;Node16 -->
<g id="edge20" class="edge">
<title>Node9&#45;&gt;Node16</title>
<path fill="none" stroke="#404040" d="M472.29,-799.74C478.23,-791.66 484.97,-782.06 490.5,-773 519.55,-725.46 548.09,-667.81 565.74,-630.55"/>
<polygon fill="none" stroke="#404040" points="565.75,-630.53 564.68,-623.4 570.85,-619.67 571.92,-626.8 565.75,-630.53"/>
<text text-anchor="middle" x="535" y="-741.5" font-family="Helvetica,sans-Serif" font-size="10.00"> +keys</text>
</g>
<!-- Node17 -->
<g id="node17" class="node">
<title>Node17</title>
<g id="a_node17"><a xlink:title=" ">
<polygon fill="white" stroke="#bfbfbf" points="398,-562.5 398,-619.5 517,-619.5 517,-562.5 398,-562.5"/>
<text text-anchor="middle" x="457.5" y="-607.5" font-family="Helvetica,sans-Serif" font-size="10.00">std::unordered_set&lt; K &gt;</text>
<polyline fill="none" stroke="#bfbfbf" points="398,-600.5 517,-600.5 "/>
<text text-anchor="middle" x="457.5" y="-588.5" font-family="Helvetica,sans-Serif" font-size="10.00"> </text>
<polyline fill="none" stroke="#bfbfbf" points="398,-581.5 517,-581.5 "/>
<text text-anchor="middle" x="457.5" y="-569.5" font-family="Helvetica,sans-Serif" font-size="10.00"> </text>
</a>
</g>
</g>
<!-- Node9&#45;&gt;Node17 -->
<g id="edge22" class="edge">
<title>Node9&#45;&gt;Node17</title>
<path fill="none" stroke="#404040" d="M457.5,-791.17C457.5,-751.23 457.5,-677.48 457.5,-631.8"/>
<polygon fill="none" stroke="#404040" points="457.5,-631.71 453.5,-625.71 457.5,-619.71 461.5,-625.71 457.5,-631.71"/>
<text text-anchor="middle" x="472" y="-741.5" font-family="Helvetica,sans-Serif" font-size="10.00"> +keys</text>
</g>
<!-- Node10 -->
<g id="node10" class="node">
<title>Node10</title>
<g id="a_node10"><a xlink:title=" ">
<polygon fill="white" stroke="#bfbfbf" points="315,-303.5 315,-371.5 462,-371.5 462,-303.5 315,-303.5"/>
<text text-anchor="start" x="323" y="-359.5" font-family="Helvetica,sans-Serif" font-size="10.00">std::unordered_set</text>
<text text-anchor="middle" x="388.5" y="-348.5" font-family="Helvetica,sans-Serif" font-size="10.00">&lt; altintegration::BlockIndex * &gt;</text>
<polyline fill="none" stroke="#bfbfbf" points="315,-341.5 462,-341.5 "/>
<text text-anchor="middle" x="388.5" y="-329.5" font-family="Helvetica,sans-Serif" font-size="10.00"> </text>
<polyline fill="none" stroke="#bfbfbf" points="315,-322.5 462,-322.5 "/>
<text text-anchor="middle" x="388.5" y="-310.5" font-family="Helvetica,sans-Serif" font-size="10.00"> </text>
</a>
</g>
</g>
<!-- Node10&#45;&gt;Node1 -->
<g id="edge10" class="edge">
<title>Node10&#45;&gt;Node1</title>
<path fill="none" stroke="#404040" d="M366.42,-303.31C348.52,-276.4 322.27,-236.94 297.46,-199.66"/>
<polygon fill="none" stroke="#404040" points="297.16,-199.2 290.51,-196.42 290.51,-189.21 297.17,-191.99 297.16,-199.2"/>
<text text-anchor="middle" x="328" y="-216.5" font-family="Helvetica,sans-Serif" font-size="10.00"> #tips_</text>
</g>
<!-- Node11 -->
<g id="node11" class="node">
<title>Node11</title>
<g id="a_node11"><a xlink:href="structaltintegration_1_1BlockIndex.html" target="_top" xlink:title="A node in a block tree.">
<polygon fill="white" stroke="black" points="663,-485.5 663,-696.5 788,-696.5 788,-485.5 663,-485.5"/>
<text text-anchor="start" x="671" y="-684.5" font-family="Helvetica,sans-Serif" font-size="10.00">altintegration::BlockIndex</text>
<text text-anchor="middle" x="725.5" y="-673.5" font-family="Helvetica,sans-Serif" font-size="10.00">&lt; Block &gt;</text>
<polyline fill="none" stroke="black" points="663,-666.5 788,-666.5 "/>
<text text-anchor="start" x="671" y="-654.5" font-family="Helvetica,sans-Serif" font-size="10.00">+ finalized</text>
<text text-anchor="start" x="671" y="-643.5" font-family="Helvetica,sans-Serif" font-size="10.00"># height</text>
<text text-anchor="start" x="671" y="-632.5" font-family="Helvetica,sans-Serif" font-size="10.00"># status</text>
<text text-anchor="start" x="671" y="-621.5" font-family="Helvetica,sans-Serif" font-size="10.00"># dirty</text>
<polyline fill="none" stroke="black" points="663,-614.5 788,-614.5 "/>
<text text-anchor="start" x="671" y="-602.5" font-family="Helvetica,sans-Serif" font-size="10.00">+ BlockIndex()</text>
<text text-anchor="start" x="671" y="-591.5" font-family="Helvetica,sans-Serif" font-size="10.00">+ ~BlockIndex()</text>
<text text-anchor="start" x="671" y="-580.5" font-family="Helvetica,sans-Serif" font-size="10.00">+ BlockIndex()</text>
<text text-anchor="start" x="671" y="-569.5" font-family="Helvetica,sans-Serif" font-size="10.00">+ operator=()</text>
<text text-anchor="start" x="671" y="-558.5" font-family="Helvetica,sans-Serif" font-size="10.00">+ mergeFrom()</text>
<text text-anchor="start" x="671" y="-547.5" font-family="Helvetica,sans-Serif" font-size="10.00">+ toStoredBlockIndex()</text>
<text text-anchor="start" x="671" y="-536.5" font-family="Helvetica,sans-Serif" font-size="10.00">+ isConnected()</text>
<text text-anchor="start" x="671" y="-525.5" font-family="Helvetica,sans-Serif" font-size="10.00">+ getStatus()</text>
<text text-anchor="start" x="671" y="-514.5" font-family="Helvetica,sans-Serif" font-size="10.00">+ setStatus()</text>
<text text-anchor="start" x="671" y="-503.5" font-family="Helvetica,sans-Serif" font-size="10.00">+ getValidityLevel()</text>
<text text-anchor="start" x="671" y="-492.5" font-family="Helvetica,sans-Serif" font-size="10.00">and 35 more...</text>
</a>
</g>
</g>
<!-- Node11&#45;&gt;Node10 -->
<g id="edge11" class="edge">
<title>Node11&#45;&gt;Node10</title>
<path fill="none" stroke="#404040" d="M662.82,-511.41C652.21,-501.45 640.66,-492.23 628.5,-485 600.52,-468.36 586.82,-481.14 557.5,-467 532.37,-454.89 477.88,-412.17 437.53,-379.28"/>
<polygon fill="none" stroke="#404040" points="437.4,-379.18 430.23,-378.48 428.12,-371.58 435.29,-372.29 437.4,-379.18"/>
<text text-anchor="middle" x="572" y="-453.5" font-family="Helvetica,sans-Serif" font-size="10.00"> +keys</text>
</g>
<!-- Node11&#45;&gt;Node11 -->
<g id="edge16" class="edge">
<title>Node11&#45;&gt;Node11</title>
<path fill="none" stroke="#404040" d="M788.28,-614.35C798.76,-611.08 806,-603.3 806,-591 806,-583.5 803.31,-577.69 798.84,-573.54"/>
<polygon fill="none" stroke="#404040" points="798.76,-573.5 791.57,-574.06 788.28,-567.65 795.47,-567.08 798.76,-573.5"/>
<text text-anchor="middle" x="822.5" y="-588.5" font-family="Helvetica,sans-Serif" font-size="10.00"> +pprev</text>
</g>
<!-- Node15 -->
<g id="node15" class="node">
<title>Node15</title>
<g id="a_node15"><a xlink:title=" ">
<polygon fill="white" stroke="#bfbfbf" points="696.5,-303.5 696.5,-371.5 808.5,-371.5 808.5,-303.5 696.5,-303.5"/>
<text text-anchor="start" x="704.5" y="-359.5" font-family="Helvetica,sans-Serif" font-size="10.00">std::set&lt; altintegration</text>
<text text-anchor="middle" x="752.5" y="-348.5" font-family="Helvetica,sans-Serif" font-size="10.00">::BlockIndex * &gt;</text>
<polyline fill="none" stroke="#bfbfbf" points="696.5,-341.5 808.5,-341.5 "/>
<text text-anchor="middle" x="752.5" y="-329.5" font-family="Helvetica,sans-Serif" font-size="10.00"> </text>
<polyline fill="none" stroke="#bfbfbf" points="696.5,-322.5 808.5,-322.5 "/>
<text text-anchor="middle" x="752.5" y="-310.5" font-family="Helvetica,sans-Serif" font-size="10.00"> </text>
</a>
</g>
</g>
<!-- Node11&#45;&gt;Node15 -->
<g id="edge18" class="edge">
<title>Node11&#45;&gt;Node15</title>
<path fill="none" stroke="#404040" d="M736.75,-485.16C740.54,-449.86 744.58,-412.3 747.61,-384.03"/>
<polygon fill="none" stroke="#404040" points="747.65,-383.67 744.31,-377.27 748.93,-371.74 752.27,-378.13 747.65,-383.67"/>
<text text-anchor="middle" x="755" y="-453.5" font-family="Helvetica,sans-Serif" font-size="10.00"> +keys</text>
</g>
<!-- Node12 -->
<g id="node12" class="node">
<title>Node12</title>
<g id="a_node12"><a xlink:title=" ">
<polygon fill="white" stroke="#bfbfbf" points="685.5,-791.5 685.5,-848.5 765.5,-848.5 765.5,-791.5 685.5,-791.5"/>
<text text-anchor="middle" x="725.5" y="-836.5" font-family="Helvetica,sans-Serif" font-size="10.00">Block::addon_t</text>
<polyline fill="none" stroke="#bfbfbf" points="685.5,-829.5 765.5,-829.5 "/>
<text text-anchor="middle" x="725.5" y="-817.5" font-family="Helvetica,sans-Serif" font-size="10.00"> </text>
<polyline fill="none" stroke="#bfbfbf" points="685.5,-810.5 765.5,-810.5 "/>
<text text-anchor="middle" x="725.5" y="-798.5" font-family="Helvetica,sans-Serif" font-size="10.00"> </text>
</a>
</g>
</g>
<!-- Node12&#45;&gt;Node11 -->
<g id="edge12" class="edge">
<title>Node12&#45;&gt;Node11</title>
<path fill="none" stroke="midnightblue" d="M725.5,-781.05C725.5,-757.79 725.5,-726.76 725.5,-696.58"/>
<polygon fill="none" stroke="midnightblue" points="722,-781.17 725.5,-791.17 729,-781.17 722,-781.17"/>
</g>
<!-- Node13 -->
<g id="node13" class="node">
<title>Node13</title>
<g id="a_node13"><a xlink:title=" ">
<polygon fill="white" stroke="#bfbfbf" points="515.5,-791.5 515.5,-848.5 643.5,-848.5 643.5,-791.5 515.5,-791.5"/>
<text text-anchor="middle" x="579.5" y="-836.5" font-family="Helvetica,sans-Serif" font-size="10.00">std::shared_ptr&lt; block_t &gt;</text>
<polyline fill="none" stroke="#bfbfbf" points="515.5,-829.5 643.5,-829.5 "/>
<text text-anchor="start" x="523.5" y="-817.5" font-family="Helvetica,sans-Serif" font-size="10.00">+ ptr</text>
<polyline fill="none" stroke="#bfbfbf" points="515.5,-810.5 643.5,-810.5 "/>
<text text-anchor="start" x="523.5" y="-798.5" font-family="Helvetica,sans-Serif" font-size="10.00">+ operator&#45;&gt;()</text>
</a>
</g>
</g>
<!-- Node13&#45;&gt;Node11 -->
<g id="edge13" class="edge">
<title>Node13&#45;&gt;Node11</title>
<path fill="none" stroke="#404040" d="M597.4,-791.17C612.27,-768.04 634.44,-733.58 656.17,-699.8"/>
<polygon fill="none" stroke="#404040" points="656.4,-699.44 656.28,-692.23 662.89,-689.35 663.01,-696.56 656.4,-699.44"/>
<text text-anchor="middle" x="662" y="-741.5" font-family="Helvetica,sans-Serif" font-size="10.00"> #header</text>
</g>
<!-- Node14&#45;&gt;Node13 -->
<g id="edge14" class="edge">
<title>Node14&#45;&gt;Node13</title>
<path fill="none" stroke="orange" d="M476.86,-935.9C500.65,-909.27 532.89,-873.17 554.85,-848.59"/>
<polygon fill="orange" stroke="orange" points="474.13,-933.7 470.08,-943.49 479.35,-938.36 474.13,-933.7"/>
<text text-anchor="middle" x="561" y="-893.5" font-family="Helvetica,sans-Serif" font-size="10.00"> &lt; block_t &gt;</text>
</g>
<!-- Node15&#45;&gt;Node11 -->
<g id="edge17" class="edge">
<title>Node15&#45;&gt;Node11</title>
<path fill="none" stroke="#404040" d="M768.56,-371.73C779.08,-397.64 789.65,-434.56 782.5,-467 782.02,-469.19 781.49,-471.39 780.93,-473.59"/>
<polygon fill="none" stroke="#404040" points="780.86,-473.83 783.05,-480.7 777.56,-485.37 775.36,-478.5 780.86,-473.83"/>
<text text-anchor="middle" x="800.5" y="-453.5" font-family="Helvetica,sans-Serif" font-size="10.00"> +pnext</text>
</g>
<!-- Node16&#45;&gt;Node15 -->
<g id="edge19" class="edge">
<title>Node16&#45;&gt;Node15</title>
<path fill="none" stroke="orange" d="M580.11,-551.85C579.18,-520.92 582.13,-477.31 601.5,-445 623.35,-408.54 663.04,-381.29 696.24,-363.49"/>
<polygon fill="orange" stroke="orange" points="576.63,-552.4 580.58,-562.23 583.62,-552.08 576.63,-552.4"/>
<text text-anchor="middle" x="668" y="-453.5" font-family="Helvetica,sans-Serif" font-size="10.00"> &lt; altintegration::BlockIndex * &gt;</text>
</g>
<!-- Node17&#45;&gt;Node10 -->
<g id="edge21" class="edge">
<title>Node17&#45;&gt;Node10</title>
<path fill="none" stroke="orange" d="M431.19,-553.85C415.76,-530.37 397.73,-498.39 389.5,-467 381.21,-435.38 382.08,-397.87 384.34,-371.57"/>
<polygon fill="orange" stroke="orange" points="428.47,-556.06 436.95,-562.41 434.28,-552.16 428.47,-556.06"/>
<text text-anchor="middle" x="456" y="-453.5" font-family="Helvetica,sans-Serif" font-size="10.00"> &lt; altintegration::BlockIndex * &gt;</text>
</g>
</g>
</svg>
        <g id="navigator" transform="translate(0 0)" fill="#404254">
                <rect fill="#f2f5e9" fill-opacity="0.5" stroke="#606060" stroke-width=".5" x="0" y="0" width="60" height="60"/>
                <use id="zoomplus" xlink:href="#zoomPlus" x="17" y="9" onmousedown="handleZoom(evt,'in')"/>
                <use id="zoomminus" xlink:href="#zoomMin" x="42" y="9" onmousedown="handleZoom(evt,'out')"/>
                <use id="reset" xlink:href="#resetDef" x="30" y="36" onmousedown="handleReset()"/>
                <g id="arrowUp" xlink:href="#dirArrow" transform="translate(30 24)" onmousedown="handlePan(0,-1)">
                  <use xlink:href="#rim" fill="#404040">
                        <set attributeName="fill" to="#808080" begin="arrowUp.mouseover" end="arrowUp.mouseout"/>
                  </use>
                  <path fill="none" stroke="white" stroke-width="1.5" d="M0,-3.0v7 M-2.5,-0.5L0,-3.0L2.5,-0.5"/>
                </g>
                <g id="arrowRight" xlink:href="#dirArrow" transform="rotate(90) translate(36 -43)" onmousedown="handlePan(1,0)">
                  <use xlink:href="#rim" fill="#404040">
                        <set attributeName="fill" to="#808080" begin="arrowRight.mouseover" end="arrowRight.mouseout"/>
                  </use>
                  <path fill="none" stroke="white" stroke-width="1.5" d="M0,-3.0v7 M-2.5,-0.5L0,-3.0L2.5,-0.5"/>
                </g>
                <g id="arrowDown" xlink:href="#dirArrow" transform="rotate(180) translate(-30 -48)" onmousedown="handlePan(0,1)">
                  <use xlink:href="#rim" fill="#404040">
                        <set attributeName="fill" to="#808080" begin="arrowDown.mouseover" end="arrowDown.mouseout"/>
                  </use>
                  <path fill="none" stroke="white" stroke-width="1.5" d="M0,-3.0v7 M-2.5,-0.5L0,-3.0L2.5,-0.5"/>
                </g>
                <g id="arrowLeft" xlink:href="#dirArrow" transform="rotate(270) translate(-36 17)" onmousedown="handlePan(-1,0)">
                  <use xlink:href="#rim" fill="#404040">
                        <set attributeName="fill" to="#808080" begin="arrowLeft.mouseover" end="arrowLeft.mouseout"/>
                  </use>
                  <path fill="none" stroke="white" stroke-width="1.5" d="M0,-3.0v7 M-2.5,-0.5L0,-3.0L2.5,-0.5"/>
                </g>
        </g>
        <svg viewBox="0 0 15 15" width="100%" height="30px" preserveAspectRatio="xMaxYMin meet">
         <g id="arrow_out" transform="scale(0.3 0.3)">
          <a xlink:href="structaltintegration_1_1BaseBlockTree__coll__graph_org.svg" target="_base">
           <rect id="button" ry="5" rx="5" y="6" x="6" height="38" width="38"
                fill="#f2f5e9" fill-opacity="0.5" stroke="#606060" stroke-width="1.0"/>
           <path id="arrow"
             d="M 11.500037,31.436501 C 11.940474,20.09759 22.043105,11.32322 32.158766,21.979434 L 37.068811,17.246167 C 37.068811,17.246167 37.088388,32 37.088388,32 L 22.160133,31.978069 C 22.160133,31.978069 26.997745,27.140456 26.997745,27.140456 C 18.528582,18.264221 13.291696,25.230495 11.500037,31.436501 z"
             style="fill:#404040;"/>
          </a>
         </g>
        </svg>
</svg>
