<?xml version="1.0" encoding="UTF-8" standalone="no"?>
<!DOCTYPE svg PUBLIC "-//W3C//DTD SVG 1.1//EN"
 "http://www.w3.org/Graphics/SVG/1.1/DTD/svg11.dtd">
<!-- Generated by graphviz version 2.50.0 (20220203.2022)
 -->
<!-- Title: altintegration::BaseBlockTree&lt; Block &gt; Pages: 1 -->
<svg width="1170pt" height="1191pt"
 viewBox="0.00 0.00 1169.50 1191.00" xmlns="http://www.w3.org/2000/svg" xmlns:xlink="http://www.w3.org/1999/xlink">
<g id="graph0" class="graph" transform="scale(1 1) rotate(0) translate(4 1187)">
<title>altintegration::BaseBlockTree&lt; Block &gt;</title>
<polygon fill="white" stroke="transparent" points="-4,4 -4,-1187 1165.5,-1187 1165.5,4 -4,4"/>
<!-- Node1 -->
<g id="node1" class="node">
<title>Node1</title>
<g id="a_node1"><a xlink:title="Base block tree that stores all blocks, maintains tree tips, maintains active chain.">
<polygon fill="#bfbfbf" stroke="black" points="647.5,-0.5 647.5,-277.5 799.5,-277.5 799.5,-0.5 647.5,-0.5"/>
<text text-anchor="start" x="655.5" y="-265.5" font-family="Helvetica,sans-Serif" font-size="10.00">altintegration::BaseBlock</text>
<text text-anchor="middle" x="723.5" y="-254.5" font-family="Helvetica,sans-Serif" font-size="10.00">Tree&lt; Block &gt;</text>
<polyline fill="none" stroke="black" points="647.5,-247.5 799.5,-247.5 "/>
<text text-anchor="start" x="655.5" y="-235.5" font-family="Helvetica,sans-Serif" font-size="10.00">+ onBlockBeforeDeallocated</text>
<text text-anchor="start" x="655.5" y="-224.5" font-family="Helvetica,sans-Serif" font-size="10.00">+ onBlockValidityChanged</text>
<text text-anchor="start" x="655.5" y="-213.5" font-family="Helvetica,sans-Serif" font-size="10.00"># isLoadingBlocks_</text>
<text text-anchor="start" x="655.5" y="-202.5" font-family="Helvetica,sans-Serif" font-size="10.00"># isLoaded_</text>
<polyline fill="none" stroke="black" points="647.5,-195.5 799.5,-195.5 "/>
<text text-anchor="start" x="655.5" y="-183.5" font-family="Helvetica,sans-Serif" font-size="10.00">+ getTips()</text>
<text text-anchor="start" x="655.5" y="-172.5" font-family="Helvetica,sans-Serif" font-size="10.00">+ getBlocks()</text>
<text text-anchor="start" x="655.5" y="-161.5" font-family="Helvetica,sans-Serif" font-size="10.00">+ getAllBlocks()</text>
<text text-anchor="start" x="655.5" y="-150.5" font-family="Helvetica,sans-Serif" font-size="10.00">+ getBlockProvider()</text>
<text text-anchor="start" x="655.5" y="-139.5" font-family="Helvetica,sans-Serif" font-size="10.00">+ ~BaseBlockTree()</text>
<text text-anchor="start" x="655.5" y="-128.5" font-family="Helvetica,sans-Serif" font-size="10.00">+ BaseBlockTree()</text>
<text text-anchor="start" x="655.5" y="-117.5" font-family="Helvetica,sans-Serif" font-size="10.00">+ BaseBlockTree()</text>
<text text-anchor="start" x="655.5" y="-106.5" font-family="Helvetica,sans-Serif" font-size="10.00">+ operator=()</text>
<text text-anchor="start" x="655.5" y="-95.5" font-family="Helvetica,sans-Serif" font-size="10.00">+ BaseBlockTree()</text>
<text text-anchor="start" x="655.5" y="-84.5" font-family="Helvetica,sans-Serif" font-size="10.00">+ operator=()</text>
<text text-anchor="start" x="655.5" y="-73.5" font-family="Helvetica,sans-Serif" font-size="10.00">and 24 more...</text>
<text text-anchor="start" x="655.5" y="-62.5" font-family="Helvetica,sans-Serif" font-size="10.00"># deallocateBlock()</text>
<text text-anchor="start" x="655.5" y="-51.5" font-family="Helvetica,sans-Serif" font-size="10.00"># toPrettyString()</text>
<text text-anchor="start" x="655.5" y="-40.5" font-family="Helvetica,sans-Serif" font-size="10.00"># decreaseAppliedBlockCount()</text>
<text text-anchor="start" x="655.5" y="-29.5" font-family="Helvetica,sans-Serif" font-size="10.00"># increaseAppliedBlockCount()</text>
<text text-anchor="start" x="655.5" y="-18.5" font-family="Helvetica,sans-Serif" font-size="10.00"># decreaseAppliedBlockCount()</text>
<text text-anchor="start" x="655.5" y="-7.5" font-family="Helvetica,sans-Serif" font-size="10.00"># increaseAppliedBlockCount()</text>
</a>
</g>
</g>
<!-- Node2 -->
<g id="node2" class="node">
<title>Node2</title>
<g id="a_node2"><a xlink:title=" ">
<polygon fill="white" stroke="black" points="41,-375 41,-454 178,-454 178,-375 41,-375"/>
<text text-anchor="start" x="49" y="-442" font-family="Helvetica,sans-Serif" font-size="10.00">std::unordered_map</text>
<text text-anchor="start" x="49" y="-431" font-family="Helvetica,sans-Serif" font-size="10.00">&lt; prev_block_hash_t,</text>
<text text-anchor="middle" x="109.5" y="-420" font-family="Helvetica,sans-Serif" font-size="10.00"> std::unique_ptr&lt; index_t &gt; &gt;</text>
<polyline fill="none" stroke="black" points="41,-413 178,-413 "/>
<text text-anchor="start" x="49" y="-401" font-family="Helvetica,sans-Serif" font-size="10.00">+ keys</text>
<polyline fill="none" stroke="black" points="41,-394 178,-394 "/>
<text text-anchor="middle" x="109.5" y="-382" font-family="Helvetica,sans-Serif" font-size="10.00"> </text>
</a>
</g>
</g>
<!-- Node2&#45;&gt;Node1 -->
<g id="edge1" class="edge">
<title>Node2&#45;&gt;Node1</title>
<path fill="none" stroke="#404040" d="M178.15,-382.92C290.27,-332.98 512.56,-233.96 635.9,-179.02"/>
<polygon fill="none" stroke="#404040" points="636.19,-178.89 640.04,-172.8 647.15,-174.01 643.3,-180.1 636.19,-178.89"/>
<text text-anchor="middle" x="383.5" y="-299" font-family="Helvetica,sans-Serif" font-size="10.00"> #blocks_</text>
</g>
<!-- Node3 -->
<g id="node3" class="node">
<title>Node3</title>
<g id="a_node3"><a xlink:title=" ">
<polygon fill="white" stroke="black" points="0,-792.5 0,-849.5 127,-849.5 127,-792.5 0,-792.5"/>
<text text-anchor="middle" x="63.5" y="-837.5" font-family="Helvetica,sans-Serif" font-size="10.00">std::unique_ptr&lt; index_t &gt;</text>
<polyline fill="none" stroke="black" points="0,-830.5 127,-830.5 "/>
<text text-anchor="start" x="8" y="-818.5" font-family="Helvetica,sans-Serif" font-size="10.00">+ ptr</text>
<polyline fill="none" stroke="black" points="0,-811.5 127,-811.5 "/>
<text text-anchor="start" x="8" y="-799.5" font-family="Helvetica,sans-Serif" font-size="10.00">+ operator&#45;&gt;()</text>
</a>
</g>
</g>
<!-- Node3&#45;&gt;Node2 -->
<g id="edge2" class="edge">
<title>Node3&#45;&gt;Node2</title>
<path fill="none" stroke="#404040" d="M55.8,-792.46C54.43,-786.42 53.21,-780.03 52.5,-774 41.47,-680.43 35.12,-654.61 52.5,-562 58.78,-528.52 72.49,-492.87 84.88,-465.12"/>
<polygon fill="none" stroke="#404040" points="84.92,-465.03 83.78,-457.91 89.91,-454.12 91.05,-461.24 84.92,-465.03"/>
<text text-anchor="middle" x="77" y="-665.5" font-family="Helvetica,sans-Serif" font-size="10.00"> +elements</text>
</g>
<!-- Node4 -->
<g id="node4" class="node">
<title>Node4</title>
<g id="a_node4"><a xlink:title=" ">
<polygon fill="white" stroke="black" points="34.5,-944.5 34.5,-1001.5 136.5,-1001.5 136.5,-944.5 34.5,-944.5"/>
<text text-anchor="middle" x="85.5" y="-989.5" font-family="Helvetica,sans-Serif" font-size="10.00">std::unique_ptr&lt; T &gt;</text>
<polyline fill="none" stroke="black" points="34.5,-982.5 136.5,-982.5 "/>
<text text-anchor="middle" x="85.5" y="-970.5" font-family="Helvetica,sans-Serif" font-size="10.00"> </text>
<polyline fill="none" stroke="black" points="34.5,-963.5 136.5,-963.5 "/>
<text text-anchor="start" x="42.5" y="-951.5" font-family="Helvetica,sans-Serif" font-size="10.00">+ operator&#45;&gt;()</text>
</a>
</g>
</g>
<!-- Node4&#45;&gt;Node3 -->
<g id="edge3" class="edge">
<title>Node4&#45;&gt;Node3</title>
<path fill="none" stroke="orange" d="M80,-934.47C76.13,-908.11 71.04,-873.43 67.55,-849.59"/>
<polygon fill="orange" stroke="orange" points="76.55,-935.1 81.46,-944.49 83.48,-934.09 76.55,-935.1"/>
<text text-anchor="middle" x="103.5" y="-894.5" font-family="Helvetica,sans-Serif" font-size="10.00"> &lt; index_t &gt;</text>
</g>
<!-- Node5 -->
<g id="node5" class="node">
<title>Node5</title>
<g id="a_node5"><a xlink:title=" ">
<polygon fill="white" stroke="#bfbfbf" points="147,-1125.5 147,-1182.5 176,-1182.5 176,-1125.5 147,-1125.5"/>
<text text-anchor="middle" x="161.5" y="-1170.5" font-family="Helvetica,sans-Serif" font-size="10.00">T</text>
<polyline fill="none" stroke="#bfbfbf" points="147,-1163.5 176,-1163.5 "/>
<text text-anchor="middle" x="161.5" y="-1151.5" font-family="Helvetica,sans-Serif" font-size="10.00"> </text>
<polyline fill="none" stroke="#bfbfbf" points="147,-1144.5 176,-1144.5 "/>
<text text-anchor="middle" x="161.5" y="-1132.5" font-family="Helvetica,sans-Serif" font-size="10.00"> </text>
</a>
</g>
</g>
<!-- Node5&#45;&gt;Node4 -->
<g id="edge4" class="edge">
<title>Node5&#45;&gt;Node4</title>
<path fill="none" stroke="#404040" d="M146.81,-1135.98C140.2,-1127.67 132.73,-1117.26 127.5,-1107 112.25,-1077.06 101.19,-1040.51 94.26,-1013.3"/>
<polygon fill="none" stroke="#404040" points="94.23,-1013.17 88.92,-1008.3 91.37,-1001.52 96.68,-1006.39 94.23,-1013.17"/>
<text text-anchor="middle" x="137.5" y="-1099" font-family="Helvetica,sans-Serif" font-size="10.00"> +ptr</text>
</g>
<!-- Node6 -->
<g id="node6" class="node">
<title>Node6</title>
<g id="a_node6"><a xlink:title=" ">
<polygon fill="white" stroke="black" points="111,-634 111,-702 212,-702 212,-634 111,-634"/>
<text text-anchor="start" x="119" y="-690" font-family="Helvetica,sans-Serif" font-size="10.00">std::unordered_map</text>
<text text-anchor="middle" x="161.5" y="-679" font-family="Helvetica,sans-Serif" font-size="10.00">&lt; K, T &gt;</text>
<polyline fill="none" stroke="black" points="111,-672 212,-672 "/>
<text text-anchor="middle" x="161.5" y="-660" font-family="Helvetica,sans-Serif" font-size="10.00"> </text>
<polyline fill="none" stroke="black" points="111,-653 212,-653 "/>
<text text-anchor="middle" x="161.5" y="-641" font-family="Helvetica,sans-Serif" font-size="10.00"> </text>
</a>
</g>
</g>
<!-- Node5&#45;&gt;Node6 -->
<g id="edge7" class="edge">
<title>Node5&#45;&gt;Node6</title>
<path fill="none" stroke="#404040" d="M161.5,-1125.24C161.5,-1045.19 161.5,-813.33 161.5,-714.5"/>
<polygon fill="none" stroke="#404040" points="161.5,-714.29 157.5,-708.29 161.5,-702.29 165.5,-708.29 161.5,-714.29"/>
<text text-anchor="middle" x="186" y="-970.5" font-family="Helvetica,sans-Serif" font-size="10.00"> +elements</text>
</g>
<!-- Node14 -->
<g id="node14" class="node">
<title>Node14</title>
<g id="a_node14"><a xlink:title=" ">
<polygon fill="white" stroke="black" points="205,-1020.5 205,-1077.5 308,-1077.5 308,-1020.5 205,-1020.5"/>
<text text-anchor="middle" x="256.5" y="-1065.5" font-family="Helvetica,sans-Serif" font-size="10.00">std::shared_ptr&lt; T &gt;</text>
<polyline fill="none" stroke="black" points="205,-1058.5 308,-1058.5 "/>
<text text-anchor="middle" x="256.5" y="-1046.5" font-family="Helvetica,sans-Serif" font-size="10.00"> </text>
<polyline fill="none" stroke="black" points="205,-1039.5 308,-1039.5 "/>
<text text-anchor="start" x="213" y="-1027.5" font-family="Helvetica,sans-Serif" font-size="10.00">+ operator&#45;&gt;()</text>
</a>
</g>
</g>
<!-- Node5&#45;&gt;Node14 -->
<g id="edge18" class="edge">
<title>Node5&#45;&gt;Node14</title>
<path fill="none" stroke="#404040" d="M176.34,-1136.91C188.67,-1123.54 206.69,-1104 222.52,-1086.84"/>
<polygon fill="none" stroke="#404040" points="222.91,-1086.42 224.03,-1079.3 231.04,-1077.6 229.91,-1084.72 222.91,-1086.42"/>
<text text-anchor="middle" x="222.5" y="-1099" font-family="Helvetica,sans-Serif" font-size="10.00"> +ptr</text>
</g>
<!-- Node6&#45;&gt;Node2 -->
<g id="edge5" class="edge">
<title>Node6&#45;&gt;Node2</title>
<path fill="none" stroke="orange" d="M139.22,-624.74C128.25,-601.58 116.18,-571.97 110.5,-544 104.46,-514.27 104.55,-479.86 105.97,-454.13"/>
<polygon fill="orange" stroke="orange" points="136.16,-626.45 143.67,-633.92 142.46,-623.39 136.16,-626.45"/>
<text text-anchor="start" x="110.5" y="-536" font-family="Helvetica,sans-Serif" font-size="10.00"> &lt; prev_block_hash_t,</text>
<text text-anchor="middle" x="171" y="-525" font-family="Helvetica,sans-Serif" font-size="10.00"> std::unique_ptr&lt; index_t &gt; &gt;</text>
</g>
<!-- Node7 -->
<g id="node7" class="node">
<title>Node7</title>
<g id="a_node7"><a xlink:title=" ">
<polygon fill="white" stroke="#bfbfbf" points="215,-868.5 215,-925.5 244,-925.5 244,-868.5 215,-868.5"/>
<text text-anchor="middle" x="229.5" y="-913.5" font-family="Helvetica,sans-Serif" font-size="10.00">K</text>
<polyline fill="none" stroke="#bfbfbf" points="215,-906.5 244,-906.5 "/>
<text text-anchor="middle" x="229.5" y="-894.5" font-family="Helvetica,sans-Serif" font-size="10.00"> </text>
<polyline fill="none" stroke="#bfbfbf" points="215,-887.5 244,-887.5 "/>
<text text-anchor="middle" x="229.5" y="-875.5" font-family="Helvetica,sans-Serif" font-size="10.00"> </text>
</a>
</g>
</g>
<!-- Node7&#45;&gt;Node6 -->
<g id="edge6" class="edge">
<title>Node7&#45;&gt;Node6</title>
<path fill="none" stroke="#404040" d="M214.76,-871.74C211.03,-864.89 207.29,-857.3 204.5,-850 187.33,-805.15 175.6,-751.34 168.78,-714.1"/>
<polygon fill="none" stroke="#404040" points="168.76,-713.97 163.77,-708.76 166.66,-702.15 171.65,-707.36 168.76,-713.97"/>
<text text-anchor="middle" x="219" y="-818.5" font-family="Helvetica,sans-Serif" font-size="10.00"> +keys</text>
</g>
<!-- Node12 -->
<g id="node12" class="node">
<title>Node12</title>
<g id="a_node12"><a xlink:title=" ">
<polygon fill="white" stroke="black" points="230,-639.5 230,-696.5 301,-696.5 301,-639.5 230,-639.5"/>
<text text-anchor="middle" x="265.5" y="-684.5" font-family="Helvetica,sans-Serif" font-size="10.00">std::set&lt; K &gt;</text>
<polyline fill="none" stroke="black" points="230,-677.5 301,-677.5 "/>
<text text-anchor="middle" x="265.5" y="-665.5" font-family="Helvetica,sans-Serif" font-size="10.00"> </text>
<polyline fill="none" stroke="black" points="230,-658.5 301,-658.5 "/>
<text text-anchor="middle" x="265.5" y="-646.5" font-family="Helvetica,sans-Serif" font-size="10.00"> </text>
</a>
</g>
</g>
<!-- Node7&#45;&gt;Node12 -->
<g id="edge15" class="edge">
<title>Node7&#45;&gt;Node12</title>
<path fill="none" stroke="#404040" d="M233.91,-868.17C240.25,-828.23 251.94,-754.48 259.19,-708.8"/>
<polygon fill="none" stroke="#404040" points="259.23,-708.56 256.22,-702.01 261.11,-696.71 264.12,-703.26 259.23,-708.56"/>
<text text-anchor="middle" x="260" y="-818.5" font-family="Helvetica,sans-Serif" font-size="10.00"> +keys</text>
</g>
<!-- Node15 -->
<g id="node15" class="node">
<title>Node15</title>
<g id="a_node15"><a xlink:title=" ">
<polygon fill="white" stroke="black" points="541,-639.5 541,-696.5 660,-696.5 660,-639.5 541,-639.5"/>
<text text-anchor="middle" x="600.5" y="-684.5" font-family="Helvetica,sans-Serif" font-size="10.00">std::unordered_set&lt; K &gt;</text>
<polyline fill="none" stroke="black" points="541,-677.5 660,-677.5 "/>
<text text-anchor="middle" x="600.5" y="-665.5" font-family="Helvetica,sans-Serif" font-size="10.00"> </text>
<polyline fill="none" stroke="black" points="541,-658.5 660,-658.5 "/>
<text text-anchor="middle" x="600.5" y="-646.5" font-family="Helvetica,sans-Serif" font-size="10.00"> </text>
</a>
</g>
</g>
<!-- Node7&#45;&gt;Node15 -->
<g id="edge20" class="edge">
<title>Node7&#45;&gt;Node15</title>
<path fill="none" stroke="#404040" d="M244.13,-877.64C247.1,-874.3 250.29,-870.95 253.5,-868 263.58,-858.74 268.6,-859.45 278.5,-850 302.3,-827.28 295.52,-807.59 324.5,-792 405.83,-748.25 452.2,-821.33 531.5,-774 556.61,-759.01 574.34,-730.93 585.54,-707.57"/>
<polygon fill="none" stroke="#404040" points="585.57,-707.5 584.4,-700.39 590.52,-696.57 591.69,-703.68 585.57,-707.5"/>
<text text-anchor="middle" x="339" y="-818.5" font-family="Helvetica,sans-Serif" font-size="10.00"> +keys</text>
</g>
<!-- Node8 -->
<g id="node8" class="node">
<title>Node8</title>
<g id="a_node8"><a xlink:title=" ">
<polygon fill="white" stroke="black" points="488,-380.5 488,-448.5 635,-448.5 635,-380.5 488,-380.5"/>
<text text-anchor="start" x="496" y="-436.5" font-family="Helvetica,sans-Serif" font-size="10.00">std::unordered_set</text>
<text text-anchor="middle" x="561.5" y="-425.5" font-family="Helvetica,sans-Serif" font-size="10.00">&lt; altintegration::BlockIndex * &gt;</text>
<polyline fill="none" stroke="black" points="488,-418.5 635,-418.5 "/>
<text text-anchor="middle" x="561.5" y="-406.5" font-family="Helvetica,sans-Serif" font-size="10.00"> </text>
<polyline fill="none" stroke="black" points="488,-399.5 635,-399.5 "/>
<text text-anchor="middle" x="561.5" y="-387.5" font-family="Helvetica,sans-Serif" font-size="10.00"> </text>
</a>
</g>
</g>
<!-- Node8&#45;&gt;Node1 -->
<g id="edge8" class="edge">
<title>Node8&#45;&gt;Node1</title>
<path fill="none" stroke="#404040" d="M581.2,-380.24C596.46,-354.47 618.72,-316.9 641.11,-279.1"/>
<polygon fill="none" stroke="#404040" points="641.31,-278.76 640.92,-271.56 647.42,-268.44 647.81,-275.64 641.31,-278.76"/>
<text text-anchor="middle" x="643" y="-299" font-family="Helvetica,sans-Serif" font-size="10.00"> #tips_</text>
</g>
<!-- Node9 -->
<g id="node9" class="node">
<title>Node9</title>
<g id="a_node9"><a xlink:href="structaltintegration_1_1BlockIndex.html" target="_top" xlink:title="A node in a block tree.">
<polygon fill="white" stroke="black" points="347,-562.5 347,-773.5 472,-773.5 472,-562.5 347,-562.5"/>
<text text-anchor="start" x="355" y="-761.5" font-family="Helvetica,sans-Serif" font-size="10.00">altintegration::BlockIndex</text>
<text text-anchor="middle" x="409.5" y="-750.5" font-family="Helvetica,sans-Serif" font-size="10.00">&lt; Block &gt;</text>
<polyline fill="none" stroke="black" points="347,-743.5 472,-743.5 "/>
<text text-anchor="start" x="355" y="-731.5" font-family="Helvetica,sans-Serif" font-size="10.00">+ finalized</text>
<text text-anchor="start" x="355" y="-720.5" font-family="Helvetica,sans-Serif" font-size="10.00"># height</text>
<text text-anchor="start" x="355" y="-709.5" font-family="Helvetica,sans-Serif" font-size="10.00"># status</text>
<text text-anchor="start" x="355" y="-698.5" font-family="Helvetica,sans-Serif" font-size="10.00"># dirty</text>
<polyline fill="none" stroke="black" points="347,-691.5 472,-691.5 "/>
<text text-anchor="start" x="355" y="-679.5" font-family="Helvetica,sans-Serif" font-size="10.00">+ BlockIndex()</text>
<text text-anchor="start" x="355" y="-668.5" font-family="Helvetica,sans-Serif" font-size="10.00">+ BlockIndex()</text>
<text text-anchor="start" x="355" y="-657.5" font-family="Helvetica,sans-Serif" font-size="10.00">+ ~BlockIndex()</text>
<text text-anchor="start" x="355" y="-646.5" font-family="Helvetica,sans-Serif" font-size="10.00">+ disconnectFromPrev()</text>
<text text-anchor="start" x="355" y="-635.5" font-family="Helvetica,sans-Serif" font-size="10.00">+ isTip()</text>
<text text-anchor="start" x="355" y="-624.5" font-family="Helvetica,sans-Serif" font-size="10.00">+ BlockIndex()</text>
<text text-anchor="start" x="355" y="-613.5" font-family="Helvetica,sans-Serif" font-size="10.00">+ operator=()</text>
<text text-anchor="start" x="355" y="-602.5" font-family="Helvetica,sans-Serif" font-size="10.00">+ isDeleted()</text>
<text text-anchor="start" x="355" y="-591.5" font-family="Helvetica,sans-Serif" font-size="10.00">+ isRoot()</text>
<text text-anchor="start" x="355" y="-580.5" font-family="Helvetica,sans-Serif" font-size="10.00">+ restore()</text>
<text text-anchor="start" x="355" y="-569.5" font-family="Helvetica,sans-Serif" font-size="10.00">and 42 more...</text>
</a>
</g>
</g>
<!-- Node9&#45;&gt;Node8 -->
<g id="edge9" class="edge">
<title>Node9&#45;&gt;Node8</title>
<path fill="none" stroke="#404040" d="M472.2,-563.25C494.17,-526.9 517.68,-488.01 535.05,-459.26"/>
<polygon fill="none" stroke="#404040" points="535.19,-459.04 534.87,-451.83 541.4,-448.77 541.72,-455.97 535.19,-459.04"/>
<text text-anchor="middle" x="510" y="-530.5" font-family="Helvetica,sans-Serif" font-size="10.00"> +keys</text>
</g>
<!-- Node9&#45;&gt;Node9 -->
<g id="edge11" class="edge">
<title>Node9&#45;&gt;Node9</title>
<path fill="none" stroke="#404040" d="M472.28,-691.35C482.76,-688.08 490,-680.3 490,-668 490,-660.5 487.31,-654.69 482.84,-650.54"/>
<polygon fill="none" stroke="#404040" points="482.76,-650.5 475.57,-651.06 472.28,-644.65 479.47,-644.08 482.76,-650.5"/>
<text text-anchor="middle" x="506.5" y="-665.5" font-family="Helvetica,sans-Serif" font-size="10.00"> +pprev</text>
</g>
<!-- Node11 -->
<g id="node11" class="node">
<title>Node11</title>
<g id="a_node11"><a xlink:title=" ">
<polygon fill="white" stroke="black" points="353.5,-380.5 353.5,-448.5 465.5,-448.5 465.5,-380.5 353.5,-380.5"/>
<text text-anchor="start" x="361.5" y="-436.5" font-family="Helvetica,sans-Serif" font-size="10.00">std::set&lt; altintegration</text>
<text text-anchor="middle" x="409.5" y="-425.5" font-family="Helvetica,sans-Serif" font-size="10.00">::BlockIndex * &gt;</text>
<polyline fill="none" stroke="black" points="353.5,-418.5 465.5,-418.5 "/>
<text text-anchor="middle" x="409.5" y="-406.5" font-family="Helvetica,sans-Serif" font-size="10.00"> </text>
<polyline fill="none" stroke="black" points="353.5,-399.5 465.5,-399.5 "/>
<text text-anchor="middle" x="409.5" y="-387.5" font-family="Helvetica,sans-Serif" font-size="10.00"> </text>
</a>
</g>
</g>
<!-- Node9&#45;&gt;Node11 -->
<g id="edge13" class="edge">
<title>Node9&#45;&gt;Node11</title>
<path fill="none" stroke="#404040" d="M442.84,-562.41C444.34,-548.87 444.49,-535.15 442.5,-522 439.37,-501.34 433.01,-479.16 426.7,-460.42"/>
<polygon fill="none" stroke="#404040" points="426.65,-460.28 420.9,-455.93 422.71,-448.95 428.46,-453.3 426.65,-460.28"/>
<text text-anchor="middle" x="459" y="-530.5" font-family="Helvetica,sans-Serif" font-size="10.00"> +keys</text>
</g>
<!-- Node10 -->
<g id="node10" class="node">
<title>Node10</title>
<g id="a_node10"><a xlink:title=" ">
<polygon fill="white" stroke="#bfbfbf" points="408.5,-868.5 408.5,-925.5 488.5,-925.5 488.5,-868.5 408.5,-868.5"/>
<text text-anchor="middle" x="448.5" y="-913.5" font-family="Helvetica,sans-Serif" font-size="10.00">Block::addon_t</text>
<polyline fill="none" stroke="#bfbfbf" points="408.5,-906.5 488.5,-906.5 "/>
<text text-anchor="middle" x="448.5" y="-894.5" font-family="Helvetica,sans-Serif" font-size="10.00"> </text>
<polyline fill="none" stroke="#bfbfbf" points="408.5,-887.5 488.5,-887.5 "/>
<text text-anchor="middle" x="448.5" y="-875.5" font-family="Helvetica,sans-Serif" font-size="10.00"> </text>
</a>
</g>
</g>
<!-- Node10&#45;&gt;Node9 -->
<g id="edge10" class="edge">
<title>Node10&#45;&gt;Node9</title>
<path fill="none" stroke="midnightblue" d="M441.98,-858.05C437.98,-834.79 432.65,-803.76 427.47,-773.58"/>
<polygon fill="none" stroke="midnightblue" points="438.58,-858.9 443.72,-868.17 445.47,-857.72 438.58,-858.9"/>
</g>
<!-- Node11&#45;&gt;Node9 -->
<g id="edge12" class="edge">
<title>Node11&#45;&gt;Node9</title>
<path fill="none" stroke="#404040" d="M409.5,-448.74C409.5,-474.8 409.5,-512.73 409.5,-549.69"/>
<polygon fill="none" stroke="#404040" points="409.5,-550.16 413.5,-556.16 409.5,-562.16 405.5,-556.16 409.5,-550.16"/>
<text text-anchor="middle" x="425.5" y="-530.5" font-family="Helvetica,sans-Serif" font-size="10.00"> +pnext</text>
</g>
<!-- Node12&#45;&gt;Node11 -->
<g id="edge14" class="edge">
<title>Node12&#45;&gt;Node11</title>
<path fill="none" stroke="orange" d="M259.01,-629.06C255.65,-598.42 255.3,-555.11 272.5,-522 290.07,-488.18 323.73,-461.78 353.28,-443.72"/>
<polygon fill="orange" stroke="orange" points="255.58,-629.84 260.3,-639.33 262.52,-628.97 255.58,-629.84"/>
<text text-anchor="middle" x="339" y="-530.5" font-family="Helvetica,sans-Serif" font-size="10.00"> &lt; altintegration::BlockIndex * &gt;</text>
</g>
<!-- Node13 -->
<g id="node13" class="node">
<title>Node13</title>
<g id="a_node13"><a xlink:title=" ">
<polygon fill="white" stroke="black" points="262.5,-868.5 262.5,-925.5 390.5,-925.5 390.5,-868.5 262.5,-868.5"/>
<text text-anchor="middle" x="326.5" y="-913.5" font-family="Helvetica,sans-Serif" font-size="10.00">std::shared_ptr&lt; block_t &gt;</text>
<polyline fill="none" stroke="black" points="262.5,-906.5 390.5,-906.5 "/>
<text text-anchor="start" x="270.5" y="-894.5" font-family="Helvetica,sans-Serif" font-size="10.00">+ ptr</text>
<polyline fill="none" stroke="black" points="262.5,-887.5 390.5,-887.5 "/>
<text text-anchor="start" x="270.5" y="-875.5" font-family="Helvetica,sans-Serif" font-size="10.00">+ operator&#45;&gt;()</text>
</a>
</g>
</g>
<!-- Node13&#45;&gt;Node9 -->
<g id="edge16" class="edge">
<title>Node13&#45;&gt;Node9</title>
<path fill="none" stroke="#404040" d="M347.3,-868.11C351.04,-862.32 354.65,-856.11 357.5,-850 366.93,-829.78 375.03,-807.48 381.83,-785.65"/>
<polygon fill="none" stroke="#404040" points="381.9,-785.42 379.81,-778.52 385.38,-773.93 387.47,-780.83 381.9,-785.42"/>
<text text-anchor="middle" x="399" y="-818.5" font-family="Helvetica,sans-Serif" font-size="10.00"> #header</text>
</g>
<!-- Node14&#45;&gt;Node13 -->
<g id="edge17" class="edge">
<title>Node14&#45;&gt;Node13</title>
<path fill="none" stroke="orange" d="M273.69,-1011.17C286.03,-984.72 302.4,-949.64 313.62,-925.59"/>
<polygon fill="orange" stroke="orange" points="270.4,-1009.95 269.34,-1020.49 276.74,-1012.91 270.4,-1009.95"/>
<text text-anchor="middle" x="330" y="-970.5" font-family="Helvetica,sans-Serif" font-size="10.00"> &lt; block_t &gt;</text>
</g>
<!-- Node15&#45;&gt;Node8 -->
<g id="edge19" class="edge">
<title>Node15&#45;&gt;Node8</title>
<path fill="none" stroke="orange" d="M594.64,-629.23C587.04,-580.18 573.88,-495.35 566.64,-448.67"/>
<polygon fill="orange" stroke="orange" points="591.19,-629.78 596.18,-639.12 598.1,-628.71 591.19,-629.78"/>
<text text-anchor="middle" x="648" y="-530.5" font-family="Helvetica,sans-Serif" font-size="10.00"> &lt; altintegration::BlockIndex * &gt;</text>
</g>
<!-- Node16 -->
<g id="node16" class="node">
<title>Node16</title>
<g id="a_node16"><a xlink:href="structaltintegration_1_1Chain.html" target="_top" xlink:title=" ">
<polygon fill="white" stroke="black" points="653,-325.5 653,-503.5 794,-503.5 794,-325.5 653,-325.5"/>
<text text-anchor="start" x="661" y="-491.5" font-family="Helvetica,sans-Serif" font-size="10.00">altintegration::Chain</text>
<text text-anchor="middle" x="723.5" y="-480.5" font-family="Helvetica,sans-Serif" font-size="10.00">&lt; altintegration::BlockIndex &gt;</text>
<polyline fill="none" stroke="black" points="653,-473.5 794,-473.5 "/>
<text text-anchor="middle" x="723.5" y="-461.5" font-family="Helvetica,sans-Serif" font-size="10.00"> </text>
<polyline fill="none" stroke="black" points="653,-454.5 794,-454.5 "/>
<text text-anchor="start" x="661" y="-442.5" font-family="Helvetica,sans-Serif" font-size="10.00">+ Chain()</text>
<text text-anchor="start" x="661" y="-431.5" font-family="Helvetica,sans-Serif" font-size="10.00">+ Chain()</text>
<text text-anchor="start" x="661" y="-420.5" font-family="Helvetica,sans-Serif" font-size="10.00">+ Chain()</text>
<text text-anchor="start" x="661" y="-409.5" font-family="Helvetica,sans-Serif" font-size="10.00">+ getStartHeight()</text>
<text text-anchor="start" x="661" y="-398.5" font-family="Helvetica,sans-Serif" font-size="10.00">+ firstHeight()</text>
<text text-anchor="start" x="661" y="-387.5" font-family="Helvetica,sans-Serif" font-size="10.00">+ contains()</text>
<text text-anchor="start" x="661" y="-376.5" font-family="Helvetica,sans-Serif" font-size="10.00">+ operator[]()</text>
<text text-anchor="start" x="661" y="-365.5" font-family="Helvetica,sans-Serif" font-size="10.00">+ next()</text>
<text text-anchor="start" x="661" y="-354.5" font-family="Helvetica,sans-Serif" font-size="10.00">+ chainHeight()</text>
<text text-anchor="start" x="661" y="-343.5" font-family="Helvetica,sans-Serif" font-size="10.00">+ empty()</text>
<text text-anchor="start" x="661" y="-332.5" font-family="Helvetica,sans-Serif" font-size="10.00">and 15 more...</text>
</a>
</g>
</g>
<!-- Node16&#45;&gt;Node1 -->
<g id="edge21" class="edge">
<title>Node16&#45;&gt;Node1</title>
<path fill="none" stroke="#404040" d="M723.5,-325.46C723.5,-313.98 723.5,-301.98 723.5,-289.83"/>
<polygon fill="none" stroke="#404040" points="723.5,-289.66 719.5,-283.66 723.5,-277.66 727.5,-283.66 723.5,-289.66"/>
<text text-anchor="middle" x="755.5" y="-299" font-family="Helvetica,sans-Serif" font-size="10.00"> #activeChain_</text>
</g>
<!-- Node17 -->
<g id="node17" class="node">
<title>Node17</title>
<g id="a_node17"><a xlink:href="structaltintegration_1_1Chain.html" target="_top" xlink:title="Fully in&#45;memory chain representation.">
<polygon fill="white" stroke="black" points="678,-579 678,-757 779,-757 779,-579 678,-579"/>
<text text-anchor="start" x="686" y="-745" font-family="Helvetica,sans-Serif" font-size="10.00">altintegration::Chain</text>
<text text-anchor="middle" x="728.5" y="-734" font-family="Helvetica,sans-Serif" font-size="10.00">&lt; BlockIndexT &gt;</text>
<polyline fill="none" stroke="black" points="678,-727 779,-727 "/>
<text text-anchor="middle" x="728.5" y="-715" font-family="Helvetica,sans-Serif" font-size="10.00"> </text>
<polyline fill="none" stroke="black" points="678,-708 779,-708 "/>
<text text-anchor="start" x="686" y="-696" font-family="Helvetica,sans-Serif" font-size="10.00">+ Chain()</text>
<text text-anchor="start" x="686" y="-685" font-family="Helvetica,sans-Serif" font-size="10.00">+ Chain()</text>
<text text-anchor="start" x="686" y="-674" font-family="Helvetica,sans-Serif" font-size="10.00">+ Chain()</text>
<text text-anchor="start" x="686" y="-663" font-family="Helvetica,sans-Serif" font-size="10.00">+ getStartHeight()</text>
<text text-anchor="start" x="686" y="-652" font-family="Helvetica,sans-Serif" font-size="10.00">+ firstHeight()</text>
<text text-anchor="start" x="686" y="-641" font-family="Helvetica,sans-Serif" font-size="10.00">+ contains()</text>
<text text-anchor="start" x="686" y="-630" font-family="Helvetica,sans-Serif" font-size="10.00">+ operator[]()</text>
<text text-anchor="start" x="686" y="-619" font-family="Helvetica,sans-Serif" font-size="10.00">+ next()</text>
<text text-anchor="start" x="686" y="-608" font-family="Helvetica,sans-Serif" font-size="10.00">+ chainHeight()</text>
<text text-anchor="start" x="686" y="-597" font-family="Helvetica,sans-Serif" font-size="10.00">+ empty()</text>
<text text-anchor="start" x="686" y="-586" font-family="Helvetica,sans-Serif" font-size="10.00">and 15 more...</text>
</a>
</g>
</g>
<!-- Node17&#45;&gt;Node16 -->
<g id="edge22" class="edge">
<title>Node17&#45;&gt;Node16</title>
<path fill="none" stroke="orange" d="M726.54,-568.59C726.12,-547.16 725.67,-524.61 725.25,-503.6"/>
<polygon fill="orange" stroke="orange" points="723.05,-568.76 726.74,-578.68 730.04,-568.62 723.05,-568.76"/>
<text text-anchor="middle" x="789" y="-530.5" font-family="Helvetica,sans-Serif" font-size="10.00"> &lt; altintegration::BlockIndex &gt;</text>
</g>
<!-- Node18 -->
<g id="node18" class="node">
<title>Node18</title>
<g id="a_node18"><a xlink:href="structaltintegration_1_1FinalizedPayloadsIndex.html" target="_top" xlink:title=" ">
<polygon fill="white" stroke="black" points="963,-353 963,-476 1106,-476 1106,-353 963,-353"/>
<text text-anchor="start" x="971" y="-464" font-family="Helvetica,sans-Serif" font-size="10.00">altintegration::Finalized</text>
<text text-anchor="start" x="971" y="-453" font-family="Helvetica,sans-Serif" font-size="10.00">PayloadsIndex&lt; altintegration</text>
<text text-anchor="middle" x="1034.5" y="-442" font-family="Helvetica,sans-Serif" font-size="10.00">::BlockIndex &gt;</text>
<polyline fill="none" stroke="black" points="963,-435 1106,-435 "/>
<text text-anchor="middle" x="1034.5" y="-423" font-family="Helvetica,sans-Serif" font-size="10.00"> </text>
<polyline fill="none" stroke="black" points="963,-416 1106,-416 "/>
<text text-anchor="start" x="971" y="-404" font-family="Helvetica,sans-Serif" font-size="10.00">+ find()</text>
<text text-anchor="start" x="971" y="-393" font-family="Helvetica,sans-Serif" font-size="10.00">+ empty()</text>
<text text-anchor="start" x="971" y="-382" font-family="Helvetica,sans-Serif" font-size="10.00">+ size()</text>
<text text-anchor="start" x="971" y="-371" font-family="Helvetica,sans-Serif" font-size="10.00">+ add()</text>
<text text-anchor="start" x="971" y="-360" font-family="Helvetica,sans-Serif" font-size="10.00">+ remove()</text>
</a>
</g>
</g>
<!-- Node18&#45;&gt;Node1 -->
<g id="edge23" class="edge">
<title>Node18&#45;&gt;Node1</title>
<path fill="none" stroke="#404040" d="M981.23,-352.81C972.22,-343.27 962.77,-333.69 953.5,-325 907.98,-282.29 853.7,-238.34 809.31,-204"/>
<polygon fill="none" stroke="#404040" points="809.21,-203.92 802.02,-203.43 799.7,-196.6 806.9,-197.09 809.21,-203.92"/>
<text text-anchor="middle" x="985" y="-299" font-family="Helvetica,sans-Serif" font-size="10.00"> #finalizedPayloadsIndex_</text>
</g>
<!-- Node19 -->
<g id="node19" class="node">
<title>Node19</title>
<g id="a_node19"><a xlink:href="structaltintegration_1_1FinalizedPayloadsIndex.html" target="_top" xlink:title="Stores a mapping payload id &#45;&gt; containing block hash of payloads that are stored in finalized blocks.">
<polygon fill="white" stroke="black" points="954,-612 954,-724 1115,-724 1115,-612 954,-612"/>
<text text-anchor="start" x="962" y="-712" font-family="Helvetica,sans-Serif" font-size="10.00">altintegration::Finalized</text>
<text text-anchor="middle" x="1034.5" y="-701" font-family="Helvetica,sans-Serif" font-size="10.00">PayloadsIndex&lt; ContainerIndex &gt;</text>
<polyline fill="none" stroke="black" points="954,-694 1115,-694 "/>
<text text-anchor="middle" x="1034.5" y="-682" font-family="Helvetica,sans-Serif" font-size="10.00"> </text>
<polyline fill="none" stroke="black" points="954,-675 1115,-675 "/>
<text text-anchor="start" x="962" y="-663" font-family="Helvetica,sans-Serif" font-size="10.00">+ find()</text>
<text text-anchor="start" x="962" y="-652" font-family="Helvetica,sans-Serif" font-size="10.00">+ empty()</text>
<text text-anchor="start" x="962" y="-641" font-family="Helvetica,sans-Serif" font-size="10.00">+ size()</text>
<text text-anchor="start" x="962" y="-630" font-family="Helvetica,sans-Serif" font-size="10.00">+ add()</text>
<text text-anchor="start" x="962" y="-619" font-family="Helvetica,sans-Serif" font-size="10.00">+ remove()</text>
</a>
</g>
</g>
<!-- Node19&#45;&gt;Node18 -->
<g id="edge24" class="edge">
<title>Node19&#45;&gt;Node18</title>
<path fill="none" stroke="orange" d="M1034.5,-601.68C1034.5,-562.95 1034.5,-514.19 1034.5,-476.29"/>
<polygon fill="orange" stroke="orange" points="1031,-601.81 1034.5,-611.81 1038,-601.81 1031,-601.81"/>
<text text-anchor="middle" x="1098" y="-530.5" font-family="Helvetica,sans-Serif" font-size="10.00"> &lt; altintegration::BlockIndex &gt;</text>
</g>
<!-- Node20 -->
<g id="node20" class="node">
<title>Node20</title>
<g id="a_node20"><a xlink:href="structaltintegration_1_1BlockReader.html" target="_top" xlink:title="An abstraction over on&#45;disk storage iterator.">
<polygon fill="white" stroke="black" points="812.5,-331 812.5,-498 944.5,-498 944.5,-331 812.5,-331"/>
<text text-anchor="middle" x="878.5" y="-486" font-family="Helvetica,sans-Serif" font-size="10.00">altintegration::BlockReader</text>
<polyline fill="none" stroke="black" points="812.5,-479 944.5,-479 "/>
<text text-anchor="middle" x="878.5" y="-467" font-family="Helvetica,sans-Serif" font-size="10.00"> </text>
<polyline fill="none" stroke="black" points="812.5,-460 944.5,-460 "/>
<text text-anchor="start" x="820.5" y="-448" font-family="Helvetica,sans-Serif" font-size="10.00">+ ~BlockReader()</text>
<text text-anchor="start" x="820.5" y="-437" font-family="Helvetica,sans-Serif" font-size="10.00">+ getAltTip()</text>
<text text-anchor="start" x="820.5" y="-426" font-family="Helvetica,sans-Serif" font-size="10.00">+ getVbkTip()</text>
<text text-anchor="start" x="820.5" y="-415" font-family="Helvetica,sans-Serif" font-size="10.00">+ getBtcTip()</text>
<text text-anchor="start" x="820.5" y="-404" font-family="Helvetica,sans-Serif" font-size="10.00">+ getBlock()</text>
<text text-anchor="start" x="820.5" y="-393" font-family="Helvetica,sans-Serif" font-size="10.00">+ getBlock()</text>
<text text-anchor="start" x="820.5" y="-382" font-family="Helvetica,sans-Serif" font-size="10.00">+ getBlock()</text>
<text text-anchor="start" x="820.5" y="-371" font-family="Helvetica,sans-Serif" font-size="10.00">+ getAltBlockIterator()</text>
<text text-anchor="start" x="820.5" y="-360" font-family="Helvetica,sans-Serif" font-size="10.00">+ getVbkBlockIterator()</text>
<text text-anchor="start" x="820.5" y="-349" font-family="Helvetica,sans-Serif" font-size="10.00">+ getBtcBlockIterator()</text>
<text text-anchor="start" x="820.5" y="-338" font-family="Helvetica,sans-Serif" font-size="10.00">and 6 more...</text>
</a>
</g>
</g>
<!-- Node20&#45;&gt;Node1 -->
<g id="edge25" class="edge">
<title>Node20&#45;&gt;Node1</title>
<path fill="none" stroke="#404040" d="M831.57,-330.7C823.36,-316.2 814.59,-300.74 805.75,-285.13"/>
<polygon fill="none" stroke="#404040" points="805.53,-284.75 799.1,-281.5 799.62,-274.31 806.06,-277.56 805.53,-284.75"/>
<text text-anchor="middle" x="851" y="-299" font-family="Helvetica,sans-Serif" font-size="10.00"> #blockProvider_</text>
</g>
</g>
</svg>
