<?xml version="1.0" encoding="UTF-8" standalone="no"?>
<!DOCTYPE svg PUBLIC "-//W3C//DTD SVG 1.1//EN"
 "http://www.w3.org/Graphics/SVG/1.1/DTD/svg11.dtd">
<!-- Generated by graphviz version 2.44.0 ()
 -->
<!-- Title: altintegration::VbkBlockTree Pages: 1 -->
<svg width="998pt" height="1981pt"
 viewBox="0.00 0.00 997.50 1981.00" xmlns="http://www.w3.org/2000/svg" xmlns:xlink="http://www.w3.org/1999/xlink">
<g id="graph0" class="graph" transform="scale(1 1) rotate(0) translate(4 1977)">
<title>altintegration::VbkBlockTree</title>
<polygon fill="white" stroke="transparent" points="-4,4 -4,-1977 993.5,-1977 993.5,4 -4,4"/>
<!-- Node1 -->
<g id="node1" class="node">
<title>Node1</title>
<g id="a_node1"><a xlink:title="Veriblock block tree.">
<polygon fill="#bfbfbf" stroke="black" points="234,-0.5 234,-167.5 372,-167.5 372,-0.5 234,-0.5"/>
<text text-anchor="middle" x="303" y="-155.5" font-family="Helvetica,sans-Serif" font-size="10.00">altintegration::VbkBlockTree</text>
<polyline fill="none" stroke="black" points="234,-148.5 372,-148.5 "/>
<text text-anchor="middle" x="303" y="-136.5" font-family="Helvetica,sans-Serif" font-size="10.00"> </text>
<polyline fill="none" stroke="black" points="234,-129.5 372,-129.5 "/>
<text text-anchor="start" x="242" y="-117.5" font-family="Helvetica,sans-Serif" font-size="10.00">+ ~VbkBlockTree()</text>
<text text-anchor="start" x="242" y="-106.5" font-family="Helvetica,sans-Serif" font-size="10.00">+ VbkBlockTree()</text>
<text text-anchor="start" x="242" y="-95.5" font-family="Helvetica,sans-Serif" font-size="10.00">+ loadBlockForward()</text>
<text text-anchor="start" x="242" y="-84.5" font-family="Helvetica,sans-Serif" font-size="10.00">+ loadBlockBackward()</text>
<text text-anchor="start" x="242" y="-73.5" font-family="Helvetica,sans-Serif" font-size="10.00">+ btc()</text>
<text text-anchor="start" x="242" y="-62.5" font-family="Helvetica,sans-Serif" font-size="10.00">+ btc()</text>
<text text-anchor="start" x="242" y="-51.5" font-family="Helvetica,sans-Serif" font-size="10.00">+ getComparator()</text>
<text text-anchor="start" x="242" y="-40.5" font-family="Helvetica,sans-Serif" font-size="10.00">+ getComparator()</text>
<text text-anchor="start" x="242" y="-29.5" font-family="Helvetica,sans-Serif" font-size="10.00">+ getPayloadsIndex()</text>
<text text-anchor="start" x="242" y="-18.5" font-family="Helvetica,sans-Serif" font-size="10.00">+ loadTip()</text>
<text text-anchor="start" x="242" y="-7.5" font-family="Helvetica,sans-Serif" font-size="10.00">and 13 more...</text>
</a>
</g>
</g>
<!-- Node2 -->
<g id="node2" class="node">
<title>Node2</title>
<g id="a_node2"><a xlink:href="structaltintegration_1_1BlockTree.html" target="_top" xlink:title=" ">
<polygon fill="white" stroke="black" points="225,-205.5 225,-471.5 381,-471.5 381,-205.5 225,-205.5"/>
<text text-anchor="start" x="233" y="-459.5" font-family="Helvetica,sans-Serif" font-size="10.00">altintegration::BlockTree</text>
<text text-anchor="middle" x="303" y="-448.5" font-family="Helvetica,sans-Serif" font-size="10.00">&lt; VbkBlock, VbkChainParams &gt;</text>
<polyline fill="none" stroke="black" points="225,-441.5 381,-441.5 "/>
<text text-anchor="start" x="233" y="-429.5" font-family="Helvetica,sans-Serif" font-size="10.00"># param_</text>
<polyline fill="none" stroke="black" points="225,-422.5 381,-422.5 "/>
<text text-anchor="start" x="233" y="-410.5" font-family="Helvetica,sans-Serif" font-size="10.00">+ ~BlockTree()</text>
<text text-anchor="start" x="233" y="-399.5" font-family="Helvetica,sans-Serif" font-size="10.00">+ BlockTree()</text>
<text text-anchor="start" x="233" y="-388.5" font-family="Helvetica,sans-Serif" font-size="10.00">+ getParams()</text>
<text text-anchor="start" x="233" y="-377.5" font-family="Helvetica,sans-Serif" font-size="10.00">+ bootstrapWithGenesis()</text>
<text text-anchor="start" x="233" y="-366.5" font-family="Helvetica,sans-Serif" font-size="10.00">+ bootstrapWithChain()</text>
<text text-anchor="start" x="233" y="-355.5" font-family="Helvetica,sans-Serif" font-size="10.00">+ acceptBlockHeader()</text>
<text text-anchor="start" x="233" y="-344.5" font-family="Helvetica,sans-Serif" font-size="10.00">+ acceptBlockHeader()</text>
<text text-anchor="start" x="233" y="-333.5" font-family="Helvetica,sans-Serif" font-size="10.00">+ toPrettyString()</text>
<text text-anchor="start" x="233" y="-322.5" font-family="Helvetica,sans-Serif" font-size="10.00">+ loadBlockForward()</text>
<text text-anchor="start" x="233" y="-311.5" font-family="Helvetica,sans-Serif" font-size="10.00">+ loadBlockBackward()</text>
<text text-anchor="start" x="233" y="-300.5" font-family="Helvetica,sans-Serif" font-size="10.00">+ isBlockOld()</text>
<text text-anchor="start" x="233" y="-289.5" font-family="Helvetica,sans-Serif" font-size="10.00">+ isBlockOld()</text>
<text text-anchor="start" x="233" y="-278.5" font-family="Helvetica,sans-Serif" font-size="10.00">+ finalizeBlock()</text>
<text text-anchor="start" x="233" y="-267.5" font-family="Helvetica,sans-Serif" font-size="10.00"># acceptBlockHeaderImpl()</text>
<text text-anchor="start" x="233" y="-256.5" font-family="Helvetica,sans-Serif" font-size="10.00"># bootstrap()</text>
<text text-anchor="start" x="233" y="-245.5" font-family="Helvetica,sans-Serif" font-size="10.00"># bootstrap()</text>
<text text-anchor="start" x="233" y="-234.5" font-family="Helvetica,sans-Serif" font-size="10.00"># validateAndAddBlock()</text>
<text text-anchor="start" x="233" y="-223.5" font-family="Helvetica,sans-Serif" font-size="10.00"># determineBestChain()</text>
<text text-anchor="start" x="233" y="-212.5" font-family="Helvetica,sans-Serif" font-size="10.00"># onBlockInserted()</text>
</a>
</g>
</g>
<!-- Node2&#45;&gt;Node1 -->
<g id="edge1" class="edge">
<title>Node2&#45;&gt;Node1</title>
<path fill="none" stroke="midnightblue" d="M303,-195.19C303,-185.87 303,-176.67 303,-167.8"/>
<polygon fill="none" stroke="midnightblue" points="299.5,-195.33 303,-205.33 306.5,-195.33 299.5,-195.33"/>
</g>
<!-- Node3 -->
<g id="node3" class="node">
<title>Node3</title>
<g id="a_node3"><a xlink:href="structaltintegration_1_1BaseBlockTree.html" target="_top" xlink:title="Base block tree that stores all blocks, maintains tree tips, maintains active chain.">
<polygon fill="white" stroke="black" points="223,-823.5 223,-1067.5 375,-1067.5 375,-823.5 223,-823.5"/>
<text text-anchor="start" x="231" y="-1055.5" font-family="Helvetica,sans-Serif" font-size="10.00">altintegration::BaseBlock</text>
<text text-anchor="middle" x="299" y="-1044.5" font-family="Helvetica,sans-Serif" font-size="10.00">Tree&lt; Block &gt;</text>
<polyline fill="none" stroke="black" points="223,-1037.5 375,-1037.5 "/>
<text text-anchor="start" x="231" y="-1025.5" font-family="Helvetica,sans-Serif" font-size="10.00"># validity_sig_</text>
<polyline fill="none" stroke="black" points="223,-1018.5 375,-1018.5 "/>
<text text-anchor="start" x="231" y="-1006.5" font-family="Helvetica,sans-Serif" font-size="10.00">+ getTips()</text>
<text text-anchor="start" x="231" y="-995.5" font-family="Helvetica,sans-Serif" font-size="10.00">+ getBlocks()</text>
<text text-anchor="start" x="231" y="-984.5" font-family="Helvetica,sans-Serif" font-size="10.00">+ getAllBlocks()</text>
<text text-anchor="start" x="231" y="-973.5" font-family="Helvetica,sans-Serif" font-size="10.00">+ getBlockProvider()</text>
<text text-anchor="start" x="231" y="-962.5" font-family="Helvetica,sans-Serif" font-size="10.00">+ ~BaseBlockTree()</text>
<text text-anchor="start" x="231" y="-951.5" font-family="Helvetica,sans-Serif" font-size="10.00">+ BaseBlockTree()</text>
<text text-anchor="start" x="231" y="-940.5" font-family="Helvetica,sans-Serif" font-size="10.00">+ BaseBlockTree()</text>
<text text-anchor="start" x="231" y="-929.5" font-family="Helvetica,sans-Serif" font-size="10.00">+ operator=()</text>
<text text-anchor="start" x="231" y="-918.5" font-family="Helvetica,sans-Serif" font-size="10.00">+ BaseBlockTree()</text>
<text text-anchor="start" x="231" y="-907.5" font-family="Helvetica,sans-Serif" font-size="10.00">+ operator=()</text>
<text text-anchor="start" x="231" y="-896.5" font-family="Helvetica,sans-Serif" font-size="10.00">and 26 more...</text>
<text text-anchor="start" x="231" y="-885.5" font-family="Helvetica,sans-Serif" font-size="10.00"># eraseBlock()</text>
<text text-anchor="start" x="231" y="-874.5" font-family="Helvetica,sans-Serif" font-size="10.00"># toPrettyString()</text>
<text text-anchor="start" x="231" y="-863.5" font-family="Helvetica,sans-Serif" font-size="10.00"># decreaseAppliedBlockCount()</text>
<text text-anchor="start" x="231" y="-852.5" font-family="Helvetica,sans-Serif" font-size="10.00"># increaseAppliedBlockCount()</text>
<text text-anchor="start" x="231" y="-841.5" font-family="Helvetica,sans-Serif" font-size="10.00"># decreaseAppliedBlockCount()</text>
<text text-anchor="start" x="231" y="-830.5" font-family="Helvetica,sans-Serif" font-size="10.00"># increaseAppliedBlockCount()</text>
</a>
</g>
</g>
<!-- Node3&#45;&gt;Node2 -->
<g id="edge2" class="edge">
<title>Node3&#45;&gt;Node2</title>
<path fill="none" stroke="midnightblue" d="M299.87,-812.88C300.54,-711.81 301.46,-572.87 302.13,-471.66"/>
<polygon fill="none" stroke="midnightblue" points="296.37,-813.14 299.8,-823.16 303.37,-813.18 296.37,-813.14"/>
</g>
<!-- Node21 -->
<g id="node21" class="node">
<title>Node21</title>
<g id="a_node21"><a xlink:href="structaltintegration_1_1BlockTree.html" target="_top" xlink:title="BlockTree is a tree of blocks with single &quot;bootstrap&quot; block as root.">
<polygon fill="white" stroke="black" points="315,-519.5 315,-785.5 449,-785.5 449,-519.5 315,-519.5"/>
<text text-anchor="start" x="323" y="-773.5" font-family="Helvetica,sans-Serif" font-size="10.00">altintegration::BlockTree</text>
<text text-anchor="middle" x="382" y="-762.5" font-family="Helvetica,sans-Serif" font-size="10.00">&lt; Block, ChainParams &gt;</text>
<polyline fill="none" stroke="black" points="315,-755.5 449,-755.5 "/>
<text text-anchor="start" x="323" y="-743.5" font-family="Helvetica,sans-Serif" font-size="10.00"># param_</text>
<polyline fill="none" stroke="black" points="315,-736.5 449,-736.5 "/>
<text text-anchor="start" x="323" y="-724.5" font-family="Helvetica,sans-Serif" font-size="10.00">+ ~BlockTree()</text>
<text text-anchor="start" x="323" y="-713.5" font-family="Helvetica,sans-Serif" font-size="10.00">+ BlockTree()</text>
<text text-anchor="start" x="323" y="-702.5" font-family="Helvetica,sans-Serif" font-size="10.00">+ getParams()</text>
<text text-anchor="start" x="323" y="-691.5" font-family="Helvetica,sans-Serif" font-size="10.00">+ bootstrapWithGenesis()</text>
<text text-anchor="start" x="323" y="-680.5" font-family="Helvetica,sans-Serif" font-size="10.00">+ bootstrapWithChain()</text>
<text text-anchor="start" x="323" y="-669.5" font-family="Helvetica,sans-Serif" font-size="10.00">+ acceptBlockHeader()</text>
<text text-anchor="start" x="323" y="-658.5" font-family="Helvetica,sans-Serif" font-size="10.00">+ acceptBlockHeader()</text>
<text text-anchor="start" x="323" y="-647.5" font-family="Helvetica,sans-Serif" font-size="10.00">+ toPrettyString()</text>
<text text-anchor="start" x="323" y="-636.5" font-family="Helvetica,sans-Serif" font-size="10.00">+ loadBlockForward()</text>
<text text-anchor="start" x="323" y="-625.5" font-family="Helvetica,sans-Serif" font-size="10.00">+ loadBlockBackward()</text>
<text text-anchor="start" x="323" y="-614.5" font-family="Helvetica,sans-Serif" font-size="10.00">+ isBlockOld()</text>
<text text-anchor="start" x="323" y="-603.5" font-family="Helvetica,sans-Serif" font-size="10.00">+ isBlockOld()</text>
<text text-anchor="start" x="323" y="-592.5" font-family="Helvetica,sans-Serif" font-size="10.00">+ finalizeBlock()</text>
<text text-anchor="start" x="323" y="-581.5" font-family="Helvetica,sans-Serif" font-size="10.00"># acceptBlockHeaderImpl()</text>
<text text-anchor="start" x="323" y="-570.5" font-family="Helvetica,sans-Serif" font-size="10.00"># bootstrap()</text>
<text text-anchor="start" x="323" y="-559.5" font-family="Helvetica,sans-Serif" font-size="10.00"># bootstrap()</text>
<text text-anchor="start" x="323" y="-548.5" font-family="Helvetica,sans-Serif" font-size="10.00"># validateAndAddBlock()</text>
<text text-anchor="start" x="323" y="-537.5" font-family="Helvetica,sans-Serif" font-size="10.00"># determineBestChain()</text>
<text text-anchor="start" x="323" y="-526.5" font-family="Helvetica,sans-Serif" font-size="10.00"># onBlockInserted()</text>
</a>
</g>
</g>
<!-- Node3&#45;&gt;Node21 -->
<g id="edge27" class="edge">
<title>Node3&#45;&gt;Node21</title>
<path fill="none" stroke="midnightblue" d="M336.41,-813.34C339.01,-804.21 341.64,-795.02 344.24,-785.89"/>
<polygon fill="none" stroke="midnightblue" points="332.98,-812.62 333.6,-823.2 339.71,-814.54 332.98,-812.62"/>
</g>
<!-- Node4 -->
<g id="node4" class="node">
<title>Node4</title>
<g id="a_node4"><a xlink:href="structaltintegration_1_1BlockReader.html" target="_top" xlink:title="An abstraction over on&#45;disk storage iterator.">
<polygon fill="white" stroke="black" points="0,-1121 0,-1288 132,-1288 132,-1121 0,-1121"/>
<text text-anchor="middle" x="66" y="-1276" font-family="Helvetica,sans-Serif" font-size="10.00">altintegration::BlockReader</text>
<polyline fill="none" stroke="black" points="0,-1269 132,-1269 "/>
<text text-anchor="middle" x="66" y="-1257" font-family="Helvetica,sans-Serif" font-size="10.00"> </text>
<polyline fill="none" stroke="black" points="0,-1250 132,-1250 "/>
<text text-anchor="start" x="8" y="-1238" font-family="Helvetica,sans-Serif" font-size="10.00">+ ~BlockReader()</text>
<text text-anchor="start" x="8" y="-1227" font-family="Helvetica,sans-Serif" font-size="10.00">+ getAltTip()</text>
<text text-anchor="start" x="8" y="-1216" font-family="Helvetica,sans-Serif" font-size="10.00">+ getVbkTip()</text>
<text text-anchor="start" x="8" y="-1205" font-family="Helvetica,sans-Serif" font-size="10.00">+ getBtcTip()</text>
<text text-anchor="start" x="8" y="-1194" font-family="Helvetica,sans-Serif" font-size="10.00">+ getBlock()</text>
<text text-anchor="start" x="8" y="-1183" font-family="Helvetica,sans-Serif" font-size="10.00">+ getBlock()</text>
<text text-anchor="start" x="8" y="-1172" font-family="Helvetica,sans-Serif" font-size="10.00">+ getBlock()</text>
<text text-anchor="start" x="8" y="-1161" font-family="Helvetica,sans-Serif" font-size="10.00">+ getAltBlockIterator()</text>
<text text-anchor="start" x="8" y="-1150" font-family="Helvetica,sans-Serif" font-size="10.00">+ getVbkBlockIterator()</text>
<text text-anchor="start" x="8" y="-1139" font-family="Helvetica,sans-Serif" font-size="10.00">+ getBtcBlockIterator()</text>
<text text-anchor="start" x="8" y="-1128" font-family="Helvetica,sans-Serif" font-size="10.00">and 6 more...</text>
</a>
</g>
</g>
<!-- Node4&#45;&gt;Node3 -->
<g id="edge3" class="edge">
<title>Node4&#45;&gt;Node3</title>
<path fill="none" stroke="#404040" d="M132.04,-1125.14C135.06,-1121.7 138.05,-1118.31 141,-1115 164.4,-1088.76 190.3,-1060.73 214.24,-1035.22"/>
<polygon fill="none" stroke="#404040" points="214.4,-1035.05 215.6,-1027.94 222.62,-1026.3 221.43,-1033.42 214.4,-1035.05"/>
<text text-anchor="middle" x="203.5" y="-1089" font-family="Helvetica,sans-Serif" font-size="10.00"> #blockProvider_</text>
</g>
<!-- Node5 -->
<g id="node5" class="node">
<title>Node5</title>
<g id="a_node5"><a xlink:href="structaltintegration_1_1Chain.html" target="_top" xlink:title=" ">
<polygon fill="white" stroke="black" points="150.5,-1115.5 150.5,-1293.5 291.5,-1293.5 291.5,-1115.5 150.5,-1115.5"/>
<text text-anchor="start" x="158.5" y="-1281.5" font-family="Helvetica,sans-Serif" font-size="10.00">altintegration::Chain</text>
<text text-anchor="middle" x="221" y="-1270.5" font-family="Helvetica,sans-Serif" font-size="10.00">&lt; altintegration::BlockIndex &gt;</text>
<polyline fill="none" stroke="black" points="150.5,-1263.5 291.5,-1263.5 "/>
<text text-anchor="middle" x="221" y="-1251.5" font-family="Helvetica,sans-Serif" font-size="10.00"> </text>
<polyline fill="none" stroke="black" points="150.5,-1244.5 291.5,-1244.5 "/>
<text text-anchor="start" x="158.5" y="-1232.5" font-family="Helvetica,sans-Serif" font-size="10.00">+ Chain()</text>
<text text-anchor="start" x="158.5" y="-1221.5" font-family="Helvetica,sans-Serif" font-size="10.00">+ Chain()</text>
<text text-anchor="start" x="158.5" y="-1210.5" font-family="Helvetica,sans-Serif" font-size="10.00">+ Chain()</text>
<text text-anchor="start" x="158.5" y="-1199.5" font-family="Helvetica,sans-Serif" font-size="10.00">+ getStartHeight()</text>
<text text-anchor="start" x="158.5" y="-1188.5" font-family="Helvetica,sans-Serif" font-size="10.00">+ firstHeight()</text>
<text text-anchor="start" x="158.5" y="-1177.5" font-family="Helvetica,sans-Serif" font-size="10.00">+ contains()</text>
<text text-anchor="start" x="158.5" y="-1166.5" font-family="Helvetica,sans-Serif" font-size="10.00">+ operator[]()</text>
<text text-anchor="start" x="158.5" y="-1155.5" font-family="Helvetica,sans-Serif" font-size="10.00">+ next()</text>
<text text-anchor="start" x="158.5" y="-1144.5" font-family="Helvetica,sans-Serif" font-size="10.00">+ chainHeight()</text>
<text text-anchor="start" x="158.5" y="-1133.5" font-family="Helvetica,sans-Serif" font-size="10.00">+ empty()</text>
<text text-anchor="start" x="158.5" y="-1122.5" font-family="Helvetica,sans-Serif" font-size="10.00">and 15 more...</text>
</a>
</g>
</g>
<!-- Node5&#45;&gt;Node3 -->
<g id="edge4" class="edge">
<title>Node5&#45;&gt;Node3</title>
<path fill="none" stroke="#404040" d="M247.73,-1115.41C251.28,-1103.74 254.97,-1091.58 258.68,-1079.36"/>
<polygon fill="none" stroke="#404040" points="258.75,-1079.12 256.66,-1072.22 262.23,-1067.64 264.32,-1074.54 258.75,-1079.12"/>
<text text-anchor="middle" x="288" y="-1089" font-family="Helvetica,sans-Serif" font-size="10.00"> #activeChain_</text>
</g>
<!-- Node6 -->
<g id="node6" class="node">
<title>Node6</title>
<g id="a_node6"><a xlink:href="structaltintegration_1_1Chain.html" target="_top" xlink:title="Fully in&#45;memory chain representation.">
<polygon fill="white" stroke="black" points="169.5,-1369 169.5,-1547 270.5,-1547 270.5,-1369 169.5,-1369"/>
<text text-anchor="start" x="177.5" y="-1535" font-family="Helvetica,sans-Serif" font-size="10.00">altintegration::Chain</text>
<text text-anchor="middle" x="220" y="-1524" font-family="Helvetica,sans-Serif" font-size="10.00">&lt; BlockIndexT &gt;</text>
<polyline fill="none" stroke="black" points="169.5,-1517 270.5,-1517 "/>
<text text-anchor="middle" x="220" y="-1505" font-family="Helvetica,sans-Serif" font-size="10.00"> </text>
<polyline fill="none" stroke="black" points="169.5,-1498 270.5,-1498 "/>
<text text-anchor="start" x="177.5" y="-1486" font-family="Helvetica,sans-Serif" font-size="10.00">+ Chain()</text>
<text text-anchor="start" x="177.5" y="-1475" font-family="Helvetica,sans-Serif" font-size="10.00">+ Chain()</text>
<text text-anchor="start" x="177.5" y="-1464" font-family="Helvetica,sans-Serif" font-size="10.00">+ Chain()</text>
<text text-anchor="start" x="177.5" y="-1453" font-family="Helvetica,sans-Serif" font-size="10.00">+ getStartHeight()</text>
<text text-anchor="start" x="177.5" y="-1442" font-family="Helvetica,sans-Serif" font-size="10.00">+ firstHeight()</text>
<text text-anchor="start" x="177.5" y="-1431" font-family="Helvetica,sans-Serif" font-size="10.00">+ contains()</text>
<text text-anchor="start" x="177.5" y="-1420" font-family="Helvetica,sans-Serif" font-size="10.00">+ operator[]()</text>
<text text-anchor="start" x="177.5" y="-1409" font-family="Helvetica,sans-Serif" font-size="10.00">+ next()</text>
<text text-anchor="start" x="177.5" y="-1398" font-family="Helvetica,sans-Serif" font-size="10.00">+ chainHeight()</text>
<text text-anchor="start" x="177.5" y="-1387" font-family="Helvetica,sans-Serif" font-size="10.00">+ empty()</text>
<text text-anchor="start" x="177.5" y="-1376" font-family="Helvetica,sans-Serif" font-size="10.00">and 15 more...</text>
</a>
</g>
</g>
<!-- Node6&#45;&gt;Node5 -->
<g id="edge5" class="edge">
<title>Node6&#45;&gt;Node5</title>
<path fill="none" stroke="orange" d="M220.39,-1358.59C220.48,-1337.16 220.57,-1314.61 220.65,-1293.6"/>
<polygon fill="orange" stroke="orange" points="216.89,-1358.67 220.35,-1368.68 223.89,-1358.7 216.89,-1358.67"/>
<text text-anchor="middle" x="284.5" y="-1320.5" font-family="Helvetica,sans-Serif" font-size="10.00"> &lt; altintegration::BlockIndex &gt;</text>
</g>
<!-- Node7 -->
<g id="node7" class="node">
<title>Node7</title>
<g id="a_node7"><a xlink:title=" ">
<polygon fill="white" stroke="#bfbfbf" points="309.5,-1165 309.5,-1244 446.5,-1244 446.5,-1165 309.5,-1165"/>
<text text-anchor="start" x="317.5" y="-1232" font-family="Helvetica,sans-Serif" font-size="10.00">std::unordered_map</text>
<text text-anchor="start" x="317.5" y="-1221" font-family="Helvetica,sans-Serif" font-size="10.00">&lt; prev_block_hash_t,</text>
<text text-anchor="middle" x="378" y="-1210" font-family="Helvetica,sans-Serif" font-size="10.00"> std::unique_ptr&lt; index_t &gt; &gt;</text>
<polyline fill="none" stroke="#bfbfbf" points="309.5,-1203 446.5,-1203 "/>
<text text-anchor="start" x="317.5" y="-1191" font-family="Helvetica,sans-Serif" font-size="10.00">+ keys</text>
<polyline fill="none" stroke="#bfbfbf" points="309.5,-1184 446.5,-1184 "/>
<text text-anchor="middle" x="378" y="-1172" font-family="Helvetica,sans-Serif" font-size="10.00"> </text>
</a>
</g>
</g>
<!-- Node7&#45;&gt;Node3 -->
<g id="edge6" class="edge">
<title>Node7&#45;&gt;Node3</title>
<path fill="none" stroke="#404040" d="M366.09,-1164.75C358.95,-1141.52 349.4,-1110.47 339.76,-1079.1"/>
<polygon fill="none" stroke="#404040" points="339.73,-1079.01 334.15,-1074.45 336.21,-1067.54 341.79,-1072.1 339.73,-1079.01"/>
<text text-anchor="middle" x="365" y="-1089" font-family="Helvetica,sans-Serif" font-size="10.00"> #blocks_</text>
</g>
<!-- Node8 -->
<g id="node8" class="node">
<title>Node8</title>
<g id="a_node8"><a xlink:title=" ">
<polygon fill="white" stroke="#bfbfbf" points="318.5,-1582.5 318.5,-1639.5 445.5,-1639.5 445.5,-1582.5 318.5,-1582.5"/>
<text text-anchor="middle" x="382" y="-1627.5" font-family="Helvetica,sans-Serif" font-size="10.00">std::unique_ptr&lt; index_t &gt;</text>
<polyline fill="none" stroke="#bfbfbf" points="318.5,-1620.5 445.5,-1620.5 "/>
<text text-anchor="start" x="326.5" y="-1608.5" font-family="Helvetica,sans-Serif" font-size="10.00">+ ptr</text>
<polyline fill="none" stroke="#bfbfbf" points="318.5,-1601.5 445.5,-1601.5 "/>
<text text-anchor="start" x="326.5" y="-1589.5" font-family="Helvetica,sans-Serif" font-size="10.00">+ operator&#45;&gt;()</text>
</a>
</g>
</g>
<!-- Node8&#45;&gt;Node7 -->
<g id="edge7" class="edge">
<title>Node8&#45;&gt;Node7</title>
<path fill="none" stroke="#404040" d="M374.3,-1582.46C372.93,-1576.42 371.71,-1570.03 371,-1564 358.15,-1455.02 366.32,-1326.14 372.65,-1256.44"/>
<polygon fill="none" stroke="#404040" points="372.68,-1256.08 369.26,-1249.73 373.8,-1244.13 377.23,-1250.48 372.68,-1256.08"/>
<text text-anchor="middle" x="395.5" y="-1455.5" font-family="Helvetica,sans-Serif" font-size="10.00"> +elements</text>
</g>
<!-- Node9 -->
<g id="node9" class="node">
<title>Node9</title>
<g id="a_node9"><a xlink:title=" ">
<polygon fill="white" stroke="#bfbfbf" points="348,-1734.5 348,-1791.5 450,-1791.5 450,-1734.5 348,-1734.5"/>
<text text-anchor="middle" x="399" y="-1779.5" font-family="Helvetica,sans-Serif" font-size="10.00">std::unique_ptr&lt; T &gt;</text>
<polyline fill="none" stroke="#bfbfbf" points="348,-1772.5 450,-1772.5 "/>
<text text-anchor="middle" x="399" y="-1760.5" font-family="Helvetica,sans-Serif" font-size="10.00"> </text>
<polyline fill="none" stroke="#bfbfbf" points="348,-1753.5 450,-1753.5 "/>
<text text-anchor="start" x="356" y="-1741.5" font-family="Helvetica,sans-Serif" font-size="10.00">+ operator&#45;&gt;()</text>
</a>
</g>
</g>
<!-- Node9&#45;&gt;Node8 -->
<g id="edge8" class="edge">
<title>Node9&#45;&gt;Node8</title>
<path fill="none" stroke="orange" d="M394.75,-1724.47C391.76,-1698.11 387.83,-1663.43 385.13,-1639.59"/>
<polygon fill="orange" stroke="orange" points="391.28,-1724.95 395.88,-1734.49 398.23,-1724.16 391.28,-1724.95"/>
<text text-anchor="middle" x="419" y="-1684.5" font-family="Helvetica,sans-Serif" font-size="10.00"> &lt; index_t &gt;</text>
</g>
<!-- Node10 -->
<g id="node10" class="node">
<title>Node10</title>
<g id="a_node10"><a xlink:title=" ">
<polygon fill="white" stroke="#bfbfbf" points="465.5,-1915.5 465.5,-1972.5 494.5,-1972.5 494.5,-1915.5 465.5,-1915.5"/>
<text text-anchor="middle" x="480" y="-1960.5" font-family="Helvetica,sans-Serif" font-size="10.00">T</text>
<polyline fill="none" stroke="#bfbfbf" points="465.5,-1953.5 494.5,-1953.5 "/>
<text text-anchor="middle" x="480" y="-1941.5" font-family="Helvetica,sans-Serif" font-size="10.00"> </text>
<polyline fill="none" stroke="#bfbfbf" points="465.5,-1934.5 494.5,-1934.5 "/>
<text text-anchor="middle" x="480" y="-1922.5" font-family="Helvetica,sans-Serif" font-size="10.00"> </text>
</a>
</g>
</g>
<!-- Node10&#45;&gt;Node9 -->
<g id="edge9" class="edge">
<title>Node10&#45;&gt;Node9</title>
<path fill="none" stroke="#404040" d="M465.46,-1925.9C458.89,-1917.57 451.4,-1907.17 446,-1897 430.12,-1867.08 417.68,-1830.67 409.59,-1803.51"/>
<polygon fill="none" stroke="#404040" points="409.52,-1803.27 404.02,-1798.62 406.19,-1791.74 411.7,-1796.39 409.52,-1803.27"/>
<text text-anchor="middle" x="456" y="-1889" font-family="Helvetica,sans-Serif" font-size="10.00"> +ptr</text>
</g>
<!-- Node11 -->
<g id="node11" class="node">
<title>Node11</title>
<g id="a_node11"><a xlink:title=" ">
<polygon fill="white" stroke="#bfbfbf" points="429.5,-1424 429.5,-1492 530.5,-1492 530.5,-1424 429.5,-1424"/>
<text text-anchor="start" x="437.5" y="-1480" font-family="Helvetica,sans-Serif" font-size="10.00">std::unordered_map</text>
<text text-anchor="middle" x="480" y="-1469" font-family="Helvetica,sans-Serif" font-size="10.00">&lt; K, T &gt;</text>
<polyline fill="none" stroke="#bfbfbf" points="429.5,-1462 530.5,-1462 "/>
<text text-anchor="middle" x="480" y="-1450" font-family="Helvetica,sans-Serif" font-size="10.00"> </text>
<polyline fill="none" stroke="#bfbfbf" points="429.5,-1443 530.5,-1443 "/>
<text text-anchor="middle" x="480" y="-1431" font-family="Helvetica,sans-Serif" font-size="10.00"> </text>
</a>
</g>
</g>
<!-- Node10&#45;&gt;Node11 -->
<g id="edge12" class="edge">
<title>Node10&#45;&gt;Node11</title>
<path fill="none" stroke="#404040" d="M480,-1915.24C480,-1835.19 480,-1603.33 480,-1504.5"/>
<polygon fill="none" stroke="#404040" points="480,-1504.29 476,-1498.29 480,-1492.29 484,-1498.29 480,-1504.29"/>
<text text-anchor="middle" x="504.5" y="-1760.5" font-family="Helvetica,sans-Serif" font-size="10.00"> +elements</text>
</g>
<!-- Node17 -->
<g id="node17" class="node">
<title>Node17</title>
<g id="a_node17"><a xlink:title=" ">
<polygon fill="white" stroke="#bfbfbf" points="577.5,-1810.5 577.5,-1867.5 680.5,-1867.5 680.5,-1810.5 577.5,-1810.5"/>
<text text-anchor="middle" x="629" y="-1855.5" font-family="Helvetica,sans-Serif" font-size="10.00">std::shared_ptr&lt; T &gt;</text>
<polyline fill="none" stroke="#bfbfbf" points="577.5,-1848.5 680.5,-1848.5 "/>
<text text-anchor="middle" x="629" y="-1836.5" font-family="Helvetica,sans-Serif" font-size="10.00"> </text>
<polyline fill="none" stroke="#bfbfbf" points="577.5,-1829.5 680.5,-1829.5 "/>
<text text-anchor="start" x="585.5" y="-1817.5" font-family="Helvetica,sans-Serif" font-size="10.00">+ operator&#45;&gt;()</text>
</a>
</g>
</g>
<!-- Node10&#45;&gt;Node17 -->
<g id="edge18" class="edge">
<title>Node10&#45;&gt;Node17</title>
<path fill="none" stroke="#404040" d="M494.56,-1932.94C513.95,-1919.53 549.24,-1895.14 578.8,-1874.7"/>
<polygon fill="none" stroke="#404040" points="579.11,-1874.49 581.77,-1867.79 588.98,-1867.67 586.32,-1874.37 579.11,-1874.49"/>
<text text-anchor="middle" x="569" y="-1889" font-family="Helvetica,sans-Serif" font-size="10.00"> +ptr</text>
</g>
<!-- Node11&#45;&gt;Node7 -->
<g id="edge10" class="edge">
<title>Node11&#45;&gt;Node7</title>
<path fill="none" stroke="orange" d="M453.09,-1415.42C439,-1392.2 422.35,-1362.31 411,-1334 399.3,-1304.82 390.7,-1270.22 385.21,-1244.28"/>
<polygon fill="orange" stroke="orange" points="450.14,-1417.29 458.36,-1423.98 456.1,-1413.63 450.14,-1417.29"/>
<text text-anchor="start" x="411" y="-1326" font-family="Helvetica,sans-Serif" font-size="10.00"> &lt; prev_block_hash_t,</text>
<text text-anchor="middle" x="471.5" y="-1315" font-family="Helvetica,sans-Serif" font-size="10.00"> std::unique_ptr&lt; index_t &gt; &gt;</text>
</g>
<!-- Node12 -->
<g id="node12" class="node">
<title>Node12</title>
<g id="a_node12"><a xlink:title=" ">
<polygon fill="white" stroke="#bfbfbf" points="593.5,-1658.5 593.5,-1715.5 622.5,-1715.5 622.5,-1658.5 593.5,-1658.5"/>
<text text-anchor="middle" x="608" y="-1703.5" font-family="Helvetica,sans-Serif" font-size="10.00">K</text>
<polyline fill="none" stroke="#bfbfbf" points="593.5,-1696.5 622.5,-1696.5 "/>
<text text-anchor="middle" x="608" y="-1684.5" font-family="Helvetica,sans-Serif" font-size="10.00"> </text>
<polyline fill="none" stroke="#bfbfbf" points="593.5,-1677.5 622.5,-1677.5 "/>
<text text-anchor="middle" x="608" y="-1665.5" font-family="Helvetica,sans-Serif" font-size="10.00"> </text>
</a>
</g>
</g>
<!-- Node12&#45;&gt;Node11 -->
<g id="edge11" class="edge">
<title>Node12&#45;&gt;Node11</title>
<path fill="none" stroke="#404040" d="M593.25,-1666.71C587.32,-1658.63 580.57,-1649.03 575,-1640 547.05,-1594.7 519.24,-1540.35 501,-1503.11"/>
<polygon fill="none" stroke="#404040" points="500.91,-1502.92 494.69,-1499.27 495.66,-1492.13 501.88,-1495.77 500.91,-1502.92"/>
<text text-anchor="middle" x="589.5" y="-1608.5" font-family="Helvetica,sans-Serif" font-size="10.00"> +keys</text>
</g>
<!-- Node19 -->
<g id="node19" class="node">
<title>Node19</title>
<g id="a_node19"><a xlink:title=" ">
<polygon fill="white" stroke="#bfbfbf" points="698.5,-1429.5 698.5,-1486.5 769.5,-1486.5 769.5,-1429.5 698.5,-1429.5"/>
<text text-anchor="middle" x="734" y="-1474.5" font-family="Helvetica,sans-Serif" font-size="10.00">std::set&lt; K &gt;</text>
<polyline fill="none" stroke="#bfbfbf" points="698.5,-1467.5 769.5,-1467.5 "/>
<text text-anchor="middle" x="734" y="-1455.5" font-family="Helvetica,sans-Serif" font-size="10.00"> </text>
<polyline fill="none" stroke="#bfbfbf" points="698.5,-1448.5 769.5,-1448.5 "/>
<text text-anchor="middle" x="734" y="-1436.5" font-family="Helvetica,sans-Serif" font-size="10.00"> </text>
</a>
</g>
</g>
<!-- Node12&#45;&gt;Node19 -->
<g id="edge23" class="edge">
<title>Node12&#45;&gt;Node19</title>
<path fill="none" stroke="#404040" d="M622.79,-1666.74C628.73,-1658.66 635.47,-1649.06 641,-1640 670.05,-1592.46 698.59,-1534.81 716.24,-1497.55"/>
<polygon fill="none" stroke="#404040" points="716.25,-1497.53 715.18,-1490.4 721.35,-1486.67 722.42,-1493.8 716.25,-1497.53"/>
<text text-anchor="middle" x="685.5" y="-1608.5" font-family="Helvetica,sans-Serif" font-size="10.00"> +keys</text>
</g>
<!-- Node20 -->
<g id="node20" class="node">
<title>Node20</title>
<g id="a_node20"><a xlink:title=" ">
<polygon fill="white" stroke="#bfbfbf" points="548.5,-1429.5 548.5,-1486.5 667.5,-1486.5 667.5,-1429.5 548.5,-1429.5"/>
<text text-anchor="middle" x="608" y="-1474.5" font-family="Helvetica,sans-Serif" font-size="10.00">std::unordered_set&lt; K &gt;</text>
<polyline fill="none" stroke="#bfbfbf" points="548.5,-1467.5 667.5,-1467.5 "/>
<text text-anchor="middle" x="608" y="-1455.5" font-family="Helvetica,sans-Serif" font-size="10.00"> </text>
<polyline fill="none" stroke="#bfbfbf" points="548.5,-1448.5 667.5,-1448.5 "/>
<text text-anchor="middle" x="608" y="-1436.5" font-family="Helvetica,sans-Serif" font-size="10.00"> </text>
</a>
</g>
</g>
<!-- Node12&#45;&gt;Node20 -->
<g id="edge25" class="edge">
<title>Node12&#45;&gt;Node20</title>
<path fill="none" stroke="#404040" d="M608,-1658.17C608,-1618.23 608,-1544.48 608,-1498.8"/>
<polygon fill="none" stroke="#404040" points="608,-1498.71 604,-1492.71 608,-1486.71 612,-1492.71 608,-1498.71"/>
<text text-anchor="middle" x="622.5" y="-1608.5" font-family="Helvetica,sans-Serif" font-size="10.00"> +keys</text>
</g>
<!-- Node13 -->
<g id="node13" class="node">
<title>Node13</title>
<g id="a_node13"><a xlink:title=" ">
<polygon fill="white" stroke="#bfbfbf" points="465.5,-1170.5 465.5,-1238.5 612.5,-1238.5 612.5,-1170.5 465.5,-1170.5"/>
<text text-anchor="start" x="473.5" y="-1226.5" font-family="Helvetica,sans-Serif" font-size="10.00">std::unordered_set</text>
<text text-anchor="middle" x="539" y="-1215.5" font-family="Helvetica,sans-Serif" font-size="10.00">&lt; altintegration::BlockIndex * &gt;</text>
<polyline fill="none" stroke="#bfbfbf" points="465.5,-1208.5 612.5,-1208.5 "/>
<text text-anchor="middle" x="539" y="-1196.5" font-family="Helvetica,sans-Serif" font-size="10.00"> </text>
<polyline fill="none" stroke="#bfbfbf" points="465.5,-1189.5 612.5,-1189.5 "/>
<text text-anchor="middle" x="539" y="-1177.5" font-family="Helvetica,sans-Serif" font-size="10.00"> </text>
</a>
</g>
</g>
<!-- Node13&#45;&gt;Node3 -->
<g id="edge13" class="edge">
<title>Node13&#45;&gt;Node3</title>
<path fill="none" stroke="#404040" d="M508.12,-1170.43C476.72,-1136.8 426.67,-1083.21 383.41,-1036.89"/>
<polygon fill="none" stroke="#404040" points="383.32,-1036.8 376.3,-1035.14 375.13,-1028.03 382.15,-1029.68 383.32,-1036.8"/>
<text text-anchor="middle" x="448.5" y="-1089" font-family="Helvetica,sans-Serif" font-size="10.00"> #tips_</text>
</g>
<!-- Node14 -->
<g id="node14" class="node">
<title>Node14</title>
<g id="a_node14"><a xlink:href="structaltintegration_1_1BlockIndex.html" target="_top" xlink:title="A node in a block tree.">
<polygon fill="white" stroke="black" points="813.5,-1352.5 813.5,-1563.5 938.5,-1563.5 938.5,-1352.5 813.5,-1352.5"/>
<text text-anchor="start" x="821.5" y="-1551.5" font-family="Helvetica,sans-Serif" font-size="10.00">altintegration::BlockIndex</text>
<text text-anchor="middle" x="876" y="-1540.5" font-family="Helvetica,sans-Serif" font-size="10.00">&lt; Block &gt;</text>
<polyline fill="none" stroke="black" points="813.5,-1533.5 938.5,-1533.5 "/>
<text text-anchor="start" x="821.5" y="-1521.5" font-family="Helvetica,sans-Serif" font-size="10.00">+ finalized</text>
<text text-anchor="start" x="821.5" y="-1510.5" font-family="Helvetica,sans-Serif" font-size="10.00"># height</text>
<text text-anchor="start" x="821.5" y="-1499.5" font-family="Helvetica,sans-Serif" font-size="10.00"># status</text>
<text text-anchor="start" x="821.5" y="-1488.5" font-family="Helvetica,sans-Serif" font-size="10.00"># dirty</text>
<polyline fill="none" stroke="black" points="813.5,-1481.5 938.5,-1481.5 "/>
<text text-anchor="start" x="821.5" y="-1469.5" font-family="Helvetica,sans-Serif" font-size="10.00">+ BlockIndex()</text>
<text text-anchor="start" x="821.5" y="-1458.5" font-family="Helvetica,sans-Serif" font-size="10.00">+ BlockIndex()</text>
<text text-anchor="start" x="821.5" y="-1447.5" font-family="Helvetica,sans-Serif" font-size="10.00">+ ~BlockIndex()</text>
<text text-anchor="start" x="821.5" y="-1436.5" font-family="Helvetica,sans-Serif" font-size="10.00">+ BlockIndex()</text>
<text text-anchor="start" x="821.5" y="-1425.5" font-family="Helvetica,sans-Serif" font-size="10.00">+ operator=()</text>
<text text-anchor="start" x="821.5" y="-1414.5" font-family="Helvetica,sans-Serif" font-size="10.00">+ isDeleted()</text>
<text text-anchor="start" x="821.5" y="-1403.5" font-family="Helvetica,sans-Serif" font-size="10.00">+ restore()</text>
<text text-anchor="start" x="821.5" y="-1392.5" font-family="Helvetica,sans-Serif" font-size="10.00">+ deleteTemporarily()</text>
<text text-anchor="start" x="821.5" y="-1381.5" font-family="Helvetica,sans-Serif" font-size="10.00">+ mergeFrom()</text>
<text text-anchor="start" x="821.5" y="-1370.5" font-family="Helvetica,sans-Serif" font-size="10.00">+ toStoredBlockIndex()</text>
<text text-anchor="start" x="821.5" y="-1359.5" font-family="Helvetica,sans-Serif" font-size="10.00">and 39 more...</text>
</a>
</g>
</g>
<!-- Node14&#45;&gt;Node13 -->
<g id="edge14" class="edge">
<title>Node14&#45;&gt;Node13</title>
<path fill="none" stroke="#404040" d="M813.32,-1378.41C802.71,-1368.45 791.16,-1359.23 779,-1352 751.02,-1335.36 737.32,-1348.14 708,-1334 682.87,-1321.89 628.38,-1279.17 588.03,-1246.28"/>
<polygon fill="none" stroke="#404040" points="587.9,-1246.18 580.73,-1245.48 578.62,-1238.58 585.79,-1239.29 587.9,-1246.18"/>
<text text-anchor="middle" x="722.5" y="-1320.5" font-family="Helvetica,sans-Serif" font-size="10.00"> +keys</text>
</g>
<!-- Node14&#45;&gt;Node14 -->
<g id="edge19" class="edge">
<title>Node14&#45;&gt;Node14</title>
<path fill="none" stroke="#404040" d="M938.78,-1481.35C949.26,-1478.08 956.5,-1470.3 956.5,-1458 956.5,-1450.5 953.81,-1444.69 949.34,-1440.54"/>
<polygon fill="none" stroke="#404040" points="949.26,-1440.5 942.07,-1441.06 938.78,-1434.65 945.97,-1434.08 949.26,-1440.5"/>
<text text-anchor="middle" x="973" y="-1455.5" font-family="Helvetica,sans-Serif" font-size="10.00"> +pprev</text>
</g>
<!-- Node18 -->
<g id="node18" class="node">
<title>Node18</title>
<g id="a_node18"><a xlink:title=" ">
<polygon fill="white" stroke="#bfbfbf" points="847,-1170.5 847,-1238.5 959,-1238.5 959,-1170.5 847,-1170.5"/>
<text text-anchor="start" x="855" y="-1226.5" font-family="Helvetica,sans-Serif" font-size="10.00">std::set&lt; altintegration</text>
<text text-anchor="middle" x="903" y="-1215.5" font-family="Helvetica,sans-Serif" font-size="10.00">::BlockIndex * &gt;</text>
<polyline fill="none" stroke="#bfbfbf" points="847,-1208.5 959,-1208.5 "/>
<text text-anchor="middle" x="903" y="-1196.5" font-family="Helvetica,sans-Serif" font-size="10.00"> </text>
<polyline fill="none" stroke="#bfbfbf" points="847,-1189.5 959,-1189.5 "/>
<text text-anchor="middle" x="903" y="-1177.5" font-family="Helvetica,sans-Serif" font-size="10.00"> </text>
</a>
</g>
</g>
<!-- Node14&#45;&gt;Node18 -->
<g id="edge21" class="edge">
<title>Node14&#45;&gt;Node18</title>
<path fill="none" stroke="#404040" d="M887.25,-1352.16C891.04,-1316.86 895.08,-1279.3 898.11,-1251.03"/>
<polygon fill="none" stroke="#404040" points="898.15,-1250.67 894.81,-1244.27 899.43,-1238.74 902.77,-1245.13 898.15,-1250.67"/>
<text text-anchor="middle" x="905.5" y="-1320.5" font-family="Helvetica,sans-Serif" font-size="10.00"> +keys</text>
</g>
<!-- Node15 -->
<g id="node15" class="node">
<title>Node15</title>
<g id="a_node15"><a xlink:title=" ">
<polygon fill="white" stroke="#bfbfbf" points="714,-1658.5 714,-1715.5 794,-1715.5 794,-1658.5 714,-1658.5"/>
<text text-anchor="middle" x="754" y="-1703.5" font-family="Helvetica,sans-Serif" font-size="10.00">Block::addon_t</text>
<polyline fill="none" stroke="#bfbfbf" points="714,-1696.5 794,-1696.5 "/>
<text text-anchor="middle" x="754" y="-1684.5" font-family="Helvetica,sans-Serif" font-size="10.00"> </text>
<polyline fill="none" stroke="#bfbfbf" points="714,-1677.5 794,-1677.5 "/>
<text text-anchor="middle" x="754" y="-1665.5" font-family="Helvetica,sans-Serif" font-size="10.00"> </text>
</a>
</g>
</g>
<!-- Node15&#45;&gt;Node14 -->
<g id="edge15" class="edge">
<title>Node15&#45;&gt;Node14</title>
<path fill="none" stroke="midnightblue" d="M773.72,-1649.3C786.3,-1625.91 803.28,-1594.31 819.79,-1563.58"/>
<polygon fill="none" stroke="midnightblue" points="770.61,-1647.7 768.96,-1658.17 776.78,-1651.01 770.61,-1647.7"/>
</g>
<!-- Node16 -->
<g id="node16" class="node">
<title>Node16</title>
<g id="a_node16"><a xlink:title=" ">
<polygon fill="white" stroke="#bfbfbf" points="812,-1658.5 812,-1715.5 940,-1715.5 940,-1658.5 812,-1658.5"/>
<text text-anchor="middle" x="876" y="-1703.5" font-family="Helvetica,sans-Serif" font-size="10.00">std::shared_ptr&lt; block_t &gt;</text>
<polyline fill="none" stroke="#bfbfbf" points="812,-1696.5 940,-1696.5 "/>
<text text-anchor="start" x="820" y="-1684.5" font-family="Helvetica,sans-Serif" font-size="10.00">+ ptr</text>
<polyline fill="none" stroke="#bfbfbf" points="812,-1677.5 940,-1677.5 "/>
<text text-anchor="start" x="820" y="-1665.5" font-family="Helvetica,sans-Serif" font-size="10.00">+ operator&#45;&gt;()</text>
</a>
</g>
</g>
<!-- Node16&#45;&gt;Node14 -->
<g id="edge16" class="edge">
<title>Node16&#45;&gt;Node14</title>
<path fill="none" stroke="#404040" d="M876,-1658.17C876,-1637.11 876,-1606.64 876,-1575.84"/>
<polygon fill="none" stroke="#404040" points="876,-1575.58 872,-1569.58 876,-1563.58 880,-1569.58 876,-1575.58"/>
<text text-anchor="middle" x="894.5" y="-1608.5" font-family="Helvetica,sans-Serif" font-size="10.00"> #header</text>
</g>
<!-- Node17&#45;&gt;Node16 -->
<g id="edge17" class="edge">
<title>Node17&#45;&gt;Node16</title>
<path fill="none" stroke="orange" d="M682.89,-1805.27C727.06,-1778.45 788.87,-1740.91 830.57,-1715.59"/>
<polygon fill="orange" stroke="orange" points="681.03,-1802.31 674.3,-1810.49 684.67,-1808.29 681.03,-1802.31"/>
<text text-anchor="middle" x="821.5" y="-1760.5" font-family="Helvetica,sans-Serif" font-size="10.00"> &lt; block_t &gt;</text>
</g>
<!-- Node18&#45;&gt;Node14 -->
<g id="edge20" class="edge">
<title>Node18&#45;&gt;Node14</title>
<path fill="none" stroke="#404040" d="M919.06,-1238.73C929.58,-1264.64 940.15,-1301.56 933,-1334 932.52,-1336.19 931.99,-1338.39 931.43,-1340.59"/>
<polygon fill="none" stroke="#404040" points="931.36,-1340.83 933.55,-1347.7 928.06,-1352.37 925.86,-1345.5 931.36,-1340.83"/>
<text text-anchor="middle" x="951" y="-1320.5" font-family="Helvetica,sans-Serif" font-size="10.00"> +pnext</text>
</g>
<!-- Node19&#45;&gt;Node18 -->
<g id="edge22" class="edge">
<title>Node19&#45;&gt;Node18</title>
<path fill="none" stroke="orange" d="M730.61,-1418.85C729.68,-1387.92 732.63,-1344.31 752,-1312 773.85,-1275.54 813.54,-1248.29 846.74,-1230.49"/>
<polygon fill="orange" stroke="orange" points="727.13,-1419.4 731.08,-1429.23 734.12,-1419.08 727.13,-1419.4"/>
<text text-anchor="middle" x="818.5" y="-1320.5" font-family="Helvetica,sans-Serif" font-size="10.00"> &lt; altintegration::BlockIndex * &gt;</text>
</g>
<!-- Node20&#45;&gt;Node13 -->
<g id="edge24" class="edge">
<title>Node20&#45;&gt;Node13</title>
<path fill="none" stroke="orange" d="M581.69,-1420.85C566.26,-1397.37 548.23,-1365.39 540,-1334 531.71,-1302.38 532.58,-1264.87 534.84,-1238.57"/>
<polygon fill="orange" stroke="orange" points="578.97,-1423.06 587.45,-1429.41 584.78,-1419.16 578.97,-1423.06"/>
<text text-anchor="middle" x="606.5" y="-1320.5" font-family="Helvetica,sans-Serif" font-size="10.00"> &lt; altintegration::BlockIndex * &gt;</text>
</g>
<!-- Node21&#45;&gt;Node2 -->
<g id="edge26" class="edge">
<title>Node21&#45;&gt;Node2</title>
<path fill="none" stroke="orange" d="M345.96,-509.16C342.78,-496.62 339.58,-483.97 336.43,-471.52"/>
<polygon fill="orange" stroke="orange" points="342.65,-510.35 348.5,-519.18 349.44,-508.63 342.65,-510.35"/>
<text text-anchor="middle" x="414" y="-493" font-family="Helvetica,sans-Serif" font-size="10.00"> &lt; VbkBlock, VbkChainParams &gt;</text>
</g>
</g>
</svg>
