<?xml version="1.0" encoding="UTF-8" standalone="no"?>
<!DOCTYPE svg PUBLIC "-//W3C//DTD SVG 1.1//EN"
 "http://www.w3.org/Graphics/SVG/1.1/DTD/svg11.dtd">
<!-- Generated by graphviz version 3.0.0 (20220413.0242)
 -->
<!-- Title: altintegration::BlockTree&lt; Block, ChainParams &gt; Pages: 1 -->
<svg width="1345pt" height="1473pt"
 viewBox="0.00 0.00 1344.50 1473.00" xmlns="http://www.w3.org/2000/svg" xmlns:xlink="http://www.w3.org/1999/xlink">
<g id="graph0" class="graph" transform="scale(1 1) rotate(0) translate(4 1469)">
<title>altintegration::BlockTree&lt; Block, ChainParams &gt;</title>
<polygon fill="white" stroke="transparent" points="-4,4 -4,-1469 1340.5,-1469 1340.5,4 -4,4"/>
<!-- Node1 -->
<g id="node1" class="node">
<title>Node1</title>
<g id="a_node1"><a xlink:title="BlockTree is a tree of blocks with single &quot;bootstrap&quot; block as root.">
<polygon fill="#bfbfbf" stroke="black" points="764.5,-0.5 764.5,-255.5 898.5,-255.5 898.5,-0.5 764.5,-0.5"/>
<text text-anchor="start" x="772.5" y="-243.5" font-family="Helvetica,sans-Serif" font-size="10.00">altintegration::BlockTree</text>
<text text-anchor="middle" x="831.5" y="-232.5" font-family="Helvetica,sans-Serif" font-size="10.00">&lt; Block, ChainParams &gt;</text>
<polyline fill="none" stroke="black" points="764.5,-225.5 898.5,-225.5 "/>
<text text-anchor="start" x="772.5" y="-213.5" font-family="Helvetica,sans-Serif" font-size="10.00"># param_</text>
<polyline fill="none" stroke="black" points="764.5,-206.5 898.5,-206.5 "/>
<text text-anchor="start" x="772.5" y="-194.5" font-family="Helvetica,sans-Serif" font-size="10.00">+ ~BlockTree()</text>
<text text-anchor="start" x="772.5" y="-183.5" font-family="Helvetica,sans-Serif" font-size="10.00">+ BlockTree()</text>
<text text-anchor="start" x="772.5" y="-172.5" font-family="Helvetica,sans-Serif" font-size="10.00">+ getParams()</text>
<text text-anchor="start" x="772.5" y="-161.5" font-family="Helvetica,sans-Serif" font-size="10.00">+ bootstrapWithGenesis()</text>
<text text-anchor="start" x="772.5" y="-150.5" font-family="Helvetica,sans-Serif" font-size="10.00">+ bootstrapWithChain()</text>
<text text-anchor="start" x="772.5" y="-139.5" font-family="Helvetica,sans-Serif" font-size="10.00">+ acceptBlockHeader()</text>
<text text-anchor="start" x="772.5" y="-128.5" font-family="Helvetica,sans-Serif" font-size="10.00">+ acceptBlockHeader()</text>
<text text-anchor="start" x="772.5" y="-117.5" font-family="Helvetica,sans-Serif" font-size="10.00">+ toPrettyString()</text>
<text text-anchor="start" x="772.5" y="-106.5" font-family="Helvetica,sans-Serif" font-size="10.00">+ loadBlockForward()</text>
<text text-anchor="start" x="772.5" y="-95.5" font-family="Helvetica,sans-Serif" font-size="10.00">+ isBlockOld()</text>
<text text-anchor="start" x="772.5" y="-84.5" font-family="Helvetica,sans-Serif" font-size="10.00">+ isBlockOld()</text>
<text text-anchor="start" x="772.5" y="-73.5" font-family="Helvetica,sans-Serif" font-size="10.00">+ finalizeBlocks()</text>
<text text-anchor="start" x="772.5" y="-62.5" font-family="Helvetica,sans-Serif" font-size="10.00"># acceptBlockHeaderImpl()</text>
<text text-anchor="start" x="772.5" y="-51.5" font-family="Helvetica,sans-Serif" font-size="10.00"># bootstrap()</text>
<text text-anchor="start" x="772.5" y="-40.5" font-family="Helvetica,sans-Serif" font-size="10.00"># bootstrap()</text>
<text text-anchor="start" x="772.5" y="-29.5" font-family="Helvetica,sans-Serif" font-size="10.00"># validateAndAddBlock()</text>
<text text-anchor="start" x="772.5" y="-18.5" font-family="Helvetica,sans-Serif" font-size="10.00"># determineBestChain()</text>
<text text-anchor="start" x="772.5" y="-7.5" font-family="Helvetica,sans-Serif" font-size="10.00"># onBlockInserted()</text>
</a>
</g>
</g>
<!-- Node2 -->
<g id="node2" class="node">
<title>Node2</title>
<g id="a_node2"><a xlink:href="structaltintegration_1_1BaseBlockTree.html" target="_top" xlink:title="Base block tree that stores all blocks, maintains tree tips, maintains active chain.">
<polygon fill="white" stroke="black" points="755.5,-293.5 755.5,-559.5 907.5,-559.5 907.5,-293.5 755.5,-293.5"/>
<text text-anchor="start" x="763.5" y="-547.5" font-family="Helvetica,sans-Serif" font-size="10.00">altintegration::BaseBlock</text>
<text text-anchor="middle" x="831.5" y="-536.5" font-family="Helvetica,sans-Serif" font-size="10.00">Tree&lt; Block &gt;</text>
<polyline fill="none" stroke="black" points="755.5,-529.5 907.5,-529.5 "/>
<text text-anchor="start" x="763.5" y="-517.5" font-family="Helvetica,sans-Serif" font-size="10.00">+ onBlockBeforeDeallocated</text>
<text text-anchor="start" x="763.5" y="-506.5" font-family="Helvetica,sans-Serif" font-size="10.00">+ onBlockValidityChanged</text>
<text text-anchor="start" x="763.5" y="-495.5" font-family="Helvetica,sans-Serif" font-size="10.00">+ onBeforeOverrideTip</text>
<text text-anchor="start" x="763.5" y="-484.5" font-family="Helvetica,sans-Serif" font-size="10.00"># isLoadingBlocks_</text>
<text text-anchor="start" x="763.5" y="-473.5" font-family="Helvetica,sans-Serif" font-size="10.00"># isLoaded_</text>
<polyline fill="none" stroke="black" points="755.5,-466.5 907.5,-466.5 "/>
<text text-anchor="start" x="763.5" y="-454.5" font-family="Helvetica,sans-Serif" font-size="10.00">+ getTips()</text>
<text text-anchor="start" x="763.5" y="-443.5" font-family="Helvetica,sans-Serif" font-size="10.00">+ getBlocks()</text>
<text text-anchor="start" x="763.5" y="-432.5" font-family="Helvetica,sans-Serif" font-size="10.00">+ getAllBlocks()</text>
<text text-anchor="start" x="763.5" y="-421.5" font-family="Helvetica,sans-Serif" font-size="10.00">+ getBlockProvider()</text>
<text text-anchor="start" x="763.5" y="-410.5" font-family="Helvetica,sans-Serif" font-size="10.00">+ ~BaseBlockTree()</text>
<text text-anchor="start" x="763.5" y="-399.5" font-family="Helvetica,sans-Serif" font-size="10.00">+ BaseBlockTree()</text>
<text text-anchor="start" x="763.5" y="-388.5" font-family="Helvetica,sans-Serif" font-size="10.00">+ BaseBlockTree()</text>
<text text-anchor="start" x="763.5" y="-377.5" font-family="Helvetica,sans-Serif" font-size="10.00">+ operator=()</text>
<text text-anchor="start" x="763.5" y="-366.5" font-family="Helvetica,sans-Serif" font-size="10.00">+ BaseBlockTree()</text>
<text text-anchor="start" x="763.5" y="-355.5" font-family="Helvetica,sans-Serif" font-size="10.00">+ operator=()</text>
<text text-anchor="start" x="763.5" y="-344.5" font-family="Helvetica,sans-Serif" font-size="10.00">and 24 more...</text>
<text text-anchor="start" x="763.5" y="-333.5" font-family="Helvetica,sans-Serif" font-size="10.00"># deallocateBlock()</text>
<text text-anchor="start" x="763.5" y="-322.5" font-family="Helvetica,sans-Serif" font-size="10.00"># toPrettyString()</text>
<text text-anchor="start" x="763.5" y="-311.5" font-family="Helvetica,sans-Serif" font-size="10.00"># decreaseAppliedBlockCount()</text>
<text text-anchor="start" x="763.5" y="-300.5" font-family="Helvetica,sans-Serif" font-size="10.00"># decreaseAppliedBlockCount()</text>
</a>
</g>
</g>
<!-- Node2&#45;&gt;Node1 -->
<g id="edge1" class="edge">
<title>Node2&#45;&gt;Node1</title>
<path fill="none" stroke="midnightblue" d="M831.5,-283C831.5,-273.87 831.5,-264.72 831.5,-255.67"/>
<polygon fill="none" stroke="midnightblue" points="828,-283.29 831.5,-293.29 835,-283.29 828,-283.29"/>
</g>
<!-- Node3 -->
<g id="node3" class="node">
<title>Node3</title>
<g id="a_node3"><a xlink:title=" ">
<polygon fill="white" stroke="black" points="34,-657 34,-736 171,-736 171,-657 34,-657"/>
<text text-anchor="start" x="42" y="-724" font-family="Helvetica,sans-Serif" font-size="10.00">std::unordered_map</text>
<text text-anchor="start" x="42" y="-713" font-family="Helvetica,sans-Serif" font-size="10.00">&lt; prev_block_hash_t,</text>
<text text-anchor="middle" x="102.5" y="-702" font-family="Helvetica,sans-Serif" font-size="10.00"> std::unique_ptr&lt; index_t &gt; &gt;</text>
<polyline fill="none" stroke="black" points="34,-695 171,-695 "/>
<text text-anchor="start" x="42" y="-683" font-family="Helvetica,sans-Serif" font-size="10.00">+ keys</text>
<polyline fill="none" stroke="black" points="34,-676 171,-676 "/>
<text text-anchor="middle" x="102.5" y="-664" font-family="Helvetica,sans-Serif" font-size="10.00"> </text>
</a>
</g>
</g>
<!-- Node3&#45;&gt;Node2 -->
<g id="edge2" class="edge">
<title>Node3&#45;&gt;Node2</title>
<path fill="none" stroke="#404040" d="M171.08,-670.29C304.03,-621.41 596.63,-513.84 743.61,-459.81"/>
<polygon fill="none" stroke="#404040" points="743.96,-459.68 748.21,-453.86 755.22,-455.54 750.97,-461.37 743.96,-459.68"/>
<text text-anchor="middle" x="423.5" y="-581" font-family="Helvetica,sans-Serif" font-size="10.00"> #blocks_</text>
</g>
<!-- Node4 -->
<g id="node4" class="node">
<title>Node4</title>
<g id="a_node4"><a xlink:title=" ">
<polygon fill="white" stroke="black" points="0,-1074.5 0,-1131.5 127,-1131.5 127,-1074.5 0,-1074.5"/>
<text text-anchor="middle" x="63.5" y="-1119.5" font-family="Helvetica,sans-Serif" font-size="10.00">std::unique_ptr&lt; index_t &gt;</text>
<polyline fill="none" stroke="black" points="0,-1112.5 127,-1112.5 "/>
<text text-anchor="start" x="8" y="-1100.5" font-family="Helvetica,sans-Serif" font-size="10.00">+ ptr</text>
<polyline fill="none" stroke="black" points="0,-1093.5 127,-1093.5 "/>
<text text-anchor="start" x="8" y="-1081.5" font-family="Helvetica,sans-Serif" font-size="10.00">+ operator&#45;&gt;()</text>
</a>
</g>
</g>
<!-- Node4&#45;&gt;Node3 -->
<g id="edge3" class="edge">
<title>Node4&#45;&gt;Node3</title>
<path fill="none" stroke="#404040" d="M55.8,-1074.46C54.43,-1068.42 53.21,-1062.03 52.5,-1056 41.47,-962.43 37.07,-936.95 52.5,-844 57.99,-810.94 69.99,-775.33 80.86,-747.5"/>
<polygon fill="none" stroke="#404040" points="80.97,-747.22 79.49,-740.16 85.43,-736.08 86.91,-743.13 80.97,-747.22"/>
<text text-anchor="middle" x="77" y="-947.5" font-family="Helvetica,sans-Serif" font-size="10.00"> +elements</text>
</g>
<!-- Node5 -->
<g id="node5" class="node">
<title>Node5</title>
<g id="a_node5"><a xlink:title=" ">
<polygon fill="white" stroke="black" points="34.5,-1226.5 34.5,-1283.5 136.5,-1283.5 136.5,-1226.5 34.5,-1226.5"/>
<text text-anchor="middle" x="85.5" y="-1271.5" font-family="Helvetica,sans-Serif" font-size="10.00">std::unique_ptr&lt; T &gt;</text>
<polyline fill="none" stroke="black" points="34.5,-1264.5 136.5,-1264.5 "/>
<text text-anchor="middle" x="85.5" y="-1252.5" font-family="Helvetica,sans-Serif" font-size="10.00"> </text>
<polyline fill="none" stroke="black" points="34.5,-1245.5 136.5,-1245.5 "/>
<text text-anchor="start" x="42.5" y="-1233.5" font-family="Helvetica,sans-Serif" font-size="10.00">+ operator&#45;&gt;()</text>
</a>
</g>
</g>
<!-- Node5&#45;&gt;Node4 -->
<g id="edge4" class="edge">
<title>Node5&#45;&gt;Node4</title>
<path fill="none" stroke="orange" d="M80,-1216.47C76.13,-1190.11 71.04,-1155.43 67.55,-1131.59"/>
<polygon fill="orange" stroke="orange" points="76.55,-1217.1 81.46,-1226.49 83.48,-1216.09 76.55,-1217.1"/>
<text text-anchor="middle" x="103.5" y="-1176.5" font-family="Helvetica,sans-Serif" font-size="10.00"> &lt; index_t &gt;</text>
</g>
<!-- Node6 -->
<g id="node6" class="node">
<title>Node6</title>
<g id="a_node6"><a xlink:title=" ">
<polygon fill="white" stroke="#bfbfbf" points="147,-1407.5 147,-1464.5 176,-1464.5 176,-1407.5 147,-1407.5"/>
<text text-anchor="middle" x="161.5" y="-1452.5" font-family="Helvetica,sans-Serif" font-size="10.00">T</text>
<polyline fill="none" stroke="#bfbfbf" points="147,-1445.5 176,-1445.5 "/>
<text text-anchor="middle" x="161.5" y="-1433.5" font-family="Helvetica,sans-Serif" font-size="10.00"> </text>
<polyline fill="none" stroke="#bfbfbf" points="147,-1426.5 176,-1426.5 "/>
<text text-anchor="middle" x="161.5" y="-1414.5" font-family="Helvetica,sans-Serif" font-size="10.00"> </text>
</a>
</g>
</g>
<!-- Node6&#45;&gt;Node5 -->
<g id="edge5" class="edge">
<title>Node6&#45;&gt;Node5</title>
<path fill="none" stroke="#404040" d="M146.81,-1417.98C140.2,-1409.67 132.73,-1399.26 127.5,-1389 112.25,-1359.06 101.19,-1322.51 94.26,-1295.3"/>
<polygon fill="none" stroke="#404040" points="94.23,-1295.17 88.92,-1290.3 91.37,-1283.52 96.68,-1288.39 94.23,-1295.17"/>
<text text-anchor="middle" x="137.5" y="-1381" font-family="Helvetica,sans-Serif" font-size="10.00"> +ptr</text>
</g>
<!-- Node7 -->
<g id="node7" class="node">
<title>Node7</title>
<g id="a_node7"><a xlink:title=" ">
<polygon fill="white" stroke="black" points="111,-916 111,-984 212,-984 212,-916 111,-916"/>
<text text-anchor="start" x="119" y="-972" font-family="Helvetica,sans-Serif" font-size="10.00">std::unordered_map</text>
<text text-anchor="middle" x="161.5" y="-961" font-family="Helvetica,sans-Serif" font-size="10.00">&lt; K, T &gt;</text>
<polyline fill="none" stroke="black" points="111,-954 212,-954 "/>
<text text-anchor="middle" x="161.5" y="-942" font-family="Helvetica,sans-Serif" font-size="10.00"> </text>
<polyline fill="none" stroke="black" points="111,-935 212,-935 "/>
<text text-anchor="middle" x="161.5" y="-923" font-family="Helvetica,sans-Serif" font-size="10.00"> </text>
</a>
</g>
</g>
<!-- Node6&#45;&gt;Node7 -->
<g id="edge8" class="edge">
<title>Node6&#45;&gt;Node7</title>
<path fill="none" stroke="#404040" d="M161.5,-1407.24C161.5,-1327.19 161.5,-1095.33 161.5,-996.5"/>
<polygon fill="none" stroke="#404040" points="161.5,-996.29 157.5,-990.29 161.5,-984.29 165.5,-990.29 161.5,-996.29"/>
<text text-anchor="middle" x="186" y="-1252.5" font-family="Helvetica,sans-Serif" font-size="10.00"> +elements</text>
</g>
<!-- Node15 -->
<g id="node15" class="node">
<title>Node15</title>
<g id="a_node15"><a xlink:title=" ">
<polygon fill="white" stroke="black" points="239,-1302.5 239,-1359.5 342,-1359.5 342,-1302.5 239,-1302.5"/>
<text text-anchor="middle" x="290.5" y="-1347.5" font-family="Helvetica,sans-Serif" font-size="10.00">std::shared_ptr&lt; T &gt;</text>
<polyline fill="none" stroke="black" points="239,-1340.5 342,-1340.5 "/>
<text text-anchor="middle" x="290.5" y="-1328.5" font-family="Helvetica,sans-Serif" font-size="10.00"> </text>
<polyline fill="none" stroke="black" points="239,-1321.5 342,-1321.5 "/>
<text text-anchor="start" x="247" y="-1309.5" font-family="Helvetica,sans-Serif" font-size="10.00">+ operator&#45;&gt;()</text>
</a>
</g>
</g>
<!-- Node6&#45;&gt;Node15 -->
<g id="edge19" class="edge">
<title>Node6&#45;&gt;Node15</title>
<path fill="none" stroke="#404040" d="M176.3,-1423.18C193.3,-1409.61 221.99,-1386.7 246.36,-1367.24"/>
<polygon fill="none" stroke="#404040" points="246.42,-1367.19 248.62,-1360.32 255.8,-1359.71 253.61,-1366.58 246.42,-1367.19"/>
<text text-anchor="middle" x="240.5" y="-1381" font-family="Helvetica,sans-Serif" font-size="10.00"> +ptr</text>
</g>
<!-- Node7&#45;&gt;Node3 -->
<g id="edge6" class="edge">
<title>Node7&#45;&gt;Node3</title>
<path fill="none" stroke="orange" d="M136.21,-907.16C123.73,-884.1 109.99,-854.45 103.5,-826 96.75,-796.42 96.89,-762 98.51,-736.23"/>
<polygon fill="orange" stroke="orange" points="133.19,-908.92 141.09,-915.97 139.31,-905.53 133.19,-908.92"/>
<text text-anchor="start" x="103.5" y="-818" font-family="Helvetica,sans-Serif" font-size="10.00"> &lt; prev_block_hash_t,</text>
<text text-anchor="middle" x="164" y="-807" font-family="Helvetica,sans-Serif" font-size="10.00"> std::unique_ptr&lt; index_t &gt; &gt;</text>
</g>
<!-- Node8 -->
<g id="node8" class="node">
<title>Node8</title>
<g id="a_node8"><a xlink:title=" ">
<polygon fill="white" stroke="#bfbfbf" points="275,-1150.5 275,-1207.5 304,-1207.5 304,-1150.5 275,-1150.5"/>
<text text-anchor="middle" x="289.5" y="-1195.5" font-family="Helvetica,sans-Serif" font-size="10.00">K</text>
<polyline fill="none" stroke="#bfbfbf" points="275,-1188.5 304,-1188.5 "/>
<text text-anchor="middle" x="289.5" y="-1176.5" font-family="Helvetica,sans-Serif" font-size="10.00"> </text>
<polyline fill="none" stroke="#bfbfbf" points="275,-1169.5 304,-1169.5 "/>
<text text-anchor="middle" x="289.5" y="-1157.5" font-family="Helvetica,sans-Serif" font-size="10.00"> </text>
</a>
</g>
</g>
<!-- Node8&#45;&gt;Node7 -->
<g id="edge7" class="edge">
<title>Node8&#45;&gt;Node7</title>
<path fill="none" stroke="#404040" d="M274.75,-1158.71C268.82,-1150.63 262.07,-1141.03 256.5,-1132 228.55,-1086.7 200.74,-1032.35 182.5,-995.11"/>
<polygon fill="none" stroke="#404040" points="182.41,-994.92 176.19,-991.27 177.16,-984.13 183.38,-987.77 182.41,-994.92"/>
<text text-anchor="middle" x="271" y="-1100.5" font-family="Helvetica,sans-Serif" font-size="10.00"> +keys</text>
</g>
<!-- Node13 -->
<g id="node13" class="node">
<title>Node13</title>
<g id="a_node13"><a xlink:title=" ">
<polygon fill="white" stroke="black" points="367,-921.5 367,-978.5 438,-978.5 438,-921.5 367,-921.5"/>
<text text-anchor="middle" x="402.5" y="-966.5" font-family="Helvetica,sans-Serif" font-size="10.00">std::set&lt; K &gt;</text>
<polyline fill="none" stroke="black" points="367,-959.5 438,-959.5 "/>
<text text-anchor="middle" x="402.5" y="-947.5" font-family="Helvetica,sans-Serif" font-size="10.00"> </text>
<polyline fill="none" stroke="black" points="367,-940.5 438,-940.5 "/>
<text text-anchor="middle" x="402.5" y="-928.5" font-family="Helvetica,sans-Serif" font-size="10.00"> </text>
</a>
</g>
</g>
<!-- Node8&#45;&gt;Node13 -->
<g id="edge16" class="edge">
<title>Node8&#45;&gt;Node13</title>
<path fill="none" stroke="#404040" d="M304.15,-1159.3C310.21,-1151.15 317.06,-1141.34 322.5,-1132 349.7,-1085.24 373.71,-1027.53 388.16,-990.02"/>
<polygon fill="none" stroke="#404040" points="388.24,-989.81 386.63,-982.78 392.51,-978.6 394.11,-985.63 388.24,-989.81"/>
<text text-anchor="middle" x="368" y="-1100.5" font-family="Helvetica,sans-Serif" font-size="10.00"> +keys</text>
</g>
<!-- Node16 -->
<g id="node16" class="node">
<title>Node16</title>
<g id="a_node16"><a xlink:title=" ">
<polygon fill="white" stroke="black" points="230,-921.5 230,-978.5 349,-978.5 349,-921.5 230,-921.5"/>
<text text-anchor="middle" x="289.5" y="-966.5" font-family="Helvetica,sans-Serif" font-size="10.00">std::unordered_set&lt; K &gt;</text>
<polyline fill="none" stroke="black" points="230,-959.5 349,-959.5 "/>
<text text-anchor="middle" x="289.5" y="-947.5" font-family="Helvetica,sans-Serif" font-size="10.00"> </text>
<polyline fill="none" stroke="black" points="230,-940.5 349,-940.5 "/>
<text text-anchor="middle" x="289.5" y="-928.5" font-family="Helvetica,sans-Serif" font-size="10.00"> </text>
</a>
</g>
</g>
<!-- Node8&#45;&gt;Node16 -->
<g id="edge21" class="edge">
<title>Node8&#45;&gt;Node16</title>
<path fill="none" stroke="#404040" d="M289.5,-1150.17C289.5,-1110.23 289.5,-1036.48 289.5,-990.8"/>
<polygon fill="none" stroke="#404040" points="289.5,-990.71 285.5,-984.71 289.5,-978.71 293.5,-984.71 289.5,-990.71"/>
<text text-anchor="middle" x="304" y="-1100.5" font-family="Helvetica,sans-Serif" font-size="10.00"> +keys</text>
</g>
<!-- Node9 -->
<g id="node9" class="node">
<title>Node9</title>
<g id="a_node9"><a xlink:title=" ">
<polygon fill="white" stroke="black" points="385,-662.5 385,-730.5 532,-730.5 532,-662.5 385,-662.5"/>
<text text-anchor="start" x="393" y="-718.5" font-family="Helvetica,sans-Serif" font-size="10.00">std::unordered_set</text>
<text text-anchor="middle" x="458.5" y="-707.5" font-family="Helvetica,sans-Serif" font-size="10.00">&lt; altintegration::BlockIndex * &gt;</text>
<polyline fill="none" stroke="black" points="385,-700.5 532,-700.5 "/>
<text text-anchor="middle" x="458.5" y="-688.5" font-family="Helvetica,sans-Serif" font-size="10.00"> </text>
<polyline fill="none" stroke="black" points="385,-681.5 532,-681.5 "/>
<text text-anchor="middle" x="458.5" y="-669.5" font-family="Helvetica,sans-Serif" font-size="10.00"> </text>
</a>
</g>
</g>
<!-- Node9&#45;&gt;Node2 -->
<g id="edge9" class="edge">
<title>Node9&#45;&gt;Node2</title>
<path fill="none" stroke="#404040" d="M485.82,-662.37C501.18,-644.82 521.29,-623.54 541.5,-607 605.15,-554.91 685.11,-506.5 744.94,-473.11"/>
<polygon fill="none" stroke="#404040" points="745,-473.08 748.31,-466.67 755.49,-467.26 752.18,-473.67 745,-473.08"/>
<text text-anchor="middle" x="593" y="-581" font-family="Helvetica,sans-Serif" font-size="10.00"> #tips_</text>
</g>
<!-- Node10 -->
<g id="node10" class="node">
<title>Node10</title>
<g id="a_node10"><a xlink:href="structaltintegration_1_1BlockIndex.html" target="_top" xlink:title="A node in a block tree.">
<polygon fill="white" stroke="black" points="500,-844.5 500,-1055.5 625,-1055.5 625,-844.5 500,-844.5"/>
<text text-anchor="start" x="508" y="-1043.5" font-family="Helvetica,sans-Serif" font-size="10.00">altintegration::BlockIndex</text>
<text text-anchor="middle" x="562.5" y="-1032.5" font-family="Helvetica,sans-Serif" font-size="10.00">&lt; Block &gt;</text>
<polyline fill="none" stroke="black" points="500,-1025.5 625,-1025.5 "/>
<text text-anchor="start" x="508" y="-1013.5" font-family="Helvetica,sans-Serif" font-size="10.00">+ finalized</text>
<text text-anchor="start" x="508" y="-1002.5" font-family="Helvetica,sans-Serif" font-size="10.00"># height</text>
<text text-anchor="start" x="508" y="-991.5" font-family="Helvetica,sans-Serif" font-size="10.00"># status</text>
<text text-anchor="start" x="508" y="-980.5" font-family="Helvetica,sans-Serif" font-size="10.00"># dirty</text>
<polyline fill="none" stroke="black" points="500,-973.5 625,-973.5 "/>
<text text-anchor="start" x="508" y="-961.5" font-family="Helvetica,sans-Serif" font-size="10.00">+ BlockIndex()</text>
<text text-anchor="start" x="508" y="-950.5" font-family="Helvetica,sans-Serif" font-size="10.00">+ BlockIndex()</text>
<text text-anchor="start" x="508" y="-939.5" font-family="Helvetica,sans-Serif" font-size="10.00">+ ~BlockIndex()</text>
<text text-anchor="start" x="508" y="-928.5" font-family="Helvetica,sans-Serif" font-size="10.00">+ disconnectFromPrev()</text>
<text text-anchor="start" x="508" y="-917.5" font-family="Helvetica,sans-Serif" font-size="10.00">+ isTip()</text>
<text text-anchor="start" x="508" y="-906.5" font-family="Helvetica,sans-Serif" font-size="10.00">+ BlockIndex()</text>
<text text-anchor="start" x="508" y="-895.5" font-family="Helvetica,sans-Serif" font-size="10.00">+ operator=()</text>
<text text-anchor="start" x="508" y="-884.5" font-family="Helvetica,sans-Serif" font-size="10.00">+ isDeleted()</text>
<text text-anchor="start" x="508" y="-873.5" font-family="Helvetica,sans-Serif" font-size="10.00">+ isRoot()</text>
<text text-anchor="start" x="508" y="-862.5" font-family="Helvetica,sans-Serif" font-size="10.00">+ restore()</text>
<text text-anchor="start" x="508" y="-851.5" font-family="Helvetica,sans-Serif" font-size="10.00">and 42 more...</text>
</a>
</g>
</g>
<!-- Node10&#45;&gt;Node9 -->
<g id="edge10" class="edge">
<title>Node10&#45;&gt;Node9</title>
<path fill="none" stroke="#404040" d="M549.64,-844.34C546.24,-830.49 541.94,-816.69 536.5,-804 526.71,-781.14 511.2,-758.53 496.59,-740.06"/>
<polygon fill="none" stroke="#404040" points="496.41,-739.84 489.52,-737.71 488.84,-730.53 495.72,-732.66 496.41,-739.84"/>
<text text-anchor="middle" x="558" y="-812.5" font-family="Helvetica,sans-Serif" font-size="10.00"> +keys</text>
</g>
<!-- Node10&#45;&gt;Node10 -->
<g id="edge12" class="edge">
<title>Node10&#45;&gt;Node10</title>
<path fill="none" stroke="#404040" d="M625.28,-973.35C635.76,-970.08 643,-962.3 643,-950 643,-942.5 640.31,-936.69 635.84,-932.54"/>
<polygon fill="none" stroke="#404040" points="635.76,-932.5 628.57,-933.06 625.28,-926.65 632.47,-926.08 635.76,-932.5"/>
<text text-anchor="middle" x="659.5" y="-947.5" font-family="Helvetica,sans-Serif" font-size="10.00"> +pprev</text>
</g>
<!-- Node12 -->
<g id="node12" class="node">
<title>Node12</title>
<g id="a_node12"><a xlink:title=" ">
<polygon fill="white" stroke="black" points="550.5,-662.5 550.5,-730.5 662.5,-730.5 662.5,-662.5 550.5,-662.5"/>
<text text-anchor="start" x="558.5" y="-718.5" font-family="Helvetica,sans-Serif" font-size="10.00">std::set&lt; altintegration</text>
<text text-anchor="middle" x="606.5" y="-707.5" font-family="Helvetica,sans-Serif" font-size="10.00">::BlockIndex * &gt;</text>
<polyline fill="none" stroke="black" points="550.5,-700.5 662.5,-700.5 "/>
<text text-anchor="middle" x="606.5" y="-688.5" font-family="Helvetica,sans-Serif" font-size="10.00"> </text>
<polyline fill="none" stroke="black" points="550.5,-681.5 662.5,-681.5 "/>
<text text-anchor="middle" x="606.5" y="-669.5" font-family="Helvetica,sans-Serif" font-size="10.00"> </text>
</a>
</g>
</g>
<!-- Node10&#45;&gt;Node12 -->
<g id="edge14" class="edge">
<title>Node10&#45;&gt;Node12</title>
<path fill="none" stroke="#404040" d="M622.88,-844.35C625.06,-838.25 626.96,-832.11 628.5,-826 635.42,-798.46 630.27,-767.05 623.23,-742.17"/>
<polygon fill="none" stroke="#404040" points="623.17,-742.01 617.59,-737.44 619.66,-730.54 625.24,-735.1 623.17,-742.01"/>
<text text-anchor="middle" x="647" y="-812.5" font-family="Helvetica,sans-Serif" font-size="10.00"> +keys</text>
</g>
<!-- Node11 -->
<g id="node11" class="node">
<title>Node11</title>
<g id="a_node11"><a xlink:title=" ">
<polygon fill="white" stroke="#bfbfbf" points="522.5,-1150.5 522.5,-1207.5 602.5,-1207.5 602.5,-1150.5 522.5,-1150.5"/>
<text text-anchor="middle" x="562.5" y="-1195.5" font-family="Helvetica,sans-Serif" font-size="10.00">Block::addon_t</text>
<polyline fill="none" stroke="#bfbfbf" points="522.5,-1188.5 602.5,-1188.5 "/>
<text text-anchor="middle" x="562.5" y="-1176.5" font-family="Helvetica,sans-Serif" font-size="10.00"> </text>
<polyline fill="none" stroke="#bfbfbf" points="522.5,-1169.5 602.5,-1169.5 "/>
<text text-anchor="middle" x="562.5" y="-1157.5" font-family="Helvetica,sans-Serif" font-size="10.00"> </text>
</a>
</g>
</g>
<!-- Node11&#45;&gt;Node10 -->
<g id="edge11" class="edge">
<title>Node11&#45;&gt;Node10</title>
<path fill="none" stroke="midnightblue" d="M562.5,-1140.05C562.5,-1116.79 562.5,-1085.76 562.5,-1055.58"/>
<polygon fill="none" stroke="midnightblue" points="559,-1140.17 562.5,-1150.17 566,-1140.17 559,-1140.17"/>
</g>
<!-- Node12&#45;&gt;Node10 -->
<g id="edge13" class="edge">
<title>Node12&#45;&gt;Node10</title>
<path fill="none" stroke="#404040" d="M602.5,-730.61C599.21,-756.62 594.17,-793.72 588.5,-826 588.12,-828.16 587.73,-830.35 587.33,-832.54"/>
<polygon fill="none" stroke="#404040" points="587.32,-832.62 590.15,-839.25 585.12,-844.42 582.29,-837.79 587.32,-832.62"/>
<text text-anchor="middle" x="608.5" y="-812.5" font-family="Helvetica,sans-Serif" font-size="10.00"> +pnext</text>
</g>
<!-- Node13&#45;&gt;Node12 -->
<g id="edge15" class="edge">
<title>Node13&#45;&gt;Node12</title>
<path fill="none" stroke="orange" d="M389.18,-911.9C380.13,-879.43 373.94,-833.03 399.5,-804 420.37,-780.29 513.22,-801.93 540.5,-786 562.35,-773.24 579.21,-750.11 590.42,-730.7"/>
<polygon fill="orange" stroke="orange" points="385.83,-912.91 392.04,-921.49 392.54,-910.91 385.83,-912.91"/>
<text text-anchor="middle" x="466" y="-812.5" font-family="Helvetica,sans-Serif" font-size="10.00"> &lt; altintegration::BlockIndex * &gt;</text>
</g>
<!-- Node14 -->
<g id="node14" class="node">
<title>Node14</title>
<g id="a_node14"><a xlink:title=" ">
<polygon fill="white" stroke="black" points="352.5,-1150.5 352.5,-1207.5 480.5,-1207.5 480.5,-1150.5 352.5,-1150.5"/>
<text text-anchor="middle" x="416.5" y="-1195.5" font-family="Helvetica,sans-Serif" font-size="10.00">std::shared_ptr&lt; block_t &gt;</text>
<polyline fill="none" stroke="black" points="352.5,-1188.5 480.5,-1188.5 "/>
<text text-anchor="start" x="360.5" y="-1176.5" font-family="Helvetica,sans-Serif" font-size="10.00">+ ptr</text>
<polyline fill="none" stroke="black" points="352.5,-1169.5 480.5,-1169.5 "/>
<text text-anchor="start" x="360.5" y="-1157.5" font-family="Helvetica,sans-Serif" font-size="10.00">+ operator&#45;&gt;()</text>
</a>
</g>
</g>
<!-- Node14&#45;&gt;Node10 -->
<g id="edge17" class="edge">
<title>Node14&#45;&gt;Node10</title>
<path fill="none" stroke="#404040" d="M434.4,-1150.17C449.27,-1127.04 471.44,-1092.58 493.17,-1058.8"/>
<polygon fill="none" stroke="#404040" points="493.4,-1058.44 493.28,-1051.23 499.89,-1048.35 500.01,-1055.56 493.4,-1058.44"/>
<text text-anchor="middle" x="500" y="-1100.5" font-family="Helvetica,sans-Serif" font-size="10.00"> #header</text>
</g>
<!-- Node15&#45;&gt;Node14 -->
<g id="edge18" class="edge">
<title>Node15&#45;&gt;Node14</title>
<path fill="none" stroke="orange" d="M320.27,-1294.56C342.61,-1267.96 372.76,-1232.07 393.32,-1207.59"/>
<polygon fill="orange" stroke="orange" points="317.36,-1292.58 313.61,-1302.49 322.72,-1297.08 317.36,-1292.58"/>
<text text-anchor="middle" x="402" y="-1252.5" font-family="Helvetica,sans-Serif" font-size="10.00"> &lt; block_t &gt;</text>
</g>
<!-- Node16&#45;&gt;Node9 -->
<g id="edge20" class="edge">
<title>Node16&#45;&gt;Node9</title>
<path fill="none" stroke="orange" d="M263.5,-912.61C245.01,-881.88 226.81,-837.62 247.5,-804 277.29,-755.6 336.6,-728.4 384.78,-713.62"/>
<polygon fill="orange" stroke="orange" points="260.66,-914.69 268.94,-921.3 266.59,-910.97 260.66,-914.69"/>
<text text-anchor="middle" x="314" y="-812.5" font-family="Helvetica,sans-Serif" font-size="10.00"> &lt; altintegration::BlockIndex * &gt;</text>
</g>
<!-- Node17 -->
<g id="node17" class="node">
<title>Node17</title>
<g id="a_node17"><a xlink:href="structaltintegration_1_1Chain.html" target="_top" xlink:title=" ">
<polygon fill="white" stroke="black" points="681,-607.5 681,-785.5 822,-785.5 822,-607.5 681,-607.5"/>
<text text-anchor="start" x="689" y="-773.5" font-family="Helvetica,sans-Serif" font-size="10.00">altintegration::Chain</text>
<text text-anchor="middle" x="751.5" y="-762.5" font-family="Helvetica,sans-Serif" font-size="10.00">&lt; altintegration::BlockIndex &gt;</text>
<polyline fill="none" stroke="black" points="681,-755.5 822,-755.5 "/>
<text text-anchor="middle" x="751.5" y="-743.5" font-family="Helvetica,sans-Serif" font-size="10.00"> </text>
<polyline fill="none" stroke="black" points="681,-736.5 822,-736.5 "/>
<text text-anchor="start" x="689" y="-724.5" font-family="Helvetica,sans-Serif" font-size="10.00">+ Chain()</text>
<text text-anchor="start" x="689" y="-713.5" font-family="Helvetica,sans-Serif" font-size="10.00">+ Chain()</text>
<text text-anchor="start" x="689" y="-702.5" font-family="Helvetica,sans-Serif" font-size="10.00">+ Chain()</text>
<text text-anchor="start" x="689" y="-691.5" font-family="Helvetica,sans-Serif" font-size="10.00">+ getStartHeight()</text>
<text text-anchor="start" x="689" y="-680.5" font-family="Helvetica,sans-Serif" font-size="10.00">+ firstHeight()</text>
<text text-anchor="start" x="689" y="-669.5" font-family="Helvetica,sans-Serif" font-size="10.00">+ contains()</text>
<text text-anchor="start" x="689" y="-658.5" font-family="Helvetica,sans-Serif" font-size="10.00">+ operator[]()</text>
<text text-anchor="start" x="689" y="-647.5" font-family="Helvetica,sans-Serif" font-size="10.00">+ next()</text>
<text text-anchor="start" x="689" y="-636.5" font-family="Helvetica,sans-Serif" font-size="10.00">+ chainHeight()</text>
<text text-anchor="start" x="689" y="-625.5" font-family="Helvetica,sans-Serif" font-size="10.00">+ empty()</text>
<text text-anchor="start" x="689" y="-614.5" font-family="Helvetica,sans-Serif" font-size="10.00">and 15 more...</text>
</a>
</g>
</g>
<!-- Node17&#45;&gt;Node2 -->
<g id="edge22" class="edge">
<title>Node17&#45;&gt;Node2</title>
<path fill="none" stroke="#404040" d="M777.81,-607.38C781.26,-595.81 784.86,-583.73 788.5,-571.54"/>
<polygon fill="none" stroke="#404040" points="788.56,-571.33 786.45,-564.44 792,-559.83 794.11,-566.73 788.56,-571.33"/>
<text text-anchor="middle" x="815.5" y="-581" font-family="Helvetica,sans-Serif" font-size="10.00"> #activeChain_</text>
</g>
<!-- Node18 -->
<g id="node18" class="node">
<title>Node18</title>
<g id="a_node18"><a xlink:href="structaltintegration_1_1Chain.html" target="_top" xlink:title="Fully in&#45;memory chain representation.">
<polygon fill="white" stroke="black" points="701,-861 701,-1039 802,-1039 802,-861 701,-861"/>
<text text-anchor="start" x="709" y="-1027" font-family="Helvetica,sans-Serif" font-size="10.00">altintegration::Chain</text>
<text text-anchor="middle" x="751.5" y="-1016" font-family="Helvetica,sans-Serif" font-size="10.00">&lt; BlockIndexT &gt;</text>
<polyline fill="none" stroke="black" points="701,-1009 802,-1009 "/>
<text text-anchor="middle" x="751.5" y="-997" font-family="Helvetica,sans-Serif" font-size="10.00"> </text>
<polyline fill="none" stroke="black" points="701,-990 802,-990 "/>
<text text-anchor="start" x="709" y="-978" font-family="Helvetica,sans-Serif" font-size="10.00">+ Chain()</text>
<text text-anchor="start" x="709" y="-967" font-family="Helvetica,sans-Serif" font-size="10.00">+ Chain()</text>
<text text-anchor="start" x="709" y="-956" font-family="Helvetica,sans-Serif" font-size="10.00">+ Chain()</text>
<text text-anchor="start" x="709" y="-945" font-family="Helvetica,sans-Serif" font-size="10.00">+ getStartHeight()</text>
<text text-anchor="start" x="709" y="-934" font-family="Helvetica,sans-Serif" font-size="10.00">+ firstHeight()</text>
<text text-anchor="start" x="709" y="-923" font-family="Helvetica,sans-Serif" font-size="10.00">+ contains()</text>
<text text-anchor="start" x="709" y="-912" font-family="Helvetica,sans-Serif" font-size="10.00">+ operator[]()</text>
<text text-anchor="start" x="709" y="-901" font-family="Helvetica,sans-Serif" font-size="10.00">+ next()</text>
<text text-anchor="start" x="709" y="-890" font-family="Helvetica,sans-Serif" font-size="10.00">+ chainHeight()</text>
<text text-anchor="start" x="709" y="-879" font-family="Helvetica,sans-Serif" font-size="10.00">+ empty()</text>
<text text-anchor="start" x="709" y="-868" font-family="Helvetica,sans-Serif" font-size="10.00">and 15 more...</text>
</a>
</g>
</g>
<!-- Node18&#45;&gt;Node17 -->
<g id="edge23" class="edge">
<title>Node18&#45;&gt;Node17</title>
<path fill="none" stroke="orange" d="M751.5,-850.59C751.5,-829.16 751.5,-806.61 751.5,-785.6"/>
<polygon fill="orange" stroke="orange" points="748,-850.68 751.5,-860.68 755,-850.68 748,-850.68"/>
<text text-anchor="middle" x="815" y="-812.5" font-family="Helvetica,sans-Serif" font-size="10.00"> &lt; altintegration::BlockIndex &gt;</text>
</g>
<!-- Node19 -->
<g id="node19" class="node">
<title>Node19</title>
<g id="a_node19"><a xlink:href="structaltintegration_1_1FinalizedPayloadsIndex.html" target="_top" xlink:title=" ">
<polygon fill="white" stroke="black" points="840,-624 840,-769 983,-769 983,-624 840,-624"/>
<text text-anchor="start" x="848" y="-757" font-family="Helvetica,sans-Serif" font-size="10.00">altintegration::Finalized</text>
<text text-anchor="start" x="848" y="-746" font-family="Helvetica,sans-Serif" font-size="10.00">PayloadsIndex&lt; altintegration</text>
<text text-anchor="middle" x="911.5" y="-735" font-family="Helvetica,sans-Serif" font-size="10.00">::BlockIndex &gt;</text>
<polyline fill="none" stroke="black" points="840,-728 983,-728 "/>
<text text-anchor="middle" x="911.5" y="-716" font-family="Helvetica,sans-Serif" font-size="10.00"> </text>
<polyline fill="none" stroke="black" points="840,-709 983,-709 "/>
<text text-anchor="start" x="848" y="-697" font-family="Helvetica,sans-Serif" font-size="10.00">+ find()</text>
<text text-anchor="start" x="848" y="-686" font-family="Helvetica,sans-Serif" font-size="10.00">+ empty()</text>
<text text-anchor="start" x="848" y="-675" font-family="Helvetica,sans-Serif" font-size="10.00">+ size()</text>
<text text-anchor="start" x="848" y="-664" font-family="Helvetica,sans-Serif" font-size="10.00">+ add()</text>
<text text-anchor="start" x="848" y="-653" font-family="Helvetica,sans-Serif" font-size="10.00">+ remove()</text>
<text text-anchor="start" x="848" y="-642" font-family="Helvetica,sans-Serif" font-size="10.00">+ addBlock()</text>
<text text-anchor="start" x="848" y="-631" font-family="Helvetica,sans-Serif" font-size="10.00">+ getAll()</text>
</a>
</g>
</g>
<!-- Node19&#45;&gt;Node2 -->
<g id="edge24" class="edge">
<title>Node19&#45;&gt;Node2</title>
<path fill="none" stroke="#404040" d="M890.06,-623.68C885.18,-607.32 879.82,-589.38 874.39,-571.19"/>
<polygon fill="none" stroke="#404040" points="874.35,-571.04 868.8,-566.43 870.91,-559.54 876.46,-564.14 874.35,-571.04"/>
<text text-anchor="middle" x="934" y="-581" font-family="Helvetica,sans-Serif" font-size="10.00"> #finalizedPayloadsIndex_</text>
</g>
<!-- Node20 -->
<g id="node20" class="node">
<title>Node20</title>
<g id="a_node20"><a xlink:href="structaltintegration_1_1FinalizedPayloadsIndex.html" target="_top" xlink:title="Stores a mapping &quot;payload id &#45;&gt; containing block&quot; hash of payloads that are stored in finalized block...">
<polygon fill="white" stroke="black" points="831,-883 831,-1017 992,-1017 992,-883 831,-883"/>
<text text-anchor="start" x="839" y="-1005" font-family="Helvetica,sans-Serif" font-size="10.00">altintegration::Finalized</text>
<text text-anchor="middle" x="911.5" y="-994" font-family="Helvetica,sans-Serif" font-size="10.00">PayloadsIndex&lt; ContainerIndex &gt;</text>
<polyline fill="none" stroke="black" points="831,-987 992,-987 "/>
<text text-anchor="middle" x="911.5" y="-975" font-family="Helvetica,sans-Serif" font-size="10.00"> </text>
<polyline fill="none" stroke="black" points="831,-968 992,-968 "/>
<text text-anchor="start" x="839" y="-956" font-family="Helvetica,sans-Serif" font-size="10.00">+ find()</text>
<text text-anchor="start" x="839" y="-945" font-family="Helvetica,sans-Serif" font-size="10.00">+ empty()</text>
<text text-anchor="start" x="839" y="-934" font-family="Helvetica,sans-Serif" font-size="10.00">+ size()</text>
<text text-anchor="start" x="839" y="-923" font-family="Helvetica,sans-Serif" font-size="10.00">+ add()</text>
<text text-anchor="start" x="839" y="-912" font-family="Helvetica,sans-Serif" font-size="10.00">+ remove()</text>
<text text-anchor="start" x="839" y="-901" font-family="Helvetica,sans-Serif" font-size="10.00">+ addBlock()</text>
<text text-anchor="start" x="839" y="-890" font-family="Helvetica,sans-Serif" font-size="10.00">+ getAll()</text>
</a>
</g>
</g>
<!-- Node20&#45;&gt;Node19 -->
<g id="edge25" class="edge">
<title>Node20&#45;&gt;Node19</title>
<path fill="none" stroke="orange" d="M911.5,-872.9C911.5,-840.01 911.5,-801.72 911.5,-769.32"/>
<polygon fill="orange" stroke="orange" points="908,-872.92 911.5,-882.92 915,-872.92 908,-872.92"/>
<text text-anchor="middle" x="975" y="-812.5" font-family="Helvetica,sans-Serif" font-size="10.00"> &lt; altintegration::BlockIndex &gt;</text>
</g>
<!-- Node21 -->
<g id="node21" class="node">
<title>Node21</title>
<g id="a_node21"><a xlink:href="structaltintegration_1_1PayloadsIndex.html" target="_top" xlink:title=" ">
<polygon fill="white" stroke="black" points="1151.5,-629.5 1151.5,-763.5 1267.5,-763.5 1267.5,-629.5 1151.5,-629.5"/>
<text text-anchor="start" x="1159.5" y="-751.5" font-family="Helvetica,sans-Serif" font-size="10.00">altintegration::Payloads</text>
<text text-anchor="start" x="1159.5" y="-740.5" font-family="Helvetica,sans-Serif" font-size="10.00">Index&lt; altintegration</text>
<text text-anchor="middle" x="1209.5" y="-729.5" font-family="Helvetica,sans-Serif" font-size="10.00">::BlockIndex &gt;</text>
<polyline fill="none" stroke="black" points="1151.5,-722.5 1267.5,-722.5 "/>
<text text-anchor="middle" x="1209.5" y="-710.5" font-family="Helvetica,sans-Serif" font-size="10.00"> </text>
<polyline fill="none" stroke="black" points="1151.5,-703.5 1267.5,-703.5 "/>
<text text-anchor="start" x="1159.5" y="-691.5" font-family="Helvetica,sans-Serif" font-size="10.00">+ addBlock()</text>
<text text-anchor="start" x="1159.5" y="-680.5" font-family="Helvetica,sans-Serif" font-size="10.00">+ removeBlock()</text>
<text text-anchor="start" x="1159.5" y="-669.5" font-family="Helvetica,sans-Serif" font-size="10.00">+ add()</text>
<text text-anchor="start" x="1159.5" y="-658.5" font-family="Helvetica,sans-Serif" font-size="10.00">+ remove()</text>
<text text-anchor="start" x="1159.5" y="-647.5" font-family="Helvetica,sans-Serif" font-size="10.00">+ find()</text>
<text text-anchor="start" x="1159.5" y="-636.5" font-family="Helvetica,sans-Serif" font-size="10.00">+ getAll()</text>
</a>
</g>
</g>
<!-- Node21&#45;&gt;Node2 -->
<g id="edge26" class="edge">
<title>Node21&#45;&gt;Node2</title>
<path fill="none" stroke="#404040" d="M1163.98,-629.1C1157.24,-621.22 1150.01,-613.63 1142.5,-607 1075.01,-547.43 984.71,-497.95 918.8,-466.14"/>
<polygon fill="none" stroke="#404040" points="918.45,-465.97 911.31,-466.99 907.62,-460.79 914.76,-459.77 918.45,-465.97"/>
<text text-anchor="middle" x="1157" y="-581" font-family="Helvetica,sans-Serif" font-size="10.00"> #payloadsIndex_</text>
</g>
<!-- Node22 -->
<g id="node22" class="node">
<title>Node22</title>
<g id="a_node22"><a xlink:href="structaltintegration_1_1PayloadsIndex.html" target="_top" xlink:title="Payloads index that stores mapping &quot;payload id &#45;&gt; set of containing blocks&quot; from all NON&#45;FINALIZED bl...">
<polygon fill="white" stroke="black" points="1151.5,-888.5 1151.5,-1011.5 1267.5,-1011.5 1267.5,-888.5 1151.5,-888.5"/>
<text text-anchor="start" x="1159.5" y="-999.5" font-family="Helvetica,sans-Serif" font-size="10.00">altintegration::Payloads</text>
<text text-anchor="middle" x="1209.5" y="-988.5" font-family="Helvetica,sans-Serif" font-size="10.00">Index&lt; IndexT &gt;</text>
<polyline fill="none" stroke="black" points="1151.5,-981.5 1267.5,-981.5 "/>
<text text-anchor="middle" x="1209.5" y="-969.5" font-family="Helvetica,sans-Serif" font-size="10.00"> </text>
<polyline fill="none" stroke="black" points="1151.5,-962.5 1267.5,-962.5 "/>
<text text-anchor="start" x="1159.5" y="-950.5" font-family="Helvetica,sans-Serif" font-size="10.00">+ addBlock()</text>
<text text-anchor="start" x="1159.5" y="-939.5" font-family="Helvetica,sans-Serif" font-size="10.00">+ removeBlock()</text>
<text text-anchor="start" x="1159.5" y="-928.5" font-family="Helvetica,sans-Serif" font-size="10.00">+ add()</text>
<text text-anchor="start" x="1159.5" y="-917.5" font-family="Helvetica,sans-Serif" font-size="10.00">+ remove()</text>
<text text-anchor="start" x="1159.5" y="-906.5" font-family="Helvetica,sans-Serif" font-size="10.00">+ find()</text>
<text text-anchor="start" x="1159.5" y="-895.5" font-family="Helvetica,sans-Serif" font-size="10.00">+ getAll()</text>
</a>
</g>
</g>
<!-- Node22&#45;&gt;Node21 -->
<g id="edge27" class="edge">
<title>Node22&#45;&gt;Node21</title>
<path fill="none" stroke="orange" d="M1209.5,-878.05C1209.5,-842.17 1209.5,-798.9 1209.5,-763.72"/>
<polygon fill="orange" stroke="orange" points="1206,-878.44 1209.5,-888.44 1213,-878.44 1206,-878.44"/>
<text text-anchor="middle" x="1273" y="-812.5" font-family="Helvetica,sans-Serif" font-size="10.00"> &lt; altintegration::BlockIndex &gt;</text>
</g>
<!-- Node23 -->
<g id="node23" class="node">
<title>Node23</title>
<g id="a_node23"><a xlink:href="structaltintegration_1_1BlockReader.html" target="_top" xlink:title="An abstraction over on&#45;disk storage iterator.">
<polygon fill="white" stroke="black" points="1001.5,-613 1001.5,-780 1133.5,-780 1133.5,-613 1001.5,-613"/>
<text text-anchor="middle" x="1067.5" y="-768" font-family="Helvetica,sans-Serif" font-size="10.00">altintegration::BlockReader</text>
<polyline fill="none" stroke="black" points="1001.5,-761 1133.5,-761 "/>
<text text-anchor="middle" x="1067.5" y="-749" font-family="Helvetica,sans-Serif" font-size="10.00"> </text>
<polyline fill="none" stroke="black" points="1001.5,-742 1133.5,-742 "/>
<text text-anchor="start" x="1009.5" y="-730" font-family="Helvetica,sans-Serif" font-size="10.00">+ ~BlockReader()</text>
<text text-anchor="start" x="1009.5" y="-719" font-family="Helvetica,sans-Serif" font-size="10.00">+ getAltTip()</text>
<text text-anchor="start" x="1009.5" y="-708" font-family="Helvetica,sans-Serif" font-size="10.00">+ getVbkTip()</text>
<text text-anchor="start" x="1009.5" y="-697" font-family="Helvetica,sans-Serif" font-size="10.00">+ getBtcTip()</text>
<text text-anchor="start" x="1009.5" y="-686" font-family="Helvetica,sans-Serif" font-size="10.00">+ getBlock()</text>
<text text-anchor="start" x="1009.5" y="-675" font-family="Helvetica,sans-Serif" font-size="10.00">+ getBlock()</text>
<text text-anchor="start" x="1009.5" y="-664" font-family="Helvetica,sans-Serif" font-size="10.00">+ getBlock()</text>
<text text-anchor="start" x="1009.5" y="-653" font-family="Helvetica,sans-Serif" font-size="10.00">+ getAltBlockIterator()</text>
<text text-anchor="start" x="1009.5" y="-642" font-family="Helvetica,sans-Serif" font-size="10.00">+ getVbkBlockIterator()</text>
<text text-anchor="start" x="1009.5" y="-631" font-family="Helvetica,sans-Serif" font-size="10.00">+ getBtcBlockIterator()</text>
<text text-anchor="start" x="1009.5" y="-620" font-family="Helvetica,sans-Serif" font-size="10.00">and 6 more...</text>
</a>
</g>
</g>
<!-- Node23&#45;&gt;Node2 -->
<g id="edge28" class="edge">
<title>Node23&#45;&gt;Node2</title>
<path fill="none" stroke="#404040" d="M1019.4,-612.99C1011.25,-600.89 1002.5,-588.86 993.5,-578 970.6,-550.37 942.82,-522.85 916.78,-499.05"/>
<polygon fill="none" stroke="#404040" points="916.56,-498.84 909.42,-497.78 907.66,-490.79 914.79,-491.85 916.56,-498.84"/>
<text text-anchor="middle" x="1037" y="-581" font-family="Helvetica,sans-Serif" font-size="10.00"> #blockProvider_</text>
</g>
</g>
</svg>
