<?xml version="1.0" encoding="UTF-8" standalone="no"?>
<!DOCTYPE svg PUBLIC "-//W3C//DTD SVG 1.1//EN"
 "http://www.w3.org/Graphics/SVG/1.1/DTD/svg11.dtd">
<!-- Generated by graphviz version 2.44.0 ()
 -->
<!-- Title: altintegration::btc::BlockTransactionRequest Pages: 1 -->
<svg width="322pt" height="711pt"
 viewBox="0.00 0.00 321.50 711.00" xmlns="http://www.w3.org/2000/svg" xmlns:xlink="http://www.w3.org/1999/xlink">
<g id="graph0" class="graph" transform="scale(1 1) rotate(0) translate(4 707)">
<title>altintegration::btc::BlockTransactionRequest</title>
<polygon fill="white" stroke="transparent" points="-4,4 -4,-707 317.5,-707 317.5,4 -4,4"/>
<!-- Node1 -->
<g id="node1" class="node">
<title>Node1</title>
<g id="a_node1"><a xlink:title=" ">
<polygon fill="#bfbfbf" stroke="black" points="48,-0.5 48,-68.5 203,-68.5 203,-0.5 48,-0.5"/>
<text text-anchor="start" x="56" y="-56.5" font-family="Helvetica,sans-Serif" font-size="10.00">altintegration::btc</text>
<text text-anchor="middle" x="125.5" y="-45.5" font-family="Helvetica,sans-Serif" font-size="10.00">::BlockTransactionRequest</text>
<polyline fill="none" stroke="black" points="48,-38.5 203,-38.5 "/>
<text text-anchor="start" x="56" y="-26.5" font-family="Helvetica,sans-Serif" font-size="10.00">+ ADD_SERIALIZE_METHODS</text>
<polyline fill="none" stroke="black" points="48,-19.5 203,-19.5 "/>
<text text-anchor="start" x="56" y="-7.5" font-family="Helvetica,sans-Serif" font-size="10.00">+ SerializationOp()</text>
</a>
</g>
</g>
<!-- Node2 -->
<g id="node2" class="node">
<title>Node2</title>
<g id="a_node2"><a xlink:title=" ">
<polygon fill="white" stroke="#bfbfbf" points="0,-199 0,-256 113,-256 113,-199 0,-199"/>
<text text-anchor="middle" x="56.5" y="-244" font-family="Helvetica,sans-Serif" font-size="10.00">std::vector&lt; uint16_t &gt;</text>
<polyline fill="none" stroke="#bfbfbf" points="0,-237 113,-237 "/>
<text text-anchor="start" x="8" y="-225" font-family="Helvetica,sans-Serif" font-size="10.00">+ elements</text>
<polyline fill="none" stroke="#bfbfbf" points="0,-218 113,-218 "/>
<text text-anchor="middle" x="56.5" y="-206" font-family="Helvetica,sans-Serif" font-size="10.00"> </text>
</a>
</g>
</g>
<!-- Node2&#45;&gt;Node1 -->
<g id="edge1" class="edge">
<title>Node2&#45;&gt;Node1</title>
<path fill="none" stroke="#404040" d="M66.53,-198.73C77.76,-167.64 96.12,-116.82 109.37,-80.14"/>
<polygon fill="none" stroke="#404040" points="109.4,-80.05 107.68,-73.05 113.48,-68.77 115.2,-75.77 109.4,-80.05"/>
<text text-anchor="middle" x="126.5" y="-90" font-family="Helvetica,sans-Serif" font-size="10.00"> +indexes</text>
</g>
<!-- Node3 -->
<g id="node3" class="node">
<title>Node3</title>
<g id="a_node3"><a xlink:title=" ">
<polygon fill="white" stroke="#bfbfbf" points="14.5,-463.5 14.5,-520.5 98.5,-520.5 98.5,-463.5 14.5,-463.5"/>
<text text-anchor="middle" x="56.5" y="-508.5" font-family="Helvetica,sans-Serif" font-size="10.00">std::vector&lt; T &gt;</text>
<polyline fill="none" stroke="#bfbfbf" points="14.5,-501.5 98.5,-501.5 "/>
<text text-anchor="middle" x="56.5" y="-489.5" font-family="Helvetica,sans-Serif" font-size="10.00"> </text>
<polyline fill="none" stroke="#bfbfbf" points="14.5,-482.5 98.5,-482.5 "/>
<text text-anchor="middle" x="56.5" y="-470.5" font-family="Helvetica,sans-Serif" font-size="10.00"> </text>
</a>
</g>
</g>
<!-- Node3&#45;&gt;Node2 -->
<g id="edge2" class="edge">
<title>Node3&#45;&gt;Node2</title>
<path fill="none" stroke="orange" d="M56.5,-453.32C56.5,-399.9 56.5,-303.4 56.5,-256.12"/>
<polygon fill="orange" stroke="orange" points="53,-453.4 56.5,-463.4 60,-453.4 53,-453.4"/>
<text text-anchor="middle" x="83.5" y="-360" font-family="Helvetica,sans-Serif" font-size="10.00"> &lt; uint16_t &gt;</text>
</g>
<!-- Node4 -->
<g id="node4" class="node">
<title>Node4</title>
<g id="a_node4"><a xlink:title=" ">
<polygon fill="white" stroke="#bfbfbf" points="42,-645.5 42,-702.5 71,-702.5 71,-645.5 42,-645.5"/>
<text text-anchor="middle" x="56.5" y="-690.5" font-family="Helvetica,sans-Serif" font-size="10.00">T</text>
<polyline fill="none" stroke="#bfbfbf" points="42,-683.5 71,-683.5 "/>
<text text-anchor="middle" x="56.5" y="-671.5" font-family="Helvetica,sans-Serif" font-size="10.00"> </text>
<polyline fill="none" stroke="#bfbfbf" points="42,-664.5 71,-664.5 "/>
<text text-anchor="middle" x="56.5" y="-652.5" font-family="Helvetica,sans-Serif" font-size="10.00"> </text>
</a>
</g>
</g>
<!-- Node4&#45;&gt;Node3 -->
<g id="edge3" class="edge">
<title>Node4&#45;&gt;Node3</title>
<path fill="none" stroke="#404040" d="M56.5,-645.27C56.5,-615.28 56.5,-567.18 56.5,-533.08"/>
<polygon fill="none" stroke="#404040" points="56.5,-532.76 52.5,-526.76 56.5,-520.76 60.5,-526.76 56.5,-532.76"/>
<text text-anchor="middle" x="81" y="-619" font-family="Helvetica,sans-Serif" font-size="10.00"> +elements</text>
</g>
<!-- Node5 -->
<g id="node5" class="node">
<title>Node5</title>
<g id="a_node5"><a xlink:href="structaltintegration_1_1Blob.html" target="_top" xlink:title=" ">
<polygon fill="white" stroke="black" points="131,-116.5 131,-338.5 262,-338.5 262,-116.5 131,-116.5"/>
<text text-anchor="start" x="139" y="-326.5" font-family="Helvetica,sans-Serif" font-size="10.00">altintegration::Blob</text>
<text text-anchor="middle" x="196.5" y="-315.5" font-family="Helvetica,sans-Serif" font-size="10.00">&lt; SHA256_HASH_SIZE &gt;</text>
<polyline fill="none" stroke="black" points="131,-308.5 262,-308.5 "/>
<text text-anchor="start" x="139" y="-296.5" font-family="Helvetica,sans-Serif" font-size="10.00">+ data_</text>
<text text-anchor="start" x="139" y="-285.5" font-family="Helvetica,sans-Serif" font-size="10.00">+ this</text>
<polyline fill="none" stroke="black" points="131,-278.5 262,-278.5 "/>
<text text-anchor="start" x="139" y="-266.5" font-family="Helvetica,sans-Serif" font-size="10.00">+ Blob()</text>
<text text-anchor="start" x="139" y="-255.5" font-family="Helvetica,sans-Serif" font-size="10.00">+ Blob()</text>
<text text-anchor="start" x="139" y="-244.5" font-family="Helvetica,sans-Serif" font-size="10.00">+ Blob()</text>
<text text-anchor="start" x="139" y="-233.5" font-family="Helvetica,sans-Serif" font-size="10.00">+ Blob()</text>
<text text-anchor="start" x="139" y="-222.5" font-family="Helvetica,sans-Serif" font-size="10.00">+ Blob()</text>
<text text-anchor="start" x="139" y="-211.5" font-family="Helvetica,sans-Serif" font-size="10.00">+ operator=()</text>
<text text-anchor="start" x="139" y="-200.5" font-family="Helvetica,sans-Serif" font-size="10.00">+ operator=()</text>
<text text-anchor="start" x="139" y="-189.5" font-family="Helvetica,sans-Serif" font-size="10.00">+ reverse()</text>
<text text-anchor="start" x="139" y="-178.5" font-family="Helvetica,sans-Serif" font-size="10.00">+ operator~()</text>
<text text-anchor="start" x="139" y="-167.5" font-family="Helvetica,sans-Serif" font-size="10.00">+ asVector()</text>
<text text-anchor="start" x="139" y="-156.5" font-family="Helvetica,sans-Serif" font-size="10.00">+ asString()</text>
<text text-anchor="start" x="139" y="-145.5" font-family="Helvetica,sans-Serif" font-size="10.00">+ operator[]()</text>
<text text-anchor="start" x="139" y="-134.5" font-family="Helvetica,sans-Serif" font-size="10.00">+ operator[]()</text>
<text text-anchor="start" x="139" y="-123.5" font-family="Helvetica,sans-Serif" font-size="10.00">+ compareTo()</text>
</a>
</g>
</g>
<!-- Node5&#45;&gt;Node1 -->
<g id="edge4" class="edge">
<title>Node5&#45;&gt;Node1</title>
<path fill="none" stroke="#404040" d="M162.71,-116.26C159.13,-106.29 155.37,-96.42 151.5,-87 150.5,-84.55 149.42,-82.06 148.3,-79.57"/>
<polygon fill="none" stroke="#404040" points="148.29,-79.53 142.12,-75.8 143.19,-68.67 149.36,-72.4 148.29,-79.53"/>
<text text-anchor="middle" x="181" y="-90" font-family="Helvetica,sans-Serif" font-size="10.00"> +blockhash</text>
</g>
<!-- Node6 -->
<g id="node6" class="node">
<title>Node6</title>
<g id="a_node6"><a xlink:href="structaltintegration_1_1Blob.html" target="_top" xlink:title="Contiguous byte array of fixed size.">
<polygon fill="white" stroke="black" points="136.5,-386.5 136.5,-597.5 256.5,-597.5 256.5,-386.5 136.5,-386.5"/>
<text text-anchor="middle" x="196.5" y="-585.5" font-family="Helvetica,sans-Serif" font-size="10.00">altintegration::Blob&lt; N &gt;</text>
<polyline fill="none" stroke="black" points="136.5,-578.5 256.5,-578.5 "/>
<text text-anchor="start" x="144.5" y="-566.5" font-family="Helvetica,sans-Serif" font-size="10.00">+ data_</text>
<text text-anchor="start" x="144.5" y="-555.5" font-family="Helvetica,sans-Serif" font-size="10.00">+ this</text>
<polyline fill="none" stroke="black" points="136.5,-548.5 256.5,-548.5 "/>
<text text-anchor="start" x="144.5" y="-536.5" font-family="Helvetica,sans-Serif" font-size="10.00">+ Blob()</text>
<text text-anchor="start" x="144.5" y="-525.5" font-family="Helvetica,sans-Serif" font-size="10.00">+ Blob()</text>
<text text-anchor="start" x="144.5" y="-514.5" font-family="Helvetica,sans-Serif" font-size="10.00">+ Blob()</text>
<text text-anchor="start" x="144.5" y="-503.5" font-family="Helvetica,sans-Serif" font-size="10.00">+ Blob()</text>
<text text-anchor="start" x="144.5" y="-492.5" font-family="Helvetica,sans-Serif" font-size="10.00">+ Blob()</text>
<text text-anchor="start" x="144.5" y="-481.5" font-family="Helvetica,sans-Serif" font-size="10.00">+ operator=()</text>
<text text-anchor="start" x="144.5" y="-470.5" font-family="Helvetica,sans-Serif" font-size="10.00">+ operator=()</text>
<text text-anchor="start" x="144.5" y="-459.5" font-family="Helvetica,sans-Serif" font-size="10.00">+ reverse()</text>
<text text-anchor="start" x="144.5" y="-448.5" font-family="Helvetica,sans-Serif" font-size="10.00">+ operator~()</text>
<text text-anchor="start" x="144.5" y="-437.5" font-family="Helvetica,sans-Serif" font-size="10.00">+ asVector()</text>
<text text-anchor="start" x="144.5" y="-426.5" font-family="Helvetica,sans-Serif" font-size="10.00">+ asString()</text>
<text text-anchor="start" x="144.5" y="-415.5" font-family="Helvetica,sans-Serif" font-size="10.00">+ operator[]()</text>
<text text-anchor="start" x="144.5" y="-404.5" font-family="Helvetica,sans-Serif" font-size="10.00">+ operator[]()</text>
<text text-anchor="start" x="144.5" y="-393.5" font-family="Helvetica,sans-Serif" font-size="10.00">+ compareTo()</text>
</a>
</g>
</g>
<!-- Node6&#45;&gt;Node5 -->
<g id="edge5" class="edge">
<title>Node6&#45;&gt;Node5</title>
<path fill="none" stroke="orange" d="M196.5,-376.48C196.5,-363.93 196.5,-351.17 196.5,-338.67"/>
<polygon fill="orange" stroke="orange" points="193,-376.5 196.5,-386.5 200,-376.5 193,-376.5"/>
<text text-anchor="middle" x="255" y="-360" font-family="Helvetica,sans-Serif" font-size="10.00"> &lt; SHA256_HASH_SIZE &gt;</text>
</g>
</g>
</svg>
