<?xml version="1.0" encoding="UTF-8" standalone="no"?>
<!DOCTYPE svg PUBLIC "-//W3C//DTD SVG 1.1//EN"
 "http://www.w3.org/Graphics/SVG/1.1/DTD/svg11.dtd">
<!-- Generated by graphviz version 2.44.0 ()
 -->
<!-- Title: altintegration::BlockTree&lt; Block, ChainParams &gt; Pages: 1 -->
<svg width="998pt" height="1451pt"
 viewBox="0.00 0.00 997.50 1451.00" xmlns="http://www.w3.org/2000/svg" xmlns:xlink="http://www.w3.org/1999/xlink">
<g id="graph0" class="graph" transform="scale(1 1) rotate(0) translate(4 1447)">
<title>altintegration::BlockTree&lt; Block, ChainParams &gt;</title>
<polygon fill="white" stroke="transparent" points="-4,4 -4,-1447 993.5,-1447 993.5,4 -4,4"/>
<!-- Node1 -->
<g id="node1" class="node">
<title>Node1</title>
<g id="a_node1"><a xlink:title="BlockTree is a tree of blocks with single &quot;bootstrap&quot; block as root.">
<polygon fill="#bfbfbf" stroke="black" points="232,-0.5 232,-255.5 366,-255.5 366,-0.5 232,-0.5"/>
<text text-anchor="start" x="240" y="-243.5" font-family="Helvetica,sans-Serif" font-size="10.00">altintegration::BlockTree</text>
<text text-anchor="middle" x="299" y="-232.5" font-family="Helvetica,sans-Serif" font-size="10.00">&lt; Block, ChainParams &gt;</text>
<polyline fill="none" stroke="black" points="232,-225.5 366,-225.5 "/>
<text text-anchor="start" x="240" y="-213.5" font-family="Helvetica,sans-Serif" font-size="10.00"># param_</text>
<polyline fill="none" stroke="black" points="232,-206.5 366,-206.5 "/>
<text text-anchor="start" x="240" y="-194.5" font-family="Helvetica,sans-Serif" font-size="10.00">+ ~BlockTree()</text>
<text text-anchor="start" x="240" y="-183.5" font-family="Helvetica,sans-Serif" font-size="10.00">+ BlockTree()</text>
<text text-anchor="start" x="240" y="-172.5" font-family="Helvetica,sans-Serif" font-size="10.00">+ getParams()</text>
<text text-anchor="start" x="240" y="-161.5" font-family="Helvetica,sans-Serif" font-size="10.00">+ bootstrapWithGenesis()</text>
<text text-anchor="start" x="240" y="-150.5" font-family="Helvetica,sans-Serif" font-size="10.00">+ bootstrapWithChain()</text>
<text text-anchor="start" x="240" y="-139.5" font-family="Helvetica,sans-Serif" font-size="10.00">+ acceptBlockHeader()</text>
<text text-anchor="start" x="240" y="-128.5" font-family="Helvetica,sans-Serif" font-size="10.00">+ acceptBlockHeader()</text>
<text text-anchor="start" x="240" y="-117.5" font-family="Helvetica,sans-Serif" font-size="10.00">+ toPrettyString()</text>
<text text-anchor="start" x="240" y="-106.5" font-family="Helvetica,sans-Serif" font-size="10.00">+ loadBlockForward()</text>
<text text-anchor="start" x="240" y="-95.5" font-family="Helvetica,sans-Serif" font-size="10.00">+ isBlockOld()</text>
<text text-anchor="start" x="240" y="-84.5" font-family="Helvetica,sans-Serif" font-size="10.00">+ isBlockOld()</text>
<text text-anchor="start" x="240" y="-73.5" font-family="Helvetica,sans-Serif" font-size="10.00">+ finalizeBlock()</text>
<text text-anchor="start" x="240" y="-62.5" font-family="Helvetica,sans-Serif" font-size="10.00"># acceptBlockHeaderImpl()</text>
<text text-anchor="start" x="240" y="-51.5" font-family="Helvetica,sans-Serif" font-size="10.00"># bootstrap()</text>
<text text-anchor="start" x="240" y="-40.5" font-family="Helvetica,sans-Serif" font-size="10.00"># bootstrap()</text>
<text text-anchor="start" x="240" y="-29.5" font-family="Helvetica,sans-Serif" font-size="10.00"># validateAndAddBlock()</text>
<text text-anchor="start" x="240" y="-18.5" font-family="Helvetica,sans-Serif" font-size="10.00"># determineBestChain()</text>
<text text-anchor="start" x="240" y="-7.5" font-family="Helvetica,sans-Serif" font-size="10.00"># onBlockInserted()</text>
</a>
</g>
</g>
<!-- Node2 -->
<g id="node2" class="node">
<title>Node2</title>
<g id="a_node2"><a xlink:href="structaltintegration_1_1BaseBlockTree.html" target="_top" xlink:title="Base block tree that stores all blocks, maintains tree tips, maintains active chain.">
<polygon fill="white" stroke="black" points="223,-293.5 223,-537.5 375,-537.5 375,-293.5 223,-293.5"/>
<text text-anchor="start" x="231" y="-525.5" font-family="Helvetica,sans-Serif" font-size="10.00">altintegration::BaseBlock</text>
<text text-anchor="middle" x="299" y="-514.5" font-family="Helvetica,sans-Serif" font-size="10.00">Tree&lt; Block &gt;</text>
<polyline fill="none" stroke="black" points="223,-507.5 375,-507.5 "/>
<text text-anchor="start" x="231" y="-495.5" font-family="Helvetica,sans-Serif" font-size="10.00"># validity_sig_</text>
<polyline fill="none" stroke="black" points="223,-488.5 375,-488.5 "/>
<text text-anchor="start" x="231" y="-476.5" font-family="Helvetica,sans-Serif" font-size="10.00">+ getTips()</text>
<text text-anchor="start" x="231" y="-465.5" font-family="Helvetica,sans-Serif" font-size="10.00">+ getBlocks()</text>
<text text-anchor="start" x="231" y="-454.5" font-family="Helvetica,sans-Serif" font-size="10.00">+ getBlockProvider()</text>
<text text-anchor="start" x="231" y="-443.5" font-family="Helvetica,sans-Serif" font-size="10.00">+ ~BaseBlockTree()</text>
<text text-anchor="start" x="231" y="-432.5" font-family="Helvetica,sans-Serif" font-size="10.00">+ BaseBlockTree()</text>
<text text-anchor="start" x="231" y="-421.5" font-family="Helvetica,sans-Serif" font-size="10.00">+ BaseBlockTree()</text>
<text text-anchor="start" x="231" y="-410.5" font-family="Helvetica,sans-Serif" font-size="10.00">+ operator=()</text>
<text text-anchor="start" x="231" y="-399.5" font-family="Helvetica,sans-Serif" font-size="10.00">+ BaseBlockTree()</text>
<text text-anchor="start" x="231" y="-388.5" font-family="Helvetica,sans-Serif" font-size="10.00">+ operator=()</text>
<text text-anchor="start" x="231" y="-377.5" font-family="Helvetica,sans-Serif" font-size="10.00">+ getBestChain()</text>
<text text-anchor="start" x="231" y="-366.5" font-family="Helvetica,sans-Serif" font-size="10.00">and 23 more...</text>
<text text-anchor="start" x="231" y="-355.5" font-family="Helvetica,sans-Serif" font-size="10.00"># eraseBlock()</text>
<text text-anchor="start" x="231" y="-344.5" font-family="Helvetica,sans-Serif" font-size="10.00"># toPrettyString()</text>
<text text-anchor="start" x="231" y="-333.5" font-family="Helvetica,sans-Serif" font-size="10.00"># decreaseAppliedBlockCount()</text>
<text text-anchor="start" x="231" y="-322.5" font-family="Helvetica,sans-Serif" font-size="10.00"># increaseAppliedBlockCount()</text>
<text text-anchor="start" x="231" y="-311.5" font-family="Helvetica,sans-Serif" font-size="10.00"># decreaseAppliedBlockCount()</text>
<text text-anchor="start" x="231" y="-300.5" font-family="Helvetica,sans-Serif" font-size="10.00"># increaseAppliedBlockCount()</text>
</a>
</g>
</g>
<!-- Node2&#45;&gt;Node1 -->
<g id="edge1" class="edge">
<title>Node2&#45;&gt;Node1</title>
<path fill="none" stroke="midnightblue" d="M299,-283.16C299,-274.03 299,-264.85 299,-255.75"/>
<polygon fill="none" stroke="midnightblue" points="295.5,-283.42 299,-293.42 302.5,-283.42 295.5,-283.42"/>
</g>
<!-- Node3 -->
<g id="node3" class="node">
<title>Node3</title>
<g id="a_node3"><a xlink:href="structaltintegration_1_1BlockReader.html" target="_top" xlink:title="An abstraction over on&#45;disk storage iterator.">
<polygon fill="white" stroke="black" points="0,-591 0,-758 132,-758 132,-591 0,-591"/>
<text text-anchor="middle" x="66" y="-746" font-family="Helvetica,sans-Serif" font-size="10.00">altintegration::BlockReader</text>
<polyline fill="none" stroke="black" points="0,-739 132,-739 "/>
<text text-anchor="middle" x="66" y="-727" font-family="Helvetica,sans-Serif" font-size="10.00"> </text>
<polyline fill="none" stroke="black" points="0,-720 132,-720 "/>
<text text-anchor="start" x="8" y="-708" font-family="Helvetica,sans-Serif" font-size="10.00">+ ~BlockReader()</text>
<text text-anchor="start" x="8" y="-697" font-family="Helvetica,sans-Serif" font-size="10.00">+ getAltTip()</text>
<text text-anchor="start" x="8" y="-686" font-family="Helvetica,sans-Serif" font-size="10.00">+ getVbkTip()</text>
<text text-anchor="start" x="8" y="-675" font-family="Helvetica,sans-Serif" font-size="10.00">+ getBtcTip()</text>
<text text-anchor="start" x="8" y="-664" font-family="Helvetica,sans-Serif" font-size="10.00">+ getBlock()</text>
<text text-anchor="start" x="8" y="-653" font-family="Helvetica,sans-Serif" font-size="10.00">+ getBlock()</text>
<text text-anchor="start" x="8" y="-642" font-family="Helvetica,sans-Serif" font-size="10.00">+ getBlock()</text>
<text text-anchor="start" x="8" y="-631" font-family="Helvetica,sans-Serif" font-size="10.00">+ getAltBlockIterator()</text>
<text text-anchor="start" x="8" y="-620" font-family="Helvetica,sans-Serif" font-size="10.00">+ getVbkBlockIterator()</text>
<text text-anchor="start" x="8" y="-609" font-family="Helvetica,sans-Serif" font-size="10.00">+ getBtcBlockIterator()</text>
<text text-anchor="start" x="8" y="-598" font-family="Helvetica,sans-Serif" font-size="10.00">and 6 more...</text>
</a>
</g>
</g>
<!-- Node3&#45;&gt;Node2 -->
<g id="edge2" class="edge">
<title>Node3&#45;&gt;Node2</title>
<path fill="none" stroke="#404040" d="M132.04,-595.14C135.06,-591.7 138.05,-588.31 141,-585 164.4,-558.76 190.3,-530.73 214.24,-505.22"/>
<polygon fill="none" stroke="#404040" points="214.4,-505.05 215.6,-497.94 222.62,-496.3 221.43,-503.42 214.4,-505.05"/>
<text text-anchor="middle" x="203.5" y="-559" font-family="Helvetica,sans-Serif" font-size="10.00"> #blockProvider_</text>
</g>
<!-- Node4 -->
<g id="node4" class="node">
<title>Node4</title>
<g id="a_node4"><a xlink:href="structaltintegration_1_1Chain.html" target="_top" xlink:title=" ">
<polygon fill="white" stroke="black" points="150.5,-585.5 150.5,-763.5 291.5,-763.5 291.5,-585.5 150.5,-585.5"/>
<text text-anchor="start" x="158.5" y="-751.5" font-family="Helvetica,sans-Serif" font-size="10.00">altintegration::Chain</text>
<text text-anchor="middle" x="221" y="-740.5" font-family="Helvetica,sans-Serif" font-size="10.00">&lt; altintegration::BlockIndex &gt;</text>
<polyline fill="none" stroke="black" points="150.5,-733.5 291.5,-733.5 "/>
<text text-anchor="middle" x="221" y="-721.5" font-family="Helvetica,sans-Serif" font-size="10.00"> </text>
<polyline fill="none" stroke="black" points="150.5,-714.5 291.5,-714.5 "/>
<text text-anchor="start" x="158.5" y="-702.5" font-family="Helvetica,sans-Serif" font-size="10.00">+ Chain()</text>
<text text-anchor="start" x="158.5" y="-691.5" font-family="Helvetica,sans-Serif" font-size="10.00">+ Chain()</text>
<text text-anchor="start" x="158.5" y="-680.5" font-family="Helvetica,sans-Serif" font-size="10.00">+ Chain()</text>
<text text-anchor="start" x="158.5" y="-669.5" font-family="Helvetica,sans-Serif" font-size="10.00">+ getStartHeight()</text>
<text text-anchor="start" x="158.5" y="-658.5" font-family="Helvetica,sans-Serif" font-size="10.00">+ firstHeight()</text>
<text text-anchor="start" x="158.5" y="-647.5" font-family="Helvetica,sans-Serif" font-size="10.00">+ contains()</text>
<text text-anchor="start" x="158.5" y="-636.5" font-family="Helvetica,sans-Serif" font-size="10.00">+ operator[]()</text>
<text text-anchor="start" x="158.5" y="-625.5" font-family="Helvetica,sans-Serif" font-size="10.00">+ next()</text>
<text text-anchor="start" x="158.5" y="-614.5" font-family="Helvetica,sans-Serif" font-size="10.00">+ chainHeight()</text>
<text text-anchor="start" x="158.5" y="-603.5" font-family="Helvetica,sans-Serif" font-size="10.00">+ empty()</text>
<text text-anchor="start" x="158.5" y="-592.5" font-family="Helvetica,sans-Serif" font-size="10.00">and 15 more...</text>
</a>
</g>
</g>
<!-- Node4&#45;&gt;Node2 -->
<g id="edge3" class="edge">
<title>Node4&#45;&gt;Node2</title>
<path fill="none" stroke="#404040" d="M247.73,-585.41C251.28,-573.74 254.97,-561.58 258.68,-549.36"/>
<polygon fill="none" stroke="#404040" points="258.75,-549.12 256.66,-542.22 262.23,-537.64 264.32,-544.54 258.75,-549.12"/>
<text text-anchor="middle" x="288" y="-559" font-family="Helvetica,sans-Serif" font-size="10.00"> #activeChain_</text>
</g>
<!-- Node5 -->
<g id="node5" class="node">
<title>Node5</title>
<g id="a_node5"><a xlink:href="structaltintegration_1_1Chain.html" target="_top" xlink:title="Fully in&#45;memory chain representation.">
<polygon fill="white" stroke="black" points="169.5,-839 169.5,-1017 270.5,-1017 270.5,-839 169.5,-839"/>
<text text-anchor="start" x="177.5" y="-1005" font-family="Helvetica,sans-Serif" font-size="10.00">altintegration::Chain</text>
<text text-anchor="middle" x="220" y="-994" font-family="Helvetica,sans-Serif" font-size="10.00">&lt; BlockIndexT &gt;</text>
<polyline fill="none" stroke="black" points="169.5,-987 270.5,-987 "/>
<text text-anchor="middle" x="220" y="-975" font-family="Helvetica,sans-Serif" font-size="10.00"> </text>
<polyline fill="none" stroke="black" points="169.5,-968 270.5,-968 "/>
<text text-anchor="start" x="177.5" y="-956" font-family="Helvetica,sans-Serif" font-size="10.00">+ Chain()</text>
<text text-anchor="start" x="177.5" y="-945" font-family="Helvetica,sans-Serif" font-size="10.00">+ Chain()</text>
<text text-anchor="start" x="177.5" y="-934" font-family="Helvetica,sans-Serif" font-size="10.00">+ Chain()</text>
<text text-anchor="start" x="177.5" y="-923" font-family="Helvetica,sans-Serif" font-size="10.00">+ getStartHeight()</text>
<text text-anchor="start" x="177.5" y="-912" font-family="Helvetica,sans-Serif" font-size="10.00">+ firstHeight()</text>
<text text-anchor="start" x="177.5" y="-901" font-family="Helvetica,sans-Serif" font-size="10.00">+ contains()</text>
<text text-anchor="start" x="177.5" y="-890" font-family="Helvetica,sans-Serif" font-size="10.00">+ operator[]()</text>
<text text-anchor="start" x="177.5" y="-879" font-family="Helvetica,sans-Serif" font-size="10.00">+ next()</text>
<text text-anchor="start" x="177.5" y="-868" font-family="Helvetica,sans-Serif" font-size="10.00">+ chainHeight()</text>
<text text-anchor="start" x="177.5" y="-857" font-family="Helvetica,sans-Serif" font-size="10.00">+ empty()</text>
<text text-anchor="start" x="177.5" y="-846" font-family="Helvetica,sans-Serif" font-size="10.00">and 15 more...</text>
</a>
</g>
</g>
<!-- Node5&#45;&gt;Node4 -->
<g id="edge4" class="edge">
<title>Node5&#45;&gt;Node4</title>
<path fill="none" stroke="orange" d="M220.39,-828.59C220.48,-807.16 220.57,-784.61 220.65,-763.6"/>
<polygon fill="orange" stroke="orange" points="216.89,-828.67 220.35,-838.68 223.89,-828.7 216.89,-828.67"/>
<text text-anchor="middle" x="284.5" y="-790.5" font-family="Helvetica,sans-Serif" font-size="10.00"> &lt; altintegration::BlockIndex &gt;</text>
</g>
<!-- Node6 -->
<g id="node6" class="node">
<title>Node6</title>
<g id="a_node6"><a xlink:title=" ">
<polygon fill="white" stroke="#bfbfbf" points="309.5,-635 309.5,-714 446.5,-714 446.5,-635 309.5,-635"/>
<text text-anchor="start" x="317.5" y="-702" font-family="Helvetica,sans-Serif" font-size="10.00">std::unordered_map</text>
<text text-anchor="start" x="317.5" y="-691" font-family="Helvetica,sans-Serif" font-size="10.00">&lt; prev_block_hash_t,</text>
<text text-anchor="middle" x="378" y="-680" font-family="Helvetica,sans-Serif" font-size="10.00"> std::unique_ptr&lt; index_t &gt; &gt;</text>
<polyline fill="none" stroke="#bfbfbf" points="309.5,-673 446.5,-673 "/>
<text text-anchor="start" x="317.5" y="-661" font-family="Helvetica,sans-Serif" font-size="10.00">+ keys</text>
<polyline fill="none" stroke="#bfbfbf" points="309.5,-654 446.5,-654 "/>
<text text-anchor="middle" x="378" y="-642" font-family="Helvetica,sans-Serif" font-size="10.00"> </text>
</a>
</g>
</g>
<!-- Node6&#45;&gt;Node2 -->
<g id="edge5" class="edge">
<title>Node6&#45;&gt;Node2</title>
<path fill="none" stroke="#404040" d="M366.09,-634.75C358.95,-611.52 349.4,-580.47 339.76,-549.1"/>
<polygon fill="none" stroke="#404040" points="339.73,-549.01 334.15,-544.45 336.21,-537.54 341.79,-542.1 339.73,-549.01"/>
<text text-anchor="middle" x="365" y="-559" font-family="Helvetica,sans-Serif" font-size="10.00"> #blocks_</text>
</g>
<!-- Node7 -->
<g id="node7" class="node">
<title>Node7</title>
<g id="a_node7"><a xlink:title=" ">
<polygon fill="white" stroke="#bfbfbf" points="318.5,-1052.5 318.5,-1109.5 445.5,-1109.5 445.5,-1052.5 318.5,-1052.5"/>
<text text-anchor="middle" x="382" y="-1097.5" font-family="Helvetica,sans-Serif" font-size="10.00">std::unique_ptr&lt; index_t &gt;</text>
<polyline fill="none" stroke="#bfbfbf" points="318.5,-1090.5 445.5,-1090.5 "/>
<text text-anchor="start" x="326.5" y="-1078.5" font-family="Helvetica,sans-Serif" font-size="10.00">+ ptr</text>
<polyline fill="none" stroke="#bfbfbf" points="318.5,-1071.5 445.5,-1071.5 "/>
<text text-anchor="start" x="326.5" y="-1059.5" font-family="Helvetica,sans-Serif" font-size="10.00">+ operator&#45;&gt;()</text>
</a>
</g>
</g>
<!-- Node7&#45;&gt;Node6 -->
<g id="edge6" class="edge">
<title>Node7&#45;&gt;Node6</title>
<path fill="none" stroke="#404040" d="M374.3,-1052.46C372.93,-1046.42 371.71,-1040.03 371,-1034 358.15,-925.02 366.32,-796.14 372.65,-726.44"/>
<polygon fill="none" stroke="#404040" points="372.68,-726.08 369.26,-719.73 373.8,-714.13 377.23,-720.48 372.68,-726.08"/>
<text text-anchor="middle" x="395.5" y="-925.5" font-family="Helvetica,sans-Serif" font-size="10.00"> +elements</text>
</g>
<!-- Node8 -->
<g id="node8" class="node">
<title>Node8</title>
<g id="a_node8"><a xlink:title=" ">
<polygon fill="white" stroke="#bfbfbf" points="348,-1204.5 348,-1261.5 450,-1261.5 450,-1204.5 348,-1204.5"/>
<text text-anchor="middle" x="399" y="-1249.5" font-family="Helvetica,sans-Serif" font-size="10.00">std::unique_ptr&lt; T &gt;</text>
<polyline fill="none" stroke="#bfbfbf" points="348,-1242.5 450,-1242.5 "/>
<text text-anchor="middle" x="399" y="-1230.5" font-family="Helvetica,sans-Serif" font-size="10.00"> </text>
<polyline fill="none" stroke="#bfbfbf" points="348,-1223.5 450,-1223.5 "/>
<text text-anchor="start" x="356" y="-1211.5" font-family="Helvetica,sans-Serif" font-size="10.00">+ operator&#45;&gt;()</text>
</a>
</g>
</g>
<!-- Node8&#45;&gt;Node7 -->
<g id="edge7" class="edge">
<title>Node8&#45;&gt;Node7</title>
<path fill="none" stroke="orange" d="M394.75,-1194.47C391.76,-1168.11 387.83,-1133.43 385.13,-1109.59"/>
<polygon fill="orange" stroke="orange" points="391.28,-1194.95 395.88,-1204.49 398.23,-1194.16 391.28,-1194.95"/>
<text text-anchor="middle" x="419" y="-1154.5" font-family="Helvetica,sans-Serif" font-size="10.00"> &lt; index_t &gt;</text>
</g>
<!-- Node9 -->
<g id="node9" class="node">
<title>Node9</title>
<g id="a_node9"><a xlink:title=" ">
<polygon fill="white" stroke="#bfbfbf" points="465.5,-1385.5 465.5,-1442.5 494.5,-1442.5 494.5,-1385.5 465.5,-1385.5"/>
<text text-anchor="middle" x="480" y="-1430.5" font-family="Helvetica,sans-Serif" font-size="10.00">T</text>
<polyline fill="none" stroke="#bfbfbf" points="465.5,-1423.5 494.5,-1423.5 "/>
<text text-anchor="middle" x="480" y="-1411.5" font-family="Helvetica,sans-Serif" font-size="10.00"> </text>
<polyline fill="none" stroke="#bfbfbf" points="465.5,-1404.5 494.5,-1404.5 "/>
<text text-anchor="middle" x="480" y="-1392.5" font-family="Helvetica,sans-Serif" font-size="10.00"> </text>
</a>
</g>
</g>
<!-- Node9&#45;&gt;Node8 -->
<g id="edge8" class="edge">
<title>Node9&#45;&gt;Node8</title>
<path fill="none" stroke="#404040" d="M465.46,-1395.9C458.89,-1387.57 451.4,-1377.17 446,-1367 430.12,-1337.08 417.68,-1300.67 409.59,-1273.51"/>
<polygon fill="none" stroke="#404040" points="409.52,-1273.27 404.02,-1268.62 406.19,-1261.74 411.7,-1266.39 409.52,-1273.27"/>
<text text-anchor="middle" x="456" y="-1359" font-family="Helvetica,sans-Serif" font-size="10.00"> +ptr</text>
</g>
<!-- Node10 -->
<g id="node10" class="node">
<title>Node10</title>
<g id="a_node10"><a xlink:title=" ">
<polygon fill="white" stroke="#bfbfbf" points="429.5,-894 429.5,-962 530.5,-962 530.5,-894 429.5,-894"/>
<text text-anchor="start" x="437.5" y="-950" font-family="Helvetica,sans-Serif" font-size="10.00">std::unordered_map</text>
<text text-anchor="middle" x="480" y="-939" font-family="Helvetica,sans-Serif" font-size="10.00">&lt; K, T &gt;</text>
<polyline fill="none" stroke="#bfbfbf" points="429.5,-932 530.5,-932 "/>
<text text-anchor="middle" x="480" y="-920" font-family="Helvetica,sans-Serif" font-size="10.00"> </text>
<polyline fill="none" stroke="#bfbfbf" points="429.5,-913 530.5,-913 "/>
<text text-anchor="middle" x="480" y="-901" font-family="Helvetica,sans-Serif" font-size="10.00"> </text>
</a>
</g>
</g>
<!-- Node9&#45;&gt;Node10 -->
<g id="edge11" class="edge">
<title>Node9&#45;&gt;Node10</title>
<path fill="none" stroke="#404040" d="M480,-1385.24C480,-1305.19 480,-1073.33 480,-974.5"/>
<polygon fill="none" stroke="#404040" points="480,-974.29 476,-968.29 480,-962.29 484,-968.29 480,-974.29"/>
<text text-anchor="middle" x="504.5" y="-1230.5" font-family="Helvetica,sans-Serif" font-size="10.00"> +elements</text>
</g>
<!-- Node16 -->
<g id="node16" class="node">
<title>Node16</title>
<g id="a_node16"><a xlink:title=" ">
<polygon fill="white" stroke="#bfbfbf" points="577.5,-1280.5 577.5,-1337.5 680.5,-1337.5 680.5,-1280.5 577.5,-1280.5"/>
<text text-anchor="middle" x="629" y="-1325.5" font-family="Helvetica,sans-Serif" font-size="10.00">std::shared_ptr&lt; T &gt;</text>
<polyline fill="none" stroke="#bfbfbf" points="577.5,-1318.5 680.5,-1318.5 "/>
<text text-anchor="middle" x="629" y="-1306.5" font-family="Helvetica,sans-Serif" font-size="10.00"> </text>
<polyline fill="none" stroke="#bfbfbf" points="577.5,-1299.5 680.5,-1299.5 "/>
<text text-anchor="start" x="585.5" y="-1287.5" font-family="Helvetica,sans-Serif" font-size="10.00">+ operator&#45;&gt;()</text>
</a>
</g>
</g>
<!-- Node9&#45;&gt;Node16 -->
<g id="edge17" class="edge">
<title>Node9&#45;&gt;Node16</title>
<path fill="none" stroke="#404040" d="M494.56,-1402.94C513.95,-1389.53 549.24,-1365.14 578.8,-1344.7"/>
<polygon fill="none" stroke="#404040" points="579.11,-1344.49 581.77,-1337.79 588.98,-1337.67 586.32,-1344.37 579.11,-1344.49"/>
<text text-anchor="middle" x="569" y="-1359" font-family="Helvetica,sans-Serif" font-size="10.00"> +ptr</text>
</g>
<!-- Node10&#45;&gt;Node6 -->
<g id="edge9" class="edge">
<title>Node10&#45;&gt;Node6</title>
<path fill="none" stroke="orange" d="M453.09,-885.42C439,-862.2 422.35,-832.31 411,-804 399.3,-774.82 390.7,-740.22 385.21,-714.28"/>
<polygon fill="orange" stroke="orange" points="450.14,-887.29 458.36,-893.98 456.1,-883.63 450.14,-887.29"/>
<text text-anchor="start" x="411" y="-796" font-family="Helvetica,sans-Serif" font-size="10.00"> &lt; prev_block_hash_t,</text>
<text text-anchor="middle" x="471.5" y="-785" font-family="Helvetica,sans-Serif" font-size="10.00"> std::unique_ptr&lt; index_t &gt; &gt;</text>
</g>
<!-- Node11 -->
<g id="node11" class="node">
<title>Node11</title>
<g id="a_node11"><a xlink:title=" ">
<polygon fill="white" stroke="#bfbfbf" points="593.5,-1128.5 593.5,-1185.5 622.5,-1185.5 622.5,-1128.5 593.5,-1128.5"/>
<text text-anchor="middle" x="608" y="-1173.5" font-family="Helvetica,sans-Serif" font-size="10.00">K</text>
<polyline fill="none" stroke="#bfbfbf" points="593.5,-1166.5 622.5,-1166.5 "/>
<text text-anchor="middle" x="608" y="-1154.5" font-family="Helvetica,sans-Serif" font-size="10.00"> </text>
<polyline fill="none" stroke="#bfbfbf" points="593.5,-1147.5 622.5,-1147.5 "/>
<text text-anchor="middle" x="608" y="-1135.5" font-family="Helvetica,sans-Serif" font-size="10.00"> </text>
</a>
</g>
</g>
<!-- Node11&#45;&gt;Node10 -->
<g id="edge10" class="edge">
<title>Node11&#45;&gt;Node10</title>
<path fill="none" stroke="#404040" d="M593.25,-1136.71C587.32,-1128.63 580.57,-1119.03 575,-1110 547.05,-1064.7 519.24,-1010.35 501,-973.11"/>
<polygon fill="none" stroke="#404040" points="500.91,-972.92 494.69,-969.27 495.66,-962.13 501.88,-965.77 500.91,-972.92"/>
<text text-anchor="middle" x="589.5" y="-1078.5" font-family="Helvetica,sans-Serif" font-size="10.00"> +keys</text>
</g>
<!-- Node18 -->
<g id="node18" class="node">
<title>Node18</title>
<g id="a_node18"><a xlink:title=" ">
<polygon fill="white" stroke="#bfbfbf" points="698.5,-899.5 698.5,-956.5 769.5,-956.5 769.5,-899.5 698.5,-899.5"/>
<text text-anchor="middle" x="734" y="-944.5" font-family="Helvetica,sans-Serif" font-size="10.00">std::set&lt; K &gt;</text>
<polyline fill="none" stroke="#bfbfbf" points="698.5,-937.5 769.5,-937.5 "/>
<text text-anchor="middle" x="734" y="-925.5" font-family="Helvetica,sans-Serif" font-size="10.00"> </text>
<polyline fill="none" stroke="#bfbfbf" points="698.5,-918.5 769.5,-918.5 "/>
<text text-anchor="middle" x="734" y="-906.5" font-family="Helvetica,sans-Serif" font-size="10.00"> </text>
</a>
</g>
</g>
<!-- Node11&#45;&gt;Node18 -->
<g id="edge22" class="edge">
<title>Node11&#45;&gt;Node18</title>
<path fill="none" stroke="#404040" d="M622.79,-1136.74C628.73,-1128.66 635.47,-1119.06 641,-1110 670.05,-1062.46 698.59,-1004.81 716.24,-967.55"/>
<polygon fill="none" stroke="#404040" points="716.25,-967.53 715.18,-960.4 721.35,-956.67 722.42,-963.8 716.25,-967.53"/>
<text text-anchor="middle" x="685.5" y="-1078.5" font-family="Helvetica,sans-Serif" font-size="10.00"> +keys</text>
</g>
<!-- Node19 -->
<g id="node19" class="node">
<title>Node19</title>
<g id="a_node19"><a xlink:title=" ">
<polygon fill="white" stroke="#bfbfbf" points="548.5,-899.5 548.5,-956.5 667.5,-956.5 667.5,-899.5 548.5,-899.5"/>
<text text-anchor="middle" x="608" y="-944.5" font-family="Helvetica,sans-Serif" font-size="10.00">std::unordered_set&lt; K &gt;</text>
<polyline fill="none" stroke="#bfbfbf" points="548.5,-937.5 667.5,-937.5 "/>
<text text-anchor="middle" x="608" y="-925.5" font-family="Helvetica,sans-Serif" font-size="10.00"> </text>
<polyline fill="none" stroke="#bfbfbf" points="548.5,-918.5 667.5,-918.5 "/>
<text text-anchor="middle" x="608" y="-906.5" font-family="Helvetica,sans-Serif" font-size="10.00"> </text>
</a>
</g>
</g>
<!-- Node11&#45;&gt;Node19 -->
<g id="edge24" class="edge">
<title>Node11&#45;&gt;Node19</title>
<path fill="none" stroke="#404040" d="M608,-1128.17C608,-1088.23 608,-1014.48 608,-968.8"/>
<polygon fill="none" stroke="#404040" points="608,-968.71 604,-962.71 608,-956.71 612,-962.71 608,-968.71"/>
<text text-anchor="middle" x="622.5" y="-1078.5" font-family="Helvetica,sans-Serif" font-size="10.00"> +keys</text>
</g>
<!-- Node12 -->
<g id="node12" class="node">
<title>Node12</title>
<g id="a_node12"><a xlink:title=" ">
<polygon fill="white" stroke="#bfbfbf" points="465.5,-640.5 465.5,-708.5 612.5,-708.5 612.5,-640.5 465.5,-640.5"/>
<text text-anchor="start" x="473.5" y="-696.5" font-family="Helvetica,sans-Serif" font-size="10.00">std::unordered_set</text>
<text text-anchor="middle" x="539" y="-685.5" font-family="Helvetica,sans-Serif" font-size="10.00">&lt; altintegration::BlockIndex * &gt;</text>
<polyline fill="none" stroke="#bfbfbf" points="465.5,-678.5 612.5,-678.5 "/>
<text text-anchor="middle" x="539" y="-666.5" font-family="Helvetica,sans-Serif" font-size="10.00"> </text>
<polyline fill="none" stroke="#bfbfbf" points="465.5,-659.5 612.5,-659.5 "/>
<text text-anchor="middle" x="539" y="-647.5" font-family="Helvetica,sans-Serif" font-size="10.00"> </text>
</a>
</g>
</g>
<!-- Node12&#45;&gt;Node2 -->
<g id="edge12" class="edge">
<title>Node12&#45;&gt;Node2</title>
<path fill="none" stroke="#404040" d="M508.12,-640.43C476.72,-606.8 426.67,-553.21 383.41,-506.89"/>
<polygon fill="none" stroke="#404040" points="383.32,-506.8 376.3,-505.14 375.13,-498.03 382.15,-499.68 383.32,-506.8"/>
<text text-anchor="middle" x="448.5" y="-559" font-family="Helvetica,sans-Serif" font-size="10.00"> #tips_</text>
</g>
<!-- Node13 -->
<g id="node13" class="node">
<title>Node13</title>
<g id="a_node13"><a xlink:href="structaltintegration_1_1BlockIndex.html" target="_top" xlink:title="A node in a block tree.">
<polygon fill="white" stroke="black" points="813.5,-822.5 813.5,-1033.5 938.5,-1033.5 938.5,-822.5 813.5,-822.5"/>
<text text-anchor="start" x="821.5" y="-1021.5" font-family="Helvetica,sans-Serif" font-size="10.00">altintegration::BlockIndex</text>
<text text-anchor="middle" x="876" y="-1010.5" font-family="Helvetica,sans-Serif" font-size="10.00">&lt; Block &gt;</text>
<polyline fill="none" stroke="black" points="813.5,-1003.5 938.5,-1003.5 "/>
<text text-anchor="start" x="821.5" y="-991.5" font-family="Helvetica,sans-Serif" font-size="10.00">+ finalized</text>
<text text-anchor="start" x="821.5" y="-980.5" font-family="Helvetica,sans-Serif" font-size="10.00"># height</text>
<text text-anchor="start" x="821.5" y="-969.5" font-family="Helvetica,sans-Serif" font-size="10.00"># status</text>
<text text-anchor="start" x="821.5" y="-958.5" font-family="Helvetica,sans-Serif" font-size="10.00"># dirty</text>
<polyline fill="none" stroke="black" points="813.5,-951.5 938.5,-951.5 "/>
<text text-anchor="start" x="821.5" y="-939.5" font-family="Helvetica,sans-Serif" font-size="10.00">+ BlockIndex()</text>
<text text-anchor="start" x="821.5" y="-928.5" font-family="Helvetica,sans-Serif" font-size="10.00">+ BlockIndex()</text>
<text text-anchor="start" x="821.5" y="-917.5" font-family="Helvetica,sans-Serif" font-size="10.00">+ ~BlockIndex()</text>
<text text-anchor="start" x="821.5" y="-906.5" font-family="Helvetica,sans-Serif" font-size="10.00">+ BlockIndex()</text>
<text text-anchor="start" x="821.5" y="-895.5" font-family="Helvetica,sans-Serif" font-size="10.00">+ operator=()</text>
<text text-anchor="start" x="821.5" y="-884.5" font-family="Helvetica,sans-Serif" font-size="10.00">+ isDeleted()</text>
<text text-anchor="start" x="821.5" y="-873.5" font-family="Helvetica,sans-Serif" font-size="10.00">+ isRoot()</text>
<text text-anchor="start" x="821.5" y="-862.5" font-family="Helvetica,sans-Serif" font-size="10.00">+ restore()</text>
<text text-anchor="start" x="821.5" y="-851.5" font-family="Helvetica,sans-Serif" font-size="10.00">+ deleteTemporarily()</text>
<text text-anchor="start" x="821.5" y="-840.5" font-family="Helvetica,sans-Serif" font-size="10.00">+ mergeFrom()</text>
<text text-anchor="start" x="821.5" y="-829.5" font-family="Helvetica,sans-Serif" font-size="10.00">and 38 more...</text>
</a>
</g>
</g>
<!-- Node13&#45;&gt;Node12 -->
<g id="edge13" class="edge">
<title>Node13&#45;&gt;Node12</title>
<path fill="none" stroke="#404040" d="M813.32,-848.41C802.71,-838.45 791.16,-829.23 779,-822 751.02,-805.36 737.32,-818.14 708,-804 682.87,-791.89 628.38,-749.17 588.03,-716.28"/>
<polygon fill="none" stroke="#404040" points="587.9,-716.18 580.73,-715.48 578.62,-708.58 585.79,-709.29 587.9,-716.18"/>
<text text-anchor="middle" x="722.5" y="-790.5" font-family="Helvetica,sans-Serif" font-size="10.00"> +keys</text>
</g>
<!-- Node13&#45;&gt;Node13 -->
<g id="edge18" class="edge">
<title>Node13&#45;&gt;Node13</title>
<path fill="none" stroke="#404040" d="M938.78,-951.35C949.26,-948.08 956.5,-940.3 956.5,-928 956.5,-920.5 953.81,-914.69 949.34,-910.54"/>
<polygon fill="none" stroke="#404040" points="949.26,-910.5 942.07,-911.06 938.78,-904.65 945.97,-904.08 949.26,-910.5"/>
<text text-anchor="middle" x="973" y="-925.5" font-family="Helvetica,sans-Serif" font-size="10.00"> +pprev</text>
</g>
<!-- Node17 -->
<g id="node17" class="node">
<title>Node17</title>
<g id="a_node17"><a xlink:title=" ">
<polygon fill="white" stroke="#bfbfbf" points="847,-640.5 847,-708.5 959,-708.5 959,-640.5 847,-640.5"/>
<text text-anchor="start" x="855" y="-696.5" font-family="Helvetica,sans-Serif" font-size="10.00">std::set&lt; altintegration</text>
<text text-anchor="middle" x="903" y="-685.5" font-family="Helvetica,sans-Serif" font-size="10.00">::BlockIndex * &gt;</text>
<polyline fill="none" stroke="#bfbfbf" points="847,-678.5 959,-678.5 "/>
<text text-anchor="middle" x="903" y="-666.5" font-family="Helvetica,sans-Serif" font-size="10.00"> </text>
<polyline fill="none" stroke="#bfbfbf" points="847,-659.5 959,-659.5 "/>
<text text-anchor="middle" x="903" y="-647.5" font-family="Helvetica,sans-Serif" font-size="10.00"> </text>
</a>
</g>
</g>
<!-- Node13&#45;&gt;Node17 -->
<g id="edge20" class="edge">
<title>Node13&#45;&gt;Node17</title>
<path fill="none" stroke="#404040" d="M887.25,-822.16C891.04,-786.86 895.08,-749.3 898.11,-721.03"/>
<polygon fill="none" stroke="#404040" points="898.15,-720.67 894.81,-714.27 899.43,-708.74 902.77,-715.13 898.15,-720.67"/>
<text text-anchor="middle" x="905.5" y="-790.5" font-family="Helvetica,sans-Serif" font-size="10.00"> +keys</text>
</g>
<!-- Node14 -->
<g id="node14" class="node">
<title>Node14</title>
<g id="a_node14"><a xlink:title=" ">
<polygon fill="white" stroke="#bfbfbf" points="714,-1128.5 714,-1185.5 794,-1185.5 794,-1128.5 714,-1128.5"/>
<text text-anchor="middle" x="754" y="-1173.5" font-family="Helvetica,sans-Serif" font-size="10.00">Block::addon_t</text>
<polyline fill="none" stroke="#bfbfbf" points="714,-1166.5 794,-1166.5 "/>
<text text-anchor="middle" x="754" y="-1154.5" font-family="Helvetica,sans-Serif" font-size="10.00"> </text>
<polyline fill="none" stroke="#bfbfbf" points="714,-1147.5 794,-1147.5 "/>
<text text-anchor="middle" x="754" y="-1135.5" font-family="Helvetica,sans-Serif" font-size="10.00"> </text>
</a>
</g>
</g>
<!-- Node14&#45;&gt;Node13 -->
<g id="edge14" class="edge">
<title>Node14&#45;&gt;Node13</title>
<path fill="none" stroke="midnightblue" d="M773.72,-1119.3C786.3,-1095.91 803.28,-1064.31 819.79,-1033.58"/>
<polygon fill="none" stroke="midnightblue" points="770.61,-1117.7 768.96,-1128.17 776.78,-1121.01 770.61,-1117.7"/>
</g>
<!-- Node15 -->
<g id="node15" class="node">
<title>Node15</title>
<g id="a_node15"><a xlink:title=" ">
<polygon fill="white" stroke="#bfbfbf" points="812,-1128.5 812,-1185.5 940,-1185.5 940,-1128.5 812,-1128.5"/>
<text text-anchor="middle" x="876" y="-1173.5" font-family="Helvetica,sans-Serif" font-size="10.00">std::shared_ptr&lt; block_t &gt;</text>
<polyline fill="none" stroke="#bfbfbf" points="812,-1166.5 940,-1166.5 "/>
<text text-anchor="start" x="820" y="-1154.5" font-family="Helvetica,sans-Serif" font-size="10.00">+ ptr</text>
<polyline fill="none" stroke="#bfbfbf" points="812,-1147.5 940,-1147.5 "/>
<text text-anchor="start" x="820" y="-1135.5" font-family="Helvetica,sans-Serif" font-size="10.00">+ operator&#45;&gt;()</text>
</a>
</g>
</g>
<!-- Node15&#45;&gt;Node13 -->
<g id="edge15" class="edge">
<title>Node15&#45;&gt;Node13</title>
<path fill="none" stroke="#404040" d="M876,-1128.17C876,-1107.11 876,-1076.64 876,-1045.84"/>
<polygon fill="none" stroke="#404040" points="876,-1045.58 872,-1039.58 876,-1033.58 880,-1039.58 876,-1045.58"/>
<text text-anchor="middle" x="894.5" y="-1078.5" font-family="Helvetica,sans-Serif" font-size="10.00"> #header</text>
</g>
<!-- Node16&#45;&gt;Node15 -->
<g id="edge16" class="edge">
<title>Node16&#45;&gt;Node15</title>
<path fill="none" stroke="orange" d="M682.89,-1275.27C727.06,-1248.45 788.87,-1210.91 830.57,-1185.59"/>
<polygon fill="orange" stroke="orange" points="681.03,-1272.31 674.3,-1280.49 684.67,-1278.29 681.03,-1272.31"/>
<text text-anchor="middle" x="821.5" y="-1230.5" font-family="Helvetica,sans-Serif" font-size="10.00"> &lt; block_t &gt;</text>
</g>
<!-- Node17&#45;&gt;Node13 -->
<g id="edge19" class="edge">
<title>Node17&#45;&gt;Node13</title>
<path fill="none" stroke="#404040" d="M919.06,-708.73C929.58,-734.64 940.15,-771.56 933,-804 932.52,-806.19 931.99,-808.39 931.43,-810.59"/>
<polygon fill="none" stroke="#404040" points="931.36,-810.83 933.55,-817.7 928.06,-822.37 925.86,-815.5 931.36,-810.83"/>
<text text-anchor="middle" x="951" y="-790.5" font-family="Helvetica,sans-Serif" font-size="10.00"> +pnext</text>
</g>
<!-- Node18&#45;&gt;Node17 -->
<g id="edge21" class="edge">
<title>Node18&#45;&gt;Node17</title>
<path fill="none" stroke="orange" d="M730.61,-888.85C729.68,-857.92 732.63,-814.31 752,-782 773.85,-745.54 813.54,-718.29 846.74,-700.49"/>
<polygon fill="orange" stroke="orange" points="727.13,-889.4 731.08,-899.23 734.12,-889.08 727.13,-889.4"/>
<text text-anchor="middle" x="818.5" y="-790.5" font-family="Helvetica,sans-Serif" font-size="10.00"> &lt; altintegration::BlockIndex * &gt;</text>
</g>
<!-- Node19&#45;&gt;Node12 -->
<g id="edge23" class="edge">
<title>Node19&#45;&gt;Node12</title>
<path fill="none" stroke="orange" d="M581.69,-890.85C566.26,-867.37 548.23,-835.39 540,-804 531.71,-772.38 532.58,-734.87 534.84,-708.57"/>
<polygon fill="orange" stroke="orange" points="578.97,-893.06 587.45,-899.41 584.78,-889.16 578.97,-893.06"/>
<text text-anchor="middle" x="606.5" y="-790.5" font-family="Helvetica,sans-Serif" font-size="10.00"> &lt; altintegration::BlockIndex * &gt;</text>
</g>
</g>
</svg>
