<?xml version="1.0" encoding="UTF-8" standalone="no"?>
<!DOCTYPE svg PUBLIC "-//W3C//DTD SVG 1.1//EN"
 "http://www.w3.org/Graphics/SVG/1.1/DTD/svg11.dtd">
<!-- Generated by graphviz version 2.50.0 (20220203.2022)
 -->
<!-- Title: altintegration::DefaultPopRewardsCalculator Pages: 1 -->
<svg width="861pt" height="2035pt"
 viewBox="0.00 0.00 860.50 2035.00" xmlns="http://www.w3.org/2000/svg" xmlns:xlink="http://www.w3.org/1999/xlink">
<g id="graph0" class="graph" transform="scale(1 1) rotate(0) translate(4 2031)">
<title>altintegration::DefaultPopRewardsCalculator</title>
<polygon fill="white" stroke="transparent" points="-4,4 -4,-2031 856.5,-2031 856.5,4 -4,4"/>
<!-- Node1 -->
<g id="node1" class="node">
<title>Node1</title>
<g id="a_node1"><a xlink:title=" ">
<polygon fill="#bfbfbf" stroke="black" points="225.5,-0.5 225.5,-189.5 391.5,-189.5 391.5,-0.5 225.5,-0.5"/>
<text text-anchor="start" x="233.5" y="-177.5" font-family="Helvetica,sans-Serif" font-size="10.00">altintegration::DefaultPop</text>
<text text-anchor="middle" x="308.5" y="-166.5" font-family="Helvetica,sans-Serif" font-size="10.00">RewardsCalculator</text>
<polyline fill="none" stroke="black" points="225.5,-159.5 391.5,-159.5 "/>
<text text-anchor="middle" x="308.5" y="-147.5" font-family="Helvetica,sans-Serif" font-size="10.00"> </text>
<polyline fill="none" stroke="black" points="225.5,-140.5 391.5,-140.5 "/>
<text text-anchor="start" x="233.5" y="-128.5" font-family="Helvetica,sans-Serif" font-size="10.00">+ DefaultPopRewardsCalculator()</text>
<text text-anchor="start" x="233.5" y="-117.5" font-family="Helvetica,sans-Serif" font-size="10.00">+ ~DefaultPopRewardsCalculator()</text>
<text text-anchor="start" x="233.5" y="-106.5" font-family="Helvetica,sans-Serif" font-size="10.00">+ getPopPayout()</text>
<text text-anchor="start" x="233.5" y="-95.5" font-family="Helvetica,sans-Serif" font-size="10.00">+ calculatePayouts()</text>
<text text-anchor="start" x="233.5" y="-84.5" font-family="Helvetica,sans-Serif" font-size="10.00">+ scoreFromEndorsements()</text>
<text text-anchor="start" x="233.5" y="-73.5" font-family="Helvetica,sans-Serif" font-size="10.00">+ getRoundForBlockNumber()</text>
<text text-anchor="start" x="233.5" y="-62.5" font-family="Helvetica,sans-Serif" font-size="10.00">+ calculateBlockReward()</text>
<text text-anchor="start" x="233.5" y="-51.5" font-family="Helvetica,sans-Serif" font-size="10.00">+ calculateMinerReward()</text>
<text text-anchor="start" x="233.5" y="-40.5" font-family="Helvetica,sans-Serif" font-size="10.00"># getScoreMultiplierFromRelative</text>
<text text-anchor="start" x="233.5" y="-29.5" font-family="Helvetica,sans-Serif" font-size="10.00">Block()</text>
<text text-anchor="start" x="233.5" y="-18.5" font-family="Helvetica,sans-Serif" font-size="10.00"># calculateDifficulty()</text>
<text text-anchor="start" x="233.5" y="-7.5" font-family="Helvetica,sans-Serif" font-size="10.00"># calculatePayoutsInner()</text>
</a>
</g>
</g>
<!-- Node2 -->
<g id="node2" class="node">
<title>Node2</title>
<g id="a_node2"><a xlink:href="structaltintegration_1_1PopRewardsCalculator.html" target="_top" xlink:title=" ">
<polygon fill="white" stroke="black" points="225,-320 225,-399 360,-399 360,-320 225,-320"/>
<text text-anchor="start" x="233" y="-387" font-family="Helvetica,sans-Serif" font-size="10.00">altintegration::PopRewards</text>
<text text-anchor="middle" x="292.5" y="-376" font-family="Helvetica,sans-Serif" font-size="10.00">Calculator</text>
<polyline fill="none" stroke="black" points="225,-369 360,-369 "/>
<text text-anchor="middle" x="292.5" y="-357" font-family="Helvetica,sans-Serif" font-size="10.00"> </text>
<polyline fill="none" stroke="black" points="225,-350 360,-350 "/>
<text text-anchor="start" x="233" y="-338" font-family="Helvetica,sans-Serif" font-size="10.00">+ ~PopRewardsCalculator()</text>
<text text-anchor="start" x="233" y="-327" font-family="Helvetica,sans-Serif" font-size="10.00">+ getPopPayout()</text>
</a>
</g>
</g>
<!-- Node2&#45;&gt;Node1 -->
<g id="edge1" class="edge">
<title>Node2&#45;&gt;Node1</title>
<path fill="none" stroke="midnightblue" d="M295.47,-309.73C297.52,-276.07 300.32,-230.25 302.79,-189.66"/>
<polygon fill="none" stroke="midnightblue" points="291.98,-309.57 294.86,-319.77 298.96,-310 291.98,-309.57"/>
</g>
<!-- Node3 -->
<g id="node3" class="node">
<title>Node3</title>
<g id="a_node3"><a xlink:href="structaltintegration_1_1AltBlockTree.html" target="_top" xlink:title="Represents simplified view on Altchain&#39;s block tree, maintains VBK tree and BTC tree.">
<polygon fill="white" stroke="black" points="378,-237.5 378,-481.5 527,-481.5 527,-237.5 378,-237.5"/>
<text text-anchor="middle" x="452.5" y="-469.5" font-family="Helvetica,sans-Serif" font-size="10.00">altintegration::AltBlockTree</text>
<polyline fill="none" stroke="black" points="378,-462.5 527,-462.5 "/>
<text text-anchor="start" x="386" y="-450.5" font-family="Helvetica,sans-Serif" font-size="10.00">+ onInvalidBlockConnected</text>
<text text-anchor="start" x="386" y="-439.5" font-family="Helvetica,sans-Serif" font-size="10.00">+ onBlockConnected</text>
<text text-anchor="start" x="386" y="-428.5" font-family="Helvetica,sans-Serif" font-size="10.00">+ onBeforeOverrideTip</text>
<polyline fill="none" stroke="black" points="378,-421.5 527,-421.5 "/>
<text text-anchor="start" x="386" y="-409.5" font-family="Helvetica,sans-Serif" font-size="10.00">+ ~AltBlockTree()</text>
<text text-anchor="start" x="386" y="-398.5" font-family="Helvetica,sans-Serif" font-size="10.00">+ AltBlockTree()</text>
<text text-anchor="start" x="386" y="-387.5" font-family="Helvetica,sans-Serif" font-size="10.00">+ acceptBlockHeader()</text>
<text text-anchor="start" x="386" y="-376.5" font-family="Helvetica,sans-Serif" font-size="10.00">+ acceptBlock()</text>
<text text-anchor="start" x="386" y="-365.5" font-family="Helvetica,sans-Serif" font-size="10.00">+ acceptBlock()</text>
<text text-anchor="start" x="386" y="-354.5" font-family="Helvetica,sans-Serif" font-size="10.00">+ acceptBlock()</text>
<text text-anchor="start" x="386" y="-343.5" font-family="Helvetica,sans-Serif" font-size="10.00">+ makeConnectedLeafPayload</text>
<text text-anchor="start" x="386" y="-332.5" font-family="Helvetica,sans-Serif" font-size="10.00">Mutator()</text>
<text text-anchor="start" x="386" y="-321.5" font-family="Helvetica,sans-Serif" font-size="10.00">+ getConnectedTipsAfter()</text>
<text text-anchor="start" x="386" y="-310.5" font-family="Helvetica,sans-Serif" font-size="10.00">+ loadBlockForward()</text>
<text text-anchor="start" x="386" y="-299.5" font-family="Helvetica,sans-Serif" font-size="10.00">+ loadTip()</text>
<text text-anchor="start" x="386" y="-288.5" font-family="Helvetica,sans-Serif" font-size="10.00">+ comparePopScore()</text>
<text text-anchor="start" x="386" y="-277.5" font-family="Helvetica,sans-Serif" font-size="10.00">+ setState()</text>
<text text-anchor="start" x="386" y="-266.5" font-family="Helvetica,sans-Serif" font-size="10.00">+ vbk()</text>
<text text-anchor="start" x="386" y="-255.5" font-family="Helvetica,sans-Serif" font-size="10.00">+ btc()</text>
<text text-anchor="start" x="386" y="-244.5" font-family="Helvetica,sans-Serif" font-size="10.00">+ getParams()</text>
</a>
</g>
</g>
<!-- Node3&#45;&gt;Node1 -->
<g id="edge2" class="edge">
<title>Node3&#45;&gt;Node1</title>
<path fill="none" stroke="#404040" d="M385.98,-237.24C379.2,-224.87 372.35,-212.39 365.68,-200.23"/>
<polygon fill="none" stroke="#404040" points="365.64,-200.16 359.25,-196.83 359.87,-189.64 366.26,-192.98 365.64,-200.16"/>
<text text-anchor="middle" x="387.5" y="-211" font-family="Helvetica,sans-Serif" font-size="10.00"> #tree_</text>
</g>
<!-- Node4 -->
<g id="node4" class="node">
<title>Node4</title>
<g id="a_node4"><a xlink:href="structaltintegration_1_1BaseBlockTree.html" target="_top" xlink:title=" ">
<polygon fill="white" stroke="black" points="376.5,-519.5 376.5,-796.5 528.5,-796.5 528.5,-519.5 376.5,-519.5"/>
<text text-anchor="start" x="384.5" y="-784.5" font-family="Helvetica,sans-Serif" font-size="10.00">altintegration::BaseBlock</text>
<text text-anchor="middle" x="452.5" y="-773.5" font-family="Helvetica,sans-Serif" font-size="10.00">Tree&lt; AltBlock &gt;</text>
<polyline fill="none" stroke="black" points="376.5,-766.5 528.5,-766.5 "/>
<text text-anchor="start" x="384.5" y="-754.5" font-family="Helvetica,sans-Serif" font-size="10.00">+ onBlockBeforeDeallocated</text>
<text text-anchor="start" x="384.5" y="-743.5" font-family="Helvetica,sans-Serif" font-size="10.00">+ onBlockValidityChanged</text>
<text text-anchor="start" x="384.5" y="-732.5" font-family="Helvetica,sans-Serif" font-size="10.00"># isLoadingBlocks_</text>
<text text-anchor="start" x="384.5" y="-721.5" font-family="Helvetica,sans-Serif" font-size="10.00"># isLoaded_</text>
<polyline fill="none" stroke="black" points="376.5,-714.5 528.5,-714.5 "/>
<text text-anchor="start" x="384.5" y="-702.5" font-family="Helvetica,sans-Serif" font-size="10.00">+ getTips()</text>
<text text-anchor="start" x="384.5" y="-691.5" font-family="Helvetica,sans-Serif" font-size="10.00">+ getBlocks()</text>
<text text-anchor="start" x="384.5" y="-680.5" font-family="Helvetica,sans-Serif" font-size="10.00">+ getAllBlocks()</text>
<text text-anchor="start" x="384.5" y="-669.5" font-family="Helvetica,sans-Serif" font-size="10.00">+ getBlockProvider()</text>
<text text-anchor="start" x="384.5" y="-658.5" font-family="Helvetica,sans-Serif" font-size="10.00">+ ~BaseBlockTree()</text>
<text text-anchor="start" x="384.5" y="-647.5" font-family="Helvetica,sans-Serif" font-size="10.00">+ BaseBlockTree()</text>
<text text-anchor="start" x="384.5" y="-636.5" font-family="Helvetica,sans-Serif" font-size="10.00">+ BaseBlockTree()</text>
<text text-anchor="start" x="384.5" y="-625.5" font-family="Helvetica,sans-Serif" font-size="10.00">+ BaseBlockTree()</text>
<text text-anchor="start" x="384.5" y="-614.5" font-family="Helvetica,sans-Serif" font-size="10.00">+ operator=()</text>
<text text-anchor="start" x="384.5" y="-603.5" font-family="Helvetica,sans-Serif" font-size="10.00">+ operator=()</text>
<text text-anchor="start" x="384.5" y="-592.5" font-family="Helvetica,sans-Serif" font-size="10.00">and 23 more...</text>
<text text-anchor="start" x="384.5" y="-581.5" font-family="Helvetica,sans-Serif" font-size="10.00"># deallocateBlock()</text>
<text text-anchor="start" x="384.5" y="-570.5" font-family="Helvetica,sans-Serif" font-size="10.00"># toPrettyString()</text>
<text text-anchor="start" x="384.5" y="-559.5" font-family="Helvetica,sans-Serif" font-size="10.00"># decreaseAppliedBlockCount()</text>
<text text-anchor="start" x="384.5" y="-548.5" font-family="Helvetica,sans-Serif" font-size="10.00"># decreaseAppliedBlockCount()</text>
<text text-anchor="start" x="384.5" y="-537.5" font-family="Helvetica,sans-Serif" font-size="10.00"># increaseAppliedBlockCount()</text>
<text text-anchor="start" x="384.5" y="-526.5" font-family="Helvetica,sans-Serif" font-size="10.00"># increaseAppliedBlockCount()</text>
</a>
</g>
</g>
<!-- Node4&#45;&gt;Node3 -->
<g id="edge3" class="edge">
<title>Node4&#45;&gt;Node3</title>
<path fill="none" stroke="midnightblue" d="M452.5,-509.15C452.5,-499.91 452.5,-490.67 452.5,-481.57"/>
<polygon fill="none" stroke="midnightblue" points="449,-509.17 452.5,-519.17 456,-509.17 449,-509.17"/>
</g>
<!-- Node5 -->
<g id="node5" class="node">
<title>Node5</title>
<g id="a_node5"><a xlink:title=" ">
<polygon fill="white" stroke="black" points="35,-1219 35,-1298 172,-1298 172,-1219 35,-1219"/>
<text text-anchor="start" x="43" y="-1286" font-family="Helvetica,sans-Serif" font-size="10.00">std::unordered_map</text>
<text text-anchor="start" x="43" y="-1275" font-family="Helvetica,sans-Serif" font-size="10.00">&lt; prev_block_hash_t,</text>
<text text-anchor="middle" x="103.5" y="-1264" font-family="Helvetica,sans-Serif" font-size="10.00"> std::unique_ptr&lt; index_t &gt; &gt;</text>
<polyline fill="none" stroke="black" points="35,-1257 172,-1257 "/>
<text text-anchor="start" x="43" y="-1245" font-family="Helvetica,sans-Serif" font-size="10.00">+ keys</text>
<polyline fill="none" stroke="black" points="35,-1238 172,-1238 "/>
<text text-anchor="middle" x="103.5" y="-1226" font-family="Helvetica,sans-Serif" font-size="10.00"> </text>
</a>
</g>
</g>
<!-- Node5&#45;&gt;Node4 -->
<g id="edge4" class="edge">
<title>Node5&#45;&gt;Node4</title>
<path fill="none" stroke="#404040" d="M113,-1218.79C132.91,-1142.49 184.13,-969.23 266.5,-844 294.07,-802.08 332.35,-761.99 367.02,-729.9"/>
<polygon fill="none" stroke="#404040" points="367.36,-729.59 369.09,-722.59 376.22,-721.5 374.49,-728.5 367.36,-729.59"/>
<text text-anchor="middle" x="287.5" y="-980.5" font-family="Helvetica,sans-Serif" font-size="10.00"> #blocks_</text>
</g>
<!-- Node22 -->
<g id="node22" class="node">
<title>Node22</title>
<g id="a_node22"><a xlink:href="structaltintegration_1_1BaseBlockTree.html" target="_top" xlink:title="Base block tree that stores all blocks, maintains tree tips, maintains active chain.">
<polygon fill="white" stroke="black" points="376.5,-844.5 376.5,-1121.5 528.5,-1121.5 528.5,-844.5 376.5,-844.5"/>
<text text-anchor="start" x="384.5" y="-1109.5" font-family="Helvetica,sans-Serif" font-size="10.00">altintegration::BaseBlock</text>
<text text-anchor="middle" x="452.5" y="-1098.5" font-family="Helvetica,sans-Serif" font-size="10.00">Tree&lt; Block &gt;</text>
<polyline fill="none" stroke="black" points="376.5,-1091.5 528.5,-1091.5 "/>
<text text-anchor="start" x="384.5" y="-1079.5" font-family="Helvetica,sans-Serif" font-size="10.00">+ onBlockBeforeDeallocated</text>
<text text-anchor="start" x="384.5" y="-1068.5" font-family="Helvetica,sans-Serif" font-size="10.00">+ onBlockValidityChanged</text>
<text text-anchor="start" x="384.5" y="-1057.5" font-family="Helvetica,sans-Serif" font-size="10.00"># isLoadingBlocks_</text>
<text text-anchor="start" x="384.5" y="-1046.5" font-family="Helvetica,sans-Serif" font-size="10.00"># isLoaded_</text>
<polyline fill="none" stroke="black" points="376.5,-1039.5 528.5,-1039.5 "/>
<text text-anchor="start" x="384.5" y="-1027.5" font-family="Helvetica,sans-Serif" font-size="10.00">+ getTips()</text>
<text text-anchor="start" x="384.5" y="-1016.5" font-family="Helvetica,sans-Serif" font-size="10.00">+ getBlocks()</text>
<text text-anchor="start" x="384.5" y="-1005.5" font-family="Helvetica,sans-Serif" font-size="10.00">+ getAllBlocks()</text>
<text text-anchor="start" x="384.5" y="-994.5" font-family="Helvetica,sans-Serif" font-size="10.00">+ getBlockProvider()</text>
<text text-anchor="start" x="384.5" y="-983.5" font-family="Helvetica,sans-Serif" font-size="10.00">+ ~BaseBlockTree()</text>
<text text-anchor="start" x="384.5" y="-972.5" font-family="Helvetica,sans-Serif" font-size="10.00">+ BaseBlockTree()</text>
<text text-anchor="start" x="384.5" y="-961.5" font-family="Helvetica,sans-Serif" font-size="10.00">+ BaseBlockTree()</text>
<text text-anchor="start" x="384.5" y="-950.5" font-family="Helvetica,sans-Serif" font-size="10.00">+ operator=()</text>
<text text-anchor="start" x="384.5" y="-939.5" font-family="Helvetica,sans-Serif" font-size="10.00">+ BaseBlockTree()</text>
<text text-anchor="start" x="384.5" y="-928.5" font-family="Helvetica,sans-Serif" font-size="10.00">+ operator=()</text>
<text text-anchor="start" x="384.5" y="-917.5" font-family="Helvetica,sans-Serif" font-size="10.00">and 23 more...</text>
<text text-anchor="start" x="384.5" y="-906.5" font-family="Helvetica,sans-Serif" font-size="10.00"># deallocateBlock()</text>
<text text-anchor="start" x="384.5" y="-895.5" font-family="Helvetica,sans-Serif" font-size="10.00"># toPrettyString()</text>
<text text-anchor="start" x="384.5" y="-884.5" font-family="Helvetica,sans-Serif" font-size="10.00"># decreaseAppliedBlockCount()</text>
<text text-anchor="start" x="384.5" y="-873.5" font-family="Helvetica,sans-Serif" font-size="10.00"># increaseAppliedBlockCount()</text>
<text text-anchor="start" x="384.5" y="-862.5" font-family="Helvetica,sans-Serif" font-size="10.00"># decreaseAppliedBlockCount()</text>
<text text-anchor="start" x="384.5" y="-851.5" font-family="Helvetica,sans-Serif" font-size="10.00"># increaseAppliedBlockCount()</text>
</a>
</g>
</g>
<!-- Node5&#45;&gt;Node22 -->
<g id="edge28" class="edge">
<title>Node5&#45;&gt;Node22</title>
<path fill="none" stroke="#404040" d="M161.07,-1218.82C186.21,-1202.6 216.33,-1184.05 244.5,-1169 289.6,-1144.91 309.59,-1153.96 349.5,-1122 355.77,-1116.98 361.86,-1111.49 367.74,-1105.69"/>
<polygon fill="none" stroke="#404040" points="367.83,-1105.59 369.14,-1098.5 376.19,-1096.98 374.88,-1104.07 367.83,-1105.59"/>
<text text-anchor="middle" x="341.5" y="-1143" font-family="Helvetica,sans-Serif" font-size="10.00"> #blocks_</text>
</g>
<!-- Node6 -->
<g id="node6" class="node">
<title>Node6</title>
<g id="a_node6"><a xlink:title=" ">
<polygon fill="white" stroke="black" points="0,-1636.5 0,-1693.5 127,-1693.5 127,-1636.5 0,-1636.5"/>
<text text-anchor="middle" x="63.5" y="-1681.5" font-family="Helvetica,sans-Serif" font-size="10.00">std::unique_ptr&lt; index_t &gt;</text>
<polyline fill="none" stroke="black" points="0,-1674.5 127,-1674.5 "/>
<text text-anchor="start" x="8" y="-1662.5" font-family="Helvetica,sans-Serif" font-size="10.00">+ ptr</text>
<polyline fill="none" stroke="black" points="0,-1655.5 127,-1655.5 "/>
<text text-anchor="start" x="8" y="-1643.5" font-family="Helvetica,sans-Serif" font-size="10.00">+ operator&#45;&gt;()</text>
</a>
</g>
</g>
<!-- Node6&#45;&gt;Node5 -->
<g id="edge5" class="edge">
<title>Node6&#45;&gt;Node5</title>
<path fill="none" stroke="#404040" d="M55.8,-1636.46C54.43,-1630.42 53.21,-1624.03 52.5,-1618 41.47,-1524.43 36.79,-1498.9 52.5,-1406 58.1,-1372.89 70.34,-1337.28 81.43,-1309.46"/>
<polygon fill="none" stroke="#404040" points="81.55,-1309.15 80.12,-1302.09 86.09,-1298.04 87.52,-1305.11 81.55,-1309.15"/>
<text text-anchor="middle" x="77" y="-1509.5" font-family="Helvetica,sans-Serif" font-size="10.00"> +elements</text>
</g>
<!-- Node7 -->
<g id="node7" class="node">
<title>Node7</title>
<g id="a_node7"><a xlink:title=" ">
<polygon fill="white" stroke="black" points="34.5,-1788.5 34.5,-1845.5 136.5,-1845.5 136.5,-1788.5 34.5,-1788.5"/>
<text text-anchor="middle" x="85.5" y="-1833.5" font-family="Helvetica,sans-Serif" font-size="10.00">std::unique_ptr&lt; T &gt;</text>
<polyline fill="none" stroke="black" points="34.5,-1826.5 136.5,-1826.5 "/>
<text text-anchor="middle" x="85.5" y="-1814.5" font-family="Helvetica,sans-Serif" font-size="10.00"> </text>
<polyline fill="none" stroke="black" points="34.5,-1807.5 136.5,-1807.5 "/>
<text text-anchor="start" x="42.5" y="-1795.5" font-family="Helvetica,sans-Serif" font-size="10.00">+ operator&#45;&gt;()</text>
</a>
</g>
</g>
<!-- Node7&#45;&gt;Node6 -->
<g id="edge6" class="edge">
<title>Node7&#45;&gt;Node6</title>
<path fill="none" stroke="orange" d="M80,-1778.47C76.13,-1752.11 71.04,-1717.43 67.55,-1693.59"/>
<polygon fill="orange" stroke="orange" points="76.55,-1779.1 81.46,-1788.49 83.48,-1778.09 76.55,-1779.1"/>
<text text-anchor="middle" x="103.5" y="-1738.5" font-family="Helvetica,sans-Serif" font-size="10.00"> &lt; index_t &gt;</text>
</g>
<!-- Node8 -->
<g id="node8" class="node">
<title>Node8</title>
<g id="a_node8"><a xlink:title=" ">
<polygon fill="white" stroke="#bfbfbf" points="147,-1969.5 147,-2026.5 176,-2026.5 176,-1969.5 147,-1969.5"/>
<text text-anchor="middle" x="161.5" y="-2014.5" font-family="Helvetica,sans-Serif" font-size="10.00">T</text>
<polyline fill="none" stroke="#bfbfbf" points="147,-2007.5 176,-2007.5 "/>
<text text-anchor="middle" x="161.5" y="-1995.5" font-family="Helvetica,sans-Serif" font-size="10.00"> </text>
<polyline fill="none" stroke="#bfbfbf" points="147,-1988.5 176,-1988.5 "/>
<text text-anchor="middle" x="161.5" y="-1976.5" font-family="Helvetica,sans-Serif" font-size="10.00"> </text>
</a>
</g>
</g>
<!-- Node8&#45;&gt;Node7 -->
<g id="edge7" class="edge">
<title>Node8&#45;&gt;Node7</title>
<path fill="none" stroke="#404040" d="M146.81,-1979.98C140.2,-1971.67 132.73,-1961.26 127.5,-1951 112.25,-1921.06 101.19,-1884.51 94.26,-1857.3"/>
<polygon fill="none" stroke="#404040" points="94.23,-1857.17 88.92,-1852.3 91.37,-1845.52 96.68,-1850.39 94.23,-1857.17"/>
<text text-anchor="middle" x="137.5" y="-1943" font-family="Helvetica,sans-Serif" font-size="10.00"> +ptr</text>
</g>
<!-- Node9 -->
<g id="node9" class="node">
<title>Node9</title>
<g id="a_node9"><a xlink:title=" ">
<polygon fill="white" stroke="black" points="111,-1478 111,-1546 212,-1546 212,-1478 111,-1478"/>
<text text-anchor="start" x="119" y="-1534" font-family="Helvetica,sans-Serif" font-size="10.00">std::unordered_map</text>
<text text-anchor="middle" x="161.5" y="-1523" font-family="Helvetica,sans-Serif" font-size="10.00">&lt; K, T &gt;</text>
<polyline fill="none" stroke="black" points="111,-1516 212,-1516 "/>
<text text-anchor="middle" x="161.5" y="-1504" font-family="Helvetica,sans-Serif" font-size="10.00"> </text>
<polyline fill="none" stroke="black" points="111,-1497 212,-1497 "/>
<text text-anchor="middle" x="161.5" y="-1485" font-family="Helvetica,sans-Serif" font-size="10.00"> </text>
</a>
</g>
</g>
<!-- Node8&#45;&gt;Node9 -->
<g id="edge10" class="edge">
<title>Node8&#45;&gt;Node9</title>
<path fill="none" stroke="#404040" d="M161.5,-1969.24C161.5,-1889.19 161.5,-1657.33 161.5,-1558.5"/>
<polygon fill="none" stroke="#404040" points="161.5,-1558.29 157.5,-1552.29 161.5,-1546.29 165.5,-1552.29 161.5,-1558.29"/>
<text text-anchor="middle" x="186" y="-1814.5" font-family="Helvetica,sans-Serif" font-size="10.00"> +elements</text>
</g>
<!-- Node17 -->
<g id="node17" class="node">
<title>Node17</title>
<g id="a_node17"><a xlink:title=" ">
<polygon fill="white" stroke="black" points="229,-1864.5 229,-1921.5 332,-1921.5 332,-1864.5 229,-1864.5"/>
<text text-anchor="middle" x="280.5" y="-1909.5" font-family="Helvetica,sans-Serif" font-size="10.00">std::shared_ptr&lt; T &gt;</text>
<polyline fill="none" stroke="black" points="229,-1902.5 332,-1902.5 "/>
<text text-anchor="middle" x="280.5" y="-1890.5" font-family="Helvetica,sans-Serif" font-size="10.00"> </text>
<polyline fill="none" stroke="black" points="229,-1883.5 332,-1883.5 "/>
<text text-anchor="start" x="237" y="-1871.5" font-family="Helvetica,sans-Serif" font-size="10.00">+ operator&#45;&gt;()</text>
</a>
</g>
</g>
<!-- Node8&#45;&gt;Node17 -->
<g id="edge21" class="edge">
<title>Node8&#45;&gt;Node17</title>
<path fill="none" stroke="#404040" d="M176.09,-1984.37C191.73,-1970.83 217.27,-1948.73 239.17,-1929.77"/>
<polygon fill="none" stroke="#404040" points="239.22,-1929.73 241.14,-1922.78 248.3,-1921.87 246.38,-1928.82 239.22,-1929.73"/>
<text text-anchor="middle" x="235.5" y="-1943" font-family="Helvetica,sans-Serif" font-size="10.00"> +ptr</text>
</g>
<!-- Node9&#45;&gt;Node5 -->
<g id="edge8" class="edge">
<title>Node9&#45;&gt;Node5</title>
<path fill="none" stroke="orange" d="M133.23,-1469.03C119.51,-1446.14 104.52,-1416.69 97.5,-1388 90.26,-1358.39 92.44,-1323.82 96.06,-1298"/>
<polygon fill="orange" stroke="orange" points="130.38,-1471.08 138.6,-1477.77 136.35,-1467.42 130.38,-1471.08"/>
<text text-anchor="start" x="97.5" y="-1380" font-family="Helvetica,sans-Serif" font-size="10.00"> &lt; prev_block_hash_t,</text>
<text text-anchor="middle" x="158" y="-1369" font-family="Helvetica,sans-Serif" font-size="10.00"> std::unique_ptr&lt; index_t &gt; &gt;</text>
</g>
<!-- Node10 -->
<g id="node10" class="node">
<title>Node10</title>
<g id="a_node10"><a xlink:title=" ">
<polygon fill="white" stroke="#bfbfbf" points="275,-1712.5 275,-1769.5 304,-1769.5 304,-1712.5 275,-1712.5"/>
<text text-anchor="middle" x="289.5" y="-1757.5" font-family="Helvetica,sans-Serif" font-size="10.00">K</text>
<polyline fill="none" stroke="#bfbfbf" points="275,-1750.5 304,-1750.5 "/>
<text text-anchor="middle" x="289.5" y="-1738.5" font-family="Helvetica,sans-Serif" font-size="10.00"> </text>
<polyline fill="none" stroke="#bfbfbf" points="275,-1731.5 304,-1731.5 "/>
<text text-anchor="middle" x="289.5" y="-1719.5" font-family="Helvetica,sans-Serif" font-size="10.00"> </text>
</a>
</g>
</g>
<!-- Node10&#45;&gt;Node9 -->
<g id="edge9" class="edge">
<title>Node10&#45;&gt;Node9</title>
<path fill="none" stroke="#404040" d="M274.75,-1720.71C268.82,-1712.63 262.07,-1703.03 256.5,-1694 228.55,-1648.7 200.74,-1594.35 182.5,-1557.11"/>
<polygon fill="none" stroke="#404040" points="182.41,-1556.92 176.19,-1553.27 177.16,-1546.13 183.38,-1549.77 182.41,-1556.92"/>
<text text-anchor="middle" x="271" y="-1662.5" font-family="Helvetica,sans-Serif" font-size="10.00"> +keys</text>
</g>
<!-- Node15 -->
<g id="node15" class="node">
<title>Node15</title>
<g id="a_node15"><a xlink:title=" ">
<polygon fill="white" stroke="black" points="367,-1483.5 367,-1540.5 438,-1540.5 438,-1483.5 367,-1483.5"/>
<text text-anchor="middle" x="402.5" y="-1528.5" font-family="Helvetica,sans-Serif" font-size="10.00">std::set&lt; K &gt;</text>
<polyline fill="none" stroke="black" points="367,-1521.5 438,-1521.5 "/>
<text text-anchor="middle" x="402.5" y="-1509.5" font-family="Helvetica,sans-Serif" font-size="10.00"> </text>
<polyline fill="none" stroke="black" points="367,-1502.5 438,-1502.5 "/>
<text text-anchor="middle" x="402.5" y="-1490.5" font-family="Helvetica,sans-Serif" font-size="10.00"> </text>
</a>
</g>
</g>
<!-- Node10&#45;&gt;Node15 -->
<g id="edge18" class="edge">
<title>Node10&#45;&gt;Node15</title>
<path fill="none" stroke="#404040" d="M304.15,-1721.3C310.21,-1713.15 317.06,-1703.34 322.5,-1694 349.7,-1647.24 373.71,-1589.53 388.16,-1552.02"/>
<polygon fill="none" stroke="#404040" points="388.24,-1551.81 386.63,-1544.78 392.51,-1540.6 394.11,-1547.63 388.24,-1551.81"/>
<text text-anchor="middle" x="368" y="-1662.5" font-family="Helvetica,sans-Serif" font-size="10.00"> +keys</text>
</g>
<!-- Node18 -->
<g id="node18" class="node">
<title>Node18</title>
<g id="a_node18"><a xlink:title=" ">
<polygon fill="white" stroke="black" points="230,-1483.5 230,-1540.5 349,-1540.5 349,-1483.5 230,-1483.5"/>
<text text-anchor="middle" x="289.5" y="-1528.5" font-family="Helvetica,sans-Serif" font-size="10.00">std::unordered_set&lt; K &gt;</text>
<polyline fill="none" stroke="black" points="230,-1521.5 349,-1521.5 "/>
<text text-anchor="middle" x="289.5" y="-1509.5" font-family="Helvetica,sans-Serif" font-size="10.00"> </text>
<polyline fill="none" stroke="black" points="230,-1502.5 349,-1502.5 "/>
<text text-anchor="middle" x="289.5" y="-1490.5" font-family="Helvetica,sans-Serif" font-size="10.00"> </text>
</a>
</g>
</g>
<!-- Node10&#45;&gt;Node18 -->
<g id="edge23" class="edge">
<title>Node10&#45;&gt;Node18</title>
<path fill="none" stroke="#404040" d="M289.5,-1712.17C289.5,-1672.23 289.5,-1598.48 289.5,-1552.8"/>
<polygon fill="none" stroke="#404040" points="289.5,-1552.71 285.5,-1546.71 289.5,-1540.71 293.5,-1546.71 289.5,-1552.71"/>
<text text-anchor="middle" x="304" y="-1662.5" font-family="Helvetica,sans-Serif" font-size="10.00"> +keys</text>
</g>
<!-- Node11 -->
<g id="node11" class="node">
<title>Node11</title>
<g id="a_node11"><a xlink:title=" ">
<polygon fill="white" stroke="black" points="254,-1224.5 254,-1292.5 401,-1292.5 401,-1224.5 254,-1224.5"/>
<text text-anchor="start" x="262" y="-1280.5" font-family="Helvetica,sans-Serif" font-size="10.00">std::unordered_set</text>
<text text-anchor="middle" x="327.5" y="-1269.5" font-family="Helvetica,sans-Serif" font-size="10.00">&lt; altintegration::BlockIndex * &gt;</text>
<polyline fill="none" stroke="black" points="254,-1262.5 401,-1262.5 "/>
<text text-anchor="middle" x="327.5" y="-1250.5" font-family="Helvetica,sans-Serif" font-size="10.00"> </text>
<polyline fill="none" stroke="black" points="254,-1243.5 401,-1243.5 "/>
<text text-anchor="middle" x="327.5" y="-1231.5" font-family="Helvetica,sans-Serif" font-size="10.00"> </text>
</a>
</g>
</g>
<!-- Node11&#45;&gt;Node4 -->
<g id="edge11" class="edge">
<title>Node11&#45;&gt;Node4</title>
<path fill="none" stroke="#404040" d="M322.68,-1224.43C313.52,-1153.1 297.89,-980.27 338.5,-844 345.8,-819.5 357.23,-795.01 370.08,-772.23"/>
<polygon fill="none" stroke="#404040" points="370.26,-771.93 369.81,-764.73 376.28,-761.55 376.73,-768.75 370.26,-771.93"/>
<text text-anchor="middle" x="353" y="-980.5" font-family="Helvetica,sans-Serif" font-size="10.00"> #tips_</text>
</g>
<!-- Node11&#45;&gt;Node22 -->
<g id="edge29" class="edge">
<title>Node11&#45;&gt;Node22</title>
<path fill="none" stroke="#404040" d="M350.09,-1224.43C363.51,-1203.88 380.25,-1176.59 392.5,-1151 395.33,-1145.1 398.1,-1139.02 400.8,-1132.84"/>
<polygon fill="none" stroke="#404040" points="400.88,-1132.66 399.56,-1125.57 405.6,-1121.63 406.92,-1128.72 400.88,-1132.66"/>
<text text-anchor="middle" x="412" y="-1143" font-family="Helvetica,sans-Serif" font-size="10.00"> #tips_</text>
</g>
<!-- Node12 -->
<g id="node12" class="node">
<title>Node12</title>
<g id="a_node12"><a xlink:href="structaltintegration_1_1BlockIndex.html" target="_top" xlink:title="A node in a block tree.">
<polygon fill="white" stroke="black" points="456,-1406.5 456,-1617.5 581,-1617.5 581,-1406.5 456,-1406.5"/>
<text text-anchor="start" x="464" y="-1605.5" font-family="Helvetica,sans-Serif" font-size="10.00">altintegration::BlockIndex</text>
<text text-anchor="middle" x="518.5" y="-1594.5" font-family="Helvetica,sans-Serif" font-size="10.00">&lt; Block &gt;</text>
<polyline fill="none" stroke="black" points="456,-1587.5 581,-1587.5 "/>
<text text-anchor="start" x="464" y="-1575.5" font-family="Helvetica,sans-Serif" font-size="10.00">+ finalized</text>
<text text-anchor="start" x="464" y="-1564.5" font-family="Helvetica,sans-Serif" font-size="10.00"># height</text>
<text text-anchor="start" x="464" y="-1553.5" font-family="Helvetica,sans-Serif" font-size="10.00"># status</text>
<text text-anchor="start" x="464" y="-1542.5" font-family="Helvetica,sans-Serif" font-size="10.00"># dirty</text>
<polyline fill="none" stroke="black" points="456,-1535.5 581,-1535.5 "/>
<text text-anchor="start" x="464" y="-1523.5" font-family="Helvetica,sans-Serif" font-size="10.00">+ BlockIndex()</text>
<text text-anchor="start" x="464" y="-1512.5" font-family="Helvetica,sans-Serif" font-size="10.00">+ BlockIndex()</text>
<text text-anchor="start" x="464" y="-1501.5" font-family="Helvetica,sans-Serif" font-size="10.00">+ ~BlockIndex()</text>
<text text-anchor="start" x="464" y="-1490.5" font-family="Helvetica,sans-Serif" font-size="10.00">+ disconnectFromPrev()</text>
<text text-anchor="start" x="464" y="-1479.5" font-family="Helvetica,sans-Serif" font-size="10.00">+ isTip()</text>
<text text-anchor="start" x="464" y="-1468.5" font-family="Helvetica,sans-Serif" font-size="10.00">+ BlockIndex()</text>
<text text-anchor="start" x="464" y="-1457.5" font-family="Helvetica,sans-Serif" font-size="10.00">+ operator=()</text>
<text text-anchor="start" x="464" y="-1446.5" font-family="Helvetica,sans-Serif" font-size="10.00">+ isDeleted()</text>
<text text-anchor="start" x="464" y="-1435.5" font-family="Helvetica,sans-Serif" font-size="10.00">+ isRoot()</text>
<text text-anchor="start" x="464" y="-1424.5" font-family="Helvetica,sans-Serif" font-size="10.00">+ restore()</text>
<text text-anchor="start" x="464" y="-1413.5" font-family="Helvetica,sans-Serif" font-size="10.00">and 42 more...</text>
</a>
</g>
</g>
<!-- Node12&#45;&gt;Node11 -->
<g id="edge12" class="edge">
<title>Node12&#45;&gt;Node11</title>
<path fill="none" stroke="#404040" d="M455.77,-1413.67C452.78,-1410.95 449.68,-1408.39 446.5,-1406 425.92,-1390.58 410.96,-1404.81 391.5,-1388 366.17,-1366.12 349.8,-1331.82 339.96,-1304.17"/>
<polygon fill="none" stroke="#404040" points="339.96,-1304.15 334.26,-1299.74 336.14,-1292.78 341.84,-1297.19 339.96,-1304.15"/>
<text text-anchor="middle" x="406" y="-1374.5" font-family="Helvetica,sans-Serif" font-size="10.00"> +keys</text>
</g>
<!-- Node12&#45;&gt;Node12 -->
<g id="edge14" class="edge">
<title>Node12&#45;&gt;Node12</title>
<path fill="none" stroke="#404040" d="M581.28,-1535.35C591.76,-1532.08 599,-1524.3 599,-1512 599,-1504.5 596.31,-1498.69 591.84,-1494.54"/>
<polygon fill="none" stroke="#404040" points="591.76,-1494.5 584.57,-1495.06 581.28,-1488.65 588.47,-1488.08 591.76,-1494.5"/>
<text text-anchor="middle" x="615.5" y="-1509.5" font-family="Helvetica,sans-Serif" font-size="10.00"> +pprev</text>
</g>
<!-- Node14 -->
<g id="node14" class="node">
<title>Node14</title>
<g id="a_node14"><a xlink:title=" ">
<polygon fill="white" stroke="black" points="430.5,-1224.5 430.5,-1292.5 542.5,-1292.5 542.5,-1224.5 430.5,-1224.5"/>
<text text-anchor="start" x="438.5" y="-1280.5" font-family="Helvetica,sans-Serif" font-size="10.00">std::set&lt; altintegration</text>
<text text-anchor="middle" x="486.5" y="-1269.5" font-family="Helvetica,sans-Serif" font-size="10.00">::BlockIndex * &gt;</text>
<polyline fill="none" stroke="black" points="430.5,-1262.5 542.5,-1262.5 "/>
<text text-anchor="middle" x="486.5" y="-1250.5" font-family="Helvetica,sans-Serif" font-size="10.00"> </text>
<polyline fill="none" stroke="black" points="430.5,-1243.5 542.5,-1243.5 "/>
<text text-anchor="middle" x="486.5" y="-1231.5" font-family="Helvetica,sans-Serif" font-size="10.00"> </text>
</a>
</g>
</g>
<!-- Node12&#45;&gt;Node14 -->
<g id="edge16" class="edge">
<title>Node12&#45;&gt;Node14</title>
<path fill="none" stroke="#404040" d="M581.3,-1460.43C608.94,-1431.99 630.66,-1396.23 608.5,-1366 592.8,-1344.57 573.1,-1363.47 551.5,-1348 535.1,-1336.25 521.15,-1319.1 510.43,-1303.01"/>
<polygon fill="none" stroke="#404040" points="510.29,-1302.79 503.7,-1299.87 503.86,-1292.66 510.45,-1295.58 510.29,-1302.79"/>
<text text-anchor="middle" x="631" y="-1374.5" font-family="Helvetica,sans-Serif" font-size="10.00"> +keys</text>
</g>
<!-- Node13 -->
<g id="node13" class="node">
<title>Node13</title>
<g id="a_node13"><a xlink:title=" ">
<polygon fill="white" stroke="#bfbfbf" points="478.5,-1712.5 478.5,-1769.5 558.5,-1769.5 558.5,-1712.5 478.5,-1712.5"/>
<text text-anchor="middle" x="518.5" y="-1757.5" font-family="Helvetica,sans-Serif" font-size="10.00">Block::addon_t</text>
<polyline fill="none" stroke="#bfbfbf" points="478.5,-1750.5 558.5,-1750.5 "/>
<text text-anchor="middle" x="518.5" y="-1738.5" font-family="Helvetica,sans-Serif" font-size="10.00"> </text>
<polyline fill="none" stroke="#bfbfbf" points="478.5,-1731.5 558.5,-1731.5 "/>
<text text-anchor="middle" x="518.5" y="-1719.5" font-family="Helvetica,sans-Serif" font-size="10.00"> </text>
</a>
</g>
</g>
<!-- Node13&#45;&gt;Node12 -->
<g id="edge13" class="edge">
<title>Node13&#45;&gt;Node12</title>
<path fill="none" stroke="midnightblue" d="M518.5,-1702.05C518.5,-1678.79 518.5,-1647.76 518.5,-1617.58"/>
<polygon fill="none" stroke="midnightblue" points="515,-1702.17 518.5,-1712.17 522,-1702.17 515,-1702.17"/>
</g>
<!-- Node14&#45;&gt;Node12 -->
<g id="edge15" class="edge">
<title>Node14&#45;&gt;Node12</title>
<path fill="none" stroke="#404040" d="M509.86,-1292.83C521.93,-1309.66 537.11,-1330.21 551.5,-1348 558.23,-1356.32 563.7,-1356 567.5,-1366 570.95,-1375.08 572.42,-1384.53 572.4,-1394.05"/>
<polygon fill="none" stroke="#404040" points="572.39,-1394.15 575.99,-1400.39 571.61,-1406.12 568.01,-1399.87 572.39,-1394.15"/>
<text text-anchor="middle" x="588.5" y="-1374.5" font-family="Helvetica,sans-Serif" font-size="10.00"> +pnext</text>
</g>
<!-- Node15&#45;&gt;Node14 -->
<g id="edge17" class="edge">
<title>Node15&#45;&gt;Node14</title>
<path fill="none" stroke="orange" d="M406.68,-1473.41C410.72,-1443.66 418.09,-1401.38 430.5,-1366 439.49,-1340.37 453.79,-1313.31 465.69,-1292.88"/>
<polygon fill="orange" stroke="orange" points="403.2,-1473.01 405.39,-1483.38 410.15,-1473.91 403.2,-1473.01"/>
<text text-anchor="middle" x="497" y="-1374.5" font-family="Helvetica,sans-Serif" font-size="10.00"> &lt; altintegration::BlockIndex * &gt;</text>
</g>
<!-- Node16 -->
<g id="node16" class="node">
<title>Node16</title>
<g id="a_node16"><a xlink:title=" ">
<polygon fill="white" stroke="black" points="327.5,-1712.5 327.5,-1769.5 455.5,-1769.5 455.5,-1712.5 327.5,-1712.5"/>
<text text-anchor="middle" x="391.5" y="-1757.5" font-family="Helvetica,sans-Serif" font-size="10.00">std::shared_ptr&lt; block_t &gt;</text>
<polyline fill="none" stroke="black" points="327.5,-1750.5 455.5,-1750.5 "/>
<text text-anchor="start" x="335.5" y="-1738.5" font-family="Helvetica,sans-Serif" font-size="10.00">+ ptr</text>
<polyline fill="none" stroke="black" points="327.5,-1731.5 455.5,-1731.5 "/>
<text text-anchor="start" x="335.5" y="-1719.5" font-family="Helvetica,sans-Serif" font-size="10.00">+ operator&#45;&gt;()</text>
</a>
</g>
</g>
<!-- Node16&#45;&gt;Node12 -->
<g id="edge19" class="edge">
<title>Node16&#45;&gt;Node12</title>
<path fill="none" stroke="#404040" d="M407.07,-1712.17C419.06,-1690.73 436.51,-1659.56 454.05,-1628.21"/>
<polygon fill="none" stroke="#404040" points="454.13,-1628.05 453.57,-1620.87 459.99,-1617.58 460.55,-1624.77 454.13,-1628.05"/>
<text text-anchor="middle" x="466" y="-1662.5" font-family="Helvetica,sans-Serif" font-size="10.00"> #header</text>
</g>
<!-- Node17&#45;&gt;Node16 -->
<g id="edge20" class="edge">
<title>Node17&#45;&gt;Node16</title>
<path fill="none" stroke="orange" d="M306.98,-1856.21C326.64,-1829.65 353.05,-1793.96 371.08,-1769.59"/>
<polygon fill="orange" stroke="orange" points="303.99,-1854.37 300.86,-1864.49 309.62,-1858.53 303.99,-1854.37"/>
<text text-anchor="middle" x="382" y="-1814.5" font-family="Helvetica,sans-Serif" font-size="10.00"> &lt; block_t &gt;</text>
</g>
<!-- Node18&#45;&gt;Node11 -->
<g id="edge22" class="edge">
<title>Node18&#45;&gt;Node11</title>
<path fill="none" stroke="orange" d="M257.32,-1475.55C234.89,-1446.34 211.45,-1403.75 226.5,-1366 238.06,-1337 261.69,-1311.37 283.18,-1292.52"/>
<polygon fill="orange" stroke="orange" points="254.62,-1477.77 263.59,-1483.41 260.1,-1473.41 254.62,-1477.77"/>
<text text-anchor="middle" x="293" y="-1374.5" font-family="Helvetica,sans-Serif" font-size="10.00"> &lt; altintegration::BlockIndex * &gt;</text>
</g>
<!-- Node19 -->
<g id="node19" class="node">
<title>Node19</title>
<g id="a_node19"><a xlink:href="structaltintegration_1_1Chain.html" target="_top" xlink:title=" ">
<polygon fill="white" stroke="black" points="561,-1169.5 561,-1347.5 702,-1347.5 702,-1169.5 561,-1169.5"/>
<text text-anchor="start" x="569" y="-1335.5" font-family="Helvetica,sans-Serif" font-size="10.00">altintegration::Chain</text>
<text text-anchor="middle" x="631.5" y="-1324.5" font-family="Helvetica,sans-Serif" font-size="10.00">&lt; altintegration::BlockIndex &gt;</text>
<polyline fill="none" stroke="black" points="561,-1317.5 702,-1317.5 "/>
<text text-anchor="middle" x="631.5" y="-1305.5" font-family="Helvetica,sans-Serif" font-size="10.00"> </text>
<polyline fill="none" stroke="black" points="561,-1298.5 702,-1298.5 "/>
<text text-anchor="start" x="569" y="-1286.5" font-family="Helvetica,sans-Serif" font-size="10.00">+ Chain()</text>
<text text-anchor="start" x="569" y="-1275.5" font-family="Helvetica,sans-Serif" font-size="10.00">+ Chain()</text>
<text text-anchor="start" x="569" y="-1264.5" font-family="Helvetica,sans-Serif" font-size="10.00">+ Chain()</text>
<text text-anchor="start" x="569" y="-1253.5" font-family="Helvetica,sans-Serif" font-size="10.00">+ getStartHeight()</text>
<text text-anchor="start" x="569" y="-1242.5" font-family="Helvetica,sans-Serif" font-size="10.00">+ firstHeight()</text>
<text text-anchor="start" x="569" y="-1231.5" font-family="Helvetica,sans-Serif" font-size="10.00">+ contains()</text>
<text text-anchor="start" x="569" y="-1220.5" font-family="Helvetica,sans-Serif" font-size="10.00">+ operator[]()</text>
<text text-anchor="start" x="569" y="-1209.5" font-family="Helvetica,sans-Serif" font-size="10.00">+ next()</text>
<text text-anchor="start" x="569" y="-1198.5" font-family="Helvetica,sans-Serif" font-size="10.00">+ chainHeight()</text>
<text text-anchor="start" x="569" y="-1187.5" font-family="Helvetica,sans-Serif" font-size="10.00">+ empty()</text>
<text text-anchor="start" x="569" y="-1176.5" font-family="Helvetica,sans-Serif" font-size="10.00">and 15 more...</text>
</a>
</g>
</g>
<!-- Node19&#45;&gt;Node4 -->
<g id="edge24" class="edge">
<title>Node19&#45;&gt;Node4</title>
<path fill="none" stroke="#404040" d="M631,-1169.35C630.2,-1159.41 629.07,-1149.46 627.5,-1140 608.35,-1024.7 562.68,-900.91 522.8,-807.79"/>
<polygon fill="none" stroke="#404040" points="522.72,-807.6 516.67,-803.68 517.97,-796.58 524.02,-800.51 522.72,-807.6"/>
<text text-anchor="middle" x="654.5" y="-980.5" font-family="Helvetica,sans-Serif" font-size="10.00"> #activeChain_</text>
</g>
<!-- Node19&#45;&gt;Node22 -->
<g id="edge30" class="edge">
<title>Node19&#45;&gt;Node22</title>
<path fill="none" stroke="#404040" d="M560.74,-1174.9C557.72,-1172.79 554.64,-1170.81 551.5,-1169 518.43,-1149.91 492.81,-1179.59 467.5,-1151 462.62,-1145.48 458.55,-1139.43 455.19,-1132.99"/>
<polygon fill="none" stroke="#404040" points="455.1,-1132.78 448.99,-1128.94 450.19,-1121.83 456.29,-1125.66 455.1,-1132.78"/>
<text text-anchor="middle" x="499.5" y="-1143" font-family="Helvetica,sans-Serif" font-size="10.00"> #activeChain_</text>
</g>
<!-- Node20 -->
<g id="node20" class="node">
<title>Node20</title>
<g id="a_node20"><a xlink:href="structaltintegration_1_1Chain.html" target="_top" xlink:title="Fully in&#45;memory chain representation.">
<polygon fill="white" stroke="black" points="650,-1423 650,-1601 751,-1601 751,-1423 650,-1423"/>
<text text-anchor="start" x="658" y="-1589" font-family="Helvetica,sans-Serif" font-size="10.00">altintegration::Chain</text>
<text text-anchor="middle" x="700.5" y="-1578" font-family="Helvetica,sans-Serif" font-size="10.00">&lt; BlockIndexT &gt;</text>
<polyline fill="none" stroke="black" points="650,-1571 751,-1571 "/>
<text text-anchor="middle" x="700.5" y="-1559" font-family="Helvetica,sans-Serif" font-size="10.00"> </text>
<polyline fill="none" stroke="black" points="650,-1552 751,-1552 "/>
<text text-anchor="start" x="658" y="-1540" font-family="Helvetica,sans-Serif" font-size="10.00">+ Chain()</text>
<text text-anchor="start" x="658" y="-1529" font-family="Helvetica,sans-Serif" font-size="10.00">+ Chain()</text>
<text text-anchor="start" x="658" y="-1518" font-family="Helvetica,sans-Serif" font-size="10.00">+ Chain()</text>
<text text-anchor="start" x="658" y="-1507" font-family="Helvetica,sans-Serif" font-size="10.00">+ getStartHeight()</text>
<text text-anchor="start" x="658" y="-1496" font-family="Helvetica,sans-Serif" font-size="10.00">+ firstHeight()</text>
<text text-anchor="start" x="658" y="-1485" font-family="Helvetica,sans-Serif" font-size="10.00">+ contains()</text>
<text text-anchor="start" x="658" y="-1474" font-family="Helvetica,sans-Serif" font-size="10.00">+ operator[]()</text>
<text text-anchor="start" x="658" y="-1463" font-family="Helvetica,sans-Serif" font-size="10.00">+ next()</text>
<text text-anchor="start" x="658" y="-1452" font-family="Helvetica,sans-Serif" font-size="10.00">+ chainHeight()</text>
<text text-anchor="start" x="658" y="-1441" font-family="Helvetica,sans-Serif" font-size="10.00">+ empty()</text>
<text text-anchor="start" x="658" y="-1430" font-family="Helvetica,sans-Serif" font-size="10.00">and 15 more...</text>
</a>
</g>
</g>
<!-- Node20&#45;&gt;Node19 -->
<g id="edge25" class="edge">
<title>Node20&#45;&gt;Node19</title>
<path fill="none" stroke="orange" d="M673.58,-1412.89C667.68,-1391.36 661.46,-1368.7 655.67,-1347.6"/>
<polygon fill="orange" stroke="orange" points="670.25,-1413.97 676.27,-1422.68 677,-1412.11 670.25,-1413.97"/>
<text text-anchor="middle" x="729" y="-1374.5" font-family="Helvetica,sans-Serif" font-size="10.00"> &lt; altintegration::BlockIndex &gt;</text>
</g>
<!-- Node21 -->
<g id="node21" class="node">
<title>Node21</title>
<g id="a_node21"><a xlink:href="structaltintegration_1_1BlockReader.html" target="_top" xlink:title="An abstraction over on&#45;disk storage iterator.">
<polygon fill="white" stroke="black" points="720.5,-1175 720.5,-1342 852.5,-1342 852.5,-1175 720.5,-1175"/>
<text text-anchor="middle" x="786.5" y="-1330" font-family="Helvetica,sans-Serif" font-size="10.00">altintegration::BlockReader</text>
<polyline fill="none" stroke="black" points="720.5,-1323 852.5,-1323 "/>
<text text-anchor="middle" x="786.5" y="-1311" font-family="Helvetica,sans-Serif" font-size="10.00"> </text>
<polyline fill="none" stroke="black" points="720.5,-1304 852.5,-1304 "/>
<text text-anchor="start" x="728.5" y="-1292" font-family="Helvetica,sans-Serif" font-size="10.00">+ ~BlockReader()</text>
<text text-anchor="start" x="728.5" y="-1281" font-family="Helvetica,sans-Serif" font-size="10.00">+ getAltTip()</text>
<text text-anchor="start" x="728.5" y="-1270" font-family="Helvetica,sans-Serif" font-size="10.00">+ getVbkTip()</text>
<text text-anchor="start" x="728.5" y="-1259" font-family="Helvetica,sans-Serif" font-size="10.00">+ getBtcTip()</text>
<text text-anchor="start" x="728.5" y="-1248" font-family="Helvetica,sans-Serif" font-size="10.00">+ getBlock()</text>
<text text-anchor="start" x="728.5" y="-1237" font-family="Helvetica,sans-Serif" font-size="10.00">+ getBlock()</text>
<text text-anchor="start" x="728.5" y="-1226" font-family="Helvetica,sans-Serif" font-size="10.00">+ getBlock()</text>
<text text-anchor="start" x="728.5" y="-1215" font-family="Helvetica,sans-Serif" font-size="10.00">+ getAltBlockIterator()</text>
<text text-anchor="start" x="728.5" y="-1204" font-family="Helvetica,sans-Serif" font-size="10.00">+ getVbkBlockIterator()</text>
<text text-anchor="start" x="728.5" y="-1193" font-family="Helvetica,sans-Serif" font-size="10.00">+ getBtcBlockIterator()</text>
<text text-anchor="start" x="728.5" y="-1182" font-family="Helvetica,sans-Serif" font-size="10.00">and 6 more...</text>
</a>
</g>
</g>
<!-- Node21&#45;&gt;Node4 -->
<g id="edge26" class="edge">
<title>Node21&#45;&gt;Node4</title>
<path fill="none" stroke="#404040" d="M783.42,-1174.72C776.65,-1086.45 755.53,-945.66 690.5,-844 653.1,-785.54 590.58,-738 539.01,-705.76"/>
<polygon fill="none" stroke="#404040" points="538.74,-705.59 531.53,-705.86 528.51,-699.31 535.72,-699.04 538.74,-705.59"/>
<text text-anchor="middle" x="814" y="-980.5" font-family="Helvetica,sans-Serif" font-size="10.00"> #blockProvider_</text>
</g>
<!-- Node21&#45;&gt;Node22 -->
<g id="edge31" class="edge">
<title>Node21&#45;&gt;Node22</title>
<path fill="none" stroke="#404040" d="M720.39,-1176.5C717.47,-1173.89 714.5,-1171.38 711.5,-1169 693.51,-1154.74 638.69,-1134.61 619.5,-1122 591.79,-1103.79 563.35,-1081.75 537.98,-1060.68"/>
<polygon fill="none" stroke="#404040" points="537.98,-1060.68 530.81,-1059.89 528.78,-1052.97 535.95,-1053.76 537.98,-1060.68"/>
<text text-anchor="middle" x="715" y="-1143" font-family="Helvetica,sans-Serif" font-size="10.00"> #blockProvider_</text>
</g>
<!-- Node22&#45;&gt;Node4 -->
<g id="edge27" class="edge">
<title>Node22&#45;&gt;Node4</title>
<path fill="none" stroke="orange" d="M452.5,-833.75C452.5,-821.41 452.5,-808.97 452.5,-796.71"/>
<polygon fill="orange" stroke="orange" points="449,-834.08 452.5,-844.08 456,-834.08 449,-834.08"/>
<text text-anchor="middle" x="480.5" y="-818" font-family="Helvetica,sans-Serif" font-size="10.00"> &lt; AltBlock &gt;</text>
</g>
</g>
</svg>
