<?xml version="1.0" encoding="UTF-8" standalone="no"?>
<!DOCTYPE svg PUBLIC "-//W3C//DTD SVG 1.1//EN"
 "http://www.w3.org/Graphics/SVG/1.1/DTD/svg11.dtd">
<!-- Generated by graphviz version 2.49.3 (20211027.1534)
 -->
<!-- Title: altintegration::AltBlockTree Pages: 1 -->
<!--zoomable 1445 -->
<svg id="main" version="1.1" xmlns="http://www.w3.org/2000/svg" xmlns:xlink="http://www.w3.org/1999/xlink" xml:space="preserve" onload="init(evt)">
<style type="text/css"><![CDATA[
.edge:hover path { stroke: red; }
.edge:hover polygon { stroke: red; fill: red; }
]]></style>
<script type="text/javascript"><![CDATA[
var edges = document.getElementsByTagName('g');
if (edges && edges.length) {
  for (var i=0;i<edges.length;i++) {
    if (edges[i].id.substr(0,4)=='edge') {
      edges[i].setAttribute('class','edge');
    }
  }
}
]]></script>
        <defs>
                <circle id="rim" cx="0" cy="0" r="7"/>
                <circle id="rim2" cx="0" cy="0" r="3.5"/>
                <g id="zoomPlus">
                        <use xlink:href="#rim" fill="#404040">
                                <set attributeName="fill" to="#808080" begin="zoomplus.mouseover" end="zoomplus.mouseout"/>
                        </use>
                        <path d="M-4,0h8M0,-4v8" fill="none" stroke="white" stroke-width="1.5" pointer-events="none"/>
                </g>
                <g id="zoomMin">
                        <use xlink:href="#rim" fill="#404040">
                                <set attributeName="fill" to="#808080" begin="zoomminus.mouseover" end="zoomminus.mouseout"/>
                        </use>
                        <path d="M-4,0h8" fill="none" stroke="white" stroke-width="1.5" pointer-events="none"/>
                </g>
                <g id="dirArrow">
                        <path fill="none" stroke="white" stroke-width="1.5" d="M0,-3.0v7 M-2.5,-0.5L0,-3.0L2.5,-0.5"/>
                </g>
               <g id="resetDef">
                       <use xlink:href="#rim2" fill="#404040">
                               <set attributeName="fill" to="#808080" begin="reset.mouseover" end="reset.mouseout"/>
                       </use>
               </g>
        </defs>

<script type="text/javascript">
var viewWidth = 405;
var viewHeight = 1445;
var sectionId = 'dynsection-1';
</script>
<script xlink:href="svgpan.js"/>
<svg id="graph" class="graph">
<g id="viewport">
<title>altintegration::AltBlockTree</title>
<polygon fill="white" stroke="transparent" points="-4,4 -4,-1441 401.08,-1441 401.08,4 -4,4"/>
<!-- Node1 -->
<g id="node1" class="node">
<title>Node1</title>
<g id="a_node1"><a xlink:title="Represents simplified view on Altchain&#39;s block tree, maintains VBK tree and BTC tree.">
<polygon fill="#bfbfbf" stroke="black" points="111.58,-0.5 111.58,-189.5 260.58,-189.5 260.58,-0.5 111.58,-0.5"/>
<text text-anchor="middle" x="186.08" y="-177.5" font-family="Helvetica,sans-Serif" font-size="10.00">altintegration::AltBlockTree</text>
<polyline fill="none" stroke="black" points="111.58,-170.5 260.58,-170.5 "/>
<text text-anchor="start" x="119.58" y="-158.5" font-family="Helvetica,sans-Serif" font-size="10.00">+ onInvalidBlockConnected</text>
<text text-anchor="start" x="119.58" y="-147.5" font-family="Helvetica,sans-Serif" font-size="10.00">+ onBlockConnected</text>
<polyline fill="none" stroke="black" points="111.58,-140.5 260.58,-140.5 "/>
<text text-anchor="start" x="119.58" y="-128.5" font-family="Helvetica,sans-Serif" font-size="10.00">+ ~AltBlockTree()</text>
<text text-anchor="start" x="119.58" y="-117.5" font-family="Helvetica,sans-Serif" font-size="10.00">+ AltBlockTree()</text>
<text text-anchor="start" x="119.58" y="-106.5" font-family="Helvetica,sans-Serif" font-size="10.00">+ bootstrap()</text>
<text text-anchor="start" x="119.58" y="-95.5" font-family="Helvetica,sans-Serif" font-size="10.00">+ acceptBlockHeader()</text>
<text text-anchor="start" x="119.58" y="-84.5" font-family="Helvetica,sans-Serif" font-size="10.00">+ acceptBlock()</text>
<text text-anchor="start" x="119.58" y="-73.5" font-family="Helvetica,sans-Serif" font-size="10.00">+ acceptBlock()</text>
<text text-anchor="start" x="119.58" y="-62.5" font-family="Helvetica,sans-Serif" font-size="10.00">+ acceptBlock()</text>
<text text-anchor="start" x="119.58" y="-51.5" font-family="Helvetica,sans-Serif" font-size="10.00">+ makeConnectedLeafPayload</text>
<text text-anchor="start" x="119.58" y="-40.5" font-family="Helvetica,sans-Serif" font-size="10.00">Mutator()</text>
<text text-anchor="start" x="119.58" y="-29.5" font-family="Helvetica,sans-Serif" font-size="10.00">+ getConnectedTipsAfter()</text>
<text text-anchor="start" x="119.58" y="-18.5" font-family="Helvetica,sans-Serif" font-size="10.00">+ loadBlockForward()</text>
<text text-anchor="start" x="119.58" y="-7.5" font-family="Helvetica,sans-Serif" font-size="10.00">and 6 more...</text>
</a>
</g>
</g>
<!-- Node2 -->
<g id="node2" class="node">
<title>Node2</title>
<g id="a_node2"><a xlink:href="structaltintegration_1_1BaseBlockTree.html" target="_top" xlink:title=" ">
<polygon fill="white" stroke="black" points="110.08,-227.5 110.08,-537.5 262.08,-537.5 262.08,-227.5 110.08,-227.5"/>
<text text-anchor="start" x="118.08" y="-525.5" font-family="Helvetica,sans-Serif" font-size="10.00">altintegration::BaseBlock</text>
<text text-anchor="middle" x="186.08" y="-514.5" font-family="Helvetica,sans-Serif" font-size="10.00">Tree&lt; AltBlock &gt;</text>
<polyline fill="none" stroke="black" points="110.08,-507.5 262.08,-507.5 "/>
<text text-anchor="start" x="118.08" y="-495.5" font-family="Helvetica,sans-Serif" font-size="10.00">+ onBlockBeforeDeallocated</text>
<text text-anchor="start" x="118.08" y="-484.5" font-family="Helvetica,sans-Serif" font-size="10.00">+ onBlockValidityChanged</text>
<text text-anchor="start" x="118.08" y="-473.5" font-family="Helvetica,sans-Serif" font-size="10.00">+ onBeforeOverrideTip</text>
<text text-anchor="start" x="118.08" y="-462.5" font-family="Helvetica,sans-Serif" font-size="10.00"># isLoadingBlocks_</text>
<text text-anchor="start" x="118.08" y="-451.5" font-family="Helvetica,sans-Serif" font-size="10.00"># isLoaded_</text>
<text text-anchor="start" x="118.08" y="-440.5" font-family="Helvetica,sans-Serif" font-size="10.00"># tips_</text>
<text text-anchor="start" x="118.08" y="-429.5" font-family="Helvetica,sans-Serif" font-size="10.00"># activeChain_</text>
<text text-anchor="start" x="118.08" y="-418.5" font-family="Helvetica,sans-Serif" font-size="10.00"># finalizedPayloadsIndex_</text>
<text text-anchor="start" x="118.08" y="-407.5" font-family="Helvetica,sans-Serif" font-size="10.00"># payloadsIndex_</text>
<polyline fill="none" stroke="black" points="110.08,-400.5 262.08,-400.5 "/>
<text text-anchor="start" x="118.08" y="-388.5" font-family="Helvetica,sans-Serif" font-size="10.00">+ getTips()</text>
<text text-anchor="start" x="118.08" y="-377.5" font-family="Helvetica,sans-Serif" font-size="10.00">+ getBlocks()</text>
<text text-anchor="start" x="118.08" y="-366.5" font-family="Helvetica,sans-Serif" font-size="10.00">+ getAllBlocks()</text>
<text text-anchor="start" x="118.08" y="-355.5" font-family="Helvetica,sans-Serif" font-size="10.00">+ getBlockProvider()</text>
<text text-anchor="start" x="118.08" y="-344.5" font-family="Helvetica,sans-Serif" font-size="10.00">+ ~BaseBlockTree()</text>
<text text-anchor="start" x="118.08" y="-333.5" font-family="Helvetica,sans-Serif" font-size="10.00">+ BaseBlockTree()</text>
<text text-anchor="start" x="118.08" y="-322.5" font-family="Helvetica,sans-Serif" font-size="10.00">+ BaseBlockTree()</text>
<text text-anchor="start" x="118.08" y="-311.5" font-family="Helvetica,sans-Serif" font-size="10.00">+ BaseBlockTree()</text>
<text text-anchor="start" x="118.08" y="-300.5" font-family="Helvetica,sans-Serif" font-size="10.00">+ operator=()</text>
<text text-anchor="start" x="118.08" y="-289.5" font-family="Helvetica,sans-Serif" font-size="10.00">+ operator=()</text>
<text text-anchor="start" x="118.08" y="-278.5" font-family="Helvetica,sans-Serif" font-size="10.00">and 25 more...</text>
<text text-anchor="start" x="118.08" y="-267.5" font-family="Helvetica,sans-Serif" font-size="10.00"># deallocateBlock()</text>
<text text-anchor="start" x="118.08" y="-256.5" font-family="Helvetica,sans-Serif" font-size="10.00"># toPrettyString()</text>
<text text-anchor="start" x="118.08" y="-245.5" font-family="Helvetica,sans-Serif" font-size="10.00"># decreaseAppliedBlockCount()</text>
<text text-anchor="start" x="118.08" y="-234.5" font-family="Helvetica,sans-Serif" font-size="10.00"># decreaseAppliedBlockCount()</text>
</a>
</g>
</g>
<!-- Node2&#45;&gt;Node1 -->
<g id="edge1" class="edge">
<title>Node2&#45;&gt;Node1</title>
<path fill="none" stroke="midnightblue" d="M186.08,-217.22C186.08,-207.81 186.08,-198.53 186.08,-189.55"/>
<polygon fill="none" stroke="midnightblue" points="182.58,-217.47 186.08,-227.47 189.58,-217.47 182.58,-217.47"/>
</g>
<!-- Node3 -->
<g id="node3" class="node">
<title>Node3</title>
<g id="a_node3"><a xlink:title=" ">
<polygon fill="white" stroke="#bfbfbf" points="176.58,-987.5 176.58,-1066.5 313.58,-1066.5 313.58,-987.5 176.58,-987.5"/>
<text text-anchor="start" x="184.58" y="-1054.5" font-family="Helvetica,sans-Serif" font-size="10.00">std::unordered_map</text>
<text text-anchor="start" x="184.58" y="-1043.5" font-family="Helvetica,sans-Serif" font-size="10.00">&lt; prev_block_hash_t,</text>
<text text-anchor="middle" x="245.08" y="-1032.5" font-family="Helvetica,sans-Serif" font-size="10.00"> std::unique_ptr&lt; index_t &gt; &gt;</text>
<polyline fill="none" stroke="#bfbfbf" points="176.58,-1025.5 313.58,-1025.5 "/>
<text text-anchor="start" x="184.58" y="-1013.5" font-family="Helvetica,sans-Serif" font-size="10.00">+ keys</text>
<polyline fill="none" stroke="#bfbfbf" points="176.58,-1006.5 313.58,-1006.5 "/>
<text text-anchor="middle" x="245.08" y="-994.5" font-family="Helvetica,sans-Serif" font-size="10.00"> </text>
</a>
</g>
</g>
<!-- Node3&#45;&gt;Node2 -->
<g id="edge2" class="edge">
<title>Node3&#45;&gt;Node2</title>
<path fill="none" stroke="#404040" d="M255.81,-987.44C260.62,-968.73 265.9,-945.85 269.08,-925 286.17,-812.71 323.69,-845.08 271.08,-585 268.7,-573.28 265.63,-561.39 262.06,-549.55"/>
<polygon fill="none" stroke="#404040" points="261.94,-549.19 256.32,-544.67 258.33,-537.74 263.95,-542.26 261.94,-549.19"/>
<text text-anchor="middle" x="319.08" y="-738" font-family="Helvetica,sans-Serif" font-size="10.00"> #blocks_</text>
</g>
<!-- Node10 -->
<g id="node10" class="node">
<title>Node10</title>
<g id="a_node10"><a xlink:href="structaltintegration_1_1BaseBlockTree.html" target="_top" xlink:title="Base block tree that stores all blocks, maintains tree tips, maintains active chain.">
<polygon fill="white" stroke="black" points="110.08,-585.5 110.08,-895.5 262.08,-895.5 262.08,-585.5 110.08,-585.5"/>
<text text-anchor="start" x="118.08" y="-883.5" font-family="Helvetica,sans-Serif" font-size="10.00">altintegration::BaseBlock</text>
<text text-anchor="middle" x="186.08" y="-872.5" font-family="Helvetica,sans-Serif" font-size="10.00">Tree&lt; Block &gt;</text>
<polyline fill="none" stroke="black" points="110.08,-865.5 262.08,-865.5 "/>
<text text-anchor="start" x="118.08" y="-853.5" font-family="Helvetica,sans-Serif" font-size="10.00">+ onBlockBeforeDeallocated</text>
<text text-anchor="start" x="118.08" y="-842.5" font-family="Helvetica,sans-Serif" font-size="10.00">+ onBlockValidityChanged</text>
<text text-anchor="start" x="118.08" y="-831.5" font-family="Helvetica,sans-Serif" font-size="10.00">+ onBeforeOverrideTip</text>
<text text-anchor="start" x="118.08" y="-820.5" font-family="Helvetica,sans-Serif" font-size="10.00"># isLoadingBlocks_</text>
<text text-anchor="start" x="118.08" y="-809.5" font-family="Helvetica,sans-Serif" font-size="10.00"># isLoaded_</text>
<text text-anchor="start" x="118.08" y="-798.5" font-family="Helvetica,sans-Serif" font-size="10.00"># tips_</text>
<text text-anchor="start" x="118.08" y="-787.5" font-family="Helvetica,sans-Serif" font-size="10.00"># activeChain_</text>
<text text-anchor="start" x="118.08" y="-776.5" font-family="Helvetica,sans-Serif" font-size="10.00"># finalizedPayloadsIndex_</text>
<text text-anchor="start" x="118.08" y="-765.5" font-family="Helvetica,sans-Serif" font-size="10.00"># payloadsIndex_</text>
<polyline fill="none" stroke="black" points="110.08,-758.5 262.08,-758.5 "/>
<text text-anchor="start" x="118.08" y="-746.5" font-family="Helvetica,sans-Serif" font-size="10.00">+ getTips()</text>
<text text-anchor="start" x="118.08" y="-735.5" font-family="Helvetica,sans-Serif" font-size="10.00">+ getBlocks()</text>
<text text-anchor="start" x="118.08" y="-724.5" font-family="Helvetica,sans-Serif" font-size="10.00">+ getAllBlocks()</text>
<text text-anchor="start" x="118.08" y="-713.5" font-family="Helvetica,sans-Serif" font-size="10.00">+ getBlockProvider()</text>
<text text-anchor="start" x="118.08" y="-702.5" font-family="Helvetica,sans-Serif" font-size="10.00">+ ~BaseBlockTree()</text>
<text text-anchor="start" x="118.08" y="-691.5" font-family="Helvetica,sans-Serif" font-size="10.00">+ BaseBlockTree()</text>
<text text-anchor="start" x="118.08" y="-680.5" font-family="Helvetica,sans-Serif" font-size="10.00">+ BaseBlockTree()</text>
<text text-anchor="start" x="118.08" y="-669.5" font-family="Helvetica,sans-Serif" font-size="10.00">+ operator=()</text>
<text text-anchor="start" x="118.08" y="-658.5" font-family="Helvetica,sans-Serif" font-size="10.00">+ BaseBlockTree()</text>
<text text-anchor="start" x="118.08" y="-647.5" font-family="Helvetica,sans-Serif" font-size="10.00">+ operator=()</text>
<text text-anchor="start" x="118.08" y="-636.5" font-family="Helvetica,sans-Serif" font-size="10.00">and 25 more...</text>
<text text-anchor="start" x="118.08" y="-625.5" font-family="Helvetica,sans-Serif" font-size="10.00"># deallocateBlock()</text>
<text text-anchor="start" x="118.08" y="-614.5" font-family="Helvetica,sans-Serif" font-size="10.00"># toPrettyString()</text>
<text text-anchor="start" x="118.08" y="-603.5" font-family="Helvetica,sans-Serif" font-size="10.00"># decreaseAppliedBlockCount()</text>
<text text-anchor="start" x="118.08" y="-592.5" font-family="Helvetica,sans-Serif" font-size="10.00"># decreaseAppliedBlockCount()</text>
</a>
</g>
</g>
<!-- Node3&#45;&gt;Node10 -->
<g id="edge11" class="edge">
<title>Node3&#45;&gt;Node10</title>
<path fill="none" stroke="#404040" d="M237.06,-987.33C232.59,-965.81 226.69,-937.37 220.5,-907.49"/>
<polygon fill="none" stroke="#404040" points="220.45,-907.28 215.32,-902.22 218.02,-895.53 223.15,-900.59 220.45,-907.28"/>
<text text-anchor="middle" x="244.08" y="-917" font-family="Helvetica,sans-Serif" font-size="10.00"> #blocks_</text>
</g>
<!-- Node4 -->
<g id="node4" class="node">
<title>Node4</title>
<g id="a_node4"><a xlink:title=" ">
<polygon fill="white" stroke="#bfbfbf" points="120.58,-1158.5 120.58,-1215.5 247.58,-1215.5 247.58,-1158.5 120.58,-1158.5"/>
<text text-anchor="middle" x="184.08" y="-1203.5" font-family="Helvetica,sans-Serif" font-size="10.00">std::unique_ptr&lt; index_t &gt;</text>
<polyline fill="none" stroke="#bfbfbf" points="120.58,-1196.5 247.58,-1196.5 "/>
<text text-anchor="start" x="128.58" y="-1184.5" font-family="Helvetica,sans-Serif" font-size="10.00">+ ptr</text>
<polyline fill="none" stroke="#bfbfbf" points="120.58,-1177.5 247.58,-1177.5 "/>
<text text-anchor="start" x="128.58" y="-1165.5" font-family="Helvetica,sans-Serif" font-size="10.00">+ operator&#45;&gt;()</text>
</a>
</g>
</g>
<!-- Node4&#45;&gt;Node3 -->
<g id="edge3" class="edge">
<title>Node4&#45;&gt;Node3</title>
<path fill="none" stroke="#404040" d="M194.7,-1158.48C203.23,-1136.37 215.44,-1104.75 225.71,-1078.17"/>
<polygon fill="none" stroke="#404040" points="225.79,-1077.94 224.22,-1070.9 230.12,-1066.75 231.69,-1073.78 225.79,-1077.94"/>
<text text-anchor="middle" x="230.58" y="-1132" font-family="Helvetica,sans-Serif" font-size="10.00"> +elements</text>
</g>
<!-- Node5 -->
<g id="node5" class="node">
<title>Node5</title>
<g id="a_node5"><a xlink:title=" ">
<polygon fill="white" stroke="#bfbfbf" points="118.08,-1269 118.08,-1326 220.08,-1326 220.08,-1269 118.08,-1269"/>
<text text-anchor="middle" x="169.08" y="-1314" font-family="Helvetica,sans-Serif" font-size="10.00">std::unique_ptr&lt; T &gt;</text>
<polyline fill="none" stroke="#bfbfbf" points="118.08,-1307 220.08,-1307 "/>
<text text-anchor="middle" x="169.08" y="-1295" font-family="Helvetica,sans-Serif" font-size="10.00"> </text>
<polyline fill="none" stroke="#bfbfbf" points="118.08,-1288 220.08,-1288 "/>
<text text-anchor="start" x="126.08" y="-1276" font-family="Helvetica,sans-Serif" font-size="10.00">+ operator&#45;&gt;()</text>
</a>
</g>
</g>
<!-- Node5&#45;&gt;Node4 -->
<g id="edge4" class="edge">
<title>Node5&#45;&gt;Node4</title>
<path fill="none" stroke="orange" d="M174.28,-1258.85C176.25,-1244.64 178.44,-1228.74 180.26,-1215.61"/>
<polygon fill="orange" stroke="orange" points="170.8,-1258.46 172.9,-1268.84 177.74,-1259.41 170.8,-1258.46"/>
<text text-anchor="middle" x="203.08" y="-1237" font-family="Helvetica,sans-Serif" font-size="10.00"> &lt; index_t &gt;</text>
</g>
<!-- Node6 -->
<g id="node6" class="node">
<title>Node6</title>
<g id="a_node6"><a xlink:title=" ">
<polygon fill="white" stroke="#bfbfbf" points="180.58,-1379.5 180.58,-1436.5 209.58,-1436.5 209.58,-1379.5 180.58,-1379.5"/>
<text text-anchor="middle" x="195.08" y="-1424.5" font-family="Helvetica,sans-Serif" font-size="10.00">T</text>
<polyline fill="none" stroke="#bfbfbf" points="180.58,-1417.5 209.58,-1417.5 "/>
<text text-anchor="middle" x="195.08" y="-1405.5" font-family="Helvetica,sans-Serif" font-size="10.00"> </text>
<polyline fill="none" stroke="#bfbfbf" points="180.58,-1398.5 209.58,-1398.5 "/>
<text text-anchor="middle" x="195.08" y="-1386.5" font-family="Helvetica,sans-Serif" font-size="10.00"> </text>
</a>
</g>
</g>
<!-- Node6&#45;&gt;Node5 -->
<g id="edge5" class="edge">
<title>Node6&#45;&gt;Node5</title>
<path fill="none" stroke="#404040" d="M180.59,-1379.35C178.02,-1373.43 175.66,-1367.12 174.08,-1361 172.19,-1353.76 170.96,-1345.9 170.17,-1338.28"/>
<polygon fill="none" stroke="#404040" points="170.16,-1338.19 165.71,-1332.52 169.23,-1326.22 173.68,-1331.89 170.16,-1338.19"/>
<text text-anchor="middle" x="184.08" y="-1353" font-family="Helvetica,sans-Serif" font-size="10.00"> +ptr</text>
</g>
<!-- Node7 -->
<g id="node7" class="node">
<title>Node7</title>
<g id="a_node7"><a xlink:title=" ">
<polygon fill="white" stroke="#bfbfbf" points="238.58,-1263.5 238.58,-1331.5 339.58,-1331.5 339.58,-1263.5 238.58,-1263.5"/>
<text text-anchor="start" x="246.58" y="-1319.5" font-family="Helvetica,sans-Serif" font-size="10.00">std::unordered_map</text>
<text text-anchor="middle" x="289.08" y="-1308.5" font-family="Helvetica,sans-Serif" font-size="10.00">&lt; K, T &gt;</text>
<polyline fill="none" stroke="#bfbfbf" points="238.58,-1301.5 339.58,-1301.5 "/>
<text text-anchor="middle" x="289.08" y="-1289.5" font-family="Helvetica,sans-Serif" font-size="10.00"> </text>
<polyline fill="none" stroke="#bfbfbf" points="238.58,-1282.5 339.58,-1282.5 "/>
<text text-anchor="middle" x="289.08" y="-1270.5" font-family="Helvetica,sans-Serif" font-size="10.00"> </text>
</a>
</g>
</g>
<!-- Node6&#45;&gt;Node7 -->
<g id="edge8" class="edge">
<title>Node6&#45;&gt;Node7</title>
<path fill="none" stroke="#404040" d="M209.59,-1384.94C217.08,-1374.07 226.6,-1360.99 236.08,-1350 238.8,-1346.84 241.68,-1343.66 244.64,-1340.5"/>
<polygon fill="none" stroke="#404040" points="244.78,-1340.36 246.08,-1333.27 253.13,-1331.74 251.83,-1338.83 244.78,-1340.36"/>
<text text-anchor="middle" x="260.58" y="-1353" font-family="Helvetica,sans-Serif" font-size="10.00"> +elements</text>
</g>
<!-- Node7&#45;&gt;Node3 -->
<g id="edge6" class="edge">
<title>Node7&#45;&gt;Node3</title>
<path fill="none" stroke="orange" d="M281.97,-1253.15C273.52,-1201.57 259.53,-1116.23 251.43,-1066.76"/>
<polygon fill="orange" stroke="orange" points="278.56,-1254 283.64,-1263.31 285.47,-1252.87 278.56,-1254"/>
<text text-anchor="start" x="276.08" y="-1190" font-family="Helvetica,sans-Serif" font-size="10.00"> &lt; prev_block_hash_t,</text>
<text text-anchor="middle" x="336.58" y="-1179" font-family="Helvetica,sans-Serif" font-size="10.00"> std::unique_ptr&lt; index_t &gt; &gt;</text>
</g>
<!-- Node8 -->
<g id="node8" class="node">
<title>Node8</title>
<g id="a_node8"><a xlink:title=" ">
<polygon fill="white" stroke="#bfbfbf" points="274.58,-1379.5 274.58,-1436.5 303.58,-1436.5 303.58,-1379.5 274.58,-1379.5"/>
<text text-anchor="middle" x="289.08" y="-1424.5" font-family="Helvetica,sans-Serif" font-size="10.00">K</text>
<polyline fill="none" stroke="#bfbfbf" points="274.58,-1417.5 303.58,-1417.5 "/>
<text text-anchor="middle" x="289.08" y="-1405.5" font-family="Helvetica,sans-Serif" font-size="10.00"> </text>
<polyline fill="none" stroke="#bfbfbf" points="274.58,-1398.5 303.58,-1398.5 "/>
<text text-anchor="middle" x="289.08" y="-1386.5" font-family="Helvetica,sans-Serif" font-size="10.00"> </text>
</a>
</g>
</g>
<!-- Node8&#45;&gt;Node7 -->
<g id="edge7" class="edge">
<title>Node8&#45;&gt;Node7</title>
<path fill="none" stroke="#404040" d="M289.08,-1379.34C289.08,-1368.53 289.08,-1355.85 289.08,-1343.77"/>
<polygon fill="none" stroke="#404040" points="289.08,-1343.52 285.08,-1337.52 289.08,-1331.52 293.08,-1337.52 289.08,-1343.52"/>
<text text-anchor="middle" x="303.58" y="-1353" font-family="Helvetica,sans-Serif" font-size="10.00"> +keys</text>
</g>
<!-- Node9 -->
<g id="node9" class="node">
<title>Node9</title>
<g id="a_node9"><a xlink:href="structaltintegration_1_1BlockReader.html" target="_top" xlink:title="An abstraction over on&#45;disk storage iterator.">
<polygon fill="white" stroke="black" points="19.08,-943.5 19.08,-1110.5 151.08,-1110.5 151.08,-943.5 19.08,-943.5"/>
<text text-anchor="middle" x="85.08" y="-1098.5" font-family="Helvetica,sans-Serif" font-size="10.00">altintegration::BlockReader</text>
<polyline fill="none" stroke="black" points="19.08,-1091.5 151.08,-1091.5 "/>
<text text-anchor="middle" x="85.08" y="-1079.5" font-family="Helvetica,sans-Serif" font-size="10.00"> </text>
<polyline fill="none" stroke="black" points="19.08,-1072.5 151.08,-1072.5 "/>
<text text-anchor="start" x="27.08" y="-1060.5" font-family="Helvetica,sans-Serif" font-size="10.00">+ ~BlockReader()</text>
<text text-anchor="start" x="27.08" y="-1049.5" font-family="Helvetica,sans-Serif" font-size="10.00">+ getAltTip()</text>
<text text-anchor="start" x="27.08" y="-1038.5" font-family="Helvetica,sans-Serif" font-size="10.00">+ getVbkTip()</text>
<text text-anchor="start" x="27.08" y="-1027.5" font-family="Helvetica,sans-Serif" font-size="10.00">+ getBtcTip()</text>
<text text-anchor="start" x="27.08" y="-1016.5" font-family="Helvetica,sans-Serif" font-size="10.00">+ getBlock()</text>
<text text-anchor="start" x="27.08" y="-1005.5" font-family="Helvetica,sans-Serif" font-size="10.00">+ getBlock()</text>
<text text-anchor="start" x="27.08" y="-994.5" font-family="Helvetica,sans-Serif" font-size="10.00">+ getBlock()</text>
<text text-anchor="start" x="27.08" y="-983.5" font-family="Helvetica,sans-Serif" font-size="10.00">+ getAltBlockIterator()</text>
<text text-anchor="start" x="27.08" y="-972.5" font-family="Helvetica,sans-Serif" font-size="10.00">+ getVbkBlockIterator()</text>
<text text-anchor="start" x="27.08" y="-961.5" font-family="Helvetica,sans-Serif" font-size="10.00">+ getBtcBlockIterator()</text>
<text text-anchor="start" x="27.08" y="-950.5" font-family="Helvetica,sans-Serif" font-size="10.00">and 6 more...</text>
</a>
</g>
</g>
<!-- Node9&#45;&gt;Node2 -->
<g id="edge9" class="edge">
<title>Node9&#45;&gt;Node2</title>
<path fill="none" stroke="#404040" d="M42.86,-943.42C36.73,-928.02 31.39,-911.8 28.08,-896 -0.28,-760.72 -17.04,-715.65 28.08,-585 43.26,-541.02 72.44,-499.32 101.63,-465.39"/>
<polygon fill="none" stroke="#404040" points="101.93,-465.05 102.89,-457.9 109.85,-456.03 108.9,-463.18 101.93,-465.05"/>
<text text-anchor="middle" x="64.58" y="-738" font-family="Helvetica,sans-Serif" font-size="10.00"> #blockProvider_</text>
</g>
<!-- Node9&#45;&gt;Node10 -->
<g id="edge12" class="edge">
<title>Node9&#45;&gt;Node10</title>
<path fill="none" stroke="#404040" d="M114.42,-943.33C118.53,-931.77 122.86,-919.58 127.27,-907.13"/>
<polygon fill="none" stroke="#404040" points="127.34,-906.96 125.57,-899.97 131.35,-895.65 133.11,-902.64 127.34,-906.96"/>
<text text-anchor="middle" x="160.58" y="-917" font-family="Helvetica,sans-Serif" font-size="10.00"> #blockProvider_</text>
</g>
<!-- Node10&#45;&gt;Node2 -->
<g id="edge10" class="edge">
<title>Node10&#45;&gt;Node2</title>
<path fill="none" stroke="orange" d="M186.08,-575.35C186.08,-562.75 186.08,-550.06 186.08,-537.53"/>
<polygon fill="orange" stroke="orange" points="182.58,-575.42 186.08,-585.42 189.58,-575.42 182.58,-575.42"/>
<text text-anchor="middle" x="214.08" y="-559" font-family="Helvetica,sans-Serif" font-size="10.00"> &lt; AltBlock &gt;</text>
</g>
</g>
</svg>
        <g id="navigator" transform="translate(0 0)" fill="#404254">
                <rect fill="#f2f5e9" fill-opacity="0.5" stroke="#606060" stroke-width=".5" x="0" y="0" width="60" height="60"/>
                <use id="zoomplus" xlink:href="#zoomPlus" x="17" y="9" onmousedown="handleZoom(evt,'in')"/>
                <use id="zoomminus" xlink:href="#zoomMin" x="42" y="9" onmousedown="handleZoom(evt,'out')"/>
                <use id="reset" xlink:href="#resetDef" x="30" y="36" onmousedown="handleReset()"/>
                <g id="arrowUp" xlink:href="#dirArrow" transform="translate(30 24)" onmousedown="handlePan(0,-1)">
                  <use xlink:href="#rim" fill="#404040">
                        <set attributeName="fill" to="#808080" begin="arrowUp.mouseover" end="arrowUp.mouseout"/>
                  </use>
                  <path fill="none" stroke="white" stroke-width="1.5" d="M0,-3.0v7 M-2.5,-0.5L0,-3.0L2.5,-0.5"/>
                </g>
                <g id="arrowRight" xlink:href="#dirArrow" transform="rotate(90) translate(36 -43)" onmousedown="handlePan(1,0)">
                  <use xlink:href="#rim" fill="#404040">
                        <set attributeName="fill" to="#808080" begin="arrowRight.mouseover" end="arrowRight.mouseout"/>
                  </use>
                  <path fill="none" stroke="white" stroke-width="1.5" d="M0,-3.0v7 M-2.5,-0.5L0,-3.0L2.5,-0.5"/>
                </g>
                <g id="arrowDown" xlink:href="#dirArrow" transform="rotate(180) translate(-30 -48)" onmousedown="handlePan(0,1)">
                  <use xlink:href="#rim" fill="#404040">
                        <set attributeName="fill" to="#808080" begin="arrowDown.mouseover" end="arrowDown.mouseout"/>
                  </use>
                  <path fill="none" stroke="white" stroke-width="1.5" d="M0,-3.0v7 M-2.5,-0.5L0,-3.0L2.5,-0.5"/>
                </g>
                <g id="arrowLeft" xlink:href="#dirArrow" transform="rotate(270) translate(-36 17)" onmousedown="handlePan(-1,0)">
                  <use xlink:href="#rim" fill="#404040">
                        <set attributeName="fill" to="#808080" begin="arrowLeft.mouseover" end="arrowLeft.mouseout"/>
                  </use>
                  <path fill="none" stroke="white" stroke-width="1.5" d="M0,-3.0v7 M-2.5,-0.5L0,-3.0L2.5,-0.5"/>
                </g>
        </g>
        <svg viewBox="0 0 15 15" width="100%" height="30px" preserveAspectRatio="xMaxYMin meet">
         <g id="arrow_out" transform="scale(0.3 0.3)">
          <a xlink:href="structaltintegration_1_1AltBlockTree__coll__graph_org.svg" target="_base">
           <rect id="button" ry="5" rx="5" y="6" x="6" height="38" width="38"
                fill="#f2f5e9" fill-opacity="0.5" stroke="#606060" stroke-width="1.0"/>
           <path id="arrow"
             d="M 11.500037,31.436501 C 11.940474,20.09759 22.043105,11.32322 32.158766,21.979434 L 37.068811,17.246167 C 37.068811,17.246167 37.088388,32 37.088388,32 L 22.160133,31.978069 C 22.160133,31.978069 26.997745,27.140456 26.997745,27.140456 C 18.528582,18.264221 13.291696,25.230495 11.500037,31.436501 z"
             style="fill:#404040;"/>
          </a>
         </g>
        </svg>
</svg>
