<?xml version="1.0" encoding="UTF-8" standalone="no"?>
<!DOCTYPE svg PUBLIC "-//W3C//DTD SVG 1.1//EN"
 "http://www.w3.org/Graphics/SVG/1.1/DTD/svg11.dtd">
<!-- Generated by graphviz version 2.47.0 (20210407.0042)
 -->
<!-- Title: altintegration::VbkBlockTree Pages: 1 -->
<svg width="847pt" height="1915pt"
 viewBox="0.00 0.00 847.00 1915.00" xmlns="http://www.w3.org/2000/svg" xmlns:xlink="http://www.w3.org/1999/xlink">
<g id="graph0" class="graph" transform="scale(1 1) rotate(0) translate(4 1911)">
<title>altintegration::VbkBlockTree</title>
<polygon fill="white" stroke="transparent" points="-4,4 -4,-1911 843,-1911 843,4 -4,4"/>
<!-- Node1 -->
<g id="node1" class="node">
<title>Node1</title>
<g id="a_node1"><a xlink:title="Veriblock block tree.">
<polygon fill="#bfbfbf" stroke="black" points="163.5,-0.5 163.5,-167.5 301.5,-167.5 301.5,-0.5 163.5,-0.5"/>
<text text-anchor="middle" x="232.5" y="-155.5" font-family="Helvetica,sans-Serif" font-size="10.00">altintegration::VbkBlockTree</text>
<polyline fill="none" stroke="black" points="163.5,-148.5 301.5,-148.5 "/>
<text text-anchor="middle" x="232.5" y="-136.5" font-family="Helvetica,sans-Serif" font-size="10.00"> </text>
<polyline fill="none" stroke="black" points="163.5,-129.5 301.5,-129.5 "/>
<text text-anchor="start" x="171.5" y="-117.5" font-family="Helvetica,sans-Serif" font-size="10.00">+ ~VbkBlockTree()</text>
<text text-anchor="start" x="171.5" y="-106.5" font-family="Helvetica,sans-Serif" font-size="10.00">+ VbkBlockTree()</text>
<text text-anchor="start" x="171.5" y="-95.5" font-family="Helvetica,sans-Serif" font-size="10.00">+ loadBlock()</text>
<text text-anchor="start" x="171.5" y="-84.5" font-family="Helvetica,sans-Serif" font-size="10.00">+ btc()</text>
<text text-anchor="start" x="171.5" y="-73.5" font-family="Helvetica,sans-Serif" font-size="10.00">+ btc()</text>
<text text-anchor="start" x="171.5" y="-62.5" font-family="Helvetica,sans-Serif" font-size="10.00">+ getComparator()</text>
<text text-anchor="start" x="171.5" y="-51.5" font-family="Helvetica,sans-Serif" font-size="10.00">+ getComparator()</text>
<text text-anchor="start" x="171.5" y="-40.5" font-family="Helvetica,sans-Serif" font-size="10.00">+ getPayloadsIndex()</text>
<text text-anchor="start" x="171.5" y="-29.5" font-family="Helvetica,sans-Serif" font-size="10.00">+ loadTip()</text>
<text text-anchor="start" x="171.5" y="-18.5" font-family="Helvetica,sans-Serif" font-size="10.00">+ addPayloads()</text>
<text text-anchor="start" x="171.5" y="-7.5" font-family="Helvetica,sans-Serif" font-size="10.00">and 10 more...</text>
</a>
</g>
</g>
<!-- Node2 -->
<g id="node2" class="node">
<title>Node2</title>
<g id="a_node2"><a xlink:href="structaltintegration_1_1BlockTree.html" target="_top" xlink:title=" ">
<polygon fill="white" stroke="black" points="154.5,-205.5 154.5,-460.5 310.5,-460.5 310.5,-205.5 154.5,-205.5"/>
<text text-anchor="start" x="162.5" y="-448.5" font-family="Helvetica,sans-Serif" font-size="10.00">altintegration::BlockTree</text>
<text text-anchor="middle" x="232.5" y="-437.5" font-family="Helvetica,sans-Serif" font-size="10.00">&lt; VbkBlock, VbkChainParams &gt;</text>
<polyline fill="none" stroke="black" points="154.5,-430.5 310.5,-430.5 "/>
<text text-anchor="start" x="162.5" y="-418.5" font-family="Helvetica,sans-Serif" font-size="10.00"># param_</text>
<polyline fill="none" stroke="black" points="154.5,-411.5 310.5,-411.5 "/>
<text text-anchor="start" x="162.5" y="-399.5" font-family="Helvetica,sans-Serif" font-size="10.00">+ ~BlockTree()</text>
<text text-anchor="start" x="162.5" y="-388.5" font-family="Helvetica,sans-Serif" font-size="10.00">+ BlockTree()</text>
<text text-anchor="start" x="162.5" y="-377.5" font-family="Helvetica,sans-Serif" font-size="10.00">+ getParams()</text>
<text text-anchor="start" x="162.5" y="-366.5" font-family="Helvetica,sans-Serif" font-size="10.00">+ bootstrapWithGenesis()</text>
<text text-anchor="start" x="162.5" y="-355.5" font-family="Helvetica,sans-Serif" font-size="10.00">+ bootstrapWithChain()</text>
<text text-anchor="start" x="162.5" y="-344.5" font-family="Helvetica,sans-Serif" font-size="10.00">+ acceptBlockHeader()</text>
<text text-anchor="start" x="162.5" y="-333.5" font-family="Helvetica,sans-Serif" font-size="10.00">+ acceptBlockHeader()</text>
<text text-anchor="start" x="162.5" y="-322.5" font-family="Helvetica,sans-Serif" font-size="10.00">+ toPrettyString()</text>
<text text-anchor="start" x="162.5" y="-311.5" font-family="Helvetica,sans-Serif" font-size="10.00">+ loadBlock()</text>
<text text-anchor="start" x="162.5" y="-300.5" font-family="Helvetica,sans-Serif" font-size="10.00">+ isBlockOld()</text>
<text text-anchor="start" x="162.5" y="-289.5" font-family="Helvetica,sans-Serif" font-size="10.00">+ isBlockOld()</text>
<text text-anchor="start" x="162.5" y="-278.5" font-family="Helvetica,sans-Serif" font-size="10.00">+ finalizeBlock()</text>
<text text-anchor="start" x="162.5" y="-267.5" font-family="Helvetica,sans-Serif" font-size="10.00"># acceptBlockHeaderImpl()</text>
<text text-anchor="start" x="162.5" y="-256.5" font-family="Helvetica,sans-Serif" font-size="10.00"># bootstrap()</text>
<text text-anchor="start" x="162.5" y="-245.5" font-family="Helvetica,sans-Serif" font-size="10.00"># bootstrap()</text>
<text text-anchor="start" x="162.5" y="-234.5" font-family="Helvetica,sans-Serif" font-size="10.00"># validateAndAddBlock()</text>
<text text-anchor="start" x="162.5" y="-223.5" font-family="Helvetica,sans-Serif" font-size="10.00"># determineBestChain()</text>
<text text-anchor="start" x="162.5" y="-212.5" font-family="Helvetica,sans-Serif" font-size="10.00"># onBlockInserted()</text>
</a>
</g>
</g>
<!-- Node2&#45;&gt;Node1 -->
<g id="edge1" class="edge">
<title>Node2&#45;&gt;Node1</title>
<path fill="none" stroke="midnightblue" d="M232.5,-195.07C232.5,-185.72 232.5,-176.48 232.5,-167.56"/>
<polygon fill="none" stroke="midnightblue" points="229,-195.24 232.5,-205.24 236,-195.24 229,-195.24"/>
</g>
<!-- Node3 -->
<g id="node3" class="node">
<title>Node3</title>
<g id="a_node3"><a xlink:href="structaltintegration_1_1BaseBlockTree.html" target="_top" xlink:title="Base block tree that stores all blocks, maintains tree tips, maintains active chain.">
<polygon fill="white" stroke="black" points="166.5,-801.5 166.5,-990.5 290.5,-990.5 290.5,-801.5 166.5,-801.5"/>
<text text-anchor="start" x="174.5" y="-978.5" font-family="Helvetica,sans-Serif" font-size="10.00">altintegration::BaseBlock</text>
<text text-anchor="middle" x="228.5" y="-967.5" font-family="Helvetica,sans-Serif" font-size="10.00">Tree&lt; Block &gt;</text>
<polyline fill="none" stroke="black" points="166.5,-960.5 290.5,-960.5 "/>
<text text-anchor="start" x="174.5" y="-948.5" font-family="Helvetica,sans-Serif" font-size="10.00"># validity_sig_</text>
<polyline fill="none" stroke="black" points="166.5,-941.5 290.5,-941.5 "/>
<text text-anchor="start" x="174.5" y="-929.5" font-family="Helvetica,sans-Serif" font-size="10.00">+ getTips()</text>
<text text-anchor="start" x="174.5" y="-918.5" font-family="Helvetica,sans-Serif" font-size="10.00">+ getBlocks()</text>
<text text-anchor="start" x="174.5" y="-907.5" font-family="Helvetica,sans-Serif" font-size="10.00">+ ~BaseBlockTree()</text>
<text text-anchor="start" x="174.5" y="-896.5" font-family="Helvetica,sans-Serif" font-size="10.00">+ BaseBlockTree()</text>
<text text-anchor="start" x="174.5" y="-885.5" font-family="Helvetica,sans-Serif" font-size="10.00">+ BaseBlockTree()</text>
<text text-anchor="start" x="174.5" y="-874.5" font-family="Helvetica,sans-Serif" font-size="10.00">+ operator=()</text>
<text text-anchor="start" x="174.5" y="-863.5" font-family="Helvetica,sans-Serif" font-size="10.00">+ BaseBlockTree()</text>
<text text-anchor="start" x="174.5" y="-852.5" font-family="Helvetica,sans-Serif" font-size="10.00">+ operator=()</text>
<text text-anchor="start" x="174.5" y="-841.5" font-family="Helvetica,sans-Serif" font-size="10.00">+ getBestChain()</text>
<text text-anchor="start" x="174.5" y="-830.5" font-family="Helvetica,sans-Serif" font-size="10.00">+ makePrevHash()</text>
<text text-anchor="start" x="174.5" y="-819.5" font-family="Helvetica,sans-Serif" font-size="10.00">and 20 more...</text>
<text text-anchor="start" x="174.5" y="-808.5" font-family="Helvetica,sans-Serif" font-size="10.00"># toPrettyString()</text>
</a>
</g>
</g>
<!-- Node3&#45;&gt;Node2 -->
<g id="edge2" class="edge">
<title>Node3&#45;&gt;Node2</title>
<path fill="none" stroke="midnightblue" d="M229.24,-791.39C229.9,-698.06 230.88,-560.58 231.6,-460.72"/>
<polygon fill="none" stroke="midnightblue" points="225.74,-791.39 229.17,-801.42 232.74,-791.44 225.74,-791.39"/>
</g>
<!-- Node20 -->
<g id="node20" class="node">
<title>Node20</title>
<g id="a_node20"><a xlink:href="structaltintegration_1_1BlockTree.html" target="_top" xlink:title="BlockTree is a tree of blocks with single &quot;bootstrap&quot; block as root.">
<polygon fill="white" stroke="black" points="244.5,-508.5 244.5,-763.5 378.5,-763.5 378.5,-508.5 244.5,-508.5"/>
<text text-anchor="start" x="252.5" y="-751.5" font-family="Helvetica,sans-Serif" font-size="10.00">altintegration::BlockTree</text>
<text text-anchor="middle" x="311.5" y="-740.5" font-family="Helvetica,sans-Serif" font-size="10.00">&lt; Block, ChainParams &gt;</text>
<polyline fill="none" stroke="black" points="244.5,-733.5 378.5,-733.5 "/>
<text text-anchor="start" x="252.5" y="-721.5" font-family="Helvetica,sans-Serif" font-size="10.00"># param_</text>
<polyline fill="none" stroke="black" points="244.5,-714.5 378.5,-714.5 "/>
<text text-anchor="start" x="252.5" y="-702.5" font-family="Helvetica,sans-Serif" font-size="10.00">+ ~BlockTree()</text>
<text text-anchor="start" x="252.5" y="-691.5" font-family="Helvetica,sans-Serif" font-size="10.00">+ BlockTree()</text>
<text text-anchor="start" x="252.5" y="-680.5" font-family="Helvetica,sans-Serif" font-size="10.00">+ getParams()</text>
<text text-anchor="start" x="252.5" y="-669.5" font-family="Helvetica,sans-Serif" font-size="10.00">+ bootstrapWithGenesis()</text>
<text text-anchor="start" x="252.5" y="-658.5" font-family="Helvetica,sans-Serif" font-size="10.00">+ bootstrapWithChain()</text>
<text text-anchor="start" x="252.5" y="-647.5" font-family="Helvetica,sans-Serif" font-size="10.00">+ acceptBlockHeader()</text>
<text text-anchor="start" x="252.5" y="-636.5" font-family="Helvetica,sans-Serif" font-size="10.00">+ acceptBlockHeader()</text>
<text text-anchor="start" x="252.5" y="-625.5" font-family="Helvetica,sans-Serif" font-size="10.00">+ toPrettyString()</text>
<text text-anchor="start" x="252.5" y="-614.5" font-family="Helvetica,sans-Serif" font-size="10.00">+ loadBlock()</text>
<text text-anchor="start" x="252.5" y="-603.5" font-family="Helvetica,sans-Serif" font-size="10.00">+ isBlockOld()</text>
<text text-anchor="start" x="252.5" y="-592.5" font-family="Helvetica,sans-Serif" font-size="10.00">+ isBlockOld()</text>
<text text-anchor="start" x="252.5" y="-581.5" font-family="Helvetica,sans-Serif" font-size="10.00">+ finalizeBlock()</text>
<text text-anchor="start" x="252.5" y="-570.5" font-family="Helvetica,sans-Serif" font-size="10.00"># acceptBlockHeaderImpl()</text>
<text text-anchor="start" x="252.5" y="-559.5" font-family="Helvetica,sans-Serif" font-size="10.00"># bootstrap()</text>
<text text-anchor="start" x="252.5" y="-548.5" font-family="Helvetica,sans-Serif" font-size="10.00"># bootstrap()</text>
<text text-anchor="start" x="252.5" y="-537.5" font-family="Helvetica,sans-Serif" font-size="10.00"># validateAndAddBlock()</text>
<text text-anchor="start" x="252.5" y="-526.5" font-family="Helvetica,sans-Serif" font-size="10.00"># determineBestChain()</text>
<text text-anchor="start" x="252.5" y="-515.5" font-family="Helvetica,sans-Serif" font-size="10.00"># onBlockInserted()</text>
</a>
</g>
</g>
<!-- Node3&#45;&gt;Node20 -->
<g id="edge26" class="edge">
<title>Node3&#45;&gt;Node20</title>
<path fill="none" stroke="midnightblue" d="M261.66,-791.93C264.64,-782.68 267.67,-773.24 270.7,-763.82"/>
<polygon fill="none" stroke="midnightblue" points="258.31,-790.9 258.58,-801.49 264.98,-793.04 258.31,-790.9"/>
</g>
<!-- Node4 -->
<g id="node4" class="node">
<title>Node4</title>
<g id="a_node4"><a xlink:href="structaltintegration_1_1Chain.html" target="_top" xlink:title=" ">
<polygon fill="white" stroke="black" points="0,-1049.5 0,-1227.5 141,-1227.5 141,-1049.5 0,-1049.5"/>
<text text-anchor="start" x="8" y="-1215.5" font-family="Helvetica,sans-Serif" font-size="10.00">altintegration::Chain</text>
<text text-anchor="middle" x="70.5" y="-1204.5" font-family="Helvetica,sans-Serif" font-size="10.00">&lt; altintegration::BlockIndex &gt;</text>
<polyline fill="none" stroke="black" points="0,-1197.5 141,-1197.5 "/>
<text text-anchor="middle" x="70.5" y="-1185.5" font-family="Helvetica,sans-Serif" font-size="10.00"> </text>
<polyline fill="none" stroke="black" points="0,-1178.5 141,-1178.5 "/>
<text text-anchor="start" x="8" y="-1166.5" font-family="Helvetica,sans-Serif" font-size="10.00">+ Chain()</text>
<text text-anchor="start" x="8" y="-1155.5" font-family="Helvetica,sans-Serif" font-size="10.00">+ Chain()</text>
<text text-anchor="start" x="8" y="-1144.5" font-family="Helvetica,sans-Serif" font-size="10.00">+ Chain()</text>
<text text-anchor="start" x="8" y="-1133.5" font-family="Helvetica,sans-Serif" font-size="10.00">+ getStartHeight()</text>
<text text-anchor="start" x="8" y="-1122.5" font-family="Helvetica,sans-Serif" font-size="10.00">+ firstHeight()</text>
<text text-anchor="start" x="8" y="-1111.5" font-family="Helvetica,sans-Serif" font-size="10.00">+ contains()</text>
<text text-anchor="start" x="8" y="-1100.5" font-family="Helvetica,sans-Serif" font-size="10.00">+ operator[]()</text>
<text text-anchor="start" x="8" y="-1089.5" font-family="Helvetica,sans-Serif" font-size="10.00">+ next()</text>
<text text-anchor="start" x="8" y="-1078.5" font-family="Helvetica,sans-Serif" font-size="10.00">+ chainHeight()</text>
<text text-anchor="start" x="8" y="-1067.5" font-family="Helvetica,sans-Serif" font-size="10.00">+ empty()</text>
<text text-anchor="start" x="8" y="-1056.5" font-family="Helvetica,sans-Serif" font-size="10.00">and 14 more...</text>
</a>
</g>
</g>
<!-- Node4&#45;&gt;Node3 -->
<g id="edge3" class="edge">
<title>Node4&#45;&gt;Node3</title>
<path fill="none" stroke="#404040" d="M128.44,-1049.31C138.7,-1033.7 149.47,-1017.3 159.98,-1001.29"/>
<polygon fill="none" stroke="#404040" points="160.26,-1000.87 160.21,-993.66 166.85,-990.84 166.9,-998.05 160.26,-1000.87"/>
<text text-anchor="middle" x="186.5" y="-1017.5" font-family="Helvetica,sans-Serif" font-size="10.00"> #activeChain_</text>
</g>
<!-- Node5 -->
<g id="node5" class="node">
<title>Node5</title>
<g id="a_node5"><a xlink:href="structaltintegration_1_1Chain.html" target="_top" xlink:title="Fully in&#45;memory chain representation.">
<polygon fill="white" stroke="black" points="19,-1303 19,-1481 120,-1481 120,-1303 19,-1303"/>
<text text-anchor="start" x="27" y="-1469" font-family="Helvetica,sans-Serif" font-size="10.00">altintegration::Chain</text>
<text text-anchor="middle" x="69.5" y="-1458" font-family="Helvetica,sans-Serif" font-size="10.00">&lt; BlockIndexT &gt;</text>
<polyline fill="none" stroke="black" points="19,-1451 120,-1451 "/>
<text text-anchor="middle" x="69.5" y="-1439" font-family="Helvetica,sans-Serif" font-size="10.00"> </text>
<polyline fill="none" stroke="black" points="19,-1432 120,-1432 "/>
<text text-anchor="start" x="27" y="-1420" font-family="Helvetica,sans-Serif" font-size="10.00">+ Chain()</text>
<text text-anchor="start" x="27" y="-1409" font-family="Helvetica,sans-Serif" font-size="10.00">+ Chain()</text>
<text text-anchor="start" x="27" y="-1398" font-family="Helvetica,sans-Serif" font-size="10.00">+ Chain()</text>
<text text-anchor="start" x="27" y="-1387" font-family="Helvetica,sans-Serif" font-size="10.00">+ getStartHeight()</text>
<text text-anchor="start" x="27" y="-1376" font-family="Helvetica,sans-Serif" font-size="10.00">+ firstHeight()</text>
<text text-anchor="start" x="27" y="-1365" font-family="Helvetica,sans-Serif" font-size="10.00">+ contains()</text>
<text text-anchor="start" x="27" y="-1354" font-family="Helvetica,sans-Serif" font-size="10.00">+ operator[]()</text>
<text text-anchor="start" x="27" y="-1343" font-family="Helvetica,sans-Serif" font-size="10.00">+ next()</text>
<text text-anchor="start" x="27" y="-1332" font-family="Helvetica,sans-Serif" font-size="10.00">+ chainHeight()</text>
<text text-anchor="start" x="27" y="-1321" font-family="Helvetica,sans-Serif" font-size="10.00">+ empty()</text>
<text text-anchor="start" x="27" y="-1310" font-family="Helvetica,sans-Serif" font-size="10.00">and 14 more...</text>
</a>
</g>
</g>
<!-- Node5&#45;&gt;Node4 -->
<g id="edge4" class="edge">
<title>Node5&#45;&gt;Node4</title>
<path fill="none" stroke="orange" d="M69.89,-1292.59C69.98,-1271.16 70.07,-1248.61 70.15,-1227.6"/>
<polygon fill="orange" stroke="orange" points="66.39,-1292.67 69.85,-1302.68 73.39,-1292.7 66.39,-1292.67"/>
<text text-anchor="middle" x="134" y="-1254.5" font-family="Helvetica,sans-Serif" font-size="10.00"> &lt; altintegration::BlockIndex &gt;</text>
</g>
<!-- Node6 -->
<g id="node6" class="node">
<title>Node6</title>
<g id="a_node6"><a xlink:title=" ">
<polygon fill="white" stroke="#bfbfbf" points="160,-1099 160,-1178 297,-1178 297,-1099 160,-1099"/>
<text text-anchor="start" x="168" y="-1166" font-family="Helvetica,sans-Serif" font-size="10.00">std::unordered_map</text>
<text text-anchor="start" x="168" y="-1155" font-family="Helvetica,sans-Serif" font-size="10.00">&lt; prev_block_hash_t,</text>
<text text-anchor="middle" x="228.5" y="-1144" font-family="Helvetica,sans-Serif" font-size="10.00"> std::unique_ptr&lt; index_t &gt; &gt;</text>
<polyline fill="none" stroke="#bfbfbf" points="160,-1137 297,-1137 "/>
<text text-anchor="start" x="168" y="-1125" font-family="Helvetica,sans-Serif" font-size="10.00">+ keys</text>
<polyline fill="none" stroke="#bfbfbf" points="160,-1118 297,-1118 "/>
<text text-anchor="middle" x="228.5" y="-1106" font-family="Helvetica,sans-Serif" font-size="10.00"> </text>
</a>
</g>
</g>
<!-- Node6&#45;&gt;Node3 -->
<g id="edge5" class="edge">
<title>Node6&#45;&gt;Node3</title>
<path fill="none" stroke="#404040" d="M228.5,-1098.86C228.5,-1072.73 228.5,-1036.86 228.5,-1002.61"/>
<polygon fill="none" stroke="#404040" points="228.5,-1002.58 224.5,-996.58 228.5,-990.58 232.5,-996.58 228.5,-1002.58"/>
<text text-anchor="middle" x="253" y="-1023" font-family="Helvetica,sans-Serif" font-size="10.00"> #blocks_</text>
<text text-anchor="middle" x="253" y="-1012" font-family="Helvetica,sans-Serif" font-size="10.00">#removed_</text>
</g>
<!-- Node7 -->
<g id="node7" class="node">
<title>Node7</title>
<g id="a_node7"><a xlink:title=" ">
<polygon fill="white" stroke="#bfbfbf" points="168,-1516.5 168,-1573.5 295,-1573.5 295,-1516.5 168,-1516.5"/>
<text text-anchor="middle" x="231.5" y="-1561.5" font-family="Helvetica,sans-Serif" font-size="10.00">std::unique_ptr&lt; index_t &gt;</text>
<polyline fill="none" stroke="#bfbfbf" points="168,-1554.5 295,-1554.5 "/>
<text text-anchor="start" x="176" y="-1542.5" font-family="Helvetica,sans-Serif" font-size="10.00">+ ptr</text>
<polyline fill="none" stroke="#bfbfbf" points="168,-1535.5 295,-1535.5 "/>
<text text-anchor="start" x="176" y="-1523.5" font-family="Helvetica,sans-Serif" font-size="10.00">+ operator&#45;&gt;()</text>
</a>
</g>
</g>
<!-- Node7&#45;&gt;Node6 -->
<g id="edge6" class="edge">
<title>Node7&#45;&gt;Node6</title>
<path fill="none" stroke="#404040" d="M223.8,-1516.46C222.43,-1510.42 221.21,-1504.03 220.5,-1498 207.65,-1389.01 216.29,-1260.14 222.92,-1190.44"/>
<polygon fill="none" stroke="#404040" points="222.95,-1190.07 219.56,-1183.71 224.13,-1178.13 227.52,-1184.49 222.95,-1190.07"/>
<text text-anchor="middle" x="245" y="-1389.5" font-family="Helvetica,sans-Serif" font-size="10.00"> +elements</text>
</g>
<!-- Node8 -->
<g id="node8" class="node">
<title>Node8</title>
<g id="a_node8"><a xlink:title=" ">
<polygon fill="white" stroke="#bfbfbf" points="197.5,-1668.5 197.5,-1725.5 299.5,-1725.5 299.5,-1668.5 197.5,-1668.5"/>
<text text-anchor="middle" x="248.5" y="-1713.5" font-family="Helvetica,sans-Serif" font-size="10.00">std::unique_ptr&lt; T &gt;</text>
<polyline fill="none" stroke="#bfbfbf" points="197.5,-1706.5 299.5,-1706.5 "/>
<text text-anchor="middle" x="248.5" y="-1694.5" font-family="Helvetica,sans-Serif" font-size="10.00"> </text>
<polyline fill="none" stroke="#bfbfbf" points="197.5,-1687.5 299.5,-1687.5 "/>
<text text-anchor="start" x="205.5" y="-1675.5" font-family="Helvetica,sans-Serif" font-size="10.00">+ operator&#45;&gt;()</text>
</a>
</g>
</g>
<!-- Node8&#45;&gt;Node7 -->
<g id="edge7" class="edge">
<title>Node8&#45;&gt;Node7</title>
<path fill="none" stroke="orange" d="M244.25,-1658.47C241.26,-1632.11 237.33,-1597.43 234.63,-1573.59"/>
<polygon fill="orange" stroke="orange" points="240.78,-1658.95 245.38,-1668.49 247.73,-1658.16 240.78,-1658.95"/>
<text text-anchor="middle" x="268.5" y="-1618.5" font-family="Helvetica,sans-Serif" font-size="10.00"> &lt; index_t &gt;</text>
</g>
<!-- Node9 -->
<g id="node9" class="node">
<title>Node9</title>
<g id="a_node9"><a xlink:title=" ">
<polygon fill="white" stroke="#bfbfbf" points="315,-1849.5 315,-1906.5 344,-1906.5 344,-1849.5 315,-1849.5"/>
<text text-anchor="middle" x="329.5" y="-1894.5" font-family="Helvetica,sans-Serif" font-size="10.00">T</text>
<polyline fill="none" stroke="#bfbfbf" points="315,-1887.5 344,-1887.5 "/>
<text text-anchor="middle" x="329.5" y="-1875.5" font-family="Helvetica,sans-Serif" font-size="10.00"> </text>
<polyline fill="none" stroke="#bfbfbf" points="315,-1868.5 344,-1868.5 "/>
<text text-anchor="middle" x="329.5" y="-1856.5" font-family="Helvetica,sans-Serif" font-size="10.00"> </text>
</a>
</g>
</g>
<!-- Node9&#45;&gt;Node8 -->
<g id="edge8" class="edge">
<title>Node9&#45;&gt;Node8</title>
<path fill="none" stroke="#404040" d="M314.96,-1859.9C308.39,-1851.57 300.9,-1841.17 295.5,-1831 279.62,-1801.08 267.18,-1764.67 259.09,-1737.51"/>
<polygon fill="none" stroke="#404040" points="259.02,-1737.27 253.52,-1732.62 255.69,-1725.74 261.2,-1730.39 259.02,-1737.27"/>
<text text-anchor="middle" x="305.5" y="-1823" font-family="Helvetica,sans-Serif" font-size="10.00"> +ptr</text>
</g>
<!-- Node10 -->
<g id="node10" class="node">
<title>Node10</title>
<g id="a_node10"><a xlink:title=" ">
<polygon fill="white" stroke="#bfbfbf" points="279,-1358 279,-1426 380,-1426 380,-1358 279,-1358"/>
<text text-anchor="start" x="287" y="-1414" font-family="Helvetica,sans-Serif" font-size="10.00">std::unordered_map</text>
<text text-anchor="middle" x="329.5" y="-1403" font-family="Helvetica,sans-Serif" font-size="10.00">&lt; K, T &gt;</text>
<polyline fill="none" stroke="#bfbfbf" points="279,-1396 380,-1396 "/>
<text text-anchor="middle" x="329.5" y="-1384" font-family="Helvetica,sans-Serif" font-size="10.00"> </text>
<polyline fill="none" stroke="#bfbfbf" points="279,-1377 380,-1377 "/>
<text text-anchor="middle" x="329.5" y="-1365" font-family="Helvetica,sans-Serif" font-size="10.00"> </text>
</a>
</g>
</g>
<!-- Node9&#45;&gt;Node10 -->
<g id="edge11" class="edge">
<title>Node9&#45;&gt;Node10</title>
<path fill="none" stroke="#404040" d="M329.5,-1849.24C329.5,-1769.19 329.5,-1537.33 329.5,-1438.5"/>
<polygon fill="none" stroke="#404040" points="329.5,-1438.29 325.5,-1432.29 329.5,-1426.29 333.5,-1432.29 329.5,-1438.29"/>
<text text-anchor="middle" x="354" y="-1694.5" font-family="Helvetica,sans-Serif" font-size="10.00"> +elements</text>
</g>
<!-- Node16 -->
<g id="node16" class="node">
<title>Node16</title>
<g id="a_node16"><a xlink:title=" ">
<polygon fill="white" stroke="#bfbfbf" points="394,-1744.5 394,-1801.5 497,-1801.5 497,-1744.5 394,-1744.5"/>
<text text-anchor="middle" x="445.5" y="-1789.5" font-family="Helvetica,sans-Serif" font-size="10.00">std::shared_ptr&lt; T &gt;</text>
<polyline fill="none" stroke="#bfbfbf" points="394,-1782.5 497,-1782.5 "/>
<text text-anchor="middle" x="445.5" y="-1770.5" font-family="Helvetica,sans-Serif" font-size="10.00"> </text>
<polyline fill="none" stroke="#bfbfbf" points="394,-1763.5 497,-1763.5 "/>
<text text-anchor="start" x="402" y="-1751.5" font-family="Helvetica,sans-Serif" font-size="10.00">+ operator&#45;&gt;()</text>
</a>
</g>
</g>
<!-- Node9&#45;&gt;Node16 -->
<g id="edge17" class="edge">
<title>Node9&#45;&gt;Node16</title>
<path fill="none" stroke="#404040" d="M344.19,-1863.95C359.49,-1850.37 384.12,-1828.51 405.26,-1809.73"/>
<polygon fill="none" stroke="#404040" points="405.4,-1809.6 407.23,-1802.63 414.38,-1801.64 412.55,-1808.61 405.4,-1809.6"/>
<text text-anchor="middle" x="401.5" y="-1823" font-family="Helvetica,sans-Serif" font-size="10.00"> +ptr</text>
</g>
<!-- Node10&#45;&gt;Node6 -->
<g id="edge9" class="edge">
<title>Node10&#45;&gt;Node6</title>
<path fill="none" stroke="orange" d="M302.36,-1349.21C288.27,-1326.03 271.71,-1296.25 260.5,-1268 248.89,-1238.72 240.54,-1203.98 235.29,-1178.01"/>
<polygon fill="orange" stroke="orange" points="299.4,-1351.07 307.62,-1357.75 305.36,-1347.4 299.4,-1351.07"/>
<text text-anchor="start" x="260.5" y="-1260" font-family="Helvetica,sans-Serif" font-size="10.00"> &lt; prev_block_hash_t,</text>
<text text-anchor="middle" x="321" y="-1249" font-family="Helvetica,sans-Serif" font-size="10.00"> std::unique_ptr&lt; index_t &gt; &gt;</text>
</g>
<!-- Node11 -->
<g id="node11" class="node">
<title>Node11</title>
<g id="a_node11"><a xlink:title=" ">
<polygon fill="white" stroke="#bfbfbf" points="443,-1592.5 443,-1649.5 472,-1649.5 472,-1592.5 443,-1592.5"/>
<text text-anchor="middle" x="457.5" y="-1637.5" font-family="Helvetica,sans-Serif" font-size="10.00">K</text>
<polyline fill="none" stroke="#bfbfbf" points="443,-1630.5 472,-1630.5 "/>
<text text-anchor="middle" x="457.5" y="-1618.5" font-family="Helvetica,sans-Serif" font-size="10.00"> </text>
<polyline fill="none" stroke="#bfbfbf" points="443,-1611.5 472,-1611.5 "/>
<text text-anchor="middle" x="457.5" y="-1599.5" font-family="Helvetica,sans-Serif" font-size="10.00"> </text>
</a>
</g>
</g>
<!-- Node11&#45;&gt;Node10 -->
<g id="edge10" class="edge">
<title>Node11&#45;&gt;Node10</title>
<path fill="none" stroke="#404040" d="M442.75,-1600.71C436.82,-1592.63 430.07,-1583.03 424.5,-1574 396.55,-1528.7 368.74,-1474.35 350.5,-1437.11"/>
<polygon fill="none" stroke="#404040" points="350.41,-1436.92 344.19,-1433.27 345.16,-1426.13 351.38,-1429.77 350.41,-1436.92"/>
<text text-anchor="middle" x="439" y="-1542.5" font-family="Helvetica,sans-Serif" font-size="10.00"> +keys</text>
</g>
<!-- Node18 -->
<g id="node18" class="node">
<title>Node18</title>
<g id="a_node18"><a xlink:title=" ">
<polygon fill="white" stroke="#bfbfbf" points="548,-1363.5 548,-1420.5 619,-1420.5 619,-1363.5 548,-1363.5"/>
<text text-anchor="middle" x="583.5" y="-1408.5" font-family="Helvetica,sans-Serif" font-size="10.00">std::set&lt; K &gt;</text>
<polyline fill="none" stroke="#bfbfbf" points="548,-1401.5 619,-1401.5 "/>
<text text-anchor="middle" x="583.5" y="-1389.5" font-family="Helvetica,sans-Serif" font-size="10.00"> </text>
<polyline fill="none" stroke="#bfbfbf" points="548,-1382.5 619,-1382.5 "/>
<text text-anchor="middle" x="583.5" y="-1370.5" font-family="Helvetica,sans-Serif" font-size="10.00"> </text>
</a>
</g>
</g>
<!-- Node11&#45;&gt;Node18 -->
<g id="edge22" class="edge">
<title>Node11&#45;&gt;Node18</title>
<path fill="none" stroke="#404040" d="M472.29,-1600.74C478.23,-1592.66 484.97,-1583.06 490.5,-1574 519.55,-1526.46 548.09,-1468.81 565.74,-1431.55"/>
<polygon fill="none" stroke="#404040" points="565.75,-1431.53 564.68,-1424.4 570.85,-1420.67 571.92,-1427.8 565.75,-1431.53"/>
<text text-anchor="middle" x="535" y="-1542.5" font-family="Helvetica,sans-Serif" font-size="10.00"> +keys</text>
</g>
<!-- Node19 -->
<g id="node19" class="node">
<title>Node19</title>
<g id="a_node19"><a xlink:title=" ">
<polygon fill="white" stroke="#bfbfbf" points="398,-1363.5 398,-1420.5 517,-1420.5 517,-1363.5 398,-1363.5"/>
<text text-anchor="middle" x="457.5" y="-1408.5" font-family="Helvetica,sans-Serif" font-size="10.00">std::unordered_set&lt; K &gt;</text>
<polyline fill="none" stroke="#bfbfbf" points="398,-1401.5 517,-1401.5 "/>
<text text-anchor="middle" x="457.5" y="-1389.5" font-family="Helvetica,sans-Serif" font-size="10.00"> </text>
<polyline fill="none" stroke="#bfbfbf" points="398,-1382.5 517,-1382.5 "/>
<text text-anchor="middle" x="457.5" y="-1370.5" font-family="Helvetica,sans-Serif" font-size="10.00"> </text>
</a>
</g>
</g>
<!-- Node11&#45;&gt;Node19 -->
<g id="edge24" class="edge">
<title>Node11&#45;&gt;Node19</title>
<path fill="none" stroke="#404040" d="M457.5,-1592.17C457.5,-1552.23 457.5,-1478.48 457.5,-1432.8"/>
<polygon fill="none" stroke="#404040" points="457.5,-1432.71 453.5,-1426.71 457.5,-1420.71 461.5,-1426.71 457.5,-1432.71"/>
<text text-anchor="middle" x="472" y="-1542.5" font-family="Helvetica,sans-Serif" font-size="10.00"> +keys</text>
</g>
<!-- Node12 -->
<g id="node12" class="node">
<title>Node12</title>
<g id="a_node12"><a xlink:title=" ">
<polygon fill="white" stroke="#bfbfbf" points="315,-1104.5 315,-1172.5 462,-1172.5 462,-1104.5 315,-1104.5"/>
<text text-anchor="start" x="323" y="-1160.5" font-family="Helvetica,sans-Serif" font-size="10.00">std::unordered_set</text>
<text text-anchor="middle" x="388.5" y="-1149.5" font-family="Helvetica,sans-Serif" font-size="10.00">&lt; altintegration::BlockIndex * &gt;</text>
<polyline fill="none" stroke="#bfbfbf" points="315,-1142.5 462,-1142.5 "/>
<text text-anchor="middle" x="388.5" y="-1130.5" font-family="Helvetica,sans-Serif" font-size="10.00"> </text>
<polyline fill="none" stroke="#bfbfbf" points="315,-1123.5 462,-1123.5 "/>
<text text-anchor="middle" x="388.5" y="-1111.5" font-family="Helvetica,sans-Serif" font-size="10.00"> </text>
</a>
</g>
</g>
<!-- Node12&#45;&gt;Node3 -->
<g id="edge12" class="edge">
<title>Node12&#45;&gt;Node3</title>
<path fill="none" stroke="#404040" d="M366.42,-1104.31C348.52,-1077.4 322.27,-1037.94 297.46,-1000.66"/>
<polygon fill="none" stroke="#404040" points="297.16,-1000.2 290.51,-997.42 290.51,-990.21 297.17,-992.99 297.16,-1000.2"/>
<text text-anchor="middle" x="328" y="-1017.5" font-family="Helvetica,sans-Serif" font-size="10.00"> #tips_</text>
</g>
<!-- Node13 -->
<g id="node13" class="node">
<title>Node13</title>
<g id="a_node13"><a xlink:href="structaltintegration_1_1BlockIndex.html" target="_top" xlink:title="A node in a block tree.">
<polygon fill="white" stroke="black" points="663,-1286.5 663,-1497.5 788,-1497.5 788,-1286.5 663,-1286.5"/>
<text text-anchor="start" x="671" y="-1485.5" font-family="Helvetica,sans-Serif" font-size="10.00">altintegration::BlockIndex</text>
<text text-anchor="middle" x="725.5" y="-1474.5" font-family="Helvetica,sans-Serif" font-size="10.00">&lt; Block &gt;</text>
<polyline fill="none" stroke="black" points="663,-1467.5 788,-1467.5 "/>
<text text-anchor="start" x="671" y="-1455.5" font-family="Helvetica,sans-Serif" font-size="10.00">+ finalized</text>
<text text-anchor="start" x="671" y="-1444.5" font-family="Helvetica,sans-Serif" font-size="10.00"># height</text>
<text text-anchor="start" x="671" y="-1433.5" font-family="Helvetica,sans-Serif" font-size="10.00"># status</text>
<text text-anchor="start" x="671" y="-1422.5" font-family="Helvetica,sans-Serif" font-size="10.00"># dirty</text>
<polyline fill="none" stroke="black" points="663,-1415.5 788,-1415.5 "/>
<text text-anchor="start" x="671" y="-1403.5" font-family="Helvetica,sans-Serif" font-size="10.00">+ BlockIndex()</text>
<text text-anchor="start" x="671" y="-1392.5" font-family="Helvetica,sans-Serif" font-size="10.00">+ ~BlockIndex()</text>
<text text-anchor="start" x="671" y="-1381.5" font-family="Helvetica,sans-Serif" font-size="10.00">+ BlockIndex()</text>
<text text-anchor="start" x="671" y="-1370.5" font-family="Helvetica,sans-Serif" font-size="10.00">+ operator=()</text>
<text text-anchor="start" x="671" y="-1359.5" font-family="Helvetica,sans-Serif" font-size="10.00">+ mergeFrom()</text>
<text text-anchor="start" x="671" y="-1348.5" font-family="Helvetica,sans-Serif" font-size="10.00">+ toStoredBlockIndex()</text>
<text text-anchor="start" x="671" y="-1337.5" font-family="Helvetica,sans-Serif" font-size="10.00">+ isConnected()</text>
<text text-anchor="start" x="671" y="-1326.5" font-family="Helvetica,sans-Serif" font-size="10.00">+ getStatus()</text>
<text text-anchor="start" x="671" y="-1315.5" font-family="Helvetica,sans-Serif" font-size="10.00">+ setStatus()</text>
<text text-anchor="start" x="671" y="-1304.5" font-family="Helvetica,sans-Serif" font-size="10.00">+ getValidityLevel()</text>
<text text-anchor="start" x="671" y="-1293.5" font-family="Helvetica,sans-Serif" font-size="10.00">and 35 more...</text>
</a>
</g>
</g>
<!-- Node13&#45;&gt;Node12 -->
<g id="edge13" class="edge">
<title>Node13&#45;&gt;Node12</title>
<path fill="none" stroke="#404040" d="M662.82,-1312.41C652.21,-1302.45 640.66,-1293.23 628.5,-1286 600.52,-1269.36 586.82,-1282.14 557.5,-1268 532.37,-1255.89 477.88,-1213.17 437.53,-1180.28"/>
<polygon fill="none" stroke="#404040" points="437.4,-1180.18 430.23,-1179.48 428.12,-1172.58 435.29,-1173.29 437.4,-1180.18"/>
<text text-anchor="middle" x="572" y="-1254.5" font-family="Helvetica,sans-Serif" font-size="10.00"> +keys</text>
</g>
<!-- Node13&#45;&gt;Node13 -->
<g id="edge18" class="edge">
<title>Node13&#45;&gt;Node13</title>
<path fill="none" stroke="#404040" d="M788.28,-1415.35C798.76,-1412.08 806,-1404.3 806,-1392 806,-1384.5 803.31,-1378.69 798.84,-1374.54"/>
<polygon fill="none" stroke="#404040" points="798.76,-1374.5 791.57,-1375.06 788.28,-1368.65 795.47,-1368.08 798.76,-1374.5"/>
<text text-anchor="middle" x="822.5" y="-1389.5" font-family="Helvetica,sans-Serif" font-size="10.00"> +pprev</text>
</g>
<!-- Node17 -->
<g id="node17" class="node">
<title>Node17</title>
<g id="a_node17"><a xlink:title=" ">
<polygon fill="white" stroke="#bfbfbf" points="696.5,-1104.5 696.5,-1172.5 808.5,-1172.5 808.5,-1104.5 696.5,-1104.5"/>
<text text-anchor="start" x="704.5" y="-1160.5" font-family="Helvetica,sans-Serif" font-size="10.00">std::set&lt; altintegration</text>
<text text-anchor="middle" x="752.5" y="-1149.5" font-family="Helvetica,sans-Serif" font-size="10.00">::BlockIndex * &gt;</text>
<polyline fill="none" stroke="#bfbfbf" points="696.5,-1142.5 808.5,-1142.5 "/>
<text text-anchor="middle" x="752.5" y="-1130.5" font-family="Helvetica,sans-Serif" font-size="10.00"> </text>
<polyline fill="none" stroke="#bfbfbf" points="696.5,-1123.5 808.5,-1123.5 "/>
<text text-anchor="middle" x="752.5" y="-1111.5" font-family="Helvetica,sans-Serif" font-size="10.00"> </text>
</a>
</g>
</g>
<!-- Node13&#45;&gt;Node17 -->
<g id="edge20" class="edge">
<title>Node13&#45;&gt;Node17</title>
<path fill="none" stroke="#404040" d="M736.75,-1286.16C740.54,-1250.86 744.58,-1213.3 747.61,-1185.03"/>
<polygon fill="none" stroke="#404040" points="747.65,-1184.67 744.31,-1178.27 748.93,-1172.74 752.27,-1179.13 747.65,-1184.67"/>
<text text-anchor="middle" x="755" y="-1254.5" font-family="Helvetica,sans-Serif" font-size="10.00"> +keys</text>
</g>
<!-- Node14 -->
<g id="node14" class="node">
<title>Node14</title>
<g id="a_node14"><a xlink:title=" ">
<polygon fill="white" stroke="#bfbfbf" points="685.5,-1592.5 685.5,-1649.5 765.5,-1649.5 765.5,-1592.5 685.5,-1592.5"/>
<text text-anchor="middle" x="725.5" y="-1637.5" font-family="Helvetica,sans-Serif" font-size="10.00">Block::addon_t</text>
<polyline fill="none" stroke="#bfbfbf" points="685.5,-1630.5 765.5,-1630.5 "/>
<text text-anchor="middle" x="725.5" y="-1618.5" font-family="Helvetica,sans-Serif" font-size="10.00"> </text>
<polyline fill="none" stroke="#bfbfbf" points="685.5,-1611.5 765.5,-1611.5 "/>
<text text-anchor="middle" x="725.5" y="-1599.5" font-family="Helvetica,sans-Serif" font-size="10.00"> </text>
</a>
</g>
</g>
<!-- Node14&#45;&gt;Node13 -->
<g id="edge14" class="edge">
<title>Node14&#45;&gt;Node13</title>
<path fill="none" stroke="midnightblue" d="M725.5,-1582.05C725.5,-1558.79 725.5,-1527.76 725.5,-1497.58"/>
<polygon fill="none" stroke="midnightblue" points="722,-1582.17 725.5,-1592.17 729,-1582.17 722,-1582.17"/>
</g>
<!-- Node15 -->
<g id="node15" class="node">
<title>Node15</title>
<g id="a_node15"><a xlink:title=" ">
<polygon fill="white" stroke="#bfbfbf" points="515.5,-1592.5 515.5,-1649.5 643.5,-1649.5 643.5,-1592.5 515.5,-1592.5"/>
<text text-anchor="middle" x="579.5" y="-1637.5" font-family="Helvetica,sans-Serif" font-size="10.00">std::shared_ptr&lt; block_t &gt;</text>
<polyline fill="none" stroke="#bfbfbf" points="515.5,-1630.5 643.5,-1630.5 "/>
<text text-anchor="start" x="523.5" y="-1618.5" font-family="Helvetica,sans-Serif" font-size="10.00">+ ptr</text>
<polyline fill="none" stroke="#bfbfbf" points="515.5,-1611.5 643.5,-1611.5 "/>
<text text-anchor="start" x="523.5" y="-1599.5" font-family="Helvetica,sans-Serif" font-size="10.00">+ operator&#45;&gt;()</text>
</a>
</g>
</g>
<!-- Node15&#45;&gt;Node13 -->
<g id="edge15" class="edge">
<title>Node15&#45;&gt;Node13</title>
<path fill="none" stroke="#404040" d="M597.4,-1592.17C612.27,-1569.04 634.44,-1534.58 656.17,-1500.8"/>
<polygon fill="none" stroke="#404040" points="656.4,-1500.44 656.28,-1493.23 662.89,-1490.35 663.01,-1497.56 656.4,-1500.44"/>
<text text-anchor="middle" x="662" y="-1542.5" font-family="Helvetica,sans-Serif" font-size="10.00"> #header</text>
</g>
<!-- Node16&#45;&gt;Node15 -->
<g id="edge16" class="edge">
<title>Node16&#45;&gt;Node15</title>
<path fill="none" stroke="orange" d="M476.86,-1736.9C500.65,-1710.27 532.89,-1674.17 554.85,-1649.59"/>
<polygon fill="orange" stroke="orange" points="474.13,-1734.7 470.08,-1744.49 479.35,-1739.36 474.13,-1734.7"/>
<text text-anchor="middle" x="561" y="-1694.5" font-family="Helvetica,sans-Serif" font-size="10.00"> &lt; block_t &gt;</text>
</g>
<!-- Node17&#45;&gt;Node13 -->
<g id="edge19" class="edge">
<title>Node17&#45;&gt;Node13</title>
<path fill="none" stroke="#404040" d="M768.56,-1172.73C779.08,-1198.64 789.65,-1235.56 782.5,-1268 782.02,-1270.19 781.49,-1272.39 780.93,-1274.59"/>
<polygon fill="none" stroke="#404040" points="780.86,-1274.83 783.05,-1281.7 777.56,-1286.37 775.36,-1279.5 780.86,-1274.83"/>
<text text-anchor="middle" x="800.5" y="-1254.5" font-family="Helvetica,sans-Serif" font-size="10.00"> +pnext</text>
</g>
<!-- Node18&#45;&gt;Node17 -->
<g id="edge21" class="edge">
<title>Node18&#45;&gt;Node17</title>
<path fill="none" stroke="orange" d="M580.11,-1352.85C579.18,-1321.92 582.13,-1278.31 601.5,-1246 623.35,-1209.54 663.04,-1182.29 696.24,-1164.49"/>
<polygon fill="orange" stroke="orange" points="576.63,-1353.4 580.58,-1363.23 583.62,-1353.08 576.63,-1353.4"/>
<text text-anchor="middle" x="668" y="-1254.5" font-family="Helvetica,sans-Serif" font-size="10.00"> &lt; altintegration::BlockIndex * &gt;</text>
</g>
<!-- Node19&#45;&gt;Node12 -->
<g id="edge23" class="edge">
<title>Node19&#45;&gt;Node12</title>
<path fill="none" stroke="orange" d="M431.19,-1354.85C415.76,-1331.37 397.73,-1299.39 389.5,-1268 381.21,-1236.38 382.08,-1198.87 384.34,-1172.57"/>
<polygon fill="orange" stroke="orange" points="428.47,-1357.06 436.95,-1363.41 434.28,-1353.16 428.47,-1357.06"/>
<text text-anchor="middle" x="456" y="-1254.5" font-family="Helvetica,sans-Serif" font-size="10.00"> &lt; altintegration::BlockIndex * &gt;</text>
</g>
<!-- Node20&#45;&gt;Node2 -->
<g id="edge25" class="edge">
<title>Node20&#45;&gt;Node2</title>
<path fill="none" stroke="orange" d="M275.6,-498.22C272.31,-485.7 269,-473.05 265.74,-460.63"/>
<polygon fill="orange" stroke="orange" points="272.3,-499.44 278.23,-508.22 279.07,-497.66 272.3,-499.44"/>
<text text-anchor="middle" x="343.5" y="-482" font-family="Helvetica,sans-Serif" font-size="10.00"> &lt; VbkBlock, VbkChainParams &gt;</text>
</g>
</g>
</svg>
