<?xml version="1.0" encoding="UTF-8" standalone="no"?>
<!DOCTYPE svg PUBLIC "-//W3C//DTD SVG 1.1//EN"
 "http://www.w3.org/Graphics/SVG/1.1/DTD/svg11.dtd">
<!-- Generated by graphviz version 2.50.0 (20220203.2022)
 -->
<!-- Title: altintegration::btc::Transaction Pages: 1 -->
<svg width="761pt" height="1125pt"
 viewBox="0.00 0.00 760.50 1125.00" xmlns="http://www.w3.org/2000/svg" xmlns:xlink="http://www.w3.org/1999/xlink">
<g id="graph0" class="graph" transform="scale(1 1) rotate(0) translate(4 1121)">
<title>altintegration::btc::Transaction</title>
<polygon fill="white" stroke="transparent" points="-4,4 -4,-1121 756.5,-1121 756.5,4 -4,4"/>
<!-- Node1 -->
<g id="node1" class="node">
<title>Node1</title>
<g id="a_node1"><a xlink:title="The basic transaction that is broadcasted on the network and contained in blocks.">
<polygon fill="#bfbfbf" stroke="black" points="581.5,-0.5 581.5,-101.5 671.5,-101.5 671.5,-0.5 581.5,-0.5"/>
<text text-anchor="start" x="589.5" y="-89.5" font-family="Helvetica,sans-Serif" font-size="10.00">altintegration::btc</text>
<text text-anchor="middle" x="626.5" y="-78.5" font-family="Helvetica,sans-Serif" font-size="10.00">::Transaction</text>
<polyline fill="none" stroke="black" points="581.5,-71.5 671.5,-71.5 "/>
<text text-anchor="start" x="589.5" y="-59.5" font-family="Helvetica,sans-Serif" font-size="10.00">+ nVersion</text>
<text text-anchor="start" x="589.5" y="-48.5" font-family="Helvetica,sans-Serif" font-size="10.00">+ nLockTime</text>
<polyline fill="none" stroke="black" points="581.5,-41.5 671.5,-41.5 "/>
<text text-anchor="start" x="589.5" y="-29.5" font-family="Helvetica,sans-Serif" font-size="10.00">+ Serialize()</text>
<text text-anchor="start" x="589.5" y="-18.5" font-family="Helvetica,sans-Serif" font-size="10.00">+ Unserialize()</text>
<text text-anchor="start" x="589.5" y="-7.5" font-family="Helvetica,sans-Serif" font-size="10.00">+ HasWitness()</text>
</a>
</g>
</g>
<!-- Node2 -->
<g id="node2" class="node">
<title>Node2</title>
<g id="a_node2"><a xlink:title=" ">
<polygon fill="white" stroke="black" points="515,-149.5 515,-217.5 640,-217.5 640,-149.5 515,-149.5"/>
<text text-anchor="start" x="523" y="-205.5" font-family="Helvetica,sans-Serif" font-size="10.00">std::vector&lt; altintegration</text>
<text text-anchor="middle" x="577.5" y="-194.5" font-family="Helvetica,sans-Serif" font-size="10.00">::btc::TxIn &gt;</text>
<polyline fill="none" stroke="black" points="515,-187.5 640,-187.5 "/>
<text text-anchor="middle" x="577.5" y="-175.5" font-family="Helvetica,sans-Serif" font-size="10.00"> </text>
<polyline fill="none" stroke="black" points="515,-168.5 640,-168.5 "/>
<text text-anchor="middle" x="577.5" y="-156.5" font-family="Helvetica,sans-Serif" font-size="10.00"> </text>
</a>
</g>
</g>
<!-- Node2&#45;&gt;Node1 -->
<g id="edge1" class="edge">
<title>Node2&#45;&gt;Node1</title>
<path fill="none" stroke="#404040" d="M589.99,-149.23C594.12,-138.25 598.84,-125.65 603.5,-113.26"/>
<polygon fill="none" stroke="#404040" points="603.52,-113.21 601.88,-106.19 607.74,-101.98 609.37,-109 603.52,-113.21"/>
<text text-anchor="middle" x="611.5" y="-123" font-family="Helvetica,sans-Serif" font-size="10.00"> +vin</text>
</g>
<!-- Node3 -->
<g id="node3" class="node">
<title>Node3</title>
<g id="a_node3"><a xlink:href="structaltintegration_1_1btc_1_1TxIn.html" target="_top" xlink:title="An input of a transaction.">
<polygon fill="white" stroke="black" points="203,-265.5 203,-344.5 358,-344.5 358,-265.5 203,-265.5"/>
<text text-anchor="start" x="211" y="-332.5" font-family="Helvetica,sans-Serif" font-size="10.00">altintegration::btc</text>
<text text-anchor="middle" x="280.5" y="-321.5" font-family="Helvetica,sans-Serif" font-size="10.00">::TxIn</text>
<polyline fill="none" stroke="black" points="203,-314.5 358,-314.5 "/>
<text text-anchor="start" x="211" y="-302.5" font-family="Helvetica,sans-Serif" font-size="10.00">+ nSequence</text>
<text text-anchor="start" x="211" y="-291.5" font-family="Helvetica,sans-Serif" font-size="10.00">+ ADD_SERIALIZE_METHODS</text>
<polyline fill="none" stroke="black" points="203,-284.5 358,-284.5 "/>
<text text-anchor="start" x="211" y="-272.5" font-family="Helvetica,sans-Serif" font-size="10.00">+ SerializationOp()</text>
</a>
</g>
</g>
<!-- Node3&#45;&gt;Node2 -->
<g id="edge2" class="edge">
<title>Node3&#45;&gt;Node2</title>
<path fill="none" stroke="#404040" d="M358.15,-272.76C403.05,-254.69 459.24,-232.08 503.51,-214.27"/>
<polygon fill="none" stroke="#404040" points="503.65,-214.21 507.72,-208.26 514.78,-209.73 510.71,-215.69 503.65,-214.21"/>
<text text-anchor="middle" x="472" y="-239" font-family="Helvetica,sans-Serif" font-size="10.00"> +elements</text>
</g>
<!-- Node4 -->
<g id="node4" class="node">
<title>Node4</title>
<g id="a_node4"><a xlink:href="structaltintegration_1_1btc_1_1OutPoint.html" target="_top" xlink:title="An outpoint &#45; a combination of a transaction hash and an index n into its vout.">
<polygon fill="white" stroke="black" points="0,-392.5 0,-471.5 155,-471.5 155,-392.5 0,-392.5"/>
<text text-anchor="start" x="8" y="-459.5" font-family="Helvetica,sans-Serif" font-size="10.00">altintegration::btc</text>
<text text-anchor="middle" x="77.5" y="-448.5" font-family="Helvetica,sans-Serif" font-size="10.00">::OutPoint</text>
<polyline fill="none" stroke="black" points="0,-441.5 155,-441.5 "/>
<text text-anchor="start" x="8" y="-429.5" font-family="Helvetica,sans-Serif" font-size="10.00">+ n</text>
<text text-anchor="start" x="8" y="-418.5" font-family="Helvetica,sans-Serif" font-size="10.00">+ ADD_SERIALIZE_METHODS</text>
<polyline fill="none" stroke="black" points="0,-411.5 155,-411.5 "/>
<text text-anchor="start" x="8" y="-399.5" font-family="Helvetica,sans-Serif" font-size="10.00">+ SerializationOp()</text>
</a>
</g>
</g>
<!-- Node4&#45;&gt;Node3 -->
<g id="edge3" class="edge">
<title>Node4&#45;&gt;Node3</title>
<path fill="none" stroke="#404040" d="M140.06,-392.48C161.38,-379.35 185.41,-364.56 207.47,-350.97"/>
<polygon fill="none" stroke="#404040" points="207.58,-350.9 210.59,-344.35 217.79,-344.61 214.78,-351.16 207.58,-350.9"/>
<text text-anchor="middle" x="206" y="-366" font-family="Helvetica,sans-Serif" font-size="10.00"> +prevout</text>
</g>
<!-- Node5 -->
<g id="node5" class="node">
<title>Node5</title>
<g id="a_node5"><a xlink:href="structaltintegration_1_1Blob.html" target="_top" xlink:title=" ">
<polygon fill="white" stroke="black" points="12,-530.5 12,-752.5 143,-752.5 143,-530.5 12,-530.5"/>
<text text-anchor="start" x="20" y="-740.5" font-family="Helvetica,sans-Serif" font-size="10.00">altintegration::Blob</text>
<text text-anchor="middle" x="77.5" y="-729.5" font-family="Helvetica,sans-Serif" font-size="10.00">&lt; SHA256_HASH_SIZE &gt;</text>
<polyline fill="none" stroke="black" points="12,-722.5 143,-722.5 "/>
<text text-anchor="start" x="20" y="-710.5" font-family="Helvetica,sans-Serif" font-size="10.00">+ data_</text>
<text text-anchor="start" x="20" y="-699.5" font-family="Helvetica,sans-Serif" font-size="10.00">+ this</text>
<polyline fill="none" stroke="black" points="12,-692.5 143,-692.5 "/>
<text text-anchor="start" x="20" y="-680.5" font-family="Helvetica,sans-Serif" font-size="10.00">+ Blob()</text>
<text text-anchor="start" x="20" y="-669.5" font-family="Helvetica,sans-Serif" font-size="10.00">+ Blob()</text>
<text text-anchor="start" x="20" y="-658.5" font-family="Helvetica,sans-Serif" font-size="10.00">+ Blob()</text>
<text text-anchor="start" x="20" y="-647.5" font-family="Helvetica,sans-Serif" font-size="10.00">+ Blob()</text>
<text text-anchor="start" x="20" y="-636.5" font-family="Helvetica,sans-Serif" font-size="10.00">+ Blob()</text>
<text text-anchor="start" x="20" y="-625.5" font-family="Helvetica,sans-Serif" font-size="10.00">+ operator=()</text>
<text text-anchor="start" x="20" y="-614.5" font-family="Helvetica,sans-Serif" font-size="10.00">+ operator=()</text>
<text text-anchor="start" x="20" y="-603.5" font-family="Helvetica,sans-Serif" font-size="10.00">+ reverse()</text>
<text text-anchor="start" x="20" y="-592.5" font-family="Helvetica,sans-Serif" font-size="10.00">+ operator~()</text>
<text text-anchor="start" x="20" y="-581.5" font-family="Helvetica,sans-Serif" font-size="10.00">+ asVector()</text>
<text text-anchor="start" x="20" y="-570.5" font-family="Helvetica,sans-Serif" font-size="10.00">+ asString()</text>
<text text-anchor="start" x="20" y="-559.5" font-family="Helvetica,sans-Serif" font-size="10.00">+ operator[]()</text>
<text text-anchor="start" x="20" y="-548.5" font-family="Helvetica,sans-Serif" font-size="10.00">+ operator[]()</text>
<text text-anchor="start" x="20" y="-537.5" font-family="Helvetica,sans-Serif" font-size="10.00">+ compareTo()</text>
</a>
</g>
</g>
<!-- Node5&#45;&gt;Node4 -->
<g id="edge4" class="edge">
<title>Node5&#45;&gt;Node4</title>
<path fill="none" stroke="#404040" d="M77.5,-530.37C77.5,-514.02 77.5,-497.87 77.5,-483.58"/>
<polygon fill="none" stroke="#404040" points="77.5,-483.53 73.5,-477.53 77.5,-471.53 81.5,-477.53 77.5,-483.53"/>
<text text-anchor="middle" x="92.5" y="-498.5" font-family="Helvetica,sans-Serif" font-size="10.00"> +hash</text>
</g>
<!-- Node6 -->
<g id="node6" class="node">
<title>Node6</title>
<g id="a_node6"><a xlink:href="structaltintegration_1_1Blob.html" target="_top" xlink:title="Contiguous byte array of fixed size.">
<polygon fill="white" stroke="black" points="17.5,-800.5 17.5,-1011.5 137.5,-1011.5 137.5,-800.5 17.5,-800.5"/>
<text text-anchor="middle" x="77.5" y="-999.5" font-family="Helvetica,sans-Serif" font-size="10.00">altintegration::Blob&lt; N &gt;</text>
<polyline fill="none" stroke="black" points="17.5,-992.5 137.5,-992.5 "/>
<text text-anchor="start" x="25.5" y="-980.5" font-family="Helvetica,sans-Serif" font-size="10.00">+ data_</text>
<text text-anchor="start" x="25.5" y="-969.5" font-family="Helvetica,sans-Serif" font-size="10.00">+ this</text>
<polyline fill="none" stroke="black" points="17.5,-962.5 137.5,-962.5 "/>
<text text-anchor="start" x="25.5" y="-950.5" font-family="Helvetica,sans-Serif" font-size="10.00">+ Blob()</text>
<text text-anchor="start" x="25.5" y="-939.5" font-family="Helvetica,sans-Serif" font-size="10.00">+ Blob()</text>
<text text-anchor="start" x="25.5" y="-928.5" font-family="Helvetica,sans-Serif" font-size="10.00">+ Blob()</text>
<text text-anchor="start" x="25.5" y="-917.5" font-family="Helvetica,sans-Serif" font-size="10.00">+ Blob()</text>
<text text-anchor="start" x="25.5" y="-906.5" font-family="Helvetica,sans-Serif" font-size="10.00">+ Blob()</text>
<text text-anchor="start" x="25.5" y="-895.5" font-family="Helvetica,sans-Serif" font-size="10.00">+ operator=()</text>
<text text-anchor="start" x="25.5" y="-884.5" font-family="Helvetica,sans-Serif" font-size="10.00">+ operator=()</text>
<text text-anchor="start" x="25.5" y="-873.5" font-family="Helvetica,sans-Serif" font-size="10.00">+ reverse()</text>
<text text-anchor="start" x="25.5" y="-862.5" font-family="Helvetica,sans-Serif" font-size="10.00">+ operator~()</text>
<text text-anchor="start" x="25.5" y="-851.5" font-family="Helvetica,sans-Serif" font-size="10.00">+ asVector()</text>
<text text-anchor="start" x="25.5" y="-840.5" font-family="Helvetica,sans-Serif" font-size="10.00">+ asString()</text>
<text text-anchor="start" x="25.5" y="-829.5" font-family="Helvetica,sans-Serif" font-size="10.00">+ operator[]()</text>
<text text-anchor="start" x="25.5" y="-818.5" font-family="Helvetica,sans-Serif" font-size="10.00">+ operator[]()</text>
<text text-anchor="start" x="25.5" y="-807.5" font-family="Helvetica,sans-Serif" font-size="10.00">+ compareTo()</text>
</a>
</g>
</g>
<!-- Node6&#45;&gt;Node5 -->
<g id="edge5" class="edge">
<title>Node6&#45;&gt;Node5</title>
<path fill="none" stroke="orange" d="M77.5,-790.48C77.5,-777.93 77.5,-765.17 77.5,-752.67"/>
<polygon fill="orange" stroke="orange" points="74,-790.5 77.5,-800.5 81,-790.5 74,-790.5"/>
<text text-anchor="middle" x="136" y="-774" font-family="Helvetica,sans-Serif" font-size="10.00"> &lt; SHA256_HASH_SIZE &gt;</text>
</g>
<!-- Node7 -->
<g id="node7" class="node">
<title>Node7</title>
<g id="a_node7"><a xlink:title=" ">
<polygon fill="white" stroke="black" points="372,-613 372,-670 479,-670 479,-613 372,-613"/>
<text text-anchor="middle" x="425.5" y="-658" font-family="Helvetica,sans-Serif" font-size="10.00">std::vector&lt; uint8_t &gt;</text>
<polyline fill="none" stroke="black" points="372,-651 479,-651 "/>
<text text-anchor="start" x="380" y="-639" font-family="Helvetica,sans-Serif" font-size="10.00">+ elements</text>
<polyline fill="none" stroke="black" points="372,-632 479,-632 "/>
<text text-anchor="middle" x="425.5" y="-620" font-family="Helvetica,sans-Serif" font-size="10.00"> </text>
</a>
</g>
</g>
<!-- Node7&#45;&gt;Node3 -->
<g id="edge6" class="edge">
<title>Node7&#45;&gt;Node3</title>
<path fill="none" stroke="#404040" d="M407.05,-612.79C386.26,-580.34 352.85,-524.37 333.5,-472 316.34,-425.56 327.3,-409.57 310.5,-363 309.64,-360.62 308.7,-358.21 307.69,-355.8"/>
<polygon fill="none" stroke="#404040" points="307.57,-355.53 301.46,-351.71 302.63,-344.6 308.75,-348.42 307.57,-355.53"/>
<text text-anchor="middle" x="357" y="-429.5" font-family="Helvetica,sans-Serif" font-size="10.00"> +scriptSig</text>
</g>
<!-- Node10 -->
<g id="node10" class="node">
<title>Node10</title>
<g id="a_node10"><a xlink:title=" ">
<polygon fill="white" stroke="black" points="173,-398 173,-466 288,-466 288,-398 173,-398"/>
<text text-anchor="start" x="181" y="-454" font-family="Helvetica,sans-Serif" font-size="10.00">std::vector&lt; std::vector</text>
<text text-anchor="middle" x="230.5" y="-443" font-family="Helvetica,sans-Serif" font-size="10.00">&lt; uint8_t &gt; &gt;</text>
<polyline fill="none" stroke="black" points="173,-436 288,-436 "/>
<text text-anchor="middle" x="230.5" y="-424" font-family="Helvetica,sans-Serif" font-size="10.00"> </text>
<polyline fill="none" stroke="black" points="173,-417 288,-417 "/>
<text text-anchor="middle" x="230.5" y="-405" font-family="Helvetica,sans-Serif" font-size="10.00"> </text>
</a>
</g>
</g>
<!-- Node7&#45;&gt;Node10 -->
<g id="edge10" class="edge">
<title>Node7&#45;&gt;Node10</title>
<path fill="none" stroke="#404040" d="M404.57,-612.74C384.48,-587.85 352.01,-551.98 316.5,-530 294.63,-516.46 280.2,-529.66 261.5,-512 251.84,-502.88 245.14,-490.38 240.51,-478.02"/>
<polygon fill="none" stroke="#404040" points="240.41,-477.72 234.74,-473.27 236.68,-466.32 242.35,-470.78 240.41,-477.72"/>
<text text-anchor="middle" x="286" y="-498.5" font-family="Helvetica,sans-Serif" font-size="10.00"> +elements</text>
</g>
<!-- Node12 -->
<g id="node12" class="node">
<title>Node12</title>
<g id="a_node12"><a xlink:href="structaltintegration_1_1btc_1_1TxOut.html" target="_top" xlink:title="An output of a transaction.">
<polygon fill="white" stroke="black" points="390,-392.5 390,-471.5 545,-471.5 545,-392.5 390,-392.5"/>
<text text-anchor="start" x="398" y="-459.5" font-family="Helvetica,sans-Serif" font-size="10.00">altintegration::btc</text>
<text text-anchor="middle" x="467.5" y="-448.5" font-family="Helvetica,sans-Serif" font-size="10.00">::TxOut</text>
<polyline fill="none" stroke="black" points="390,-441.5 545,-441.5 "/>
<text text-anchor="start" x="398" y="-429.5" font-family="Helvetica,sans-Serif" font-size="10.00">+ nValue</text>
<text text-anchor="start" x="398" y="-418.5" font-family="Helvetica,sans-Serif" font-size="10.00">+ ADD_SERIALIZE_METHODS</text>
<polyline fill="none" stroke="black" points="390,-411.5 545,-411.5 "/>
<text text-anchor="start" x="398" y="-399.5" font-family="Helvetica,sans-Serif" font-size="10.00">+ SerializationOp()</text>
</a>
</g>
</g>
<!-- Node7&#45;&gt;Node12 -->
<g id="edge15" class="edge">
<title>Node7&#45;&gt;Node12</title>
<path fill="none" stroke="#404040" d="M431.08,-612.95C437.74,-580.01 449.03,-524.23 457.28,-483.48"/>
<polygon fill="none" stroke="#404040" points="457.3,-483.39 454.57,-476.72 459.68,-471.63 462.41,-478.31 457.3,-483.39"/>
<text text-anchor="middle" x="489" y="-498.5" font-family="Helvetica,sans-Serif" font-size="10.00"> +scriptPubKey</text>
</g>
<!-- Node8 -->
<g id="node8" class="node">
<title>Node8</title>
<g id="a_node8"><a xlink:title=" ">
<polygon fill="white" stroke="black" points="500.5,-877.5 500.5,-934.5 584.5,-934.5 584.5,-877.5 500.5,-877.5"/>
<text text-anchor="middle" x="542.5" y="-922.5" font-family="Helvetica,sans-Serif" font-size="10.00">std::vector&lt; T &gt;</text>
<polyline fill="none" stroke="black" points="500.5,-915.5 584.5,-915.5 "/>
<text text-anchor="middle" x="542.5" y="-903.5" font-family="Helvetica,sans-Serif" font-size="10.00"> </text>
<polyline fill="none" stroke="black" points="500.5,-896.5 584.5,-896.5 "/>
<text text-anchor="middle" x="542.5" y="-884.5" font-family="Helvetica,sans-Serif" font-size="10.00"> </text>
</a>
</g>
</g>
<!-- Node8&#45;&gt;Node2 -->
<g id="edge12" class="edge">
<title>Node8&#45;&gt;Node2</title>
<path fill="none" stroke="orange" d="M551.66,-867.37C563.19,-816.63 581.5,-723.32 581.5,-642.5 581.5,-642.5 581.5,-642.5 581.5,-304 581.5,-274.83 580.3,-241.69 579.21,-217.72"/>
<polygon fill="orange" stroke="orange" points="548.22,-866.7 549.38,-877.23 555.04,-868.27 548.22,-866.7"/>
<text text-anchor="start" x="581.5" y="-435" font-family="Helvetica,sans-Serif" font-size="10.00"> &lt; altintegration::btc</text>
<text text-anchor="middle" x="624" y="-424" font-family="Helvetica,sans-Serif" font-size="10.00">::TxIn &gt;</text>
</g>
<!-- Node8&#45;&gt;Node7 -->
<g id="edge7" class="edge">
<title>Node8&#45;&gt;Node7</title>
<path fill="none" stroke="orange" d="M526,-867.99C502.26,-814.71 458.97,-717.6 437.81,-670.12"/>
<polygon fill="orange" stroke="orange" points="522.93,-869.7 530.2,-877.4 529.33,-866.85 522.93,-869.7"/>
<text text-anchor="middle" x="513" y="-774" font-family="Helvetica,sans-Serif" font-size="10.00"> &lt; uint8_t &gt;</text>
</g>
<!-- Node8&#45;&gt;Node10 -->
<g id="edge11" class="edge">
<title>Node8&#45;&gt;Node10</title>
<path fill="none" stroke="orange" d="M490.35,-890.39C428.78,-870.23 328.34,-827.64 277.5,-753 216.81,-663.89 220.72,-528.45 226.46,-466.29"/>
<polygon fill="orange" stroke="orange" points="489.67,-893.85 500.26,-893.55 491.8,-887.18 489.67,-893.85"/>
<text text-anchor="start" x="277.5" y="-644.5" font-family="Helvetica,sans-Serif" font-size="10.00"> &lt; std::vector&lt; uint8</text>
<text text-anchor="middle" x="320" y="-633.5" font-family="Helvetica,sans-Serif" font-size="10.00">_t &gt; &gt;</text>
</g>
<!-- Node11 -->
<g id="node11" class="node">
<title>Node11</title>
<g id="a_node11"><a xlink:title=" ">
<polygon fill="white" stroke="black" points="614,-271 614,-339 739,-339 739,-271 614,-271"/>
<text text-anchor="start" x="622" y="-327" font-family="Helvetica,sans-Serif" font-size="10.00">std::vector&lt; altintegration</text>
<text text-anchor="middle" x="676.5" y="-316" font-family="Helvetica,sans-Serif" font-size="10.00">::btc::TxOut &gt;</text>
<polyline fill="none" stroke="black" points="614,-309 739,-309 "/>
<text text-anchor="middle" x="676.5" y="-297" font-family="Helvetica,sans-Serif" font-size="10.00"> </text>
<polyline fill="none" stroke="black" points="614,-290 739,-290 "/>
<text text-anchor="middle" x="676.5" y="-278" font-family="Helvetica,sans-Serif" font-size="10.00"> </text>
</a>
</g>
</g>
<!-- Node8&#45;&gt;Node11 -->
<g id="edge16" class="edge">
<title>Node8&#45;&gt;Node11</title>
<path fill="none" stroke="orange" d="M560.37,-868.06C571.54,-843.96 585.62,-811.6 595.5,-782 640.37,-647.54 651.18,-612.43 670.5,-472 676.79,-426.29 677.56,-372.87 677.26,-339.24"/>
<polygon fill="orange" stroke="orange" points="557.16,-866.65 556.09,-877.19 563.5,-869.62 557.16,-866.65"/>
<text text-anchor="start" x="667.5" y="-504" font-family="Helvetica,sans-Serif" font-size="10.00"> &lt; altintegration::btc</text>
<text text-anchor="middle" x="710" y="-493" font-family="Helvetica,sans-Serif" font-size="10.00">::TxOut &gt;</text>
</g>
<!-- Node9 -->
<g id="node9" class="node">
<title>Node9</title>
<g id="a_node9"><a xlink:title=" ">
<polygon fill="white" stroke="#bfbfbf" points="528,-1059.5 528,-1116.5 557,-1116.5 557,-1059.5 528,-1059.5"/>
<text text-anchor="middle" x="542.5" y="-1104.5" font-family="Helvetica,sans-Serif" font-size="10.00">T</text>
<polyline fill="none" stroke="#bfbfbf" points="528,-1097.5 557,-1097.5 "/>
<text text-anchor="middle" x="542.5" y="-1085.5" font-family="Helvetica,sans-Serif" font-size="10.00"> </text>
<polyline fill="none" stroke="#bfbfbf" points="528,-1078.5 557,-1078.5 "/>
<text text-anchor="middle" x="542.5" y="-1066.5" font-family="Helvetica,sans-Serif" font-size="10.00"> </text>
</a>
</g>
</g>
<!-- Node9&#45;&gt;Node8 -->
<g id="edge8" class="edge">
<title>Node9&#45;&gt;Node8</title>
<path fill="none" stroke="#404040" d="M542.5,-1059.27C542.5,-1029.28 542.5,-981.18 542.5,-947.08"/>
<polygon fill="none" stroke="#404040" points="542.5,-946.76 538.5,-940.76 542.5,-934.76 546.5,-940.76 542.5,-946.76"/>
<text text-anchor="middle" x="567" y="-1033" font-family="Helvetica,sans-Serif" font-size="10.00"> +elements</text>
</g>
<!-- Node10&#45;&gt;Node3 -->
<g id="edge9" class="edge">
<title>Node10&#45;&gt;Node3</title>
<path fill="none" stroke="#404040" d="M233.57,-397.73C235.34,-386.43 238.13,-373.9 242.5,-363 243.51,-360.49 244.64,-357.97 245.85,-355.48"/>
<polygon fill="none" stroke="#404040" points="245.98,-355.24 245.32,-348.06 251.7,-344.69 252.36,-351.87 245.98,-355.24"/>
<text text-anchor="middle" x="276.5" y="-366" font-family="Helvetica,sans-Serif" font-size="10.00"> +scriptWitness</text>
</g>
<!-- Node11&#45;&gt;Node1 -->
<g id="edge13" class="edge">
<title>Node11&#45;&gt;Node1</title>
<path fill="none" stroke="#404040" d="M670.97,-270.96C665.6,-239.52 657.04,-190.93 648.5,-149 646.17,-137.57 643.54,-125.42 640.93,-113.73"/>
<polygon fill="none" stroke="#404040" points="640.87,-113.46 635.65,-108.49 638.23,-101.75 643.45,-106.73 640.87,-113.46"/>
<text text-anchor="middle" x="675.5" y="-181" font-family="Helvetica,sans-Serif" font-size="10.00"> +vout</text>
</g>
<!-- Node12&#45;&gt;Node11 -->
<g id="edge14" class="edge">
<title>Node12&#45;&gt;Node11</title>
<path fill="none" stroke="#404040" d="M531.91,-392.48C556.89,-377.54 585.47,-360.44 610.59,-345.42"/>
<polygon fill="none" stroke="#404040" points="610.82,-345.28 613.92,-338.77 621.12,-339.12 618.02,-345.63 610.82,-345.28"/>
<text text-anchor="middle" x="603" y="-366" font-family="Helvetica,sans-Serif" font-size="10.00"> +elements</text>
</g>
</g>
</svg>
